G04*
G04 #@! TF.GenerationSoftware,Altium Limited,Altium Designer,23.4.1 (23)*
G04*
G04 Layer_Color=8388736*
%FSLAX25Y25*%
%MOIN*%
G70*
G04*
G04 #@! TF.SameCoordinates,34EAC48E-9BE4-4C3F-87F1-4BBE4831E638*
G04*
G04*
G04 #@! TF.FilePolarity,Negative*
G04*
G01*
G75*
G04:AMPARAMS|DCode=34|XSize=92.13mil|YSize=96.06mil|CornerRadius=11.42mil|HoleSize=0mil|Usage=FLASHONLY|Rotation=270.000|XOffset=0mil|YOffset=0mil|HoleType=Round|Shape=RoundedRectangle|*
%AMROUNDEDRECTD34*
21,1,0.09213,0.07323,0,0,270.0*
21,1,0.06929,0.09606,0,0,270.0*
1,1,0.02284,-0.03661,-0.03465*
1,1,0.02284,-0.03661,0.03465*
1,1,0.02284,0.03661,0.03465*
1,1,0.02284,0.03661,-0.03465*
%
%ADD34ROUNDEDRECTD34*%
G04:AMPARAMS|DCode=35|XSize=100mil|YSize=135.43mil|CornerRadius=12.21mil|HoleSize=0mil|Usage=FLASHONLY|Rotation=0.000|XOffset=0mil|YOffset=0mil|HoleType=Round|Shape=RoundedRectangle|*
%AMROUNDEDRECTD35*
21,1,0.10000,0.11102,0,0,0.0*
21,1,0.07559,0.13543,0,0,0.0*
1,1,0.02441,0.03780,-0.05551*
1,1,0.02441,-0.03780,-0.05551*
1,1,0.02441,-0.03780,0.05551*
1,1,0.02441,0.03780,0.05551*
%
%ADD35ROUNDEDRECTD35*%
G04:AMPARAMS|DCode=36|XSize=80.32mil|YSize=103.94mil|CornerRadius=10.24mil|HoleSize=0mil|Usage=FLASHONLY|Rotation=0.000|XOffset=0mil|YOffset=0mil|HoleType=Round|Shape=RoundedRectangle|*
%AMROUNDEDRECTD36*
21,1,0.08032,0.08346,0,0,0.0*
21,1,0.05984,0.10394,0,0,0.0*
1,1,0.02047,0.02992,-0.04173*
1,1,0.02047,-0.02992,-0.04173*
1,1,0.02047,-0.02992,0.04173*
1,1,0.02047,0.02992,0.04173*
%
%ADD36ROUNDEDRECTD36*%
G04:AMPARAMS|DCode=37|XSize=84.25mil|YSize=72.44mil|CornerRadius=9.45mil|HoleSize=0mil|Usage=FLASHONLY|Rotation=180.000|XOffset=0mil|YOffset=0mil|HoleType=Round|Shape=RoundedRectangle|*
%AMROUNDEDRECTD37*
21,1,0.08425,0.05354,0,0,180.0*
21,1,0.06535,0.07244,0,0,180.0*
1,1,0.01890,-0.03268,0.02677*
1,1,0.01890,0.03268,0.02677*
1,1,0.01890,0.03268,-0.02677*
1,1,0.01890,-0.03268,-0.02677*
%
%ADD37ROUNDEDRECTD37*%
G04:AMPARAMS|DCode=38|XSize=40.95mil|YSize=42.91mil|CornerRadius=6.3mil|HoleSize=0mil|Usage=FLASHONLY|Rotation=90.000|XOffset=0mil|YOffset=0mil|HoleType=Round|Shape=RoundedRectangle|*
%AMROUNDEDRECTD38*
21,1,0.04095,0.03032,0,0,90.0*
21,1,0.02835,0.04291,0,0,90.0*
1,1,0.01260,0.01516,0.01417*
1,1,0.01260,0.01516,-0.01417*
1,1,0.01260,-0.01516,-0.01417*
1,1,0.01260,-0.01516,0.01417*
%
%ADD38ROUNDEDRECTD38*%
G04:AMPARAMS|DCode=39|XSize=40.95mil|YSize=42.91mil|CornerRadius=6.3mil|HoleSize=0mil|Usage=FLASHONLY|Rotation=90.000|XOffset=0mil|YOffset=0mil|HoleType=Round|Shape=RoundedRectangle|*
%AMROUNDEDRECTD39*
21,1,0.04095,0.03032,0,0,90.0*
21,1,0.02835,0.04291,0,0,90.0*
1,1,0.01260,0.01516,0.01417*
1,1,0.01260,0.01516,-0.01417*
1,1,0.01260,-0.01516,-0.01417*
1,1,0.01260,-0.01516,0.01417*
%
%ADD39ROUNDEDRECTD39*%
G04:AMPARAMS|DCode=40|XSize=27.17mil|YSize=62.6mil|CornerRadius=4.92mil|HoleSize=0mil|Usage=FLASHONLY|Rotation=270.000|XOffset=0mil|YOffset=0mil|HoleType=Round|Shape=RoundedRectangle|*
%AMROUNDEDRECTD40*
21,1,0.02717,0.05276,0,0,270.0*
21,1,0.01732,0.06260,0,0,270.0*
1,1,0.00984,-0.02638,-0.00866*
1,1,0.00984,-0.02638,0.00866*
1,1,0.00984,0.02638,0.00866*
1,1,0.00984,0.02638,-0.00866*
%
%ADD40ROUNDEDRECTD40*%
G04:AMPARAMS|DCode=41|XSize=27.17mil|YSize=62.6mil|CornerRadius=4.92mil|HoleSize=0mil|Usage=FLASHONLY|Rotation=270.000|XOffset=0mil|YOffset=0mil|HoleType=Round|Shape=RoundedRectangle|*
%AMROUNDEDRECTD41*
21,1,0.02717,0.05276,0,0,270.0*
21,1,0.01732,0.06260,0,0,270.0*
1,1,0.00984,-0.02638,-0.00866*
1,1,0.00984,-0.02638,0.00866*
1,1,0.00984,0.02638,0.00866*
1,1,0.00984,0.02638,-0.00866*
%
%ADD41ROUNDEDRECTD41*%
G04:AMPARAMS|DCode=42|XSize=41.34mil|YSize=38.98mil|CornerRadius=6.1mil|HoleSize=0mil|Usage=FLASHONLY|Rotation=0.000|XOffset=0mil|YOffset=0mil|HoleType=Round|Shape=RoundedRectangle|*
%AMROUNDEDRECTD42*
21,1,0.04134,0.02677,0,0,0.0*
21,1,0.02913,0.03898,0,0,0.0*
1,1,0.01221,0.01457,-0.01339*
1,1,0.01221,-0.01457,-0.01339*
1,1,0.01221,-0.01457,0.01339*
1,1,0.01221,0.01457,0.01339*
%
%ADD42ROUNDEDRECTD42*%
G04:AMPARAMS|DCode=43|XSize=76.38mil|YSize=50.79mil|CornerRadius=7.28mil|HoleSize=0mil|Usage=FLASHONLY|Rotation=90.000|XOffset=0mil|YOffset=0mil|HoleType=Round|Shape=RoundedRectangle|*
%AMROUNDEDRECTD43*
21,1,0.07638,0.03622,0,0,90.0*
21,1,0.06181,0.05079,0,0,90.0*
1,1,0.01457,0.01811,0.03091*
1,1,0.01457,0.01811,-0.03091*
1,1,0.01457,-0.01811,-0.03091*
1,1,0.01457,-0.01811,0.03091*
%
%ADD43ROUNDEDRECTD43*%
G04:AMPARAMS|DCode=44|XSize=38.98mil|YSize=38.98mil|CornerRadius=6.1mil|HoleSize=0mil|Usage=FLASHONLY|Rotation=0.000|XOffset=0mil|YOffset=0mil|HoleType=Round|Shape=RoundedRectangle|*
%AMROUNDEDRECTD44*
21,1,0.03898,0.02677,0,0,0.0*
21,1,0.02677,0.03898,0,0,0.0*
1,1,0.01221,0.01339,-0.01339*
1,1,0.01221,-0.01339,-0.01339*
1,1,0.01221,-0.01339,0.01339*
1,1,0.01221,0.01339,0.01339*
%
%ADD44ROUNDEDRECTD44*%
G04:AMPARAMS|DCode=45|XSize=21.26mil|YSize=25.2mil|CornerRadius=4.33mil|HoleSize=0mil|Usage=FLASHONLY|Rotation=270.000|XOffset=0mil|YOffset=0mil|HoleType=Round|Shape=RoundedRectangle|*
%AMROUNDEDRECTD45*
21,1,0.02126,0.01654,0,0,270.0*
21,1,0.01260,0.02520,0,0,270.0*
1,1,0.00866,-0.00827,-0.00630*
1,1,0.00866,-0.00827,0.00630*
1,1,0.00866,0.00827,0.00630*
1,1,0.00866,0.00827,-0.00630*
%
%ADD45ROUNDEDRECTD45*%
G04:AMPARAMS|DCode=46|XSize=29.13mil|YSize=29.13mil|CornerRadius=5.12mil|HoleSize=0mil|Usage=FLASHONLY|Rotation=90.000|XOffset=0mil|YOffset=0mil|HoleType=Round|Shape=RoundedRectangle|*
%AMROUNDEDRECTD46*
21,1,0.02913,0.01890,0,0,90.0*
21,1,0.01890,0.02913,0,0,90.0*
1,1,0.01024,0.00945,0.00945*
1,1,0.01024,0.00945,-0.00945*
1,1,0.01024,-0.00945,-0.00945*
1,1,0.01024,-0.00945,0.00945*
%
%ADD46ROUNDEDRECTD46*%
G04:AMPARAMS|DCode=47|XSize=25.2mil|YSize=29.13mil|CornerRadius=4.72mil|HoleSize=0mil|Usage=FLASHONLY|Rotation=0.000|XOffset=0mil|YOffset=0mil|HoleType=Round|Shape=RoundedRectangle|*
%AMROUNDEDRECTD47*
21,1,0.02520,0.01968,0,0,0.0*
21,1,0.01575,0.02913,0,0,0.0*
1,1,0.00945,0.00787,-0.00984*
1,1,0.00945,-0.00787,-0.00984*
1,1,0.00945,-0.00787,0.00984*
1,1,0.00945,0.00787,0.00984*
%
%ADD47ROUNDEDRECTD47*%
G04:AMPARAMS|DCode=48|XSize=25.2mil|YSize=29.13mil|CornerRadius=4.72mil|HoleSize=0mil|Usage=FLASHONLY|Rotation=270.000|XOffset=0mil|YOffset=0mil|HoleType=Round|Shape=RoundedRectangle|*
%AMROUNDEDRECTD48*
21,1,0.02520,0.01968,0,0,270.0*
21,1,0.01575,0.02913,0,0,270.0*
1,1,0.00945,-0.00984,-0.00787*
1,1,0.00945,-0.00984,0.00787*
1,1,0.00945,0.00984,0.00787*
1,1,0.00945,0.00984,-0.00787*
%
%ADD48ROUNDEDRECTD48*%
%ADD49C,0.02913*%
%ADD50C,0.06457*%
D34*
X45079Y24367D02*
D03*
Y6650D02*
D03*
D35*
X41752Y48819D02*
D03*
X14390D02*
D03*
D36*
X30512Y25591D02*
D03*
X14370D02*
D03*
D37*
X32283Y7480D02*
D03*
X16535D02*
D03*
D38*
X9344Y69258D02*
D03*
X18596Y65518D02*
D03*
D39*
X18596Y72998D02*
D03*
D40*
X41431Y78937D02*
D03*
D41*
X41431Y75197D02*
D03*
Y71457D02*
D03*
X49895D02*
D03*
Y78937D02*
D03*
D42*
X53747Y64936D02*
D03*
X40755D02*
D03*
D43*
X35461Y65224D02*
D03*
X24043D02*
D03*
D44*
X54646Y32677D02*
D03*
X48425D02*
D03*
X44055D02*
D03*
X37835D02*
D03*
D45*
X3969Y9788D02*
D03*
Y13922D02*
D03*
X54524Y51662D02*
D03*
Y55796D02*
D03*
Y46949D02*
D03*
Y42815D02*
D03*
X55416Y27300D02*
D03*
Y23166D02*
D03*
D46*
X36313Y71507D02*
D03*
Y75444D02*
D03*
X22638Y72409D02*
D03*
X31299D02*
D03*
X22638Y78806D02*
D03*
X31299D02*
D03*
D47*
X14265Y78937D02*
D03*
X17809D02*
D03*
D48*
X50266Y55599D02*
D03*
Y52055D02*
D03*
Y46555D02*
D03*
Y43012D02*
D03*
X55416Y14999D02*
D03*
Y18543D02*
D03*
D49*
X65748Y18110D02*
D03*
Y14173D02*
D03*
D50*
X2953Y71653D02*
D03*
Y4724D02*
D03*
Y52165D02*
D03*
X63976Y51968D02*
D03*
Y77165D02*
D03*
Y27559D02*
D03*
Y44488D02*
D03*
Y2953D02*
D03*
X2953Y78937D02*
D03*
M02*
