G04*
G04 #@! TF.GenerationSoftware,Altium Limited,Altium Designer,22.11.1 (43)*
G04*
G04 Layer_Color=65535*
%FSLAX25Y25*%
%MOIN*%
G70*
G04*
G04 #@! TF.SameCoordinates,683A0FC4-7175-4C87-8096-D6AA43BD3DFC*
G04*
G04*
G04 #@! TF.FilePolarity,Positive*
G04*
G01*
G75*
%ADD10C,0.00984*%
%ADD11C,0.00591*%
%ADD12C,0.00787*%
%ADD13C,0.00394*%
%ADD14C,0.01000*%
%ADD15C,0.01968*%
%ADD16C,0.01575*%
%ADD17C,0.00394*%
%ADD18C,0.00669*%
G36*
X55902Y57666D02*
X53146D01*
Y58059D01*
X55902D01*
Y57666D01*
D02*
G37*
G36*
Y40551D02*
X53146D01*
Y40945D01*
X55902D01*
Y40551D01*
D02*
G37*
G36*
X56794Y20902D02*
X54039D01*
Y21296D01*
X56794D01*
Y20902D01*
D02*
G37*
G36*
X5347Y15792D02*
X2591D01*
Y16185D01*
X5347D01*
Y15792D01*
D02*
G37*
G36*
X65354Y69739D02*
Y68705D01*
X57786Y65770D01*
Y66861D01*
X63288Y68828D01*
X63296D01*
X63321Y68837D01*
X63354Y68853D01*
X63403Y68870D01*
X63460Y68886D01*
X63526Y68910D01*
X63599Y68935D01*
X63690Y68968D01*
X63878Y69025D01*
X64083Y69091D01*
X64305Y69156D01*
X64526Y69222D01*
X64518D01*
X64502Y69230D01*
X64460Y69239D01*
X64420Y69255D01*
X64362Y69271D01*
X64297Y69288D01*
X64223Y69312D01*
X64141Y69337D01*
X63952Y69394D01*
X63739Y69468D01*
X63517Y69550D01*
X63288Y69632D01*
X57786Y71674D01*
Y72691D01*
X65354Y69739D01*
D02*
G37*
G36*
Y60161D02*
X65338D01*
X65297D01*
X65231D01*
X65149Y60169D01*
X65051Y60177D01*
X64944Y60202D01*
X64829Y60227D01*
X64715Y60268D01*
X64706D01*
X64690Y60276D01*
X64666Y60284D01*
X64625Y60300D01*
X64583Y60325D01*
X64526Y60350D01*
X64395Y60415D01*
X64239Y60497D01*
X64067Y60604D01*
X63886Y60727D01*
X63706Y60874D01*
X63698Y60883D01*
X63682Y60891D01*
X63657Y60915D01*
X63616Y60957D01*
X63575Y60997D01*
X63517Y61055D01*
X63452Y61112D01*
X63378Y61186D01*
X63296Y61268D01*
X63214Y61358D01*
X63116Y61457D01*
X63017Y61572D01*
X62911Y61686D01*
X62804Y61818D01*
X62689Y61949D01*
X62566Y62096D01*
X62558Y62113D01*
X62517Y62154D01*
X62468Y62211D01*
X62394Y62293D01*
X62312Y62392D01*
X62214Y62506D01*
X62107Y62638D01*
X61984Y62769D01*
X61730Y63047D01*
X61459Y63318D01*
X61328Y63449D01*
X61197Y63572D01*
X61074Y63679D01*
X60959Y63769D01*
X60951Y63777D01*
X60935Y63785D01*
X60902Y63810D01*
X60861Y63835D01*
X60803Y63876D01*
X60746Y63908D01*
X60598Y63990D01*
X60426Y64073D01*
X60237Y64146D01*
X60041Y64196D01*
X59942Y64204D01*
X59844Y64212D01*
X59836D01*
X59819D01*
X59786D01*
X59754Y64204D01*
X59705D01*
X59647Y64187D01*
X59524Y64163D01*
X59377Y64113D01*
X59221Y64040D01*
X59139Y63999D01*
X59065Y63941D01*
X58991Y63884D01*
X58917Y63810D01*
X58909Y63802D01*
X58901Y63794D01*
X58885Y63769D01*
X58860Y63736D01*
X58827Y63695D01*
X58794Y63646D01*
X58720Y63531D01*
X58655Y63376D01*
X58589Y63203D01*
X58548Y62998D01*
X58532Y62884D01*
Y62703D01*
X58540Y62654D01*
Y62596D01*
X58556Y62531D01*
X58581Y62383D01*
X58630Y62211D01*
X58704Y62031D01*
X58753Y61940D01*
X58802Y61850D01*
X58868Y61768D01*
X58942Y61686D01*
X58950Y61678D01*
X58958Y61670D01*
X58983Y61654D01*
X59016Y61621D01*
X59057Y61596D01*
X59106Y61563D01*
X59163Y61522D01*
X59229Y61489D01*
X59303Y61449D01*
X59385Y61416D01*
X59582Y61350D01*
X59795Y61301D01*
X59918Y61293D01*
X60049Y61285D01*
X59951Y60333D01*
X59934D01*
X59901Y60342D01*
X59852Y60350D01*
X59778Y60358D01*
X59688Y60374D01*
X59582Y60399D01*
X59467Y60423D01*
X59344Y60465D01*
X59221Y60505D01*
X59081Y60555D01*
X58950Y60620D01*
X58819Y60686D01*
X58679Y60768D01*
X58556Y60858D01*
X58434Y60957D01*
X58327Y61071D01*
X58319Y61080D01*
X58302Y61104D01*
X58278Y61137D01*
X58237Y61186D01*
X58196Y61252D01*
X58147Y61334D01*
X58097Y61424D01*
X58040Y61531D01*
X57991Y61645D01*
X57942Y61777D01*
X57892Y61916D01*
X57851Y62072D01*
X57810Y62236D01*
X57786Y62408D01*
X57769Y62596D01*
X57761Y62793D01*
Y62900D01*
X57769Y62974D01*
X57778Y63064D01*
X57794Y63170D01*
X57810Y63293D01*
X57835Y63416D01*
X57868Y63556D01*
X57909Y63695D01*
X57958Y63843D01*
X58015Y63982D01*
X58089Y64130D01*
X58171Y64269D01*
X58261Y64401D01*
X58368Y64524D01*
X58376Y64532D01*
X58393Y64548D01*
X58434Y64581D01*
X58474Y64622D01*
X58532Y64671D01*
X58606Y64728D01*
X58688Y64786D01*
X58786Y64843D01*
X58885Y64901D01*
X58999Y64958D01*
X59122Y65016D01*
X59254Y65065D01*
X59401Y65106D01*
X59549Y65139D01*
X59705Y65155D01*
X59869Y65163D01*
X59877D01*
X59885D01*
X59909D01*
X59942D01*
X60032Y65155D01*
X60147Y65139D01*
X60287Y65114D01*
X60434Y65081D01*
X60598Y65040D01*
X60762Y64974D01*
X60770D01*
X60779Y64966D01*
X60803Y64958D01*
X60836Y64942D01*
X60926Y64893D01*
X61041Y64827D01*
X61181Y64737D01*
X61336Y64630D01*
X61500Y64507D01*
X61681Y64351D01*
X61689Y64343D01*
X61705Y64335D01*
X61730Y64302D01*
X61771Y64269D01*
X61820Y64220D01*
X61878Y64163D01*
X61951Y64097D01*
X62025Y64015D01*
X62115Y63917D01*
X62214Y63810D01*
X62328Y63695D01*
X62443Y63564D01*
X62574Y63425D01*
X62706Y63269D01*
X62853Y63097D01*
X63009Y62916D01*
X63017Y62908D01*
X63042Y62884D01*
X63075Y62834D01*
X63124Y62785D01*
X63181Y62711D01*
X63247Y62638D01*
X63394Y62465D01*
X63550Y62285D01*
X63714Y62113D01*
X63788Y62031D01*
X63854Y61957D01*
X63919Y61891D01*
X63968Y61842D01*
X63977Y61834D01*
X64009Y61801D01*
X64059Y61760D01*
X64124Y61703D01*
X64198Y61637D01*
X64280Y61572D01*
X64460Y61440D01*
Y65171D01*
X65354D01*
Y60161D01*
D02*
G37*
G36*
Y56980D02*
X59442D01*
X59459Y56963D01*
X59500Y56922D01*
X59557Y56848D01*
X59639Y56742D01*
X59737Y56619D01*
X59844Y56463D01*
X59959Y56291D01*
X60082Y56094D01*
Y56086D01*
X60098Y56069D01*
X60115Y56045D01*
X60131Y56004D01*
X60164Y55954D01*
X60188Y55897D01*
X60262Y55766D01*
X60336Y55618D01*
X60418Y55454D01*
X60492Y55282D01*
X60557Y55118D01*
X59663D01*
X59655Y55126D01*
X59647Y55151D01*
X59623Y55192D01*
X59598Y55249D01*
X59565Y55315D01*
X59516Y55397D01*
X59467Y55487D01*
X59417Y55577D01*
X59286Y55791D01*
X59131Y56020D01*
X58966Y56258D01*
X58778Y56479D01*
X58770Y56488D01*
X58753Y56504D01*
X58729Y56537D01*
X58688Y56578D01*
X58639Y56619D01*
X58589Y56676D01*
X58450Y56799D01*
X58302Y56938D01*
X58130Y57078D01*
X57950Y57201D01*
X57761Y57307D01*
Y57906D01*
X65354D01*
Y56980D01*
D02*
G37*
G36*
X60253Y10136D02*
X60269Y10111D01*
X60302Y10070D01*
X60343Y10013D01*
X60392Y9947D01*
X60441Y9865D01*
X60507Y9775D01*
X60573Y9677D01*
X60638Y9570D01*
X60712Y9447D01*
X60860Y9193D01*
X60999Y8914D01*
X61122Y8619D01*
Y8611D01*
X61138Y8586D01*
X61147Y8545D01*
X61171Y8480D01*
X61188Y8414D01*
X61212Y8324D01*
X61245Y8234D01*
X61270Y8127D01*
X61294Y8004D01*
X61327Y7881D01*
X61368Y7610D01*
X61401Y7315D01*
X61417Y7012D01*
Y6905D01*
X61409Y6823D01*
X61401Y6725D01*
X61393Y6610D01*
X61376Y6479D01*
X61360Y6339D01*
X61335Y6192D01*
X61303Y6028D01*
X61261Y5864D01*
X61212Y5683D01*
X61163Y5511D01*
X61098Y5339D01*
X61024Y5159D01*
X60942Y4986D01*
X60934Y4978D01*
X60917Y4945D01*
X60892Y4896D01*
X60852Y4839D01*
X60802Y4765D01*
X60745Y4675D01*
X60671Y4576D01*
X60589Y4470D01*
X60499Y4363D01*
X60392Y4248D01*
X60286Y4134D01*
X60163Y4019D01*
X60023Y3912D01*
X59884Y3806D01*
X59728Y3699D01*
X59564Y3609D01*
X59556Y3601D01*
X59523Y3592D01*
X59474Y3568D01*
X59408Y3535D01*
X59318Y3502D01*
X59220Y3461D01*
X59105Y3420D01*
X58974Y3379D01*
X58834Y3338D01*
X58679Y3297D01*
X58506Y3256D01*
X58334Y3223D01*
X58145Y3191D01*
X57957Y3166D01*
X57752Y3158D01*
X57547Y3150D01*
X57530D01*
X57498D01*
X57440D01*
X57358Y3158D01*
X57260Y3166D01*
X57145Y3174D01*
X57014Y3191D01*
X56875Y3207D01*
X56719Y3232D01*
X56555Y3264D01*
X56210Y3346D01*
X56030Y3396D01*
X55849Y3461D01*
X55669Y3527D01*
X55489Y3609D01*
X55480Y3617D01*
X55448Y3633D01*
X55398Y3658D01*
X55333Y3691D01*
X55251Y3740D01*
X55161Y3797D01*
X55062Y3871D01*
X54948Y3945D01*
X54833Y4035D01*
X54718Y4134D01*
X54603Y4240D01*
X54480Y4363D01*
X54365Y4486D01*
X54259Y4626D01*
X54152Y4773D01*
X54062Y4929D01*
X54054Y4937D01*
X54045Y4970D01*
X54021Y5019D01*
X53988Y5085D01*
X53955Y5167D01*
X53914Y5265D01*
X53873Y5380D01*
X53824Y5503D01*
X53783Y5642D01*
X53742Y5798D01*
X53701Y5962D01*
X53668Y6143D01*
X53636Y6323D01*
X53611Y6520D01*
X53603Y6725D01*
X53594Y6930D01*
Y7069D01*
X53603Y7143D01*
X53611Y7225D01*
X53619Y7315D01*
X53627Y7422D01*
X53660Y7651D01*
X53709Y7906D01*
X53775Y8160D01*
X53865Y8414D01*
Y8422D01*
X53873Y8447D01*
X53890Y8480D01*
X53914Y8521D01*
X53939Y8578D01*
X53972Y8644D01*
X54054Y8791D01*
X54160Y8963D01*
X54283Y9136D01*
X54431Y9300D01*
X54603Y9455D01*
X54611Y9464D01*
X54628Y9472D01*
X54652Y9488D01*
X54685Y9521D01*
X54734Y9546D01*
X54792Y9587D01*
X54857Y9628D01*
X54939Y9669D01*
X55021Y9718D01*
X55111Y9759D01*
X55218Y9808D01*
X55325Y9857D01*
X55571Y9947D01*
X55841Y10029D01*
X56087Y9119D01*
X56079D01*
X56063Y9111D01*
X56030Y9103D01*
X55989Y9086D01*
X55948Y9070D01*
X55891Y9054D01*
X55759Y9004D01*
X55612Y8939D01*
X55464Y8865D01*
X55317Y8783D01*
X55185Y8693D01*
X55169Y8685D01*
X55128Y8644D01*
X55071Y8586D01*
X54988Y8512D01*
X54906Y8406D01*
X54816Y8283D01*
X54734Y8135D01*
X54652Y7971D01*
Y7963D01*
X54644Y7947D01*
X54636Y7922D01*
X54619Y7889D01*
X54603Y7848D01*
X54587Y7791D01*
X54546Y7668D01*
X54513Y7512D01*
X54480Y7340D01*
X54456Y7143D01*
X54447Y6938D01*
Y6823D01*
X54456Y6766D01*
Y6692D01*
X54464Y6618D01*
X54472Y6528D01*
X54497Y6348D01*
X54537Y6143D01*
X54587Y5946D01*
X54660Y5749D01*
Y5741D01*
X54669Y5724D01*
X54685Y5700D01*
X54702Y5667D01*
X54742Y5577D01*
X54808Y5462D01*
X54890Y5331D01*
X54988Y5200D01*
X55095Y5060D01*
X55218Y4937D01*
X55234Y4921D01*
X55275Y4888D01*
X55349Y4831D01*
X55440Y4765D01*
X55546Y4691D01*
X55677Y4609D01*
X55817Y4535D01*
X55964Y4470D01*
X55972D01*
X55997Y4462D01*
X56030Y4445D01*
X56087Y4429D01*
X56153Y4404D01*
X56227Y4380D01*
X56317Y4355D01*
X56415Y4330D01*
X56522Y4298D01*
X56645Y4273D01*
X56899Y4232D01*
X57186Y4199D01*
X57490Y4183D01*
X57498D01*
X57530D01*
X57588D01*
X57653Y4191D01*
X57744D01*
X57842Y4199D01*
X57957Y4216D01*
X58080Y4224D01*
X58350Y4265D01*
X58629Y4330D01*
X58916Y4412D01*
X59187Y4527D01*
X59195Y4535D01*
X59220Y4544D01*
X59253Y4560D01*
X59302Y4593D01*
X59351Y4626D01*
X59417Y4675D01*
X59564Y4781D01*
X59728Y4929D01*
X59900Y5101D01*
X60056Y5298D01*
X60130Y5413D01*
X60195Y5536D01*
Y5544D01*
X60212Y5569D01*
X60228Y5601D01*
X60245Y5651D01*
X60269Y5716D01*
X60302Y5790D01*
X60327Y5872D01*
X60360Y5962D01*
X60392Y6061D01*
X60417Y6175D01*
X60474Y6413D01*
X60507Y6676D01*
X60523Y6954D01*
Y7020D01*
X60515Y7069D01*
Y7127D01*
X60507Y7192D01*
X60499Y7266D01*
X60491Y7356D01*
X60466Y7545D01*
X60417Y7758D01*
X60360Y7988D01*
X60277Y8217D01*
Y8225D01*
X60269Y8242D01*
X60253Y8275D01*
X60237Y8324D01*
X60212Y8373D01*
X60179Y8430D01*
X60114Y8570D01*
X60031Y8726D01*
X59941Y8881D01*
X59851Y9029D01*
X59745Y9160D01*
X58326D01*
Y6938D01*
X57432D01*
Y10144D01*
X60245D01*
X60253Y10136D01*
D02*
G37*
G36*
X3725Y35609D02*
X3807Y35600D01*
X3897Y35584D01*
X4004Y35568D01*
X4127Y35543D01*
X4250Y35510D01*
X4381Y35469D01*
X4512Y35420D01*
X4652Y35354D01*
X4791Y35289D01*
X4930Y35207D01*
X5062Y35108D01*
X5193Y35002D01*
X5201Y34994D01*
X5218Y34969D01*
X5250Y34936D01*
X5300Y34879D01*
X5349Y34813D01*
X5406Y34723D01*
X5463Y34616D01*
X5521Y34493D01*
X5587Y34346D01*
X5644Y34190D01*
X5701Y34001D01*
X5751Y33805D01*
X5791Y33575D01*
X5824Y33329D01*
X5849Y33067D01*
X5857Y32771D01*
Y30836D01*
X8932D01*
Y29836D01*
X1364D01*
Y32952D01*
X1372Y33116D01*
X1380Y33304D01*
X1396Y33493D01*
X1413Y33673D01*
X1421Y33764D01*
X1437Y33837D01*
Y33846D01*
X1445Y33862D01*
Y33895D01*
X1454Y33928D01*
X1470Y33977D01*
X1478Y34034D01*
X1519Y34165D01*
X1568Y34313D01*
X1634Y34469D01*
X1708Y34625D01*
X1798Y34772D01*
Y34780D01*
X1806Y34789D01*
X1847Y34838D01*
X1905Y34903D01*
X1987Y34994D01*
X2085Y35084D01*
X2216Y35190D01*
X2356Y35289D01*
X2528Y35379D01*
X2536D01*
X2552Y35387D01*
X2577Y35404D01*
X2610Y35420D01*
X2651Y35436D01*
X2708Y35453D01*
X2831Y35502D01*
X2987Y35543D01*
X3159Y35584D01*
X3356Y35609D01*
X3561Y35617D01*
X3569D01*
X3602D01*
X3651D01*
X3725Y35609D01*
D02*
G37*
G36*
X8932Y25982D02*
Y24949D01*
X1364Y22013D01*
Y23104D01*
X6866Y25072D01*
X6874D01*
X6899Y25080D01*
X6931Y25096D01*
X6981Y25113D01*
X7038Y25129D01*
X7103Y25154D01*
X7177Y25178D01*
X7267Y25211D01*
X7456Y25268D01*
X7661Y25334D01*
X7882Y25400D01*
X8104Y25465D01*
X8096D01*
X8079Y25473D01*
X8038Y25482D01*
X7997Y25498D01*
X7940Y25514D01*
X7874Y25531D01*
X7801Y25555D01*
X7718Y25580D01*
X7530Y25637D01*
X7317Y25711D01*
X7095Y25793D01*
X6866Y25875D01*
X1364Y27917D01*
Y28934D01*
X8932Y25982D01*
D02*
G37*
G36*
X6538Y21537D02*
X6628Y21529D01*
X6726Y21513D01*
X6841Y21496D01*
X6972Y21472D01*
X7103Y21439D01*
X7251Y21398D01*
X7399Y21349D01*
X7546Y21291D01*
X7694Y21226D01*
X7850Y21144D01*
X7997Y21054D01*
X8137Y20947D01*
X8145Y20939D01*
X8178Y20914D01*
X8219Y20873D01*
X8276Y20816D01*
X8350Y20742D01*
X8424Y20652D01*
X8514Y20545D01*
X8596Y20422D01*
X8678Y20291D01*
X8768Y20143D01*
X8842Y19979D01*
X8907Y19799D01*
X8973Y19610D01*
X9014Y19405D01*
X9047Y19192D01*
X9055Y18963D01*
Y18864D01*
X9047Y18790D01*
X9039Y18700D01*
X9022Y18602D01*
X9006Y18487D01*
X8981Y18364D01*
X8957Y18233D01*
X8916Y18093D01*
X8867Y17954D01*
X8809Y17815D01*
X8743Y17675D01*
X8670Y17536D01*
X8580Y17405D01*
X8481Y17273D01*
X8473Y17265D01*
X8456Y17249D01*
X8424Y17216D01*
X8375Y17175D01*
X8317Y17118D01*
X8252Y17060D01*
X8169Y17003D01*
X8071Y16937D01*
X7973Y16872D01*
X7858Y16806D01*
X7727Y16749D01*
X7596Y16691D01*
X7448Y16634D01*
X7292Y16593D01*
X7120Y16560D01*
X6948Y16535D01*
X6874Y17511D01*
X6882D01*
X6907Y17519D01*
X6939Y17528D01*
X6989Y17536D01*
X7046Y17544D01*
X7120Y17569D01*
X7276Y17610D01*
X7448Y17675D01*
X7628Y17765D01*
X7792Y17872D01*
X7866Y17938D01*
X7940Y18003D01*
Y18011D01*
X7956Y18020D01*
X7973Y18044D01*
X7997Y18077D01*
X8055Y18159D01*
X8112Y18274D01*
X8178Y18413D01*
X8235Y18577D01*
X8276Y18758D01*
X8284Y18856D01*
X8292Y18963D01*
Y19028D01*
X8284Y19077D01*
X8276Y19135D01*
X8268Y19200D01*
X8227Y19356D01*
X8169Y19537D01*
X8128Y19627D01*
X8079Y19725D01*
X8022Y19824D01*
X7956Y19914D01*
X7882Y20004D01*
X7792Y20094D01*
X7784Y20102D01*
X7768Y20111D01*
X7743Y20135D01*
X7702Y20168D01*
X7645Y20201D01*
X7587Y20242D01*
X7514Y20283D01*
X7431Y20332D01*
X7341Y20373D01*
X7243Y20414D01*
X7128Y20455D01*
X7013Y20488D01*
X6882Y20521D01*
X6743Y20545D01*
X6603Y20553D01*
X6447Y20562D01*
X6439D01*
X6415D01*
X6374D01*
X6316Y20553D01*
X6251Y20545D01*
X6169Y20537D01*
X6087Y20521D01*
X5988Y20504D01*
X5791Y20455D01*
X5578Y20373D01*
X5480Y20324D01*
X5381Y20258D01*
X5283Y20193D01*
X5193Y20111D01*
X5185Y20102D01*
X5176Y20094D01*
X5152Y20061D01*
X5119Y20029D01*
X5086Y19988D01*
X5045Y19930D01*
X5004Y19873D01*
X4955Y19799D01*
X4914Y19717D01*
X4873Y19635D01*
X4799Y19430D01*
X4766Y19323D01*
X4742Y19200D01*
X4734Y19077D01*
X4725Y18946D01*
Y18872D01*
X4734Y18782D01*
X4750Y18676D01*
X4775Y18544D01*
X4816Y18405D01*
X4865Y18266D01*
X4939Y18126D01*
X4947Y18110D01*
X4972Y18069D01*
X5021Y18003D01*
X5078Y17921D01*
X5160Y17839D01*
X5250Y17741D01*
X5357Y17651D01*
X5472Y17569D01*
X5349Y16699D01*
X1462Y17429D01*
Y21193D01*
X2348D01*
Y18167D01*
X4381Y17765D01*
X4373Y17774D01*
X4357Y17798D01*
X4340Y17831D01*
X4307Y17880D01*
X4275Y17946D01*
X4233Y18020D01*
X4184Y18102D01*
X4143Y18200D01*
X4102Y18298D01*
X4053Y18413D01*
X3979Y18651D01*
X3946Y18782D01*
X3922Y18913D01*
X3914Y19053D01*
X3906Y19192D01*
Y19233D01*
X3914Y19291D01*
Y19356D01*
X3930Y19438D01*
X3938Y19537D01*
X3963Y19651D01*
X3988Y19766D01*
X4028Y19897D01*
X4070Y20029D01*
X4127Y20168D01*
X4192Y20307D01*
X4275Y20447D01*
X4365Y20586D01*
X4471Y20726D01*
X4594Y20857D01*
X4603Y20865D01*
X4627Y20890D01*
X4668Y20922D01*
X4717Y20963D01*
X4783Y21021D01*
X4873Y21078D01*
X4963Y21136D01*
X5070Y21201D01*
X5193Y21267D01*
X5332Y21324D01*
X5472Y21390D01*
X5636Y21439D01*
X5800Y21480D01*
X5980Y21513D01*
X6169Y21537D01*
X6365Y21546D01*
X6374D01*
X6415D01*
X6464D01*
X6538Y21537D01*
D02*
G37*
G36*
X52720Y35036D02*
X52037D01*
X49389Y38995D01*
Y35036D01*
X48750D01*
Y40076D01*
X49438D01*
X52081Y36123D01*
Y40076D01*
X52720D01*
Y35036D01*
D02*
G37*
G36*
X55909Y40152D02*
X55974Y40147D01*
X56050Y40141D01*
X56138Y40130D01*
X56231Y40119D01*
X56329Y40103D01*
X56438Y40081D01*
X56547Y40054D01*
X56668Y40021D01*
X56782Y39988D01*
X56897Y39944D01*
X57017Y39895D01*
X57132Y39841D01*
X57137Y39835D01*
X57159Y39824D01*
X57192Y39808D01*
X57230Y39781D01*
X57279Y39748D01*
X57339Y39710D01*
X57405Y39661D01*
X57476Y39606D01*
X57547Y39546D01*
X57623Y39475D01*
X57699Y39404D01*
X57776Y39322D01*
X57847Y39229D01*
X57918Y39136D01*
X57989Y39033D01*
X58049Y38923D01*
X58054Y38918D01*
X58060Y38896D01*
X58076Y38864D01*
X58098Y38820D01*
X58120Y38760D01*
X58147Y38694D01*
X58174Y38618D01*
X58202Y38530D01*
X58229Y38438D01*
X58256Y38334D01*
X58284Y38219D01*
X58306Y38105D01*
X58327Y37979D01*
X58344Y37853D01*
X58349Y37717D01*
X58355Y37580D01*
Y37569D01*
Y37548D01*
Y37509D01*
X58349Y37455D01*
X58344Y37389D01*
X58338Y37313D01*
X58327Y37225D01*
X58316Y37133D01*
X58300Y37029D01*
X58278Y36920D01*
X58224Y36690D01*
X58191Y36570D01*
X58147Y36450D01*
X58103Y36330D01*
X58049Y36210D01*
X58043Y36204D01*
X58033Y36183D01*
X58016Y36150D01*
X57994Y36106D01*
X57961Y36052D01*
X57923Y35991D01*
X57874Y35926D01*
X57825Y35849D01*
X57765Y35773D01*
X57699Y35697D01*
X57628Y35620D01*
X57547Y35538D01*
X57465Y35462D01*
X57372Y35391D01*
X57274Y35320D01*
X57170Y35260D01*
X57164Y35254D01*
X57143Y35249D01*
X57110Y35233D01*
X57066Y35211D01*
X57011Y35189D01*
X56946Y35162D01*
X56870Y35134D01*
X56788Y35102D01*
X56695Y35074D01*
X56591Y35047D01*
X56482Y35020D01*
X56362Y34998D01*
X56242Y34976D01*
X56111Y34960D01*
X55974Y34954D01*
X55838Y34949D01*
X55745D01*
X55696Y34954D01*
X55641Y34960D01*
X55581Y34965D01*
X55510Y34971D01*
X55357Y34992D01*
X55188Y35025D01*
X55019Y35069D01*
X54849Y35129D01*
X54844D01*
X54827Y35134D01*
X54806Y35145D01*
X54778Y35162D01*
X54740Y35178D01*
X54696Y35200D01*
X54598Y35254D01*
X54483Y35325D01*
X54369Y35407D01*
X54260Y35506D01*
X54156Y35620D01*
X54150Y35626D01*
X54145Y35637D01*
X54134Y35653D01*
X54112Y35675D01*
X54096Y35708D01*
X54068Y35746D01*
X54041Y35789D01*
X54014Y35844D01*
X53981Y35899D01*
X53954Y35959D01*
X53921Y36030D01*
X53888Y36101D01*
X53828Y36265D01*
X53774Y36445D01*
X54380Y36608D01*
Y36603D01*
X54385Y36592D01*
X54391Y36570D01*
X54402Y36543D01*
X54413Y36516D01*
X54423Y36477D01*
X54456Y36390D01*
X54500Y36292D01*
X54549Y36193D01*
X54604Y36095D01*
X54664Y36008D01*
X54669Y35997D01*
X54696Y35970D01*
X54735Y35931D01*
X54784Y35877D01*
X54855Y35822D01*
X54937Y35762D01*
X55035Y35708D01*
X55144Y35653D01*
X55150D01*
X55160Y35647D01*
X55177Y35642D01*
X55199Y35631D01*
X55226Y35620D01*
X55264Y35609D01*
X55346Y35582D01*
X55450Y35560D01*
X55564Y35538D01*
X55696Y35522D01*
X55832Y35517D01*
X55909D01*
X55947Y35522D01*
X55996D01*
X56045Y35527D01*
X56105Y35533D01*
X56225Y35549D01*
X56362Y35577D01*
X56493Y35609D01*
X56624Y35658D01*
X56629D01*
X56640Y35664D01*
X56657Y35675D01*
X56678Y35686D01*
X56739Y35713D01*
X56815Y35757D01*
X56902Y35811D01*
X56990Y35877D01*
X57082Y35948D01*
X57164Y36030D01*
X57175Y36041D01*
X57197Y36068D01*
X57235Y36117D01*
X57279Y36177D01*
X57328Y36248D01*
X57383Y36336D01*
X57432Y36428D01*
X57476Y36527D01*
Y36532D01*
X57481Y36548D01*
X57492Y36570D01*
X57503Y36608D01*
X57519Y36652D01*
X57536Y36701D01*
X57552Y36761D01*
X57568Y36827D01*
X57590Y36898D01*
X57607Y36980D01*
X57634Y37149D01*
X57656Y37340D01*
X57667Y37542D01*
Y37548D01*
Y37569D01*
Y37608D01*
X57661Y37651D01*
Y37711D01*
X57656Y37777D01*
X57645Y37853D01*
X57639Y37935D01*
X57612Y38115D01*
X57568Y38301D01*
X57514Y38492D01*
X57437Y38672D01*
X57432Y38678D01*
X57426Y38694D01*
X57415Y38716D01*
X57394Y38749D01*
X57372Y38782D01*
X57339Y38825D01*
X57268Y38923D01*
X57170Y39033D01*
X57055Y39147D01*
X56924Y39251D01*
X56848Y39300D01*
X56766Y39344D01*
X56760D01*
X56744Y39355D01*
X56722Y39366D01*
X56689Y39377D01*
X56646Y39393D01*
X56596Y39415D01*
X56542Y39431D01*
X56482Y39453D01*
X56416Y39475D01*
X56340Y39491D01*
X56182Y39530D01*
X56007Y39551D01*
X55821Y39562D01*
X55778D01*
X55745Y39557D01*
X55707D01*
X55663Y39551D01*
X55614Y39546D01*
X55554Y39540D01*
X55428Y39524D01*
X55286Y39491D01*
X55133Y39453D01*
X54980Y39399D01*
X54975D01*
X54964Y39393D01*
X54942Y39382D01*
X54909Y39371D01*
X54877Y39355D01*
X54838Y39333D01*
X54746Y39289D01*
X54642Y39235D01*
X54538Y39175D01*
X54440Y39115D01*
X54352Y39044D01*
Y38099D01*
X55832D01*
Y37504D01*
X53697D01*
Y39377D01*
X53703Y39382D01*
X53719Y39393D01*
X53746Y39415D01*
X53785Y39442D01*
X53828Y39475D01*
X53883Y39508D01*
X53943Y39551D01*
X54009Y39595D01*
X54079Y39639D01*
X54161Y39688D01*
X54331Y39786D01*
X54516Y39879D01*
X54713Y39961D01*
X54718D01*
X54735Y39972D01*
X54762Y39977D01*
X54806Y39994D01*
X54849Y40005D01*
X54909Y40021D01*
X54969Y40043D01*
X55040Y40059D01*
X55122Y40076D01*
X55204Y40097D01*
X55384Y40125D01*
X55581Y40147D01*
X55783Y40157D01*
X55854D01*
X55909Y40152D01*
D02*
G37*
G36*
X65354Y35036D02*
X64628D01*
X63318Y38700D01*
Y38705D01*
X63312Y38721D01*
X63301Y38743D01*
X63290Y38776D01*
X63279Y38814D01*
X63263Y38858D01*
X63247Y38907D01*
X63225Y38967D01*
X63187Y39093D01*
X63143Y39229D01*
X63099Y39377D01*
X63056Y39524D01*
Y39519D01*
X63050Y39508D01*
X63045Y39480D01*
X63034Y39453D01*
X63023Y39415D01*
X63012Y39371D01*
X62996Y39322D01*
X62979Y39268D01*
X62941Y39142D01*
X62892Y39000D01*
X62837Y38853D01*
X62783Y38700D01*
X61423Y35036D01*
X60746D01*
X62712Y40076D01*
X63400D01*
X65354Y35036D01*
D02*
G37*
G36*
X60031D02*
X59365D01*
Y40076D01*
X60031D01*
Y35036D01*
D02*
G37*
G36*
X64122Y23193D02*
Y22299D01*
X57569Y19757D01*
Y20701D01*
X62333Y22405D01*
X62340D01*
X62362Y22412D01*
X62390Y22427D01*
X62433Y22441D01*
X62482Y22455D01*
X62539Y22476D01*
X62603Y22498D01*
X62681Y22526D01*
X62844Y22576D01*
X63022Y22633D01*
X63214Y22689D01*
X63405Y22746D01*
X63398D01*
X63384Y22753D01*
X63349Y22760D01*
X63313Y22775D01*
X63263Y22789D01*
X63206Y22803D01*
X63143Y22824D01*
X63072Y22846D01*
X62908Y22895D01*
X62724Y22959D01*
X62532Y23030D01*
X62333Y23101D01*
X57569Y24869D01*
Y25749D01*
X64122Y23193D01*
D02*
G37*
G36*
X62049Y19345D02*
X62127Y19338D01*
X62213Y19324D01*
X62312Y19310D01*
X62426Y19288D01*
X62539Y19260D01*
X62667Y19225D01*
X62795Y19182D01*
X62923Y19132D01*
X63050Y19075D01*
X63185Y19004D01*
X63313Y18926D01*
X63434Y18834D01*
X63441Y18827D01*
X63469Y18806D01*
X63505Y18770D01*
X63554Y18721D01*
X63618Y18657D01*
X63682Y18578D01*
X63760Y18486D01*
X63831Y18380D01*
X63902Y18266D01*
X63980Y18138D01*
X64044Y17996D01*
X64101Y17840D01*
X64158Y17677D01*
X64193Y17499D01*
X64222Y17315D01*
X64229Y17116D01*
Y17031D01*
X64222Y16967D01*
X64215Y16889D01*
X64201Y16804D01*
X64186Y16704D01*
X64165Y16598D01*
X64144Y16484D01*
X64108Y16363D01*
X64066Y16243D01*
X64016Y16122D01*
X63959Y16001D01*
X63895Y15880D01*
X63817Y15767D01*
X63732Y15653D01*
X63725Y15646D01*
X63711Y15632D01*
X63682Y15604D01*
X63640Y15568D01*
X63590Y15518D01*
X63533Y15469D01*
X63462Y15419D01*
X63377Y15362D01*
X63292Y15305D01*
X63192Y15249D01*
X63079Y15199D01*
X62965Y15149D01*
X62837Y15100D01*
X62702Y15064D01*
X62553Y15036D01*
X62404Y15014D01*
X62340Y15859D01*
X62347D01*
X62369Y15866D01*
X62397Y15873D01*
X62440Y15880D01*
X62489Y15888D01*
X62553Y15909D01*
X62688Y15944D01*
X62837Y16001D01*
X62994Y16079D01*
X63135Y16172D01*
X63199Y16228D01*
X63263Y16285D01*
Y16292D01*
X63278Y16299D01*
X63292Y16321D01*
X63313Y16349D01*
X63363Y16420D01*
X63412Y16520D01*
X63469Y16640D01*
X63519Y16782D01*
X63554Y16938D01*
X63561Y17024D01*
X63569Y17116D01*
Y17173D01*
X63561Y17215D01*
X63554Y17265D01*
X63547Y17322D01*
X63512Y17457D01*
X63462Y17613D01*
X63427Y17691D01*
X63384Y17776D01*
X63334Y17861D01*
X63278Y17940D01*
X63214Y18018D01*
X63135Y18096D01*
X63128Y18103D01*
X63114Y18110D01*
X63093Y18131D01*
X63057Y18160D01*
X63008Y18188D01*
X62958Y18224D01*
X62894Y18259D01*
X62823Y18302D01*
X62745Y18337D01*
X62660Y18373D01*
X62560Y18408D01*
X62461Y18437D01*
X62347Y18465D01*
X62227Y18486D01*
X62106Y18493D01*
X61971Y18500D01*
X61964D01*
X61943D01*
X61907D01*
X61857Y18493D01*
X61801Y18486D01*
X61730Y18479D01*
X61659Y18465D01*
X61573Y18451D01*
X61403Y18408D01*
X61219Y18337D01*
X61133Y18294D01*
X61048Y18238D01*
X60963Y18181D01*
X60885Y18110D01*
X60878Y18103D01*
X60871Y18096D01*
X60849Y18067D01*
X60821Y18039D01*
X60792Y18003D01*
X60757Y17954D01*
X60721Y17904D01*
X60679Y17840D01*
X60643Y17769D01*
X60608Y17698D01*
X60544Y17521D01*
X60516Y17428D01*
X60494Y17322D01*
X60487Y17215D01*
X60480Y17102D01*
Y17038D01*
X60487Y16960D01*
X60501Y16867D01*
X60523Y16754D01*
X60558Y16633D01*
X60601Y16512D01*
X60665Y16392D01*
X60672Y16377D01*
X60693Y16342D01*
X60736Y16285D01*
X60785Y16214D01*
X60856Y16143D01*
X60935Y16058D01*
X61027Y15980D01*
X61126Y15909D01*
X61020Y15156D01*
X57654Y15788D01*
Y19047D01*
X58421D01*
Y16427D01*
X60182Y16079D01*
X60175Y16086D01*
X60161Y16108D01*
X60146Y16136D01*
X60118Y16179D01*
X60090Y16236D01*
X60054Y16299D01*
X60012Y16370D01*
X59976Y16456D01*
X59940Y16541D01*
X59898Y16640D01*
X59834Y16846D01*
X59806Y16960D01*
X59784Y17073D01*
X59777Y17194D01*
X59770Y17315D01*
Y17350D01*
X59777Y17400D01*
Y17457D01*
X59791Y17528D01*
X59799Y17613D01*
X59820Y17712D01*
X59841Y17812D01*
X59877Y17925D01*
X59912Y18039D01*
X59962Y18160D01*
X60019Y18280D01*
X60090Y18401D01*
X60168Y18522D01*
X60260Y18642D01*
X60366Y18756D01*
X60374Y18763D01*
X60395Y18784D01*
X60430Y18813D01*
X60473Y18848D01*
X60530Y18898D01*
X60608Y18948D01*
X60686Y18997D01*
X60778Y19054D01*
X60885Y19111D01*
X61006Y19161D01*
X61126Y19218D01*
X61268Y19260D01*
X61410Y19296D01*
X61566Y19324D01*
X61730Y19345D01*
X61900Y19352D01*
X61907D01*
X61943D01*
X61985D01*
X62049Y19345D01*
D02*
G37*
%LPC*%
G36*
X3586Y34584D02*
X3577D01*
X3561D01*
X3537D01*
X3504D01*
X3413Y34567D01*
X3307Y34551D01*
X3176Y34526D01*
X3045Y34477D01*
X2905Y34420D01*
X2774Y34338D01*
X2757Y34329D01*
X2716Y34297D01*
X2659Y34239D01*
X2593Y34174D01*
X2520Y34075D01*
X2446Y33969D01*
X2380Y33846D01*
X2331Y33706D01*
Y33698D01*
X2323Y33657D01*
X2307Y33591D01*
X2290Y33493D01*
Y33436D01*
X2282Y33370D01*
X2274Y33288D01*
X2266Y33206D01*
Y33108D01*
X2257Y33009D01*
Y30836D01*
X4963D01*
Y32878D01*
X4955Y32944D01*
Y33026D01*
X4947Y33116D01*
X4930Y33222D01*
X4914Y33329D01*
X4873Y33559D01*
X4808Y33788D01*
X4766Y33895D01*
X4717Y33993D01*
X4668Y34092D01*
X4603Y34174D01*
X4594Y34182D01*
X4586Y34190D01*
X4561Y34215D01*
X4537Y34239D01*
X4455Y34305D01*
X4340Y34379D01*
X4192Y34452D01*
X4020Y34518D01*
X3815Y34567D01*
X3709Y34575D01*
X3586Y34584D01*
D02*
G37*
%LPD*%
D10*
X18979Y61876D02*
X18241Y62302D01*
Y61450D01*
X18979Y61876D01*
D11*
X37304Y79210D02*
X36517D01*
X37304D01*
X22244Y74673D02*
X33772D01*
X22244Y70047D02*
X33772D01*
Y71803D01*
X33272Y71409D02*
X33772D01*
X33272Y73015D02*
Y74574D01*
Y73409D02*
X33772D01*
Y73015D02*
Y74673D01*
X33272Y70047D02*
Y71803D01*
X22244Y81070D02*
X33772D01*
X22244Y76444D02*
X33772D01*
Y78200D01*
X33272Y77806D02*
X33772D01*
X33272Y79413D02*
Y80972D01*
Y79806D02*
X33772D01*
Y79413D02*
Y81070D01*
X33272Y76444D02*
Y78200D01*
D12*
X27796Y65224D02*
X28288Y64371D01*
X29272D01*
X29764Y65224D01*
X31742D02*
X31249Y66076D01*
X30265D01*
X29773Y65224D01*
X51575Y29528D02*
X55512D01*
X58268Y32283D01*
Y34252D01*
X52854Y11676D02*
X59978D01*
X62500Y9154D01*
X66535D01*
X59694Y48180D02*
X66387D01*
X58491Y49383D02*
X59694Y48180D01*
X51968Y49383D02*
X58491D01*
X47559Y40157D02*
X51968Y44567D01*
Y57874D01*
X53543Y59449D01*
X54724D01*
X56497Y61221D01*
X394Y7874D02*
Y48819D01*
X66535Y6102D02*
X66535Y12205D01*
X66535Y20079D02*
Y24409D01*
X66535Y80315D02*
Y81496D01*
X6299Y81496D02*
X66535Y81496D01*
X66535Y30709D02*
Y41339D01*
Y55118D02*
Y74016D01*
X394Y55512D02*
Y68110D01*
Y394D02*
X61024D01*
X394D02*
Y1575D01*
X11811Y35827D02*
X33071D01*
X11811Y31988D02*
Y35728D01*
X33071Y31988D02*
Y35728D01*
X11811Y15354D02*
X33071D01*
Y15453D02*
Y19193D01*
X11811Y15453D02*
Y19193D01*
X37304Y4681D02*
X40354Y1631D01*
X49803D01*
X52854Y4682D02*
Y26434D01*
X52854Y4682D02*
X52854Y4682D01*
X49803Y1631D02*
X52854Y4682D01*
X42717Y16690D02*
X47047D01*
X45472D02*
X47047D01*
X42717Y14327D02*
Y14721D01*
X44685Y16690D01*
X47047Y14327D02*
Y14524D01*
X44882Y16690D02*
X47047Y14524D01*
X42717Y14327D02*
X47047D01*
X37304Y4681D02*
X37402Y26237D01*
X25591Y5118D02*
Y9449D01*
X23228Y7283D02*
X25394Y9449D01*
X25591D01*
X23228Y7087D02*
X25197Y5118D01*
X25591D01*
X23228Y7874D02*
Y9449D01*
Y5118D02*
Y9449D01*
X25492Y13133D02*
X37303D01*
X10925Y1828D02*
Y12598D01*
Y1828D02*
X20669D01*
X10925Y13133D02*
X20669D01*
X25492Y1828D02*
X37303D01*
Y13133D01*
X9344Y75262D02*
X15151D01*
X9344Y63057D02*
X15151D01*
X9344D02*
Y65911D01*
Y72604D02*
Y75262D01*
X42120Y69095D02*
Y69291D01*
X49206Y69095D02*
Y69291D01*
X42120Y81102D02*
Y81299D01*
X49206Y81102D02*
Y81299D01*
X42120D02*
X49206D01*
X42120Y69095D02*
X49206D01*
X41542Y61826D02*
X43353D01*
X42428Y67495D02*
Y68971D01*
X48550Y64896D02*
Y65093D01*
X45873Y62219D02*
Y67652D01*
Y62219D02*
X48550Y64896D01*
X51188Y61550D02*
X52959D01*
X51188Y68282D02*
X52959D01*
X45873Y67770D02*
X48550Y65093D01*
X48589Y62219D02*
Y67652D01*
X41542Y68282D02*
X43353D01*
X42428Y60952D02*
Y62625D01*
X35551Y60827D02*
X44131D01*
X47559Y40157D02*
Y57361D01*
X8484Y36811D02*
X19114D01*
X8484Y60827D02*
X19114D01*
X44131D02*
X47559Y57361D01*
X44213Y36811D02*
X47559Y40157D01*
X35551Y36811D02*
X44213D01*
X29252Y46457D02*
Y50787D01*
X26890Y48622D02*
X29055Y50787D01*
X29252D01*
X26890Y48425D02*
X28858Y46457D01*
X29252D01*
X26890Y49213D02*
Y50787D01*
Y46457D02*
Y50787D01*
X8484Y36811D02*
Y60827D01*
X27291Y68373D02*
X32213D01*
X27291Y62074D02*
X32213D01*
X51535Y31102D02*
Y34055D01*
X40945Y31299D02*
Y34252D01*
X56497Y75197D02*
X60454D01*
X394Y37472D02*
X8091D01*
X8494Y394D02*
X8565D01*
X8494D02*
Y15821D01*
X56497Y61221D02*
Y75197D01*
X58268Y34252D02*
X66535D01*
D13*
X5662Y11855D02*
D03*
X2512D02*
D03*
X56217Y53729D02*
D03*
X53067D02*
D03*
Y44882D02*
D03*
X56217D02*
D03*
X53960Y25233D02*
D03*
X57109D02*
D03*
D14*
X20472Y15551D02*
Y35630D01*
X24409Y15551D02*
Y35630D01*
D15*
X37697Y26926D02*
X38976D01*
X51083D02*
X52240D01*
X10864Y2524D02*
X10925Y12500D01*
D16*
X8091Y37598D02*
Y60138D01*
D17*
X5642Y8311D02*
Y11094D01*
X2296Y8311D02*
X5642D01*
X2296D02*
Y11094D01*
Y12639D02*
Y14995D01*
X2699Y15398D01*
X5642Y12639D02*
Y14995D01*
X5239Y15398D02*
X5642Y14995D01*
X2699Y15398D02*
X5239D01*
X35131Y73476D02*
X37494D01*
X15840Y77953D02*
X16234Y77953D01*
X15844Y79921D02*
X16238Y79921D01*
X56197Y50185D02*
Y52968D01*
X52851Y50185D02*
X56197D01*
X52851D02*
Y52968D01*
Y54513D02*
Y56869D01*
X53254Y57272D01*
X56197Y54513D02*
Y56869D01*
X55794Y57272D02*
X56197Y56869D01*
X53254Y57272D02*
X55794D01*
X52851Y45643D02*
Y48425D01*
X56197D01*
Y45643D02*
Y48425D01*
Y41742D02*
Y44098D01*
X55794Y41339D02*
X56197Y41742D01*
X52851D02*
Y44098D01*
Y41742D02*
X53254Y41339D01*
X55794D01*
X53743Y25994D02*
Y28776D01*
X57090D01*
Y25994D02*
Y28776D01*
Y22093D02*
Y24449D01*
X56687Y21690D02*
X57090Y22093D01*
X53743D02*
Y24449D01*
Y22093D02*
X54146Y21690D01*
X56687D01*
X49282Y53630D02*
X49282Y54024D01*
X51251Y53626D02*
X51251Y54020D01*
X49282Y44591D02*
X49282Y44984D01*
X51251Y44587D02*
X51251Y44980D01*
X56401Y16570D02*
X56401Y16964D01*
X54432Y16574D02*
X54432Y16968D01*
D18*
X28543Y71031D02*
Y73787D01*
X25787D02*
X28543Y72409D01*
X29331D01*
X24606D02*
X25787D01*
Y71031D02*
Y73787D01*
Y71031D02*
X28543Y72409D01*
Y77429D02*
Y80184D01*
X25787D02*
X28543Y78806D01*
X29331D01*
X24606D02*
X25787D01*
Y77429D02*
Y80184D01*
Y77429D02*
X28543Y78806D01*
M02*
