G04*
G04 #@! TF.GenerationSoftware,Altium Limited,Altium Designer,25.1.2 (22)*
G04*
G04 Layer_Physical_Order=1*
G04 Layer_Color=255*
%FSLAX25Y25*%
%MOIN*%
G70*
G04*
G04 #@! TF.SameCoordinates,3A9A6ABF-25F3-4EED-80CC-6442B43FEAD7*
G04*
G04*
G04 #@! TF.FilePolarity,Positive*
G04*
G01*
G75*
%ADD12C,0.00787*%
%ADD18C,0.01968*%
G04:AMPARAMS|DCode=19|XSize=27.56mil|YSize=23.62mil|CornerRadius=2.36mil|HoleSize=0mil|Usage=FLASHONLY|Rotation=0.000|XOffset=0mil|YOffset=0mil|HoleType=Round|Shape=RoundedRectangle|*
%AMROUNDEDRECTD19*
21,1,0.02756,0.01890,0,0,0.0*
21,1,0.02284,0.02362,0,0,0.0*
1,1,0.00472,0.01142,-0.00945*
1,1,0.00472,-0.01142,-0.00945*
1,1,0.00472,-0.01142,0.00945*
1,1,0.00472,0.01142,0.00945*
%
%ADD19ROUNDEDRECTD19*%
%ADD20R,0.04331X0.03937*%
G04:AMPARAMS|DCode=21|XSize=27.56mil|YSize=36.22mil|CornerRadius=2.76mil|HoleSize=0mil|Usage=FLASHONLY|Rotation=0.000|XOffset=0mil|YOffset=0mil|HoleType=Round|Shape=RoundedRectangle|*
%AMROUNDEDRECTD21*
21,1,0.02756,0.03071,0,0,0.0*
21,1,0.02205,0.03622,0,0,0.0*
1,1,0.00551,0.01102,-0.01535*
1,1,0.00551,-0.01102,-0.01535*
1,1,0.00551,-0.01102,0.01535*
1,1,0.00551,0.01102,0.01535*
%
%ADD21ROUNDEDRECTD21*%
G04:AMPARAMS|DCode=22|XSize=27.56mil|YSize=23.62mil|CornerRadius=2.36mil|HoleSize=0mil|Usage=FLASHONLY|Rotation=90.000|XOffset=0mil|YOffset=0mil|HoleType=Round|Shape=RoundedRectangle|*
%AMROUNDEDRECTD22*
21,1,0.02756,0.01890,0,0,90.0*
21,1,0.02284,0.02362,0,0,90.0*
1,1,0.00472,0.00945,0.01142*
1,1,0.00472,0.00945,-0.01142*
1,1,0.00472,-0.00945,-0.01142*
1,1,0.00472,-0.00945,0.01142*
%
%ADD22ROUNDEDRECTD22*%
%ADD23O,0.04724X0.00984*%
%ADD24O,0.00984X0.04724*%
G04:AMPARAMS|DCode=25|XSize=33.47mil|YSize=33.47mil|CornerRadius=3.35mil|HoleSize=0mil|Usage=FLASHONLY|Rotation=0.000|XOffset=0mil|YOffset=0mil|HoleType=Round|Shape=RoundedRectangle|*
%AMROUNDEDRECTD25*
21,1,0.03347,0.02677,0,0,0.0*
21,1,0.02677,0.03347,0,0,0.0*
1,1,0.00669,0.01339,-0.01339*
1,1,0.00669,-0.01339,-0.01339*
1,1,0.00669,-0.01339,0.01339*
1,1,0.00669,0.01339,0.01339*
%
%ADD25ROUNDEDRECTD25*%
G04:AMPARAMS|DCode=26|XSize=27.56mil|YSize=36.22mil|CornerRadius=2.76mil|HoleSize=0mil|Usage=FLASHONLY|Rotation=90.000|XOffset=0mil|YOffset=0mil|HoleType=Round|Shape=RoundedRectangle|*
%AMROUNDEDRECTD26*
21,1,0.02756,0.03071,0,0,90.0*
21,1,0.02205,0.03622,0,0,90.0*
1,1,0.00551,0.01535,0.01102*
1,1,0.00551,0.01535,-0.01102*
1,1,0.00551,-0.01535,-0.01102*
1,1,0.00551,-0.01535,0.01102*
%
%ADD26ROUNDEDRECTD26*%
%ADD27O,0.08661X0.02362*%
%ADD28R,0.00787X0.21260*%
%ADD29R,0.00787X0.09055*%
%ADD30R,0.00787X0.23622*%
%ADD31R,0.00787X0.07874*%
%ADD32R,0.00787X0.08268*%
%ADD33R,0.00787X0.42126*%
%ADD34R,0.19685X0.00787*%
%ADD35R,0.26772X0.00787*%
%ADD36R,0.17717X0.00787*%
%ADD37R,0.00787X0.22441*%
%ADD38R,0.00787X0.06299*%
%ADD39R,0.05512X0.00787*%
G04:AMPARAMS|DCode=40|XSize=35.43mil|YSize=37.4mil|CornerRadius=3.54mil|HoleSize=0mil|Usage=FLASHONLY|Rotation=90.000|XOffset=0mil|YOffset=0mil|HoleType=Round|Shape=RoundedRectangle|*
%AMROUNDEDRECTD40*
21,1,0.03543,0.03032,0,0,90.0*
21,1,0.02835,0.03740,0,0,90.0*
1,1,0.00709,0.01516,0.01417*
1,1,0.00709,0.01516,-0.01417*
1,1,0.00709,-0.01516,-0.01417*
1,1,0.00709,-0.01516,0.01417*
%
%ADD40ROUNDEDRECTD40*%
G04:AMPARAMS|DCode=41|XSize=35.43mil|YSize=37.4mil|CornerRadius=3.54mil|HoleSize=0mil|Usage=FLASHONLY|Rotation=90.000|XOffset=0mil|YOffset=0mil|HoleType=Round|Shape=RoundedRectangle|*
%AMROUNDEDRECTD41*
21,1,0.03543,0.03032,0,0,90.0*
21,1,0.02835,0.03740,0,0,90.0*
1,1,0.00709,0.01516,0.01417*
1,1,0.00709,0.01516,-0.01417*
1,1,0.00709,-0.01516,-0.01417*
1,1,0.00709,-0.01516,0.01417*
%
%ADD41ROUNDEDRECTD41*%
G04:AMPARAMS|DCode=42|XSize=43.31mil|YSize=84.65mil|CornerRadius=4.33mil|HoleSize=0mil|Usage=FLASHONLY|Rotation=0.000|XOffset=0mil|YOffset=0mil|HoleType=Round|Shape=RoundedRectangle|*
%AMROUNDEDRECTD42*
21,1,0.04331,0.07598,0,0,0.0*
21,1,0.03465,0.08465,0,0,0.0*
1,1,0.00866,0.01732,-0.03799*
1,1,0.00866,-0.01732,-0.03799*
1,1,0.00866,-0.01732,0.03799*
1,1,0.00866,0.01732,0.03799*
%
%ADD42ROUNDEDRECTD42*%
G04:AMPARAMS|DCode=43|XSize=43.31mil|YSize=84.65mil|CornerRadius=4.33mil|HoleSize=0mil|Usage=FLASHONLY|Rotation=0.000|XOffset=0mil|YOffset=0mil|HoleType=Round|Shape=RoundedRectangle|*
%AMROUNDEDRECTD43*
21,1,0.04331,0.07599,0,0,0.0*
21,1,0.03465,0.08465,0,0,0.0*
1,1,0.00866,0.01732,-0.03799*
1,1,0.00866,-0.01732,-0.03799*
1,1,0.00866,-0.01732,0.03799*
1,1,0.00866,0.01732,0.03799*
%
%ADD43ROUNDEDRECTD43*%
G04:AMPARAMS|DCode=44|XSize=137.8mil|YSize=84.65mil|CornerRadius=8.47mil|HoleSize=0mil|Usage=FLASHONLY|Rotation=0.000|XOffset=0mil|YOffset=0mil|HoleType=Round|Shape=RoundedRectangle|*
%AMROUNDEDRECTD44*
21,1,0.13780,0.06772,0,0,0.0*
21,1,0.12087,0.08465,0,0,0.0*
1,1,0.01693,0.06043,-0.03386*
1,1,0.01693,-0.06043,-0.03386*
1,1,0.01693,-0.06043,0.03386*
1,1,0.01693,0.06043,0.03386*
%
%ADD44ROUNDEDRECTD44*%
G04:AMPARAMS|DCode=45|XSize=39.37mil|YSize=43.31mil|CornerRadius=3.94mil|HoleSize=0mil|Usage=FLASHONLY|Rotation=0.000|XOffset=0mil|YOffset=0mil|HoleType=Round|Shape=RoundedRectangle|*
%AMROUNDEDRECTD45*
21,1,0.03937,0.03543,0,0,0.0*
21,1,0.03150,0.04331,0,0,0.0*
1,1,0.00787,0.01575,-0.01772*
1,1,0.00787,-0.01575,-0.01772*
1,1,0.00787,-0.01575,0.01772*
1,1,0.00787,0.01575,0.01772*
%
%ADD45ROUNDEDRECTD45*%
G04:AMPARAMS|DCode=46|XSize=23.62mil|YSize=35.43mil|CornerRadius=2.36mil|HoleSize=0mil|Usage=FLASHONLY|Rotation=180.000|XOffset=0mil|YOffset=0mil|HoleType=Round|Shape=RoundedRectangle|*
%AMROUNDEDRECTD46*
21,1,0.02362,0.03071,0,0,180.0*
21,1,0.01890,0.03543,0,0,180.0*
1,1,0.00472,-0.00945,0.01535*
1,1,0.00472,0.00945,0.01535*
1,1,0.00472,0.00945,-0.01535*
1,1,0.00472,-0.00945,-0.01535*
%
%ADD46ROUNDEDRECTD46*%
G04:AMPARAMS|DCode=47|XSize=23.62mil|YSize=35.43mil|CornerRadius=2.36mil|HoleSize=0mil|Usage=FLASHONLY|Rotation=270.000|XOffset=0mil|YOffset=0mil|HoleType=Round|Shape=RoundedRectangle|*
%AMROUNDEDRECTD47*
21,1,0.02362,0.03071,0,0,270.0*
21,1,0.01890,0.03543,0,0,270.0*
1,1,0.00472,-0.01535,-0.00945*
1,1,0.00472,-0.01535,0.00945*
1,1,0.00472,0.01535,0.00945*
1,1,0.00472,0.01535,-0.00945*
%
%ADD47ROUNDEDRECTD47*%
G04:AMPARAMS|DCode=48|XSize=86.61mil|YSize=90.55mil|CornerRadius=8.66mil|HoleSize=0mil|Usage=FLASHONLY|Rotation=180.000|XOffset=0mil|YOffset=0mil|HoleType=Round|Shape=RoundedRectangle|*
%AMROUNDEDRECTD48*
21,1,0.08661,0.07323,0,0,180.0*
21,1,0.06929,0.09055,0,0,180.0*
1,1,0.01732,-0.03465,0.03661*
1,1,0.01732,0.03465,0.03661*
1,1,0.01732,0.03465,-0.03661*
1,1,0.01732,-0.03465,-0.03661*
%
%ADD48ROUNDEDRECTD48*%
%ADD49C,0.03150*%
G04:AMPARAMS|DCode=50|XSize=31.5mil|YSize=78.74mil|CornerRadius=3.15mil|HoleSize=0mil|Usage=FLASHONLY|Rotation=90.000|XOffset=0mil|YOffset=0mil|HoleType=Round|Shape=RoundedRectangle|*
%AMROUNDEDRECTD50*
21,1,0.03150,0.07244,0,0,90.0*
21,1,0.02520,0.07874,0,0,90.0*
1,1,0.00630,0.03622,0.01260*
1,1,0.00630,0.03622,-0.01260*
1,1,0.00630,-0.03622,-0.01260*
1,1,0.00630,-0.03622,0.01260*
%
%ADD50ROUNDEDRECTD50*%
%ADD51O,0.04331X0.01181*%
%ADD52R,0.01476X0.01378*%
%ADD53R,0.01378X0.01476*%
G04:AMPARAMS|DCode=54|XSize=39.37mil|YSize=43.31mil|CornerRadius=3.94mil|HoleSize=0mil|Usage=FLASHONLY|Rotation=270.000|XOffset=0mil|YOffset=0mil|HoleType=Round|Shape=RoundedRectangle|*
%AMROUNDEDRECTD54*
21,1,0.03937,0.03543,0,0,270.0*
21,1,0.03150,0.04331,0,0,270.0*
1,1,0.00787,-0.01772,-0.01575*
1,1,0.00787,-0.01772,0.01575*
1,1,0.00787,0.01772,0.01575*
1,1,0.00787,0.01772,-0.01575*
%
%ADD54ROUNDEDRECTD54*%
%ADD83C,0.03100*%
%ADD84C,0.01575*%
%ADD85C,0.00492*%
%ADD86C,0.01181*%
%ADD87C,0.04331*%
%ADD88C,0.02362*%
%ADD89C,0.03900*%
%ADD90C,0.05512*%
G36*
X144600Y154759D02*
X144710Y154663D01*
X144764Y154592D01*
Y140092D01*
X135120Y130448D01*
X134903Y130122D01*
X134826Y129738D01*
Y126600D01*
X118298Y110072D01*
X117889Y110181D01*
X117536Y110423D01*
Y112165D01*
X117472Y112488D01*
X117298Y112748D01*
X117289Y112770D01*
Y113608D01*
X117298Y113630D01*
X117472Y113890D01*
X117536Y114213D01*
Y114665D01*
X115551D01*
Y115157D01*
X115059D01*
Y116945D01*
X114409D01*
X114087Y116881D01*
X113827Y116708D01*
X113805Y116698D01*
X112967D01*
X112945Y116708D01*
X112685Y116881D01*
X112362Y116945D01*
X111713D01*
Y115157D01*
X110728D01*
Y116945D01*
X110079D01*
X109960Y117043D01*
Y118308D01*
X111121Y119469D01*
X120634D01*
X121220Y118883D01*
X121307Y118825D01*
X121530Y118288D01*
X122028Y117789D01*
X122679Y117520D01*
X123384D01*
X124035Y117789D01*
X124533Y118288D01*
X124803Y118939D01*
Y118958D01*
X125032Y119657D01*
X125531Y119685D01*
X125746D01*
X126397Y119955D01*
X126896Y120453D01*
X127165Y121104D01*
Y121809D01*
X126896Y122460D01*
X126397Y122959D01*
X125746Y123228D01*
X125041D01*
X124390Y122959D01*
X123892Y122460D01*
X123892Y122460D01*
X122291D01*
X122290Y122462D01*
X121964Y122679D01*
X121580Y122756D01*
X111818D01*
X111516Y123483D01*
X142955Y154921D01*
X142955Y154921D01*
X143659D01*
X144044Y155081D01*
X144600Y154759D01*
D02*
G37*
G36*
X120200Y155248D02*
X120256Y155191D01*
X120907Y154921D01*
X121612D01*
X122263Y155191D01*
X122320Y155248D01*
X122835Y155635D01*
X123349Y155248D01*
X123406Y155191D01*
X124057Y154921D01*
X124762D01*
X125413Y155191D01*
X125470Y155248D01*
X125818Y155510D01*
X126469Y155107D01*
X126415Y154363D01*
X126162Y154258D01*
X125663Y153760D01*
X125394Y153108D01*
Y152403D01*
X125663Y151752D01*
X126162Y151254D01*
X126813Y150984D01*
X127518D01*
X128169Y151254D01*
X128667Y151752D01*
X128937Y152403D01*
Y153108D01*
X128667Y153760D01*
X128227Y154200D01*
X128210Y154591D01*
X128268Y155069D01*
X128563Y155191D01*
X128620Y155248D01*
X129134Y155635D01*
X129648Y155248D01*
X129705Y155191D01*
X130356Y154921D01*
X131061D01*
X131712Y155191D01*
X131769Y155248D01*
X132283Y155635D01*
X132798Y155248D01*
X132855Y155191D01*
X133506Y154921D01*
X134211D01*
X134862Y155191D01*
X134919Y155248D01*
X135433Y155635D01*
X135948Y155248D01*
X136004Y155191D01*
X136655Y154921D01*
X137360D01*
X138012Y155191D01*
X138068Y155248D01*
X138583Y155635D01*
X139097Y155248D01*
X139154Y155191D01*
X139238Y155156D01*
X139423Y154227D01*
X105884Y120689D01*
X100000D01*
X99616Y120612D01*
X99587Y120593D01*
X98813Y120963D01*
X98800Y120979D01*
Y121022D01*
X98530Y121673D01*
X98032Y122171D01*
X97923Y123068D01*
X115670Y140815D01*
X115888Y141141D01*
X115964Y141525D01*
Y155171D01*
X116583Y155599D01*
X117050Y155248D01*
X117107Y155191D01*
X117758Y154921D01*
X118463D01*
X119114Y155191D01*
X119171Y155248D01*
X119685Y155635D01*
X120200Y155248D01*
D02*
G37*
G36*
X94309Y157087D02*
X94291Y157045D01*
Y156341D01*
X94561Y155689D01*
X95060Y155191D01*
X95711Y154921D01*
X96415D01*
X97067Y155191D01*
X97123Y155248D01*
X97638Y155635D01*
X98152Y155248D01*
X98209Y155191D01*
X98860Y154921D01*
X99565D01*
X100216Y155191D01*
X100273Y155248D01*
X100787Y155635D01*
X101302Y155248D01*
X101359Y155191D01*
X102010Y154921D01*
X102715D01*
X103366Y155191D01*
X103423Y155248D01*
X103937Y155635D01*
X104451Y155248D01*
X104508Y155191D01*
X105159Y154921D01*
X105864D01*
X106515Y155191D01*
X106572Y155248D01*
X107087Y155635D01*
X107601Y155248D01*
X107658Y155191D01*
X108309Y154921D01*
X109014D01*
X109665Y155191D01*
X109722Y155248D01*
X110236Y155635D01*
X110751Y155248D01*
X110808Y155191D01*
X111459Y154921D01*
X112087D01*
Y146424D01*
X111376Y145866D01*
X110671D01*
X110020Y145596D01*
X109522Y145098D01*
X109252Y144447D01*
Y143742D01*
X108839Y142841D01*
X108341Y142342D01*
X108071Y141691D01*
Y140986D01*
X108341Y140335D01*
X108839Y139837D01*
X108903Y139810D01*
X109088Y138881D01*
X106693Y136486D01*
X105905Y136770D01*
X105636Y137421D01*
X105137Y137919D01*
X104486Y138189D01*
X103781D01*
X103130Y137919D01*
X102975Y137764D01*
X102461Y137507D01*
X101946Y137764D01*
X101791Y137919D01*
X101140Y138189D01*
X100435D01*
X99784Y137919D01*
X99286Y137421D01*
X99204Y137224D01*
X77051D01*
X76667Y137148D01*
X76341Y136930D01*
X75060Y135649D01*
X53150D01*
Y136122D01*
X51821D01*
Y136614D01*
X51329D01*
Y137894D01*
X51083D01*
Y138976D01*
X51083D01*
X51157Y139733D01*
X53005D01*
X53406Y139567D01*
X54111D01*
X54762Y139837D01*
X55260Y140335D01*
X55426Y140736D01*
X60586Y145896D01*
X61374Y145591D01*
Y144815D01*
X61208Y144414D01*
Y143709D01*
X61477Y143058D01*
X61976Y142560D01*
X62627Y142290D01*
X63332D01*
X63983Y142560D01*
X64481Y143058D01*
X64751Y143709D01*
Y144414D01*
X64585Y144815D01*
Y151731D01*
X64585Y151731D01*
X64463Y152346D01*
X64115Y152866D01*
X63492Y153489D01*
Y154627D01*
X64279Y155058D01*
X64608Y154921D01*
X65313D01*
X65964Y155191D01*
X66021Y155248D01*
X66536Y155635D01*
X67050Y155248D01*
X67107Y155191D01*
X67758Y154921D01*
X68463D01*
X69114Y155191D01*
X69171Y155248D01*
X69685Y155635D01*
X70200Y155248D01*
X70256Y155191D01*
X70907Y154921D01*
X71612D01*
X72263Y155191D01*
X72320Y155248D01*
X72835Y155635D01*
X73349Y155248D01*
X73406Y155191D01*
X74057Y154921D01*
X74762D01*
X75413Y155191D01*
X75911Y155689D01*
X76181Y156341D01*
Y157045D01*
X76164Y157087D01*
X76690Y157874D01*
X93782D01*
X94309Y157087D01*
D02*
G37*
G36*
X23049D02*
X23031Y157045D01*
Y156341D01*
X23301Y155689D01*
X23800Y155191D01*
X23818Y155183D01*
X23814Y154842D01*
X23355Y154504D01*
X23022Y154369D01*
X22579Y154457D01*
X10492D01*
X9932Y154346D01*
X9456Y154028D01*
X9179Y153613D01*
X7677D01*
Y153984D01*
X7449Y154835D01*
X7009Y155598D01*
X6385Y156221D01*
X5622Y156662D01*
X4771Y156890D01*
X3890D01*
X3818Y156870D01*
X3622Y157087D01*
X3971Y157874D01*
X22523D01*
X23049Y157087D01*
D02*
G37*
G36*
X60057D02*
X60039Y157045D01*
Y156341D01*
X60281Y155758D01*
Y154249D01*
X59553Y153948D01*
X58507Y154995D01*
X57986Y155343D01*
X57371Y155465D01*
X57371Y155465D01*
X54878D01*
X54289Y155709D01*
X53585D01*
X52934Y155439D01*
X52840Y155346D01*
X52354D01*
X52354Y155346D01*
X51739Y155224D01*
X51218Y154876D01*
X50924Y154581D01*
X50322D01*
X49536Y154256D01*
X48933Y153654D01*
X48642Y152949D01*
X48248Y152906D01*
X47854Y152949D01*
X47563Y153654D01*
X46961Y154256D01*
X46174Y154581D01*
X46167D01*
X45472Y154963D01*
X45472Y155309D01*
Y155667D01*
X45203Y156318D01*
X44704Y156817D01*
X44053Y157087D01*
X43348D01*
X42697Y156817D01*
X42199Y156318D01*
X41929Y155667D01*
Y155121D01*
X41528Y154720D01*
X41247Y154551D01*
X41240Y154554D01*
Y152441D01*
X40256D01*
Y154554D01*
X39536Y154256D01*
X39470Y154190D01*
X39085Y154257D01*
X38642Y154476D01*
X38482Y155073D01*
X38096Y155743D01*
X37550Y156289D01*
X36881Y156675D01*
X36134Y156875D01*
X35362D01*
X34615Y156675D01*
X33946Y156289D01*
X33534Y155877D01*
X32867Y156323D01*
X32874Y156341D01*
Y157045D01*
X32857Y157087D01*
X33383Y157874D01*
X59530D01*
X60057Y157087D01*
D02*
G37*
G36*
X164294Y155248D02*
X164351Y155191D01*
X165002Y154921D01*
X165707D01*
X165748Y154938D01*
X166535Y154412D01*
Y148737D01*
X165748Y148211D01*
X165707Y148228D01*
X165002D01*
X164351Y147959D01*
X163852Y147460D01*
X163583Y146809D01*
Y146104D01*
X163852Y145453D01*
X163909Y145396D01*
X164296Y144882D01*
X163909Y144368D01*
X163852Y144311D01*
X163583Y143659D01*
Y142955D01*
X163852Y142304D01*
X163909Y142247D01*
X164296Y141732D01*
X163909Y141218D01*
X163852Y141161D01*
X163583Y140510D01*
Y139805D01*
X163852Y139154D01*
X163909Y139097D01*
X164296Y138583D01*
X163909Y138068D01*
X163852Y138011D01*
X163712Y137673D01*
X162984Y137332D01*
X162795Y137323D01*
X162546Y137373D01*
X161522D01*
Y134992D01*
Y132611D01*
X162546D01*
X162915Y132685D01*
X162962Y132716D01*
X163779Y132568D01*
X164054Y131962D01*
X163909Y131769D01*
X163852Y131712D01*
X163583Y131061D01*
Y130356D01*
X163604Y130306D01*
X162968Y129783D01*
X162915Y129819D01*
X162546Y129892D01*
X159514D01*
X159146Y129819D01*
X158833Y129610D01*
X158624Y129298D01*
X158551Y128929D01*
Y128366D01*
X154852D01*
X154302Y129001D01*
X154380Y129488D01*
X155103Y129829D01*
X155553Y129642D01*
X156258D01*
X156909Y129912D01*
X157407Y130410D01*
X157677Y131062D01*
Y131766D01*
X157407Y132418D01*
X156909Y132916D01*
X156258Y133186D01*
X155553D01*
X155003Y132958D01*
X154694Y132988D01*
X154074Y133202D01*
X153975Y133350D01*
X153663Y133559D01*
X153294Y133633D01*
X151632D01*
X151330Y134360D01*
X153660Y136689D01*
X153877Y137015D01*
X153954Y137399D01*
Y137670D01*
X153956Y137671D01*
X154455Y138170D01*
X154604Y138210D01*
X155331Y138227D01*
X155689Y137868D01*
X156341Y137598D01*
X157045D01*
X157696Y137868D01*
X158195Y138366D01*
X158465Y139018D01*
Y139723D01*
X158324Y140061D01*
X158582Y140288D01*
X158997Y140481D01*
X159077Y140433D01*
X159163Y140375D01*
X159486Y140311D01*
X161375D01*
X161698Y140375D01*
X161972Y140558D01*
X162154Y140832D01*
X162218Y141154D01*
Y144225D01*
X162154Y144548D01*
X161972Y144821D01*
X161698Y145004D01*
X161375Y145068D01*
X159486D01*
X159163Y145004D01*
X159077Y144946D01*
X158886Y144832D01*
X158106Y145005D01*
X158002Y145255D01*
X157947Y145542D01*
X157941Y145810D01*
X158022Y145932D01*
X158087Y146258D01*
Y146489D01*
X160335Y148737D01*
X160520Y149014D01*
X160585Y149340D01*
Y149760D01*
X161375D01*
X161698Y149824D01*
X161972Y150007D01*
X162154Y150280D01*
X162218Y150603D01*
Y153674D01*
X162154Y153997D01*
X162031Y154181D01*
X162293Y154921D01*
X162557D01*
X163208Y155191D01*
X163265Y155248D01*
X163780Y155635D01*
X164294Y155248D01*
D02*
G37*
G36*
X30042Y155248D02*
X30099Y155191D01*
X30750Y154921D01*
X31455D01*
X32106Y155191D01*
X32226Y155163D01*
X32814Y154327D01*
Y153555D01*
X33014Y152808D01*
X33400Y152139D01*
X33946Y151593D01*
X34615Y151207D01*
X35362Y151007D01*
X36134D01*
X36881Y151207D01*
X37550Y151593D01*
X37865Y151908D01*
X37917Y151915D01*
X38668Y151755D01*
X38733Y151711D01*
X38933Y151228D01*
X39536Y150626D01*
X40240Y150335D01*
X40283Y149941D01*
X40240Y149547D01*
X39536Y149256D01*
X38933Y148653D01*
X38733Y148170D01*
X38668Y148127D01*
X37917Y147967D01*
X37865Y147974D01*
X37550Y148289D01*
X36881Y148675D01*
X36134Y148875D01*
X35362D01*
X34615Y148675D01*
X33946Y148289D01*
X33400Y147743D01*
X33014Y147073D01*
X32814Y146327D01*
Y145555D01*
X33014Y144808D01*
X33400Y144139D01*
X33946Y143593D01*
X34615Y143207D01*
X35362Y143007D01*
X36134D01*
X36881Y143207D01*
X37550Y143593D01*
X38096Y144139D01*
X38482Y144808D01*
X38642Y145406D01*
X39085Y145625D01*
X39470Y145692D01*
X39536Y145626D01*
X40322Y145300D01*
X41041D01*
X41473Y144757D01*
X41535Y144644D01*
Y143939D01*
X41577Y143838D01*
X41194Y142871D01*
X41191Y142869D01*
X41191Y142869D01*
X39000D01*
X39000Y142869D01*
X38385Y142747D01*
X37864Y142399D01*
X37864Y142399D01*
X35445Y139980D01*
X33169D01*
X32785Y139903D01*
X32460Y139686D01*
X32242Y139360D01*
X32166Y138976D01*
Y137094D01*
X29801Y134730D01*
X29453Y134209D01*
X29331Y133594D01*
X29331Y133594D01*
Y123493D01*
X29154Y123374D01*
X28367Y123792D01*
Y128996D01*
X28287Y129395D01*
X28061Y129734D01*
X27722Y129960D01*
X27664Y129972D01*
X27573Y130055D01*
X27250Y130667D01*
X27231Y130827D01*
X27362Y131144D01*
Y131849D01*
X27092Y132500D01*
X26996Y132597D01*
Y139344D01*
X27092Y139441D01*
X27362Y140092D01*
Y140797D01*
X27092Y141448D01*
X26996Y141545D01*
Y154517D01*
X27600Y154921D01*
X28305D01*
X28956Y155191D01*
X29013Y155248D01*
X29528Y155635D01*
X30042Y155248D01*
D02*
G37*
G36*
X46555Y138976D02*
X46555D01*
Y137894D01*
X46309D01*
Y136614D01*
X45817D01*
Y136122D01*
X44488D01*
Y135138D01*
X45817D01*
Y134154D01*
X44488D01*
Y132893D01*
X42918D01*
X42865Y133157D01*
X42692Y133417D01*
X42683Y133439D01*
Y134277D01*
X42692Y134300D01*
X42865Y134559D01*
X42930Y134882D01*
Y135335D01*
X40945D01*
Y135827D01*
X40453D01*
Y137615D01*
X39803D01*
X39481Y137550D01*
X39207Y137368D01*
X39024Y137094D01*
X38960Y136772D01*
Y136027D01*
X38233Y135726D01*
X37716Y136242D01*
Y137709D01*
X39665Y139658D01*
X41555D01*
X41774Y139567D01*
X42478D01*
X42879Y139733D01*
X46481D01*
X46555Y138976D01*
D02*
G37*
G36*
X60599Y132855D02*
X57193Y129448D01*
X53369D01*
X52147Y130670D01*
X52448Y131398D01*
X53150D01*
Y132185D01*
X51821D01*
Y133169D01*
X53150D01*
Y133642D01*
X60273D01*
X60599Y132855D01*
D02*
G37*
G36*
X97224Y133247D02*
X97549Y133029D01*
X97933Y132953D01*
X101673D01*
X102057Y133029D01*
X102255Y133161D01*
X102757Y132550D01*
X91810Y121603D01*
X91593Y121278D01*
X91516Y120894D01*
Y119616D01*
X91369Y119457D01*
X90729Y119080D01*
X90551Y119116D01*
X90129Y119032D01*
X89567Y118856D01*
X89005Y119032D01*
X88583Y119116D01*
X88405Y119080D01*
X87765Y119457D01*
X87618Y119616D01*
Y120849D01*
X88346D01*
X88684Y120916D01*
X88971Y121108D01*
X89162Y121394D01*
X89230Y121732D01*
Y123937D01*
X89162Y124275D01*
X88971Y124562D01*
X88684Y124753D01*
X88346Y124820D01*
X85276D01*
X84938Y124753D01*
X84651Y124562D01*
X84460Y124275D01*
X84392Y123937D01*
Y121732D01*
X84460Y121394D01*
X84651Y121108D01*
X84938Y120916D01*
X85276Y120849D01*
X85611D01*
Y119616D01*
X85463Y119457D01*
X84823Y119080D01*
X84646Y119116D01*
X84223Y119032D01*
X83661Y118856D01*
X83100Y119032D01*
X82677Y119116D01*
X82255Y119032D01*
X81948Y118936D01*
X81332Y119485D01*
X81325Y119496D01*
Y120196D01*
X81056Y120847D01*
X80557Y121345D01*
X79906Y121615D01*
X79201D01*
X78756Y122283D01*
Y123445D01*
X78692Y123767D01*
X78519Y124027D01*
X78510Y124049D01*
Y124888D01*
X78519Y124910D01*
X78692Y125170D01*
X78756Y125492D01*
Y125945D01*
X76772D01*
Y126437D01*
D01*
Y125945D01*
X74787D01*
Y125492D01*
X74851Y125170D01*
X75025Y124910D01*
X75034Y124888D01*
Y124049D01*
X75025Y124027D01*
X74851Y123767D01*
X74787Y123445D01*
Y121555D01*
X74851Y121232D01*
X75034Y120959D01*
X75195Y120851D01*
X75198Y120830D01*
X74928Y120179D01*
Y119882D01*
X74851Y119412D01*
X74381Y119032D01*
X73819Y118856D01*
X73257Y119032D01*
X72835Y119116D01*
X72412Y119032D01*
X71850Y118856D01*
X71358Y119010D01*
Y116142D01*
Y113274D01*
X71850Y113427D01*
X72412Y113252D01*
X72441Y113246D01*
X76674Y109013D01*
Y109013D01*
X76943Y108362D01*
X77442Y107863D01*
X78093Y107594D01*
X78798D01*
X78955Y107659D01*
X79028Y107624D01*
X79487Y107022D01*
X79217Y106371D01*
Y105666D01*
X79487Y105015D01*
X79985Y104517D01*
X80637Y104247D01*
X81341D01*
X81993Y104517D01*
X82491Y105015D01*
X82761Y105666D01*
Y106371D01*
X82491Y107022D01*
X81993Y107521D01*
X81750Y107621D01*
Y108522D01*
X82522Y109055D01*
X83226D01*
X83878Y109325D01*
X84376Y109823D01*
X84646Y110474D01*
Y111179D01*
X84376Y111830D01*
X84195Y112011D01*
X84220Y112165D01*
X85061Y112437D01*
X88172Y109326D01*
X87987Y108398D01*
X87973Y108392D01*
X87475Y107893D01*
X87205Y107242D01*
Y106537D01*
X87475Y105886D01*
X87973Y105388D01*
X88624Y105118D01*
X88691D01*
X89370Y104569D01*
X89444Y104391D01*
X89640Y103918D01*
X90138Y103419D01*
X90789Y103150D01*
X91494D01*
X92145Y103419D01*
X92644Y103918D01*
X92913Y104569D01*
Y105274D01*
X92644Y105925D01*
X92145Y106423D01*
X91494Y106693D01*
X91427D01*
X91138Y106927D01*
X91120Y106969D01*
X91645Y107756D01*
X102666D01*
X103050Y107833D01*
X103493Y107577D01*
X103585Y107283D01*
X103409Y106722D01*
X103325Y106299D01*
X103409Y105877D01*
X103585Y105315D01*
X103409Y104753D01*
X103325Y104331D01*
X103409Y103908D01*
X103649Y103550D01*
Y103143D01*
X103409Y102785D01*
X103325Y102362D01*
X103409Y101940D01*
X103585Y101378D01*
X103409Y100816D01*
X103325Y100394D01*
X103409Y99971D01*
X103649Y99613D01*
Y99206D01*
X103409Y98848D01*
X103325Y98425D01*
X103409Y98003D01*
X103585Y97441D01*
X103409Y96879D01*
X103325Y96457D01*
X103409Y96034D01*
X103649Y95676D01*
Y95269D01*
X103409Y94911D01*
X103325Y94488D01*
X103409Y94066D01*
X103649Y93708D01*
Y93300D01*
X103409Y92942D01*
X103325Y92520D01*
X103409Y92097D01*
X103585Y91535D01*
X103409Y90974D01*
X103325Y90551D01*
X103361Y90374D01*
X102984Y89734D01*
X102825Y89586D01*
X94218D01*
X94218Y89586D01*
X93720Y90085D01*
X93069Y90354D01*
X92364D01*
X91713Y90085D01*
X91215Y89586D01*
X90945Y88935D01*
Y88413D01*
X90904Y88386D01*
X90199D01*
X89548Y88116D01*
X89049Y87618D01*
X88779Y86967D01*
Y86262D01*
X89049Y85611D01*
X89548Y85112D01*
X90199Y84842D01*
X90904D01*
X91555Y85112D01*
X91955Y85512D01*
X97759D01*
X98143Y85589D01*
X98176Y85611D01*
X102825D01*
X102984Y85463D01*
X103361Y84823D01*
X103325Y84646D01*
X103409Y84223D01*
X103585Y83661D01*
X103409Y83100D01*
X103325Y82677D01*
X103409Y82255D01*
X103585Y81693D01*
X103409Y81131D01*
X103325Y80709D01*
X103409Y80286D01*
X103649Y79928D01*
Y79521D01*
X103409Y79163D01*
X103325Y78740D01*
X103409Y78318D01*
X103649Y77960D01*
X104007Y77720D01*
X104429Y77636D01*
X107854D01*
X108661Y76829D01*
Y76616D01*
X108931Y75965D01*
X109430Y75467D01*
X110081Y75197D01*
X110785D01*
X111437Y75467D01*
X111935Y75965D01*
X112205Y76616D01*
Y77321D01*
X112034Y77733D01*
X112081Y77851D01*
X112188Y77975D01*
X112709Y78394D01*
X113031Y78330D01*
X114921D01*
X115244Y78394D01*
X115504Y78568D01*
X115526Y78577D01*
X115565D01*
X116095Y77965D01*
X116142Y77850D01*
Y77207D01*
X116411Y76556D01*
X116910Y76057D01*
X117561Y75787D01*
X118266D01*
X118917Y76057D01*
X119415Y76556D01*
X119685Y77207D01*
Y77912D01*
X119419Y78554D01*
X119454Y78577D01*
X119637Y78851D01*
X119701Y79173D01*
Y80897D01*
X120489Y80975D01*
X120523Y80804D01*
X120714Y80517D01*
X121001Y80326D01*
X121339Y80259D01*
X123543D01*
X123881Y80326D01*
X124168Y80517D01*
X124359Y80804D01*
X124426Y81142D01*
Y84213D01*
X124359Y84550D01*
X124168Y84837D01*
X123881Y85028D01*
X123543Y85096D01*
X121339D01*
X121001Y85028D01*
X120714Y84837D01*
X120523Y84550D01*
X120489Y84379D01*
X119701Y84457D01*
Y86575D01*
X119637Y86897D01*
X119454Y87171D01*
X119419Y87194D01*
X119685Y87837D01*
Y88541D01*
X119532Y88911D01*
X119893Y89611D01*
X119993Y89698D01*
X156765D01*
X157091Y89763D01*
X157368Y89948D01*
X162855Y95435D01*
X163777Y95243D01*
X163852Y95060D01*
X163909Y95003D01*
X164296Y94488D01*
X163909Y93974D01*
X163852Y93917D01*
X163583Y93266D01*
Y92561D01*
X163852Y91910D01*
X163909Y91853D01*
X164296Y91339D01*
X163909Y90824D01*
X163852Y90767D01*
X163583Y90116D01*
Y89411D01*
X163852Y88760D01*
X163909Y88703D01*
X164296Y88189D01*
X163909Y87675D01*
X163852Y87618D01*
X163583Y86967D01*
Y86262D01*
X163852Y85611D01*
X163909Y85554D01*
X164296Y85039D01*
X163909Y84525D01*
X163852Y84468D01*
X163793Y84325D01*
X162952Y84198D01*
X162898Y84222D01*
X162637Y84396D01*
X162284Y84467D01*
X159154D01*
Y82284D01*
Y80100D01*
X162284D01*
X162637Y80171D01*
X162795Y80277D01*
X163374Y80094D01*
X163583Y79963D01*
X163852Y79311D01*
X163909Y79255D01*
X164296Y78740D01*
X163909Y78226D01*
X163852Y78169D01*
X163583Y77518D01*
Y76813D01*
X163852Y76162D01*
X163909Y76105D01*
X164296Y75591D01*
X163909Y75076D01*
X163852Y75019D01*
X163583Y74368D01*
Y73663D01*
X163852Y73012D01*
X163909Y72955D01*
X164296Y72441D01*
X163909Y71927D01*
X163852Y71870D01*
X163583Y71219D01*
Y70514D01*
X163852Y69863D01*
X163909Y69806D01*
X164296Y69291D01*
X163909Y68777D01*
X163852Y68720D01*
X163583Y68069D01*
Y67364D01*
X163852Y66713D01*
X163909Y66656D01*
X164296Y66142D01*
X163909Y65627D01*
X163852Y65570D01*
X163583Y64919D01*
Y64214D01*
X163852Y63563D01*
X163909Y63507D01*
X164296Y62992D01*
X163909Y62478D01*
X163852Y62421D01*
X163583Y61770D01*
Y61065D01*
X163852Y60414D01*
X163909Y60357D01*
X164296Y59842D01*
X163909Y59328D01*
X163852Y59271D01*
X163583Y58620D01*
Y57915D01*
X163852Y57264D01*
X163909Y57207D01*
X164296Y56693D01*
X163909Y56178D01*
X163852Y56122D01*
X163583Y55471D01*
Y54766D01*
X163852Y54115D01*
X163909Y54058D01*
X164296Y53543D01*
X163909Y53029D01*
X163852Y52972D01*
X163583Y52321D01*
Y51616D01*
X163852Y50965D01*
X163909Y50908D01*
X164296Y50394D01*
X163909Y49879D01*
X163852Y49823D01*
X163583Y49171D01*
Y48467D01*
X163852Y47815D01*
X163909Y47758D01*
X164296Y47244D01*
X163909Y46730D01*
X163852Y46673D01*
X163583Y46022D01*
Y45317D01*
X163852Y44666D01*
X163909Y44609D01*
X164296Y44094D01*
X163909Y43580D01*
X163852Y43523D01*
X163583Y42872D01*
Y42167D01*
X163852Y41516D01*
X163909Y41459D01*
X164296Y40945D01*
X163909Y40431D01*
X163852Y40374D01*
X163583Y39722D01*
Y39018D01*
X163852Y38366D01*
X164351Y37868D01*
X165002Y37598D01*
X165707D01*
X165748Y37615D01*
X166535Y37089D01*
Y15273D01*
X165748Y14747D01*
X165707Y14764D01*
X165357D01*
X165347Y14773D01*
X164892Y15078D01*
X164354Y15184D01*
X159646D01*
X159646Y15184D01*
X157931D01*
X157840Y15321D01*
X157567Y15503D01*
X157244Y15567D01*
X154961D01*
X154638Y15503D01*
X154365Y15321D01*
X154274Y15184D01*
X153403D01*
X153313Y15321D01*
X153039Y15503D01*
X152717Y15567D01*
X151774D01*
X150067Y17274D01*
X149611Y17579D01*
X149074Y17685D01*
X131284D01*
X130746Y17579D01*
X130290Y17274D01*
X129974Y16958D01*
X123809D01*
X121269Y19497D01*
X120813Y19802D01*
X120276Y19909D01*
X98819D01*
X98281Y19802D01*
X97825Y19497D01*
X92725Y14397D01*
X64473D01*
X64100Y15138D01*
X64370Y15789D01*
Y16494D01*
X64100Y17145D01*
X63602Y17644D01*
X63602Y17644D01*
Y23228D01*
X63526Y23612D01*
X63308Y23938D01*
X61863Y25383D01*
Y26191D01*
X63605Y27933D01*
X71653D01*
X72038Y28010D01*
X72363Y28227D01*
X78465Y34330D01*
X78683Y34655D01*
X78759Y35039D01*
Y36913D01*
X79508Y37278D01*
X80159Y37008D01*
X80864D01*
X80974Y36941D01*
X81235Y36550D01*
X81626Y36289D01*
X82087Y36197D01*
X85236D01*
X85697Y36289D01*
X86088Y36550D01*
X86349Y36941D01*
X86440Y37402D01*
X86349Y37862D01*
X86097Y38240D01*
X86088Y38253D01*
Y39109D01*
X86097Y39122D01*
X86349Y39500D01*
X86440Y39961D01*
X86349Y40422D01*
X86097Y40799D01*
X86088Y40812D01*
Y41668D01*
X86097Y41681D01*
X86349Y42059D01*
X86440Y42520D01*
X86349Y42981D01*
X86097Y43358D01*
X86088Y43371D01*
Y44227D01*
X86097Y44240D01*
X86349Y44618D01*
X86440Y45079D01*
X86349Y45540D01*
X86097Y45917D01*
X86088Y45930D01*
Y46786D01*
X86097Y46799D01*
X86349Y47177D01*
X86440Y47638D01*
X86349Y48099D01*
X86097Y48476D01*
X86088Y48489D01*
Y49345D01*
X86097Y49358D01*
X86349Y49736D01*
X86440Y50197D01*
X86349Y50658D01*
X86097Y51035D01*
X86088Y51049D01*
Y51904D01*
X86097Y51917D01*
X86349Y52295D01*
X86440Y52756D01*
X86349Y53217D01*
X86088Y53607D01*
X85697Y53868D01*
X85236Y53960D01*
X82087D01*
X81626Y53868D01*
X81529Y53898D01*
X81423Y54153D01*
X80925Y54651D01*
X80817Y55549D01*
X81025Y55757D01*
X81242Y56082D01*
X81318Y56466D01*
Y59242D01*
X82106Y59736D01*
X82325Y59646D01*
X83030D01*
X83681Y59915D01*
X84179Y60414D01*
X84449Y61065D01*
Y61770D01*
X84179Y62421D01*
X84665Y62868D01*
X85163Y63367D01*
X85433Y64018D01*
Y64723D01*
X85308Y65024D01*
X85355Y65071D01*
X85573Y65396D01*
X85649Y65781D01*
Y67392D01*
X85797Y67551D01*
X86437Y67927D01*
X86614Y67892D01*
X87037Y67976D01*
X87598Y68152D01*
X88160Y67976D01*
X88583Y67892D01*
X89059Y67252D01*
X89050Y67178D01*
X88962Y66934D01*
X88935Y66895D01*
X88367Y66659D01*
X87868Y66161D01*
X87598Y65510D01*
Y64805D01*
X87868Y64154D01*
X88367Y63656D01*
X89018Y63386D01*
X89723D01*
X90141Y63559D01*
X90769Y63258D01*
X90929Y63098D01*
Y63032D01*
X90993Y62709D01*
X91166Y62449D01*
X91176Y62427D01*
Y61589D01*
X91166Y61567D01*
X90993Y61307D01*
X90929Y60984D01*
Y59095D01*
X90993Y58772D01*
X91176Y58498D01*
X91406Y58345D01*
X91412Y58287D01*
X91142Y57636D01*
Y56931D01*
X91412Y56280D01*
X91910Y55782D01*
X92561Y55512D01*
X93266D01*
X93917Y55782D01*
X94415Y56280D01*
X94685Y56931D01*
Y57636D01*
X94568Y57919D01*
X95074Y58603D01*
X95836Y58594D01*
X95900Y58498D01*
X96174Y58316D01*
X96496Y58252D01*
X98779D01*
X99102Y58316D01*
X99376Y58498D01*
X99558Y58772D01*
X99622Y59095D01*
X100378D01*
X100442Y58772D01*
X100624Y58498D01*
X100898Y58316D01*
X101221Y58252D01*
X101870D01*
Y60039D01*
X102362D01*
Y60532D01*
X104347D01*
Y60984D01*
X104283Y61307D01*
X104109Y61567D01*
X104100Y61589D01*
Y62427D01*
X104109Y62449D01*
X104283Y62709D01*
X104347Y63032D01*
Y63310D01*
X105134Y63731D01*
X105154Y63718D01*
Y63032D01*
X105218Y62709D01*
X105392Y62449D01*
X105401Y62427D01*
Y61589D01*
X105392Y61567D01*
X105218Y61307D01*
X105154Y60984D01*
Y60532D01*
X107139D01*
X109123D01*
Y60984D01*
X109059Y61307D01*
X108886Y61567D01*
X108877Y61589D01*
Y61688D01*
X109664Y62214D01*
X109687Y62205D01*
X110392D01*
X111043Y62475D01*
X111541Y62973D01*
X111811Y63624D01*
Y64329D01*
X111541Y64980D01*
X111043Y65478D01*
X110392Y65748D01*
X109687D01*
X109036Y65478D01*
X108893Y65492D01*
X108877Y65517D01*
X108603Y65700D01*
X108280Y65764D01*
X106770D01*
X104108Y68426D01*
X103783Y68644D01*
X103399Y68720D01*
X101580D01*
X101533Y69488D01*
X102185Y69758D01*
X102683Y70256D01*
X102953Y70907D01*
Y71612D01*
X102683Y72263D01*
X102185Y72762D01*
X101533Y73032D01*
X100829D01*
X100287Y72807D01*
X100283Y72807D01*
X99779Y72971D01*
X99448Y73146D01*
X99445Y73159D01*
X99206Y73517D01*
X98848Y73756D01*
X98425Y73840D01*
X98008Y73757D01*
X97990Y73771D01*
X97481Y74354D01*
X97608Y74545D01*
X97685Y74929D01*
Y75482D01*
X97986Y75607D01*
X98484Y76106D01*
X98754Y76757D01*
Y77462D01*
X98484Y78113D01*
X97986Y78611D01*
X97335Y78881D01*
X96630D01*
X95979Y78611D01*
X95158Y78904D01*
X94966Y79096D01*
X94315Y79366D01*
X93610D01*
X92959Y79096D01*
X92460Y78598D01*
X92191Y77946D01*
Y77242D01*
X92460Y76591D01*
X92959Y76092D01*
X93189Y75997D01*
Y74825D01*
X92126Y73762D01*
X92097Y73756D01*
X91739Y73517D01*
X91332D01*
X90974Y73756D01*
X90795Y74090D01*
X90945Y74451D01*
Y75156D01*
X90675Y75807D01*
X90177Y76305D01*
X89526Y76575D01*
X88821D01*
X88170Y76305D01*
X87671Y75807D01*
X87027Y76108D01*
X86376Y76378D01*
X85671D01*
X85020Y76108D01*
X84522Y75610D01*
X84252Y74959D01*
Y74254D01*
X83729Y73602D01*
X83661Y73580D01*
X83100Y73756D01*
X82677Y73840D01*
X82255Y73756D01*
X81897Y73517D01*
X81489D01*
X81131Y73756D01*
X80709Y73840D01*
X80286Y73756D01*
X80062Y73686D01*
X79459Y74147D01*
X79527Y74313D01*
Y75017D01*
X79258Y75669D01*
X78759Y76167D01*
X78108Y76437D01*
X77403D01*
X76752Y76167D01*
X76254Y75669D01*
X75984Y75017D01*
Y74313D01*
X76053Y74147D01*
X75450Y73686D01*
X75226Y73756D01*
X74803Y73840D01*
X74381Y73756D01*
X73819Y73580D01*
X73257Y73756D01*
X72835Y73840D01*
X72412Y73756D01*
X72054Y73517D01*
X71647D01*
X71358Y73709D01*
Y70866D01*
X70374D01*
Y73734D01*
X69882Y73580D01*
X69320Y73756D01*
X68898Y73840D01*
X68475Y73756D01*
X68117Y73517D01*
X67878Y73159D01*
X67794Y72736D01*
Y69867D01*
X67018Y69336D01*
X66888Y69390D01*
X66183D01*
X65532Y69120D01*
X65034Y68622D01*
X64764Y67971D01*
Y67266D01*
X65034Y66615D01*
X65532Y66116D01*
X66183Y65847D01*
X66888D01*
X67307Y66020D01*
X67935Y65719D01*
X68094Y65559D01*
Y65453D01*
X69882D01*
Y64961D01*
X70374D01*
Y62976D01*
X70827D01*
X71149Y63040D01*
X71260Y63114D01*
X71898Y62898D01*
X72070Y62781D01*
X72317Y62185D01*
X72815Y61687D01*
X73466Y61417D01*
X74171D01*
X74882Y60860D01*
Y59799D01*
X74533Y59449D01*
X74254D01*
X73603Y59179D01*
X73104Y58681D01*
X72835Y58030D01*
Y57325D01*
X73104Y56674D01*
X73603Y56175D01*
X73793Y56096D01*
X73988Y55178D01*
X73798Y54988D01*
X73581Y54662D01*
X73504Y54278D01*
Y52540D01*
X73161Y52197D01*
X72514D01*
X71863Y51927D01*
X71422Y51486D01*
X71016Y51892D01*
X70365Y52162D01*
X69660D01*
X69009Y51892D01*
X68510Y51394D01*
X68241Y50743D01*
Y50038D01*
X68510Y49387D01*
X69009Y48888D01*
X69660Y48619D01*
X70331D01*
X71301Y47649D01*
X71626Y47431D01*
X72010Y47355D01*
X72080D01*
X72382Y46628D01*
X70157Y44402D01*
X69939Y44077D01*
X69863Y43693D01*
Y41659D01*
X69863Y41659D01*
X69364Y41161D01*
X69311Y41032D01*
X68523Y41188D01*
Y45472D01*
X68447Y45856D01*
X68229Y46182D01*
X66064Y48347D01*
X65738Y48565D01*
X65354Y48641D01*
X64406D01*
X64321Y48874D01*
X64275Y49429D01*
X64475Y49563D01*
X65343Y50430D01*
X65503Y50670D01*
X65525D01*
X66176Y50940D01*
X66675Y51438D01*
X66944Y52089D01*
Y52794D01*
X66675Y53445D01*
X66176Y53944D01*
X65525Y54213D01*
X64820D01*
X64169Y53944D01*
X63882Y53657D01*
X63745Y53684D01*
X63532D01*
X63256Y53868D01*
X62795Y53960D01*
X59646D01*
X59185Y53868D01*
X58794Y53607D01*
X58135D01*
X57744Y53868D01*
X57284Y53960D01*
X54134D01*
X53673Y53868D01*
X53576Y53898D01*
X53470Y54153D01*
X52972Y54651D01*
X52321Y54921D01*
X51616D01*
X50965Y54651D01*
X50467Y54153D01*
X50197Y53502D01*
Y52797D01*
X50467Y52146D01*
X50965Y51648D01*
X51514Y51420D01*
X51560Y51351D01*
X52983Y49929D01*
X53021Y49736D01*
X53176Y49504D01*
X52988Y48938D01*
X52828Y48717D01*
X50469D01*
X50085Y48640D01*
X49759Y48423D01*
X47657Y46320D01*
X47118Y46454D01*
X46870Y46623D01*
Y48039D01*
X48938Y50108D01*
X49156Y50433D01*
X49232Y50817D01*
Y59427D01*
X69078Y79273D01*
X69296Y79599D01*
X69372Y79983D01*
Y92615D01*
X69296Y92999D01*
X69078Y93324D01*
X66909Y95493D01*
X66584Y95711D01*
X66200Y95787D01*
X64623D01*
X63998Y96457D01*
X63962Y96634D01*
X64339Y97274D01*
X64498Y97422D01*
X70185D01*
X70349Y97028D01*
X70847Y96530D01*
X71498Y96260D01*
X72203D01*
X72854Y96530D01*
X73352Y97028D01*
X73622Y97679D01*
Y98384D01*
X73352Y99035D01*
X72929Y99459D01*
X73352Y99882D01*
X73622Y100533D01*
Y101238D01*
X73352Y101889D01*
X72854Y102388D01*
X72203Y102657D01*
X71498D01*
X70847Y102388D01*
X70349Y101889D01*
X70145Y101397D01*
X65753D01*
X65707Y102165D01*
X66358Y102435D01*
X66856Y102933D01*
X67126Y103585D01*
Y104289D01*
X66856Y104941D01*
X66358Y105439D01*
X65707Y105709D01*
X65002D01*
X65002Y105709D01*
X63972Y106739D01*
X63746Y107308D01*
X63914Y107845D01*
X63998Y108268D01*
X63914Y108690D01*
X63674Y109048D01*
X63316Y109288D01*
X62894Y109372D01*
X62027D01*
Y128330D01*
X62437Y128740D01*
X62951D01*
X63602Y129010D01*
X64100Y129508D01*
X64370Y130159D01*
Y130864D01*
X64928Y131575D01*
X75886D01*
X76270Y131652D01*
X76595Y131869D01*
X78664Y133937D01*
X84678D01*
X85236Y133226D01*
Y132522D01*
X85506Y131870D01*
X85384Y131474D01*
X85165Y131097D01*
X84938Y131052D01*
X84651Y130861D01*
X84460Y130574D01*
X84392Y130236D01*
Y128032D01*
X84460Y127693D01*
X84651Y127407D01*
X84938Y127216D01*
X85276Y127148D01*
X88346D01*
X88684Y127216D01*
X88971Y127407D01*
X89162Y127693D01*
X89230Y128032D01*
Y130236D01*
X89162Y130574D01*
X88971Y130861D01*
X88757Y131004D01*
X88663Y131155D01*
X88510Y131870D01*
X88779Y132522D01*
Y133226D01*
X89337Y133937D01*
X96533D01*
X97224Y133247D01*
D02*
G37*
G36*
X149299Y131300D02*
Y129834D01*
X149372Y129466D01*
X149581Y129153D01*
X149894Y128945D01*
X150262Y128871D01*
X151055D01*
X151154Y128784D01*
X151516Y128084D01*
X151363Y127715D01*
Y127010D01*
X151633Y126359D01*
X152131Y125860D01*
X152782Y125591D01*
X153487D01*
X154139Y125860D01*
X154637Y126359D01*
X154637Y126359D01*
X158551D01*
Y126094D01*
X158624Y125726D01*
X158833Y125413D01*
X159146Y125204D01*
X159514Y125131D01*
X162546D01*
X162914Y125204D01*
X163391Y124888D01*
X163583Y124704D01*
Y124057D01*
X163627Y123950D01*
X162936Y123566D01*
X162637Y123766D01*
X162284Y123837D01*
X155039D01*
X154686Y123766D01*
X154387Y123566D01*
X153963Y123356D01*
X153496Y123543D01*
X153305Y123622D01*
X152600D01*
X151949Y123352D01*
X151451Y122854D01*
X151181Y122203D01*
Y121498D01*
X151451Y120847D01*
X151949Y120349D01*
X152600Y120079D01*
X153305D01*
X153371Y120106D01*
X154186Y120040D01*
X154387Y119741D01*
X154686Y119541D01*
X155039Y119471D01*
X162284D01*
X162637Y119541D01*
X162936Y119741D01*
X162953Y119766D01*
X163814Y119821D01*
X164074Y119390D01*
X163909Y119171D01*
X163852Y119114D01*
X163583Y118463D01*
Y117758D01*
X163852Y117107D01*
X163909Y117050D01*
X164296Y116535D01*
X163909Y116021D01*
X163852Y115964D01*
X163583Y115313D01*
Y114608D01*
X163852Y113957D01*
X163909Y113900D01*
X164296Y113386D01*
X163909Y112872D01*
X163852Y112815D01*
X163583Y112163D01*
Y111459D01*
X163852Y110808D01*
X163909Y110751D01*
X164261Y110283D01*
X163833Y109665D01*
X153740D01*
X153356Y109589D01*
X153031Y109371D01*
X141120Y97460D01*
X130930D01*
X130800Y97550D01*
X130349Y98248D01*
X130353Y98268D01*
Y99114D01*
X125789D01*
Y98268D01*
X125308Y97664D01*
X124961Y97601D01*
X124613Y97664D01*
X124132Y98268D01*
Y100945D01*
X124060Y101306D01*
X123856Y101612D01*
X123550Y101816D01*
X123189Y101888D01*
X120512D01*
X120151Y101816D01*
X120078Y101768D01*
X119875Y101791D01*
X119609Y102555D01*
X119629Y102659D01*
X139173Y122203D01*
X139961Y121877D01*
Y121498D01*
X140230Y120847D01*
X140729Y120349D01*
X141380Y120079D01*
X142085D01*
X142736Y120349D01*
X143234Y120847D01*
X143504Y121498D01*
Y122203D01*
X143234Y122854D01*
X142736Y123352D01*
X142085Y123622D01*
X141706D01*
X141380Y124409D01*
X148572Y131601D01*
X149299Y131300D01*
D02*
G37*
G36*
X24104Y144762D02*
X24186Y144691D01*
Y141545D01*
X24089Y141448D01*
X23819Y140797D01*
Y140092D01*
X24089Y139441D01*
X24186Y139344D01*
Y132597D01*
X24089Y132500D01*
X23819Y131849D01*
Y131144D01*
X23950Y130827D01*
X23931Y130668D01*
X23608Y130055D01*
X23517Y129972D01*
X23459Y129960D01*
X23120Y129734D01*
X22894Y129395D01*
X22815Y128996D01*
Y121398D01*
X22565Y121094D01*
X20842D01*
X19311Y122625D01*
Y128996D01*
X19232Y129395D01*
X19006Y129734D01*
X18667Y129960D01*
X18268Y130040D01*
X18141D01*
Y144755D01*
X22579D01*
X23139Y144867D01*
X23398Y145040D01*
X24104Y144762D01*
D02*
G37*
G36*
X1004Y154056D02*
X984Y153984D01*
Y153103D01*
X1212Y152252D01*
X1653Y151489D01*
X2276Y150865D01*
X3039Y150425D01*
X3890Y150197D01*
X4771D01*
X5622Y150425D01*
X5656Y150444D01*
X5866Y150402D01*
X9027D01*
Y146221D01*
X9138Y145660D01*
X9456Y145185D01*
X9932Y144867D01*
X10492Y144755D01*
X14930D01*
Y130040D01*
X14803D01*
X14404Y129960D01*
X14065Y129734D01*
X13839Y129395D01*
X13759Y128996D01*
Y126979D01*
X13649Y126913D01*
X12972Y126738D01*
X12618Y127093D01*
X11967Y127362D01*
X11262D01*
X11044Y127272D01*
X10256Y127767D01*
Y128996D01*
X10177Y129395D01*
X9951Y129734D01*
X9612Y129960D01*
X9213Y130040D01*
X7972D01*
Y125197D01*
Y120354D01*
X9213D01*
X9612Y120433D01*
X9951Y120660D01*
X10177Y120998D01*
X10256Y121398D01*
Y123414D01*
X11044Y123909D01*
X11262Y123819D01*
X11967D01*
X12618Y124089D01*
X12972Y124443D01*
X13649Y124268D01*
X13759Y124202D01*
Y122625D01*
X9498Y118364D01*
X6323D01*
X5709Y118939D01*
Y119604D01*
X5711Y119647D01*
X6267Y120354D01*
X6988D01*
Y124705D01*
X4704D01*
Y121743D01*
X4413Y121265D01*
X3968Y121063D01*
X3585D01*
X2933Y120793D01*
X2435Y120295D01*
X2165Y119644D01*
Y118939D01*
X2435Y118288D01*
X2399Y117923D01*
X2266Y117834D01*
X1875Y117248D01*
X1737Y116557D01*
X1875Y115866D01*
X2266Y115280D01*
X2853Y114888D01*
X3544Y114751D01*
X9843D01*
X10534Y114888D01*
X11120Y115280D01*
X11450Y115774D01*
X16030Y120354D01*
X17041D01*
X19042Y118353D01*
X19563Y118005D01*
X20177Y117883D01*
X20177Y117883D01*
X20249D01*
X20454Y117635D01*
X20742Y117095D01*
X20635Y116557D01*
X20773Y115866D01*
X21164Y115280D01*
X21750Y114888D01*
X22441Y114751D01*
X27860D01*
X27974Y114581D01*
Y113876D01*
X27631Y113364D01*
X22441D01*
X21750Y113226D01*
X21398Y112991D01*
X21208D01*
X21082Y113116D01*
X20431Y113386D01*
X19726D01*
X19075Y113116D01*
X18577Y112618D01*
X18307Y111967D01*
Y111262D01*
X18577Y110611D01*
X19075Y110112D01*
X19726Y109843D01*
X20431D01*
X21082Y110112D01*
X21151Y110181D01*
X21313D01*
X21750Y109888D01*
X22441Y109751D01*
X28741D01*
X29432Y109888D01*
X30018Y110280D01*
X30409Y110866D01*
X30547Y111557D01*
X30409Y112249D01*
X30527Y112635D01*
X30749Y112727D01*
X31247Y113225D01*
X31517Y113876D01*
Y114581D01*
X31247Y115232D01*
X30749Y115731D01*
X30427Y115864D01*
X30412Y115879D01*
X30547Y116557D01*
X30409Y117248D01*
X30018Y117834D01*
X29914Y117904D01*
X29792Y118896D01*
X32072Y121176D01*
X32072Y121176D01*
X32420Y121697D01*
X32487Y122032D01*
X33252Y122087D01*
X33316Y121764D01*
X33498Y121491D01*
X33772Y121308D01*
X34095Y121244D01*
X35984D01*
X36307Y121308D01*
X36567Y121481D01*
X36589Y121491D01*
X37427D01*
X37449Y121481D01*
X37709Y121308D01*
X38032Y121244D01*
X38484D01*
Y123228D01*
Y125213D01*
X38032D01*
X37709Y125149D01*
X37449Y124975D01*
X37427Y124966D01*
X36733D01*
X36043Y125527D01*
Y128130D01*
X36713D01*
X37097Y128207D01*
X37422Y128424D01*
X37640Y128750D01*
X37716Y129134D01*
Y132283D01*
X37714Y132292D01*
X38440Y132680D01*
X38960Y132160D01*
Y130945D01*
X39024Y130622D01*
X39207Y130349D01*
X39481Y130166D01*
X39803Y130102D01*
X40657D01*
X40817Y129942D01*
X41118Y129315D01*
X40945Y128896D01*
Y128191D01*
X41215Y127540D01*
X41713Y127041D01*
X42364Y126772D01*
X43069D01*
X43069Y126772D01*
X48800Y121041D01*
Y118274D01*
X48089Y117717D01*
X47384D01*
X46990Y118101D01*
X46773Y118426D01*
X46447Y118644D01*
X46063Y118720D01*
X42913D01*
X42529Y118644D01*
X42204Y118426D01*
X41986Y118101D01*
X41199Y118110D01*
X40494D01*
X40373Y118060D01*
X40297Y118101D01*
X40080Y118426D01*
X39754Y118644D01*
X39370Y118720D01*
X36220D01*
X35836Y118644D01*
X35511Y118426D01*
X35293Y118101D01*
X35217Y117717D01*
Y114173D01*
X35293Y113789D01*
X35511Y113464D01*
X35836Y113246D01*
X36220Y113170D01*
X39370D01*
X39754Y113246D01*
X40080Y113464D01*
X40297Y113789D01*
X40307Y113839D01*
X40445Y114376D01*
X41231Y114549D01*
X41438Y114435D01*
X41940Y114022D01*
X41986Y113789D01*
X42204Y113464D01*
X42529Y113246D01*
X42913Y113170D01*
X46063D01*
X46447Y113246D01*
X46773Y113464D01*
X46990Y113789D01*
X47384Y114173D01*
X48089D01*
X48800Y113616D01*
Y110531D01*
X48869Y110185D01*
X48763Y110027D01*
X48322Y109559D01*
X48087Y109656D01*
X47383D01*
X47348Y109642D01*
X46990Y109833D01*
X46773Y110158D01*
X46447Y110376D01*
X46063Y110452D01*
X42913D01*
X42529Y110376D01*
X42204Y110158D01*
X41986Y109833D01*
X41199Y109646D01*
X40494D01*
X40315Y109741D01*
X40297Y109833D01*
X40080Y110158D01*
X39754Y110376D01*
X39370Y110452D01*
X36220D01*
X35836Y110376D01*
X35511Y110158D01*
X35293Y109833D01*
X35217Y109449D01*
Y105905D01*
X35293Y105522D01*
X35511Y105196D01*
X35836Y104978D01*
X36220Y104902D01*
X39370D01*
X39754Y104978D01*
X40080Y105196D01*
X40297Y105522D01*
X40455Y105987D01*
X41224Y106095D01*
X41976Y105572D01*
X41986Y105522D01*
X42204Y105196D01*
X42529Y104978D01*
X42913Y104902D01*
X46063D01*
X46447Y104978D01*
X46773Y105196D01*
X46990Y105522D01*
X47383Y106113D01*
X48087D01*
X48739Y106383D01*
X49237Y106881D01*
X49507Y107532D01*
Y108237D01*
X49466Y108336D01*
X50133Y108782D01*
X51460Y107455D01*
Y106142D01*
X51524Y105819D01*
X51707Y105546D01*
X51981Y105363D01*
X52303Y105299D01*
X54587D01*
X54724Y105326D01*
X55306Y105005D01*
X55512Y104819D01*
Y104766D01*
X55782Y104115D01*
X56254Y103642D01*
X55782Y103169D01*
X55512Y102518D01*
Y101813D01*
X55782Y101162D01*
X56280Y100663D01*
X56931Y100394D01*
X57308D01*
X57636Y100394D01*
X58134Y99971D01*
X58309Y99409D01*
X58134Y98848D01*
X57727Y98342D01*
X57286Y98228D01*
X56931D01*
X56280Y97959D01*
X55782Y97460D01*
X55512Y96809D01*
Y96104D01*
X55782Y95453D01*
X56280Y94955D01*
X56931Y94685D01*
X57286D01*
X57727Y94571D01*
X58134Y94066D01*
X58309Y93504D01*
X58134Y92942D01*
X58050Y92520D01*
X58134Y92097D01*
X58309Y91535D01*
X58134Y90974D01*
X58050Y90551D01*
X58134Y90129D01*
X58309Y89567D01*
X58134Y89005D01*
X58119Y88933D01*
X57833Y88779D01*
X57128D01*
X56842Y89063D01*
X56659Y89336D01*
X56386Y89519D01*
X56063Y89583D01*
X53780D01*
X53457Y89519D01*
X53184Y89336D01*
X53090Y89197D01*
X52683Y89126D01*
X52632D01*
X52225Y89197D01*
X52131Y89336D01*
X51858Y89519D01*
X51535Y89583D01*
X50886D01*
Y87795D01*
X50394D01*
Y87303D01*
X48409D01*
Y86850D01*
X48473Y86528D01*
X48647Y86268D01*
X48656Y86246D01*
Y85552D01*
X48095Y84862D01*
X46654D01*
Y88189D01*
X43186D01*
X43019Y88365D01*
X42733Y88976D01*
X42913Y89411D01*
Y89548D01*
X43129Y89764D01*
X46654D01*
Y94882D01*
X41142D01*
Y91751D01*
X40927Y91535D01*
X40789D01*
X40138Y91266D01*
X39640Y90767D01*
X39370Y90116D01*
Y89411D01*
X39640Y88760D01*
X40138Y88262D01*
X40789Y87992D01*
X41142D01*
Y83071D01*
X40509Y82696D01*
X36935D01*
X36935Y82696D01*
X36437Y83195D01*
X35785Y83465D01*
X35081D01*
X34429Y83195D01*
X33931Y82696D01*
X33661Y82045D01*
Y81340D01*
X33931Y80689D01*
X34429Y80191D01*
X35081Y79921D01*
X35785D01*
X36437Y80191D01*
X36935Y80689D01*
X36935Y80689D01*
X52651D01*
X52952Y79962D01*
X31868Y58877D01*
X24008D01*
X23623Y58801D01*
X23298Y58584D01*
X16911Y52197D01*
X16609D01*
X15957Y51927D01*
X15516Y51486D01*
X15110Y51892D01*
X14459Y52162D01*
X13754D01*
X13103Y51892D01*
X12605Y51394D01*
X12335Y50743D01*
Y50038D01*
X12605Y49387D01*
X13103Y48888D01*
X13754Y48619D01*
X14425D01*
X15395Y47649D01*
X15721Y47431D01*
X16105Y47355D01*
X17817D01*
X18201Y47431D01*
X18527Y47649D01*
X21198Y50320D01*
X21416Y50646D01*
X21492Y51030D01*
Y51490D01*
X22260Y52177D01*
X22514Y52146D01*
X23012Y51648D01*
X23561Y51420D01*
X23607Y51351D01*
X25030Y49929D01*
X25069Y49736D01*
X25274Y49429D01*
X25178Y49052D01*
X24966Y48641D01*
X23622D01*
X23238Y48565D01*
X22912Y48347D01*
X19566Y45001D01*
X19348Y44675D01*
X19272Y44291D01*
Y42333D01*
X18485Y41838D01*
X18266Y41929D01*
X17561D01*
X16910Y41659D01*
X16411Y41161D01*
X16142Y40510D01*
Y39805D01*
X16411Y39154D01*
X16910Y38655D01*
X17561Y38386D01*
X18266D01*
X18485Y38476D01*
X19272Y37982D01*
Y33211D01*
X15777Y29715D01*
X15559Y29390D01*
X15500Y29092D01*
X15092Y28844D01*
X14769Y28710D01*
X13502Y29977D01*
Y44982D01*
X13425Y45366D01*
X13208Y45692D01*
X10183Y48716D01*
X9858Y48934D01*
X9474Y49010D01*
X9131D01*
X8805Y49797D01*
X9437Y50430D01*
X9598Y50670D01*
X9619D01*
X10271Y50940D01*
X10769Y51438D01*
X11039Y52089D01*
Y52794D01*
X10769Y53445D01*
X10271Y53944D01*
X9619Y54213D01*
X8915D01*
X8264Y53944D01*
X7977Y53657D01*
X7840Y53684D01*
X7626D01*
X7351Y53868D01*
X6890Y53960D01*
X3740D01*
X3279Y53868D01*
X2889Y53607D01*
X2628Y53217D01*
X2536Y52756D01*
X2628Y52295D01*
X2880Y51917D01*
X2889Y51904D01*
Y51049D01*
X2880Y51035D01*
X2628Y50658D01*
X2536Y50197D01*
X2628Y49736D01*
X2849Y49405D01*
X2881Y49357D01*
X2885Y48917D01*
X2881Y48478D01*
X2849Y48429D01*
X2628Y48099D01*
X2536Y47638D01*
X2128Y46886D01*
X1963Y46790D01*
X1457Y46581D01*
X959Y46082D01*
X787Y45669D01*
X0Y45825D01*
Y65436D01*
X787Y65962D01*
X829Y65945D01*
X1534D01*
X2185Y66215D01*
X2683Y66713D01*
X2953Y67364D01*
Y68069D01*
X2683Y68720D01*
X2185Y69218D01*
X2087Y69259D01*
Y70111D01*
X2185Y70152D01*
X2683Y70650D01*
X2953Y71301D01*
Y72006D01*
X2683Y72657D01*
X2185Y73155D01*
X2087Y73196D01*
Y74048D01*
X2185Y74089D01*
X2683Y74587D01*
X2953Y75238D01*
Y75481D01*
X3641Y76128D01*
X3680Y76139D01*
X3741Y76127D01*
X6398D01*
Y77933D01*
Y79739D01*
X3741D01*
X3740Y79739D01*
X2953Y79880D01*
X2683Y80531D01*
X2590Y80624D01*
X3049Y81264D01*
X3741Y81127D01*
X10040D01*
X10731Y81264D01*
X11317Y81656D01*
X11709Y82242D01*
X11846Y82933D01*
X11709Y83624D01*
X11317Y84210D01*
X10731Y84602D01*
X10040Y84739D01*
X3741D01*
X3049Y84602D01*
X2797Y84434D01*
X2683Y84468D01*
X2185Y84966D01*
X2087Y85007D01*
Y85859D01*
X2185Y85900D01*
X2683Y86398D01*
X2797Y86433D01*
X3049Y86264D01*
X3741Y86127D01*
X10040D01*
X10731Y86264D01*
X11317Y86656D01*
X11709Y87242D01*
X11846Y87933D01*
X11709Y88624D01*
X11317Y89210D01*
X10731Y89602D01*
X10040Y89739D01*
X3741D01*
X3049Y89602D01*
X2590Y90242D01*
X2683Y90335D01*
X2953Y90986D01*
X3740Y91127D01*
X3741Y91127D01*
X10040D01*
X10731Y91264D01*
X11317Y91656D01*
X11709Y92242D01*
X11846Y92933D01*
X11709Y93624D01*
X11317Y94210D01*
X10731Y94602D01*
X10406Y94667D01*
X9976Y95392D01*
X9963Y95527D01*
X10039Y95711D01*
Y96415D01*
X9770Y97066D01*
X9271Y97565D01*
X8620Y97835D01*
X7915D01*
X7264Y97565D01*
X6766Y97066D01*
X6496Y96415D01*
Y95711D01*
X6572Y95527D01*
X6057Y94739D01*
X3741D01*
X3680Y94727D01*
X3641Y94738D01*
X2953Y95386D01*
Y95628D01*
X2683Y96279D01*
X2185Y96777D01*
X1534Y97047D01*
X829D01*
X787Y97030D01*
X0Y97556D01*
Y105200D01*
X787Y105726D01*
X829Y105709D01*
X1534D01*
X1883Y105853D01*
X2266Y105280D01*
X2853Y104888D01*
X3544Y104751D01*
X9843D01*
X10534Y104888D01*
X11120Y105280D01*
X11512Y105866D01*
X11649Y106557D01*
X11512Y107248D01*
X11120Y107834D01*
X10534Y108226D01*
X9843Y108364D01*
X3544D01*
X2853Y108226D01*
X2781Y108248D01*
X2683Y108484D01*
X2626Y108541D01*
X2239Y109055D01*
X2626Y109570D01*
X2683Y109626D01*
X2783Y109867D01*
X2853Y109888D01*
X3544Y109751D01*
X9843D01*
X10534Y109888D01*
X11120Y110280D01*
X11512Y110866D01*
X11649Y111557D01*
X11512Y112249D01*
X11120Y112835D01*
X10534Y113226D01*
X9843Y113364D01*
X3544D01*
X2852Y113226D01*
X2266Y112835D01*
X1881Y112258D01*
X1534Y112402D01*
X829D01*
X787Y112384D01*
X0Y112911D01*
Y153903D01*
X787Y154252D01*
X1004Y154056D01*
D02*
G37*
G36*
X46555Y131061D02*
Y130315D01*
X49663D01*
X52243Y127735D01*
X52569Y127518D01*
X52953Y127441D01*
X57608D01*
X57993Y127518D01*
X58318Y127735D01*
X59233Y128650D01*
X60020Y128324D01*
Y109372D01*
X59153D01*
X58731Y109288D01*
X58373Y109048D01*
X58134Y108690D01*
X58050Y108268D01*
X57985Y108189D01*
X55398D01*
X55365Y108354D01*
X55192Y108614D01*
X55183Y108636D01*
Y109474D01*
X55192Y109496D01*
X55365Y109756D01*
X55430Y110079D01*
Y110531D01*
X53445D01*
Y111024D01*
X52953D01*
Y112811D01*
X52303D01*
X51981Y112747D01*
X51707Y112565D01*
X51594Y112396D01*
X51178Y112405D01*
X50807Y112527D01*
Y121457D01*
X50730Y121841D01*
X50513Y122166D01*
X44488Y128191D01*
X44488Y128191D01*
Y128896D01*
X44219Y129547D01*
X43720Y130045D01*
X43591Y130099D01*
X43747Y130886D01*
X44980D01*
X45364Y130963D01*
X45690Y131180D01*
X45768Y131258D01*
X46555Y131061D01*
D02*
G37*
G36*
X58731Y77720D02*
X59153Y77636D01*
X61765D01*
X62066Y76909D01*
X53150Y67993D01*
X52866Y68020D01*
X52289Y68246D01*
X52092Y68720D01*
X51594Y69218D01*
X50943Y69488D01*
X50238D01*
X49587Y69218D01*
X49089Y68720D01*
X48819Y68069D01*
Y67364D01*
X49089Y66713D01*
X49587Y66215D01*
X50062Y66018D01*
X50287Y65441D01*
X50315Y65158D01*
X44204Y59047D01*
X43986Y58721D01*
X43910Y58337D01*
Y52159D01*
X43190Y51766D01*
X43063Y51892D01*
X42412Y52162D01*
X41707D01*
X41056Y51892D01*
X40558Y51394D01*
X40288Y50743D01*
Y50038D01*
X40558Y49387D01*
X41056Y48888D01*
X41707Y48619D01*
X42412D01*
X43063Y48888D01*
X43504Y49330D01*
X43910Y48924D01*
X44561Y48654D01*
X44699D01*
X44863Y48455D01*
Y41827D01*
X44187Y41389D01*
X43917Y41659D01*
X43266Y41929D01*
X42561D01*
X41910Y41659D01*
X41752Y41501D01*
X40964Y41827D01*
Y44655D01*
X40888Y45039D01*
X40670Y45365D01*
X37688Y48347D01*
X37362Y48565D01*
X36978Y48641D01*
X36453D01*
X36368Y48874D01*
X36322Y49429D01*
X36522Y49563D01*
X37390Y50430D01*
X37550Y50670D01*
X37572D01*
X38223Y50940D01*
X38722Y51438D01*
X38991Y52089D01*
Y52794D01*
X38722Y53445D01*
X38223Y53944D01*
X37572Y54213D01*
X36867D01*
X36216Y53944D01*
X35930Y53657D01*
X35792Y53684D01*
X35579D01*
X35303Y53868D01*
X34843Y53960D01*
X31693D01*
X31232Y53868D01*
X30841Y53607D01*
X30182D01*
X29792Y53868D01*
X29331Y53960D01*
X26181D01*
X25720Y53868D01*
X25624Y53898D01*
X25518Y54153D01*
X25019Y54651D01*
X25001Y54804D01*
X25699Y55591D01*
X32814D01*
X33198Y55667D01*
X33523Y55885D01*
X55375Y77737D01*
X58707D01*
X58731Y77720D01*
D02*
G37*
G36*
X2223Y38529D02*
X2628Y37862D01*
X2536Y37402D01*
X2628Y36941D01*
X2889Y36550D01*
X3279Y36289D01*
X3740Y36197D01*
X6890D01*
X7351Y36289D01*
X7741Y36550D01*
X7916Y36811D01*
X8620D01*
X9271Y37081D01*
X9272Y37082D01*
X10059Y36755D01*
Y30334D01*
X7979D01*
X7595Y30258D01*
X7270Y30040D01*
X7041Y29812D01*
X6374Y30258D01*
X6496Y30553D01*
Y31258D01*
X6226Y31909D01*
X5728Y32407D01*
X5077Y32677D01*
X4372D01*
X3721Y32407D01*
X3223Y31909D01*
X2953Y31258D01*
Y30553D01*
X2866Y29873D01*
X2593Y29691D01*
X2410Y29417D01*
X2346Y29095D01*
Y27205D01*
X2410Y26882D01*
X2584Y26622D01*
X2593Y26600D01*
Y25762D01*
X2584Y25740D01*
X2410Y25480D01*
X2346Y25158D01*
Y23268D01*
X2410Y22945D01*
X2593Y22672D01*
X2866Y22489D01*
X3189Y22425D01*
X3327D01*
Y20831D01*
X3260Y20818D01*
X2987Y20636D01*
X2804Y20362D01*
X2740Y20039D01*
Y18150D01*
X2804Y17827D01*
X2977Y17567D01*
X2987Y17545D01*
Y17312D01*
X2259Y16563D01*
X1943D01*
X1534Y16732D01*
X829D01*
X787Y16715D01*
X0Y17241D01*
Y37877D01*
X787Y38403D01*
X829Y38386D01*
X1534D01*
X2063Y38605D01*
X2223Y38529D01*
D02*
G37*
G36*
X10059Y27308D02*
X9890Y27055D01*
X9826Y26732D01*
Y24843D01*
X9890Y24520D01*
X9973Y24396D01*
X10068Y24238D01*
X9871Y23472D01*
X9318Y23326D01*
X9091Y23330D01*
X7772Y24649D01*
Y27704D01*
X8395Y28327D01*
X10059D01*
Y27308D01*
D02*
G37*
G36*
X47619Y27645D02*
Y26575D01*
X47622Y26559D01*
Y24843D01*
X47686Y24520D01*
X47769Y24396D01*
X47869Y24229D01*
X47868Y23606D01*
X47791Y23476D01*
X47145Y23292D01*
X46876Y23281D01*
X45433Y24725D01*
Y27704D01*
X46056Y28327D01*
X46937D01*
X47619Y27645D01*
D02*
G37*
G36*
X28721Y27645D02*
Y26575D01*
X28724Y26559D01*
Y24843D01*
X28788Y24520D01*
X28871Y24396D01*
X28971Y24229D01*
Y23606D01*
X28893Y23476D01*
X28248Y23292D01*
X27979Y23281D01*
X26535Y24725D01*
Y27704D01*
X27158Y28327D01*
X28039D01*
X28721Y27645D01*
D02*
G37*
G36*
X2270Y9366D02*
X2804Y8748D01*
X2740Y8425D01*
Y6536D01*
X2804Y6213D01*
X2987Y5939D01*
X3048Y5898D01*
X2953Y5667D01*
Y4963D01*
X3106Y4593D01*
X2889Y4376D01*
X2559Y3580D01*
Y2953D01*
X2403D01*
X1752Y2683D01*
X1254Y2185D01*
X984Y1534D01*
Y1230D01*
X309Y642D01*
X257Y628D01*
X0Y706D01*
Y8743D01*
X787Y9269D01*
X829Y9252D01*
X1534D01*
X1975Y9435D01*
X2270Y9366D01*
D02*
G37*
G36*
X163852Y11989D02*
X163909Y11932D01*
X164296Y11417D01*
X163909Y10903D01*
X163852Y10846D01*
X163583Y10195D01*
Y9490D01*
X163852Y8839D01*
X164351Y8341D01*
X165002Y8071D01*
X165707D01*
X165748Y8088D01*
X166535Y7562D01*
Y1969D01*
X164584D01*
X164494Y2185D01*
X163996Y2683D01*
X163345Y2953D01*
X162640D01*
X161989Y2683D01*
X161490Y2185D01*
X161401Y1969D01*
X159859D01*
X159770Y2185D01*
X159271Y2683D01*
X158620Y2953D01*
X157915D01*
X157264Y2683D01*
X156766Y2185D01*
X156676Y1969D01*
X155135D01*
X155045Y2185D01*
X154547Y2683D01*
X153896Y2953D01*
X153191D01*
X152540Y2683D01*
X152041Y2185D01*
X151952Y1969D01*
X150410D01*
X150321Y2185D01*
X149822Y2683D01*
X149171Y2953D01*
X148467D01*
X147815Y2683D01*
X147317Y2185D01*
X147228Y1969D01*
X145686D01*
X145596Y2185D01*
X145098Y2683D01*
X144447Y2953D01*
X144220Y3662D01*
X144237Y3892D01*
X144567Y4687D01*
Y5549D01*
X144237Y6345D01*
X143628Y6954D01*
X143366Y7062D01*
Y8095D01*
X143465D01*
X143787Y8159D01*
X144061Y8342D01*
X144154Y8481D01*
X144562Y8552D01*
X144612D01*
X145019Y8481D01*
X145113Y8342D01*
X145386Y8159D01*
X145709Y8095D01*
X147992D01*
X148315Y8159D01*
X148588Y8342D01*
X148771Y8615D01*
X148819Y8859D01*
X149598D01*
X149654Y8575D01*
X149837Y8302D01*
X150110Y8119D01*
X150433Y8055D01*
X152717D01*
X153039Y8119D01*
X153313Y8302D01*
X153406Y8441D01*
X153813Y8511D01*
X153864D01*
X154271Y8441D01*
X154365Y8302D01*
X154638Y8119D01*
X154961Y8055D01*
X157244D01*
X157567Y8119D01*
X157840Y8302D01*
X158347Y8341D01*
X158998Y8071D01*
X159703D01*
X160354Y8341D01*
X160852Y8839D01*
X161122Y9490D01*
Y10195D01*
X160852Y10846D01*
X160354Y11344D01*
X159703Y11614D01*
X159768Y12375D01*
X163692D01*
X163852Y11989D01*
D02*
G37*
G36*
X122019Y14774D02*
Y8150D01*
X122132Y7581D01*
X122454Y7099D01*
X122936Y6777D01*
X123504Y6664D01*
X130433D01*
X131001Y6777D01*
X131483Y7099D01*
X131805Y7581D01*
X131918Y8150D01*
Y14876D01*
X140247D01*
X140338Y14765D01*
Y12875D01*
X140402Y12552D01*
X140576Y12293D01*
X140585Y12270D01*
Y11432D01*
X140576Y11410D01*
X140402Y11150D01*
X140338Y10828D01*
Y8938D01*
X140402Y8615D01*
X140585Y8342D01*
X140858Y8159D01*
X141181Y8095D01*
X141359D01*
Y7030D01*
X141175Y6954D01*
X140566Y6345D01*
X140236Y5549D01*
Y4687D01*
X140566Y3892D01*
X141032Y3426D01*
X140585Y2758D01*
X140116Y2953D01*
X139411D01*
X138760Y2683D01*
X138262Y2185D01*
X138172Y1969D01*
X136631D01*
X136541Y2185D01*
X136043Y2683D01*
X135392Y2953D01*
X134687D01*
X134036Y2683D01*
X133537Y2185D01*
X133448Y1969D01*
X131906D01*
X131817Y2185D01*
X131319Y2683D01*
X130667Y2953D01*
X129963D01*
X129312Y2683D01*
X128813Y2185D01*
X128724Y1969D01*
X127182D01*
X127093Y2185D01*
X126594Y2683D01*
X125943Y2953D01*
X125238D01*
X124587Y2683D01*
X124089Y2185D01*
X123999Y1969D01*
X122458D01*
X122368Y2185D01*
X121870Y2683D01*
X121219Y2953D01*
X120514D01*
X119863Y2683D01*
X119364Y2185D01*
X119275Y1969D01*
X117733D01*
X117644Y2185D01*
X117145Y2683D01*
X116494Y2953D01*
X115789D01*
X115138Y2683D01*
X114640Y2185D01*
X114550Y1969D01*
X113009D01*
X112919Y2185D01*
X112421Y2683D01*
X111770Y2953D01*
X111065D01*
X110414Y2683D01*
X109915Y2185D01*
X109826Y1969D01*
X108284D01*
X108195Y2185D01*
X107697Y2683D01*
X107045Y2953D01*
X106341D01*
X105689Y2683D01*
X105191Y2185D01*
X105102Y1969D01*
X103560D01*
X103471Y2185D01*
X102972Y2683D01*
X102321Y2953D01*
X101616D01*
X100965Y2683D01*
X100467Y2185D01*
X100377Y1969D01*
X98836D01*
X98746Y2185D01*
X98248Y2683D01*
X97597Y2953D01*
X96892D01*
X96241Y2683D01*
X95742Y2185D01*
X95653Y1969D01*
X94111D01*
X94022Y2185D01*
X93523Y2683D01*
X92872Y2953D01*
X92167D01*
X91516Y2683D01*
X91018Y2185D01*
X90928Y1969D01*
X89387D01*
X89297Y2185D01*
X88799Y2683D01*
X88148Y2953D01*
X87443D01*
X86792Y2683D01*
X86293Y2185D01*
X86204Y1969D01*
X84662D01*
X84573Y2185D01*
X84074Y2683D01*
X83423Y2953D01*
X82718D01*
X82067Y2683D01*
X81569Y2185D01*
X81479Y1969D01*
X79938D01*
X79848Y2185D01*
X79350Y2683D01*
X78699Y2953D01*
X77994D01*
X77343Y2683D01*
X76845Y2185D01*
X76755Y1969D01*
X75213D01*
X75124Y2185D01*
X74626Y2683D01*
X73975Y2953D01*
X73270D01*
X72619Y2683D01*
X72120Y2185D01*
X72031Y1969D01*
X70489D01*
X70400Y2185D01*
X69901Y2683D01*
X69250Y2953D01*
X68545D01*
X67894Y2683D01*
X67396Y2185D01*
X67306Y1969D01*
X65765D01*
X65675Y2185D01*
X65177Y2683D01*
X65177Y2683D01*
Y6890D01*
X65100Y7274D01*
X64883Y7599D01*
X63796Y8687D01*
Y10000D01*
X63732Y10323D01*
X63558Y10582D01*
X63549Y10605D01*
Y10837D01*
X64276Y11587D01*
X93307D01*
X93845Y11694D01*
X94301Y11999D01*
X99401Y17099D01*
X104247D01*
X104326Y17006D01*
X104596Y16312D01*
X104415Y16041D01*
X104302Y15472D01*
Y8150D01*
X104415Y7581D01*
X104737Y7099D01*
X105219Y6777D01*
X105787Y6664D01*
X107406D01*
X107677Y6258D01*
Y5553D01*
X107947Y4902D01*
X108445Y4404D01*
X109096Y4134D01*
X109801D01*
X110452Y4404D01*
X110951Y4902D01*
X111221Y5553D01*
Y6258D01*
X111492Y6664D01*
X112716D01*
X113285Y6777D01*
X113767Y7099D01*
X114089Y7581D01*
X114202Y8150D01*
Y15472D01*
X114089Y16041D01*
X113908Y16312D01*
X114178Y17006D01*
X114257Y17099D01*
X119694D01*
X122019Y14774D01*
D02*
G37*
G36*
X7627Y7870D02*
X7959Y7733D01*
X8096Y7528D01*
X8105Y7506D01*
Y6668D01*
X8096Y6645D01*
X7922Y6386D01*
X7858Y6063D01*
Y4173D01*
X7922Y3851D01*
X8105Y3577D01*
X8244Y3484D01*
X8141Y3235D01*
Y2530D01*
X8411Y1879D01*
X8909Y1381D01*
X9561Y1111D01*
X10236D01*
Y0D01*
X9449Y0D01*
X5669D01*
X5434Y185D01*
X5152Y787D01*
X5289Y1040D01*
X5951Y1314D01*
X6560Y1923D01*
X6890Y2719D01*
Y3580D01*
X6560Y4376D01*
X6343Y4593D01*
X6496Y4963D01*
Y5667D01*
X6401Y5898D01*
X6462Y5939D01*
X6645Y6213D01*
X6709Y6536D01*
Y7579D01*
X7169Y7997D01*
X7627Y7870D01*
D02*
G37*
%LPC*%
G36*
X137163Y145472D02*
X136459D01*
X135808Y145203D01*
X135309Y144704D01*
X135039Y144053D01*
Y143348D01*
X135309Y142697D01*
X135808Y142199D01*
X136459Y141929D01*
X137163D01*
X137815Y142199D01*
X138313Y142697D01*
X138583Y143348D01*
Y144053D01*
X138313Y144704D01*
X137815Y145203D01*
X137163Y145472D01*
D02*
G37*
G36*
X116693Y116945D02*
X116043D01*
Y115650D01*
X117536D01*
Y116102D01*
X117472Y116425D01*
X117289Y116698D01*
X117016Y116881D01*
X116693Y116945D01*
D02*
G37*
G36*
X97203Y143504D02*
X96498D01*
X95847Y143234D01*
X95349Y142736D01*
X95079Y142085D01*
Y141380D01*
X95349Y140729D01*
X95847Y140230D01*
X96498Y139961D01*
X97203D01*
X97854Y140230D01*
X98352Y140729D01*
X98622Y141380D01*
Y142085D01*
X98352Y142736D01*
X97854Y143234D01*
X97203Y143504D01*
D02*
G37*
G36*
X53150Y137894D02*
X52313D01*
Y137106D01*
X53150D01*
Y137894D01*
D02*
G37*
G36*
X160538Y137373D02*
X159514D01*
X159146Y137299D01*
X158833Y137091D01*
X158624Y136778D01*
X158551Y136409D01*
Y135484D01*
X160538D01*
Y137373D01*
D02*
G37*
G36*
Y134500D02*
X158551D01*
Y133575D01*
X158624Y133206D01*
X158833Y132893D01*
X159146Y132685D01*
X159514Y132611D01*
X160538D01*
Y134500D01*
D02*
G37*
G36*
X30812Y150410D02*
X30107D01*
X29456Y150141D01*
X28958Y149642D01*
X28688Y148991D01*
Y148286D01*
X28958Y147635D01*
X29456Y147137D01*
X30107Y146867D01*
X30812D01*
X31463Y147137D01*
X31962Y147635D01*
X32231Y148286D01*
Y148991D01*
X31962Y149642D01*
X31463Y150141D01*
X30812Y150410D01*
D02*
G37*
G36*
X45325Y137894D02*
X44488D01*
Y137106D01*
X45325D01*
Y137894D01*
D02*
G37*
G36*
X42087Y137615D02*
X41437D01*
Y136319D01*
X42930D01*
Y136772D01*
X42865Y137094D01*
X42683Y137368D01*
X42409Y137550D01*
X42087Y137615D01*
D02*
G37*
G36*
X77914Y128225D02*
X77264D01*
Y126929D01*
X78756D01*
Y127382D01*
X78692Y127705D01*
X78510Y127978D01*
X78236Y128161D01*
X77914Y128225D01*
D02*
G37*
G36*
X76280D02*
X75630D01*
X75308Y128161D01*
X75034Y127978D01*
X74851Y127705D01*
X74787Y127382D01*
Y126929D01*
X76280D01*
Y128225D01*
D02*
G37*
G36*
X71358Y124819D02*
X70906D01*
X70583Y124755D01*
X70323Y124582D01*
X70301Y124573D01*
X69463D01*
X69441Y124582D01*
X69181Y124755D01*
X68858Y124819D01*
X66969D01*
X66646Y124755D01*
X66372Y124573D01*
X66246Y124383D01*
X65707Y124606D01*
X65002D01*
X64351Y124337D01*
X63852Y123838D01*
X63583Y123187D01*
Y122482D01*
X63852Y121831D01*
X64351Y121333D01*
X65002Y121063D01*
X65707D01*
X66246Y121286D01*
X66372Y121097D01*
X66646Y120914D01*
X66969Y120850D01*
X67894D01*
Y118459D01*
X67878Y118434D01*
X67794Y118012D01*
Y114272D01*
X67878Y113849D01*
X68117Y113491D01*
X68475Y113252D01*
X68898Y113168D01*
X69320Y113252D01*
X69678Y113491D01*
X70086D01*
X70374Y113298D01*
Y116142D01*
Y119266D01*
X70049Y119457D01*
X69901Y119616D01*
Y120423D01*
X70422Y120798D01*
X70689Y120893D01*
X70906Y120850D01*
X71358D01*
Y122835D01*
Y124819D01*
D02*
G37*
G36*
X72795D02*
X72342D01*
Y123327D01*
X73638D01*
Y123976D01*
X73574Y124299D01*
X73391Y124573D01*
X73118Y124755D01*
X72795Y124819D01*
D02*
G37*
G36*
X73638Y122343D02*
X72342D01*
Y120850D01*
X72795D01*
X73118Y120914D01*
X73391Y121097D01*
X73574Y121370D01*
X73638Y121693D01*
Y122343D01*
D02*
G37*
G36*
X158169Y84467D02*
X155039D01*
X154686Y84396D01*
X154387Y84196D01*
X154186Y83897D01*
X154116Y83543D01*
Y82776D01*
X158169D01*
Y84467D01*
D02*
G37*
G36*
X129842Y85096D02*
X127638D01*
X127300Y85028D01*
X127013Y84837D01*
X126822Y84550D01*
X126755Y84213D01*
Y81142D01*
X126822Y80804D01*
X127013Y80517D01*
X127300Y80326D01*
X127638Y80259D01*
X129842D01*
X130180Y80326D01*
X130467Y80517D01*
X130658Y80804D01*
X130977Y80974D01*
X131144Y80905D01*
X131849D01*
X132500Y81175D01*
X132998Y81674D01*
X133268Y82325D01*
Y83030D01*
X132998Y83681D01*
X132500Y84179D01*
X131849Y84449D01*
X131144D01*
X130977Y84380D01*
X130658Y84551D01*
X130467Y84837D01*
X130180Y85028D01*
X129842Y85096D01*
D02*
G37*
G36*
X158169Y81791D02*
X154116D01*
Y81024D01*
X154186Y80670D01*
X154387Y80371D01*
X154686Y80171D01*
X155039Y80100D01*
X158169D01*
Y81791D01*
D02*
G37*
G36*
X120825Y75394D02*
X120120D01*
X119469Y75124D01*
X118971Y74626D01*
X118701Y73975D01*
Y73270D01*
X118971Y72619D01*
X119469Y72120D01*
X120120Y71850D01*
X120825D01*
X121476Y72120D01*
X121974Y72619D01*
X122244Y73270D01*
Y73975D01*
X121974Y74626D01*
X121476Y75124D01*
X120825Y75394D01*
D02*
G37*
G36*
X69390Y64468D02*
X68094D01*
Y63819D01*
X68158Y63496D01*
X68341Y63223D01*
X68614Y63040D01*
X68937Y62976D01*
X69390D01*
Y64468D01*
D02*
G37*
G36*
X109123Y59547D02*
X107631D01*
Y58252D01*
X108280D01*
X108603Y58316D01*
X108877Y58498D01*
X109059Y58772D01*
X109123Y59095D01*
Y59547D01*
D02*
G37*
G36*
X106647D02*
X105154D01*
Y59095D01*
X105218Y58772D01*
X105401Y58498D01*
X105674Y58316D01*
X105997Y58252D01*
X106647D01*
Y59547D01*
D02*
G37*
G36*
X104347D02*
X102854D01*
Y58252D01*
X103504D01*
X103826Y58316D01*
X104100Y58498D01*
X104283Y58772D01*
X104347Y59095D01*
Y59547D01*
D02*
G37*
G36*
X153906Y50000D02*
X153181D01*
X152480Y49812D01*
X151851Y49449D01*
X151338Y48936D01*
X150975Y48308D01*
X150787Y47607D01*
Y46881D01*
X150975Y46180D01*
X151338Y45552D01*
X151851Y45039D01*
X152480Y44676D01*
X153181Y44488D01*
X153906D01*
X154607Y44676D01*
X155235Y45039D01*
X155749Y45552D01*
X156111Y46180D01*
X156299Y46881D01*
Y47607D01*
X156111Y48308D01*
X155749Y48936D01*
X155235Y49449D01*
X154607Y49812D01*
X153906Y50000D01*
D02*
G37*
G36*
X134221D02*
X133495D01*
X132794Y49812D01*
X132166Y49449D01*
X131653Y48936D01*
X131290Y48308D01*
X131102Y47607D01*
Y46881D01*
X131290Y46180D01*
X131653Y45552D01*
X132166Y45039D01*
X132794Y44676D01*
X133495Y44488D01*
X134221D01*
X134922Y44676D01*
X135550Y45039D01*
X136064Y45552D01*
X136426Y46180D01*
X136614Y46881D01*
Y47607D01*
X136426Y48308D01*
X136064Y48936D01*
X135550Y49449D01*
X134922Y49812D01*
X134221Y50000D01*
D02*
G37*
G36*
X114536D02*
X113810D01*
X113110Y49812D01*
X112481Y49449D01*
X111968Y48936D01*
X111605Y48308D01*
X111417Y47607D01*
Y46881D01*
X111605Y46180D01*
X111968Y45552D01*
X112481Y45039D01*
X113110Y44676D01*
X113810Y44488D01*
X114536D01*
X115237Y44676D01*
X115865Y45039D01*
X116378Y45552D01*
X116741Y46180D01*
X116929Y46881D01*
Y47607D01*
X116741Y48308D01*
X116378Y48936D01*
X115865Y49449D01*
X115237Y49812D01*
X114536Y50000D01*
D02*
G37*
G36*
X94851D02*
X94125D01*
X93424Y49812D01*
X92796Y49449D01*
X92283Y48936D01*
X91920Y48308D01*
X91732Y47607D01*
Y46881D01*
X91920Y46180D01*
X92283Y45552D01*
X92796Y45039D01*
X93424Y44676D01*
X94125Y44488D01*
X94851D01*
X95552Y44676D01*
X96180Y45039D01*
X96693Y45552D01*
X97056Y46180D01*
X97244Y46881D01*
Y47607D01*
X97056Y48308D01*
X96693Y48936D01*
X96180Y49449D01*
X95552Y49812D01*
X94851Y50000D01*
D02*
G37*
G36*
X153906Y38189D02*
X153181D01*
X152480Y38001D01*
X151851Y37638D01*
X151338Y37125D01*
X150975Y36497D01*
X150787Y35796D01*
Y35070D01*
X150975Y34369D01*
X151338Y33741D01*
X151851Y33228D01*
X152480Y32865D01*
X153181Y32677D01*
X153906D01*
X154607Y32865D01*
X155235Y33228D01*
X155749Y33741D01*
X156111Y34369D01*
X156299Y35070D01*
Y35796D01*
X156111Y36497D01*
X155749Y37125D01*
X155235Y37638D01*
X154607Y38001D01*
X153906Y38189D01*
D02*
G37*
G36*
X134221D02*
X133495D01*
X132794Y38001D01*
X132166Y37638D01*
X131653Y37125D01*
X131290Y36497D01*
X131102Y35796D01*
Y35070D01*
X131290Y34369D01*
X131653Y33741D01*
X132166Y33228D01*
X132794Y32865D01*
X133495Y32677D01*
X134221D01*
X134922Y32865D01*
X135550Y33228D01*
X136064Y33741D01*
X136426Y34369D01*
X136614Y35070D01*
Y35796D01*
X136426Y36497D01*
X136064Y37125D01*
X135550Y37638D01*
X134922Y38001D01*
X134221Y38189D01*
D02*
G37*
G36*
X114536D02*
X113810D01*
X113110Y38001D01*
X112481Y37638D01*
X111968Y37125D01*
X111605Y36497D01*
X111417Y35796D01*
Y35070D01*
X111605Y34369D01*
X111968Y33741D01*
X112481Y33228D01*
X113110Y32865D01*
X113810Y32677D01*
X114536D01*
X115237Y32865D01*
X115865Y33228D01*
X116378Y33741D01*
X116741Y34369D01*
X116929Y35070D01*
Y35796D01*
X116741Y36497D01*
X116378Y37125D01*
X115865Y37638D01*
X115237Y38001D01*
X114536Y38189D01*
D02*
G37*
G36*
X94851D02*
X94125D01*
X93424Y38001D01*
X92796Y37638D01*
X92283Y37125D01*
X91920Y36497D01*
X91732Y35796D01*
Y35070D01*
X91920Y34369D01*
X92283Y33741D01*
X92796Y33228D01*
X93424Y32865D01*
X94125Y32677D01*
X94851D01*
X95552Y32865D01*
X96180Y33228D01*
X96693Y33741D01*
X97056Y34369D01*
X97244Y35070D01*
Y35796D01*
X97056Y36497D01*
X96693Y37125D01*
X96180Y37638D01*
X95552Y38001D01*
X94851Y38189D01*
D02*
G37*
G36*
X153906Y26378D02*
X153181D01*
X152480Y26190D01*
X151851Y25827D01*
X151338Y25314D01*
X150975Y24686D01*
X150787Y23985D01*
Y23259D01*
X150975Y22558D01*
X151338Y21930D01*
X151851Y21417D01*
X152480Y21054D01*
X153181Y20866D01*
X153906D01*
X154607Y21054D01*
X155235Y21417D01*
X155749Y21930D01*
X156111Y22558D01*
X156299Y23259D01*
Y23985D01*
X156111Y24686D01*
X155749Y25314D01*
X155235Y25827D01*
X154607Y26190D01*
X153906Y26378D01*
D02*
G37*
G36*
X134221D02*
X133495D01*
X132794Y26190D01*
X132166Y25827D01*
X131653Y25314D01*
X131290Y24686D01*
X131102Y23985D01*
Y23259D01*
X131290Y22558D01*
X131653Y21930D01*
X132166Y21417D01*
X132794Y21054D01*
X133495Y20866D01*
X134221D01*
X134922Y21054D01*
X135550Y21417D01*
X136064Y21930D01*
X136426Y22558D01*
X136614Y23259D01*
Y23985D01*
X136426Y24686D01*
X136064Y25314D01*
X135550Y25827D01*
X134922Y26190D01*
X134221Y26378D01*
D02*
G37*
G36*
X114536D02*
X113810D01*
X113110Y26190D01*
X112481Y25827D01*
X111968Y25314D01*
X111605Y24686D01*
X111417Y23985D01*
Y23259D01*
X111605Y22558D01*
X111968Y21930D01*
X112481Y21417D01*
X113110Y21054D01*
X113810Y20866D01*
X114536D01*
X115237Y21054D01*
X115865Y21417D01*
X116378Y21930D01*
X116741Y22558D01*
X116929Y23259D01*
Y23985D01*
X116741Y24686D01*
X116378Y25314D01*
X115865Y25827D01*
X115237Y26190D01*
X114536Y26378D01*
D02*
G37*
G36*
X94851D02*
X94125D01*
X93424Y26190D01*
X92796Y25827D01*
X92283Y25314D01*
X91920Y24686D01*
X91732Y23985D01*
Y23259D01*
X91920Y22558D01*
X92283Y21930D01*
X92796Y21417D01*
X93424Y21054D01*
X94125Y20866D01*
X94851D01*
X95552Y21054D01*
X96180Y21417D01*
X96693Y21930D01*
X97056Y22558D01*
X97244Y23259D01*
Y23985D01*
X97056Y24686D01*
X96693Y25314D01*
X96180Y25827D01*
X95552Y26190D01*
X94851Y26378D01*
D02*
G37*
G36*
X129409Y101888D02*
X128563D01*
Y100098D01*
X130353D01*
Y100945D01*
X130281Y101306D01*
X130077Y101612D01*
X129770Y101816D01*
X129409Y101888D01*
D02*
G37*
G36*
X127579D02*
X126732D01*
X126371Y101816D01*
X126065Y101612D01*
X125861Y101306D01*
X125789Y100945D01*
Y100098D01*
X127579D01*
Y101888D01*
D02*
G37*
G36*
X11573Y136221D02*
X10868D01*
X10217Y135951D01*
X9719Y135452D01*
X9449Y134801D01*
Y134096D01*
X9719Y133445D01*
X10217Y132947D01*
X10868Y132677D01*
X11573D01*
X12224Y132947D01*
X12722Y133445D01*
X12992Y134096D01*
Y134801D01*
X12722Y135452D01*
X12224Y135951D01*
X11573Y136221D01*
D02*
G37*
G36*
X6988Y130040D02*
X5748D01*
X5349Y129960D01*
X5010Y129734D01*
X4784Y129395D01*
X4704Y128996D01*
Y125689D01*
X6988D01*
Y130040D01*
D02*
G37*
G36*
X39921Y125213D02*
X39469D01*
Y123721D01*
X40764D01*
Y124370D01*
X40700Y124693D01*
X40517Y124966D01*
X40244Y125149D01*
X39921Y125213D01*
D02*
G37*
G36*
X40764Y122736D02*
X39469D01*
Y121244D01*
X39921D01*
X40244Y121308D01*
X40517Y121491D01*
X40700Y121764D01*
X40764Y122087D01*
Y122736D01*
D02*
G37*
G36*
X28741Y108364D02*
X26083D01*
Y107049D01*
X30449D01*
X30409Y107248D01*
X30018Y107834D01*
X29432Y108226D01*
X28741Y108364D01*
D02*
G37*
G36*
X25099D02*
X22441D01*
X21750Y108226D01*
X21164Y107834D01*
X20773Y107248D01*
X20733Y107049D01*
X25099D01*
Y108364D01*
D02*
G37*
G36*
X30449Y106065D02*
X26083D01*
Y104751D01*
X28741D01*
X29432Y104888D01*
X30018Y105280D01*
X30409Y105866D01*
X30449Y106065D01*
D02*
G37*
G36*
X25099D02*
X20733D01*
X20773Y105866D01*
X21164Y105280D01*
X21750Y104888D01*
X22441Y104751D01*
X25099D01*
Y106065D01*
D02*
G37*
G36*
X9843Y103364D02*
X7186D01*
Y102049D01*
X11551D01*
X11512Y102249D01*
X11120Y102834D01*
X10534Y103226D01*
X9843Y103364D01*
D02*
G37*
G36*
X6201D02*
X3544D01*
X2853Y103226D01*
X2266Y102834D01*
X1875Y102249D01*
X1835Y102049D01*
X6201D01*
Y103364D01*
D02*
G37*
G36*
X11551Y101065D02*
X7186D01*
Y99751D01*
X9843D01*
X10534Y99888D01*
X11120Y100280D01*
X11512Y100866D01*
X11551Y101065D01*
D02*
G37*
G36*
X6201D02*
X1835D01*
X1875Y100866D01*
X2266Y100280D01*
X2853Y99888D01*
X3544Y99751D01*
X6201D01*
Y101065D01*
D02*
G37*
G36*
X28741Y103364D02*
X22441D01*
X21750Y103226D01*
X21164Y102834D01*
X20773Y102249D01*
X20635Y101557D01*
X20773Y100866D01*
X21164Y100280D01*
X21750Y99888D01*
X22441Y99751D01*
X28741D01*
X28805Y99764D01*
X29372Y99074D01*
X29331Y98975D01*
Y98270D01*
X29331Y98270D01*
X27834Y96773D01*
X27617Y96447D01*
X27540Y96063D01*
Y94739D01*
X22638D01*
X21947Y94602D01*
X21361Y94210D01*
X20969Y93624D01*
X20832Y92933D01*
X20969Y92242D01*
X21361Y91656D01*
X21947Y91264D01*
X22638Y91127D01*
X28937D01*
X29508Y91240D01*
X29884Y91073D01*
X30205Y90831D01*
Y90035D01*
X29884Y89793D01*
X29508Y89626D01*
X28937Y89739D01*
X22638D01*
X21947Y89602D01*
X21595Y89367D01*
X21405D01*
X21279Y89492D01*
X20628Y89762D01*
X19923D01*
X19272Y89492D01*
X18774Y88994D01*
X18504Y88342D01*
Y87638D01*
X18774Y86986D01*
X19272Y86488D01*
X19923Y86218D01*
X20628D01*
X21279Y86488D01*
X21348Y86557D01*
X21509D01*
X21947Y86264D01*
X22638Y86127D01*
X28937D01*
X29508Y86240D01*
X29884Y86073D01*
X30205Y85831D01*
Y85035D01*
X29884Y84794D01*
X29508Y84626D01*
X28937Y84739D01*
X26280D01*
Y82933D01*
X25788D01*
Y82441D01*
X20930D01*
X20969Y82242D01*
X21361Y81656D01*
X21947Y81264D01*
X22638Y81127D01*
X24213D01*
X24343Y81037D01*
X24672Y80527D01*
X24382Y79739D01*
X22638D01*
X21947Y79602D01*
X21361Y79210D01*
X20969Y78624D01*
X20832Y77933D01*
X20969Y77242D01*
X21361Y76656D01*
X21947Y76264D01*
X22638Y76127D01*
X28937D01*
X29629Y76264D01*
X30215Y76656D01*
X30606Y77242D01*
X30744Y77933D01*
X30606Y78624D01*
X30254Y79151D01*
X30236Y79336D01*
X30360Y80061D01*
X30503Y80156D01*
X32009Y81662D01*
X32226Y81988D01*
X32303Y82372D01*
Y94167D01*
X32303Y94167D01*
X32801Y94666D01*
X33071Y95317D01*
Y96022D01*
X32801Y96673D01*
X32303Y97171D01*
X32516Y97531D01*
X32604Y97619D01*
X32874Y98270D01*
Y98975D01*
X32604Y99626D01*
X32150Y100080D01*
X32604Y100534D01*
X32874Y101185D01*
Y101890D01*
X32604Y102541D01*
X32106Y103040D01*
X31455Y103309D01*
X30750D01*
X30099Y103040D01*
X29943Y102884D01*
X29432Y103226D01*
X28741Y103364D01*
D02*
G37*
G36*
X49902Y89583D02*
X49252D01*
X48929Y89519D01*
X48656Y89336D01*
X48473Y89063D01*
X48409Y88740D01*
Y88287D01*
X49902D01*
Y89583D01*
D02*
G37*
G36*
X25296Y84739D02*
X22638D01*
X21947Y84602D01*
X21361Y84210D01*
X20969Y83624D01*
X20930Y83425D01*
X25296D01*
Y84739D01*
D02*
G37*
G36*
X10040Y79739D02*
X7382D01*
Y78425D01*
X11748D01*
X11709Y78624D01*
X11317Y79210D01*
X10731Y79602D01*
X10040Y79739D01*
D02*
G37*
G36*
X11748Y77441D02*
X7382D01*
Y76127D01*
X10040D01*
X10731Y76264D01*
X11317Y76656D01*
X11709Y77242D01*
X11748Y77441D01*
D02*
G37*
G36*
X12951Y69685D02*
X12246D01*
X11595Y69415D01*
X11096Y68917D01*
X10827Y68266D01*
Y67561D01*
X11096Y66910D01*
X11595Y66412D01*
X12246Y66142D01*
X12951D01*
X13602Y66412D01*
X14100Y66910D01*
X14370Y67561D01*
Y68266D01*
X14100Y68917D01*
X13602Y69415D01*
X12951Y69685D01*
D02*
G37*
G36*
X54587Y112811D02*
X53937D01*
Y111516D01*
X55430D01*
Y111969D01*
X55365Y112291D01*
X55183Y112565D01*
X54909Y112747D01*
X54587Y112811D01*
D02*
G37*
G36*
X70825Y7677D02*
X70120D01*
X69469Y7407D01*
X68971Y6909D01*
X68701Y6258D01*
Y5553D01*
X68971Y4902D01*
X69469Y4404D01*
X70120Y4134D01*
X70825D01*
X71476Y4404D01*
X71974Y4902D01*
X72244Y5553D01*
Y6258D01*
X71974Y6909D01*
X71476Y7407D01*
X70825Y7677D01*
D02*
G37*
%LPD*%
D12*
X62598Y130321D02*
Y130512D01*
X61024Y128746D02*
X62598Y130321D01*
X61742Y132579D02*
X75886D01*
X57608Y128445D02*
X61742Y132579D01*
X52953Y128445D02*
X57608D01*
X75886Y132579D02*
X78248Y134941D01*
X44429Y24309D02*
X47077Y21662D01*
Y15915D02*
Y21662D01*
X54751Y20186D02*
X56772Y18165D01*
X53852Y18163D02*
Y18174D01*
X54085Y20706D02*
X54604Y20186D01*
X56772Y18018D02*
Y18165D01*
X54085Y20706D02*
Y29085D01*
X50563Y18163D02*
X53852D01*
X53895Y18119D01*
X54604Y20186D02*
X54751D01*
X52658Y19368D02*
Y29467D01*
Y19368D02*
X53852Y18174D01*
X50505Y18221D02*
X50563Y18163D01*
X35187Y28850D02*
X38916Y32579D01*
X33760Y29232D02*
X39961Y35433D01*
Y44655D01*
X40551Y25787D02*
Y28937D01*
X49508Y37894D01*
X32244Y29867D02*
X38242Y35864D01*
Y40499D01*
X107677Y117196D02*
Y119254D01*
X110176Y121752D01*
X121580D01*
X108957Y116666D02*
Y118723D01*
X106299Y119685D02*
X143307Y156693D01*
X100000Y119685D02*
X106299D01*
X110706Y120472D02*
X121050D01*
X108957Y118723D02*
X110706Y120472D01*
X98524Y118209D02*
X100000Y119685D01*
X121050Y120472D02*
X121930Y119593D01*
X103445Y112964D02*
X107677Y117196D01*
X121580Y121752D02*
X121875Y121457D01*
X125394D01*
X121930Y119593D02*
X122730D01*
X123031Y119291D01*
X111221Y115157D02*
X111516Y115453D01*
Y117421D01*
X111811Y117717D01*
X109066Y109218D02*
Y112583D01*
X108116Y108268D02*
X109066Y109218D01*
X106299Y108268D02*
X108116D01*
X109066Y112583D02*
X109492D01*
X109794Y112282D01*
X111024Y111221D02*
X111221D01*
X109794Y112282D02*
X109963D01*
X111024Y111221D01*
X90846Y110039D02*
X102136D01*
X102666Y108760D02*
X104724Y110819D01*
X102136Y110039D02*
X103445Y111349D01*
X90158Y108760D02*
X102666D01*
X104724Y110819D02*
Y112434D01*
X103445Y111349D02*
Y112964D01*
X104724Y112434D02*
X108957Y116666D01*
X99144Y112894D02*
X103188Y116938D01*
X104218D02*
X104519Y117239D01*
X103188Y116938D02*
X104218D01*
X98425Y116142D02*
Y118065D01*
X98524Y118164D01*
Y118209D01*
X56429Y81693D02*
X57414Y82677D01*
X35433Y81693D02*
X56429D01*
X32283Y57874D02*
X54429Y80020D01*
X56566D01*
X57255Y80709D01*
X98356Y66437D02*
X99705D01*
X96494Y68299D02*
Y70828D01*
X98425Y68178D02*
X98887Y67716D01*
X98425Y68178D02*
Y70866D01*
X98887Y67716D02*
X103399D01*
X106154Y64961D01*
X96494Y68299D02*
X98356Y66437D01*
X96457Y70866D02*
X96494Y70828D01*
X99705Y66437D02*
X102165Y63976D01*
X102362D01*
X106942D02*
X107139D01*
X106154Y64764D02*
X106942Y63976D01*
X106154Y64764D02*
Y64961D01*
X135830Y129738D02*
X145768Y139676D01*
X113976Y104331D02*
X135830Y126184D01*
Y129738D01*
X106299Y104331D02*
X113976D01*
X111811Y156693D02*
X113091Y155413D01*
Y141465D02*
Y155413D01*
X94488Y121053D02*
X114961Y141525D01*
Y156693D01*
X92520Y120894D02*
X113091Y141465D01*
X62947Y106299D02*
X63045Y106201D01*
X63091D01*
X65354Y103937D01*
X59100Y106299D02*
X62947D01*
X53543Y107185D02*
X58214D01*
X53445Y107087D02*
X53543Y107185D01*
X58214D02*
X59100Y106299D01*
X53248Y107087D02*
X53445D01*
X63242Y94783D02*
X66200D01*
X68369Y92615D01*
X62947Y94488D02*
X63242Y94783D01*
X65670Y93504D02*
X67089Y92085D01*
X63931Y93504D02*
X65670D01*
X62947Y92520D02*
X63931Y93504D01*
X61024Y94488D02*
X62947D01*
X68369Y79983D02*
Y92615D01*
X48228Y59842D02*
X68369Y79983D01*
X67089Y80513D02*
Y92085D01*
X44914Y58337D02*
X67089Y80513D01*
X48228Y50817D02*
Y59842D01*
X44914Y50425D02*
Y58337D01*
X24008Y57874D02*
X32283D01*
X54959Y78740D02*
X61024D01*
X32814Y56595D02*
X54959Y78740D01*
X24538Y56595D02*
X32814D01*
X40551Y25787D02*
X41142D01*
X49508Y37894D02*
Y39469D01*
X48228Y38424D02*
Y45472D01*
X38916Y32579D02*
X42383D01*
X48228Y38424D01*
X49508Y39469D02*
X52484Y42444D01*
X29745Y114229D02*
Y115126D01*
X12205Y1181D02*
Y6890D01*
X10039Y9055D02*
X12205Y6890D01*
X4724Y5315D02*
Y7480D01*
Y3150D02*
Y5315D01*
X61221Y45079D02*
X61221Y45079D01*
X64567D01*
X64567Y45079D01*
X36614Y45079D02*
X36614Y45079D01*
X33268Y45079D02*
X36614D01*
X33268Y45079D02*
X33268Y45079D01*
X5315Y45079D02*
X5315Y45079D01*
X8661D01*
X8661Y45079D01*
X45748Y152441D02*
Y152441D01*
X44002Y154187D02*
X45748Y152441D01*
X43701Y155315D02*
X44002Y155014D01*
Y154187D02*
Y155014D01*
X61024Y108268D02*
Y128746D01*
X49803Y110531D02*
Y121457D01*
Y110531D02*
X53248Y107087D01*
X7480Y123895D02*
Y125197D01*
Y123895D02*
X9249Y122126D01*
X10788D01*
X72835Y114272D02*
X77484Y109622D01*
X78188D02*
X78445Y109365D01*
X72835Y114272D02*
Y116142D01*
X77484Y109622D02*
X78188D01*
X49803Y131595D02*
X52953Y128445D01*
X70866Y66142D02*
Y70866D01*
X69882Y65158D02*
X70866Y66142D01*
X69882Y64961D02*
Y65158D01*
X6768Y24234D02*
X9055Y21947D01*
Y16142D02*
Y21947D01*
X6768Y24234D02*
Y28120D01*
X4331Y19488D02*
X4724Y19094D01*
X4331Y19488D02*
Y24213D01*
X11063Y29331D02*
Y39921D01*
Y26575D02*
Y29331D01*
X6768Y28120D02*
X7979Y29331D01*
X11063D01*
X28455Y29331D02*
X29724Y28061D01*
X26742Y29331D02*
X28455D01*
X29724Y26575D02*
X30512Y25787D01*
X29724Y26575D02*
Y28061D01*
X30512Y25787D02*
X31457D01*
X25532Y24309D02*
Y28120D01*
X26742Y29331D01*
X25532Y24309D02*
X27953Y21888D01*
Y16142D02*
Y21888D01*
X44429Y24309D02*
Y28120D01*
X48622Y26575D02*
Y28061D01*
X49409Y25787D02*
X50000D01*
X45640Y29331D02*
X47353D01*
X48622Y28061D01*
Y26575D02*
X49409Y25787D01*
X44429Y28120D02*
X45640Y29331D01*
X43701Y16142D02*
Y23228D01*
X41142Y25787D02*
X43701Y23228D01*
X111221Y115157D02*
X115551D01*
X141535Y96457D02*
X153740Y108661D01*
X106299Y96457D02*
X141535D01*
X84646Y114272D02*
Y116142D01*
Y114272D02*
X90158Y108760D01*
X97759Y86516D02*
X97858Y86614D01*
X90650Y86516D02*
X97759D01*
X90551Y86614D02*
X90650Y86516D01*
X94488Y116142D02*
Y121053D01*
X92520Y116142D02*
Y120894D01*
X110728Y85138D02*
X113976D01*
X76736Y116178D02*
X76772Y116142D01*
X76736Y116178D02*
Y119790D01*
X76700Y119827D02*
X76736Y119790D01*
X79252Y119542D02*
X79554Y119843D01*
X79252Y118577D02*
Y119542D01*
X78740Y116142D02*
Y118065D01*
X79252Y118577D01*
X97028Y120243D02*
Y120669D01*
X96457Y116142D02*
X96470Y116155D01*
Y119685D02*
X97028Y120243D01*
X96470Y116155D02*
Y119685D01*
X76736Y122464D02*
X76772Y122500D01*
X76736Y119863D02*
Y122464D01*
X76700Y119827D02*
X76736Y119863D01*
X158496Y98654D02*
X158661Y98819D01*
X153191Y98654D02*
X158496D01*
X144292Y94488D02*
X152462Y102657D01*
X106299Y94488D02*
X144292D01*
X152462Y102657D02*
X162781D01*
X106299Y92520D02*
X144133D01*
X152992Y101378D01*
X164106D01*
X35138Y137402D02*
X39862Y132677D01*
X40157D01*
X40945Y131890D01*
X44980D01*
X42717Y128543D02*
X49803Y121457D01*
X44980Y131890D02*
X45768Y132677D01*
X45817D01*
X31299Y82372D02*
Y95669D01*
X29794Y80866D02*
X31299Y82372D01*
X26359Y80866D02*
X29794D01*
X25788Y77933D02*
Y80295D01*
X26359Y80866D01*
X25788Y92933D02*
X27816D01*
X28544Y93660D01*
Y96063D01*
X31102Y98622D01*
X45866Y83858D02*
X50394D01*
X44094Y85630D02*
X45866Y83858D01*
X43898Y85630D02*
X44094D01*
X54921Y83858D02*
X54921Y83858D01*
X50394Y83858D02*
X54921D01*
X61024Y92520D02*
X62947D01*
X64596Y91228D02*
X65022D01*
X61061Y90589D02*
X63956D01*
X64596Y91228D01*
X61024Y90551D02*
X61061Y90589D01*
X61024Y88583D02*
X61061Y88545D01*
X64605D01*
X64764Y88386D01*
X74606Y57677D02*
Y58103D01*
X75886Y59383D01*
Y66567D01*
X163484Y103415D02*
X165354Y105285D01*
X165090Y102362D02*
X165354D01*
X165354Y105285D02*
Y105512D01*
X163484Y103361D02*
Y103415D01*
X162781Y102657D02*
X163484Y103361D01*
X164106Y101378D02*
X165090Y102362D01*
X153740Y108661D02*
X165354D01*
X60986Y86652D02*
X61024Y86614D01*
X58262Y86652D02*
X60986D01*
X58208Y86707D02*
X58262Y86652D01*
X57573Y86707D02*
X58208D01*
X57480Y86614D02*
X57573Y86707D01*
X55671Y84608D02*
X60986D01*
X54921Y83858D02*
X55671Y84608D01*
X60986D02*
X61024Y84646D01*
X5315Y45079D02*
X5315Y45079D01*
X2461Y45079D02*
X5315D01*
X2461Y45079D02*
X2461Y45079D01*
X21654Y25787D02*
Y30512D01*
Y39764D01*
X16486Y29006D02*
X20276Y32795D01*
X16486Y22623D02*
Y29006D01*
X20276Y32795D02*
Y44291D01*
X3740Y47638D02*
X5315D01*
X16961Y50827D02*
X24008Y57874D01*
X20488Y52545D02*
X24538Y56595D01*
X4724Y19094D02*
X4921D01*
X6988Y17028D01*
Y16567D02*
Y17028D01*
Y16567D02*
X6988Y16567D01*
Y9547D02*
Y16567D01*
X4921Y7480D02*
X6988Y9547D01*
X4724Y7480D02*
X4921D01*
X57414Y82677D02*
X61024D01*
X57255Y80709D02*
X61024D01*
X68898Y69049D02*
Y70866D01*
X67768Y67919D02*
X68898Y69049D01*
X66837Y67919D02*
X67768D01*
X66535Y67618D02*
X66837Y67919D01*
X14107Y50357D02*
Y50390D01*
X20488Y51030D02*
Y52545D01*
X14107Y50357D02*
X16105Y48359D01*
X17817D01*
X16961Y50425D02*
Y50827D01*
X17817Y48359D02*
X20488Y51030D01*
X45866Y48455D02*
X48228Y50817D01*
X61024Y98425D02*
X71031D01*
X61024Y100394D02*
X70932D01*
X71031Y98425D02*
X71424Y98032D01*
X71850D01*
X70932Y100394D02*
X71424Y100886D01*
X71850D01*
X45866Y40157D02*
Y48455D01*
X48228Y45472D02*
X50469Y47713D01*
X55633D01*
X74508Y54278D02*
X77461Y57231D01*
X74803Y67650D02*
X75886Y66567D01*
X74803Y67650D02*
Y70866D01*
X76772Y67491D02*
X77461Y66802D01*
Y57231D02*
Y66802D01*
X76772Y67491D02*
Y70866D01*
X78740Y56701D02*
Y70866D01*
X75787Y53748D02*
X78740Y56701D01*
X81595Y62926D02*
X82677Y61844D01*
Y61417D02*
Y61844D01*
X77067Y53218D02*
X80315Y56466D01*
X81595Y65226D02*
X82677Y66309D01*
X81595Y62926D02*
Y65226D01*
X80315Y56466D02*
Y65756D01*
X82677Y66309D02*
Y70866D01*
X80709Y66150D02*
Y70866D01*
X80315Y65756D02*
X80709Y66150D01*
X70012Y50357D02*
X72010Y48359D01*
X70866Y40157D02*
Y43693D01*
X75787Y50423D02*
Y53748D01*
X73722Y48359D02*
X75787Y50423D01*
X70866Y43693D02*
X77067Y49893D01*
X74508Y52125D02*
Y54278D01*
X72866Y50483D02*
X74508Y52125D01*
X70012Y50357D02*
Y50390D01*
X72866Y50425D02*
Y50483D01*
X77067Y49893D02*
Y53218D01*
X72010Y48359D02*
X73722D01*
X80407Y52848D02*
X80649D01*
X80727Y52770D01*
X79921Y53150D02*
X80315Y52756D01*
X80727Y52770D02*
X83647D01*
X80223Y52061D02*
Y52848D01*
Y52061D02*
X82087Y50197D01*
X80315Y52756D02*
X80407Y52848D01*
X82087Y50197D02*
X83661D01*
X75984Y35630D02*
Y45276D01*
X78347Y47638D01*
X83661D01*
X71653Y28937D02*
X77756Y35039D01*
Y39173D02*
X81027Y42444D01*
X77756Y35039D02*
Y39173D01*
X80512Y38780D02*
X80610D01*
X81988Y37402D01*
X80610Y38780D02*
X80799D01*
X70669Y30315D02*
X75984Y35630D01*
X81027Y42444D02*
X83586D01*
X59449Y25787D02*
X60039D01*
X62599Y23228D01*
X63189Y28937D02*
X71653D01*
X55315Y30315D02*
X70669D01*
X60039Y25787D02*
X63189Y28937D01*
X80315Y45079D02*
X80315Y45079D01*
X83661D01*
X83661Y45079D01*
X67520Y37196D02*
Y45472D01*
X61388Y32874D02*
X66240Y37727D01*
X54785Y31594D02*
X61918D01*
X66240Y37727D02*
Y39862D01*
X54255Y32874D02*
X61388D01*
X61918Y31594D02*
X67520Y37196D01*
X52658Y29467D02*
X54785Y31594D01*
X54085Y29085D02*
X55315Y30315D01*
X51142Y29761D02*
X54255Y32874D01*
X50354Y25787D02*
X51142Y26575D01*
Y29761D01*
X61221Y47638D02*
X65354D01*
X67520Y45472D01*
X64370Y41732D02*
X66240Y39862D01*
X64069Y42034D02*
X64370Y41732D01*
X52484Y42444D02*
X55633D01*
X52559Y35630D02*
X54058Y37129D01*
X54240Y37402D02*
X55709D01*
X55226Y37356D02*
X55453Y37583D01*
X54058Y37220D02*
X54195Y37356D01*
X55226D01*
X54058Y37129D02*
Y37220D01*
X55709Y45079D02*
X55709Y45079D01*
X52362Y45079D02*
X52362Y45079D01*
X55709D01*
X55633Y47713D02*
X55709Y47638D01*
X36978D02*
X39961Y44655D01*
X35187Y20706D02*
X37875Y18018D01*
X35187Y20706D02*
Y28850D01*
X33760Y18171D02*
Y29232D01*
X12498Y29561D02*
X14862Y27197D01*
X12498Y29561D02*
Y44982D01*
X36292Y42448D02*
X38242Y40499D01*
X33268Y47638D02*
X36978D01*
X33607Y18018D02*
X33760Y18171D01*
X33339Y42448D02*
X36292D01*
X33268Y42520D02*
X33339Y42448D01*
X31457Y25787D02*
X32244Y26575D01*
Y29867D01*
X24657Y38729D02*
X24843D01*
X21654Y39764D02*
X24334Y42444D01*
X24705Y38780D02*
X26083Y37402D01*
X24843Y38729D02*
X26075Y39961D01*
X26083Y37402D02*
X27756D01*
X20276Y44291D02*
X23622Y47638D01*
X27756D01*
X24334Y42444D02*
X27681D01*
X21654Y25787D02*
X22244D01*
X9474Y48006D02*
X12498Y44982D01*
X18728Y18267D02*
Y20380D01*
X16486Y22623D02*
X18728Y20380D01*
X14862Y18171D02*
Y27197D01*
X18728Y18267D02*
X18977Y18018D01*
X7365Y48006D02*
X9474D01*
X14710Y18018D02*
X14862Y18171D01*
X8465Y42520D02*
X11063Y39921D01*
X5315Y42520D02*
X8465D01*
X11850Y25787D02*
X12205D01*
X11063Y26575D02*
X11850Y25787D01*
X142343Y9863D02*
X142362Y9843D01*
X142323Y9883D02*
X142343Y9863D01*
X151555D01*
X151575Y9843D01*
X142362Y5158D02*
X142402Y5118D01*
X142362Y5158D02*
Y9843D01*
X144095Y1181D02*
Y1607D01*
X142854Y2848D02*
X144095Y1607D01*
X142854Y2848D02*
Y4666D01*
X142402Y5118D02*
X142854Y4666D01*
X72835Y66142D02*
Y70866D01*
Y66142D02*
X73819Y65158D01*
Y64961D02*
Y65158D01*
X68898Y116142D02*
Y121653D01*
X67913Y122638D02*
X68898Y121653D01*
X67913Y122638D02*
Y122835D01*
X50748Y146922D02*
X52953Y144718D01*
Y144291D02*
Y144718D01*
X50748Y146922D02*
Y147441D01*
X40748Y147146D02*
Y147441D01*
Y147146D02*
X43307Y144587D01*
Y144291D02*
Y144587D01*
X45748Y147106D02*
Y147441D01*
Y147106D02*
X48228Y144626D01*
Y144291D02*
Y144626D01*
X97933Y133957D02*
X101673D01*
X96949Y134941D02*
X97933Y133957D01*
X78248Y134941D02*
X96949D01*
X77051Y136221D02*
X100591D01*
X100787Y136417D01*
X54036Y130512D02*
X54134D01*
X51821Y132677D02*
X51870D01*
X54036Y130512D01*
X49803Y131595D02*
Y131644D01*
X101673Y133957D02*
X104134Y136417D01*
X75476Y134646D02*
X77051Y136221D01*
X51821Y134646D02*
X75476D01*
X145768Y139676D02*
Y154664D01*
X146155Y156392D02*
X146457Y156693D01*
X142991Y133977D02*
X147047Y138033D01*
Y154134D02*
X149606Y156693D01*
X147047Y138033D02*
Y154134D01*
X146155Y155052D02*
Y156392D01*
X145768Y154664D02*
X146155Y155052D01*
X86811Y129134D02*
X87008Y129331D01*
Y132874D01*
X128740Y82677D02*
X131496D01*
X106299Y82677D02*
X122441D01*
X122441Y82677D01*
X113681Y80413D02*
X113779Y80512D01*
X153347Y105118D02*
X158661D01*
X152950Y137399D02*
Y142690D01*
X47835Y131693D02*
Y133809D01*
Y131644D02*
Y131693D01*
Y133809D02*
X49754Y135728D01*
Y137599D01*
X49803Y137648D01*
X45817Y132677D02*
X46112Y132382D01*
X47146D01*
X47835Y131693D01*
X34941Y130709D02*
X35039Y130610D01*
Y123819D02*
Y130610D01*
X44488Y107677D02*
X44696Y107885D01*
X47735D01*
X160881Y127362D02*
X161030Y127512D01*
X153135Y127362D02*
X160881D01*
X151778Y131252D02*
X151940Y131414D01*
X155905D01*
X106299Y78740D02*
X108169D01*
X109640Y77270D01*
X110132D01*
X110433Y76968D01*
X109454Y80671D02*
X110302Y79823D01*
X110491Y85523D02*
X110652D01*
X109613Y84646D02*
X110491Y85523D01*
X110302Y79823D02*
X110433D01*
X110728Y80413D02*
X113681D01*
X110433Y80118D02*
X110728Y80413D01*
X106299Y80709D02*
X106337Y80671D01*
X109454D01*
X110630Y85236D02*
X110728Y85138D01*
X106299Y84646D02*
X109613D01*
X92717Y88583D02*
X106299D01*
X92716Y88583D02*
X92717Y88583D01*
X106299D02*
X106299Y88583D01*
X94193Y74409D02*
Y77363D01*
X96681Y74929D02*
Y76808D01*
X94488Y72736D02*
X96681Y74929D01*
X94488Y70866D02*
Y72736D01*
X93962Y77594D02*
X94193Y77363D01*
X96681Y76808D02*
X96983Y77109D01*
X92520Y70866D02*
Y72736D01*
X94193Y74409D01*
X94488Y66929D02*
Y70866D01*
Y66929D02*
X97441Y63976D01*
X97638D01*
X92520Y70866D02*
X92557Y70828D01*
Y64332D02*
Y70828D01*
Y64332D02*
X92913Y63976D01*
X90551Y66765D02*
Y70866D01*
X89370Y65584D02*
X90551Y66765D01*
X89370Y65158D02*
Y65584D01*
X83661Y64370D02*
Y64796D01*
X84646Y65781D01*
Y70866D01*
X44488Y115945D02*
X47736D01*
X82715Y110986D02*
X82874Y110827D01*
X80746Y106262D02*
Y116104D01*
X80709Y116142D02*
X80746Y116104D01*
Y106262D02*
X80989Y106019D01*
X82715Y110986D02*
Y116104D01*
X82677Y116142D02*
X82715Y116104D01*
X88583Y70866D02*
X88620Y70904D01*
Y73824D01*
X89173Y74377D01*
Y74803D01*
X86576Y70904D02*
X86614Y70866D01*
X86576Y70904D02*
Y73627D01*
X76606Y112469D02*
X77842D01*
X78110Y112200D01*
X74867Y114207D02*
X76606Y112469D01*
X74867Y114207D02*
Y116077D01*
X74803Y116142D02*
X74867Y116077D01*
X57284Y105118D02*
X57585Y104817D01*
X58614D01*
X57284Y102165D02*
X57443Y102324D01*
X60986D01*
X86614Y114272D02*
X90846Y110039D01*
X86614Y114272D02*
Y116142D01*
Y122638D01*
X86811Y122835D01*
X90615Y114207D02*
X91929Y112894D01*
X100952Y112205D02*
X101378D01*
X91929Y112894D02*
X99144D01*
X90551Y116142D02*
X90615Y116077D01*
X88583Y114272D02*
Y116142D01*
X91240Y111614D02*
X100361D01*
X90615Y114207D02*
Y116077D01*
X88583Y114272D02*
X91240Y111614D01*
X100361D02*
X100952Y112205D01*
X106299Y98425D02*
X113976D01*
X152950Y137399D01*
X97858Y86614D02*
X106299D01*
Y106299D02*
X110454D01*
X114567Y110412D01*
Y110433D02*
X115354Y111221D01*
X115551D01*
X114567Y110412D02*
Y110433D01*
X25601Y116547D02*
X28324D01*
X29745Y115126D01*
X31093Y101547D02*
X31102Y101538D01*
X25601Y101547D02*
X31093D01*
X6624Y83199D02*
X6890Y82933D01*
X1447Y83199D02*
X6624D01*
X1181Y83465D02*
X1447Y83199D01*
X6624Y87667D02*
X6890Y87933D01*
X1447Y87667D02*
X6624D01*
X1181Y87402D02*
X1447Y87667D01*
X6392Y111256D02*
X6693Y111557D01*
X2233Y111256D02*
X6392D01*
X1607Y110630D02*
X2233Y111256D01*
X1181Y110630D02*
X1607D01*
X6392Y106859D02*
X6693Y106557D01*
X2229Y106859D02*
X6392D01*
X1607Y107480D02*
X2229Y106859D01*
X1181Y107480D02*
X1607D01*
X37795Y115945D02*
X38189Y116339D01*
X40846D01*
X37795Y107677D02*
X37992Y107874D01*
X40846D01*
X61024Y96457D02*
X61024Y96457D01*
X57284Y96457D02*
X61024D01*
X57284Y96457D02*
X57284Y96457D01*
X60986Y102324D02*
X61024Y102362D01*
X58614Y104817D02*
X59100Y104331D01*
X61024D01*
X55453Y39779D02*
X55635Y39961D01*
X55709D01*
X55453Y37583D02*
Y39779D01*
X64075Y38583D02*
X64173D01*
X62894Y37402D02*
X64075Y38583D01*
X61221Y37402D02*
X62894D01*
X64173Y38583D02*
Y38583D01*
X62795Y39961D02*
X64173Y38583D01*
X61221Y39961D02*
X62795D01*
X81988Y37402D02*
X83661D01*
X80799Y38780D02*
X81980Y39961D01*
X83661D01*
X62902Y42520D02*
X63388Y42034D01*
X61221Y42520D02*
X62902D01*
X83586Y42444D02*
X83661Y42520D01*
X63388Y42034D02*
X64069D01*
X61296Y50272D02*
X63766D01*
X61221Y50197D02*
X61296Y50272D01*
Y52681D02*
X63745D01*
X64633Y51140D02*
Y51792D01*
X63766Y50272D02*
X64633Y51140D01*
X63745Y52681D02*
X64633Y51792D01*
X61221Y52756D02*
X61296Y52681D01*
X64578Y51847D02*
X65173Y52442D01*
X83647Y52770D02*
X83661Y52756D01*
X36122Y38583D02*
X36220D01*
X34941Y37402D02*
X36122Y38583D01*
X33268Y37402D02*
X34941D01*
X36220Y38583D02*
Y38583D01*
X34843Y39961D02*
X36220Y38583D01*
X33268Y39961D02*
X34843D01*
X55633Y42444D02*
X55709Y42520D01*
X33343Y50272D02*
X35813D01*
X33268Y50197D02*
X33343Y50272D01*
Y52681D02*
X35792D01*
X36681Y51140D02*
Y51792D01*
X35813Y50272D02*
X36681Y51140D01*
X35792Y52681D02*
X36681Y51792D01*
X33268Y52756D02*
X33343Y52681D01*
X36625Y51847D02*
X37220Y52442D01*
X54134Y50197D02*
X55709D01*
X52270Y52061D02*
Y52848D01*
Y52061D02*
X54134Y50197D01*
X52362Y52756D02*
X52455Y52848D01*
X52696D01*
X52774Y52770D01*
X51968Y53150D02*
X52362Y52756D01*
X55695Y52770D02*
X55709Y52756D01*
X52774Y52770D02*
X55695D01*
X24822D02*
X27742D01*
X27756Y52756D01*
X24016Y53150D02*
X24409Y52756D01*
X24743Y52848D02*
X24822Y52770D01*
X24502Y52848D02*
X24743D01*
X24409Y52756D02*
X24502Y52848D01*
X24317Y52061D02*
X26181Y50197D01*
X24317Y52061D02*
Y52848D01*
X26181Y50197D02*
X27756D01*
X27756Y45079D02*
X27756Y45079D01*
X24409Y45079D02*
X24409Y45079D01*
X27756D01*
X8673Y51847D02*
X9267Y52442D01*
X5315Y52756D02*
X5390Y52681D01*
X7840D02*
X8728Y51792D01*
X7860Y50272D02*
X8728Y51140D01*
Y51792D01*
X5315Y47638D02*
X6996D01*
X5390Y52681D02*
X7840D01*
X6996Y47638D02*
X7365Y48006D01*
X5315Y50197D02*
X5390Y50272D01*
X7860D01*
X27681Y42444D02*
X27756Y42520D01*
X26075Y39961D02*
X27756D01*
X5315D02*
X6890D01*
X8268Y38583D01*
Y38583D02*
Y38583D01*
X5315Y37402D02*
X6988D01*
X8169Y38583D01*
X8268D01*
X62599Y16142D02*
Y23228D01*
X56917Y18163D02*
X59304D01*
X59449Y18307D01*
X56772Y18018D02*
X56917Y18163D01*
X31665Y18163D02*
X33463D01*
X31607Y18221D02*
X31665Y18163D01*
X33463D02*
X33607Y18018D01*
X38019Y18163D02*
X40407D01*
X40551Y18307D01*
X37875Y18018D02*
X38019Y18163D01*
X22244Y25787D02*
X24803Y23228D01*
Y16142D02*
Y23228D01*
X12768Y18163D02*
X14565D01*
X12709Y18221D02*
X12768Y18163D01*
X14565D02*
X14710Y18018D01*
X19121Y18163D02*
X21509D01*
X21654Y18307D01*
X18977Y18018D02*
X19121Y18163D01*
X61811Y9055D02*
X62008D01*
X64173Y6890D01*
Y1181D02*
Y6890D01*
X57087Y9055D02*
X57284D01*
X59449Y6890D01*
Y1181D02*
Y6890D01*
X52362Y9055D02*
X52559D01*
X54725Y6890D01*
Y1181D02*
Y6890D01*
X47638Y9055D02*
X47835D01*
X50000Y6890D01*
Y1181D02*
Y6890D01*
X43031Y9055D02*
X43228D01*
X45276Y7008D01*
Y1181D02*
Y7008D01*
X40551Y1181D02*
Y6890D01*
X38386Y9055D02*
X40551Y6890D01*
X38189Y9055D02*
X38386D01*
X33465D02*
X33661D01*
X35827Y6890D01*
Y1181D02*
Y6890D01*
X28740Y9055D02*
X28937D01*
X31102Y6890D01*
Y1181D02*
Y6890D01*
X24016Y9055D02*
X24213D01*
X26378Y6890D01*
Y1181D02*
Y6890D01*
X19291Y9055D02*
X19488D01*
X21654Y6890D01*
Y1181D02*
Y6890D01*
X14567Y9055D02*
X14764D01*
X16929Y6890D01*
Y1181D02*
Y6890D01*
X9843Y9055D02*
X10039D01*
X2756Y1181D02*
Y1181D01*
X4724Y3150D01*
D18*
X37303Y27770D02*
X38204Y28671D01*
X37303Y24133D02*
Y27770D01*
X38204Y28671D02*
Y28777D01*
X53937Y153859D02*
X57371D01*
X52354Y153740D02*
X53937D01*
X1181Y156693D02*
X5866Y152008D01*
X61811Y156693D02*
X61886Y156618D01*
Y152824D02*
Y156618D01*
Y152824D02*
X62979Y151731D01*
Y144062D02*
Y151731D01*
X121844Y99612D02*
X121850Y99606D01*
X118904Y99612D02*
X121844D01*
X118898Y99618D02*
X118904Y99612D01*
X30937Y122311D02*
Y133594D01*
X34941Y137402D02*
X35138D01*
X28114Y119488D02*
X30937Y122311D01*
X34744Y137402D02*
X34941D01*
X30937Y133594D02*
X34744Y137402D01*
X53758Y141339D02*
X59667Y147247D01*
Y151564D01*
X42126Y141339D02*
X53758D01*
X57305Y22244D02*
X59252D01*
X56152Y23397D02*
Y28150D01*
Y23397D02*
X57305Y22244D01*
X59252D02*
X59449Y22047D01*
X38306Y23130D02*
X38878D01*
X37303Y24133D02*
X38306Y23130D01*
X39764Y22244D02*
X40354D01*
X40551Y22047D01*
X38878Y23130D02*
X39764Y22244D01*
X18478Y27514D02*
Y28074D01*
X18553Y28150D01*
X18356Y27392D02*
X18478Y27514D01*
X18356Y23397D02*
Y27392D01*
X19509Y22244D02*
X21457D01*
X21654Y22047D01*
X18356Y23397D02*
X19509Y22244D01*
X35138Y137402D02*
X39000Y141263D01*
X42051D01*
X156691Y152139D02*
X156692Y152137D01*
Y149017D02*
Y152137D01*
Y149017D02*
X156693Y149016D01*
X16535Y123130D02*
Y125197D01*
X10038Y116633D02*
X16535Y123130D01*
X6769Y116633D02*
X10038D01*
X6693Y116557D02*
X6769Y116633D01*
X20177Y119488D02*
X28114D01*
X16535Y123130D02*
X20177Y119488D01*
X16535Y125197D02*
Y149606D01*
X16535Y149606D01*
X50748Y152441D02*
X51054D01*
X52354Y153740D01*
X57371Y153859D02*
X59667Y151564D01*
X14134Y152008D02*
X16535Y149606D01*
X5866Y152008D02*
X14134D01*
D19*
X50394Y87795D02*
D03*
Y83858D02*
D03*
X4724Y11417D02*
D03*
Y7480D02*
D03*
X151575Y13780D02*
D03*
Y9843D02*
D03*
X142323Y9883D02*
D03*
Y13820D02*
D03*
X146850D02*
D03*
Y9883D02*
D03*
X53445Y107087D02*
D03*
Y111024D02*
D03*
X107139Y60039D02*
D03*
Y63976D02*
D03*
X54921Y83858D02*
D03*
Y87795D02*
D03*
X102362Y60039D02*
D03*
Y63976D02*
D03*
X97638D02*
D03*
Y60039D02*
D03*
X92913Y63976D02*
D03*
Y60039D02*
D03*
X76772Y122500D02*
D03*
Y126437D02*
D03*
X111221Y115157D02*
D03*
Y111221D02*
D03*
X115551D02*
D03*
Y115157D02*
D03*
X47638Y9055D02*
D03*
Y5118D02*
D03*
X61811Y9055D02*
D03*
X61811Y5118D02*
D03*
X156102Y13780D02*
D03*
Y9843D02*
D03*
X4331Y28150D02*
D03*
Y24213D02*
D03*
X9843Y9055D02*
D03*
Y12992D02*
D03*
X14567Y9055D02*
D03*
Y12992D02*
D03*
X19291Y9055D02*
D03*
Y12992D02*
D03*
X24016Y9055D02*
D03*
Y12992D02*
D03*
X9843Y9055D02*
D03*
Y5118D02*
D03*
X14567Y9055D02*
D03*
Y5118D02*
D03*
X19291Y9055D02*
D03*
Y5118D02*
D03*
X24016Y9055D02*
D03*
Y5118D02*
D03*
X28740Y9055D02*
D03*
Y12992D02*
D03*
X33465Y9055D02*
D03*
Y12992D02*
D03*
X38189Y9055D02*
D03*
X38189Y12992D02*
D03*
X43031Y9055D02*
D03*
Y12992D02*
D03*
X28740Y9055D02*
D03*
Y5118D02*
D03*
X33465Y9055D02*
D03*
Y5118D02*
D03*
X38189Y9055D02*
D03*
X38189Y5118D02*
D03*
X42913Y9055D02*
D03*
Y5118D02*
D03*
X47638Y9055D02*
D03*
Y12992D02*
D03*
X52362Y9055D02*
D03*
Y12992D02*
D03*
X57087Y9055D02*
D03*
Y12992D02*
D03*
X61811Y9055D02*
D03*
Y12992D02*
D03*
X52362Y9055D02*
D03*
X52362Y5118D02*
D03*
X57087Y9055D02*
D03*
Y5118D02*
D03*
X4724Y19094D02*
D03*
Y15157D02*
D03*
X40945Y131890D02*
D03*
Y135827D02*
D03*
D20*
X43898Y85630D02*
D03*
Y92323D02*
D03*
D21*
X122441Y82677D02*
D03*
X128740D02*
D03*
D22*
X69882Y64961D02*
D03*
X73819D02*
D03*
X71850Y122835D02*
D03*
X67913D02*
D03*
X117913Y80315D02*
D03*
X113976D02*
D03*
X117913Y85433D02*
D03*
X113976D02*
D03*
X35039Y123228D02*
D03*
X38976D02*
D03*
D23*
X61024Y108268D02*
D03*
Y106299D02*
D03*
Y104331D02*
D03*
Y102362D02*
D03*
Y100394D02*
D03*
Y98425D02*
D03*
Y96457D02*
D03*
Y94488D02*
D03*
Y92520D02*
D03*
Y90551D02*
D03*
Y88583D02*
D03*
Y86614D02*
D03*
Y84646D02*
D03*
Y82677D02*
D03*
Y80709D02*
D03*
Y78740D02*
D03*
X106299D02*
D03*
Y80709D02*
D03*
Y82677D02*
D03*
Y84646D02*
D03*
Y86614D02*
D03*
Y88583D02*
D03*
Y90551D02*
D03*
Y92520D02*
D03*
Y94488D02*
D03*
Y96457D02*
D03*
Y98425D02*
D03*
Y100394D02*
D03*
Y102362D02*
D03*
Y104331D02*
D03*
Y106299D02*
D03*
Y108268D02*
D03*
D24*
X68898Y70866D02*
D03*
X70866D02*
D03*
X72835D02*
D03*
X74803D02*
D03*
X76772D02*
D03*
X78740D02*
D03*
X80709D02*
D03*
X82677D02*
D03*
X84646D02*
D03*
X86614D02*
D03*
X88583D02*
D03*
X90551D02*
D03*
X92520D02*
D03*
X94488D02*
D03*
X96457D02*
D03*
X98425D02*
D03*
Y116142D02*
D03*
X96457D02*
D03*
X94488D02*
D03*
X92520D02*
D03*
X90551D02*
D03*
X88583D02*
D03*
X86614D02*
D03*
X84646D02*
D03*
X82677D02*
D03*
X80709D02*
D03*
X78740D02*
D03*
X76772D02*
D03*
X74803D02*
D03*
X72835D02*
D03*
X70866D02*
D03*
X68898D02*
D03*
D25*
X121850Y99606D02*
D03*
X128071D02*
D03*
D26*
X86811Y129134D02*
D03*
Y122835D02*
D03*
D27*
X25788Y77933D02*
D03*
Y82933D02*
D03*
Y87933D02*
D03*
Y92933D02*
D03*
X6890Y77933D02*
D03*
Y82933D02*
D03*
Y87933D02*
D03*
Y92933D02*
D03*
X6693Y116557D02*
D03*
X6693Y111557D02*
D03*
X6693Y106557D02*
D03*
Y101557D02*
D03*
X25591Y116557D02*
D03*
X25591Y111557D02*
D03*
X25591Y106557D02*
D03*
Y101557D02*
D03*
D28*
X394Y27559D02*
D03*
D29*
X394Y4528D02*
D03*
D30*
X394Y53937D02*
D03*
D31*
X166142Y3937D02*
D03*
D32*
X394Y101378D02*
D03*
D33*
Y133661D02*
D03*
D34*
X12992Y157480D02*
D03*
D35*
X46457D02*
D03*
D36*
X85236D02*
D03*
D37*
X166142Y26181D02*
D03*
D38*
Y151575D02*
D03*
D39*
X7480Y394D02*
D03*
D40*
X161030Y127512D02*
D03*
X151778Y131252D02*
D03*
D41*
X161030Y134992D02*
D03*
D42*
X7480Y125197D02*
D03*
X25591D02*
D03*
D43*
X16535D02*
D03*
D44*
X16535Y149606D02*
D03*
D45*
X37795Y115945D02*
D03*
X44488Y115945D02*
D03*
X37795Y107677D02*
D03*
X44488D02*
D03*
D46*
X160431Y152139D02*
D03*
X156691D02*
D03*
X152950D02*
D03*
Y142690D02*
D03*
X156691D02*
D03*
X160431D02*
D03*
D47*
X59449Y25787D02*
D03*
Y22047D02*
D03*
Y18307D02*
D03*
X50000Y18307D02*
D03*
Y22047D02*
D03*
X50000Y25787D02*
D03*
X21654D02*
D03*
X21654Y22047D02*
D03*
Y18307D02*
D03*
X12205D02*
D03*
Y22047D02*
D03*
X12205Y25787D02*
D03*
X40551Y25787D02*
D03*
Y22047D02*
D03*
Y18307D02*
D03*
X31102Y18307D02*
D03*
Y22047D02*
D03*
Y25787D02*
D03*
D48*
X126969Y11811D02*
D03*
X109252D02*
D03*
D49*
X142402Y5118D02*
D03*
X4724Y3150D02*
D03*
D50*
X158661Y121653D02*
D03*
Y105118D02*
D03*
Y82284D02*
D03*
Y98819D02*
D03*
D51*
X55709Y37402D02*
D03*
Y39961D02*
D03*
Y42520D02*
D03*
Y45079D02*
D03*
Y47638D02*
D03*
Y50197D02*
D03*
Y52756D02*
D03*
X33268Y37402D02*
D03*
Y39961D02*
D03*
Y42520D02*
D03*
Y45079D02*
D03*
Y47638D02*
D03*
Y50197D02*
D03*
Y52756D02*
D03*
X27756Y37402D02*
D03*
Y39961D02*
D03*
Y42520D02*
D03*
Y45079D02*
D03*
Y47638D02*
D03*
Y50197D02*
D03*
Y52756D02*
D03*
X5315Y37402D02*
D03*
Y39961D02*
D03*
Y42520D02*
D03*
Y45079D02*
D03*
Y47638D02*
D03*
Y50197D02*
D03*
Y52756D02*
D03*
X83661Y37402D02*
D03*
Y39961D02*
D03*
Y42520D02*
D03*
Y45079D02*
D03*
Y47638D02*
D03*
Y50197D02*
D03*
Y52756D02*
D03*
X61221Y37402D02*
D03*
Y39961D02*
D03*
Y42520D02*
D03*
Y45079D02*
D03*
Y47638D02*
D03*
Y50197D02*
D03*
Y52756D02*
D03*
D52*
X45817Y132677D02*
D03*
Y134646D02*
D03*
Y136614D02*
D03*
X51821D02*
D03*
Y134646D02*
D03*
Y132677D02*
D03*
D53*
X47835Y137648D02*
D03*
X49803D02*
D03*
Y131644D02*
D03*
X47835D02*
D03*
D54*
X34941Y130709D02*
D03*
Y137402D02*
D03*
D83*
X50748Y152441D02*
D03*
Y147441D02*
D03*
X45748Y152441D02*
D03*
X45748Y147441D02*
D03*
X40748Y152441D02*
D03*
Y147441D02*
D03*
D84*
X131284Y16281D02*
X149074D01*
X126969Y11965D02*
X131284Y16281D01*
X156102Y13780D02*
X159646D01*
X151575D02*
X156102D01*
X151378D02*
X151575D01*
X149074Y16281D02*
X150984Y14370D01*
Y14173D02*
X151378Y13780D01*
X150984Y14173D02*
Y14370D01*
X126969Y11811D02*
Y11965D01*
X123431Y15503D02*
X126969Y11965D01*
X123277Y15503D02*
X123431D01*
X120276Y18504D02*
X123277Y15503D01*
X61811Y12992D02*
X93307D01*
X98819Y18504D01*
X120276D01*
X109252Y11811D02*
X109449Y11614D01*
Y5906D02*
Y11614D01*
X146830Y13800D02*
X146850Y13820D01*
X144508Y13800D02*
X146830D01*
X144488Y13780D02*
X144508Y13800D01*
X142303D02*
X144528D01*
X159646Y13780D02*
X164354D01*
X7904Y92933D02*
X8268Y93297D01*
X6890Y92933D02*
X7904D01*
X8268Y93297D02*
Y96063D01*
X10038Y116272D02*
Y116633D01*
X61811Y5118D02*
X61846Y5083D01*
Y2918D02*
Y5083D01*
Y2918D02*
X61881Y2882D01*
X57087Y5118D02*
X57122Y5083D01*
Y2918D02*
Y5083D01*
Y2918D02*
X57157Y2882D01*
X52362Y5118D02*
X52397Y5083D01*
Y2918D02*
Y5083D01*
Y2918D02*
X52433Y2882D01*
X47638Y5118D02*
X47673Y5083D01*
Y2918D02*
Y5083D01*
Y2918D02*
X47708Y2882D01*
X42913Y5118D02*
X42949Y5083D01*
Y2918D02*
Y5083D01*
Y2918D02*
X42984Y2882D01*
X38189Y5118D02*
X38224Y5083D01*
Y2918D02*
Y5083D01*
Y2918D02*
X38259Y2882D01*
X33465Y5118D02*
X33500Y5083D01*
Y2918D02*
Y5083D01*
Y2918D02*
X33535Y2882D01*
X28740Y5118D02*
X28775Y5083D01*
Y2918D02*
Y5083D01*
Y2918D02*
X28811Y2882D01*
X24016Y5118D02*
X24051Y5083D01*
Y2918D02*
Y5083D01*
Y2918D02*
X24086Y2882D01*
X19291Y5118D02*
X19327Y5083D01*
Y2918D02*
Y5083D01*
Y2918D02*
X19362Y2882D01*
X14567Y5118D02*
X14602Y5083D01*
Y2918D02*
Y5083D01*
Y2918D02*
X14637Y2882D01*
X9843Y5118D02*
X9878Y5083D01*
Y2918D02*
Y5083D01*
Y2918D02*
X9913Y2882D01*
X41142Y89764D02*
X43701Y92323D01*
X43898D01*
X1181Y11024D02*
X1332Y11174D01*
X4481D01*
X4724Y11417D01*
X4724Y28150D02*
Y30906D01*
X8835Y27264D02*
X8986Y27113D01*
Y24382D02*
Y27113D01*
Y24382D02*
X10041Y23327D01*
X11614Y22047D02*
X12205D01*
X10335Y23327D02*
X11614Y22047D01*
X10041Y23327D02*
X10335D01*
X27599Y27264D02*
X27749Y27113D01*
Y24517D02*
Y27113D01*
X30512Y22047D02*
X31102D01*
X28939Y23327D02*
X29232D01*
X27749Y24517D02*
X28939Y23327D01*
X29232D02*
X30512Y22047D01*
X46496Y27264D02*
X46647Y27113D01*
Y24517D02*
Y27113D01*
Y24517D02*
X47837Y23327D01*
X48130D02*
X49409Y22047D01*
X50000D01*
X47837Y23327D02*
X48130D01*
X158563Y121752D02*
X158661Y121653D01*
X152953Y121850D02*
X153051Y121752D01*
X158563D01*
X73819Y63189D02*
Y64961D01*
X117913Y77559D02*
Y80315D01*
Y77559D02*
X117913Y77559D01*
X117913Y85433D02*
Y88189D01*
X117913Y88189D01*
X54921Y87795D02*
X55315Y87402D01*
X56874D01*
X57267Y87008D01*
X57480D01*
X26378Y12992D02*
X28740D01*
X24016D02*
X26378D01*
X1181Y14961D02*
X1332Y15111D01*
X1888D01*
X1935Y15157D01*
X4724D01*
X156102Y9843D02*
X156102Y9843D01*
X159350D01*
X159350Y9843D01*
X165141Y12992D02*
X165354D01*
X164354Y13780D02*
X165141Y12992D01*
X142303Y13800D02*
X142323Y13820D01*
X57087Y12992D02*
X61811D01*
X52362D02*
X57087D01*
X47638D02*
X52362D01*
X43031D02*
X47638D01*
X33465D02*
X43031D01*
X28740D02*
X33465D01*
X19291D02*
X24016D01*
X14567D02*
X19291D01*
X9843D02*
X14567D01*
X9449Y13386D02*
X9843Y12992D01*
X65354Y122835D02*
X67913D01*
X107139Y63976D02*
X110039D01*
X92913Y60039D02*
X97638D01*
X92913Y57284D02*
Y60039D01*
X25591Y125197D02*
Y140445D01*
Y155693D01*
X24803Y156480D02*
Y156693D01*
Y156480D02*
X25591Y155693D01*
X20276Y87990D02*
X20304Y87962D01*
X25759D01*
X25788Y87933D01*
X4451Y116557D02*
X6693D01*
X4088Y116921D02*
X4451Y116557D01*
X4088Y116921D02*
Y119141D01*
X3937Y119291D02*
X4088Y119141D01*
X25563Y111586D02*
X25591Y111557D01*
X20107Y111586D02*
X25563D01*
X20079Y111614D02*
X20107Y111586D01*
D85*
X165354Y99141D02*
Y99213D01*
X156765Y90551D02*
X165354Y99141D01*
X106299Y90551D02*
X156765D01*
X149706Y136444D02*
Y143304D01*
X108704Y100836D02*
X114097D01*
X148622Y136893D02*
Y143753D01*
X113648Y101920D02*
X148622Y136893D01*
X108704Y101920D02*
X113648D01*
X114097Y100836D02*
X149706Y136444D01*
X153649Y149345D02*
Y152030D01*
X159732Y151440D02*
X160431Y152139D01*
X155726Y146284D02*
X156015Y146572D01*
X151602Y145200D02*
X156175D01*
X151153Y146284D02*
X155726D01*
X152950Y152729D02*
X153649Y152030D01*
X148622Y143753D02*
X151153Y146284D01*
X149706Y143304D02*
X151602Y145200D01*
X156015Y146572D02*
Y146980D01*
X153649Y149345D02*
X156015Y146980D01*
X156175Y145200D02*
X157234Y146258D01*
Y146843D01*
X159732Y149340D01*
Y151440D01*
X106299Y100394D02*
X108261D01*
X108704Y100836D01*
X106299Y102362D02*
X108261D01*
X108704Y101920D01*
X161129Y155112D02*
X162205Y156187D01*
X160431Y152139D02*
X161129Y152837D01*
X157136Y154774D02*
X159055Y156693D01*
X154995Y154774D02*
X157136D01*
X161129Y152837D02*
Y155112D01*
X152950Y152729D02*
X154995Y154774D01*
X162205Y156187D02*
Y156693D01*
D86*
X156691Y142690D02*
X156692Y142689D01*
Y139371D02*
Y142689D01*
Y139371D02*
X156693Y139370D01*
D87*
X133858Y35433D02*
D03*
X153543D02*
D03*
X94488Y23622D02*
D03*
X114173Y35433D02*
D03*
X94488D02*
D03*
X153543Y47244D02*
D03*
X133858D02*
D03*
X114173D02*
D03*
X94488D02*
D03*
X114173Y23622D02*
D03*
X153543D02*
D03*
X133858D02*
D03*
D88*
X61811Y156693D02*
D03*
X1181Y11024D02*
D03*
X165354Y12992D02*
D03*
X99213Y156693D02*
D03*
X162992Y1181D02*
D03*
X158268Y1181D02*
D03*
X153543D02*
D03*
X148819Y1181D02*
D03*
X144095Y1181D02*
D03*
X59449D02*
D03*
X139764D02*
D03*
X135039D02*
D03*
X130315Y1181D02*
D03*
X125591Y1181D02*
D03*
X120866D02*
D03*
X116142Y1181D02*
D03*
X111417Y1181D02*
D03*
X106693D02*
D03*
X78347D02*
D03*
X73622Y1181D02*
D03*
X68898Y1181D02*
D03*
X83071D02*
D03*
X101969D02*
D03*
X87795D02*
D03*
X97244D02*
D03*
X92520D02*
D03*
X31102D02*
D03*
X35827D02*
D03*
X40551Y1181D02*
D03*
X45276Y1181D02*
D03*
X68110Y156693D02*
D03*
X2756Y1181D02*
D03*
X12205D02*
D03*
X118110Y156693D02*
D03*
X21654Y1181D02*
D03*
X165354Y39370D02*
D03*
Y42520D02*
D03*
X96063Y156693D02*
D03*
X16929Y1181D02*
D03*
X105512Y156693D02*
D03*
X26378Y1181D02*
D03*
X102362Y156693D02*
D03*
X108661Y156693D02*
D03*
X50000Y1181D02*
D03*
X149606Y156693D02*
D03*
X54725Y1181D02*
D03*
X146457Y156693D02*
D03*
X64173Y1181D02*
D03*
X143307Y156693D02*
D03*
X165354Y77165D02*
D03*
X114961Y156693D02*
D03*
X165354Y111811D02*
D03*
X111811Y156693D02*
D03*
X165354Y89764D02*
D03*
X165354Y121260D02*
D03*
X71260Y156693D02*
D03*
X165354Y118110D02*
D03*
X74410Y156693D02*
D03*
X165354Y83465D02*
D03*
Y86614D02*
D03*
X124409Y156693D02*
D03*
X165354Y124409D02*
D03*
X121260Y156693D02*
D03*
X165354Y130709D02*
D03*
X165354Y80315D02*
D03*
X155905Y156693D02*
D03*
X165354Y133858D02*
D03*
Y156693D02*
D03*
Y114961D02*
D03*
X162205Y156693D02*
D03*
X165354Y127559D02*
D03*
X159055Y156693D02*
D03*
X165354Y64567D02*
D03*
X165354Y92913D02*
D03*
X137008Y156693D02*
D03*
X165354Y96063D02*
D03*
X127559Y156693D02*
D03*
X165354Y99213D02*
D03*
X130709Y156693D02*
D03*
X165354Y102362D02*
D03*
X133858Y156693D02*
D03*
X165354Y105512D02*
D03*
Y108661D02*
D03*
X165354Y67716D02*
D03*
Y137008D02*
D03*
Y140157D02*
D03*
Y45669D02*
D03*
Y143307D02*
D03*
Y48819D02*
D03*
Y146457D02*
D03*
Y51968D02*
D03*
X165354Y55118D02*
D03*
X165354Y58268D02*
D03*
Y61417D02*
D03*
Y70866D02*
D03*
X152756Y156693D02*
D03*
X165354Y74016D02*
D03*
X140157Y156693D02*
D03*
X1181Y67717D02*
D03*
Y71654D02*
D03*
Y75591D02*
D03*
Y79528D02*
D03*
Y83465D02*
D03*
Y87402D02*
D03*
Y107480D02*
D03*
Y91339D02*
D03*
Y110630D02*
D03*
Y95276D02*
D03*
X165354Y9843D02*
D03*
X64961Y156693D02*
D03*
X1181D02*
D03*
X1181Y14961D02*
D03*
X24803Y156693D02*
D03*
X27953D02*
D03*
X31102D02*
D03*
X1181Y40157D02*
D03*
X62598Y130512D02*
D03*
X57087Y120669D02*
D03*
X159449Y56693D02*
D03*
Y47244D02*
D03*
X157086Y66142D02*
D03*
X154724Y51968D02*
D03*
Y4724D02*
D03*
X151181Y111023D02*
D03*
X152362Y61417D02*
D03*
X150000Y80315D02*
D03*
X148819Y49606D02*
D03*
X146456Y125197D02*
D03*
X147637Y66142D02*
D03*
Y56693D02*
D03*
X145275Y118110D02*
D03*
X144094Y106299D02*
D03*
X145275Y75590D02*
D03*
X144094Y44882D02*
D03*
X145275Y33071D02*
D03*
X141732Y148819D02*
D03*
X142913Y61417D02*
D03*
Y51968D02*
D03*
X140551Y141732D02*
D03*
Y85039D02*
D03*
X138189Y108661D02*
D03*
Y75590D02*
D03*
Y66142D02*
D03*
Y56693D02*
D03*
Y47244D02*
D03*
Y33071D02*
D03*
X133464Y113386D02*
D03*
Y85039D02*
D03*
Y61417D02*
D03*
Y51968D02*
D03*
Y42520D02*
D03*
X131102Y75590D02*
D03*
X128740Y122834D02*
D03*
X127559Y87401D02*
D03*
X128740Y56693D02*
D03*
Y47244D02*
D03*
Y33071D02*
D03*
X126378Y66142D02*
D03*
Y23622D02*
D03*
X122834Y144094D02*
D03*
X124015Y75590D02*
D03*
Y51968D02*
D03*
Y42520D02*
D03*
X120472Y129921D02*
D03*
X121653Y61417D02*
D03*
Y33071D02*
D03*
X119291Y137008D02*
D03*
Y47244D02*
D03*
Y23622D02*
D03*
X116929Y66142D02*
D03*
Y56693D02*
D03*
X112205Y61417D02*
D03*
Y51968D02*
D03*
Y42520D02*
D03*
Y28346D02*
D03*
X106299Y49606D02*
D03*
X107480Y33071D02*
D03*
Y23622D02*
D03*
X103937Y153543D02*
D03*
X105118Y42520D02*
D03*
X101575Y30709D02*
D03*
X100393Y122834D02*
D03*
Y47244D02*
D03*
Y23622D02*
D03*
X98031Y37795D02*
D03*
X95669Y51968D02*
D03*
Y28346D02*
D03*
X89764Y54331D02*
D03*
X90945Y42520D02*
D03*
X87401Y92126D02*
D03*
Y35433D02*
D03*
X88582Y28346D02*
D03*
X86220Y85039D02*
D03*
X82677Y120472D02*
D03*
X83858Y56693D02*
D03*
X82677Y25984D02*
D03*
X80315Y82677D02*
D03*
X81496Y33071D02*
D03*
X76771Y99212D02*
D03*
Y28346D02*
D03*
X72047Y75590D02*
D03*
X70866Y25984D02*
D03*
X68504Y153543D02*
D03*
X69685Y137008D02*
D03*
X66142Y73228D02*
D03*
X56693Y63779D02*
D03*
X55512Y56693D02*
D03*
X44882Y63779D02*
D03*
X40157Y144094D02*
D03*
Y59055D02*
D03*
X33071Y106299D02*
D03*
X30709Y73228D02*
D03*
X27165Y61417D02*
D03*
X24803Y70866D02*
D03*
X21260Y59055D02*
D03*
X17717Y70866D02*
D03*
X15354Y61417D02*
D03*
X2362Y63779D02*
D03*
X3543Y56693D02*
D03*
X47077Y15915D02*
D03*
X53895Y18119D02*
D03*
X70472Y5906D02*
D03*
X109449D02*
D03*
X38204Y28777D02*
D03*
X144488Y13780D02*
D03*
X127165Y152756D02*
D03*
X111811Y117717D02*
D03*
X109843Y141339D02*
D03*
X109066Y112583D02*
D03*
X104519Y117239D02*
D03*
X120472Y73622D02*
D03*
X8268Y96063D02*
D03*
X86614Y152756D02*
D03*
X91929Y138583D02*
D03*
X38976Y83858D02*
D03*
X42126Y78937D02*
D03*
X54134Y72441D02*
D03*
X40354Y72244D02*
D03*
X4724Y5315D02*
D03*
X1969Y21457D02*
D03*
Y34252D02*
D03*
X47244Y155709D02*
D03*
X43701Y155315D02*
D03*
X57239Y112008D02*
D03*
X47638D02*
D03*
X30857Y118473D02*
D03*
X20964Y122460D02*
D03*
X15157Y113189D02*
D03*
X11417Y95669D02*
D03*
X13780Y88976D02*
D03*
X48037Y91825D02*
D03*
X41142Y89764D02*
D03*
X47244Y96653D02*
D03*
X7427Y1230D02*
D03*
X1772Y5315D02*
D03*
X67913Y4134D02*
D03*
X138976Y5118D02*
D03*
X147047Y5315D02*
D03*
X163976Y4724D02*
D03*
X164567Y16336D02*
D03*
X163976Y35433D02*
D03*
X91732Y155315D02*
D03*
X81496Y155512D02*
D03*
X58858Y156299D02*
D03*
X39567Y155709D02*
D03*
X16535Y155512D02*
D03*
X71850Y120079D02*
D03*
Y125984D02*
D03*
X57284Y137795D02*
D03*
X43406Y138091D02*
D03*
X42323Y122441D02*
D03*
X9449Y143898D02*
D03*
X2559Y141535D02*
D03*
X3150Y127165D02*
D03*
X12008Y122638D02*
D03*
X20867Y108329D02*
D03*
X5118Y73425D02*
D03*
X14764Y97835D02*
D03*
X2165Y98622D02*
D03*
X16142Y77362D02*
D03*
X11614Y73425D02*
D03*
X19291Y84646D02*
D03*
X66732Y64370D02*
D03*
X8835Y27264D02*
D03*
X27599D02*
D03*
X46496D02*
D03*
X158858Y85827D02*
D03*
Y78347D02*
D03*
X164370Y151378D02*
D03*
X131693Y105118D02*
D03*
X107283Y56693D02*
D03*
X102362D02*
D03*
X76772Y129528D02*
D03*
X62979Y144062D02*
D03*
X111024Y144095D02*
D03*
X118898Y99618D02*
D03*
X88976Y106890D02*
D03*
X91142Y104921D02*
D03*
X90551Y86614D02*
D03*
X96850Y141732D02*
D03*
X141732Y121850D02*
D03*
X152953D02*
D03*
X101181Y71260D02*
D03*
X77756Y74665D02*
D03*
X79554Y119843D02*
D03*
X97028Y120669D02*
D03*
X76700Y119827D02*
D03*
X153191Y98654D02*
D03*
X42717Y128543D02*
D03*
X31299Y95669D02*
D03*
X31102Y98622D02*
D03*
X30460Y148639D02*
D03*
X65022Y91228D02*
D03*
X64764Y88386D02*
D03*
X53758Y141339D02*
D03*
X73819Y63189D02*
D03*
X74606Y57677D02*
D03*
X117913Y88189D02*
D03*
Y77559D02*
D03*
X57480Y87008D02*
D03*
X11614Y125591D02*
D03*
X4724Y30906D02*
D03*
X2461Y45079D02*
D03*
X21654Y30512D02*
D03*
X26378Y12992D02*
D03*
X159350Y9843D02*
D03*
X61881Y2882D02*
D03*
X57157Y2882D02*
D03*
X52433Y2882D02*
D03*
X47708Y2882D02*
D03*
X42984D02*
D03*
X38259Y2882D02*
D03*
X33535Y2882D02*
D03*
X28811D02*
D03*
X24086D02*
D03*
X19362D02*
D03*
X14637D02*
D03*
X9913D02*
D03*
X35433Y81693D02*
D03*
X66535Y67618D02*
D03*
X12598Y67913D02*
D03*
X82677Y61417D02*
D03*
X79921Y53150D02*
D03*
X72866Y50425D02*
D03*
X70012Y50390D02*
D03*
X80512Y38780D02*
D03*
X80315Y45079D02*
D03*
X56152Y28150D02*
D03*
X52559Y35630D02*
D03*
X52362Y45079D02*
D03*
X45866Y40157D02*
D03*
X42913D02*
D03*
X36175Y38583D02*
D03*
X36614Y45079D02*
D03*
X24657Y38729D02*
D03*
X17913Y40157D02*
D03*
X18553Y28150D02*
D03*
X8661Y45079D02*
D03*
X50591Y67716D02*
D03*
X42126Y141339D02*
D03*
X65354Y122835D02*
D03*
X110039Y63976D02*
D03*
X92913Y57284D02*
D03*
X136811Y143701D02*
D03*
X52953Y144291D02*
D03*
X53937Y153937D02*
D03*
X43307Y144291D02*
D03*
X48228D02*
D03*
X100787Y136417D02*
D03*
X54134Y130512D02*
D03*
X104134Y136417D02*
D03*
X87008Y132874D02*
D03*
X142991Y133977D02*
D03*
X131496Y82677D02*
D03*
X153347Y105118D02*
D03*
X152953Y139173D02*
D03*
X156693Y149016D02*
D03*
Y139370D02*
D03*
X32927Y142945D02*
D03*
X25591Y140445D02*
D03*
X11220Y134449D02*
D03*
X25591Y131496D02*
D03*
X65354Y103937D02*
D03*
X47735Y107885D02*
D03*
X153135Y127362D02*
D03*
X155905Y131414D02*
D03*
X119291Y115354D02*
D03*
X110433Y76968D02*
D03*
X110652Y85523D02*
D03*
X110433Y79823D02*
D03*
X92716Y88583D02*
D03*
X96983Y77109D02*
D03*
X93962Y77594D02*
D03*
X92126Y75394D02*
D03*
X89370Y65158D02*
D03*
X83661Y64370D02*
D03*
X47736Y115945D02*
D03*
X82874Y110827D02*
D03*
X89173Y74803D02*
D03*
X86024Y74606D02*
D03*
X78110Y112200D02*
D03*
X78445Y109365D02*
D03*
X80989Y106019D02*
D03*
X57284Y105118D02*
D03*
Y102165D02*
D03*
X123031Y119291D02*
D03*
X125394Y121457D02*
D03*
X101378Y112205D02*
D03*
X29745Y114229D02*
D03*
X20276Y87990D02*
D03*
X31102Y101538D02*
D03*
X3937Y119291D02*
D03*
X20079Y111614D02*
D03*
X40846Y116339D02*
D03*
Y107874D02*
D03*
X57284Y96457D02*
D03*
X71850Y100886D02*
D03*
Y98032D02*
D03*
X72441Y35827D02*
D03*
X64173Y38583D02*
D03*
X64567Y45079D02*
D03*
X64370Y41732D02*
D03*
X65173Y52442D02*
D03*
X70866Y40157D02*
D03*
X73819D02*
D03*
X37220Y52442D02*
D03*
X51968Y53150D02*
D03*
X44914Y50425D02*
D03*
X42059Y50390D02*
D03*
X14107D02*
D03*
X16961Y50425D02*
D03*
X24016Y53150D02*
D03*
X24409Y45079D02*
D03*
X9267Y52442D02*
D03*
X8268Y38583D02*
D03*
X62599Y16142D02*
D03*
X56772Y18018D02*
D03*
X27953Y16142D02*
D03*
X43701D02*
D03*
X33607Y18018D02*
D03*
X37875D02*
D03*
X9055Y16142D02*
D03*
X24803D02*
D03*
X14710Y18018D02*
D03*
X18977D02*
D03*
D89*
X55748Y149941D02*
D03*
X35748Y145941D02*
D03*
Y153941D02*
D03*
D90*
X4331Y153543D02*
D03*
M02*
