G04*
G04 #@! TF.GenerationSoftware,Altium Limited,Altium Designer,25.1.2 (22)*
G04*
G04 Layer_Color=8388736*
%FSLAX25Y25*%
%MOIN*%
G70*
G04*
G04 #@! TF.SameCoordinates,3A9A6ABF-25F3-4EED-80CC-6442B43FEAD7*
G04*
G04*
G04 #@! TF.FilePolarity,Negative*
G04*
G01*
G75*
G04:AMPARAMS|DCode=55|XSize=31.5mil|YSize=27.56mil|CornerRadius=4.33mil|HoleSize=0mil|Usage=FLASHONLY|Rotation=0.000|XOffset=0mil|YOffset=0mil|HoleType=Round|Shape=RoundedRectangle|*
%AMROUNDEDRECTD55*
21,1,0.03150,0.01890,0,0,0.0*
21,1,0.02284,0.02756,0,0,0.0*
1,1,0.00866,0.01142,-0.00945*
1,1,0.00866,-0.01142,-0.00945*
1,1,0.00866,-0.01142,0.00945*
1,1,0.00866,0.01142,0.00945*
%
%ADD55ROUNDEDRECTD55*%
%ADD56R,0.04724X0.04331*%
G04:AMPARAMS|DCode=57|XSize=31.5mil|YSize=40.16mil|CornerRadius=4.72mil|HoleSize=0mil|Usage=FLASHONLY|Rotation=0.000|XOffset=0mil|YOffset=0mil|HoleType=Round|Shape=RoundedRectangle|*
%AMROUNDEDRECTD57*
21,1,0.03150,0.03071,0,0,0.0*
21,1,0.02205,0.04016,0,0,0.0*
1,1,0.00945,0.01102,-0.01535*
1,1,0.00945,-0.01102,-0.01535*
1,1,0.00945,-0.01102,0.01535*
1,1,0.00945,0.01102,0.01535*
%
%ADD57ROUNDEDRECTD57*%
G04:AMPARAMS|DCode=58|XSize=31.5mil|YSize=27.56mil|CornerRadius=4.33mil|HoleSize=0mil|Usage=FLASHONLY|Rotation=90.000|XOffset=0mil|YOffset=0mil|HoleType=Round|Shape=RoundedRectangle|*
%AMROUNDEDRECTD58*
21,1,0.03150,0.01890,0,0,90.0*
21,1,0.02284,0.02756,0,0,90.0*
1,1,0.00866,0.00945,0.01142*
1,1,0.00866,0.00945,-0.01142*
1,1,0.00866,-0.00945,-0.01142*
1,1,0.00866,-0.00945,0.01142*
%
%ADD58ROUNDEDRECTD58*%
%ADD59O,0.05118X0.01378*%
%ADD60O,0.01378X0.05118*%
G04:AMPARAMS|DCode=61|XSize=37.4mil|YSize=37.4mil|CornerRadius=5.32mil|HoleSize=0mil|Usage=FLASHONLY|Rotation=0.000|XOffset=0mil|YOffset=0mil|HoleType=Round|Shape=RoundedRectangle|*
%AMROUNDEDRECTD61*
21,1,0.03740,0.02677,0,0,0.0*
21,1,0.02677,0.03740,0,0,0.0*
1,1,0.01063,0.01339,-0.01339*
1,1,0.01063,-0.01339,-0.01339*
1,1,0.01063,-0.01339,0.01339*
1,1,0.01063,0.01339,0.01339*
%
%ADD61ROUNDEDRECTD61*%
G04:AMPARAMS|DCode=62|XSize=31.5mil|YSize=40.16mil|CornerRadius=4.72mil|HoleSize=0mil|Usage=FLASHONLY|Rotation=90.000|XOffset=0mil|YOffset=0mil|HoleType=Round|Shape=RoundedRectangle|*
%AMROUNDEDRECTD62*
21,1,0.03150,0.03071,0,0,90.0*
21,1,0.02205,0.04016,0,0,90.0*
1,1,0.00945,0.01535,0.01102*
1,1,0.00945,0.01535,-0.01102*
1,1,0.00945,-0.01535,-0.01102*
1,1,0.00945,-0.01535,0.01102*
%
%ADD62ROUNDEDRECTD62*%
%ADD63O,0.09055X0.02756*%
G04:AMPARAMS|DCode=64|XSize=39.37mil|YSize=41.34mil|CornerRadius=5.51mil|HoleSize=0mil|Usage=FLASHONLY|Rotation=90.000|XOffset=0mil|YOffset=0mil|HoleType=Round|Shape=RoundedRectangle|*
%AMROUNDEDRECTD64*
21,1,0.03937,0.03032,0,0,90.0*
21,1,0.02835,0.04134,0,0,90.0*
1,1,0.01102,0.01516,0.01417*
1,1,0.01102,0.01516,-0.01417*
1,1,0.01102,-0.01516,-0.01417*
1,1,0.01102,-0.01516,0.01417*
%
%ADD64ROUNDEDRECTD64*%
G04:AMPARAMS|DCode=65|XSize=39.37mil|YSize=41.34mil|CornerRadius=5.51mil|HoleSize=0mil|Usage=FLASHONLY|Rotation=90.000|XOffset=0mil|YOffset=0mil|HoleType=Round|Shape=RoundedRectangle|*
%AMROUNDEDRECTD65*
21,1,0.03937,0.03032,0,0,90.0*
21,1,0.02835,0.04134,0,0,90.0*
1,1,0.01102,0.01516,0.01417*
1,1,0.01102,0.01516,-0.01417*
1,1,0.01102,-0.01516,-0.01417*
1,1,0.01102,-0.01516,0.01417*
%
%ADD65ROUNDEDRECTD65*%
G04:AMPARAMS|DCode=66|XSize=47.24mil|YSize=88.58mil|CornerRadius=6.3mil|HoleSize=0mil|Usage=FLASHONLY|Rotation=0.000|XOffset=0mil|YOffset=0mil|HoleType=Round|Shape=RoundedRectangle|*
%AMROUNDEDRECTD66*
21,1,0.04724,0.07598,0,0,0.0*
21,1,0.03465,0.08858,0,0,0.0*
1,1,0.01260,0.01732,-0.03799*
1,1,0.01260,-0.01732,-0.03799*
1,1,0.01260,-0.01732,0.03799*
1,1,0.01260,0.01732,0.03799*
%
%ADD66ROUNDEDRECTD66*%
G04:AMPARAMS|DCode=67|XSize=47.24mil|YSize=88.58mil|CornerRadius=6.3mil|HoleSize=0mil|Usage=FLASHONLY|Rotation=0.000|XOffset=0mil|YOffset=0mil|HoleType=Round|Shape=RoundedRectangle|*
%AMROUNDEDRECTD67*
21,1,0.04724,0.07599,0,0,0.0*
21,1,0.03465,0.08858,0,0,0.0*
1,1,0.01260,0.01732,-0.03799*
1,1,0.01260,-0.01732,-0.03799*
1,1,0.01260,-0.01732,0.03799*
1,1,0.01260,0.01732,0.03799*
%
%ADD67ROUNDEDRECTD67*%
G04:AMPARAMS|DCode=68|XSize=141.73mil|YSize=88.58mil|CornerRadius=10.43mil|HoleSize=0mil|Usage=FLASHONLY|Rotation=0.000|XOffset=0mil|YOffset=0mil|HoleType=Round|Shape=RoundedRectangle|*
%AMROUNDEDRECTD68*
21,1,0.14173,0.06772,0,0,0.0*
21,1,0.12087,0.08858,0,0,0.0*
1,1,0.02087,0.06043,-0.03386*
1,1,0.02087,-0.06043,-0.03386*
1,1,0.02087,-0.06043,0.03386*
1,1,0.02087,0.06043,0.03386*
%
%ADD68ROUNDEDRECTD68*%
G04:AMPARAMS|DCode=69|XSize=43.31mil|YSize=47.24mil|CornerRadius=5.91mil|HoleSize=0mil|Usage=FLASHONLY|Rotation=0.000|XOffset=0mil|YOffset=0mil|HoleType=Round|Shape=RoundedRectangle|*
%AMROUNDEDRECTD69*
21,1,0.04331,0.03543,0,0,0.0*
21,1,0.03150,0.04724,0,0,0.0*
1,1,0.01181,0.01575,-0.01772*
1,1,0.01181,-0.01575,-0.01772*
1,1,0.01181,-0.01575,0.01772*
1,1,0.01181,0.01575,0.01772*
%
%ADD69ROUNDEDRECTD69*%
G04:AMPARAMS|DCode=70|XSize=27.56mil|YSize=39.37mil|CornerRadius=4.33mil|HoleSize=0mil|Usage=FLASHONLY|Rotation=180.000|XOffset=0mil|YOffset=0mil|HoleType=Round|Shape=RoundedRectangle|*
%AMROUNDEDRECTD70*
21,1,0.02756,0.03071,0,0,180.0*
21,1,0.01890,0.03937,0,0,180.0*
1,1,0.00866,-0.00945,0.01535*
1,1,0.00866,0.00945,0.01535*
1,1,0.00866,0.00945,-0.01535*
1,1,0.00866,-0.00945,-0.01535*
%
%ADD70ROUNDEDRECTD70*%
%ADD71C,0.03494*%
G04:AMPARAMS|DCode=72|XSize=27.56mil|YSize=39.37mil|CornerRadius=4.33mil|HoleSize=0mil|Usage=FLASHONLY|Rotation=270.000|XOffset=0mil|YOffset=0mil|HoleType=Round|Shape=RoundedRectangle|*
%AMROUNDEDRECTD72*
21,1,0.02756,0.03071,0,0,270.0*
21,1,0.01890,0.03937,0,0,270.0*
1,1,0.00866,-0.01535,-0.00945*
1,1,0.00866,-0.01535,0.00945*
1,1,0.00866,0.01535,0.00945*
1,1,0.00866,0.01535,-0.00945*
%
%ADD72ROUNDEDRECTD72*%
G04:AMPARAMS|DCode=73|XSize=90.55mil|YSize=94.49mil|CornerRadius=10.63mil|HoleSize=0mil|Usage=FLASHONLY|Rotation=180.000|XOffset=0mil|YOffset=0mil|HoleType=Round|Shape=RoundedRectangle|*
%AMROUNDEDRECTD73*
21,1,0.09055,0.07323,0,0,180.0*
21,1,0.06929,0.09449,0,0,180.0*
1,1,0.02126,-0.03465,0.03661*
1,1,0.02126,0.03465,0.03661*
1,1,0.02126,0.03465,-0.03661*
1,1,0.02126,-0.03465,-0.03661*
%
%ADD73ROUNDEDRECTD73*%
%ADD74C,0.03543*%
G04:AMPARAMS|DCode=75|XSize=35.43mil|YSize=82.68mil|CornerRadius=5.12mil|HoleSize=0mil|Usage=FLASHONLY|Rotation=90.000|XOffset=0mil|YOffset=0mil|HoleType=Round|Shape=RoundedRectangle|*
%AMROUNDEDRECTD75*
21,1,0.03543,0.07244,0,0,90.0*
21,1,0.02520,0.08268,0,0,90.0*
1,1,0.01024,0.03622,0.01260*
1,1,0.01024,0.03622,-0.01260*
1,1,0.01024,-0.03622,-0.01260*
1,1,0.01024,-0.03622,0.01260*
%
%ADD75ROUNDEDRECTD75*%
%ADD76O,0.04724X0.01575*%
%ADD77R,0.01870X0.01772*%
%ADD78R,0.01772X0.01870*%
G04:AMPARAMS|DCode=79|XSize=43.31mil|YSize=47.24mil|CornerRadius=5.91mil|HoleSize=0mil|Usage=FLASHONLY|Rotation=270.000|XOffset=0mil|YOffset=0mil|HoleType=Round|Shape=RoundedRectangle|*
%AMROUNDEDRECTD79*
21,1,0.04331,0.03543,0,0,270.0*
21,1,0.03150,0.04724,0,0,270.0*
1,1,0.01181,-0.01772,-0.01575*
1,1,0.01181,-0.01772,0.01575*
1,1,0.01181,0.01772,0.01575*
1,1,0.01181,0.01772,-0.01575*
%
%ADD79ROUNDEDRECTD79*%
%ADD80C,0.04724*%
%ADD81C,0.04294*%
%ADD82C,0.05906*%
D55*
X50394Y87795D02*
D03*
Y83858D02*
D03*
X4724Y11417D02*
D03*
Y7480D02*
D03*
X151575Y13780D02*
D03*
Y9843D02*
D03*
X142323Y9883D02*
D03*
Y13820D02*
D03*
X146850D02*
D03*
Y9883D02*
D03*
X53445Y107087D02*
D03*
Y111024D02*
D03*
X107139Y60039D02*
D03*
Y63976D02*
D03*
X54921Y83858D02*
D03*
Y87795D02*
D03*
X102362Y60039D02*
D03*
Y63976D02*
D03*
X97638D02*
D03*
Y60039D02*
D03*
X92913Y63976D02*
D03*
Y60039D02*
D03*
X76772Y122500D02*
D03*
Y126437D02*
D03*
X111221Y115157D02*
D03*
Y111221D02*
D03*
X115551D02*
D03*
Y115157D02*
D03*
X47638Y9055D02*
D03*
Y5118D02*
D03*
X61811Y9055D02*
D03*
X61811Y5118D02*
D03*
X156102Y13780D02*
D03*
Y9843D02*
D03*
X4331Y28150D02*
D03*
Y24213D02*
D03*
X9843Y9055D02*
D03*
Y12992D02*
D03*
X14567Y9055D02*
D03*
Y12992D02*
D03*
X19291Y9055D02*
D03*
Y12992D02*
D03*
X24016Y9055D02*
D03*
Y12992D02*
D03*
X9843Y9055D02*
D03*
Y5118D02*
D03*
X14567Y9055D02*
D03*
Y5118D02*
D03*
X19291Y9055D02*
D03*
Y5118D02*
D03*
X24016Y9055D02*
D03*
Y5118D02*
D03*
X28740Y9055D02*
D03*
Y12992D02*
D03*
X33465Y9055D02*
D03*
Y12992D02*
D03*
X38189Y9055D02*
D03*
X38189Y12992D02*
D03*
X43031Y9055D02*
D03*
Y12992D02*
D03*
X28740Y9055D02*
D03*
Y5118D02*
D03*
X33465Y9055D02*
D03*
Y5118D02*
D03*
X38189Y9055D02*
D03*
X38189Y5118D02*
D03*
X42913Y9055D02*
D03*
Y5118D02*
D03*
X47638Y9055D02*
D03*
Y12992D02*
D03*
X52362Y9055D02*
D03*
Y12992D02*
D03*
X57087Y9055D02*
D03*
Y12992D02*
D03*
X61811Y9055D02*
D03*
Y12992D02*
D03*
X52362Y9055D02*
D03*
X52362Y5118D02*
D03*
X57087Y9055D02*
D03*
Y5118D02*
D03*
X4724Y19094D02*
D03*
Y15157D02*
D03*
X40945Y131890D02*
D03*
Y135827D02*
D03*
D56*
X43898Y85630D02*
D03*
Y92323D02*
D03*
D57*
X122441Y82677D02*
D03*
X128740D02*
D03*
D58*
X69882Y64961D02*
D03*
X73819D02*
D03*
X71850Y122835D02*
D03*
X67913D02*
D03*
X117913Y80315D02*
D03*
X113976D02*
D03*
X117913Y85433D02*
D03*
X113976D02*
D03*
X35039Y123228D02*
D03*
X38976D02*
D03*
D59*
X61024Y108268D02*
D03*
Y106299D02*
D03*
Y104331D02*
D03*
Y102362D02*
D03*
Y100394D02*
D03*
Y98425D02*
D03*
Y96457D02*
D03*
Y94488D02*
D03*
Y92520D02*
D03*
Y90551D02*
D03*
Y88583D02*
D03*
Y86614D02*
D03*
Y84646D02*
D03*
Y82677D02*
D03*
Y80709D02*
D03*
Y78740D02*
D03*
X106299D02*
D03*
Y80709D02*
D03*
Y82677D02*
D03*
Y84646D02*
D03*
Y86614D02*
D03*
Y88583D02*
D03*
Y90551D02*
D03*
Y92520D02*
D03*
Y94488D02*
D03*
Y96457D02*
D03*
Y98425D02*
D03*
Y100394D02*
D03*
Y102362D02*
D03*
Y104331D02*
D03*
Y106299D02*
D03*
Y108268D02*
D03*
D60*
X68898Y70866D02*
D03*
X70866D02*
D03*
X72835D02*
D03*
X74803D02*
D03*
X76772D02*
D03*
X78740D02*
D03*
X80709D02*
D03*
X82677D02*
D03*
X84646D02*
D03*
X86614D02*
D03*
X88583D02*
D03*
X90551D02*
D03*
X92520D02*
D03*
X94488D02*
D03*
X96457D02*
D03*
X98425D02*
D03*
Y116142D02*
D03*
X96457D02*
D03*
X94488D02*
D03*
X92520D02*
D03*
X90551D02*
D03*
X88583D02*
D03*
X86614D02*
D03*
X84646D02*
D03*
X82677D02*
D03*
X80709D02*
D03*
X78740D02*
D03*
X76772D02*
D03*
X74803D02*
D03*
X72835D02*
D03*
X70866D02*
D03*
X68898D02*
D03*
D61*
X121850Y99606D02*
D03*
X128071D02*
D03*
D62*
X86811Y129134D02*
D03*
Y122835D02*
D03*
D63*
X25788Y77933D02*
D03*
Y82933D02*
D03*
Y87933D02*
D03*
Y92933D02*
D03*
X6890Y77933D02*
D03*
Y82933D02*
D03*
Y87933D02*
D03*
Y92933D02*
D03*
X6693Y116557D02*
D03*
X6693Y111557D02*
D03*
X6693Y106557D02*
D03*
Y101557D02*
D03*
X25591Y116557D02*
D03*
X25591Y111557D02*
D03*
X25591Y106557D02*
D03*
Y101557D02*
D03*
D64*
X161030Y127512D02*
D03*
X151778Y131252D02*
D03*
D65*
X161030Y134992D02*
D03*
D66*
X7480Y125197D02*
D03*
X25591D02*
D03*
D67*
X16535D02*
D03*
D68*
X16535Y149606D02*
D03*
D69*
X37795Y115945D02*
D03*
X44488Y115945D02*
D03*
X37795Y107677D02*
D03*
X44488D02*
D03*
D70*
X160431Y152139D02*
D03*
X156691D02*
D03*
X152950D02*
D03*
Y142690D02*
D03*
X156691D02*
D03*
X160431D02*
D03*
D71*
X50748Y152441D02*
D03*
Y147441D02*
D03*
X45748Y152441D02*
D03*
X45748Y147441D02*
D03*
X40748Y152441D02*
D03*
Y147441D02*
D03*
D72*
X59449Y25787D02*
D03*
Y22047D02*
D03*
Y18307D02*
D03*
X50000Y18307D02*
D03*
Y22047D02*
D03*
X50000Y25787D02*
D03*
X21654D02*
D03*
X21654Y22047D02*
D03*
Y18307D02*
D03*
X12205D02*
D03*
Y22047D02*
D03*
X12205Y25787D02*
D03*
X40551Y25787D02*
D03*
Y22047D02*
D03*
Y18307D02*
D03*
X31102Y18307D02*
D03*
Y22047D02*
D03*
Y25787D02*
D03*
D73*
X126969Y11811D02*
D03*
X109252D02*
D03*
D74*
X142402Y5118D02*
D03*
X4724Y3150D02*
D03*
D75*
X158661Y121653D02*
D03*
Y105118D02*
D03*
Y82284D02*
D03*
Y98819D02*
D03*
D76*
X55709Y37402D02*
D03*
Y39961D02*
D03*
Y42520D02*
D03*
Y45079D02*
D03*
Y47638D02*
D03*
Y50197D02*
D03*
Y52756D02*
D03*
X33268Y37402D02*
D03*
Y39961D02*
D03*
Y42520D02*
D03*
Y45079D02*
D03*
Y47638D02*
D03*
Y50197D02*
D03*
Y52756D02*
D03*
X27756Y37402D02*
D03*
Y39961D02*
D03*
Y42520D02*
D03*
Y45079D02*
D03*
Y47638D02*
D03*
Y50197D02*
D03*
Y52756D02*
D03*
X5315Y37402D02*
D03*
Y39961D02*
D03*
Y42520D02*
D03*
Y45079D02*
D03*
Y47638D02*
D03*
Y50197D02*
D03*
Y52756D02*
D03*
X83661Y37402D02*
D03*
Y39961D02*
D03*
Y42520D02*
D03*
Y45079D02*
D03*
Y47638D02*
D03*
Y50197D02*
D03*
Y52756D02*
D03*
X61221Y37402D02*
D03*
Y39961D02*
D03*
Y42520D02*
D03*
Y45079D02*
D03*
Y47638D02*
D03*
Y50197D02*
D03*
Y52756D02*
D03*
D77*
X45817Y132677D02*
D03*
Y134646D02*
D03*
Y136614D02*
D03*
X51821D02*
D03*
Y134646D02*
D03*
Y132677D02*
D03*
D78*
X47835Y137648D02*
D03*
X49803D02*
D03*
Y131644D02*
D03*
X47835D02*
D03*
D79*
X34941Y130709D02*
D03*
Y137402D02*
D03*
D80*
X133858Y35433D02*
D03*
X153543D02*
D03*
X94488Y23622D02*
D03*
X114173Y35433D02*
D03*
X94488D02*
D03*
X153543Y47244D02*
D03*
X133858D02*
D03*
X114173D02*
D03*
X94488D02*
D03*
X114173Y23622D02*
D03*
X153543D02*
D03*
X133858D02*
D03*
D81*
X55748Y149941D02*
D03*
X35748Y145941D02*
D03*
Y153941D02*
D03*
D82*
X4331Y153543D02*
D03*
M02*
