G04*
G04 #@! TF.GenerationSoftware,Altium Limited,Altium Designer,23.4.1 (23)*
G04*
G04 Layer_Physical_Order=3*
G04 Layer_Color=16440176*
%FSLAX25Y25*%
%MOIN*%
G70*
G04*
G04 #@! TF.SameCoordinates,E167179E-CF05-46AC-934A-02D6A9C93522*
G04*
G04*
G04 #@! TF.FilePolarity,Positive*
G04*
G01*
G75*
%ADD12C,0.00787*%
%ADD18C,0.01968*%
%ADD28R,0.00787X0.21260*%
%ADD29R,0.00787X0.09055*%
%ADD30R,0.00787X0.23622*%
%ADD31R,0.00787X0.07874*%
%ADD32R,0.00787X0.08268*%
%ADD33R,0.00787X0.42126*%
%ADD34R,0.19685X0.00787*%
%ADD35R,0.26772X0.00787*%
%ADD36R,0.17717X0.00787*%
%ADD37R,0.00787X0.22441*%
%ADD38R,0.00787X0.06299*%
%ADD39R,0.05512X0.00787*%
%ADD84C,0.01575*%
%ADD86C,0.01181*%
%ADD87C,0.02362*%
%ADD89C,0.04331*%
G36*
X161144Y155248D02*
X161201Y155191D01*
X161852Y154921D01*
X162557D01*
X163208Y155191D01*
X163265Y155248D01*
X163780Y155635D01*
X164294Y155248D01*
X164351Y155191D01*
X165002Y154921D01*
X165707D01*
X165748Y154938D01*
X166535Y154412D01*
Y148737D01*
X165748Y148211D01*
X165707Y148228D01*
X165002D01*
X164351Y147959D01*
X163852Y147460D01*
X163583Y146809D01*
Y146104D01*
X163583Y146104D01*
X158580Y141102D01*
X157696Y140872D01*
X157045Y141142D01*
X156624D01*
X155633Y142133D01*
Y150989D01*
X156757Y152112D01*
X157018Y152503D01*
X157110Y152964D01*
X157110Y152964D01*
Y155019D01*
X157876Y155337D01*
X157995Y155248D01*
X158052Y155191D01*
X158703Y154921D01*
X159407D01*
X160059Y155191D01*
X160116Y155248D01*
X160630Y155635D01*
X161144Y155248D01*
D02*
G37*
G36*
X94309Y157087D02*
X94291Y157045D01*
Y156341D01*
X94561Y155689D01*
X95060Y155191D01*
X95711Y154921D01*
X96415D01*
X97067Y155191D01*
X97123Y155248D01*
X97638Y155635D01*
X98152Y155248D01*
X98209Y155191D01*
X98860Y154921D01*
X99565D01*
X100216Y155191D01*
X100273Y155248D01*
X100787Y155635D01*
X101302Y155248D01*
X101359Y155191D01*
X102010Y154921D01*
X102715D01*
X103366Y155191D01*
X103423Y155248D01*
X103937Y155635D01*
X104451Y155248D01*
X104508Y155191D01*
X105159Y154921D01*
X105864D01*
X106515Y155191D01*
X106572Y155248D01*
X107087Y155635D01*
X107601Y155248D01*
X107658Y155191D01*
X108309Y154921D01*
X109014D01*
X109665Y155191D01*
X109722Y155248D01*
X110236Y155635D01*
X110751Y155248D01*
X110808Y155191D01*
X111459Y154921D01*
X112163D01*
X112815Y155191D01*
X112872Y155248D01*
X113386Y155635D01*
X113900Y155248D01*
X113957Y155191D01*
X114608Y154921D01*
X115313D01*
X115964Y155191D01*
X116021Y155248D01*
X116535Y155635D01*
X117050Y155248D01*
X117107Y155191D01*
X117758Y154921D01*
X118463D01*
X119114Y155191D01*
X119171Y155248D01*
X119685Y155635D01*
X120200Y155248D01*
X120256Y155191D01*
X120907Y154921D01*
X121612D01*
X122263Y155191D01*
X122320Y155248D01*
X122835Y155635D01*
X123349Y155248D01*
X123406Y155191D01*
X124057Y154921D01*
X124762D01*
X125413Y155191D01*
X125470Y155248D01*
X125984Y155635D01*
X126499Y155248D01*
X126556Y155191D01*
X127207Y154921D01*
X127911D01*
X128563Y155191D01*
X128620Y155248D01*
X129134Y155635D01*
X129648Y155248D01*
X129705Y155191D01*
X130356Y154921D01*
X131061D01*
X131712Y155191D01*
X131769Y155248D01*
X132283Y155635D01*
X132798Y155248D01*
X132855Y155191D01*
X133506Y154921D01*
X134211D01*
X134862Y155191D01*
X134919Y155248D01*
X135433Y155635D01*
X135948Y155248D01*
X136004Y155191D01*
X136088Y155156D01*
X136273Y154227D01*
X133344Y151299D01*
X60918D01*
X55503Y156713D01*
X55177Y156931D01*
X54793Y157008D01*
X52323D01*
X51939Y156931D01*
X51614Y156713D01*
X48140Y153240D01*
X47195D01*
X45472Y154963D01*
X45472Y154963D01*
Y155667D01*
X45203Y156318D01*
X44704Y156817D01*
X44053Y157087D01*
X43348D01*
X42697Y156817D01*
X42199Y156318D01*
X41929Y155667D01*
Y154963D01*
X42199Y154311D01*
X42697Y153813D01*
X43348Y153543D01*
X44053D01*
X44053Y153543D01*
X46338Y151259D01*
X46663Y151041D01*
X47047Y150965D01*
X48288D01*
X48672Y151041D01*
X48997Y151259D01*
X51378Y153639D01*
X51644Y153621D01*
X52245Y153393D01*
X52435Y152933D01*
X52934Y152435D01*
X52966Y152422D01*
X53074Y152252D01*
X53236Y151458D01*
X53014Y151074D01*
X52814Y150327D01*
Y149555D01*
X53014Y148808D01*
X53247Y148404D01*
X52886Y147617D01*
X50550D01*
X50166Y147540D01*
X49840Y147323D01*
X48581Y146063D01*
X48581Y146063D01*
X47876D01*
X47225Y145793D01*
X46726Y145295D01*
X46457Y144644D01*
Y143939D01*
X46644Y143488D01*
X45976Y143042D01*
X45079Y143939D01*
X45079Y143939D01*
Y144644D01*
X44809Y145295D01*
X44311Y145793D01*
X43659Y146063D01*
X42955D01*
X42303Y145793D01*
X41805Y145295D01*
X41535Y144644D01*
Y143939D01*
X41585Y143819D01*
X41739Y143242D01*
X41191Y142869D01*
X41122Y142841D01*
X40624Y142342D01*
X40354Y141691D01*
Y140986D01*
X40624Y140335D01*
X41122Y139837D01*
X41774Y139567D01*
X42478D01*
X43130Y139837D01*
X43628Y140335D01*
X43898Y140986D01*
Y141168D01*
X44685Y141494D01*
X54015Y132164D01*
X54340Y131947D01*
X54724Y131870D01*
X85506D01*
X85506Y131870D01*
X86004Y131372D01*
X86655Y131102D01*
X87360D01*
X88011Y131372D01*
X88510Y131870D01*
X88510Y131870D01*
X141462D01*
X141846Y131947D01*
X142172Y132164D01*
X142338Y132330D01*
X142639Y132205D01*
X143344D01*
X143995Y132475D01*
X144493Y132974D01*
X144763Y133625D01*
Y134329D01*
X144493Y134981D01*
X143995Y135479D01*
X143344Y135749D01*
X142639D01*
X141988Y135479D01*
X141490Y134981D01*
X141220Y134329D01*
Y134051D01*
X141047Y133878D01*
X104533D01*
X104486Y134646D01*
X105137Y134915D01*
X105636Y135414D01*
X105905Y136065D01*
Y136770D01*
X105636Y137421D01*
X105137Y137919D01*
X104486Y138189D01*
X103781D01*
X103130Y137919D01*
X102975Y137764D01*
X102461Y137507D01*
X101946Y137764D01*
X101791Y137919D01*
X101140Y138189D01*
X100435D01*
X99784Y137919D01*
X99286Y137421D01*
X99016Y136770D01*
Y136065D01*
X99286Y135414D01*
X99784Y134915D01*
X100435Y134646D01*
X100389Y133878D01*
X88510D01*
X88510Y133878D01*
X88011Y134376D01*
X87360Y134646D01*
X86655D01*
X86004Y134376D01*
X85506Y133878D01*
X85506Y133878D01*
X55140D01*
X46979Y142039D01*
X47425Y142707D01*
X47876Y142520D01*
X48581D01*
X49232Y142789D01*
X49730Y143288D01*
X50000Y143939D01*
Y144644D01*
X50000Y144644D01*
X50561Y145205D01*
X51229Y144759D01*
X51181Y144644D01*
Y143939D01*
X51451Y143288D01*
X51949Y142789D01*
X52068Y141888D01*
X51987Y141691D01*
Y140986D01*
X52256Y140335D01*
X52755Y139837D01*
X53406Y139567D01*
X54111D01*
X54762Y139837D01*
X54859Y139934D01*
X96244D01*
X96460Y139977D01*
X96498Y139961D01*
X97203D01*
X97854Y140230D01*
X97951Y140327D01*
X107167D01*
X107461Y140033D01*
X108112Y139764D01*
X108817D01*
X109468Y140033D01*
X109565Y140130D01*
X134433D01*
X134970Y140237D01*
X135426Y140542D01*
X136813Y141929D01*
X137163D01*
X137815Y142199D01*
X138313Y142697D01*
X138583Y143348D01*
Y144053D01*
X138313Y144704D01*
X137815Y145203D01*
X137592Y145295D01*
X137383Y146200D01*
X146104Y154921D01*
X146104Y154921D01*
X146809D01*
X147460Y155191D01*
X147517Y155248D01*
X148031Y155635D01*
X148546Y155248D01*
X148603Y155191D01*
X149254Y154921D01*
X149959D01*
X150610Y155191D01*
X150667Y155248D01*
X151181Y155635D01*
X151696Y155248D01*
X151752Y155191D01*
X152403Y154921D01*
X153108D01*
X153760Y155191D01*
X153816Y155248D01*
X153935Y155337D01*
X154701Y155019D01*
Y153463D01*
X153578Y152339D01*
X153317Y151948D01*
X153225Y151488D01*
X153225Y151487D01*
Y141634D01*
X153225Y141634D01*
X152600Y140945D01*
X151949Y140675D01*
X151451Y140177D01*
X151181Y139526D01*
Y138821D01*
X151451Y138170D01*
X151949Y137671D01*
X152111Y137604D01*
X152295Y136676D01*
X142415Y126795D01*
X77894D01*
X77433Y126703D01*
X77042Y126442D01*
X77042Y126442D01*
X75525Y124925D01*
X68169D01*
X66651Y126442D01*
X66261Y126703D01*
X65800Y126795D01*
X65800Y126795D01*
X44587D01*
X44219Y127540D01*
X44488Y128191D01*
Y128896D01*
X44219Y129547D01*
X43720Y130045D01*
X43069Y130315D01*
X42364D01*
X42364Y130315D01*
X37521Y135158D01*
X37195Y135376D01*
X36811Y135452D01*
X31863D01*
Y144872D01*
X31964Y145039D01*
X32114Y145125D01*
X33014Y144808D01*
X33400Y144139D01*
X33946Y143593D01*
X34615Y143207D01*
X35362Y143007D01*
X36134D01*
X36881Y143207D01*
X37550Y143593D01*
X38096Y144139D01*
X38482Y144808D01*
X38682Y145555D01*
Y146327D01*
X38482Y147073D01*
X38096Y147743D01*
X37550Y148289D01*
X36881Y148675D01*
X36134Y148875D01*
X35362D01*
X34615Y148675D01*
X34318Y148503D01*
X33530Y148942D01*
Y150940D01*
X34318Y151379D01*
X34615Y151207D01*
X35362Y151007D01*
X36134D01*
X36881Y151207D01*
X37550Y151593D01*
X38096Y152139D01*
X38482Y152808D01*
X38682Y153555D01*
Y154327D01*
X38482Y155073D01*
X38096Y155743D01*
X37550Y156289D01*
X36881Y156675D01*
X36134Y156875D01*
X35362D01*
X34615Y156675D01*
X33946Y156289D01*
X33916Y156258D01*
X33729Y156201D01*
X32906Y156287D01*
X32874Y156341D01*
Y157045D01*
X32857Y157087D01*
X33383Y157874D01*
X59530D01*
X60057Y157087D01*
X60039Y157045D01*
Y156341D01*
X60309Y155689D01*
X60808Y155191D01*
X61459Y154921D01*
X62164D01*
X62815Y155191D01*
X62871Y155248D01*
X63386Y155635D01*
X63900Y155248D01*
X63957Y155191D01*
X64608Y154921D01*
X65313D01*
X65964Y155191D01*
X66021Y155248D01*
X66536Y155635D01*
X67050Y155248D01*
X67107Y155191D01*
X67758Y154921D01*
X68463D01*
X69114Y155191D01*
X69171Y155248D01*
X69685Y155635D01*
X70200Y155248D01*
X70256Y155191D01*
X70907Y154921D01*
X71612D01*
X72263Y155191D01*
X72320Y155248D01*
X72835Y155635D01*
X73349Y155248D01*
X73406Y155191D01*
X74057Y154921D01*
X74762D01*
X75413Y155191D01*
X75911Y155689D01*
X76181Y156341D01*
Y157045D01*
X76164Y157087D01*
X76690Y157874D01*
X93782D01*
X94309Y157087D01*
D02*
G37*
G36*
X23049D02*
X23031Y157045D01*
Y156341D01*
X23301Y155689D01*
X23800Y155191D01*
X24451Y154921D01*
X25156D01*
X25560Y155089D01*
X26211Y154769D01*
X26347Y154627D01*
Y151096D01*
X22937Y147686D01*
X15614D01*
X15614Y147686D01*
X15000Y147564D01*
X14479Y147216D01*
X14479Y147216D01*
X4967Y137704D01*
X4619Y137183D01*
X4497Y136569D01*
X4497Y136569D01*
Y121202D01*
X4289Y121063D01*
X3585D01*
X2933Y120793D01*
X2435Y120295D01*
X2165Y119644D01*
Y118939D01*
X2435Y118288D01*
X2933Y117789D01*
X3585Y117520D01*
X4289D01*
X4941Y117789D01*
X5439Y118288D01*
X6331Y118385D01*
X7154Y117562D01*
Y65121D01*
X6367Y64666D01*
X6182Y64773D01*
X5481Y64961D01*
X4755D01*
X4054Y64773D01*
X3426Y64410D01*
X2913Y63897D01*
X2550Y63269D01*
X2362Y62568D01*
Y61842D01*
X2550Y61141D01*
X2913Y60513D01*
X3426Y60000D01*
X4054Y59637D01*
X4458Y59529D01*
X4791Y59345D01*
X5027Y58661D01*
X5004Y58546D01*
X5004Y58546D01*
Y50889D01*
X5004Y50889D01*
X5126Y50274D01*
X5474Y49753D01*
X7755Y47473D01*
X7664Y46637D01*
X7596Y46518D01*
X7159Y46082D01*
X6890Y45431D01*
Y44726D01*
X7159Y44075D01*
X7658Y43577D01*
X8309Y43307D01*
X9014D01*
X9665Y43577D01*
X10163Y44075D01*
X11056Y44172D01*
X12764Y42463D01*
Y28815D01*
X899Y16949D01*
X116Y17118D01*
X0Y17241D01*
Y37877D01*
X787Y38403D01*
X829Y38386D01*
X1534D01*
X2185Y38656D01*
X2683Y39154D01*
X2953Y39805D01*
Y40510D01*
X2683Y41161D01*
X2185Y41659D01*
X1534Y41929D01*
X829D01*
X787Y41912D01*
X0Y42438D01*
Y44332D01*
X787Y44489D01*
X959Y44075D01*
X1457Y43577D01*
X2108Y43307D01*
X2813D01*
X3464Y43577D01*
X3963Y44075D01*
X4232Y44726D01*
Y45431D01*
X3963Y46082D01*
X3464Y46581D01*
X2813Y46850D01*
X2108D01*
X1457Y46581D01*
X959Y46082D01*
X787Y45669D01*
X0Y45825D01*
Y65436D01*
X787Y65962D01*
X829Y65945D01*
X1534D01*
X2185Y66215D01*
X2683Y66713D01*
X2953Y67364D01*
Y68069D01*
X2683Y68720D01*
X2185Y69218D01*
X2087Y69259D01*
Y70111D01*
X2185Y70152D01*
X2683Y70650D01*
X2953Y71301D01*
Y72006D01*
X2683Y72657D01*
X2185Y73155D01*
X2087Y73196D01*
Y74048D01*
X2185Y74089D01*
X2683Y74587D01*
X2953Y75238D01*
Y75943D01*
X2683Y76594D01*
X2185Y77092D01*
X2087Y77133D01*
Y77985D01*
X2185Y78026D01*
X2683Y78524D01*
X2953Y79175D01*
Y79880D01*
X2683Y80531D01*
X2185Y81029D01*
X2087Y81070D01*
Y81922D01*
X2185Y81963D01*
X2683Y82461D01*
X2953Y83112D01*
Y83817D01*
X2683Y84468D01*
X2185Y84966D01*
X2087Y85007D01*
Y85859D01*
X2185Y85900D01*
X2683Y86398D01*
X2953Y87049D01*
Y87754D01*
X2683Y88405D01*
X2185Y88903D01*
X2087Y88944D01*
Y89796D01*
X2185Y89837D01*
X2683Y90335D01*
X2953Y90986D01*
Y91691D01*
X2683Y92342D01*
X2185Y92840D01*
X2087Y92881D01*
Y93733D01*
X2185Y93774D01*
X2296Y93885D01*
X3081Y94149D01*
X3438Y94038D01*
X3782Y93896D01*
X4486D01*
X5137Y94165D01*
X5636Y94664D01*
X5906Y95315D01*
Y96020D01*
X5636Y96671D01*
X5137Y97169D01*
X4486Y97439D01*
X3782D01*
X3130Y97169D01*
X3018Y97057D01*
X2234Y96794D01*
X1877Y96905D01*
X1534Y97047D01*
X829D01*
X787Y97030D01*
X0Y97556D01*
Y105200D01*
X787Y105726D01*
X829Y105709D01*
X1534D01*
X2185Y105978D01*
X2683Y106477D01*
X2953Y107128D01*
Y107833D01*
X2683Y108484D01*
X2626Y108541D01*
X2239Y109055D01*
X2626Y109570D01*
X2683Y109626D01*
X2953Y110277D01*
Y110982D01*
X2683Y111634D01*
X2185Y112132D01*
X1534Y112402D01*
X829D01*
X787Y112384D01*
X0Y112911D01*
Y153698D01*
X787Y154238D01*
X1021Y154148D01*
X1025Y154134D01*
X984Y153984D01*
Y153103D01*
X1212Y152252D01*
X1653Y151489D01*
X2276Y150865D01*
X3039Y150425D01*
X3890Y150197D01*
X4771D01*
X5622Y150425D01*
X6385Y150865D01*
X7009Y151489D01*
X7449Y152252D01*
X7677Y153103D01*
Y153984D01*
X7449Y154835D01*
X7009Y155598D01*
X6385Y156221D01*
X5622Y156662D01*
X4771Y156890D01*
X3890D01*
X3740Y156850D01*
X3727Y156853D01*
X3636Y157087D01*
X4176Y157874D01*
X22523D01*
X23049Y157087D01*
D02*
G37*
G36*
X134907Y145102D02*
X135212Y144469D01*
X135093Y144183D01*
X133851Y142940D01*
X113315D01*
X112789Y143728D01*
X112795Y143742D01*
Y144447D01*
X112786Y144469D01*
X113312Y145256D01*
X134750D01*
X134907Y145102D01*
D02*
G37*
G36*
X157756Y137041D02*
Y133182D01*
X156969Y132856D01*
X156909Y132916D01*
X156258Y133186D01*
X155553D01*
X154902Y132916D01*
X154404Y132418D01*
X154134Y131766D01*
Y131062D01*
X154404Y130410D01*
X154902Y129912D01*
X155553Y129642D01*
X156258D01*
X156909Y129912D01*
X156969Y129972D01*
X157756Y129646D01*
Y124926D01*
X156971Y124837D01*
X156754Y125163D01*
X154907Y127010D01*
X154907Y127010D01*
Y127715D01*
X154637Y128366D01*
X154139Y128864D01*
X153487Y129134D01*
X152782D01*
X152131Y128864D01*
X151633Y128366D01*
X151363Y127715D01*
Y127010D01*
X151633Y126359D01*
X152131Y125860D01*
X152782Y125591D01*
X153487D01*
X153487Y125591D01*
X155008Y124070D01*
X154927Y123329D01*
X154230Y123078D01*
X153956Y123352D01*
X153305Y123622D01*
X152600D01*
X151949Y123352D01*
X151852Y123255D01*
X142833D01*
X142736Y123352D01*
X142085Y123622D01*
X142140Y124386D01*
X142913D01*
X142913Y124386D01*
X143374Y124478D01*
X143765Y124739D01*
X156624Y137598D01*
X157045D01*
X157756Y137041D01*
D02*
G37*
G36*
X141380Y123622D02*
X140729Y123352D01*
X140230Y122854D01*
X139961Y122203D01*
Y121498D01*
X140230Y120847D01*
X140729Y120349D01*
X141380Y120079D01*
X142085D01*
X142736Y120349D01*
X142833Y120445D01*
X151852D01*
X151949Y120349D01*
X152600Y120079D01*
X153305D01*
X153956Y120349D01*
X154253Y120645D01*
X155041Y120360D01*
Y107043D01*
X154678Y106821D01*
X154253Y106660D01*
X153699Y106890D01*
X152994D01*
X152994Y106890D01*
X141950Y117934D01*
X141624Y118151D01*
X141240Y118228D01*
X125361D01*
X124803Y118939D01*
Y118958D01*
X125032Y119657D01*
X125531Y119685D01*
X125746D01*
X126397Y119955D01*
X126896Y120453D01*
X127165Y121104D01*
Y121809D01*
X126896Y122460D01*
X126397Y122959D01*
X125746Y123228D01*
X125041D01*
X124390Y122959D01*
X123892Y122460D01*
X123622Y121809D01*
Y121791D01*
X123393Y121091D01*
X122895Y121063D01*
X122679D01*
X122028Y120793D01*
X121530Y120295D01*
X121260Y119644D01*
Y118939D01*
X121112Y118728D01*
X120327Y118661D01*
X118539Y120449D01*
X118213Y120667D01*
X117829Y120743D01*
X99021D01*
X98800Y120925D01*
Y121022D01*
X98530Y121673D01*
X98031Y122171D01*
X97380Y122441D01*
X96675D01*
X96024Y122171D01*
X95526Y121673D01*
X95256Y121022D01*
Y120317D01*
X95526Y119666D01*
X95624Y119568D01*
X95298Y118780D01*
X81883D01*
X81325Y119491D01*
Y120196D01*
X81056Y120847D01*
X80557Y121345D01*
X79906Y121615D01*
X79201D01*
X78550Y121345D01*
X78118Y120913D01*
X77703Y121328D01*
X77052Y121598D01*
X76347D01*
X75696Y121328D01*
X75198Y120830D01*
X74928Y120179D01*
Y119474D01*
X75198Y118823D01*
X75696Y118325D01*
X76347Y118055D01*
X76609D01*
X76848Y117736D01*
X76453Y116948D01*
X69116D01*
X68721Y117343D01*
X68395Y117561D01*
X68011Y117637D01*
X54222D01*
X53838Y117561D01*
X53513Y117343D01*
X53118Y116948D01*
X49238D01*
X49238Y116948D01*
X48740Y117447D01*
X48089Y117717D01*
X47384D01*
X46733Y117447D01*
X46234Y116948D01*
X45965Y116297D01*
Y115593D01*
X46234Y114941D01*
X46733Y114443D01*
X47384Y114173D01*
X48089D01*
X48740Y114443D01*
X49238Y114941D01*
X49238Y114941D01*
X52344D01*
X52645Y114214D01*
X48087Y109656D01*
X48087Y109656D01*
X47383D01*
X46732Y109387D01*
X46233Y108888D01*
X45963Y108237D01*
Y107532D01*
X45410Y106811D01*
X43176D01*
X42618Y107522D01*
Y108226D01*
X42348Y108878D01*
X41850Y109376D01*
X41199Y109646D01*
X40494D01*
X39843Y109376D01*
X39344Y108878D01*
X39075Y108226D01*
Y107522D01*
X39034Y107463D01*
X38107Y107286D01*
X31517Y113876D01*
X31517Y113876D01*
Y114581D01*
X31247Y115232D01*
X30749Y115731D01*
X30098Y116000D01*
X29393D01*
X28742Y115731D01*
X28243Y115232D01*
X27974Y114581D01*
Y113876D01*
X28243Y113225D01*
X28742Y112727D01*
X29393Y112457D01*
X30098D01*
X30098Y112457D01*
X37457Y105097D01*
X37783Y104880D01*
X38167Y104804D01*
X47894D01*
X48220Y104016D01*
X46745Y102541D01*
X32604D01*
X32604Y102541D01*
X32106Y103040D01*
X31455Y103309D01*
X30750D01*
X30099Y103040D01*
X29600Y102541D01*
X29331Y101890D01*
Y101185D01*
X29600Y100534D01*
X30055Y100080D01*
X29600Y99626D01*
X29331Y98975D01*
Y98270D01*
X29600Y97619D01*
X30099Y97120D01*
X29885Y96761D01*
X29797Y96673D01*
X29528Y96022D01*
Y95317D01*
X29797Y94666D01*
X30296Y94167D01*
X30947Y93898D01*
X31652D01*
X32303Y94167D01*
X32801Y94666D01*
X33071Y95317D01*
Y96022D01*
X33071Y96022D01*
X35024Y97975D01*
X48221D01*
X48605Y98051D01*
X48930Y98269D01*
X54884Y104223D01*
X55633Y104130D01*
X56046Y103433D01*
X55782Y103169D01*
X55512Y102518D01*
Y101813D01*
X55782Y101162D01*
X56280Y100663D01*
X56931Y100394D01*
X57636D01*
X58287Y100663D01*
X58785Y101162D01*
X59055Y101813D01*
Y102518D01*
X58785Y103169D01*
X58313Y103642D01*
X58785Y104115D01*
X59055Y104766D01*
Y105471D01*
X59046Y105492D01*
X59572Y106280D01*
X63864D01*
X64398Y105676D01*
X64351Y105439D01*
X63852Y104941D01*
X63583Y104289D01*
Y103585D01*
X63852Y102933D01*
X64351Y102435D01*
X65002Y102165D01*
X65707D01*
X66358Y102435D01*
X66856Y102933D01*
X66856Y102934D01*
X70279D01*
X70605Y102146D01*
X70349Y101889D01*
X70079Y101238D01*
Y100533D01*
X70349Y99882D01*
X70772Y99459D01*
X70349Y99035D01*
X70079Y98384D01*
Y97679D01*
X69521Y96968D01*
X65870D01*
X65672Y97166D01*
X65346Y97384D01*
X64962Y97460D01*
X58785D01*
X58785Y97460D01*
X58287Y97959D01*
X57636Y98228D01*
X56931D01*
X56280Y97959D01*
X55782Y97460D01*
X55512Y96809D01*
Y96104D01*
X55782Y95453D01*
X56280Y94955D01*
X56931Y94685D01*
X57636D01*
X58287Y94955D01*
X58785Y95453D01*
X58785Y95453D01*
X64546D01*
X64745Y95255D01*
X65070Y95037D01*
X65454Y94961D01*
X114691D01*
X114932Y94431D01*
X114960Y94174D01*
X107247Y86460D01*
X107029Y86134D01*
X106953Y85750D01*
Y82300D01*
X107029Y81916D01*
X107247Y81590D01*
X108661Y80175D01*
X108661Y80175D01*
Y79470D01*
X108931Y78819D01*
X109355Y78396D01*
X108931Y77972D01*
X108661Y77321D01*
Y76616D01*
X108100Y75913D01*
X103646D01*
X98995Y80563D01*
X98995Y80563D01*
X98510Y81048D01*
X98055Y81353D01*
X97517Y81460D01*
X76708D01*
X76170Y81353D01*
X75715Y81048D01*
X71524Y76858D01*
X33395D01*
X22047Y88205D01*
Y88342D01*
X21778Y88994D01*
X21279Y89492D01*
X20628Y89762D01*
X19923D01*
X19272Y89492D01*
X18774Y88994D01*
X18504Y88342D01*
Y87638D01*
X18774Y86986D01*
X19272Y86488D01*
X19923Y86218D01*
X20060D01*
X31819Y74459D01*
X32275Y74155D01*
X32813Y74048D01*
X72106D01*
X72644Y74155D01*
X73100Y74459D01*
X77290Y78650D01*
X91630D01*
X92191Y77946D01*
Y77242D01*
X92460Y76591D01*
X92959Y76092D01*
X93610Y75822D01*
X94315D01*
X94966Y76092D01*
X95787Y75800D01*
X95979Y75607D01*
X96630Y75338D01*
X97335D01*
X97986Y75607D01*
X98484Y76106D01*
X99378Y76206D01*
X101826Y73759D01*
X101631Y73275D01*
X101440Y73032D01*
X100829D01*
X100178Y72762D01*
X99679Y72263D01*
X99410Y71612D01*
Y70907D01*
X99288Y70747D01*
X98793Y70338D01*
X98568Y70382D01*
X86352D01*
X81360Y75375D01*
X81034Y75592D01*
X80650Y75668D01*
X79258D01*
X79258Y75669D01*
X78759Y76167D01*
X78108Y76437D01*
X77403D01*
X76752Y76167D01*
X76254Y75669D01*
X75984Y75017D01*
Y74313D01*
X76254Y73661D01*
X76752Y73163D01*
X77403Y72893D01*
X78108D01*
X78759Y73163D01*
X79258Y73661D01*
X79258Y73661D01*
X80234D01*
X84901Y68995D01*
X84774Y68556D01*
X84547Y68236D01*
X81398D01*
X80860Y68129D01*
X80404Y67824D01*
X77174Y64594D01*
X74919D01*
X74822Y64691D01*
X74171Y64961D01*
X73466D01*
X72815Y64691D01*
X72718Y64594D01*
X69031D01*
X68493Y64487D01*
X68038Y64182D01*
X67170Y63314D01*
X64289D01*
X59610Y67993D01*
X59937Y68780D01*
X63954D01*
X64764Y67971D01*
X64764Y67971D01*
Y67266D01*
X65034Y66615D01*
X65532Y66116D01*
X66183Y65847D01*
X66888D01*
X67539Y66116D01*
X68037Y66615D01*
X68307Y67266D01*
Y67971D01*
X68037Y68622D01*
X67539Y69120D01*
X66888Y69390D01*
X66183D01*
X66183Y69390D01*
X65080Y70493D01*
X64754Y70711D01*
X64370Y70787D01*
X33171D01*
X32787Y70711D01*
X32461Y70493D01*
X30885Y68917D01*
X14100D01*
X14100Y68917D01*
X13602Y69415D01*
X12951Y69685D01*
X12246D01*
X11595Y69415D01*
X11153Y68973D01*
X10889Y69000D01*
X10366Y69210D01*
Y104642D01*
X11093Y104943D01*
X30164Y85873D01*
X30685Y85524D01*
X31299Y85402D01*
X31299Y85402D01*
X56727D01*
X57128Y85236D01*
X57833D01*
X58484Y85506D01*
X58982Y86004D01*
X59252Y86655D01*
Y87360D01*
X58982Y88011D01*
X58484Y88510D01*
X57833Y88779D01*
X57128D01*
X56727Y88613D01*
X43435D01*
X42909Y89401D01*
X42913Y89411D01*
Y90116D01*
X42644Y90767D01*
X42145Y91266D01*
X41494Y91535D01*
X40789D01*
X40138Y91266D01*
X39640Y90767D01*
X39370Y90116D01*
Y89411D01*
X39374Y89401D01*
X38848Y88613D01*
X31964D01*
X12826Y107752D01*
Y119246D01*
X12826Y119246D01*
X12704Y119860D01*
X12356Y120381D01*
X12356Y120381D01*
X10169Y122569D01*
Y123502D01*
X10956Y123945D01*
X11262Y123819D01*
X11967D01*
X12618Y124089D01*
X12915Y124386D01*
X63292D01*
X63443Y124238D01*
X63753Y123599D01*
X63583Y123187D01*
Y122482D01*
X63852Y121831D01*
X64351Y121333D01*
X65002Y121063D01*
X65707D01*
X66358Y121333D01*
X66856Y121831D01*
X66897Y121928D01*
X67152Y122484D01*
X67670Y122516D01*
X76024D01*
X76024Y122516D01*
X76485Y122608D01*
X76875Y122869D01*
X78393Y124386D01*
X141324D01*
X141380Y123622D01*
D02*
G37*
G36*
X119635Y116515D02*
X119960Y116297D01*
X120344Y116221D01*
X140824D01*
X151575Y105471D01*
X151575Y105471D01*
Y104766D01*
X151625Y104645D01*
X151099Y103858D01*
X93471D01*
X92913Y104569D01*
Y105274D01*
X92644Y105925D01*
X92145Y106423D01*
X91494Y106693D01*
X91427D01*
X90748Y107242D01*
X90674Y107420D01*
X90478Y107893D01*
X89980Y108392D01*
X89980Y108392D01*
Y109457D01*
X89903Y109841D01*
X89686Y110167D01*
X83867Y115986D01*
X84193Y116773D01*
X97058D01*
X97442Y116849D01*
X97768Y117067D01*
X99437Y118736D01*
X117413D01*
X119635Y116515D01*
D02*
G37*
G36*
X157756Y104420D02*
Y101716D01*
X155590Y99549D01*
X154693Y99657D01*
X154194Y100156D01*
X153543Y100425D01*
X152838D01*
X152187Y100156D01*
X151689Y99657D01*
X151419Y99006D01*
Y98301D01*
X151419Y98301D01*
X150086Y96968D01*
X74180D01*
X73622Y97679D01*
Y98384D01*
X73352Y99035D01*
X72929Y99459D01*
X73352Y99882D01*
X73622Y100533D01*
Y101238D01*
X73352Y101889D01*
X73096Y102146D01*
X73422Y102934D01*
X74582D01*
X75370Y102145D01*
X75696Y101927D01*
X76080Y101851D01*
X117601D01*
X117810Y101328D01*
X117837Y101063D01*
X117396Y100622D01*
X117126Y99971D01*
Y99266D01*
X117396Y98615D01*
X117894Y98116D01*
X118545Y97847D01*
X119250D01*
X119901Y98116D01*
X120400Y98615D01*
X120669Y99266D01*
Y99971D01*
X120400Y100622D01*
X119958Y101063D01*
X119985Y101328D01*
X120195Y101851D01*
X154006D01*
X154390Y101927D01*
X154715Y102145D01*
X156754Y104183D01*
X156971Y104509D01*
X156984Y104572D01*
X157756Y104420D01*
D02*
G37*
G36*
X149644Y91794D02*
X141531Y83681D01*
X132998D01*
X132998Y83681D01*
X132500Y84179D01*
X131849Y84449D01*
X131144D01*
X130492Y84179D01*
X129994Y83681D01*
X129097Y83572D01*
X120935Y91734D01*
X121261Y92522D01*
X149343D01*
X149644Y91794D01*
D02*
G37*
G36*
X163787Y98366D02*
X163852Y98209D01*
X163909Y98152D01*
X164296Y97638D01*
X163909Y97123D01*
X163852Y97067D01*
X163583Y96415D01*
Y95711D01*
X163852Y95060D01*
X163909Y95003D01*
X164296Y94488D01*
X163909Y93974D01*
X163852Y93917D01*
X163583Y93266D01*
Y92561D01*
X163852Y91910D01*
X163909Y91853D01*
X164296Y91339D01*
X163909Y90824D01*
X163852Y90767D01*
X163583Y90116D01*
Y89411D01*
X163852Y88760D01*
X163909Y88703D01*
X164296Y88189D01*
X163909Y87675D01*
X163852Y87618D01*
X163583Y86967D01*
Y86262D01*
X163852Y85611D01*
X163909Y85554D01*
X164296Y85039D01*
X163909Y84525D01*
X163852Y84468D01*
X163583Y83817D01*
Y83112D01*
X163852Y82461D01*
X163909Y82404D01*
X164296Y81890D01*
X163909Y81375D01*
X163852Y81318D01*
X163583Y80667D01*
Y79963D01*
X163852Y79311D01*
X163909Y79255D01*
X164296Y78740D01*
X163909Y78226D01*
X163852Y78169D01*
X163583Y77518D01*
Y76813D01*
X163852Y76162D01*
X163909Y76105D01*
X164296Y75591D01*
X163909Y75076D01*
X163852Y75019D01*
X163583Y74368D01*
Y73663D01*
X163852Y73012D01*
X163909Y72955D01*
X164002Y72832D01*
X163684Y72066D01*
X103255D01*
X103106Y72316D01*
X103552Y73103D01*
X114862D01*
X115400Y73210D01*
X115856Y73514D01*
X118129Y75787D01*
X118266D01*
X118917Y76057D01*
X119415Y76556D01*
X119685Y77207D01*
Y77912D01*
X119415Y78563D01*
X119318Y78660D01*
Y87088D01*
X119415Y87185D01*
X119505Y87403D01*
X120413Y87609D01*
X129400Y78621D01*
X129726Y78404D01*
X130110Y78327D01*
X142219D01*
X142603Y78404D01*
X142929Y78621D01*
X162859Y98551D01*
X163787Y98366D01*
D02*
G37*
G36*
X48819Y68069D02*
Y67364D01*
X49089Y66713D01*
X49587Y66215D01*
X50238Y65945D01*
X50943D01*
X51594Y66215D01*
X51691Y66312D01*
X57318D01*
X61662Y61967D01*
X61361Y61240D01*
X53671D01*
X53286Y61163D01*
X52961Y60946D01*
X48038Y56023D01*
X42254D01*
X41870Y55947D01*
X41544Y55729D01*
X39482Y53667D01*
X39321Y53620D01*
X38745Y53614D01*
X38481Y53685D01*
X38223Y53944D01*
X37572Y54213D01*
X36867D01*
X36216Y53944D01*
X35718Y53445D01*
X35448Y52794D01*
Y52089D01*
X35718Y51438D01*
X36216Y50940D01*
X36867Y50670D01*
X37572D01*
X38223Y50940D01*
X38989Y50592D01*
Y46032D01*
X38202Y45876D01*
X38116Y46082D01*
X37618Y46581D01*
X36967Y46850D01*
X36262D01*
X35611Y46581D01*
X35112Y46082D01*
X34843Y45431D01*
Y44726D01*
X35112Y44075D01*
X35611Y43577D01*
X36262Y43307D01*
X36967D01*
X37618Y43577D01*
X38116Y44075D01*
X38202Y44282D01*
X38989Y44125D01*
Y43078D01*
X39065Y42694D01*
X39283Y42369D01*
X41142Y40510D01*
X41142Y40510D01*
Y39805D01*
X41412Y39154D01*
X41910Y38655D01*
X42561Y38386D01*
X43266D01*
X43917Y38655D01*
X44390Y39128D01*
X44863Y38655D01*
X45514Y38386D01*
X46218D01*
X46870Y38655D01*
X47368Y39154D01*
X47638Y39805D01*
Y40510D01*
X47368Y41161D01*
X46870Y41659D01*
X46218Y41929D01*
X45514D01*
X44863Y41659D01*
X44390Y41187D01*
X43917Y41659D01*
X43266Y41929D01*
X42561D01*
X42561Y41929D01*
X40996Y43494D01*
Y48061D01*
X41707Y48619D01*
X42412D01*
X43063Y48888D01*
X43504Y49330D01*
X43910Y48924D01*
X44561Y48654D01*
X45266D01*
X45917Y48924D01*
X46415Y49422D01*
X46685Y50073D01*
Y50778D01*
X47243Y51489D01*
X47736D01*
X48120Y51565D01*
X48446Y51783D01*
X49424Y52761D01*
X49584Y52769D01*
X50307Y52531D01*
X50467Y52146D01*
X50965Y51648D01*
X51616Y51378D01*
X52321D01*
X52972Y51648D01*
X53470Y52146D01*
X53740Y52797D01*
Y53502D01*
X53470Y54153D01*
X52972Y54651D01*
X52587Y54811D01*
X52349Y55534D01*
X52357Y55694D01*
X54616Y57953D01*
X68975D01*
X69359Y58030D01*
X69684Y58247D01*
X70178Y58741D01*
X72277D01*
X72835Y58030D01*
Y57325D01*
X73104Y56674D01*
X73603Y56175D01*
X73930Y56040D01*
Y52755D01*
X73219Y52197D01*
X72514D01*
X71863Y51927D01*
X71422Y51486D01*
X71016Y51892D01*
X70365Y52162D01*
X69660D01*
X69009Y51892D01*
X68510Y51394D01*
X68241Y50743D01*
Y50038D01*
X68510Y49387D01*
X69009Y48888D01*
X69660Y48619D01*
X70365D01*
X71016Y48888D01*
X71457Y49330D01*
X71863Y48924D01*
X72514Y48654D01*
X72904D01*
X73239Y47875D01*
X73109Y47745D01*
X72892Y47420D01*
X72815Y47036D01*
Y41827D01*
X72140Y41389D01*
X71870Y41659D01*
X71219Y41929D01*
X70514D01*
X69863Y41659D01*
X69364Y41161D01*
X69095Y40510D01*
Y39805D01*
X69364Y39154D01*
X69863Y38655D01*
X70514Y38386D01*
X71219D01*
X71870Y38655D01*
X72342Y39128D01*
X72815Y38655D01*
X73466Y38386D01*
X74171D01*
X74822Y38655D01*
X75321Y39154D01*
X75590Y39805D01*
Y40510D01*
X75321Y41161D01*
X74822Y41659D01*
X74822Y41659D01*
Y46620D01*
X75643Y47440D01*
X75860Y47766D01*
X75937Y48150D01*
Y56428D01*
X75925Y56490D01*
X76108Y56674D01*
X76378Y57325D01*
Y58030D01*
X76936Y58741D01*
X81004D01*
X81388Y58817D01*
X81713Y59035D01*
X82325Y59646D01*
X82325Y59646D01*
X83030D01*
X83681Y59915D01*
X84179Y60414D01*
X84449Y61065D01*
Y61770D01*
X84238Y62279D01*
X84791Y62837D01*
X85560Y62650D01*
X91142Y57068D01*
Y56931D01*
X91412Y56280D01*
X91910Y55782D01*
X92561Y55512D01*
X93266D01*
X93917Y55782D01*
X94415Y56280D01*
X94685Y56931D01*
Y57068D01*
X96251Y58634D01*
X106102D01*
X106640Y58741D01*
X107096Y59046D01*
X110255Y62205D01*
X110392D01*
X111043Y62475D01*
X111541Y62973D01*
X111811Y63624D01*
Y64329D01*
X111541Y64980D01*
X111043Y65478D01*
X110392Y65748D01*
X109687D01*
X109036Y65478D01*
X108537Y64980D01*
X108268Y64329D01*
Y64192D01*
X105520Y61444D01*
X95669D01*
X95132Y61337D01*
X94676Y61033D01*
X92913Y59270D01*
X89585Y62598D01*
X89645Y62942D01*
X89856Y63441D01*
X90374Y63656D01*
X90872Y64154D01*
X91142Y64805D01*
Y65510D01*
X90872Y66161D01*
X90374Y66659D01*
X89723Y66929D01*
X89018D01*
X88367Y66659D01*
X88073Y66366D01*
X87278Y66335D01*
X87115Y66383D01*
X85892Y67606D01*
X86236Y68375D01*
X98153D01*
X98537Y67991D01*
X98862Y67774D01*
X99246Y67697D01*
X163583D01*
Y67364D01*
X163852Y66713D01*
X163909Y66656D01*
X164296Y66142D01*
X163909Y65627D01*
X163852Y65570D01*
X163583Y64919D01*
Y64214D01*
X163852Y63563D01*
X163909Y63507D01*
X164296Y62992D01*
X163909Y62478D01*
X163852Y62421D01*
X163583Y61770D01*
Y61065D01*
X163852Y60414D01*
X163909Y60357D01*
X164296Y59842D01*
X163909Y59328D01*
X163852Y59271D01*
X163583Y58620D01*
Y57915D01*
X163852Y57264D01*
X163909Y57207D01*
X164296Y56693D01*
X163909Y56178D01*
X163852Y56122D01*
X163583Y55471D01*
Y54766D01*
X163852Y54115D01*
X163909Y54058D01*
X164296Y53543D01*
X163909Y53029D01*
X163852Y52972D01*
X163583Y52321D01*
Y51616D01*
X163852Y50965D01*
X163909Y50908D01*
X164296Y50394D01*
X163909Y49879D01*
X163852Y49823D01*
X163583Y49171D01*
Y48467D01*
X163852Y47815D01*
X163909Y47758D01*
X164296Y47244D01*
X163909Y46730D01*
X163852Y46673D01*
X163583Y46022D01*
Y45317D01*
X163852Y44666D01*
X163909Y44609D01*
X164296Y44094D01*
X163909Y43580D01*
X163852Y43523D01*
X163583Y42872D01*
Y42167D01*
X163852Y41516D01*
X163909Y41459D01*
X164296Y40945D01*
X163909Y40431D01*
X163852Y40374D01*
X163583Y39722D01*
Y39018D01*
X163852Y38366D01*
X164351Y37868D01*
X165002Y37598D01*
X165707D01*
X165748Y37615D01*
X166535Y37089D01*
Y15273D01*
X165748Y14747D01*
X165707Y14764D01*
X165002D01*
X164351Y14494D01*
X163852Y13996D01*
X163583Y13345D01*
Y12640D01*
X163852Y11989D01*
X163480Y11248D01*
X161116D01*
X160864Y11514D01*
X160649Y12278D01*
X161148Y12776D01*
X161417Y13427D01*
Y14132D01*
X161148Y14783D01*
X160649Y15281D01*
X159998Y15551D01*
X159293D01*
X158642Y15281D01*
X158545Y15184D01*
X153471D01*
X148863Y19793D01*
X148407Y20097D01*
X147870Y20204D01*
X107176D01*
X82087Y45294D01*
Y45431D01*
X81817Y46082D01*
X81318Y46581D01*
X80667Y46850D01*
X79963D01*
X79311Y46581D01*
X78813Y46082D01*
X78543Y45431D01*
Y45294D01*
X77058Y43808D01*
X76753Y43353D01*
X76646Y42815D01*
Y38539D01*
X74837Y36730D01*
X73943Y36830D01*
X73444Y37329D01*
X72793Y37598D01*
X72088D01*
X71437Y37329D01*
X70939Y36830D01*
X70669Y36179D01*
Y35474D01*
X70939Y34823D01*
X71437Y34325D01*
X71538Y33431D01*
X67662Y29555D01*
X57557D01*
Y35517D01*
X57450Y36055D01*
X57145Y36511D01*
X53767Y39889D01*
Y43978D01*
X53864Y44075D01*
X54134Y44726D01*
Y45431D01*
X53864Y46082D01*
X53366Y46581D01*
X52715Y46850D01*
X52010D01*
X51359Y46581D01*
X50860Y46082D01*
X50591Y45431D01*
Y44726D01*
X50860Y44075D01*
X50957Y43978D01*
Y39307D01*
X51064Y38769D01*
X51369Y38313D01*
X51656Y38026D01*
X51556Y37132D01*
X51057Y36634D01*
X50787Y35982D01*
Y35278D01*
X51057Y34626D01*
X51556Y34128D01*
X52207Y33858D01*
X52912D01*
X53563Y34128D01*
X53959Y34525D01*
X54440Y34437D01*
X54747Y34283D01*
Y29599D01*
X51295D01*
X49838Y31057D01*
X49317Y31405D01*
X48702Y31527D01*
X48702Y31527D01*
X43443D01*
X43442Y31527D01*
X42828Y31405D01*
X42307Y31057D01*
X42307Y31057D01*
X40850Y29599D01*
X38007D01*
X37606Y29765D01*
X36902D01*
X36501Y29599D01*
X31292D01*
X29835Y31057D01*
X29314Y31405D01*
X29177Y31432D01*
Y41716D01*
X29070Y42253D01*
X28766Y42709D01*
X26181Y45294D01*
Y45431D01*
X25911Y46082D01*
X25413Y46581D01*
X25305Y47478D01*
X39028Y61201D01*
X40920D01*
X40936Y61141D01*
X41299Y60513D01*
X41812Y60000D01*
X42440Y59637D01*
X43141Y59449D01*
X43867D01*
X44568Y59637D01*
X45196Y60000D01*
X45709Y60513D01*
X46072Y61141D01*
X46260Y61842D01*
Y62568D01*
X46072Y63269D01*
X45709Y63897D01*
X45196Y64410D01*
X44568Y64773D01*
X43867Y64961D01*
X43141D01*
X42440Y64773D01*
X41812Y64410D01*
X41299Y63897D01*
X40936Y63269D01*
X40920Y63208D01*
X38612D01*
X38228Y63132D01*
X37903Y62914D01*
X20944Y45956D01*
X20726Y45630D01*
X20650Y45246D01*
Y32014D01*
X20650Y32014D01*
X20152Y31515D01*
X19882Y30864D01*
Y30315D01*
X19450Y29946D01*
X19174Y29810D01*
X18905Y29921D01*
X18201D01*
X17800Y29755D01*
X15976D01*
Y38476D01*
X16763Y38802D01*
X16910Y38655D01*
X17561Y38386D01*
X18266D01*
X18917Y38655D01*
X19415Y39154D01*
X19685Y39805D01*
Y40510D01*
X19415Y41161D01*
X18917Y41659D01*
X18266Y41929D01*
X17561D01*
X16910Y41659D01*
X16763Y41513D01*
X15976Y41839D01*
Y43128D01*
X15976Y43128D01*
X15854Y43743D01*
X15505Y44264D01*
X15505Y44264D01*
X9827Y49942D01*
X10039Y50844D01*
X10271Y50940D01*
X10769Y51438D01*
X11039Y52089D01*
Y52794D01*
X10769Y53445D01*
X10271Y53944D01*
X9619Y54213D01*
X8915D01*
X8215Y54776D01*
Y57881D01*
X9895Y59561D01*
X9895Y59561D01*
X10243Y60082D01*
X10366Y60696D01*
X10366Y60696D01*
Y66617D01*
X10889Y66827D01*
X11153Y66853D01*
X11595Y66412D01*
X12246Y66142D01*
X12951D01*
X13602Y66412D01*
X14100Y66910D01*
X14100Y66910D01*
X31301D01*
X31685Y66986D01*
X32010Y67204D01*
X33586Y68780D01*
X48261D01*
X48819Y68069D01*
D02*
G37*
G36*
X105601Y17806D02*
X106057Y17501D01*
X106595Y17394D01*
X140275D01*
X140602Y16607D01*
X139546Y15551D01*
X139215D01*
X138563Y15281D01*
X138466Y15184D01*
X73879D01*
X73782Y15281D01*
X73131Y15551D01*
X72426D01*
X71775Y15281D01*
X71276Y14783D01*
X71007Y14132D01*
Y13995D01*
X61750Y4737D01*
X61447Y4940D01*
X60909Y5047D01*
X58129D01*
X57592Y4940D01*
X57164Y4654D01*
X57150D01*
X56722Y4940D01*
X56185Y5047D01*
X53405D01*
X52867Y4940D01*
X52440Y4654D01*
X52425D01*
X51998Y4940D01*
X51460Y5047D01*
X48680D01*
X48143Y4940D01*
X47715Y4654D01*
X47701D01*
X47273Y4940D01*
X46736Y5047D01*
X43956D01*
X43418Y4940D01*
X42991Y4654D01*
X42976D01*
X42549Y4940D01*
X42011Y5047D01*
X39232D01*
X38694Y4940D01*
X38267Y4654D01*
X38252D01*
X37825Y4940D01*
X37287Y5047D01*
X34507D01*
X33970Y4940D01*
X33542Y4654D01*
X33528D01*
X33100Y4940D01*
X32563Y5047D01*
X29783D01*
X29245Y4940D01*
X28818Y4654D01*
X28803D01*
X28376Y4940D01*
X27838Y5047D01*
X25058D01*
X24521Y4940D01*
X24093Y4654D01*
X24079D01*
X23651Y4940D01*
X23114Y5047D01*
X20334D01*
X19796Y4940D01*
X19369Y4654D01*
X19354D01*
X18927Y4940D01*
X18389Y5047D01*
X15610D01*
X15072Y4940D01*
X14645Y4654D01*
X14630D01*
X14202Y4940D01*
X13665Y5047D01*
X10885D01*
X10348Y4940D01*
X9920Y4654D01*
X9561D01*
X8909Y4384D01*
X8411Y3886D01*
X8141Y3235D01*
Y2530D01*
X8411Y1879D01*
X8909Y1381D01*
X9561Y1111D01*
X10236D01*
Y0D01*
X9449Y0D01*
X5037D01*
X4510Y787D01*
X4528Y829D01*
Y1534D01*
X4258Y2185D01*
X3760Y2683D01*
X3108Y2953D01*
X2403D01*
X1752Y2683D01*
X1254Y2185D01*
X984Y1534D01*
Y1230D01*
X309Y642D01*
X257Y628D01*
X0Y706D01*
Y8743D01*
X787Y9269D01*
X829Y9252D01*
X1534D01*
X2185Y9522D01*
X2683Y10020D01*
X2953Y10671D01*
Y11376D01*
X2683Y12027D01*
X2185Y12526D01*
X2087Y12566D01*
Y13418D01*
X2185Y13459D01*
X2683Y13957D01*
X2849Y14358D01*
X15035Y26544D01*
X17800D01*
X18201Y26378D01*
X18905D01*
X19125Y26469D01*
X19792D01*
X19938Y26371D01*
X20553Y26249D01*
X23593D01*
X23593Y26249D01*
X24207Y26371D01*
X24728Y26719D01*
X26325Y28316D01*
X28034D01*
X29491Y26858D01*
X29491Y26858D01*
X30012Y26510D01*
X30627Y26388D01*
X30627Y26388D01*
X36501D01*
X36902Y26222D01*
X37606D01*
X38007Y26388D01*
X41515D01*
X41515Y26388D01*
X42130Y26510D01*
X42650Y26858D01*
X44108Y28316D01*
X48037D01*
X49494Y26858D01*
X49494Y26858D01*
X50015Y26510D01*
X50630Y26388D01*
X50630Y26388D01*
X55775D01*
X55799Y26378D01*
X56504D01*
X57155Y26648D01*
X57252Y26745D01*
X68244D01*
X68781Y26852D01*
X69237Y27156D01*
X79045Y36964D01*
X79508Y37278D01*
X80159Y37008D01*
X80864D01*
X81515Y37278D01*
X82014Y37776D01*
X82284Y38427D01*
Y39132D01*
X82014Y39783D01*
X81515Y40282D01*
X80864Y40551D01*
X80159D01*
X79456Y41112D01*
Y42233D01*
X80315Y43092D01*
X105601Y17806D01*
D02*
G37*
G36*
X145847Y14837D02*
X146498Y14567D01*
X146635D01*
X152353Y8849D01*
X152809Y8545D01*
X153346Y8438D01*
X158250D01*
X158347Y8341D01*
X158998Y8071D01*
X159703D01*
X160354Y8341D01*
X160451Y8438D01*
X164254D01*
X164351Y8341D01*
X165002Y8071D01*
X165707D01*
X165748Y8088D01*
X166535Y7562D01*
Y1969D01*
X164584D01*
X164494Y2185D01*
X163996Y2683D01*
X163345Y2953D01*
X162640D01*
X161989Y2683D01*
X161490Y2185D01*
X161401Y1969D01*
X159859D01*
X159770Y2185D01*
X159271Y2683D01*
X158620Y2953D01*
X157915D01*
X157264Y2683D01*
X156766Y2185D01*
X156676Y1969D01*
X155135D01*
X155045Y2185D01*
X154547Y2683D01*
X153896Y2953D01*
X153191D01*
X152540Y2683D01*
X152041Y2185D01*
X151952Y1969D01*
X150410D01*
X150321Y2185D01*
X149822Y2683D01*
X149171Y2953D01*
X148467D01*
X147815Y2683D01*
X147317Y2185D01*
X147228Y1969D01*
X145686D01*
X145596Y2185D01*
X145098Y2683D01*
X144447Y2953D01*
X143742D01*
X143091Y2683D01*
X142593Y2185D01*
X142503Y1969D01*
X141355D01*
X141266Y2185D01*
X140767Y2683D01*
X140116Y2953D01*
X139411D01*
X138760Y2683D01*
X138262Y2185D01*
X138172Y1969D01*
X136631D01*
X136541Y2185D01*
X136043Y2683D01*
X135392Y2953D01*
X134687D01*
X134036Y2683D01*
X133537Y2185D01*
X133448Y1969D01*
X131906D01*
X131817Y2185D01*
X131319Y2683D01*
X130667Y2953D01*
X129963D01*
X129312Y2683D01*
X128813Y2185D01*
X128724Y1969D01*
X127182D01*
X127093Y2185D01*
X126594Y2683D01*
X125943Y2953D01*
X125238D01*
X124587Y2683D01*
X124089Y2185D01*
X123999Y1969D01*
X122458D01*
X122368Y2185D01*
X121870Y2683D01*
X121219Y2953D01*
X120514D01*
X119863Y2683D01*
X119364Y2185D01*
X119275Y1969D01*
X117733D01*
X117644Y2185D01*
X117145Y2683D01*
X116494Y2953D01*
X115789D01*
X115138Y2683D01*
X114640Y2185D01*
X114550Y1969D01*
X113009D01*
X112919Y2185D01*
X112421Y2683D01*
X111770Y2953D01*
X111065D01*
X110414Y2683D01*
X109915Y2185D01*
X109826Y1969D01*
X108284D01*
X108195Y2185D01*
X107697Y2683D01*
X107045Y2953D01*
X106341D01*
X105689Y2683D01*
X105191Y2185D01*
X105102Y1969D01*
X103560D01*
X103471Y2185D01*
X102972Y2683D01*
X102321Y2953D01*
X101616D01*
X100965Y2683D01*
X100467Y2185D01*
X100377Y1969D01*
X98836D01*
X98746Y2185D01*
X98248Y2683D01*
X97597Y2953D01*
X96892D01*
X96241Y2683D01*
X95742Y2185D01*
X95653Y1969D01*
X94111D01*
X94022Y2185D01*
X93523Y2683D01*
X92872Y2953D01*
X92167D01*
X91516Y2683D01*
X91018Y2185D01*
X90928Y1969D01*
X89387D01*
X89297Y2185D01*
X88799Y2683D01*
X88148Y2953D01*
X87443D01*
X86792Y2683D01*
X86293Y2185D01*
X86204Y1969D01*
X84662D01*
X84573Y2185D01*
X84074Y2683D01*
X83423Y2953D01*
X82718D01*
X82067Y2683D01*
X81569Y2185D01*
X81479Y1969D01*
X79938D01*
X79848Y2185D01*
X79350Y2683D01*
X78699Y2953D01*
X77994D01*
X77343Y2683D01*
X76845Y2185D01*
X76755Y1969D01*
X75213D01*
X75124Y2185D01*
X74626Y2683D01*
X73975Y2953D01*
X73270D01*
X72619Y2683D01*
X72120Y2185D01*
X72031Y1969D01*
X70489D01*
X70400Y2185D01*
X69901Y2683D01*
X69250Y2953D01*
X68545D01*
X67894Y2683D01*
X67396Y2185D01*
X67306Y1969D01*
X65765D01*
X65675Y2185D01*
X65177Y2683D01*
X64898Y2798D01*
X64666Y3680D01*
X72994Y12008D01*
X73131D01*
X73782Y12278D01*
X73879Y12375D01*
X138466D01*
X138563Y12278D01*
X139215Y12008D01*
X139919D01*
X140570Y12278D01*
X141069Y12776D01*
X141298Y13330D01*
X142902Y14934D01*
X145750D01*
X145847Y14837D01*
D02*
G37*
%LPC*%
G36*
X8620Y40354D02*
X7915D01*
X7264Y40085D01*
X6766Y39586D01*
X6496Y38935D01*
Y38230D01*
X6766Y37579D01*
X7264Y37081D01*
X7915Y36811D01*
X8620D01*
X9271Y37081D01*
X9770Y37579D01*
X10039Y38230D01*
Y38935D01*
X9770Y39586D01*
X9271Y40085D01*
X8620Y40354D01*
D02*
G37*
G36*
X5077Y32677D02*
X4372D01*
X3721Y32407D01*
X3223Y31909D01*
X2953Y31258D01*
Y30553D01*
X3223Y29902D01*
X3721Y29404D01*
X4372Y29134D01*
X5077D01*
X5728Y29404D01*
X6226Y29902D01*
X6496Y30553D01*
Y31258D01*
X6226Y31909D01*
X5728Y32407D01*
X5077Y32677D01*
D02*
G37*
G36*
X41199Y118110D02*
X40494D01*
X39843Y117841D01*
X39344Y117342D01*
X39075Y116691D01*
Y115986D01*
X39344Y115335D01*
X39843Y114837D01*
X40494Y114567D01*
X41199D01*
X41850Y114837D01*
X42348Y115335D01*
X42618Y115986D01*
Y116691D01*
X42348Y117342D01*
X41850Y117841D01*
X41199Y118110D01*
D02*
G37*
G36*
X20431Y113386D02*
X19726D01*
X19075Y113116D01*
X18577Y112618D01*
X18307Y111967D01*
Y111262D01*
X18577Y110611D01*
X19075Y110112D01*
X19726Y109843D01*
X20431D01*
X21082Y110112D01*
X21581Y110611D01*
X21850Y111262D01*
Y111967D01*
X21581Y112618D01*
X21082Y113116D01*
X20431Y113386D01*
D02*
G37*
G36*
X65375Y93000D02*
X64670D01*
X64019Y92730D01*
X63520Y92232D01*
X63250Y91581D01*
Y90876D01*
X63520Y90225D01*
X63325Y89452D01*
X63262Y89389D01*
X62992Y88738D01*
Y88033D01*
X63262Y87382D01*
X63760Y86884D01*
X64411Y86614D01*
X65116D01*
X65767Y86884D01*
X66266Y87382D01*
X66535Y88033D01*
Y88738D01*
X66266Y89389D01*
X66461Y90162D01*
X66524Y90225D01*
X66794Y90876D01*
Y91581D01*
X66524Y92232D01*
X66026Y92730D01*
X65375Y93000D01*
D02*
G37*
G36*
X93069Y90354D02*
X92364D01*
X91713Y90085D01*
X91215Y89586D01*
X90945Y88935D01*
Y88413D01*
X90904Y88386D01*
X90199D01*
X89548Y88116D01*
X89049Y87618D01*
X88779Y86967D01*
Y86262D01*
X89049Y85611D01*
X89548Y85112D01*
X90199Y84842D01*
X90904D01*
X91555Y85112D01*
X92053Y85611D01*
X92323Y86262D01*
Y86783D01*
X92364Y86811D01*
X93069D01*
X93720Y87081D01*
X94218Y87579D01*
X94488Y88230D01*
Y88935D01*
X94218Y89586D01*
X93720Y90085D01*
X93069Y90354D01*
D02*
G37*
G36*
X35785Y83465D02*
X35081D01*
X34429Y83195D01*
X33931Y82696D01*
X33661Y82045D01*
Y81340D01*
X33931Y80689D01*
X34429Y80191D01*
X35081Y79921D01*
X35785D01*
X36437Y80191D01*
X36935Y80689D01*
X37205Y81340D01*
Y82045D01*
X36935Y82696D01*
X36437Y83195D01*
X35785Y83465D01*
D02*
G37*
G36*
X89526Y76575D02*
X88821D01*
X88170Y76305D01*
X87671Y75807D01*
X87027Y76108D01*
X86376Y76378D01*
X85671D01*
X85020Y76108D01*
X84522Y75610D01*
X84252Y74959D01*
Y74254D01*
X84522Y73603D01*
X85020Y73104D01*
X85671Y72835D01*
X86376D01*
X87027Y73104D01*
X87525Y73603D01*
X88170Y73301D01*
X88821Y73032D01*
X89526D01*
X90177Y73301D01*
X90675Y73800D01*
X90945Y74451D01*
Y75156D01*
X90675Y75807D01*
X90177Y76305D01*
X89526Y76575D01*
D02*
G37*
G36*
X105875Y117509D02*
X105170D01*
X104519Y117239D01*
X104021Y116741D01*
X103751Y116090D01*
Y115385D01*
X104021Y114734D01*
X104519Y114235D01*
X105170Y113966D01*
X105875D01*
X106526Y114235D01*
X107025Y114734D01*
X107294Y115385D01*
Y116090D01*
X107025Y116741D01*
X106526Y117239D01*
X105875Y117509D01*
D02*
G37*
G36*
X101730Y113976D02*
X101025D01*
X100374Y113707D01*
X99876Y113208D01*
X99606Y112557D01*
Y111852D01*
X99876Y111201D01*
X100374Y110703D01*
X101025Y110433D01*
X101730D01*
X102382Y110703D01*
X102880Y111201D01*
X103150Y111852D01*
Y112557D01*
X102880Y113208D01*
X102382Y113707D01*
X101730Y113976D01*
D02*
G37*
G36*
X108817Y112795D02*
X108112D01*
X107461Y112525D01*
X106963Y112027D01*
X106693Y111376D01*
Y110671D01*
X106963Y110020D01*
X107461Y109522D01*
X108112Y109252D01*
X108817D01*
X109468Y109522D01*
X109967Y110020D01*
X110236Y110671D01*
Y111376D01*
X109967Y112027D01*
X109468Y112525D01*
X108817Y112795D01*
D02*
G37*
G36*
X26150Y64961D02*
X25425D01*
X24724Y64773D01*
X24095Y64410D01*
X23582Y63897D01*
X23219Y63269D01*
X23031Y62568D01*
Y61842D01*
X23219Y61141D01*
X23582Y60513D01*
X24095Y60000D01*
X24724Y59637D01*
X25425Y59449D01*
X26150D01*
X26851Y59637D01*
X27480Y60000D01*
X27993Y60513D01*
X28356Y61141D01*
X28543Y61842D01*
Y62568D01*
X28356Y63269D01*
X27993Y63897D01*
X27480Y64410D01*
X26851Y64773D01*
X26150Y64961D01*
D02*
G37*
G36*
X17313Y52197D02*
X16609D01*
X15957Y51927D01*
X15516Y51486D01*
X15110Y51892D01*
X14459Y52162D01*
X13754D01*
X13103Y51892D01*
X12605Y51394D01*
X12335Y50743D01*
Y50038D01*
X12605Y49387D01*
X13103Y48888D01*
X13754Y48619D01*
X14459D01*
X15110Y48888D01*
X15551Y49330D01*
X15957Y48924D01*
X16609Y48654D01*
X17313D01*
X17964Y48924D01*
X18463Y49422D01*
X18733Y50073D01*
Y50778D01*
X18463Y51429D01*
X17964Y51927D01*
X17313Y52197D01*
D02*
G37*
G36*
X80274Y54921D02*
X79569D01*
X78918Y54651D01*
X78419Y54153D01*
X78150Y53502D01*
Y52797D01*
X78419Y52146D01*
X78918Y51648D01*
X79569Y51378D01*
X80274D01*
X80925Y51648D01*
X81423Y52146D01*
X81693Y52797D01*
Y53502D01*
X81423Y54153D01*
X80925Y54651D01*
X80274Y54921D01*
D02*
G37*
G36*
X24368D02*
X23663D01*
X23012Y54651D01*
X22514Y54153D01*
X22244Y53502D01*
Y52797D01*
X22514Y52146D01*
X23012Y51648D01*
X23663Y51378D01*
X24368D01*
X25019Y51648D01*
X25518Y52146D01*
X25787Y52797D01*
Y53502D01*
X25518Y54153D01*
X25019Y54651D01*
X24368Y54921D01*
D02*
G37*
G36*
X65525Y54213D02*
X64820D01*
X64169Y53944D01*
X63671Y53445D01*
X63401Y52794D01*
Y52089D01*
X63671Y51438D01*
X64169Y50940D01*
X64820Y50670D01*
X65525D01*
X66176Y50940D01*
X66675Y51438D01*
X66944Y52089D01*
Y52794D01*
X66675Y53445D01*
X66176Y53944D01*
X65525Y54213D01*
D02*
G37*
G36*
X64919Y46850D02*
X64214D01*
X63563Y46581D01*
X63065Y46082D01*
X62795Y45431D01*
Y44726D01*
X63065Y44075D01*
X63145Y43995D01*
X63350Y43292D01*
X63122Y42990D01*
X62868Y42736D01*
X62598Y42085D01*
Y41380D01*
X62868Y40729D01*
X63170Y40085D01*
X62671Y39586D01*
X62402Y38935D01*
Y38230D01*
X62671Y37579D01*
X63170Y37081D01*
X63821Y36811D01*
X64526D01*
X65177Y37081D01*
X65675Y37579D01*
X65945Y38230D01*
Y38935D01*
X65675Y39586D01*
X65374Y40230D01*
X65872Y40729D01*
X66142Y41380D01*
Y42085D01*
X65872Y42736D01*
X65792Y42816D01*
X65587Y43519D01*
X65815Y43821D01*
X66069Y44075D01*
X66339Y44726D01*
Y45431D01*
X66069Y46082D01*
X65570Y46581D01*
X64919Y46850D01*
D02*
G37*
G36*
X36527Y40354D02*
X35822D01*
X35171Y40085D01*
X34673Y39586D01*
X34403Y38935D01*
Y38230D01*
X34673Y37579D01*
X35171Y37081D01*
X35822Y36811D01*
X36527D01*
X37178Y37081D01*
X37677Y37579D01*
X37946Y38230D01*
Y38935D01*
X37677Y39586D01*
X37178Y40085D01*
X36527Y40354D01*
D02*
G37*
G36*
X38227Y19790D02*
X37522D01*
X36871Y19520D01*
X36373Y19022D01*
X36135Y18447D01*
X35741Y18407D01*
X35347Y18447D01*
X35109Y19022D01*
X34611Y19520D01*
X33960Y19790D01*
X33255D01*
X32604Y19520D01*
X32105Y19022D01*
X31836Y18371D01*
Y17666D01*
X32105Y17015D01*
X32604Y16516D01*
X33255Y16247D01*
X33960D01*
X34611Y16516D01*
X35109Y17015D01*
X35347Y17589D01*
X35741Y17629D01*
X36135Y17589D01*
X36373Y17015D01*
X36871Y16516D01*
X37522Y16247D01*
X38227D01*
X38878Y16516D01*
X39377Y17015D01*
X39646Y17666D01*
Y18371D01*
X39377Y19022D01*
X38878Y19520D01*
X38227Y19790D01*
D02*
G37*
G36*
X19329Y19790D02*
X18625D01*
X17973Y19520D01*
X17475Y19022D01*
X17237Y18447D01*
X16843Y18407D01*
X16450Y18447D01*
X16212Y19022D01*
X15713Y19520D01*
X15062Y19790D01*
X14357D01*
X13706Y19520D01*
X13208Y19022D01*
X12938Y18371D01*
Y17666D01*
X13208Y17015D01*
X13706Y16516D01*
X14357Y16247D01*
X15062D01*
X15713Y16516D01*
X16212Y17015D01*
X16450Y17589D01*
X16843Y17629D01*
X17237Y17589D01*
X17475Y17015D01*
X17973Y16516D01*
X18625Y16247D01*
X19329D01*
X19981Y16516D01*
X20479Y17015D01*
X20749Y17666D01*
Y18371D01*
X20479Y19022D01*
X19981Y19520D01*
X19329Y19790D01*
D02*
G37*
G36*
X57125D02*
X56420D01*
X55769Y19520D01*
X55270Y19022D01*
X55032Y18447D01*
X54639Y18407D01*
X54245Y18447D01*
X54007Y19022D01*
X53509Y19520D01*
X52857Y19790D01*
X52153D01*
X51501Y19520D01*
X51003Y19022D01*
X50733Y18371D01*
Y17666D01*
X51003Y17015D01*
X51501Y16516D01*
X52153Y16247D01*
X52857D01*
X53509Y16516D01*
X54007Y17015D01*
X54245Y17589D01*
X54639Y17629D01*
X55032Y17589D01*
X55270Y17015D01*
X55769Y16516D01*
X56420Y16247D01*
X57125D01*
X57776Y16516D01*
X58274Y17015D01*
X58544Y17666D01*
Y18371D01*
X58274Y19022D01*
X57776Y19520D01*
X57125Y19790D01*
D02*
G37*
G36*
X28305Y17913D02*
X27600D01*
X26949Y17644D01*
X26892Y17587D01*
X26378Y17200D01*
X25864Y17587D01*
X25807Y17644D01*
X25156Y17913D01*
X24451D01*
X23800Y17644D01*
X23301Y17145D01*
X23031Y16494D01*
Y15789D01*
X23301Y15138D01*
X23800Y14640D01*
X24274Y14443D01*
X24475Y14293D01*
X24705Y13583D01*
X24606Y13344D01*
Y12640D01*
X24876Y11989D01*
X25374Y11490D01*
X26026Y11220D01*
X26730D01*
X27382Y11490D01*
X27880Y11989D01*
X28150Y12640D01*
Y13344D01*
X28051Y13583D01*
X28280Y14293D01*
X28482Y14443D01*
X28956Y14640D01*
X29455Y15138D01*
X29724Y15789D01*
Y16494D01*
X29455Y17145D01*
X28956Y17644D01*
X28305Y17913D01*
D02*
G37*
G36*
X62951Y17913D02*
X62246D01*
X61595Y17644D01*
X61097Y17145D01*
X60827Y16494D01*
Y15789D01*
X61097Y15138D01*
X61595Y14640D01*
X62246Y14370D01*
X62951D01*
X63602Y14640D01*
X64100Y15138D01*
X64370Y15789D01*
Y16494D01*
X64100Y17145D01*
X63602Y17644D01*
X62951Y17913D01*
D02*
G37*
G36*
X44053Y17913D02*
X43348D01*
X42697Y17644D01*
X42199Y17145D01*
X41929Y16494D01*
Y15789D01*
X42199Y15138D01*
X42697Y14640D01*
X43348Y14370D01*
X44053D01*
X44704Y14640D01*
X44761Y14697D01*
X45276Y15083D01*
X45790Y14697D01*
X45847Y14640D01*
X46498Y14370D01*
X47203D01*
X47854Y14640D01*
X48352Y15138D01*
X48622Y15789D01*
Y16494D01*
X48352Y17145D01*
X47854Y17644D01*
X47203Y17913D01*
X46498D01*
X45847Y17644D01*
X45790Y17587D01*
X45276Y17200D01*
X44761Y17587D01*
X44704Y17644D01*
X44053Y17913D01*
D02*
G37*
G36*
X9408Y17913D02*
X8703D01*
X8052Y17644D01*
X7553Y17145D01*
X7283Y16494D01*
Y15789D01*
X7553Y15138D01*
X8052Y14640D01*
X8703Y14370D01*
X9408D01*
X10059Y14640D01*
X10557Y15138D01*
X10827Y15789D01*
Y16494D01*
X10557Y17145D01*
X10059Y17644D01*
X9408Y17913D01*
D02*
G37*
G36*
X5077Y7087D02*
X4372D01*
X3721Y6817D01*
X3223Y6319D01*
X2953Y5667D01*
Y4963D01*
X3223Y4311D01*
X3721Y3813D01*
X4372Y3543D01*
X5077D01*
X5728Y3813D01*
X6226Y4311D01*
X6496Y4963D01*
Y5667D01*
X6226Y6319D01*
X5728Y6817D01*
X5077Y7087D01*
D02*
G37*
%LPD*%
D12*
X73819Y40157D02*
Y47036D01*
X74933Y48150D02*
Y56428D01*
X73819Y47036D02*
X74933Y48150D01*
X74606Y57677D02*
X74908Y57376D01*
Y56454D02*
Y57376D01*
Y56454D02*
X74933Y56428D01*
X83360Y64069D02*
X83661Y64370D01*
X81359Y64069D02*
X83360D01*
X78314Y61024D02*
X81359Y64069D01*
X69232Y61024D02*
X78314D01*
X77756Y74665D02*
X80650D01*
X85936Y69379D02*
X98568D01*
X80650Y74665D02*
X85936Y69379D01*
X98568D02*
X99246Y68701D01*
X165090Y67716D02*
X165354D01*
X164106Y68701D02*
X165090Y67716D01*
X99246Y68701D02*
X164106D01*
X42254Y55020D02*
X48454D01*
X39993Y52758D02*
X42254Y55020D01*
X53671Y60236D02*
X68445D01*
X69232Y61024D01*
X48454Y55020D02*
X53671Y60236D01*
X39993Y43078D02*
Y52758D01*
X44058Y52492D02*
X47736D01*
X42059Y50494D02*
X44058Y52492D01*
X47736D02*
X54201Y58957D01*
X43701Y155315D02*
X47047Y151969D01*
X48288D02*
X52323Y156004D01*
X47047Y151969D02*
X48288D01*
X55996Y108563D02*
X65376D01*
X56526Y107283D02*
X64370D01*
X65635Y106019D01*
X48221Y98979D02*
X56526Y107283D01*
X47691Y100258D02*
X55996Y108563D01*
X65376D02*
X66640Y107298D01*
X55564Y109941D02*
X65807D01*
X47161Y101538D02*
X55564Y109941D01*
X65635Y106019D02*
X80989D01*
X65807Y109941D02*
X66427Y109321D01*
X52701Y109955D02*
X56821Y114075D01*
X52701Y109927D02*
Y109955D01*
X66315Y114075D02*
X68190Y112200D01*
X48581Y105807D02*
X52701Y109927D01*
X68700Y115945D02*
X82489D01*
X47736D02*
X53533D01*
X54222Y116634D02*
X68011D01*
X47735Y107885D02*
X55205Y115354D01*
X38167Y105807D02*
X48581D01*
X53533Y115945D02*
X54222Y116634D01*
X68011D02*
X68700Y115945D01*
X68190Y112200D02*
X78110D01*
X55205Y115354D02*
X67481D01*
X68568Y114267D01*
X82357D01*
X56821Y114075D02*
X66315D01*
X82357Y114267D02*
X84941Y111683D01*
X82489Y115945D02*
X88976Y109457D01*
X11220Y134449D02*
X36811D01*
X69762Y59744D02*
X81004D01*
X68975Y58957D02*
X69762Y59744D01*
X54201Y58957D02*
X68975D01*
X160039Y100770D02*
Y137992D01*
X165354Y143307D01*
X161319Y100240D02*
Y136122D01*
X165354Y140157D01*
X162598Y134252D02*
X165354Y137008D01*
X162598Y99710D02*
Y134252D01*
X99021Y119740D02*
X117829D01*
X78698Y117777D02*
X97058D01*
X99021Y119740D01*
X117829D02*
X120344Y117224D01*
X76700Y119775D02*
X78698Y117777D01*
X133760Y150295D02*
X140157Y156693D01*
X52323Y156004D02*
X54793D01*
X60502Y150295D01*
X133760D01*
X61725Y147539D02*
X134153D01*
X52953Y144291D02*
X60286D01*
X50550Y146613D02*
X60798D01*
X136024Y146260D02*
X146457Y156693D01*
X62255Y146260D02*
X136024D01*
X134153Y147539D02*
X143307Y156693D01*
X48228Y144291D02*
X50550Y146613D01*
X60798D02*
X61725Y147539D01*
X60286Y144291D02*
X62255Y146260D01*
X88976Y106890D02*
Y109457D01*
X83563Y108169D02*
X84941Y109547D01*
Y111683D01*
X83563Y106034D02*
Y108169D01*
X84774Y104823D02*
X91043D01*
X76080Y102854D02*
X154006D01*
X156044Y104893D01*
X91043Y104823D02*
X91142Y104921D01*
X74997Y103937D02*
X76080Y102854D01*
X65354Y103937D02*
X74997D01*
X83563Y106034D02*
X84774Y104823D01*
X141689Y80610D02*
X161319Y100240D01*
X141947Y82677D02*
X160039Y100770D01*
X150985Y93525D02*
X158760Y101300D01*
X142219Y79331D02*
X162598Y99710D01*
X158760Y101300D02*
Y139862D01*
X114020Y87218D02*
X117057Y90256D01*
X119185D01*
X130110Y79331D01*
X110433Y76968D02*
X110502D01*
X130110Y79331D02*
X142219D01*
X116527Y91535D02*
X119715D01*
X110652Y85523D02*
Y85660D01*
X116527Y91535D01*
X119715D02*
X130640Y80610D01*
X110502Y76968D02*
X114020Y80486D01*
Y87218D01*
X130640Y80610D02*
X141689D01*
X131496Y82677D02*
X141947D01*
X107956Y82300D02*
X110433Y79823D01*
X107956Y82300D02*
Y85750D01*
X115731Y93525D02*
X150985D01*
X158760Y139862D02*
X165354Y146457D01*
X107956Y85750D02*
X115731Y93525D01*
X156044Y104893D02*
Y124453D01*
X101181Y71260D02*
X101378Y71063D01*
X165157D02*
X165354Y70866D01*
X101378Y71063D02*
X165157D01*
X153135Y127362D02*
X156044Y124453D01*
X76700Y119775D02*
Y119827D01*
X120344Y117224D02*
X141240D01*
X153347Y105118D01*
X150502Y95965D02*
X153191Y98654D01*
X65454Y95965D02*
X150502D01*
X57284Y96457D02*
X64962D01*
X65454Y95965D01*
X30860Y134449D02*
Y145854D01*
X30860Y134449D02*
X30860Y134449D01*
X36811Y134449D02*
X42717Y128543D01*
X30860Y145854D02*
X32527Y147521D01*
Y151492D01*
X32420Y151598D02*
X32527Y151492D01*
X32807Y100258D02*
X47691D01*
X31171Y98622D02*
X32807Y100258D01*
X34608Y98979D02*
X48221D01*
X31299Y95669D02*
X34608Y98979D01*
X29745Y114229D02*
X38167Y105807D01*
X31102Y98622D02*
X31171D01*
X31102Y101538D02*
X47161D01*
X32420Y151598D02*
Y155308D01*
X31102Y156625D02*
Y156693D01*
Y156625D02*
X32420Y155308D01*
X43307Y144291D02*
X54724Y132874D01*
X87008D01*
X81004Y59744D02*
X82677Y61417D01*
X64370Y69784D02*
X66535Y67618D01*
X31301Y67913D02*
X33171Y69784D01*
X64370D01*
X42059Y50390D02*
Y50494D01*
X38612Y62205D02*
X43504D01*
X21654Y45246D02*
X38612Y62205D01*
X21654Y30512D02*
Y45246D01*
X12598Y67913D02*
X31301D01*
X39993Y43078D02*
X42913Y40157D01*
X87008Y132874D02*
X141462D01*
X142565Y133977D01*
X142991D01*
X66640Y107298D02*
X79346D01*
X66427Y109321D02*
X78401D01*
X78445Y109365D01*
X79346Y107298D02*
X82874Y110827D01*
D18*
X15614Y146081D02*
X23603D01*
X27953Y150431D02*
Y156586D01*
X23603Y146081D02*
X27953Y150431D01*
X6102Y120884D02*
X8760Y118227D01*
Y60696D02*
Y118227D01*
X6610Y58546D02*
X8760Y60696D01*
X11220Y107087D02*
X31299Y87008D01*
X57480D01*
X8563Y135550D02*
X16116Y143102D01*
X24923D01*
X6102Y136569D02*
X15614Y146081D01*
X6102Y120884D02*
Y136569D01*
X8563Y121903D02*
Y135550D01*
X23593Y27854D02*
X25659Y29921D01*
X20553Y27854D02*
X23593D01*
X28699Y29921D02*
X30627Y27994D01*
X25659Y29921D02*
X28699D01*
X30627Y27994D02*
X41515D01*
X50630D02*
X55889D01*
X41515D02*
X43442Y29921D01*
X48702D01*
X50630Y27994D01*
X63414Y144390D02*
X109369D01*
X109588Y144170D02*
X110948D01*
X109369Y144390D02*
X109588Y144170D01*
X62979Y144062D02*
X63086D01*
X110948Y144170D02*
X111024Y144095D01*
X63086Y144062D02*
X63414Y144390D01*
X11220Y107087D02*
Y119246D01*
X8563Y121903D02*
X11220Y119246D01*
X6610Y50889D02*
Y58546D01*
Y50889D02*
X14370Y43128D01*
Y28150D02*
Y43128D01*
X24923Y143102D02*
X30460Y148639D01*
X18553Y28150D02*
X18629Y28074D01*
X20333D01*
X20553Y27854D01*
X1181Y14961D02*
X14370Y28150D01*
X18553D01*
X55889Y27994D02*
X56045Y28150D01*
X56152D01*
D28*
X394Y27559D02*
D03*
D29*
X394Y4528D02*
D03*
D30*
X394Y53937D02*
D03*
D31*
X166142Y3937D02*
D03*
D32*
X394Y101378D02*
D03*
D33*
Y133661D02*
D03*
D34*
X12992Y157480D02*
D03*
D35*
X46457D02*
D03*
D36*
X85236D02*
D03*
D37*
X166142Y26181D02*
D03*
D38*
Y151575D02*
D03*
D39*
X7480Y394D02*
D03*
D84*
X68244Y28150D02*
X78051Y37957D01*
Y42815D02*
X80315Y45079D01*
X78051Y37957D02*
Y42815D01*
X73819Y63189D02*
X77756D01*
X81398Y66831D02*
X84681D01*
X77756Y63189D02*
X81398Y66831D01*
X69031Y63189D02*
X73819D01*
X32813Y75453D02*
X72106D01*
X76708Y80055D02*
X97517D01*
X72106Y75453D02*
X76708Y80055D01*
X20276Y87990D02*
X32813Y75453D01*
X96850Y141732D02*
X108055D01*
X96637D02*
X96850D01*
X14424Y2882D02*
X14637D01*
X13665Y3642D02*
X14424Y2882D01*
X10885Y3642D02*
X13665D01*
X10126Y2882D02*
X10885Y3642D01*
X9913Y2882D02*
X10126D01*
X19149D02*
X19362D01*
X18389Y3642D02*
X19149Y2882D01*
X15610Y3642D02*
X18389D01*
X14850Y2882D02*
X15610Y3642D01*
X14637Y2882D02*
X14850D01*
X23873D02*
X24086D01*
X23114Y3642D02*
X23873Y2882D01*
X20334Y3642D02*
X23114D01*
X19575Y2882D02*
X20334Y3642D01*
X19362Y2882D02*
X19575D01*
X28597D02*
X28811D01*
X27838Y3642D02*
X28597Y2882D01*
X25058Y3642D02*
X27838D01*
X24299Y2882D02*
X25058Y3642D01*
X24086Y2882D02*
X24299D01*
X33322D02*
X33535D01*
X32563Y3642D02*
X33322Y2882D01*
X29783Y3642D02*
X32563D01*
X29024Y2882D02*
X29783Y3642D01*
X28811Y2882D02*
X29024D01*
X38046Y2882D02*
X38259D01*
X37287Y3642D02*
X38046Y2882D01*
X34507Y3642D02*
X37287D01*
X33748Y2882D02*
X34507Y3642D01*
X33535Y2882D02*
X33748D01*
X42771D02*
X42984D01*
X42011Y3642D02*
X42771Y2882D01*
X39232Y3642D02*
X42011D01*
X38472Y2882D02*
X39232Y3642D01*
X38259Y2882D02*
X38472D01*
X47495Y2882D02*
X47708D01*
X46736Y3642D02*
X47495Y2882D01*
X43956Y3642D02*
X46736D01*
X43197Y2882D02*
X43956Y3642D01*
X42984Y2882D02*
X43197D01*
X52219Y2882D02*
X52433D01*
X51460Y3642D02*
X52219Y2882D01*
X48680Y3642D02*
X51460D01*
X47921Y2882D02*
X48680Y3642D01*
X47708Y2882D02*
X47921D01*
X56944D02*
X57157D01*
X56185Y3642D02*
X56944Y2882D01*
X53405Y3642D02*
X56185D01*
X52646Y2882D02*
X53405Y3642D01*
X52433Y2882D02*
X52646D01*
X61668D02*
X61881D01*
X60909Y3642D02*
X61668Y2882D01*
X58129Y3642D02*
X60909D01*
X57370Y2882D02*
X58129Y3642D01*
X57157Y2882D02*
X57370D01*
X153346Y9843D02*
X165354D01*
X139761Y13780D02*
X142320Y16339D01*
X61881Y2882D02*
X72778Y13780D01*
X57900Y67716D02*
X63707Y61910D01*
X67751D02*
X69031Y63189D01*
X63707Y61910D02*
X67751D01*
X27772Y29921D02*
Y41716D01*
X92913Y57284D02*
X95669Y60039D01*
X106102D02*
X110039Y63976D01*
X95669Y60039D02*
X106102D01*
X53758Y141339D02*
X96244D01*
X96637Y141732D01*
X108055D02*
X108252Y141535D01*
X108465D02*
X134433D01*
X136598Y143701D01*
X141732Y121850D02*
X152953D01*
X114862Y74508D02*
X117913Y77559D01*
X103064Y74508D02*
X114862D01*
X98002Y79570D02*
X103064Y74508D01*
X98002Y79570D02*
X98002D01*
X97517Y80055D02*
X98002Y79570D01*
X117913Y77559D02*
Y88189D01*
X136598Y143701D02*
X136811D01*
X86122Y64075D02*
X92913Y57284D01*
X86122Y64075D02*
Y65389D01*
X84681Y66831D02*
X86122Y65389D01*
X50591Y67716D02*
X57900D01*
X142320Y16339D02*
X146850D01*
X72778Y13780D02*
X139761D01*
X147870Y18799D02*
X152889Y13780D01*
X159646D01*
X146850Y16339D02*
X153346Y9843D01*
X80315Y45079D02*
X106595Y18799D01*
X147870D01*
X56152Y28150D02*
X68244D01*
X52362Y39307D02*
Y45079D01*
Y39307D02*
X56152Y35517D01*
Y28150D02*
Y35517D01*
X24409Y45079D02*
X27772Y41716D01*
D86*
X67670Y123721D02*
X76024D01*
X77894Y125591D01*
X142913D01*
X65800D02*
X67670Y123721D01*
X11614Y125591D02*
X65800D01*
X142913D02*
X156693Y139370D01*
X154429Y141634D02*
Y151488D01*
Y141634D02*
X156693Y139370D01*
X155905Y152964D02*
Y156693D01*
X154429Y151488D02*
X155905Y152964D01*
D87*
X146457Y156693D02*
D03*
X143307Y156693D02*
D03*
X155905Y156693D02*
D03*
X165354Y67716D02*
D03*
Y137008D02*
D03*
Y140157D02*
D03*
Y143307D02*
D03*
Y146457D02*
D03*
Y70866D02*
D03*
X140157Y156693D02*
D03*
X165354Y9843D02*
D03*
X1181Y14961D02*
D03*
X27953Y156693D02*
D03*
X31102D02*
D03*
X86614Y152756D02*
D03*
X91929Y138583D02*
D03*
X162992Y25984D02*
D03*
X161811Y61417D02*
D03*
Y51968D02*
D03*
X158267Y40157D02*
D03*
X157086Y66142D02*
D03*
Y56693D02*
D03*
Y47244D02*
D03*
X154724Y33071D02*
D03*
Y4724D02*
D03*
X151181Y111023D02*
D03*
X152362Y85039D02*
D03*
Y75590D02*
D03*
Y61417D02*
D03*
Y51968D02*
D03*
Y42520D02*
D03*
Y18898D02*
D03*
X150000Y28346D02*
D03*
X146456Y125197D02*
D03*
X147637Y80315D02*
D03*
Y66142D02*
D03*
Y56693D02*
D03*
Y47244D02*
D03*
Y37795D02*
D03*
X145275Y118110D02*
D03*
X144094Y106299D02*
D03*
X145275Y23622D02*
D03*
X141732Y148819D02*
D03*
X142913Y75590D02*
D03*
Y61417D02*
D03*
Y51968D02*
D03*
Y42520D02*
D03*
Y33071D02*
D03*
X140551Y141732D02*
D03*
Y85039D02*
D03*
X138189Y108661D02*
D03*
Y66142D02*
D03*
Y56693D02*
D03*
Y47244D02*
D03*
Y37795D02*
D03*
X135827Y75590D02*
D03*
X133464Y113386D02*
D03*
Y85039D02*
D03*
Y61417D02*
D03*
Y51968D02*
D03*
Y42520D02*
D03*
Y33071D02*
D03*
X132283Y25984D02*
D03*
X131102Y4724D02*
D03*
X127559Y153543D02*
D03*
X128740Y122834D02*
D03*
X127559Y87401D02*
D03*
X128740Y75590D02*
D03*
Y66142D02*
D03*
Y56693D02*
D03*
Y47244D02*
D03*
Y37795D02*
D03*
X127559Y30709D02*
D03*
X125197Y144094D02*
D03*
X126378Y23622D02*
D03*
Y9449D02*
D03*
X124015Y61417D02*
D03*
Y51968D02*
D03*
Y42520D02*
D03*
X122834Y35433D02*
D03*
X120472Y129921D02*
D03*
X121653Y75590D02*
D03*
Y28346D02*
D03*
Y4724D02*
D03*
X118110Y144094D02*
D03*
X119291Y137008D02*
D03*
Y56693D02*
D03*
Y47244D02*
D03*
X118110Y40157D02*
D03*
X116929Y66142D02*
D03*
Y33071D02*
D03*
Y23622D02*
D03*
Y9449D02*
D03*
X114567Y51968D02*
D03*
X113386Y44882D02*
D03*
X112205Y61417D02*
D03*
Y37795D02*
D03*
Y28346D02*
D03*
Y4724D02*
D03*
X108661Y153543D02*
D03*
Y49606D02*
D03*
X107480Y42520D02*
D03*
Y33071D02*
D03*
Y23622D02*
D03*
Y9449D02*
D03*
X102756Y47244D02*
D03*
Y37795D02*
D03*
Y28346D02*
D03*
X101575Y16535D02*
D03*
X102756Y4724D02*
D03*
X100393Y122834D02*
D03*
X98031Y51968D02*
D03*
Y42520D02*
D03*
Y33071D02*
D03*
Y9449D02*
D03*
X95669Y18898D02*
D03*
X93307Y47244D02*
D03*
Y37795D02*
D03*
Y28346D02*
D03*
Y4724D02*
D03*
X89764Y54331D02*
D03*
Y16535D02*
D03*
X87401Y92126D02*
D03*
X88582Y42520D02*
D03*
Y33071D02*
D03*
Y23622D02*
D03*
Y9449D02*
D03*
X86220Y85039D02*
D03*
X82677Y120472D02*
D03*
X83858Y56693D02*
D03*
Y28346D02*
D03*
Y18898D02*
D03*
Y4724D02*
D03*
X80315Y82677D02*
D03*
X77953Y30709D02*
D03*
X79134Y23622D02*
D03*
X77953Y16535D02*
D03*
X79134Y9449D02*
D03*
X76771Y99212D02*
D03*
X73228Y25984D02*
D03*
X74409Y4724D02*
D03*
X72047Y80315D02*
D03*
Y18898D02*
D03*
X68504Y153543D02*
D03*
X69685Y137008D02*
D03*
X67323Y23622D02*
D03*
X66142Y11811D02*
D03*
X56693Y63779D02*
D03*
X55512Y56693D02*
D03*
X46063Y66142D02*
D03*
X40157Y144094D02*
D03*
Y59055D02*
D03*
X33071Y106299D02*
D03*
X30709Y73228D02*
D03*
X31890Y61417D02*
D03*
X25984Y96850D02*
D03*
X24803Y70866D02*
D03*
X21260Y63779D02*
D03*
X17717Y70866D02*
D03*
X15354Y61417D02*
D03*
X5906Y66142D02*
D03*
X38976Y83858D02*
D03*
X42126Y78937D02*
D03*
X54134Y72441D02*
D03*
X40354Y72244D02*
D03*
X1969Y21457D02*
D03*
Y34252D02*
D03*
X47244Y155709D02*
D03*
X43701Y155315D02*
D03*
X57087Y120669D02*
D03*
X47638Y112008D02*
D03*
X30857Y118473D02*
D03*
X20964Y122460D02*
D03*
X15157Y113189D02*
D03*
X11417Y95669D02*
D03*
X13780Y88976D02*
D03*
X48037Y91825D02*
D03*
X47244Y96653D02*
D03*
X72778Y13780D02*
D03*
X7427Y1230D02*
D03*
X1772Y5315D02*
D03*
X67913Y4134D02*
D03*
X138189Y4921D02*
D03*
X147047Y5315D02*
D03*
X163976Y4724D02*
D03*
Y17520D02*
D03*
Y35433D02*
D03*
X91732Y155315D02*
D03*
X81496Y155512D02*
D03*
X58858Y156299D02*
D03*
X39567Y155709D02*
D03*
X16535Y155512D02*
D03*
X71850Y120079D02*
D03*
Y125984D02*
D03*
X57284Y137795D02*
D03*
X43406Y138091D02*
D03*
X42323Y122441D02*
D03*
X9449Y143898D02*
D03*
X2559Y141535D02*
D03*
X3150Y127165D02*
D03*
X12008Y122638D02*
D03*
X20867Y108329D02*
D03*
X5118Y73425D02*
D03*
X14764Y97835D02*
D03*
X2165Y98622D02*
D03*
X16142Y77362D02*
D03*
X11614Y73425D02*
D03*
X19291Y84646D02*
D03*
X66732Y64370D02*
D03*
X8835Y27264D02*
D03*
X27599D02*
D03*
X46496D02*
D03*
X158858Y85827D02*
D03*
Y78347D02*
D03*
X164370Y151378D02*
D03*
X111482Y117673D02*
D03*
X131693Y105118D02*
D03*
X107283Y56693D02*
D03*
X102362D02*
D03*
X76772Y129528D02*
D03*
X62979Y144062D02*
D03*
X111024Y144095D02*
D03*
X88976Y106890D02*
D03*
X91142Y104921D02*
D03*
X96850Y141732D02*
D03*
X108465Y141535D02*
D03*
X141732Y121850D02*
D03*
X152953D02*
D03*
X101181Y71260D02*
D03*
X77756Y74665D02*
D03*
X76700Y119827D02*
D03*
X153191Y98654D02*
D03*
X42717Y128543D02*
D03*
X31299Y95669D02*
D03*
X31102Y98622D02*
D03*
X30460Y148639D02*
D03*
X53758Y141339D02*
D03*
X73819Y63189D02*
D03*
X74606Y57677D02*
D03*
X117913Y88189D02*
D03*
Y77559D02*
D03*
X57480Y87008D02*
D03*
X11614Y125591D02*
D03*
X21654Y30512D02*
D03*
X159350Y9843D02*
D03*
X159646Y13780D02*
D03*
X146850Y16339D02*
D03*
X139567Y13780D02*
D03*
X61881Y2882D02*
D03*
X57157Y2882D02*
D03*
X52433Y2882D02*
D03*
X47708Y2882D02*
D03*
X42984D02*
D03*
X38259Y2882D02*
D03*
X33535Y2882D02*
D03*
X28811D02*
D03*
X24086D02*
D03*
X19362D02*
D03*
X14637D02*
D03*
X9913D02*
D03*
X66535Y67618D02*
D03*
X12598Y67913D02*
D03*
X82677Y61417D02*
D03*
X80315Y45079D02*
D03*
X56152Y28150D02*
D03*
X52362Y45079D02*
D03*
X42913Y40157D02*
D03*
X37254Y27994D02*
D03*
X18553Y28150D02*
D03*
X50591Y67716D02*
D03*
X110039Y63976D02*
D03*
X92913Y57284D02*
D03*
X136811Y143701D02*
D03*
X52953Y144291D02*
D03*
X43307D02*
D03*
X48228D02*
D03*
X54134Y130512D02*
D03*
X87008Y132874D02*
D03*
X142991Y133977D02*
D03*
X131496Y82677D02*
D03*
X153347Y105118D02*
D03*
X156693Y149016D02*
D03*
Y139370D02*
D03*
X32927Y142945D02*
D03*
X11220Y134449D02*
D03*
X65354Y103937D02*
D03*
X47735Y107885D02*
D03*
X153135Y127362D02*
D03*
X119291Y115354D02*
D03*
X110433Y76968D02*
D03*
X110652Y85523D02*
D03*
X110433Y79823D02*
D03*
X92126Y75394D02*
D03*
X83661Y64370D02*
D03*
X47736Y115945D02*
D03*
X82874Y110827D02*
D03*
X78110Y112200D02*
D03*
X78445Y109365D02*
D03*
X80989Y106019D02*
D03*
X29745Y114229D02*
D03*
X20276Y87990D02*
D03*
X31102Y101538D02*
D03*
X57284Y96457D02*
D03*
X73819Y40157D02*
D03*
X42059Y50390D02*
D03*
X24409Y45079D02*
D03*
D89*
X43504Y62205D02*
D03*
M02*
