M48
;Layer_Color=9474304
;FILE_FORMAT=2:4
INCH,TZ
;TYPE=PLATED
T1F00S00C0.0118
T2F00S00C0.0315
T3F00S00C0.0394
;TYPE=NON_PLATED
T4F00S00C0.0390
%
T01
X276Y118
X743Y123
X991Y288
X1220Y118
X1464Y288
X1693Y118
X1936Y288
X2165Y118
X2409Y288
X2638Y118
X2881Y288
X3110Y118
X3353Y288
X3583Y118
X3826Y288
X4055Y118
X4298Y288
X4528Y118
X4771Y288
X5000Y118
X5243Y288
X5472Y118
X5716Y288
X5945Y118
X6188Y288
X6417Y118
X6890Y118
X6791Y413
X7441Y472
X7362Y118
X7835Y118
X8307
X8386Y472
X8780Y118
X9252
X9331Y472
X9724Y118
X10197
X10276Y472
X10669Y118
X11142
X11220Y472
X11614Y118
X12087Y118
X12165Y472
X12559Y118
X13032Y118
X13110Y472
X13819Y492
X13976Y118
X14409
X14882Y118
X15354Y118
X15472Y472
X14705Y531
X14685Y1634
X15236Y1890
X15000Y2835
X15472Y3307
X15236Y4252
Y5197
Y6142
X14764Y6614
Y5669
Y4724
Y3780
X14291Y4252
Y5197
Y6142
X13819Y6614
Y5669
Y4724
Y3780
X14291Y3307
X13346
X13228Y2598
X12638Y2362
X12756Y3071
X12874Y3780
X12283Y3543
X12402Y4252
X11811Y4016
X11929Y4724
X11339Y4488
X11457Y5197
X10866Y4961
X10748Y4252
X11220Y3780
X11693Y3307
X12165Y2835
X11693Y2362
X11220Y2835
X10748Y3307
Y2362
X10276Y2835
Y3780
Y4724
X9803Y5197
X10236Y5669
X10728
X11220Y6142
X11004Y6398
X11693Y6614
X12874
X13346Y6142
Y5197
Y4252
X12874Y4724
Y5669
X12402Y6142
Y5197
X11929Y5669
X12165Y7559
X11791Y7756
X11043Y7697
Y7982
X11065Y8552
X11791Y8819
X12756Y8740
X13346Y8504
X13150Y8268
X12874Y7559
X13583
X14291
X15236
Y8504
X14764Y8031
X14055Y8504
X14409Y10630
X13819Y10866
X13346Y11339
X13169Y10512
X11890Y9962
X11929Y11535
X12303Y11929
X12539Y12146
X12874Y12283
X14173Y12185
X14528Y11811
X14646Y12520
X15313Y12736
X15295Y12185
X15591Y13141
X15295Y13917
X14055Y14173
X13681Y14370
X14173Y14882
X14299Y13398
X12047Y12992
X11929Y13701
X11811Y14409
X12520
X12756Y15354
X10866
X11102Y14409
X10846Y14154
X10413Y13642
X10079
X9685Y14173
X9193Y13858
X8701Y13287
X7677Y12953
X7185Y12598
Y12008
X7670Y11983
X7955Y11984
X8268Y12047
X8287Y11083
X7845Y10937
X7811Y11220
X8099Y10602
X8898Y10689
X9114Y10492
X8740Y9213
X8622Y8504
X9055Y8661
X9272Y8858
X9396Y7759
X9698Y7711
X9213Y7539
X8917Y7480
X8602Y7461
X7776Y7466
X8031Y8268
X7205Y8031
X6476Y8839
X6502Y9123
X5748Y8701
X5728Y9646
Y10217
Y10512
X5768Y11201
X6181
X6535Y10394
X7185Y10089
Y9803
X7677Y9921
X4724Y9665
X4804Y9182
X4114Y8976
X3898Y8386
X3543Y8169
X4213Y7894
X4035Y7224
X3071Y7323
X2480Y7087
X1772
X1260Y6791
X1161Y7343
X512
X118Y7165
Y7559
Y7953
Y8346
Y8740
Y9134
Y9528
X413Y9567
X217Y9862
X118Y10748
Y11063
X394Y11929
X315Y12717
X1161Y12559
X1201Y12264
X2096Y12246
X2008Y11161
X2087Y10833
X1516Y11319
X2975Y11423
X3086Y11847
X4085Y11634
X4774Y11594
X4764Y11201
X4774Y10788
X4085Y10787
X3307Y10630
X3110Y10154
X3110Y9862
X3130Y9567
X2598Y9685
X1476Y9783
X1142Y9567
X1378Y8898
X2028Y8799
X1929Y8465
X1614Y7736
X1535Y6142
X2126Y6378
X3189Y6142
X4016Y5906
X3722Y5244
X4206Y5039
X4491Y5043
X5197Y5315
X5551Y5669
X5669Y6378
X5059Y6772
X4606Y6614
X5413Y7244
X6654Y6762
X6673Y6437
X7382Y6319
X7461Y5768
X7287Y5043
X7001Y5039
X6517Y5244
X6457Y4508
X6437Y4173
X6417Y3858
X7087Y4016
X7382
X7244Y3583
X7795Y3071
X8386Y2835
X9331
X9803Y3307
Y4252
X9331Y4724
Y3780
X8858Y4252
Y3307
Y2362
X8976Y1654
X9567Y1890
X10157Y1654
X9803Y945
X10748
X11693
X12638
X13504Y118
X13957Y1378
X14528Y2362
X8386Y1890
X7795Y1654
X7278Y1378
X7205Y1890
X7323Y2598
X7913Y2362
X6732
X6260Y1614
X5677Y1802
X5250
X4685Y1614
X4370Y1614
X3787Y1802
X3361
X2795Y1614
X2480Y1614
X2638Y1299
X1898Y1802
X1471
X906Y1614
X118Y1496
Y1102
X177Y531
X472Y531
X197Y2146
X472Y3091
X197Y3425
X118Y4016
X246Y4508
X866
X827Y3858
X1791Y4016
X2466Y3873
X2441Y4508
X2402Y5315
X1696Y5043
X1411Y5039
X927Y5244
X591Y6614
X118Y6772
X884Y2726
X1855Y2815
X2165Y3051
X2760Y2726
X3725Y2799
X4650Y2726
X5615Y2815
X5256Y3563
X5236Y4508
X4587Y4016
X4291
X3617Y3858
X3661Y4508
X8031
X8051Y3878
X7992Y5315
X8386Y5669
X8268Y6142
X8366Y6437
X8937Y6516
X8976Y5433
X9291Y5728
X10118Y7126
X10138Y11220
X10552Y11574
X10846Y11102
X11148Y11767
X10039Y12283
X9703Y12067
X6535Y12283
X5709Y12067
X5413Y13051
X5728Y13780
X5376Y14134
X5295Y14429
X4823
X4331
X4016Y14409
X4213Y14134
X4341Y13809
X4272Y12854
X4232Y12244
X2559Y13150
X2559Y14044
X3293Y14294
X3046Y14864
X3957Y15571
X4370Y15532
X4724Y15571
X5394Y15394
X6850Y15354
X8150Y15551
X8661Y15276
X9173Y15532
X6298Y14406
X6968Y13701
X1122Y13445
X945Y14390
X256Y14154
X1654Y15551
X15118Y11102
X15335Y10512
X15319Y9865
X8858Y945
X7913
X6614Y1181
X15935Y984
X15965Y1378
X16535Y1299
X16535Y984
X16398Y472
X16299Y118
X15827Y118
X16398Y1752
X16299Y2598
X16398Y3543
X16535Y3937
Y4252
Y4567
Y4882
Y5197
X16535Y5512
X16535Y5827
Y6142
Y6457
Y6772
Y7087
Y7402
Y7717
Y8031
Y8346
Y8661
X16535Y8976
Y9291
X16535Y9606
Y9921
Y10236
X16535Y10551
Y10866
Y11181
X16535Y11496
Y11811
Y12126
Y12441
X16535Y12756
Y13071
X16535Y13386
Y13701
Y14016
Y14331
Y14646
X16437Y15138
X15669Y14902
Y13937
X15886Y8583
Y7835
X15709Y6614
X16181Y6142
Y5197
X15709Y5669
Y4724
X15827Y4016
X15906Y15669
X16220
X16535Y15669
X15591
X15276
X14961
X14646
X14331Y15669
X14016Y15669
X13701
X13386
X13071
X12756
X12441
X12126Y15669
X11811
X11496Y15669
X11181
X10866
X10551
X10236Y15669
X9921Y15669
X9606
X7441
X7126
X6811
X6496
X6181
X5886Y15630
X3110Y15669
X2795
X2480
X118
T02
X512Y6220
X2579
X4350
T03
X433Y15354
T04
X3575Y14594
Y15394
X5575Y14994
M30
