G04 #@! TF.GenerationSoftware,KiCad,Pcbnew,(6.0.8)*
G04 #@! TF.CreationDate,2022-12-15T21:22:00+03:00*
G04 #@! TF.ProjectId,hellen1-vr-discrete,68656c6c-656e-4312-9d76-722d64697363,rev?*
G04 #@! TF.SameCoordinates,PX4a19ba0PY5aa5910*
G04 #@! TF.FileFunction,Copper,L1,Top*
G04 #@! TF.FilePolarity,Positive*
%FSLAX46Y46*%
G04 Gerber Fmt 4.6, Leading zero omitted, Abs format (unit mm)*
G04 Created by KiCad (PCBNEW (6.0.8)) date 2022-12-15 21:22:00*
%MOMM*%
%LPD*%
G01*
G04 APERTURE LIST*
G04 #@! TA.AperFunction,SMDPad,CuDef*
%ADD10R,0.650000X0.400000*%
G04 #@! TD*
G04 #@! TA.AperFunction,ComponentPad*
%ADD11C,0.600000*%
G04 #@! TD*
G04 #@! TA.AperFunction,SMDPad,CuDef*
%ADD12R,0.250000X1.115000*%
G04 #@! TD*
G04 #@! TA.AperFunction,SMDPad,CuDef*
%ADD13R,0.250000X6.185000*%
G04 #@! TD*
G04 #@! TA.AperFunction,SMDPad,CuDef*
%ADD14R,15.100000X0.250000*%
G04 #@! TD*
G04 #@! TA.AperFunction,SMDPad,CuDef*
%ADD15R,0.250000X5.175000*%
G04 #@! TD*
G04 #@! TA.AperFunction,SMDPad,CuDef*
%ADD16R,14.275000X0.250000*%
G04 #@! TD*
G04 #@! TA.AperFunction,SMDPad,CuDef*
%ADD17R,0.400000X0.650000*%
G04 #@! TD*
G04 #@! TA.AperFunction,ViaPad*
%ADD18C,0.600000*%
G04 #@! TD*
G04 #@! TA.AperFunction,Conductor*
%ADD19C,0.250000*%
G04 #@! TD*
G04 APERTURE END LIST*
G04 #@! TO.P,R764,1*
G04 #@! TO.N,Net-(R763-Pad1)*
G04 #@! TA.AperFunction,SMDPad,CuDef*
G36*
G01*
X10335000Y490000D02*
X9965000Y490000D01*
G75*
G02*
X9830000Y625000I0J135000D01*
G01*
X9830000Y895000D01*
G75*
G02*
X9965000Y1030000I135000J0D01*
G01*
X10335000Y1030000D01*
G75*
G02*
X10470000Y895000I0J-135000D01*
G01*
X10470000Y625000D01*
G75*
G02*
X10335000Y490000I-135000J0D01*
G01*
G37*
G04 #@! TD.AperFunction*
G04 #@! TO.P,R764,2*
G04 #@! TO.N,thresh_high*
G04 #@! TA.AperFunction,SMDPad,CuDef*
G36*
G01*
X10335000Y1510000D02*
X9965000Y1510000D01*
G75*
G02*
X9830000Y1645000I0J135000D01*
G01*
X9830000Y1915000D01*
G75*
G02*
X9965000Y2050000I135000J0D01*
G01*
X10335000Y2050000D01*
G75*
G02*
X10470000Y1915000I0J-135000D01*
G01*
X10470000Y1645000D01*
G75*
G02*
X10335000Y1510000I-135000J0D01*
G01*
G37*
G04 #@! TD.AperFunction*
G04 #@! TD*
G04 #@! TO.P,U754,1*
G04 #@! TO.N,Net-(C756-Pad2)*
G04 #@! TA.AperFunction,SMDPad,CuDef*
G36*
G01*
X7548030Y8705000D02*
X7548030Y9005000D01*
G75*
G02*
X7698030Y9155000I150000J0D01*
G01*
X9348030Y9155000D01*
G75*
G02*
X9498030Y9005000I0J-150000D01*
G01*
X9498030Y8705000D01*
G75*
G02*
X9348030Y8555000I-150000J0D01*
G01*
X7698030Y8555000D01*
G75*
G02*
X7548030Y8705000I0J150000D01*
G01*
G37*
G04 #@! TD.AperFunction*
G04 #@! TO.P,U754,2,-*
G04 #@! TO.N,Net-(U754-Pad2)*
G04 #@! TA.AperFunction,SMDPad,CuDef*
G36*
G01*
X7548030Y7435000D02*
X7548030Y7735000D01*
G75*
G02*
X7698030Y7885000I150000J0D01*
G01*
X9348030Y7885000D01*
G75*
G02*
X9498030Y7735000I0J-150000D01*
G01*
X9498030Y7435000D01*
G75*
G02*
X9348030Y7285000I-150000J0D01*
G01*
X7698030Y7285000D01*
G75*
G02*
X7548030Y7435000I0J150000D01*
G01*
G37*
G04 #@! TD.AperFunction*
G04 #@! TO.P,U754,3,+*
G04 #@! TO.N,analog_out*
G04 #@! TA.AperFunction,SMDPad,CuDef*
G36*
G01*
X7548030Y6165000D02*
X7548030Y6465000D01*
G75*
G02*
X7698030Y6615000I150000J0D01*
G01*
X9348030Y6615000D01*
G75*
G02*
X9498030Y6465000I0J-150000D01*
G01*
X9498030Y6165000D01*
G75*
G02*
X9348030Y6015000I-150000J0D01*
G01*
X7698030Y6015000D01*
G75*
G02*
X7548030Y6165000I0J150000D01*
G01*
G37*
G04 #@! TD.AperFunction*
G04 #@! TO.P,U754,4,V-*
G04 #@! TO.N,GND*
G04 #@! TA.AperFunction,SMDPad,CuDef*
G36*
G01*
X7548030Y4895000D02*
X7548030Y5195000D01*
G75*
G02*
X7698030Y5345000I150000J0D01*
G01*
X9348030Y5345000D01*
G75*
G02*
X9498030Y5195000I0J-150000D01*
G01*
X9498030Y4895000D01*
G75*
G02*
X9348030Y4745000I-150000J0D01*
G01*
X7698030Y4745000D01*
G75*
G02*
X7548030Y4895000I0J150000D01*
G01*
G37*
G04 #@! TD.AperFunction*
G04 #@! TO.P,U754,5,+*
G04 #@! TO.N,Net-(U754-Pad5)*
G04 #@! TA.AperFunction,SMDPad,CuDef*
G36*
G01*
X12498030Y4895000D02*
X12498030Y5195000D01*
G75*
G02*
X12648030Y5345000I150000J0D01*
G01*
X14298030Y5345000D01*
G75*
G02*
X14448030Y5195000I0J-150000D01*
G01*
X14448030Y4895000D01*
G75*
G02*
X14298030Y4745000I-150000J0D01*
G01*
X12648030Y4745000D01*
G75*
G02*
X12498030Y4895000I0J150000D01*
G01*
G37*
G04 #@! TD.AperFunction*
G04 #@! TO.P,U754,6,_*
G04 #@! TO.N,analog_out*
G04 #@! TA.AperFunction,SMDPad,CuDef*
G36*
G01*
X12498030Y6165000D02*
X12498030Y6465000D01*
G75*
G02*
X12648030Y6615000I150000J0D01*
G01*
X14298030Y6615000D01*
G75*
G02*
X14448030Y6465000I0J-150000D01*
G01*
X14448030Y6165000D01*
G75*
G02*
X14298030Y6015000I-150000J0D01*
G01*
X12648030Y6015000D01*
G75*
G02*
X12498030Y6165000I0J150000D01*
G01*
G37*
G04 #@! TD.AperFunction*
G04 #@! TO.P,U754,7*
G04 #@! TO.N,Net-(C757-Pad2)*
G04 #@! TA.AperFunction,SMDPad,CuDef*
G36*
G01*
X12498030Y7435000D02*
X12498030Y7735000D01*
G75*
G02*
X12648030Y7885000I150000J0D01*
G01*
X14298030Y7885000D01*
G75*
G02*
X14448030Y7735000I0J-150000D01*
G01*
X14448030Y7435000D01*
G75*
G02*
X14298030Y7285000I-150000J0D01*
G01*
X12648030Y7285000D01*
G75*
G02*
X12498030Y7435000I0J150000D01*
G01*
G37*
G04 #@! TD.AperFunction*
G04 #@! TO.P,U754,8,V+*
G04 #@! TO.N,+5V*
G04 #@! TA.AperFunction,SMDPad,CuDef*
G36*
G01*
X12498030Y8705000D02*
X12498030Y9005000D01*
G75*
G02*
X12648030Y9155000I150000J0D01*
G01*
X14298030Y9155000D01*
G75*
G02*
X14448030Y9005000I0J-150000D01*
G01*
X14448030Y8705000D01*
G75*
G02*
X14298030Y8555000I-150000J0D01*
G01*
X12648030Y8555000D01*
G75*
G02*
X12498030Y8705000I0J150000D01*
G01*
G37*
G04 #@! TD.AperFunction*
G04 #@! TD*
D10*
G04 #@! TO.P,U755,1*
G04 #@! TO.N,thresh_low*
X4700000Y8900000D03*
G04 #@! TO.P,U755,2,GND*
G04 #@! TO.N,GND*
X4700000Y8250000D03*
G04 #@! TO.P,U755,3*
G04 #@! TO.N,Vref*
X4700000Y7600000D03*
G04 #@! TO.P,U755,4*
G04 #@! TO.N,Net-(U754-Pad2)*
X6600000Y7600000D03*
G04 #@! TO.P,U755,5,V+*
G04 #@! TO.N,+5V*
X6600000Y8250000D03*
G04 #@! TO.P,U755,6*
G04 #@! TO.N,Net-(C756-Pad2)*
X6600000Y8900000D03*
G04 #@! TD*
D11*
G04 #@! TO.P,M750,E1,Thresh_IN*
G04 #@! TO.N,thresh_input*
X14800000Y6900000D03*
G04 #@! TO.P,M750,E2,OUT_A*
G04 #@! TO.N,analog_out*
X14800000Y5700000D03*
G04 #@! TO.P,M750,E3,OUT*
G04 #@! TO.N,output*
X14800000Y8100000D03*
G04 #@! TO.P,M750,E4,V5_IN*
G04 #@! TO.N,+5V*
X14800000Y9300000D03*
D12*
G04 #@! TO.P,M750,G,GND*
G04 #@! TO.N,GND*
X150000Y582500D03*
D13*
X150000Y6632500D03*
D14*
X7575000Y150000D03*
D15*
X15000000Y2612500D03*
D16*
X7162500Y9600000D03*
D11*
G04 #@! TO.P,M750,W1,VR-*
G04 #@! TO.N,VR-*
X375000Y2840000D03*
G04 #@! TO.P,M750,W2,VR+*
G04 #@! TO.N,VR+*
X375000Y1840000D03*
G04 #@! TD*
G04 #@! TO.P,R767,1*
G04 #@! TO.N,+5V*
G04 #@! TA.AperFunction,SMDPad,CuDef*
G36*
G01*
X7965000Y4041593D02*
X8335000Y4041593D01*
G75*
G02*
X8470000Y3906593I0J-135000D01*
G01*
X8470000Y3636593D01*
G75*
G02*
X8335000Y3501593I-135000J0D01*
G01*
X7965000Y3501593D01*
G75*
G02*
X7830000Y3636593I0J135000D01*
G01*
X7830000Y3906593D01*
G75*
G02*
X7965000Y4041593I135000J0D01*
G01*
G37*
G04 #@! TD.AperFunction*
G04 #@! TO.P,R767,2*
G04 #@! TO.N,Net-(C759-Pad1)*
G04 #@! TA.AperFunction,SMDPad,CuDef*
G36*
G01*
X7965000Y3021593D02*
X8335000Y3021593D01*
G75*
G02*
X8470000Y2886593I0J-135000D01*
G01*
X8470000Y2616593D01*
G75*
G02*
X8335000Y2481593I-135000J0D01*
G01*
X7965000Y2481593D01*
G75*
G02*
X7830000Y2616593I0J135000D01*
G01*
X7830000Y2886593D01*
G75*
G02*
X7965000Y3021593I135000J0D01*
G01*
G37*
G04 #@! TD.AperFunction*
G04 #@! TD*
G04 #@! TO.P,C759,1*
G04 #@! TO.N,Net-(C759-Pad1)*
G04 #@! TA.AperFunction,SMDPad,CuDef*
G36*
G01*
X9320000Y2501593D02*
X8980000Y2501593D01*
G75*
G02*
X8840000Y2641593I0J140000D01*
G01*
X8840000Y2921593D01*
G75*
G02*
X8980000Y3061593I140000J0D01*
G01*
X9320000Y3061593D01*
G75*
G02*
X9460000Y2921593I0J-140000D01*
G01*
X9460000Y2641593D01*
G75*
G02*
X9320000Y2501593I-140000J0D01*
G01*
G37*
G04 #@! TD.AperFunction*
G04 #@! TO.P,C759,2*
G04 #@! TO.N,GND*
G04 #@! TA.AperFunction,SMDPad,CuDef*
G36*
G01*
X9320000Y3461593D02*
X8980000Y3461593D01*
G75*
G02*
X8840000Y3601593I0J140000D01*
G01*
X8840000Y3881593D01*
G75*
G02*
X8980000Y4021593I140000J0D01*
G01*
X9320000Y4021593D01*
G75*
G02*
X9460000Y3881593I0J-140000D01*
G01*
X9460000Y3601593D01*
G75*
G02*
X9320000Y3461593I-140000J0D01*
G01*
G37*
G04 #@! TD.AperFunction*
G04 #@! TD*
G04 #@! TO.P,R769,1*
G04 #@! TO.N,Net-(R769-Pad1)*
G04 #@! TA.AperFunction,SMDPad,CuDef*
G36*
G01*
X8335000Y490000D02*
X7965000Y490000D01*
G75*
G02*
X7830000Y625000I0J135000D01*
G01*
X7830000Y895000D01*
G75*
G02*
X7965000Y1030000I135000J0D01*
G01*
X8335000Y1030000D01*
G75*
G02*
X8470000Y895000I0J-135000D01*
G01*
X8470000Y625000D01*
G75*
G02*
X8335000Y490000I-135000J0D01*
G01*
G37*
G04 #@! TD.AperFunction*
G04 #@! TO.P,R769,2*
G04 #@! TO.N,Vref*
G04 #@! TA.AperFunction,SMDPad,CuDef*
G36*
G01*
X8335000Y1510000D02*
X7965000Y1510000D01*
G75*
G02*
X7830000Y1645000I0J135000D01*
G01*
X7830000Y1915000D01*
G75*
G02*
X7965000Y2050000I135000J0D01*
G01*
X8335000Y2050000D01*
G75*
G02*
X8470000Y1915000I0J-135000D01*
G01*
X8470000Y1645000D01*
G75*
G02*
X8335000Y1510000I-135000J0D01*
G01*
G37*
G04 #@! TD.AperFunction*
G04 #@! TD*
G04 #@! TO.P,C758,1*
G04 #@! TO.N,thresh_high*
G04 #@! TA.AperFunction,SMDPad,CuDef*
G36*
G01*
X11280000Y2030000D02*
X11620000Y2030000D01*
G75*
G02*
X11760000Y1890000I0J-140000D01*
G01*
X11760000Y1610000D01*
G75*
G02*
X11620000Y1470000I-140000J0D01*
G01*
X11280000Y1470000D01*
G75*
G02*
X11140000Y1610000I0J140000D01*
G01*
X11140000Y1890000D01*
G75*
G02*
X11280000Y2030000I140000J0D01*
G01*
G37*
G04 #@! TD.AperFunction*
G04 #@! TO.P,C758,2*
G04 #@! TO.N,GND*
G04 #@! TA.AperFunction,SMDPad,CuDef*
G36*
G01*
X11280000Y1070000D02*
X11620000Y1070000D01*
G75*
G02*
X11760000Y930000I0J-140000D01*
G01*
X11760000Y650000D01*
G75*
G02*
X11620000Y510000I-140000J0D01*
G01*
X11280000Y510000D01*
G75*
G02*
X11140000Y650000I0J140000D01*
G01*
X11140000Y930000D01*
G75*
G02*
X11280000Y1070000I140000J0D01*
G01*
G37*
G04 #@! TD.AperFunction*
G04 #@! TD*
G04 #@! TO.P,C751,1*
G04 #@! TO.N,Net-(C751-Pad1)*
G04 #@! TA.AperFunction,SMDPad,CuDef*
G36*
G01*
X5405000Y3010000D02*
X5745000Y3010000D01*
G75*
G02*
X5885000Y2870000I0J-140000D01*
G01*
X5885000Y2590000D01*
G75*
G02*
X5745000Y2450000I-140000J0D01*
G01*
X5405000Y2450000D01*
G75*
G02*
X5265000Y2590000I0J140000D01*
G01*
X5265000Y2870000D01*
G75*
G02*
X5405000Y3010000I140000J0D01*
G01*
G37*
G04 #@! TD.AperFunction*
G04 #@! TO.P,C751,2*
G04 #@! TO.N,Net-(C751-Pad2)*
G04 #@! TA.AperFunction,SMDPad,CuDef*
G36*
G01*
X5405000Y2050000D02*
X5745000Y2050000D01*
G75*
G02*
X5885000Y1910000I0J-140000D01*
G01*
X5885000Y1630000D01*
G75*
G02*
X5745000Y1490000I-140000J0D01*
G01*
X5405000Y1490000D01*
G75*
G02*
X5265000Y1630000I0J140000D01*
G01*
X5265000Y1910000D01*
G75*
G02*
X5405000Y2050000I140000J0D01*
G01*
G37*
G04 #@! TD.AperFunction*
G04 #@! TD*
G04 #@! TO.P,R755,1*
G04 #@! TO.N,Net-(R755-Pad1)*
G04 #@! TA.AperFunction,SMDPad,CuDef*
G36*
G01*
X6825000Y3835000D02*
X6825000Y3465000D01*
G75*
G02*
X6690000Y3330000I-135000J0D01*
G01*
X6420000Y3330000D01*
G75*
G02*
X6285000Y3465000I0J135000D01*
G01*
X6285000Y3835000D01*
G75*
G02*
X6420000Y3970000I135000J0D01*
G01*
X6690000Y3970000D01*
G75*
G02*
X6825000Y3835000I0J-135000D01*
G01*
G37*
G04 #@! TD.AperFunction*
G04 #@! TO.P,R755,2*
G04 #@! TO.N,Net-(C751-Pad1)*
G04 #@! TA.AperFunction,SMDPad,CuDef*
G36*
G01*
X5805000Y3835000D02*
X5805000Y3465000D01*
G75*
G02*
X5670000Y3330000I-135000J0D01*
G01*
X5400000Y3330000D01*
G75*
G02*
X5265000Y3465000I0J135000D01*
G01*
X5265000Y3835000D01*
G75*
G02*
X5400000Y3970000I135000J0D01*
G01*
X5670000Y3970000D01*
G75*
G02*
X5805000Y3835000I0J-135000D01*
G01*
G37*
G04 #@! TD.AperFunction*
G04 #@! TD*
G04 #@! TO.P,D751,1,K*
G04 #@! TO.N,Net-(D751-Pad1)*
G04 #@! TA.AperFunction,SMDPad,CuDef*
G36*
G01*
X875000Y5793750D02*
X875000Y6306250D01*
G75*
G02*
X1093750Y6525000I218750J0D01*
G01*
X1531250Y6525000D01*
G75*
G02*
X1750000Y6306250I0J-218750D01*
G01*
X1750000Y5793750D01*
G75*
G02*
X1531250Y5575000I-218750J0D01*
G01*
X1093750Y5575000D01*
G75*
G02*
X875000Y5793750I0J218750D01*
G01*
G37*
G04 #@! TD.AperFunction*
G04 #@! TO.P,D751,2,A*
G04 #@! TO.N,output*
G04 #@! TA.AperFunction,SMDPad,CuDef*
G36*
G01*
X2450000Y5793750D02*
X2450000Y6306250D01*
G75*
G02*
X2668750Y6525000I218750J0D01*
G01*
X3106250Y6525000D01*
G75*
G02*
X3325000Y6306250I0J-218750D01*
G01*
X3325000Y5793750D01*
G75*
G02*
X3106250Y5575000I-218750J0D01*
G01*
X2668750Y5575000D01*
G75*
G02*
X2450000Y5793750I0J218750D01*
G01*
G37*
G04 #@! TD.AperFunction*
G04 #@! TD*
G04 #@! TO.P,R751,1*
G04 #@! TO.N,GND*
G04 #@! TA.AperFunction,SMDPad,CuDef*
G36*
G01*
X2530000Y7535000D02*
X2530000Y7165000D01*
G75*
G02*
X2395000Y7030000I-135000J0D01*
G01*
X2125000Y7030000D01*
G75*
G02*
X1990000Y7165000I0J135000D01*
G01*
X1990000Y7535000D01*
G75*
G02*
X2125000Y7670000I135000J0D01*
G01*
X2395000Y7670000D01*
G75*
G02*
X2530000Y7535000I0J-135000D01*
G01*
G37*
G04 #@! TD.AperFunction*
G04 #@! TO.P,R751,2*
G04 #@! TO.N,Net-(D751-Pad1)*
G04 #@! TA.AperFunction,SMDPad,CuDef*
G36*
G01*
X1510000Y7535000D02*
X1510000Y7165000D01*
G75*
G02*
X1375000Y7030000I-135000J0D01*
G01*
X1105000Y7030000D01*
G75*
G02*
X970000Y7165000I0J135000D01*
G01*
X970000Y7535000D01*
G75*
G02*
X1105000Y7670000I135000J0D01*
G01*
X1375000Y7670000D01*
G75*
G02*
X1510000Y7535000I0J-135000D01*
G01*
G37*
G04 #@! TD.AperFunction*
G04 #@! TD*
G04 #@! TO.P,R759,1*
G04 #@! TO.N,analog_out*
G04 #@! TA.AperFunction,SMDPad,CuDef*
G36*
G01*
X5265000Y4465000D02*
X5265000Y4835000D01*
G75*
G02*
X5400000Y4970000I135000J0D01*
G01*
X5670000Y4970000D01*
G75*
G02*
X5805000Y4835000I0J-135000D01*
G01*
X5805000Y4465000D01*
G75*
G02*
X5670000Y4330000I-135000J0D01*
G01*
X5400000Y4330000D01*
G75*
G02*
X5265000Y4465000I0J135000D01*
G01*
G37*
G04 #@! TD.AperFunction*
G04 #@! TO.P,R759,2*
G04 #@! TO.N,Net-(R755-Pad1)*
G04 #@! TA.AperFunction,SMDPad,CuDef*
G36*
G01*
X6285000Y4465000D02*
X6285000Y4835000D01*
G75*
G02*
X6420000Y4970000I135000J0D01*
G01*
X6690000Y4970000D01*
G75*
G02*
X6825000Y4835000I0J-135000D01*
G01*
X6825000Y4465000D01*
G75*
G02*
X6690000Y4330000I-135000J0D01*
G01*
X6420000Y4330000D01*
G75*
G02*
X6285000Y4465000I0J135000D01*
G01*
G37*
G04 #@! TD.AperFunction*
G04 #@! TD*
G04 #@! TO.P,R758,1*
G04 #@! TO.N,Net-(R756-Pad2)*
G04 #@! TA.AperFunction,SMDPad,CuDef*
G36*
G01*
X6615000Y2994215D02*
X6985000Y2994215D01*
G75*
G02*
X7120000Y2859215I0J-135000D01*
G01*
X7120000Y2589215D01*
G75*
G02*
X6985000Y2454215I-135000J0D01*
G01*
X6615000Y2454215D01*
G75*
G02*
X6480000Y2589215I0J135000D01*
G01*
X6480000Y2859215D01*
G75*
G02*
X6615000Y2994215I135000J0D01*
G01*
G37*
G04 #@! TD.AperFunction*
G04 #@! TO.P,R758,2*
G04 #@! TO.N,Vref*
G04 #@! TA.AperFunction,SMDPad,CuDef*
G36*
G01*
X6615000Y1974215D02*
X6985000Y1974215D01*
G75*
G02*
X7120000Y1839215I0J-135000D01*
G01*
X7120000Y1569215D01*
G75*
G02*
X6985000Y1434215I-135000J0D01*
G01*
X6615000Y1434215D01*
G75*
G02*
X6480000Y1569215I0J135000D01*
G01*
X6480000Y1839215D01*
G75*
G02*
X6615000Y1974215I135000J0D01*
G01*
G37*
G04 #@! TD.AperFunction*
G04 #@! TD*
G04 #@! TO.P,C763,1*
G04 #@! TO.N,+5V*
G04 #@! TA.AperFunction,SMDPad,CuDef*
G36*
G01*
X2210000Y4670000D02*
X2210000Y4330000D01*
G75*
G02*
X2070000Y4190000I-140000J0D01*
G01*
X1790000Y4190000D01*
G75*
G02*
X1650000Y4330000I0J140000D01*
G01*
X1650000Y4670000D01*
G75*
G02*
X1790000Y4810000I140000J0D01*
G01*
X2070000Y4810000D01*
G75*
G02*
X2210000Y4670000I0J-140000D01*
G01*
G37*
G04 #@! TD.AperFunction*
G04 #@! TO.P,C763,2*
G04 #@! TO.N,GND*
G04 #@! TA.AperFunction,SMDPad,CuDef*
G36*
G01*
X1250000Y4670000D02*
X1250000Y4330000D01*
G75*
G02*
X1110000Y4190000I-140000J0D01*
G01*
X830000Y4190000D01*
G75*
G02*
X690000Y4330000I0J140000D01*
G01*
X690000Y4670000D01*
G75*
G02*
X830000Y4810000I140000J0D01*
G01*
X1110000Y4810000D01*
G75*
G02*
X1250000Y4670000I0J-140000D01*
G01*
G37*
G04 #@! TD.AperFunction*
G04 #@! TD*
G04 #@! TO.P,C767,1*
G04 #@! TO.N,Vref*
G04 #@! TA.AperFunction,SMDPad,CuDef*
G36*
G01*
X11620000Y2501593D02*
X11280000Y2501593D01*
G75*
G02*
X11140000Y2641593I0J140000D01*
G01*
X11140000Y2921593D01*
G75*
G02*
X11280000Y3061593I140000J0D01*
G01*
X11620000Y3061593D01*
G75*
G02*
X11760000Y2921593I0J-140000D01*
G01*
X11760000Y2641593D01*
G75*
G02*
X11620000Y2501593I-140000J0D01*
G01*
G37*
G04 #@! TD.AperFunction*
G04 #@! TO.P,C767,2*
G04 #@! TO.N,GND*
G04 #@! TA.AperFunction,SMDPad,CuDef*
G36*
G01*
X11620000Y3461593D02*
X11280000Y3461593D01*
G75*
G02*
X11140000Y3601593I0J140000D01*
G01*
X11140000Y3881593D01*
G75*
G02*
X11280000Y4021593I140000J0D01*
G01*
X11620000Y4021593D01*
G75*
G02*
X11760000Y3881593I0J-140000D01*
G01*
X11760000Y3601593D01*
G75*
G02*
X11620000Y3461593I-140000J0D01*
G01*
G37*
G04 #@! TD.AperFunction*
G04 #@! TD*
G04 #@! TO.P,R756,1*
G04 #@! TO.N,Net-(C751-Pad2)*
G04 #@! TA.AperFunction,SMDPad,CuDef*
G36*
G01*
X5265000Y590000D02*
X5265000Y960000D01*
G75*
G02*
X5400000Y1095000I135000J0D01*
G01*
X5670000Y1095000D01*
G75*
G02*
X5805000Y960000I0J-135000D01*
G01*
X5805000Y590000D01*
G75*
G02*
X5670000Y455000I-135000J0D01*
G01*
X5400000Y455000D01*
G75*
G02*
X5265000Y590000I0J135000D01*
G01*
G37*
G04 #@! TD.AperFunction*
G04 #@! TO.P,R756,2*
G04 #@! TO.N,Net-(R756-Pad2)*
G04 #@! TA.AperFunction,SMDPad,CuDef*
G36*
G01*
X6285000Y590000D02*
X6285000Y960000D01*
G75*
G02*
X6420000Y1095000I135000J0D01*
G01*
X6690000Y1095000D01*
G75*
G02*
X6825000Y960000I0J-135000D01*
G01*
X6825000Y590000D01*
G75*
G02*
X6690000Y455000I-135000J0D01*
G01*
X6420000Y455000D01*
G75*
G02*
X6285000Y590000I0J135000D01*
G01*
G37*
G04 #@! TD.AperFunction*
G04 #@! TD*
D17*
G04 #@! TO.P,U756,1*
G04 #@! TO.N,thresh_high*
X12681100Y1159900D03*
G04 #@! TO.P,U756,2,GND*
G04 #@! TO.N,GND*
X13331100Y1159900D03*
G04 #@! TO.P,U756,3*
G04 #@! TO.N,Vref*
X13981100Y1159900D03*
G04 #@! TO.P,U756,4*
G04 #@! TO.N,Net-(U754-Pad5)*
X13981100Y3059900D03*
G04 #@! TO.P,U756,5,V+*
G04 #@! TO.N,+5V*
X13331100Y3059900D03*
G04 #@! TO.P,U756,6*
G04 #@! TO.N,Net-(C757-Pad2)*
X12681100Y3059900D03*
G04 #@! TD*
G04 #@! TO.P,U751,1,IO1*
G04 #@! TO.N,Net-(C751-Pad1)*
G04 #@! TA.AperFunction,SMDPad,CuDef*
G36*
G01*
X1025706Y3131597D02*
X1025706Y3431597D01*
G75*
G02*
X1175706Y3581597I150000J0D01*
G01*
X2200706Y3581597D01*
G75*
G02*
X2350706Y3431597I0J-150000D01*
G01*
X2350706Y3131597D01*
G75*
G02*
X2200706Y2981597I-150000J0D01*
G01*
X1175706Y2981597D01*
G75*
G02*
X1025706Y3131597I0J150000D01*
G01*
G37*
G04 #@! TD.AperFunction*
G04 #@! TO.P,U751,2,VN*
G04 #@! TO.N,GND*
G04 #@! TA.AperFunction,SMDPad,CuDef*
G36*
G01*
X1025706Y2181597D02*
X1025706Y2481597D01*
G75*
G02*
X1175706Y2631597I150000J0D01*
G01*
X2200706Y2631597D01*
G75*
G02*
X2350706Y2481597I0J-150000D01*
G01*
X2350706Y2181597D01*
G75*
G02*
X2200706Y2031597I-150000J0D01*
G01*
X1175706Y2031597D01*
G75*
G02*
X1025706Y2181597I0J150000D01*
G01*
G37*
G04 #@! TD.AperFunction*
G04 #@! TO.P,U751,3,IO2*
G04 #@! TO.N,Net-(C751-Pad2)*
G04 #@! TA.AperFunction,SMDPad,CuDef*
G36*
G01*
X1025706Y1231597D02*
X1025706Y1531597D01*
G75*
G02*
X1175706Y1681597I150000J0D01*
G01*
X2200706Y1681597D01*
G75*
G02*
X2350706Y1531597I0J-150000D01*
G01*
X2350706Y1231597D01*
G75*
G02*
X2200706Y1081597I-150000J0D01*
G01*
X1175706Y1081597D01*
G75*
G02*
X1025706Y1231597I0J150000D01*
G01*
G37*
G04 #@! TD.AperFunction*
G04 #@! TO.P,U751,4,IO3*
G04 #@! TA.AperFunction,SMDPad,CuDef*
G36*
G01*
X3300706Y1231597D02*
X3300706Y1531597D01*
G75*
G02*
X3450706Y1681597I150000J0D01*
G01*
X4475706Y1681597D01*
G75*
G02*
X4625706Y1531597I0J-150000D01*
G01*
X4625706Y1231597D01*
G75*
G02*
X4475706Y1081597I-150000J0D01*
G01*
X3450706Y1081597D01*
G75*
G02*
X3300706Y1231597I0J150000D01*
G01*
G37*
G04 #@! TD.AperFunction*
G04 #@! TO.P,U751,5,VP*
G04 #@! TO.N,+5V*
G04 #@! TA.AperFunction,SMDPad,CuDef*
G36*
G01*
X3300706Y2181597D02*
X3300706Y2481597D01*
G75*
G02*
X3450706Y2631597I150000J0D01*
G01*
X4475706Y2631597D01*
G75*
G02*
X4625706Y2481597I0J-150000D01*
G01*
X4625706Y2181597D01*
G75*
G02*
X4475706Y2031597I-150000J0D01*
G01*
X3450706Y2031597D01*
G75*
G02*
X3300706Y2181597I0J150000D01*
G01*
G37*
G04 #@! TD.AperFunction*
G04 #@! TO.P,U751,6,IO4*
G04 #@! TO.N,Net-(C751-Pad1)*
G04 #@! TA.AperFunction,SMDPad,CuDef*
G36*
G01*
X3300706Y3131597D02*
X3300706Y3431597D01*
G75*
G02*
X3450706Y3581597I150000J0D01*
G01*
X4475706Y3581597D01*
G75*
G02*
X4625706Y3431597I0J-150000D01*
G01*
X4625706Y3131597D01*
G75*
G02*
X4475706Y2981597I-150000J0D01*
G01*
X3450706Y2981597D01*
G75*
G02*
X3300706Y3131597I0J150000D01*
G01*
G37*
G04 #@! TD.AperFunction*
G04 #@! TD*
G04 #@! TO.P,C765,1*
G04 #@! TO.N,Vref*
G04 #@! TA.AperFunction,SMDPad,CuDef*
G36*
G01*
X4390000Y6130000D02*
X4390000Y6470000D01*
G75*
G02*
X4530000Y6610000I140000J0D01*
G01*
X4810000Y6610000D01*
G75*
G02*
X4950000Y6470000I0J-140000D01*
G01*
X4950000Y6130000D01*
G75*
G02*
X4810000Y5990000I-140000J0D01*
G01*
X4530000Y5990000D01*
G75*
G02*
X4390000Y6130000I0J140000D01*
G01*
G37*
G04 #@! TD.AperFunction*
G04 #@! TO.P,C765,2*
G04 #@! TO.N,GND*
G04 #@! TA.AperFunction,SMDPad,CuDef*
G36*
G01*
X5350000Y6130000D02*
X5350000Y6470000D01*
G75*
G02*
X5490000Y6610000I140000J0D01*
G01*
X5770000Y6610000D01*
G75*
G02*
X5910000Y6470000I0J-140000D01*
G01*
X5910000Y6130000D01*
G75*
G02*
X5770000Y5990000I-140000J0D01*
G01*
X5490000Y5990000D01*
G75*
G02*
X5350000Y6130000I0J140000D01*
G01*
G37*
G04 #@! TD.AperFunction*
G04 #@! TD*
G04 #@! TO.P,C754,1*
G04 #@! TO.N,GND*
G04 #@! TA.AperFunction,SMDPad,CuDef*
G36*
G01*
X9320000Y510000D02*
X8980000Y510000D01*
G75*
G02*
X8840000Y650000I0J140000D01*
G01*
X8840000Y930000D01*
G75*
G02*
X8980000Y1070000I140000J0D01*
G01*
X9320000Y1070000D01*
G75*
G02*
X9460000Y930000I0J-140000D01*
G01*
X9460000Y650000D01*
G75*
G02*
X9320000Y510000I-140000J0D01*
G01*
G37*
G04 #@! TD.AperFunction*
G04 #@! TO.P,C754,2*
G04 #@! TO.N,Vref*
G04 #@! TA.AperFunction,SMDPad,CuDef*
G36*
G01*
X9320000Y1470000D02*
X8980000Y1470000D01*
G75*
G02*
X8840000Y1610000I0J140000D01*
G01*
X8840000Y1890000D01*
G75*
G02*
X8980000Y2030000I140000J0D01*
G01*
X9320000Y2030000D01*
G75*
G02*
X9460000Y1890000I0J-140000D01*
G01*
X9460000Y1610000D01*
G75*
G02*
X9320000Y1470000I-140000J0D01*
G01*
G37*
G04 #@! TD.AperFunction*
G04 #@! TD*
G04 #@! TO.P,R768,1*
G04 #@! TO.N,Net-(C759-Pad1)*
G04 #@! TA.AperFunction,SMDPad,CuDef*
G36*
G01*
X10335000Y2481593D02*
X9965000Y2481593D01*
G75*
G02*
X9830000Y2616593I0J135000D01*
G01*
X9830000Y2886593D01*
G75*
G02*
X9965000Y3021593I135000J0D01*
G01*
X10335000Y3021593D01*
G75*
G02*
X10470000Y2886593I0J-135000D01*
G01*
X10470000Y2616593D01*
G75*
G02*
X10335000Y2481593I-135000J0D01*
G01*
G37*
G04 #@! TD.AperFunction*
G04 #@! TO.P,R768,2*
G04 #@! TO.N,GND*
G04 #@! TA.AperFunction,SMDPad,CuDef*
G36*
G01*
X10335000Y3501593D02*
X9965000Y3501593D01*
G75*
G02*
X9830000Y3636593I0J135000D01*
G01*
X9830000Y3906593D01*
G75*
G02*
X9965000Y4041593I135000J0D01*
G01*
X10335000Y4041593D01*
G75*
G02*
X10470000Y3906593I0J-135000D01*
G01*
X10470000Y3636593D01*
G75*
G02*
X10335000Y3501593I-135000J0D01*
G01*
G37*
G04 #@! TD.AperFunction*
G04 #@! TD*
D18*
G04 #@! TO.N,GND*
X3400000Y9350000D03*
X13568493Y398540D03*
X450000Y8950000D03*
X475000Y6825000D03*
X8950000Y400000D03*
X6721047Y6795971D03*
X2332643Y2337000D03*
X5274033Y5513060D03*
X4400000Y400000D03*
X2309598Y414120D03*
X9925000Y5475000D03*
X14800000Y3700000D03*
X10476117Y3469351D03*
X350000Y4750000D03*
X7300000Y5350000D03*
X3950000Y5050000D03*
X14800000Y2625000D03*
X9125000Y4400000D03*
X12121049Y9321268D03*
X14775000Y1575000D03*
G04 #@! TO.N,Net-(C751-Pad1)*
X3536455Y4261215D03*
G04 #@! TO.N,Net-(C751-Pad2)*
X3625400Y739602D03*
G04 #@! TO.N,+5V*
X8165850Y4280400D03*
X4766217Y2280985D03*
X2425000Y4375000D03*
X2732732Y8937026D03*
X14158516Y2145527D03*
X5900000Y8150000D03*
G04 #@! TO.N,Vref*
X4775000Y4550000D03*
X7501951Y1719344D03*
X12773241Y2267715D03*
G04 #@! TO.N,thresh_low*
X11624528Y8739821D03*
X4046477Y8800484D03*
G04 #@! TO.N,Net-(C756-Pad2)*
X10875000Y8890900D03*
G04 #@! TO.N,Net-(C757-Pad2)*
X10699317Y5399689D03*
X10530400Y7186704D03*
G04 #@! TO.N,Net-(C759-Pad1)*
X7604434Y2609453D03*
G04 #@! TO.N,output*
X2600000Y5150000D03*
G04 #@! TO.N,analog_out*
X6200000Y5550000D03*
G04 #@! TO.N,Net-(R755-Pad1)*
X7166110Y4522290D03*
G04 #@! TO.N,Net-(R756-Pad2)*
X7325000Y3525000D03*
G04 #@! TO.N,Net-(R762-Pad1)*
X10225000Y4750000D03*
X12091307Y5514600D03*
G04 #@! TO.N,Net-(R763-Pad1)*
X10640500Y805547D03*
G04 #@! TO.N,Net-(R769-Pad1)*
X7375000Y775000D03*
G04 #@! TD*
D19*
G04 #@! TO.N,Net-(C751-Pad1)*
X4062500Y3250000D02*
X1687500Y3250000D01*
X5575000Y3599980D02*
X5535000Y3599980D01*
X5575000Y2730000D02*
X5575000Y3250000D01*
X4500000Y3250000D02*
X5575000Y3250000D01*
X3536455Y3427905D02*
X3664080Y3300280D01*
X5575000Y3250000D02*
X5575000Y3599980D01*
X3536455Y4261215D02*
X3536455Y3427905D01*
X3664080Y3300280D02*
X4012780Y3300280D01*
G04 #@! TO.N,Net-(C751-Pad2)*
X3625400Y739602D02*
X3587500Y777502D01*
X5155556Y1770000D02*
X5575000Y1770000D01*
X3587500Y777502D02*
X3587500Y1350000D01*
X5575000Y1770000D02*
X5575000Y890000D01*
X4735556Y1350000D02*
X5155556Y1770000D01*
X3962500Y1350000D02*
X4735556Y1350000D01*
X3962500Y1350000D02*
X1687500Y1350000D01*
G04 #@! TO.N,+5V*
X8165850Y4280400D02*
X8165850Y3807443D01*
X13745700Y2190100D02*
X13331100Y2604700D01*
X5900000Y8150000D02*
X6000000Y8250000D01*
X14355000Y8855000D02*
X14800000Y9300000D01*
X4747202Y2300000D02*
X4000000Y2300000D01*
X4766217Y2280985D02*
X4747202Y2300000D01*
X8165850Y3807443D02*
X8150000Y3791593D01*
X13331100Y2604700D02*
X13331100Y3059900D01*
X13473030Y8855000D02*
X14355000Y8855000D01*
X6000000Y8250000D02*
X6650000Y8250000D01*
X14113943Y2190100D02*
X13745700Y2190100D01*
X2425000Y4375000D02*
X2055000Y4375000D01*
X2055000Y4375000D02*
X1930000Y4500000D01*
G04 #@! TO.N,Vref*
X12773241Y2267715D02*
X12344785Y2267715D01*
X7490000Y1760000D02*
X9140000Y1760000D01*
X4600000Y4725000D02*
X4600000Y6230000D01*
X4775000Y4550000D02*
X4600000Y4725000D01*
X13265956Y1775000D02*
X13695222Y1775000D01*
X4600000Y6230000D02*
X4670000Y6300000D01*
X13981100Y1489122D02*
X13981100Y1159900D01*
X6800000Y1704215D02*
X7486822Y1704215D01*
X4670000Y6300000D02*
X4750000Y6380000D01*
X13695222Y1775000D02*
X13981100Y1489122D01*
X12344785Y2267715D02*
X11830907Y2781593D01*
X11830907Y2781593D02*
X11450000Y2781593D01*
X4750000Y6380000D02*
X4750000Y7650000D01*
X12773241Y2267715D02*
X13265956Y1775000D01*
G04 #@! TO.N,thresh_low*
X4046477Y8800484D02*
X4145993Y8900000D01*
X4145993Y8900000D02*
X4700000Y8900000D01*
G04 #@! TO.N,Net-(C756-Pad2)*
X6650000Y8950000D02*
X8112960Y8950000D01*
X10865900Y8900000D02*
X8528017Y8900000D01*
X10875000Y8890900D02*
X10865900Y8900000D01*
G04 #@! TO.N,Net-(C757-Pad2)*
X10893696Y7550000D02*
X13388043Y7550000D01*
X11599006Y4500000D02*
X12025000Y4500000D01*
X10699317Y5399689D02*
X11599006Y4500000D01*
X12025000Y4500000D02*
X12681100Y3843900D01*
X10530400Y7186704D02*
X10893696Y7550000D01*
X12681100Y3843900D02*
X12681100Y3059900D01*
G04 #@! TO.N,thresh_high*
X10200000Y1750000D02*
X10150000Y1800000D01*
X12681100Y1159900D02*
X12155620Y1685380D01*
X11450000Y1750000D02*
X10200000Y1750000D01*
X12155620Y1685380D02*
X11514620Y1685380D01*
G04 #@! TO.N,Net-(C759-Pad1)*
X9213777Y2723777D02*
X9260000Y2770000D01*
X7604434Y2609453D02*
X7766574Y2771593D01*
X7766574Y2771593D02*
X10150000Y2771593D01*
G04 #@! TO.N,Net-(D751-Pad1)*
X1240000Y5922500D02*
X1240000Y7350000D01*
G04 #@! TO.N,output*
X2687500Y5850000D02*
X2887500Y5850000D01*
X2600000Y5150000D02*
X2600000Y5762500D01*
X2600000Y5762500D02*
X2687500Y5850000D01*
G04 #@! TO.N,analog_out*
X14185000Y6315000D02*
X14800000Y5700000D01*
X5535000Y4885000D02*
X5535000Y4650000D01*
X8523030Y6364987D02*
X13473030Y6364987D01*
X6200000Y5550000D02*
X5535000Y4885000D01*
X6200000Y5550000D02*
X6625000Y5550000D01*
X13473030Y6315000D02*
X14185000Y6315000D01*
X6625000Y5550000D02*
X7375000Y6300000D01*
X7375000Y6300000D02*
X8508030Y6300000D01*
G04 #@! TO.N,Net-(R755-Pad1)*
X7038400Y4650000D02*
X6555000Y4650000D01*
X6555000Y3650000D02*
X6555000Y4650000D01*
X7166110Y4522290D02*
X7038400Y4650000D01*
G04 #@! TO.N,Net-(R756-Pad2)*
X6175100Y2099315D02*
X6800000Y2724215D01*
X6555000Y775000D02*
X6175100Y1154900D01*
X6175100Y1154900D02*
X6175100Y2099315D01*
X7325000Y3249215D02*
X6800000Y2724215D01*
X7325000Y3525000D02*
X7325000Y3249215D01*
G04 #@! TO.N,Net-(R769-Pad1)*
X7390000Y760000D02*
X8130000Y760000D01*
X7375000Y775000D02*
X7390000Y760000D01*
X8130000Y760000D02*
X8150000Y740000D01*
G04 #@! TO.N,Net-(U754-Pad2)*
X6650000Y7650000D02*
X8508017Y7650000D01*
G04 #@! TO.N,Net-(U754-Pad5)*
X14000000Y2900000D02*
X14000000Y5075000D01*
G04 #@! TD*
G04 #@! TA.AperFunction,Conductor*
G04 #@! TO.N,GND*
G36*
X15100260Y5260568D02*
G01*
X15124561Y5204415D01*
X15125000Y5195097D01*
X15125000Y124500D01*
X15106093Y66309D01*
X15056593Y30345D01*
X15026000Y25500D01*
X124500Y25500D01*
X66309Y44407D01*
X30345Y93907D01*
X25500Y124500D01*
X25500Y1079127D01*
X44407Y1137318D01*
X93907Y1173282D01*
X149622Y1174886D01*
X273457Y1142398D01*
X273467Y1142397D01*
X279233Y1140884D01*
X285194Y1140790D01*
X285197Y1140790D01*
X363965Y1139553D01*
X448760Y1138221D01*
X454575Y1139553D01*
X454577Y1139553D01*
X608206Y1174738D01*
X608209Y1174739D01*
X614029Y1176072D01*
X619366Y1178756D01*
X735612Y1237221D01*
X796093Y1246476D01*
X850463Y1218413D01*
X875555Y1175012D01*
X877445Y1168133D01*
X878324Y1160751D01*
X923767Y1058444D01*
X930235Y1051987D01*
X930236Y1051986D01*
X948627Y1033627D01*
X1002993Y979356D01*
X1011351Y975661D01*
X1098570Y937101D01*
X1098572Y937101D01*
X1105379Y934091D01*
X1112773Y933229D01*
X1128084Y931444D01*
X1131060Y931097D01*
X2245352Y931097D01*
X2263763Y933288D01*
X2264175Y933337D01*
X2264176Y933337D01*
X2271552Y934215D01*
X2373859Y979658D01*
X2380316Y986126D01*
X2380320Y986129D01*
X2439529Y1045442D01*
X2494021Y1073268D01*
X2509594Y1074500D01*
X3129064Y1074500D01*
X3187255Y1055593D01*
X3223219Y1006093D01*
X3223219Y944907D01*
X3218680Y933429D01*
X3190154Y872670D01*
X3170301Y745162D01*
X3171216Y738165D01*
X3171216Y738164D01*
X3172482Y728482D01*
X3187033Y617208D01*
X3189871Y610757D01*
X3189872Y610755D01*
X3236164Y505548D01*
X3239005Y499092D01*
X3272919Y458746D01*
X3317500Y405710D01*
X3317503Y405708D01*
X3322039Y400311D01*
X3429460Y328806D01*
X3436188Y326704D01*
X3436190Y326703D01*
X3488121Y310479D01*
X3552633Y290324D01*
X3617144Y289141D01*
X3674602Y288088D01*
X3674604Y288088D01*
X3681655Y287959D01*
X3688458Y289814D01*
X3688460Y289814D01*
X3742326Y304500D01*
X3806155Y321902D01*
X3916124Y389423D01*
X3944113Y420345D01*
X3997990Y479867D01*
X3997990Y479868D01*
X4002722Y485095D01*
X4058988Y601227D01*
X4075361Y698549D01*
X4079763Y724711D01*
X4079763Y724716D01*
X4080397Y728482D01*
X4080533Y739602D01*
X4073926Y785739D01*
X4069297Y818063D01*
X4079764Y878346D01*
X4123666Y920964D01*
X4167297Y931097D01*
X4520352Y931097D01*
X4538763Y933288D01*
X4539175Y933337D01*
X4539176Y933337D01*
X4546552Y934215D01*
X4648859Y979658D01*
X4658664Y989480D01*
X4717542Y1048459D01*
X4768291Y1075614D01*
X4796685Y1081262D01*
X4843051Y1090485D01*
X4853586Y1097524D01*
X4906327Y1132764D01*
X4906330Y1132767D01*
X4911178Y1136006D01*
X4911179Y1136007D01*
X4926070Y1145957D01*
X4934180Y1151376D01*
X4944130Y1166267D01*
X4956441Y1181269D01*
X4992274Y1217102D01*
X5046791Y1244879D01*
X5107223Y1235308D01*
X5150488Y1192043D01*
X5160059Y1131611D01*
X5152825Y1107070D01*
X5117345Y1026817D01*
X5114500Y1002415D01*
X5114501Y547586D01*
X5114848Y544671D01*
X5114848Y544666D01*
X5116224Y533096D01*
X5117462Y522690D01*
X5138441Y475461D01*
X5156739Y434266D01*
X5160637Y425490D01*
X5235908Y350350D01*
X5333183Y307345D01*
X5357585Y304500D01*
X5532768Y304500D01*
X5712414Y304501D01*
X5715329Y304848D01*
X5715334Y304848D01*
X5729930Y306584D01*
X5729932Y306584D01*
X5737310Y307462D01*
X5794160Y332714D01*
X5826154Y346925D01*
X5826156Y346926D01*
X5834510Y350637D01*
X5841162Y357300D01*
X5880196Y396403D01*
X5909650Y425908D01*
X5952655Y523183D01*
X5953959Y522607D01*
X5983033Y566950D01*
X6040250Y588626D01*
X6099280Y572531D01*
X6137146Y525348D01*
X6137462Y522690D01*
X6140478Y515900D01*
X6176739Y434266D01*
X6180637Y425490D01*
X6255908Y350350D01*
X6353183Y307345D01*
X6377585Y304500D01*
X6552768Y304500D01*
X6732414Y304501D01*
X6735329Y304848D01*
X6735334Y304848D01*
X6749930Y306584D01*
X6749932Y306584D01*
X6757310Y307462D01*
X6814160Y332714D01*
X6846154Y346925D01*
X6846156Y346926D01*
X6854510Y350637D01*
X6861162Y357300D01*
X6900196Y396403D01*
X6929650Y425908D01*
X6930425Y425135D01*
X6971856Y457040D01*
X7033018Y458746D01*
X7069206Y438603D01*
X7071639Y435709D01*
X7179060Y364204D01*
X7185788Y362102D01*
X7185790Y362101D01*
X7235231Y346655D01*
X7302233Y325722D01*
X7366744Y324539D01*
X7424202Y323486D01*
X7424204Y323486D01*
X7431255Y323357D01*
X7438058Y325212D01*
X7438060Y325212D01*
X7491684Y339832D01*
X7555755Y357300D01*
X7658434Y420345D01*
X7717916Y434681D01*
X7774465Y411315D01*
X7780178Y406043D01*
X7794439Y391807D01*
X7794441Y391805D01*
X7800908Y385350D01*
X7898183Y342345D01*
X7922585Y339500D01*
X8147140Y339500D01*
X8377414Y339501D01*
X8380329Y339848D01*
X8380334Y339848D01*
X8394930Y341584D01*
X8394932Y341584D01*
X8402310Y342462D01*
X8469048Y372106D01*
X8491154Y381925D01*
X8491156Y381926D01*
X8499510Y385637D01*
X8505971Y392109D01*
X8561403Y447636D01*
X8615896Y475461D01*
X8676336Y465941D01*
X8701471Y447697D01*
X8775853Y373315D01*
X8789826Y363531D01*
X8883776Y319722D01*
X8886388Y318960D01*
X8893569Y320292D01*
X8894805Y321594D01*
X8896000Y326874D01*
X8896000Y945000D01*
X8914907Y1003191D01*
X8964407Y1039155D01*
X8995000Y1044000D01*
X9305000Y1044000D01*
X9363191Y1025093D01*
X9399155Y975593D01*
X9404000Y945000D01*
X9404000Y331494D01*
X9408122Y318809D01*
X9409545Y317775D01*
X9416224Y319722D01*
X9510174Y363531D01*
X9524147Y373315D01*
X9598487Y447655D01*
X9653004Y475432D01*
X9713436Y465861D01*
X9738434Y447715D01*
X9794439Y391807D01*
X9794441Y391805D01*
X9800908Y385350D01*
X9898183Y342345D01*
X9922585Y339500D01*
X10147140Y339500D01*
X10377414Y339501D01*
X10380329Y339848D01*
X10380334Y339848D01*
X10394930Y341584D01*
X10394932Y341584D01*
X10402310Y342462D01*
X10454768Y365763D01*
X10515622Y372106D01*
X10524477Y369783D01*
X10567733Y356269D01*
X10632244Y355086D01*
X10689702Y354033D01*
X10689704Y354033D01*
X10696755Y353904D01*
X10703558Y355759D01*
X10703560Y355759D01*
X10763518Y372106D01*
X10821255Y387847D01*
X10903427Y438300D01*
X10962907Y452636D01*
X11019455Y429271D01*
X11025230Y423938D01*
X11075853Y373315D01*
X11089826Y363531D01*
X11183776Y319722D01*
X11186388Y318960D01*
X11193569Y320292D01*
X11194805Y321594D01*
X11196000Y326874D01*
X11196000Y331494D01*
X11704000Y331494D01*
X11708122Y318809D01*
X11709545Y317775D01*
X11716224Y319722D01*
X11810174Y363531D01*
X11824147Y373315D01*
X11896685Y445853D01*
X11906469Y459826D01*
X11935362Y521788D01*
X11936750Y533096D01*
X11930523Y536000D01*
X11719680Y536000D01*
X11706995Y531878D01*
X11704000Y527757D01*
X11704000Y331494D01*
X11196000Y331494D01*
X11196000Y945000D01*
X11214907Y1003191D01*
X11264407Y1039155D01*
X11295000Y1044000D01*
X11926309Y1044000D01*
X11937144Y1047521D01*
X11937144Y1054390D01*
X11906469Y1120174D01*
X11896685Y1134147D01*
X11824150Y1206682D01*
X11805208Y1219944D01*
X11768384Y1268808D01*
X11767314Y1329984D01*
X11791925Y1370986D01*
X11801745Y1380823D01*
X11856237Y1408648D01*
X11871809Y1409880D01*
X12000496Y1409880D01*
X12058687Y1390973D01*
X12070500Y1380884D01*
X12301604Y1149780D01*
X12329381Y1095263D01*
X12330600Y1079776D01*
X12330600Y820080D01*
X12339333Y776178D01*
X12372596Y726396D01*
X12422378Y693133D01*
X12431938Y691231D01*
X12431939Y691231D01*
X12461517Y685347D01*
X12461522Y685347D01*
X12466280Y684400D01*
X12895920Y684400D01*
X12900679Y685347D01*
X12900682Y685347D01*
X12930260Y691231D01*
X12933090Y691794D01*
X12993851Y684603D01*
X13007407Y677011D01*
X13044956Y651921D01*
X13062626Y644602D01*
X13106638Y635848D01*
X13115615Y634964D01*
X13128105Y639022D01*
X13131100Y643143D01*
X13131100Y1260900D01*
X13150007Y1319091D01*
X13199507Y1355055D01*
X13230100Y1359900D01*
X13432100Y1359900D01*
X13490291Y1340993D01*
X13526255Y1291493D01*
X13531100Y1260900D01*
X13531100Y650580D01*
X13535222Y637895D01*
X13539343Y634900D01*
X13545940Y634900D01*
X13555562Y635848D01*
X13599574Y644602D01*
X13617244Y651921D01*
X13654793Y677011D01*
X13713681Y693620D01*
X13729108Y691794D01*
X13731940Y691231D01*
X13761518Y685347D01*
X13761521Y685347D01*
X13766280Y684400D01*
X14195920Y684400D01*
X14200678Y685347D01*
X14200683Y685347D01*
X14230261Y691231D01*
X14230262Y691231D01*
X14239822Y693133D01*
X14289604Y726396D01*
X14322867Y776178D01*
X14331600Y820080D01*
X14331600Y1499720D01*
X14322867Y1543622D01*
X14311252Y1561006D01*
X14296462Y1583140D01*
X14279854Y1642028D01*
X14301032Y1699431D01*
X14337206Y1727264D01*
X14339271Y1727827D01*
X14345281Y1731517D01*
X14345283Y1731518D01*
X14443227Y1791656D01*
X14449240Y1795348D01*
X14459108Y1806250D01*
X14531106Y1885792D01*
X14531106Y1885793D01*
X14535838Y1891020D01*
X14592104Y2007152D01*
X14604277Y2079510D01*
X14612879Y2130636D01*
X14612879Y2130641D01*
X14613513Y2134407D01*
X14613649Y2145527D01*
X14595355Y2273268D01*
X14571296Y2326183D01*
X14544865Y2384315D01*
X14544864Y2384316D01*
X14541944Y2390739D01*
X14481525Y2460859D01*
X14462314Y2483155D01*
X14462313Y2483156D01*
X14457709Y2488499D01*
X14357653Y2553351D01*
X14319107Y2600868D01*
X14315851Y2661966D01*
X14318404Y2669499D01*
X14322867Y2676178D01*
X14331600Y2720080D01*
X14331600Y3399720D01*
X14329059Y3412497D01*
X14324769Y3434061D01*
X14324769Y3434062D01*
X14322867Y3443622D01*
X14295840Y3484072D01*
X14292184Y3489543D01*
X14275500Y3544544D01*
X14275500Y4498589D01*
X14294407Y4556780D01*
X14343907Y4592744D01*
X14359123Y4596087D01*
X14361499Y4596740D01*
X14368876Y4597618D01*
X14471183Y4643061D01*
X14502442Y4674374D01*
X14524496Y4696467D01*
X14550271Y4722287D01*
X14573797Y4775500D01*
X14592526Y4817864D01*
X14592526Y4817866D01*
X14595536Y4824673D01*
X14597169Y4838678D01*
X14598198Y4847506D01*
X14598198Y4847507D01*
X14598530Y4850354D01*
X14598530Y5156282D01*
X14617437Y5214473D01*
X14666937Y5250437D01*
X14713012Y5250726D01*
X14713535Y5253953D01*
X14720502Y5252825D01*
X14727233Y5250722D01*
X14791744Y5249539D01*
X14849202Y5248486D01*
X14849204Y5248486D01*
X14856255Y5248357D01*
X14863058Y5250212D01*
X14863060Y5250212D01*
X14973951Y5280445D01*
X14980755Y5282300D01*
X14986711Y5285957D01*
X15047595Y5291713D01*
X15100260Y5260568D01*
G37*
G04 #@! TD.AperFunction*
G04 #@! TA.AperFunction,Conductor*
G36*
X3199916Y2955593D02*
G01*
X3211667Y2945565D01*
X3277992Y2879356D01*
X3276190Y2877551D01*
X3305268Y2839793D01*
X3306977Y2778632D01*
X3275649Y2735436D01*
X3277553Y2733536D01*
X3198465Y2654310D01*
X3194770Y2645952D01*
X3162564Y2573104D01*
X3153200Y2551924D01*
X3150206Y2526243D01*
X3150206Y2136951D01*
X3153324Y2110751D01*
X3198767Y2008444D01*
X3205235Y2001987D01*
X3205236Y2001986D01*
X3277993Y1929356D01*
X3276191Y1927551D01*
X3305268Y1889793D01*
X3306977Y1828632D01*
X3275649Y1785436D01*
X3277553Y1783536D01*
X3198465Y1704310D01*
X3194770Y1695953D01*
X3194769Y1695951D01*
X3189694Y1684471D01*
X3148873Y1638894D01*
X3099148Y1625500D01*
X2552199Y1625500D01*
X2494008Y1644407D01*
X2461724Y1684310D01*
X2452645Y1704750D01*
X2405556Y1751757D01*
X2377731Y1806250D01*
X2387250Y1866690D01*
X2408699Y1891646D01*
X2407267Y1893076D01*
X2483807Y1969749D01*
X2493180Y1982890D01*
X2532587Y2063509D01*
X2534182Y2074790D01*
X2528440Y2077597D01*
X1533206Y2077597D01*
X1475015Y2096504D01*
X1439051Y2146004D01*
X1434206Y2176597D01*
X1434206Y2486597D01*
X1453113Y2544788D01*
X1502613Y2580752D01*
X1533206Y2585597D01*
X2523902Y2585597D01*
X2534737Y2589118D01*
X2534737Y2595465D01*
X2492833Y2680813D01*
X2483436Y2693939D01*
X2406763Y2770478D01*
X2409120Y2772840D01*
X2381649Y2809967D01*
X2381115Y2871150D01*
X2405468Y2911321D01*
X2439529Y2945442D01*
X2494021Y2973267D01*
X2509594Y2974500D01*
X3141725Y2974500D01*
X3199916Y2955593D01*
G37*
G04 #@! TD.AperFunction*
G04 #@! TA.AperFunction,Conductor*
G36*
X10843588Y4865802D02*
G01*
X11318793Y4390597D01*
X11346570Y4336080D01*
X11336999Y4275648D01*
X11293734Y4232383D01*
X11248789Y4221593D01*
X11243401Y4221593D01*
X11236947Y4221170D01*
X11198157Y4216063D01*
X11183775Y4211871D01*
X11089826Y4168062D01*
X11075853Y4158278D01*
X11003315Y4085740D01*
X10993531Y4071767D01*
X10964638Y4009805D01*
X10963250Y3998497D01*
X10969477Y3995593D01*
X11926309Y3995593D01*
X11938996Y3999715D01*
X11953625Y4019850D01*
X12003125Y4055814D01*
X12064310Y4055813D01*
X12103721Y4031663D01*
X12376604Y3758780D01*
X12404381Y3704263D01*
X12405600Y3688776D01*
X12405600Y3564724D01*
X12386693Y3506533D01*
X12379311Y3497891D01*
X12372596Y3493404D01*
X12339333Y3443622D01*
X12337431Y3434062D01*
X12337431Y3434061D01*
X12333142Y3412497D01*
X12330600Y3399720D01*
X12330600Y2910524D01*
X12311693Y2852333D01*
X12262193Y2816369D01*
X12201007Y2816369D01*
X12161596Y2840520D01*
X12051792Y2950324D01*
X12039481Y2965326D01*
X12034950Y2972107D01*
X12029531Y2980217D01*
X12006530Y2995586D01*
X12006529Y2995587D01*
X11966083Y3022612D01*
X11938402Y3041108D01*
X11928839Y3043010D01*
X11928837Y3043011D01*
X11926938Y3043389D01*
X11924136Y3044959D01*
X11919830Y3046742D01*
X11920041Y3047252D01*
X11873555Y3073288D01*
X11866737Y3081822D01*
X11863556Y3088984D01*
X11791977Y3160438D01*
X11764153Y3214928D01*
X11773671Y3275368D01*
X11805138Y3311599D01*
X11824149Y3324910D01*
X11896685Y3397446D01*
X11906469Y3411419D01*
X11935362Y3473381D01*
X11936750Y3484689D01*
X11930523Y3487593D01*
X10973691Y3487593D01*
X10962856Y3484072D01*
X10962856Y3477203D01*
X10993531Y3411419D01*
X11003315Y3397446D01*
X11075850Y3324911D01*
X11094792Y3311649D01*
X11131616Y3262785D01*
X11132686Y3201609D01*
X11108076Y3160608D01*
X11042608Y3095026D01*
X11042607Y3095024D01*
X11036153Y3088559D01*
X11032459Y3080204D01*
X11032458Y3080202D01*
X11015900Y3042747D01*
X10992395Y2989580D01*
X10989500Y2964751D01*
X10989500Y2598435D01*
X10989846Y2595530D01*
X10989846Y2595524D01*
X10991028Y2585597D01*
X10992514Y2573104D01*
X11036444Y2474202D01*
X11042910Y2467747D01*
X11042911Y2467746D01*
X11106567Y2404201D01*
X11106569Y2404200D01*
X11113034Y2397746D01*
X11121389Y2394052D01*
X11121391Y2394051D01*
X11206582Y2356389D01*
X11252159Y2315567D01*
X11265036Y2255753D01*
X11240297Y2199792D01*
X11206739Y2175367D01*
X11112609Y2133556D01*
X11106154Y2127090D01*
X11106153Y2127089D01*
X11058240Y2079092D01*
X11036153Y2056966D01*
X11033936Y2059179D01*
X10997643Y2031234D01*
X10964439Y2025500D01*
X10661539Y2025500D01*
X10603348Y2044407D01*
X10579950Y2068427D01*
X10578073Y2071159D01*
X10574363Y2079510D01*
X10557340Y2096504D01*
X10526701Y2127089D01*
X10499092Y2154650D01*
X10452491Y2175252D01*
X10406914Y2216074D01*
X10394037Y2275888D01*
X10418776Y2331849D01*
X10452332Y2356274D01*
X10491156Y2373519D01*
X10491157Y2373520D01*
X10499510Y2377230D01*
X10512996Y2390739D01*
X10568195Y2446035D01*
X10574650Y2452501D01*
X10617655Y2549776D01*
X10620500Y2574178D01*
X10620499Y2929007D01*
X10619372Y2938489D01*
X10618416Y2946523D01*
X10618416Y2946525D01*
X10617538Y2953903D01*
X10584163Y3029040D01*
X10578075Y3042747D01*
X10578074Y3042749D01*
X10574363Y3051103D01*
X10499092Y3126243D01*
X10459327Y3143823D01*
X10413751Y3184646D01*
X10400874Y3244461D01*
X10425614Y3300421D01*
X10457519Y3324094D01*
X10522265Y3354285D01*
X10536235Y3364067D01*
X10607526Y3435358D01*
X10617309Y3449331D01*
X10642514Y3503381D01*
X10643902Y3514689D01*
X10637675Y3517593D01*
X9715680Y3517593D01*
X9685440Y3507767D01*
X9664339Y3492438D01*
X9633749Y3487593D01*
X8995000Y3487593D01*
X8936809Y3506500D01*
X8900845Y3556000D01*
X8896000Y3586593D01*
X8896000Y4200099D01*
X8891878Y4212784D01*
X8890455Y4213818D01*
X8883776Y4211871D01*
X8789826Y4168062D01*
X8772606Y4156005D01*
X8714093Y4138118D01*
X8656242Y4158040D01*
X8621150Y4208162D01*
X8618197Y4253527D01*
X8620212Y4265506D01*
X8620847Y4269280D01*
X8620983Y4280400D01*
X8602689Y4408141D01*
X8599769Y4414564D01*
X8598701Y4418215D01*
X8600516Y4479373D01*
X8637933Y4527785D01*
X8693722Y4545001D01*
X9377587Y4545001D01*
X9384784Y4545528D01*
X9442385Y4554006D01*
X9456903Y4558517D01*
X9547246Y4602873D01*
X9560372Y4612270D01*
X9621526Y4673531D01*
X9676019Y4701357D01*
X9736459Y4691838D01*
X9779761Y4648611D01*
X9785964Y4632720D01*
X9786633Y4627606D01*
X9789473Y4621153D01*
X9789473Y4621151D01*
X9835575Y4516377D01*
X9838605Y4509490D01*
X9921639Y4410709D01*
X9927513Y4406799D01*
X9927854Y4406494D01*
X9958632Y4353613D01*
X9952450Y4292741D01*
X9911668Y4247128D01*
X9889571Y4237646D01*
X9870092Y4231968D01*
X9777738Y4188902D01*
X9763762Y4179117D01*
X9703540Y4118894D01*
X9649024Y4091116D01*
X9588592Y4100687D01*
X9563532Y4118893D01*
X9524147Y4158278D01*
X9510174Y4168062D01*
X9416224Y4211871D01*
X9413612Y4212633D01*
X9406431Y4211301D01*
X9405195Y4209999D01*
X9404000Y4204719D01*
X9404000Y4011273D01*
X9408122Y3998588D01*
X9412243Y3995593D01*
X9574320Y3995593D01*
X9604560Y4005419D01*
X9625661Y4020748D01*
X9656251Y4025593D01*
X10633461Y4025593D01*
X10644296Y4029114D01*
X10644296Y4035983D01*
X10617309Y4093855D01*
X10607526Y4107828D01*
X10536235Y4179119D01*
X10522260Y4188904D01*
X10490118Y4203892D01*
X10445370Y4245620D01*
X10433695Y4305681D01*
X10459553Y4361134D01*
X10480156Y4377982D01*
X10509711Y4396129D01*
X10515724Y4399821D01*
X10530467Y4416109D01*
X10597590Y4490265D01*
X10597590Y4490266D01*
X10602322Y4495493D01*
X10636718Y4566485D01*
X10655512Y4605276D01*
X10655512Y4605277D01*
X10658588Y4611625D01*
X10673097Y4697868D01*
X10679363Y4735109D01*
X10679363Y4735114D01*
X10679997Y4738880D01*
X10680133Y4750000D01*
X10675584Y4781764D01*
X10686051Y4842046D01*
X10729952Y4884664D01*
X10790519Y4893339D01*
X10843588Y4865802D01*
G37*
G04 #@! TD.AperFunction*
G04 #@! TA.AperFunction,Conductor*
G36*
X14412933Y9706093D02*
G01*
X14448897Y9656593D01*
X14448897Y9595407D01*
X14428946Y9560466D01*
X14424266Y9555166D01*
X14419596Y9549878D01*
X14364754Y9433068D01*
X14363669Y9426099D01*
X14357934Y9389268D01*
X14330299Y9334679D01*
X14275855Y9306760D01*
X14260113Y9305500D01*
X12603384Y9305500D01*
X12586981Y9303548D01*
X12584561Y9303260D01*
X12584560Y9303260D01*
X12577184Y9302382D01*
X12474877Y9256939D01*
X12468420Y9250471D01*
X12468419Y9250470D01*
X12446515Y9228528D01*
X12395789Y9177713D01*
X12387393Y9158722D01*
X12353825Y9082793D01*
X12350524Y9075327D01*
X12349662Y9067933D01*
X12348230Y9055646D01*
X12347530Y9049646D01*
X12347530Y8660354D01*
X12350648Y8634154D01*
X12396091Y8531847D01*
X12402559Y8525390D01*
X12402560Y8525389D01*
X12436032Y8491976D01*
X12475317Y8452759D01*
X12483675Y8449064D01*
X12570894Y8410504D01*
X12570896Y8410504D01*
X12577703Y8407494D01*
X12585097Y8406632D01*
X12600408Y8404847D01*
X12603384Y8404500D01*
X14289392Y8404500D01*
X14347583Y8385593D01*
X14383547Y8336093D01*
X14383547Y8274907D01*
X14379007Y8263426D01*
X14364754Y8233068D01*
X14363669Y8226098D01*
X14347035Y8119269D01*
X14319400Y8064680D01*
X14264957Y8036760D01*
X14249214Y8035500D01*
X12603384Y8035500D01*
X12586981Y8033548D01*
X12584561Y8033260D01*
X12584560Y8033260D01*
X12577184Y8032382D01*
X12474877Y7986939D01*
X12395789Y7907713D01*
X12392095Y7899357D01*
X12385513Y7884469D01*
X12344690Y7838893D01*
X12294967Y7825500D01*
X10930580Y7825500D01*
X10911267Y7827402D01*
X10893696Y7830897D01*
X10866564Y7825500D01*
X10866563Y7825500D01*
X10831457Y7818517D01*
X10795766Y7811418D01*
X10795764Y7811417D01*
X10786201Y7809515D01*
X10744231Y7781471D01*
X10718074Y7763994D01*
X10718073Y7763993D01*
X10717986Y7763935D01*
X10703969Y7754569D01*
X10695072Y7748624D01*
X10689653Y7740514D01*
X10685122Y7733733D01*
X10672811Y7718731D01*
X10620206Y7666126D01*
X10565689Y7638349D01*
X10549598Y7637132D01*
X10475683Y7637583D01*
X10468631Y7637626D01*
X10461854Y7635689D01*
X10461853Y7635689D01*
X10351335Y7604103D01*
X10351333Y7604102D01*
X10344555Y7602165D01*
X10235419Y7533305D01*
X10149996Y7436582D01*
X10095154Y7319772D01*
X10075301Y7192264D01*
X10092033Y7064310D01*
X10094871Y7057859D01*
X10094872Y7057857D01*
X10141164Y6952650D01*
X10144005Y6946194D01*
X10182835Y6900000D01*
X10222500Y6852812D01*
X10222503Y6852810D01*
X10227039Y6847413D01*
X10232909Y6843505D01*
X10232912Y6843503D01*
X10265369Y6821898D01*
X10303332Y6773915D01*
X10305841Y6712781D01*
X10271937Y6661848D01*
X10210511Y6640487D01*
X9638587Y6640487D01*
X9580396Y6659394D01*
X9568644Y6669423D01*
X9567520Y6670546D01*
X9520743Y6717241D01*
X9512387Y6720935D01*
X9512386Y6720936D01*
X9425166Y6759496D01*
X9425164Y6759496D01*
X9418357Y6762506D01*
X9404352Y6764139D01*
X9395524Y6765168D01*
X9395523Y6765168D01*
X9392676Y6765500D01*
X7653384Y6765500D01*
X7636981Y6763548D01*
X7634561Y6763260D01*
X7634560Y6763260D01*
X7627184Y6762382D01*
X7524877Y6716939D01*
X7518420Y6710471D01*
X7518419Y6710470D01*
X7452243Y6644179D01*
X7452241Y6644177D01*
X7445789Y6637713D01*
X7442095Y6629357D01*
X7437060Y6622003D01*
X7388584Y6584670D01*
X7374689Y6580836D01*
X7347871Y6575501D01*
X7347867Y6575501D01*
X7347867Y6575500D01*
X7277070Y6561418D01*
X7277068Y6561417D01*
X7267505Y6559515D01*
X7225535Y6531471D01*
X7199378Y6513994D01*
X7199377Y6513993D01*
X7176376Y6498624D01*
X7170957Y6490514D01*
X7166426Y6483733D01*
X7154115Y6468731D01*
X6603861Y5918477D01*
X6549344Y5890700D01*
X6488912Y5900271D01*
X6480011Y5905405D01*
X6412549Y5949131D01*
X6390906Y5963159D01*
X6384150Y5965179D01*
X6384149Y5965180D01*
X6314302Y5986069D01*
X6267273Y6000134D01*
X6248165Y6000251D01*
X6183838Y6000644D01*
X6125764Y6019907D01*
X6116299Y6027827D01*
X6098406Y6044805D01*
X6093126Y6046000D01*
X5899680Y6046000D01*
X5886995Y6041878D01*
X5884000Y6037757D01*
X5884000Y5910260D01*
X5865093Y5852069D01*
X5859204Y5844726D01*
X5829760Y5811387D01*
X5819596Y5799878D01*
X5764754Y5683068D01*
X5744901Y5555560D01*
X5745816Y5548563D01*
X5745816Y5548559D01*
X5746793Y5541088D01*
X5735590Y5480937D01*
X5718633Y5458249D01*
X5408280Y5147896D01*
X5349968Y5119593D01*
X5340070Y5118416D01*
X5340068Y5118416D01*
X5332690Y5117538D01*
X5277864Y5093185D01*
X5243846Y5078075D01*
X5243844Y5078074D01*
X5235490Y5074363D01*
X5229033Y5067895D01*
X5229032Y5067894D01*
X5224104Y5062957D01*
X5160350Y4999092D01*
X5156655Y4990735D01*
X5156654Y4990733D01*
X5151645Y4979403D01*
X5110823Y4933827D01*
X5051008Y4920951D01*
X5007254Y4936359D01*
X4985639Y4950369D01*
X4965906Y4963159D01*
X4959148Y4965180D01*
X4959146Y4965181D01*
X4946131Y4969074D01*
X4895799Y5003863D01*
X4875500Y5063922D01*
X4875500Y5776833D01*
X4894407Y5835024D01*
X4934312Y5867309D01*
X4969040Y5882734D01*
X4969043Y5882736D01*
X4977391Y5886444D01*
X4997672Y5906760D01*
X5015026Y5924145D01*
X5048845Y5958023D01*
X5103335Y5985847D01*
X5163775Y5976329D01*
X5200006Y5944862D01*
X5213317Y5925851D01*
X5285853Y5853315D01*
X5299826Y5843531D01*
X5361788Y5814638D01*
X5373096Y5813250D01*
X5376000Y5819477D01*
X5376000Y6569680D01*
X5884000Y6569680D01*
X5888122Y6556995D01*
X5892243Y6554000D01*
X6088506Y6554000D01*
X6101191Y6558122D01*
X6102225Y6559545D01*
X6100278Y6566224D01*
X6056469Y6660174D01*
X6046685Y6674147D01*
X5974147Y6746685D01*
X5960174Y6756469D01*
X5898212Y6785362D01*
X5886904Y6786750D01*
X5884000Y6780523D01*
X5884000Y6569680D01*
X5376000Y6569680D01*
X5376000Y6776309D01*
X5372479Y6787144D01*
X5365610Y6787144D01*
X5299826Y6756469D01*
X5285853Y6746685D01*
X5213315Y6674147D01*
X5205598Y6663125D01*
X5156735Y6626301D01*
X5095559Y6625231D01*
X5045438Y6660323D01*
X5025500Y6719906D01*
X5025500Y7170025D01*
X5044407Y7228216D01*
X5082064Y7257903D01*
X5083722Y7258233D01*
X5108068Y7274500D01*
X5125394Y7286077D01*
X5133504Y7291496D01*
X5147740Y7312802D01*
X5161351Y7333172D01*
X5161351Y7333173D01*
X5166767Y7341278D01*
X5171421Y7364673D01*
X5174553Y7380417D01*
X5174553Y7380422D01*
X5175500Y7385180D01*
X5175500Y7814820D01*
X5174440Y7820152D01*
X5168106Y7851990D01*
X5175297Y7912751D01*
X5182889Y7926307D01*
X5207979Y7963856D01*
X5215298Y7981526D01*
X5224052Y8025538D01*
X5224936Y8034515D01*
X5220878Y8047005D01*
X5216757Y8050000D01*
X4190680Y8050000D01*
X4177995Y8045878D01*
X4175000Y8041757D01*
X4175000Y8035160D01*
X4175948Y8025538D01*
X4184702Y7981526D01*
X4192021Y7963856D01*
X4217111Y7926307D01*
X4233720Y7867419D01*
X4231894Y7851990D01*
X4225561Y7820152D01*
X4224500Y7814820D01*
X4224500Y7385180D01*
X4225447Y7380422D01*
X4225447Y7380417D01*
X4228579Y7364673D01*
X4233233Y7341278D01*
X4238649Y7333173D01*
X4238649Y7333172D01*
X4252260Y7312802D01*
X4266496Y7291496D01*
X4274606Y7286077D01*
X4291933Y7274500D01*
X4316278Y7258233D01*
X4325838Y7256331D01*
X4325839Y7256331D01*
X4355417Y7250447D01*
X4355422Y7250447D01*
X4360180Y7249500D01*
X4375500Y7249500D01*
X4433691Y7230593D01*
X4469655Y7181093D01*
X4474500Y7150500D01*
X4474500Y6827608D01*
X4455593Y6769417D01*
X4415690Y6737133D01*
X4362609Y6713556D01*
X4356154Y6707090D01*
X4356153Y6707089D01*
X4292608Y6643433D01*
X4292607Y6643431D01*
X4286153Y6636966D01*
X4282459Y6628611D01*
X4282458Y6628609D01*
X4276108Y6614245D01*
X4242395Y6537987D01*
X4239500Y6513158D01*
X4239500Y6086842D01*
X4242514Y6061511D01*
X4286444Y5962609D01*
X4295441Y5953628D01*
X4297737Y5949131D01*
X4298090Y5948618D01*
X4298023Y5948572D01*
X4323267Y5899136D01*
X4324500Y5883562D01*
X4324500Y4761884D01*
X4322598Y4742571D01*
X4319103Y4725000D01*
X4321005Y4715438D01*
X4324500Y4697868D01*
X4324500Y4697866D01*
X4330926Y4665559D01*
X4331649Y4631016D01*
X4323020Y4575593D01*
X4319901Y4555560D01*
X4336633Y4427606D01*
X4339471Y4421155D01*
X4339472Y4421153D01*
X4376905Y4336080D01*
X4388605Y4309490D01*
X4419193Y4273101D01*
X4467100Y4216108D01*
X4467103Y4216106D01*
X4471639Y4210709D01*
X4579060Y4139204D01*
X4585788Y4137102D01*
X4585790Y4137101D01*
X4621803Y4125850D01*
X4702233Y4100722D01*
X4766744Y4099539D01*
X4824202Y4098486D01*
X4824204Y4098486D01*
X4831255Y4098357D01*
X4838058Y4100212D01*
X4838060Y4100212D01*
X4906579Y4118893D01*
X4955755Y4132300D01*
X5065724Y4199821D01*
X5085431Y4221593D01*
X5088880Y4225403D01*
X5141948Y4255856D01*
X5202781Y4249301D01*
X5221508Y4236407D01*
X5221895Y4236972D01*
X5229442Y4231804D01*
X5229820Y4231427D01*
X5231038Y4229846D01*
X5232214Y4229036D01*
X5235902Y4225355D01*
X5235109Y4224560D01*
X5266960Y4183202D01*
X5268670Y4122041D01*
X5234680Y4075172D01*
X5235490Y4074363D01*
X5229036Y4067898D01*
X5229035Y4067897D01*
X5213639Y4052474D01*
X5160350Y3999092D01*
X5117345Y3901817D01*
X5114500Y3877415D01*
X5114501Y3704263D01*
X5114501Y3624500D01*
X5095594Y3566310D01*
X5046094Y3530346D01*
X5015501Y3525500D01*
X4827199Y3525500D01*
X4769008Y3544407D01*
X4736724Y3584310D01*
X4727645Y3604750D01*
X4648419Y3683838D01*
X4594067Y3707867D01*
X4552842Y3726093D01*
X4552840Y3726093D01*
X4546033Y3729103D01*
X4532028Y3730736D01*
X4523200Y3731765D01*
X4523199Y3731765D01*
X4520352Y3732097D01*
X3910955Y3732097D01*
X3852764Y3751004D01*
X3816800Y3800504D01*
X3811955Y3831097D01*
X3811955Y3856065D01*
X3830862Y3914256D01*
X3837557Y3922501D01*
X3909045Y4001480D01*
X3909045Y4001481D01*
X3913777Y4006708D01*
X3958181Y4098357D01*
X3966967Y4116491D01*
X3966967Y4116492D01*
X3970043Y4122840D01*
X3984397Y4208162D01*
X3990818Y4246324D01*
X3990818Y4246329D01*
X3991452Y4250095D01*
X3991588Y4261215D01*
X3973294Y4388956D01*
X3949199Y4441950D01*
X3922804Y4500003D01*
X3922803Y4500004D01*
X3919883Y4506427D01*
X3843709Y4594832D01*
X3840253Y4598843D01*
X3840252Y4598844D01*
X3835648Y4604187D01*
X3829731Y4608022D01*
X3829729Y4608024D01*
X3733279Y4670538D01*
X3727361Y4674374D01*
X3720605Y4676394D01*
X3720604Y4676395D01*
X3655515Y4695861D01*
X3603728Y4711349D01*
X3527099Y4711817D01*
X3481737Y4712094D01*
X3474686Y4712137D01*
X3467909Y4710200D01*
X3467908Y4710200D01*
X3357390Y4678614D01*
X3357388Y4678613D01*
X3350610Y4676676D01*
X3241474Y4607816D01*
X3156051Y4511093D01*
X3101209Y4394283D01*
X3081356Y4266775D01*
X3082271Y4259778D01*
X3082271Y4259777D01*
X3083088Y4253527D01*
X3098088Y4138821D01*
X3100926Y4132370D01*
X3100927Y4132368D01*
X3143458Y4035709D01*
X3150060Y4020705D01*
X3216361Y3941830D01*
X3233094Y3921924D01*
X3231959Y3920970D01*
X3258719Y3874994D01*
X3260955Y3854070D01*
X3260955Y3707867D01*
X3242048Y3649676D01*
X3232020Y3637925D01*
X3204922Y3610779D01*
X3204920Y3610777D01*
X3198465Y3604310D01*
X3194770Y3595953D01*
X3194769Y3595951D01*
X3189694Y3584471D01*
X3148873Y3538894D01*
X3099148Y3525500D01*
X2552199Y3525500D01*
X2494008Y3544407D01*
X2461724Y3584310D01*
X2452645Y3604750D01*
X2373419Y3683838D01*
X2319067Y3707867D01*
X2277842Y3726093D01*
X2277840Y3726093D01*
X2271033Y3729103D01*
X2257028Y3730736D01*
X2248200Y3731765D01*
X2248199Y3731765D01*
X2245352Y3732097D01*
X1131060Y3732097D01*
X1114657Y3730145D01*
X1112237Y3729857D01*
X1112236Y3729857D01*
X1104860Y3728979D01*
X1002553Y3683536D01*
X923465Y3604310D01*
X918986Y3594178D01*
X884183Y3515456D01*
X878200Y3501924D01*
X877969Y3499941D01*
X845866Y3450979D01*
X788649Y3429303D01*
X737576Y3440696D01*
X694268Y3463626D01*
X627881Y3498776D01*
X545661Y3519428D01*
X469231Y3538627D01*
X469228Y3538627D01*
X463441Y3540081D01*
X377841Y3540529D01*
X299861Y3540938D01*
X299859Y3540938D01*
X293895Y3540969D01*
X288093Y3539576D01*
X147611Y3505849D01*
X86615Y3510650D01*
X40089Y3550386D01*
X25500Y3602114D01*
X25500Y4240455D01*
X497775Y4240455D01*
X499722Y4233776D01*
X543531Y4139826D01*
X553315Y4125853D01*
X625853Y4053315D01*
X639826Y4043531D01*
X701788Y4014638D01*
X713096Y4013250D01*
X716000Y4019477D01*
X716000Y4023691D01*
X1224000Y4023691D01*
X1227521Y4012856D01*
X1234390Y4012856D01*
X1300174Y4043531D01*
X1314147Y4053315D01*
X1386682Y4125850D01*
X1399944Y4144792D01*
X1448808Y4181616D01*
X1509984Y4182686D01*
X1550985Y4158076D01*
X1616567Y4092608D01*
X1616569Y4092607D01*
X1623034Y4086153D01*
X1631389Y4082459D01*
X1631391Y4082458D01*
X1662799Y4068573D01*
X1722013Y4042395D01*
X1746842Y4039500D01*
X2086007Y4039500D01*
X2140865Y4022911D01*
X2166930Y4005561D01*
X2229060Y3964204D01*
X2235788Y3962102D01*
X2235790Y3962101D01*
X2270062Y3951394D01*
X2352233Y3925722D01*
X2416744Y3924540D01*
X2474202Y3923486D01*
X2474204Y3923486D01*
X2481255Y3923357D01*
X2488058Y3925212D01*
X2488060Y3925212D01*
X2549012Y3941830D01*
X2605755Y3957300D01*
X2715724Y4024821D01*
X2729311Y4039832D01*
X2797590Y4115265D01*
X2797590Y4115266D01*
X2802322Y4120493D01*
X2851305Y4221593D01*
X2855512Y4230276D01*
X2855512Y4230277D01*
X2858588Y4236625D01*
X2879997Y4363880D01*
X2880133Y4375000D01*
X2861839Y4502741D01*
X2849319Y4530278D01*
X2811347Y4613793D01*
X2811345Y4613795D01*
X2808428Y4620212D01*
X2803825Y4625554D01*
X2802627Y4627427D01*
X2787203Y4686636D01*
X2809528Y4743603D01*
X2834228Y4765132D01*
X2884711Y4796129D01*
X2890724Y4799821D01*
X2895459Y4805052D01*
X2972590Y4890265D01*
X2972590Y4890266D01*
X2977322Y4895493D01*
X3023466Y4990733D01*
X3030512Y5005276D01*
X3030512Y5005277D01*
X3033588Y5011625D01*
X3047884Y5096601D01*
X3054363Y5135109D01*
X3054363Y5135114D01*
X3054997Y5138880D01*
X3055133Y5150000D01*
X3036839Y5277741D01*
X3033757Y5284520D01*
X3033720Y5284842D01*
X3031940Y5290931D01*
X3032997Y5291240D01*
X3026880Y5345317D01*
X3057052Y5398546D01*
X3112749Y5423874D01*
X3123876Y5424501D01*
X3141250Y5424501D01*
X3213825Y5435183D01*
X3228474Y5442375D01*
X3296233Y5475644D01*
X3324171Y5489361D01*
X3338266Y5503480D01*
X3405238Y5570569D01*
X3411019Y5576360D01*
X3465004Y5686801D01*
X3473153Y5742661D01*
X3474983Y5755204D01*
X3474983Y5755206D01*
X3475500Y5758749D01*
X3475499Y6341250D01*
X3464817Y6413825D01*
X3410639Y6524171D01*
X3375204Y6559545D01*
X3329431Y6605238D01*
X3323640Y6611019D01*
X3213199Y6665004D01*
X3150526Y6674147D01*
X3144796Y6674983D01*
X3144794Y6674983D01*
X3141251Y6675500D01*
X2888804Y6675500D01*
X2633750Y6675499D01*
X2579542Y6667520D01*
X2570414Y6669069D01*
X2562250Y6664975D01*
X2561175Y6664817D01*
X2450829Y6610639D01*
X2363981Y6523640D01*
X2309996Y6413199D01*
X2299500Y6341251D01*
X2299501Y5758750D01*
X2305265Y5719591D01*
X2308972Y5694406D01*
X2310183Y5686175D01*
X2313571Y5679275D01*
X2313573Y5679268D01*
X2314367Y5677652D01*
X2315229Y5673939D01*
X2315857Y5671919D01*
X2315709Y5671873D01*
X2324500Y5634021D01*
X2324500Y5556118D01*
X2305593Y5497927D01*
X2299704Y5490583D01*
X2219596Y5399878D01*
X2164754Y5283068D01*
X2144901Y5155560D01*
X2145816Y5148563D01*
X2145816Y5148562D01*
X2147082Y5138880D01*
X2155482Y5074650D01*
X2155784Y5072337D01*
X2144582Y5012186D01*
X2100163Y4970107D01*
X2057620Y4960500D01*
X1746842Y4960500D01*
X1743937Y4960154D01*
X1743931Y4960154D01*
X1728887Y4958364D01*
X1728885Y4958363D01*
X1721511Y4957486D01*
X1622609Y4913556D01*
X1616154Y4907090D01*
X1616153Y4907089D01*
X1602427Y4893339D01*
X1551155Y4841977D01*
X1496665Y4814153D01*
X1436225Y4823671D01*
X1399994Y4855138D01*
X1386683Y4874149D01*
X1314147Y4946685D01*
X1300174Y4956469D01*
X1238212Y4985362D01*
X1226904Y4986750D01*
X1224000Y4980523D01*
X1224000Y4023691D01*
X716000Y4023691D01*
X716000Y4230320D01*
X711878Y4243005D01*
X707757Y4246000D01*
X511494Y4246000D01*
X498809Y4241878D01*
X497775Y4240455D01*
X25500Y4240455D01*
X25500Y4763612D01*
X498960Y4763612D01*
X500292Y4756431D01*
X501594Y4755195D01*
X506874Y4754000D01*
X700320Y4754000D01*
X713005Y4758122D01*
X716000Y4762243D01*
X716000Y4976309D01*
X712479Y4987144D01*
X705610Y4987144D01*
X639826Y4956469D01*
X625853Y4946685D01*
X553315Y4874147D01*
X543531Y4860174D01*
X499722Y4766224D01*
X498960Y4763612D01*
X25500Y4763612D01*
X25500Y6341251D01*
X724500Y6341251D01*
X724501Y5758750D01*
X735183Y5686175D01*
X738574Y5679269D01*
X738574Y5679268D01*
X750955Y5654051D01*
X789361Y5575829D01*
X795153Y5570047D01*
X820773Y5544472D01*
X876360Y5488981D01*
X986801Y5434996D01*
X1039345Y5427331D01*
X1055204Y5425017D01*
X1055206Y5425017D01*
X1058749Y5424500D01*
X1311196Y5424500D01*
X1566250Y5424501D01*
X1638825Y5435183D01*
X1653474Y5442375D01*
X1721233Y5475644D01*
X1749171Y5489361D01*
X1763266Y5503480D01*
X1830238Y5570569D01*
X1836019Y5576360D01*
X1890004Y5686801D01*
X1898153Y5742661D01*
X1899983Y5755204D01*
X1899983Y5755206D01*
X1900500Y5758749D01*
X1900499Y6341250D01*
X1889817Y6413825D01*
X1835639Y6524171D01*
X1800204Y6559545D01*
X1754431Y6605238D01*
X1748640Y6611019D01*
X1638199Y6665004D01*
X1600209Y6670546D01*
X1545357Y6697655D01*
X1516915Y6751828D01*
X1515500Y6768509D01*
X1515500Y6860628D01*
X1534407Y6918819D01*
X1544436Y6930571D01*
X1608193Y6994439D01*
X1608195Y6994441D01*
X1614650Y7000908D01*
X1632230Y7040673D01*
X1673053Y7086249D01*
X1732868Y7099126D01*
X1788828Y7074386D01*
X1812501Y7042481D01*
X1842692Y6977735D01*
X1852474Y6963765D01*
X1923765Y6892474D01*
X1937738Y6882691D01*
X1991788Y6857486D01*
X2003096Y6856098D01*
X2006000Y6862325D01*
X2006000Y6866539D01*
X2514000Y6866539D01*
X2517521Y6855704D01*
X2524391Y6855704D01*
X2582262Y6882690D01*
X2596235Y6892474D01*
X2667526Y6963765D01*
X2677309Y6977738D01*
X2720375Y7070091D01*
X2723788Y7081801D01*
X2721607Y7093569D01*
X2720304Y7094805D01*
X2715023Y7096000D01*
X2529680Y7096000D01*
X2516995Y7091878D01*
X2514000Y7087757D01*
X2514000Y6866539D01*
X2006000Y6866539D01*
X2006000Y7619680D01*
X2514000Y7619680D01*
X2518122Y7606995D01*
X2522243Y7604000D01*
X2710404Y7604000D01*
X2723089Y7608122D01*
X2724145Y7609574D01*
X2724640Y7614967D01*
X2724566Y7615530D01*
X2720375Y7629909D01*
X2677309Y7722262D01*
X2667526Y7736235D01*
X2596235Y7807526D01*
X2582262Y7817309D01*
X2528212Y7842514D01*
X2516904Y7843902D01*
X2514000Y7837675D01*
X2514000Y7619680D01*
X2006000Y7619680D01*
X2006000Y7833461D01*
X2002479Y7844296D01*
X1995610Y7844296D01*
X1937738Y7817309D01*
X1923765Y7807526D01*
X1852474Y7736235D01*
X1842690Y7722262D01*
X1812490Y7657498D01*
X1770762Y7612750D01*
X1710700Y7601076D01*
X1655248Y7626934D01*
X1632290Y7659150D01*
X1629192Y7666126D01*
X1614363Y7699510D01*
X1603719Y7710136D01*
X1574600Y7739204D01*
X1539092Y7774650D01*
X1441817Y7817655D01*
X1417415Y7820500D01*
X1242232Y7820500D01*
X1062586Y7820499D01*
X1059671Y7820152D01*
X1059666Y7820152D01*
X1045070Y7818416D01*
X1045068Y7818416D01*
X1037690Y7817538D01*
X1000215Y7800892D01*
X948846Y7778075D01*
X948844Y7778074D01*
X940490Y7774363D01*
X865350Y7699092D01*
X822345Y7601817D01*
X819500Y7577415D01*
X819501Y7122586D01*
X819848Y7119671D01*
X819848Y7119666D01*
X821584Y7105070D01*
X822462Y7097690D01*
X834184Y7071301D01*
X861740Y7009264D01*
X865637Y7000490D01*
X872108Y6994030D01*
X872109Y6994029D01*
X935443Y6930804D01*
X963268Y6876312D01*
X964500Y6860740D01*
X964500Y6715856D01*
X945593Y6657665D01*
X909133Y6626991D01*
X875829Y6610639D01*
X788981Y6523640D01*
X734996Y6413199D01*
X724500Y6341251D01*
X25500Y6341251D01*
X25500Y8155560D01*
X5444901Y8155560D01*
X5461633Y8027606D01*
X5464471Y8021155D01*
X5464472Y8021153D01*
X5490665Y7961625D01*
X5513605Y7909490D01*
X5548969Y7867419D01*
X5592100Y7816108D01*
X5592103Y7816106D01*
X5596639Y7810709D01*
X5704060Y7739204D01*
X5710788Y7737102D01*
X5710790Y7737101D01*
X5747530Y7725623D01*
X5827233Y7700722D01*
X5891744Y7699539D01*
X5949202Y7698486D01*
X5949204Y7698486D01*
X5956255Y7698357D01*
X5963058Y7700212D01*
X5963060Y7700212D01*
X5999460Y7710136D01*
X6060575Y7707200D01*
X6108292Y7668903D01*
X6124500Y7614622D01*
X6124500Y7385180D01*
X6125447Y7380422D01*
X6125447Y7380417D01*
X6128579Y7364673D01*
X6133233Y7341278D01*
X6138649Y7333173D01*
X6138649Y7333172D01*
X6152260Y7312802D01*
X6166496Y7291496D01*
X6174606Y7286077D01*
X6191933Y7274500D01*
X6216278Y7258233D01*
X6225838Y7256331D01*
X6225839Y7256331D01*
X6255417Y7250447D01*
X6255422Y7250447D01*
X6260180Y7249500D01*
X6939820Y7249500D01*
X6944578Y7250447D01*
X6944583Y7250447D01*
X6974161Y7256331D01*
X6974162Y7256331D01*
X6983722Y7258233D01*
X7008068Y7274500D01*
X7025394Y7286077D01*
X7033504Y7291496D01*
X7059566Y7330501D01*
X7107616Y7368381D01*
X7141882Y7374500D01*
X7331700Y7374500D01*
X7389891Y7355593D01*
X7422175Y7315689D01*
X7446091Y7261847D01*
X7452559Y7255390D01*
X7452560Y7255389D01*
X7479781Y7228216D01*
X7525317Y7182759D01*
X7533675Y7179064D01*
X7620894Y7140504D01*
X7620896Y7140504D01*
X7627703Y7137494D01*
X7635097Y7136632D01*
X7650408Y7134847D01*
X7653384Y7134500D01*
X9392676Y7134500D01*
X9410591Y7136632D01*
X9411499Y7136740D01*
X9411500Y7136740D01*
X9418876Y7137618D01*
X9521183Y7183061D01*
X9600271Y7262287D01*
X9630429Y7330501D01*
X9642526Y7357864D01*
X9642526Y7357866D01*
X9645536Y7364673D01*
X9648530Y7390354D01*
X9648530Y7779646D01*
X9645412Y7805846D01*
X9599969Y7908153D01*
X9592163Y7915946D01*
X9527209Y7980786D01*
X9520743Y7987241D01*
X9444037Y8021153D01*
X9425166Y8029496D01*
X9425164Y8029496D01*
X9418357Y8032506D01*
X9401125Y8034515D01*
X9395524Y8035168D01*
X9395523Y8035168D01*
X9392676Y8035500D01*
X7653384Y8035500D01*
X7636981Y8033548D01*
X7634561Y8033260D01*
X7634560Y8033260D01*
X7627184Y8032382D01*
X7524877Y7986939D01*
X7518417Y7980468D01*
X7518416Y7980467D01*
X7492550Y7954557D01*
X7438058Y7926732D01*
X7422486Y7925500D01*
X7173448Y7925500D01*
X7115257Y7944407D01*
X7079293Y7993907D01*
X7075059Y8032965D01*
X7075500Y8035180D01*
X7075500Y8464820D01*
X7073100Y8476889D01*
X7068669Y8499161D01*
X7068669Y8499162D01*
X7066767Y8508722D01*
X7060921Y8517472D01*
X7059232Y8519999D01*
X7042624Y8578887D01*
X7059226Y8629991D01*
X7059560Y8630491D01*
X7107605Y8668377D01*
X7141882Y8674500D01*
X7318374Y8674500D01*
X7376565Y8655593D01*
X7408850Y8615688D01*
X7415176Y8601446D01*
X7446091Y8531847D01*
X7452559Y8525390D01*
X7452560Y8525389D01*
X7486032Y8491976D01*
X7525317Y8452759D01*
X7533675Y8449064D01*
X7620894Y8410504D01*
X7620896Y8410504D01*
X7627703Y8407494D01*
X7635097Y8406632D01*
X7650408Y8404847D01*
X7653384Y8404500D01*
X9392676Y8404500D01*
X9410591Y8406632D01*
X9411499Y8406740D01*
X9411500Y8406740D01*
X9418876Y8407618D01*
X9521183Y8453061D01*
X9532942Y8464840D01*
X9576747Y8508722D01*
X9600271Y8532287D01*
X9603964Y8540640D01*
X9603966Y8540643D01*
X9614968Y8565530D01*
X9655790Y8611107D01*
X9705514Y8624500D01*
X10464256Y8624500D01*
X10522447Y8605593D01*
X10540039Y8589202D01*
X10567100Y8557008D01*
X10567103Y8557006D01*
X10571639Y8551609D01*
X10679060Y8480104D01*
X10685788Y8478002D01*
X10685790Y8478001D01*
X10722309Y8466592D01*
X10802233Y8441622D01*
X10866744Y8440440D01*
X10924202Y8439386D01*
X10924204Y8439386D01*
X10931255Y8439257D01*
X10938058Y8441112D01*
X10938060Y8441112D01*
X10981887Y8453061D01*
X11055755Y8473200D01*
X11117830Y8511314D01*
X11177313Y8525650D01*
X11233861Y8502284D01*
X11245410Y8490654D01*
X11276118Y8454122D01*
X11316628Y8405929D01*
X11316631Y8405927D01*
X11321167Y8400530D01*
X11428588Y8329025D01*
X11435316Y8326923D01*
X11435318Y8326922D01*
X11490174Y8309784D01*
X11551761Y8290543D01*
X11616272Y8289361D01*
X11673730Y8288307D01*
X11673732Y8288307D01*
X11680783Y8288178D01*
X11687586Y8290033D01*
X11687588Y8290033D01*
X11729356Y8301421D01*
X11805283Y8322121D01*
X11915252Y8389642D01*
X11969885Y8450000D01*
X11997118Y8480086D01*
X11997118Y8480087D01*
X12001850Y8485314D01*
X12058116Y8601446D01*
X12071402Y8680418D01*
X12078891Y8724930D01*
X12078891Y8724935D01*
X12079525Y8728701D01*
X12079661Y8739821D01*
X12061367Y8867562D01*
X12007956Y8985033D01*
X11954923Y9046581D01*
X11928326Y9077449D01*
X11928325Y9077450D01*
X11923721Y9082793D01*
X11917804Y9086628D01*
X11917802Y9086630D01*
X11847341Y9132299D01*
X11815434Y9152980D01*
X11808678Y9155000D01*
X11808677Y9155001D01*
X11731263Y9178153D01*
X11691801Y9189955D01*
X11615172Y9190423D01*
X11569810Y9190700D01*
X11562759Y9190743D01*
X11555982Y9188806D01*
X11555981Y9188806D01*
X11445463Y9157220D01*
X11445461Y9157219D01*
X11438683Y9155282D01*
X11395419Y9127984D01*
X11383356Y9120373D01*
X11324053Y9105312D01*
X11267224Y9127984D01*
X11255529Y9139477D01*
X11178798Y9228528D01*
X11178797Y9228529D01*
X11174193Y9233872D01*
X11168276Y9237707D01*
X11168274Y9237709D01*
X11097108Y9283835D01*
X11065906Y9304059D01*
X11059150Y9306079D01*
X11059149Y9306080D01*
X11016335Y9318884D01*
X10942273Y9341034D01*
X10865644Y9341502D01*
X10820282Y9341779D01*
X10813231Y9341822D01*
X10806454Y9339885D01*
X10806453Y9339885D01*
X10695935Y9308299D01*
X10695933Y9308298D01*
X10689155Y9306361D01*
X10580019Y9237501D01*
X10575351Y9232216D01*
X10575348Y9232213D01*
X10554817Y9208966D01*
X10502125Y9177865D01*
X10480613Y9175500D01*
X9643584Y9175500D01*
X9585393Y9194407D01*
X9573641Y9204436D01*
X9527212Y9250784D01*
X9527210Y9250786D01*
X9520743Y9257241D01*
X9473014Y9278342D01*
X9425166Y9299496D01*
X9425164Y9299496D01*
X9418357Y9302506D01*
X9404352Y9304139D01*
X9395524Y9305168D01*
X9395523Y9305168D01*
X9392676Y9305500D01*
X7653384Y9305500D01*
X7636981Y9303548D01*
X7634561Y9303260D01*
X7634560Y9303260D01*
X7627184Y9302382D01*
X7524877Y9256939D01*
X7518421Y9250471D01*
X7510886Y9245293D01*
X7509190Y9247761D01*
X7468004Y9226732D01*
X7452435Y9225500D01*
X7037715Y9225500D01*
X6999827Y9233037D01*
X6991829Y9236350D01*
X6983722Y9241767D01*
X6974162Y9243669D01*
X6974161Y9243669D01*
X6944583Y9249553D01*
X6944578Y9249553D01*
X6939820Y9250500D01*
X6260180Y9250500D01*
X6255422Y9249553D01*
X6255417Y9249553D01*
X6225839Y9243669D01*
X6225838Y9243669D01*
X6216278Y9241767D01*
X6208173Y9236351D01*
X6208172Y9236351D01*
X6182785Y9219388D01*
X6166496Y9208504D01*
X6161077Y9200394D01*
X6140338Y9169355D01*
X6133233Y9158722D01*
X6131331Y9149162D01*
X6131331Y9149161D01*
X6125605Y9120373D01*
X6124500Y9114820D01*
X6124500Y8686053D01*
X6105593Y8627862D01*
X6056093Y8591898D01*
X5997134Y8591204D01*
X5974036Y8598112D01*
X5974032Y8598113D01*
X5967273Y8600134D01*
X5890644Y8600602D01*
X5845282Y8600879D01*
X5838231Y8600922D01*
X5831454Y8598985D01*
X5831453Y8598985D01*
X5720935Y8567399D01*
X5720933Y8567398D01*
X5714155Y8565461D01*
X5605019Y8496601D01*
X5519596Y8399878D01*
X5464754Y8283068D01*
X5444901Y8155560D01*
X25500Y8155560D01*
X25500Y8942586D01*
X2277633Y8942586D01*
X2278548Y8935589D01*
X2278548Y8935588D01*
X2279726Y8926582D01*
X2294365Y8814632D01*
X2297203Y8808181D01*
X2297204Y8808179D01*
X2343496Y8702972D01*
X2346337Y8696516D01*
X2379182Y8657442D01*
X2424832Y8603134D01*
X2424835Y8603132D01*
X2429371Y8597735D01*
X2536792Y8526230D01*
X2543520Y8524128D01*
X2543522Y8524127D01*
X2598378Y8506989D01*
X2659965Y8487748D01*
X2724476Y8486566D01*
X2781934Y8485512D01*
X2781936Y8485512D01*
X2788987Y8485383D01*
X2795790Y8487238D01*
X2795792Y8487238D01*
X2837560Y8498626D01*
X2913487Y8519326D01*
X3023456Y8586847D01*
X3062961Y8630491D01*
X3105322Y8677291D01*
X3105322Y8677292D01*
X3110054Y8682519D01*
X3166320Y8798651D01*
X3167564Y8806044D01*
X3591378Y8806044D01*
X3608110Y8678090D01*
X3610948Y8671639D01*
X3610949Y8671637D01*
X3656815Y8567399D01*
X3660082Y8559974D01*
X3694250Y8519326D01*
X3738577Y8466592D01*
X3738580Y8466590D01*
X3743116Y8461193D01*
X3850537Y8389688D01*
X3857265Y8387586D01*
X3857267Y8387585D01*
X3912123Y8370447D01*
X3973710Y8351206D01*
X4038221Y8350024D01*
X4095679Y8348970D01*
X4095681Y8348970D01*
X4102732Y8348841D01*
X4109535Y8350696D01*
X4109537Y8350696D01*
X4151305Y8362084D01*
X4227232Y8382784D01*
X4312871Y8435366D01*
X4364671Y8450000D01*
X5209320Y8450000D01*
X5222005Y8454122D01*
X5225000Y8458243D01*
X5225000Y8464840D01*
X5224052Y8474462D01*
X5215298Y8518474D01*
X5207979Y8536144D01*
X5182889Y8573693D01*
X5166280Y8632581D01*
X5168106Y8648010D01*
X5174553Y8680418D01*
X5174553Y8680421D01*
X5175500Y8685180D01*
X5175500Y9114820D01*
X5174396Y9120373D01*
X5168669Y9149161D01*
X5168669Y9149162D01*
X5166767Y9158722D01*
X5159663Y9169355D01*
X5138923Y9200394D01*
X5133504Y9208504D01*
X5117215Y9219388D01*
X5091828Y9236351D01*
X5091827Y9236351D01*
X5083722Y9241767D01*
X5074162Y9243669D01*
X5074161Y9243669D01*
X5044583Y9249553D01*
X5044578Y9249553D01*
X5039820Y9250500D01*
X4360180Y9250500D01*
X4355422Y9249553D01*
X4355417Y9249553D01*
X4325839Y9243669D01*
X4325838Y9243669D01*
X4316278Y9241767D01*
X4308170Y9236349D01*
X4308169Y9236349D01*
X4301541Y9231921D01*
X4242653Y9215313D01*
X4218175Y9219388D01*
X4120512Y9248596D01*
X4120510Y9248596D01*
X4113750Y9250618D01*
X4037121Y9251086D01*
X3991759Y9251363D01*
X3984708Y9251406D01*
X3977931Y9249469D01*
X3977930Y9249469D01*
X3867412Y9217883D01*
X3867410Y9217882D01*
X3860632Y9215945D01*
X3751496Y9147085D01*
X3666073Y9050362D01*
X3611231Y8933552D01*
X3591378Y8806044D01*
X3167564Y8806044D01*
X3187729Y8925906D01*
X3187865Y8937026D01*
X3169571Y9064767D01*
X3116160Y9182238D01*
X3031925Y9279998D01*
X3026008Y9283833D01*
X3026006Y9283835D01*
X2929556Y9346349D01*
X2923638Y9350185D01*
X2916882Y9352205D01*
X2916881Y9352206D01*
X2874067Y9365010D01*
X2800005Y9387160D01*
X2723376Y9387628D01*
X2678014Y9387905D01*
X2670963Y9387948D01*
X2664186Y9386011D01*
X2664185Y9386011D01*
X2553667Y9354425D01*
X2553665Y9354424D01*
X2546887Y9352487D01*
X2518663Y9334679D01*
X2437751Y9283627D01*
X2352328Y9186904D01*
X2297486Y9070094D01*
X2277633Y8942586D01*
X25500Y8942586D01*
X25500Y9626000D01*
X44407Y9684191D01*
X93907Y9720155D01*
X124500Y9725000D01*
X14354742Y9725000D01*
X14412933Y9706093D01*
G37*
G04 #@! TD.AperFunction*
G04 #@! TA.AperFunction,Conductor*
G36*
X11873895Y6070580D02*
G01*
X11909859Y6021080D01*
X11909859Y5959894D01*
X11873895Y5910394D01*
X11868532Y5906760D01*
X11811276Y5870634D01*
X11796326Y5861201D01*
X11710903Y5764478D01*
X11656061Y5647668D01*
X11636208Y5520160D01*
X11637123Y5513163D01*
X11637123Y5513162D01*
X11639824Y5492506D01*
X11652940Y5392206D01*
X11655778Y5385755D01*
X11655779Y5385753D01*
X11702071Y5280546D01*
X11704912Y5274090D01*
X11726543Y5248357D01*
X11783407Y5180708D01*
X11783410Y5180706D01*
X11787946Y5175309D01*
X11895367Y5103804D01*
X11902095Y5101702D01*
X11902097Y5101701D01*
X11956953Y5084563D01*
X12018540Y5065322D01*
X12083051Y5064140D01*
X12140509Y5063086D01*
X12140511Y5063086D01*
X12147562Y5062957D01*
X12222490Y5083385D01*
X12283604Y5080450D01*
X12331322Y5042152D01*
X12347530Y4987871D01*
X12347530Y4850354D01*
X12350648Y4824154D01*
X12352433Y4820136D01*
X12349691Y4760481D01*
X12311493Y4712684D01*
X12252496Y4696467D01*
X12202058Y4713035D01*
X12200643Y4713980D01*
X12200623Y4713996D01*
X12200622Y4713994D01*
X12173225Y4732300D01*
X12157856Y4742569D01*
X12132495Y4759515D01*
X12052133Y4775500D01*
X12052132Y4775500D01*
X12025000Y4780897D01*
X12007429Y4777402D01*
X11988116Y4775500D01*
X11754130Y4775500D01*
X11695939Y4794407D01*
X11684126Y4804496D01*
X11182312Y5306310D01*
X11154535Y5360827D01*
X11153717Y5385019D01*
X11154314Y5388569D01*
X11154450Y5399689D01*
X11136156Y5527430D01*
X11110810Y5583176D01*
X11085666Y5638477D01*
X11085665Y5638478D01*
X11082745Y5644901D01*
X10998510Y5742661D01*
X10992593Y5746496D01*
X10992591Y5746498D01*
X10920083Y5793494D01*
X10890223Y5812848D01*
X10883467Y5814868D01*
X10883466Y5814869D01*
X10814468Y5835504D01*
X10766590Y5849823D01*
X10689961Y5850291D01*
X10644599Y5850568D01*
X10637548Y5850611D01*
X10630771Y5848674D01*
X10630770Y5848674D01*
X10520252Y5817088D01*
X10520250Y5817087D01*
X10513472Y5815150D01*
X10404336Y5746290D01*
X10318913Y5649567D01*
X10264071Y5532757D01*
X10244218Y5405249D01*
X10245133Y5398252D01*
X10245133Y5398251D01*
X10246399Y5388569D01*
X10253273Y5336007D01*
X10256413Y5311992D01*
X10245211Y5251841D01*
X10200792Y5209762D01*
X10171684Y5201071D01*
X10170282Y5200879D01*
X10163231Y5200922D01*
X10156455Y5198985D01*
X10156452Y5198985D01*
X10045935Y5167399D01*
X10045933Y5167398D01*
X10039155Y5165461D01*
X9930019Y5096601D01*
X9844596Y4999878D01*
X9789754Y4883068D01*
X9788669Y4876101D01*
X9788669Y4876100D01*
X9788420Y4874499D01*
X9787814Y4873302D01*
X9786608Y4869357D01*
X9785923Y4869566D01*
X9760784Y4819911D01*
X9706339Y4791992D01*
X9686797Y4791116D01*
X9686797Y4791000D01*
X9684200Y4791000D01*
X9683664Y4790976D01*
X9683322Y4791000D01*
X7574669Y4791000D01*
X7516478Y4809907D01*
X7499670Y4825377D01*
X7469908Y4859918D01*
X7469907Y4859919D01*
X7465303Y4865262D01*
X7459386Y4869097D01*
X7459384Y4869099D01*
X7362934Y4931613D01*
X7357016Y4935449D01*
X7350260Y4937469D01*
X7350259Y4937470D01*
X7307128Y4950369D01*
X7233383Y4972424D01*
X7156754Y4972892D01*
X7111392Y4973169D01*
X7104341Y4973212D01*
X7097565Y4971275D01*
X7097562Y4971275D01*
X7039963Y4954813D01*
X6978816Y4957002D01*
X6932196Y4993132D01*
X6929363Y4999510D01*
X6854092Y5074650D01*
X6756817Y5117655D01*
X6757391Y5118953D01*
X6713035Y5148030D01*
X6691353Y5205245D01*
X6707442Y5264277D01*
X6735237Y5292317D01*
X6749439Y5301807D01*
X7364554Y5301807D01*
X7370296Y5299000D01*
X8253350Y5299000D01*
X8266035Y5303122D01*
X8269030Y5307243D01*
X8269030Y5314680D01*
X8777030Y5314680D01*
X8781152Y5301995D01*
X8785273Y5299000D01*
X9671226Y5299000D01*
X9682061Y5302521D01*
X9682061Y5308868D01*
X9640157Y5394216D01*
X9630760Y5407342D01*
X9559878Y5478101D01*
X9546736Y5487474D01*
X9456308Y5531676D01*
X9441799Y5536161D01*
X9384752Y5544483D01*
X9377625Y5545000D01*
X8792710Y5545000D01*
X8780025Y5540878D01*
X8777030Y5536757D01*
X8777030Y5314680D01*
X8269030Y5314680D01*
X8269030Y5529319D01*
X8264908Y5542004D01*
X8260787Y5544999D01*
X7668473Y5544999D01*
X7661276Y5544472D01*
X7603675Y5535994D01*
X7589157Y5531483D01*
X7498814Y5487127D01*
X7485688Y5477730D01*
X7414929Y5406848D01*
X7405556Y5393707D01*
X7366149Y5313088D01*
X7364554Y5301807D01*
X6749439Y5301807D01*
X6774465Y5318529D01*
X6774466Y5318530D01*
X6800622Y5336006D01*
X6800623Y5336007D01*
X6809775Y5342122D01*
X6815518Y5345959D01*
X6815520Y5345961D01*
X6823624Y5351376D01*
X6829039Y5359480D01*
X6829043Y5359484D01*
X6833578Y5366271D01*
X6845888Y5381272D01*
X7381339Y5916723D01*
X7435856Y5944500D01*
X7496288Y5934929D01*
X7511144Y5924145D01*
X7511306Y5924381D01*
X7518848Y5919217D01*
X7525317Y5912759D01*
X7533677Y5909063D01*
X7620894Y5870504D01*
X7620896Y5870504D01*
X7627703Y5867494D01*
X7635097Y5866632D01*
X7650408Y5864847D01*
X7653384Y5864500D01*
X9392676Y5864500D01*
X9410591Y5866632D01*
X9411499Y5866740D01*
X9411500Y5866740D01*
X9418876Y5867618D01*
X9521183Y5913061D01*
X9532484Y5924381D01*
X9593816Y5985821D01*
X9600271Y5992287D01*
X9613001Y6021080D01*
X9617172Y6030516D01*
X9657993Y6076093D01*
X9707718Y6089487D01*
X11815704Y6089487D01*
X11873895Y6070580D01*
G37*
G04 #@! TD.AperFunction*
G04 #@! TD*
M02*
