G04 #@! TF.GenerationSoftware,KiCad,Pcbnew,(6.0.8)*
G04 #@! TF.CreationDate,2022-12-07T17:32:22+03:00*
G04 #@! TF.ProjectId,hellen1-vr-discrete,68656c6c-656e-4312-9d76-722d64697363,rev?*
G04 #@! TF.SameCoordinates,PX4a19ba0PY5aa5910*
G04 #@! TF.FileFunction,Copper,L4,Bot*
G04 #@! TF.FilePolarity,Positive*
%FSLAX46Y46*%
G04 Gerber Fmt 4.6, Leading zero omitted, Abs format (unit mm)*
G04 Created by KiCad (PCBNEW (6.0.8)) date 2022-12-07 17:32:22*
%MOMM*%
%LPD*%
G01*
G04 APERTURE LIST*
G04 #@! TA.AperFunction,Profile*
%ADD10C,0.020000*%
G04 #@! TD*
G04 #@! TA.AperFunction,ComponentPad*
%ADD11C,0.600000*%
G04 #@! TD*
G04 #@! TA.AperFunction,SMDPad,CuDef*
%ADD12R,0.250000X5.175000*%
G04 #@! TD*
G04 #@! TA.AperFunction,SMDPad,CuDef*
%ADD13R,0.250000X1.115000*%
G04 #@! TD*
G04 #@! TA.AperFunction,SMDPad,CuDef*
%ADD14R,14.275000X0.250000*%
G04 #@! TD*
G04 #@! TA.AperFunction,SMDPad,CuDef*
%ADD15R,0.250000X6.185000*%
G04 #@! TD*
G04 #@! TA.AperFunction,SMDPad,CuDef*
%ADD16R,15.100000X0.250000*%
G04 #@! TD*
G04 #@! TA.AperFunction,ViaPad*
%ADD17C,0.600000*%
G04 #@! TD*
G04 #@! TA.AperFunction,Conductor*
%ADD18C,0.250000*%
G04 #@! TD*
G04 #@! TA.AperFunction,Conductor*
%ADD19C,0.200000*%
G04 #@! TD*
G04 APERTURE END LIST*
D10*
X0Y0D02*
X15200000Y0D01*
X15200000Y0D02*
X15200000Y9800000D01*
X15200000Y9800000D02*
X0Y9800000D01*
X0Y9800000D02*
X0Y0D01*
D11*
G04 #@! TO.P,M750,E1,Thresh_IN*
G04 #@! TO.N,thresh_input*
X14800000Y6900000D03*
G04 #@! TO.P,M750,E2,OUT_A*
G04 #@! TO.N,analog_out*
X14800000Y5700000D03*
G04 #@! TO.P,M750,E3,OUT*
G04 #@! TO.N,output*
X14800000Y8100000D03*
G04 #@! TO.P,M750,E4,V5_IN*
G04 #@! TO.N,+5V*
X14800000Y9300000D03*
D12*
G04 #@! TO.P,M750,G,GND*
G04 #@! TO.N,GND*
X15000000Y2612500D03*
D13*
X150000Y582500D03*
D14*
X7162500Y9600000D03*
D15*
X150000Y6632500D03*
D16*
X7575000Y150000D03*
D11*
G04 #@! TO.P,M750,W1,VR-*
G04 #@! TO.N,VR-*
X375000Y2840000D03*
G04 #@! TO.P,M750,W2,VR+*
G04 #@! TO.N,VR+*
X375000Y1840000D03*
G04 #@! TD*
G04 #@! TO.P,U757,1*
G04 #@! TO.N,output*
G04 #@! TA.AperFunction,SMDPad,CuDef*
G36*
G01*
X4300000Y7770784D02*
X4300000Y7470784D01*
G75*
G02*
X4150000Y7320784I-150000J0D01*
G01*
X3125000Y7320784D01*
G75*
G02*
X2975000Y7470784I0J150000D01*
G01*
X2975000Y7770784D01*
G75*
G02*
X3125000Y7920784I150000J0D01*
G01*
X4150000Y7920784D01*
G75*
G02*
X4300000Y7770784I0J-150000D01*
G01*
G37*
G04 #@! TD.AperFunction*
G04 #@! TO.P,U757,2*
G04 #@! TO.N,Net-(C757-Pad1)*
G04 #@! TA.AperFunction,SMDPad,CuDef*
G36*
G01*
X4300000Y6820784D02*
X4300000Y6520784D01*
G75*
G02*
X4150000Y6370784I-150000J0D01*
G01*
X3125000Y6370784D01*
G75*
G02*
X2975000Y6520784I0J150000D01*
G01*
X2975000Y6820784D01*
G75*
G02*
X3125000Y6970784I150000J0D01*
G01*
X4150000Y6970784D01*
G75*
G02*
X4300000Y6820784I0J-150000D01*
G01*
G37*
G04 #@! TD.AperFunction*
G04 #@! TO.P,U757,3,GND*
G04 #@! TO.N,GND*
G04 #@! TA.AperFunction,SMDPad,CuDef*
G36*
G01*
X4300000Y5870784D02*
X4300000Y5570784D01*
G75*
G02*
X4150000Y5420784I-150000J0D01*
G01*
X3125000Y5420784D01*
G75*
G02*
X2975000Y5570784I0J150000D01*
G01*
X2975000Y5870784D01*
G75*
G02*
X3125000Y6020784I150000J0D01*
G01*
X4150000Y6020784D01*
G75*
G02*
X4300000Y5870784I0J-150000D01*
G01*
G37*
G04 #@! TD.AperFunction*
G04 #@! TO.P,U757,4*
G04 #@! TO.N,Net-(U752-Pad2)*
G04 #@! TA.AperFunction,SMDPad,CuDef*
G36*
G01*
X2025000Y5870784D02*
X2025000Y5570784D01*
G75*
G02*
X1875000Y5420784I-150000J0D01*
G01*
X850000Y5420784D01*
G75*
G02*
X700000Y5570784I0J150000D01*
G01*
X700000Y5870784D01*
G75*
G02*
X850000Y6020784I150000J0D01*
G01*
X1875000Y6020784D01*
G75*
G02*
X2025000Y5870784I0J-150000D01*
G01*
G37*
G04 #@! TD.AperFunction*
G04 #@! TO.P,U757,5,VCC*
G04 #@! TO.N,+5V*
G04 #@! TA.AperFunction,SMDPad,CuDef*
G36*
G01*
X2025000Y7770784D02*
X2025000Y7470784D01*
G75*
G02*
X1875000Y7320784I-150000J0D01*
G01*
X850000Y7320784D01*
G75*
G02*
X700000Y7470784I0J150000D01*
G01*
X700000Y7770784D01*
G75*
G02*
X850000Y7920784I150000J0D01*
G01*
X1875000Y7920784D01*
G75*
G02*
X2025000Y7770784I0J-150000D01*
G01*
G37*
G04 #@! TD.AperFunction*
G04 #@! TD*
G04 #@! TO.P,C760,1*
G04 #@! TO.N,+5V*
G04 #@! TA.AperFunction,SMDPad,CuDef*
G36*
G01*
X4230000Y2110000D02*
X4570000Y2110000D01*
G75*
G02*
X4710000Y1970000I0J-140000D01*
G01*
X4710000Y1690000D01*
G75*
G02*
X4570000Y1550000I-140000J0D01*
G01*
X4230000Y1550000D01*
G75*
G02*
X4090000Y1690000I0J140000D01*
G01*
X4090000Y1970000D01*
G75*
G02*
X4230000Y2110000I140000J0D01*
G01*
G37*
G04 #@! TD.AperFunction*
G04 #@! TO.P,C760,2*
G04 #@! TO.N,GND*
G04 #@! TA.AperFunction,SMDPad,CuDef*
G36*
G01*
X4230000Y1150000D02*
X4570000Y1150000D01*
G75*
G02*
X4710000Y1010000I0J-140000D01*
G01*
X4710000Y730000D01*
G75*
G02*
X4570000Y590000I-140000J0D01*
G01*
X4230000Y590000D01*
G75*
G02*
X4090000Y730000I0J140000D01*
G01*
X4090000Y1010000D01*
G75*
G02*
X4230000Y1150000I140000J0D01*
G01*
G37*
G04 #@! TD.AperFunction*
G04 #@! TD*
G04 #@! TO.P,C755,1*
G04 #@! TO.N,thresh_low*
G04 #@! TA.AperFunction,SMDPad,CuDef*
G36*
G01*
X10965000Y7880000D02*
X10965000Y8220000D01*
G75*
G02*
X11105000Y8360000I140000J0D01*
G01*
X11385000Y8360000D01*
G75*
G02*
X11525000Y8220000I0J-140000D01*
G01*
X11525000Y7880000D01*
G75*
G02*
X11385000Y7740000I-140000J0D01*
G01*
X11105000Y7740000D01*
G75*
G02*
X10965000Y7880000I0J140000D01*
G01*
G37*
G04 #@! TD.AperFunction*
G04 #@! TO.P,C755,2*
G04 #@! TO.N,GND*
G04 #@! TA.AperFunction,SMDPad,CuDef*
G36*
G01*
X11925000Y7880000D02*
X11925000Y8220000D01*
G75*
G02*
X12065000Y8360000I140000J0D01*
G01*
X12345000Y8360000D01*
G75*
G02*
X12485000Y8220000I0J-140000D01*
G01*
X12485000Y7880000D01*
G75*
G02*
X12345000Y7740000I-140000J0D01*
G01*
X12065000Y7740000D01*
G75*
G02*
X11925000Y7880000I0J140000D01*
G01*
G37*
G04 #@! TD.AperFunction*
G04 #@! TD*
G04 #@! TO.P,C766,1*
G04 #@! TO.N,+5V*
G04 #@! TA.AperFunction,SMDPad,CuDef*
G36*
G01*
X14355000Y9150000D02*
X14355000Y8810000D01*
G75*
G02*
X14215000Y8670000I-140000J0D01*
G01*
X13935000Y8670000D01*
G75*
G02*
X13795000Y8810000I0J140000D01*
G01*
X13795000Y9150000D01*
G75*
G02*
X13935000Y9290000I140000J0D01*
G01*
X14215000Y9290000D01*
G75*
G02*
X14355000Y9150000I0J-140000D01*
G01*
G37*
G04 #@! TD.AperFunction*
G04 #@! TO.P,C766,2*
G04 #@! TO.N,GND*
G04 #@! TA.AperFunction,SMDPad,CuDef*
G36*
G01*
X13395000Y9150000D02*
X13395000Y8810000D01*
G75*
G02*
X13255000Y8670000I-140000J0D01*
G01*
X12975000Y8670000D01*
G75*
G02*
X12835000Y8810000I0J140000D01*
G01*
X12835000Y9150000D01*
G75*
G02*
X12975000Y9290000I140000J0D01*
G01*
X13255000Y9290000D01*
G75*
G02*
X13395000Y9150000I0J-140000D01*
G01*
G37*
G04 #@! TD.AperFunction*
G04 #@! TD*
G04 #@! TO.P,C757,1*
G04 #@! TO.N,Net-(C757-Pad1)*
G04 #@! TA.AperFunction,SMDPad,CuDef*
G36*
G01*
X8830000Y6930000D02*
X8830000Y7270000D01*
G75*
G02*
X8970000Y7410000I140000J0D01*
G01*
X9250000Y7410000D01*
G75*
G02*
X9390000Y7270000I0J-140000D01*
G01*
X9390000Y6930000D01*
G75*
G02*
X9250000Y6790000I-140000J0D01*
G01*
X8970000Y6790000D01*
G75*
G02*
X8830000Y6930000I0J140000D01*
G01*
G37*
G04 #@! TD.AperFunction*
G04 #@! TO.P,C757,2*
G04 #@! TO.N,Net-(C757-Pad2)*
G04 #@! TA.AperFunction,SMDPad,CuDef*
G36*
G01*
X9790000Y6930000D02*
X9790000Y7270000D01*
G75*
G02*
X9930000Y7410000I140000J0D01*
G01*
X10210000Y7410000D01*
G75*
G02*
X10350000Y7270000I0J-140000D01*
G01*
X10350000Y6930000D01*
G75*
G02*
X10210000Y6790000I-140000J0D01*
G01*
X9930000Y6790000D01*
G75*
G02*
X9790000Y6930000I0J140000D01*
G01*
G37*
G04 #@! TD.AperFunction*
G04 #@! TD*
G04 #@! TO.P,C764,1*
G04 #@! TO.N,+5V*
G04 #@! TA.AperFunction,SMDPad,CuDef*
G36*
G01*
X14305000Y8220000D02*
X14305000Y7880000D01*
G75*
G02*
X14165000Y7740000I-140000J0D01*
G01*
X13885000Y7740000D01*
G75*
G02*
X13745000Y7880000I0J140000D01*
G01*
X13745000Y8220000D01*
G75*
G02*
X13885000Y8360000I140000J0D01*
G01*
X14165000Y8360000D01*
G75*
G02*
X14305000Y8220000I0J-140000D01*
G01*
G37*
G04 #@! TD.AperFunction*
G04 #@! TO.P,C764,2*
G04 #@! TO.N,GND*
G04 #@! TA.AperFunction,SMDPad,CuDef*
G36*
G01*
X13345000Y8220000D02*
X13345000Y7880000D01*
G75*
G02*
X13205000Y7740000I-140000J0D01*
G01*
X12925000Y7740000D01*
G75*
G02*
X12785000Y7880000I0J140000D01*
G01*
X12785000Y8220000D01*
G75*
G02*
X12925000Y8360000I140000J0D01*
G01*
X13205000Y8360000D01*
G75*
G02*
X13345000Y8220000I0J-140000D01*
G01*
G37*
G04 #@! TD.AperFunction*
G04 #@! TD*
G04 #@! TO.P,C753,1*
G04 #@! TO.N,Net-(C753-Pad1)*
G04 #@! TA.AperFunction,SMDPad,CuDef*
G36*
G01*
X12965000Y2755000D02*
X12965000Y3095000D01*
G75*
G02*
X13105000Y3235000I140000J0D01*
G01*
X13385000Y3235000D01*
G75*
G02*
X13525000Y3095000I0J-140000D01*
G01*
X13525000Y2755000D01*
G75*
G02*
X13385000Y2615000I-140000J0D01*
G01*
X13105000Y2615000D01*
G75*
G02*
X12965000Y2755000I0J140000D01*
G01*
G37*
G04 #@! TD.AperFunction*
G04 #@! TO.P,C753,2*
G04 #@! TO.N,GND*
G04 #@! TA.AperFunction,SMDPad,CuDef*
G36*
G01*
X13925000Y2755000D02*
X13925000Y3095000D01*
G75*
G02*
X14065000Y3235000I140000J0D01*
G01*
X14345000Y3235000D01*
G75*
G02*
X14485000Y3095000I0J-140000D01*
G01*
X14485000Y2755000D01*
G75*
G02*
X14345000Y2615000I-140000J0D01*
G01*
X14065000Y2615000D01*
G75*
G02*
X13925000Y2755000I0J140000D01*
G01*
G37*
G04 #@! TD.AperFunction*
G04 #@! TD*
G04 #@! TO.P,U753,1*
G04 #@! TO.N,Net-(R769-Pad1)*
G04 #@! TA.AperFunction,SMDPad,CuDef*
G36*
G01*
X5215717Y850000D02*
X5215717Y1050000D01*
G75*
G02*
X5315717Y1150000I100000J0D01*
G01*
X6590717Y1150000D01*
G75*
G02*
X6690717Y1050000I0J-100000D01*
G01*
X6690717Y850000D01*
G75*
G02*
X6590717Y750000I-100000J0D01*
G01*
X5315717Y750000D01*
G75*
G02*
X5215717Y850000I0J100000D01*
G01*
G37*
G04 #@! TD.AperFunction*
G04 #@! TO.P,U753,2,-*
G04 #@! TA.AperFunction,SMDPad,CuDef*
G36*
G01*
X5215717Y1500000D02*
X5215717Y1700000D01*
G75*
G02*
X5315717Y1800000I100000J0D01*
G01*
X6590717Y1800000D01*
G75*
G02*
X6690717Y1700000I0J-100000D01*
G01*
X6690717Y1500000D01*
G75*
G02*
X6590717Y1400000I-100000J0D01*
G01*
X5315717Y1400000D01*
G75*
G02*
X5215717Y1500000I0J100000D01*
G01*
G37*
G04 #@! TD.AperFunction*
G04 #@! TO.P,U753,3,+*
G04 #@! TO.N,Net-(C759-Pad1)*
G04 #@! TA.AperFunction,SMDPad,CuDef*
G36*
G01*
X5215717Y2150000D02*
X5215717Y2350000D01*
G75*
G02*
X5315717Y2450000I100000J0D01*
G01*
X6590717Y2450000D01*
G75*
G02*
X6690717Y2350000I0J-100000D01*
G01*
X6690717Y2150000D01*
G75*
G02*
X6590717Y2050000I-100000J0D01*
G01*
X5315717Y2050000D01*
G75*
G02*
X5215717Y2150000I0J100000D01*
G01*
G37*
G04 #@! TD.AperFunction*
G04 #@! TO.P,U753,4,V+*
G04 #@! TO.N,+5V*
G04 #@! TA.AperFunction,SMDPad,CuDef*
G36*
G01*
X5215717Y2800000D02*
X5215717Y3000000D01*
G75*
G02*
X5315717Y3100000I100000J0D01*
G01*
X6590717Y3100000D01*
G75*
G02*
X6690717Y3000000I0J-100000D01*
G01*
X6690717Y2800000D01*
G75*
G02*
X6590717Y2700000I-100000J0D01*
G01*
X5315717Y2700000D01*
G75*
G02*
X5215717Y2800000I0J100000D01*
G01*
G37*
G04 #@! TD.AperFunction*
G04 #@! TO.P,U753,5,+*
G04 #@! TO.N,Net-(R756-Pad2)*
G04 #@! TA.AperFunction,SMDPad,CuDef*
G36*
G01*
X5215717Y3450000D02*
X5215717Y3650000D01*
G75*
G02*
X5315717Y3750000I100000J0D01*
G01*
X6590717Y3750000D01*
G75*
G02*
X6690717Y3650000I0J-100000D01*
G01*
X6690717Y3450000D01*
G75*
G02*
X6590717Y3350000I-100000J0D01*
G01*
X5315717Y3350000D01*
G75*
G02*
X5215717Y3450000I0J100000D01*
G01*
G37*
G04 #@! TD.AperFunction*
G04 #@! TO.P,U753,6,-*
G04 #@! TO.N,Net-(R755-Pad1)*
G04 #@! TA.AperFunction,SMDPad,CuDef*
G36*
G01*
X5215717Y4100000D02*
X5215717Y4300000D01*
G75*
G02*
X5315717Y4400000I100000J0D01*
G01*
X6590717Y4400000D01*
G75*
G02*
X6690717Y4300000I0J-100000D01*
G01*
X6690717Y4100000D01*
G75*
G02*
X6590717Y4000000I-100000J0D01*
G01*
X5315717Y4000000D01*
G75*
G02*
X5215717Y4100000I0J100000D01*
G01*
G37*
G04 #@! TD.AperFunction*
G04 #@! TO.P,U753,7*
G04 #@! TO.N,analog_out*
G04 #@! TA.AperFunction,SMDPad,CuDef*
G36*
G01*
X5215717Y4750000D02*
X5215717Y4950000D01*
G75*
G02*
X5315717Y5050000I100000J0D01*
G01*
X6590717Y5050000D01*
G75*
G02*
X6690717Y4950000I0J-100000D01*
G01*
X6690717Y4750000D01*
G75*
G02*
X6590717Y4650000I-100000J0D01*
G01*
X5315717Y4650000D01*
G75*
G02*
X5215717Y4750000I0J100000D01*
G01*
G37*
G04 #@! TD.AperFunction*
G04 #@! TO.P,U753,8*
G04 #@! TO.N,Net-(R761-Pad1)*
G04 #@! TA.AperFunction,SMDPad,CuDef*
G36*
G01*
X10940717Y4750000D02*
X10940717Y4950000D01*
G75*
G02*
X11040717Y5050000I100000J0D01*
G01*
X12315717Y5050000D01*
G75*
G02*
X12415717Y4950000I0J-100000D01*
G01*
X12415717Y4750000D01*
G75*
G02*
X12315717Y4650000I-100000J0D01*
G01*
X11040717Y4650000D01*
G75*
G02*
X10940717Y4750000I0J100000D01*
G01*
G37*
G04 #@! TD.AperFunction*
G04 #@! TO.P,U753,9,-*
G04 #@! TA.AperFunction,SMDPad,CuDef*
G36*
G01*
X10940717Y4100000D02*
X10940717Y4300000D01*
G75*
G02*
X11040717Y4400000I100000J0D01*
G01*
X12315717Y4400000D01*
G75*
G02*
X12415717Y4300000I0J-100000D01*
G01*
X12415717Y4100000D01*
G75*
G02*
X12315717Y4000000I-100000J0D01*
G01*
X11040717Y4000000D01*
G75*
G02*
X10940717Y4100000I0J100000D01*
G01*
G37*
G04 #@! TD.AperFunction*
G04 #@! TO.P,U753,10,+*
G04 #@! TO.N,Net-(C753-Pad1)*
G04 #@! TA.AperFunction,SMDPad,CuDef*
G36*
G01*
X10940717Y3450000D02*
X10940717Y3650000D01*
G75*
G02*
X11040717Y3750000I100000J0D01*
G01*
X12315717Y3750000D01*
G75*
G02*
X12415717Y3650000I0J-100000D01*
G01*
X12415717Y3450000D01*
G75*
G02*
X12315717Y3350000I-100000J0D01*
G01*
X11040717Y3350000D01*
G75*
G02*
X10940717Y3450000I0J100000D01*
G01*
G37*
G04 #@! TD.AperFunction*
G04 #@! TO.P,U753,11,V-*
G04 #@! TO.N,GND*
G04 #@! TA.AperFunction,SMDPad,CuDef*
G36*
G01*
X10940717Y2800000D02*
X10940717Y3000000D01*
G75*
G02*
X11040717Y3100000I100000J0D01*
G01*
X12315717Y3100000D01*
G75*
G02*
X12415717Y3000000I0J-100000D01*
G01*
X12415717Y2800000D01*
G75*
G02*
X12315717Y2700000I-100000J0D01*
G01*
X11040717Y2700000D01*
G75*
G02*
X10940717Y2800000I0J100000D01*
G01*
G37*
G04 #@! TD.AperFunction*
G04 #@! TO.P,U753,12,+*
G04 #@! TO.N,Vref*
G04 #@! TA.AperFunction,SMDPad,CuDef*
G36*
G01*
X10940717Y2150000D02*
X10940717Y2350000D01*
G75*
G02*
X11040717Y2450000I100000J0D01*
G01*
X12315717Y2450000D01*
G75*
G02*
X12415717Y2350000I0J-100000D01*
G01*
X12415717Y2150000D01*
G75*
G02*
X12315717Y2050000I-100000J0D01*
G01*
X11040717Y2050000D01*
G75*
G02*
X10940717Y2150000I0J100000D01*
G01*
G37*
G04 #@! TD.AperFunction*
G04 #@! TO.P,U753,13,-*
G04 #@! TO.N,Net-(R762-Pad1)*
G04 #@! TA.AperFunction,SMDPad,CuDef*
G36*
G01*
X10940717Y1500000D02*
X10940717Y1700000D01*
G75*
G02*
X11040717Y1800000I100000J0D01*
G01*
X12315717Y1800000D01*
G75*
G02*
X12415717Y1700000I0J-100000D01*
G01*
X12415717Y1500000D01*
G75*
G02*
X12315717Y1400000I-100000J0D01*
G01*
X11040717Y1400000D01*
G75*
G02*
X10940717Y1500000I0J100000D01*
G01*
G37*
G04 #@! TD.AperFunction*
G04 #@! TO.P,U753,14*
G04 #@! TO.N,Net-(R763-Pad1)*
G04 #@! TA.AperFunction,SMDPad,CuDef*
G36*
G01*
X10940717Y850000D02*
X10940717Y1050000D01*
G75*
G02*
X11040717Y1150000I100000J0D01*
G01*
X12315717Y1150000D01*
G75*
G02*
X12415717Y1050000I0J-100000D01*
G01*
X12415717Y850000D01*
G75*
G02*
X12315717Y750000I-100000J0D01*
G01*
X11040717Y750000D01*
G75*
G02*
X10940717Y850000I0J100000D01*
G01*
G37*
G04 #@! TD.AperFunction*
G04 #@! TD*
G04 #@! TO.P,R752,1*
G04 #@! TO.N,VR-*
G04 #@! TA.AperFunction,SMDPad,CuDef*
G36*
G01*
X734253Y2849000D02*
X734253Y3749000D01*
G75*
G02*
X984253Y3999000I250000J0D01*
G01*
X1509253Y3999000D01*
G75*
G02*
X1759253Y3749000I0J-250000D01*
G01*
X1759253Y2849000D01*
G75*
G02*
X1509253Y2599000I-250000J0D01*
G01*
X984253Y2599000D01*
G75*
G02*
X734253Y2849000I0J250000D01*
G01*
G37*
G04 #@! TD.AperFunction*
G04 #@! TO.P,R752,2*
G04 #@! TO.N,Net-(C751-Pad1)*
G04 #@! TA.AperFunction,SMDPad,CuDef*
G36*
G01*
X2559253Y2849000D02*
X2559253Y3749000D01*
G75*
G02*
X2809253Y3999000I250000J0D01*
G01*
X3334253Y3999000D01*
G75*
G02*
X3584253Y3749000I0J-250000D01*
G01*
X3584253Y2849000D01*
G75*
G02*
X3334253Y2599000I-250000J0D01*
G01*
X2809253Y2599000D01*
G75*
G02*
X2559253Y2849000I0J250000D01*
G01*
G37*
G04 #@! TD.AperFunction*
G04 #@! TD*
G04 #@! TO.P,R762,1*
G04 #@! TO.N,Net-(R762-Pad1)*
G04 #@! TA.AperFunction,SMDPad,CuDef*
G36*
G01*
X12480000Y6335000D02*
X12480000Y5965000D01*
G75*
G02*
X12345000Y5830000I-135000J0D01*
G01*
X12075000Y5830000D01*
G75*
G02*
X11940000Y5965000I0J135000D01*
G01*
X11940000Y6335000D01*
G75*
G02*
X12075000Y6470000I135000J0D01*
G01*
X12345000Y6470000D01*
G75*
G02*
X12480000Y6335000I0J-135000D01*
G01*
G37*
G04 #@! TD.AperFunction*
G04 #@! TO.P,R762,2*
G04 #@! TO.N,Net-(R761-Pad1)*
G04 #@! TA.AperFunction,SMDPad,CuDef*
G36*
G01*
X11460000Y6335000D02*
X11460000Y5965000D01*
G75*
G02*
X11325000Y5830000I-135000J0D01*
G01*
X11055000Y5830000D01*
G75*
G02*
X10920000Y5965000I0J135000D01*
G01*
X10920000Y6335000D01*
G75*
G02*
X11055000Y6470000I135000J0D01*
G01*
X11325000Y6470000D01*
G75*
G02*
X11460000Y6335000I0J-135000D01*
G01*
G37*
G04 #@! TD.AperFunction*
G04 #@! TD*
G04 #@! TO.P,C761,1*
G04 #@! TO.N,+5V*
G04 #@! TA.AperFunction,SMDPad,CuDef*
G36*
G01*
X2460000Y9120000D02*
X2460000Y8780000D01*
G75*
G02*
X2320000Y8640000I-140000J0D01*
G01*
X2040000Y8640000D01*
G75*
G02*
X1900000Y8780000I0J140000D01*
G01*
X1900000Y9120000D01*
G75*
G02*
X2040000Y9260000I140000J0D01*
G01*
X2320000Y9260000D01*
G75*
G02*
X2460000Y9120000I0J-140000D01*
G01*
G37*
G04 #@! TD.AperFunction*
G04 #@! TO.P,C761,2*
G04 #@! TO.N,GND*
G04 #@! TA.AperFunction,SMDPad,CuDef*
G36*
G01*
X1500000Y9120000D02*
X1500000Y8780000D01*
G75*
G02*
X1360000Y8640000I-140000J0D01*
G01*
X1080000Y8640000D01*
G75*
G02*
X940000Y8780000I0J140000D01*
G01*
X940000Y9120000D01*
G75*
G02*
X1080000Y9260000I140000J0D01*
G01*
X1360000Y9260000D01*
G75*
G02*
X1500000Y9120000I0J-140000D01*
G01*
G37*
G04 #@! TD.AperFunction*
G04 #@! TD*
G04 #@! TO.P,R754,1*
G04 #@! TO.N,thresh_input*
G04 #@! TA.AperFunction,SMDPad,CuDef*
G36*
G01*
X14430000Y7285000D02*
X14430000Y6915000D01*
G75*
G02*
X14295000Y6780000I-135000J0D01*
G01*
X14025000Y6780000D01*
G75*
G02*
X13890000Y6915000I0J135000D01*
G01*
X13890000Y7285000D01*
G75*
G02*
X14025000Y7420000I135000J0D01*
G01*
X14295000Y7420000D01*
G75*
G02*
X14430000Y7285000I0J-135000D01*
G01*
G37*
G04 #@! TD.AperFunction*
G04 #@! TO.P,R754,2*
G04 #@! TO.N,Net-(C752-Pad1)*
G04 #@! TA.AperFunction,SMDPad,CuDef*
G36*
G01*
X13410000Y7285000D02*
X13410000Y6915000D01*
G75*
G02*
X13275000Y6780000I-135000J0D01*
G01*
X13005000Y6780000D01*
G75*
G02*
X12870000Y6915000I0J135000D01*
G01*
X12870000Y7285000D01*
G75*
G02*
X13005000Y7420000I135000J0D01*
G01*
X13275000Y7420000D01*
G75*
G02*
X13410000Y7285000I0J-135000D01*
G01*
G37*
G04 #@! TD.AperFunction*
G04 #@! TD*
G04 #@! TO.P,R766,1*
G04 #@! TO.N,GND*
G04 #@! TA.AperFunction,SMDPad,CuDef*
G36*
G01*
X10382915Y6335073D02*
X10382915Y5965073D01*
G75*
G02*
X10247915Y5830073I-135000J0D01*
G01*
X9977915Y5830073D01*
G75*
G02*
X9842915Y5965073I0J135000D01*
G01*
X9842915Y6335073D01*
G75*
G02*
X9977915Y6470073I135000J0D01*
G01*
X10247915Y6470073D01*
G75*
G02*
X10382915Y6335073I0J-135000D01*
G01*
G37*
G04 #@! TD.AperFunction*
G04 #@! TO.P,R766,2*
G04 #@! TO.N,Net-(C757-Pad1)*
G04 #@! TA.AperFunction,SMDPad,CuDef*
G36*
G01*
X9362915Y6335073D02*
X9362915Y5965073D01*
G75*
G02*
X9227915Y5830073I-135000J0D01*
G01*
X8957915Y5830073D01*
G75*
G02*
X8822915Y5965073I0J135000D01*
G01*
X8822915Y6335073D01*
G75*
G02*
X8957915Y6470073I135000J0D01*
G01*
X9227915Y6470073D01*
G75*
G02*
X9362915Y6335073I0J-135000D01*
G01*
G37*
G04 #@! TD.AperFunction*
G04 #@! TD*
G04 #@! TO.P,R753,1*
G04 #@! TO.N,Net-(C751-Pad2)*
G04 #@! TA.AperFunction,SMDPad,CuDef*
G36*
G01*
X3584253Y1825000D02*
X3584253Y925000D01*
G75*
G02*
X3334253Y675000I-250000J0D01*
G01*
X2809253Y675000D01*
G75*
G02*
X2559253Y925000I0J250000D01*
G01*
X2559253Y1825000D01*
G75*
G02*
X2809253Y2075000I250000J0D01*
G01*
X3334253Y2075000D01*
G75*
G02*
X3584253Y1825000I0J-250000D01*
G01*
G37*
G04 #@! TD.AperFunction*
G04 #@! TO.P,R753,2*
G04 #@! TO.N,VR+*
G04 #@! TA.AperFunction,SMDPad,CuDef*
G36*
G01*
X1759253Y1825000D02*
X1759253Y925000D01*
G75*
G02*
X1509253Y675000I-250000J0D01*
G01*
X984253Y675000D01*
G75*
G02*
X734253Y925000I0J250000D01*
G01*
X734253Y1825000D01*
G75*
G02*
X984253Y2075000I250000J0D01*
G01*
X1509253Y2075000D01*
G75*
G02*
X1759253Y1825000I0J-250000D01*
G01*
G37*
G04 #@! TD.AperFunction*
G04 #@! TD*
G04 #@! TO.P,R765,1*
G04 #@! TO.N,GND*
G04 #@! TA.AperFunction,SMDPad,CuDef*
G36*
G01*
X10370000Y9165000D02*
X10370000Y8795000D01*
G75*
G02*
X10235000Y8660000I-135000J0D01*
G01*
X9965000Y8660000D01*
G75*
G02*
X9830000Y8795000I0J135000D01*
G01*
X9830000Y9165000D01*
G75*
G02*
X9965000Y9300000I135000J0D01*
G01*
X10235000Y9300000D01*
G75*
G02*
X10370000Y9165000I0J-135000D01*
G01*
G37*
G04 #@! TD.AperFunction*
G04 #@! TO.P,R765,2*
G04 #@! TO.N,Net-(C756-Pad1)*
G04 #@! TA.AperFunction,SMDPad,CuDef*
G36*
G01*
X9350000Y9165000D02*
X9350000Y8795000D01*
G75*
G02*
X9215000Y8660000I-135000J0D01*
G01*
X8945000Y8660000D01*
G75*
G02*
X8810000Y8795000I0J135000D01*
G01*
X8810000Y9165000D01*
G75*
G02*
X8945000Y9300000I135000J0D01*
G01*
X9215000Y9300000D01*
G75*
G02*
X9350000Y9165000I0J-135000D01*
G01*
G37*
G04 #@! TD.AperFunction*
G04 #@! TD*
G04 #@! TO.P,R763,1*
G04 #@! TO.N,Net-(R763-Pad1)*
G04 #@! TA.AperFunction,SMDPad,CuDef*
G36*
G01*
X12820000Y890000D02*
X12820000Y1260000D01*
G75*
G02*
X12955000Y1395000I135000J0D01*
G01*
X13225000Y1395000D01*
G75*
G02*
X13360000Y1260000I0J-135000D01*
G01*
X13360000Y890000D01*
G75*
G02*
X13225000Y755000I-135000J0D01*
G01*
X12955000Y755000D01*
G75*
G02*
X12820000Y890000I0J135000D01*
G01*
G37*
G04 #@! TD.AperFunction*
G04 #@! TO.P,R763,2*
G04 #@! TO.N,Net-(R762-Pad1)*
G04 #@! TA.AperFunction,SMDPad,CuDef*
G36*
G01*
X13840000Y890000D02*
X13840000Y1260000D01*
G75*
G02*
X13975000Y1395000I135000J0D01*
G01*
X14245000Y1395000D01*
G75*
G02*
X14380000Y1260000I0J-135000D01*
G01*
X14380000Y890000D01*
G75*
G02*
X14245000Y755000I-135000J0D01*
G01*
X13975000Y755000D01*
G75*
G02*
X13840000Y890000I0J135000D01*
G01*
G37*
G04 #@! TD.AperFunction*
G04 #@! TD*
G04 #@! TO.P,R760,1*
G04 #@! TO.N,Net-(C753-Pad1)*
G04 #@! TA.AperFunction,SMDPad,CuDef*
G36*
G01*
X12945000Y3690000D02*
X12945000Y4060000D01*
G75*
G02*
X13080000Y4195000I135000J0D01*
G01*
X13350000Y4195000D01*
G75*
G02*
X13485000Y4060000I0J-135000D01*
G01*
X13485000Y3690000D01*
G75*
G02*
X13350000Y3555000I-135000J0D01*
G01*
X13080000Y3555000D01*
G75*
G02*
X12945000Y3690000I0J135000D01*
G01*
G37*
G04 #@! TD.AperFunction*
G04 #@! TO.P,R760,2*
G04 #@! TO.N,GND*
G04 #@! TA.AperFunction,SMDPad,CuDef*
G36*
G01*
X13965000Y3690000D02*
X13965000Y4060000D01*
G75*
G02*
X14100000Y4195000I135000J0D01*
G01*
X14370000Y4195000D01*
G75*
G02*
X14505000Y4060000I0J-135000D01*
G01*
X14505000Y3690000D01*
G75*
G02*
X14370000Y3555000I-135000J0D01*
G01*
X14100000Y3555000D01*
G75*
G02*
X13965000Y3690000I0J135000D01*
G01*
G37*
G04 #@! TD.AperFunction*
G04 #@! TD*
G04 #@! TO.P,R761,1*
G04 #@! TO.N,Net-(R761-Pad1)*
G04 #@! TA.AperFunction,SMDPad,CuDef*
G36*
G01*
X12555000Y7285000D02*
X12555000Y6915000D01*
G75*
G02*
X12420000Y6780000I-135000J0D01*
G01*
X12150000Y6780000D01*
G75*
G02*
X12015000Y6915000I0J135000D01*
G01*
X12015000Y7285000D01*
G75*
G02*
X12150000Y7420000I135000J0D01*
G01*
X12420000Y7420000D01*
G75*
G02*
X12555000Y7285000I0J-135000D01*
G01*
G37*
G04 #@! TD.AperFunction*
G04 #@! TO.P,R761,2*
G04 #@! TO.N,thresh_low*
G04 #@! TA.AperFunction,SMDPad,CuDef*
G36*
G01*
X11535000Y7285000D02*
X11535000Y6915000D01*
G75*
G02*
X11400000Y6780000I-135000J0D01*
G01*
X11130000Y6780000D01*
G75*
G02*
X10995000Y6915000I0J135000D01*
G01*
X10995000Y7285000D01*
G75*
G02*
X11130000Y7420000I135000J0D01*
G01*
X11400000Y7420000D01*
G75*
G02*
X11535000Y7285000I0J-135000D01*
G01*
G37*
G04 #@! TD.AperFunction*
G04 #@! TD*
G04 #@! TO.P,C752,1*
G04 #@! TO.N,Net-(C752-Pad1)*
G04 #@! TA.AperFunction,SMDPad,CuDef*
G36*
G01*
X14510000Y5020000D02*
X14510000Y4680000D01*
G75*
G02*
X14370000Y4540000I-140000J0D01*
G01*
X14090000Y4540000D01*
G75*
G02*
X13950000Y4680000I0J140000D01*
G01*
X13950000Y5020000D01*
G75*
G02*
X14090000Y5160000I140000J0D01*
G01*
X14370000Y5160000D01*
G75*
G02*
X14510000Y5020000I0J-140000D01*
G01*
G37*
G04 #@! TD.AperFunction*
G04 #@! TO.P,C752,2*
G04 #@! TO.N,GND*
G04 #@! TA.AperFunction,SMDPad,CuDef*
G36*
G01*
X13550000Y5020000D02*
X13550000Y4680000D01*
G75*
G02*
X13410000Y4540000I-140000J0D01*
G01*
X13130000Y4540000D01*
G75*
G02*
X12990000Y4680000I0J140000D01*
G01*
X12990000Y5020000D01*
G75*
G02*
X13130000Y5160000I140000J0D01*
G01*
X13410000Y5160000D01*
G75*
G02*
X13550000Y5020000I0J-140000D01*
G01*
G37*
G04 #@! TD.AperFunction*
G04 #@! TD*
G04 #@! TO.P,C762,1*
G04 #@! TO.N,+5V*
G04 #@! TA.AperFunction,SMDPad,CuDef*
G36*
G01*
X4566437Y2425389D02*
X4226437Y2425389D01*
G75*
G02*
X4086437Y2565389I0J140000D01*
G01*
X4086437Y2845389D01*
G75*
G02*
X4226437Y2985389I140000J0D01*
G01*
X4566437Y2985389D01*
G75*
G02*
X4706437Y2845389I0J-140000D01*
G01*
X4706437Y2565389D01*
G75*
G02*
X4566437Y2425389I-140000J0D01*
G01*
G37*
G04 #@! TD.AperFunction*
G04 #@! TO.P,C762,2*
G04 #@! TO.N,GND*
G04 #@! TA.AperFunction,SMDPad,CuDef*
G36*
G01*
X4566437Y3385389D02*
X4226437Y3385389D01*
G75*
G02*
X4086437Y3525389I0J140000D01*
G01*
X4086437Y3805389D01*
G75*
G02*
X4226437Y3945389I140000J0D01*
G01*
X4566437Y3945389D01*
G75*
G02*
X4706437Y3805389I0J-140000D01*
G01*
X4706437Y3525389D01*
G75*
G02*
X4566437Y3385389I-140000J0D01*
G01*
G37*
G04 #@! TD.AperFunction*
G04 #@! TD*
G04 #@! TO.P,R757,1*
G04 #@! TO.N,Net-(C753-Pad1)*
G04 #@! TA.AperFunction,SMDPad,CuDef*
G36*
G01*
X12820000Y5965000D02*
X12820000Y6335000D01*
G75*
G02*
X12955000Y6470000I135000J0D01*
G01*
X13225000Y6470000D01*
G75*
G02*
X13360000Y6335000I0J-135000D01*
G01*
X13360000Y5965000D01*
G75*
G02*
X13225000Y5830000I-135000J0D01*
G01*
X12955000Y5830000D01*
G75*
G02*
X12820000Y5965000I0J135000D01*
G01*
G37*
G04 #@! TD.AperFunction*
G04 #@! TO.P,R757,2*
G04 #@! TO.N,Net-(C752-Pad1)*
G04 #@! TA.AperFunction,SMDPad,CuDef*
G36*
G01*
X13840000Y5965000D02*
X13840000Y6335000D01*
G75*
G02*
X13975000Y6470000I135000J0D01*
G01*
X14245000Y6470000D01*
G75*
G02*
X14380000Y6335000I0J-135000D01*
G01*
X14380000Y5965000D01*
G75*
G02*
X14245000Y5830000I-135000J0D01*
G01*
X13975000Y5830000D01*
G75*
G02*
X13840000Y5965000I0J135000D01*
G01*
G37*
G04 #@! TD.AperFunction*
G04 #@! TD*
G04 #@! TO.P,U752,1*
G04 #@! TO.N,Net-(C756-Pad1)*
G04 #@! TA.AperFunction,SMDPad,CuDef*
G36*
G01*
X8400000Y8850000D02*
X8400000Y8550000D01*
G75*
G02*
X8250000Y8400000I-150000J0D01*
G01*
X7225000Y8400000D01*
G75*
G02*
X7075000Y8550000I0J150000D01*
G01*
X7075000Y8850000D01*
G75*
G02*
X7225000Y9000000I150000J0D01*
G01*
X8250000Y9000000D01*
G75*
G02*
X8400000Y8850000I0J-150000D01*
G01*
G37*
G04 #@! TD.AperFunction*
G04 #@! TO.P,U752,2*
G04 #@! TO.N,Net-(U752-Pad2)*
G04 #@! TA.AperFunction,SMDPad,CuDef*
G36*
G01*
X8400000Y7900000D02*
X8400000Y7600000D01*
G75*
G02*
X8250000Y7450000I-150000J0D01*
G01*
X7225000Y7450000D01*
G75*
G02*
X7075000Y7600000I0J150000D01*
G01*
X7075000Y7900000D01*
G75*
G02*
X7225000Y8050000I150000J0D01*
G01*
X8250000Y8050000D01*
G75*
G02*
X8400000Y7900000I0J-150000D01*
G01*
G37*
G04 #@! TD.AperFunction*
G04 #@! TO.P,U752,3,GND*
G04 #@! TO.N,GND*
G04 #@! TA.AperFunction,SMDPad,CuDef*
G36*
G01*
X8400000Y6950000D02*
X8400000Y6650000D01*
G75*
G02*
X8250000Y6500000I-150000J0D01*
G01*
X7225000Y6500000D01*
G75*
G02*
X7075000Y6650000I0J150000D01*
G01*
X7075000Y6950000D01*
G75*
G02*
X7225000Y7100000I150000J0D01*
G01*
X8250000Y7100000D01*
G75*
G02*
X8400000Y6950000I0J-150000D01*
G01*
G37*
G04 #@! TD.AperFunction*
G04 #@! TO.P,U752,4*
G04 #@! TO.N,output*
G04 #@! TA.AperFunction,SMDPad,CuDef*
G36*
G01*
X6125000Y6950000D02*
X6125000Y6650000D01*
G75*
G02*
X5975000Y6500000I-150000J0D01*
G01*
X4950000Y6500000D01*
G75*
G02*
X4800000Y6650000I0J150000D01*
G01*
X4800000Y6950000D01*
G75*
G02*
X4950000Y7100000I150000J0D01*
G01*
X5975000Y7100000D01*
G75*
G02*
X6125000Y6950000I0J-150000D01*
G01*
G37*
G04 #@! TD.AperFunction*
G04 #@! TO.P,U752,5,VCC*
G04 #@! TO.N,+5V*
G04 #@! TA.AperFunction,SMDPad,CuDef*
G36*
G01*
X6125000Y8850000D02*
X6125000Y8550000D01*
G75*
G02*
X5975000Y8400000I-150000J0D01*
G01*
X4950000Y8400000D01*
G75*
G02*
X4800000Y8550000I0J150000D01*
G01*
X4800000Y8850000D01*
G75*
G02*
X4950000Y9000000I150000J0D01*
G01*
X5975000Y9000000D01*
G75*
G02*
X6125000Y8850000I0J-150000D01*
G01*
G37*
G04 #@! TD.AperFunction*
G04 #@! TD*
G04 #@! TO.P,C756,1*
G04 #@! TO.N,Net-(C756-Pad1)*
G04 #@! TA.AperFunction,SMDPad,CuDef*
G36*
G01*
X8830000Y7880000D02*
X8830000Y8220000D01*
G75*
G02*
X8970000Y8360000I140000J0D01*
G01*
X9250000Y8360000D01*
G75*
G02*
X9390000Y8220000I0J-140000D01*
G01*
X9390000Y7880000D01*
G75*
G02*
X9250000Y7740000I-140000J0D01*
G01*
X8970000Y7740000D01*
G75*
G02*
X8830000Y7880000I0J140000D01*
G01*
G37*
G04 #@! TD.AperFunction*
G04 #@! TO.P,C756,2*
G04 #@! TO.N,Net-(C756-Pad2)*
G04 #@! TA.AperFunction,SMDPad,CuDef*
G36*
G01*
X9790000Y7880000D02*
X9790000Y8220000D01*
G75*
G02*
X9930000Y8360000I140000J0D01*
G01*
X10210000Y8360000D01*
G75*
G02*
X10350000Y8220000I0J-140000D01*
G01*
X10350000Y7880000D01*
G75*
G02*
X10210000Y7740000I-140000J0D01*
G01*
X9930000Y7740000D01*
G75*
G02*
X9790000Y7880000I0J140000D01*
G01*
G37*
G04 #@! TD.AperFunction*
G04 #@! TD*
D17*
G04 #@! TO.N,GND*
X3400000Y9350000D03*
X13568493Y398540D03*
X450000Y8950000D03*
X475000Y6825000D03*
X8950000Y400000D03*
X6721047Y6795971D03*
X2332643Y2337000D03*
X5274033Y5513060D03*
X4400000Y400000D03*
X2309598Y414120D03*
X9925000Y5475000D03*
X14800000Y3700000D03*
X10476117Y3469351D03*
X350000Y4750000D03*
X7300000Y5350000D03*
X3950000Y5050000D03*
X14800000Y2625000D03*
X9125000Y4400000D03*
X12121049Y9321268D03*
X14775000Y1575000D03*
G04 #@! TO.N,Net-(C751-Pad1)*
X3536455Y4261215D03*
G04 #@! TO.N,Net-(C751-Pad2)*
X3625400Y739602D03*
G04 #@! TO.N,+5V*
X8165850Y4280400D03*
X4766217Y2280985D03*
X2425000Y4375000D03*
X2732732Y8937026D03*
X14158516Y2145527D03*
X5900000Y8150000D03*
G04 #@! TO.N,Vref*
X4775000Y4550000D03*
X7501951Y1719344D03*
X12773241Y2267715D03*
G04 #@! TO.N,thresh_low*
X11624528Y8739821D03*
X4046477Y8800484D03*
G04 #@! TO.N,Net-(C756-Pad2)*
X10875000Y8890900D03*
G04 #@! TO.N,Net-(C757-Pad2)*
X10699317Y5399689D03*
X10530400Y7186704D03*
G04 #@! TO.N,Net-(C759-Pad1)*
X7604434Y2609453D03*
G04 #@! TO.N,output*
X2600000Y5150000D03*
G04 #@! TO.N,analog_out*
X6200000Y5550000D03*
G04 #@! TO.N,Net-(R755-Pad1)*
X7166110Y4522290D03*
G04 #@! TO.N,Net-(R756-Pad2)*
X7325000Y3525000D03*
G04 #@! TO.N,Net-(R762-Pad1)*
X10225000Y4750000D03*
X12091307Y5514600D03*
G04 #@! TO.N,Net-(R763-Pad1)*
X10640500Y805547D03*
G04 #@! TO.N,Net-(R769-Pad1)*
X7375000Y775000D03*
G04 #@! TD*
D18*
G04 #@! TO.N,GND*
X13270000Y4840000D02*
X14235000Y3875000D01*
X4275000Y3786826D02*
X4275000Y4215472D01*
X13270000Y4850000D02*
X13270000Y4840000D01*
X4396437Y3665389D02*
X4275000Y3786826D01*
G04 #@! TO.N,Net-(C751-Pad1)*
X3071753Y3300000D02*
X3071753Y3796513D01*
X3071753Y3796513D02*
X3536455Y4261215D01*
G04 #@! TO.N,Net-(C751-Pad2)*
X3625400Y739602D02*
X3065002Y1300000D01*
G04 #@! TO.N,Net-(C752-Pad1)*
X14209901Y4870099D02*
X14200000Y4880000D01*
X14200000Y6015000D02*
X13115000Y7100000D01*
X14200000Y4880000D02*
X14200000Y6015000D01*
G04 #@! TO.N,Net-(C753-Pad1)*
X12700000Y4582598D02*
X12700000Y5250000D01*
X13215000Y3875000D02*
X13215000Y2955000D01*
X12699900Y4523201D02*
X12699900Y4582498D01*
X13215000Y3875000D02*
X13215000Y4008101D01*
D19*
X12699900Y4582498D02*
X12700000Y4582598D01*
D18*
X11678217Y3550000D02*
X13130000Y3550000D01*
X12700000Y5250000D02*
X12700000Y5292040D01*
X13115000Y5707040D02*
X13115000Y6150000D01*
X12700000Y5292040D02*
X13115000Y5707040D01*
X13215000Y4008101D02*
X12699900Y4523201D01*
G04 #@! TO.N,+5V*
X2732732Y8937026D02*
X2192974Y8937026D01*
X4591048Y2900000D02*
X5953217Y2900000D01*
X14075000Y8980000D02*
X14480000Y8980000D01*
X14075000Y8100000D02*
X14025000Y8050000D01*
X4396437Y2705389D02*
X4396437Y1833563D01*
X4396437Y1833563D02*
X4400000Y1830000D01*
X2192974Y8937026D02*
X2180000Y8950000D01*
X2180000Y8950000D02*
X2180000Y8438284D01*
X4396437Y2705389D02*
X4591048Y2900000D01*
X14480000Y8980000D02*
X14800000Y9300000D01*
X4396437Y2650765D02*
X4396437Y2705389D01*
X14075000Y8980000D02*
X14075000Y8100000D01*
X5900000Y8150000D02*
X5900000Y8550000D01*
X2180000Y8438284D02*
X1362500Y7620784D01*
X4766217Y2280985D02*
X4396437Y2650765D01*
G04 #@! TO.N,Vref*
X12709000Y2250000D02*
X11678217Y2250000D01*
G04 #@! TO.N,thresh_low*
X11624528Y8739821D02*
X11314283Y8429576D01*
X11289283Y8044283D02*
X11289283Y7124283D01*
X11314283Y8429576D02*
X11314283Y8044283D01*
G04 #@! TO.N,Net-(C756-Pad1)*
X9110000Y8970000D02*
X9100000Y8980000D01*
X7937500Y8700000D02*
X9139989Y8700000D01*
X9110000Y8050000D02*
X9110000Y8970000D01*
G04 #@! TO.N,Net-(C756-Pad2)*
X10875000Y8890900D02*
X10875000Y8784462D01*
X10875000Y8784462D02*
X10140538Y8050000D01*
X10140538Y8050000D02*
X10070000Y8050000D01*
G04 #@! TO.N,Net-(C757-Pad1)*
X4079216Y6670784D02*
X4575000Y6175000D01*
X3637500Y6670784D02*
X4079216Y6670784D01*
X6500000Y6100000D02*
X9190000Y6100000D01*
X9100000Y6150000D02*
X9100000Y7100000D01*
X4575000Y6175000D02*
X6425000Y6175000D01*
X6425000Y6175000D02*
X6500000Y6100000D01*
D19*
G04 #@! TO.N,Net-(C757-Pad2)*
X10620100Y5478906D02*
X10650000Y5508806D01*
D18*
X10453696Y7110000D02*
X10150000Y7110000D01*
X10620100Y7097004D02*
X10530400Y7186704D01*
X10670100Y5428906D02*
X10620100Y5478906D01*
D19*
X10650000Y7067104D02*
X10620100Y7097004D01*
X10650000Y5508806D02*
X10650000Y7067104D01*
D18*
X10530400Y7186704D02*
X10453696Y7110000D01*
G04 #@! TO.N,Net-(C759-Pad1)*
X7244981Y2250000D02*
X5953217Y2250000D01*
X7604434Y2609453D02*
X7244981Y2250000D01*
G04 #@! TO.N,output*
X3302605Y7620784D02*
X3637500Y7620784D01*
D19*
X3262437Y7620784D02*
X3637500Y7620784D01*
D18*
X3750669Y7507615D02*
X4705529Y7507615D01*
X3637500Y7620784D02*
X3750669Y7507615D01*
X2600000Y6958347D02*
X3262437Y7620784D01*
X4705529Y7507615D02*
X5413144Y6800000D01*
X2600000Y5150000D02*
X2600000Y6958347D01*
X5413144Y6800000D02*
X5462500Y6800000D01*
G04 #@! TO.N,analog_out*
X6200000Y5550000D02*
X6200000Y5096783D01*
X6200000Y5096783D02*
X5953217Y4850000D01*
G04 #@! TO.N,thresh_input*
X14800000Y6900000D02*
X14335000Y6900000D01*
X14335000Y6900000D02*
X14135000Y7100000D01*
G04 #@! TO.N,VR-*
X375000Y2840000D02*
X1410000Y2840000D01*
G04 #@! TO.N,VR+*
X375000Y1840000D02*
X786753Y1840000D01*
X786753Y1840000D02*
X1246753Y1380000D01*
G04 #@! TO.N,Net-(R755-Pad1)*
X7166110Y4522290D02*
X6881694Y4237874D01*
X6881694Y4237874D02*
X5991091Y4237874D01*
G04 #@! TO.N,Net-(R756-Pad2)*
X7300000Y3550000D02*
X5953217Y3550000D01*
X7325000Y3525000D02*
X7300000Y3550000D01*
G04 #@! TO.N,Net-(R761-Pad1)*
X11678217Y4850000D02*
X11678217Y4200000D01*
X11501207Y5432327D02*
X11501207Y5027010D01*
X11501207Y5027010D02*
X11678217Y4850000D01*
X12186182Y7100000D02*
X11290000Y6203818D01*
X11290000Y6203818D02*
X11290000Y6150000D01*
X11265000Y6150000D02*
X11265000Y5668534D01*
X12289462Y7100000D02*
X12186182Y7100000D01*
X11265000Y5668534D02*
X11501207Y5432327D01*
G04 #@! TO.N,Net-(R762-Pad1)*
X12091307Y5514600D02*
X12091307Y5956307D01*
X10225000Y4750000D02*
X9851117Y4376117D01*
X10750000Y1600000D02*
X11678217Y1600000D01*
X9851117Y4376117D02*
X9851117Y2498883D01*
X12091307Y5956307D02*
X12285000Y6150000D01*
X12778918Y1685100D02*
X13614900Y1685100D01*
X13614900Y1685100D02*
X14225000Y1075000D01*
X12693818Y1600000D02*
X12778918Y1685100D01*
X9851117Y2498883D02*
X10750000Y1600000D01*
X11678217Y1600000D02*
X12693818Y1600000D01*
G04 #@! TO.N,Net-(R763-Pad1)*
X11678217Y950000D02*
X10784953Y950000D01*
X11678217Y950000D02*
X12965000Y950000D01*
X10784953Y950000D02*
X10640500Y805547D01*
X12965000Y950000D02*
X13090000Y1075000D01*
G04 #@! TO.N,Net-(R769-Pad1)*
X7375000Y775000D02*
X7200000Y950000D01*
X5953217Y1600000D02*
X5953217Y950000D01*
X7200000Y950000D02*
X5953217Y950000D01*
G04 #@! TO.N,Net-(U752-Pad2)*
X5017155Y7957615D02*
X4642385Y7957615D01*
X6469298Y7750000D02*
X6169298Y7450000D01*
X4389116Y8210884D02*
X2760884Y8210884D01*
D19*
X1750000Y6709388D02*
X1750000Y6700000D01*
D18*
X5524770Y7450000D02*
X5017155Y7957615D01*
X2315100Y7765100D02*
X2315100Y7288489D01*
X2760884Y8210884D02*
X2315100Y7765100D01*
X2315100Y7288489D02*
X1750000Y6723389D01*
X6169298Y7450000D02*
X5524770Y7450000D01*
X1750000Y6108284D02*
X1362500Y5720784D01*
X1750000Y6723389D02*
X1750000Y6709388D01*
X1750000Y6700000D02*
X1750000Y6108284D01*
X4642385Y7957615D02*
X4389116Y8210884D01*
X7937500Y7750000D02*
X6469298Y7750000D01*
G04 #@! TD*
G04 #@! TA.AperFunction,Conductor*
G04 #@! TO.N,GND*
G36*
X10326106Y6385166D02*
G01*
X10362070Y6335666D01*
X10366915Y6305073D01*
X10366915Y5741378D01*
X10348008Y5683187D01*
X10342119Y5675844D01*
X10325971Y5657559D01*
X10318913Y5649567D01*
X10264071Y5532757D01*
X10244218Y5405249D01*
X10245133Y5398252D01*
X10245133Y5398251D01*
X10246399Y5388569D01*
X10256040Y5314848D01*
X10256413Y5311992D01*
X10245211Y5251841D01*
X10200792Y5209762D01*
X10171684Y5201071D01*
X10170282Y5200879D01*
X10163231Y5200922D01*
X10156455Y5198985D01*
X10156452Y5198985D01*
X10045935Y5167399D01*
X10045933Y5167398D01*
X10039155Y5165461D01*
X9930019Y5096601D01*
X9844596Y4999878D01*
X9789754Y4883068D01*
X9769901Y4755560D01*
X9770816Y4748563D01*
X9770816Y4748559D01*
X9771793Y4741088D01*
X9760590Y4680937D01*
X9743633Y4658249D01*
X9682386Y4597002D01*
X9667384Y4584691D01*
X9652493Y4574741D01*
X9639677Y4555560D01*
X9637127Y4551744D01*
X9637123Y4551739D01*
X9621161Y4527850D01*
X9599541Y4495493D01*
X9591602Y4483612D01*
X9577283Y4411625D01*
X9570220Y4376117D01*
X9572122Y4366556D01*
X9573715Y4358548D01*
X9575617Y4339233D01*
X9575617Y2535767D01*
X9573715Y2516454D01*
X9570220Y2498883D01*
X9572122Y2489321D01*
X9575617Y2471751D01*
X9575617Y2471750D01*
X9588496Y2407004D01*
X9591602Y2391388D01*
X9615637Y2355418D01*
X9636241Y2324582D01*
X9652493Y2300259D01*
X9660603Y2294840D01*
X9667384Y2290309D01*
X9682386Y2277998D01*
X10529115Y1431269D01*
X10541426Y1416267D01*
X10551376Y1401376D01*
X10554874Y1399038D01*
X10581062Y1347641D01*
X10571491Y1287209D01*
X10528226Y1243944D01*
X10510487Y1236966D01*
X10461440Y1222948D01*
X10461435Y1222946D01*
X10454655Y1221008D01*
X10345519Y1152148D01*
X10260096Y1055425D01*
X10205254Y938615D01*
X10185401Y811107D01*
X10186316Y804110D01*
X10186316Y804109D01*
X10189627Y778790D01*
X10202133Y683153D01*
X10204971Y676702D01*
X10204972Y676700D01*
X10236741Y604500D01*
X10254105Y565037D01*
X10286215Y526838D01*
X10332600Y471655D01*
X10332603Y471653D01*
X10337139Y466256D01*
X10444560Y394751D01*
X10451288Y392649D01*
X10451290Y392648D01*
X10506147Y375510D01*
X10567733Y356269D01*
X10632244Y355086D01*
X10689702Y354033D01*
X10689704Y354033D01*
X10696755Y353904D01*
X10703558Y355759D01*
X10703560Y355759D01*
X10748869Y368112D01*
X10821255Y387847D01*
X10931224Y455368D01*
X10995916Y526838D01*
X11013089Y545811D01*
X11017822Y551040D01*
X11020334Y556225D01*
X11068082Y593530D01*
X11101942Y599500D01*
X12340391Y599500D01*
X12413457Y614034D01*
X12447267Y636625D01*
X12478983Y657816D01*
X12533984Y674500D01*
X12727955Y674500D01*
X12783887Y657186D01*
X12784438Y656809D01*
X12790908Y650350D01*
X12888183Y607345D01*
X12912585Y604500D01*
X13087768Y604500D01*
X13267414Y604501D01*
X13270329Y604848D01*
X13270334Y604848D01*
X13284930Y606584D01*
X13284932Y606584D01*
X13292310Y607462D01*
X13357965Y636625D01*
X13381154Y646925D01*
X13381156Y646926D01*
X13389510Y650637D01*
X13408240Y669399D01*
X13458195Y719442D01*
X13464650Y725908D01*
X13507655Y823183D01*
X13508959Y822607D01*
X13538033Y866950D01*
X13595250Y888626D01*
X13654280Y872531D01*
X13692146Y825348D01*
X13692462Y822690D01*
X13695478Y815900D01*
X13731739Y734266D01*
X13735637Y725490D01*
X13810908Y650350D01*
X13908183Y607345D01*
X13932585Y604500D01*
X14107768Y604500D01*
X14287414Y604501D01*
X14290329Y604848D01*
X14290334Y604848D01*
X14304930Y606584D01*
X14304932Y606584D01*
X14312310Y607462D01*
X14377965Y636625D01*
X14401154Y646925D01*
X14401156Y646926D01*
X14409510Y650637D01*
X14428240Y669399D01*
X14478195Y719442D01*
X14484650Y725908D01*
X14527655Y823183D01*
X14530500Y847585D01*
X14530499Y1302414D01*
X14529770Y1308548D01*
X14528416Y1319930D01*
X14528416Y1319932D01*
X14527538Y1327310D01*
X14497847Y1394153D01*
X14488075Y1416154D01*
X14488074Y1416156D01*
X14484363Y1424510D01*
X14409092Y1499650D01*
X14318194Y1539836D01*
X14272618Y1580657D01*
X14259741Y1640471D01*
X14284480Y1696432D01*
X14326368Y1722303D01*
X14325993Y1723170D01*
X14331938Y1725743D01*
X14332183Y1725894D01*
X14332466Y1725971D01*
X14332471Y1725973D01*
X14339271Y1727827D01*
X14449240Y1795348D01*
X14473616Y1822278D01*
X14531106Y1885792D01*
X14531106Y1885793D01*
X14535838Y1891020D01*
X14592104Y2007152D01*
X14606170Y2090761D01*
X14612879Y2130636D01*
X14612879Y2130641D01*
X14613513Y2134407D01*
X14613649Y2145527D01*
X14595355Y2273268D01*
X14545222Y2383530D01*
X14538349Y2444326D01*
X14565340Y2494508D01*
X14621685Y2550853D01*
X14631469Y2564826D01*
X14675278Y2658776D01*
X14676040Y2661388D01*
X14674708Y2668569D01*
X14673406Y2669805D01*
X14668126Y2671000D01*
X14050000Y2671000D01*
X13991809Y2689907D01*
X13955845Y2739407D01*
X13951000Y2770000D01*
X13951000Y3194680D01*
X14459000Y3194680D01*
X14463122Y3181995D01*
X14467243Y3179000D01*
X14663506Y3179000D01*
X14676191Y3183122D01*
X14677225Y3184545D01*
X14675278Y3191224D01*
X14631469Y3285174D01*
X14621685Y3299147D01*
X14607301Y3313531D01*
X14579524Y3368048D01*
X14589095Y3428480D01*
X14607301Y3453538D01*
X14642523Y3488761D01*
X14652309Y3502738D01*
X14695375Y3595091D01*
X14698788Y3606801D01*
X14696607Y3618569D01*
X14695304Y3619805D01*
X14690023Y3621000D01*
X14504680Y3621000D01*
X14491995Y3616878D01*
X14489000Y3612757D01*
X14489000Y3380216D01*
X14470093Y3322025D01*
X14459000Y3306757D01*
X14459000Y3194680D01*
X13951000Y3194680D01*
X13951000Y3409784D01*
X13969907Y3467975D01*
X13981000Y3483243D01*
X13981000Y4030000D01*
X13999907Y4088191D01*
X14049407Y4124155D01*
X14080000Y4129000D01*
X14685404Y4129000D01*
X14698089Y4133122D01*
X14699145Y4134574D01*
X14699640Y4139967D01*
X14699566Y4140530D01*
X14695375Y4154909D01*
X14652309Y4247262D01*
X14642526Y4261235D01*
X14572327Y4331434D01*
X14544550Y4385951D01*
X14554121Y4446383D01*
X14572266Y4471380D01*
X14607392Y4506567D01*
X14607393Y4506569D01*
X14613847Y4513034D01*
X14621471Y4530278D01*
X14647922Y4590110D01*
X14657605Y4612013D01*
X14660500Y4636842D01*
X14660500Y5063158D01*
X14657486Y5088489D01*
X14647343Y5111325D01*
X14641000Y5172180D01*
X14671639Y5225141D01*
X14727556Y5249979D01*
X14739629Y5250495D01*
X14797172Y5249440D01*
X14849202Y5248486D01*
X14849204Y5248486D01*
X14856255Y5248357D01*
X14863058Y5250212D01*
X14863060Y5250212D01*
X14973951Y5280445D01*
X14980755Y5282300D01*
X14986711Y5285957D01*
X15047595Y5291713D01*
X15100260Y5260568D01*
X15124561Y5204415D01*
X15125000Y5195097D01*
X15125000Y124500D01*
X15106093Y66309D01*
X15056593Y30345D01*
X15026000Y25500D01*
X124500Y25500D01*
X66309Y44407D01*
X30345Y93907D01*
X25500Y124500D01*
X25500Y1079127D01*
X44407Y1137318D01*
X93907Y1173282D01*
X149623Y1174886D01*
X259876Y1145961D01*
X311364Y1112906D01*
X333753Y1050202D01*
X333753Y859306D01*
X336655Y822431D01*
X338065Y817577D01*
X338066Y817573D01*
X376101Y686658D01*
X382509Y664602D01*
X418053Y604500D01*
X462650Y529091D01*
X466172Y523135D01*
X582388Y406919D01*
X587744Y403751D01*
X587746Y403750D01*
X602963Y394751D01*
X723855Y323256D01*
X729839Y321518D01*
X729840Y321517D01*
X876826Y278813D01*
X876830Y278812D01*
X881684Y277402D01*
X886724Y277005D01*
X886726Y277005D01*
X903092Y275717D01*
X918559Y274500D01*
X1574947Y274500D01*
X1590414Y275717D01*
X1606780Y277005D01*
X1606782Y277005D01*
X1611822Y277402D01*
X1616676Y278812D01*
X1616680Y278813D01*
X1763666Y321517D01*
X1763667Y321518D01*
X1769651Y323256D01*
X1890543Y394751D01*
X1905760Y403750D01*
X1905762Y403751D01*
X1911118Y406919D01*
X2027334Y523135D01*
X2030857Y529091D01*
X2075453Y604500D01*
X2110997Y664602D01*
X2117405Y686658D01*
X2155440Y817573D01*
X2155441Y817577D01*
X2156851Y822431D01*
X2159753Y859306D01*
X2159753Y1890694D01*
X2156851Y1927569D01*
X2152482Y1942609D01*
X2112736Y2079413D01*
X2112735Y2079414D01*
X2110997Y2085398D01*
X2035205Y2213556D01*
X2030503Y2221507D01*
X2030502Y2221509D01*
X2027334Y2226865D01*
X1987203Y2266996D01*
X1959426Y2321513D01*
X1968997Y2381945D01*
X1987203Y2407004D01*
X2027334Y2447135D01*
X2051797Y2488499D01*
X2070024Y2519320D01*
X2110997Y2588602D01*
X2118670Y2615013D01*
X2155440Y2741573D01*
X2155441Y2741577D01*
X2156851Y2746431D01*
X2157874Y2759423D01*
X2159600Y2781364D01*
X2159753Y2783306D01*
X2159753Y3814694D01*
X2157426Y3844263D01*
X2171710Y3903758D01*
X2218236Y3943494D01*
X2279233Y3948295D01*
X2285643Y3946526D01*
X2346363Y3927556D01*
X2396268Y3892156D01*
X2415835Y3834184D01*
X2414622Y3817577D01*
X2408753Y3780519D01*
X2408754Y2817482D01*
X2423607Y2723696D01*
X2441239Y2689092D01*
X2474427Y2623957D01*
X2481203Y2610658D01*
X2570911Y2520950D01*
X2577848Y2517415D01*
X2577850Y2517414D01*
X2677009Y2466890D01*
X2683949Y2463354D01*
X2691643Y2462135D01*
X2691644Y2462135D01*
X2773888Y2449109D01*
X2773890Y2449109D01*
X2777734Y2448500D01*
X3071715Y2448500D01*
X3365771Y2448501D01*
X3369614Y2449110D01*
X3369619Y2449110D01*
X3406470Y2454947D01*
X3459557Y2463354D01*
X3520973Y2494647D01*
X3565656Y2517414D01*
X3565658Y2517415D01*
X3572595Y2520950D01*
X3662303Y2610658D01*
X3669080Y2623957D01*
X3716363Y2716756D01*
X3716363Y2716757D01*
X3719899Y2723696D01*
X3722388Y2739407D01*
X3734144Y2813635D01*
X3734144Y2813637D01*
X3734753Y2817481D01*
X3734752Y3328744D01*
X3753659Y3386934D01*
X3803159Y3422898D01*
X3864344Y3422898D01*
X3913845Y3386934D01*
X3923476Y3370583D01*
X3939969Y3335214D01*
X3949752Y3321242D01*
X4022287Y3248707D01*
X4041229Y3235445D01*
X4078053Y3186581D01*
X4079123Y3125405D01*
X4054513Y3084404D01*
X3989045Y3018822D01*
X3989044Y3018820D01*
X3982590Y3012355D01*
X3938832Y2913376D01*
X3935937Y2888547D01*
X3935937Y2522231D01*
X3936283Y2519326D01*
X3936283Y2519320D01*
X3937662Y2507735D01*
X3938951Y2496900D01*
X3982881Y2397998D01*
X3989347Y2391543D01*
X3989348Y2391542D01*
X4001995Y2378917D01*
X4026009Y2354946D01*
X4044971Y2336017D01*
X4072797Y2281525D01*
X4063278Y2221084D01*
X4045095Y2196011D01*
X3986153Y2136966D01*
X3982459Y2128611D01*
X3982458Y2128609D01*
X3971033Y2102766D01*
X3942395Y2037987D01*
X3939500Y2013158D01*
X3939500Y1646842D01*
X3942514Y1621511D01*
X3986444Y1522609D01*
X4058023Y1451155D01*
X4085847Y1396665D01*
X4076329Y1336225D01*
X4044862Y1299994D01*
X4025851Y1286683D01*
X3953315Y1214147D01*
X3938565Y1193081D01*
X3937249Y1194003D01*
X3902332Y1156558D01*
X3842271Y1144883D01*
X3817633Y1151901D01*
X3816306Y1152761D01*
X3809548Y1154782D01*
X3809546Y1154783D01*
X3805383Y1156028D01*
X3755051Y1190818D01*
X3734753Y1250876D01*
X3734752Y1852624D01*
X3734752Y1856518D01*
X3733681Y1863285D01*
X3723906Y1925000D01*
X3719899Y1950304D01*
X3687389Y2014109D01*
X3665839Y2056403D01*
X3665838Y2056405D01*
X3662303Y2063342D01*
X3572595Y2153050D01*
X3565658Y2156585D01*
X3565656Y2156586D01*
X3466497Y2207110D01*
X3466496Y2207110D01*
X3459557Y2210646D01*
X3451863Y2211865D01*
X3451862Y2211865D01*
X3369618Y2224891D01*
X3369616Y2224891D01*
X3365772Y2225500D01*
X3071791Y2225500D01*
X2777735Y2225499D01*
X2773892Y2224890D01*
X2773887Y2224890D01*
X2749857Y2221084D01*
X2683949Y2210646D01*
X2646870Y2191753D01*
X2577850Y2156586D01*
X2577848Y2156585D01*
X2570911Y2153050D01*
X2481203Y2063342D01*
X2477668Y2056405D01*
X2477667Y2056403D01*
X2427143Y1957244D01*
X2423607Y1950304D01*
X2422388Y1942610D01*
X2422388Y1942609D01*
X2409817Y1863238D01*
X2408753Y1856519D01*
X2408754Y893482D01*
X2423607Y799696D01*
X2441856Y763880D01*
X2464708Y719032D01*
X2481203Y686658D01*
X2570911Y596950D01*
X2577848Y593415D01*
X2577850Y593414D01*
X2651554Y555860D01*
X2683949Y539354D01*
X2691643Y538135D01*
X2691644Y538135D01*
X2773888Y525109D01*
X2773890Y525109D01*
X2777734Y524500D01*
X2806849Y524500D01*
X3171535Y524501D01*
X3229726Y505594D01*
X3247318Y489203D01*
X3317500Y405710D01*
X3317503Y405708D01*
X3322039Y400311D01*
X3429460Y328806D01*
X3436188Y326704D01*
X3436190Y326703D01*
X3491047Y309565D01*
X3552633Y290324D01*
X3617144Y289141D01*
X3674602Y288088D01*
X3674604Y288088D01*
X3681655Y287959D01*
X3688458Y289814D01*
X3688460Y289814D01*
X3730228Y301202D01*
X3806155Y321902D01*
X3916124Y389423D01*
X3938255Y413873D01*
X3991324Y444326D01*
X4053491Y437160D01*
X4133782Y399720D01*
X4136388Y398960D01*
X4143569Y400292D01*
X4144805Y401594D01*
X4146000Y406874D01*
X4146000Y1025000D01*
X4164907Y1083191D01*
X4214407Y1119155D01*
X4245000Y1124000D01*
X4555000Y1124000D01*
X4613191Y1105093D01*
X4649155Y1055593D01*
X4654000Y1025000D01*
X4654000Y411494D01*
X4658122Y398809D01*
X4659545Y397775D01*
X4666224Y399722D01*
X4760174Y443531D01*
X4774147Y453315D01*
X4846685Y525853D01*
X4856469Y539826D01*
X4900278Y633775D01*
X4904470Y648157D01*
X4909578Y686956D01*
X4909604Y687349D01*
X4909643Y687446D01*
X4910000Y690160D01*
X4910690Y690069D01*
X4932283Y744176D01*
X4984032Y776820D01*
X5045086Y772811D01*
X5090707Y735863D01*
X5123058Y687446D01*
X5135116Y669399D01*
X5143226Y663980D01*
X5155778Y655593D01*
X5217977Y614034D01*
X5291043Y599500D01*
X6615391Y599500D01*
X6688457Y614034D01*
X6722267Y636625D01*
X6753983Y657816D01*
X6808984Y674500D01*
X6862400Y674500D01*
X6920591Y655593D01*
X6953016Y615372D01*
X6983624Y545811D01*
X6988605Y534490D01*
X7012895Y505594D01*
X7067100Y441108D01*
X7067103Y441106D01*
X7071639Y435709D01*
X7179060Y364204D01*
X7185788Y362102D01*
X7185790Y362101D01*
X7211615Y354033D01*
X7302233Y325722D01*
X7366744Y324539D01*
X7424202Y323486D01*
X7424204Y323486D01*
X7431255Y323357D01*
X7438058Y325212D01*
X7438060Y325212D01*
X7479828Y336600D01*
X7555755Y357300D01*
X7665724Y424821D01*
X7680466Y441108D01*
X7747590Y515265D01*
X7747590Y515266D01*
X7752322Y520493D01*
X7808588Y636625D01*
X7822521Y719442D01*
X7829363Y760109D01*
X7829363Y760114D01*
X7829997Y763880D01*
X7830133Y775000D01*
X7811839Y902741D01*
X7758428Y1020212D01*
X7674193Y1117972D01*
X7668276Y1121807D01*
X7668274Y1121809D01*
X7661767Y1126026D01*
X7623220Y1173542D01*
X7619964Y1234641D01*
X7653243Y1285985D01*
X7676105Y1299844D01*
X7682706Y1301644D01*
X7688716Y1305334D01*
X7688718Y1305335D01*
X7786662Y1365473D01*
X7792675Y1369165D01*
X7807920Y1386007D01*
X7874541Y1459609D01*
X7874541Y1459610D01*
X7879273Y1464837D01*
X7935539Y1580969D01*
X7952009Y1678865D01*
X7956314Y1704453D01*
X7956314Y1704458D01*
X7956948Y1708224D01*
X7957084Y1719344D01*
X7938790Y1847085D01*
X7908346Y1914042D01*
X7888300Y1958132D01*
X7888299Y1958133D01*
X7885379Y1964556D01*
X7801144Y2062316D01*
X7802795Y2063738D01*
X7776621Y2107478D01*
X7782064Y2168421D01*
X7821323Y2213939D01*
X7889145Y2255582D01*
X7895158Y2259274D01*
X7902148Y2266996D01*
X7977024Y2349718D01*
X7977024Y2349719D01*
X7981756Y2354946D01*
X8027378Y2449109D01*
X8034946Y2464729D01*
X8034946Y2464730D01*
X8038022Y2471078D01*
X8050359Y2544407D01*
X8058797Y2594562D01*
X8058797Y2594567D01*
X8059431Y2598333D01*
X8059567Y2609453D01*
X8041273Y2737194D01*
X7987862Y2854665D01*
X7903627Y2952425D01*
X7897710Y2956260D01*
X7897708Y2956262D01*
X7811165Y3012355D01*
X7795340Y3022612D01*
X7788585Y3024632D01*
X7788581Y3024634D01*
X7695892Y3052354D01*
X7645558Y3087142D01*
X7625285Y3144871D01*
X7642817Y3203491D01*
X7650861Y3213640D01*
X7697590Y3265265D01*
X7697590Y3265266D01*
X7702322Y3270493D01*
X7758588Y3386625D01*
X7772274Y3467975D01*
X7779363Y3510109D01*
X7779363Y3510114D01*
X7779997Y3513880D01*
X7780133Y3525000D01*
X7761839Y3652741D01*
X7722993Y3738178D01*
X7711349Y3763788D01*
X7711348Y3763789D01*
X7708428Y3770212D01*
X7624193Y3867972D01*
X7618276Y3871807D01*
X7618274Y3871809D01*
X7533849Y3926529D01*
X7515906Y3938159D01*
X7509150Y3940179D01*
X7509149Y3940180D01*
X7431993Y3963255D01*
X7381660Y3998043D01*
X7361387Y4055772D01*
X7378919Y4114392D01*
X7408559Y4142470D01*
X7450821Y4168419D01*
X7456834Y4172111D01*
X7540918Y4265005D01*
X7543432Y4267783D01*
X7544188Y4267099D01*
X7587284Y4300765D01*
X7648432Y4302896D01*
X7699155Y4268679D01*
X7719302Y4220569D01*
X7727483Y4158006D01*
X7730321Y4151555D01*
X7730322Y4151553D01*
X7773350Y4053765D01*
X7779455Y4039890D01*
X7810117Y4003413D01*
X7857950Y3946508D01*
X7857953Y3946506D01*
X7862489Y3941109D01*
X7969910Y3869604D01*
X7976638Y3867502D01*
X7976640Y3867501D01*
X8027636Y3851569D01*
X8093083Y3831122D01*
X8157594Y3829940D01*
X8215052Y3828886D01*
X8215054Y3828886D01*
X8222105Y3828757D01*
X8228908Y3830612D01*
X8228910Y3830612D01*
X8270678Y3842000D01*
X8346605Y3862700D01*
X8456574Y3930221D01*
X8463759Y3938159D01*
X8538440Y4020665D01*
X8538440Y4020666D01*
X8543172Y4025893D01*
X8594952Y4132765D01*
X8596362Y4135676D01*
X8596362Y4135677D01*
X8599438Y4142025D01*
X8617143Y4247262D01*
X8620213Y4265509D01*
X8620213Y4265514D01*
X8620847Y4269280D01*
X8620983Y4280400D01*
X8602689Y4408141D01*
X8572722Y4474050D01*
X8552199Y4519188D01*
X8552198Y4519189D01*
X8549278Y4525612D01*
X8487765Y4597002D01*
X8469648Y4618028D01*
X8469647Y4618029D01*
X8465043Y4623372D01*
X8459126Y4627207D01*
X8459124Y4627209D01*
X8362674Y4689723D01*
X8356756Y4693559D01*
X8350000Y4695579D01*
X8349999Y4695580D01*
X8294637Y4712137D01*
X8233123Y4730534D01*
X8156494Y4731002D01*
X8111132Y4731279D01*
X8104081Y4731322D01*
X8097304Y4729385D01*
X8097303Y4729385D01*
X7986785Y4697799D01*
X7986783Y4697798D01*
X7980005Y4695861D01*
X7870869Y4627001D01*
X7785446Y4530278D01*
X7783057Y4532388D01*
X7745776Y4502543D01*
X7684657Y4499683D01*
X7633530Y4533295D01*
X7612816Y4581131D01*
X7610280Y4598843D01*
X7602949Y4650031D01*
X7565988Y4731322D01*
X7552459Y4761078D01*
X7552458Y4761079D01*
X7549538Y4767502D01*
X7465303Y4865262D01*
X7459386Y4869097D01*
X7459384Y4869099D01*
X7362934Y4931613D01*
X7357016Y4935449D01*
X7350260Y4937469D01*
X7350259Y4937470D01*
X7263282Y4963482D01*
X7233383Y4972424D01*
X7156754Y4972892D01*
X7111392Y4973169D01*
X7104341Y4973212D01*
X7097564Y4971275D01*
X7097563Y4971275D01*
X6987048Y4939690D01*
X6987045Y4939689D01*
X6980265Y4937751D01*
X6974297Y4933985D01*
X6972832Y4933330D01*
X6911993Y4926827D01*
X6858951Y4957326D01*
X6835307Y5004385D01*
X6830377Y5029168D01*
X6826683Y5047740D01*
X6771318Y5130601D01*
X6758928Y5138880D01*
X6716245Y5167399D01*
X6688457Y5185966D01*
X6664321Y5190767D01*
X6610936Y5220663D01*
X6585320Y5276228D01*
X6594540Y5331031D01*
X6630512Y5405276D01*
X6630512Y5405277D01*
X6633588Y5411625D01*
X6650812Y5514004D01*
X6654363Y5535109D01*
X6654363Y5535114D01*
X6654997Y5538880D01*
X6655133Y5550000D01*
X6636839Y5677741D01*
X6633755Y5684524D01*
X6633718Y5684850D01*
X6631940Y5690931D01*
X6632996Y5691240D01*
X6626882Y5745323D01*
X6657058Y5798549D01*
X6712756Y5823873D01*
X6723877Y5824500D01*
X8653616Y5824500D01*
X8711807Y5805593D01*
X8723559Y5795564D01*
X8787354Y5731880D01*
X8787356Y5731878D01*
X8793823Y5725423D01*
X8891098Y5682418D01*
X8915500Y5679573D01*
X9090683Y5679573D01*
X9270329Y5679574D01*
X9273244Y5679921D01*
X9273249Y5679921D01*
X9287845Y5681657D01*
X9287847Y5681657D01*
X9295225Y5682535D01*
X9350393Y5707040D01*
X9384069Y5721998D01*
X9384071Y5721999D01*
X9392425Y5725710D01*
X9467565Y5800981D01*
X9485145Y5840746D01*
X9525968Y5886322D01*
X9585783Y5899199D01*
X9641743Y5874459D01*
X9665416Y5842554D01*
X9695607Y5777808D01*
X9705389Y5763838D01*
X9776680Y5692547D01*
X9790653Y5682764D01*
X9844703Y5657559D01*
X9856011Y5656171D01*
X9858915Y5662398D01*
X9858915Y6305073D01*
X9877822Y6363264D01*
X9927322Y6399228D01*
X9957915Y6404073D01*
X10267915Y6404073D01*
X10326106Y6385166D01*
G37*
G04 #@! TD.AperFunction*
G04 #@! TA.AperFunction,Conductor*
G36*
X10813743Y4634644D02*
G01*
X10827473Y4618252D01*
X10853031Y4580002D01*
X10869640Y4521114D01*
X10853032Y4469999D01*
X10804751Y4397740D01*
X10790217Y4324674D01*
X10790217Y4075326D01*
X10804751Y4002260D01*
X10810168Y3994153D01*
X10853032Y3930001D01*
X10869640Y3871112D01*
X10853032Y3819999D01*
X10837945Y3797420D01*
X10804751Y3747740D01*
X10790217Y3674674D01*
X10790217Y3425326D01*
X10804751Y3352260D01*
X10810168Y3344153D01*
X10810169Y3344150D01*
X10825276Y3321540D01*
X10841884Y3262652D01*
X10820705Y3205248D01*
X10813024Y3196597D01*
X10795350Y3178892D01*
X10785200Y3164069D01*
X10763216Y3114340D01*
X10762055Y3103009D01*
X10768861Y3100000D01*
X12583923Y3100000D01*
X12594758Y3103521D01*
X12594758Y3110908D01*
X12583918Y3135312D01*
X12577575Y3196168D01*
X12608214Y3249129D01*
X12664132Y3273967D01*
X12674394Y3274500D01*
X12719347Y3274500D01*
X12777538Y3255593D01*
X12813502Y3206093D01*
X12814523Y3163322D01*
X12817395Y3162987D01*
X12814500Y3138158D01*
X12814500Y2817614D01*
X12795593Y2759423D01*
X12746093Y2723459D01*
X12725415Y2720249D01*
X12725511Y2719551D01*
X12718523Y2718594D01*
X12711472Y2718637D01*
X12645073Y2699660D01*
X12604672Y2701106D01*
X12604596Y2699614D01*
X12597036Y2700000D01*
X10772511Y2700000D01*
X10761676Y2696479D01*
X10761676Y2689092D01*
X10785487Y2635486D01*
X10795664Y2620679D01*
X10812881Y2603491D01*
X10840706Y2548999D01*
X10831187Y2488558D01*
X10825254Y2478427D01*
X10810169Y2455850D01*
X10810168Y2455847D01*
X10804751Y2447740D01*
X10790217Y2374674D01*
X10790217Y2188407D01*
X10771310Y2130216D01*
X10721810Y2094252D01*
X10660624Y2094252D01*
X10621213Y2118403D01*
X10155613Y2584003D01*
X10127836Y2638520D01*
X10126617Y2654007D01*
X10126617Y4200361D01*
X10145524Y4258552D01*
X10195024Y4294516D01*
X10227429Y4299344D01*
X10256733Y4298806D01*
X10274202Y4298486D01*
X10274204Y4298486D01*
X10281255Y4298357D01*
X10288058Y4300212D01*
X10288060Y4300212D01*
X10346210Y4316066D01*
X10405755Y4332300D01*
X10515724Y4399821D01*
X10520459Y4405052D01*
X10597590Y4490265D01*
X10597590Y4490266D01*
X10602322Y4495493D01*
X10656064Y4606416D01*
X10698452Y4650540D01*
X10758680Y4661322D01*
X10813743Y4634644D01*
G37*
G04 #@! TD.AperFunction*
G04 #@! TA.AperFunction,Conductor*
G36*
X14412933Y9706093D02*
G01*
X14448897Y9656593D01*
X14448897Y9595407D01*
X14428946Y9560466D01*
X14424266Y9555166D01*
X14419596Y9549878D01*
X14416601Y9543498D01*
X14416598Y9543494D01*
X14392251Y9491635D01*
X14350406Y9446996D01*
X14290314Y9435478D01*
X14285758Y9436380D01*
X14282987Y9437605D01*
X14258158Y9440500D01*
X13891842Y9440500D01*
X13888937Y9440154D01*
X13888931Y9440154D01*
X13873887Y9438364D01*
X13873885Y9438363D01*
X13866511Y9437486D01*
X13767609Y9393556D01*
X13761154Y9387090D01*
X13761153Y9387089D01*
X13742285Y9368187D01*
X13696155Y9321977D01*
X13641665Y9294153D01*
X13581225Y9303671D01*
X13544994Y9335138D01*
X13531683Y9354149D01*
X13459147Y9426685D01*
X13445174Y9436469D01*
X13383212Y9465362D01*
X13371904Y9466750D01*
X13369000Y9460523D01*
X13369000Y8513079D01*
X13350093Y8454888D01*
X13335222Y8444084D01*
X13319000Y8421757D01*
X13319000Y7895000D01*
X13300093Y7836809D01*
X13250593Y7800845D01*
X13220000Y7796000D01*
X12050000Y7796000D01*
X11991809Y7814907D01*
X11955845Y7864407D01*
X11951000Y7895000D01*
X11951000Y8319680D01*
X12459000Y8319680D01*
X12463122Y8306995D01*
X12467243Y8304000D01*
X12795320Y8304000D01*
X12808005Y8308122D01*
X12811000Y8312243D01*
X12811000Y8516921D01*
X12829907Y8575112D01*
X12844778Y8585916D01*
X12861000Y8608243D01*
X12861000Y8710320D01*
X12856878Y8723005D01*
X12852757Y8726000D01*
X12656494Y8726000D01*
X12643809Y8721878D01*
X12642775Y8720455D01*
X12644721Y8713779D01*
X12685221Y8626927D01*
X12692678Y8566197D01*
X12663015Y8512683D01*
X12607563Y8486825D01*
X12547501Y8498499D01*
X12538718Y8503987D01*
X12535173Y8506469D01*
X12473212Y8535362D01*
X12461904Y8536750D01*
X12459000Y8530523D01*
X12459000Y8319680D01*
X11951000Y8319680D01*
X11951000Y8390985D01*
X11969907Y8449176D01*
X11976603Y8457422D01*
X11977566Y8458485D01*
X12001850Y8485314D01*
X12058116Y8601446D01*
X12071386Y8680320D01*
X12078891Y8724930D01*
X12078891Y8724935D01*
X12079525Y8728701D01*
X12079661Y8739821D01*
X12061367Y8867562D01*
X12028060Y8940816D01*
X12010877Y8978609D01*
X12010876Y8978610D01*
X12007956Y8985033D01*
X11923721Y9082793D01*
X11917804Y9086628D01*
X11917802Y9086630D01*
X11847341Y9132299D01*
X11815434Y9152980D01*
X11808678Y9155000D01*
X11808677Y9155001D01*
X11717604Y9182238D01*
X11691801Y9189955D01*
X11615172Y9190423D01*
X11569810Y9190700D01*
X11562759Y9190743D01*
X11555982Y9188806D01*
X11555981Y9188806D01*
X11445463Y9157220D01*
X11445461Y9157219D01*
X11438683Y9155282D01*
X11395419Y9127984D01*
X11383356Y9120373D01*
X11324053Y9105312D01*
X11267224Y9127984D01*
X11255529Y9139477D01*
X11178798Y9228528D01*
X11178797Y9228529D01*
X11174193Y9233872D01*
X11168276Y9237707D01*
X11168274Y9237709D01*
X11159167Y9243612D01*
X12643960Y9243612D01*
X12645292Y9236431D01*
X12646594Y9235195D01*
X12651874Y9234000D01*
X12845320Y9234000D01*
X12858005Y9238122D01*
X12861000Y9242243D01*
X12861000Y9456309D01*
X12857479Y9467144D01*
X12850610Y9467144D01*
X12784826Y9436469D01*
X12770853Y9426685D01*
X12698315Y9354147D01*
X12688531Y9340174D01*
X12644722Y9246224D01*
X12643960Y9243612D01*
X11159167Y9243612D01*
X11071824Y9300223D01*
X11065906Y9304059D01*
X11059150Y9306079D01*
X11059149Y9306080D01*
X10982203Y9329092D01*
X10942273Y9341034D01*
X10865644Y9341502D01*
X10820282Y9341779D01*
X10813231Y9341822D01*
X10806454Y9339885D01*
X10806453Y9339885D01*
X10695935Y9308299D01*
X10695933Y9308298D01*
X10689155Y9306361D01*
X10683191Y9302598D01*
X10683189Y9302597D01*
X10667968Y9292993D01*
X10608665Y9277931D01*
X10551835Y9300603D01*
X10525414Y9334881D01*
X10517309Y9352263D01*
X10507526Y9366235D01*
X10436235Y9437526D01*
X10422262Y9447309D01*
X10368212Y9472514D01*
X10356904Y9473902D01*
X10354000Y9467675D01*
X10354000Y8825000D01*
X10335093Y8766809D01*
X10285593Y8730845D01*
X10255000Y8726000D01*
X9945000Y8726000D01*
X9886809Y8744907D01*
X9850845Y8794407D01*
X9846000Y8825000D01*
X9846000Y9463461D01*
X9842479Y9474296D01*
X9835610Y9474296D01*
X9777738Y9447309D01*
X9763765Y9437526D01*
X9692474Y9366235D01*
X9682690Y9352262D01*
X9652490Y9287498D01*
X9610762Y9242750D01*
X9550700Y9231076D01*
X9495248Y9256934D01*
X9472290Y9289150D01*
X9465189Y9305138D01*
X9454363Y9329510D01*
X9444845Y9339012D01*
X9397763Y9386011D01*
X9379092Y9404650D01*
X9281817Y9447655D01*
X9257415Y9450500D01*
X9082232Y9450500D01*
X8902586Y9450499D01*
X8899671Y9450152D01*
X8899666Y9450152D01*
X8885070Y9448416D01*
X8885068Y9448416D01*
X8877690Y9447538D01*
X8845114Y9433068D01*
X8788846Y9408075D01*
X8788844Y9408074D01*
X8780490Y9404363D01*
X8774033Y9397895D01*
X8774032Y9397894D01*
X8763360Y9387203D01*
X8705350Y9329092D01*
X8662345Y9231817D01*
X8659500Y9207415D01*
X8659500Y9104580D01*
X8640593Y9046389D01*
X8591093Y9010425D01*
X8529907Y9010425D01*
X8490557Y9034516D01*
X8429182Y9095784D01*
X8429180Y9095786D01*
X8422713Y9102241D01*
X8381700Y9120373D01*
X8327136Y9144496D01*
X8327134Y9144496D01*
X8320327Y9147506D01*
X8306277Y9149144D01*
X8297494Y9150168D01*
X8297493Y9150168D01*
X8294646Y9150500D01*
X7180354Y9150500D01*
X7163951Y9148548D01*
X7161531Y9148260D01*
X7161530Y9148260D01*
X7154154Y9147382D01*
X7051847Y9101939D01*
X7045390Y9095471D01*
X7045389Y9095470D01*
X7014740Y9064767D01*
X6972759Y9022713D01*
X6959884Y8993591D01*
X6930986Y8928225D01*
X6927494Y8920327D01*
X6924500Y8894646D01*
X6924500Y8505354D01*
X6927618Y8479154D01*
X6973061Y8376847D01*
X6979529Y8370390D01*
X6979530Y8370389D01*
X7052287Y8297759D01*
X7050485Y8295954D01*
X7079562Y8258196D01*
X7081271Y8197035D01*
X7049943Y8153839D01*
X7051847Y8151939D01*
X6972759Y8072713D01*
X6970399Y8067374D01*
X6923471Y8031236D01*
X6890262Y8025500D01*
X6506182Y8025500D01*
X6486869Y8027402D01*
X6469298Y8030897D01*
X6459736Y8028995D01*
X6453122Y8028995D01*
X6394931Y8047902D01*
X6358967Y8097402D01*
X6354573Y8136358D01*
X6354997Y8138880D01*
X6355133Y8150000D01*
X6336839Y8277741D01*
X6283428Y8395212D01*
X6281628Y8397301D01*
X6266705Y8454607D01*
X6269825Y8473608D01*
X6272506Y8479673D01*
X6275500Y8505354D01*
X6275500Y8894646D01*
X6272382Y8920846D01*
X6226939Y9023153D01*
X6207684Y9042375D01*
X6167195Y9082793D01*
X6147713Y9102241D01*
X6106700Y9120373D01*
X6052136Y9144496D01*
X6052134Y9144496D01*
X6045327Y9147506D01*
X6031277Y9149144D01*
X6022494Y9150168D01*
X6022493Y9150168D01*
X6019646Y9150500D01*
X4905354Y9150500D01*
X4888951Y9148548D01*
X4886531Y9148260D01*
X4886530Y9148260D01*
X4879154Y9147382D01*
X4776847Y9101939D01*
X4770390Y9095471D01*
X4770389Y9095470D01*
X4739740Y9064767D01*
X4697759Y9022713D01*
X4661553Y8940816D01*
X4660141Y8937623D01*
X4619319Y8892047D01*
X4559504Y8879170D01*
X4503544Y8903910D01*
X4479473Y8936678D01*
X4432826Y9039272D01*
X4432825Y9039273D01*
X4429905Y9045696D01*
X4376872Y9107244D01*
X4350275Y9138112D01*
X4350274Y9138113D01*
X4345670Y9143456D01*
X4339753Y9147291D01*
X4339751Y9147293D01*
X4268988Y9193158D01*
X4237383Y9213643D01*
X4230627Y9215663D01*
X4230626Y9215664D01*
X4169315Y9234000D01*
X4113750Y9250618D01*
X4037121Y9251086D01*
X3991759Y9251363D01*
X3984708Y9251406D01*
X3977931Y9249469D01*
X3977930Y9249469D01*
X3867412Y9217883D01*
X3867410Y9217882D01*
X3860632Y9215945D01*
X3854668Y9212182D01*
X3841700Y9204000D01*
X3751496Y9147085D01*
X3666073Y9050362D01*
X3611231Y8933552D01*
X3591378Y8806044D01*
X3608110Y8678090D01*
X3610949Y8671638D01*
X3610950Y8671634D01*
X3631357Y8625255D01*
X3637487Y8564378D01*
X3606663Y8511524D01*
X3550659Y8486882D01*
X3540741Y8486384D01*
X3155665Y8486384D01*
X3097474Y8505291D01*
X3061510Y8554791D01*
X3061510Y8615977D01*
X3082267Y8651820D01*
X3105322Y8677291D01*
X3105322Y8677292D01*
X3110054Y8682519D01*
X3151715Y8768506D01*
X3163244Y8792302D01*
X3163244Y8792303D01*
X3166320Y8798651D01*
X3182960Y8897558D01*
X3187095Y8922135D01*
X3187095Y8922140D01*
X3187729Y8925906D01*
X3187865Y8937026D01*
X3169571Y9064767D01*
X3133793Y9143456D01*
X3119081Y9175814D01*
X3119080Y9175815D01*
X3116160Y9182238D01*
X3031925Y9279998D01*
X3026008Y9283833D01*
X3026006Y9283835D01*
X2949039Y9333721D01*
X2923638Y9350185D01*
X2916882Y9352205D01*
X2916881Y9352206D01*
X2866528Y9367265D01*
X2800005Y9387160D01*
X2723376Y9387628D01*
X2678014Y9387905D01*
X2670963Y9387948D01*
X2664186Y9386011D01*
X2664185Y9386011D01*
X2558968Y9355940D01*
X2497822Y9358129D01*
X2487240Y9363573D01*
X2486966Y9363847D01*
X2485134Y9364657D01*
X2485128Y9364660D01*
X2419765Y9393556D01*
X2387987Y9407605D01*
X2363158Y9410500D01*
X1996842Y9410500D01*
X1993937Y9410154D01*
X1993931Y9410154D01*
X1978887Y9408364D01*
X1978885Y9408363D01*
X1971511Y9407486D01*
X1872609Y9363556D01*
X1801155Y9291977D01*
X1746665Y9264153D01*
X1686225Y9273671D01*
X1649994Y9305138D01*
X1636683Y9324149D01*
X1564147Y9396685D01*
X1550174Y9406469D01*
X1488212Y9435362D01*
X1476904Y9436750D01*
X1474000Y9430523D01*
X1474000Y8473691D01*
X1477521Y8462856D01*
X1484390Y8462856D01*
X1550174Y8493531D01*
X1564147Y8503315D01*
X1636682Y8575850D01*
X1649944Y8594792D01*
X1698808Y8631616D01*
X1759984Y8632686D01*
X1800988Y8608073D01*
X1810526Y8598551D01*
X1838349Y8544058D01*
X1828828Y8483618D01*
X1810585Y8458485D01*
X1452380Y8100280D01*
X1397863Y8072503D01*
X1382376Y8071284D01*
X805354Y8071284D01*
X788951Y8069332D01*
X786531Y8069044D01*
X786530Y8069044D01*
X779154Y8068166D01*
X676847Y8022723D01*
X597759Y7943497D01*
X552494Y7841111D01*
X549500Y7815430D01*
X549500Y7426138D01*
X552618Y7399938D01*
X598061Y7297631D01*
X604529Y7291174D01*
X604530Y7291173D01*
X629480Y7266267D01*
X677287Y7218543D01*
X706409Y7205668D01*
X772864Y7176288D01*
X772866Y7176288D01*
X779673Y7173278D01*
X805354Y7170284D01*
X1568271Y7170284D01*
X1626462Y7151377D01*
X1662426Y7101877D01*
X1662426Y7040691D01*
X1638275Y7001280D01*
X1581269Y6944274D01*
X1566267Y6931963D01*
X1551376Y6922013D01*
X1545957Y6913903D01*
X1536008Y6899014D01*
X1536006Y6899011D01*
X1529978Y6889989D01*
X1529977Y6889988D01*
X1518349Y6872585D01*
X1490485Y6830884D01*
X1490485Y6830883D01*
X1469103Y6723389D01*
X1472047Y6708592D01*
X1472598Y6705820D01*
X1474500Y6686505D01*
X1474500Y6270284D01*
X1455593Y6212093D01*
X1406093Y6176129D01*
X1375500Y6171284D01*
X805354Y6171284D01*
X788951Y6169332D01*
X786531Y6169044D01*
X786530Y6169044D01*
X779154Y6168166D01*
X676847Y6122723D01*
X597759Y6043497D01*
X594064Y6035139D01*
X561290Y5961006D01*
X552494Y5941111D01*
X549500Y5915430D01*
X549500Y5526138D01*
X552618Y5499938D01*
X598061Y5397631D01*
X604529Y5391174D01*
X604530Y5391173D01*
X635047Y5360709D01*
X677287Y5318543D01*
X685645Y5314848D01*
X772864Y5276288D01*
X772866Y5276288D01*
X779673Y5273278D01*
X787067Y5272416D01*
X802378Y5270631D01*
X805354Y5270284D01*
X1919646Y5270284D01*
X1937561Y5272416D01*
X1938469Y5272524D01*
X1938470Y5272524D01*
X1945846Y5273402D01*
X2013458Y5303434D01*
X2074312Y5309777D01*
X2127274Y5279138D01*
X2152112Y5223221D01*
X2151467Y5197731D01*
X2144901Y5155560D01*
X2161633Y5027606D01*
X2164471Y5021155D01*
X2164472Y5021153D01*
X2210764Y4915946D01*
X2213605Y4909490D01*
X2218143Y4904091D01*
X2221870Y4898104D01*
X2219455Y4896601D01*
X2237787Y4851328D01*
X2223029Y4791948D01*
X2191860Y4760620D01*
X2183841Y4755560D01*
X2130019Y4721601D01*
X2044596Y4624878D01*
X1989754Y4508068D01*
X1984738Y4475850D01*
X1971240Y4389162D01*
X1943606Y4334573D01*
X1889162Y4306653D01*
X1828705Y4316066D01*
X1823024Y4319180D01*
X1775020Y4347570D01*
X1775012Y4347573D01*
X1769651Y4350744D01*
X1763667Y4352482D01*
X1763666Y4352483D01*
X1616680Y4395187D01*
X1616676Y4395188D01*
X1611822Y4396598D01*
X1606782Y4396995D01*
X1606780Y4396995D01*
X1590414Y4398283D01*
X1574947Y4399500D01*
X918559Y4399500D01*
X903092Y4398283D01*
X886726Y4396995D01*
X886724Y4396995D01*
X881684Y4396598D01*
X876830Y4395188D01*
X876826Y4395187D01*
X729840Y4352483D01*
X729839Y4352482D01*
X723855Y4350744D01*
X665015Y4315946D01*
X587746Y4270250D01*
X587744Y4270249D01*
X582388Y4267081D01*
X466172Y4150865D01*
X463004Y4145509D01*
X463003Y4145507D01*
X438805Y4104590D01*
X382509Y4009398D01*
X380771Y4003414D01*
X380770Y4003413D01*
X340938Y3866310D01*
X336655Y3851569D01*
X333753Y3814694D01*
X333753Y3628584D01*
X314846Y3570393D01*
X265346Y3534429D01*
X257865Y3532319D01*
X147612Y3505849D01*
X86615Y3510650D01*
X40089Y3550386D01*
X25500Y3602114D01*
X25500Y8690455D01*
X747775Y8690455D01*
X749722Y8683776D01*
X793531Y8589826D01*
X803315Y8575853D01*
X875853Y8503315D01*
X889826Y8493531D01*
X951788Y8464638D01*
X963096Y8463250D01*
X966000Y8469477D01*
X966000Y8680320D01*
X961878Y8693005D01*
X957757Y8696000D01*
X761494Y8696000D01*
X748809Y8691878D01*
X747775Y8690455D01*
X25500Y8690455D01*
X25500Y9213612D01*
X748960Y9213612D01*
X750292Y9206431D01*
X751594Y9205195D01*
X756874Y9204000D01*
X950320Y9204000D01*
X963005Y9208122D01*
X966000Y9212243D01*
X966000Y9426309D01*
X962479Y9437144D01*
X955610Y9437144D01*
X889826Y9406469D01*
X875853Y9396685D01*
X803315Y9324147D01*
X793531Y9310174D01*
X749722Y9216224D01*
X748960Y9213612D01*
X25500Y9213612D01*
X25500Y9626000D01*
X44407Y9684191D01*
X93907Y9720155D01*
X124500Y9725000D01*
X14354742Y9725000D01*
X14412933Y9706093D01*
G37*
G04 #@! TD.AperFunction*
G04 #@! TA.AperFunction,Conductor*
G36*
X4403727Y5958100D02*
G01*
X4448702Y5928049D01*
X4467505Y5915485D01*
X4477068Y5913583D01*
X4477070Y5913582D01*
X4547860Y5899501D01*
X4547865Y5899500D01*
X4547868Y5899500D01*
X4547876Y5899499D01*
X4557434Y5897598D01*
X4575000Y5894104D01*
X4592567Y5897598D01*
X4611879Y5899500D01*
X5710519Y5899500D01*
X5768710Y5880593D01*
X5804674Y5831093D01*
X5804674Y5769907D01*
X5800134Y5758427D01*
X5767752Y5689454D01*
X5764754Y5683068D01*
X5744901Y5555560D01*
X5745816Y5548563D01*
X5745816Y5548562D01*
X5747048Y5539140D01*
X5761633Y5427606D01*
X5764471Y5421155D01*
X5764472Y5421153D01*
X5777664Y5391173D01*
X5793814Y5354470D01*
X5800457Y5339372D01*
X5806587Y5278495D01*
X5775763Y5225640D01*
X5719760Y5200998D01*
X5709841Y5200500D01*
X5291043Y5200500D01*
X5217977Y5185966D01*
X5190189Y5167399D01*
X5147507Y5138880D01*
X5135116Y5130601D01*
X5079751Y5047740D01*
X5077849Y5038178D01*
X5074117Y5029168D01*
X5071789Y5030132D01*
X5048807Y4989097D01*
X4993241Y4963482D01*
X4953240Y4966947D01*
X4951729Y4967399D01*
X4842273Y5000134D01*
X4765644Y5000602D01*
X4720282Y5000879D01*
X4713231Y5000922D01*
X4706454Y4998985D01*
X4706453Y4998985D01*
X4595935Y4967399D01*
X4595933Y4967398D01*
X4589155Y4965461D01*
X4583191Y4961698D01*
X4544792Y4937470D01*
X4480019Y4896601D01*
X4394596Y4799878D01*
X4339754Y4683068D01*
X4319901Y4555560D01*
X4320816Y4548563D01*
X4320816Y4548562D01*
X4323817Y4525612D01*
X4336633Y4427606D01*
X4339471Y4421155D01*
X4339472Y4421153D01*
X4385764Y4315946D01*
X4388605Y4309490D01*
X4393143Y4304091D01*
X4396870Y4298104D01*
X4394439Y4296591D01*
X4412751Y4251382D01*
X4398001Y4192001D01*
X4351165Y4152630D01*
X4313998Y4145389D01*
X4189838Y4145389D01*
X4183384Y4144966D01*
X4144594Y4139859D01*
X4130212Y4135667D01*
X4129468Y4135320D01*
X4128697Y4135225D01*
X4122946Y4133549D01*
X4122673Y4134486D01*
X4068739Y4127863D01*
X4015225Y4157526D01*
X3989367Y4212979D01*
X3990001Y4241466D01*
X3990817Y4246316D01*
X3990818Y4246326D01*
X3991452Y4250095D01*
X3991588Y4261215D01*
X3973294Y4388956D01*
X3933786Y4475850D01*
X3922804Y4500003D01*
X3922803Y4500004D01*
X3919883Y4506427D01*
X3852447Y4584691D01*
X3840253Y4598843D01*
X3840252Y4598844D01*
X3835648Y4604187D01*
X3829731Y4608022D01*
X3829729Y4608024D01*
X3733279Y4670538D01*
X3727361Y4674374D01*
X3720605Y4676394D01*
X3720604Y4676395D01*
X3663212Y4693559D01*
X3603728Y4711349D01*
X3527099Y4711817D01*
X3481737Y4712094D01*
X3474686Y4712137D01*
X3467909Y4710200D01*
X3467908Y4710200D01*
X3357390Y4678614D01*
X3357388Y4678613D01*
X3350610Y4676676D01*
X3241474Y4607816D01*
X3156051Y4511093D01*
X3101209Y4394283D01*
X3081356Y4266775D01*
X3082271Y4259777D01*
X3082185Y4252728D01*
X3080469Y4252749D01*
X3070863Y4201181D01*
X3026442Y4159104D01*
X2983903Y4149499D01*
X2960977Y4149499D01*
X2902786Y4168406D01*
X2866822Y4217906D01*
X2863349Y4264924D01*
X2879363Y4360109D01*
X2879363Y4360114D01*
X2879997Y4363880D01*
X2880133Y4375000D01*
X2861839Y4502741D01*
X2847947Y4533295D01*
X2811347Y4613793D01*
X2811345Y4613795D01*
X2808428Y4620212D01*
X2803825Y4625554D01*
X2802627Y4627427D01*
X2787203Y4686636D01*
X2809528Y4743603D01*
X2834228Y4765132D01*
X2884711Y4796129D01*
X2890724Y4799821D01*
X2895459Y4805052D01*
X2972590Y4890265D01*
X2972590Y4890266D01*
X2977322Y4895493D01*
X3022673Y4989097D01*
X3030512Y5005276D01*
X3030512Y5005277D01*
X3033588Y5011625D01*
X3054884Y5138209D01*
X3083183Y5192456D01*
X3137964Y5219709D01*
X3152512Y5220784D01*
X3367820Y5220784D01*
X3380505Y5224906D01*
X3383500Y5229027D01*
X3383500Y5236466D01*
X3891500Y5236466D01*
X3895622Y5223780D01*
X3899743Y5220785D01*
X4179557Y5220785D01*
X4186754Y5221312D01*
X4244355Y5229790D01*
X4258873Y5234301D01*
X4349216Y5278657D01*
X4362342Y5288054D01*
X4433101Y5358936D01*
X4442474Y5372077D01*
X4481881Y5452696D01*
X4483476Y5463977D01*
X4477734Y5466784D01*
X3907180Y5466784D01*
X3894495Y5462662D01*
X3891500Y5458541D01*
X3891500Y5236466D01*
X3383500Y5236466D01*
X3383500Y5875784D01*
X3402407Y5933975D01*
X3451907Y5969939D01*
X3482500Y5974784D01*
X4348726Y5974784D01*
X4403727Y5958100D01*
G37*
G04 #@! TD.AperFunction*
G04 #@! TA.AperFunction,Conductor*
G36*
X6948445Y7455593D02*
G01*
X6970222Y7433238D01*
X6973061Y7426847D01*
X6979529Y7420390D01*
X6979530Y7420389D01*
X7020150Y7379840D01*
X7047975Y7325347D01*
X7038456Y7264907D01*
X7017007Y7239951D01*
X7018439Y7238521D01*
X6941899Y7161848D01*
X6932526Y7148707D01*
X6893119Y7068088D01*
X6891524Y7056807D01*
X6897266Y7054000D01*
X7892500Y7054000D01*
X7950691Y7035093D01*
X7986655Y6985593D01*
X7991500Y6955000D01*
X7991500Y6645000D01*
X7972593Y6586809D01*
X7923093Y6550845D01*
X7892500Y6546000D01*
X6901804Y6546000D01*
X6890969Y6542479D01*
X6890969Y6536132D01*
X6899807Y6518131D01*
X6908481Y6457564D01*
X6879897Y6403466D01*
X6824975Y6376500D01*
X6810940Y6375500D01*
X6650849Y6375500D01*
X6595848Y6392184D01*
X6541510Y6428491D01*
X6541507Y6428493D01*
X6540600Y6429099D01*
X6532495Y6434515D01*
X6522937Y6436416D01*
X6522935Y6436417D01*
X6487801Y6443405D01*
X6452133Y6450500D01*
X6452132Y6450500D01*
X6425000Y6455897D01*
X6407429Y6452402D01*
X6388116Y6450500D01*
X6365739Y6450500D01*
X6307548Y6469407D01*
X6271584Y6518907D01*
X6270248Y6574566D01*
X6272506Y6579673D01*
X6275500Y6605354D01*
X6275500Y6994646D01*
X6272382Y7020846D01*
X6249127Y7073201D01*
X6242784Y7134055D01*
X6273423Y7187017D01*
X6284592Y7195696D01*
X6331019Y7226718D01*
X6344920Y7236006D01*
X6344921Y7236007D01*
X6348684Y7238521D01*
X6359812Y7245957D01*
X6367922Y7251376D01*
X6377872Y7266267D01*
X6390183Y7281269D01*
X6554418Y7445504D01*
X6608935Y7473281D01*
X6624422Y7474500D01*
X6890254Y7474500D01*
X6948445Y7455593D01*
G37*
G04 #@! TD.AperFunction*
G04 #@! TD*
M02*
