M48
; DRILL file {KiCad (5.99.0-10483-ga6ad7a4a70)} date Sun May 30 13:32:30 2021
; FORMAT={2:4/ absolute / inch / suppress leading zeros}
; #@! TF.CreationDate,2021-05-30T13:32:30+03:00
; #@! TF.GenerationSoftware,Kicad,Pcbnew,(5.99.0-10483-ga6ad7a4a70)
; #@! TF.FileFunction,MixedPlating,1,2
FMAT,2
INCH,TZ
; #@! TA.AperFunction,Plated,PTH,ComponentDrill
T1C0.0118
; #@! TA.AperFunction,Plated,PTH,ViaDrill
T2C0.0118
%
G90
G05
T1
X148Y1093
X148Y699
X7047Y3927
X7047Y3612
X7047Y3297
X7047Y344
T2
X157Y2795
X276Y5984
X315Y6378
X394Y5591
X827Y1693
X827Y906
X827Y157
X906Y6417
X945Y5945
X1041Y4498
X1063Y4882
X1063Y4173
X1181Y5512
X1220Y2795
X1378Y2047
X1476Y906
X1549Y4016
X1732Y4921
X1732Y3189
X1772Y2244
X1929Y5394
X1987Y3504
X2008Y6378
X2126Y1614
X2283Y5039
X2402Y866
X2441Y5838
X2717Y3858
X2795Y1535
X2835Y6378
X3110Y5118
X3133Y4484
X3150Y2638
X3358Y3870
X3499Y2219
X3701Y6142
X3760Y5728
X3858Y4016
X3858Y3701
X4016Y4882
X4016Y3110
X4094Y6457
X4097Y2300
X4106Y1772
X4191Y1071
X4252Y748
X4409Y4685
X4449Y5079
X4464Y4040
X4525Y145
X4525Y455
X4558Y2221
X4606Y3268
X4606Y2953
X4665Y5807
X4803Y2453
X4961Y3110
X5096Y6440
X5298Y5472
X5387Y2237
X5472Y3465
X5472Y3150
X5945Y2756
X5984Y6378
X5984Y827
X6004Y1398
X6063Y3189
X6260Y5433
X6540Y4423
X6585Y2210
X6693Y2717
X6850Y5787
X6850Y2992
X6890Y6378
X6894Y659
X7008Y945
T0
M30
