G04*
G04 #@! TF.GenerationSoftware,Altium Limited,Altium Designer,20.0.10 (225)*
G04*
G04 Layer_Color=16711935*
%FSLAX25Y25*%
%MOIN*%
G70*
G01*
G75*
G04:AMPARAMS|DCode=47|XSize=15.35mil|YSize=25.2mil|CornerRadius=7.68mil|HoleSize=0mil|Usage=FLASHONLY|Rotation=90.000|XOffset=0mil|YOffset=0mil|HoleType=Round|Shape=RoundedRectangle|*
%AMROUNDEDRECTD47*
21,1,0.01535,0.00984,0,0,90.0*
21,1,0.00000,0.02520,0,0,90.0*
1,1,0.01535,0.00492,0.00000*
1,1,0.01535,0.00492,0.00000*
1,1,0.01535,-0.00492,0.00000*
1,1,0.01535,-0.00492,0.00000*
%
%ADD47ROUNDEDRECTD47*%
G04:AMPARAMS|DCode=48|XSize=15.35mil|YSize=25.2mil|CornerRadius=7.68mil|HoleSize=0mil|Usage=FLASHONLY|Rotation=0.000|XOffset=0mil|YOffset=0mil|HoleType=Round|Shape=RoundedRectangle|*
%AMROUNDEDRECTD48*
21,1,0.01535,0.00984,0,0,0.0*
21,1,0.00000,0.02520,0,0,0.0*
1,1,0.01535,0.00000,-0.00492*
1,1,0.01535,0.00000,-0.00492*
1,1,0.01535,0.00000,0.00492*
1,1,0.01535,0.00000,0.00492*
%
%ADD48ROUNDEDRECTD48*%
D47*
X120669Y4245D02*
D03*
Y25032D02*
D03*
Y22434D02*
D03*
Y19835D02*
D03*
Y17237D02*
D03*
D48*
X20394Y56406D02*
D03*
X16063D02*
D03*
X11732D02*
D03*
X7402D02*
D03*
X114681Y1437D02*
D03*
X112083D02*
D03*
X109484D02*
D03*
X106886D02*
D03*
X104287D02*
D03*
X101689D02*
D03*
X95386D02*
D03*
X92787D02*
D03*
X90189D02*
D03*
X85776D02*
D03*
X83178D02*
D03*
X80579D02*
D03*
X77981D02*
D03*
X64886D02*
D03*
X62287D02*
D03*
X59689D02*
D03*
X49272D02*
D03*
X46673D02*
D03*
X44075D02*
D03*
X41476D02*
D03*
X38878D02*
D03*
X36280D02*
D03*
X33681D02*
D03*
X31083D02*
D03*
X28484D02*
D03*
X25886D02*
D03*
X24724Y56406D02*
D03*
X29055D02*
D03*
X33386D02*
D03*
X37716D02*
D03*
X42047D02*
D03*
X46378D02*
D03*
X50709D02*
D03*
X55039D02*
D03*
X59370D02*
D03*
X63701D02*
D03*
X68031D02*
D03*
X72362D02*
D03*
X76693D02*
D03*
X81024D02*
D03*
X85354D02*
D03*
X89685D02*
D03*
X94016D02*
D03*
X98346D02*
D03*
X102677D02*
D03*
X107008D02*
D03*
X111338D02*
D03*
X115669D02*
D03*
M02*
