G04*
G04 #@! TF.GenerationSoftware,Altium Limited,Altium Designer,20.0.10 (225)*
G04*
G04 Layer_Color=7674933*
%FSLAX25Y25*%
%MOIN*%
G70*
G01*
G75*
G04:AMPARAMS|DCode=27|XSize=40.95mil|YSize=62.6mil|CornerRadius=6.3mil|HoleSize=0mil|Usage=FLASHONLY|Rotation=270.000|XOffset=0mil|YOffset=0mil|HoleType=Round|Shape=RoundedRectangle|*
%AMROUNDEDRECTD27*
21,1,0.04095,0.05000,0,0,270.0*
21,1,0.02835,0.06260,0,0,270.0*
1,1,0.01260,-0.02500,-0.01417*
1,1,0.01260,-0.02500,0.01417*
1,1,0.01260,0.02500,0.01417*
1,1,0.01260,0.02500,-0.01417*
%
%ADD27ROUNDEDRECTD27*%
G04:AMPARAMS|DCode=28|XSize=92.13mil|YSize=96.06mil|CornerRadius=11.42mil|HoleSize=0mil|Usage=FLASHONLY|Rotation=270.000|XOffset=0mil|YOffset=0mil|HoleType=Round|Shape=RoundedRectangle|*
%AMROUNDEDRECTD28*
21,1,0.09213,0.07323,0,0,270.0*
21,1,0.06929,0.09606,0,0,270.0*
1,1,0.02284,-0.03661,-0.03465*
1,1,0.02284,-0.03661,0.03465*
1,1,0.02284,0.03661,0.03465*
1,1,0.02284,0.03661,-0.03465*
%
%ADD28ROUNDEDRECTD28*%
G04:AMPARAMS|DCode=29|XSize=33.07mil|YSize=41.73mil|CornerRadius=5.51mil|HoleSize=0mil|Usage=FLASHONLY|Rotation=90.000|XOffset=0mil|YOffset=0mil|HoleType=Round|Shape=RoundedRectangle|*
%AMROUNDEDRECTD29*
21,1,0.03307,0.03071,0,0,90.0*
21,1,0.02205,0.04173,0,0,90.0*
1,1,0.01102,0.01535,0.01102*
1,1,0.01102,0.01535,-0.01102*
1,1,0.01102,-0.01535,-0.01102*
1,1,0.01102,-0.01535,0.01102*
%
%ADD29ROUNDEDRECTD29*%
G04:AMPARAMS|DCode=30|XSize=44.88mil|YSize=62.6mil|CornerRadius=6.69mil|HoleSize=0mil|Usage=FLASHONLY|Rotation=180.000|XOffset=0mil|YOffset=0mil|HoleType=Round|Shape=RoundedRectangle|*
%AMROUNDEDRECTD30*
21,1,0.04488,0.04921,0,0,180.0*
21,1,0.03150,0.06260,0,0,180.0*
1,1,0.01339,-0.01575,0.02461*
1,1,0.01339,0.01575,0.02461*
1,1,0.01339,0.01575,-0.02461*
1,1,0.01339,-0.01575,-0.02461*
%
%ADD30ROUNDEDRECTD30*%
%ADD31C,0.03701*%
G04:AMPARAMS|DCode=32|XSize=29.13mil|YSize=40.95mil|CornerRadius=5.12mil|HoleSize=0mil|Usage=FLASHONLY|Rotation=90.000|XOffset=0mil|YOffset=0mil|HoleType=Round|Shape=RoundedRectangle|*
%AMROUNDEDRECTD32*
21,1,0.02913,0.03071,0,0,90.0*
21,1,0.01890,0.04095,0,0,90.0*
1,1,0.01024,0.01535,0.00945*
1,1,0.01024,0.01535,-0.00945*
1,1,0.01024,-0.01535,-0.00945*
1,1,0.01024,-0.01535,0.00945*
%
%ADD32ROUNDEDRECTD32*%
G04:AMPARAMS|DCode=33|XSize=31.1mil|YSize=37.01mil|CornerRadius=5.32mil|HoleSize=0mil|Usage=FLASHONLY|Rotation=0.000|XOffset=0mil|YOffset=0mil|HoleType=Round|Shape=RoundedRectangle|*
%AMROUNDEDRECTD33*
21,1,0.03110,0.02638,0,0,0.0*
21,1,0.02047,0.03701,0,0,0.0*
1,1,0.01063,0.01024,-0.01319*
1,1,0.01063,-0.01024,-0.01319*
1,1,0.01063,-0.01024,0.01319*
1,1,0.01063,0.01024,0.01319*
%
%ADD33ROUNDEDRECTD33*%
G04:AMPARAMS|DCode=34|XSize=23.23mil|YSize=37.01mil|CornerRadius=4.53mil|HoleSize=0mil|Usage=FLASHONLY|Rotation=0.000|XOffset=0mil|YOffset=0mil|HoleType=Round|Shape=RoundedRectangle|*
%AMROUNDEDRECTD34*
21,1,0.02323,0.02795,0,0,0.0*
21,1,0.01417,0.03701,0,0,0.0*
1,1,0.00906,0.00709,-0.01398*
1,1,0.00906,-0.00709,-0.01398*
1,1,0.00906,-0.00709,0.01398*
1,1,0.00906,0.00709,0.01398*
%
%ADD34ROUNDEDRECTD34*%
G04:AMPARAMS|DCode=35|XSize=38.98mil|YSize=38.98mil|CornerRadius=6.1mil|HoleSize=0mil|Usage=FLASHONLY|Rotation=270.000|XOffset=0mil|YOffset=0mil|HoleType=Round|Shape=RoundedRectangle|*
%AMROUNDEDRECTD35*
21,1,0.03898,0.02677,0,0,270.0*
21,1,0.02677,0.03898,0,0,270.0*
1,1,0.01221,-0.01339,-0.01339*
1,1,0.01221,-0.01339,0.01339*
1,1,0.01221,0.01339,0.01339*
1,1,0.01221,0.01339,-0.01339*
%
%ADD35ROUNDEDRECTD35*%
G04:AMPARAMS|DCode=36|XSize=33.07mil|YSize=41.73mil|CornerRadius=5.51mil|HoleSize=0mil|Usage=FLASHONLY|Rotation=0.000|XOffset=0mil|YOffset=0mil|HoleType=Round|Shape=RoundedRectangle|*
%AMROUNDEDRECTD36*
21,1,0.03307,0.03071,0,0,0.0*
21,1,0.02205,0.04173,0,0,0.0*
1,1,0.01102,0.01102,-0.01535*
1,1,0.01102,-0.01102,-0.01535*
1,1,0.01102,-0.01102,0.01535*
1,1,0.01102,0.01102,0.01535*
%
%ADD36ROUNDEDRECTD36*%
G04:AMPARAMS|DCode=37|XSize=44.88mil|YSize=62.6mil|CornerRadius=6.69mil|HoleSize=0mil|Usage=FLASHONLY|Rotation=90.000|XOffset=0mil|YOffset=0mil|HoleType=Round|Shape=RoundedRectangle|*
%AMROUNDEDRECTD37*
21,1,0.04488,0.04921,0,0,90.0*
21,1,0.03150,0.06260,0,0,90.0*
1,1,0.01339,0.02461,0.01575*
1,1,0.01339,0.02461,-0.01575*
1,1,0.01339,-0.02461,-0.01575*
1,1,0.01339,-0.02461,0.01575*
%
%ADD37ROUNDEDRECTD37*%
G04:AMPARAMS|DCode=38|XSize=38.98mil|YSize=38.98mil|CornerRadius=6.1mil|HoleSize=0mil|Usage=FLASHONLY|Rotation=180.000|XOffset=0mil|YOffset=0mil|HoleType=Round|Shape=RoundedRectangle|*
%AMROUNDEDRECTD38*
21,1,0.03898,0.02677,0,0,180.0*
21,1,0.02677,0.03898,0,0,180.0*
1,1,0.01221,-0.01339,0.01339*
1,1,0.01221,0.01339,0.01339*
1,1,0.01221,0.01339,-0.01339*
1,1,0.01221,-0.01339,-0.01339*
%
%ADD38ROUNDEDRECTD38*%
D27*
X18307Y16535D02*
D03*
Y9055D02*
D03*
D28*
X8661Y52658D02*
D03*
Y34941D02*
D03*
D29*
X100295Y6299D02*
D03*
Y12598D02*
D03*
D30*
X17028Y3543D02*
D03*
X9547D02*
D03*
D31*
X12795Y15354D02*
D03*
X12795Y9055D02*
D03*
D32*
X114764Y31004D02*
D03*
Y34744D02*
D03*
Y38484D02*
D03*
X105315D02*
D03*
Y34744D02*
D03*
Y31004D02*
D03*
X37598D02*
D03*
Y34744D02*
D03*
Y38484D02*
D03*
X47047D02*
D03*
Y34744D02*
D03*
Y31004D02*
D03*
X30118D02*
D03*
Y34744D02*
D03*
Y38484D02*
D03*
X20669D02*
D03*
Y34744D02*
D03*
Y31004D02*
D03*
X54528D02*
D03*
Y34744D02*
D03*
Y38484D02*
D03*
X63976D02*
D03*
Y34744D02*
D03*
Y31004D02*
D03*
X80905D02*
D03*
Y34744D02*
D03*
Y38484D02*
D03*
X71457D02*
D03*
Y34744D02*
D03*
Y31004D02*
D03*
X88386D02*
D03*
Y34744D02*
D03*
Y38484D02*
D03*
X97835D02*
D03*
Y34744D02*
D03*
Y31004D02*
D03*
D33*
X114469Y5610D02*
D03*
Y12697D02*
D03*
X104429D02*
D03*
Y5610D02*
D03*
X39370D02*
D03*
Y12697D02*
D03*
X49409D02*
D03*
Y5610D02*
D03*
X34843D02*
D03*
Y12697D02*
D03*
X24803D02*
D03*
Y5610D02*
D03*
X54429D02*
D03*
Y12697D02*
D03*
X64468D02*
D03*
Y5610D02*
D03*
X81299D02*
D03*
Y12697D02*
D03*
X71260D02*
D03*
Y5610D02*
D03*
X86221D02*
D03*
Y12697D02*
D03*
X96260D02*
D03*
Y5610D02*
D03*
X49311Y19390D02*
D03*
Y26476D02*
D03*
X39272D02*
D03*
Y19390D02*
D03*
X23327D02*
D03*
Y26476D02*
D03*
X33366D02*
D03*
Y19390D02*
D03*
X64567D02*
D03*
Y26476D02*
D03*
X54528D02*
D03*
Y19390D02*
D03*
X71260D02*
D03*
Y26476D02*
D03*
X81299D02*
D03*
Y19390D02*
D03*
X96555D02*
D03*
Y26476D02*
D03*
X86516D02*
D03*
Y19390D02*
D03*
X103937Y19488D02*
D03*
Y26575D02*
D03*
X113976D02*
D03*
Y19488D02*
D03*
D34*
X107874Y12697D02*
D03*
X111024D02*
D03*
Y5610D02*
D03*
X107874D02*
D03*
X42815D02*
D03*
X45965D02*
D03*
Y12697D02*
D03*
X42815D02*
D03*
X28248D02*
D03*
X31398D02*
D03*
Y5610D02*
D03*
X28248D02*
D03*
X57874D02*
D03*
X61024D02*
D03*
Y12697D02*
D03*
X57874D02*
D03*
X74705D02*
D03*
X77854D02*
D03*
Y5610D02*
D03*
X74705D02*
D03*
X89665D02*
D03*
X92815D02*
D03*
Y12697D02*
D03*
X89665D02*
D03*
X42717Y26476D02*
D03*
X45866D02*
D03*
Y19390D02*
D03*
X42717D02*
D03*
X26772D02*
D03*
X29921D02*
D03*
Y26476D02*
D03*
X26772D02*
D03*
X57973D02*
D03*
X61122D02*
D03*
Y19390D02*
D03*
X57973D02*
D03*
X74705D02*
D03*
X77854D02*
D03*
Y26476D02*
D03*
X74705D02*
D03*
X89961D02*
D03*
X93110D02*
D03*
Y19390D02*
D03*
X89961D02*
D03*
X107382Y19488D02*
D03*
X110531D02*
D03*
Y26575D02*
D03*
X107382D02*
D03*
D35*
X118504Y5748D02*
D03*
Y11969D02*
D03*
X83957Y47185D02*
D03*
Y53406D02*
D03*
X79626D02*
D03*
Y47185D02*
D03*
X75295D02*
D03*
Y53406D02*
D03*
X70965D02*
D03*
Y47185D02*
D03*
X88287D02*
D03*
Y53406D02*
D03*
X92618D02*
D03*
Y47185D02*
D03*
X96949D02*
D03*
Y53406D02*
D03*
X101279D02*
D03*
Y47185D02*
D03*
X53642D02*
D03*
Y53406D02*
D03*
X57973D02*
D03*
Y47185D02*
D03*
X62303D02*
D03*
Y53406D02*
D03*
X66634D02*
D03*
Y47185D02*
D03*
X18996D02*
D03*
Y53406D02*
D03*
X23327D02*
D03*
Y47185D02*
D03*
X27657D02*
D03*
Y53406D02*
D03*
X31988D02*
D03*
Y47185D02*
D03*
X36319D02*
D03*
Y53406D02*
D03*
X40650D02*
D03*
Y47185D02*
D03*
X44980D02*
D03*
Y53406D02*
D03*
X49311D02*
D03*
Y47185D02*
D03*
X118504Y19134D02*
D03*
Y25354D02*
D03*
X105610Y47185D02*
D03*
Y53406D02*
D03*
X109941D02*
D03*
Y47185D02*
D03*
X114272D02*
D03*
Y53406D02*
D03*
X118602D02*
D03*
Y47185D02*
D03*
D36*
X2559Y14272D02*
D03*
X8858D02*
D03*
Y9744D02*
D03*
X2559D02*
D03*
X9843Y23228D02*
D03*
X3543D02*
D03*
X9843Y27854D02*
D03*
X3543D02*
D03*
D37*
X15157Y28740D02*
D03*
Y21260D02*
D03*
D38*
X2795Y18799D02*
D03*
X9016D02*
D03*
M02*
