G04*
G04 #@! TF.GenerationSoftware,Altium Limited,Altium Designer,22.9.1 (49)*
G04*
G04 Layer_Color=16711935*
%FSLAX25Y25*%
%MOIN*%
G70*
G04*
G04 #@! TF.SameCoordinates,8D543CD6-7AF1-4966-96E4-A8ABC0BAE417*
G04*
G04*
G04 #@! TF.FilePolarity,Negative*
G04*
G01*
G75*
G04:AMPARAMS|DCode=42|XSize=41.34mil|YSize=38.98mil|CornerRadius=6.1mil|HoleSize=0mil|Usage=FLASHONLY|Rotation=0.000|XOffset=0mil|YOffset=0mil|HoleType=Round|Shape=RoundedRectangle|*
%AMROUNDEDRECTD42*
21,1,0.04134,0.02677,0,0,0.0*
21,1,0.02913,0.03898,0,0,0.0*
1,1,0.01221,0.01457,-0.01339*
1,1,0.01221,-0.01457,-0.01339*
1,1,0.01221,-0.01457,0.01339*
1,1,0.01221,0.01457,0.01339*
%
%ADD42ROUNDEDRECTD42*%
G04:AMPARAMS|DCode=44|XSize=76.38mil|YSize=50.79mil|CornerRadius=7.28mil|HoleSize=0mil|Usage=FLASHONLY|Rotation=90.000|XOffset=0mil|YOffset=0mil|HoleType=Round|Shape=RoundedRectangle|*
%AMROUNDEDRECTD44*
21,1,0.07638,0.03622,0,0,90.0*
21,1,0.06181,0.05079,0,0,90.0*
1,1,0.01457,0.01811,0.03091*
1,1,0.01457,0.01811,-0.03091*
1,1,0.01457,-0.01811,-0.03091*
1,1,0.01457,-0.01811,0.03091*
%
%ADD44ROUNDEDRECTD44*%
G04:AMPARAMS|DCode=47|XSize=29.13mil|YSize=29.13mil|CornerRadius=5.12mil|HoleSize=0mil|Usage=FLASHONLY|Rotation=90.000|XOffset=0mil|YOffset=0mil|HoleType=Round|Shape=RoundedRectangle|*
%AMROUNDEDRECTD47*
21,1,0.02913,0.01890,0,0,90.0*
21,1,0.01890,0.02913,0,0,90.0*
1,1,0.01024,0.00945,0.00945*
1,1,0.01024,0.00945,-0.00945*
1,1,0.01024,-0.00945,-0.00945*
1,1,0.01024,-0.00945,0.00945*
%
%ADD47ROUNDEDRECTD47*%
G04:AMPARAMS|DCode=48|XSize=25.2mil|YSize=29.13mil|CornerRadius=4.72mil|HoleSize=0mil|Usage=FLASHONLY|Rotation=0.000|XOffset=0mil|YOffset=0mil|HoleType=Round|Shape=RoundedRectangle|*
%AMROUNDEDRECTD48*
21,1,0.02520,0.01968,0,0,0.0*
21,1,0.01575,0.02913,0,0,0.0*
1,1,0.00945,0.00787,-0.00984*
1,1,0.00945,-0.00787,-0.00984*
1,1,0.00945,-0.00787,0.00984*
1,1,0.00945,0.00787,0.00984*
%
%ADD48ROUNDEDRECTD48*%
G04:AMPARAMS|DCode=49|XSize=25.2mil|YSize=29.13mil|CornerRadius=4.72mil|HoleSize=0mil|Usage=FLASHONLY|Rotation=270.000|XOffset=0mil|YOffset=0mil|HoleType=Round|Shape=RoundedRectangle|*
%AMROUNDEDRECTD49*
21,1,0.02520,0.01968,0,0,270.0*
21,1,0.01575,0.02913,0,0,270.0*
1,1,0.00945,-0.00984,-0.00787*
1,1,0.00945,-0.00984,0.00787*
1,1,0.00945,0.00984,0.00787*
1,1,0.00945,0.00984,-0.00787*
%
%ADD49ROUNDEDRECTD49*%
%ADD50C,0.02913*%
%ADD51C,0.06457*%
G04:AMPARAMS|DCode=73|XSize=111.81mil|YSize=68.5mil|CornerRadius=9.06mil|HoleSize=0mil|Usage=FLASHONLY|Rotation=90.000|XOffset=0mil|YOffset=0mil|HoleType=Round|Shape=RoundedRectangle|*
%AMROUNDEDRECTD73*
21,1,0.11181,0.05039,0,0,90.0*
21,1,0.09370,0.06850,0,0,90.0*
1,1,0.01811,0.02520,0.04685*
1,1,0.01811,0.02520,-0.04685*
1,1,0.01811,-0.02520,-0.04685*
1,1,0.01811,-0.02520,0.04685*
%
%ADD73ROUNDEDRECTD73*%
G04:AMPARAMS|DCode=74|XSize=38.98mil|YSize=38.98mil|CornerRadius=6.1mil|HoleSize=0mil|Usage=FLASHONLY|Rotation=270.000|XOffset=0mil|YOffset=0mil|HoleType=Round|Shape=RoundedRectangle|*
%AMROUNDEDRECTD74*
21,1,0.03898,0.02677,0,0,270.0*
21,1,0.02677,0.03898,0,0,270.0*
1,1,0.01221,-0.01339,-0.01339*
1,1,0.01221,-0.01339,0.01339*
1,1,0.01221,0.01339,0.01339*
1,1,0.01221,0.01339,-0.01339*
%
%ADD74ROUNDEDRECTD74*%
G04:AMPARAMS|DCode=75|XSize=29.13mil|YSize=29.13mil|CornerRadius=5.12mil|HoleSize=0mil|Usage=FLASHONLY|Rotation=180.000|XOffset=0mil|YOffset=0mil|HoleType=Round|Shape=RoundedRectangle|*
%AMROUNDEDRECTD75*
21,1,0.02913,0.01890,0,0,180.0*
21,1,0.01890,0.02913,0,0,180.0*
1,1,0.01024,-0.00945,0.00945*
1,1,0.01024,0.00945,0.00945*
1,1,0.01024,0.00945,-0.00945*
1,1,0.01024,-0.00945,-0.00945*
%
%ADD75ROUNDEDRECTD75*%
G04:AMPARAMS|DCode=76|XSize=127.56mil|YSize=100mil|CornerRadius=12.21mil|HoleSize=0mil|Usage=FLASHONLY|Rotation=180.000|XOffset=0mil|YOffset=0mil|HoleType=Round|Shape=RoundedRectangle|*
%AMROUNDEDRECTD76*
21,1,0.12756,0.07559,0,0,180.0*
21,1,0.10315,0.10000,0,0,180.0*
1,1,0.02441,-0.05158,0.03780*
1,1,0.02441,0.05158,0.03780*
1,1,0.02441,0.05158,-0.03780*
1,1,0.02441,-0.05158,-0.03780*
%
%ADD76ROUNDEDRECTD76*%
%ADD77O,0.02520X0.09213*%
G04:AMPARAMS|DCode=78|XSize=123.62mil|YSize=109.84mil|CornerRadius=13.19mil|HoleSize=0mil|Usage=FLASHONLY|Rotation=0.000|XOffset=0mil|YOffset=0mil|HoleType=Round|Shape=RoundedRectangle|*
%AMROUNDEDRECTD78*
21,1,0.12362,0.08346,0,0,0.0*
21,1,0.09724,0.10984,0,0,0.0*
1,1,0.02638,0.04862,-0.04173*
1,1,0.02638,-0.04862,-0.04173*
1,1,0.02638,-0.04862,0.04173*
1,1,0.02638,0.04862,0.04173*
%
%ADD78ROUNDEDRECTD78*%
D42*
X16923Y76378D02*
D03*
X29915D02*
D03*
D44*
X38358Y76772D02*
D03*
X49775D02*
D03*
X38358Y68740D02*
D03*
X49775D02*
D03*
D47*
X12402Y58661D02*
D03*
Y54724D02*
D03*
X17717Y69291D02*
D03*
X9055D02*
D03*
X16929Y64043D02*
D03*
X8268D02*
D03*
D48*
X16611Y11417D02*
D03*
X20155D02*
D03*
X33090Y48150D02*
D03*
X29546D02*
D03*
X25092Y63255D02*
D03*
X21549D02*
D03*
X25230Y11417D02*
D03*
X28773D02*
D03*
X11811Y15354D02*
D03*
X8268D02*
D03*
D49*
X61750Y22459D02*
D03*
Y18915D02*
D03*
X33753Y68374D02*
D03*
Y64830D02*
D03*
X12986Y73688D02*
D03*
Y77232D02*
D03*
D50*
X65748Y18110D02*
D03*
Y14173D02*
D03*
D51*
X2953Y71653D02*
D03*
Y4724D02*
D03*
Y52165D02*
D03*
X63976Y51968D02*
D03*
Y77165D02*
D03*
Y27559D02*
D03*
Y44488D02*
D03*
Y2953D02*
D03*
X2953Y78937D02*
D03*
D73*
X38189Y56299D02*
D03*
X49213D02*
D03*
D74*
X16535Y58196D02*
D03*
Y51976D02*
D03*
X30629Y58196D02*
D03*
Y51976D02*
D03*
X25938Y58196D02*
D03*
Y51976D02*
D03*
X21246Y58196D02*
D03*
Y51976D02*
D03*
X29448Y70441D02*
D03*
Y64220D02*
D03*
D75*
X16021Y15354D02*
D03*
X19958D02*
D03*
X28576D02*
D03*
X24639D02*
D03*
X25289Y69291D02*
D03*
X21352D02*
D03*
X48222Y47677D02*
D03*
X44285D02*
D03*
X48124Y10236D02*
D03*
X52061D02*
D03*
D76*
X17572Y33432D02*
D03*
D77*
X10072Y44751D02*
D03*
X15072D02*
D03*
X20072D02*
D03*
X25072D02*
D03*
X10072Y22114D02*
D03*
X15072D02*
D03*
X20072D02*
D03*
X25072D02*
D03*
X33139Y40256D02*
D03*
X38139D02*
D03*
X43139D02*
D03*
X48139D02*
D03*
X33139Y16831D02*
D03*
X38139D02*
D03*
X43139D02*
D03*
X48139D02*
D03*
D78*
X40639Y28543D02*
D03*
M02*
