M48
; DRILL file {KiCad 7.0.1-115-g2ece2719d0} date Tue Jul 25 23:05:11 2023
; FORMAT={2:4/ absolute / inch / suppress leading zeros}
; #@! TF.CreationDate,2023-07-25T23:05:11+03:00
; #@! TF.GenerationSoftware,Kicad,Pcbnew,7.0.1-115-g2ece2719d0
; #@! TF.FileFunction,MixedPlating,1,4
FMAT,2
INCH,TZ
; #@! TA.AperFunction,Plated,PTH,ViaDrill
T1C0.0118
; #@! TA.AperFunction,Plated,PTH,ComponentDrill
T2C0.0118
%
G90
G05
T1
X276Y2224
X276Y256
X315Y3563
X1142Y2146
X1299Y1083
X1417Y256
X1654Y3563
X2047Y2657
X2087Y1673
X2638Y1043
X2677Y256
X3071Y3563
X3307Y2854
X3386Y256
X3472Y2163
X3898Y610
X4409Y1476
X4646Y531
X4803Y3563
X5118Y256
X5709Y1870
X5709Y531
T2
X148Y1118
X148Y724
X5827Y3661
X5827Y3189
X5827Y2717
X5827Y2244
T0
M30
