G04 #@! TF.GenerationSoftware,KiCad,Pcbnew,7.0.1-115-g2ece2719d0*
G04 #@! TF.CreationDate,2023-06-28T23:30:18+03:00*
G04 #@! TF.ProjectId,hellen1-vr-max9924,68656c6c-656e-4312-9d76-722d6d617839,rev?*
G04 #@! TF.SameCoordinates,PX4a19ba0PY5aa5910*
G04 #@! TF.FileFunction,Copper,L1,Top*
G04 #@! TF.FilePolarity,Positive*
%FSLAX46Y46*%
G04 Gerber Fmt 4.6, Leading zero omitted, Abs format (unit mm)*
G04 Created by KiCad (PCBNEW 7.0.1-115-g2ece2719d0) date 2023-06-28 23:30:18*
%MOMM*%
%LPD*%
G01*
G04 APERTURE LIST*
G04 #@! TA.AperFunction,ComponentPad*
%ADD10C,0.600000*%
G04 #@! TD*
G04 #@! TA.AperFunction,SMDPad,CuDef*
%ADD11R,0.250000X6.185000*%
G04 #@! TD*
G04 #@! TA.AperFunction,SMDPad,CuDef*
%ADD12R,0.250000X1.115000*%
G04 #@! TD*
G04 #@! TA.AperFunction,SMDPad,CuDef*
%ADD13R,14.275000X0.250000*%
G04 #@! TD*
G04 #@! TA.AperFunction,SMDPad,CuDef*
%ADD14R,15.100000X0.250000*%
G04 #@! TD*
G04 #@! TA.AperFunction,SMDPad,CuDef*
%ADD15R,0.250000X5.175000*%
G04 #@! TD*
G04 #@! TA.AperFunction,SMDPad,CuDef*
%ADD16R,1.400000X0.300000*%
G04 #@! TD*
G04 #@! TA.AperFunction,ViaPad*
%ADD17C,0.600000*%
G04 #@! TD*
G04 #@! TA.AperFunction,Conductor*
%ADD18C,0.250000*%
G04 #@! TD*
G04 #@! TA.AperFunction,Conductor*
%ADD19C,0.200000*%
G04 #@! TD*
G04 APERTURE END LIST*
D10*
G04 #@! TO.P,M751,E1,NC*
G04 #@! TO.N,unconnected-(M751-NC-PadE1)*
X14800000Y6900000D03*
G04 #@! TO.P,M751,E2,NC*
G04 #@! TO.N,unconnected-(M751-NC-PadE2)*
X14800000Y5700000D03*
G04 #@! TO.P,M751,E3,OUT*
G04 #@! TO.N,output*
X14800000Y8100000D03*
G04 #@! TO.P,M751,E4,V5_IN*
G04 #@! TO.N,+5V*
X14800000Y9300000D03*
D11*
G04 #@! TO.P,M751,G,GND*
G04 #@! TO.N,GND*
X150000Y6632500D03*
D12*
X150000Y582500D03*
D13*
X7162500Y9600000D03*
D14*
X7575000Y150000D03*
D15*
X15000000Y2612500D03*
D10*
G04 #@! TO.P,M751,W1,VR-*
G04 #@! TO.N,VR-*
X375000Y2840000D03*
G04 #@! TO.P,M751,W2,VR+*
G04 #@! TO.N,VR+*
X375000Y1840000D03*
G04 #@! TD*
D16*
G04 #@! TO.P,U751,10,VCC*
G04 #@! TO.N,+5V*
X13000000Y3300000D03*
G04 #@! TO.P,U751,9,INT_THRS*
G04 #@! TO.N,GND*
X13000000Y2800000D03*
G04 #@! TO.P,U751,8,EXT*
G04 #@! TO.N,unconnected-(U751-EXT-Pad8)*
X13000000Y2300000D03*
G04 #@! TO.P,U751,7,COUT*
G04 #@! TO.N,output*
X13000000Y1800000D03*
G04 #@! TO.P,U751,6,ZERO_EN*
G04 #@! TO.N,GND*
X13000000Y1300000D03*
G04 #@! TO.P,U751,5,GND*
X8600000Y1300000D03*
G04 #@! TO.P,U751,4,BIAS*
X8600000Y1800000D03*
G04 #@! TO.P,U751,3,NC*
G04 #@! TO.N,unconnected-(U751-NC-Pad3)*
X8600000Y2300000D03*
G04 #@! TO.P,U751,2,IN-*
G04 #@! TO.N,Net-(U751-IN-)*
X8600000Y2800000D03*
G04 #@! TO.P,U751,1,IN+*
G04 #@! TO.N,Net-(U751-IN+)*
X8600000Y3300000D03*
G04 #@! TD*
G04 #@! TO.P,R757,2*
G04 #@! TO.N,+5V*
G04 #@! TA.AperFunction,SMDPad,CuDef*
G36*
G01*
X10510000Y5050000D02*
X11290000Y5050000D01*
G75*
G02*
X11360000Y4980000I0J-70000D01*
G01*
X11360000Y4420000D01*
G75*
G02*
X11290000Y4350000I-70000J0D01*
G01*
X10510000Y4350000D01*
G75*
G02*
X10440000Y4420000I0J70000D01*
G01*
X10440000Y4980000D01*
G75*
G02*
X10510000Y5050000I70000J0D01*
G01*
G37*
G04 #@! TD.AperFunction*
G04 #@! TO.P,R757,1*
G04 #@! TO.N,Net-(D751-A)*
G04 #@! TA.AperFunction,SMDPad,CuDef*
G36*
G01*
X10510000Y6650000D02*
X11290000Y6650000D01*
G75*
G02*
X11360000Y6580000I0J-70000D01*
G01*
X11360000Y6020000D01*
G75*
G02*
X11290000Y5950000I-70000J0D01*
G01*
X10510000Y5950000D01*
G75*
G02*
X10440000Y6020000I0J70000D01*
G01*
X10440000Y6580000D01*
G75*
G02*
X10510000Y6650000I70000J0D01*
G01*
G37*
G04 #@! TD.AperFunction*
G04 #@! TD*
G04 #@! TO.P,R756,2*
G04 #@! TO.N,+5V*
G04 #@! TA.AperFunction,SMDPad,CuDef*
G36*
G01*
X12550000Y8340000D02*
X12550000Y7560000D01*
G75*
G02*
X12480000Y7490000I-70000J0D01*
G01*
X11920000Y7490000D01*
G75*
G02*
X11850000Y7560000I0J70000D01*
G01*
X11850000Y8340000D01*
G75*
G02*
X11920000Y8410000I70000J0D01*
G01*
X12480000Y8410000D01*
G75*
G02*
X12550000Y8340000I0J-70000D01*
G01*
G37*
G04 #@! TD.AperFunction*
G04 #@! TO.P,R756,1*
G04 #@! TO.N,output*
G04 #@! TA.AperFunction,SMDPad,CuDef*
G36*
G01*
X14150000Y8340000D02*
X14150000Y7560000D01*
G75*
G02*
X14080000Y7490000I-70000J0D01*
G01*
X13520000Y7490000D01*
G75*
G02*
X13450000Y7560000I0J70000D01*
G01*
X13450000Y8340000D01*
G75*
G02*
X13520000Y8410000I70000J0D01*
G01*
X14080000Y8410000D01*
G75*
G02*
X14150000Y8340000I0J-70000D01*
G01*
G37*
G04 #@! TD.AperFunction*
G04 #@! TD*
G04 #@! TO.P,R755,2*
G04 #@! TO.N,Net-(U751-IN+)*
G04 #@! TA.AperFunction,SMDPad,CuDef*
G36*
G01*
X9010000Y5050000D02*
X9790000Y5050000D01*
G75*
G02*
X9860000Y4980000I0J-70000D01*
G01*
X9860000Y4420000D01*
G75*
G02*
X9790000Y4350000I-70000J0D01*
G01*
X9010000Y4350000D01*
G75*
G02*
X8940000Y4420000I0J70000D01*
G01*
X8940000Y4980000D01*
G75*
G02*
X9010000Y5050000I70000J0D01*
G01*
G37*
G04 #@! TD.AperFunction*
G04 #@! TO.P,R755,1*
G04 #@! TO.N,Net-(U751-IN-)*
G04 #@! TA.AperFunction,SMDPad,CuDef*
G36*
G01*
X9010000Y6650000D02*
X9790000Y6650000D01*
G75*
G02*
X9860000Y6580000I0J-70000D01*
G01*
X9860000Y6020000D01*
G75*
G02*
X9790000Y5950000I-70000J0D01*
G01*
X9010000Y5950000D01*
G75*
G02*
X8940000Y6020000I0J70000D01*
G01*
X8940000Y6580000D01*
G75*
G02*
X9010000Y6650000I70000J0D01*
G01*
G37*
G04 #@! TD.AperFunction*
G04 #@! TD*
G04 #@! TO.P,R754,2*
G04 #@! TO.N,Net-(R752-Pad1)*
G04 #@! TA.AperFunction,SMDPad,CuDef*
G36*
G01*
X3404990Y7600000D02*
X4094990Y7600000D01*
G75*
G02*
X4324990Y7370000I0J-230000D01*
G01*
X4324990Y6030000D01*
G75*
G02*
X4094990Y5800000I-230000J0D01*
G01*
X3404990Y5800000D01*
G75*
G02*
X3174990Y6030000I0J230000D01*
G01*
X3174990Y7370000D01*
G75*
G02*
X3404990Y7600000I230000J0D01*
G01*
G37*
G04 #@! TD.AperFunction*
G04 #@! TO.P,R754,1*
G04 #@! TO.N,Net-(U751-IN-)*
G04 #@! TA.AperFunction,SMDPad,CuDef*
G36*
G01*
X6305010Y7600000D02*
X6995010Y7600000D01*
G75*
G02*
X7225010Y7370000I0J-230000D01*
G01*
X7225010Y6030000D01*
G75*
G02*
X6995010Y5800000I-230000J0D01*
G01*
X6305010Y5800000D01*
G75*
G02*
X6075010Y6030000I0J230000D01*
G01*
X6075010Y7370000D01*
G75*
G02*
X6305010Y7600000I230000J0D01*
G01*
G37*
G04 #@! TD.AperFunction*
G04 #@! TD*
G04 #@! TO.P,R753,2*
G04 #@! TO.N,Net-(R751-Pad1)*
G04 #@! TA.AperFunction,SMDPad,CuDef*
G36*
G01*
X3404990Y5100000D02*
X4094990Y5100000D01*
G75*
G02*
X4324990Y4870000I0J-230000D01*
G01*
X4324990Y3530000D01*
G75*
G02*
X4094990Y3300000I-230000J0D01*
G01*
X3404990Y3300000D01*
G75*
G02*
X3174990Y3530000I0J230000D01*
G01*
X3174990Y4870000D01*
G75*
G02*
X3404990Y5100000I230000J0D01*
G01*
G37*
G04 #@! TD.AperFunction*
G04 #@! TO.P,R753,1*
G04 #@! TO.N,Net-(U751-IN+)*
G04 #@! TA.AperFunction,SMDPad,CuDef*
G36*
G01*
X6305010Y5100000D02*
X6995010Y5100000D01*
G75*
G02*
X7225010Y4870000I0J-230000D01*
G01*
X7225010Y3530000D01*
G75*
G02*
X6995010Y3300000I-230000J0D01*
G01*
X6305010Y3300000D01*
G75*
G02*
X6075010Y3530000I0J230000D01*
G01*
X6075010Y4870000D01*
G75*
G02*
X6305010Y5100000I230000J0D01*
G01*
G37*
G04 #@! TD.AperFunction*
G04 #@! TD*
G04 #@! TO.P,R752,1*
G04 #@! TO.N,Net-(R752-Pad1)*
G04 #@! TA.AperFunction,SMDPad,CuDef*
G36*
G01*
X700000Y6705010D02*
X700000Y7395010D01*
G75*
G02*
X930000Y7625010I230000J0D01*
G01*
X2270000Y7625010D01*
G75*
G02*
X2500000Y7395010I0J-230000D01*
G01*
X2500000Y6705010D01*
G75*
G02*
X2270000Y6475010I-230000J0D01*
G01*
X930000Y6475010D01*
G75*
G02*
X700000Y6705010I0J230000D01*
G01*
G37*
G04 #@! TD.AperFunction*
G04 #@! TO.P,R752,2*
G04 #@! TO.N,VR-*
G04 #@! TA.AperFunction,SMDPad,CuDef*
G36*
G01*
X700000Y3804990D02*
X700000Y4494990D01*
G75*
G02*
X930000Y4724990I230000J0D01*
G01*
X2270000Y4724990D01*
G75*
G02*
X2500000Y4494990I0J-230000D01*
G01*
X2500000Y3804990D01*
G75*
G02*
X2270000Y3574990I-230000J0D01*
G01*
X930000Y3574990D01*
G75*
G02*
X700000Y3804990I0J230000D01*
G01*
G37*
G04 #@! TD.AperFunction*
G04 #@! TD*
G04 #@! TO.P,R751,2*
G04 #@! TO.N,VR+*
G04 #@! TA.AperFunction,SMDPad,CuDef*
G36*
G01*
X1704990Y2700000D02*
X2394990Y2700000D01*
G75*
G02*
X2624990Y2470000I0J-230000D01*
G01*
X2624990Y1130000D01*
G75*
G02*
X2394990Y900000I-230000J0D01*
G01*
X1704990Y900000D01*
G75*
G02*
X1474990Y1130000I0J230000D01*
G01*
X1474990Y2470000D01*
G75*
G02*
X1704990Y2700000I230000J0D01*
G01*
G37*
G04 #@! TD.AperFunction*
G04 #@! TO.P,R751,1*
G04 #@! TO.N,Net-(R751-Pad1)*
G04 #@! TA.AperFunction,SMDPad,CuDef*
G36*
G01*
X4605010Y2700000D02*
X5295010Y2700000D01*
G75*
G02*
X5525010Y2470000I0J-230000D01*
G01*
X5525010Y1130000D01*
G75*
G02*
X5295010Y900000I-230000J0D01*
G01*
X4605010Y900000D01*
G75*
G02*
X4375010Y1130000I0J230000D01*
G01*
X4375010Y2470000D01*
G75*
G02*
X4605010Y2700000I230000J0D01*
G01*
G37*
G04 #@! TD.AperFunction*
G04 #@! TD*
G04 #@! TO.P,C754,2*
G04 #@! TO.N,+5V*
G04 #@! TA.AperFunction,SMDPad,CuDef*
G36*
G01*
X12634999Y6440000D02*
X12634999Y5760000D01*
G75*
G02*
X12549999Y5675000I-85000J0D01*
G01*
X11869999Y5675000D01*
G75*
G02*
X11784999Y5760000I0J85000D01*
G01*
X11784999Y6440000D01*
G75*
G02*
X11869999Y6525000I85000J0D01*
G01*
X12549999Y6525000D01*
G75*
G02*
X12634999Y6440000I0J-85000D01*
G01*
G37*
G04 #@! TD.AperFunction*
G04 #@! TO.P,C754,1*
G04 #@! TO.N,GND*
G04 #@! TA.AperFunction,SMDPad,CuDef*
G36*
G01*
X14215001Y6440000D02*
X14215001Y5760000D01*
G75*
G02*
X14130001Y5675000I-85000J0D01*
G01*
X13450001Y5675000D01*
G75*
G02*
X13365001Y5760000I0J85000D01*
G01*
X13365001Y6440000D01*
G75*
G02*
X13450001Y6525000I85000J0D01*
G01*
X14130001Y6525000D01*
G75*
G02*
X14215001Y6440000I0J-85000D01*
G01*
G37*
G04 #@! TD.AperFunction*
G04 #@! TD*
G04 #@! TO.P,C752,2*
G04 #@! TO.N,+5V*
G04 #@! TA.AperFunction,SMDPad,CuDef*
G36*
G01*
X12634999Y5140000D02*
X12634999Y4460000D01*
G75*
G02*
X12549999Y4375000I-85000J0D01*
G01*
X11869999Y4375000D01*
G75*
G02*
X11784999Y4460000I0J85000D01*
G01*
X11784999Y5140000D01*
G75*
G02*
X11869999Y5225000I85000J0D01*
G01*
X12549999Y5225000D01*
G75*
G02*
X12634999Y5140000I0J-85000D01*
G01*
G37*
G04 #@! TD.AperFunction*
G04 #@! TO.P,C752,1*
G04 #@! TO.N,GND*
G04 #@! TA.AperFunction,SMDPad,CuDef*
G36*
G01*
X14215001Y5140000D02*
X14215001Y4460000D01*
G75*
G02*
X14130001Y4375000I-85000J0D01*
G01*
X13450001Y4375000D01*
G75*
G02*
X13365001Y4460000I0J85000D01*
G01*
X13365001Y5140000D01*
G75*
G02*
X13450001Y5225000I85000J0D01*
G01*
X14130001Y5225000D01*
G75*
G02*
X14215001Y5140000I0J-85000D01*
G01*
G37*
G04 #@! TD.AperFunction*
G04 #@! TD*
G04 #@! TO.P,C751,2*
G04 #@! TO.N,Net-(U751-IN+)*
G04 #@! TA.AperFunction,SMDPad,CuDef*
G36*
G01*
X7760000Y5134999D02*
X8440000Y5134999D01*
G75*
G02*
X8525000Y5049999I0J-85000D01*
G01*
X8525000Y4369999D01*
G75*
G02*
X8440000Y4284999I-85000J0D01*
G01*
X7760000Y4284999D01*
G75*
G02*
X7675000Y4369999I0J85000D01*
G01*
X7675000Y5049999D01*
G75*
G02*
X7760000Y5134999I85000J0D01*
G01*
G37*
G04 #@! TD.AperFunction*
G04 #@! TO.P,C751,1*
G04 #@! TO.N,Net-(U751-IN-)*
G04 #@! TA.AperFunction,SMDPad,CuDef*
G36*
G01*
X7760000Y6715001D02*
X8440000Y6715001D01*
G75*
G02*
X8525000Y6630001I0J-85000D01*
G01*
X8525000Y5950001D01*
G75*
G02*
X8440000Y5865001I-85000J0D01*
G01*
X7760000Y5865001D01*
G75*
G02*
X7675000Y5950001I0J85000D01*
G01*
X7675000Y6630001D01*
G75*
G02*
X7760000Y6715001I85000J0D01*
G01*
G37*
G04 #@! TD.AperFunction*
G04 #@! TD*
G04 #@! TO.P,D751,2,A*
G04 #@! TO.N,Net-(D751-A)*
G04 #@! TA.AperFunction,SMDPad,CuDef*
G36*
G01*
X9550000Y8256250D02*
X9550000Y7743750D01*
G75*
G02*
X9331250Y7525000I-218750J0D01*
G01*
X8893750Y7525000D01*
G75*
G02*
X8675000Y7743750I0J218750D01*
G01*
X8675000Y8256250D01*
G75*
G02*
X8893750Y8475000I218750J0D01*
G01*
X9331250Y8475000D01*
G75*
G02*
X9550000Y8256250I0J-218750D01*
G01*
G37*
G04 #@! TD.AperFunction*
G04 #@! TO.P,D751,1,K*
G04 #@! TO.N,output*
G04 #@! TA.AperFunction,SMDPad,CuDef*
G36*
G01*
X11125000Y8256250D02*
X11125000Y7743750D01*
G75*
G02*
X10906250Y7525000I-218750J0D01*
G01*
X10468750Y7525000D01*
G75*
G02*
X10250000Y7743750I0J218750D01*
G01*
X10250000Y8256250D01*
G75*
G02*
X10468750Y8475000I218750J0D01*
G01*
X10906250Y8475000D01*
G75*
G02*
X11125000Y8256250I0J-218750D01*
G01*
G37*
G04 #@! TD.AperFunction*
G04 #@! TD*
D17*
G04 #@! TO.N,GND*
X2900000Y5450000D03*
X3300000Y2750000D03*
X8817968Y5492919D03*
X8400000Y7250000D03*
X5200000Y6750000D03*
X5300000Y4250000D03*
X6700000Y2650000D03*
X9900000Y1550000D03*
X11800000Y1350000D03*
X11200000Y3750000D03*
X14500000Y4750000D03*
X14500000Y1350000D03*
X13000000Y650000D03*
X8600000Y650000D03*
X6800000Y650000D03*
X3600000Y650000D03*
X700000Y650000D03*
X700000Y5650000D03*
X4200000Y9050000D03*
X800000Y9050000D03*
X7800000Y9050000D03*
X12200000Y9050000D03*
G04 #@! TD*
D18*
G04 #@! TO.N,+5V*
X12209999Y6100000D02*
X12209999Y4800000D01*
X11400000Y8750000D02*
X12200000Y7950000D01*
X9975000Y8460768D02*
X10264232Y8750000D01*
X10300000Y7150000D02*
X9975000Y7475000D01*
X10264232Y8750000D02*
X11400000Y8750000D01*
X11207904Y7150000D02*
X10300000Y7150000D01*
X12209999Y6147905D02*
X11207904Y7150000D01*
X12209999Y6100000D02*
X12209999Y6147905D01*
G04 #@! TO.N,output*
X10922884Y8000000D02*
X10687500Y8000000D01*
X11707884Y7215000D02*
X10922884Y8000000D01*
G04 #@! TO.N,Net-(D751-A)*
X9112500Y7772520D02*
X9112500Y8000000D01*
X10900000Y6300000D02*
X10585020Y6300000D01*
G04 #@! TO.N,output*
X13065000Y7215000D02*
X11707884Y7215000D01*
G04 #@! TO.N,+5V*
X9975000Y7475000D02*
X9975000Y8460768D01*
G04 #@! TO.N,output*
X13090001Y7240001D02*
X13065000Y7215000D01*
G04 #@! TO.N,Net-(D751-A)*
X10585020Y6300000D02*
X9112500Y7772520D01*
G04 #@! TO.N,output*
X14650000Y7950000D02*
X14800000Y8100000D01*
X13800000Y7950000D02*
X14650000Y7950000D01*
X13900000Y1800000D02*
X13000000Y1800000D01*
X13650884Y3750000D02*
X13950000Y3750000D01*
X13090001Y4310883D02*
X13650884Y3750000D01*
X13950000Y3750000D02*
X14100000Y3600000D01*
X13800000Y7950000D02*
X13090001Y7240001D01*
X13090001Y7240001D02*
X13090001Y4310883D01*
X14100000Y3600000D02*
X14100000Y2000000D01*
X14100000Y2000000D02*
X13900000Y1800000D01*
G04 #@! TO.N,+5V*
X12935000Y8685000D02*
X12200000Y7950000D01*
X14185000Y8685000D02*
X12935000Y8685000D01*
X14800000Y9300000D02*
X14185000Y8685000D01*
X12209999Y3640001D02*
X12550000Y3300000D01*
X12209999Y4800000D02*
X12209999Y3640001D01*
X12550000Y3300000D02*
X13000000Y3300000D01*
X11000000Y4800000D02*
X10900000Y4700000D01*
X12209999Y4800000D02*
X11000000Y4800000D01*
G04 #@! TO.N,Net-(U751-IN+)*
X9100000Y3300000D02*
X8600000Y3300000D01*
X9400000Y3600000D02*
X9100000Y3300000D01*
X9400000Y4700000D02*
X9400000Y3600000D01*
G04 #@! TO.N,Net-(U751-IN-)*
X10165000Y3565000D02*
X9400000Y2800000D01*
X10165000Y5535000D02*
X10165000Y3565000D01*
X9400000Y6300000D02*
X10165000Y5535000D01*
X9400000Y2800000D02*
X8600000Y2800000D01*
X9390001Y6290001D02*
X9400000Y6300000D01*
X8100000Y6290001D02*
X9390001Y6290001D01*
G04 #@! TO.N,Net-(U751-IN+)*
X9390001Y4709999D02*
X9400000Y4700000D01*
X8100000Y4709999D02*
X9390001Y4709999D01*
X7590001Y4200000D02*
X8100000Y4709999D01*
X6650010Y4200000D02*
X7590001Y4200000D01*
G04 #@! TO.N,Net-(U751-IN-)*
X7690001Y6700000D02*
X8100000Y6290001D01*
X6650010Y6700000D02*
X7690001Y6700000D01*
G04 #@! TO.N,Net-(R751-Pad1)*
X4950010Y2999980D02*
X3749990Y4200000D01*
X4950010Y1800000D02*
X4950010Y2999980D01*
G04 #@! TO.N,Net-(R752-Pad1)*
X3399980Y7050010D02*
X3749990Y6700000D01*
X1600000Y7050010D02*
X3399980Y7050010D01*
D19*
G04 #@! TO.N,VR-*
X375000Y2840000D02*
X375000Y2924990D01*
X375000Y2924990D02*
X1600000Y4149990D01*
G04 #@! TO.N,VR+*
X2009990Y1840000D02*
X2049990Y1800000D01*
X375000Y1840000D02*
X2009990Y1840000D01*
G04 #@! TD*
G04 #@! TA.AperFunction,Conductor*
G04 #@! TO.N,GND*
G36*
X14408910Y9709284D02*
G01*
X14445440Y9667127D01*
X14453379Y9611912D01*
X14430207Y9561169D01*
X14417115Y9546061D01*
X14363302Y9428228D01*
X14344866Y9300001D01*
X14346050Y9291767D01*
X14341990Y9246416D01*
X14318061Y9207679D01*
X14099881Y8989497D01*
X14067763Y8968036D01*
X14029877Y8960500D01*
X12971884Y8960500D01*
X12952571Y8962402D01*
X12935000Y8965897D01*
X12907868Y8960500D01*
X12907867Y8960500D01*
X12887396Y8956429D01*
X12827503Y8944515D01*
X12785533Y8916472D01*
X12785532Y8916471D01*
X12764544Y8902447D01*
X12736375Y8883625D01*
X12726423Y8868731D01*
X12714114Y8853733D01*
X12449879Y8589497D01*
X12417761Y8568036D01*
X12379875Y8560500D01*
X12020124Y8560500D01*
X11982238Y8568036D01*
X11950120Y8589496D01*
X11620885Y8918731D01*
X11608574Y8933733D01*
X11598624Y8948625D01*
X11575623Y8963993D01*
X11572773Y8965897D01*
X11522483Y8999500D01*
X11507495Y9009515D01*
X11427133Y9025500D01*
X11427132Y9025500D01*
X11400000Y9030897D01*
X11399999Y9030897D01*
X11391993Y9029305D01*
X11382428Y9027402D01*
X11363116Y9025500D01*
X10301117Y9025500D01*
X10281803Y9027402D01*
X10264232Y9030897D01*
X10237100Y9025500D01*
X10237099Y9025500D01*
X10156736Y9009515D01*
X10156737Y9009515D01*
X10141749Y8999500D01*
X10141748Y8999501D01*
X10141748Y8999500D01*
X10093776Y8967447D01*
X10093691Y8967390D01*
X10093688Y8967388D01*
X10065607Y8948625D01*
X10055655Y8933731D01*
X10043346Y8918732D01*
X9806268Y8681654D01*
X9791269Y8669345D01*
X9776375Y8659393D01*
X9720903Y8576373D01*
X9708595Y8561375D01*
X9698467Y8551246D01*
X9654086Y8525620D01*
X9602838Y8525619D01*
X9558458Y8551241D01*
X9548780Y8560919D01*
X9490325Y8589496D01*
X9438068Y8615043D01*
X9423712Y8617135D01*
X9366295Y8625500D01*
X9366291Y8625500D01*
X8858706Y8625500D01*
X8786934Y8615044D01*
X8676220Y8560919D01*
X8589080Y8473779D01*
X8534957Y8363069D01*
X8532030Y8342975D01*
X8525897Y8300878D01*
X8524500Y8291292D01*
X8524500Y7708707D01*
X8534956Y7636935D01*
X8534957Y7636933D01*
X8589081Y7526220D01*
X8676220Y7439081D01*
X8786933Y7384957D01*
X8858705Y7374500D01*
X9079895Y7374501D01*
X9117780Y7366965D01*
X9149899Y7345505D01*
X9525900Y6969504D01*
X9552994Y6918814D01*
X9547360Y6861614D01*
X9510898Y6817185D01*
X9455896Y6800500D01*
X8988279Y6800500D01*
X8923965Y6787708D01*
X8851026Y6738972D01*
X8833039Y6712052D01*
X8797392Y6679744D01*
X8750724Y6668055D01*
X8704056Y6679745D01*
X8668410Y6712053D01*
X8609787Y6799789D01*
X8531889Y6851838D01*
X8463197Y6865502D01*
X8463196Y6865502D01*
X7963673Y6865502D01*
X7917005Y6877192D01*
X7905160Y6887928D01*
X7904998Y6887684D01*
X7865624Y6913993D01*
X7822938Y6942515D01*
X7797496Y6959515D01*
X7717134Y6975500D01*
X7717133Y6975500D01*
X7690001Y6980897D01*
X7672429Y6977402D01*
X7653117Y6975500D01*
X7474510Y6975500D01*
X7425010Y6988763D01*
X7388773Y7025000D01*
X7375510Y7074500D01*
X7375510Y7406108D01*
X7375476Y7406340D01*
X7364734Y7480072D01*
X7308961Y7594157D01*
X7219167Y7683951D01*
X7105082Y7739724D01*
X7031120Y7750500D01*
X6268900Y7750500D01*
X6194938Y7739724D01*
X6080853Y7683951D01*
X5991059Y7594157D01*
X5935286Y7480072D01*
X5924510Y7406110D01*
X5924510Y5993890D01*
X5935286Y5919928D01*
X5991059Y5805843D01*
X6080853Y5716049D01*
X6194938Y5660276D01*
X6268900Y5649500D01*
X7031118Y5649500D01*
X7031120Y5649500D01*
X7105082Y5660276D01*
X7219167Y5716049D01*
X7308961Y5805843D01*
X7350449Y5890709D01*
X7392493Y5934415D01*
X7452139Y5945401D01*
X7507000Y5919542D01*
X7536485Y5866543D01*
X7538162Y5858114D01*
X7590212Y5780214D01*
X7604743Y5770505D01*
X7668111Y5728164D01*
X7736803Y5714500D01*
X8463196Y5714500D01*
X8463197Y5714500D01*
X8531889Y5728164D01*
X8609787Y5780214D01*
X8626912Y5805843D01*
X8672778Y5874486D01*
X8674620Y5873255D01*
X8686145Y5894819D01*
X8736834Y5921918D01*
X8794037Y5916286D01*
X8838469Y5879823D01*
X8842858Y5873255D01*
X8851028Y5861028D01*
X8887247Y5836828D01*
X8923963Y5812294D01*
X8923965Y5812293D01*
X8988281Y5799500D01*
X9469875Y5799501D01*
X9507761Y5791965D01*
X9539879Y5770505D01*
X9860504Y5449880D01*
X9881964Y5417762D01*
X9889500Y5379876D01*
X9889500Y5299500D01*
X9876237Y5250000D01*
X9840000Y5213764D01*
X9790500Y5200500D01*
X8988279Y5200500D01*
X8923965Y5187708D01*
X8851026Y5138972D01*
X8838468Y5120177D01*
X8794036Y5083715D01*
X8736835Y5078083D01*
X8686146Y5105181D01*
X8674621Y5126746D01*
X8672778Y5125514D01*
X8609787Y5219787D01*
X8531889Y5271836D01*
X8531888Y5271837D01*
X8463197Y5285500D01*
X7736803Y5285500D01*
X7702457Y5278669D01*
X7668110Y5271836D01*
X7590212Y5219787D01*
X7538163Y5141889D01*
X7538162Y5141888D01*
X7538163Y5141888D01*
X7526592Y5083715D01*
X7522597Y5063633D01*
X7519817Y5064186D01*
X7510545Y5030509D01*
X7472618Y4994118D01*
X7421408Y4982271D01*
X7371351Y4998307D01*
X7336558Y5037706D01*
X7308961Y5094157D01*
X7219167Y5183951D01*
X7105082Y5239724D01*
X7031120Y5250500D01*
X6268900Y5250500D01*
X6194938Y5239724D01*
X6080853Y5183951D01*
X5991059Y5094157D01*
X5935286Y4980072D01*
X5924510Y4906110D01*
X5924510Y3493890D01*
X5935286Y3419928D01*
X5991059Y3305843D01*
X6080853Y3216049D01*
X6194938Y3160276D01*
X6268900Y3149500D01*
X7031118Y3149500D01*
X7031120Y3149500D01*
X7105082Y3160276D01*
X7219167Y3216049D01*
X7308961Y3305843D01*
X7364734Y3419928D01*
X7375510Y3493890D01*
X7375510Y3825500D01*
X7388773Y3875000D01*
X7425010Y3911237D01*
X7474510Y3924500D01*
X7553117Y3924500D01*
X7572429Y3922599D01*
X7590001Y3919103D01*
X7617133Y3924500D01*
X7617134Y3924500D01*
X7697496Y3940485D01*
X7739466Y3968529D01*
X7765623Y3986006D01*
X7765622Y3986006D01*
X7776344Y3993169D01*
X7776349Y3993174D01*
X7777111Y3993683D01*
X7788625Y4001376D01*
X7798578Y4016272D01*
X7810889Y4031272D01*
X7885120Y4105502D01*
X7917238Y4126962D01*
X7955123Y4134498D01*
X8463196Y4134498D01*
X8463197Y4134498D01*
X8531889Y4148162D01*
X8609787Y4200212D01*
X8661837Y4278110D01*
X8661837Y4278112D01*
X8668409Y4287947D01*
X8704056Y4320256D01*
X8750724Y4331946D01*
X8797393Y4320257D01*
X8833040Y4287948D01*
X8851027Y4261029D01*
X8851028Y4261028D01*
X8885246Y4238164D01*
X8923963Y4212294D01*
X8923965Y4212293D01*
X8988281Y4199500D01*
X9025500Y4199500D01*
X9075000Y4186237D01*
X9111237Y4150000D01*
X9124500Y4100500D01*
X9124500Y3755124D01*
X9116964Y3717238D01*
X9095504Y3685120D01*
X9039880Y3629496D01*
X9007762Y3608036D01*
X8969876Y3600500D01*
X7885180Y3600500D01*
X7863229Y3596134D01*
X7841277Y3591767D01*
X7791496Y3558504D01*
X7758233Y3508723D01*
X7755007Y3492505D01*
X7749500Y3464820D01*
X7749500Y3135180D01*
X7756958Y3097687D01*
X7762075Y3071966D01*
X7759255Y3071406D01*
X7765748Y3050000D01*
X7759255Y3028595D01*
X7762075Y3028034D01*
X7758233Y3008723D01*
X7758233Y3008722D01*
X7749500Y2964820D01*
X7749500Y2635180D01*
X7758136Y2591767D01*
X7762075Y2571964D01*
X7759257Y2571404D01*
X7765747Y2550009D01*
X7759256Y2528595D01*
X7762075Y2528034D01*
X7758233Y2508723D01*
X7758233Y2508722D01*
X7749500Y2464820D01*
X7749500Y2464818D01*
X7749500Y2125430D01*
X7749230Y2125430D01*
X7749228Y2097908D01*
X7734448Y2062226D01*
X7711604Y2028037D01*
X7700000Y1969697D01*
X7700000Y1950001D01*
X7700001Y1950000D01*
X9499999Y1950000D01*
X9500000Y1950001D01*
X9500000Y1969697D01*
X9488395Y2028037D01*
X9465552Y2062225D01*
X9450770Y2097914D01*
X9450771Y2125429D01*
X9450500Y2125429D01*
X9450500Y2449485D01*
X9462190Y2496153D01*
X9494498Y2531800D01*
X9573148Y2584353D01*
X9573149Y2584354D01*
X9586339Y2593166D01*
X9586344Y2593172D01*
X9598624Y2601376D01*
X9608578Y2616275D01*
X9620881Y2631267D01*
X10333733Y3344119D01*
X10348730Y3356426D01*
X10363624Y3366376D01*
X10379744Y3390500D01*
X10424515Y3457505D01*
X10426822Y3469103D01*
X10440500Y3537867D01*
X10440500Y3537868D01*
X10442402Y3547430D01*
X10442402Y3547433D01*
X10443429Y3552598D01*
X10445896Y3565000D01*
X10442402Y3582567D01*
X10440500Y3601879D01*
X10440500Y4100500D01*
X10453763Y4150000D01*
X10490000Y4186236D01*
X10539500Y4199500D01*
X11311720Y4199501D01*
X11359498Y4209004D01*
X11376035Y4212293D01*
X11448972Y4261028D01*
X11497707Y4333965D01*
X11497707Y4333967D01*
X11502026Y4340430D01*
X11537673Y4372739D01*
X11584342Y4384429D01*
X11631010Y4372739D01*
X11666657Y4340431D01*
X11700211Y4290213D01*
X11718325Y4278110D01*
X11778110Y4238163D01*
X11846802Y4224499D01*
X11846805Y4224499D01*
X11854813Y4222906D01*
X11895766Y4204350D01*
X11924289Y4169595D01*
X11934499Y4125808D01*
X11934499Y3676885D01*
X11932597Y3657573D01*
X11929102Y3640001D01*
X11934499Y3612869D01*
X11934499Y3612868D01*
X11947047Y3549783D01*
X11950484Y3532506D01*
X11976287Y3493890D01*
X11995710Y3464820D01*
X12011374Y3441378D01*
X12026265Y3431428D01*
X12041268Y3419116D01*
X12120504Y3339880D01*
X12141964Y3307762D01*
X12149500Y3269876D01*
X12149500Y3125430D01*
X12149230Y3125430D01*
X12149228Y3097908D01*
X12134448Y3062226D01*
X12111604Y3028037D01*
X12100000Y2969697D01*
X12100000Y2950001D01*
X12100001Y2950000D01*
X13051000Y2950000D01*
X13100500Y2936737D01*
X13136737Y2900500D01*
X13150000Y2851000D01*
X13150000Y2749000D01*
X13136737Y2699500D01*
X13100500Y2663263D01*
X13051000Y2650000D01*
X12100001Y2650000D01*
X12100000Y2649999D01*
X12100000Y2630303D01*
X12111604Y2571964D01*
X12134447Y2537776D01*
X12149228Y2502095D01*
X12149230Y2474570D01*
X12149500Y2474570D01*
X12149500Y2464820D01*
X12149500Y2135180D01*
X12156914Y2097908D01*
X12162075Y2071966D01*
X12159255Y2071406D01*
X12165748Y2050000D01*
X12159255Y2028595D01*
X12162075Y2028034D01*
X12158233Y2008723D01*
X12158233Y2008722D01*
X12149500Y1964820D01*
X12149500Y1964818D01*
X12149500Y1625430D01*
X12149230Y1625430D01*
X12149228Y1597908D01*
X12134448Y1562226D01*
X12111604Y1528037D01*
X12100000Y1469697D01*
X12100000Y1450001D01*
X12100001Y1450000D01*
X13899999Y1450000D01*
X13903693Y1453695D01*
X13910210Y1481643D01*
X13938733Y1516398D01*
X13979685Y1534954D01*
X14007495Y1540485D01*
X14073148Y1584353D01*
X14075622Y1586006D01*
X14075622Y1586007D01*
X14086339Y1593166D01*
X14086344Y1593172D01*
X14098624Y1601376D01*
X14108578Y1616275D01*
X14120881Y1631267D01*
X14268733Y1779119D01*
X14283730Y1791426D01*
X14298624Y1801376D01*
X14359515Y1892505D01*
X14375500Y1972867D01*
X14375500Y1972868D01*
X14380897Y2000000D01*
X14379259Y2008233D01*
X14377402Y2017571D01*
X14375500Y2036885D01*
X14375500Y3563116D01*
X14377402Y3582431D01*
X14379477Y3592863D01*
X14380897Y3600000D01*
X14361416Y3697933D01*
X14360936Y3702807D01*
X14359516Y3707488D01*
X14359515Y3707494D01*
X14359515Y3707495D01*
X14331114Y3750000D01*
X14327690Y3755124D01*
X14308577Y3783729D01*
X14308576Y3783729D01*
X14308576Y3783730D01*
X14298623Y3798625D01*
X14283732Y3808575D01*
X14268730Y3820886D01*
X14170885Y3918731D01*
X14158574Y3933733D01*
X14148623Y3948625D01*
X14133729Y3958577D01*
X14133724Y3958581D01*
X14092680Y3986005D01*
X14092679Y3986005D01*
X14092675Y3986008D01*
X14081186Y3993685D01*
X14047979Y4031054D01*
X14037265Y4079886D01*
X14051778Y4127726D01*
X14087815Y4162376D01*
X14136189Y4174999D01*
X14172561Y4174999D01*
X14196382Y4177763D01*
X14293854Y4220802D01*
X14369199Y4296147D01*
X14412238Y4393619D01*
X14415002Y4417440D01*
X14415002Y4545999D01*
X14415001Y4546000D01*
X13635001Y4546000D01*
X13585501Y4559263D01*
X13549264Y4595500D01*
X13536001Y4645000D01*
X13536001Y6725000D01*
X13536000Y6725001D01*
X13464501Y6725001D01*
X13415001Y6738264D01*
X13378764Y6774501D01*
X13365501Y6824001D01*
X13365501Y7084878D01*
X13373037Y7122764D01*
X13394497Y7154881D01*
X13550119Y7310504D01*
X13582237Y7331965D01*
X13620123Y7339501D01*
X14101720Y7339501D01*
X14149051Y7348915D01*
X14166035Y7352293D01*
X14238972Y7401028D01*
X14287707Y7473965D01*
X14300500Y7538281D01*
X14300500Y7575500D01*
X14313763Y7625000D01*
X14350000Y7661237D01*
X14399500Y7674500D01*
X14613116Y7674500D01*
X14632429Y7672599D01*
X14650000Y7669103D01*
X14650000Y7669104D01*
X14669316Y7665261D01*
X14669286Y7665111D01*
X14684349Y7664440D01*
X14735228Y7649500D01*
X14864772Y7649500D01*
X14998109Y7688650D01*
X15058380Y7687215D01*
X15106643Y7651085D01*
X15125000Y7593660D01*
X15125000Y7406340D01*
X15106643Y7348915D01*
X15058380Y7312785D01*
X14998109Y7311350D01*
X14864772Y7350500D01*
X14735228Y7350500D01*
X14610931Y7314005D01*
X14501949Y7243966D01*
X14417116Y7146063D01*
X14363302Y7028228D01*
X14344866Y6900000D01*
X14356802Y6816982D01*
X14350393Y6765296D01*
X14318637Y6724016D01*
X14270323Y6704566D01*
X14218823Y6712329D01*
X14196382Y6722238D01*
X14172561Y6725001D01*
X14044002Y6725001D01*
X14044001Y6725000D01*
X14044001Y6354001D01*
X14044002Y6354000D01*
X14415001Y6354000D01*
X14415002Y6354001D01*
X14415002Y6430607D01*
X14428861Y6481124D01*
X14466557Y6517497D01*
X14517536Y6529544D01*
X14567524Y6513892D01*
X14610931Y6485996D01*
X14735228Y6449500D01*
X14864772Y6449500D01*
X14998109Y6488650D01*
X15058380Y6487215D01*
X15106643Y6451085D01*
X15125000Y6393660D01*
X15125000Y6206340D01*
X15106643Y6148915D01*
X15058380Y6112785D01*
X14998109Y6111350D01*
X14864772Y6150500D01*
X14735228Y6150500D01*
X14610931Y6114005D01*
X14501952Y6043968D01*
X14417117Y5946062D01*
X14397850Y5903873D01*
X14361320Y5861716D01*
X14307797Y5846000D01*
X14044002Y5846000D01*
X14044001Y5845999D01*
X14044001Y5054001D01*
X14044002Y5054000D01*
X14415001Y5054000D01*
X14415002Y5054001D01*
X14415002Y5182560D01*
X14410512Y5221260D01*
X14413136Y5221565D01*
X14409533Y5243845D01*
X14426771Y5290888D01*
X14464835Y5323466D01*
X14513975Y5333235D01*
X14561605Y5317695D01*
X14606801Y5288650D01*
X14610931Y5285996D01*
X14735228Y5249500D01*
X14864772Y5249500D01*
X14998109Y5288650D01*
X15058380Y5287215D01*
X15106643Y5251085D01*
X15125000Y5193660D01*
X15125000Y124500D01*
X15111737Y75000D01*
X15075500Y38763D01*
X15026000Y25500D01*
X124500Y25500D01*
X75000Y38763D01*
X38763Y75000D01*
X25500Y124500D01*
X25500Y1078315D01*
X43025Y1134553D01*
X89394Y1170882D01*
X148192Y1174438D01*
X289942Y1139500D01*
X289944Y1139500D01*
X460056Y1139500D01*
X460057Y1139500D01*
X515112Y1153071D01*
X625225Y1180210D01*
X775852Y1259266D01*
X838314Y1314603D01*
X868858Y1333067D01*
X903964Y1339500D01*
X975490Y1339500D01*
X1024990Y1326237D01*
X1061227Y1290000D01*
X1074490Y1240500D01*
X1074490Y1066330D01*
X1077303Y1030584D01*
X1121747Y877607D01*
X1202835Y740495D01*
X1202836Y740494D01*
X1202838Y740491D01*
X1315481Y627848D01*
X1452598Y546757D01*
X1605574Y502313D01*
X1641318Y499500D01*
X2458660Y499500D01*
X2458662Y499500D01*
X2494406Y502313D01*
X2647382Y546757D01*
X2784499Y627848D01*
X2897142Y740491D01*
X2978233Y877608D01*
X3022677Y1030584D01*
X3025490Y1066328D01*
X3025490Y2533672D01*
X3022677Y2569416D01*
X2978233Y2722392D01*
X2897142Y2859509D01*
X2784499Y2972152D01*
X2784496Y2972154D01*
X2784495Y2972155D01*
X2647383Y3053243D01*
X2592194Y3069277D01*
X2544534Y3100051D01*
X2521595Y3151938D01*
X2530909Y3207900D01*
X2569416Y3249558D01*
X2659509Y3302838D01*
X2772152Y3415481D01*
X2841030Y3531949D01*
X2885782Y3571906D01*
X2945395Y3578681D01*
X2997974Y3549783D01*
X3024208Y3495825D01*
X3024490Y3493892D01*
X3024490Y3493890D01*
X3035266Y3419928D01*
X3091039Y3305843D01*
X3180833Y3216049D01*
X3294918Y3160276D01*
X3368880Y3149500D01*
X4131098Y3149500D01*
X4131100Y3149500D01*
X4205062Y3160276D01*
X4272556Y3193273D01*
X4332330Y3201981D01*
X4386039Y3174335D01*
X4552424Y3007950D01*
X4578756Y2960760D01*
X4576384Y2906772D01*
X4546015Y2862073D01*
X4496698Y2839981D01*
X4494941Y2839726D01*
X4380852Y2783951D01*
X4380853Y2783951D01*
X4291059Y2694157D01*
X4235286Y2580072D01*
X4224510Y2506110D01*
X4224510Y1093890D01*
X4235286Y1019928D01*
X4291059Y905843D01*
X4380853Y816049D01*
X4494938Y760276D01*
X4568900Y749500D01*
X5331118Y749500D01*
X5331120Y749500D01*
X5405082Y760276D01*
X5519167Y816049D01*
X5608961Y905843D01*
X5664734Y1019928D01*
X5675510Y1093890D01*
X5675510Y1130303D01*
X7700000Y1130303D01*
X7711604Y1071964D01*
X7755807Y1005808D01*
X7821963Y961605D01*
X7880303Y950000D01*
X8449999Y950000D01*
X8450000Y950001D01*
X8750000Y950001D01*
X8750001Y950000D01*
X9319697Y950000D01*
X9378036Y961605D01*
X9444192Y1005808D01*
X9488395Y1071964D01*
X9500000Y1130303D01*
X12100000Y1130303D01*
X12111604Y1071964D01*
X12155807Y1005808D01*
X12221963Y961605D01*
X12280303Y950000D01*
X12849999Y950000D01*
X12850000Y950001D01*
X13150000Y950001D01*
X13150001Y950000D01*
X13719697Y950000D01*
X13778036Y961605D01*
X13844192Y1005808D01*
X13888395Y1071964D01*
X13900000Y1130303D01*
X13900000Y1149999D01*
X13899999Y1150000D01*
X13150001Y1150000D01*
X13150000Y1149999D01*
X13150000Y950001D01*
X12850000Y950001D01*
X12850000Y1149999D01*
X12849999Y1150000D01*
X12100001Y1150000D01*
X12100000Y1149999D01*
X12100000Y1130303D01*
X9500000Y1130303D01*
X9500000Y1149999D01*
X9499999Y1150000D01*
X8750001Y1150000D01*
X8750000Y1149999D01*
X8750000Y950001D01*
X8450000Y950001D01*
X8450000Y1149999D01*
X8449999Y1150000D01*
X7700001Y1150000D01*
X7700000Y1149999D01*
X7700000Y1130303D01*
X5675510Y1130303D01*
X5675510Y1450001D01*
X7700000Y1450001D01*
X7700001Y1450000D01*
X8449999Y1450000D01*
X8450000Y1450001D01*
X8750000Y1450001D01*
X8750001Y1450000D01*
X9499999Y1450000D01*
X9500000Y1450001D01*
X9500000Y1469696D01*
X9487868Y1530685D01*
X9487868Y1569315D01*
X9500000Y1630304D01*
X9500000Y1649999D01*
X9499999Y1650000D01*
X8750001Y1650000D01*
X8750000Y1649999D01*
X8750000Y1450001D01*
X8450000Y1450001D01*
X8450000Y1649999D01*
X8449999Y1650000D01*
X7700001Y1650000D01*
X7700000Y1649999D01*
X7700000Y1630303D01*
X7712131Y1569315D01*
X7712131Y1530688D01*
X7700000Y1469698D01*
X7700000Y1450001D01*
X5675510Y1450001D01*
X5675510Y2506110D01*
X5664734Y2580072D01*
X5608961Y2694157D01*
X5519167Y2783951D01*
X5405082Y2839724D01*
X5331120Y2850500D01*
X5331118Y2850500D01*
X5324510Y2850500D01*
X5275010Y2863763D01*
X5238773Y2900000D01*
X5225510Y2949500D01*
X5225510Y2963096D01*
X5227412Y2982408D01*
X5227733Y2984028D01*
X5230907Y2999980D01*
X5209526Y3107474D01*
X5164004Y3175602D01*
X5164003Y3175603D01*
X5158587Y3183709D01*
X5158586Y3183709D01*
X5158586Y3183710D01*
X5148633Y3198605D01*
X5133742Y3208555D01*
X5118740Y3220866D01*
X4504486Y3835120D01*
X4483026Y3867238D01*
X4475490Y3905124D01*
X4475490Y4906108D01*
X4475490Y4906110D01*
X4464714Y4980072D01*
X4408941Y5094157D01*
X4319147Y5183951D01*
X4205062Y5239724D01*
X4131100Y5250500D01*
X3368880Y5250500D01*
X3294917Y5239724D01*
X3294918Y5239724D01*
X3180833Y5183951D01*
X3091039Y5094157D01*
X3035266Y4980072D01*
X3024490Y4906108D01*
X3024490Y4819702D01*
X3011330Y4770382D01*
X2975349Y4734174D01*
X2926112Y4720704D01*
X2876710Y4733554D01*
X2840277Y4769307D01*
X2772154Y4884496D01*
X2772153Y4884497D01*
X2772152Y4884499D01*
X2659509Y4997142D01*
X2659506Y4997144D01*
X2659505Y4997145D01*
X2522393Y5078233D01*
X2369416Y5122677D01*
X2369415Y5122678D01*
X2333672Y5125490D01*
X866328Y5125490D01*
X842498Y5123615D01*
X830583Y5122677D01*
X677606Y5078233D01*
X540494Y4997145D01*
X427845Y4884496D01*
X346757Y4747384D01*
X339006Y4720704D01*
X302313Y4594406D01*
X299500Y4558662D01*
X299500Y3741318D01*
X302313Y3705574D01*
X315084Y3661614D01*
X317461Y3653434D01*
X318202Y3600885D01*
X291943Y3555361D01*
X246085Y3529691D01*
X148193Y3505562D01*
X89395Y3509118D01*
X43025Y3545446D01*
X25500Y3601685D01*
X25500Y6668900D01*
X549500Y6668900D01*
X560276Y6594938D01*
X616049Y6480853D01*
X705843Y6391059D01*
X819928Y6335286D01*
X893890Y6324510D01*
X2306108Y6324510D01*
X2306110Y6324510D01*
X2380072Y6335286D01*
X2494157Y6391059D01*
X2583951Y6480853D01*
X2639724Y6594938D01*
X2650500Y6668900D01*
X2650500Y6675510D01*
X2663763Y6725010D01*
X2700000Y6761247D01*
X2749500Y6774510D01*
X2925490Y6774510D01*
X2974990Y6761247D01*
X3011227Y6725010D01*
X3024490Y6675510D01*
X3024490Y5993890D01*
X3035266Y5919928D01*
X3091039Y5805843D01*
X3180833Y5716049D01*
X3294918Y5660276D01*
X3368880Y5649500D01*
X4131098Y5649500D01*
X4131100Y5649500D01*
X4205062Y5660276D01*
X4319147Y5716049D01*
X4408941Y5805843D01*
X4464714Y5919928D01*
X4475490Y5993890D01*
X4475490Y7406110D01*
X4464714Y7480072D01*
X4408941Y7594157D01*
X4319147Y7683951D01*
X4205062Y7739724D01*
X4131100Y7750500D01*
X3368880Y7750500D01*
X3294918Y7739724D01*
X3180833Y7683951D01*
X3091039Y7594157D01*
X3035266Y7480072D01*
X3025090Y7410235D01*
X3007697Y7366984D01*
X2972435Y7336487D01*
X2927126Y7325510D01*
X2749500Y7325510D01*
X2700000Y7338773D01*
X2663763Y7375010D01*
X2650500Y7424510D01*
X2650500Y7431118D01*
X2649340Y7439081D01*
X2639724Y7505082D01*
X2583951Y7619167D01*
X2494157Y7708961D01*
X2380072Y7764734D01*
X2306110Y7775510D01*
X893890Y7775510D01*
X819928Y7764734D01*
X705843Y7708961D01*
X616049Y7619167D01*
X560276Y7505082D01*
X549500Y7431120D01*
X549500Y6668900D01*
X25500Y6668900D01*
X25500Y9626000D01*
X38763Y9675500D01*
X75000Y9711737D01*
X124500Y9725000D01*
X14355387Y9725000D01*
X14408910Y9709284D01*
G37*
G04 #@! TD.AperFunction*
G04 #@! TD*
M02*
