G04 #@! TF.GenerationSoftware,KiCad,Pcbnew,7.0.1-115-g2ece2719d0*
G04 #@! TF.CreationDate,2023-06-29T00:23:38+03:00*
G04 #@! TF.ProjectId,hellen1-vr-max9924,68656c6c-656e-4312-9d76-722d6d617839,rev?*
G04 #@! TF.SameCoordinates,PX4a19ba0PY5aa5910*
G04 #@! TF.FileFunction,Legend,Top*
G04 #@! TF.FilePolarity,Positive*
%FSLAX46Y46*%
G04 Gerber Fmt 4.6, Leading zero omitted, Abs format (unit mm)*
G04 Created by KiCad (PCBNEW 7.0.1-115-g2ece2719d0) date 2023-06-29 00:23:38*
%MOMM*%
%LPD*%
G01*
G04 APERTURE LIST*
%ADD10C,0.150000*%
%ADD11C,0.200000*%
%ADD12C,0.203200*%
%ADD13C,0.120000*%
G04 APERTURE END LIST*
D10*
X3366667Y6387381D02*
X3700000Y5387381D01*
X3700000Y5387381D02*
X4033333Y6387381D01*
X4938095Y5387381D02*
X4604762Y5863572D01*
X4366667Y5387381D02*
X4366667Y6387381D01*
X4366667Y6387381D02*
X4747619Y6387381D01*
X4747619Y6387381D02*
X4842857Y6339762D01*
X4842857Y6339762D02*
X4890476Y6292143D01*
X4890476Y6292143D02*
X4938095Y6196905D01*
X4938095Y6196905D02*
X4938095Y6054048D01*
X4938095Y6054048D02*
X4890476Y5958810D01*
X4890476Y5958810D02*
X4842857Y5911191D01*
X4842857Y5911191D02*
X4747619Y5863572D01*
X4747619Y5863572D02*
X4366667Y5863572D01*
D11*
G04 #@! TO.C,M751*
X100000Y9700000D02*
X100000Y3300000D01*
X100000Y100000D02*
X100000Y1400000D01*
X100000Y100000D02*
X7500000Y100000D01*
X6800000Y9700000D02*
X100000Y9700000D01*
X7500000Y100000D02*
X7500000Y7700000D01*
D12*
G04 #@! TO.C,R755*
X6474995Y4150000D02*
X6474985Y3750000D01*
X5729160Y4151056D02*
X5729149Y3751057D01*
D13*
G04 #@! TO.C,D751*
X5065000Y8750000D02*
X5065000Y6465000D01*
X6535000Y6465000D02*
X6535000Y8750000D01*
X5065000Y6465000D02*
X6535000Y6465000D01*
D11*
G04 #@! TO.C,R752*
X3750000Y3250000D02*
X2450000Y3247072D01*
X3750000Y4850000D02*
X2450000Y4850000D01*
G04 #@! TO.C,R751*
X3750000Y2600000D02*
X2450000Y2600000D01*
X3750000Y1000000D02*
X2450000Y997072D01*
D12*
G04 #@! TO.C,R756*
X2100000Y5675005D02*
X1700000Y5675015D01*
X2101056Y6420840D02*
X1701057Y6420851D01*
D11*
G04 #@! TO.C,C752*
X1900000Y9199986D02*
X1900000Y8450001D01*
G04 #@! TO.C,C754*
X1900000Y7799986D02*
X1900000Y7050001D01*
D12*
G04 #@! TO.C,R757*
X4570840Y7848944D02*
X4570851Y8248943D01*
X3825005Y7850000D02*
X3825015Y8250000D01*
G04 #@! TD*
M02*
