G04 #@! TF.GenerationSoftware,KiCad,Pcbnew,7.0.1-115-g2ece2719d0*
G04 #@! TF.CreationDate,2023-07-25T20:37:58+03:00*
G04 #@! TF.ProjectId,hellen1-vr-max9924,68656c6c-656e-4312-9d76-722d6d617839,rev?*
G04 #@! TF.SameCoordinates,PX4a19ba0PY5aa5910*
G04 #@! TF.FileFunction,Copper,L4,Bot*
G04 #@! TF.FilePolarity,Positive*
%FSLAX46Y46*%
G04 Gerber Fmt 4.6, Leading zero omitted, Abs format (unit mm)*
G04 Created by KiCad (PCBNEW 7.0.1-115-g2ece2719d0) date 2023-07-25 20:37:58*
%MOMM*%
%LPD*%
G01*
G04 APERTURE LIST*
G04 #@! TA.AperFunction,ComponentPad*
%ADD10C,0.600000*%
G04 #@! TD*
G04 #@! TA.AperFunction,SMDPad,CuDef*
%ADD11R,0.250000X6.185000*%
G04 #@! TD*
G04 #@! TA.AperFunction,SMDPad,CuDef*
%ADD12R,0.250000X1.115000*%
G04 #@! TD*
G04 #@! TA.AperFunction,SMDPad,CuDef*
%ADD13R,14.275000X0.250000*%
G04 #@! TD*
G04 #@! TA.AperFunction,SMDPad,CuDef*
%ADD14R,15.100000X0.250000*%
G04 #@! TD*
G04 #@! TA.AperFunction,SMDPad,CuDef*
%ADD15R,0.250000X5.175000*%
G04 #@! TD*
G04 #@! TA.AperFunction,ViaPad*
%ADD16C,0.600000*%
G04 #@! TD*
G04 #@! TA.AperFunction,Conductor*
%ADD17C,0.250000*%
G04 #@! TD*
G04 #@! TA.AperFunction,Conductor*
%ADD18C,0.200000*%
G04 #@! TD*
G04 APERTURE END LIST*
G04 #@! TO.P,R763,1*
G04 #@! TO.N,Net-(R761-Pad2)*
G04 #@! TA.AperFunction,SMDPad,CuDef*
G36*
G01*
X5295010Y900000D02*
X4605010Y900000D01*
G75*
G02*
X4375010Y1130000I0J230000D01*
G01*
X4375010Y2470000D01*
G75*
G02*
X4605010Y2700000I230000J0D01*
G01*
X5295010Y2700000D01*
G75*
G02*
X5525010Y2470000I0J-230000D01*
G01*
X5525010Y1130000D01*
G75*
G02*
X5295010Y900000I-230000J0D01*
G01*
G37*
G04 #@! TD.AperFunction*
G04 #@! TO.P,R763,2*
G04 #@! TO.N,VR+*
G04 #@! TA.AperFunction,SMDPad,CuDef*
G36*
G01*
X2394990Y900000D02*
X1704990Y900000D01*
G75*
G02*
X1474990Y1130000I0J230000D01*
G01*
X1474990Y2470000D01*
G75*
G02*
X1704990Y2700000I230000J0D01*
G01*
X2394990Y2700000D01*
G75*
G02*
X2624990Y2470000I0J-230000D01*
G01*
X2624990Y1130000D01*
G75*
G02*
X2394990Y900000I-230000J0D01*
G01*
G37*
G04 #@! TD.AperFunction*
G04 #@! TD*
G04 #@! TO.P,R762,1*
G04 #@! TO.N,GND*
G04 #@! TA.AperFunction,SMDPad,CuDef*
G36*
G01*
X7040000Y350000D02*
X6260000Y350000D01*
G75*
G02*
X6190000Y420000I0J70000D01*
G01*
X6190000Y980000D01*
G75*
G02*
X6260000Y1050000I70000J0D01*
G01*
X7040000Y1050000D01*
G75*
G02*
X7110000Y980000I0J-70000D01*
G01*
X7110000Y420000D01*
G75*
G02*
X7040000Y350000I-70000J0D01*
G01*
G37*
G04 #@! TD.AperFunction*
G04 #@! TO.P,R762,2*
G04 #@! TO.N,HALL_EN*
G04 #@! TA.AperFunction,SMDPad,CuDef*
G36*
G01*
X7040000Y1950000D02*
X6260000Y1950000D01*
G75*
G02*
X6190000Y2020000I0J70000D01*
G01*
X6190000Y2580000D01*
G75*
G02*
X6260000Y2650000I70000J0D01*
G01*
X7040000Y2650000D01*
G75*
G02*
X7110000Y2580000I0J-70000D01*
G01*
X7110000Y2020000D01*
G75*
G02*
X7040000Y1950000I-70000J0D01*
G01*
G37*
G04 #@! TD.AperFunction*
G04 #@! TD*
G04 #@! TO.P,R761,1*
G04 #@! TO.N,Net-(D753-COM)*
G04 #@! TA.AperFunction,SMDPad,CuDef*
G36*
G01*
X6995010Y3300000D02*
X6305010Y3300000D01*
G75*
G02*
X6075010Y3530000I0J230000D01*
G01*
X6075010Y4870000D01*
G75*
G02*
X6305010Y5100000I230000J0D01*
G01*
X6995010Y5100000D01*
G75*
G02*
X7225010Y4870000I0J-230000D01*
G01*
X7225010Y3530000D01*
G75*
G02*
X6995010Y3300000I-230000J0D01*
G01*
G37*
G04 #@! TD.AperFunction*
G04 #@! TO.P,R761,2*
G04 #@! TO.N,Net-(R761-Pad2)*
G04 #@! TA.AperFunction,SMDPad,CuDef*
G36*
G01*
X4094990Y3300000D02*
X3404990Y3300000D01*
G75*
G02*
X3174990Y3530000I0J230000D01*
G01*
X3174990Y4870000D01*
G75*
G02*
X3404990Y5100000I230000J0D01*
G01*
X4094990Y5100000D01*
G75*
G02*
X4324990Y4870000I0J-230000D01*
G01*
X4324990Y3530000D01*
G75*
G02*
X4094990Y3300000I-230000J0D01*
G01*
G37*
G04 #@! TD.AperFunction*
G04 #@! TD*
G04 #@! TO.P,R760,1*
G04 #@! TO.N,Net-(Q752-G)*
G04 #@! TA.AperFunction,SMDPad,CuDef*
G36*
G01*
X7250000Y9040000D02*
X7250000Y8260000D01*
G75*
G02*
X7180000Y8190000I-70000J0D01*
G01*
X6620000Y8190000D01*
G75*
G02*
X6550000Y8260000I0J70000D01*
G01*
X6550000Y9040000D01*
G75*
G02*
X6620000Y9110000I70000J0D01*
G01*
X7180000Y9110000D01*
G75*
G02*
X7250000Y9040000I0J-70000D01*
G01*
G37*
G04 #@! TD.AperFunction*
G04 #@! TO.P,R760,2*
G04 #@! TO.N,+5V*
G04 #@! TA.AperFunction,SMDPad,CuDef*
G36*
G01*
X5650000Y9040000D02*
X5650000Y8260000D01*
G75*
G02*
X5580000Y8190000I-70000J0D01*
G01*
X5020000Y8190000D01*
G75*
G02*
X4950000Y8260000I0J70000D01*
G01*
X4950000Y9040000D01*
G75*
G02*
X5020000Y9110000I70000J0D01*
G01*
X5580000Y9110000D01*
G75*
G02*
X5650000Y9040000I0J-70000D01*
G01*
G37*
G04 #@! TD.AperFunction*
G04 #@! TD*
G04 #@! TO.P,R759,1*
G04 #@! TO.N,Net-(D752-COM)*
G04 #@! TA.AperFunction,SMDPad,CuDef*
G36*
G01*
X6995010Y5800000D02*
X6305010Y5800000D01*
G75*
G02*
X6075010Y6030000I0J230000D01*
G01*
X6075010Y7370000D01*
G75*
G02*
X6305010Y7600000I230000J0D01*
G01*
X6995010Y7600000D01*
G75*
G02*
X7225010Y7370000I0J-230000D01*
G01*
X7225010Y6030000D01*
G75*
G02*
X6995010Y5800000I-230000J0D01*
G01*
G37*
G04 #@! TD.AperFunction*
G04 #@! TO.P,R759,2*
G04 #@! TO.N,Net-(R758-Pad1)*
G04 #@! TA.AperFunction,SMDPad,CuDef*
G36*
G01*
X4094990Y5800000D02*
X3404990Y5800000D01*
G75*
G02*
X3174990Y6030000I0J230000D01*
G01*
X3174990Y7370000D01*
G75*
G02*
X3404990Y7600000I230000J0D01*
G01*
X4094990Y7600000D01*
G75*
G02*
X4324990Y7370000I0J-230000D01*
G01*
X4324990Y6030000D01*
G75*
G02*
X4094990Y5800000I-230000J0D01*
G01*
G37*
G04 #@! TD.AperFunction*
G04 #@! TD*
G04 #@! TO.P,R758,1*
G04 #@! TO.N,Net-(R758-Pad1)*
G04 #@! TA.AperFunction,SMDPad,CuDef*
G36*
G01*
X2500000Y7395010D02*
X2500000Y6705010D01*
G75*
G02*
X2270000Y6475010I-230000J0D01*
G01*
X930000Y6475010D01*
G75*
G02*
X700000Y6705010I0J230000D01*
G01*
X700000Y7395010D01*
G75*
G02*
X930000Y7625010I230000J0D01*
G01*
X2270000Y7625010D01*
G75*
G02*
X2500000Y7395010I0J-230000D01*
G01*
G37*
G04 #@! TD.AperFunction*
G04 #@! TO.P,R758,2*
G04 #@! TO.N,VR-*
G04 #@! TA.AperFunction,SMDPad,CuDef*
G36*
G01*
X2500000Y4494990D02*
X2500000Y3804990D01*
G75*
G02*
X2270000Y3574990I-230000J0D01*
G01*
X930000Y3574990D01*
G75*
G02*
X700000Y3804990I0J230000D01*
G01*
X700000Y4494990D01*
G75*
G02*
X930000Y4724990I230000J0D01*
G01*
X2270000Y4724990D01*
G75*
G02*
X2500000Y4494990I0J-230000D01*
G01*
G37*
G04 #@! TD.AperFunction*
G04 #@! TD*
G04 #@! TO.P,Q753,1,G*
G04 #@! TO.N,HALL_EN*
G04 #@! TA.AperFunction,SMDPad,CuDef*
G36*
G01*
X11650000Y4725000D02*
X11950000Y4725000D01*
G75*
G02*
X12100000Y4575000I0J-150000D01*
G01*
X12100000Y3400000D01*
G75*
G02*
X11950000Y3250000I-150000J0D01*
G01*
X11650000Y3250000D01*
G75*
G02*
X11500000Y3400000I0J150000D01*
G01*
X11500000Y4575000D01*
G75*
G02*
X11650000Y4725000I150000J0D01*
G01*
G37*
G04 #@! TD.AperFunction*
G04 #@! TO.P,Q753,2,D*
G04 #@! TO.N,Net-(Q752-G)*
G04 #@! TA.AperFunction,SMDPad,CuDef*
G36*
G01*
X12600000Y2850000D02*
X12900000Y2850000D01*
G75*
G02*
X13050000Y2700000I0J-150000D01*
G01*
X13050000Y1525000D01*
G75*
G02*
X12900000Y1375000I-150000J0D01*
G01*
X12600000Y1375000D01*
G75*
G02*
X12450000Y1525000I0J150000D01*
G01*
X12450000Y2700000D01*
G75*
G02*
X12600000Y2850000I150000J0D01*
G01*
G37*
G04 #@! TD.AperFunction*
G04 #@! TO.P,Q753,3,S*
G04 #@! TO.N,GND*
G04 #@! TA.AperFunction,SMDPad,CuDef*
G36*
G01*
X13550000Y4725000D02*
X13850000Y4725000D01*
G75*
G02*
X14000000Y4575000I0J-150000D01*
G01*
X14000000Y3400000D01*
G75*
G02*
X13850000Y3250000I-150000J0D01*
G01*
X13550000Y3250000D01*
G75*
G02*
X13400000Y3400000I0J150000D01*
G01*
X13400000Y4575000D01*
G75*
G02*
X13550000Y4725000I150000J0D01*
G01*
G37*
G04 #@! TD.AperFunction*
G04 #@! TD*
G04 #@! TO.P,Q752,1,G*
G04 #@! TO.N,Net-(Q752-G)*
G04 #@! TA.AperFunction,SMDPad,CuDef*
G36*
G01*
X8150000Y8675000D02*
X8450000Y8675000D01*
G75*
G02*
X8600000Y8525000I0J-150000D01*
G01*
X8600000Y7350000D01*
G75*
G02*
X8450000Y7200000I-150000J0D01*
G01*
X8150000Y7200000D01*
G75*
G02*
X8000000Y7350000I0J150000D01*
G01*
X8000000Y8525000D01*
G75*
G02*
X8150000Y8675000I150000J0D01*
G01*
G37*
G04 #@! TD.AperFunction*
G04 #@! TO.P,Q752,2,D*
G04 #@! TO.N,Net-(D752-COM)*
G04 #@! TA.AperFunction,SMDPad,CuDef*
G36*
G01*
X9100000Y6800000D02*
X9400000Y6800000D01*
G75*
G02*
X9550000Y6650000I0J-150000D01*
G01*
X9550000Y5475000D01*
G75*
G02*
X9400000Y5325000I-150000J0D01*
G01*
X9100000Y5325000D01*
G75*
G02*
X8950000Y5475000I0J150000D01*
G01*
X8950000Y6650000D01*
G75*
G02*
X9100000Y6800000I150000J0D01*
G01*
G37*
G04 #@! TD.AperFunction*
G04 #@! TO.P,Q752,3,S*
G04 #@! TO.N,+5V*
G04 #@! TA.AperFunction,SMDPad,CuDef*
G36*
G01*
X10050000Y8675000D02*
X10350000Y8675000D01*
G75*
G02*
X10500000Y8525000I0J-150000D01*
G01*
X10500000Y7350000D01*
G75*
G02*
X10350000Y7200000I-150000J0D01*
G01*
X10050000Y7200000D01*
G75*
G02*
X9900000Y7350000I0J150000D01*
G01*
X9900000Y8525000D01*
G75*
G02*
X10050000Y8675000I150000J0D01*
G01*
G37*
G04 #@! TD.AperFunction*
G04 #@! TD*
G04 #@! TO.P,D753,1,A*
G04 #@! TO.N,GND*
G04 #@! TA.AperFunction,SMDPad,CuDef*
G36*
G01*
X10350000Y1375000D02*
X10050000Y1375000D01*
G75*
G02*
X9900000Y1525000I0J150000D01*
G01*
X9900000Y2700000D01*
G75*
G02*
X10050000Y2850000I150000J0D01*
G01*
X10350000Y2850000D01*
G75*
G02*
X10500000Y2700000I0J-150000D01*
G01*
X10500000Y1525000D01*
G75*
G02*
X10350000Y1375000I-150000J0D01*
G01*
G37*
G04 #@! TD.AperFunction*
G04 #@! TO.P,D753,2,K*
G04 #@! TO.N,+5V*
G04 #@! TA.AperFunction,SMDPad,CuDef*
G36*
G01*
X8450000Y1375000D02*
X8150000Y1375000D01*
G75*
G02*
X8000000Y1525000I0J150000D01*
G01*
X8000000Y2700000D01*
G75*
G02*
X8150000Y2850000I150000J0D01*
G01*
X8450000Y2850000D01*
G75*
G02*
X8600000Y2700000I0J-150000D01*
G01*
X8600000Y1525000D01*
G75*
G02*
X8450000Y1375000I-150000J0D01*
G01*
G37*
G04 #@! TD.AperFunction*
G04 #@! TO.P,D753,3,COM*
G04 #@! TO.N,Net-(D753-COM)*
G04 #@! TA.AperFunction,SMDPad,CuDef*
G36*
G01*
X9400000Y3250000D02*
X9100000Y3250000D01*
G75*
G02*
X8950000Y3400000I0J150000D01*
G01*
X8950000Y4575000D01*
G75*
G02*
X9100000Y4725000I150000J0D01*
G01*
X9400000Y4725000D01*
G75*
G02*
X9550000Y4575000I0J-150000D01*
G01*
X9550000Y3400000D01*
G75*
G02*
X9400000Y3250000I-150000J0D01*
G01*
G37*
G04 #@! TD.AperFunction*
G04 #@! TD*
G04 #@! TO.P,D752,1,A*
G04 #@! TO.N,GND*
G04 #@! TA.AperFunction,SMDPad,CuDef*
G36*
G01*
X11650000Y8675000D02*
X11950000Y8675000D01*
G75*
G02*
X12100000Y8525000I0J-150000D01*
G01*
X12100000Y7350000D01*
G75*
G02*
X11950000Y7200000I-150000J0D01*
G01*
X11650000Y7200000D01*
G75*
G02*
X11500000Y7350000I0J150000D01*
G01*
X11500000Y8525000D01*
G75*
G02*
X11650000Y8675000I150000J0D01*
G01*
G37*
G04 #@! TD.AperFunction*
G04 #@! TO.P,D752,2,K*
G04 #@! TO.N,+5V*
G04 #@! TA.AperFunction,SMDPad,CuDef*
G36*
G01*
X13550000Y8675000D02*
X13850000Y8675000D01*
G75*
G02*
X14000000Y8525000I0J-150000D01*
G01*
X14000000Y7350000D01*
G75*
G02*
X13850000Y7200000I-150000J0D01*
G01*
X13550000Y7200000D01*
G75*
G02*
X13400000Y7350000I0J150000D01*
G01*
X13400000Y8525000D01*
G75*
G02*
X13550000Y8675000I150000J0D01*
G01*
G37*
G04 #@! TD.AperFunction*
G04 #@! TO.P,D752,3,COM*
G04 #@! TO.N,Net-(D752-COM)*
G04 #@! TA.AperFunction,SMDPad,CuDef*
G36*
G01*
X12600000Y6800000D02*
X12900000Y6800000D01*
G75*
G02*
X13050000Y6650000I0J-150000D01*
G01*
X13050000Y5475000D01*
G75*
G02*
X12900000Y5325000I-150000J0D01*
G01*
X12600000Y5325000D01*
G75*
G02*
X12450000Y5475000I0J150000D01*
G01*
X12450000Y6650000D01*
G75*
G02*
X12600000Y6800000I150000J0D01*
G01*
G37*
G04 #@! TD.AperFunction*
G04 #@! TD*
D10*
G04 #@! TO.P,M751,E1,HALL_EN*
G04 #@! TO.N,HALL_EN*
X14800000Y6900000D03*
G04 #@! TO.P,M751,E2,NC*
G04 #@! TO.N,unconnected-(M751-NC-PadE2)*
X14800000Y5700000D03*
G04 #@! TO.P,M751,E3,OUT*
G04 #@! TO.N,output*
X14800000Y8100000D03*
G04 #@! TO.P,M751,E4,V5_IN*
G04 #@! TO.N,+5V*
X14800000Y9300000D03*
D11*
G04 #@! TO.P,M751,G,GND*
G04 #@! TO.N,GND*
X150000Y6632500D03*
D12*
X150000Y582500D03*
D13*
X7162500Y9600000D03*
D14*
X7575000Y150000D03*
D15*
X15000000Y2612500D03*
D10*
G04 #@! TO.P,M751,W1,VR-/HALL*
G04 #@! TO.N,VR-*
X375000Y2840000D03*
G04 #@! TO.P,M751,W2,VR+*
G04 #@! TO.N,VR+*
X375000Y1840000D03*
G04 #@! TD*
D16*
G04 #@! TO.N,HALL_EN*
X11411634Y5485060D03*
G04 #@! TO.N,+5V*
X11172682Y8887724D03*
X10850000Y3850000D03*
G04 #@! TO.N,GND*
X700000Y5650000D03*
X14500000Y4750000D03*
X7800000Y9050000D03*
X3600000Y650000D03*
X4200000Y9050000D03*
X12200000Y9050000D03*
X800000Y9050000D03*
X14500000Y1350000D03*
X5200000Y6750000D03*
X13000000Y650000D03*
X3300000Y2750000D03*
X9250000Y650000D03*
X11050000Y3000000D03*
X11812466Y1337534D03*
X2900000Y5450000D03*
X700000Y650000D03*
X10950000Y2100000D03*
X5225500Y4236402D03*
G04 #@! TD*
D17*
G04 #@! TO.N,HALL_EN*
X11800000Y5096694D02*
X11411634Y5485060D01*
X11800000Y3987500D02*
X11800000Y5096694D01*
G04 #@! TO.N,+5V*
X13700000Y8200000D02*
X14800000Y9300000D01*
X13700000Y7937500D02*
X13700000Y8200000D01*
X10222458Y7937500D02*
X11172682Y8887724D01*
X10200000Y7937500D02*
X10222458Y7937500D01*
G04 #@! TO.N,Net-(Q752-G)*
X8713541Y7937500D02*
X8300000Y7937500D01*
X9825000Y6826041D02*
X8713541Y7937500D01*
G04 #@! TO.N,Net-(D752-COM)*
X9250000Y6062500D02*
X12750000Y6062500D01*
G04 #@! TO.N,Net-(Q752-G)*
X12175000Y6826041D02*
X9825000Y6826041D01*
X12423959Y7075000D02*
X12175000Y6826041D01*
X13325000Y5298959D02*
X13325000Y6826041D01*
X12750000Y4723959D02*
X13325000Y5298959D01*
X13325000Y6826041D02*
X13076041Y7075000D01*
X13076041Y7075000D02*
X12423959Y7075000D01*
X12750000Y2112500D02*
X12750000Y4723959D01*
G04 #@! TO.N,HALL_EN*
X8762034Y1224500D02*
X8637534Y1100000D01*
X9487966Y1224500D02*
X8762034Y1224500D01*
X9612466Y1100000D02*
X9487966Y1224500D01*
X8637534Y1100000D02*
X7850000Y1100000D01*
X10762466Y1100000D02*
X9612466Y1100000D01*
X7850000Y1100000D02*
X6650000Y2300000D01*
X11800000Y3987500D02*
X11800000Y2137534D01*
X11800000Y2137534D02*
X10762466Y1100000D01*
G04 #@! TO.N,+5V*
X6170832Y2950000D02*
X7462500Y2950000D01*
X5800000Y3320832D02*
X6170832Y2950000D01*
X5800000Y8150000D02*
X5800000Y3320832D01*
X5300000Y8650000D02*
X5800000Y8150000D01*
X7462500Y2950000D02*
X8300000Y2112500D01*
G04 #@! TO.N,Net-(D752-COM)*
X6650010Y6700000D02*
X7287510Y6062500D01*
X7287510Y6062500D02*
X9250000Y6062500D01*
G04 #@! TO.N,+5V*
X10598959Y3850000D02*
X10850000Y3850000D01*
X8861459Y2112500D02*
X10598959Y3850000D01*
X8300000Y2112500D02*
X8861459Y2112500D01*
G04 #@! TO.N,Net-(Q752-G)*
X8300000Y7937500D02*
X7612500Y7937500D01*
X7612500Y7937500D02*
X6900000Y8650000D01*
G04 #@! TO.N,Net-(D753-COM)*
X9037500Y4200000D02*
X9250000Y3987500D01*
X6650010Y4200000D02*
X9037500Y4200000D01*
G04 #@! TO.N,Net-(R761-Pad2)*
X4950010Y2999980D02*
X3749990Y4200000D01*
X4950010Y1800000D02*
X4950010Y2999980D01*
G04 #@! TO.N,Net-(R758-Pad1)*
X1600000Y7050010D02*
X3399980Y7050010D01*
X3399980Y7050010D02*
X3749990Y6700000D01*
D18*
G04 #@! TO.N,VR-*
X1600000Y4065000D02*
X375000Y2840000D01*
X1600000Y4149990D02*
X1600000Y4065000D01*
G04 #@! TO.N,VR+*
X415000Y1800000D02*
X375000Y1840000D01*
X2049990Y1800000D02*
X415000Y1800000D01*
G04 #@! TD*
G04 #@! TA.AperFunction,Conductor*
G04 #@! TO.N,GND*
G36*
X14250500Y9711737D02*
G01*
X14286737Y9675500D01*
X14300000Y9626000D01*
X14300000Y9400000D01*
X14300001Y9400000D01*
X14316756Y9383245D01*
X14340685Y9344507D01*
X14344343Y9303642D01*
X14346050Y9291769D01*
X14341990Y9246417D01*
X14318061Y9207679D01*
X13964878Y8854496D01*
X13932760Y8833036D01*
X13894874Y8825500D01*
X13505136Y8825500D01*
X13480009Y8822585D01*
X13377235Y8777207D01*
X13297793Y8697765D01*
X13252414Y8594990D01*
X13249500Y8569868D01*
X13249500Y7442026D01*
X13232816Y7387025D01*
X13188386Y7350562D01*
X13131186Y7344928D01*
X13103174Y7350500D01*
X13103173Y7350500D01*
X13076041Y7355897D01*
X13058469Y7352402D01*
X13039157Y7350500D01*
X12460843Y7350500D01*
X12441530Y7352402D01*
X12423959Y7355897D01*
X12423954Y7355898D01*
X12418310Y7354775D01*
X12361111Y7360410D01*
X12316683Y7396873D01*
X12299999Y7451873D01*
X12299999Y7683500D01*
X11300002Y7683500D01*
X11300001Y7683499D01*
X11300001Y7316783D01*
X11309911Y7248751D01*
X11312224Y7244021D01*
X11322151Y7195427D01*
X11307264Y7148117D01*
X11271299Y7113965D01*
X11223283Y7101541D01*
X10720718Y7101541D01*
X10673547Y7113502D01*
X10637773Y7146493D01*
X10622041Y7192545D01*
X10630153Y7240528D01*
X10639455Y7261599D01*
X10647585Y7280009D01*
X10650500Y7305135D01*
X10650499Y7934920D01*
X10658035Y7972805D01*
X10679496Y8004923D01*
X11082802Y8408228D01*
X11114919Y8429688D01*
X11152805Y8437224D01*
X11201000Y8437224D01*
X11250500Y8423961D01*
X11286737Y8387724D01*
X11300000Y8338224D01*
X11300000Y8191501D01*
X11300001Y8191500D01*
X11545999Y8191500D01*
X11546000Y8191501D01*
X11546000Y8599182D01*
X11554947Y8640309D01*
X11583264Y8702315D01*
X11609379Y8759498D01*
X11624367Y8863743D01*
X12054000Y8863743D01*
X12054000Y8191501D01*
X12054001Y8191500D01*
X12299998Y8191500D01*
X12299999Y8191501D01*
X12299999Y8558217D01*
X12290088Y8626248D01*
X12238785Y8731189D01*
X12156187Y8813787D01*
X12054000Y8863743D01*
X11624367Y8863743D01*
X11627815Y8887724D01*
X11609379Y9015950D01*
X11609379Y9015952D01*
X11555565Y9133787D01*
X11470732Y9231690D01*
X11470731Y9231691D01*
X11364440Y9300000D01*
X11361750Y9301729D01*
X11237454Y9338224D01*
X11107910Y9338224D01*
X10983613Y9301729D01*
X10874631Y9231690D01*
X10789798Y9133787D01*
X10735984Y9015952D01*
X10717548Y8887726D01*
X10718732Y8879493D01*
X10714673Y8834142D01*
X10690744Y8795405D01*
X10667661Y8772321D01*
X10623280Y8746697D01*
X10572034Y8746696D01*
X10527652Y8772319D01*
X10522764Y8777207D01*
X10419989Y8822586D01*
X10394866Y8825500D01*
X10005136Y8825500D01*
X9980009Y8822585D01*
X9877235Y8777207D01*
X9797793Y8697765D01*
X9752414Y8594990D01*
X9749500Y8569868D01*
X9749500Y7530165D01*
X9732815Y7475164D01*
X9688386Y7438701D01*
X9631186Y7433067D01*
X9580496Y7460161D01*
X8934426Y8106231D01*
X8922115Y8121233D01*
X8912164Y8136125D01*
X8897273Y8146075D01*
X8897272Y8146076D01*
X8887077Y8152888D01*
X8850791Y8177133D01*
X8821036Y8197015D01*
X8810225Y8204239D01*
X8789231Y8213751D01*
X8760709Y8248507D01*
X8750499Y8292293D01*
X8750499Y8569862D01*
X8750499Y8569865D01*
X8747585Y8594991D01*
X8702206Y8697765D01*
X8622765Y8777206D01*
X8622764Y8777207D01*
X8519989Y8822586D01*
X8494866Y8825500D01*
X8105136Y8825500D01*
X8080009Y8822585D01*
X7977235Y8777207D01*
X7897793Y8697765D01*
X7852414Y8594990D01*
X7849500Y8569868D01*
X7849500Y8329124D01*
X7832815Y8274123D01*
X7788386Y8237660D01*
X7731186Y8232026D01*
X7680496Y8259120D01*
X7429495Y8510121D01*
X7408035Y8542239D01*
X7400499Y8580125D01*
X7400499Y9061720D01*
X7387707Y9126035D01*
X7338972Y9198973D01*
X7266036Y9247707D01*
X7244596Y9251972D01*
X7201719Y9260500D01*
X7201717Y9260500D01*
X6598279Y9260500D01*
X6533965Y9247708D01*
X6461027Y9198973D01*
X6412293Y9126037D01*
X6399500Y9061718D01*
X6399500Y8238280D01*
X6412292Y8173966D01*
X6461027Y8101028D01*
X6533963Y8052294D01*
X6533965Y8052293D01*
X6598281Y8039500D01*
X7079875Y8039501D01*
X7117761Y8031965D01*
X7149879Y8010505D01*
X7302985Y7857399D01*
X7329525Y7809311D01*
X7326348Y7754477D01*
X7294432Y7709776D01*
X7243601Y7688966D01*
X7189501Y7698454D01*
X7105082Y7739724D01*
X7031120Y7750500D01*
X6268900Y7750500D01*
X6194938Y7739724D01*
X6194935Y7739723D01*
X6188774Y7738825D01*
X6133487Y7746686D01*
X6091250Y7783215D01*
X6075500Y7836791D01*
X6075500Y8113115D01*
X6077402Y8132429D01*
X6080116Y8146076D01*
X6080897Y8150000D01*
X6080896Y8150002D01*
X6080897Y8150003D01*
X6070952Y8199998D01*
X6070951Y8199999D01*
X6068365Y8213000D01*
X6059515Y8257495D01*
X6031471Y8299466D01*
X6031471Y8299467D01*
X6008577Y8333729D01*
X6008576Y8333729D01*
X6008576Y8333730D01*
X5998623Y8348625D01*
X5983732Y8358575D01*
X5968730Y8370886D01*
X5829495Y8510121D01*
X5808035Y8542239D01*
X5800499Y8580125D01*
X5800499Y9061720D01*
X5787707Y9126035D01*
X5738972Y9198973D01*
X5666036Y9247707D01*
X5644596Y9251972D01*
X5601719Y9260500D01*
X5601717Y9260500D01*
X4998279Y9260500D01*
X4933965Y9247708D01*
X4861027Y9198973D01*
X4812293Y9126037D01*
X4799500Y9061718D01*
X4799500Y8238280D01*
X4812292Y8173966D01*
X4861027Y8101028D01*
X4933963Y8052294D01*
X4933965Y8052293D01*
X4998281Y8039500D01*
X5425500Y8039501D01*
X5475000Y8026238D01*
X5511236Y7990001D01*
X5524500Y7940501D01*
X5524500Y3357716D01*
X5522598Y3338404D01*
X5519102Y3320832D01*
X5519103Y3320832D01*
X5524500Y3293701D01*
X5524500Y3293700D01*
X5540485Y3213337D01*
X5564562Y3177303D01*
X5584279Y3147794D01*
X5601375Y3122209D01*
X5616266Y3112259D01*
X5631269Y3099947D01*
X5949944Y2781272D01*
X5962254Y2766272D01*
X5972208Y2751376D01*
X5981957Y2744862D01*
X5987101Y2741425D01*
X5987103Y2741423D01*
X6002880Y2730881D01*
X6039342Y2686453D01*
X6044976Y2629255D01*
X6039500Y2601722D01*
X6039501Y1998282D01*
X6052292Y1933966D01*
X6101027Y1861028D01*
X6173963Y1812294D01*
X6173965Y1812293D01*
X6238281Y1799500D01*
X6719875Y1799501D01*
X6757761Y1791965D01*
X6789879Y1770505D01*
X7141380Y1419004D01*
X7168474Y1368314D01*
X7162840Y1311114D01*
X7126377Y1266685D01*
X7071376Y1250000D01*
X6904001Y1250000D01*
X6904000Y1249999D01*
X6904000Y954001D01*
X6904001Y954000D01*
X7309998Y954000D01*
X7309999Y954001D01*
X7309999Y1011377D01*
X7326684Y1066378D01*
X7371113Y1102841D01*
X7428313Y1108475D01*
X7479003Y1081381D01*
X7629114Y931270D01*
X7641425Y916268D01*
X7651375Y901377D01*
X7666270Y891424D01*
X7666271Y891423D01*
X7674377Y886007D01*
X7674378Y886006D01*
X7742505Y840485D01*
X7828616Y823357D01*
X7849999Y819103D01*
X7849999Y819104D01*
X7850000Y819103D01*
X7867571Y822599D01*
X7886884Y824500D01*
X8600650Y824500D01*
X8619962Y822599D01*
X8637534Y819103D01*
X8664666Y824500D01*
X8664667Y824500D01*
X8745029Y840485D01*
X8800587Y877608D01*
X8813156Y886006D01*
X8813156Y886008D01*
X8823875Y893169D01*
X8823876Y893171D01*
X8836158Y901376D01*
X8838580Y905002D01*
X8874228Y937310D01*
X8920896Y949000D01*
X9329104Y949000D01*
X9375772Y937310D01*
X9411419Y905002D01*
X9413841Y901376D01*
X9428736Y891424D01*
X9428737Y891423D01*
X9436843Y886007D01*
X9436844Y886006D01*
X9504972Y840484D01*
X9612466Y819103D01*
X9628418Y822277D01*
X9630038Y822598D01*
X9649350Y824500D01*
X10725582Y824500D01*
X10744894Y822599D01*
X10762466Y819103D01*
X10789598Y824500D01*
X10789599Y824500D01*
X10869961Y840485D01*
X10925519Y877608D01*
X10938088Y886006D01*
X10938088Y886008D01*
X10948807Y893169D01*
X10948808Y893171D01*
X10961090Y901376D01*
X10971044Y916275D01*
X10983347Y931267D01*
X11968733Y1916653D01*
X11983730Y1928960D01*
X11998624Y1938910D01*
X12038296Y1998282D01*
X12059516Y2030040D01*
X12080897Y2137534D01*
X12077402Y2155106D01*
X12075500Y2174418D01*
X12075500Y3062416D01*
X12091555Y3116464D01*
X12111212Y3133175D01*
X12109679Y3134708D01*
X12202205Y3227234D01*
X12202206Y3227235D01*
X12247585Y3330009D01*
X12250500Y3355135D01*
X12250499Y4619864D01*
X12247585Y4644991D01*
X12202206Y4747765D01*
X12202205Y4747766D01*
X12202205Y4747767D01*
X12109679Y4840292D01*
X12111212Y4841826D01*
X12091555Y4858536D01*
X12075500Y4912584D01*
X12075500Y5059815D01*
X12077402Y5079127D01*
X12078563Y5084967D01*
X12080896Y5096694D01*
X12077402Y5114261D01*
X12077402Y5114264D01*
X12075169Y5125490D01*
X12059515Y5204189D01*
X12048413Y5220804D01*
X12047083Y5222794D01*
X12008577Y5280423D01*
X12008576Y5280423D01*
X12008576Y5280424D01*
X11998623Y5295319D01*
X11983732Y5305269D01*
X11968730Y5317580D01*
X11893572Y5392738D01*
X11869642Y5431478D01*
X11865584Y5476832D01*
X11866767Y5485062D01*
X11848331Y5613288D01*
X11832993Y5646874D01*
X11824298Y5695062D01*
X11839762Y5741523D01*
X11875600Y5774890D01*
X11923046Y5787000D01*
X12200501Y5787000D01*
X12250001Y5773737D01*
X12286238Y5737500D01*
X12299501Y5688000D01*
X12299501Y5430136D01*
X12302415Y5405011D01*
X12302415Y5405010D01*
X12347793Y5302236D01*
X12347794Y5302235D01*
X12427235Y5222794D01*
X12530009Y5177415D01*
X12555135Y5174500D01*
X12571915Y5174501D01*
X12626915Y5157818D01*
X12663379Y5113389D01*
X12669014Y5056188D01*
X12641920Y5005497D01*
X12581268Y4944845D01*
X12566269Y4932536D01*
X12551375Y4922584D01*
X12536003Y4899578D01*
X12536006Y4899581D01*
X12525929Y4884499D01*
X12525928Y4884500D01*
X12525928Y4884498D01*
X12495902Y4839563D01*
X12483593Y4824564D01*
X12482509Y4823481D01*
X12484625Y4802000D01*
X12469102Y4723961D01*
X12472598Y4706390D01*
X12474500Y4687075D01*
X12474500Y3037584D01*
X12458445Y2983536D01*
X12438787Y2966826D01*
X12440321Y2965292D01*
X12347794Y2872767D01*
X12302414Y2769990D01*
X12299500Y2744868D01*
X12299500Y1480138D01*
X12302415Y1455010D01*
X12347793Y1352236D01*
X12347794Y1352235D01*
X12427235Y1272794D01*
X12530009Y1227415D01*
X12555135Y1224500D01*
X12944864Y1224501D01*
X12969991Y1227415D01*
X13072765Y1272794D01*
X13152206Y1352235D01*
X13197585Y1455009D01*
X13200500Y1480135D01*
X13200499Y2744864D01*
X13197585Y2769991D01*
X13152206Y2872765D01*
X13152205Y2872766D01*
X13152205Y2872767D01*
X13059679Y2965292D01*
X13061212Y2966826D01*
X13041555Y2983536D01*
X13025500Y3037584D01*
X13025500Y3248052D01*
X13039454Y3298729D01*
X13077381Y3335120D01*
X13128591Y3346967D01*
X13178648Y3330932D01*
X13213441Y3291533D01*
X13261214Y3193812D01*
X13343812Y3111214D01*
X13446000Y3061258D01*
X13954000Y3061258D01*
X14056187Y3111214D01*
X14138786Y3193813D01*
X14190087Y3298751D01*
X14200000Y3366784D01*
X14200000Y3733499D01*
X14199999Y3733500D01*
X13954001Y3733500D01*
X13954000Y3733499D01*
X13954000Y3061258D01*
X13446000Y3061258D01*
X13446000Y4913743D01*
X13954000Y4913743D01*
X13954000Y4241501D01*
X13954001Y4241500D01*
X14199998Y4241500D01*
X14199999Y4241501D01*
X14199999Y4608217D01*
X14190088Y4676248D01*
X14138785Y4781189D01*
X14056187Y4863787D01*
X13954000Y4913743D01*
X13446000Y4913743D01*
X13446000Y4931745D01*
X13441601Y4936831D01*
X13434970Y4994909D01*
X13462255Y5046600D01*
X13493736Y5078081D01*
X13508727Y5090383D01*
X13523624Y5100335D01*
X13540433Y5125490D01*
X13573180Y5174500D01*
X13584515Y5191464D01*
X13600500Y5271826D01*
X13600500Y5271827D01*
X13605897Y5298959D01*
X13605245Y5302235D01*
X13602402Y5316530D01*
X13600500Y5335844D01*
X13600500Y6789157D01*
X13602402Y6808472D01*
X13605897Y6826041D01*
X13584982Y6931188D01*
X13590616Y6988386D01*
X13627078Y7032816D01*
X13682078Y7049501D01*
X13894864Y7049501D01*
X13919991Y7052415D01*
X14022765Y7097794D01*
X14102206Y7177235D01*
X14147585Y7280009D01*
X14150500Y7305135D01*
X14150499Y8067658D01*
X14160499Y8100001D01*
X14150499Y8132344D01*
X14150499Y8219876D01*
X14158034Y8257760D01*
X14179493Y8289877D01*
X14194191Y8304576D01*
X14248358Y8332300D01*
X14308509Y8323104D01*
X14351920Y8280463D01*
X14362189Y8220486D01*
X14347491Y8118255D01*
X14338837Y8100001D01*
X14347491Y8081746D01*
X14363302Y7971773D01*
X14417116Y7853938D01*
X14496886Y7761878D01*
X14501951Y7756033D01*
X14610931Y7685996D01*
X14728892Y7651361D01*
X14765831Y7631191D01*
X14791053Y7597497D01*
X14800000Y7556371D01*
X14800000Y7443629D01*
X14791053Y7402503D01*
X14765831Y7368809D01*
X14728892Y7348640D01*
X14699330Y7339960D01*
X14610931Y7314005D01*
X14501949Y7243966D01*
X14417116Y7146063D01*
X14363302Y7028228D01*
X14344866Y6900001D01*
X14363302Y6771773D01*
X14417116Y6653938D01*
X14492859Y6566526D01*
X14501951Y6556033D01*
X14610931Y6485996D01*
X14728892Y6451361D01*
X14765831Y6431191D01*
X14791053Y6397497D01*
X14800000Y6356371D01*
X14800000Y6243629D01*
X14791053Y6202503D01*
X14765831Y6168809D01*
X14728892Y6148640D01*
X14699330Y6139960D01*
X14610931Y6114005D01*
X14501949Y6043966D01*
X14417116Y5946063D01*
X14363302Y5828228D01*
X14344866Y5700000D01*
X14363302Y5571773D01*
X14417116Y5453938D01*
X14501257Y5356834D01*
X14501951Y5356033D01*
X14610931Y5285996D01*
X14732603Y5250271D01*
X14774716Y5225285D01*
X14800000Y5200001D01*
X14800000Y5200000D01*
X14800001Y5200000D01*
X15026000Y5200000D01*
X15075500Y5186737D01*
X15111737Y5150500D01*
X15125000Y5101000D01*
X15125000Y124500D01*
X15111737Y75000D01*
X15075500Y38763D01*
X15026000Y25500D01*
X7261936Y25500D01*
X7213563Y38123D01*
X7177525Y72772D01*
X7163012Y120613D01*
X7173726Y169444D01*
X7206934Y206815D01*
X7234659Y225341D01*
X7294334Y314651D01*
X7310000Y393406D01*
X7310000Y445999D01*
X7309999Y446000D01*
X5990002Y446000D01*
X5990001Y445999D01*
X5990001Y393406D01*
X6005665Y314651D01*
X6065340Y225341D01*
X6093066Y206815D01*
X6126274Y169444D01*
X6136988Y120613D01*
X6122475Y72772D01*
X6086437Y38123D01*
X6038064Y25500D01*
X124500Y25500D01*
X75000Y38763D01*
X38763Y75000D01*
X25500Y124500D01*
X25500Y1078315D01*
X43025Y1134553D01*
X89394Y1170882D01*
X148192Y1174438D01*
X289942Y1139500D01*
X289944Y1139500D01*
X460056Y1139500D01*
X460057Y1139500D01*
X515112Y1153071D01*
X625225Y1180210D01*
X775852Y1259266D01*
X793162Y1274602D01*
X823707Y1293067D01*
X858813Y1299500D01*
X975490Y1299500D01*
X1024990Y1286237D01*
X1061227Y1250000D01*
X1074490Y1200500D01*
X1074490Y1066330D01*
X1077303Y1030584D01*
X1121747Y877607D01*
X1202835Y740495D01*
X1202836Y740494D01*
X1202838Y740491D01*
X1315481Y627848D01*
X1452598Y546757D01*
X1605574Y502313D01*
X1641318Y499500D01*
X2458660Y499500D01*
X2458662Y499500D01*
X2494406Y502313D01*
X2647382Y546757D01*
X2784499Y627848D01*
X2897142Y740491D01*
X2978233Y877608D01*
X3022677Y1030584D01*
X3025490Y1066328D01*
X3025490Y2533672D01*
X3022677Y2569416D01*
X2978233Y2722392D01*
X2970182Y2736006D01*
X2897144Y2859506D01*
X2897143Y2859507D01*
X2897142Y2859509D01*
X2784499Y2972152D01*
X2784496Y2972154D01*
X2784495Y2972155D01*
X2647383Y3053243D01*
X2592194Y3069277D01*
X2544534Y3100051D01*
X2521595Y3151938D01*
X2530909Y3207900D01*
X2569416Y3249558D01*
X2659509Y3302838D01*
X2772152Y3415481D01*
X2841030Y3531949D01*
X2885782Y3571906D01*
X2945395Y3578681D01*
X2997974Y3549783D01*
X3024208Y3495825D01*
X3024490Y3493892D01*
X3024490Y3493890D01*
X3035266Y3419928D01*
X3091039Y3305843D01*
X3180833Y3216049D01*
X3294918Y3160276D01*
X3368880Y3149500D01*
X4131098Y3149500D01*
X4131100Y3149500D01*
X4205062Y3160276D01*
X4272556Y3193273D01*
X4332330Y3201981D01*
X4386039Y3174335D01*
X4552424Y3007950D01*
X4578756Y2960760D01*
X4576384Y2906772D01*
X4546015Y2862073D01*
X4496698Y2839981D01*
X4494941Y2839726D01*
X4416234Y2801248D01*
X4380853Y2783951D01*
X4291059Y2694157D01*
X4235286Y2580072D01*
X4224510Y2506110D01*
X4224510Y1093890D01*
X4235286Y1019928D01*
X4291059Y905843D01*
X4380853Y816049D01*
X4494938Y760276D01*
X4568900Y749500D01*
X5331118Y749500D01*
X5331120Y749500D01*
X5405082Y760276D01*
X5519167Y816049D01*
X5608961Y905843D01*
X5632504Y954001D01*
X5990000Y954001D01*
X5990001Y954000D01*
X6395999Y954000D01*
X6396000Y954001D01*
X6396000Y1249998D01*
X6395999Y1249999D01*
X6233406Y1249999D01*
X6154650Y1234335D01*
X6065340Y1174660D01*
X6005665Y1085350D01*
X5990000Y1006594D01*
X5990000Y954001D01*
X5632504Y954001D01*
X5664734Y1019928D01*
X5675510Y1093890D01*
X5675510Y2506110D01*
X5664734Y2580072D01*
X5608961Y2694157D01*
X5519167Y2783951D01*
X5405082Y2839724D01*
X5331120Y2850500D01*
X5331118Y2850500D01*
X5324510Y2850500D01*
X5275010Y2863763D01*
X5238773Y2900000D01*
X5225510Y2949500D01*
X5225510Y2963096D01*
X5227412Y2982408D01*
X5227733Y2984028D01*
X5230907Y2999980D01*
X5209526Y3107474D01*
X5164004Y3175602D01*
X5164003Y3175603D01*
X5158587Y3183709D01*
X5158586Y3183709D01*
X5158586Y3183710D01*
X5148633Y3198605D01*
X5133742Y3208555D01*
X5118740Y3220866D01*
X4504486Y3835120D01*
X4483026Y3867238D01*
X4475490Y3905124D01*
X4475490Y4906108D01*
X4475490Y4906110D01*
X4464714Y4980072D01*
X4408941Y5094157D01*
X4319147Y5183951D01*
X4205062Y5239724D01*
X4131100Y5250500D01*
X3368880Y5250500D01*
X3294918Y5239724D01*
X3180833Y5183951D01*
X3091039Y5094157D01*
X3035266Y4980072D01*
X3025434Y4912584D01*
X3024490Y4906108D01*
X3024490Y4819702D01*
X3011330Y4770382D01*
X2975349Y4734174D01*
X2926112Y4720704D01*
X2876710Y4733554D01*
X2840277Y4769307D01*
X2772154Y4884496D01*
X2772153Y4884497D01*
X2772152Y4884499D01*
X2659509Y4997142D01*
X2659506Y4997144D01*
X2659505Y4997145D01*
X2522393Y5078233D01*
X2369416Y5122677D01*
X2369415Y5122678D01*
X2333672Y5125490D01*
X866328Y5125490D01*
X845197Y5123827D01*
X830583Y5122677D01*
X677606Y5078233D01*
X540494Y4997145D01*
X427845Y4884496D01*
X346757Y4747384D01*
X302313Y4594407D01*
X299500Y4558660D01*
X299500Y3741320D01*
X302313Y3705574D01*
X317461Y3653434D01*
X318202Y3600885D01*
X291943Y3555361D01*
X246085Y3529691D01*
X148193Y3505562D01*
X89395Y3509118D01*
X43025Y3545446D01*
X25500Y3601685D01*
X25500Y6668900D01*
X549500Y6668900D01*
X560276Y6594938D01*
X616049Y6480853D01*
X705843Y6391059D01*
X819928Y6335286D01*
X893890Y6324510D01*
X2306108Y6324510D01*
X2306110Y6324510D01*
X2380072Y6335286D01*
X2494157Y6391059D01*
X2583951Y6480853D01*
X2639724Y6594938D01*
X2650500Y6668900D01*
X2650500Y6675510D01*
X2663763Y6725010D01*
X2700000Y6761247D01*
X2749500Y6774510D01*
X2925490Y6774510D01*
X2974990Y6761247D01*
X3011227Y6725010D01*
X3024490Y6675510D01*
X3024490Y5993890D01*
X3035266Y5919928D01*
X3091039Y5805843D01*
X3180833Y5716049D01*
X3294918Y5660276D01*
X3368880Y5649500D01*
X4131098Y5649500D01*
X4131100Y5649500D01*
X4205062Y5660276D01*
X4319147Y5716049D01*
X4408941Y5805843D01*
X4464714Y5919928D01*
X4475490Y5993890D01*
X4475490Y7406110D01*
X4464714Y7480072D01*
X4408941Y7594157D01*
X4319147Y7683951D01*
X4205062Y7739724D01*
X4131100Y7750500D01*
X3368880Y7750500D01*
X3294918Y7739724D01*
X3180833Y7683951D01*
X3091039Y7594157D01*
X3035266Y7480072D01*
X3025090Y7410235D01*
X3007697Y7366984D01*
X2972435Y7336487D01*
X2927126Y7325510D01*
X2749500Y7325510D01*
X2700000Y7338773D01*
X2663763Y7375010D01*
X2650500Y7424510D01*
X2650500Y7431118D01*
X2647476Y7451873D01*
X2639724Y7505082D01*
X2583951Y7619167D01*
X2494157Y7708961D01*
X2380072Y7764734D01*
X2306110Y7775510D01*
X893890Y7775510D01*
X819928Y7764734D01*
X705843Y7708961D01*
X616049Y7619167D01*
X560276Y7505082D01*
X549500Y7431120D01*
X549500Y6668900D01*
X25500Y6668900D01*
X25500Y9626000D01*
X38763Y9675500D01*
X75000Y9711737D01*
X124500Y9725000D01*
X14201000Y9725000D01*
X14250500Y9711737D01*
G37*
G04 #@! TD.AperFunction*
G04 #@! TA.AperFunction,Conductor*
G36*
X11285096Y3565852D02*
G01*
X11331820Y3529556D01*
X11349500Y3473094D01*
X11349500Y3355139D01*
X11350448Y3346967D01*
X11352415Y3330009D01*
X11369404Y3291533D01*
X11397794Y3227234D01*
X11490321Y3134708D01*
X11488787Y3133175D01*
X11508445Y3116464D01*
X11524500Y3062416D01*
X11524500Y2292658D01*
X11516964Y2254772D01*
X11495504Y2222654D01*
X10869004Y1596155D01*
X10818314Y1569061D01*
X10761114Y1574695D01*
X10716684Y1611158D01*
X10700000Y1666159D01*
X10700000Y1858499D01*
X10699999Y1858500D01*
X9700002Y1858500D01*
X9700001Y1858499D01*
X9700001Y1583853D01*
X9683317Y1528852D01*
X9638887Y1492389D01*
X9581688Y1486755D01*
X9505537Y1501902D01*
X9505536Y1501902D01*
X9487966Y1505397D01*
X9470394Y1501902D01*
X9451082Y1500000D01*
X8849499Y1500000D01*
X8799999Y1513263D01*
X8763762Y1549500D01*
X8750499Y1599000D01*
X8750499Y1666159D01*
X8750499Y1733045D01*
X8767184Y1788043D01*
X8811613Y1824506D01*
X8842192Y1827518D01*
X8842144Y1827761D01*
X8861458Y1831604D01*
X8861459Y1831603D01*
X8888591Y1837000D01*
X8888592Y1837000D01*
X8968954Y1852985D01*
X9010924Y1881029D01*
X9037081Y1898506D01*
X9037081Y1898507D01*
X9047801Y1905669D01*
X9047806Y1905673D01*
X9052170Y1908590D01*
X9060083Y1913876D01*
X9070037Y1928775D01*
X9082340Y1943767D01*
X9532535Y2393962D01*
X9576914Y2419583D01*
X9628160Y2419583D01*
X9672541Y2393960D01*
X9700001Y2366500D01*
X10699998Y2366500D01*
X10699999Y2366501D01*
X10699999Y2733217D01*
X10690088Y2801248D01*
X10638785Y2906189D01*
X10556187Y2988787D01*
X10451249Y3040088D01*
X10408577Y3046305D01*
X10359258Y3068396D01*
X10328888Y3113096D01*
X10326515Y3167084D01*
X10352844Y3214271D01*
X10552640Y3414067D01*
X10598156Y3439985D01*
X10650531Y3439050D01*
X10660930Y3435997D01*
X10660931Y3435996D01*
X10785228Y3399500D01*
X10914772Y3399500D01*
X11039069Y3435996D01*
X11148049Y3506033D01*
X11175684Y3537927D01*
X11226015Y3569017D01*
X11285096Y3565852D01*
G37*
G04 #@! TD.AperFunction*
G04 #@! TD*
M02*
