G04 #@! TF.GenerationSoftware,KiCad,Pcbnew,7.0.7*
G04 #@! TF.CreationDate,2023-09-08T07:57:39+03:00*
G04 #@! TF.ProjectId,hellen1-vr-max9924,68656c6c-656e-4312-9d76-722d6d617839,rev?*
G04 #@! TF.SameCoordinates,PX4a19ba0PY5aa5910*
G04 #@! TF.FileFunction,Copper,L1,Top*
G04 #@! TF.FilePolarity,Positive*
%FSLAX46Y46*%
G04 Gerber Fmt 4.6, Leading zero omitted, Abs format (unit mm)*
G04 Created by KiCad (PCBNEW 7.0.7) date 2023-09-08 07:57:39*
%MOMM*%
%LPD*%
G01*
G04 APERTURE LIST*
G04 #@! TA.AperFunction,ComponentPad*
%ADD10C,0.600000*%
G04 #@! TD*
G04 #@! TA.AperFunction,SMDPad,CuDef*
%ADD11R,0.250000X6.185000*%
G04 #@! TD*
G04 #@! TA.AperFunction,SMDPad,CuDef*
%ADD12R,0.250000X1.115000*%
G04 #@! TD*
G04 #@! TA.AperFunction,SMDPad,CuDef*
%ADD13R,14.275000X0.250000*%
G04 #@! TD*
G04 #@! TA.AperFunction,SMDPad,CuDef*
%ADD14R,15.100000X0.250000*%
G04 #@! TD*
G04 #@! TA.AperFunction,SMDPad,CuDef*
%ADD15R,0.250000X5.175000*%
G04 #@! TD*
G04 #@! TA.AperFunction,SMDPad,CuDef*
%ADD16R,1.400000X0.300000*%
G04 #@! TD*
G04 #@! TA.AperFunction,ViaPad*
%ADD17C,0.600000*%
G04 #@! TD*
G04 #@! TA.AperFunction,Conductor*
%ADD18C,0.250000*%
G04 #@! TD*
G04 #@! TA.AperFunction,Conductor*
%ADD19C,0.200000*%
G04 #@! TD*
G04 APERTURE END LIST*
D10*
G04 #@! TO.P,M771,E1,NC*
G04 #@! TO.N,unconnected-(M771-NC-PadE1)*
X14800000Y6900000D03*
G04 #@! TO.P,M771,E2,NC*
G04 #@! TO.N,unconnected-(M771-NC-PadE2)*
X14800000Y5700000D03*
G04 #@! TO.P,M771,E3,OUT*
G04 #@! TO.N,output*
X14800000Y8100000D03*
G04 #@! TO.P,M771,E4,V5_IN*
G04 #@! TO.N,+5V*
X14800000Y9300000D03*
D11*
G04 #@! TO.P,M771,G,GND*
G04 #@! TO.N,GND*
X150000Y6632500D03*
D12*
X150000Y582500D03*
D13*
X7162500Y9600000D03*
D14*
X7575000Y150000D03*
D15*
X15000000Y2612500D03*
D10*
G04 #@! TO.P,M771,W1,VR-*
G04 #@! TO.N,VR-*
X375000Y2840000D03*
G04 #@! TO.P,M771,W2,VR+*
G04 #@! TO.N,VR+*
X375000Y1840000D03*
G04 #@! TD*
D16*
G04 #@! TO.P,U771,1,IN+*
G04 #@! TO.N,Net-(U771-IN+)*
X8600000Y3300000D03*
G04 #@! TO.P,U771,2,IN-*
G04 #@! TO.N,Net-(U771-IN-)*
X8600000Y2800000D03*
G04 #@! TO.P,U771,3,NC*
G04 #@! TO.N,unconnected-(U771-NC-Pad3)*
X8600000Y2300000D03*
G04 #@! TO.P,U771,4,BIAS*
G04 #@! TO.N,GND*
X8600000Y1800000D03*
G04 #@! TO.P,U771,5,GND*
X8600000Y1300000D03*
G04 #@! TO.P,U771,6,ZERO_EN*
X13000000Y1300000D03*
G04 #@! TO.P,U771,7,COUT*
G04 #@! TO.N,output*
X13000000Y1800000D03*
G04 #@! TO.P,U771,8,EXT*
G04 #@! TO.N,unconnected-(U771-EXT-Pad8)*
X13000000Y2300000D03*
G04 #@! TO.P,U771,9,INT_THRS*
G04 #@! TO.N,GND*
X13000000Y2800000D03*
G04 #@! TO.P,U771,10,VCC*
G04 #@! TO.N,+5V*
X13000000Y3300000D03*
G04 #@! TD*
G04 #@! TO.P,R777,1*
G04 #@! TO.N,Net-(D771-A)*
G04 #@! TA.AperFunction,SMDPad,CuDef*
G36*
G01*
X10510000Y6650000D02*
X11290000Y6650000D01*
G75*
G02*
X11360000Y6580000I0J-70000D01*
G01*
X11360000Y6020000D01*
G75*
G02*
X11290000Y5950000I-70000J0D01*
G01*
X10510000Y5950000D01*
G75*
G02*
X10440000Y6020000I0J70000D01*
G01*
X10440000Y6580000D01*
G75*
G02*
X10510000Y6650000I70000J0D01*
G01*
G37*
G04 #@! TD.AperFunction*
G04 #@! TO.P,R777,2*
G04 #@! TO.N,+5V*
G04 #@! TA.AperFunction,SMDPad,CuDef*
G36*
G01*
X10510000Y5050000D02*
X11290000Y5050000D01*
G75*
G02*
X11360000Y4980000I0J-70000D01*
G01*
X11360000Y4420000D01*
G75*
G02*
X11290000Y4350000I-70000J0D01*
G01*
X10510000Y4350000D01*
G75*
G02*
X10440000Y4420000I0J70000D01*
G01*
X10440000Y4980000D01*
G75*
G02*
X10510000Y5050000I70000J0D01*
G01*
G37*
G04 #@! TD.AperFunction*
G04 #@! TD*
G04 #@! TO.P,R776,1*
G04 #@! TO.N,output*
G04 #@! TA.AperFunction,SMDPad,CuDef*
G36*
G01*
X14150000Y8340000D02*
X14150000Y7560000D01*
G75*
G02*
X14080000Y7490000I-70000J0D01*
G01*
X13520000Y7490000D01*
G75*
G02*
X13450000Y7560000I0J70000D01*
G01*
X13450000Y8340000D01*
G75*
G02*
X13520000Y8410000I70000J0D01*
G01*
X14080000Y8410000D01*
G75*
G02*
X14150000Y8340000I0J-70000D01*
G01*
G37*
G04 #@! TD.AperFunction*
G04 #@! TO.P,R776,2*
G04 #@! TO.N,+5V*
G04 #@! TA.AperFunction,SMDPad,CuDef*
G36*
G01*
X12550000Y8340000D02*
X12550000Y7560000D01*
G75*
G02*
X12480000Y7490000I-70000J0D01*
G01*
X11920000Y7490000D01*
G75*
G02*
X11850000Y7560000I0J70000D01*
G01*
X11850000Y8340000D01*
G75*
G02*
X11920000Y8410000I70000J0D01*
G01*
X12480000Y8410000D01*
G75*
G02*
X12550000Y8340000I0J-70000D01*
G01*
G37*
G04 #@! TD.AperFunction*
G04 #@! TD*
G04 #@! TO.P,R775,1*
G04 #@! TO.N,Net-(U771-IN-)*
G04 #@! TA.AperFunction,SMDPad,CuDef*
G36*
G01*
X9010000Y6650000D02*
X9790000Y6650000D01*
G75*
G02*
X9860000Y6580000I0J-70000D01*
G01*
X9860000Y6020000D01*
G75*
G02*
X9790000Y5950000I-70000J0D01*
G01*
X9010000Y5950000D01*
G75*
G02*
X8940000Y6020000I0J70000D01*
G01*
X8940000Y6580000D01*
G75*
G02*
X9010000Y6650000I70000J0D01*
G01*
G37*
G04 #@! TD.AperFunction*
G04 #@! TO.P,R775,2*
G04 #@! TO.N,Net-(U771-IN+)*
G04 #@! TA.AperFunction,SMDPad,CuDef*
G36*
G01*
X9010000Y5050000D02*
X9790000Y5050000D01*
G75*
G02*
X9860000Y4980000I0J-70000D01*
G01*
X9860000Y4420000D01*
G75*
G02*
X9790000Y4350000I-70000J0D01*
G01*
X9010000Y4350000D01*
G75*
G02*
X8940000Y4420000I0J70000D01*
G01*
X8940000Y4980000D01*
G75*
G02*
X9010000Y5050000I70000J0D01*
G01*
G37*
G04 #@! TD.AperFunction*
G04 #@! TD*
G04 #@! TO.P,R774,1*
G04 #@! TO.N,Net-(U771-IN-)*
G04 #@! TA.AperFunction,SMDPad,CuDef*
G36*
G01*
X6305010Y7600000D02*
X6995010Y7600000D01*
G75*
G02*
X7225010Y7370000I0J-230000D01*
G01*
X7225010Y6030000D01*
G75*
G02*
X6995010Y5800000I-230000J0D01*
G01*
X6305010Y5800000D01*
G75*
G02*
X6075010Y6030000I0J230000D01*
G01*
X6075010Y7370000D01*
G75*
G02*
X6305010Y7600000I230000J0D01*
G01*
G37*
G04 #@! TD.AperFunction*
G04 #@! TO.P,R774,2*
G04 #@! TO.N,Net-(R772-Pad1)*
G04 #@! TA.AperFunction,SMDPad,CuDef*
G36*
G01*
X3404990Y7600000D02*
X4094990Y7600000D01*
G75*
G02*
X4324990Y7370000I0J-230000D01*
G01*
X4324990Y6030000D01*
G75*
G02*
X4094990Y5800000I-230000J0D01*
G01*
X3404990Y5800000D01*
G75*
G02*
X3174990Y6030000I0J230000D01*
G01*
X3174990Y7370000D01*
G75*
G02*
X3404990Y7600000I230000J0D01*
G01*
G37*
G04 #@! TD.AperFunction*
G04 #@! TD*
G04 #@! TO.P,R773,1*
G04 #@! TO.N,Net-(U771-IN+)*
G04 #@! TA.AperFunction,SMDPad,CuDef*
G36*
G01*
X6305010Y5100000D02*
X6995010Y5100000D01*
G75*
G02*
X7225010Y4870000I0J-230000D01*
G01*
X7225010Y3530000D01*
G75*
G02*
X6995010Y3300000I-230000J0D01*
G01*
X6305010Y3300000D01*
G75*
G02*
X6075010Y3530000I0J230000D01*
G01*
X6075010Y4870000D01*
G75*
G02*
X6305010Y5100000I230000J0D01*
G01*
G37*
G04 #@! TD.AperFunction*
G04 #@! TO.P,R773,2*
G04 #@! TO.N,Net-(R771-Pad1)*
G04 #@! TA.AperFunction,SMDPad,CuDef*
G36*
G01*
X3404990Y5100000D02*
X4094990Y5100000D01*
G75*
G02*
X4324990Y4870000I0J-230000D01*
G01*
X4324990Y3530000D01*
G75*
G02*
X4094990Y3300000I-230000J0D01*
G01*
X3404990Y3300000D01*
G75*
G02*
X3174990Y3530000I0J230000D01*
G01*
X3174990Y4870000D01*
G75*
G02*
X3404990Y5100000I230000J0D01*
G01*
G37*
G04 #@! TD.AperFunction*
G04 #@! TD*
G04 #@! TO.P,R772,1*
G04 #@! TO.N,Net-(R772-Pad1)*
G04 #@! TA.AperFunction,SMDPad,CuDef*
G36*
G01*
X700000Y6705010D02*
X700000Y7395010D01*
G75*
G02*
X930000Y7625010I230000J0D01*
G01*
X2270000Y7625010D01*
G75*
G02*
X2500000Y7395010I0J-230000D01*
G01*
X2500000Y6705010D01*
G75*
G02*
X2270000Y6475010I-230000J0D01*
G01*
X930000Y6475010D01*
G75*
G02*
X700000Y6705010I0J230000D01*
G01*
G37*
G04 #@! TD.AperFunction*
G04 #@! TO.P,R772,2*
G04 #@! TO.N,VR-*
G04 #@! TA.AperFunction,SMDPad,CuDef*
G36*
G01*
X700000Y3804990D02*
X700000Y4494990D01*
G75*
G02*
X930000Y4724990I230000J0D01*
G01*
X2270000Y4724990D01*
G75*
G02*
X2500000Y4494990I0J-230000D01*
G01*
X2500000Y3804990D01*
G75*
G02*
X2270000Y3574990I-230000J0D01*
G01*
X930000Y3574990D01*
G75*
G02*
X700000Y3804990I0J230000D01*
G01*
G37*
G04 #@! TD.AperFunction*
G04 #@! TD*
G04 #@! TO.P,R771,1*
G04 #@! TO.N,Net-(R771-Pad1)*
G04 #@! TA.AperFunction,SMDPad,CuDef*
G36*
G01*
X4605010Y2700000D02*
X5295010Y2700000D01*
G75*
G02*
X5525010Y2470000I0J-230000D01*
G01*
X5525010Y1130000D01*
G75*
G02*
X5295010Y900000I-230000J0D01*
G01*
X4605010Y900000D01*
G75*
G02*
X4375010Y1130000I0J230000D01*
G01*
X4375010Y2470000D01*
G75*
G02*
X4605010Y2700000I230000J0D01*
G01*
G37*
G04 #@! TD.AperFunction*
G04 #@! TO.P,R771,2*
G04 #@! TO.N,VR+*
G04 #@! TA.AperFunction,SMDPad,CuDef*
G36*
G01*
X1704990Y2700000D02*
X2394990Y2700000D01*
G75*
G02*
X2624990Y2470000I0J-230000D01*
G01*
X2624990Y1130000D01*
G75*
G02*
X2394990Y900000I-230000J0D01*
G01*
X1704990Y900000D01*
G75*
G02*
X1474990Y1130000I0J230000D01*
G01*
X1474990Y2470000D01*
G75*
G02*
X1704990Y2700000I230000J0D01*
G01*
G37*
G04 #@! TD.AperFunction*
G04 #@! TD*
G04 #@! TO.P,D771,1,K*
G04 #@! TO.N,output*
G04 #@! TA.AperFunction,SMDPad,CuDef*
G36*
G01*
X11125000Y8256250D02*
X11125000Y7743750D01*
G75*
G02*
X10906250Y7525000I-218750J0D01*
G01*
X10468750Y7525000D01*
G75*
G02*
X10250000Y7743750I0J218750D01*
G01*
X10250000Y8256250D01*
G75*
G02*
X10468750Y8475000I218750J0D01*
G01*
X10906250Y8475000D01*
G75*
G02*
X11125000Y8256250I0J-218750D01*
G01*
G37*
G04 #@! TD.AperFunction*
G04 #@! TO.P,D771,2,A*
G04 #@! TO.N,Net-(D771-A)*
G04 #@! TA.AperFunction,SMDPad,CuDef*
G36*
G01*
X9550000Y8256250D02*
X9550000Y7743750D01*
G75*
G02*
X9331250Y7525000I-218750J0D01*
G01*
X8893750Y7525000D01*
G75*
G02*
X8675000Y7743750I0J218750D01*
G01*
X8675000Y8256250D01*
G75*
G02*
X8893750Y8475000I218750J0D01*
G01*
X9331250Y8475000D01*
G75*
G02*
X9550000Y8256250I0J-218750D01*
G01*
G37*
G04 #@! TD.AperFunction*
G04 #@! TD*
G04 #@! TO.P,C773,2*
G04 #@! TO.N,+5V*
G04 #@! TA.AperFunction,SMDPad,CuDef*
G36*
G01*
X12634999Y6487905D02*
X12634999Y5807905D01*
G75*
G02*
X12549999Y5722905I-85000J0D01*
G01*
X11869999Y5722905D01*
G75*
G02*
X11784999Y5807905I0J85000D01*
G01*
X11784999Y6487905D01*
G75*
G02*
X11869999Y6572905I85000J0D01*
G01*
X12549999Y6572905D01*
G75*
G02*
X12634999Y6487905I0J-85000D01*
G01*
G37*
G04 #@! TD.AperFunction*
G04 #@! TO.P,C773,1*
G04 #@! TO.N,GND*
G04 #@! TA.AperFunction,SMDPad,CuDef*
G36*
G01*
X14215001Y6487905D02*
X14215001Y5807905D01*
G75*
G02*
X14130001Y5722905I-85000J0D01*
G01*
X13450001Y5722905D01*
G75*
G02*
X13365001Y5807905I0J85000D01*
G01*
X13365001Y6487905D01*
G75*
G02*
X13450001Y6572905I85000J0D01*
G01*
X14130001Y6572905D01*
G75*
G02*
X14215001Y6487905I0J-85000D01*
G01*
G37*
G04 #@! TD.AperFunction*
G04 #@! TD*
G04 #@! TO.P,C772,1*
G04 #@! TO.N,GND*
G04 #@! TA.AperFunction,SMDPad,CuDef*
G36*
G01*
X14215001Y5140000D02*
X14215001Y4460000D01*
G75*
G02*
X14130001Y4375000I-85000J0D01*
G01*
X13450001Y4375000D01*
G75*
G02*
X13365001Y4460000I0J85000D01*
G01*
X13365001Y5140000D01*
G75*
G02*
X13450001Y5225000I85000J0D01*
G01*
X14130001Y5225000D01*
G75*
G02*
X14215001Y5140000I0J-85000D01*
G01*
G37*
G04 #@! TD.AperFunction*
G04 #@! TO.P,C772,2*
G04 #@! TO.N,+5V*
G04 #@! TA.AperFunction,SMDPad,CuDef*
G36*
G01*
X12634999Y5140000D02*
X12634999Y4460000D01*
G75*
G02*
X12549999Y4375000I-85000J0D01*
G01*
X11869999Y4375000D01*
G75*
G02*
X11784999Y4460000I0J85000D01*
G01*
X11784999Y5140000D01*
G75*
G02*
X11869999Y5225000I85000J0D01*
G01*
X12549999Y5225000D01*
G75*
G02*
X12634999Y5140000I0J-85000D01*
G01*
G37*
G04 #@! TD.AperFunction*
G04 #@! TD*
G04 #@! TO.P,C771,1*
G04 #@! TO.N,Net-(U771-IN-)*
G04 #@! TA.AperFunction,SMDPad,CuDef*
G36*
G01*
X7760000Y6715001D02*
X8440000Y6715001D01*
G75*
G02*
X8525000Y6630001I0J-85000D01*
G01*
X8525000Y5950001D01*
G75*
G02*
X8440000Y5865001I-85000J0D01*
G01*
X7760000Y5865001D01*
G75*
G02*
X7675000Y5950001I0J85000D01*
G01*
X7675000Y6630001D01*
G75*
G02*
X7760000Y6715001I85000J0D01*
G01*
G37*
G04 #@! TD.AperFunction*
G04 #@! TO.P,C771,2*
G04 #@! TO.N,Net-(U771-IN+)*
G04 #@! TA.AperFunction,SMDPad,CuDef*
G36*
G01*
X7760000Y5134999D02*
X8440000Y5134999D01*
G75*
G02*
X8525000Y5049999I0J-85000D01*
G01*
X8525000Y4369999D01*
G75*
G02*
X8440000Y4284999I-85000J0D01*
G01*
X7760000Y4284999D01*
G75*
G02*
X7675000Y4369999I0J85000D01*
G01*
X7675000Y5049999D01*
G75*
G02*
X7760000Y5134999I85000J0D01*
G01*
G37*
G04 #@! TD.AperFunction*
G04 #@! TD*
D17*
G04 #@! TO.N,GND*
X13808157Y6954079D03*
X700000Y5650000D03*
X8400000Y7250000D03*
X14500000Y4750000D03*
X7800000Y9050000D03*
X6800000Y650000D03*
X3600000Y650000D03*
X4200000Y9050000D03*
X12200000Y9050000D03*
X800000Y9050000D03*
X14500000Y1350000D03*
X5200000Y6750000D03*
X8817968Y5492919D03*
X13000000Y650000D03*
X3300000Y2750000D03*
X8600000Y650000D03*
X6700000Y2650000D03*
X11200000Y3750000D03*
X11800000Y1350000D03*
X2900000Y5450000D03*
X700000Y650000D03*
X9900000Y1550000D03*
X5300000Y4250000D03*
G04 #@! TD*
D18*
G04 #@! TO.N,+5V*
X12209999Y6147905D02*
X11207904Y7150000D01*
X14800000Y9300000D02*
X14185000Y8685000D01*
X12209999Y4800000D02*
X12209999Y3640001D01*
X11207904Y7150000D02*
X10300000Y7150000D01*
X12209999Y6100000D02*
X12209999Y6147905D01*
X12209999Y3640001D02*
X12550000Y3300000D01*
X11000000Y4800000D02*
X10900000Y4700000D01*
X10300000Y7150000D02*
X9975000Y7475000D01*
X12209999Y4800000D02*
X11000000Y4800000D01*
X9975000Y8460768D02*
X10264232Y8750000D01*
X14185000Y8685000D02*
X12935000Y8685000D01*
X11400000Y8750000D02*
X12200000Y7950000D01*
X10264232Y8750000D02*
X11400000Y8750000D01*
X9975000Y7475000D02*
X9975000Y8460768D01*
X12550000Y3300000D02*
X13000000Y3300000D01*
X12209999Y6100000D02*
X12209999Y4800000D01*
X12935000Y8685000D02*
X12200000Y7950000D01*
G04 #@! TO.N,Net-(U771-IN-)*
X9400000Y2800000D02*
X8600000Y2800000D01*
X10165000Y5535000D02*
X10165000Y3565000D01*
X8100000Y6290001D02*
X9390001Y6290001D01*
X9390001Y6290001D02*
X9400000Y6300000D01*
X6650010Y6700000D02*
X7690001Y6700000D01*
X7690001Y6700000D02*
X8100000Y6290001D01*
X9400000Y6300000D02*
X10165000Y5535000D01*
X10165000Y3565000D02*
X9400000Y2800000D01*
G04 #@! TO.N,Net-(U771-IN+)*
X9390001Y4709999D02*
X9400000Y4700000D01*
X8100000Y4709999D02*
X9390001Y4709999D01*
X9400000Y4700000D02*
X9400000Y3600000D01*
X9100000Y3300000D02*
X8600000Y3300000D01*
X9400000Y3600000D02*
X9100000Y3300000D01*
X7590001Y4200000D02*
X8100000Y4709999D01*
X6650010Y4200000D02*
X7590001Y4200000D01*
G04 #@! TO.N,Net-(D771-A)*
X10585020Y6300000D02*
X9112500Y7772520D01*
X10900000Y6300000D02*
X10585020Y6300000D01*
X9112500Y7772520D02*
X9112500Y8000000D01*
G04 #@! TO.N,Net-(R771-Pad1)*
X4950010Y1800000D02*
X4950010Y2999980D01*
X4950010Y2999980D02*
X3749990Y4200000D01*
G04 #@! TO.N,output*
X13950000Y3750000D02*
X14100000Y3600000D01*
X13800000Y7950000D02*
X13090001Y7240001D01*
X13065000Y7215000D02*
X11707884Y7215000D01*
X13090001Y4310883D02*
X13650884Y3750000D01*
X13800000Y7950000D02*
X14650000Y7950000D01*
X13900000Y1800000D02*
X13000000Y1800000D01*
X14650000Y7950000D02*
X14800000Y8100000D01*
X13650884Y3750000D02*
X13950000Y3750000D01*
X10922884Y8000000D02*
X10687500Y8000000D01*
X13090001Y7240001D02*
X13090001Y4310883D01*
X14100000Y2000000D02*
X13900000Y1800000D01*
X11707884Y7215000D02*
X10922884Y8000000D01*
X13090001Y7240001D02*
X13065000Y7215000D01*
X14100000Y3600000D02*
X14100000Y2000000D01*
G04 #@! TO.N,Net-(R772-Pad1)*
X3399980Y7050010D02*
X3749990Y6700000D01*
X1600000Y7050010D02*
X3399980Y7050010D01*
D19*
G04 #@! TO.N,VR-*
X375000Y2924990D02*
X1600000Y4149990D01*
X375000Y2840000D02*
X375000Y2924990D01*
G04 #@! TO.N,VR+*
X375000Y1840000D02*
X2009990Y1840000D01*
X2009990Y1840000D02*
X2049990Y1800000D01*
G04 #@! TD*
G04 #@! TA.AperFunction,Conductor*
G04 #@! TO.N,GND*
G36*
X14259191Y9706093D02*
G01*
X14295155Y9656593D01*
X14300000Y9626000D01*
X14300000Y9230624D01*
X14281093Y9172433D01*
X14271004Y9160621D01*
X14099881Y8989497D01*
X14045364Y8961719D01*
X14029877Y8960500D01*
X12971884Y8960500D01*
X12952570Y8962402D01*
X12952183Y8962479D01*
X12935000Y8965897D01*
X12934999Y8965897D01*
X12934997Y8965897D01*
X12915691Y8962058D01*
X12915682Y8962055D01*
X12827506Y8944516D01*
X12785532Y8916471D01*
X12761961Y8900722D01*
X12761958Y8900718D01*
X12736377Y8883625D01*
X12736372Y8883620D01*
X12726423Y8868731D01*
X12714115Y8853734D01*
X12449879Y8589497D01*
X12395362Y8561719D01*
X12379875Y8560500D01*
X12020124Y8560500D01*
X11961933Y8579407D01*
X11950120Y8589496D01*
X11620885Y8918731D01*
X11608573Y8933734D01*
X11598624Y8948624D01*
X11577899Y8962472D01*
X11577890Y8962479D01*
X11522483Y8999500D01*
X11507496Y9009515D01*
X11421182Y9026684D01*
X11421162Y9026689D01*
X11400002Y9030897D01*
X11400001Y9030897D01*
X11400000Y9030897D01*
X11382430Y9027402D01*
X11363116Y9025500D01*
X10301116Y9025500D01*
X10281803Y9027402D01*
X10264232Y9030897D01*
X10264229Y9030897D01*
X10244927Y9027059D01*
X10244915Y9027055D01*
X10156735Y9009515D01*
X10141748Y8999499D01*
X10091196Y8965724D01*
X10091189Y8965718D01*
X10088610Y8963994D01*
X10088608Y8963993D01*
X10085708Y8962055D01*
X10065609Y8948625D01*
X10065604Y8948620D01*
X10055655Y8933731D01*
X10043347Y8918733D01*
X9806267Y8681653D01*
X9791269Y8669345D01*
X9776379Y8659395D01*
X9776378Y8659395D01*
X9720903Y8576372D01*
X9708595Y8561375D01*
X9698467Y8551246D01*
X9643952Y8523466D01*
X9583519Y8533034D01*
X9558459Y8551240D01*
X9548780Y8560919D01*
X9438067Y8615043D01*
X9438068Y8615043D01*
X9423712Y8617135D01*
X9366295Y8625500D01*
X9366291Y8625500D01*
X8858710Y8625500D01*
X8858707Y8625500D01*
X8858706Y8625499D01*
X8834781Y8622014D01*
X8786931Y8615043D01*
X8676220Y8560919D01*
X8589081Y8473780D01*
X8534957Y8363069D01*
X8524500Y8291292D01*
X8524500Y7708711D01*
X8524501Y7708708D01*
X8534957Y7636932D01*
X8555869Y7594157D01*
X8589081Y7526220D01*
X8676220Y7439081D01*
X8786933Y7384957D01*
X8858705Y7374500D01*
X9079895Y7374501D01*
X9138085Y7355594D01*
X9149899Y7345505D01*
X9525900Y6969504D01*
X9553677Y6914987D01*
X9544106Y6854555D01*
X9500841Y6811290D01*
X9455896Y6800500D01*
X8988285Y6800500D01*
X8988275Y6800499D01*
X8923966Y6787708D01*
X8923963Y6787707D01*
X8851030Y6738974D01*
X8851024Y6738968D01*
X8832768Y6711646D01*
X8784718Y6673767D01*
X8723579Y6671367D01*
X8672706Y6705360D01*
X8667625Y6714030D01*
X8667255Y6713782D01*
X8626272Y6775116D01*
X8609787Y6799788D01*
X8608721Y6800500D01*
X8531891Y6851837D01*
X8531886Y6851839D01*
X8463207Y6865501D01*
X8463197Y6865502D01*
X8463196Y6865502D01*
X7962754Y6865502D01*
X7904563Y6884409D01*
X7892750Y6894498D01*
X7888627Y6898621D01*
X7888625Y6898624D01*
X7867900Y6912472D01*
X7867891Y6912479D01*
X7822939Y6942514D01*
X7797496Y6959515D01*
X7711183Y6976684D01*
X7711163Y6976689D01*
X7690003Y6980897D01*
X7690002Y6980897D01*
X7690001Y6980897D01*
X7672431Y6977402D01*
X7653117Y6975500D01*
X7474510Y6975500D01*
X7416319Y6994407D01*
X7380355Y7043907D01*
X7375510Y7074500D01*
X7375510Y7406107D01*
X7375510Y7406110D01*
X7364734Y7480072D01*
X7308961Y7594157D01*
X7219167Y7683951D01*
X7105082Y7739724D01*
X7031120Y7750500D01*
X6268900Y7750500D01*
X6194937Y7739724D01*
X6194938Y7739724D01*
X6080854Y7683952D01*
X5991058Y7594156D01*
X5988782Y7589500D01*
X5935286Y7480072D01*
X5924510Y7406110D01*
X5924510Y5993890D01*
X5935286Y5919928D01*
X5991059Y5805843D01*
X6080853Y5716049D01*
X6194938Y5660276D01*
X6268900Y5649500D01*
X6268903Y5649500D01*
X7031116Y5649500D01*
X7031120Y5649500D01*
X7105082Y5660276D01*
X7219167Y5716049D01*
X7308961Y5805843D01*
X7350449Y5890709D01*
X7392990Y5934681D01*
X7453255Y5945251D01*
X7508224Y5918379D01*
X7536485Y5866546D01*
X7538162Y5858113D01*
X7538164Y5858110D01*
X7573086Y5805846D01*
X7590213Y5780214D01*
X7668111Y5728164D01*
X7714745Y5718888D01*
X7736792Y5714502D01*
X7736797Y5714502D01*
X7736803Y5714500D01*
X7736804Y5714500D01*
X8463196Y5714500D01*
X8463197Y5714500D01*
X8531889Y5728164D01*
X8609787Y5780214D01*
X8661837Y5858112D01*
X8661838Y5858121D01*
X8664100Y5863578D01*
X8703834Y5910107D01*
X8763327Y5924394D01*
X8819857Y5900984D01*
X8837881Y5880702D01*
X8851024Y5861033D01*
X8851025Y5861032D01*
X8851028Y5861028D01*
X8855397Y5858109D01*
X8923964Y5812293D01*
X8939933Y5809117D01*
X8988281Y5799500D01*
X9469875Y5799501D01*
X9528066Y5780594D01*
X9539879Y5770505D01*
X9860504Y5449880D01*
X9888281Y5395363D01*
X9889500Y5379876D01*
X9889500Y5299500D01*
X9870593Y5241309D01*
X9821093Y5205345D01*
X9790500Y5200500D01*
X8988285Y5200500D01*
X8988275Y5200499D01*
X8923966Y5187708D01*
X8923963Y5187707D01*
X8851030Y5138974D01*
X8851024Y5138968D01*
X8837880Y5119297D01*
X8789829Y5081420D01*
X8728690Y5079020D01*
X8677818Y5113015D01*
X8664101Y5136421D01*
X8661837Y5141886D01*
X8661837Y5141888D01*
X8609787Y5219786D01*
X8577576Y5241309D01*
X8531891Y5271835D01*
X8531886Y5271837D01*
X8463207Y5285499D01*
X8463197Y5285500D01*
X7736803Y5285500D01*
X7736802Y5285500D01*
X7736792Y5285499D01*
X7668113Y5271837D01*
X7668108Y5271835D01*
X7590215Y5219788D01*
X7590211Y5219784D01*
X7538164Y5141891D01*
X7538162Y5141886D01*
X7524498Y5073198D01*
X7524278Y5070960D01*
X7523865Y5070018D01*
X7523549Y5068425D01*
X7523199Y5068495D01*
X7499759Y5014902D01*
X7446972Y4983963D01*
X7386081Y4989960D01*
X7340344Y5030603D01*
X7336819Y5037172D01*
X7308961Y5094157D01*
X7219167Y5183951D01*
X7105082Y5239724D01*
X7031120Y5250500D01*
X6268900Y5250500D01*
X6205817Y5241309D01*
X6194938Y5239724D01*
X6080854Y5183952D01*
X5991058Y5094156D01*
X5943631Y4997142D01*
X5935286Y4980072D01*
X5924510Y4906110D01*
X5924510Y3493890D01*
X5935286Y3419928D01*
X5991059Y3305843D01*
X6080853Y3216049D01*
X6194938Y3160276D01*
X6268900Y3149500D01*
X6268903Y3149500D01*
X7031116Y3149500D01*
X7031120Y3149500D01*
X7105082Y3160276D01*
X7219167Y3216049D01*
X7308961Y3305843D01*
X7364734Y3419928D01*
X7375510Y3493890D01*
X7375510Y3825500D01*
X7394417Y3883691D01*
X7443917Y3919655D01*
X7474510Y3924500D01*
X7553117Y3924500D01*
X7572430Y3922599D01*
X7590001Y3919103D01*
X7617133Y3924500D01*
X7617134Y3924500D01*
X7697496Y3940485D01*
X7739466Y3968529D01*
X7765623Y3986006D01*
X7765623Y3986007D01*
X7776343Y3993169D01*
X7776347Y3993173D01*
X7788625Y4001376D01*
X7798578Y4016273D01*
X7810888Y4031271D01*
X7885120Y4105502D01*
X7939637Y4133279D01*
X7955123Y4134498D01*
X8463196Y4134498D01*
X8463197Y4134498D01*
X8531889Y4148162D01*
X8609787Y4200212D01*
X8661837Y4278110D01*
X8661836Y4278110D01*
X8667255Y4286218D01*
X8670141Y4284290D01*
X8698701Y4317748D01*
X8758191Y4332049D01*
X8814726Y4308652D01*
X8832769Y4288354D01*
X8851025Y4261032D01*
X8851028Y4261028D01*
X8854912Y4258433D01*
X8923964Y4212293D01*
X8939933Y4209117D01*
X8988281Y4199500D01*
X9025499Y4199501D01*
X9083688Y4180595D01*
X9119653Y4131096D01*
X9124499Y4100501D01*
X9124499Y3755124D01*
X9105592Y3696933D01*
X9095503Y3685121D01*
X9039880Y3629497D01*
X8985364Y3601719D01*
X8969876Y3600500D01*
X7885172Y3600500D01*
X7841279Y3591768D01*
X7841275Y3591766D01*
X7791498Y3558506D01*
X7791494Y3558502D01*
X7758234Y3508725D01*
X7758232Y3508721D01*
X7749500Y3464828D01*
X7749500Y3135173D01*
X7758232Y3091279D01*
X7759640Y3087881D01*
X7760118Y3081802D01*
X7760135Y3081717D01*
X7760125Y3081716D01*
X7764438Y3026885D01*
X7759640Y3012119D01*
X7758232Y3008722D01*
X7749500Y2964828D01*
X7749500Y2635173D01*
X7758232Y2591279D01*
X7759640Y2587881D01*
X7760118Y2581802D01*
X7760135Y2581717D01*
X7760125Y2581716D01*
X7764438Y2526885D01*
X7759640Y2512119D01*
X7758232Y2508722D01*
X7749500Y2464828D01*
X7749500Y2135183D01*
X7749977Y2130337D01*
X7748481Y2130190D01*
X7742029Y2075760D01*
X7734447Y2062224D01*
X7711603Y2028037D01*
X7700000Y1969701D01*
X7700000Y1950001D01*
X7700001Y1950000D01*
X9499999Y1950000D01*
X9500000Y1950001D01*
X9500000Y1969698D01*
X9499999Y1969701D01*
X9488396Y2028037D01*
X9465552Y2062224D01*
X9448943Y2121112D01*
X9450036Y2130343D01*
X9450023Y2130344D01*
X9450500Y2135185D01*
X9450500Y2450727D01*
X9469407Y2508918D01*
X9500487Y2533420D01*
X9499387Y2535067D01*
X9573147Y2584352D01*
X9586341Y2593168D01*
X9586344Y2593172D01*
X9598624Y2601376D01*
X9608574Y2616270D01*
X9620881Y2631267D01*
X10333733Y3344119D01*
X10348729Y3356425D01*
X10363624Y3366376D01*
X10379744Y3390500D01*
X10424515Y3457505D01*
X10425972Y3464828D01*
X10426823Y3469105D01*
X10439433Y3532505D01*
X10440500Y3537867D01*
X10440500Y3537869D01*
X10440870Y3539729D01*
X10440873Y3539747D01*
X10445896Y3565001D01*
X10442402Y3582568D01*
X10440500Y3601880D01*
X10440500Y4100501D01*
X10459407Y4158692D01*
X10508907Y4194656D01*
X10539494Y4199501D01*
X11311718Y4199501D01*
X11311722Y4199502D01*
X11311724Y4199502D01*
X11335299Y4204191D01*
X11376035Y4212293D01*
X11448972Y4261028D01*
X11497707Y4333965D01*
X11497707Y4333967D01*
X11502026Y4340430D01*
X11550076Y4378310D01*
X11611214Y4380712D01*
X11662088Y4346719D01*
X11666657Y4340431D01*
X11686401Y4310883D01*
X11700212Y4290213D01*
X11778110Y4238163D01*
X11799518Y4233905D01*
X11851573Y4223549D01*
X11851265Y4222003D01*
X11901255Y4200141D01*
X11932197Y4147356D01*
X11934499Y4126133D01*
X11934499Y3676886D01*
X11932597Y3657574D01*
X11929102Y3640002D01*
X11929102Y3639999D01*
X11933310Y3618839D01*
X11933315Y3618819D01*
X11950484Y3532505D01*
X11950858Y3531946D01*
X11976287Y3493890D01*
X11995710Y3464820D01*
X12011375Y3441377D01*
X12026268Y3431426D01*
X12041265Y3419119D01*
X12120504Y3339879D01*
X12148280Y3285365D01*
X12149499Y3269879D01*
X12149499Y3135183D01*
X12149977Y3130338D01*
X12148481Y3130191D01*
X12142029Y3075760D01*
X12134447Y3062224D01*
X12111603Y3028037D01*
X12100000Y2969701D01*
X12100000Y2950001D01*
X12100001Y2950000D01*
X13051000Y2950000D01*
X13109191Y2931093D01*
X13145155Y2881593D01*
X13150000Y2851000D01*
X13150000Y2749000D01*
X13131093Y2690809D01*
X13081593Y2654845D01*
X13051000Y2650000D01*
X12100000Y2650000D01*
X12100000Y2630300D01*
X12111603Y2571964D01*
X12134447Y2537776D01*
X12151055Y2478887D01*
X12149963Y2469665D01*
X12149977Y2469663D01*
X12149500Y2464818D01*
X12149500Y2135173D01*
X12158232Y2091279D01*
X12159640Y2087881D01*
X12160118Y2081802D01*
X12160135Y2081717D01*
X12160125Y2081716D01*
X12164438Y2026885D01*
X12159640Y2012119D01*
X12158232Y2008722D01*
X12149500Y1964828D01*
X12149500Y1635183D01*
X12149977Y1630337D01*
X12148481Y1630190D01*
X12142029Y1575760D01*
X12134447Y1562224D01*
X12111603Y1528037D01*
X12100000Y1469701D01*
X12100000Y1450001D01*
X12100001Y1450000D01*
X13899999Y1450000D01*
X13905845Y1455847D01*
X13918907Y1496047D01*
X13968407Y1532011D01*
X13979672Y1534951D01*
X14007495Y1540485D01*
X14073148Y1584353D01*
X14075622Y1586006D01*
X14075621Y1586006D01*
X14086341Y1593168D01*
X14086344Y1593172D01*
X14098624Y1601376D01*
X14108574Y1616270D01*
X14120881Y1631267D01*
X14268733Y1779119D01*
X14283729Y1791425D01*
X14298624Y1801376D01*
X14359515Y1892505D01*
X14375500Y1972867D01*
X14375500Y1972868D01*
X14380897Y2000000D01*
X14378856Y2010261D01*
X14377402Y2017573D01*
X14375500Y2036885D01*
X14375500Y3563117D01*
X14377402Y3582431D01*
X14377429Y3582568D01*
X14380897Y3600000D01*
X14361416Y3697933D01*
X14360936Y3702807D01*
X14359516Y3707488D01*
X14359515Y3707494D01*
X14359515Y3707495D01*
X14331114Y3750000D01*
X14313994Y3775622D01*
X14313992Y3775624D01*
X14298624Y3798624D01*
X14283733Y3808574D01*
X14268731Y3820885D01*
X14170885Y3918731D01*
X14158573Y3933734D01*
X14148625Y3948622D01*
X14148624Y3948624D01*
X14127899Y3962472D01*
X14127890Y3962479D01*
X14092677Y3986007D01*
X14081187Y3993684D01*
X14043308Y4041735D01*
X14040907Y4102873D01*
X14074901Y4153746D01*
X14132305Y4174923D01*
X14136190Y4174999D01*
X14172558Y4174999D01*
X14172564Y4175000D01*
X14196379Y4177763D01*
X14293855Y4220803D01*
X14369198Y4296146D01*
X14412238Y4393622D01*
X14415001Y4417437D01*
X14415002Y4417443D01*
X14415002Y4545999D01*
X14415001Y4546000D01*
X13635001Y4546000D01*
X13576810Y4564907D01*
X13540846Y4614407D01*
X13536001Y4645000D01*
X13536001Y4955000D01*
X13554908Y5013191D01*
X13604408Y5049155D01*
X13635001Y5054000D01*
X14415001Y5054000D01*
X14415002Y5054001D01*
X14415002Y5101000D01*
X14433909Y5159191D01*
X14483409Y5195155D01*
X14514002Y5200000D01*
X15026000Y5200000D01*
X15084191Y5181093D01*
X15120155Y5131593D01*
X15125000Y5101000D01*
X15125000Y124500D01*
X15106093Y66309D01*
X15056593Y30345D01*
X15026000Y25500D01*
X124500Y25500D01*
X66309Y44407D01*
X30345Y93907D01*
X25500Y124500D01*
X25500Y1041000D01*
X44407Y1099191D01*
X93907Y1135155D01*
X124500Y1140000D01*
X282828Y1140000D01*
X288800Y1139639D01*
X289944Y1139500D01*
X460053Y1139500D01*
X460056Y1139500D01*
X625225Y1180210D01*
X775852Y1259266D01*
X838314Y1314603D01*
X894409Y1339038D01*
X903964Y1339500D01*
X975490Y1339500D01*
X1033681Y1320593D01*
X1069645Y1271093D01*
X1074490Y1240500D01*
X1074490Y1066332D01*
X1077302Y1030588D01*
X1077302Y1030585D01*
X1077303Y1030584D01*
X1113543Y905845D01*
X1121747Y877609D01*
X1121748Y877605D01*
X1202835Y740495D01*
X1202836Y740494D01*
X1202838Y740491D01*
X1315481Y627848D01*
X1315483Y627847D01*
X1315484Y627846D01*
X1452594Y546759D01*
X1452595Y546759D01*
X1452598Y546757D01*
X1605574Y502313D01*
X1641318Y499500D01*
X1641322Y499500D01*
X2458658Y499500D01*
X2458662Y499500D01*
X2494406Y502313D01*
X2647382Y546757D01*
X2784499Y627848D01*
X2897142Y740491D01*
X2978233Y877608D01*
X3022677Y1030584D01*
X3025490Y1066328D01*
X3025490Y2533672D01*
X3022677Y2569416D01*
X2978233Y2722392D01*
X2941826Y2783952D01*
X2897144Y2859506D01*
X2897143Y2859507D01*
X2897142Y2859509D01*
X2784499Y2972152D01*
X2784496Y2972154D01*
X2784495Y2972155D01*
X2647385Y3053242D01*
X2647383Y3053243D01*
X2592193Y3069277D01*
X2541588Y3103669D01*
X2520863Y3161237D01*
X2537933Y3219993D01*
X2569415Y3249557D01*
X2659509Y3302838D01*
X2772152Y3415481D01*
X2841030Y3531949D01*
X2886924Y3572409D01*
X2947838Y3578167D01*
X3000503Y3547021D01*
X3024208Y3495825D01*
X3024490Y3493890D01*
X3035266Y3419928D01*
X3091039Y3305843D01*
X3180833Y3216049D01*
X3294918Y3160276D01*
X3368880Y3149500D01*
X3368883Y3149500D01*
X4131096Y3149500D01*
X4131100Y3149500D01*
X4205062Y3160276D01*
X4272556Y3193273D01*
X4333137Y3201843D01*
X4386039Y3174335D01*
X4552424Y3007950D01*
X4580201Y2953433D01*
X4570630Y2893001D01*
X4527365Y2849736D01*
X4496700Y2839981D01*
X4494940Y2839725D01*
X4380854Y2783952D01*
X4291058Y2694156D01*
X4271840Y2654845D01*
X4235286Y2580072D01*
X4224510Y2506110D01*
X4224510Y1093890D01*
X4235286Y1019928D01*
X4291059Y905843D01*
X4380853Y816049D01*
X4494938Y760276D01*
X4568900Y749500D01*
X4568903Y749500D01*
X5331116Y749500D01*
X5331120Y749500D01*
X5405082Y760276D01*
X5519167Y816049D01*
X5608961Y905843D01*
X5664734Y1019928D01*
X5675510Y1093890D01*
X5675510Y1150000D01*
X7700000Y1150000D01*
X7700000Y1130300D01*
X7711603Y1071964D01*
X7755806Y1005811D01*
X7755810Y1005807D01*
X7821963Y961604D01*
X7880299Y950001D01*
X7880303Y950000D01*
X8449999Y950000D01*
X8450000Y950001D01*
X8750000Y950001D01*
X8750001Y950000D01*
X9319697Y950000D01*
X9319700Y950001D01*
X9378036Y961604D01*
X9444189Y1005807D01*
X9444193Y1005811D01*
X9488396Y1071964D01*
X9499999Y1130300D01*
X9500000Y1130303D01*
X9500000Y1150000D01*
X12100000Y1150000D01*
X12100000Y1130300D01*
X12111603Y1071964D01*
X12155806Y1005811D01*
X12155810Y1005807D01*
X12221963Y961604D01*
X12280299Y950001D01*
X12280303Y950000D01*
X12849999Y950000D01*
X12850000Y950001D01*
X13150000Y950001D01*
X13150001Y950000D01*
X13719697Y950000D01*
X13719700Y950001D01*
X13778036Y961604D01*
X13844189Y1005807D01*
X13844193Y1005811D01*
X13888396Y1071964D01*
X13899999Y1130300D01*
X13900000Y1130303D01*
X13900000Y1150000D01*
X13150001Y1150000D01*
X13150000Y1149999D01*
X13150000Y950001D01*
X12850000Y950001D01*
X12850000Y1149999D01*
X12849999Y1150000D01*
X12100000Y1150000D01*
X9500000Y1150000D01*
X8750001Y1150000D01*
X8750000Y1149999D01*
X8750000Y950001D01*
X8450000Y950001D01*
X8450000Y1149999D01*
X8449999Y1150000D01*
X7700000Y1150000D01*
X5675510Y1150000D01*
X5675510Y1650000D01*
X7700000Y1650000D01*
X7700000Y1630300D01*
X7712131Y1569314D01*
X7712131Y1530686D01*
X7700000Y1469701D01*
X7700000Y1450001D01*
X7700001Y1450000D01*
X8449999Y1450000D01*
X8450000Y1450001D01*
X8750000Y1450001D01*
X8750001Y1450000D01*
X9499999Y1450000D01*
X9500000Y1450001D01*
X9500000Y1469698D01*
X9499999Y1469701D01*
X9487869Y1530686D01*
X9487869Y1569314D01*
X9499999Y1630300D01*
X9500000Y1630303D01*
X9500000Y1650000D01*
X8750001Y1650000D01*
X8750000Y1649999D01*
X8750000Y1450001D01*
X8450000Y1450001D01*
X8450000Y1649999D01*
X8449999Y1650000D01*
X7700000Y1650000D01*
X5675510Y1650000D01*
X5675510Y2506110D01*
X5664734Y2580072D01*
X5608961Y2694157D01*
X5519167Y2783951D01*
X5405082Y2839724D01*
X5331120Y2850500D01*
X5331117Y2850500D01*
X5324510Y2850500D01*
X5266319Y2869407D01*
X5230355Y2918907D01*
X5225510Y2949500D01*
X5225510Y2963096D01*
X5227412Y2982410D01*
X5230907Y2999980D01*
X5209526Y3107474D01*
X5209526Y3107475D01*
X5161302Y3179646D01*
X5161302Y3179647D01*
X5161298Y3179651D01*
X5148637Y3198600D01*
X5148636Y3198601D01*
X5148634Y3198604D01*
X5133743Y3208554D01*
X5118741Y3220865D01*
X4504486Y3835120D01*
X4476709Y3889637D01*
X4475490Y3905124D01*
X4475490Y4906107D01*
X4475490Y4906110D01*
X4464714Y4980072D01*
X4408941Y5094157D01*
X4319147Y5183951D01*
X4205062Y5239724D01*
X4131100Y5250500D01*
X3368880Y5250500D01*
X3305797Y5241309D01*
X3294918Y5239724D01*
X3180834Y5183952D01*
X3091038Y5094156D01*
X3035266Y4980072D01*
X3024490Y4906107D01*
X3024490Y4819703D01*
X3005583Y4761512D01*
X2956083Y4725548D01*
X2894897Y4725548D01*
X2845397Y4761512D01*
X2840277Y4769308D01*
X2772154Y4884496D01*
X2772153Y4884497D01*
X2772152Y4884499D01*
X2659509Y4997142D01*
X2659506Y4997144D01*
X2659505Y4997145D01*
X2522395Y5078232D01*
X2522392Y5078233D01*
X2369416Y5122677D01*
X2369415Y5122678D01*
X2369412Y5122678D01*
X2344920Y5124605D01*
X2333672Y5125490D01*
X866328Y5125490D01*
X855900Y5124670D01*
X830587Y5122678D01*
X830580Y5122676D01*
X677608Y5078233D01*
X677604Y5078232D01*
X540494Y4997145D01*
X427845Y4884496D01*
X346758Y4747386D01*
X346757Y4747382D01*
X302314Y4594410D01*
X302312Y4594403D01*
X300320Y4569090D01*
X299992Y4564907D01*
X299500Y4558658D01*
X299500Y3741322D01*
X302313Y3705574D01*
X313630Y3666619D01*
X311708Y3605464D01*
X274206Y3557118D01*
X218561Y3540000D01*
X124500Y3540000D01*
X66309Y3558907D01*
X30345Y3608407D01*
X25500Y3639000D01*
X25500Y6668900D01*
X549500Y6668900D01*
X560276Y6594938D01*
X616049Y6480853D01*
X705843Y6391059D01*
X819928Y6335286D01*
X893890Y6324510D01*
X893893Y6324510D01*
X2306106Y6324510D01*
X2306110Y6324510D01*
X2380072Y6335286D01*
X2494157Y6391059D01*
X2583951Y6480853D01*
X2639724Y6594938D01*
X2650500Y6668900D01*
X2650500Y6675510D01*
X2669407Y6733701D01*
X2718907Y6769665D01*
X2749500Y6774510D01*
X2925490Y6774510D01*
X2983681Y6755603D01*
X3019645Y6706103D01*
X3024490Y6675510D01*
X3024490Y5993894D01*
X3024489Y5993894D01*
X3031618Y5944969D01*
X3035266Y5919928D01*
X3091039Y5805843D01*
X3180833Y5716049D01*
X3294918Y5660276D01*
X3368880Y5649500D01*
X3368883Y5649500D01*
X4131096Y5649500D01*
X4131100Y5649500D01*
X4205062Y5660276D01*
X4319147Y5716049D01*
X4408941Y5805843D01*
X4464714Y5919928D01*
X4475490Y5993890D01*
X4475490Y7406110D01*
X4464714Y7480072D01*
X4408941Y7594157D01*
X4319147Y7683951D01*
X4205062Y7739724D01*
X4131100Y7750500D01*
X3368880Y7750500D01*
X3294917Y7739724D01*
X3294918Y7739724D01*
X3180834Y7683952D01*
X3091038Y7594156D01*
X3088762Y7589500D01*
X3035266Y7480072D01*
X3025090Y7410235D01*
X2997993Y7355380D01*
X2943825Y7326928D01*
X2927126Y7325510D01*
X2749500Y7325510D01*
X2691309Y7344417D01*
X2655345Y7393917D01*
X2650500Y7424510D01*
X2650500Y7431117D01*
X2649340Y7439081D01*
X2639724Y7505082D01*
X2583951Y7619167D01*
X2494157Y7708961D01*
X2380072Y7764734D01*
X2306110Y7775510D01*
X893890Y7775510D01*
X819928Y7764734D01*
X705844Y7708962D01*
X616048Y7619166D01*
X570610Y7526221D01*
X560276Y7505082D01*
X549500Y7431120D01*
X549500Y6668900D01*
X25500Y6668900D01*
X25500Y9626000D01*
X44407Y9684191D01*
X93907Y9720155D01*
X124500Y9725000D01*
X14201000Y9725000D01*
X14259191Y9706093D01*
G37*
G04 #@! TD.AperFunction*
G04 #@! TA.AperFunction,Conductor*
G36*
X14276272Y7323924D02*
G01*
X14299694Y7267399D01*
X14300000Y7259620D01*
X14300000Y6869271D01*
X14281093Y6811080D01*
X14231593Y6775116D01*
X14189594Y6770930D01*
X14172557Y6772906D01*
X14044002Y6772906D01*
X14044001Y6772905D01*
X14044001Y5992905D01*
X14025094Y5934714D01*
X13975594Y5898750D01*
X13945001Y5893905D01*
X13635001Y5893905D01*
X13576810Y5912812D01*
X13540846Y5962312D01*
X13536001Y5992905D01*
X13536001Y6772905D01*
X13536000Y6772906D01*
X13464501Y6772906D01*
X13406310Y6791813D01*
X13370346Y6841313D01*
X13365501Y6871906D01*
X13365501Y7084879D01*
X13384408Y7143070D01*
X13394486Y7154871D01*
X13550121Y7310507D01*
X13604636Y7338282D01*
X13620123Y7339501D01*
X14101714Y7339501D01*
X14101718Y7339501D01*
X14101722Y7339502D01*
X14101724Y7339502D01*
X14175599Y7354195D01*
X14176016Y7352098D01*
X14224100Y7355887D01*
X14276272Y7323924D01*
G37*
G04 #@! TD.AperFunction*
G04 #@! TD*
M02*
