G04*
G04 #@! TF.GenerationSoftware,Altium Limited,Altium Designer,20.0.10 (225)*
G04*
G04 Layer_Color=65535*
%FSLAX25Y25*%
%MOIN*%
G70*
G01*
G75*
%ADD10C,0.00787*%
%ADD11C,0.00984*%
%ADD12C,0.00800*%
%ADD13C,0.00669*%
D10*
X13812Y48327D02*
X14085Y47310D01*
X14830Y46565D01*
X15846Y46293D01*
X16863Y46565D01*
X17608Y47310D01*
X17881Y48327D01*
X27067Y48917D02*
X31004D01*
X24114Y51870D02*
Y54218D01*
X98Y52803D02*
X1513Y54218D01*
X98Y1379D02*
Y52803D01*
Y1379D02*
X1083Y395D01*
X31004Y1378D02*
Y41535D01*
X30021Y395D02*
X31004Y1378D01*
X1083Y395D02*
X30021D01*
X31004Y41535D02*
Y48917D01*
X24114Y51870D02*
X27067Y48917D01*
X1513Y54218D02*
X24114D01*
X21949Y17224D02*
Y48327D01*
X9744Y17224D02*
Y48327D01*
Y17224D02*
X21949D01*
X17881Y48327D02*
X21949D01*
X9744D02*
X13812D01*
X7480Y49213D02*
Y52165D01*
X18012Y49409D02*
Y52362D01*
D11*
X2461Y49016D02*
X1969Y49868D01*
X984D01*
X492Y49016D01*
X984Y48163D01*
X1969D01*
X2461Y49016D01*
X9843Y46654D02*
X10956Y47115D01*
X11417Y48228D01*
D12*
X25488Y12123D02*
X27063Y12123D01*
X25492Y15059D02*
X27067Y15059D01*
X19689Y4921D02*
X19689Y6496D01*
X16753Y4925D02*
X16753Y6500D01*
X10430Y4925D02*
X10430Y6500D01*
X13366Y4921D02*
X13366Y6496D01*
X8740Y4921D02*
X8740Y6496D01*
X5804Y4925D02*
X5804Y6500D01*
X25981Y4827D02*
X25981Y6402D01*
X28917Y4823D02*
X28917Y6398D01*
X12496Y11729D02*
X14071Y11729D01*
X12500Y14665D02*
X14075Y14665D01*
X1178Y4925D02*
X1178Y6500D01*
X4114Y4921D02*
X4114Y6496D01*
X21375Y4925D02*
X21375Y6500D01*
X24311Y4921D02*
X24311Y6496D01*
D13*
X14272Y27987D02*
X16896D01*
X17421Y28512D01*
Y29562D01*
X16896Y30086D01*
X14272D01*
X17421Y32710D02*
X14272D01*
X15846Y31136D01*
Y33235D01*
X14272Y36384D02*
X14797Y35334D01*
X15846Y34285D01*
X16896D01*
X17421Y34809D01*
Y35859D01*
X16896Y36384D01*
X16371D01*
X15846Y35859D01*
Y34285D01*
X14797Y37433D02*
X14272Y37958D01*
Y39007D01*
X14797Y39532D01*
X16896D01*
X17421Y39007D01*
Y37958D01*
X16896Y37433D01*
X14797D01*
M02*
