G04*
G04 #@! TF.GenerationSoftware,Altium Limited,Altium Designer,20.0.10 (225)*
G04*
G04 Layer_Physical_Order=1*
G04 Layer_Color=255*
%FSLAX25Y25*%
%MOIN*%
G70*
G01*
G75*
%ADD10C,0.00787*%
%ADD11C,0.00984*%
%ADD14O,0.04961X0.00984*%
G04:AMPARAMS|DCode=15|XSize=33.47mil|YSize=33.47mil|CornerRadius=3.35mil|HoleSize=0mil|Usage=FLASHONLY|Rotation=0.000|XOffset=0mil|YOffset=0mil|HoleType=Round|Shape=RoundedRectangle|*
%AMROUNDEDRECTD15*
21,1,0.03347,0.02677,0,0,0.0*
21,1,0.02677,0.03347,0,0,0.0*
1,1,0.00669,0.01339,-0.01339*
1,1,0.00669,-0.01339,-0.01339*
1,1,0.00669,-0.01339,0.01339*
1,1,0.00669,0.01339,0.01339*
%
%ADD15ROUNDEDRECTD15*%
G04:AMPARAMS|DCode=16|XSize=27.56mil|YSize=36.22mil|CornerRadius=2.76mil|HoleSize=0mil|Usage=FLASHONLY|Rotation=0.000|XOffset=0mil|YOffset=0mil|HoleType=Round|Shape=RoundedRectangle|*
%AMROUNDEDRECTD16*
21,1,0.02756,0.03071,0,0,0.0*
21,1,0.02205,0.03622,0,0,0.0*
1,1,0.00551,0.01102,-0.01535*
1,1,0.00551,-0.01102,-0.01535*
1,1,0.00551,-0.01102,0.01535*
1,1,0.00551,0.01102,0.01535*
%
%ADD16ROUNDEDRECTD16*%
G04:AMPARAMS|DCode=17|XSize=27.56mil|YSize=36.22mil|CornerRadius=2.76mil|HoleSize=0mil|Usage=FLASHONLY|Rotation=270.000|XOffset=0mil|YOffset=0mil|HoleType=Round|Shape=RoundedRectangle|*
%AMROUNDEDRECTD17*
21,1,0.02756,0.03071,0,0,270.0*
21,1,0.02205,0.03622,0,0,270.0*
1,1,0.00551,-0.01535,-0.01102*
1,1,0.00551,-0.01535,0.01102*
1,1,0.00551,0.01535,0.01102*
1,1,0.00551,0.01535,-0.01102*
%
%ADD17ROUNDEDRECTD17*%
G04:AMPARAMS|DCode=24|XSize=25.59mil|YSize=9.84mil|CornerRadius=0mil|HoleSize=0mil|Usage=FLASHONLY|Rotation=45.000|XOffset=0mil|YOffset=0mil|HoleType=Round|Shape=Round|*
%AMOVALD24*
21,1,0.01575,0.00984,0.00000,0.00000,45.0*
1,1,0.00984,-0.00557,-0.00557*
1,1,0.00984,0.00557,0.00557*
%
%ADD24OVALD24*%

%ADD25O,0.22835X0.00984*%
%ADD26O,0.00984X0.40158*%
%ADD27O,0.00787X0.01575*%
%ADD28C,0.02362*%
G36*
X15398Y53263D02*
X15886D01*
X15792Y53253D01*
X15709Y53223D01*
X15635Y53173D01*
X15571Y53103D01*
X15517Y53013D01*
X15472Y52904D01*
X15459Y52853D01*
X15472Y52802D01*
X15517Y52692D01*
X15571Y52602D01*
X15635Y52533D01*
X15709Y52483D01*
X15792Y52453D01*
X15886Y52443D01*
X15398D01*
X15394Y52266D01*
X14409D01*
X14405Y52443D01*
X13917D01*
X14011Y52453D01*
X14094Y52483D01*
X14168Y52533D01*
X14232Y52602D01*
X14286Y52692D01*
X14331Y52802D01*
X14344Y52853D01*
X14331Y52904D01*
X14286Y53013D01*
X14232Y53103D01*
X14168Y53173D01*
X14094Y53223D01*
X14011Y53253D01*
X13917Y53263D01*
X14405D01*
X14409Y53439D01*
X15394D01*
X15398Y53263D01*
D02*
G37*
G36*
X11087D02*
X11575D01*
X11481Y53253D01*
X11398Y53223D01*
X11324Y53173D01*
X11260Y53103D01*
X11206Y53013D01*
X11162Y52904D01*
X11148Y52853D01*
X11162Y52802D01*
X11206Y52692D01*
X11260Y52602D01*
X11324Y52533D01*
X11398Y52483D01*
X11481Y52453D01*
X11575Y52443D01*
X11087D01*
X11083Y52266D01*
X10098D01*
X10094Y52443D01*
X9606D01*
X9700Y52453D01*
X9783Y52483D01*
X9857Y52533D01*
X9921Y52602D01*
X9975Y52692D01*
X10020Y52802D01*
X10033Y52853D01*
X10020Y52904D01*
X9975Y53013D01*
X9921Y53103D01*
X9857Y53173D01*
X9783Y53223D01*
X9700Y53253D01*
X9606Y53263D01*
X10094D01*
X10098Y53439D01*
X11083D01*
X11087Y53263D01*
D02*
G37*
G36*
X13246Y49803D02*
X13236Y49897D01*
X13206Y49980D01*
X13156Y50054D01*
X13087Y50118D01*
X12997Y50172D01*
X12887Y50217D01*
X12758Y50251D01*
X12746Y50253D01*
X12734Y50251D01*
X12605Y50217D01*
X12495Y50172D01*
X12405Y50118D01*
X12336Y50054D01*
X12286Y49980D01*
X12256Y49897D01*
X12246Y49803D01*
Y51772D01*
X12256Y51678D01*
X12286Y51595D01*
X12336Y51521D01*
X12405Y51457D01*
X12495Y51403D01*
X12605Y51358D01*
X12734Y51324D01*
X12746Y51322D01*
X12758Y51324D01*
X12887Y51358D01*
X12997Y51403D01*
X13087Y51457D01*
X13156Y51521D01*
X13206Y51595D01*
X13236Y51678D01*
X13246Y51772D01*
Y49803D01*
D02*
G37*
G36*
X6029Y50151D02*
X6044Y50140D01*
X6072Y50130D01*
X6111Y50122D01*
X6162Y50115D01*
X6299Y50104D01*
X6594Y50098D01*
Y49114D01*
X5835Y49145D01*
X6026Y50163D01*
X6029Y50151D01*
D02*
G37*
G36*
X5233Y50626D02*
X5320Y50555D01*
X5405Y50497D01*
X5486Y50453D01*
X5565Y50423D01*
X5641Y50406D01*
X5714Y50403D01*
X5784Y50414D01*
X5852Y50438D01*
X5917Y50475D01*
X5568Y48924D01*
X4584Y49877D01*
X5143Y50710D01*
X5233Y50626D01*
D02*
G37*
G36*
X18639Y52126D02*
Y49449D01*
X18726Y49011D01*
X18974Y48640D01*
X19346Y48392D01*
X19783Y48305D01*
X20635D01*
X20784Y47559D01*
X21219Y46908D01*
X21870Y46472D01*
X22638Y46320D01*
X23143Y46420D01*
X23593Y46047D01*
X23597Y46040D01*
Y44744D01*
X23696Y44245D01*
X23979Y43822D01*
X24346Y43455D01*
X24376Y43093D01*
X24325Y42839D01*
X24279Y42808D01*
X24174Y42652D01*
X23684Y42554D01*
X23465Y42701D01*
X22697Y42854D01*
X21929Y42701D01*
X21278Y42266D01*
X20843Y41614D01*
X20690Y40846D01*
X20843Y40078D01*
X21278Y39427D01*
X21297Y39415D01*
X21191Y38884D01*
X21082Y38862D01*
X20431Y38427D01*
X19996Y37776D01*
X19843Y37008D01*
X19996Y36240D01*
X20431Y35589D01*
X20912Y35267D01*
X21081Y35135D01*
X21055Y34649D01*
X20843Y34331D01*
X20690Y33563D01*
X20843Y32795D01*
X21278Y32144D01*
X21573Y31947D01*
Y31636D01*
X21138Y30985D01*
X20985Y30217D01*
X21138Y29449D01*
X21573Y28797D01*
X22089Y28452D01*
Y28439D01*
X22089Y28439D01*
X22107Y28351D01*
X22105Y28324D01*
X22121Y28280D01*
X22181Y27978D01*
X22442Y27587D01*
X23879Y26151D01*
X23898Y26074D01*
X23849Y25642D01*
X23789Y25537D01*
X23782Y25530D01*
X23345Y25238D01*
X22909Y24587D01*
X22757Y23819D01*
X22909Y23051D01*
X23345Y22400D01*
X23996Y21965D01*
X24085Y21437D01*
X24050Y21260D01*
X24149Y20761D01*
X24366Y20436D01*
X24388Y20118D01*
X24325Y19807D01*
X24279Y19777D01*
X24053Y19440D01*
X23482Y19304D01*
X20240Y22546D01*
Y29035D01*
X20240Y29035D01*
X20148Y29496D01*
X19887Y29887D01*
X19887Y29887D01*
X18717Y31057D01*
X18717Y31057D01*
X7649Y42125D01*
X7550Y42232D01*
X7517Y42271D01*
X7478Y42330D01*
X7474Y42342D01*
X7461Y42355D01*
X7327Y42556D01*
X7305Y42875D01*
X7368Y43185D01*
X7414Y43216D01*
X7744Y43709D01*
X7761Y43791D01*
X7343D01*
X6828Y43245D01*
X6677Y43391D01*
X6402Y43622D01*
X6277Y43709D01*
X6161Y43776D01*
X6126Y43791D01*
X4350D01*
Y44791D01*
X7761D01*
X7744Y44873D01*
X7414Y45367D01*
X7329Y45424D01*
Y45587D01*
X7390Y45984D01*
X7911Y46505D01*
X8194Y46928D01*
X8293Y47427D01*
Y47883D01*
X8654Y48138D01*
X8793Y48179D01*
X9252Y48088D01*
X10091D01*
Y48136D01*
X9409D01*
X9405Y48294D01*
X9394Y48441D01*
X9374Y48577D01*
X9347Y48702D01*
X9312Y48816D01*
X9269Y48918D01*
X9218Y49010D01*
X9160Y49090D01*
X9093Y49158D01*
X9019Y49216D01*
X10091Y49168D01*
Y50787D01*
X11091D01*
Y48088D01*
X11929D01*
X12450Y48192D01*
X12746Y48390D01*
X13042Y48192D01*
X13563Y48088D01*
X14401D01*
Y50787D01*
X14901D01*
Y51287D01*
X17601D01*
Y52126D01*
X17677Y52219D01*
X18563D01*
X18639Y52126D01*
D02*
G37*
G36*
X7622Y48914D02*
X7592Y48835D01*
X7566Y48751D01*
X7543Y48662D01*
X7508Y48468D01*
X7496Y48363D01*
X7482Y48138D01*
X7480Y48018D01*
X6496Y47622D01*
X6492Y47743D01*
X6480Y47856D01*
X6460Y47960D01*
X6432Y48054D01*
X6396Y48140D01*
X6352Y48217D01*
X6300Y48286D01*
X6240Y48345D01*
X6172Y48395D01*
X6096Y48437D01*
X7655Y48988D01*
X7622Y48914D01*
D02*
G37*
G36*
X24653Y47802D02*
X25003Y47506D01*
X25158Y47399D01*
X25299Y47319D01*
X25427Y47267D01*
X25542Y47241D01*
X25643Y47243D01*
X25730Y47272D01*
X25804Y47328D01*
X25194Y46696D01*
X25886Y46373D01*
X25793Y46404D01*
X25709Y46407D01*
X25635Y46380D01*
X25571Y46324D01*
X25517Y46239D01*
X25473Y46125D01*
X25438Y45981D01*
X25414Y45809D01*
X25399Y45607D01*
X25394Y45377D01*
X24410Y45679D01*
X24415Y46313D01*
X24440Y46641D01*
X23827Y47229D01*
X24458Y47990D01*
X24653Y47802D01*
D02*
G37*
G36*
X1078Y45182D02*
X1108Y45098D01*
X1158Y45025D01*
X1228Y44961D01*
X1317Y44906D01*
X1427Y44862D01*
X1556Y44828D01*
X1706Y44803D01*
X1875Y44788D01*
X2064Y44783D01*
Y43799D01*
X1875Y43794D01*
X1706Y43780D01*
X1556Y43755D01*
X1427Y43720D01*
X1317Y43676D01*
X1228Y43622D01*
X1158Y43558D01*
X1108Y43484D01*
X1078Y43400D01*
X1068Y43307D01*
Y45276D01*
X1078Y45182D01*
D02*
G37*
G36*
X24984Y42741D02*
X25321Y42459D01*
X25475Y42353D01*
X25620Y42271D01*
X25754Y42211D01*
X25878Y42176D01*
X25993Y42164D01*
X26098Y42175D01*
X26193Y42210D01*
X24902Y41545D01*
X24898Y41526D01*
X24873Y41531D01*
X24828Y41558D01*
X24762Y41608D01*
X24570Y41777D01*
X23939Y42388D01*
X24801Y42918D01*
X24984Y42741D01*
D02*
G37*
G36*
X6800Y41894D02*
X6821Y41860D01*
X6852Y41817D01*
X6945Y41703D01*
X7167Y41464D01*
X7368Y41260D01*
X6828Y40686D01*
X6677Y40832D01*
X6402Y41063D01*
X6277Y41150D01*
X6161Y41217D01*
X6054Y41264D01*
X5956Y41291D01*
X5867Y41299D01*
X5786Y41287D01*
X5715Y41255D01*
X6791Y41920D01*
X6800Y41894D01*
D02*
G37*
G36*
X23730Y40261D02*
X23718Y40207D01*
X23715Y40151D01*
X23721Y40093D01*
X23738Y40034D01*
X23763Y39973D01*
X23798Y39911D01*
X23843Y39847D01*
X23896Y39781D01*
X23959Y39714D01*
X23382Y39179D01*
X23289Y39269D01*
X23035Y39485D01*
X22959Y39538D01*
X22886Y39582D01*
X22818Y39617D01*
X22755Y39643D01*
X22695Y39660D01*
X22640Y39667D01*
X23751Y40314D01*
X23730Y40261D01*
D02*
G37*
G36*
X6800Y39335D02*
X6821Y39301D01*
X6852Y39258D01*
X6945Y39144D01*
X7167Y38905D01*
X7368Y38700D01*
X6828Y38127D01*
X6677Y38272D01*
X6402Y38504D01*
X6277Y38591D01*
X6161Y38658D01*
X6054Y38704D01*
X5956Y38732D01*
X5867Y38739D01*
X5786Y38727D01*
X5715Y38696D01*
X6791Y39360D01*
X6800Y39335D01*
D02*
G37*
G36*
X25068Y37516D02*
X25342Y37286D01*
X25466Y37200D01*
X25582Y37133D01*
X25689Y37086D01*
X25787Y37058D01*
X25877Y37050D01*
X25959Y37061D01*
X26032Y37092D01*
X24902Y36427D01*
X24890Y36465D01*
X24868Y36510D01*
X24835Y36564D01*
X24791Y36625D01*
X24673Y36770D01*
X24513Y36946D01*
X24311Y37154D01*
X24918Y37661D01*
X25068Y37516D01*
D02*
G37*
G36*
X22973Y37400D02*
X23093Y37195D01*
X23164Y37089D01*
X23329Y36871D01*
X23524Y36644D01*
X23749Y36408D01*
X23274Y35770D01*
X23189Y35847D01*
X23103Y35912D01*
X23017Y35964D01*
X22929Y36002D01*
X22841Y36027D01*
X22752Y36039D01*
X22661Y36038D01*
X22570Y36024D01*
X22479Y35996D01*
X22386Y35955D01*
X22924Y37499D01*
X22973Y37400D01*
D02*
G37*
G36*
X6799Y36782D02*
X6819Y36752D01*
X6849Y36713D01*
X6941Y36606D01*
X7363Y36169D01*
X6850Y35568D01*
X6699Y35714D01*
X6423Y35947D01*
X6298Y36033D01*
X6182Y36100D01*
X6075Y36147D01*
X5977Y36174D01*
X5888Y36181D01*
X5808Y36169D01*
X5737Y36137D01*
X6791Y36801D01*
X6799Y36782D01*
D02*
G37*
G36*
X6894Y34312D02*
X6970Y34267D01*
X7064Y34197D01*
X7179Y34101D01*
X7641Y33664D01*
X7120Y33071D01*
X6972Y33214D01*
X6703Y33439D01*
X6583Y33521D01*
X6474Y33582D01*
X6373Y33622D01*
X6283Y33642D01*
X6202Y33641D01*
X6131Y33619D01*
X6069Y33578D01*
X6791Y34242D01*
X6787Y34298D01*
X6803Y34328D01*
X6839Y34333D01*
X6894Y34312D01*
D02*
G37*
G36*
X23850Y33856D02*
X23947Y33641D01*
X24000Y33540D01*
X24114Y33352D01*
X24176Y33264D01*
X24308Y33103D01*
X24379Y33029D01*
X24050Y32244D01*
X23966Y32321D01*
X23880Y32386D01*
X23792Y32438D01*
X23702Y32479D01*
X23610Y32507D01*
X23517Y32522D01*
X23422Y32526D01*
X23325Y32517D01*
X23226Y32496D01*
X23125Y32462D01*
X23806Y33970D01*
X23850Y33856D01*
D02*
G37*
G36*
X25016Y32397D02*
X25291Y32165D01*
X25416Y32078D01*
X25532Y32012D01*
X25639Y31965D01*
X25737Y31938D01*
X25826Y31930D01*
X25907Y31942D01*
X25978Y31974D01*
X24902Y31309D01*
X24893Y31334D01*
X24872Y31368D01*
X24841Y31412D01*
X24747Y31525D01*
X24526Y31764D01*
X24325Y31969D01*
X24865Y32542D01*
X25016Y32397D01*
D02*
G37*
G36*
X6644Y32094D02*
X6762Y32001D01*
X6921Y31861D01*
X7651Y31156D01*
X7157Y30537D01*
X7002Y30687D01*
X6726Y30919D01*
X6605Y31001D01*
X6497Y31061D01*
X6400Y31098D01*
X6315Y31112D01*
X6242Y31104D01*
X6180Y31072D01*
X6131Y31019D01*
X6685Y31842D01*
X6593Y31988D01*
X6543Y32085D01*
X6534Y32136D01*
X6568Y32138D01*
X6644Y32094D01*
D02*
G37*
G36*
X23895Y29444D02*
X23851Y29367D01*
X23813Y29284D01*
X23779Y29195D01*
X23751Y29101D01*
X23728Y29002D01*
X23710Y28898D01*
X23697Y28788D01*
X23687Y28553D01*
X22900Y28439D01*
X22896Y28540D01*
X22884Y28635D01*
X22865Y28722D01*
X22837Y28803D01*
X22802Y28876D01*
X22759Y28943D01*
X22709Y29002D01*
X22650Y29055D01*
X22584Y29100D01*
X22510Y29138D01*
X23944Y29517D01*
X23895Y29444D01*
D02*
G37*
G36*
X25016Y27279D02*
X25291Y27047D01*
X25416Y26960D01*
X25532Y26894D01*
X25639Y26847D01*
X25737Y26819D01*
X25826Y26812D01*
X25907Y26824D01*
X25978Y26855D01*
X24902Y26191D01*
X24893Y26216D01*
X24872Y26250D01*
X24841Y26294D01*
X24747Y26407D01*
X24526Y26646D01*
X24325Y26851D01*
X24865Y27424D01*
X25016Y27279D01*
D02*
G37*
G36*
X6602Y24404D02*
X6679Y24354D01*
X6794Y24261D01*
X7142Y23942D01*
X7645Y23449D01*
X7136Y22845D01*
X6979Y22997D01*
X6700Y23232D01*
X6578Y23315D01*
X6468Y23376D01*
X6370Y23414D01*
X6284Y23430D01*
X6209Y23423D01*
X6146Y23393D01*
X6094Y23341D01*
X6685Y24165D01*
X6606Y24290D01*
X6566Y24372D01*
X6565Y24410D01*
X6602Y24404D01*
D02*
G37*
G36*
X1078Y22151D02*
X1108Y22067D01*
X1158Y21993D01*
X1228Y21929D01*
X1317Y21875D01*
X1427Y21831D01*
X1556Y21796D01*
X1706Y21772D01*
X1875Y21757D01*
X2064Y21752D01*
Y21043D01*
X3445Y20782D01*
X3351Y20789D01*
X3268Y20772D01*
X3194Y20732D01*
X3130Y20668D01*
X3076Y20580D01*
X3032Y20468D01*
X2997Y20333D01*
X2972Y20175D01*
X2958Y19992D01*
X2957Y19980D01*
X2958Y19969D01*
X2972Y19786D01*
X2997Y19627D01*
X3032Y19492D01*
X3076Y19381D01*
X3130Y19293D01*
X3194Y19229D01*
X3268Y19188D01*
X3351Y19172D01*
X3445Y19178D01*
X1910Y18888D01*
X2952Y18223D01*
X2901Y18242D01*
X2836Y18241D01*
X2760Y18220D01*
X2671Y18179D01*
X2569Y18119D01*
X2455Y18038D01*
X2328Y17937D01*
X2037Y17676D01*
X1873Y17515D01*
X1128Y18163D01*
X1910Y18888D01*
X1921Y18915D01*
X1931Y18959D01*
X1940Y19021D01*
X1954Y19200D01*
X1968Y19772D01*
X1969Y19960D01*
X2062Y19980D01*
X1969Y20001D01*
X1927Y20764D01*
X1875Y20763D01*
X1706Y20748D01*
X1556Y20723D01*
X1427Y20689D01*
X1317Y20645D01*
X1228Y20591D01*
X1158Y20527D01*
X1108Y20453D01*
X1078Y20369D01*
X1068Y20276D01*
Y22244D01*
X1078Y22151D01*
D02*
G37*
G36*
X22785Y16015D02*
X22797Y15873D01*
X22816Y15748D01*
X22844Y15642D01*
X22879Y15553D01*
X22923Y15482D01*
X22974Y15429D01*
X23033Y15393D01*
X23100Y15375D01*
X23175Y15375D01*
X21779Y15221D01*
X21820Y15288D01*
X21856Y15361D01*
X21889Y15441D01*
X21916Y15526D01*
X21940Y15618D01*
X21959Y15716D01*
X21985Y15929D01*
X21991Y16045D01*
X21994Y16168D01*
X22781Y16174D01*
X22785Y16015D01*
D02*
G37*
G36*
X10534Y15531D02*
X10556Y15314D01*
X10575Y15225D01*
X10600Y15151D01*
X10630Y15090D01*
X10665Y15042D01*
X10706Y15008D01*
X10753Y14988D01*
X10804Y14981D01*
X9471D01*
X9523Y14988D01*
X9569Y15008D01*
X9611Y15042D01*
X9646Y15090D01*
X9676Y15151D01*
X9701Y15225D01*
X9720Y15314D01*
X9733Y15416D01*
X9742Y15531D01*
X9744Y15660D01*
X10532D01*
X10534Y15531D01*
D02*
G37*
G36*
X30739Y11877D02*
X30702Y11803D01*
X30670Y11724D01*
X30642Y11638D01*
X30618Y11546D01*
X30599Y11449D01*
X30573Y11235D01*
X30566Y11119D01*
X30564Y10998D01*
X29777Y10991D01*
X29773Y11151D01*
X29761Y11293D01*
X29741Y11417D01*
X29714Y11524D01*
X29678Y11612D01*
X29635Y11683D01*
X29584Y11737D01*
X29525Y11772D01*
X29458Y11790D01*
X29383Y11790D01*
X30780Y11944D01*
X30739Y11877D01*
D02*
G37*
G36*
X16011Y11397D02*
X15988Y11395D01*
X15968Y11382D01*
X15950Y11358D01*
X15935Y11322D01*
X15922Y11276D01*
X15911Y11218D01*
X15903Y11148D01*
X15894Y10976D01*
X15892Y10873D01*
X15105D01*
X15086Y11551D01*
X16011Y11397D01*
D02*
G37*
G36*
X12887Y10725D02*
X12905Y10525D01*
X12921Y10443D01*
X12941Y10374D01*
X12965Y10318D01*
X12994Y10274D01*
X13027Y10243D01*
X13065Y10224D01*
X13107Y10217D01*
X11876D01*
X11918Y10224D01*
X11956Y10243D01*
X11989Y10274D01*
X12018Y10318D01*
X12042Y10374D01*
X12062Y10443D01*
X12078Y10525D01*
X12089Y10619D01*
X12096Y10725D01*
X12098Y10845D01*
X12885D01*
X12887Y10725D01*
D02*
G37*
G36*
X19394Y10864D02*
X19405Y10727D01*
X19425Y10606D01*
X19452Y10502D01*
X19488Y10413D01*
X19531Y10340D01*
X19581Y10284D01*
X19640Y10243D01*
X19707Y10219D01*
X19781Y10211D01*
X18209Y10217D01*
X18283Y10225D01*
X18350Y10249D01*
X18409Y10289D01*
X18461Y10345D01*
X18504Y10416D01*
X18539Y10504D01*
X18567Y10608D01*
X18587Y10729D01*
X18598Y10865D01*
X18602Y11017D01*
X19390D01*
X19394Y10864D01*
D02*
G37*
G36*
X6697Y10862D02*
X6709Y10724D01*
X6728Y10602D01*
X6756Y10497D01*
X6791Y10409D01*
X6835Y10337D01*
X6886Y10282D01*
X6945Y10244D01*
X7012Y10222D01*
X7087Y10217D01*
X5539Y10151D01*
X5608Y10204D01*
X5671Y10264D01*
X5726Y10332D01*
X5773Y10407D01*
X5814Y10490D01*
X5847Y10580D01*
X5872Y10678D01*
X5891Y10784D01*
X5902Y10896D01*
X5906Y11017D01*
X6693D01*
X6697Y10862D01*
D02*
G37*
G36*
X4039Y10892D02*
X4048Y10775D01*
X4065Y10667D01*
X4088Y10568D01*
X4117Y10477D01*
X4154Y10394D01*
X4196Y10321D01*
X4245Y10255D01*
X4301Y10199D01*
X4363Y10151D01*
X2854Y10217D01*
X2929Y10222D01*
X2996Y10244D01*
X3055Y10282D01*
X3106Y10337D01*
X3150Y10408D01*
X3185Y10497D01*
X3213Y10602D01*
X3232Y10723D01*
X3244Y10862D01*
X3248Y11017D01*
X4035D01*
X4039Y10892D01*
D02*
G37*
G36*
X26874Y10763D02*
X26886Y10625D01*
X26906Y10503D01*
X26933Y10399D01*
X26969Y10310D01*
X27012Y10239D01*
X27063Y10184D01*
X27122Y10146D01*
X27189Y10124D01*
X27264Y10119D01*
X25716Y10052D01*
X25785Y10105D01*
X25848Y10165D01*
X25903Y10233D01*
X25951Y10309D01*
X25991Y10391D01*
X26024Y10482D01*
X26050Y10580D01*
X26068Y10685D01*
X26079Y10798D01*
X26083Y10918D01*
X26870D01*
X26874Y10763D01*
D02*
G37*
%LPC*%
G36*
X16333Y50287D02*
X15402D01*
Y49356D01*
X16333Y50287D01*
D02*
G37*
G36*
X17601D02*
X16477D01*
X16477Y50243D01*
X16506Y50125D01*
X16563Y49993D01*
X16648Y49847D01*
X16760Y49686D01*
X16901Y49512D01*
X17265Y49120D01*
X16569Y48424D01*
X16366Y48620D01*
X16003Y48929D01*
X15842Y49041D01*
X15696Y49126D01*
X15564Y49183D01*
X15446Y49212D01*
X15402Y49212D01*
Y48088D01*
X16240D01*
X16761Y48192D01*
X17202Y48487D01*
X17497Y48928D01*
X17601Y49449D01*
Y50287D01*
D02*
G37*
%LPD*%
D10*
X25354Y26378D02*
X27343D01*
X23293Y28439D02*
X25354Y26378D01*
X23293Y28439D02*
Y29915D01*
X22992Y30217D02*
X23293Y29915D01*
X27264Y31496D02*
X27343D01*
X25354D02*
X27264D01*
X23589Y33262D02*
X25354Y31496D01*
X22998Y33262D02*
X23589D01*
X22697Y33563D02*
X22998Y33262D01*
X25408Y34055D02*
X27343D01*
X25059Y34404D02*
X25408Y34055D01*
X25059Y34404D02*
Y34541D01*
X22894Y36707D02*
X25059Y34541D01*
X22152Y36707D02*
X22894D01*
X21850Y37008D02*
X22152Y36707D01*
X23771Y38391D02*
X24315Y37847D01*
X22697Y40420D02*
Y40846D01*
Y40420D02*
X23681Y39436D01*
Y38518D02*
Y39436D01*
Y38518D02*
X23771Y38428D01*
Y38391D02*
Y38428D01*
X25408Y36614D02*
X27343D01*
X24315Y37707D02*
X25408Y36614D01*
X24315Y37707D02*
Y37847D01*
X27165Y31594D02*
X27264Y31496D01*
X8012Y18008D02*
Y22525D01*
X4724Y14701D02*
X7807Y17783D01*
Y17803D01*
X8012Y18008D01*
X6756Y23781D02*
X8012Y22525D01*
X7265Y43172D02*
X20610Y29827D01*
X7265Y43172D02*
Y43365D01*
X20610Y22839D02*
Y29827D01*
Y22839D02*
X23961Y19488D01*
X14311Y20039D02*
X18996Y15354D01*
X14311Y20039D02*
Y26437D01*
X15886Y20692D02*
Y27089D01*
X18806Y17771D02*
X18806D01*
X15886Y20692D02*
X18806Y17771D01*
X17461Y21344D02*
Y28051D01*
Y21344D02*
X22387Y16417D01*
X6339Y44291D02*
X7265Y43365D01*
X4388Y26340D02*
X6860D01*
X9587Y17355D02*
Y23614D01*
X6860Y26340D02*
X9587Y23614D01*
X4350Y26378D02*
X4388Y26340D01*
X7283Y8858D02*
X7480D01*
X4350Y23819D02*
X4388Y23781D01*
X6756D01*
X26476Y9350D02*
X27067Y8760D01*
X24383Y17028D02*
X26476Y14934D01*
Y9350D02*
Y14934D01*
X23961Y19488D02*
X23961D01*
X24748Y18701D02*
X27343D01*
X23961Y19488D02*
X24748Y18701D01*
X24055Y17028D02*
X24383D01*
X19036Y22047D02*
X24055Y17028D01*
X19036Y22047D02*
Y29035D01*
X17865Y30205D02*
X17865D01*
X19036Y29035D01*
X6339Y41732D02*
X17865Y30205D01*
X4350Y41732D02*
X6339D01*
Y39173D02*
X17461Y28051D01*
X4350Y39173D02*
X6339D01*
X4350Y36614D02*
X6361D01*
X15886Y27089D01*
X4350Y34055D02*
X4388Y34017D01*
X6731D01*
X14311Y26437D01*
X4350Y31496D02*
X4388Y31458D01*
X6792D01*
X12736Y25515D01*
X7087Y28937D02*
X11162Y24862D01*
X4350Y28937D02*
X7087D01*
X11162Y16683D02*
Y24862D01*
X22387Y14325D02*
X23130Y13583D01*
X22387Y14325D02*
Y16417D01*
X20571Y11444D02*
Y16007D01*
X18806Y17771D02*
X20571Y16007D01*
Y11444D02*
X21467Y10548D01*
X17815Y8661D02*
X18996Y9843D01*
X12106Y8858D02*
X12491Y9243D01*
Y10845D01*
X12736Y11090D02*
Y25515D01*
X12491Y10845D02*
X12736Y11090D01*
X15059Y10433D02*
X15499Y10873D01*
X15059Y1084D02*
Y10433D01*
X29232Y13583D02*
X30170Y12645D01*
X21467Y9833D02*
X22441Y8858D01*
X21467Y9833D02*
Y10548D01*
X15499Y10873D02*
Y12447D01*
X30170Y10748D02*
X30610Y10308D01*
Y1084D02*
Y10308D01*
X18996Y9843D02*
Y15354D01*
X10138Y13189D02*
Y15660D01*
X11162Y16683D01*
X9382Y17131D02*
Y17151D01*
X9587Y17355D01*
X6299Y9843D02*
Y14048D01*
X9382Y17131D01*
X3642Y9646D02*
Y13618D01*
X4724Y14701D01*
Y14701D01*
X15499Y12447D02*
X16240Y13189D01*
X6299Y9843D02*
X7283Y8858D01*
X2854D02*
X3642Y9646D01*
X30170Y10748D02*
Y12645D01*
D11*
X25354Y46850D02*
X27343D01*
X23011Y48327D02*
X23471Y47866D01*
X24902Y44744D02*
Y46850D01*
X25354Y44291D02*
X27343D01*
X24902Y44744D02*
X25354Y44291D01*
X23471Y47866D02*
X23886D01*
X25354Y46850D02*
X25354Y46850D01*
X23886Y47866D02*
X24902Y46850D01*
X25354D01*
X22638Y48327D02*
X23011D01*
X591Y21260D02*
Y44193D01*
Y21260D02*
X4350D01*
X2461Y18701D02*
X4350D01*
X2362D02*
X2461D01*
Y21161D01*
X1476Y17815D02*
X2362Y18701D01*
X1083Y17815D02*
X1476D01*
X14901Y50787D02*
Y53740D01*
X12844D02*
X14901D01*
X10591Y50787D02*
Y53740D01*
X12844D01*
X22303Y49034D02*
Y49606D01*
X21122Y50787D02*
X22303Y49606D01*
Y49034D02*
X22638Y48700D01*
Y48327D02*
Y48700D01*
X14901Y50787D02*
X22382Y43307D01*
X23716D01*
X25291Y41732D01*
X27343D01*
X6339Y44291D02*
X7480D01*
X9901Y46712D02*
Y50098D01*
X7480Y44291D02*
X9901Y46712D01*
X4350Y44291D02*
X6339D01*
X10591Y50787D02*
X14901D01*
X886Y44291D02*
X4350D01*
X9901Y50098D02*
X10591Y50787D01*
X4370D02*
X5551Y49606D01*
X6594D01*
X6988Y49213D01*
Y47427D02*
Y49213D01*
X4350Y46850D02*
X6412D01*
X6988Y47427D01*
X7265Y43365D02*
X7265D01*
D14*
X27343Y18701D02*
D03*
Y21260D02*
D03*
Y23819D02*
D03*
Y26378D02*
D03*
Y28937D02*
D03*
Y31496D02*
D03*
Y34055D02*
D03*
Y36614D02*
D03*
Y39173D02*
D03*
Y41732D02*
D03*
Y44291D02*
D03*
Y46850D02*
D03*
X4350Y18701D02*
D03*
Y21260D02*
D03*
Y23819D02*
D03*
Y26378D02*
D03*
Y28937D02*
D03*
Y31496D02*
D03*
Y34055D02*
D03*
Y36614D02*
D03*
Y39173D02*
D03*
Y41732D02*
D03*
Y44291D02*
D03*
Y46850D02*
D03*
D15*
X4370Y50787D02*
D03*
X10591D02*
D03*
X21122Y50787D02*
D03*
X14901D02*
D03*
D16*
X23130Y13583D02*
D03*
X29429D02*
D03*
X10138Y13189D02*
D03*
X16437D02*
D03*
D17*
X18213Y2559D02*
D03*
Y8858D02*
D03*
X11890Y8858D02*
D03*
Y2559D02*
D03*
X7264D02*
D03*
Y8858D02*
D03*
X27441Y8760D02*
D03*
Y2461D02*
D03*
X2638Y8858D02*
D03*
Y2559D02*
D03*
X22835Y8858D02*
D03*
Y2559D02*
D03*
D24*
X1181Y53150D02*
D03*
D25*
X12844Y53740D02*
D03*
D26*
X591Y33071D02*
D03*
D27*
X2854Y1084D02*
D03*
X7480D02*
D03*
X30610D02*
D03*
X27618D02*
D03*
X22992D02*
D03*
X12106D02*
D03*
X18366D02*
D03*
X15059D02*
D03*
D28*
X6594Y49508D02*
D03*
X22638Y48327D02*
D03*
X29921Y21260D02*
D03*
X24764Y23819D02*
D03*
X22992Y30217D02*
D03*
X29921Y28937D02*
D03*
X22697Y33563D02*
D03*
X21850Y37008D02*
D03*
X29921Y39173D02*
D03*
X22697Y40846D02*
D03*
M02*
