M48
;Layer_Color=9474304
;FILE_FORMAT=2:4
INCH,TZ
;TYPE=PLATED
T1F00S00C0.0118
T2F00S00C0.0315
T3F00S00C0.0394
;TYPE=NON_PLATED
T4F00S00C0.0390
%
T01
X276Y118
X199Y517
X118Y1102
Y1496
X876Y1756
X1590Y1772
X1874Y1795
X2480Y1614
X2795
X3361Y1802
X3787
X4370Y1614
X4685
X5254Y1784
X5539Y1793
X6227Y1592
X6611
X7122Y1818
X7564Y1802
X8150Y1614
X8465
X9045Y1711
X9429Y1772
X10039Y1614
X10354
X10984Y1772
X11299
X11929Y1614
X12244
X12874Y1772
X13189
X13819Y1614
X14055Y1850
X14331Y2717
X14646Y2598
X14843Y2323
X15197
X15285Y3248
X14783Y3268
X14846Y3546
X14744Y4390
X15118Y4528
X15222Y4803
X15325Y4291
X15046Y5617
X15038Y6114
X14724Y6142
X14764Y6535
X14646Y7323
X14051Y7399
X13661Y7441
X13327Y7452
X13583Y7165
X13835Y7005
X13998Y7869
X14014Y8256
X13769Y8416
X14155Y8661
X14065Y9369
X14134Y9646
X14016Y10512
X13819Y10866
X14046Y11427
X14067Y11811
X14868Y11515
X15191Y11294
X15574Y11270
X15153Y12730
X15104Y13380
X15323Y13563
X14761Y13978
X14037Y14171
X13661Y13858
X13417Y14006
X13268Y14685
X12992Y14567
X14214Y14774
X14492Y14648
X14636Y15167
X14951Y15268
X15574Y14712
X11665Y14702
X11367Y14752
X11421Y14113
X11760Y13903
X12357Y13228
X12165Y12992
X11929Y12756
X11102Y12520
X10483Y12416
X10512Y12756
X10202Y12328
X10000Y12126
X10157Y11181
X10591Y11157
X11417Y11417
X11732
X11876Y11001
X12520Y11102
X12559Y11811
X12787Y11982
X13110Y11339
Y10394
X12165Y10079
X11850
X11929Y9512
X11850Y8543
X12244
X12522Y9020
X13236Y9129
X13100Y8372
X13114Y7995
X12047Y7913
X12126Y7194
X12441Y7205
X11553Y7120
X11772Y6339
X12087Y6260
X12717Y6378
X12963Y6233
X13257Y5985
X12894Y5512
X12500Y5512
X11850Y5197
X11535Y5200
X11220Y5197
X10591Y5333
X10324Y5522
X10433Y6063
X10646Y6299
X10796Y5894
X9803Y6063
X9882Y6339
X9016Y6378
X8937Y6024
Y5197
X9252Y5200
X9567Y5236
X9843Y4803
Y4488
X9852Y4203
X10079Y3661
X10669
X11043Y3898
X11043Y4528
X10610Y4390
X12067Y4252
X12062Y4542
X12894Y4390
X13327Y4528
X13327Y3898
X12953Y3661
X12362
X11791Y2913
X11284Y2815
X10999
X9395
X9109
X8836Y2899
X8760Y3898
X8386Y3661
X7835
X7500Y4252
X7495Y4542
X7304Y5212
X6969Y5200
X6654Y5197
X6476Y4528
X6043Y4390
X6142Y3661
X6476Y3898
X6714Y2931
X7219Y2776
X7505Y2815
X5972Y3171
X5615Y2815
X5330
X5315Y3465
X5265Y4166
X5246Y4843
X5259Y5138
X5246Y5497
X5236Y5984
X5276Y6417
X4896Y6545
X4611Y6565
X4449Y6063
X4587Y5630
X4055Y5630
X3596Y5893
X3434Y6134
X3032Y6254
X2813Y6025
X2414Y6308
X2736Y6654
X3228Y6740
X3295Y7223
X3261Y7559
X3307Y7943
Y8228
Y8780
X3268Y9528
X3465Y10118
X3219Y10320
X3410Y10777
X3361Y11351
X2906Y12009
X2943Y12520
X2244Y12835
X2316Y11941
X2160Y11457
X1772Y11378
X1378Y11374
X790Y11942
X394Y11929
X118Y11063
Y10748
X157Y10354
X118Y9528
Y9134
Y8740
Y8346
Y7953
Y7559
Y7165
Y6772
X45Y6295
X773Y6045
X1299Y5728
X1614Y5866
X1791Y5628
X2451Y5423
X2464Y5138
X2451Y4843
X2480Y4488
X1999Y4631
X1497Y4638
X1654Y4213
X1537Y3887
X1925Y3859
X1594Y3465
X1555Y2913
X1836Y2815
X2598Y2884
X3071
X3440Y2815
X3725
X4134Y2874
X4488Y2835
X4075Y3465
X4134Y3898
X4449Y4213
X4311Y4606
X4941
X4815Y3773
X3071Y3898
X2835Y3465
X3611Y4495
X3652Y4778
X3583Y5354
X3740Y6555
X4140Y6871
X4185Y8056
X4144Y8661
X4122Y9075
X4134Y9646
X4144Y10157
Y10866
X4185Y11890
X4085Y12160
X5000Y12205
X5020Y11890
X5172Y11102
Y10817
X5458Y10827
X5669Y10551
X5591Y10197
X5704Y9744
X6610Y9751
X6893Y9860
X6772Y10118
X6523Y10435
X6535Y9331
X6683Y8549
X6772Y8150
X6585Y7805
X6299Y6890
X5770Y6874
X5627Y7130
X5591Y6132
X5945Y5839
X6025Y5529
X6693Y6063
X7178Y6077
X7165Y6362
X7326Y7343
X7734Y7386
X7795Y7107
X8071Y7402
X8720Y7426
X8711Y7141
X9134Y7421
X9385Y7284
X9872Y7817
X8979Y8110
X8496Y8114
X8760Y8474
X9094Y8976
X9567Y9449
X8661Y9488
X8189Y10669
X7874Y10630
X7595Y10132
X7126Y9695
X7598Y8504
X5748Y8701
X5512Y8110
X5197Y8169
X4787Y8233
X5000Y10217
X5709Y11132
X5669Y11535
X5709Y12313
Y12598
X5659Y13012
X5788Y13389
X5464Y13720
X5539Y13996
X5215Y13861
X5216Y13084
X5012Y12883
X4627Y12845
X4252Y13110
X4016Y13740
X3965Y14021
X4265Y14034
X4555Y14195
X4823Y14311
X4756Y14695
X4085Y14539
X3333Y14232
X2964Y14387
X2945Y14092
X3095Y13688
X2766Y13701
X2272Y13900
X1409Y13698
X1000Y13607
X1063Y14173
X217Y14252
X197Y13858
X787Y15138
X827Y15591
X1909
X2549Y14794
X3289Y14891
X4309Y15433
X5315Y15315
X6201Y14876
X6654Y14291
X6525Y13792
X6597Y13515
X6465Y13041
X6457Y12756
X7293Y12874
X7638Y13386
X7576Y13680
X7716Y14675
X8002
X7431Y14685
X7765Y15544
X8090Y15499
X8378Y15541
X8697Y15538
X9011Y15532
X8622Y14646
X8858Y14166
X9252Y14370
X9592Y14769
X10541Y14687
X9724Y13425
X9331Y12756
X8858Y13228
X8622Y12323
X8169Y12047
X8189Y11535
X8544Y11447
X8819Y11181
X7283Y11614
X7441Y12126
X6506Y11703
X6969Y15431
X1270Y12755
X1102Y12520
X2074Y10802
X1684Y9396
X2490Y9370
Y8661
Y7953
X2490Y7244
X2055Y6860
X1740Y7091
X1370Y6416
X246Y5463
X856Y4843
X531Y4173
X118Y4016
X354Y3465
X157Y2874
X709Y2677
X472Y2195
X1108Y3010
X984Y3799
X709Y709
X752Y149
X984Y315
X1220Y118
X1457Y315
X1693Y118
X1929Y315
X2165Y118
X2402Y315
X2638Y118
X2874Y315
X3110Y118
X3346Y315
X3583Y118
X3819Y315
X4055Y118
X4291Y315
X4528Y118
X4764Y315
X5000Y118
X5236Y315
X5472Y118
X5709Y315
X5945Y118
X6181Y315
X6417Y118
X6654Y315
X6890Y118
X7126Y315
X7362Y118
X7598Y315
X7835Y118
X8071Y315
X8307Y118
X8543Y315
X8780Y118
X9016Y315
X9252Y118
X9488Y315
X9724Y118
X9961Y315
X10197Y118
X10433Y315
X10669Y118
X10906Y315
X11142Y118
X11378Y315
X11614Y118
X11850Y315
X12087Y118
X12323Y315
X12559Y118
X12795Y315
X13032Y118
X13268Y315
X13504Y118
X13740Y315
X13976Y118
X14409
X14646Y315
X14882Y118
X15118Y315
X15354Y118
X15591Y315
X15287Y1022
X14814
X13780Y2874
X13174Y2815
X12889
X13504Y5197
X13819Y5200
X14134Y5197
X14420Y5142
X15522Y8159
X11024Y8701
X10512Y8504
X10394Y9213
X10551Y10090
X10773Y9909
X10993Y10090
X11171Y9867
X10039Y9972
X8309Y6290
X8071Y5945
X7933Y5512
X8228Y5512
X8327Y4390
X8760Y4528
X13228Y12520
X13269Y12802
X669Y9921
X15707Y10081
X15669Y10846
X15856Y11062
X16535Y11181
X16535Y11496
Y11811
Y12126
Y12441
X16535Y12756
Y13071
X16535Y13386
Y13701
Y14016
Y14331
Y14646
X16457Y14961
X16134Y14646
X16262Y13816
X16297Y12598
Y11654
X15680Y11996
X16535Y10866
Y10551
X16535Y10236
Y9921
Y9606
X16535Y9291
Y8976
X16535Y8661
Y8346
Y8031
Y7717
Y7402
Y7087
Y6772
Y6457
Y6142
Y5827
X16535Y5512
X16535Y5197
Y4882
Y4567
Y4252
Y3937
X15707Y3812
X15709Y3110
X16024Y2953
X16169Y3199
X16142Y2638
X16260Y2323
X16339Y2047
Y1654
X16535Y1299
X16535Y984
X16191Y1014
X15729Y1015
X15827Y118
X16063Y315
X16299Y118
X16496Y433
X16024Y4488
X15684Y4543
X16252Y7437
X15925Y9026
X15630
X15906Y15669
X16220
X16535Y15669
X15591
X15276
X14961
X14646
X14331Y15669
X14016Y15669
X13701
X13386
X13071
X12756
X12441
X12126Y15669
X11811
X11496Y15669
X11181
X10866
X10551
X10236Y15669
X9921Y15669
X9606
X7441
X7126
X6811
X6496
X6181
X4045Y15643
X3110Y15669
X2795
X2480
X118
T02
X5984Y6220
X7677Y6102
X9409Y6142
X11299Y6102
X12441Y6102
X13622
X14134Y6575
T03
X433Y15354
T04
X3575Y14594
Y15394
X5575Y14994
M30
