G04*
G04 #@! TF.GenerationSoftware,Altium Limited,Altium Designer,20.2.7 (254)*
G04*
G04 Layer_Color=65535*
%FSLAX25Y25*%
%MOIN*%
G70*
G04*
G04 #@! TF.SameCoordinates,DA4A69CC-0FFB-40CA-8B1E-561776DE4CFB*
G04*
G04*
G04 #@! TF.FilePolarity,Positive*
G04*
G01*
G75*
%ADD10C,0.00984*%
%ADD11C,0.00591*%
%ADD12C,0.00787*%
%ADD13C,0.01575*%
%ADD14C,0.00669*%
%ADD15C,0.00800*%
D10*
X55118Y26083D02*
X54380Y26509D01*
Y25657D01*
X55118Y26083D01*
D11*
X25787Y40098D02*
X25000D01*
X25787D01*
X4811Y25886D02*
X16339D01*
X4811Y30512D02*
X16339D01*
X4811Y28756D02*
Y30512D01*
Y29150D02*
X5311D01*
Y25984D02*
Y27543D01*
X4811Y27150D02*
X5311D01*
X4811Y25886D02*
Y27543D01*
X5311Y28756D02*
Y30512D01*
X57776Y41732D02*
Y53260D01*
X62402Y41732D02*
Y53260D01*
X60646D02*
X62402D01*
X61039Y52760D02*
Y53260D01*
X57874Y52760D02*
X59433D01*
X59039D02*
Y53260D01*
X57776D02*
X59433D01*
X60646Y52760D02*
X62402D01*
X7185Y40453D02*
X18713D01*
X7185Y35827D02*
X18713D01*
Y37583D01*
X18213Y37189D02*
X18713D01*
X18213Y38795D02*
Y40354D01*
Y39189D02*
X18713D01*
Y38795D02*
Y40453D01*
X18213Y35827D02*
Y37583D01*
X49104Y40049D02*
Y51577D01*
X53730Y40049D02*
Y51577D01*
X51974D02*
X53730D01*
X52368Y51077D02*
Y51577D01*
X49203Y51077D02*
X50762D01*
X50368D02*
Y51577D01*
X49104D02*
X50762D01*
X51974Y51077D02*
X53730D01*
D12*
X42323Y49815D02*
X43175Y50307D01*
Y51292D01*
X42323Y51784D01*
Y53761D02*
X41471Y53269D01*
Y52285D01*
X42323Y51793D01*
X10414Y47825D02*
X16713D01*
X10433Y52362D02*
X16732D01*
X32283Y34055D02*
Y37008D01*
X41949Y35531D02*
Y38189D01*
Y25984D02*
Y28839D01*
Y25984D02*
X47756D01*
X41949Y38189D02*
X47756D01*
X2343Y47923D02*
X8642D01*
X2362Y52461D02*
X8661D01*
X37500Y41673D02*
Y48760D01*
X25295Y41673D02*
Y48760D01*
X25492D01*
X25295Y41673D02*
X25492D01*
X37303Y48760D02*
X37500D01*
X37303Y41673D02*
X37500D01*
X24114Y4721D02*
Y21944D01*
X394Y25394D02*
X867Y24921D01*
X21137D01*
X28441Y394D02*
X64075D01*
X21137Y24921D02*
X24114Y21944D01*
X394Y25394D02*
Y61516D01*
X64075D01*
Y394D02*
Y61516D01*
X24114Y4721D02*
X28441Y394D01*
X27739Y1083D02*
X36319D01*
X24311Y4548D02*
Y21752D01*
X63386Y1083D02*
Y25098D01*
X52756D02*
X63386D01*
X52756Y1083D02*
X63386D01*
X24311Y4548D02*
X27739Y1083D01*
X24311Y21752D02*
X27657Y25098D01*
X36319D01*
X42618Y11122D02*
Y15453D01*
X42815Y11122D02*
X44980Y13287D01*
X42618Y11122D02*
X42815D01*
X43012Y15453D02*
X44980Y13484D01*
X42618Y15453D02*
X43012D01*
X44980Y11122D02*
Y12697D01*
Y11122D02*
Y15453D01*
X49409Y60827D02*
X51221D01*
X56457Y54764D02*
Y60197D01*
X50295Y53248D02*
Y54921D01*
X53740Y60315D02*
X56417Y57638D01*
X59055Y60827D02*
X60827D01*
X59055Y54094D02*
X60827D01*
X49409D02*
X51221D01*
X53740Y54764D02*
X56417Y57441D01*
X53740Y54764D02*
Y60197D01*
X56417Y57441D02*
Y57638D01*
X50295Y60039D02*
Y61516D01*
X2264Y34606D02*
X5217D01*
X17126Y46850D02*
X18602D01*
X21004Y52972D02*
X21201D01*
X18445Y50295D02*
X23878D01*
X21201Y52972D02*
X23878Y50295D01*
X24547Y45965D02*
Y47776D01*
Y55610D02*
Y57382D01*
X17815Y55610D02*
Y57382D01*
X18327Y50295D02*
X21004Y52972D01*
X23720Y46850D02*
X25394D01*
X18445Y53012D02*
X23878D01*
X17815Y45965D02*
Y47776D01*
X39173Y49311D02*
Y54232D01*
X45472Y49311D02*
Y54232D01*
D13*
X63779Y1772D02*
Y24311D01*
D14*
X10039Y26772D02*
Y29528D01*
Y28150D02*
X12795Y26772D01*
X9252Y28150D02*
X10039D01*
X12795D02*
X13976D01*
X12795Y26772D02*
Y29528D01*
X10039Y28150D02*
X12795Y29528D01*
X58661Y48031D02*
X61417D01*
X58661Y45276D02*
X60039Y48031D01*
Y48819D01*
Y44094D02*
Y45276D01*
X58661D02*
X61417D01*
X60039Y48031D02*
X61417Y45276D01*
X13484Y36811D02*
Y39567D01*
X10728D02*
X13484Y38189D01*
X14272D01*
X9547D02*
X10728D01*
Y36811D02*
Y39567D01*
Y36811D02*
X13484Y38189D01*
X49990Y46349D02*
X52746D01*
X49990Y43593D02*
X51368Y46349D01*
Y47136D01*
Y42412D02*
Y43593D01*
X49990D02*
X52746D01*
X51368Y46349D02*
X52746Y43593D01*
D15*
X21945Y26886D02*
X23519Y26886D01*
X21949Y29823D02*
X23524Y29823D01*
X15752Y34629D02*
X17327Y34629D01*
X15748Y31693D02*
X17323Y31693D01*
X32279Y26690D02*
X33854Y26690D01*
X32283Y29626D02*
X33858Y29626D01*
M02*
