G04*
G04 #@! TF.GenerationSoftware,Altium Limited,Altium Designer,20.2.7 (254)*
G04*
G04 Layer_Physical_Order=1*
G04 Layer_Color=255*
%FSLAX25Y25*%
%MOIN*%
G70*
G04*
G04 #@! TF.SameCoordinates,DA4A69CC-0FFB-40CA-8B1E-561776DE4CFB*
G04*
G04*
G04 #@! TF.FilePolarity,Positive*
G04*
G01*
G75*
%ADD10C,0.00984*%
%ADD12C,0.00787*%
G04:AMPARAMS|DCode=16|XSize=70.87mil|YSize=45.28mil|CornerRadius=4.53mil|HoleSize=0mil|Usage=FLASHONLY|Rotation=0.000|XOffset=0mil|YOffset=0mil|HoleType=Round|Shape=RoundedRectangle|*
%AMROUNDEDRECTD16*
21,1,0.07087,0.03622,0,0,0.0*
21,1,0.06181,0.04528,0,0,0.0*
1,1,0.00906,0.03091,-0.01811*
1,1,0.00906,-0.03091,-0.01811*
1,1,0.00906,-0.03091,0.01811*
1,1,0.00906,0.03091,0.01811*
%
%ADD16ROUNDEDRECTD16*%
G04:AMPARAMS|DCode=17|XSize=33.47mil|YSize=33.47mil|CornerRadius=3.35mil|HoleSize=0mil|Usage=FLASHONLY|Rotation=180.000|XOffset=0mil|YOffset=0mil|HoleType=Round|Shape=RoundedRectangle|*
%AMROUNDEDRECTD17*
21,1,0.03347,0.02677,0,0,180.0*
21,1,0.02677,0.03347,0,0,180.0*
1,1,0.00669,-0.01339,0.01339*
1,1,0.00669,0.01339,0.01339*
1,1,0.00669,0.01339,-0.01339*
1,1,0.00669,-0.01339,-0.01339*
%
%ADD17ROUNDEDRECTD17*%
G04:AMPARAMS|DCode=18|XSize=35.43mil|YSize=37.4mil|CornerRadius=3.54mil|HoleSize=0mil|Usage=FLASHONLY|Rotation=90.000|XOffset=0mil|YOffset=0mil|HoleType=Round|Shape=RoundedRectangle|*
%AMROUNDEDRECTD18*
21,1,0.03543,0.03032,0,0,90.0*
21,1,0.02835,0.03740,0,0,90.0*
1,1,0.00709,0.01516,0.01417*
1,1,0.00709,0.01516,-0.01417*
1,1,0.00709,-0.01516,-0.01417*
1,1,0.00709,-0.01516,0.01417*
%
%ADD18ROUNDEDRECTD18*%
G04:AMPARAMS|DCode=19|XSize=35.43mil|YSize=37.4mil|CornerRadius=3.54mil|HoleSize=0mil|Usage=FLASHONLY|Rotation=90.000|XOffset=0mil|YOffset=0mil|HoleType=Round|Shape=RoundedRectangle|*
%AMROUNDEDRECTD19*
21,1,0.03543,0.03032,0,0,90.0*
21,1,0.02835,0.03740,0,0,90.0*
1,1,0.00709,0.01516,0.01417*
1,1,0.00709,0.01516,-0.01417*
1,1,0.00709,-0.01516,-0.01417*
1,1,0.00709,-0.01516,0.01417*
%
%ADD19ROUNDEDRECTD19*%
G04:AMPARAMS|DCode=20|XSize=21.65mil|YSize=57.09mil|CornerRadius=2.17mil|HoleSize=0mil|Usage=FLASHONLY|Rotation=0.000|XOffset=0mil|YOffset=0mil|HoleType=Round|Shape=RoundedRectangle|*
%AMROUNDEDRECTD20*
21,1,0.02165,0.05276,0,0,0.0*
21,1,0.01732,0.05709,0,0,0.0*
1,1,0.00433,0.00866,-0.02638*
1,1,0.00433,-0.00866,-0.02638*
1,1,0.00433,-0.00866,0.02638*
1,1,0.00433,0.00866,0.02638*
%
%ADD20ROUNDEDRECTD20*%
G04:AMPARAMS|DCode=21|XSize=21.65mil|YSize=57.09mil|CornerRadius=2.17mil|HoleSize=0mil|Usage=FLASHONLY|Rotation=0.000|XOffset=0mil|YOffset=0mil|HoleType=Round|Shape=RoundedRectangle|*
%AMROUNDEDRECTD21*
21,1,0.02165,0.05276,0,0,0.0*
21,1,0.01732,0.05709,0,0,0.0*
1,1,0.00433,0.00866,-0.02638*
1,1,0.00433,-0.00866,-0.02638*
1,1,0.00433,-0.00866,0.02638*
1,1,0.00433,0.00866,0.02638*
%
%ADD21ROUNDEDRECTD21*%
G04:AMPARAMS|DCode=22|XSize=94.49mil|YSize=129.92mil|CornerRadius=9.45mil|HoleSize=0mil|Usage=FLASHONLY|Rotation=180.000|XOffset=0mil|YOffset=0mil|HoleType=Round|Shape=RoundedRectangle|*
%AMROUNDEDRECTD22*
21,1,0.09449,0.11102,0,0,180.0*
21,1,0.07559,0.12992,0,0,180.0*
1,1,0.01890,-0.03780,0.05551*
1,1,0.01890,0.03780,0.05551*
1,1,0.01890,0.03780,-0.05551*
1,1,0.01890,-0.03780,-0.05551*
%
%ADD22ROUNDEDRECTD22*%
G04:AMPARAMS|DCode=23|XSize=23.62mil|YSize=23.62mil|CornerRadius=2.36mil|HoleSize=0mil|Usage=FLASHONLY|Rotation=270.000|XOffset=0mil|YOffset=0mil|HoleType=Round|Shape=RoundedRectangle|*
%AMROUNDEDRECTD23*
21,1,0.02362,0.01890,0,0,270.0*
21,1,0.01890,0.02362,0,0,270.0*
1,1,0.00472,-0.00945,-0.00945*
1,1,0.00472,-0.00945,0.00945*
1,1,0.00472,0.00945,0.00945*
1,1,0.00472,0.00945,-0.00945*
%
%ADD23ROUNDEDRECTD23*%
G04:AMPARAMS|DCode=24|XSize=35.83mil|YSize=33.47mil|CornerRadius=3.35mil|HoleSize=0mil|Usage=FLASHONLY|Rotation=0.000|XOffset=0mil|YOffset=0mil|HoleType=Round|Shape=RoundedRectangle|*
%AMROUNDEDRECTD24*
21,1,0.03583,0.02677,0,0,0.0*
21,1,0.02913,0.03347,0,0,0.0*
1,1,0.00669,0.01457,-0.01339*
1,1,0.00669,-0.01457,-0.01339*
1,1,0.00669,-0.01457,0.01339*
1,1,0.00669,0.01457,0.01339*
%
%ADD24ROUNDEDRECTD24*%
G04:AMPARAMS|DCode=25|XSize=23.62mil|YSize=23.62mil|CornerRadius=2.36mil|HoleSize=0mil|Usage=FLASHONLY|Rotation=180.000|XOffset=0mil|YOffset=0mil|HoleType=Round|Shape=RoundedRectangle|*
%AMROUNDEDRECTD25*
21,1,0.02362,0.01890,0,0,180.0*
21,1,0.01890,0.02362,0,0,180.0*
1,1,0.00472,-0.00945,0.00945*
1,1,0.00472,0.00945,0.00945*
1,1,0.00472,0.00945,-0.00945*
1,1,0.00472,-0.00945,-0.00945*
%
%ADD25ROUNDEDRECTD25*%
G04:AMPARAMS|DCode=26|XSize=27.56mil|YSize=36.22mil|CornerRadius=2.76mil|HoleSize=0mil|Usage=FLASHONLY|Rotation=0.000|XOffset=0mil|YOffset=0mil|HoleType=Round|Shape=RoundedRectangle|*
%AMROUNDEDRECTD26*
21,1,0.02756,0.03071,0,0,0.0*
21,1,0.02205,0.03622,0,0,0.0*
1,1,0.00551,0.01102,-0.01535*
1,1,0.00551,-0.01102,-0.01535*
1,1,0.00551,-0.01102,0.01535*
1,1,0.00551,0.01102,0.01535*
%
%ADD26ROUNDEDRECTD26*%
G04:AMPARAMS|DCode=27|XSize=33.47mil|YSize=33.47mil|CornerRadius=3.35mil|HoleSize=0mil|Usage=FLASHONLY|Rotation=90.000|XOffset=0mil|YOffset=0mil|HoleType=Round|Shape=RoundedRectangle|*
%AMROUNDEDRECTD27*
21,1,0.03347,0.02677,0,0,90.0*
21,1,0.02677,0.03347,0,0,90.0*
1,1,0.00669,0.01339,0.01339*
1,1,0.00669,0.01339,-0.01339*
1,1,0.00669,-0.01339,-0.01339*
1,1,0.00669,-0.01339,0.01339*
%
%ADD27ROUNDEDRECTD27*%
G04:AMPARAMS|DCode=28|XSize=35.83mil|YSize=33.47mil|CornerRadius=3.35mil|HoleSize=0mil|Usage=FLASHONLY|Rotation=90.000|XOffset=0mil|YOffset=0mil|HoleType=Round|Shape=RoundedRectangle|*
%AMROUNDEDRECTD28*
21,1,0.03583,0.02677,0,0,90.0*
21,1,0.02913,0.03347,0,0,90.0*
1,1,0.00669,0.01339,0.01457*
1,1,0.00669,0.01339,-0.01457*
1,1,0.00669,-0.01339,-0.01457*
1,1,0.00669,-0.01339,0.01457*
%
%ADD28ROUNDEDRECTD28*%
%ADD45O,0.03937X0.34429*%
%ADD46O,0.54331X0.00787*%
%ADD47O,0.00787X0.36221*%
%ADD48O,0.03937X0.01968*%
%ADD49O,0.00787X0.01968*%
%ADD50O,0.25591X0.00787*%
%ADD51O,0.01575X0.21260*%
%ADD52O,0.35433X0.01575*%
G04:AMPARAMS|DCode=53|XSize=15.75mil|YSize=62.99mil|CornerRadius=0mil|HoleSize=0mil|Usage=FLASHONLY|Rotation=45.000|XOffset=0mil|YOffset=0mil|HoleType=Round|Shape=Round|*
%AMOVALD53*
21,1,0.04724,0.01575,0.00000,0.00000,135.0*
1,1,0.01575,0.01670,-0.01670*
1,1,0.01575,-0.01670,0.01670*
%
%ADD53OVALD53*%

%ADD54C,0.01181*%
%ADD55C,0.03937*%
%ADD56C,0.01968*%
%ADD57C,0.02362*%
G36*
X58458Y59661D02*
X58466Y59589D01*
X58484Y59515D01*
X58513Y59439D01*
X58551Y59360D01*
X58599Y59278D01*
X58657Y59194D01*
X58725Y59108D01*
X58803Y59019D01*
X58891Y58927D01*
X57972Y58175D01*
X57881Y58264D01*
X57782Y58349D01*
X57776Y58301D01*
X57768Y58183D01*
X57766Y58056D01*
X56585Y58182D01*
X56583Y58309D01*
X56566Y58539D01*
X56552Y58641D01*
X56534Y58735D01*
X56512Y58821D01*
X56486Y58898D01*
X56455Y58966D01*
X56421Y59027D01*
X56383Y59078D01*
X57557Y58970D01*
X58459Y59729D01*
X58458Y59661D01*
D02*
G37*
G36*
X22829Y59332D02*
X22865Y59232D01*
X22924Y59143D01*
X23008Y59067D01*
X23115Y59002D01*
X23246Y58948D01*
X23402Y58907D01*
X23581Y58878D01*
X23783Y58860D01*
X24010Y58854D01*
Y57673D01*
X23783Y57667D01*
X23581Y57649D01*
X23402Y57620D01*
X23246Y57578D01*
X23115Y57525D01*
X23008Y57460D01*
X22924Y57384D01*
X22865Y57295D01*
X22829Y57195D01*
X22817Y57082D01*
Y59445D01*
X22829Y59332D01*
D02*
G37*
G36*
X19574Y60720D02*
X19385Y60683D01*
X19014Y60435D01*
X18766Y60064D01*
X18679Y59626D01*
Y56713D01*
X18683Y56694D01*
X18341Y56327D01*
X17938Y56465D01*
Y57618D01*
X17841Y58102D01*
X17567Y58512D01*
X17157Y58786D01*
X16673Y58883D01*
X10492D01*
X10008Y58786D01*
X9598Y58512D01*
X9562D01*
X9497Y58611D01*
X9086Y58885D01*
X8602Y58981D01*
X2421D01*
X1937Y58885D01*
X1527Y58611D01*
X1297Y58266D01*
X1038Y58270D01*
X797Y58349D01*
X790Y60801D01*
X1118Y61221D01*
X19524D01*
X19574Y60720D01*
D02*
G37*
G36*
X10086Y53841D02*
X10074Y53934D01*
X10042Y54017D01*
X9990Y54091D01*
X9918Y54154D01*
X9825Y54208D01*
X9712Y54252D01*
X9579Y54287D01*
X9536Y54294D01*
X9492Y54287D01*
X9352Y54253D01*
X9234Y54209D01*
X9136Y54156D01*
X9058Y54093D01*
X9002Y54020D01*
X8966Y53938D01*
X8952Y53845D01*
X9040Y55807D01*
X9046Y55714D01*
X9072Y55630D01*
X9120Y55556D01*
X9189Y55492D01*
X9278Y55438D01*
X9388Y55394D01*
X9519Y55359D01*
X9544Y55355D01*
X9570Y55359D01*
X9700Y55394D01*
X9810Y55438D01*
X9899Y55492D01*
X9968Y55556D01*
X10017Y55630D01*
X10046Y55714D01*
X10055Y55807D01*
X10086Y53841D01*
D02*
G37*
G36*
X23932Y53951D02*
X23876Y54023D01*
X23812Y54088D01*
X23742Y54145D01*
X23664Y54194D01*
X23579Y54236D01*
X23488Y54270D01*
X23389Y54297D01*
X23283Y54316D01*
X23169Y54327D01*
X23049Y54331D01*
X23234Y55315D01*
X23352Y55318D01*
X23576Y55339D01*
X23681Y55358D01*
X23780Y55382D01*
X23875Y55411D01*
X23966Y55446D01*
X24051Y55486D01*
X24132Y55531D01*
X24208Y55582D01*
X23932Y53951D01*
D02*
G37*
G36*
X17119Y55714D02*
X17148Y55630D01*
X17197Y55556D01*
X17266Y55492D01*
X17356Y55438D01*
X17466Y55394D01*
X17595Y55359D01*
X17746Y55335D01*
X17916Y55320D01*
X18107Y55315D01*
Y54331D01*
X17913Y54326D01*
X17740Y54311D01*
X17586Y54287D01*
X17453Y54252D01*
X17340Y54208D01*
X17248Y54154D01*
X17175Y54091D01*
X17123Y54017D01*
X17091Y53934D01*
X17079Y53841D01*
X17111Y55807D01*
X17119Y55714D01*
D02*
G37*
G36*
X55295Y61194D02*
X55522Y60749D01*
X55429Y60611D01*
X55276Y59842D01*
X55429Y59074D01*
X55718Y58642D01*
X55722Y58633D01*
X55724Y58629D01*
X55727Y58624D01*
X55738Y58601D01*
X55740Y58598D01*
X55742Y58590D01*
X55751Y58558D01*
X55760Y58510D01*
X55768Y58456D01*
X55770Y58417D01*
Y57363D01*
X52075Y53669D01*
X38664D01*
X37402Y54931D01*
X36946Y55235D01*
X36409Y55342D01*
X29792D01*
X25877Y59257D01*
X25421Y59562D01*
X24883Y59668D01*
X23754D01*
X23681Y59675D01*
X23633Y59683D01*
X23557Y60064D01*
X23309Y60435D01*
X22938Y60683D01*
X22749Y60720D01*
X22798Y61221D01*
X54626D01*
X55295Y61194D01*
D02*
G37*
G36*
X26030Y54248D02*
X26024Y54160D01*
X26029Y54071D01*
X26046Y53983D01*
X26073Y53895D01*
X26111Y53807D01*
X26161Y53719D01*
X26221Y53631D01*
X26293Y53543D01*
X26375Y53455D01*
X25491Y52947D01*
X25405Y53030D01*
X25233Y53175D01*
X25148Y53238D01*
X24976Y53343D01*
X24891Y53386D01*
X24805Y53423D01*
X24720Y53452D01*
X24635Y53475D01*
X26047Y54336D01*
X26030Y54248D01*
D02*
G37*
G36*
X27017Y52819D02*
X27365Y52526D01*
X27522Y52417D01*
X27667Y52334D01*
X27801Y52276D01*
X27922Y52243D01*
X28032Y52235D01*
X28131Y52253D01*
X28218Y52296D01*
X26582Y51172D01*
X26648Y51236D01*
X26683Y51317D01*
X26689Y51414D01*
X26663Y51528D01*
X26608Y51659D01*
X26522Y51807D01*
X26405Y51971D01*
X26259Y52152D01*
X25874Y52564D01*
X26826Y53004D01*
X27017Y52819D01*
D02*
G37*
G36*
X58879Y49808D02*
X58869Y49900D01*
X58839Y49983D01*
X58788Y50056D01*
X58717Y50120D01*
X58626Y50173D01*
X58515Y50217D01*
X58384Y50251D01*
X58232Y50276D01*
X58060Y50290D01*
X57868Y50295D01*
Y51279D01*
X58060Y51284D01*
X58232Y51299D01*
X58384Y51323D01*
X58515Y51358D01*
X58626Y51401D01*
X58717Y51455D01*
X58788Y51518D01*
X58839Y51591D01*
X58869Y51674D01*
X58879Y51767D01*
Y49808D01*
D02*
G37*
G36*
X50252Y47988D02*
X50238Y47996D01*
X50206Y48004D01*
X50154Y48010D01*
X49992Y48021D01*
X49249Y48031D01*
X49196Y49016D01*
X49389Y49021D01*
X49561Y49035D01*
X49712Y49060D01*
X49843Y49095D01*
X49953Y49139D01*
X50042Y49193D01*
X50111Y49257D01*
X50159Y49331D01*
X50186Y49414D01*
X50192Y49508D01*
X50252Y47988D01*
D02*
G37*
G36*
X1527Y53200D02*
X1937Y52926D01*
X2421Y52830D01*
X8602D01*
X9086Y52926D01*
X9497Y53200D01*
X9532D01*
X9598Y53102D01*
X10008Y52828D01*
X10492Y52732D01*
X16673D01*
X16716Y52740D01*
X17103Y52423D01*
Y47991D01*
X16716Y47673D01*
X16673Y47682D01*
X14083D01*
Y44390D01*
Y41098D01*
X15513D01*
X15704Y40636D01*
X15612Y40543D01*
X15450Y40394D01*
X15244Y40227D01*
X15181Y40184D01*
X15138Y40158D01*
X15132Y40155D01*
X15107Y40147D01*
X15096Y40141D01*
X15001Y40124D01*
X14991Y40117D01*
X14896Y40098D01*
X14557Y39872D01*
X14331Y39533D01*
X14252Y39134D01*
Y37244D01*
X14331Y36845D01*
X14557Y36506D01*
X14896Y36280D01*
X15295Y36200D01*
X17185D01*
X17584Y36280D01*
X17923Y36506D01*
X18149Y36845D01*
X18229Y37244D01*
Y39134D01*
X18149Y39533D01*
X18093Y39618D01*
X19159Y40684D01*
X19420Y41075D01*
X19457Y41263D01*
X19957Y41214D01*
Y37205D01*
X19957Y37205D01*
X20049Y36744D01*
X20310Y36353D01*
X20374Y36288D01*
X20167Y35789D01*
X18583D01*
X18168Y35706D01*
X17816Y35471D01*
X17581Y35120D01*
X17499Y34705D01*
Y32846D01*
X17037Y32655D01*
X16360Y33332D01*
X15969Y33593D01*
X15572Y33672D01*
Y34705D01*
X15489Y35120D01*
X15255Y35471D01*
X14903Y35706D01*
X14488Y35789D01*
X12284D01*
X11869Y35706D01*
X11517Y35471D01*
X11282Y35120D01*
X11200Y34705D01*
Y33055D01*
X10984D01*
X10523Y32963D01*
X10133Y32702D01*
X10133Y32702D01*
X7756Y30326D01*
X7632Y30209D01*
X7543Y30138D01*
X6599D01*
X6334Y30149D01*
X6124Y30605D01*
Y32250D01*
X6269Y32420D01*
X8430Y34582D01*
X8430Y34582D01*
X8691Y34972D01*
X8783Y35433D01*
X8783Y35433D01*
Y36252D01*
X8923Y36280D01*
X9262Y36506D01*
X9488Y36845D01*
X9567Y37244D01*
Y39134D01*
X9488Y39533D01*
X9262Y39872D01*
X8923Y40098D01*
X8524Y40178D01*
X6634D01*
X6235Y40098D01*
X5995Y39938D01*
X5943Y40017D01*
X5501Y40312D01*
X4980Y40416D01*
X4142D01*
Y37716D01*
X3142D01*
Y39336D01*
X2071Y39288D01*
X2145Y39345D01*
X2211Y39414D01*
X2269Y39494D01*
X2320Y39586D01*
X2363Y39688D01*
X2398Y39802D01*
X2426Y39927D01*
X2445Y40063D01*
X2457Y40210D01*
X2461Y40368D01*
X3142D01*
Y40416D01*
X2303D01*
X1782Y40312D01*
X1341Y40017D01*
X846Y40176D01*
X842Y41526D01*
X1342Y41678D01*
X1374Y41630D01*
X1854Y41309D01*
X2421Y41196D01*
X5012D01*
Y42138D01*
X4978Y42127D01*
X4839Y42063D01*
X4700Y41985D01*
X4560Y41893D01*
X4419Y41787D01*
X4279Y41666D01*
X4137Y41532D01*
X2745D01*
X2873Y41666D01*
X2972Y41787D01*
X3043Y41893D01*
X3085Y41985D01*
X3099Y42063D01*
X3085Y42127D01*
X3043Y42176D01*
X2972Y42211D01*
X2873Y42233D01*
X2745Y42240D01*
X5012D01*
Y44488D01*
Y47780D01*
X2421D01*
X1854Y47668D01*
X1374Y47347D01*
X1326Y47276D01*
X826Y47427D01*
X810Y53443D01*
X917Y53483D01*
X1310Y53526D01*
X1527Y53200D01*
D02*
G37*
G36*
X55280Y43149D02*
Y40349D01*
X55418Y39658D01*
X55809Y39072D01*
X58206Y36675D01*
X58387Y36470D01*
X58618Y36179D01*
X58789Y35928D01*
X58817Y35879D01*
X58794Y35708D01*
Y20408D01*
X53701D01*
X53025Y20274D01*
X52452Y19891D01*
X52069Y19318D01*
X51935Y18642D01*
Y7539D01*
X52069Y6864D01*
X52452Y6290D01*
X53025Y5908D01*
X53701Y5773D01*
X58661D01*
Y1638D01*
X28667D01*
X25266Y4907D01*
X25297Y5399D01*
X25751Y5673D01*
X26339Y5556D01*
X29618D01*
Y13091D01*
Y20625D01*
X26339D01*
X25751Y20508D01*
X25251Y20809D01*
Y24119D01*
X24803D01*
X24799Y24276D01*
X24787Y24415D01*
X24768Y24538D01*
X24740Y24644D01*
X24705Y24732D01*
X24661Y24803D01*
X24610Y24858D01*
X24551Y24895D01*
X24484Y24915D01*
X24409Y24918D01*
X25251Y24977D01*
Y25393D01*
X25386Y25428D01*
Y26368D01*
X25350Y26426D01*
X25299Y26482D01*
X25240Y26522D01*
X25173Y26546D01*
X25098Y26554D01*
X25386D01*
Y27847D01*
X23483D01*
Y26811D01*
X23582Y26313D01*
X23864Y25891D01*
X23870Y25887D01*
X23719Y25387D01*
X21296Y25377D01*
X21204Y25877D01*
X21455Y26045D01*
X21690Y26396D01*
X21773Y26811D01*
Y29882D01*
X21690Y30297D01*
X21455Y30648D01*
X21700Y31086D01*
X21789Y31219D01*
X21871Y31634D01*
Y32821D01*
X23236D01*
X23273Y32814D01*
X23309Y32803D01*
X23345Y32789D01*
X23382Y32770D01*
X23421Y32747D01*
X23462Y32718D01*
X23495Y32691D01*
X23551Y32606D01*
X24202Y32171D01*
X24971Y32019D01*
X25739Y32171D01*
X26390Y32606D01*
X26529Y32815D01*
X27197Y32915D01*
X27314Y32837D01*
X27835Y32734D01*
X28673D01*
Y32978D01*
X28386D01*
X28382Y33130D01*
X28370Y33266D01*
X28350Y33386D01*
X28323Y33490D01*
X28287Y33578D01*
X28244Y33650D01*
X28193Y33706D01*
X28134Y33746D01*
X28067Y33770D01*
X27992Y33777D01*
X28673D01*
Y35433D01*
X29673D01*
Y32734D01*
X30109D01*
X30427Y32347D01*
X30375Y32087D01*
X30390Y32011D01*
X30390Y32010D01*
X30382Y31987D01*
X30370Y31959D01*
X30353Y31926D01*
X30329Y31888D01*
X30303Y31853D01*
X29688Y31237D01*
X29405Y30814D01*
X29396Y30769D01*
X28819D01*
X28404Y30686D01*
X28114Y30493D01*
X27908Y30801D01*
X27486Y31084D01*
X26988Y31183D01*
X26386D01*
Y30332D01*
X26413Y30401D01*
X26441Y30508D01*
X26461Y30633D01*
X26472Y30777D01*
X26476Y30938D01*
X27264D01*
X27237Y29985D01*
X26386Y30098D01*
Y28346D01*
Y26554D01*
X26673D01*
X26598Y26546D01*
X26531Y26522D01*
X26472Y26482D01*
X26421Y26426D01*
X26386Y26368D01*
Y25510D01*
X26988D01*
X27486Y25609D01*
X27572Y25667D01*
X28052Y25848D01*
X28404Y25613D01*
X28819Y25530D01*
X31024D01*
X31438Y25613D01*
X31790Y25848D01*
X32025Y26199D01*
X32107Y26614D01*
Y29672D01*
X32148Y29744D01*
X32382Y30079D01*
X33150Y30232D01*
X33801Y30667D01*
X34236Y31319D01*
X34389Y32087D01*
X34317Y32451D01*
X34727Y32950D01*
X36732D01*
X37083Y32662D01*
Y31345D01*
X36689Y30951D01*
X36573Y30843D01*
X36481Y30770D01*
X36479Y30769D01*
X35118D01*
X34703Y30686D01*
X34352Y30451D01*
X34117Y30100D01*
X34034Y29685D01*
Y26614D01*
X34117Y26199D01*
X34352Y25848D01*
X34703Y25613D01*
X35118Y25530D01*
X37323D01*
X37738Y25613D01*
X38089Y25848D01*
X38324Y26199D01*
X38407Y26614D01*
Y29240D01*
X38540Y29396D01*
X38887Y29743D01*
X39454Y29791D01*
X39559Y29723D01*
X39905Y29492D01*
X40433Y29387D01*
X41449D01*
Y32185D01*
X41949D01*
Y32685D01*
X44845D01*
Y33602D01*
X44740Y34131D01*
X44680Y34221D01*
X44947Y34721D01*
X48521D01*
Y34508D01*
X48610Y34062D01*
X48862Y33685D01*
X49240Y33432D01*
X49685Y33344D01*
X52717D01*
X53162Y33432D01*
X53540Y33685D01*
X53792Y34062D01*
X53881Y34508D01*
Y37343D01*
X53792Y37788D01*
X53540Y38166D01*
X53300Y38326D01*
X53162Y38566D01*
X53163Y38928D01*
X53277Y39099D01*
X53357Y39498D01*
Y41388D01*
X53277Y41787D01*
X53051Y42126D01*
X52712Y42352D01*
X52313Y42432D01*
X50423D01*
X50024Y42352D01*
X49685Y42126D01*
X49459Y41787D01*
X49380Y41388D01*
Y39498D01*
X49459Y39099D01*
X49534Y38986D01*
X49337Y38437D01*
X49240Y38418D01*
X48862Y38166D01*
X48610Y37788D01*
X48521Y37343D01*
Y37129D01*
X40256D01*
X39795Y37038D01*
X39404Y36777D01*
X39404Y36777D01*
X38338Y35711D01*
X37876Y35902D01*
Y36772D01*
X37789Y37209D01*
X37541Y37581D01*
X37170Y37829D01*
X37028Y38346D01*
Y42448D01*
X37028Y42452D01*
X37028Y42455D01*
Y42747D01*
X37058Y42790D01*
X37281Y43054D01*
X37676Y43449D01*
X38320Y43386D01*
X38338Y43358D01*
X38748Y43084D01*
X39232Y42987D01*
X45413D01*
X45897Y43084D01*
X46308Y43358D01*
X46582Y43768D01*
X46667Y44199D01*
X46687Y44211D01*
X46801Y44257D01*
X46975Y44303D01*
X47207Y44341D01*
X47374Y44355D01*
X49542D01*
X49592Y44345D01*
X53145D01*
X53194Y44355D01*
X54075D01*
X55280Y43149D01*
D02*
G37*
G36*
X45787Y47938D02*
X45851Y47771D01*
X45957Y47625D01*
X46103Y47498D01*
X46289Y47390D01*
X46516Y47302D01*
X46784Y47234D01*
X47093Y47185D01*
X47442Y47155D01*
X47831Y47146D01*
Y45177D01*
X47449Y45167D01*
X47108Y45138D01*
X46807Y45089D01*
X46547Y45020D01*
X46328Y44932D01*
X46149Y44824D01*
X46011Y44696D01*
X45913Y44549D01*
X45856Y44382D01*
X45839Y44195D01*
X45763Y48123D01*
X45787Y47938D01*
D02*
G37*
G36*
X28566Y44283D02*
X28479Y44179D01*
X28414Y44087D01*
X28374Y44007D01*
X28357Y43939D01*
X28364Y43884D01*
X28395Y43841D01*
X28449Y43811D01*
X28526Y43793D01*
X28628Y43787D01*
X26635Y43779D01*
X26739Y43824D01*
X26939Y43926D01*
X27035Y43982D01*
X27221Y44107D01*
X27310Y44175D01*
X27482Y44321D01*
X27564Y44400D01*
X28677D01*
X28566Y44283D01*
D02*
G37*
G36*
X21874Y43396D02*
X21807Y43371D01*
X21748Y43332D01*
X21697Y43276D01*
X21654Y43204D01*
X21618Y43116D01*
X21591Y43012D01*
X21571Y42892D01*
X21559Y42756D01*
X21555Y42604D01*
X20768D01*
X20764Y42756D01*
X20752Y42892D01*
X20732Y43012D01*
X20705Y43116D01*
X20669Y43204D01*
X20626Y43276D01*
X20575Y43332D01*
X20516Y43371D01*
X20449Y43396D01*
X20374Y43404D01*
X21949D01*
X21874Y43396D01*
D02*
G37*
G36*
X34334Y44485D02*
X34852Y44049D01*
X34997Y43952D01*
X35130Y43879D01*
X35249Y43831D01*
X35299Y43820D01*
X35355Y43843D01*
X35502Y43927D01*
X35662Y44038D01*
X35836Y44177D01*
X36225Y44539D01*
X36921Y43843D01*
X36726Y43642D01*
X36420Y43280D01*
X36309Y43120D01*
X36225Y42974D01*
X36170Y42841D01*
X36142Y42723D01*
Y42619D01*
X36170Y42528D01*
X36225Y42452D01*
X35074Y43603D01*
X34062Y43092D01*
X34122Y43136D01*
X34156Y43195D01*
X34164Y43269D01*
X34146Y43357D01*
X34103Y43460D01*
X34034Y43578D01*
X33939Y43711D01*
X33819Y43859D01*
X33501Y44198D01*
X34134Y44679D01*
X34334Y44485D01*
D02*
G37*
G36*
X17262Y39933D02*
X17157Y39823D01*
X17075Y39724D01*
X17015Y39636D01*
X16979Y39560D01*
X16965Y39495D01*
X16973Y39442D01*
X17005Y39400D01*
X17059Y39370D01*
X17135Y39351D01*
X17235Y39343D01*
X15295Y39377D01*
X15360Y39385D01*
X15435Y39410D01*
X15521Y39452D01*
X15618Y39510D01*
X15726Y39585D01*
X15974Y39786D01*
X16265Y40053D01*
X16427Y40212D01*
X17262Y39933D01*
D02*
G37*
G36*
X31275Y38137D02*
X31268Y38133D01*
X31262Y38120D01*
X31257Y38098D01*
X31252Y38067D01*
X31245Y37979D01*
X31240Y37780D01*
X31239Y37696D01*
X30452D01*
X30452Y37788D01*
X30427Y38179D01*
X30421Y38184D01*
X31275Y38137D01*
D02*
G37*
G36*
X52081Y39259D02*
X52014Y39235D01*
X51955Y39195D01*
X51903Y39140D01*
X51860Y39068D01*
X51825Y38980D01*
X51797Y38876D01*
X51778Y38756D01*
X51766Y38620D01*
X51762Y38473D01*
X51766Y38327D01*
X51778Y38191D01*
X51797Y38071D01*
X51825Y37967D01*
X51860Y37879D01*
X51903Y37808D01*
X51955Y37751D01*
X52014Y37712D01*
X52081Y37688D01*
X52156Y37680D01*
X50581D01*
X50656Y37688D01*
X50722Y37712D01*
X50782Y37751D01*
X50833Y37808D01*
X50876Y37879D01*
X50911Y37967D01*
X50939Y38071D01*
X50959Y38191D01*
X50971Y38327D01*
X50974Y38473D01*
X50971Y38620D01*
X50959Y38756D01*
X50939Y38876D01*
X50911Y38980D01*
X50876Y39068D01*
X50833Y39140D01*
X50782Y39195D01*
X50722Y39235D01*
X50656Y39259D01*
X50581Y39267D01*
X52156D01*
X52081Y39259D01*
D02*
G37*
G36*
X35850Y38129D02*
X35783Y38105D01*
X35724Y38065D01*
X35673Y38009D01*
X35630Y37937D01*
X35594Y37849D01*
X35567Y37745D01*
X35547Y37625D01*
X35546Y37613D01*
X35547Y37600D01*
X35567Y37480D01*
X35594Y37376D01*
X35630Y37288D01*
X35673Y37216D01*
X35724Y37161D01*
X35783Y37121D01*
X35850Y37097D01*
X35925Y37089D01*
X34350D01*
X34425Y37097D01*
X34492Y37121D01*
X34551Y37161D01*
X34602Y37216D01*
X34646Y37288D01*
X34681Y37376D01*
X34709Y37480D01*
X34728Y37600D01*
X34729Y37613D01*
X34728Y37625D01*
X34709Y37745D01*
X34681Y37849D01*
X34646Y37937D01*
X34602Y38009D01*
X34551Y38065D01*
X34492Y38105D01*
X34425Y38129D01*
X34350Y38137D01*
X35925D01*
X35850Y38129D01*
D02*
G37*
G36*
X1986Y36417D02*
X1978Y36492D01*
X1954Y36559D01*
X1914Y36618D01*
X1858Y36669D01*
X1786Y36713D01*
X1698Y36748D01*
X1595Y36776D01*
X1475Y36795D01*
X1339Y36807D01*
X1187Y36811D01*
Y37598D01*
X1339Y37602D01*
X1475Y37614D01*
X1595Y37634D01*
X1698Y37661D01*
X1786Y37697D01*
X1858Y37740D01*
X1914Y37791D01*
X1954Y37850D01*
X1978Y37917D01*
X1986Y37992D01*
Y36417D01*
D02*
G37*
G36*
X8291Y37005D02*
X8224Y36981D01*
X8165Y36941D01*
X8114Y36885D01*
X8071Y36814D01*
X8035Y36726D01*
X8008Y36622D01*
X7988Y36502D01*
X7976Y36366D01*
X7972Y36214D01*
X7185D01*
X7181Y36366D01*
X7169Y36502D01*
X7150Y36622D01*
X7122Y36726D01*
X7087Y36814D01*
X7043Y36885D01*
X6992Y36941D01*
X6933Y36981D01*
X6866Y37005D01*
X6791Y37013D01*
X8366D01*
X8291Y37005D01*
D02*
G37*
G36*
X27709Y37076D02*
X27518Y35897D01*
X27521Y35972D01*
X27506Y36039D01*
X27473Y36098D01*
X27420Y36149D01*
X27350Y36193D01*
X27261Y36228D01*
X27153Y36256D01*
X27027Y36275D01*
X26882Y36287D01*
X26718Y36291D01*
X26936Y37079D01*
X27709Y37076D01*
D02*
G37*
G36*
X23214Y53512D02*
X23243Y53504D01*
X23261Y53498D01*
X23270Y53493D01*
X23272Y53492D01*
X23300Y53457D01*
X23336Y53425D01*
X23482Y53207D01*
X24134Y52772D01*
X24380Y52723D01*
X24425Y52701D01*
X24483Y52685D01*
X24516Y52673D01*
X24554Y52657D01*
X24585Y52642D01*
X24699Y52571D01*
X24736Y52544D01*
X24793Y52496D01*
X25488Y51801D01*
X25653Y51625D01*
X25765Y51486D01*
X25768Y51482D01*
Y46811D01*
X25846Y46419D01*
X26068Y46087D01*
X26400Y45865D01*
X26791Y45787D01*
X27152D01*
X27343Y45325D01*
X26881Y44864D01*
X26806Y44800D01*
X26755Y44761D01*
X26609Y44663D01*
X26554Y44631D01*
X26450Y44578D01*
X26400Y44568D01*
X26331Y44522D01*
X26313Y44514D01*
X26190Y44428D01*
X26080Y44354D01*
X26068Y44346D01*
X26068Y44346D01*
X26065Y44344D01*
X26061Y44339D01*
X26056Y44335D01*
X25975Y44209D01*
X25902Y44098D01*
X25846Y44014D01*
X25768Y43622D01*
Y43266D01*
X25764Y43248D01*
X25764Y43248D01*
Y41476D01*
X25768Y41459D01*
Y38346D01*
X25846Y37955D01*
X26068Y37623D01*
X26400Y37401D01*
X26413Y37398D01*
X26577Y37292D01*
X26474Y36772D01*
Y35990D01*
X25974Y35723D01*
X25739Y35880D01*
X24971Y36033D01*
X24202Y35880D01*
X24195Y35875D01*
X22366Y37703D01*
Y42576D01*
X22500D01*
X22938Y42663D01*
X23309Y42911D01*
X23557Y43283D01*
X23644Y43720D01*
Y46634D01*
X23557Y47072D01*
X23309Y47443D01*
X22938Y47691D01*
X22500Y47778D01*
X19823D01*
X19511Y48034D01*
Y53518D01*
X23180D01*
X23214Y53512D01*
D02*
G37*
G36*
X49348Y35138D02*
X49340Y35213D01*
X49316Y35280D01*
X49276Y35339D01*
X49220Y35390D01*
X49148Y35433D01*
X49060Y35469D01*
X48956Y35496D01*
X48836Y35516D01*
X48700Y35528D01*
X48549Y35531D01*
Y36319D01*
X48700Y36323D01*
X48836Y36335D01*
X48956Y36354D01*
X49060Y36382D01*
X49148Y36417D01*
X49220Y36461D01*
X49276Y36512D01*
X49316Y36571D01*
X49340Y36638D01*
X49348Y36713D01*
Y35138D01*
D02*
G37*
G36*
X60057Y38780D02*
X60546Y38360D01*
X60782Y38185D01*
X61013Y38033D01*
X61238Y37903D01*
X61458Y37797D01*
X61673Y37713D01*
X61881Y37652D01*
X62085Y37614D01*
X59613Y35052D01*
X59722Y35205D01*
X59778Y35383D01*
X59781Y35587D01*
X59731Y35816D01*
X59629Y36070D01*
X59473Y36350D01*
X59265Y36655D01*
X59004Y36985D01*
X58689Y37341D01*
X58322Y37722D01*
X59804Y39024D01*
X60057Y38780D01*
D02*
G37*
G36*
X21031Y34733D02*
X21057Y34667D01*
X21098Y34609D01*
X21156Y34559D01*
X21230Y34516D01*
X21320Y34481D01*
X21427Y34454D01*
X21550Y34435D01*
X21689Y34423D01*
X21844Y34419D01*
Y33632D01*
X21691Y33628D01*
X21554Y33616D01*
X21433Y33597D01*
X21329Y33569D01*
X21241Y33533D01*
X21169Y33490D01*
X21114Y33439D01*
X21074Y33380D01*
X21051Y33313D01*
X21044Y33238D01*
X21022Y34806D01*
X21031Y34733D01*
D02*
G37*
G36*
X24127Y33199D02*
X24041Y33281D01*
X23952Y33355D01*
X23861Y33420D01*
X23767Y33476D01*
X23670Y33524D01*
X23571Y33563D01*
X23469Y33593D01*
X23365Y33615D01*
X23258Y33628D01*
X23148Y33632D01*
Y34419D01*
X23258Y34424D01*
X23365Y34437D01*
X23469Y34458D01*
X23571Y34489D01*
X23670Y34528D01*
X23767Y34575D01*
X23861Y34631D01*
X23952Y34696D01*
X24041Y34770D01*
X24127Y34852D01*
Y33199D01*
D02*
G37*
G36*
X5866Y33164D02*
X5709Y33001D01*
X5462Y32710D01*
X5371Y32582D01*
X5303Y32465D01*
X5258Y32359D01*
X5234Y32265D01*
X5233Y32182D01*
X5254Y32110D01*
X5297Y32050D01*
X4196Y33152D01*
X4256Y33108D01*
X4327Y33087D01*
X4410Y33088D01*
X4505Y33112D01*
X4610Y33158D01*
X4727Y33226D01*
X4856Y33316D01*
X4996Y33428D01*
X5309Y33720D01*
X5866Y33164D01*
D02*
G37*
G36*
X14753Y33164D02*
X14775Y33103D01*
X14814Y33049D01*
X14867Y33003D01*
X14936Y32963D01*
X15020Y32931D01*
X15119Y32906D01*
X15234Y32888D01*
X15363Y32878D01*
X15508Y32874D01*
Y32087D01*
X15363Y32083D01*
X15234Y32072D01*
X15119Y32054D01*
X15020Y32029D01*
X14936Y31997D01*
X14867Y31958D01*
X14814Y31911D01*
X14775Y31858D01*
X14753Y31797D01*
X14745Y31729D01*
Y33232D01*
X14753Y33164D01*
D02*
G37*
G36*
X12181Y31386D02*
X12153Y31399D01*
X12111Y31411D01*
X12056Y31422D01*
X11988Y31431D01*
X11812Y31445D01*
X11297Y31457D01*
X11227Y32244D01*
X11388Y32248D01*
X11531Y32260D01*
X11655Y32280D01*
X11762Y32307D01*
X11851Y32342D01*
X11922Y32386D01*
X11975Y32437D01*
X12010Y32496D01*
X12027Y32563D01*
X12027Y32638D01*
X12181Y31386D01*
D02*
G37*
G36*
X32370Y30906D02*
X32277Y30902D01*
X32184Y30890D01*
X32092Y30869D01*
X32001Y30839D01*
X31911Y30801D01*
X31821Y30754D01*
X31732Y30698D01*
X31644Y30634D01*
X31556Y30560D01*
X31470Y30478D01*
X30774Y31174D01*
X30856Y31261D01*
X30929Y31348D01*
X30994Y31437D01*
X31049Y31526D01*
X31096Y31615D01*
X31135Y31706D01*
X31164Y31797D01*
X31185Y31889D01*
X31197Y31982D01*
X31201Y32075D01*
X32370Y30906D01*
D02*
G37*
G36*
X38148Y30151D02*
X37982Y29979D01*
X37723Y29677D01*
X37630Y29545D01*
X37561Y29427D01*
X37516Y29323D01*
X37496Y29231D01*
X37500Y29153D01*
X37527Y29089D01*
X37580Y29037D01*
X36281Y29942D01*
X36350Y29907D01*
X36428Y29893D01*
X36516Y29899D01*
X36614Y29925D01*
X36720Y29972D01*
X36836Y30039D01*
X36962Y30127D01*
X37097Y30234D01*
X37395Y30511D01*
X38148Y30151D01*
D02*
G37*
G36*
X9028Y29337D02*
X8871Y29175D01*
X8623Y28884D01*
X8533Y28755D01*
X8465Y28638D01*
X8419Y28532D01*
X8396Y28438D01*
X8395Y28355D01*
X8416Y28284D01*
X8459Y28224D01*
X7357Y29325D01*
X7418Y29282D01*
X7489Y29261D01*
X7572Y29262D01*
X7666Y29285D01*
X7772Y29331D01*
X7889Y29399D01*
X8017Y29489D01*
X8157Y29602D01*
X8471Y29894D01*
X9028Y29337D01*
D02*
G37*
G36*
X62875Y32320D02*
X62706Y32046D01*
X62556Y31722D01*
X62426Y31349D01*
X62316Y30926D01*
X62226Y30454D01*
X62156Y29932D01*
X62076Y28741D01*
X62066Y28071D01*
X61279D01*
X61269Y28741D01*
X61119Y30454D01*
X61029Y30926D01*
X60919Y31349D01*
X60789Y31722D01*
X60639Y32046D01*
X60470Y32320D01*
X60280Y32545D01*
X63065D01*
X62875Y32320D01*
D02*
G37*
G36*
X4626Y29840D02*
X4514Y29829D01*
X4413Y29793D01*
X4325Y29734D01*
X4248Y29651D01*
X4183Y29543D01*
X4130Y29412D01*
X4089Y29257D01*
X4059Y29078D01*
X4056Y29042D01*
X4057Y29033D01*
X4073Y28932D01*
X4095Y28839D01*
X4121Y28754D01*
X4151Y28678D01*
X4187Y28611D01*
X4214Y28570D01*
X4410Y28466D01*
X4515Y28421D01*
X4620Y28383D01*
X4725Y28352D01*
X4830Y28328D01*
X4935Y28311D01*
X5041Y28301D01*
X5146Y28297D01*
X5308Y27584D01*
Y28297D01*
X5462Y28301D01*
X5599Y28313D01*
X5720Y28333D01*
X5824Y28360D01*
X5912Y28396D01*
X5984Y28439D01*
X6040Y28490D01*
X6079Y28549D01*
X6101Y28616D01*
X6108Y28691D01*
X6144Y27121D01*
X6134Y27195D01*
X6107Y27261D01*
X6065Y27319D01*
X6006Y27370D01*
X5930Y27413D01*
X5839Y27448D01*
X5731Y27475D01*
X5606Y27494D01*
X5466Y27506D01*
X5319Y27510D01*
X5213Y27505D01*
X5106Y27490D01*
X5004Y27466D01*
X4908Y27432D01*
X4817Y27389D01*
X4731Y27335D01*
X4651Y27272D01*
X4576Y27199D01*
X4506Y27117D01*
X4442Y27025D01*
X4128Y28501D01*
X2618D01*
X2663Y28552D01*
X2703Y28611D01*
X2739Y28678D01*
X2769Y28754D01*
X2795Y28839D01*
X2817Y28932D01*
X2833Y29033D01*
X2834Y29042D01*
X2831Y29079D01*
X2801Y29259D01*
X2760Y29415D01*
X2707Y29547D01*
X2643Y29655D01*
X2566Y29739D01*
X2478Y29800D01*
X2378Y29836D01*
X2266Y29848D01*
X4626Y29840D01*
D02*
G37*
G36*
X11770Y30643D02*
X11864Y30636D01*
X11869Y30632D01*
X11962Y30614D01*
X11966Y30612D01*
X11976Y30611D01*
X12284Y30550D01*
X14053D01*
X14205Y30050D01*
X14109Y29986D01*
X13836Y29577D01*
X13740Y29094D01*
Y28650D01*
X15945D01*
Y28150D01*
X16445D01*
Y26974D01*
X16634D01*
X16559Y26966D01*
X16492Y26942D01*
X16445Y26910D01*
Y25944D01*
X16890D01*
X17372Y26040D01*
X17613Y26201D01*
X17718Y26045D01*
X17988Y25864D01*
X17956Y25501D01*
X17906Y25363D01*
X4291Y25309D01*
X4213Y25803D01*
X4864Y26238D01*
X5020Y26471D01*
X5232Y26512D01*
X5483Y26505D01*
X5536Y26496D01*
X5559Y26487D01*
X5601Y26467D01*
X5939Y26241D01*
X6339Y26161D01*
X8228D01*
X8628Y26241D01*
X8966Y26467D01*
X9193Y26805D01*
X9272Y27205D01*
Y28407D01*
X9430Y28594D01*
X11483Y30646D01*
X11637D01*
X11770Y30643D01*
D02*
G37*
G36*
X62076Y25756D02*
X62226Y24043D01*
X62316Y23571D01*
X62426Y23148D01*
X62556Y22775D01*
X62706Y22451D01*
X62875Y22177D01*
X63065Y21952D01*
X60280D01*
X60470Y22177D01*
X60639Y22451D01*
X60789Y22775D01*
X60919Y23148D01*
X61029Y23571D01*
X61119Y24043D01*
X61189Y24565D01*
X61269Y25756D01*
X61279Y26427D01*
X62066D01*
X62076Y25756D01*
D02*
G37*
%LPC*%
G36*
X45413Y60556D02*
X39232D01*
X38748Y60460D01*
X38338Y60185D01*
X38064Y59775D01*
X37968Y59291D01*
Y55669D01*
X38064Y55185D01*
X38338Y54775D01*
X38748Y54501D01*
X39232Y54405D01*
X45413D01*
X45897Y54501D01*
X46308Y54775D01*
X46482Y55036D01*
X46728Y55085D01*
X47165Y54998D01*
X50079D01*
X50517Y55085D01*
X50888Y55333D01*
X51136Y55704D01*
X51223Y56142D01*
Y58819D01*
X51136Y59257D01*
X50888Y59628D01*
X50517Y59876D01*
X50079Y59963D01*
X47165D01*
X46728Y59876D01*
X46482Y59925D01*
X46308Y60185D01*
X45897Y60460D01*
X45413Y60556D01*
D02*
G37*
%LPD*%
G36*
X46848Y58174D02*
X47044Y58169D01*
Y56988D01*
X46848Y56983D01*
Y56398D01*
X46837Y56510D01*
X46801Y56610D01*
X46741Y56699D01*
X46657Y56776D01*
X46550Y56841D01*
X46419Y56894D01*
X46350Y56912D01*
X46280Y56894D01*
X46149Y56841D01*
X46042Y56776D01*
X45958Y56699D01*
X45899Y56610D01*
X45863Y56510D01*
X45851Y56398D01*
Y56983D01*
X45655Y56988D01*
Y58169D01*
X45851Y58174D01*
Y58760D01*
X45863Y58648D01*
X45899Y58547D01*
X45958Y58459D01*
X46042Y58382D01*
X46149Y58317D01*
X46280Y58264D01*
X46350Y58245D01*
X46419Y58264D01*
X46550Y58317D01*
X46657Y58382D01*
X46741Y58459D01*
X46801Y58547D01*
X46837Y58648D01*
X46848Y58760D01*
Y58174D01*
D02*
G37*
%LPC*%
G36*
X8602Y47780D02*
X6012D01*
Y44488D01*
Y41196D01*
X8602D01*
X9169Y41309D01*
X9474Y41512D01*
X9925Y41210D01*
X10492Y41098D01*
X13083D01*
Y44390D01*
Y47682D01*
X10492D01*
X9925Y47569D01*
X9621Y47366D01*
X9169Y47668D01*
X8602Y47780D01*
D02*
G37*
%LPD*%
G36*
X10055Y43455D02*
X10045Y43548D01*
X10015Y43632D01*
X9965Y43706D01*
X9895Y43770D01*
X9806Y43824D01*
X9696Y43868D01*
X9567Y43903D01*
X9547Y43906D01*
X9528Y43903D01*
X9398Y43868D01*
X9289Y43824D01*
X9199Y43770D01*
X9129Y43706D01*
X9080Y43632D01*
X9050Y43548D01*
X9040Y43455D01*
Y45423D01*
X9050Y45330D01*
X9080Y45246D01*
X9129Y45172D01*
X9199Y45108D01*
X9289Y45054D01*
X9398Y45010D01*
X9528Y44975D01*
X9547Y44972D01*
X9567Y44975D01*
X9696Y45010D01*
X9806Y45054D01*
X9895Y45108D01*
X9965Y45172D01*
X10015Y45246D01*
X10045Y45330D01*
X10055Y45423D01*
Y43455D01*
D02*
G37*
%LPC*%
G36*
X44845Y31685D02*
X42449D01*
Y29387D01*
X43465D01*
X43993Y29492D01*
X44441Y29791D01*
X44740Y30239D01*
X44845Y30768D01*
Y31685D01*
D02*
G37*
G36*
X25386Y31183D02*
X24783D01*
X24286Y31084D01*
X23864Y30801D01*
X23582Y30380D01*
X23483Y29882D01*
Y28846D01*
X25386D01*
Y31183D01*
D02*
G37*
G36*
X52716Y31026D02*
X49685D01*
X49240Y30938D01*
X48862Y30685D01*
X48610Y30308D01*
X48521Y29862D01*
Y27028D01*
X48610Y26582D01*
X48862Y26204D01*
X49240Y25952D01*
X49685Y25864D01*
X52716D01*
X53162Y25952D01*
X53540Y26204D01*
X53792Y26582D01*
X53881Y27028D01*
Y29862D01*
X53792Y30308D01*
X53540Y30685D01*
X53162Y30938D01*
X52716Y31026D01*
D02*
G37*
G36*
X33898Y20625D02*
X30618D01*
Y13590D01*
X35881D01*
Y18642D01*
X35730Y19401D01*
X35300Y20044D01*
X34657Y20474D01*
X33898Y20625D01*
D02*
G37*
G36*
X35881Y12591D02*
X30618D01*
Y5556D01*
X33898D01*
X34657Y5707D01*
X35300Y6137D01*
X35730Y6780D01*
X35881Y7539D01*
Y12591D01*
D02*
G37*
G36*
X15445Y27650D02*
X13740D01*
Y27205D01*
X13836Y26722D01*
X14109Y26313D01*
X14518Y26040D01*
X15000Y25944D01*
X15383D01*
X15390Y25960D01*
X15417Y26064D01*
X15437Y26184D01*
X15445Y26275D01*
Y26372D01*
X15437Y26462D01*
X15417Y26582D01*
X15390Y26686D01*
X15354Y26774D01*
X15311Y26846D01*
X15260Y26902D01*
X15201Y26942D01*
X15134Y26966D01*
X15059Y26974D01*
X15445D01*
Y27650D01*
D02*
G37*
%LPD*%
D10*
X35039Y42658D02*
X37500Y45118D01*
X47343Y48524D02*
X52854D01*
X5561Y44439D02*
X13533D01*
X6201Y43996D02*
X7121D01*
X8400Y42717D01*
X2953Y41043D02*
X6201Y44291D01*
X8071Y54823D02*
X15256D01*
X24902Y54232D02*
X27756Y51378D01*
X37500Y48592D02*
X39302Y50394D01*
X45472D01*
X37500Y45118D02*
Y48592D01*
X45472Y50394D02*
X47343Y48524D01*
X15650Y54823D02*
X24705D01*
X24902Y54232D02*
Y54626D01*
X30610Y30315D02*
X32382Y32087D01*
X30610Y29035D02*
Y30315D01*
X29724Y28150D02*
X30610Y29035D01*
X24705Y54823D02*
X24902Y54626D01*
X55118Y50787D02*
X60039D01*
X52854Y48524D02*
X55118Y50787D01*
X6201Y44291D02*
X6496D01*
X2953Y37205D02*
Y41043D01*
X6693Y56201D02*
X8071Y54823D01*
D12*
X29232Y45512D02*
X32744D01*
X26969Y41476D02*
Y43248D01*
X29232Y45512D01*
X35000Y35630D02*
X35138Y35768D01*
Y41378D02*
Y43150D01*
X32744Y45512D02*
X34418Y43839D01*
X34449D02*
X35138Y43150D01*
X34418Y43839D02*
X34449D01*
X28976Y35630D02*
X29370D01*
X28780D02*
X28976D01*
X28780Y32933D02*
Y35630D01*
X28976D02*
X29173Y35433D01*
X27921Y36685D02*
X28976Y35630D01*
X24508Y38653D02*
Y48130D01*
X22539Y50098D02*
X24508Y48130D01*
X26476Y36685D02*
X27921D01*
X24508Y38653D02*
X26476Y36685D01*
X29370Y35630D02*
X30453Y36713D01*
Y37303D02*
X30845Y37696D01*
X30453Y36713D02*
Y37303D01*
X30845Y40826D02*
X31398Y41378D01*
X30845Y37696D02*
Y40826D01*
X38287Y33957D02*
X40256Y35925D01*
X36024Y28583D02*
X38287Y30846D01*
Y33957D01*
X5512Y44488D02*
X5561Y44439D01*
X13533D02*
X13583Y44390D01*
X26870Y31024D02*
X28780Y32933D01*
X26870Y29331D02*
Y31024D01*
X25886Y28346D02*
X26870Y29331D01*
X35138Y35768D02*
Y41378D01*
X40256Y35925D02*
X51368D01*
X18307Y41535D02*
Y54626D01*
X15945Y39173D02*
X18307Y41535D01*
X15945Y38484D02*
Y39173D01*
Y38484D02*
X16240Y38189D01*
X24340Y34026D02*
Y34229D01*
X21161Y37205D02*
X23805Y34561D01*
X21161Y37205D02*
Y45177D01*
X24340Y34026D02*
X24971D01*
X20541D02*
X24340D01*
X24009Y34561D02*
X24340Y34229D01*
X23805Y34561D02*
X24009D01*
X36024Y28150D02*
Y28583D01*
X51368Y35925D02*
Y40443D01*
X25197Y25197D02*
X25471D01*
X25886Y25612D02*
Y28346D01*
X25471Y25197D02*
X25886Y25612D01*
X25197Y14567D02*
Y25197D01*
X15846Y28051D02*
X15945Y28150D01*
X15846Y25591D02*
Y27854D01*
X3445Y31299D02*
X3642Y31496D01*
X7579Y35433D02*
Y38189D01*
X3642Y31496D02*
X7579Y35433D01*
X7037Y27904D02*
X7283Y28150D01*
X3691Y27904D02*
X7037D01*
X3445Y27657D02*
X3691Y27904D01*
X13386Y32835D02*
Y33169D01*
X12402Y31850D02*
X13386Y32835D01*
X10984Y31850D02*
X12402D01*
X7283Y28150D02*
X10984Y31850D01*
X13386Y33169D02*
X14075Y32480D01*
X15508D02*
X17811Y30177D01*
X14075Y32480D02*
X15508D01*
X19587Y28346D02*
Y28780D01*
X18189Y30177D02*
X19587Y28780D01*
X17811Y30177D02*
X18189D01*
X19685Y33169D02*
X20541Y34026D01*
X61574Y20462D02*
X61673Y20561D01*
Y33936D01*
X2953Y37205D02*
X3130D01*
X1181D02*
X2953D01*
X3130D02*
X3642Y37716D01*
D16*
X13583Y55807D02*
D03*
Y44390D02*
D03*
X5512Y55905D02*
D03*
Y44488D02*
D03*
X42323Y57480D02*
D03*
Y46063D02*
D03*
D17*
X35394Y35433D02*
D03*
X29173D02*
D03*
D18*
X51201Y28445D02*
D03*
X41949Y32185D02*
D03*
D19*
X51201Y35925D02*
D03*
D20*
X27657Y49449D02*
D03*
X35138D02*
D03*
Y40984D02*
D03*
X31398D02*
D03*
D21*
X27657Y40984D02*
D03*
D22*
X57480Y13091D02*
D03*
X30118D02*
D03*
D23*
X15945Y28150D02*
D03*
X7283D02*
D03*
X7579Y38189D02*
D03*
X16240D02*
D03*
D24*
X48622Y57480D02*
D03*
X61614D02*
D03*
D25*
X60039Y42126D02*
D03*
Y50787D02*
D03*
X51368Y40443D02*
D03*
Y49104D02*
D03*
D26*
X19587Y28346D02*
D03*
X25886D02*
D03*
X19685Y33169D02*
D03*
X13386D02*
D03*
X29921Y28150D02*
D03*
X36220D02*
D03*
D27*
X3642Y31496D02*
D03*
Y37716D02*
D03*
D28*
X21161Y58169D02*
D03*
Y45177D02*
D03*
D45*
X61574Y20462D02*
D03*
D46*
X27732Y61221D02*
D03*
D47*
X787Y43085D02*
D03*
D48*
X61910Y42126D02*
D03*
D49*
X787Y26181D02*
D03*
D50*
X13189Y25295D02*
D03*
D51*
X25197Y14862D02*
D03*
D52*
X45866Y1181D02*
D03*
D53*
X27165Y3051D02*
D03*
D54*
X24883Y58263D02*
X29210Y53937D01*
X36409D01*
X38082Y52264D01*
X21161Y58169D02*
X21256Y58263D01*
X24883D01*
X38082Y52264D02*
X52658D01*
X59306Y57677D02*
X61614D01*
X57175Y56781D02*
Y59734D01*
X52658Y52264D02*
X57175Y56781D01*
Y59734D02*
X57284Y59842D01*
X3445Y27657D02*
Y31299D01*
X41732Y57579D02*
X48524D01*
X57359Y59624D02*
X59306Y57677D01*
X57359Y59624D02*
Y59767D01*
X57284Y59842D02*
X57359Y59767D01*
D55*
X61673Y5709D02*
Y20561D01*
Y33936D02*
X61693Y33957D01*
X57480Y13091D02*
Y14862D01*
D56*
X41142Y46260D02*
X41240Y46161D01*
X49582D01*
X57087Y40349D02*
Y43898D01*
X54823Y46161D02*
X57087Y43898D01*
X53145Y46152D02*
X53154Y46161D01*
X49582D02*
X49592Y46152D01*
X53154Y46161D02*
X54823D01*
X49592Y46152D02*
X53145D01*
X61594Y33957D02*
Y35842D01*
X57087Y40349D02*
X61594Y35842D01*
D57*
X24971Y34026D02*
D03*
X57284Y59842D02*
D03*
X32382Y32087D02*
D03*
X3445Y27657D02*
D03*
X24902Y54626D02*
D03*
M02*
