G04 #@! TF.GenerationSoftware,KiCad,Pcbnew,(5.99.0-12439-g94954386e6)*
G04 #@! TF.CreationDate,2021-09-28T22:10:54+03:00*
G04 #@! TF.ProjectId,hellen1-wbo,68656c6c-656e-4312-9d77-626f2e6b6963,rev?*
G04 #@! TF.SameCoordinates,PX4a19ba0PY5aa5910*
G04 #@! TF.FileFunction,Copper,L2,Bot*
G04 #@! TF.FilePolarity,Positive*
%FSLAX46Y46*%
G04 Gerber Fmt 4.6, Leading zero omitted, Abs format (unit mm)*
G04 Created by KiCad (PCBNEW (5.99.0-12439-g94954386e6)) date 2021-09-28 22:10:54*
%MOMM*%
%LPD*%
G01*
G04 APERTURE LIST*
G04 #@! TA.AperFunction,ComponentPad*
%ADD10R,1.905000X2.000000*%
G04 #@! TD*
G04 #@! TA.AperFunction,ComponentPad*
%ADD11O,1.905000X2.000000*%
G04 #@! TD*
G04 #@! TA.AperFunction,ComponentPad*
%ADD12C,0.700000*%
G04 #@! TD*
G04 #@! TA.AperFunction,SMDPad,CuDef*
%ADD13R,0.250000X9.750000*%
G04 #@! TD*
G04 #@! TA.AperFunction,SMDPad,CuDef*
%ADD14R,0.250000X5.050000*%
G04 #@! TD*
G04 #@! TA.AperFunction,SMDPad,CuDef*
%ADD15R,0.250000X2.250000*%
G04 #@! TD*
G04 #@! TA.AperFunction,SMDPad,CuDef*
%ADD16R,39.250000X0.250000*%
G04 #@! TD*
G04 #@! TA.AperFunction,SMDPad,CuDef*
%ADD17R,0.250000X0.950000*%
G04 #@! TD*
G04 #@! TA.AperFunction,SMDPad,CuDef*
%ADD18R,0.250000X3.100000*%
G04 #@! TD*
G04 #@! TA.AperFunction,ViaPad*
%ADD19C,0.600000*%
G04 #@! TD*
G04 #@! TA.AperFunction,Conductor*
%ADD20C,0.250000*%
G04 #@! TD*
G04 #@! TA.AperFunction,Conductor*
%ADD21C,0.203200*%
G04 #@! TD*
G04 APERTURE END LIST*
D10*
G04 #@! TO.P,Q601,1,G*
G04 #@! TO.N,Net-(Q600-Pad1)*
X35740000Y13100000D03*
D11*
G04 #@! TO.P,Q601,2,D*
G04 #@! TO.N,/LSU_H+*
X33200000Y13100000D03*
G04 #@! TO.P,Q601,3,S*
G04 #@! TO.N,/LSU_H-*
X30660000Y13100000D03*
G04 #@! TD*
D12*
G04 #@! TO.P,M600,E1,LSU_Un*
G04 #@! TO.N,/LSU_Un*
X38800000Y1650000D03*
G04 #@! TO.P,M600,E2,LSU_Vm*
G04 #@! TO.N,/LSU_Vm*
X38800000Y2650000D03*
G04 #@! TO.P,M600,E3,LSU_Ip*
G04 #@! TO.N,/LSU_Ip*
X38800000Y3650000D03*
G04 #@! TO.P,M600,E4,LSU_Rtrim*
G04 #@! TO.N,/LSU_Rtrim*
X38800000Y4650000D03*
D13*
G04 #@! TO.P,M600,G,GND*
G04 #@! TO.N,GND*
X39175000Y10175000D03*
D14*
X175000Y2575000D03*
D15*
X175000Y8525000D03*
D16*
X19675000Y175000D03*
D17*
X39175000Y525000D03*
D18*
X175000Y13500000D03*
D16*
X19675000Y14925000D03*
D12*
G04 #@! TO.P,M600,W1,V5_IN*
G04 #@! TO.N,+5V*
X550000Y11300000D03*
G04 #@! TO.P,M600,W2,CAN_VIO*
G04 #@! TO.N,+3V3*
X550000Y10300000D03*
G04 #@! TO.P,M600,W3,CAN_RX*
G04 #@! TO.N,/CAN_RX*
X550000Y6750000D03*
G04 #@! TO.P,M600,W4,CAN_TX*
G04 #@! TO.N,/CAN_TX*
X550000Y5750000D03*
G04 #@! TD*
D19*
G04 #@! TO.N,GND*
X31600000Y9100000D03*
X37400000Y2400000D03*
X36200000Y2400000D03*
X29200000Y2500000D03*
G04 #@! TO.N,/LSU_Un*
X27500000Y1300000D03*
G04 #@! TO.N,GND*
X29100000Y14500000D03*
X24300000Y6150000D03*
X29100000Y8150000D03*
X7600000Y1950000D03*
X650000Y9400000D03*
X36200000Y800000D03*
X28600000Y10700000D03*
X35900000Y14564602D03*
X9200000Y8450000D03*
X18550000Y13250000D03*
X22450000Y12950000D03*
X15850000Y1300000D03*
X6950000Y14450000D03*
X17100000Y550000D03*
X700000Y700000D03*
X23300000Y550000D03*
X3650000Y10000000D03*
X11200000Y7400000D03*
X6800000Y600000D03*
X17050000Y6800000D03*
X38700000Y14500000D03*
X29200000Y700000D03*
X26250000Y1800000D03*
X500000Y12200000D03*
X29081600Y5743600D03*
X5050000Y900000D03*
X600000Y7650000D03*
X9400000Y14000000D03*
X10000000Y10200000D03*
X17250000Y11350000D03*
X15200000Y3350000D03*
X18400000Y2800000D03*
X3600000Y5700000D03*
X10150000Y600000D03*
X13650000Y7750000D03*
X11800000Y10000000D03*
X7750000Y13500000D03*
X13150000Y800000D03*
X38850000Y550000D03*
X4100000Y13450000D03*
X3574000Y7577000D03*
X450000Y14600000D03*
X1650000Y13350000D03*
G04 #@! TO.N,/LSU_Rtrim*
X23550000Y10550000D03*
G04 #@! TO.N,/LSU_Vm*
X14300000Y10300000D03*
X26186000Y8817000D03*
X21900000Y7450000D03*
X23600000Y2050000D03*
G04 #@! TO.N,/LSU_Ip*
X25400000Y10550000D03*
G04 #@! TO.N,+3V3*
X29107000Y6531000D03*
X21950000Y11750000D03*
X29107000Y3813200D03*
X24300000Y7050000D03*
X2200000Y1350000D03*
X15200000Y4200000D03*
X6200000Y10950000D03*
G04 #@! TO.N,/nRESET*
X14240000Y6810000D03*
X3000000Y1400000D03*
X1059400Y5114322D03*
X7650000Y4600000D03*
G04 #@! TO.N,/Vm*
X24550000Y8300000D03*
X14300000Y11100000D03*
X21500000Y8250000D03*
X26750000Y11450000D03*
G04 #@! TO.N,/Un_sense*
X20900000Y4200000D03*
X14298800Y8715400D03*
G04 #@! TO.N,/Ip_dac*
X13486000Y11204600D03*
X15950000Y12500000D03*
G04 #@! TO.N,/Nernst_esr_drive*
X18050000Y2036592D03*
X12050000Y5400000D03*
G04 #@! TO.N,/CAN_TX*
X8550096Y7561538D03*
G04 #@! TO.N,/CAN_RX*
X6300000Y7959900D03*
G04 #@! TO.N,/heater_pwm*
X28600000Y13750000D03*
X12100000Y13950000D03*
G04 #@! TO.N,/Boot0*
X9800000Y6050000D03*
X6050000Y5800000D03*
G04 #@! TO.N,Net-(R613-Pad1)*
X24650000Y12850000D03*
X22250000Y13700000D03*
G04 #@! TO.N,/SWDIO*
X8750000Y6750000D03*
X1434289Y4435017D03*
X2800000Y3850000D03*
G04 #@! TO.N,VDDA*
X3640000Y12310000D03*
X18058000Y8055000D03*
X23900000Y4850000D03*
X21300000Y5650000D03*
X27227400Y4854600D03*
G04 #@! TO.N,/LSU_H-*
X36600000Y11200000D03*
X36600000Y10200000D03*
X37600000Y10200000D03*
X37600000Y11200000D03*
G04 #@! TD*
D20*
G04 #@! TO.N,/LSU_Vm*
X29296638Y8817000D02*
X26186000Y8817000D01*
X37664620Y3235380D02*
X34878259Y3235380D01*
X34878259Y3235380D02*
X29296638Y8817000D01*
X38250000Y2650000D02*
X37664620Y3235380D01*
X38800000Y2650000D02*
X38250000Y2650000D01*
G04 #@! TO.N,/LSU_Un*
X27500000Y1300000D02*
X27850000Y1650000D01*
X27850000Y1650000D02*
X38800000Y1650000D01*
G04 #@! TO.N,/LSU_Rtrim*
X34636362Y4650000D02*
X29321741Y9964620D01*
X27339611Y11694226D02*
X26993726Y12040111D01*
X27339611Y10360389D02*
X27339611Y11694226D01*
X38800000Y4650000D02*
X34636362Y4650000D01*
X25040111Y12040111D02*
X23550000Y10550000D01*
X29321741Y9964620D02*
X27735380Y9964620D01*
X27735380Y9964620D02*
X27339611Y10360389D01*
X26993726Y12040111D02*
X25040111Y12040111D01*
G04 #@! TO.N,/LSU_Vm*
X21900000Y3750000D02*
X21900000Y7450000D01*
X19536365Y7450000D02*
X16686365Y10300000D01*
X16686365Y10300000D02*
X14300000Y10300000D01*
X21900000Y7450000D02*
X19536365Y7450000D01*
X23600000Y2050000D02*
X21900000Y3750000D01*
G04 #@! TO.N,/LSU_Ip*
X29150000Y9550000D02*
X26400000Y9550000D01*
X26400000Y9550000D02*
X25400000Y10550000D01*
X38800000Y3650000D02*
X35050000Y3650000D01*
X35050000Y3650000D02*
X29150000Y9550000D01*
G04 #@! TO.N,+3V3*
X23800000Y9225000D02*
X22800000Y10225000D01*
X29800000Y6050000D02*
X29800000Y4300000D01*
X2200000Y1350000D02*
X2739611Y810389D01*
X22800000Y10900000D02*
X21950000Y11750000D01*
X29319000Y6531000D02*
X29800000Y6050000D01*
X11450000Y6050000D02*
X13350000Y6050000D01*
X6200000Y10950000D02*
X1200000Y10950000D01*
X3283754Y810389D02*
X5323365Y2850000D01*
X22800000Y10225000D02*
X22800000Y10900000D01*
X23800000Y7562932D02*
X23800000Y9225000D01*
X13350000Y6050000D02*
X15200000Y4200000D01*
X24550000Y6800000D02*
X28838000Y6800000D01*
X2739611Y810389D02*
X3283754Y810389D01*
X5323365Y2850000D02*
X8250000Y2850000D01*
X28838000Y6800000D02*
X29107000Y6531000D01*
X24300000Y7062932D02*
X23800000Y7562932D01*
X8250000Y2850000D02*
X11450000Y6050000D01*
X24300000Y7050000D02*
X24550000Y6800000D01*
X24300000Y7050000D02*
X24300000Y7062932D01*
X1200000Y10950000D02*
X550000Y10300000D01*
X29313200Y3813200D02*
X29107000Y3813200D01*
X29800000Y4300000D02*
X29313200Y3813200D01*
X29107000Y6531000D02*
X29319000Y6531000D01*
G04 #@! TO.N,/nRESET*
X1620250Y3845406D02*
X2265656Y3200000D01*
X14020000Y6590000D02*
X11240000Y6590000D01*
X3750000Y3200000D02*
X5150000Y4600000D01*
X844678Y4152003D02*
X1151275Y3845406D01*
X1059400Y5114322D02*
X844678Y4899600D01*
X1151275Y3845406D02*
X1620250Y3845406D01*
X14240000Y6810000D02*
X14020000Y6590000D01*
X5150000Y4600000D02*
X7650000Y4600000D01*
X844678Y4899600D02*
X844678Y4152003D01*
X9250000Y4600000D02*
X7650000Y4600000D01*
X11240000Y6590000D02*
X9250000Y4600000D01*
X2265656Y3200000D02*
X3750000Y3200000D01*
X3000000Y1400000D02*
X3000000Y3200000D01*
G04 #@! TO.N,/Vm*
X24550000Y10550000D02*
X25450000Y11450000D01*
X24550000Y8300000D02*
X24550000Y10550000D01*
X16550000Y11100000D02*
X14300000Y11100000D01*
X19400000Y8250000D02*
X16550000Y11100000D01*
X25450000Y11450000D02*
X26750000Y11450000D01*
X21500000Y8250000D02*
X19400000Y8250000D01*
G04 #@! TO.N,/Un_sense*
X16259600Y8715400D02*
X20775000Y4200000D01*
X14298800Y8715400D02*
X16259600Y8715400D01*
X20775000Y4200000D02*
X20900000Y4200000D01*
G04 #@! TO.N,/Ip_dac*
X14781400Y12500000D02*
X15950000Y12500000D01*
X13486000Y11204600D02*
X14781400Y12500000D01*
G04 #@! TO.N,/Nernst_esr_drive*
X12050000Y4550000D02*
X14563408Y2036592D01*
X14563408Y2036592D02*
X18050000Y2036592D01*
X12050000Y5400000D02*
X12050000Y4550000D01*
G04 #@! TO.N,/CAN_TX*
X4050000Y6300000D02*
X1100000Y6300000D01*
X8550096Y7550096D02*
X8369789Y7369789D01*
X5119789Y7369789D02*
X4050000Y6300000D01*
X1100000Y6300000D02*
X550000Y5750000D01*
X8369789Y7369789D02*
X5119789Y7369789D01*
X8550096Y7561538D02*
X8550096Y7550096D01*
G04 #@! TO.N,/CAN_RX*
X6300000Y7959900D02*
X4830265Y7959900D01*
X3620365Y6750000D02*
X550000Y6750000D01*
X4830265Y7959900D02*
X3620365Y6750000D01*
G04 #@! TO.N,/heater_pwm*
X12290111Y14290111D02*
X12100000Y14100000D01*
X12100000Y14100000D02*
X12100000Y13950000D01*
X28059889Y14290111D02*
X12290111Y14290111D01*
X28600000Y13750000D02*
X28059889Y14290111D01*
G04 #@! TO.N,/Boot0*
X9800000Y6050000D02*
X6300000Y6050000D01*
X6300000Y6050000D02*
X6050000Y5800000D01*
G04 #@! TO.N,Net-(R613-Pad1)*
X23800000Y13700000D02*
X22250000Y13700000D01*
X24650000Y12850000D02*
X23800000Y13700000D01*
G04 #@! TO.N,/SWDIO*
X5700000Y6750000D02*
X2800000Y3850000D01*
X8750000Y6750000D02*
X5700000Y6750000D01*
D21*
X2214983Y4435017D02*
X2800000Y3850000D01*
X1434289Y4435017D02*
X2214983Y4435017D01*
D20*
G04 #@! TO.N,VDDA*
X14857600Y9528200D02*
X15035400Y9350400D01*
X13409800Y9528200D02*
X13528200Y9528200D01*
X3640000Y12310000D02*
X3770111Y12440111D01*
X10409889Y12440111D02*
X13321800Y9528200D01*
X20463000Y5650000D02*
X18058000Y8055000D01*
X16432400Y9350400D02*
X17727800Y8055000D01*
X17727800Y8055000D02*
X18058000Y8055000D01*
X3770111Y12440111D02*
X10409889Y12440111D01*
X23904600Y4854600D02*
X27227400Y4854600D01*
X13321800Y9528200D02*
X13528200Y9528200D01*
X23900000Y4850000D02*
X23904600Y4854600D01*
X13528200Y9528200D02*
X14857600Y9528200D01*
X21300000Y5650000D02*
X20463000Y5650000D01*
X15035400Y9350400D02*
X16432400Y9350400D01*
G04 #@! TD*
G04 #@! TA.AperFunction,Conductor*
G04 #@! TO.N,GND*
G36*
X2005145Y2921336D02*
G01*
X2015215Y2913639D01*
X2015922Y2913040D01*
X2019600Y2909362D01*
X2035348Y2898108D01*
X2040018Y2894602D01*
X2080303Y2862844D01*
X2088937Y2859812D01*
X2096390Y2854486D01*
X2145506Y2839797D01*
X2151148Y2837964D01*
X2191855Y2823669D01*
X2199507Y2820982D01*
X2205072Y2820500D01*
X2207780Y2820500D01*
X2210414Y2820386D01*
X2210512Y2820357D01*
X2210505Y2820193D01*
X2211209Y2820149D01*
X2217434Y2818287D01*
X2271291Y2820403D01*
X2276238Y2820500D01*
X2494500Y2820500D01*
X2562621Y2800498D01*
X2609114Y2746842D01*
X2620500Y2694500D01*
X2620500Y1964583D01*
X2600498Y1896462D01*
X2546842Y1849969D01*
X2476568Y1839865D01*
X2446282Y1848174D01*
X2352384Y1887068D01*
X2352381Y1887069D01*
X2344754Y1890228D01*
X2200000Y1909285D01*
X2176255Y1906159D01*
X2063432Y1891306D01*
X2063430Y1891305D01*
X2055246Y1890228D01*
X2007430Y1870422D01*
X1927986Y1837515D01*
X1927984Y1837514D01*
X1920358Y1834355D01*
X1804526Y1745474D01*
X1799503Y1738928D01*
X1784183Y1718962D01*
X1715645Y1629642D01*
X1712486Y1622016D01*
X1712485Y1622014D01*
X1696793Y1584130D01*
X1659772Y1494754D01*
X1640715Y1350000D01*
X1641793Y1341812D01*
X1653815Y1250498D01*
X1659772Y1205246D01*
X1715645Y1070358D01*
X1733684Y1046849D01*
X1784981Y979998D01*
X1804526Y954526D01*
X1811076Y949500D01*
X1811079Y949497D01*
X1913804Y870673D01*
X1920357Y865645D01*
X2055246Y809772D01*
X2183612Y792872D01*
X2248538Y764151D01*
X2256260Y757046D01*
X2433133Y580173D01*
X2448275Y561425D01*
X2449390Y560200D01*
X2455040Y551449D01*
X2463218Y545002D01*
X2463220Y545000D01*
X2481411Y530660D01*
X2485855Y526711D01*
X2485917Y526785D01*
X2489874Y523432D01*
X2493555Y519751D01*
X2509265Y508524D01*
X2514001Y504968D01*
X2547005Y478950D01*
X2588119Y421069D01*
X2591413Y350149D01*
X2555842Y288707D01*
X2492699Y256249D01*
X2469000Y254000D01*
X380000Y254000D01*
X311879Y274002D01*
X265386Y327658D01*
X254000Y380000D01*
X254000Y2193338D01*
X274002Y2261459D01*
X327658Y2307952D01*
X397932Y2318056D01*
X462512Y2288562D01*
X470633Y2280869D01*
X579036Y2168614D01*
X584928Y2164759D01*
X584932Y2164755D01*
X712719Y2081134D01*
X719793Y2076505D01*
X726397Y2074049D01*
X726399Y2074048D01*
X762366Y2060672D01*
X877459Y2017869D01*
X943509Y2009056D01*
X1037217Y1996552D01*
X1037221Y1996552D01*
X1044198Y1995621D01*
X1051209Y1996259D01*
X1051213Y1996259D01*
X1204701Y2010228D01*
X1211722Y2010867D01*
X1218424Y2013045D01*
X1218426Y2013045D01*
X1365005Y2060672D01*
X1371705Y2062849D01*
X1392800Y2075424D01*
X1510145Y2145375D01*
X1510147Y2145376D01*
X1516197Y2148983D01*
X1638014Y2264988D01*
X1731104Y2405100D01*
X1771615Y2511746D01*
X1788339Y2555770D01*
X1788340Y2555775D01*
X1790839Y2562353D01*
X1794104Y2585586D01*
X1813699Y2725009D01*
X1813699Y2725014D01*
X1814250Y2728932D01*
X1814544Y2750000D01*
X1808547Y2803462D01*
X1820831Y2873387D01*
X1868969Y2925571D01*
X1937679Y2943446D01*
X2005145Y2921336D01*
G37*
G04 #@! TD.AperFunction*
G04 #@! TA.AperFunction,Conductor*
G36*
X12085635Y14825998D02*
G01*
X12132128Y14772342D01*
X12142232Y14702068D01*
X12112738Y14637488D01*
X12081854Y14613901D01*
X12082681Y14612620D01*
X12076027Y14608324D01*
X12068880Y14604892D01*
X12064604Y14601298D01*
X12062664Y14599358D01*
X12060752Y14597604D01*
X12060663Y14597556D01*
X12060551Y14597679D01*
X12060015Y14597206D01*
X12054297Y14594121D01*
X12047230Y14586476D01*
X12017695Y14554525D01*
X12014265Y14550959D01*
X11970046Y14506740D01*
X11929170Y14479427D01*
X11820358Y14434355D01*
X11704526Y14345474D01*
X11699503Y14338928D01*
X11694875Y14332897D01*
X11615645Y14229642D01*
X11612486Y14222016D01*
X11612485Y14222014D01*
X11605995Y14206346D01*
X11559772Y14094754D01*
X11540715Y13950000D01*
X11541793Y13941812D01*
X11556692Y13828643D01*
X11559772Y13805246D01*
X11615645Y13670358D01*
X11704526Y13554526D01*
X11711076Y13549500D01*
X11711079Y13549497D01*
X11804274Y13477986D01*
X11820357Y13465645D01*
X11955246Y13409772D01*
X12100000Y13390715D01*
X12108188Y13391793D01*
X12236566Y13408694D01*
X12244754Y13409772D01*
X12379643Y13465645D01*
X12395726Y13477986D01*
X12488921Y13549497D01*
X12488924Y13549500D01*
X12495474Y13554526D01*
X12584355Y13670358D01*
X12596634Y13700000D01*
X12637068Y13797617D01*
X12637069Y13797620D01*
X12640228Y13805246D01*
X12641306Y13813433D01*
X12642321Y13817222D01*
X12679272Y13877845D01*
X12743133Y13908866D01*
X12764028Y13910611D01*
X21574767Y13910611D01*
X21642888Y13890609D01*
X21689381Y13836953D01*
X21699689Y13768165D01*
X21690715Y13700000D01*
X21691793Y13691812D01*
X21705360Y13588762D01*
X21709772Y13555246D01*
X21712931Y13547620D01*
X21747648Y13463807D01*
X21765645Y13420358D01*
X21788391Y13390715D01*
X21835496Y13329327D01*
X21854526Y13304526D01*
X21861076Y13299500D01*
X21861079Y13299497D01*
X21951261Y13230298D01*
X21970357Y13215645D01*
X22105246Y13159772D01*
X22250000Y13140715D01*
X22258188Y13141793D01*
X22386566Y13158694D01*
X22394754Y13159772D01*
X22529643Y13215645D01*
X22632360Y13294463D01*
X22698578Y13320063D01*
X22709062Y13320500D01*
X23590616Y13320500D01*
X23658737Y13300498D01*
X23679711Y13283595D01*
X24057046Y12906260D01*
X24091072Y12843948D01*
X24092871Y12833620D01*
X24099591Y12782577D01*
X24107851Y12719840D01*
X24109772Y12705246D01*
X24112931Y12697620D01*
X24160123Y12583690D01*
X24165645Y12570358D01*
X24254526Y12454526D01*
X24261076Y12449500D01*
X24261079Y12449497D01*
X24363615Y12370818D01*
X24370357Y12365645D01*
X24505246Y12309772D01*
X24508518Y12309341D01*
X24567179Y12273586D01*
X24598201Y12209726D01*
X24589773Y12139231D01*
X24563041Y12099735D01*
X23606260Y11142954D01*
X23543948Y11108928D01*
X23533620Y11107129D01*
X23467554Y11098431D01*
X23413432Y11091306D01*
X23413430Y11091305D01*
X23405246Y11090228D01*
X23397617Y11087068D01*
X23285566Y11040655D01*
X23214977Y11033066D01*
X23151490Y11064845D01*
X23123765Y11102522D01*
X23118213Y11114084D01*
X23114781Y11121231D01*
X23111187Y11125507D01*
X23109247Y11127447D01*
X23107493Y11129359D01*
X23107445Y11129448D01*
X23107568Y11129560D01*
X23107095Y11130096D01*
X23104010Y11135814D01*
X23064413Y11172417D01*
X23060848Y11175846D01*
X22542954Y11693740D01*
X22508928Y11756052D01*
X22507127Y11766389D01*
X22506638Y11770108D01*
X22493936Y11866592D01*
X22491306Y11886568D01*
X22491305Y11886570D01*
X22490228Y11894754D01*
X22463296Y11959772D01*
X22437515Y12022014D01*
X22437514Y12022016D01*
X22434355Y12029642D01*
X22379985Y12100498D01*
X22350501Y12138923D01*
X22350500Y12138924D01*
X22345474Y12145474D01*
X22338924Y12150500D01*
X22338921Y12150503D01*
X22236196Y12229327D01*
X22236194Y12229328D01*
X22229643Y12234355D01*
X22094754Y12290228D01*
X21950000Y12309285D01*
X21941812Y12308207D01*
X21813432Y12291306D01*
X21813430Y12291305D01*
X21805246Y12290228D01*
X21765069Y12273586D01*
X21677986Y12237515D01*
X21677984Y12237514D01*
X21670358Y12234355D01*
X21554526Y12145474D01*
X21465645Y12029642D01*
X21462486Y12022016D01*
X21462485Y12022014D01*
X21436704Y11959772D01*
X21409772Y11894754D01*
X21408695Y11886570D01*
X21408694Y11886568D01*
X21396143Y11791229D01*
X21390715Y11750000D01*
X21392537Y11736160D01*
X21396843Y11703456D01*
X21409772Y11605246D01*
X21422788Y11573823D01*
X21461888Y11479429D01*
X21465645Y11470358D01*
X21490846Y11437515D01*
X21546191Y11365389D01*
X21554526Y11354526D01*
X21561076Y11349500D01*
X21561079Y11349497D01*
X21663804Y11270673D01*
X21670357Y11265645D01*
X21805246Y11209772D01*
X21933612Y11192872D01*
X21998538Y11164151D01*
X22006260Y11157046D01*
X22383595Y10779711D01*
X22417621Y10717399D01*
X22420500Y10690616D01*
X22420500Y10278920D01*
X22417951Y10254972D01*
X22417872Y10253307D01*
X22415680Y10243124D01*
X22416904Y10232783D01*
X22419627Y10209777D01*
X22419977Y10203846D01*
X22420072Y10203854D01*
X22420500Y10198676D01*
X22420500Y10193476D01*
X22421354Y10188347D01*
X22421354Y10188344D01*
X22423669Y10174435D01*
X22424506Y10168557D01*
X22427986Y10139157D01*
X22430530Y10117659D01*
X22434493Y10109407D01*
X22435996Y10100374D01*
X22440943Y10091205D01*
X22440944Y10091203D01*
X22460334Y10055268D01*
X22463031Y10049975D01*
X22481785Y10010918D01*
X22481788Y10010914D01*
X22485219Y10003768D01*
X22488814Y9999492D01*
X22490737Y9997569D01*
X22492509Y9995637D01*
X22492552Y9995558D01*
X22492428Y9995445D01*
X22492904Y9994905D01*
X22495990Y9989186D01*
X22503635Y9982119D01*
X22535586Y9952584D01*
X22539152Y9949154D01*
X23383595Y9104711D01*
X23417621Y9042399D01*
X23420500Y9015616D01*
X23420500Y7616852D01*
X23417951Y7592904D01*
X23417872Y7591239D01*
X23415680Y7581056D01*
X23416904Y7570715D01*
X23419627Y7547709D01*
X23419977Y7541778D01*
X23420072Y7541786D01*
X23420500Y7536608D01*
X23420500Y7531408D01*
X23421354Y7526279D01*
X23421354Y7526276D01*
X23423669Y7512367D01*
X23424506Y7506489D01*
X23430530Y7455591D01*
X23434493Y7447339D01*
X23435996Y7438306D01*
X23440943Y7429137D01*
X23440944Y7429135D01*
X23460334Y7393200D01*
X23463031Y7387907D01*
X23481785Y7348850D01*
X23481788Y7348846D01*
X23485219Y7341700D01*
X23488814Y7337424D01*
X23490737Y7335501D01*
X23492509Y7333569D01*
X23492552Y7333490D01*
X23492428Y7333377D01*
X23492904Y7332837D01*
X23495990Y7327118D01*
X23503635Y7320051D01*
X23535586Y7290516D01*
X23539152Y7287086D01*
X23705085Y7121153D01*
X23739111Y7058841D01*
X23740912Y7048504D01*
X23757840Y6919923D01*
X23759772Y6905246D01*
X23762931Y6897620D01*
X23810838Y6781964D01*
X23815645Y6770358D01*
X23904526Y6654526D01*
X23911076Y6649500D01*
X23911079Y6649497D01*
X23992438Y6587068D01*
X24020357Y6565645D01*
X24155246Y6509772D01*
X24163434Y6508694D01*
X24300000Y6490715D01*
X24299550Y6487296D01*
X24346849Y6473407D01*
X24347344Y6474308D01*
X24351427Y6472063D01*
X24352354Y6471791D01*
X24353808Y6470754D01*
X24356468Y6469292D01*
X24364647Y6462844D01*
X24373284Y6459811D01*
X24380734Y6454487D01*
X24390710Y6451503D01*
X24390711Y6451503D01*
X24394055Y6450503D01*
X24429849Y6439798D01*
X24435486Y6437966D01*
X24476367Y6423610D01*
X24483851Y6420982D01*
X24489416Y6420500D01*
X24492124Y6420500D01*
X24494758Y6420386D01*
X24494856Y6420357D01*
X24494849Y6420193D01*
X24495553Y6420149D01*
X24501778Y6418287D01*
X24555635Y6420403D01*
X24560582Y6420500D01*
X28468393Y6420500D01*
X28536514Y6400498D01*
X28584802Y6342718D01*
X28615018Y6269772D01*
X28622645Y6251358D01*
X28654325Y6210072D01*
X28693627Y6158853D01*
X28711526Y6135526D01*
X28718076Y6130500D01*
X28718079Y6130497D01*
X28820804Y6051673D01*
X28827357Y6046645D01*
X28962246Y5990772D01*
X28970434Y5989694D01*
X28987753Y5987414D01*
X29107000Y5971715D01*
X29115188Y5972793D01*
X29216092Y5986077D01*
X29251754Y5990772D01*
X29252196Y5987414D01*
X29307452Y5986077D01*
X29358136Y5955170D01*
X29383595Y5929711D01*
X29417621Y5867399D01*
X29420500Y5840616D01*
X29420500Y4509384D01*
X29400498Y4441263D01*
X29383595Y4420289D01*
X29353112Y4389806D01*
X29290800Y4355780D01*
X29247571Y4353979D01*
X29124015Y4370245D01*
X29107000Y4372485D01*
X29089985Y4370245D01*
X28970432Y4354506D01*
X28970430Y4354505D01*
X28962246Y4353428D01*
X28921543Y4336568D01*
X28834986Y4300715D01*
X28834984Y4300714D01*
X28827358Y4297555D01*
X28799164Y4275921D01*
X28723911Y4218177D01*
X28711526Y4208674D01*
X28622645Y4092842D01*
X28619486Y4085216D01*
X28619485Y4085214D01*
X28590579Y4015429D01*
X28566772Y3957954D01*
X28565695Y3949770D01*
X28565694Y3949768D01*
X28561016Y3914235D01*
X28547715Y3813200D01*
X28548793Y3805012D01*
X28563078Y3696507D01*
X28566772Y3668446D01*
X28577812Y3641793D01*
X28619484Y3541190D01*
X28622645Y3533558D01*
X28644391Y3505218D01*
X28702844Y3429041D01*
X28711526Y3417726D01*
X28718076Y3412700D01*
X28718079Y3412697D01*
X28815367Y3338045D01*
X28827357Y3328845D01*
X28962246Y3272972D01*
X29107000Y3253915D01*
X29115188Y3254993D01*
X29243566Y3271894D01*
X29251754Y3272972D01*
X29386643Y3328845D01*
X29398633Y3338045D01*
X29495921Y3412697D01*
X29495924Y3412700D01*
X29502474Y3417726D01*
X29511157Y3429041D01*
X29569609Y3505218D01*
X29591355Y3533558D01*
X29594514Y3541186D01*
X29594517Y3541190D01*
X29596688Y3546432D01*
X29624001Y3587307D01*
X30030216Y3993522D01*
X30048964Y4008664D01*
X30050189Y4009779D01*
X30058940Y4015429D01*
X30065387Y4023607D01*
X30065389Y4023609D01*
X30079729Y4041800D01*
X30083678Y4046244D01*
X30083604Y4046306D01*
X30086957Y4050263D01*
X30090638Y4053944D01*
X30101865Y4069654D01*
X30105421Y4074391D01*
X30107138Y4076568D01*
X30137156Y4114647D01*
X30140189Y4123284D01*
X30145513Y4130734D01*
X30150331Y4146842D01*
X30154998Y4162448D01*
X30160202Y4179849D01*
X30162034Y4185486D01*
X30176390Y4226367D01*
X30176390Y4226368D01*
X30179018Y4233851D01*
X30179500Y4239416D01*
X30179500Y4242124D01*
X30179614Y4244758D01*
X30179643Y4244856D01*
X30179807Y4244849D01*
X30179851Y4245553D01*
X30181713Y4251778D01*
X30179597Y4305635D01*
X30179500Y4310582D01*
X30179500Y5996075D01*
X30182050Y6020033D01*
X30182128Y6021692D01*
X30184321Y6031876D01*
X30183097Y6042218D01*
X30183097Y6042221D01*
X30180374Y6065221D01*
X30180024Y6071152D01*
X30179928Y6071144D01*
X30179500Y6076320D01*
X30179500Y6081524D01*
X30176327Y6100588D01*
X30175496Y6106434D01*
X30172786Y6129328D01*
X30169470Y6157341D01*
X30165507Y6165593D01*
X30164004Y6174626D01*
X30142938Y6213669D01*
X30139666Y6219732D01*
X30136969Y6225025D01*
X30118215Y6264081D01*
X30118214Y6264082D01*
X30114781Y6271232D01*
X30111187Y6275507D01*
X30109262Y6277432D01*
X30107491Y6279362D01*
X30107445Y6279447D01*
X30107568Y6279559D01*
X30107096Y6280094D01*
X30104010Y6285814D01*
X30064413Y6322417D01*
X30060848Y6325846D01*
X29625478Y6761216D01*
X29608721Y6781964D01*
X29604161Y6789026D01*
X29603571Y6789940D01*
X29603388Y6790084D01*
X29596669Y6799282D01*
X29594516Y6803011D01*
X29591355Y6810642D01*
X29533095Y6886568D01*
X29507501Y6919923D01*
X29507500Y6919924D01*
X29502474Y6926474D01*
X29495924Y6931500D01*
X29495921Y6931503D01*
X29393196Y7010327D01*
X29393194Y7010328D01*
X29386643Y7015355D01*
X29251754Y7071228D01*
X29112309Y7089586D01*
X29050752Y7115557D01*
X29023353Y7137156D01*
X29014719Y7140188D01*
X29007266Y7145514D01*
X28958150Y7160203D01*
X28952508Y7162036D01*
X28911633Y7176390D01*
X28911632Y7176390D01*
X28904149Y7179018D01*
X28898584Y7179500D01*
X28895876Y7179500D01*
X28893242Y7179614D01*
X28893144Y7179643D01*
X28893151Y7179807D01*
X28892447Y7179851D01*
X28886222Y7181713D01*
X28832365Y7179597D01*
X28827418Y7179500D01*
X24930737Y7179500D01*
X24862616Y7199502D01*
X24814328Y7257282D01*
X24787516Y7322011D01*
X24787516Y7322012D01*
X24784355Y7329642D01*
X24717489Y7416784D01*
X24700501Y7438923D01*
X24700500Y7438924D01*
X24695474Y7445474D01*
X24688924Y7450500D01*
X24688921Y7450503D01*
X24587083Y7528646D01*
X24545216Y7585984D01*
X24540994Y7656855D01*
X24575758Y7718758D01*
X24638471Y7752039D01*
X24647341Y7753530D01*
X24686566Y7758694D01*
X24694754Y7759772D01*
X24829643Y7815645D01*
X24836196Y7820673D01*
X24938921Y7899497D01*
X24938924Y7899500D01*
X24945474Y7904526D01*
X24964505Y7929327D01*
X25029328Y8013807D01*
X25034355Y8020358D01*
X25042850Y8040865D01*
X25087069Y8147620D01*
X25090228Y8155246D01*
X25092710Y8174094D01*
X25108207Y8291812D01*
X25109285Y8300000D01*
X25093948Y8416497D01*
X25091306Y8436568D01*
X25091305Y8436570D01*
X25090228Y8444754D01*
X25054583Y8530807D01*
X25037515Y8572014D01*
X25037514Y8572016D01*
X25034355Y8579642D01*
X24980750Y8649502D01*
X24955537Y8682360D01*
X24929937Y8748581D01*
X24929500Y8759064D01*
X24929500Y9958843D01*
X24949502Y10026964D01*
X25003158Y10073457D01*
X25073432Y10083561D01*
X25116383Y10068694D01*
X25120357Y10065645D01*
X25127984Y10062486D01*
X25127987Y10062484D01*
X25229689Y10020358D01*
X25255246Y10009772D01*
X25383612Y9992872D01*
X25448538Y9964151D01*
X25456260Y9957046D01*
X25921376Y9491930D01*
X25955402Y9429618D01*
X25950337Y9358803D01*
X25907790Y9301967D01*
X25907713Y9301916D01*
X25906358Y9301355D01*
X25790526Y9212474D01*
X25701645Y9096642D01*
X25698486Y9089016D01*
X25698485Y9089014D01*
X25668083Y9015616D01*
X25645772Y8961754D01*
X25626715Y8817000D01*
X25627793Y8808812D01*
X25641169Y8707212D01*
X25645772Y8672246D01*
X25659575Y8638923D01*
X25687857Y8570646D01*
X25701645Y8537358D01*
X25730213Y8500128D01*
X25776944Y8439227D01*
X25790526Y8421526D01*
X25797076Y8416500D01*
X25797079Y8416497D01*
X25899804Y8337673D01*
X25906357Y8332645D01*
X26041246Y8276772D01*
X26186000Y8257715D01*
X26194188Y8258793D01*
X26322566Y8275694D01*
X26330754Y8276772D01*
X26465643Y8332645D01*
X26568360Y8411463D01*
X26634578Y8437063D01*
X26645062Y8437500D01*
X29087254Y8437500D01*
X29155375Y8417498D01*
X29176349Y8400595D01*
X34571781Y3005164D01*
X34586923Y2986416D01*
X34588038Y2985191D01*
X34593688Y2976440D01*
X34601866Y2969993D01*
X34601868Y2969991D01*
X34620059Y2955651D01*
X34624503Y2951702D01*
X34624565Y2951776D01*
X34628522Y2948423D01*
X34632203Y2944742D01*
X34647913Y2933515D01*
X34652639Y2929967D01*
X34692906Y2898224D01*
X34701543Y2895191D01*
X34708993Y2889867D01*
X34718969Y2886883D01*
X34718970Y2886883D01*
X34724534Y2885219D01*
X34758108Y2875178D01*
X34763745Y2873346D01*
X34804626Y2858990D01*
X34812110Y2856362D01*
X34817675Y2855880D01*
X34820383Y2855880D01*
X34823017Y2855766D01*
X34823115Y2855737D01*
X34823108Y2855573D01*
X34823812Y2855529D01*
X34830037Y2853667D01*
X34883894Y2855783D01*
X34888841Y2855880D01*
X37455236Y2855880D01*
X37523357Y2835878D01*
X37544331Y2818975D01*
X37943522Y2419784D01*
X37958664Y2401036D01*
X37959779Y2399811D01*
X37965429Y2391060D01*
X37973607Y2384613D01*
X37973609Y2384611D01*
X37991800Y2370271D01*
X37996244Y2366322D01*
X37996306Y2366396D01*
X38000263Y2363043D01*
X38003944Y2359362D01*
X38019654Y2348135D01*
X38024380Y2344587D01*
X38064647Y2312844D01*
X38073284Y2309811D01*
X38080734Y2304487D01*
X38090710Y2301503D01*
X38090711Y2301503D01*
X38106046Y2296917D01*
X38129849Y2289798D01*
X38135486Y2287966D01*
X38174167Y2274382D01*
X38231812Y2232939D01*
X38257900Y2166909D01*
X38244149Y2097257D01*
X38194923Y2046097D01*
X38132418Y2029500D01*
X27903920Y2029500D01*
X27879972Y2032049D01*
X27878307Y2032128D01*
X27868124Y2034320D01*
X27857783Y2033096D01*
X27834777Y2030373D01*
X27828846Y2030023D01*
X27828854Y2029928D01*
X27823676Y2029500D01*
X27818476Y2029500D01*
X27813347Y2028646D01*
X27813344Y2028646D01*
X27799435Y2026331D01*
X27793557Y2025494D01*
X27752999Y2020694D01*
X27752998Y2020694D01*
X27742659Y2019470D01*
X27734407Y2015507D01*
X27725374Y2014004D01*
X27716205Y2009057D01*
X27716203Y2009056D01*
X27680268Y1989666D01*
X27674976Y1986969D01*
X27628768Y1964781D01*
X27624493Y1961187D01*
X27622568Y1959262D01*
X27620638Y1957491D01*
X27620553Y1957445D01*
X27620441Y1957568D01*
X27619906Y1957096D01*
X27614186Y1954010D01*
X27607119Y1946365D01*
X27577584Y1914414D01*
X27574154Y1910848D01*
X27556260Y1892954D01*
X27493948Y1858928D01*
X27483620Y1857129D01*
X27417554Y1848431D01*
X27363432Y1841306D01*
X27363430Y1841305D01*
X27355246Y1840228D01*
X27307430Y1820422D01*
X27227986Y1787515D01*
X27227984Y1787514D01*
X27220358Y1784355D01*
X27104526Y1695474D01*
X27015645Y1579642D01*
X27012486Y1572016D01*
X27012485Y1572014D01*
X26986704Y1509772D01*
X26959772Y1444754D01*
X26958695Y1436570D01*
X26958694Y1436568D01*
X26946220Y1341812D01*
X26940715Y1300000D01*
X26959772Y1155246D01*
X26968994Y1132983D01*
X27005574Y1044672D01*
X27015645Y1020358D01*
X27020672Y1013807D01*
X27070019Y949497D01*
X27104526Y904526D01*
X27111076Y899500D01*
X27111079Y899497D01*
X27155196Y865645D01*
X27220357Y815645D01*
X27355246Y759772D01*
X27500000Y740715D01*
X27508188Y741793D01*
X27636566Y758694D01*
X27644754Y759772D01*
X27779643Y815645D01*
X27844804Y865645D01*
X27888921Y899497D01*
X27888924Y899500D01*
X27895474Y904526D01*
X27929982Y949497D01*
X27979328Y1013807D01*
X27984355Y1020358D01*
X27994427Y1044672D01*
X28031006Y1132983D01*
X28040228Y1155246D01*
X28041306Y1163432D01*
X28043443Y1171409D01*
X28045379Y1170890D01*
X28069695Y1225867D01*
X28128957Y1264962D01*
X28165900Y1270500D01*
X38267109Y1270500D01*
X38335230Y1250498D01*
X38357110Y1230370D01*
X38357998Y1231258D01*
X38363840Y1225416D01*
X38368866Y1218866D01*
X38375416Y1213840D01*
X38375419Y1213837D01*
X38488589Y1126998D01*
X38495142Y1121970D01*
X38502772Y1118810D01*
X38502773Y1118809D01*
X38634566Y1064219D01*
X38634570Y1064218D01*
X38642194Y1061060D01*
X38716882Y1051227D01*
X38782947Y1021529D01*
X38800000Y1006753D01*
X38800000Y1000000D01*
X38970000Y1000000D01*
X39038121Y979998D01*
X39084614Y926342D01*
X39096000Y874000D01*
X39096000Y380000D01*
X39075998Y311879D01*
X39022342Y265386D01*
X38970000Y254000D01*
X3555312Y254000D01*
X3487191Y274002D01*
X3440698Y327658D01*
X3430594Y397932D01*
X3460088Y462512D01*
X3491875Y486789D01*
X3491175Y487873D01*
X3497838Y492176D01*
X3504986Y495608D01*
X3509262Y499203D01*
X3511185Y501126D01*
X3513117Y502898D01*
X3513196Y502941D01*
X3513309Y502817D01*
X3513849Y503293D01*
X3519568Y506379D01*
X3556171Y545976D01*
X3559600Y549541D01*
X5327567Y2317508D01*
X5389879Y2351534D01*
X5460694Y2346469D01*
X5517530Y2303922D01*
X5542341Y2237402D01*
X5527250Y2168028D01*
X5522574Y2160159D01*
X5464146Y2069497D01*
X5461735Y2062874D01*
X5461734Y2062871D01*
X5409023Y1918048D01*
X5409022Y1918043D01*
X5406613Y1911425D01*
X5385530Y1744535D01*
X5401945Y1577121D01*
X5455042Y1417505D01*
X5458691Y1411480D01*
X5500884Y1341812D01*
X5542183Y1273619D01*
X5547074Y1268554D01*
X5547075Y1268553D01*
X5595057Y1218866D01*
X5659036Y1152614D01*
X5664928Y1148759D01*
X5664932Y1148755D01*
X5773079Y1077986D01*
X5799793Y1060505D01*
X5806397Y1058049D01*
X5806399Y1058048D01*
X5842366Y1044672D01*
X5957459Y1001869D01*
X6035136Y991505D01*
X6117217Y980552D01*
X6117221Y980552D01*
X6124198Y979621D01*
X6131209Y980259D01*
X6131213Y980259D01*
X6284701Y994228D01*
X6291722Y994867D01*
X6298424Y997045D01*
X6298426Y997045D01*
X6445005Y1044672D01*
X6451705Y1046849D01*
X6473738Y1059983D01*
X6590145Y1129375D01*
X6590147Y1129376D01*
X6596197Y1132983D01*
X6718014Y1248988D01*
X6811104Y1389100D01*
X6850114Y1491793D01*
X6868339Y1539770D01*
X6868340Y1539775D01*
X6870839Y1546353D01*
X6874257Y1570673D01*
X6893699Y1709009D01*
X6893699Y1709014D01*
X6894250Y1712932D01*
X6894544Y1734000D01*
X6875793Y1901168D01*
X6872967Y1909285D01*
X6834297Y2020327D01*
X6820472Y2060028D01*
X6816456Y2066456D01*
X6735064Y2196709D01*
X6731331Y2202683D01*
X6678667Y2255716D01*
X6644860Y2318147D01*
X6650172Y2388944D01*
X6692917Y2445631D01*
X6759523Y2470210D01*
X6768073Y2470500D01*
X8196080Y2470500D01*
X8220028Y2467951D01*
X8221693Y2467872D01*
X8231876Y2465680D01*
X8242217Y2466904D01*
X8265223Y2469627D01*
X8271154Y2469977D01*
X8271146Y2470072D01*
X8276324Y2470500D01*
X8281524Y2470500D01*
X8286653Y2471354D01*
X8286656Y2471354D01*
X8300565Y2473669D01*
X8306443Y2474506D01*
X8347001Y2479306D01*
X8347002Y2479306D01*
X8357341Y2480530D01*
X8365593Y2484493D01*
X8374626Y2485996D01*
X8383795Y2490943D01*
X8383797Y2490944D01*
X8419732Y2510334D01*
X8425025Y2513031D01*
X8464082Y2531785D01*
X8464086Y2531788D01*
X8471232Y2535219D01*
X8475508Y2538814D01*
X8477431Y2540737D01*
X8479363Y2542509D01*
X8479442Y2542552D01*
X8479555Y2542428D01*
X8480095Y2542904D01*
X8485814Y2545990D01*
X8522417Y2585587D01*
X8525846Y2589152D01*
X11292129Y5355435D01*
X11354441Y5389461D01*
X11425256Y5384396D01*
X11482092Y5341849D01*
X11506146Y5282788D01*
X11509772Y5255246D01*
X11565645Y5120358D01*
X11570672Y5113807D01*
X11644463Y5017640D01*
X11670063Y4951419D01*
X11670500Y4940936D01*
X11670500Y4603920D01*
X11667951Y4579972D01*
X11667872Y4578307D01*
X11665680Y4568124D01*
X11666904Y4557783D01*
X11669627Y4534777D01*
X11669977Y4528846D01*
X11670072Y4528854D01*
X11670500Y4523676D01*
X11670500Y4518476D01*
X11671354Y4513347D01*
X11671354Y4513344D01*
X11673669Y4499435D01*
X11674506Y4493557D01*
X11679126Y4454526D01*
X11680530Y4442659D01*
X11684493Y4434407D01*
X11685996Y4425374D01*
X11690943Y4416205D01*
X11690944Y4416203D01*
X11710334Y4380268D01*
X11713031Y4374975D01*
X11731785Y4335918D01*
X11731788Y4335914D01*
X11735219Y4328768D01*
X11738814Y4324492D01*
X11740737Y4322569D01*
X11742509Y4320637D01*
X11742552Y4320558D01*
X11742428Y4320445D01*
X11742904Y4319905D01*
X11745990Y4314186D01*
X11753635Y4307119D01*
X11785586Y4277584D01*
X11789152Y4274154D01*
X14256930Y1806376D01*
X14272072Y1787628D01*
X14273187Y1786403D01*
X14278837Y1777652D01*
X14287015Y1771205D01*
X14287017Y1771203D01*
X14305208Y1756863D01*
X14309649Y1752917D01*
X14309711Y1752990D01*
X14313675Y1749631D01*
X14317352Y1745954D01*
X14333100Y1734700D01*
X14337770Y1731194D01*
X14378055Y1699436D01*
X14386689Y1696404D01*
X14394142Y1691078D01*
X14443258Y1676389D01*
X14448900Y1674556D01*
X14489775Y1660202D01*
X14497259Y1657574D01*
X14502824Y1657092D01*
X14505532Y1657092D01*
X14508166Y1656978D01*
X14508264Y1656949D01*
X14508257Y1656785D01*
X14508961Y1656741D01*
X14515186Y1654879D01*
X14569043Y1656995D01*
X14573990Y1657092D01*
X17590938Y1657092D01*
X17659059Y1637090D01*
X17667626Y1631066D01*
X17770357Y1552237D01*
X17905246Y1496364D01*
X17913434Y1495286D01*
X17948155Y1490715D01*
X18050000Y1477307D01*
X18058188Y1478385D01*
X18186566Y1495286D01*
X18194754Y1496364D01*
X18329643Y1552237D01*
X18336196Y1557265D01*
X18438921Y1636089D01*
X18438924Y1636092D01*
X18445474Y1641118D01*
X18451904Y1649497D01*
X18519447Y1737522D01*
X18534355Y1756950D01*
X18543069Y1777986D01*
X18587069Y1884212D01*
X18590228Y1891838D01*
X18591457Y1901168D01*
X18608207Y2028404D01*
X18609285Y2036592D01*
X18593849Y2153841D01*
X18591306Y2173160D01*
X18591305Y2173162D01*
X18590228Y2181346D01*
X18555582Y2264988D01*
X18537515Y2308606D01*
X18537514Y2308608D01*
X18534355Y2316234D01*
X18489915Y2374150D01*
X18450501Y2425515D01*
X18450500Y2425516D01*
X18445474Y2432066D01*
X18438924Y2437092D01*
X18438921Y2437095D01*
X18336196Y2515919D01*
X18336194Y2515920D01*
X18329643Y2520947D01*
X18194754Y2576820D01*
X18050000Y2595877D01*
X18041812Y2594799D01*
X17913432Y2577898D01*
X17913430Y2577897D01*
X17905246Y2576820D01*
X17887152Y2569325D01*
X17777986Y2524107D01*
X17777984Y2524106D01*
X17770358Y2520947D01*
X17760042Y2513031D01*
X17667640Y2442129D01*
X17601419Y2416529D01*
X17590936Y2416092D01*
X14772792Y2416092D01*
X14704671Y2436094D01*
X14683697Y2452997D01*
X12466405Y4670289D01*
X12432379Y4732601D01*
X12429500Y4759384D01*
X12429500Y4940936D01*
X12449502Y5009057D01*
X12455537Y5017640D01*
X12529328Y5113807D01*
X12534355Y5120358D01*
X12590228Y5255246D01*
X12596711Y5304486D01*
X12607583Y5387069D01*
X12609285Y5400000D01*
X12595693Y5503245D01*
X12592427Y5528054D01*
X12603367Y5598203D01*
X12650495Y5651301D01*
X12717349Y5670500D01*
X13140616Y5670500D01*
X13208737Y5650498D01*
X13229711Y5633595D01*
X14607046Y4256260D01*
X14641072Y4193948D01*
X14642871Y4183620D01*
X14649718Y4131616D01*
X14657252Y4074391D01*
X14659772Y4055246D01*
X14671316Y4027377D01*
X14711332Y3930771D01*
X14715645Y3920358D01*
X14804526Y3804526D01*
X14811076Y3799500D01*
X14811079Y3799497D01*
X14913804Y3720673D01*
X14920357Y3715645D01*
X15055246Y3659772D01*
X15200000Y3640715D01*
X15208188Y3641793D01*
X15336566Y3658694D01*
X15344754Y3659772D01*
X15479643Y3715645D01*
X15486196Y3720673D01*
X15588921Y3799497D01*
X15588924Y3799500D01*
X15595474Y3804526D01*
X15684355Y3920358D01*
X15688669Y3930771D01*
X15728684Y4027377D01*
X15740228Y4055246D01*
X15742749Y4074391D01*
X15758207Y4191812D01*
X15759285Y4200000D01*
X15755814Y4226367D01*
X15741306Y4336568D01*
X15741305Y4336570D01*
X15740228Y4344754D01*
X15701907Y4437269D01*
X15687515Y4472014D01*
X15687514Y4472016D01*
X15684355Y4479642D01*
X15619773Y4563807D01*
X15600501Y4588923D01*
X15600500Y4588924D01*
X15595474Y4595474D01*
X15588924Y4600500D01*
X15588921Y4600503D01*
X15486196Y4679327D01*
X15486194Y4679328D01*
X15479643Y4684355D01*
X15344754Y4740228D01*
X15216388Y4757128D01*
X15151462Y4785849D01*
X15143740Y4792954D01*
X13943369Y5993325D01*
X13909343Y6055637D01*
X13914408Y6126452D01*
X13956955Y6183288D01*
X14017650Y6207546D01*
X14035219Y6209626D01*
X14041154Y6209976D01*
X14041146Y6210072D01*
X14046324Y6210500D01*
X14051524Y6210500D01*
X14056653Y6211354D01*
X14056656Y6211354D01*
X14070565Y6213669D01*
X14076443Y6214506D01*
X14117001Y6219306D01*
X14117002Y6219306D01*
X14127341Y6220530D01*
X14135593Y6224493D01*
X14144626Y6225996D01*
X14153796Y6230944D01*
X14153799Y6230945D01*
X14164430Y6236681D01*
X14224261Y6251793D01*
X14231811Y6251793D01*
X14240000Y6250715D01*
X14248188Y6251793D01*
X14279081Y6255860D01*
X14384754Y6269772D01*
X14398600Y6275507D01*
X14488002Y6312539D01*
X14519643Y6325645D01*
X14538648Y6340228D01*
X14628921Y6409497D01*
X14628924Y6409500D01*
X14635474Y6414526D01*
X14642445Y6423610D01*
X14703979Y6503804D01*
X14724355Y6530358D01*
X14733902Y6553405D01*
X14773704Y6649497D01*
X14780228Y6665246D01*
X14799285Y6810000D01*
X14793307Y6855405D01*
X14781306Y6946568D01*
X14781305Y6946570D01*
X14780228Y6954754D01*
X14741395Y7048504D01*
X14727515Y7082014D01*
X14727514Y7082016D01*
X14724355Y7089642D01*
X14665453Y7166405D01*
X14640501Y7198923D01*
X14640500Y7198924D01*
X14635474Y7205474D01*
X14628924Y7210500D01*
X14628921Y7210503D01*
X14526196Y7289327D01*
X14526194Y7289328D01*
X14519643Y7294355D01*
X14384754Y7350228D01*
X14240000Y7369285D01*
X14231812Y7368207D01*
X14103432Y7351306D01*
X14103430Y7351305D01*
X14095246Y7350228D01*
X14052071Y7332344D01*
X13967986Y7297515D01*
X13967984Y7297514D01*
X13960358Y7294355D01*
X13844526Y7205474D01*
X13755645Y7089642D01*
X13752486Y7082016D01*
X13752481Y7082007D01*
X13738097Y7047281D01*
X13693549Y6992000D01*
X13621689Y6969500D01*
X11293920Y6969500D01*
X11269972Y6972049D01*
X11268307Y6972128D01*
X11258124Y6974320D01*
X11247783Y6973096D01*
X11224777Y6970373D01*
X11218846Y6970023D01*
X11218854Y6969928D01*
X11213676Y6969500D01*
X11208476Y6969500D01*
X11203347Y6968646D01*
X11203344Y6968646D01*
X11189435Y6966331D01*
X11183557Y6965494D01*
X11142999Y6960694D01*
X11142998Y6960694D01*
X11132659Y6959470D01*
X11124407Y6955507D01*
X11115374Y6954004D01*
X11106205Y6949057D01*
X11106203Y6949056D01*
X11070268Y6929666D01*
X11064975Y6926969D01*
X11025918Y6908215D01*
X11025914Y6908212D01*
X11018768Y6904781D01*
X11014492Y6901186D01*
X11012569Y6899263D01*
X11010637Y6897491D01*
X11010558Y6897448D01*
X11010445Y6897572D01*
X11009905Y6897096D01*
X11004186Y6894010D01*
X10997119Y6886365D01*
X10967584Y6854414D01*
X10964154Y6850848D01*
X10454806Y6341500D01*
X10392494Y6307474D01*
X10321679Y6312539D01*
X10265748Y6353891D01*
X10200501Y6438923D01*
X10200500Y6438924D01*
X10195474Y6445474D01*
X10188924Y6450500D01*
X10188921Y6450503D01*
X10086196Y6529327D01*
X10086194Y6529328D01*
X10079643Y6534355D01*
X9944754Y6590228D01*
X9800000Y6609285D01*
X9791812Y6608207D01*
X9663432Y6591306D01*
X9663430Y6591305D01*
X9655246Y6590228D01*
X9608037Y6570673D01*
X9527986Y6537515D01*
X9527984Y6537514D01*
X9520358Y6534355D01*
X9513809Y6529330D01*
X9513806Y6529328D01*
X9495318Y6515141D01*
X9429098Y6489540D01*
X9359549Y6503804D01*
X9308752Y6553405D01*
X9292836Y6622594D01*
X9293691Y6631549D01*
X9308207Y6741812D01*
X9309285Y6750000D01*
X9301386Y6810000D01*
X9291306Y6886568D01*
X9291305Y6886570D01*
X9290228Y6894754D01*
X9266377Y6952336D01*
X9237515Y7022014D01*
X9237514Y7022016D01*
X9234355Y7029642D01*
X9183289Y7096193D01*
X9150501Y7138923D01*
X9150500Y7138924D01*
X9145474Y7145474D01*
X9095051Y7184165D01*
X9053185Y7241502D01*
X9048964Y7312373D01*
X9055348Y7332344D01*
X9087164Y7409155D01*
X9090324Y7416784D01*
X9093158Y7438306D01*
X9108303Y7553350D01*
X9109381Y7561538D01*
X9102099Y7616852D01*
X9091402Y7698106D01*
X9091401Y7698108D01*
X9090324Y7706292D01*
X9045028Y7815645D01*
X9037611Y7833552D01*
X9037610Y7833554D01*
X9034451Y7841180D01*
X8980817Y7911077D01*
X8950597Y7950461D01*
X8950596Y7950462D01*
X8945570Y7957012D01*
X8939020Y7962038D01*
X8939017Y7962041D01*
X8836292Y8040865D01*
X8836290Y8040866D01*
X8829739Y8045893D01*
X8712875Y8094300D01*
X8702479Y8098606D01*
X8694850Y8101766D01*
X8668417Y8105246D01*
X8558284Y8119745D01*
X8550096Y8120823D01*
X8541908Y8119745D01*
X8413528Y8102844D01*
X8413526Y8102843D01*
X8405342Y8101766D01*
X8392552Y8096468D01*
X8278082Y8049053D01*
X8278080Y8049052D01*
X8270454Y8045893D01*
X8247117Y8027986D01*
X8169057Y7968088D01*
X8154622Y7957012D01*
X8065741Y7841180D01*
X8062580Y7833550D01*
X8062580Y7833549D01*
X8059895Y7827068D01*
X8015345Y7771788D01*
X7943487Y7749289D01*
X6975233Y7749289D01*
X6907112Y7769291D01*
X6860619Y7822947D01*
X6850311Y7891735D01*
X6858207Y7951712D01*
X6859285Y7959900D01*
X6851326Y8020358D01*
X6841306Y8096468D01*
X6841305Y8096470D01*
X6840228Y8104654D01*
X6784355Y8239542D01*
X6719255Y8324382D01*
X6700501Y8348823D01*
X6700500Y8348824D01*
X6695474Y8355374D01*
X6688924Y8360400D01*
X6688921Y8360403D01*
X6586196Y8439227D01*
X6586194Y8439228D01*
X6579643Y8444255D01*
X6444754Y8500128D01*
X6300000Y8519185D01*
X6291812Y8518107D01*
X6163432Y8501206D01*
X6163430Y8501205D01*
X6155246Y8500128D01*
X6107430Y8480322D01*
X6027986Y8447415D01*
X6027984Y8447414D01*
X6020358Y8444255D01*
X5990737Y8421526D01*
X5917640Y8365437D01*
X5851419Y8339837D01*
X5840936Y8339400D01*
X4884185Y8339400D01*
X4860237Y8341949D01*
X4858572Y8342028D01*
X4848389Y8344220D01*
X4838048Y8342996D01*
X4815042Y8340273D01*
X4809111Y8339923D01*
X4809119Y8339828D01*
X4803941Y8339400D01*
X4798741Y8339400D01*
X4793612Y8338546D01*
X4793609Y8338546D01*
X4779700Y8336231D01*
X4773822Y8335394D01*
X4733264Y8330594D01*
X4733263Y8330594D01*
X4722924Y8329370D01*
X4714672Y8325407D01*
X4705639Y8323904D01*
X4696470Y8318957D01*
X4696468Y8318956D01*
X4660533Y8299566D01*
X4655240Y8296869D01*
X4616183Y8278115D01*
X4616179Y8278112D01*
X4609033Y8274681D01*
X4604757Y8271086D01*
X4602834Y8269163D01*
X4600902Y8267391D01*
X4600823Y8267348D01*
X4600710Y8267472D01*
X4600170Y8266996D01*
X4594451Y8263910D01*
X4587384Y8256265D01*
X4557849Y8224314D01*
X4554419Y8220748D01*
X3500076Y7166405D01*
X3437764Y7132379D01*
X3410981Y7129500D01*
X1082891Y7129500D01*
X1014770Y7149502D01*
X992890Y7169630D01*
X992002Y7168742D01*
X986160Y7174584D01*
X981134Y7181134D01*
X974584Y7186160D01*
X974581Y7186163D01*
X861411Y7273002D01*
X861409Y7273003D01*
X854858Y7278030D01*
X828729Y7288853D01*
X715434Y7335781D01*
X715430Y7335782D01*
X707806Y7338940D01*
X633118Y7348773D01*
X567053Y7378471D01*
X550000Y7393247D01*
X550000Y7400000D01*
X380000Y7400000D01*
X311879Y7420002D01*
X265386Y7473658D01*
X254000Y7526000D01*
X254000Y9524000D01*
X274002Y9592121D01*
X327658Y9638614D01*
X380000Y9650000D01*
X550000Y9650000D01*
X550000Y9657794D01*
X550442Y9658304D01*
X610168Y9696688D01*
X629219Y9700714D01*
X646809Y9703029D01*
X699621Y9709982D01*
X699624Y9709983D01*
X707806Y9711060D01*
X715430Y9714218D01*
X715434Y9714219D01*
X847227Y9768809D01*
X847228Y9768810D01*
X854858Y9771970D01*
X981134Y9868866D01*
X1068037Y9982119D01*
X1073002Y9988589D01*
X1073003Y9988591D01*
X1078030Y9995142D01*
X1081603Y10003768D01*
X1135781Y10134566D01*
X1135782Y10134570D01*
X1138940Y10142194D01*
X1159716Y10300000D01*
X1158638Y10308188D01*
X1158638Y10316446D01*
X1161441Y10316446D01*
X1170267Y10373065D01*
X1195158Y10408464D01*
X1320289Y10533595D01*
X1382601Y10567621D01*
X1409384Y10570500D01*
X5740938Y10570500D01*
X5809059Y10550498D01*
X5817626Y10544474D01*
X5920357Y10465645D01*
X6055246Y10409772D01*
X6200000Y10390715D01*
X6208188Y10391793D01*
X6336566Y10408694D01*
X6344754Y10409772D01*
X6479643Y10465645D01*
X6486196Y10470673D01*
X6588921Y10549497D01*
X6588924Y10549500D01*
X6595474Y10554526D01*
X6607174Y10569773D01*
X6665966Y10646393D01*
X6684355Y10670358D01*
X6691070Y10686568D01*
X6737069Y10797620D01*
X6740228Y10805246D01*
X6741602Y10815677D01*
X6758207Y10941812D01*
X6759285Y10950000D01*
X6750650Y11015593D01*
X6741306Y11086568D01*
X6741305Y11086570D01*
X6740228Y11094754D01*
X6700479Y11190715D01*
X6687515Y11222014D01*
X6687514Y11222016D01*
X6684355Y11229642D01*
X6595474Y11345474D01*
X6588924Y11350500D01*
X6588921Y11350503D01*
X6486196Y11429327D01*
X6486194Y11429328D01*
X6479643Y11434355D01*
X6344754Y11490228D01*
X6200000Y11509285D01*
X6191812Y11508207D01*
X6063432Y11491306D01*
X6063430Y11491305D01*
X6055246Y11490228D01*
X6007430Y11470422D01*
X5927986Y11437515D01*
X5927984Y11437514D01*
X5920358Y11434355D01*
X5882657Y11405426D01*
X5817640Y11355537D01*
X5751419Y11329937D01*
X5740936Y11329500D01*
X1266331Y11329500D01*
X1198210Y11349502D01*
X1151717Y11403158D01*
X1141409Y11439052D01*
X1141093Y11441454D01*
X1138940Y11457806D01*
X1090885Y11573823D01*
X1081191Y11597227D01*
X1081190Y11597228D01*
X1078030Y11604858D01*
X1040541Y11653715D01*
X986160Y11724584D01*
X981134Y11731134D01*
X935189Y11766389D01*
X861411Y11823002D01*
X861409Y11823003D01*
X854858Y11828030D01*
X847227Y11831191D01*
X715434Y11885781D01*
X715430Y11885782D01*
X707806Y11888940D01*
X633118Y11898773D01*
X567053Y11928471D01*
X550000Y11943247D01*
X550000Y11950000D01*
X380000Y11950000D01*
X311879Y11970002D01*
X265386Y12023658D01*
X254000Y12076000D01*
X254000Y12310000D01*
X3080715Y12310000D01*
X3081793Y12301812D01*
X3097830Y12180000D01*
X3099772Y12165246D01*
X3115342Y12127658D01*
X3143114Y12060611D01*
X3155645Y12030358D01*
X3170257Y12011315D01*
X3233826Y11928471D01*
X3244526Y11914526D01*
X3251076Y11909500D01*
X3251079Y11909497D01*
X3306994Y11866592D01*
X3360357Y11825645D01*
X3495246Y11769772D01*
X3640000Y11750715D01*
X3648188Y11751793D01*
X3776566Y11768694D01*
X3784754Y11769772D01*
X3919643Y11825645D01*
X3973006Y11866592D01*
X4028921Y11909497D01*
X4028924Y11909500D01*
X4035474Y11914526D01*
X4040501Y11921077D01*
X4040505Y11921081D01*
X4109744Y12011315D01*
X4167082Y12053182D01*
X4209706Y12060611D01*
X10200505Y12060611D01*
X10268626Y12040609D01*
X10289600Y12023706D01*
X13015322Y9297984D01*
X13030464Y9279236D01*
X13031579Y9278011D01*
X13037229Y9269260D01*
X13045407Y9262813D01*
X13045409Y9262811D01*
X13063600Y9248471D01*
X13068041Y9244525D01*
X13068103Y9244598D01*
X13072067Y9241239D01*
X13075744Y9237562D01*
X13091492Y9226308D01*
X13096162Y9222802D01*
X13136447Y9191044D01*
X13145081Y9188012D01*
X13152534Y9182686D01*
X13201650Y9167997D01*
X13207292Y9166164D01*
X13248167Y9151810D01*
X13255651Y9149182D01*
X13261216Y9148700D01*
X13263924Y9148700D01*
X13266558Y9148586D01*
X13266656Y9148557D01*
X13266649Y9148393D01*
X13267353Y9148349D01*
X13273578Y9146487D01*
X13327435Y9148603D01*
X13332382Y9148700D01*
X13689519Y9148700D01*
X13757640Y9128698D01*
X13804133Y9075042D01*
X13814237Y9004768D01*
X13805928Y8974482D01*
X13761732Y8867783D01*
X13758572Y8860154D01*
X13757495Y8851970D01*
X13757494Y8851968D01*
X13752891Y8817000D01*
X13739515Y8715400D01*
X13740593Y8707212D01*
X13757388Y8579642D01*
X13758572Y8570646D01*
X13772843Y8536193D01*
X13810719Y8444754D01*
X13814445Y8435758D01*
X13852190Y8386568D01*
X13888055Y8339828D01*
X13903326Y8319926D01*
X13909876Y8314900D01*
X13909879Y8314897D01*
X14012604Y8236073D01*
X14019157Y8231045D01*
X14154046Y8175172D01*
X14298800Y8156115D01*
X14306988Y8157193D01*
X14435366Y8174094D01*
X14443554Y8175172D01*
X14578443Y8231045D01*
X14681160Y8309863D01*
X14747378Y8335463D01*
X14757862Y8335900D01*
X16050216Y8335900D01*
X16118337Y8315898D01*
X16139311Y8298995D01*
X20328898Y4109408D01*
X20359655Y4056138D01*
X20359772Y4055246D01*
X20362931Y4047620D01*
X20362932Y4047617D01*
X20411332Y3930771D01*
X20415645Y3920358D01*
X20504526Y3804526D01*
X20511076Y3799500D01*
X20511079Y3799497D01*
X20613804Y3720673D01*
X20620357Y3715645D01*
X20755246Y3659772D01*
X20900000Y3640715D01*
X20908188Y3641793D01*
X21036566Y3658694D01*
X21044754Y3659772D01*
X21179643Y3715645D01*
X21186196Y3720673D01*
X21288921Y3799497D01*
X21288924Y3799500D01*
X21295474Y3804526D01*
X21300501Y3811077D01*
X21304675Y3815251D01*
X21366988Y3849274D01*
X21437803Y3844208D01*
X21494638Y3801660D01*
X21518895Y3740959D01*
X21519627Y3734773D01*
X21519976Y3728846D01*
X21520072Y3728854D01*
X21520500Y3723676D01*
X21520500Y3718476D01*
X21521354Y3713347D01*
X21521354Y3713344D01*
X21523669Y3699435D01*
X21524506Y3693557D01*
X21528505Y3659772D01*
X21530530Y3642659D01*
X21534493Y3634407D01*
X21535996Y3625374D01*
X21540943Y3616205D01*
X21540944Y3616203D01*
X21560334Y3580268D01*
X21563031Y3574975D01*
X21581785Y3535918D01*
X21581788Y3535914D01*
X21585219Y3528768D01*
X21588814Y3524492D01*
X21590737Y3522569D01*
X21592509Y3520637D01*
X21592552Y3520558D01*
X21592428Y3520445D01*
X21592904Y3519905D01*
X21595990Y3514186D01*
X21603635Y3507119D01*
X21635586Y3477584D01*
X21639152Y3474154D01*
X23007046Y2106260D01*
X23041072Y2043948D01*
X23042871Y2033620D01*
X23047790Y1996259D01*
X23058087Y1918048D01*
X23059772Y1905246D01*
X23064360Y1894169D01*
X23110674Y1782360D01*
X23115645Y1770358D01*
X23145718Y1731166D01*
X23190700Y1672545D01*
X23204526Y1654526D01*
X23211076Y1649500D01*
X23211079Y1649497D01*
X23313804Y1570673D01*
X23320357Y1565645D01*
X23455246Y1509772D01*
X23600000Y1490715D01*
X23608188Y1491793D01*
X23630680Y1494754D01*
X23744754Y1509772D01*
X23879643Y1565645D01*
X23886196Y1570673D01*
X23988921Y1649497D01*
X23988924Y1649500D01*
X23995474Y1654526D01*
X24009301Y1672545D01*
X24054282Y1731166D01*
X24084355Y1770358D01*
X24089327Y1782360D01*
X24135640Y1894169D01*
X24140228Y1905246D01*
X24141914Y1918048D01*
X24156586Y2029500D01*
X24159285Y2050000D01*
X24144783Y2160158D01*
X24141306Y2186568D01*
X24141305Y2186570D01*
X24140228Y2194754D01*
X24120422Y2242570D01*
X24087515Y2322014D01*
X24087514Y2322016D01*
X24084355Y2329642D01*
X24030959Y2399229D01*
X24000501Y2438923D01*
X24000500Y2438924D01*
X23995474Y2445474D01*
X23988924Y2450500D01*
X23988921Y2450503D01*
X23886196Y2529327D01*
X23886194Y2529328D01*
X23879643Y2534355D01*
X23744754Y2590228D01*
X23616388Y2607128D01*
X23551462Y2635849D01*
X23543740Y2642954D01*
X22316405Y3870289D01*
X22282379Y3932601D01*
X22279500Y3959384D01*
X22279500Y4850000D01*
X23340715Y4850000D01*
X23341793Y4841812D01*
X23358089Y4718032D01*
X23359772Y4705246D01*
X23370508Y4679327D01*
X23411663Y4579972D01*
X23415645Y4570358D01*
X23420672Y4563807D01*
X23495970Y4465677D01*
X23504526Y4454526D01*
X23511076Y4449500D01*
X23511079Y4449497D01*
X23613804Y4370673D01*
X23620357Y4365645D01*
X23755246Y4309772D01*
X23900000Y4290715D01*
X23908188Y4291793D01*
X23951956Y4297555D01*
X24044754Y4309772D01*
X24179643Y4365645D01*
X24187153Y4371407D01*
X24280009Y4442659D01*
X24288353Y4449062D01*
X24354573Y4474663D01*
X24365057Y4475100D01*
X26768338Y4475100D01*
X26836459Y4455098D01*
X26845026Y4449074D01*
X26947757Y4370245D01*
X27034304Y4334396D01*
X27067985Y4320445D01*
X27082646Y4314372D01*
X27227400Y4295315D01*
X27235588Y4296393D01*
X27244415Y4297555D01*
X27372154Y4314372D01*
X27386816Y4320445D01*
X27420496Y4334396D01*
X27507043Y4370245D01*
X27516695Y4377651D01*
X27616321Y4454097D01*
X27616324Y4454100D01*
X27622874Y4459126D01*
X27632764Y4472014D01*
X27699127Y4558501D01*
X27711755Y4574958D01*
X27718198Y4590511D01*
X27764469Y4702220D01*
X27767628Y4709846D01*
X27768724Y4718166D01*
X27785607Y4846412D01*
X27786685Y4854600D01*
X27781187Y4896365D01*
X27768706Y4991168D01*
X27768705Y4991170D01*
X27767628Y4999354D01*
X27725528Y5100991D01*
X27714915Y5126614D01*
X27714914Y5126616D01*
X27711755Y5134242D01*
X27634796Y5234537D01*
X27627901Y5243523D01*
X27627900Y5243524D01*
X27622874Y5250074D01*
X27616324Y5255100D01*
X27616321Y5255103D01*
X27513596Y5333927D01*
X27513594Y5333928D01*
X27507043Y5338955D01*
X27372154Y5394828D01*
X27328957Y5400515D01*
X27299777Y5404357D01*
X27227400Y5413885D01*
X27219212Y5412807D01*
X27090832Y5395906D01*
X27090830Y5395905D01*
X27082646Y5394828D01*
X27063912Y5387068D01*
X26955386Y5342115D01*
X26955384Y5342114D01*
X26947758Y5338955D01*
X26913262Y5312485D01*
X26845040Y5260137D01*
X26778819Y5234537D01*
X26768336Y5234100D01*
X24353068Y5234100D01*
X24284947Y5254102D01*
X24276364Y5260138D01*
X24224415Y5300000D01*
X24179643Y5334355D01*
X24044754Y5390228D01*
X24033809Y5391669D01*
X23966616Y5400515D01*
X23900000Y5409285D01*
X23891812Y5408207D01*
X23763432Y5391306D01*
X23763430Y5391305D01*
X23755246Y5390228D01*
X23707430Y5370422D01*
X23627986Y5337515D01*
X23627984Y5337514D01*
X23620358Y5334355D01*
X23590424Y5311386D01*
X23514741Y5253312D01*
X23504526Y5245474D01*
X23415645Y5129642D01*
X23412486Y5122016D01*
X23412485Y5122014D01*
X23384895Y5055405D01*
X23359772Y4994754D01*
X23358695Y4986570D01*
X23358694Y4986568D01*
X23349243Y4914781D01*
X23340715Y4850000D01*
X22279500Y4850000D01*
X22279500Y6990936D01*
X22299502Y7059057D01*
X22305537Y7067640D01*
X22358878Y7137156D01*
X22384355Y7170358D01*
X22388113Y7179429D01*
X22433634Y7289328D01*
X22440228Y7305246D01*
X22443108Y7327118D01*
X22458207Y7441812D01*
X22459285Y7450000D01*
X22447393Y7540333D01*
X22441306Y7586568D01*
X22441305Y7586570D01*
X22440228Y7594754D01*
X22390868Y7713918D01*
X22387515Y7722014D01*
X22387514Y7722016D01*
X22384355Y7729642D01*
X22320787Y7812485D01*
X22300501Y7838923D01*
X22300500Y7838924D01*
X22295474Y7845474D01*
X22288924Y7850500D01*
X22288921Y7850503D01*
X22186196Y7929327D01*
X22186194Y7929328D01*
X22179643Y7934355D01*
X22114022Y7961536D01*
X22058742Y8006085D01*
X22036321Y8073448D01*
X22039820Y8104260D01*
X22040228Y8105246D01*
X22059285Y8250000D01*
X22053115Y8296869D01*
X22041306Y8386568D01*
X22041305Y8386570D01*
X22040228Y8394754D01*
X21989133Y8518107D01*
X21987515Y8522014D01*
X21987514Y8522016D01*
X21984355Y8529642D01*
X21895474Y8645474D01*
X21888924Y8650500D01*
X21888921Y8650503D01*
X21786196Y8729327D01*
X21786194Y8729328D01*
X21779643Y8734355D01*
X21644754Y8790228D01*
X21500000Y8809285D01*
X21491812Y8808207D01*
X21363432Y8791306D01*
X21363430Y8791305D01*
X21355246Y8790228D01*
X21307430Y8770422D01*
X21227986Y8737515D01*
X21227984Y8737514D01*
X21220358Y8734355D01*
X21185661Y8707731D01*
X21117640Y8655537D01*
X21051419Y8629937D01*
X21040936Y8629500D01*
X19609384Y8629500D01*
X19541263Y8649502D01*
X19520289Y8666405D01*
X16856478Y11330216D01*
X16841336Y11348964D01*
X16840221Y11350189D01*
X16834571Y11358940D01*
X16826393Y11365387D01*
X16826391Y11365389D01*
X16808200Y11379729D01*
X16803759Y11383675D01*
X16803697Y11383602D01*
X16799733Y11386961D01*
X16796056Y11390638D01*
X16780308Y11401892D01*
X16775638Y11405398D01*
X16735353Y11437156D01*
X16726719Y11440188D01*
X16719266Y11445514D01*
X16670150Y11460203D01*
X16664508Y11462036D01*
X16623633Y11476390D01*
X16623632Y11476390D01*
X16616149Y11479018D01*
X16610584Y11479500D01*
X16607876Y11479500D01*
X16605242Y11479614D01*
X16605144Y11479643D01*
X16605151Y11479807D01*
X16604447Y11479851D01*
X16598222Y11481713D01*
X16544365Y11479597D01*
X16539418Y11479500D01*
X14759062Y11479500D01*
X14690941Y11499502D01*
X14682379Y11505522D01*
X14593363Y11573827D01*
X14551499Y11631161D01*
X14547277Y11702032D01*
X14580975Y11762881D01*
X14901689Y12083595D01*
X14964001Y12117621D01*
X14990784Y12120500D01*
X15490938Y12120500D01*
X15559059Y12100498D01*
X15567626Y12094474D01*
X15670357Y12015645D01*
X15805246Y11959772D01*
X15950000Y11940715D01*
X15958188Y11941793D01*
X16086566Y11958694D01*
X16094754Y11959772D01*
X16229643Y12015645D01*
X16236196Y12020673D01*
X16338921Y12099497D01*
X16338924Y12099500D01*
X16345474Y12104526D01*
X16376895Y12145474D01*
X16429328Y12213807D01*
X16434355Y12220358D01*
X16458982Y12279811D01*
X16487069Y12347620D01*
X16490228Y12355246D01*
X16493527Y12380299D01*
X16508207Y12491812D01*
X16509285Y12500000D01*
X16497439Y12589978D01*
X16491306Y12636568D01*
X16491305Y12636570D01*
X16490228Y12644754D01*
X16457221Y12724439D01*
X16437515Y12772014D01*
X16437514Y12772016D01*
X16434355Y12779642D01*
X16380367Y12850000D01*
X16350501Y12888923D01*
X16350500Y12888924D01*
X16345474Y12895474D01*
X16338924Y12900500D01*
X16338921Y12900503D01*
X16236196Y12979327D01*
X16236194Y12979328D01*
X16229643Y12984355D01*
X16094754Y13040228D01*
X15950000Y13059285D01*
X15941812Y13058207D01*
X15813432Y13041306D01*
X15813430Y13041305D01*
X15805246Y13040228D01*
X15757430Y13020422D01*
X15677986Y12987515D01*
X15677984Y12987514D01*
X15670358Y12984355D01*
X15648885Y12967878D01*
X15567640Y12905537D01*
X15501419Y12879937D01*
X15490936Y12879500D01*
X14835320Y12879500D01*
X14811373Y12882049D01*
X14809707Y12882128D01*
X14799524Y12884320D01*
X14789182Y12883096D01*
X14789179Y12883096D01*
X14766187Y12880374D01*
X14760246Y12880023D01*
X14760254Y12879928D01*
X14755074Y12879500D01*
X14749876Y12879500D01*
X14744754Y12878647D01*
X14744749Y12878647D01*
X14730827Y12876329D01*
X14724950Y12875492D01*
X14718449Y12874723D01*
X14684397Y12870693D01*
X14684395Y12870692D01*
X14674059Y12869469D01*
X14665810Y12865508D01*
X14656774Y12864004D01*
X14647605Y12859057D01*
X14647603Y12859056D01*
X14611640Y12839652D01*
X14606351Y12836957D01*
X14570081Y12819540D01*
X14560168Y12814780D01*
X14555892Y12811186D01*
X14553952Y12809246D01*
X14552041Y12807493D01*
X14551951Y12807444D01*
X14551839Y12807567D01*
X14551304Y12807095D01*
X14545586Y12804010D01*
X14538519Y12796365D01*
X14508984Y12764414D01*
X14505554Y12760848D01*
X13542260Y11797554D01*
X13479948Y11763528D01*
X13469620Y11761729D01*
X13403554Y11753031D01*
X13349432Y11745906D01*
X13349430Y11745905D01*
X13341246Y11744828D01*
X13320320Y11736160D01*
X13213986Y11692115D01*
X13213984Y11692114D01*
X13206358Y11688955D01*
X13090526Y11600074D01*
X13001645Y11484242D01*
X12998486Y11476616D01*
X12998485Y11476614D01*
X12982786Y11438713D01*
X12945772Y11349354D01*
X12944695Y11341170D01*
X12944694Y11341168D01*
X12934752Y11265645D01*
X12926715Y11204600D01*
X12927793Y11196412D01*
X12940154Y11102522D01*
X12945772Y11059846D01*
X12948931Y11052220D01*
X12996722Y10936844D01*
X13001645Y10924958D01*
X13027921Y10890715D01*
X13080637Y10822014D01*
X13090526Y10809126D01*
X13097076Y10804100D01*
X13097079Y10804097D01*
X13176955Y10742806D01*
X13206357Y10720245D01*
X13341246Y10664372D01*
X13486000Y10645315D01*
X13630754Y10664372D01*
X13634085Y10665752D01*
X13702904Y10664113D01*
X13761700Y10624319D01*
X13789648Y10559055D01*
X13780948Y10495878D01*
X13774652Y10480678D01*
X13759772Y10444754D01*
X13758695Y10436570D01*
X13758694Y10436568D01*
X13752658Y10390715D01*
X13740715Y10300000D01*
X13741793Y10291812D01*
X13758359Y10165982D01*
X13759772Y10155246D01*
X13762932Y10147617D01*
X13790145Y10081918D01*
X13797734Y10011328D01*
X13765955Y9947841D01*
X13704897Y9911614D01*
X13673736Y9907700D01*
X13531184Y9907700D01*
X13463063Y9927702D01*
X13442089Y9944605D01*
X10716367Y12670327D01*
X10701225Y12689075D01*
X10700110Y12690300D01*
X10694460Y12699051D01*
X10686282Y12705498D01*
X10686280Y12705500D01*
X10668089Y12719840D01*
X10663648Y12723786D01*
X10663586Y12723713D01*
X10659622Y12727072D01*
X10655945Y12730749D01*
X10640197Y12742003D01*
X10635527Y12745509D01*
X10595242Y12777267D01*
X10586608Y12780299D01*
X10579155Y12785625D01*
X10530039Y12800314D01*
X10524397Y12802147D01*
X10483522Y12816501D01*
X10483521Y12816501D01*
X10476038Y12819129D01*
X10470473Y12819611D01*
X10467765Y12819611D01*
X10465131Y12819725D01*
X10465033Y12819754D01*
X10465040Y12819918D01*
X10464336Y12819962D01*
X10458111Y12821824D01*
X10404254Y12819708D01*
X10399307Y12819611D01*
X3883733Y12819611D01*
X3835515Y12829202D01*
X3814529Y12837895D01*
X3784754Y12850228D01*
X3640000Y12869285D01*
X3617045Y12866263D01*
X3503432Y12851306D01*
X3503430Y12851305D01*
X3495246Y12850228D01*
X3474928Y12841812D01*
X3367986Y12797515D01*
X3367984Y12797514D01*
X3360358Y12794355D01*
X3244526Y12705474D01*
X3155645Y12589642D01*
X3152486Y12582016D01*
X3152485Y12582014D01*
X3144834Y12563543D01*
X3099772Y12454754D01*
X3098695Y12446570D01*
X3098694Y12446568D01*
X3089970Y12380299D01*
X3080715Y12310000D01*
X254000Y12310000D01*
X254000Y14720000D01*
X274002Y14788121D01*
X327658Y14834614D01*
X380000Y14846000D01*
X12017514Y14846000D01*
X12085635Y14825998D01*
G37*
G04 #@! TD.AperFunction*
G04 #@! TA.AperFunction,Conductor*
G36*
X4020027Y5917951D02*
G01*
X4021693Y5917872D01*
X4031876Y5915680D01*
X4036002Y5916168D01*
X4099656Y5894170D01*
X4143569Y5838383D01*
X4150350Y5767711D01*
X4115711Y5702405D01*
X2872549Y4459243D01*
X2810237Y4425217D01*
X2739422Y4430282D01*
X2694358Y4459243D01*
X2618825Y4534777D01*
X2503149Y4650453D01*
X2490475Y4666146D01*
X2487656Y4669244D01*
X2482008Y4677991D01*
X2457616Y4697220D01*
X2453586Y4700801D01*
X2453503Y4700703D01*
X2449546Y4704056D01*
X2445865Y4707737D01*
X2437896Y4713432D01*
X2431272Y4718166D01*
X2426527Y4721729D01*
X2397088Y4744937D01*
X2397086Y4744938D01*
X2388908Y4751385D01*
X2380803Y4754231D01*
X2373812Y4759227D01*
X2327921Y4772951D01*
X2322276Y4774785D01*
X2284536Y4788038D01*
X2284533Y4788039D01*
X2277054Y4790665D01*
X2271835Y4791117D01*
X2269124Y4791117D01*
X2266847Y4791215D01*
X2266398Y4791350D01*
X2266400Y4791404D01*
X2266167Y4791419D01*
X2260231Y4793194D01*
X2210368Y4791235D01*
X2209833Y4791214D01*
X2204887Y4791117D01*
X1919803Y4791117D01*
X1851682Y4811119D01*
X1833196Y4826017D01*
X1829763Y4830491D01*
X1713932Y4919372D01*
X1706310Y4922529D01*
X1706305Y4922532D01*
X1688596Y4929867D01*
X1633315Y4974416D01*
X1610894Y5041779D01*
X1611892Y5062722D01*
X1617607Y5106133D01*
X1617607Y5106134D01*
X1618685Y5114322D01*
X1615133Y5141306D01*
X1600706Y5250890D01*
X1600705Y5250892D01*
X1599628Y5259076D01*
X1570528Y5329328D01*
X1546915Y5386336D01*
X1546914Y5386338D01*
X1543755Y5393964D01*
X1454874Y5509796D01*
X1448324Y5514822D01*
X1448321Y5514825D01*
X1345596Y5593649D01*
X1345594Y5593650D01*
X1339043Y5598677D01*
X1236420Y5641185D01*
X1181139Y5685733D01*
X1160968Y5750152D01*
X1159718Y5749987D01*
X1159333Y5752909D01*
X1159590Y5754555D01*
X1158773Y5757163D01*
X1158638Y5758188D01*
X1158638Y5766446D01*
X1161443Y5766446D01*
X1170265Y5823059D01*
X1195158Y5858463D01*
X1220290Y5883595D01*
X1282602Y5917621D01*
X1309385Y5920500D01*
X3996080Y5920500D01*
X4020027Y5917951D01*
G37*
G04 #@! TD.AperFunction*
G04 #@! TA.AperFunction,Conductor*
G36*
X39038121Y14825998D02*
G01*
X39084614Y14772342D01*
X39096000Y14720000D01*
X39096000Y5426000D01*
X39075998Y5357879D01*
X39022342Y5311386D01*
X38970000Y5300000D01*
X38800000Y5300000D01*
X38800000Y5292206D01*
X38799558Y5291696D01*
X38739832Y5253312D01*
X38720781Y5249286D01*
X38708124Y5247620D01*
X38650379Y5240018D01*
X38650376Y5240017D01*
X38642194Y5238940D01*
X38634570Y5235782D01*
X38634566Y5235781D01*
X38520496Y5188532D01*
X38495142Y5178030D01*
X38488591Y5173003D01*
X38488589Y5173002D01*
X38375419Y5086163D01*
X38375416Y5086160D01*
X38368866Y5081134D01*
X38363840Y5074584D01*
X38357998Y5068742D01*
X38356017Y5070723D01*
X38309726Y5036926D01*
X38267109Y5029500D01*
X34845746Y5029500D01*
X34777625Y5049502D01*
X34756651Y5066405D01*
X32628302Y7194754D01*
X30492150Y9330905D01*
X30458124Y9393217D01*
X30463189Y9464032D01*
X30505736Y9520868D01*
X30572256Y9545679D01*
X30581245Y9546000D01*
X38001000Y9546000D01*
X38003448Y9546193D01*
X38003456Y9546193D01*
X38023518Y9547772D01*
X38040731Y9549127D01*
X38043166Y9549513D01*
X38043169Y9549513D01*
X38070108Y9553779D01*
X38070129Y9553783D01*
X38071324Y9553972D01*
X38072515Y9554209D01*
X38072527Y9554211D01*
X38083600Y9556413D01*
X38083603Y9556414D01*
X38090889Y9557863D01*
X38180891Y9599355D01*
X38230391Y9635319D01*
X38274237Y9675850D01*
X38282321Y9690284D01*
X38319636Y9756917D01*
X38322662Y9762320D01*
X38330726Y9787140D01*
X38340038Y9815798D01*
X38340039Y9815802D01*
X38341569Y9820511D01*
X38343356Y9831789D01*
X38350265Y9875416D01*
X38354000Y9899000D01*
X38354000Y11701000D01*
X38350873Y11740731D01*
X38350224Y11744828D01*
X38346221Y11770108D01*
X38346217Y11770129D01*
X38346028Y11771324D01*
X38342137Y11790889D01*
X38300645Y11880891D01*
X38264681Y11930391D01*
X38224150Y11974237D01*
X38137680Y12022662D01*
X38126895Y12026166D01*
X38084202Y12040038D01*
X38084198Y12040039D01*
X38079489Y12041569D01*
X38074603Y12042343D01*
X38074598Y12042344D01*
X38030855Y12049272D01*
X38001000Y12054000D01*
X37073000Y12054000D01*
X37004879Y12074002D01*
X36958386Y12127658D01*
X36947000Y12180000D01*
X36946999Y14118877D01*
X36946999Y14125066D01*
X36937918Y14170723D01*
X36934656Y14187126D01*
X36934655Y14187128D01*
X36932234Y14199301D01*
X36917058Y14222014D01*
X36882877Y14273168D01*
X36875984Y14283484D01*
X36791801Y14339734D01*
X36717567Y14354500D01*
X35740159Y14354500D01*
X34762434Y14354499D01*
X34726682Y14347388D01*
X34700374Y14342156D01*
X34700372Y14342155D01*
X34688199Y14339734D01*
X34677879Y14332839D01*
X34677878Y14332838D01*
X34619491Y14293824D01*
X34604016Y14283484D01*
X34547766Y14199301D01*
X34533000Y14125067D01*
X34533000Y13713480D01*
X34512998Y13645359D01*
X34459342Y13598866D01*
X34389068Y13588762D01*
X34324488Y13618256D01*
X34293274Y13659236D01*
X34245532Y13759330D01*
X34245531Y13759332D01*
X34243115Y13764397D01*
X34239837Y13768959D01*
X34120663Y13934807D01*
X34120661Y13934809D01*
X34117386Y13939367D01*
X33977839Y14074598D01*
X33966693Y14085399D01*
X33966691Y14085400D01*
X33962660Y14089307D01*
X33864304Y14155399D01*
X33788488Y14206346D01*
X33788487Y14206346D01*
X33783827Y14209478D01*
X33586540Y14296081D01*
X33404710Y14339734D01*
X33382492Y14345068D01*
X33382491Y14345068D01*
X33377035Y14346378D01*
X33293078Y14351219D01*
X33167541Y14358458D01*
X33167538Y14358458D01*
X33161934Y14358781D01*
X32948036Y14332897D01*
X32862743Y14306657D01*
X32747465Y14271193D01*
X32747461Y14271191D01*
X32742103Y14269543D01*
X32737123Y14266973D01*
X32737119Y14266971D01*
X32582427Y14187128D01*
X32550643Y14170723D01*
X32425370Y14074598D01*
X32420674Y14070995D01*
X32354453Y14045395D01*
X32284904Y14059660D01*
X32234109Y14109261D01*
X32229545Y14118206D01*
X32203239Y14175266D01*
X32203235Y14175272D01*
X32200645Y14180891D01*
X32164681Y14230391D01*
X32124150Y14274237D01*
X32101239Y14287068D01*
X32065420Y14307127D01*
X32037680Y14322662D01*
X32006358Y14332839D01*
X31984202Y14340038D01*
X31984198Y14340039D01*
X31979489Y14341569D01*
X31974603Y14342343D01*
X31974598Y14342344D01*
X31923181Y14350487D01*
X31901000Y14354000D01*
X30708477Y14354000D01*
X30701224Y14354209D01*
X30627541Y14358458D01*
X30627538Y14358458D01*
X30621934Y14358781D01*
X30589970Y14354913D01*
X30574833Y14354000D01*
X29899000Y14354000D01*
X29896552Y14353807D01*
X29896544Y14353807D01*
X29876482Y14352228D01*
X29859269Y14350873D01*
X29856834Y14350487D01*
X29856831Y14350487D01*
X29829892Y14346221D01*
X29829871Y14346217D01*
X29828676Y14346028D01*
X29827485Y14345791D01*
X29827473Y14345789D01*
X29816400Y14343587D01*
X29816397Y14343586D01*
X29809111Y14342137D01*
X29719109Y14300645D01*
X29669609Y14264681D01*
X29625763Y14224150D01*
X29620919Y14215500D01*
X29620918Y14215499D01*
X29601537Y14180891D01*
X29577338Y14137680D01*
X29575423Y14131786D01*
X29565869Y14102380D01*
X29558431Y14079489D01*
X29557657Y14074603D01*
X29557656Y14074598D01*
X29552107Y14039561D01*
X29546000Y14001000D01*
X29546000Y13636963D01*
X29536907Y13589968D01*
X29499845Y13497772D01*
X29456152Y13286790D01*
X29453000Y13232122D01*
X29453000Y12997832D01*
X29453249Y12995045D01*
X29453249Y12995039D01*
X29455673Y12967878D01*
X29467274Y12837895D01*
X29468755Y12832481D01*
X29468756Y12832476D01*
X29495760Y12733767D01*
X29524128Y12630073D01*
X29526540Y12625015D01*
X29526542Y12625011D01*
X29533726Y12609950D01*
X29546000Y12555706D01*
X29546000Y10464596D01*
X29525998Y10396475D01*
X29472342Y10349982D01*
X29402068Y10339878D01*
X29394974Y10341150D01*
X29387890Y10343638D01*
X29382325Y10344120D01*
X29379617Y10344120D01*
X29376983Y10344234D01*
X29376885Y10344263D01*
X29376892Y10344427D01*
X29376188Y10344471D01*
X29369963Y10346333D01*
X29316106Y10344217D01*
X29311159Y10344120D01*
X27944764Y10344120D01*
X27876643Y10364122D01*
X27855669Y10381025D01*
X27756016Y10480678D01*
X27721990Y10542990D01*
X27719111Y10569773D01*
X27719111Y11640306D01*
X27721660Y11664253D01*
X27721739Y11665919D01*
X27723931Y11676102D01*
X27722707Y11686444D01*
X27722707Y11686447D01*
X27719985Y11709439D01*
X27719634Y11715380D01*
X27719539Y11715372D01*
X27719111Y11720552D01*
X27719111Y11725750D01*
X27715940Y11744802D01*
X27715103Y11750679D01*
X27710304Y11791229D01*
X27710303Y11791231D01*
X27709080Y11801567D01*
X27705119Y11809816D01*
X27703615Y11818852D01*
X27697237Y11830673D01*
X27679263Y11863986D01*
X27676568Y11869275D01*
X27657823Y11908311D01*
X27654391Y11915458D01*
X27650797Y11919734D01*
X27648857Y11921674D01*
X27647104Y11923585D01*
X27647055Y11923675D01*
X27647178Y11923787D01*
X27646706Y11924322D01*
X27643621Y11930040D01*
X27604024Y11966643D01*
X27600459Y11970072D01*
X27300204Y12270327D01*
X27285062Y12289075D01*
X27283947Y12290300D01*
X27278297Y12299051D01*
X27270119Y12305498D01*
X27270117Y12305500D01*
X27251926Y12319840D01*
X27247485Y12323786D01*
X27247423Y12323713D01*
X27243459Y12327072D01*
X27239782Y12330749D01*
X27224034Y12342003D01*
X27219364Y12345509D01*
X27179079Y12377267D01*
X27170445Y12380299D01*
X27162992Y12385625D01*
X27113876Y12400314D01*
X27108234Y12402147D01*
X27067359Y12416501D01*
X27067358Y12416501D01*
X27059875Y12419129D01*
X27054310Y12419611D01*
X27051602Y12419611D01*
X27048968Y12419725D01*
X27048870Y12419754D01*
X27048877Y12419918D01*
X27048173Y12419962D01*
X27041948Y12421824D01*
X26988091Y12419708D01*
X26983144Y12419611D01*
X25260487Y12419611D01*
X25192366Y12439613D01*
X25145873Y12493269D01*
X25135769Y12563543D01*
X25144078Y12593829D01*
X25187068Y12697617D01*
X25187069Y12697620D01*
X25190228Y12705246D01*
X25192150Y12719840D01*
X25208207Y12841812D01*
X25209285Y12850000D01*
X25200963Y12913210D01*
X25191306Y12986568D01*
X25191305Y12986570D01*
X25190228Y12994754D01*
X25134355Y13129642D01*
X25064506Y13220671D01*
X25050501Y13238923D01*
X25050500Y13238924D01*
X25045474Y13245474D01*
X25038924Y13250500D01*
X25038921Y13250503D01*
X24936196Y13329327D01*
X24936194Y13329328D01*
X24929643Y13334355D01*
X24794754Y13390228D01*
X24666388Y13407128D01*
X24601462Y13435849D01*
X24593740Y13442954D01*
X24341178Y13695516D01*
X24307152Y13757828D01*
X24312217Y13828643D01*
X24354764Y13885479D01*
X24421284Y13910290D01*
X24430273Y13910611D01*
X27850505Y13910611D01*
X27918626Y13890609D01*
X27939600Y13873706D01*
X28007046Y13806260D01*
X28041072Y13743948D01*
X28042871Y13733620D01*
X28059772Y13605246D01*
X28062931Y13597620D01*
X28104290Y13497772D01*
X28115645Y13470358D01*
X28204526Y13354526D01*
X28211076Y13349500D01*
X28211079Y13349497D01*
X28313804Y13270673D01*
X28320357Y13265645D01*
X28455246Y13209772D01*
X28600000Y13190715D01*
X28608188Y13191793D01*
X28736566Y13208694D01*
X28744754Y13209772D01*
X28879643Y13265645D01*
X28886196Y13270673D01*
X28988921Y13349497D01*
X28988924Y13349500D01*
X28995474Y13354526D01*
X29084355Y13470358D01*
X29095711Y13497772D01*
X29137069Y13597620D01*
X29140228Y13605246D01*
X29151625Y13691812D01*
X29158207Y13741812D01*
X29159285Y13750000D01*
X29140228Y13894754D01*
X29084355Y14029642D01*
X29023261Y14109261D01*
X29000501Y14138923D01*
X29000500Y14138924D01*
X28995474Y14145474D01*
X28988924Y14150500D01*
X28988921Y14150503D01*
X28886196Y14229327D01*
X28886194Y14229328D01*
X28879643Y14234355D01*
X28744754Y14290228D01*
X28616388Y14307128D01*
X28551462Y14335849D01*
X28543740Y14342954D01*
X28366367Y14520327D01*
X28351225Y14539075D01*
X28350110Y14540300D01*
X28344460Y14549051D01*
X28336282Y14555498D01*
X28336280Y14555500D01*
X28318089Y14569840D01*
X28313648Y14573786D01*
X28313586Y14573713D01*
X28309622Y14577072D01*
X28305945Y14580749D01*
X28290197Y14592003D01*
X28285533Y14595504D01*
X28253125Y14621052D01*
X28212014Y14678932D01*
X28208720Y14749852D01*
X28244292Y14811294D01*
X28307435Y14843751D01*
X28331133Y14846000D01*
X38970000Y14846000D01*
X39038121Y14825998D01*
G37*
G04 #@! TD.AperFunction*
G04 #@! TD*
G04 #@! TA.AperFunction,Conductor*
G04 #@! TO.N,/LSU_H-*
G36*
X31959191Y14081093D02*
G01*
X31995155Y14031593D01*
X32000000Y14001000D01*
X32000000Y11800000D01*
X38001000Y11800000D01*
X38059191Y11781093D01*
X38095155Y11731593D01*
X38100000Y11701000D01*
X38100000Y9899000D01*
X38081093Y9840809D01*
X38031593Y9804845D01*
X38001000Y9800000D01*
X29987695Y9800000D01*
X29929504Y9818907D01*
X29917691Y9828996D01*
X29828996Y9917691D01*
X29801219Y9972208D01*
X29800000Y9987695D01*
X29800000Y14001000D01*
X29818907Y14059191D01*
X29868407Y14095155D01*
X29899000Y14100000D01*
X31901000Y14100000D01*
X31959191Y14081093D01*
G37*
G04 #@! TD.AperFunction*
G04 #@! TD*
M02*
