G04*
G04 #@! TF.GenerationSoftware,Altium Limited,Altium Designer,22.1.2 (22)*
G04*
G04 Layer_Physical_Order=2*
G04 Layer_Color=36540*
%FSLAX25Y25*%
%MOIN*%
G70*
G04*
G04 #@! TF.SameCoordinates,AA89485F-E9C4-495D-BB32-9FCCB39CE94D*
G04*
G04*
G04 #@! TF.FilePolarity,Positive*
G04*
G01*
G75*
%ADD89C,0.02362*%
G36*
X175989Y143334D02*
X181421Y143429D01*
X182282Y142722D01*
X182279Y138734D01*
X181492Y138496D01*
X181341Y138722D01*
X180689Y139157D01*
X179921Y139310D01*
X179153Y139157D01*
X178892Y138983D01*
X178042Y139250D01*
X178020Y139275D01*
X177600Y139903D01*
X176949Y140339D01*
X176181Y140491D01*
X175413Y140339D01*
X174762Y139903D01*
X174327Y139252D01*
X174174Y138484D01*
X174327Y137716D01*
X174762Y137065D01*
X175413Y136630D01*
X176181Y136477D01*
X176949Y136630D01*
X177210Y136805D01*
X178060Y136537D01*
X178082Y136512D01*
X178502Y135884D01*
X179153Y135449D01*
X179921Y135296D01*
X180689Y135449D01*
X181341Y135884D01*
X181490Y136108D01*
X182277Y135869D01*
X182185Y2071D01*
X181099Y984D01*
X123424D01*
X123185Y1772D01*
X123565Y2026D01*
X124000Y2677D01*
X124153Y3445D01*
X124000Y4213D01*
X123565Y4864D01*
X122914Y5299D01*
X122146Y5452D01*
X121378Y5299D01*
X120727Y4864D01*
X120291Y4213D01*
X120139Y3445D01*
X120291Y2677D01*
X120727Y2026D01*
X121107Y1772D01*
X120868Y984D01*
X2791D01*
X886Y2889D01*
Y144460D01*
X2499Y146073D01*
X8640Y146080D01*
X8871Y145439D01*
X8899Y145293D01*
X8480Y144666D01*
X8328Y143898D01*
X8480Y143130D01*
X8915Y142478D01*
X9567Y142043D01*
X10335Y141891D01*
X11103Y142043D01*
X11754Y142478D01*
X12189Y143130D01*
X12342Y143898D01*
X12189Y144666D01*
X11768Y145296D01*
X11792Y145426D01*
X12024Y146084D01*
X173064Y146260D01*
X175989Y143334D01*
D02*
G37*
%LPC*%
G36*
X47539Y144035D02*
X46771Y143882D01*
X46120Y143447D01*
X45685Y142796D01*
X45532Y142027D01*
X45685Y141259D01*
X46120Y140608D01*
X46771Y140173D01*
X47539Y140021D01*
X48307Y140173D01*
X48959Y140608D01*
X49394Y141259D01*
X49546Y142027D01*
X49394Y142796D01*
X48959Y143447D01*
X48307Y143882D01*
X47539Y144035D01*
D02*
G37*
G36*
X115650Y143149D02*
X114882Y142996D01*
X114231Y142561D01*
X113795Y141910D01*
X113643Y141142D01*
X113795Y140374D01*
X114231Y139723D01*
X114882Y139287D01*
X115650Y139135D01*
X116418Y139287D01*
X117069Y139723D01*
X117504Y140374D01*
X117657Y141142D01*
X117504Y141910D01*
X117069Y142561D01*
X116418Y142996D01*
X115650Y143149D01*
D02*
G37*
G36*
X105610D02*
X104842Y142996D01*
X104191Y142561D01*
X103756Y141910D01*
X103603Y141142D01*
X103756Y140374D01*
X104191Y139723D01*
X104842Y139287D01*
X105610Y139135D01*
X106378Y139287D01*
X107029Y139723D01*
X107465Y140374D01*
X107617Y141142D01*
X107465Y141910D01*
X107029Y142561D01*
X106378Y142996D01*
X105610Y143149D01*
D02*
G37*
G36*
X98425Y142952D02*
X97657Y142799D01*
X97006Y142364D01*
X96571Y141713D01*
X96418Y140945D01*
X96571Y140177D01*
X97006Y139526D01*
X97657Y139091D01*
X98425Y138938D01*
X99193Y139091D01*
X99844Y139526D01*
X100279Y140177D01*
X100432Y140945D01*
X100279Y141713D01*
X99844Y142364D01*
X99193Y142799D01*
X98425Y142952D01*
D02*
G37*
G36*
X38563Y142853D02*
X37795Y142701D01*
X37144Y142266D01*
X36709Y141614D01*
X36556Y140847D01*
X36709Y140078D01*
X37144Y139427D01*
X37795Y138992D01*
X38563Y138839D01*
X39331Y138992D01*
X39982Y139427D01*
X40417Y140078D01*
X40570Y140847D01*
X40417Y141614D01*
X39982Y142266D01*
X39331Y142701D01*
X38563Y142853D01*
D02*
G37*
G36*
X161614Y142558D02*
X160846Y142405D01*
X160195Y141970D01*
X159760Y141319D01*
X159607Y140551D01*
X159760Y139783D01*
X160195Y139132D01*
X160846Y138697D01*
X161614Y138544D01*
X162382Y138697D01*
X163033Y139132D01*
X163469Y139783D01*
X163621Y140551D01*
X163469Y141319D01*
X163033Y141970D01*
X162382Y142405D01*
X161614Y142558D01*
D02*
G37*
G36*
X22047Y142165D02*
X21279Y142012D01*
X20628Y141577D01*
X20193Y140926D01*
X20040Y140157D01*
X20193Y139389D01*
X20628Y138738D01*
X21279Y138303D01*
X22047Y138150D01*
X22815Y138303D01*
X23192Y138555D01*
X24043Y138699D01*
X24694Y138264D01*
X25462Y138111D01*
X25643Y137982D01*
X26052Y137426D01*
X25946Y136889D01*
X26098Y136121D01*
X26534Y135470D01*
X27185Y135035D01*
X27953Y134882D01*
X28721Y135035D01*
X29372Y135470D01*
X29807Y136121D01*
X29960Y136889D01*
X29807Y137657D01*
X29801Y137666D01*
X29843Y137821D01*
X30551Y138214D01*
X30851Y138153D01*
X30864Y138133D01*
X31515Y137698D01*
X32283Y137546D01*
X33051Y137698D01*
X33703Y138133D01*
X34138Y138785D01*
X34291Y139552D01*
X34138Y140321D01*
X33703Y140972D01*
X33051Y141407D01*
X32283Y141560D01*
X31515Y141407D01*
X31083Y141118D01*
X30852Y140977D01*
X30112Y141263D01*
X30027Y141389D01*
X29376Y141824D01*
X28608Y141977D01*
X27840Y141824D01*
X27189Y141389D01*
X26508Y141787D01*
X26230Y141973D01*
X25462Y142125D01*
X24694Y141973D01*
X24317Y141721D01*
X23466Y141577D01*
X22815Y142012D01*
X22047Y142165D01*
D02*
G37*
G36*
X154035Y139605D02*
X153267Y139453D01*
X152616Y139018D01*
X152181Y138366D01*
X152028Y137598D01*
X152181Y136830D01*
X152616Y136179D01*
X153267Y135744D01*
X154035Y135591D01*
X154804Y135744D01*
X155455Y136179D01*
X155890Y136830D01*
X156043Y137598D01*
X155890Y138366D01*
X155455Y139018D01*
X154804Y139453D01*
X154035Y139605D01*
D02*
G37*
G36*
X174016Y135767D02*
X173248Y135614D01*
X172597Y135179D01*
X172161Y134528D01*
X172009Y133760D01*
X172050Y133550D01*
X171342Y133077D01*
X171240Y133144D01*
X170473Y133297D01*
X169704Y133144D01*
X169053Y132709D01*
X168618Y132058D01*
X168465Y131290D01*
X168618Y130522D01*
X169053Y129871D01*
X169704Y129436D01*
X170473Y129283D01*
X171240Y129436D01*
X171892Y129871D01*
X172327Y130522D01*
X172479Y131290D01*
X172438Y131500D01*
X173146Y131973D01*
X173248Y131906D01*
X174016Y131753D01*
X174784Y131906D01*
X175435Y132341D01*
X175870Y132992D01*
X176023Y133760D01*
X175870Y134528D01*
X175435Y135179D01*
X174784Y135614D01*
X174016Y135767D01*
D02*
G37*
G36*
X138312Y134979D02*
X137544Y134827D01*
X136893Y134392D01*
X136458Y133740D01*
X136305Y132972D01*
X136458Y132204D01*
X136893Y131553D01*
X137544Y131118D01*
X138312Y130965D01*
X139081Y131118D01*
X139732Y131553D01*
X140167Y132204D01*
X140320Y132972D01*
X140167Y133740D01*
X139732Y134392D01*
X139081Y134827D01*
X138312Y134979D01*
D02*
G37*
G36*
X130579Y134741D02*
X129811Y134589D01*
X129160Y134153D01*
X128725Y133502D01*
X128572Y132734D01*
X128725Y131966D01*
X129160Y131315D01*
X129811Y130880D01*
X130579Y130727D01*
X131347Y130880D01*
X131999Y131315D01*
X132434Y131966D01*
X132586Y132734D01*
X132434Y133502D01*
X131999Y134153D01*
X131347Y134589D01*
X130579Y134741D01*
D02*
G37*
G36*
X92269Y134246D02*
X91501Y134093D01*
X90850Y133658D01*
X90415Y133007D01*
X90262Y132239D01*
X90415Y131471D01*
X90850Y130820D01*
X91501Y130385D01*
X92269Y130232D01*
X93037Y130385D01*
X93688Y130820D01*
X93869Y131090D01*
X93976Y131121D01*
X94779Y131038D01*
X95038Y130650D01*
X95689Y130215D01*
X96457Y130062D01*
X97225Y130215D01*
X97876Y130650D01*
X98311Y131301D01*
X98464Y132070D01*
X98311Y132838D01*
X97876Y133489D01*
X97225Y133924D01*
X96457Y134077D01*
X95689Y133924D01*
X95038Y133489D01*
X94857Y133218D01*
X94750Y133187D01*
X93947Y133271D01*
X93688Y133658D01*
X93037Y134093D01*
X92269Y134246D01*
D02*
G37*
G36*
X33071Y136794D02*
X32303Y136641D01*
X31652Y136206D01*
X31217Y135555D01*
X31064Y134787D01*
X31217Y134019D01*
X31652Y133367D01*
X32178Y133016D01*
X31807Y132461D01*
X31654Y131693D01*
X31807Y130925D01*
X32242Y130274D01*
X32893Y129839D01*
X33661Y129686D01*
X34429Y129839D01*
X35081Y130274D01*
X35516Y130925D01*
X35669Y131693D01*
X35516Y132461D01*
X35081Y133112D01*
X34554Y133464D01*
X34925Y134019D01*
X35078Y134787D01*
X34925Y135555D01*
X34490Y136206D01*
X33839Y136641D01*
X33071Y136794D01*
D02*
G37*
G36*
X84941Y132502D02*
X84173Y132349D01*
X83522Y131914D01*
X83087Y131263D01*
X82934Y130495D01*
X83087Y129727D01*
X83522Y129076D01*
X84173Y128640D01*
X84941Y128488D01*
X85709Y128640D01*
X86360Y129076D01*
X86795Y129727D01*
X86948Y130495D01*
X86795Y131263D01*
X86360Y131914D01*
X85709Y132349D01*
X84941Y132502D01*
D02*
G37*
G36*
X15004Y139976D02*
X14236Y139823D01*
X13585Y139388D01*
X13149Y138737D01*
X12997Y137969D01*
X13149Y137201D01*
X13585Y136550D01*
X14236Y136115D01*
X14728Y136017D01*
X15434Y135531D01*
X15495Y135223D01*
X15199Y134577D01*
X14910Y134438D01*
X14389Y134335D01*
X13738Y133899D01*
X13303Y133248D01*
X13150Y132480D01*
X13303Y131712D01*
X13738Y131061D01*
X14389Y130626D01*
X15060Y130493D01*
X15189Y130445D01*
X15888Y129816D01*
X15961Y129448D01*
X16396Y128797D01*
X17047Y128362D01*
X17815Y128209D01*
X18583Y128362D01*
X19234Y128797D01*
X19669Y129448D01*
X19822Y130217D01*
X19669Y130985D01*
X19234Y131636D01*
X18583Y132071D01*
X17912Y132204D01*
X17784Y132252D01*
X17286Y132700D01*
X17499Y133483D01*
X17689Y133574D01*
X18209Y133677D01*
X18860Y134112D01*
X19295Y134763D01*
X19448Y135531D01*
X19295Y136300D01*
X18860Y136951D01*
X18209Y137386D01*
X17717Y137484D01*
X17011Y137969D01*
X16858Y138737D01*
X16423Y139388D01*
X15772Y139823D01*
X15004Y139976D01*
D02*
G37*
G36*
X68012Y134505D02*
X67244Y134353D01*
X66593Y133918D01*
X66158Y133266D01*
X66005Y132499D01*
X65302Y131997D01*
X65177Y131972D01*
X64526Y131537D01*
X64091Y130886D01*
X63938Y130118D01*
X64091Y129350D01*
X64526Y128699D01*
X65177Y128264D01*
X65945Y128111D01*
X66713Y128264D01*
X67364Y128699D01*
X67799Y129350D01*
X67952Y130118D01*
X68655Y130619D01*
X68780Y130644D01*
X69431Y131079D01*
X69866Y131730D01*
X70019Y132499D01*
X69866Y133266D01*
X69431Y133918D01*
X68780Y134353D01*
X68012Y134505D01*
D02*
G37*
G36*
X165658Y128096D02*
X164890Y127943D01*
X164571Y127731D01*
X164228Y127510D01*
X163388Y127653D01*
X163258Y127740D01*
X162489Y127893D01*
X161721Y127740D01*
X161070Y127305D01*
X160635Y126654D01*
X160482Y125886D01*
X160635Y125118D01*
X161070Y124467D01*
X161721Y124031D01*
X162489Y123879D01*
X163258Y124031D01*
X163576Y124244D01*
X163919Y124465D01*
X164759Y124322D01*
X164890Y124234D01*
X165658Y124082D01*
X166426Y124234D01*
X167077Y124670D01*
X167671Y124192D01*
X167240Y123547D01*
X167087Y122779D01*
X167240Y122011D01*
X167675Y121360D01*
X168326Y120924D01*
X169095Y120772D01*
X169863Y120924D01*
X170123Y121098D01*
X170923Y121317D01*
X171574Y120882D01*
X172343Y120729D01*
X173111Y120882D01*
X173762Y121317D01*
X173939Y121583D01*
X174881Y121676D01*
X175225Y121361D01*
X175203Y121187D01*
X175158Y120965D01*
X175311Y120196D01*
X175746Y119545D01*
X176397Y119110D01*
X177165Y118957D01*
X177934Y119110D01*
X178585Y119545D01*
X179020Y120196D01*
X179173Y120965D01*
X179020Y121733D01*
X178585Y122384D01*
X177934Y122819D01*
X177830Y122839D01*
X177590Y122949D01*
X177453Y123682D01*
X178100Y124144D01*
X178445Y124076D01*
X179213Y124228D01*
X179864Y124663D01*
X180299Y125315D01*
X180452Y126083D01*
X180299Y126851D01*
X179864Y127502D01*
X179213Y127937D01*
X178445Y128090D01*
X177677Y127937D01*
X177026Y127502D01*
X176591Y126851D01*
X176506Y126423D01*
X176231Y126018D01*
X175682Y125848D01*
X175295Y125924D01*
X174527Y125772D01*
X173876Y125337D01*
X173441Y124685D01*
X172638Y124685D01*
X172343Y124743D01*
X171574Y124591D01*
X171315Y124417D01*
X170681Y124244D01*
X170162Y124433D01*
X169863Y124633D01*
X169095Y124786D01*
X168326Y124633D01*
X167675Y124198D01*
X167081Y124676D01*
X167512Y125321D01*
X167665Y126089D01*
X167512Y126857D01*
X167077Y127508D01*
X166426Y127943D01*
X165658Y128096D01*
D02*
G37*
G36*
X53248Y133995D02*
X52480Y133843D01*
X51829Y133407D01*
X51394Y132756D01*
X51241Y131988D01*
X51394Y131220D01*
X51829Y130569D01*
X52112Y130380D01*
X52673Y129803D01*
X52520Y129035D01*
X52673Y128267D01*
X53108Y127616D01*
X53759Y127181D01*
X54527Y127028D01*
X55296Y127181D01*
X55947Y127616D01*
X56879Y127595D01*
X56909Y127575D01*
X57677Y127422D01*
X58445Y127575D01*
X59096Y128010D01*
X59531Y128661D01*
X59684Y129429D01*
X59531Y130197D01*
X59096Y130848D01*
X58445Y131283D01*
X57677Y131436D01*
X56909Y131283D01*
X56258Y130848D01*
X55737Y130860D01*
X55166Y131538D01*
X55255Y131988D01*
X55102Y132756D01*
X54667Y133407D01*
X54016Y133843D01*
X53248Y133995D01*
D02*
G37*
G36*
X143504Y131239D02*
X142736Y131087D01*
X142085Y130651D01*
X141650Y130000D01*
X141497Y129232D01*
X141650Y128464D01*
X142085Y127813D01*
X142736Y127378D01*
X143504Y127225D01*
X144272Y127378D01*
X144923Y127813D01*
X145358Y128464D01*
X145511Y129232D01*
X145358Y130000D01*
X144923Y130651D01*
X144272Y131087D01*
X143504Y131239D01*
D02*
G37*
G36*
X24961Y130563D02*
X24193Y130411D01*
X23541Y129976D01*
X23106Y129324D01*
X22954Y128556D01*
X23106Y127788D01*
X23541Y127137D01*
X24149Y126731D01*
X23835Y126260D01*
X23682Y125492D01*
X23835Y124724D01*
X24270Y124073D01*
X24921Y123638D01*
X25689Y123485D01*
X26457Y123638D01*
X27108Y124073D01*
X27543Y124724D01*
X27696Y125492D01*
X27543Y126260D01*
X27108Y126911D01*
X26500Y127318D01*
X26815Y127788D01*
X26968Y128556D01*
X26815Y129324D01*
X26380Y129976D01*
X25729Y130411D01*
X24961Y130563D01*
D02*
G37*
G36*
X92178Y126203D02*
X91410Y126050D01*
X90759Y125615D01*
X90324Y124964D01*
X90171Y124196D01*
X90324Y123427D01*
X90759Y122776D01*
X91410Y122341D01*
X92178Y122188D01*
X92946Y122341D01*
X93598Y122776D01*
X94033Y123427D01*
X94185Y124196D01*
X94033Y124964D01*
X93598Y125615D01*
X92946Y126050D01*
X92178Y126203D01*
D02*
G37*
G36*
X132290Y123700D02*
X131522Y123547D01*
X130871Y123112D01*
X130436Y122461D01*
X130283Y121693D01*
X130436Y120925D01*
X130871Y120274D01*
X131522Y119839D01*
X132290Y119686D01*
X133058Y119839D01*
X133709Y120274D01*
X134144Y120925D01*
X134297Y121693D01*
X134144Y122461D01*
X133709Y123112D01*
X133058Y123547D01*
X132290Y123700D01*
D02*
G37*
G36*
X30670Y124310D02*
X29902Y124157D01*
X29251Y123722D01*
X28816Y123071D01*
X28663Y122302D01*
X28816Y121534D01*
X29251Y120883D01*
X29902Y120448D01*
X30097Y120409D01*
X30819Y120007D01*
X30972Y119239D01*
X31407Y118588D01*
X32058Y118152D01*
X32826Y118000D01*
X33595Y118152D01*
X34246Y118588D01*
X34681Y119239D01*
X34833Y120007D01*
X34681Y120775D01*
X34246Y121426D01*
X33595Y121861D01*
X33400Y121900D01*
X32677Y122302D01*
X32524Y123071D01*
X32089Y123722D01*
X31438Y124157D01*
X30670Y124310D01*
D02*
G37*
G36*
X86221Y122775D02*
X85452Y122622D01*
X84801Y122187D01*
X84366Y121536D01*
X84213Y120768D01*
X84366Y120000D01*
X84801Y119349D01*
X85452Y118913D01*
X86221Y118761D01*
X86862Y118085D01*
X86892Y117933D01*
X87328Y117282D01*
X87979Y116847D01*
X88747Y116694D01*
X89515Y116847D01*
X90166Y117282D01*
X90601Y117933D01*
X90754Y118701D01*
X90601Y119469D01*
X90166Y120120D01*
X89515Y120555D01*
X88747Y120708D01*
X88706Y120700D01*
X88227Y120768D01*
X88075Y121536D01*
X87640Y122187D01*
X86989Y122622D01*
X86221Y122775D01*
D02*
G37*
G36*
X11812Y120221D02*
X11044Y120069D01*
X10392Y119634D01*
X9957Y118983D01*
X9804Y118214D01*
X9957Y117446D01*
X10392Y116795D01*
X11044Y116360D01*
X11812Y116207D01*
X12580Y116360D01*
X13231Y116795D01*
X13666Y117446D01*
X13819Y118214D01*
X13666Y118983D01*
X13231Y119634D01*
X12580Y120069D01*
X11812Y120221D01*
D02*
G37*
G36*
X17126Y118641D02*
X16358Y118488D01*
X15707Y118053D01*
X15272Y117402D01*
X15119Y116634D01*
X15272Y115866D01*
X15707Y115215D01*
X16358Y114780D01*
X17126Y114627D01*
X17894Y114780D01*
X18545Y115215D01*
X18980Y115866D01*
X19133Y116634D01*
X18980Y117402D01*
X18545Y118053D01*
X17894Y118488D01*
X17126Y118641D01*
D02*
G37*
G36*
X127664Y125537D02*
X126896Y125384D01*
X126244Y124949D01*
X125809Y124298D01*
X125657Y123530D01*
X125809Y122761D01*
X125936Y122572D01*
X126036Y121738D01*
X125859Y121421D01*
X125606Y121044D01*
X125454Y120275D01*
X125485Y120117D01*
X125321Y119281D01*
X124670Y118846D01*
X124234Y118195D01*
X124082Y117427D01*
X124234Y116659D01*
X124670Y116008D01*
X125321Y115573D01*
X126089Y115420D01*
X126218Y114653D01*
X125708Y114551D01*
X125057Y114116D01*
X124622Y113465D01*
X124478Y112742D01*
X123819Y112873D01*
X123051Y112720D01*
X122400Y112285D01*
X121965Y111634D01*
X121812Y110866D01*
X121965Y110098D01*
X122400Y109447D01*
X123051Y109012D01*
X123819Y108859D01*
X124587Y109012D01*
X125238Y109447D01*
X125673Y110098D01*
X125817Y110821D01*
X126477Y110690D01*
X127245Y110843D01*
X127896Y111278D01*
X128331Y111929D01*
X128484Y112697D01*
X128331Y113465D01*
X127896Y114116D01*
X127245Y114551D01*
X126477Y114704D01*
X126347Y115471D01*
X126857Y115573D01*
X127508Y116008D01*
X127943Y116659D01*
X128096Y117427D01*
X128064Y117586D01*
X128229Y118421D01*
X128880Y118856D01*
X129315Y119508D01*
X129468Y120275D01*
X129315Y121044D01*
X129188Y121234D01*
X129088Y122067D01*
X129266Y122384D01*
X129518Y122761D01*
X129671Y123530D01*
X129518Y124298D01*
X129083Y124949D01*
X128432Y125384D01*
X127664Y125537D01*
D02*
G37*
G36*
X50295Y119231D02*
X49527Y119079D01*
X48876Y118644D01*
X48441Y117992D01*
X48288Y117224D01*
X48441Y116456D01*
X48535Y116316D01*
X48583Y115401D01*
X48148Y114750D01*
X47995Y113982D01*
X48148Y113214D01*
X48583Y112563D01*
X48108Y111964D01*
X48089Y111951D01*
X47654Y111300D01*
X47501Y110531D01*
X47654Y109763D01*
X48089Y109112D01*
X48740Y108677D01*
X49508Y108524D01*
X50276Y108677D01*
X50927Y109112D01*
X51362Y109763D01*
X51515Y110531D01*
X51362Y111300D01*
X50927Y111951D01*
X51393Y112538D01*
X51733Y112760D01*
X52384Y112325D01*
X53152Y112172D01*
X53920Y112325D01*
X54571Y112760D01*
X55006Y113411D01*
X55159Y114179D01*
X55006Y114947D01*
X54571Y115598D01*
X53920Y116033D01*
X53152Y116186D01*
X52824Y116121D01*
X52768Y116149D01*
X52217Y116797D01*
X52302Y117224D01*
X52150Y117992D01*
X51714Y118644D01*
X51063Y119079D01*
X50295Y119231D01*
D02*
G37*
G36*
X169488Y118444D02*
X168720Y118291D01*
X168069Y117856D01*
X167634Y117205D01*
X167481Y116437D01*
X167634Y115669D01*
X168069Y115018D01*
X168720Y114583D01*
X169488Y114430D01*
X169923Y114516D01*
X170574Y114275D01*
X170835Y114022D01*
X171034Y113541D01*
X171473Y112969D01*
X172045Y112530D01*
X172711Y112254D01*
X173425Y112160D01*
X174140Y112254D01*
X174806Y112530D01*
X175377Y112969D01*
X175816Y113541D01*
X176092Y114207D01*
X176186Y114921D01*
X176092Y115636D01*
X175816Y116302D01*
X175377Y116874D01*
X174806Y117312D01*
X174140Y117588D01*
X173425Y117682D01*
X172711Y117588D01*
X172118Y117343D01*
X172006Y117323D01*
X171095Y117576D01*
X170907Y117856D01*
X170256Y118291D01*
X169488Y118444D01*
D02*
G37*
G36*
X78781Y127047D02*
X78012Y126895D01*
X77361Y126460D01*
X76926Y125808D01*
X76773Y125040D01*
X76926Y124272D01*
X76546Y123424D01*
X76538Y123419D01*
X76103Y122768D01*
X75950Y122000D01*
X76103Y121232D01*
X76538Y120581D01*
X76672Y120492D01*
X77090Y119764D01*
X76937Y118996D01*
X77090Y118228D01*
X77525Y117577D01*
X78176Y117142D01*
X78669Y117044D01*
X79391Y116634D01*
X79543Y115866D01*
X79978Y115215D01*
X80630Y114779D01*
X81398Y114627D01*
X82068Y114760D01*
X82201Y114094D01*
X82636Y113443D01*
X83287Y113008D01*
X84055Y112855D01*
X84823Y113008D01*
X85644Y112633D01*
X85691Y112563D01*
X86342Y112128D01*
X87111Y111975D01*
X87879Y112128D01*
X88530Y112563D01*
X88965Y113214D01*
X89118Y113982D01*
X88965Y114750D01*
X88530Y115401D01*
X87879Y115836D01*
X87111Y115989D01*
X86342Y115836D01*
X85521Y116211D01*
X85474Y116281D01*
X84823Y116717D01*
X84055Y116869D01*
X83384Y116736D01*
X83252Y117402D01*
X82817Y118053D01*
X82166Y118488D01*
X81673Y118586D01*
X80951Y118996D01*
X80799Y119764D01*
X80364Y120416D01*
X80230Y120505D01*
X79812Y121232D01*
X79964Y122000D01*
X79812Y122768D01*
X80192Y123616D01*
X80200Y123621D01*
X80635Y124272D01*
X80787Y125040D01*
X80635Y125808D01*
X80200Y126460D01*
X79549Y126895D01*
X78781Y127047D01*
D02*
G37*
G36*
X143398Y114704D02*
X142630Y114551D01*
X141979Y114116D01*
X141544Y113465D01*
X141391Y112697D01*
X141544Y111929D01*
X141979Y111278D01*
X142630Y110843D01*
X143398Y110690D01*
X144166Y110843D01*
X144817Y111278D01*
X145252Y111929D01*
X145405Y112697D01*
X145252Y113465D01*
X144817Y114116D01*
X144166Y114551D01*
X143398Y114704D01*
D02*
G37*
G36*
X91338Y112440D02*
X90570Y112287D01*
X89919Y111852D01*
X89484Y111201D01*
X89332Y110433D01*
X89484Y109665D01*
X89919Y109014D01*
X90570Y108579D01*
X91338Y108426D01*
X92107Y108579D01*
X92758Y109014D01*
X93193Y109665D01*
X93346Y110433D01*
X93193Y111201D01*
X92758Y111852D01*
X92107Y112287D01*
X91338Y112440D01*
D02*
G37*
G36*
X98036Y111855D02*
X97268Y111702D01*
X96617Y111267D01*
X96182Y110616D01*
X96029Y109848D01*
X96182Y109080D01*
X96617Y108429D01*
X97268Y107993D01*
X98036Y107841D01*
X98804Y107993D01*
X99455Y108429D01*
X99891Y109080D01*
X100043Y109848D01*
X99891Y110616D01*
X99455Y111267D01*
X98804Y111702D01*
X98036Y111855D01*
D02*
G37*
G36*
X21457Y111751D02*
X20689Y111598D01*
X20038Y111163D01*
X19602Y110512D01*
X19450Y109744D01*
X19602Y108976D01*
X20038Y108325D01*
X20689Y107890D01*
X21457Y107737D01*
X22225Y107890D01*
X22876Y108325D01*
X23311Y108976D01*
X23464Y109744D01*
X23311Y110512D01*
X22876Y111163D01*
X22225Y111598D01*
X21457Y111751D01*
D02*
G37*
G36*
X12303D02*
X11535Y111598D01*
X10884Y111163D01*
X10449Y110512D01*
X10296Y109744D01*
X10449Y108976D01*
X10884Y108325D01*
X11535Y107890D01*
X12303Y107737D01*
X13071Y107890D01*
X13722Y108325D01*
X14157Y108976D01*
X14310Y109744D01*
X14157Y110512D01*
X13722Y111163D01*
X13071Y111598D01*
X12303Y111751D01*
D02*
G37*
G36*
X6201Y111554D02*
X5433Y111401D01*
X4782Y110967D01*
X4346Y110315D01*
X4194Y109547D01*
X4346Y108779D01*
X4782Y108128D01*
X5433Y107693D01*
X6201Y107540D01*
X6969Y107693D01*
X7620Y108128D01*
X8055Y108779D01*
X8208Y109547D01*
X8055Y110315D01*
X7620Y110967D01*
X6969Y111401D01*
X6201Y111554D01*
D02*
G37*
G36*
X178341Y111456D02*
X177573Y111303D01*
X176921Y110868D01*
X176486Y110217D01*
X176333Y109449D01*
X176486Y108681D01*
X176921Y108029D01*
X177573Y107594D01*
X178341Y107442D01*
X179109Y107594D01*
X179760Y108029D01*
X180195Y108681D01*
X180348Y109449D01*
X180195Y110217D01*
X179760Y110868D01*
X179109Y111303D01*
X178341Y111456D01*
D02*
G37*
G36*
X27657Y111357D02*
X26889Y111205D01*
X26238Y110770D01*
X25803Y110118D01*
X25650Y109350D01*
X25803Y108582D01*
X26238Y107931D01*
X26889Y107496D01*
X27657Y107343D01*
X28426Y107496D01*
X29077Y107931D01*
X29512Y108582D01*
X29665Y109350D01*
X29512Y110118D01*
X29077Y110770D01*
X28426Y111205D01*
X27657Y111357D01*
D02*
G37*
G36*
X117224Y108897D02*
X116456Y108744D01*
X115805Y108309D01*
X115370Y107658D01*
X115217Y106890D01*
X115370Y106122D01*
X115805Y105471D01*
X116456Y105035D01*
X117224Y104883D01*
X117992Y105035D01*
X118644Y105471D01*
X119079Y106122D01*
X119231Y106890D01*
X119079Y107658D01*
X118644Y108309D01*
X117992Y108744D01*
X117224Y108897D01*
D02*
G37*
G36*
X135925Y106633D02*
X135157Y106480D01*
X134506Y106045D01*
X134071Y105394D01*
X133941Y104742D01*
X133543Y104462D01*
X133179Y104304D01*
X132861Y104517D01*
X132093Y104669D01*
X131325Y104517D01*
X130674Y104082D01*
X130239Y103430D01*
X130086Y102662D01*
X130239Y101894D01*
X130674Y101243D01*
X131325Y100808D01*
X132093Y100655D01*
X132861Y100808D01*
X133512Y101243D01*
X133947Y101894D01*
X134077Y102546D01*
X134476Y102826D01*
X134839Y102984D01*
X135157Y102772D01*
X135925Y102619D01*
X136693Y102772D01*
X137344Y103207D01*
X137779Y103858D01*
X137932Y104626D01*
X137779Y105394D01*
X137344Y106045D01*
X136693Y106480D01*
X135925Y106633D01*
D02*
G37*
G36*
X178150Y105649D02*
X177382Y105496D01*
X176730Y105061D01*
X176295Y104410D01*
X176143Y103642D01*
X176295Y102874D01*
X176730Y102223D01*
X177382Y101787D01*
X178150Y101635D01*
X178918Y101787D01*
X179569Y102223D01*
X180004Y102874D01*
X180157Y103642D01*
X180004Y104410D01*
X179569Y105061D01*
X178918Y105496D01*
X178150Y105649D01*
D02*
G37*
G36*
X128254Y101815D02*
X127486Y101662D01*
X126835Y101227D01*
X126400Y100576D01*
X125560Y100388D01*
X125400Y100419D01*
X124632Y100267D01*
X123981Y99831D01*
X123546Y99180D01*
X123393Y98412D01*
X123546Y97644D01*
X123981Y96993D01*
X124632Y96558D01*
X125400Y96405D01*
X126168Y96558D01*
X126819Y96993D01*
X127254Y97644D01*
X128095Y97833D01*
X128254Y97801D01*
X129022Y97954D01*
X129674Y98389D01*
X130108Y99040D01*
X130261Y99808D01*
X130108Y100576D01*
X129674Y101227D01*
X129022Y101662D01*
X128254Y101815D01*
D02*
G37*
G36*
X167661Y104074D02*
X166893Y103921D01*
X166242Y103486D01*
X165807Y102835D01*
X165654Y102067D01*
X165807Y101299D01*
X166242Y100648D01*
X166893Y100213D01*
X167661Y100060D01*
X168429Y100213D01*
X169080Y100648D01*
X169515Y101299D01*
X169668Y102067D01*
X169515Y102835D01*
X169080Y103486D01*
X168429Y103921D01*
X167661Y104074D01*
D02*
G37*
G36*
X19390Y103976D02*
X18622Y103823D01*
X17971Y103388D01*
X17536Y102737D01*
X17383Y101969D01*
X17536Y101200D01*
X17971Y100549D01*
X18622Y100114D01*
X19390Y99961D01*
X20158Y100114D01*
X20809Y100549D01*
X21244Y101200D01*
X21397Y101969D01*
X21244Y102737D01*
X20809Y103388D01*
X20158Y103823D01*
X19390Y103976D01*
D02*
G37*
G36*
X114328Y103722D02*
X113560Y103570D01*
X112909Y103135D01*
X112474Y102483D01*
X112321Y101715D01*
X112474Y100947D01*
X112909Y100296D01*
X113560Y99861D01*
X114328Y99708D01*
X115096Y99861D01*
X115747Y100296D01*
X116182Y100947D01*
X116335Y101715D01*
X116182Y102483D01*
X115747Y103135D01*
X115096Y103570D01*
X114328Y103722D01*
D02*
G37*
G36*
X91339Y99251D02*
X90570Y99098D01*
X90268Y98896D01*
X89912Y98665D01*
X89078Y98821D01*
X88957Y98902D01*
X88189Y99054D01*
X87421Y98902D01*
X86770Y98466D01*
X86335Y97815D01*
X86182Y97047D01*
X86335Y96279D01*
X86770Y95628D01*
X87421Y95193D01*
X88189Y95040D01*
X88957Y95193D01*
X89260Y95395D01*
X89615Y95627D01*
X90450Y95470D01*
X90570Y95390D01*
X91339Y95237D01*
X92107Y95390D01*
X92758Y95825D01*
X93193Y96476D01*
X93346Y97244D01*
X93193Y98012D01*
X92758Y98663D01*
X92107Y99098D01*
X91339Y99251D01*
D02*
G37*
G36*
X9252Y102302D02*
X8484Y102150D01*
X7833Y101715D01*
X7398Y101063D01*
X7245Y100295D01*
X7398Y99527D01*
X7833Y98876D01*
X8484Y98441D01*
X9252Y98288D01*
X10020Y98441D01*
X10671Y98876D01*
X11106Y99527D01*
X11259Y100295D01*
X11106Y101063D01*
X10671Y101715D01*
X10020Y102150D01*
X9252Y102302D01*
D02*
G37*
G36*
X51378Y102007D02*
X50610Y101854D01*
X49959Y101419D01*
X49524Y100768D01*
X49371Y100000D01*
X49524Y99232D01*
X49959Y98581D01*
X50610Y98146D01*
X51378Y97993D01*
X52146Y98146D01*
X52797Y98581D01*
X53232Y99232D01*
X53385Y100000D01*
X53232Y100768D01*
X52797Y101419D01*
X52146Y101854D01*
X51378Y102007D01*
D02*
G37*
G36*
X157382Y100924D02*
X156614Y100772D01*
X155963Y100337D01*
X155527Y99685D01*
X155375Y98917D01*
X155527Y98149D01*
X155963Y97498D01*
X156614Y97063D01*
X157382Y96910D01*
X158150Y97063D01*
X158801Y97498D01*
X159236Y98149D01*
X159389Y98917D01*
X159236Y99685D01*
X158801Y100337D01*
X158150Y100772D01*
X157382Y100924D01*
D02*
G37*
G36*
X23720Y96889D02*
X22952Y96736D01*
X22301Y96301D01*
X21866Y95650D01*
X21713Y94882D01*
X21866Y94114D01*
X22301Y93463D01*
X22952Y93028D01*
X23720Y92875D01*
X24489Y93028D01*
X25140Y93463D01*
X25575Y94114D01*
X25728Y94882D01*
X25575Y95650D01*
X25140Y96301D01*
X24489Y96736D01*
X23720Y96889D01*
D02*
G37*
G36*
X177425Y97682D02*
X176710Y97588D01*
X176045Y97312D01*
X175473Y96874D01*
X175034Y96302D01*
X174758Y95636D01*
X174664Y94921D01*
X174758Y94207D01*
X175034Y93541D01*
X175473Y92969D01*
X176045Y92530D01*
X176710Y92254D01*
X177425Y92160D01*
X178140Y92254D01*
X178806Y92530D01*
X179377Y92969D01*
X179816Y93541D01*
X180092Y94207D01*
X180186Y94921D01*
X180092Y95636D01*
X179816Y96302D01*
X179377Y96874D01*
X178806Y97312D01*
X178140Y97588D01*
X177425Y97682D01*
D02*
G37*
G36*
X169425D02*
X168710Y97588D01*
X168045Y97312D01*
X167473Y96874D01*
X167034Y96302D01*
X166758Y95636D01*
X166664Y94921D01*
X166758Y94207D01*
X167034Y93541D01*
X167473Y92969D01*
X168045Y92530D01*
X168710Y92254D01*
X169425Y92160D01*
X170140Y92254D01*
X170806Y92530D01*
X171377Y92969D01*
X171816Y93541D01*
X172092Y94207D01*
X172186Y94921D01*
X172092Y95636D01*
X171816Y96302D01*
X171377Y96874D01*
X170806Y97312D01*
X170140Y97588D01*
X169425Y97682D01*
D02*
G37*
G36*
X54823Y96102D02*
X54055Y95949D01*
X53404Y95514D01*
X52969Y94863D01*
X52816Y94095D01*
X52969Y93326D01*
X53404Y92675D01*
X54055Y92240D01*
X54823Y92088D01*
X55591Y92240D01*
X56242Y92675D01*
X56677Y93326D01*
X56830Y94095D01*
X56677Y94863D01*
X56242Y95514D01*
X55591Y95949D01*
X54823Y96102D01*
D02*
G37*
G36*
X18602Y95609D02*
X17834Y95457D01*
X17183Y95022D01*
X16748Y94370D01*
X16595Y93602D01*
X16748Y92834D01*
X17183Y92183D01*
X17834Y91748D01*
X18602Y91595D01*
X19371Y91748D01*
X20022Y92183D01*
X20457Y92834D01*
X20609Y93602D01*
X20457Y94370D01*
X20022Y95022D01*
X19371Y95457D01*
X18602Y95609D01*
D02*
G37*
G36*
X5906Y94330D02*
X5137Y94177D01*
X4486Y93742D01*
X4051Y93091D01*
X3898Y92323D01*
X4051Y91555D01*
X4486Y90904D01*
X5137Y90469D01*
X5906Y90316D01*
X6674Y90469D01*
X7325Y90904D01*
X7760Y91555D01*
X7913Y92323D01*
X7760Y93091D01*
X7325Y93742D01*
X6674Y94177D01*
X5906Y94330D01*
D02*
G37*
G36*
X136176Y90791D02*
X135408Y90638D01*
X134757Y90203D01*
X133775Y90151D01*
X133642Y90240D01*
X132874Y90393D01*
X132106Y90240D01*
X131455Y89805D01*
X130674Y89823D01*
X130492Y89945D01*
X129724Y90098D01*
X128956Y89945D01*
X128305Y89510D01*
X128268Y89454D01*
X127441Y89059D01*
X126673Y89212D01*
X125905Y89059D01*
X125254Y88624D01*
X124819Y87973D01*
X124666Y87205D01*
X124819Y86437D01*
X125254Y85786D01*
X125905Y85351D01*
X126673Y85198D01*
X127441Y85351D01*
X128092Y85786D01*
X128527Y86437D01*
X128809Y86335D01*
X128956Y86236D01*
X129724Y86084D01*
X130492Y86236D01*
X131144Y86671D01*
X131204Y86762D01*
X131455Y86967D01*
X132106Y86532D01*
X132874Y86379D01*
X133642Y86532D01*
X134293Y86967D01*
X135275Y87019D01*
X135408Y86930D01*
X136176Y86777D01*
X136944Y86930D01*
X137595Y87365D01*
X138030Y88016D01*
X138183Y88784D01*
X138030Y89552D01*
X137595Y90203D01*
X136944Y90638D01*
X136176Y90791D01*
D02*
G37*
G36*
X113779Y93838D02*
X113011Y93685D01*
X112360Y93250D01*
X111925Y92599D01*
X111772Y91831D01*
X111925Y91063D01*
X112360Y90412D01*
X113011Y89976D01*
X113779Y89824D01*
X114548Y89976D01*
X115199Y90412D01*
X115634Y91063D01*
X115787Y91831D01*
X115634Y92599D01*
X115199Y93250D01*
X114548Y93685D01*
X113779Y93838D01*
D02*
G37*
G36*
X125794Y95516D02*
X125025Y95363D01*
X124374Y94928D01*
X123939Y94276D01*
X123786Y93508D01*
X123793Y93473D01*
X123721Y92952D01*
X122952Y92799D01*
X122301Y92364D01*
X121866Y91713D01*
X121713Y90945D01*
X121866Y90177D01*
X122301Y89526D01*
X122952Y89091D01*
X123721Y88938D01*
X124489Y89091D01*
X125140Y89526D01*
X125575Y90177D01*
X125728Y90945D01*
X125721Y90981D01*
X125794Y91501D01*
X126562Y91654D01*
X127213Y92089D01*
X127648Y92740D01*
X127801Y93508D01*
X127648Y94276D01*
X127213Y94928D01*
X126562Y95363D01*
X125794Y95516D01*
D02*
G37*
G36*
X118707Y92464D02*
X117938Y92311D01*
X117287Y91876D01*
X116852Y91225D01*
X116700Y90457D01*
X116852Y89689D01*
X117287Y89038D01*
X117938Y88603D01*
X118707Y88450D01*
X119475Y88603D01*
X120126Y89038D01*
X120561Y89689D01*
X120714Y90457D01*
X120561Y91225D01*
X120126Y91876D01*
X119475Y92311D01*
X118707Y92464D01*
D02*
G37*
G36*
X15453Y91968D02*
X14685Y91815D01*
X14034Y91380D01*
X13599Y90729D01*
X13446Y89961D01*
X13599Y89192D01*
X14034Y88541D01*
X14685Y88106D01*
X15453Y87954D01*
X16221Y88106D01*
X16872Y88541D01*
X17307Y89192D01*
X17460Y89961D01*
X17307Y90729D01*
X16872Y91380D01*
X16221Y91815D01*
X15453Y91968D01*
D02*
G37*
G36*
X24606Y91771D02*
X23838Y91618D01*
X23187Y91183D01*
X22752Y90532D01*
X22709Y90316D01*
X22282Y89664D01*
X21844Y89526D01*
X21476Y89453D01*
X20825Y89018D01*
X20390Y88367D01*
X20237Y87599D01*
X20390Y86830D01*
X20825Y86179D01*
X21476Y85744D01*
X22244Y85591D01*
X23012Y85744D01*
X23663Y86179D01*
X24098Y86830D01*
X24141Y87046D01*
X24568Y87698D01*
X25007Y87836D01*
X25374Y87910D01*
X26026Y88345D01*
X26461Y88996D01*
X26614Y89764D01*
X26461Y90532D01*
X26026Y91183D01*
X25374Y91618D01*
X24606Y91771D01*
D02*
G37*
G36*
X77428Y89113D02*
X76660Y88961D01*
X76009Y88525D01*
X75573Y87874D01*
X75421Y87106D01*
X75573Y86338D01*
X76009Y85687D01*
X76660Y85252D01*
X77428Y85099D01*
X78196Y85252D01*
X78847Y85687D01*
X79282Y86338D01*
X79435Y87106D01*
X79282Y87874D01*
X78847Y88525D01*
X78196Y88961D01*
X77428Y89113D01*
D02*
G37*
G36*
X106595Y97578D02*
X105826Y97425D01*
X105175Y96990D01*
X104740Y96339D01*
X104587Y95571D01*
X104740Y94803D01*
X105175Y94152D01*
X105826Y93717D01*
X106029Y93676D01*
X106596Y93440D01*
X106601Y92821D01*
X106561Y92623D01*
X106714Y91855D01*
X106141Y91524D01*
X106122Y91520D01*
X106122Y91520D01*
X105471Y91085D01*
X105035Y90433D01*
X104883Y89665D01*
X105035Y88897D01*
X105298Y88504D01*
X105276Y87629D01*
X105223Y87465D01*
X104839Y86890D01*
X104686Y86122D01*
X104839Y85354D01*
X105274Y84703D01*
X105925Y84268D01*
X106693Y84115D01*
X107461Y84268D01*
X108112Y84703D01*
X108547Y85354D01*
X108700Y86122D01*
X108547Y86890D01*
X108285Y87283D01*
X108307Y88159D01*
X108360Y88323D01*
X108744Y88897D01*
X108897Y89665D01*
X108847Y89917D01*
X108841Y90320D01*
X109317Y90764D01*
X109336Y90768D01*
X109987Y91203D01*
X110423Y91855D01*
X110575Y92623D01*
X110423Y93391D01*
X109987Y94042D01*
X109336Y94477D01*
X109134Y94517D01*
X108567Y94753D01*
X108562Y95373D01*
X108602Y95571D01*
X108449Y96339D01*
X108014Y96990D01*
X107363Y97425D01*
X106595Y97578D01*
D02*
G37*
G36*
X82583Y87739D02*
X81815Y87587D01*
X81164Y87152D01*
X80728Y86501D01*
X80576Y85733D01*
X80728Y84964D01*
X81164Y84313D01*
X81815Y83878D01*
X82583Y83725D01*
X83351Y83878D01*
X84002Y84313D01*
X84437Y84964D01*
X84590Y85733D01*
X84437Y86501D01*
X84002Y87152D01*
X83351Y87587D01*
X82583Y87739D01*
D02*
G37*
G36*
X117421Y87735D02*
X116653Y87583D01*
X116002Y87148D01*
X115567Y86496D01*
X115414Y85728D01*
X115567Y84960D01*
X116002Y84309D01*
X116653Y83874D01*
X117421Y83721D01*
X118189Y83874D01*
X118841Y84309D01*
X119275Y84960D01*
X119428Y85728D01*
X119275Y86496D01*
X118841Y87148D01*
X118189Y87583D01*
X117421Y87735D01*
D02*
G37*
G36*
X94587Y86259D02*
X93819Y86106D01*
X93167Y85671D01*
X92732Y85020D01*
X92580Y84252D01*
X92732Y83484D01*
X93167Y82833D01*
X93819Y82398D01*
X94587Y82245D01*
X95355Y82398D01*
X96006Y82833D01*
X96441Y83484D01*
X96594Y84252D01*
X96441Y85020D01*
X96006Y85671D01*
X95355Y86106D01*
X94587Y86259D01*
D02*
G37*
G36*
X67618Y85964D02*
X66850Y85811D01*
X66199Y85376D01*
X65764Y84725D01*
X65611Y83957D01*
X65764Y83189D01*
X66199Y82538D01*
X66850Y82102D01*
X67618Y81950D01*
X68386Y82102D01*
X69037Y82538D01*
X69472Y83189D01*
X69625Y83957D01*
X69472Y84725D01*
X69037Y85376D01*
X68386Y85811D01*
X67618Y85964D01*
D02*
G37*
G36*
X155519Y84787D02*
X154751Y84634D01*
X154100Y84199D01*
X153665Y83548D01*
X153512Y82780D01*
X153665Y82011D01*
X154100Y81360D01*
X154751Y80925D01*
X155519Y80773D01*
X156287Y80925D01*
X156939Y81360D01*
X157374Y82011D01*
X157526Y82780D01*
X157374Y83548D01*
X156939Y84199D01*
X156287Y84634D01*
X155519Y84787D01*
D02*
G37*
G36*
X5413Y83208D02*
X4645Y83055D01*
X3994Y82620D01*
X3559Y81969D01*
X3406Y81201D01*
X3559Y80433D01*
X3994Y79782D01*
X4645Y79347D01*
X5413Y79194D01*
X6182Y79347D01*
X6833Y79782D01*
X7268Y80433D01*
X7421Y81201D01*
X7268Y81969D01*
X6833Y82620D01*
X6182Y83055D01*
X5413Y83208D01*
D02*
G37*
G36*
X88193Y84098D02*
X87425Y83945D01*
X86774Y83510D01*
X86339Y82859D01*
X86186Y82091D01*
X86339Y81322D01*
X86774Y80671D01*
X87425Y80236D01*
X87977Y79351D01*
X87954Y79232D01*
X88106Y78464D01*
X88541Y77813D01*
X89193Y77378D01*
X89961Y77225D01*
X90729Y77378D01*
X91380Y77813D01*
X91815Y78464D01*
X91968Y79232D01*
X91815Y80000D01*
X91380Y80651D01*
X90729Y81086D01*
X90177Y81971D01*
X90200Y82091D01*
X90048Y82859D01*
X89613Y83510D01*
X88961Y83945D01*
X88193Y84098D01*
D02*
G37*
G36*
X71457Y80747D02*
X70689Y80594D01*
X70038Y80159D01*
X69603Y79508D01*
X69450Y78740D01*
X69603Y77972D01*
X70038Y77321D01*
X70689Y76886D01*
X71457Y76733D01*
X72225Y76886D01*
X72876Y77321D01*
X73311Y77972D01*
X73464Y78740D01*
X73311Y79508D01*
X72876Y80159D01*
X72225Y80594D01*
X71457Y80747D01*
D02*
G37*
G36*
X103056Y80357D02*
X102288Y80204D01*
X101637Y79769D01*
X101202Y79118D01*
X101049Y78350D01*
X101202Y77582D01*
X101637Y76931D01*
X102288Y76496D01*
X103056Y76343D01*
X103824Y76496D01*
X103857Y76518D01*
X104549Y76792D01*
X104984Y76141D01*
X105635Y75706D01*
X106403Y75553D01*
X107171Y75706D01*
X107822Y76141D01*
X107892Y76245D01*
X108333Y76751D01*
X108901Y76446D01*
X109025Y76363D01*
X109793Y76210D01*
X110561Y76363D01*
X111212Y76798D01*
X111647Y77449D01*
X111800Y78218D01*
X111647Y78986D01*
X111212Y79637D01*
X110561Y80072D01*
X109793Y80225D01*
X109025Y80072D01*
X108374Y79637D01*
X108304Y79532D01*
X107863Y79026D01*
X107295Y79331D01*
X107171Y79414D01*
X106403Y79567D01*
X105635Y79414D01*
X105602Y79392D01*
X104911Y79118D01*
X104475Y79769D01*
X103824Y80204D01*
X103056Y80357D01*
D02*
G37*
G36*
X160925Y79468D02*
X160157Y79315D01*
X159506Y78880D01*
X159071Y78229D01*
X158918Y77461D01*
X159071Y76693D01*
X159506Y76041D01*
X160157Y75606D01*
X160925Y75454D01*
X161693Y75606D01*
X162344Y76041D01*
X162779Y76693D01*
X162932Y77461D01*
X162779Y78229D01*
X162344Y78880D01*
X161693Y79315D01*
X160925Y79468D01*
D02*
G37*
G36*
X168709Y75141D02*
X167941Y74988D01*
X167522Y74708D01*
X167102Y74988D01*
X166334Y75141D01*
X165566Y74988D01*
X164915Y74553D01*
X164480Y73901D01*
X164327Y73133D01*
X164480Y72365D01*
X164915Y71714D01*
X165566Y71279D01*
X166334Y71126D01*
X167102Y71279D01*
X167522Y71559D01*
X167941Y71279D01*
X168709Y71126D01*
X169477Y71279D01*
X170128Y71714D01*
X170563Y72365D01*
X170716Y73133D01*
X170563Y73901D01*
X170128Y74553D01*
X169477Y74988D01*
X168709Y75141D01*
D02*
G37*
G36*
X173130Y78680D02*
X172362Y78527D01*
X171711Y78092D01*
X171276Y77441D01*
X171123Y76673D01*
X171276Y75905D01*
X171711Y75254D01*
X172362Y74819D01*
X173130Y74666D01*
X173898Y74819D01*
X174549Y75254D01*
X174984Y75905D01*
X175137Y76673D01*
X174984Y77441D01*
X174549Y78092D01*
X173898Y78527D01*
X173130Y78680D01*
D02*
G37*
G36*
X128543Y81338D02*
X127775Y81185D01*
X127124Y80750D01*
X126689Y80099D01*
X126536Y79331D01*
X126543Y79298D01*
X126089Y78586D01*
X125321Y78433D01*
X124670Y77998D01*
X124234Y77347D01*
X124082Y76578D01*
X124234Y75810D01*
X124670Y75159D01*
X125321Y74724D01*
X126089Y74571D01*
X126857Y74724D01*
X127508Y75159D01*
X127943Y75810D01*
X128096Y76578D01*
X128089Y76611D01*
X128543Y77324D01*
X129311Y77476D01*
X129963Y77912D01*
X130398Y78563D01*
X130550Y79331D01*
X130398Y80099D01*
X129963Y80750D01*
X129311Y81185D01*
X128543Y81338D01*
D02*
G37*
G36*
X130512Y73857D02*
X129744Y73705D01*
X129093Y73270D01*
X128657Y72619D01*
X128505Y71850D01*
X127747Y71770D01*
X127710Y71777D01*
X127084Y72455D01*
X127051Y72618D01*
X126616Y73270D01*
X125965Y73705D01*
X125197Y73857D01*
X124429Y73705D01*
X123778Y73270D01*
X123343Y72618D01*
X123190Y71850D01*
X123343Y71082D01*
X123778Y70431D01*
X124429Y69996D01*
X125197Y69843D01*
X125823Y69165D01*
X125855Y69002D01*
X126290Y68351D01*
X126942Y67916D01*
X127710Y67763D01*
X128478Y67916D01*
X129129Y68351D01*
X129513Y68926D01*
X129654Y69022D01*
X130404Y69189D01*
X130427Y69168D01*
X130580Y68400D01*
X131015Y67749D01*
X131555Y67388D01*
X131567Y66936D01*
X131472Y66569D01*
X131467Y66568D01*
X130816Y66133D01*
X130381Y65482D01*
X130228Y64714D01*
X130381Y63946D01*
X130816Y63295D01*
X131467Y62860D01*
X132235Y62707D01*
X133003Y62860D01*
X133654Y63295D01*
X134089Y63946D01*
X134864Y63805D01*
X135610Y63656D01*
X136378Y63809D01*
X137030Y64244D01*
X137849Y64054D01*
X137852Y64049D01*
X138504Y63614D01*
X139272Y63462D01*
X140040Y63614D01*
X140691Y64049D01*
X141126Y64701D01*
X141279Y65469D01*
X141126Y66237D01*
X141612Y66927D01*
X141746Y67017D01*
X142170Y67651D01*
X142612Y67356D01*
X143380Y67203D01*
X144148Y67356D01*
X144799Y67791D01*
X145234Y68442D01*
X145387Y69211D01*
X145234Y69979D01*
X144799Y70630D01*
X144148Y71065D01*
X143380Y71218D01*
X142612Y71065D01*
X141960Y70630D01*
X141536Y69995D01*
X141095Y70291D01*
X140327Y70443D01*
X139559Y70291D01*
X138908Y69855D01*
X138472Y69204D01*
X138320Y68436D01*
X138472Y67668D01*
X137987Y66978D01*
X137852Y66888D01*
X137032Y67078D01*
X137030Y67083D01*
X136378Y67518D01*
X135610Y67671D01*
X134842Y67518D01*
X134357Y67193D01*
X133853Y67749D01*
X134288Y68400D01*
X134441Y69168D01*
X134288Y69937D01*
X133853Y70588D01*
X133202Y71023D01*
X133159Y71031D01*
X132519Y71850D01*
X132366Y72619D01*
X131931Y73270D01*
X131280Y73705D01*
X130512Y73857D01*
D02*
G37*
G36*
X85339Y74648D02*
X84571Y74496D01*
X83920Y74060D01*
X83485Y73409D01*
X83332Y72641D01*
X83485Y71873D01*
X83920Y71222D01*
X84571Y70787D01*
X85339Y70634D01*
X86107Y70787D01*
X86758Y71222D01*
X87193Y71873D01*
X87346Y72641D01*
X87193Y73409D01*
X86758Y74060D01*
X86107Y74496D01*
X85339Y74648D01*
D02*
G37*
G36*
X76878Y74645D02*
X76110Y74492D01*
X75459Y74057D01*
X75024Y73406D01*
X74871Y72638D01*
X75024Y71870D01*
X75459Y71219D01*
X76110Y70784D01*
X76878Y70631D01*
X77646Y70784D01*
X78297Y71219D01*
X78733Y71870D01*
X78885Y72638D01*
X78733Y73406D01*
X78297Y74057D01*
X77646Y74492D01*
X76878Y74645D01*
D02*
G37*
G36*
X97539Y74153D02*
X96771Y74000D01*
X96120Y73565D01*
X95685Y72914D01*
X95532Y72146D01*
X95685Y71378D01*
X96120Y70727D01*
X96771Y70291D01*
X97539Y70139D01*
X98307Y70291D01*
X98959Y70727D01*
X99394Y71378D01*
X99546Y72146D01*
X99394Y72914D01*
X98959Y73565D01*
X98307Y74000D01*
X97539Y74153D01*
D02*
G37*
G36*
X49016Y77105D02*
X48248Y76953D01*
X47596Y76518D01*
X47161Y75866D01*
X47009Y75098D01*
X47161Y74330D01*
X47596Y73679D01*
X48248Y73244D01*
X49016Y73091D01*
X49784Y73244D01*
X49859Y73294D01*
X50746Y73384D01*
X50819Y73335D01*
X51200Y72523D01*
X51047Y71755D01*
X51200Y70987D01*
X51635Y70336D01*
X52286Y69901D01*
X53054Y69748D01*
X53822Y69901D01*
X54473Y70336D01*
X54908Y70987D01*
X55061Y71755D01*
X54908Y72523D01*
X54473Y73175D01*
X54400Y73223D01*
X54020Y74035D01*
X54172Y74803D01*
X54020Y75571D01*
X53585Y76222D01*
X52933Y76657D01*
X52165Y76810D01*
X51397Y76657D01*
X51322Y76607D01*
X50435Y76518D01*
X49784Y76953D01*
X49016Y77105D01*
D02*
G37*
G36*
X175394Y73661D02*
X174626Y73508D01*
X173975Y73073D01*
X173539Y72422D01*
X173387Y71653D01*
X173539Y70885D01*
X173975Y70234D01*
X174626Y69799D01*
X175394Y69647D01*
X176162Y69799D01*
X176813Y70234D01*
X177248Y70885D01*
X177401Y71653D01*
X177248Y72422D01*
X176813Y73073D01*
X176162Y73508D01*
X175394Y73661D01*
D02*
G37*
G36*
X115748Y71889D02*
X114980Y71736D01*
X114329Y71301D01*
X113894Y70650D01*
X113741Y69882D01*
X113894Y69114D01*
X114329Y68463D01*
X114980Y68028D01*
X115748Y67875D01*
X116516Y68028D01*
X117167Y68463D01*
X117602Y69114D01*
X117755Y69882D01*
X117602Y70650D01*
X117167Y71301D01*
X116516Y71736D01*
X115748Y71889D01*
D02*
G37*
G36*
X107874Y70561D02*
X107106Y70409D01*
X106455Y69973D01*
X106020Y69322D01*
X105867Y68554D01*
X106020Y67786D01*
X106455Y67135D01*
X107106Y66700D01*
X107874Y66547D01*
X108642Y66700D01*
X109293Y67135D01*
X109728Y67786D01*
X109881Y68554D01*
X109728Y69322D01*
X109293Y69973D01*
X108642Y70409D01*
X107874Y70561D01*
D02*
G37*
G36*
X8268Y74842D02*
X7500Y74689D01*
X6848Y74254D01*
X6413Y73603D01*
X6261Y72835D01*
X6413Y72067D01*
X6848Y71415D01*
X7039Y71288D01*
X7429Y70453D01*
X7276Y69685D01*
X7429Y68917D01*
X7864Y68266D01*
X8515Y67831D01*
X9283Y67678D01*
X10051Y67831D01*
X10856Y67422D01*
X11081Y67085D01*
X11732Y66650D01*
X12500Y66497D01*
X13268Y66650D01*
X13919Y67085D01*
X14354Y67736D01*
X14507Y68504D01*
X14354Y69272D01*
X13919Y69923D01*
X13268Y70358D01*
X12500Y70511D01*
X11732Y70358D01*
X10927Y70767D01*
X10702Y71104D01*
X10511Y71232D01*
X10122Y72067D01*
X10275Y72835D01*
X10122Y73603D01*
X9687Y74254D01*
X9036Y74689D01*
X8268Y74842D01*
D02*
G37*
G36*
X80315Y70117D02*
X79547Y69964D01*
X78896Y69529D01*
X78461Y68878D01*
X78308Y68110D01*
X78461Y67342D01*
X78896Y66691D01*
X79547Y66256D01*
X80315Y66103D01*
X81083Y66256D01*
X81734Y66691D01*
X82169Y67342D01*
X82322Y68110D01*
X82169Y68878D01*
X81734Y69529D01*
X81083Y69964D01*
X80315Y70117D01*
D02*
G37*
G36*
X25690Y69924D02*
X24922Y69771D01*
X24271Y69336D01*
X23836Y68685D01*
X23683Y67917D01*
X23836Y67149D01*
X24271Y66497D01*
X24922Y66062D01*
X25690Y65910D01*
X26458Y66062D01*
X27109Y66497D01*
X27545Y67149D01*
X27697Y67917D01*
X27545Y68685D01*
X27109Y69336D01*
X26458Y69771D01*
X25690Y69924D01*
D02*
G37*
G36*
X49904Y69038D02*
X49136Y68885D01*
X48485Y68450D01*
X48050Y67799D01*
X47897Y67031D01*
X48050Y66263D01*
X48485Y65611D01*
X49136Y65176D01*
X49904Y65024D01*
X50672Y65176D01*
X51323Y65611D01*
X52029Y65250D01*
X52286Y65078D01*
X53054Y64925D01*
X53822Y65078D01*
X54473Y65513D01*
X54908Y66164D01*
X55061Y66932D01*
X54908Y67700D01*
X54473Y68352D01*
X53822Y68787D01*
X53054Y68939D01*
X52286Y68787D01*
X51635Y68352D01*
X50929Y68713D01*
X50672Y68885D01*
X49904Y69038D01*
D02*
G37*
G36*
X87603Y68447D02*
X86835Y68295D01*
X86184Y67859D01*
X85748Y67208D01*
X85596Y66440D01*
X85748Y65672D01*
X86184Y65021D01*
X86835Y64586D01*
X87603Y64433D01*
X88371Y64586D01*
X89022Y65021D01*
X89457Y65672D01*
X89610Y66440D01*
X89457Y67208D01*
X89022Y67859D01*
X88371Y68295D01*
X87603Y68447D01*
D02*
G37*
G36*
X17520Y66672D02*
X16752Y66520D01*
X16101Y66085D01*
X15665Y65433D01*
X15513Y64665D01*
X15665Y63897D01*
X16101Y63246D01*
X16752Y62811D01*
X17520Y62658D01*
X18288Y62811D01*
X18939Y63246D01*
X19374Y63897D01*
X19527Y64665D01*
X19374Y65433D01*
X18939Y66085D01*
X18288Y66520D01*
X17520Y66672D01*
D02*
G37*
G36*
X12205Y64507D02*
X11437Y64354D01*
X10785Y63919D01*
X10350Y63268D01*
X10198Y62500D01*
X10350Y61732D01*
X10785Y61081D01*
X11437Y60646D01*
X12205Y60493D01*
X12973Y60646D01*
X13624Y61081D01*
X14059Y61732D01*
X14212Y62500D01*
X14059Y63268D01*
X13624Y63919D01*
X12973Y64354D01*
X12205Y64507D01*
D02*
G37*
G36*
X63386Y63916D02*
X62618Y63764D01*
X61967Y63329D01*
X61532Y62678D01*
X61379Y61910D01*
X61532Y61141D01*
X61967Y60490D01*
X62618Y60055D01*
X63386Y59902D01*
X64154Y60055D01*
X64805Y60490D01*
X65240Y61141D01*
X65393Y61910D01*
X65240Y62678D01*
X64805Y63329D01*
X64154Y63764D01*
X63386Y63916D01*
D02*
G37*
G36*
X26697Y63916D02*
X25929Y63764D01*
X25278Y63329D01*
X24842Y62677D01*
X24690Y61909D01*
X24842Y61141D01*
X25278Y60490D01*
X25929Y60055D01*
X26697Y59902D01*
X27465Y60055D01*
X28116Y60490D01*
X28551Y61141D01*
X28704Y61909D01*
X28551Y62677D01*
X28116Y63329D01*
X27465Y63764D01*
X26697Y63916D01*
D02*
G37*
G36*
X69787Y63427D02*
X69019Y63275D01*
X68368Y62840D01*
X67932Y62188D01*
X67780Y61420D01*
X67932Y60652D01*
X68368Y60001D01*
X69019Y59566D01*
X69787Y59413D01*
X70555Y59566D01*
X71206Y60001D01*
X71641Y60652D01*
X71794Y61420D01*
X71641Y62188D01*
X71206Y62840D01*
X70555Y63275D01*
X69787Y63427D01*
D02*
G37*
G36*
X58664Y62049D02*
X57896Y61897D01*
X57245Y61462D01*
X56810Y60810D01*
X56657Y60042D01*
X56810Y59274D01*
X57245Y58623D01*
X57896Y58188D01*
X58664Y58035D01*
X59432Y58188D01*
X60084Y58623D01*
X60519Y59274D01*
X60671Y60042D01*
X60519Y60810D01*
X60084Y61462D01*
X59432Y61897D01*
X58664Y62049D01*
D02*
G37*
G36*
X49016Y59881D02*
X48248Y59728D01*
X47597Y59293D01*
X47161Y58642D01*
X47009Y57874D01*
X47161Y57106D01*
X47597Y56455D01*
X48248Y56020D01*
X49016Y55867D01*
X49784Y56020D01*
X50435Y56455D01*
X50870Y57106D01*
X51023Y57874D01*
X50870Y58642D01*
X50435Y59293D01*
X49784Y59728D01*
X49016Y59881D01*
D02*
G37*
G36*
X87688Y58322D02*
X86920Y58169D01*
X86269Y57734D01*
X85834Y57083D01*
X85681Y56315D01*
X85834Y55546D01*
X86269Y54895D01*
X86920Y54460D01*
X87688Y54308D01*
X88456Y54460D01*
X89108Y54895D01*
X89543Y55546D01*
X89696Y56315D01*
X89543Y57083D01*
X89108Y57734D01*
X88456Y58169D01*
X87688Y58322D01*
D02*
G37*
G36*
X92815Y58011D02*
X92047Y57858D01*
X91396Y57423D01*
X90961Y56772D01*
X90808Y56004D01*
X90961Y55236D01*
X91396Y54585D01*
X92047Y54150D01*
X92815Y53997D01*
X93583Y54150D01*
X94234Y54585D01*
X94669Y55236D01*
X94822Y56004D01*
X94669Y56772D01*
X94234Y57423D01*
X93583Y57858D01*
X92815Y58011D01*
D02*
G37*
G36*
X141437Y57617D02*
X140669Y57464D01*
X140018Y57029D01*
X139583Y56378D01*
X139430Y55610D01*
X139583Y54842D01*
X140018Y54191D01*
X140669Y53756D01*
X141437Y53603D01*
X142205Y53756D01*
X142856Y54191D01*
X143291Y54842D01*
X143444Y55610D01*
X143291Y56378D01*
X142856Y57029D01*
X142205Y57464D01*
X141437Y57617D01*
D02*
G37*
G36*
X20571D02*
X19803Y57464D01*
X19152Y57029D01*
X18717Y56378D01*
X18564Y55610D01*
X18717Y54842D01*
X19152Y54191D01*
X19803Y53756D01*
X20571Y53603D01*
X21339Y53756D01*
X21990Y54191D01*
X22425Y54842D01*
X22578Y55610D01*
X22425Y56378D01*
X21990Y57029D01*
X21339Y57464D01*
X20571Y57617D01*
D02*
G37*
G36*
X35079Y57460D02*
X34311Y57307D01*
X33659Y56872D01*
X33224Y56221D01*
X33072Y55453D01*
X33224Y54685D01*
X33659Y54033D01*
X34311Y53598D01*
X35079Y53446D01*
X35847Y53598D01*
X36498Y54033D01*
X36933Y54685D01*
X37086Y55453D01*
X36933Y56221D01*
X36498Y56872D01*
X35847Y57307D01*
X35079Y57460D01*
D02*
G37*
G36*
X57784Y55854D02*
X57016Y55702D01*
X56365Y55266D01*
X55930Y54615D01*
X55777Y53847D01*
X55930Y53079D01*
X56365Y52428D01*
X57016Y51993D01*
X57784Y51840D01*
X58552Y51993D01*
X59204Y52428D01*
X59639Y53079D01*
X59791Y53847D01*
X59639Y54615D01*
X59204Y55266D01*
X58552Y55702D01*
X57784Y55854D01*
D02*
G37*
G36*
X15748Y56830D02*
X14980Y56677D01*
X14329Y56242D01*
X13894Y55591D01*
X13741Y54823D01*
X13894Y54055D01*
X13575Y53115D01*
X13541Y53092D01*
X13106Y52441D01*
X12954Y51673D01*
X13106Y50905D01*
X13541Y50254D01*
X14193Y49819D01*
X14961Y49666D01*
X15729Y49819D01*
X16380Y50254D01*
X16815Y50905D01*
X16968Y51673D01*
X16815Y52441D01*
X17134Y53381D01*
X17167Y53404D01*
X17602Y54055D01*
X17755Y54823D01*
X17602Y55591D01*
X17167Y56242D01*
X16516Y56677D01*
X15748Y56830D01*
D02*
G37*
G36*
X52460Y52499D02*
X51692Y52346D01*
X51041Y51911D01*
X50606Y51260D01*
X50454Y50492D01*
X50606Y49724D01*
X50921Y49253D01*
X50353Y48685D01*
X49882Y49000D01*
X49114Y49153D01*
X48346Y49000D01*
X47695Y48565D01*
X47260Y47914D01*
X47107Y47146D01*
X47260Y46378D01*
X47695Y45726D01*
X48346Y45291D01*
X49114Y45139D01*
X49882Y45291D01*
X50533Y45726D01*
X50968Y46378D01*
X51121Y47146D01*
X50968Y47914D01*
X50654Y48385D01*
X51221Y48953D01*
X51692Y48638D01*
X52460Y48485D01*
X53229Y48638D01*
X53880Y49073D01*
X54315Y49724D01*
X54468Y50492D01*
X54315Y51260D01*
X53880Y51911D01*
X53229Y52346D01*
X52460Y52499D01*
D02*
G37*
G36*
X7087Y52105D02*
X6318Y51953D01*
X5667Y51518D01*
X5232Y50867D01*
X5080Y50098D01*
X5232Y49330D01*
X5667Y48679D01*
X6318Y48244D01*
X7087Y48091D01*
X7855Y48244D01*
X8506Y48679D01*
X8941Y49330D01*
X9094Y50098D01*
X8941Y50867D01*
X8506Y51518D01*
X7855Y51953D01*
X7087Y52105D01*
D02*
G37*
G36*
X24114Y52007D02*
X23346Y51854D01*
X22695Y51419D01*
X22260Y50768D01*
X22107Y50000D01*
X22260Y49232D01*
X22695Y48581D01*
X23346Y48146D01*
X24114Y47993D01*
X24882Y48146D01*
X25533Y48581D01*
X25969Y49232D01*
X26121Y50000D01*
X25969Y50768D01*
X25533Y51419D01*
X24882Y51854D01*
X24114Y52007D01*
D02*
G37*
G36*
X66043Y55157D02*
X65275Y55004D01*
X64624Y54569D01*
X64189Y53918D01*
X64036Y53150D01*
X63583Y52499D01*
X63430Y52469D01*
X62815Y52346D01*
X62164Y51911D01*
X61728Y51260D01*
X61576Y50492D01*
X61728Y49724D01*
X62164Y49073D01*
X62815Y48638D01*
X63583Y48485D01*
X64351Y48638D01*
X65002Y49073D01*
X65437Y49724D01*
X65575Y50417D01*
X65702Y50485D01*
X65965Y50467D01*
X66399Y49902D01*
X66551Y49134D01*
X66986Y48482D01*
X67637Y48047D01*
X68405Y47894D01*
X69174Y48047D01*
X69825Y48482D01*
X70260Y49134D01*
X70413Y49902D01*
X70260Y50670D01*
X69825Y51321D01*
X69174Y51756D01*
X68514Y51887D01*
X68317Y52045D01*
X67945Y52620D01*
X68050Y53150D01*
X67898Y53918D01*
X67462Y54569D01*
X66811Y55004D01*
X66043Y55157D01*
D02*
G37*
G36*
X158177Y49253D02*
X157409Y49101D01*
X156758Y48666D01*
X156323Y48014D01*
X156170Y47246D01*
X156323Y46478D01*
X156758Y45827D01*
X157409Y45392D01*
X158177Y45239D01*
X158945Y45392D01*
X159596Y45827D01*
X160031Y46478D01*
X160184Y47246D01*
X160031Y48014D01*
X159596Y48666D01*
X158945Y49101D01*
X158177Y49253D01*
D02*
G37*
G36*
X163572Y49842D02*
X162804Y49689D01*
X162153Y49254D01*
X161718Y48603D01*
X161565Y47835D01*
X161718Y47067D01*
X162153Y46415D01*
X162804Y45980D01*
X163572Y45828D01*
X164340Y45980D01*
X164375Y46004D01*
X165181Y45986D01*
X165616Y45335D01*
X166268Y44900D01*
X167036Y44747D01*
X167804Y44900D01*
X168455Y45335D01*
X168482Y45375D01*
X169429D01*
X169455Y45335D01*
X170106Y44900D01*
X170874Y44747D01*
X171642Y44900D01*
X172294Y45335D01*
X172729Y45986D01*
X172881Y46754D01*
X172729Y47522D01*
X172294Y48173D01*
X171642Y48608D01*
X170874Y48761D01*
X170106Y48608D01*
X169455Y48173D01*
X169429Y48134D01*
X168482D01*
X168455Y48173D01*
X167804Y48608D01*
X167036Y48761D01*
X166268Y48608D01*
X166233Y48585D01*
X165427Y48603D01*
X164991Y49254D01*
X164340Y49689D01*
X163572Y49842D01*
D02*
G37*
G36*
X175787Y50826D02*
X175019Y50673D01*
X174368Y50238D01*
X173933Y49587D01*
X173780Y48819D01*
X173933Y48051D01*
X174368Y47400D01*
X175019Y46965D01*
X175178Y46933D01*
X175847Y46260D01*
X176000Y45492D01*
X176435Y44841D01*
X177086Y44405D01*
X177854Y44253D01*
X178622Y44405D01*
X179274Y44841D01*
X179709Y45492D01*
X179861Y46260D01*
X179709Y47028D01*
X179274Y47679D01*
X178622Y48114D01*
X178463Y48146D01*
X177795Y48819D01*
X177642Y49587D01*
X177207Y50238D01*
X176556Y50673D01*
X175787Y50826D01*
D02*
G37*
G36*
X7972Y46987D02*
X7204Y46835D01*
X6553Y46400D01*
X6118Y45748D01*
X5965Y44980D01*
X6118Y44212D01*
X6553Y43561D01*
X7204Y43126D01*
X7972Y42973D01*
X8741Y43126D01*
X9392Y43561D01*
X9827Y44212D01*
X9979Y44980D01*
X9827Y45748D01*
X9392Y46400D01*
X8741Y46835D01*
X7972Y46987D01*
D02*
G37*
G36*
X23720Y46791D02*
X22952Y46638D01*
X22301Y46203D01*
X21866Y45551D01*
X21713Y44783D01*
X21866Y44015D01*
X22301Y43364D01*
X22952Y42929D01*
X23720Y42776D01*
X24489Y42929D01*
X25140Y43364D01*
X25575Y44015D01*
X25728Y44783D01*
X25575Y45551D01*
X25140Y46203D01*
X24489Y46638D01*
X23720Y46791D01*
D02*
G37*
G36*
X85728Y46202D02*
X84960Y46049D01*
X84309Y45614D01*
X83874Y44963D01*
X83721Y44195D01*
X83874Y43427D01*
X84309Y42776D01*
X84960Y42341D01*
X85728Y42188D01*
X86496Y42341D01*
X87148Y42776D01*
X87583Y43427D01*
X87735Y44195D01*
X87583Y44963D01*
X87148Y45614D01*
X86496Y46049D01*
X85728Y46202D01*
D02*
G37*
G36*
X69095Y45609D02*
X68326Y45457D01*
X67675Y45022D01*
X67240Y44370D01*
X67087Y43602D01*
X67240Y42834D01*
X67354Y42663D01*
X67041Y41968D01*
X66327Y41953D01*
X65986Y42463D01*
X65335Y42898D01*
X64567Y43050D01*
X63799Y42898D01*
X63148Y42463D01*
X62713Y41811D01*
X62560Y41043D01*
X62709Y40294D01*
X62712Y40272D01*
X62522Y39454D01*
X61871Y39019D01*
X61436Y38368D01*
X61283Y37600D01*
X61436Y36832D01*
X61871Y36181D01*
X62522Y35746D01*
X63290Y35593D01*
X64059Y35746D01*
X64710Y36181D01*
X65145Y36832D01*
X65298Y37600D01*
X65149Y38349D01*
X65145Y38371D01*
X65149Y38387D01*
X66048Y38778D01*
X66096Y38751D01*
X66301Y38445D01*
X66952Y38010D01*
X67720Y37857D01*
X68488Y38010D01*
X69139Y38445D01*
X69574Y39096D01*
X69727Y39864D01*
X69635Y40327D01*
X70020Y41073D01*
X70144Y41196D01*
X70427Y41237D01*
X70465Y41203D01*
X70590Y40572D01*
X71025Y39921D01*
X71676Y39486D01*
X71815Y39459D01*
X72177Y38584D01*
X72165Y38565D01*
X72012Y37797D01*
X72165Y37029D01*
X72600Y36378D01*
X73251Y35943D01*
X74019Y35790D01*
X74787Y35943D01*
X75438Y36378D01*
X75521Y36502D01*
X76303Y36927D01*
X77071Y36774D01*
X77839Y36927D01*
X78490Y37362D01*
X78925Y38013D01*
X79078Y38781D01*
X78925Y39549D01*
X78490Y40200D01*
X77839Y40636D01*
X77071Y40788D01*
X76303Y40636D01*
X75651Y40200D01*
X75568Y40076D01*
X75376Y39972D01*
X74944Y40121D01*
X74299Y40573D01*
X74452Y41341D01*
X74299Y42109D01*
X73864Y42760D01*
X73212Y43195D01*
X72444Y43348D01*
X71829Y43225D01*
X71393Y43452D01*
X71074Y43740D01*
X70949Y44370D01*
X70514Y45022D01*
X69863Y45457D01*
X69095Y45609D01*
D02*
G37*
G36*
X17421Y45511D02*
X16653Y45358D01*
X16002Y44923D01*
X15567Y44272D01*
X15414Y43504D01*
X15567Y42736D01*
X16002Y42085D01*
X16653Y41650D01*
X17421Y41497D01*
X18189Y41650D01*
X18841Y42085D01*
X19276Y42736D01*
X19428Y43504D01*
X19276Y44272D01*
X18841Y44923D01*
X18189Y45358D01*
X17421Y45511D01*
D02*
G37*
G36*
X100715Y51298D02*
X99947Y51145D01*
X99296Y50710D01*
X98861Y50059D01*
X98708Y49291D01*
X98861Y48523D01*
X99002Y48311D01*
X99235Y47716D01*
X99002Y47121D01*
X98861Y46909D01*
X98708Y46141D01*
X98861Y45373D01*
X99296Y44722D01*
X99808Y44380D01*
X99425Y43808D01*
X99273Y43040D01*
X99425Y42272D01*
X99860Y41620D01*
X100512Y41185D01*
X101279Y41033D01*
X102048Y41185D01*
X102699Y41620D01*
X103134Y42272D01*
X103287Y43040D01*
X103134Y43808D01*
X102699Y44459D01*
X102187Y44801D01*
X102569Y45373D01*
X102722Y46141D01*
X102569Y46909D01*
X102428Y47121D01*
X102195Y47716D01*
X102428Y48311D01*
X102569Y48523D01*
X102722Y49291D01*
X102569Y50059D01*
X102134Y50710D01*
X101483Y51145D01*
X100715Y51298D01*
D02*
G37*
G36*
X108760Y43444D02*
X107992Y43291D01*
X107341Y42856D01*
X106905Y42205D01*
X106753Y41437D01*
X106905Y40669D01*
X107341Y40018D01*
X107992Y39583D01*
X108760Y39430D01*
X109528Y39583D01*
X110179Y40018D01*
X110614Y40669D01*
X110767Y41437D01*
X110614Y42205D01*
X110179Y42856D01*
X109528Y43291D01*
X108760Y43444D01*
D02*
G37*
G36*
X33858Y43050D02*
X33090Y42898D01*
X32439Y42463D01*
X32004Y41811D01*
X31851Y41043D01*
X32004Y40275D01*
X32439Y39624D01*
X33090Y39189D01*
X33858Y39036D01*
X34626Y39189D01*
X35278Y39624D01*
X35713Y40275D01*
X35865Y41043D01*
X35713Y41811D01*
X35278Y42463D01*
X34626Y42898D01*
X33858Y43050D01*
D02*
G37*
G36*
X126907Y44785D02*
X126139Y44633D01*
X125487Y44197D01*
X125052Y43546D01*
X124900Y42778D01*
X125052Y42010D01*
X125487Y41359D01*
X126139Y40924D01*
X126907Y40771D01*
X126907Y40771D01*
X127127Y40551D01*
X127280Y39783D01*
X127715Y39132D01*
X128366Y38697D01*
X129134Y38544D01*
X129902Y38697D01*
X130553Y39132D01*
X130988Y39783D01*
X131141Y40551D01*
X130988Y41319D01*
X130553Y41970D01*
X129902Y42406D01*
X129134Y42558D01*
X129134Y42558D01*
X128914Y42778D01*
X128761Y43546D01*
X128326Y44197D01*
X127675Y44633D01*
X126907Y44785D01*
D02*
G37*
G36*
X42717Y41869D02*
X41949Y41717D01*
X41297Y41281D01*
X40862Y40630D01*
X40709Y39862D01*
X40862Y39094D01*
X41297Y38443D01*
X41949Y38008D01*
X42717Y37855D01*
X43485Y38008D01*
X44136Y38443D01*
X44571Y39094D01*
X44724Y39862D01*
X44571Y40630D01*
X44136Y41281D01*
X43485Y41717D01*
X42717Y41869D01*
D02*
G37*
G36*
X49412Y41656D02*
X48644Y41503D01*
X47993Y41068D01*
X47558Y40417D01*
X47405Y39649D01*
X47558Y38881D01*
X47993Y38229D01*
X48644Y37794D01*
X49412Y37642D01*
X50180Y37794D01*
X50831Y38229D01*
X51266Y38881D01*
X51419Y39649D01*
X51266Y40417D01*
X50831Y41068D01*
X50180Y41503D01*
X49412Y41656D01*
D02*
G37*
G36*
X56988Y43444D02*
X56220Y43291D01*
X55569Y42856D01*
X55134Y42205D01*
X55091Y41991D01*
X54629Y41281D01*
X53860Y41128D01*
X53209Y40693D01*
X52774Y40042D01*
X52622Y39274D01*
X52774Y38505D01*
X53209Y37854D01*
X53860Y37419D01*
X54629Y37266D01*
X55397Y37419D01*
X56048Y37854D01*
X56483Y38505D01*
X56525Y38719D01*
X56988Y39430D01*
X57756Y39583D01*
X58407Y40018D01*
X58842Y40669D01*
X58995Y41437D01*
X58842Y42205D01*
X58407Y42856D01*
X57756Y43291D01*
X56988Y43444D01*
D02*
G37*
G36*
X116111Y49017D02*
X115343Y48864D01*
X114692Y48429D01*
X114257Y47778D01*
X114104Y47010D01*
X114257Y46242D01*
X114692Y45591D01*
X115343Y45156D01*
X115537Y44314D01*
X115513Y44193D01*
X115665Y43425D01*
X116101Y42774D01*
X116752Y42339D01*
X117026Y41599D01*
X116989Y41411D01*
X117142Y40643D01*
X117577Y39992D01*
X118228Y39557D01*
X118256Y39489D01*
X118033Y39156D01*
X117881Y38388D01*
X118033Y37620D01*
X118468Y36968D01*
X119120Y36533D01*
X119888Y36380D01*
X120656Y36533D01*
X121307Y36968D01*
X121742Y37620D01*
X121895Y38388D01*
X121742Y39156D01*
X121307Y39807D01*
X120656Y40242D01*
X120628Y40310D01*
X120850Y40643D01*
X121003Y41411D01*
X120850Y42179D01*
X120415Y42830D01*
X119764Y43265D01*
X119489Y44005D01*
X119527Y44193D01*
X119374Y44961D01*
X118939Y45612D01*
X118288Y46047D01*
X118094Y46889D01*
X118118Y47010D01*
X117965Y47778D01*
X117530Y48429D01*
X116879Y48864D01*
X116111Y49017D01*
D02*
G37*
G36*
X151870Y35964D02*
X151102Y35811D01*
X150451Y35376D01*
X149746D01*
X149095Y35811D01*
X148327Y35964D01*
X147559Y35811D01*
X146907Y35376D01*
X146596D01*
X145945Y35811D01*
X145177Y35964D01*
X144409Y35811D01*
X144134Y35627D01*
X143557Y35441D01*
X142979Y35627D01*
X142704Y35811D01*
X141936Y35964D01*
X141168Y35811D01*
X140517Y35376D01*
X140082Y34725D01*
X139929Y33957D01*
X140082Y33189D01*
X140517Y32537D01*
X141168Y32102D01*
X141936Y31950D01*
X142704Y32102D01*
X142979Y32286D01*
X143557Y32473D01*
X144134Y32286D01*
X144409Y32102D01*
X145177Y31950D01*
X145945Y32102D01*
X146596Y32537D01*
X146907D01*
X147559Y32102D01*
X148327Y31950D01*
X149095Y32102D01*
X149746Y32537D01*
X150451D01*
X151102Y32102D01*
X151870Y31950D01*
X152638Y32102D01*
X153289Y32537D01*
X153724Y33189D01*
X153877Y33957D01*
X153724Y34725D01*
X153289Y35376D01*
X152638Y35811D01*
X151870Y35964D01*
D02*
G37*
G36*
X93327Y38849D02*
X92559Y38696D01*
X91908Y38261D01*
X91473Y37610D01*
X91321Y36842D01*
X91473Y36074D01*
X91908Y35423D01*
X92559Y34988D01*
X93327Y34835D01*
X94096Y34988D01*
X94747Y35423D01*
X95182Y36074D01*
X95335Y36842D01*
X95182Y37610D01*
X94747Y38261D01*
X94096Y38696D01*
X93327Y38849D01*
D02*
G37*
G36*
X163878Y31830D02*
X163110Y31677D01*
X162459Y31242D01*
X161852D01*
X161201Y31677D01*
X160433Y31830D01*
X159665Y31677D01*
X159014Y31242D01*
X158579Y30591D01*
X158426Y29823D01*
X158579Y29055D01*
X159014Y28404D01*
X159665Y27968D01*
X160433Y27816D01*
X161201Y27968D01*
X161852Y28404D01*
X162459D01*
X163110Y27968D01*
X163878Y27816D01*
X164646Y27968D01*
X165297Y28404D01*
X165732Y29055D01*
X165885Y29823D01*
X165732Y30591D01*
X165297Y31242D01*
X164646Y31677D01*
X163878Y31830D01*
D02*
G37*
G36*
X51676Y34981D02*
X50908Y34828D01*
X50257Y34393D01*
X49821Y33742D01*
X49669Y32974D01*
X49821Y32206D01*
X50257Y31555D01*
X50908Y31120D01*
X51676Y30967D01*
X52444Y31120D01*
X53095Y31555D01*
X53530Y32206D01*
X53683Y32974D01*
X53530Y33742D01*
X53095Y34393D01*
X52444Y34828D01*
X51676Y34981D01*
D02*
G37*
G36*
X177559Y33011D02*
X176791Y32858D01*
X176140Y32423D01*
X175705Y31772D01*
X175552Y31004D01*
X175705Y30236D01*
X176140Y29585D01*
X176791Y29150D01*
X177559Y28997D01*
X178327Y29150D01*
X178978Y29585D01*
X179413Y30236D01*
X179566Y31004D01*
X179413Y31772D01*
X178978Y32423D01*
X178327Y32858D01*
X177559Y33011D01*
D02*
G37*
G36*
X31594Y31436D02*
X30826Y31283D01*
X30175Y30848D01*
X29740Y30197D01*
X29587Y29429D01*
X29740Y28661D01*
X30175Y28010D01*
X30826Y27575D01*
X31594Y27422D01*
X32362Y27575D01*
X33014Y28010D01*
X33449Y28661D01*
X33601Y29429D01*
X33449Y30197D01*
X33014Y30848D01*
X32362Y31283D01*
X31594Y31436D01*
D02*
G37*
G36*
X55807Y30058D02*
X55039Y29906D01*
X54388Y29470D01*
X53953Y28819D01*
X53800Y28051D01*
X53953Y27283D01*
X54388Y26632D01*
X55039Y26197D01*
X55807Y26044D01*
X56575Y26197D01*
X57226Y26632D01*
X57661Y27283D01*
X57814Y28051D01*
X57661Y28819D01*
X57226Y29470D01*
X56575Y29906D01*
X55807Y30058D01*
D02*
G37*
G36*
X151287Y25236D02*
X150519Y25084D01*
X149868Y24649D01*
X149039Y24825D01*
X148898Y24919D01*
X148130Y25071D01*
X147362Y24919D01*
X146711Y24484D01*
X146689Y24452D01*
X146308D01*
X145657Y24887D01*
X144889Y25040D01*
X144121Y24887D01*
X143564Y24515D01*
X143255Y24434D01*
X142671D01*
X142659Y24451D01*
X142008Y24886D01*
X141240Y25039D01*
X140472Y24886D01*
X139821Y24451D01*
X139386Y23800D01*
X139233Y23031D01*
X139386Y22264D01*
X139821Y21612D01*
X140472Y21177D01*
X141240Y21024D01*
X142008Y21177D01*
X142565Y21550D01*
X142874Y21630D01*
X143458D01*
X143470Y21613D01*
X144121Y21178D01*
X144889Y21025D01*
X145657Y21178D01*
X146308Y21613D01*
X146329Y21645D01*
X146711D01*
X147362Y21210D01*
X148130Y21057D01*
X148898Y21210D01*
X149549Y21645D01*
X150378Y21469D01*
X150519Y21375D01*
X151287Y21222D01*
X152055Y21375D01*
X152706Y21810D01*
X153141Y22461D01*
X153294Y23229D01*
X153141Y23998D01*
X152706Y24649D01*
X152055Y25084D01*
X151287Y25236D01*
D02*
G37*
G36*
X97539Y28287D02*
X96771Y28134D01*
X96120Y27699D01*
X95685Y27048D01*
X95532Y26280D01*
X95685Y25512D01*
X96120Y24860D01*
X96771Y24425D01*
X97539Y24272D01*
X98307Y24425D01*
X98959Y24860D01*
X99394Y25512D01*
X99546Y26280D01*
X99394Y27048D01*
X98959Y27699D01*
X98307Y28134D01*
X97539Y28287D01*
D02*
G37*
G36*
X120374Y30255D02*
X119606Y30102D01*
X118955Y29667D01*
X118520Y29016D01*
X118367Y28248D01*
X118497Y27596D01*
X117736Y27445D01*
X117085Y27010D01*
X116650Y26359D01*
X116497Y25591D01*
X116650Y24823D01*
X117085Y24171D01*
X117736Y23736D01*
X118504Y23584D01*
X119272Y23736D01*
X119923Y24171D01*
X120358Y24823D01*
X120511Y25591D01*
X120381Y26243D01*
X121142Y26394D01*
X121793Y26829D01*
X122228Y27480D01*
X122381Y28248D01*
X122228Y29016D01*
X121793Y29667D01*
X121142Y30102D01*
X120374Y30255D01*
D02*
G37*
G36*
X112303Y29763D02*
X111535Y29610D01*
X110884Y29175D01*
X110449Y28524D01*
X110296Y27756D01*
X110449Y26988D01*
X110884Y26337D01*
X111179Y26139D01*
Y25730D01*
X110744Y25079D01*
X110591Y24311D01*
X110744Y23543D01*
X111179Y22892D01*
X111830Y22457D01*
X112598Y22304D01*
X113366Y22457D01*
X114018Y22892D01*
X114453Y23543D01*
X114605Y24311D01*
X114453Y25079D01*
X114018Y25730D01*
X113722Y25927D01*
Y26337D01*
X114157Y26988D01*
X114310Y27756D01*
X114157Y28524D01*
X113722Y29175D01*
X113071Y29610D01*
X112303Y29763D01*
D02*
G37*
G36*
X62402Y26220D02*
X61633Y26067D01*
X60982Y25632D01*
X60547Y24981D01*
X60395Y24213D01*
X60547Y23445D01*
X60982Y22793D01*
X61633Y22358D01*
X62402Y22206D01*
X63170Y22358D01*
X63821Y22793D01*
X64256Y23445D01*
X64409Y24213D01*
X64256Y24981D01*
X63821Y25632D01*
X63170Y26067D01*
X62402Y26220D01*
D02*
G37*
G36*
X50394Y26121D02*
X49626Y25969D01*
X48974Y25533D01*
X48539Y24882D01*
X48387Y24114D01*
X48539Y23346D01*
X48974Y22695D01*
X49626Y22260D01*
X50394Y22107D01*
X51162Y22260D01*
X51813Y22695D01*
X52248Y23346D01*
X52401Y24114D01*
X52248Y24882D01*
X51813Y25533D01*
X51162Y25969D01*
X50394Y26121D01*
D02*
G37*
G36*
X106398Y25629D02*
X105630Y25476D01*
X104978Y25041D01*
X104543Y24390D01*
X104391Y23622D01*
X104543Y22854D01*
X104978Y22203D01*
X105630Y21768D01*
X106398Y21615D01*
X107166Y21768D01*
X107817Y22203D01*
X108252Y22854D01*
X108405Y23622D01*
X108252Y24390D01*
X107817Y25041D01*
X107166Y25476D01*
X106398Y25629D01*
D02*
G37*
G36*
X55905Y25235D02*
X55137Y25082D01*
X54486Y24647D01*
X54051Y23996D01*
X53898Y23228D01*
X54051Y22460D01*
X54486Y21809D01*
X55137Y21374D01*
X55905Y21221D01*
X56674Y21374D01*
X57325Y21809D01*
X57760Y22460D01*
X57912Y23228D01*
X57760Y23996D01*
X57325Y24647D01*
X56674Y25082D01*
X55905Y25235D01*
D02*
G37*
G36*
X19488Y24448D02*
X18720Y24295D01*
X18069Y23860D01*
X17634Y23209D01*
X17481Y22441D01*
X17634Y21673D01*
X18069Y21022D01*
X18720Y20587D01*
X19488Y20434D01*
X20256Y20587D01*
X20907Y21022D01*
X21342Y21673D01*
X21495Y22441D01*
X21342Y23209D01*
X20907Y23860D01*
X20256Y24295D01*
X19488Y24448D01*
D02*
G37*
G36*
X11220Y23168D02*
X10452Y23016D01*
X9801Y22581D01*
X9366Y21929D01*
X9213Y21161D01*
X9366Y20393D01*
X9801Y19742D01*
X10452Y19307D01*
X11220Y19154D01*
X11988Y19307D01*
X12640Y19742D01*
X13075Y20393D01*
X13228Y21161D01*
X13075Y21929D01*
X12640Y22581D01*
X11988Y23016D01*
X11220Y23168D01*
D02*
G37*
G36*
X67917Y22284D02*
X67149Y22131D01*
X66497Y21696D01*
X66062Y21045D01*
X65954Y20500D01*
X65453Y19920D01*
X64685Y19768D01*
X64034Y19333D01*
X63767Y18934D01*
X62936Y19079D01*
X62878Y19370D01*
X62443Y20022D01*
X61792Y20457D01*
X61024Y20609D01*
X60256Y20457D01*
X59604Y20022D01*
X59169Y19370D01*
X59017Y18602D01*
X59169Y17834D01*
X59604Y17183D01*
X60256Y16748D01*
X61024Y16595D01*
X61792Y16748D01*
X62443Y17183D01*
X62709Y17581D01*
X63541Y17437D01*
X63599Y17145D01*
X64034Y16494D01*
X64685Y16059D01*
X65453Y15906D01*
X66221Y16059D01*
X66872Y16494D01*
X67307Y17145D01*
X67415Y17690D01*
X67917Y18269D01*
X68685Y18422D01*
X69336Y18857D01*
X69771Y19508D01*
X69924Y20277D01*
X69771Y21045D01*
X69336Y21696D01*
X68685Y22131D01*
X67917Y22284D01*
D02*
G37*
G36*
X36516Y22381D02*
X35748Y22228D01*
X35096Y21793D01*
X34661Y21142D01*
X34509Y20374D01*
X34661Y19606D01*
X35096Y18955D01*
X35748Y18520D01*
X36516Y18367D01*
X37284Y18520D01*
X37935Y18955D01*
X38370Y19606D01*
X38523Y20374D01*
X38370Y21142D01*
X37935Y21793D01*
X37284Y22228D01*
X36516Y22381D01*
D02*
G37*
G36*
X91831Y22086D02*
X91063Y21933D01*
X90412Y21498D01*
X89976Y20847D01*
X89824Y20079D01*
X89976Y19311D01*
X90412Y18659D01*
X91063Y18225D01*
X91831Y18072D01*
X92599Y18225D01*
X93250Y18659D01*
X93685Y19311D01*
X93838Y20079D01*
X93685Y20847D01*
X93250Y21498D01*
X92599Y21933D01*
X91831Y22086D01*
D02*
G37*
G36*
X41240Y21594D02*
X40472Y21441D01*
X39821Y21006D01*
X39386Y20355D01*
X39233Y19587D01*
X39386Y18819D01*
X39821Y18167D01*
X40472Y17732D01*
X41240Y17579D01*
X42008Y17732D01*
X42659Y18167D01*
X43095Y18819D01*
X43247Y19587D01*
X43095Y20355D01*
X42659Y21006D01*
X42008Y21441D01*
X41240Y21594D01*
D02*
G37*
G36*
X159941Y21298D02*
X159173Y21146D01*
X158522Y20710D01*
X158087Y20059D01*
X157934Y19291D01*
X158087Y18523D01*
X158522Y17872D01*
X159173Y17437D01*
X159941Y17284D01*
X160709Y17437D01*
X161360Y17872D01*
X161795Y18523D01*
X161948Y19291D01*
X161795Y20059D01*
X161360Y20710D01*
X160709Y21146D01*
X159941Y21298D01*
D02*
G37*
G36*
X72540Y20906D02*
X71771Y20753D01*
X71120Y20318D01*
X70685Y19667D01*
X70532Y18899D01*
X70685Y18130D01*
X71120Y17479D01*
X71771Y17044D01*
X72540Y16891D01*
X73308Y17044D01*
X73959Y17479D01*
X74394Y18130D01*
X74547Y18899D01*
X74394Y19667D01*
X73959Y20318D01*
X73308Y20753D01*
X72540Y20906D01*
D02*
G37*
G36*
X134153Y20806D02*
X133386Y20653D01*
X132734Y20218D01*
X132299Y19567D01*
X132147Y18799D01*
X132299Y18031D01*
X132734Y17380D01*
X133386Y16945D01*
X134153Y16792D01*
X134814Y16121D01*
X134865Y15867D01*
X135300Y15215D01*
X135951Y14780D01*
X136719Y14627D01*
X136786Y13872D01*
X136240Y13764D01*
X135589Y13329D01*
X135154Y12677D01*
X135001Y11909D01*
X135154Y11141D01*
X135589Y10490D01*
X136240Y10055D01*
X137008Y9902D01*
X137776Y10055D01*
X138427Y10490D01*
X138862Y11141D01*
X139015Y11909D01*
X138862Y12677D01*
X138427Y13329D01*
X137776Y13764D01*
X137008Y13916D01*
X136941Y14672D01*
X137487Y14780D01*
X138138Y15215D01*
X138401Y15608D01*
X138996Y16158D01*
X139764Y16005D01*
X140532Y16158D01*
X141152Y16572D01*
X141233Y16613D01*
X141888Y16888D01*
X142142Y16718D01*
X142539Y16453D01*
X143307Y16300D01*
X144075Y16453D01*
X144726Y16888D01*
X145161Y17539D01*
X145314Y18307D01*
X145161Y19075D01*
X144726Y19726D01*
X144075Y20161D01*
X143307Y20314D01*
X142539Y20161D01*
X141919Y19747D01*
X141838Y19705D01*
X141183Y19431D01*
X140929Y19601D01*
X140532Y19866D01*
X139764Y20019D01*
X138996Y19866D01*
X138345Y19431D01*
X137909Y18780D01*
X137162Y18553D01*
X136719Y18642D01*
X136058Y19313D01*
X136008Y19567D01*
X135573Y20218D01*
X134922Y20653D01*
X134153Y20806D01*
D02*
G37*
G36*
X111915Y17559D02*
X111147Y17406D01*
X110496Y16971D01*
X110061Y16320D01*
X110024Y16136D01*
X109544Y15576D01*
X109176Y15600D01*
X108740Y15687D01*
X107972Y15534D01*
X107320Y15099D01*
X106885Y14448D01*
X106733Y13680D01*
X106885Y12912D01*
X107320Y12261D01*
X107972Y11825D01*
X108740Y11673D01*
X109508Y11825D01*
X110159Y12261D01*
X110594Y12912D01*
X110631Y13096D01*
X111111Y13656D01*
X111479Y13632D01*
X111915Y13545D01*
X112683Y13698D01*
X113199Y14043D01*
X113558Y14066D01*
X114124Y13897D01*
X114427Y13443D01*
X115078Y13008D01*
X115847Y12855D01*
X116614Y13008D01*
X116841Y12645D01*
X116847Y12618D01*
X117282Y11967D01*
X117933Y11532D01*
X118701Y11379D01*
X119469Y11532D01*
X120120Y11967D01*
X120555Y12618D01*
X120708Y13386D01*
X120555Y14154D01*
X120120Y14805D01*
X119469Y15240D01*
X118701Y15393D01*
X117933Y15240D01*
X117706Y15603D01*
X117701Y15630D01*
X117266Y16281D01*
X116614Y16716D01*
X115847Y16869D01*
X115078Y16716D01*
X114562Y16371D01*
X114204Y16348D01*
X113638Y16517D01*
X113334Y16971D01*
X112683Y17406D01*
X111915Y17559D01*
D02*
G37*
G36*
X175591Y17263D02*
X174822Y17110D01*
X174171Y16675D01*
X173736Y16024D01*
X173583Y15256D01*
X173595Y15196D01*
X172854Y14888D01*
X172581Y15297D01*
X171930Y15732D01*
X171161Y15885D01*
X170393Y15732D01*
X169742Y15297D01*
X169307Y14646D01*
X169154Y13878D01*
X169307Y13110D01*
X169742Y12459D01*
X170393Y12024D01*
X171161Y11871D01*
X171930Y12024D01*
X172581Y12459D01*
X173016Y13110D01*
X173169Y13878D01*
X173156Y13938D01*
X173898Y14245D01*
X174171Y13837D01*
X174822Y13402D01*
X175591Y13249D01*
X176359Y13402D01*
X177010Y13837D01*
X177445Y14488D01*
X177598Y15256D01*
X177445Y16024D01*
X177010Y16675D01*
X176359Y17110D01*
X175591Y17263D01*
D02*
G37*
G36*
X81992Y21496D02*
X81224Y21343D01*
X80573Y20908D01*
X80138Y20257D01*
X79985Y19489D01*
X80040Y19212D01*
X79962Y18540D01*
X79576Y18144D01*
X79293Y17955D01*
X78858Y17304D01*
X78706Y16536D01*
X78858Y15768D01*
X79293Y15117D01*
X79944Y14682D01*
X80713Y14529D01*
X81481Y14682D01*
X82132Y15117D01*
X82567Y15768D01*
X82720Y16536D01*
X82665Y16813D01*
X82743Y17485D01*
X83129Y17881D01*
X83411Y18070D01*
X83846Y18721D01*
X83999Y19489D01*
X83846Y20257D01*
X83411Y20908D01*
X82760Y21343D01*
X81992Y21496D01*
D02*
G37*
G36*
X7874Y18050D02*
X7106Y17898D01*
X6455Y17462D01*
X6020Y16811D01*
X5867Y16043D01*
X6020Y15275D01*
X6455Y14624D01*
X7106Y14189D01*
X7874Y14036D01*
X8642Y14189D01*
X9293Y14624D01*
X9728Y15275D01*
X9881Y16043D01*
X9728Y16811D01*
X9293Y17462D01*
X8642Y17898D01*
X7874Y18050D01*
D02*
G37*
G36*
X48228Y17952D02*
X47460Y17799D01*
X46809Y17364D01*
X46374Y16713D01*
X46221Y15945D01*
X46374Y15177D01*
X46809Y14526D01*
X47460Y14091D01*
X48228Y13938D01*
X48996Y14091D01*
X49648Y14526D01*
X50083Y15177D01*
X50235Y15945D01*
X50083Y16713D01*
X49648Y17364D01*
X48996Y17799D01*
X48228Y17952D01*
D02*
G37*
G36*
X35433Y17460D02*
X34665Y17307D01*
X34014Y16872D01*
X33579Y16221D01*
X33426Y15453D01*
X33579Y14685D01*
X34014Y14033D01*
X34665Y13599D01*
X35433Y13446D01*
X36201Y13599D01*
X36780Y13985D01*
X36917Y14024D01*
X37711Y13901D01*
X37951Y13541D01*
X38602Y13106D01*
X39370Y12954D01*
X40138Y13106D01*
X40789Y13541D01*
X41224Y14193D01*
X41377Y14961D01*
X41224Y15729D01*
X40789Y16380D01*
X40138Y16815D01*
X39370Y16968D01*
X38602Y16815D01*
X38024Y16428D01*
X37887Y16390D01*
X37093Y16512D01*
X36852Y16872D01*
X36201Y17307D01*
X35433Y17460D01*
D02*
G37*
G36*
X94587Y16574D02*
X93819Y16421D01*
X93167Y15986D01*
X92732Y15335D01*
X92580Y14567D01*
X92732Y13799D01*
X93167Y13148D01*
X93819Y12713D01*
X94587Y12560D01*
X95355Y12713D01*
X96006Y13148D01*
X96441Y13799D01*
X96594Y14567D01*
X96441Y15335D01*
X96006Y15986D01*
X95355Y16421D01*
X94587Y16574D01*
D02*
G37*
G36*
X22835Y18149D02*
X22067Y17996D01*
X21415Y17561D01*
X20980Y16910D01*
X20828Y16142D01*
X20980Y15374D01*
X21415Y14723D01*
X21711Y14525D01*
Y14411D01*
X21276Y13760D01*
X21123Y12992D01*
X21276Y12224D01*
X21711Y11573D01*
X22362Y11138D01*
X23130Y10985D01*
X23898Y11138D01*
X24549Y11573D01*
X24984Y12224D01*
X25137Y12992D01*
X24984Y13760D01*
X24549Y14411D01*
X24254Y14609D01*
Y14723D01*
X24689Y15374D01*
X24842Y16142D01*
X24689Y16910D01*
X24254Y17561D01*
X23603Y17996D01*
X22835Y18149D01*
D02*
G37*
G36*
X56398Y14999D02*
X55630Y14846D01*
X54978Y14411D01*
X54543Y13760D01*
X54391Y12992D01*
X54543Y12224D01*
X54978Y11573D01*
X55630Y11138D01*
X56398Y10985D01*
X57166Y11138D01*
X57817Y11573D01*
X58252Y12224D01*
X58405Y12992D01*
X58252Y13760D01*
X57817Y14411D01*
X57166Y14846D01*
X56398Y14999D01*
D02*
G37*
G36*
X63980Y14901D02*
X63211Y14749D01*
X62560Y14313D01*
X62125Y13662D01*
X61972Y12894D01*
X62125Y12126D01*
X62560Y11475D01*
X63211Y11040D01*
X63980Y10887D01*
X64748Y11040D01*
X65399Y11475D01*
X65834Y12126D01*
X65987Y12894D01*
X65834Y13662D01*
X65399Y14313D01*
X64748Y14749D01*
X63980Y14901D01*
D02*
G37*
G36*
X164961Y13523D02*
X164193Y13370D01*
X163541Y12935D01*
X163106Y12284D01*
X162954Y11516D01*
X163106Y10748D01*
X163541Y10097D01*
X164193Y9662D01*
X164961Y9509D01*
X165729Y9662D01*
X166380Y10097D01*
X166815Y10748D01*
X166968Y11516D01*
X166815Y12284D01*
X166380Y12935D01*
X165729Y13370D01*
X164961Y13523D01*
D02*
G37*
G36*
X17913Y13031D02*
X17145Y12878D01*
X16494Y12443D01*
X16059Y11792D01*
X15906Y11024D01*
X16059Y10255D01*
X16494Y9604D01*
X17145Y9169D01*
X17913Y9016D01*
X18681Y9169D01*
X19333Y9604D01*
X19768Y10255D01*
X19920Y11024D01*
X19768Y11792D01*
X19333Y12443D01*
X18681Y12878D01*
X17913Y13031D01*
D02*
G37*
G36*
X7972Y12539D02*
X7204Y12386D01*
X6553Y11951D01*
X6118Y11300D01*
X5965Y10531D01*
X6118Y9763D01*
X6553Y9112D01*
X7204Y8677D01*
X7972Y8524D01*
X8741Y8677D01*
X9392Y9112D01*
X9827Y9763D01*
X9979Y10531D01*
X9827Y11300D01*
X9392Y11951D01*
X8741Y12386D01*
X7972Y12539D01*
D02*
G37*
G36*
X28150Y12440D02*
X27382Y12287D01*
X26730Y11852D01*
X26295Y11201D01*
X26142Y10433D01*
X26295Y9665D01*
X26730Y9014D01*
X27382Y8579D01*
X28150Y8426D01*
X28918Y8579D01*
X29569Y9014D01*
X30004Y9665D01*
X30157Y10433D01*
X30004Y11201D01*
X29569Y11852D01*
X28918Y12287D01*
X28150Y12440D01*
D02*
G37*
G36*
X44094Y12145D02*
X43326Y11992D01*
X42675Y11557D01*
X42240Y10906D01*
X42087Y10138D01*
X42240Y9370D01*
X42675Y8719D01*
X43326Y8283D01*
X44094Y8131D01*
X44863Y8283D01*
X45514Y8719D01*
X45949Y9370D01*
X46102Y10138D01*
X45949Y10906D01*
X45514Y11557D01*
X44863Y11992D01*
X44094Y12145D01*
D02*
G37*
G36*
X35039Y12342D02*
X34271Y12189D01*
X33620Y11754D01*
X33185Y11103D01*
X33032Y10335D01*
X33185Y9567D01*
X33620Y8915D01*
X34271Y8480D01*
X35039Y8328D01*
X35618Y7640D01*
X35646Y7500D01*
X36081Y6848D01*
X36732Y6413D01*
X37500Y6261D01*
X38268Y6413D01*
X38919Y6848D01*
X39354Y7500D01*
X39507Y8268D01*
X39354Y9036D01*
X38919Y9687D01*
X38268Y10122D01*
X37500Y10275D01*
X36922Y10963D01*
X36894Y11103D01*
X36459Y11754D01*
X35807Y12189D01*
X35039Y12342D01*
D02*
G37*
G36*
X107067Y9781D02*
X106298Y9629D01*
X105647Y9193D01*
X105212Y8542D01*
X105059Y7774D01*
X105212Y7006D01*
X105647Y6355D01*
X106298Y5920D01*
X107067Y5767D01*
X107835Y5920D01*
X108486Y6355D01*
X108921Y7006D01*
X109074Y7774D01*
X108921Y8542D01*
X108486Y9193D01*
X107835Y9629D01*
X107067Y9781D01*
D02*
G37*
G36*
X88090Y11751D02*
X87322Y11598D01*
X86671Y11163D01*
X86236Y10512D01*
X86162Y10138D01*
X85827Y9487D01*
X85059Y9335D01*
X84408Y8900D01*
X83972Y8248D01*
X83820Y7480D01*
X83972Y6712D01*
X84408Y6061D01*
X85059Y5626D01*
X85827Y5473D01*
X86595Y5626D01*
X87246Y6061D01*
X87681Y6712D01*
X87755Y7086D01*
X88090Y7737D01*
X88859Y7890D01*
X89510Y8325D01*
X89945Y8976D01*
X90098Y9744D01*
X89945Y10512D01*
X89510Y11163D01*
X88859Y11598D01*
X88090Y11751D01*
D02*
G37*
G36*
X65551Y8109D02*
X64783Y7957D01*
X64132Y7522D01*
X63697Y6870D01*
X63544Y6102D01*
X63697Y5334D01*
X64132Y4683D01*
X64783Y4248D01*
X65551Y4095D01*
X66319Y4248D01*
X66970Y4683D01*
X67405Y5334D01*
X67558Y6102D01*
X67405Y6870D01*
X66970Y7522D01*
X66319Y7957D01*
X65551Y8109D01*
D02*
G37*
G36*
X94886Y11063D02*
X94118Y10910D01*
X93467Y10475D01*
X93032Y9824D01*
X92879Y9055D01*
X93032Y8287D01*
X93142Y8123D01*
X93344Y7398D01*
X93103Y6933D01*
X92929Y6674D01*
X92776Y5906D01*
X92929Y5137D01*
X93364Y4486D01*
X94015Y4051D01*
X94783Y3898D01*
X95552Y4051D01*
X96203Y4486D01*
X96638Y5137D01*
X96790Y5906D01*
X96638Y6674D01*
X96528Y6838D01*
X96326Y7563D01*
X96567Y8028D01*
X96741Y8287D01*
X96894Y9055D01*
X96741Y9824D01*
X96306Y10475D01*
X95655Y10910D01*
X94886Y11063D01*
D02*
G37*
G36*
X9744Y7420D02*
X8976Y7268D01*
X8325Y6833D01*
X7890Y6182D01*
X7737Y5413D01*
X7890Y4645D01*
X8325Y3994D01*
X8976Y3559D01*
X9744Y3406D01*
X10512Y3559D01*
X11163Y3994D01*
X12022Y3862D01*
X12065Y3797D01*
X12716Y3362D01*
X13484Y3210D01*
X14252Y3362D01*
X14904Y3797D01*
X15339Y4448D01*
X15491Y5217D01*
X15339Y5985D01*
X14904Y6636D01*
X14252Y7071D01*
X13484Y7224D01*
X12716Y7071D01*
X12065Y6636D01*
X11206Y6768D01*
X11163Y6833D01*
X10512Y7268D01*
X9744Y7420D01*
D02*
G37*
G36*
X41634Y7027D02*
X40866Y6874D01*
X40215Y6439D01*
X39780Y5788D01*
X39627Y5020D01*
X39780Y4252D01*
X40215Y3601D01*
X40866Y3165D01*
X41634Y3013D01*
X42402Y3165D01*
X43053Y3601D01*
X43336Y4023D01*
X43651Y4076D01*
X44113Y4045D01*
X44205Y4015D01*
X44548Y3502D01*
X45199Y3067D01*
X45967Y2914D01*
X46735Y3067D01*
X47386Y3502D01*
X47821Y4153D01*
X47974Y4921D01*
X47821Y5689D01*
X47386Y6341D01*
X46735Y6776D01*
X45967Y6928D01*
X45199Y6776D01*
X44548Y6341D01*
X44265Y5918D01*
X43950Y5865D01*
X43488Y5896D01*
X43396Y5926D01*
X43053Y6439D01*
X42402Y6874D01*
X41634Y7027D01*
D02*
G37*
%LPD*%
D89*
X49052Y103600D02*
D03*
X58268Y94095D02*
D03*
X49114Y106304D02*
D03*
X37521Y130336D02*
D03*
X79035Y75834D02*
D03*
X103799Y28692D02*
D03*
X86909Y24114D02*
D03*
X78941Y23722D02*
D03*
X154666Y70276D02*
D03*
X174816Y52048D02*
D03*
X50886Y125098D02*
D03*
X33957Y113091D02*
D03*
X61614Y108957D02*
D03*
X175501Y25297D02*
D03*
X50689Y141535D02*
D03*
X55709Y73524D02*
D03*
X44466Y138128D02*
D03*
X32628Y92530D02*
D03*
X81004Y51476D02*
D03*
X97835Y94291D02*
D03*
X103937Y81398D02*
D03*
X113976Y88583D02*
D03*
X67716Y94193D02*
D03*
X12697Y76279D02*
D03*
X2362Y81988D02*
D03*
X3543Y62697D02*
D03*
X13780Y145276D02*
D03*
X90354Y58268D02*
D03*
X91634Y69095D02*
D03*
X58366Y123228D02*
D03*
X79528Y96260D02*
D03*
X3051Y116634D02*
D03*
X95081Y141142D02*
D03*
X35236Y97638D02*
D03*
X166929Y106791D02*
D03*
X141732Y107972D02*
D03*
X156693Y108366D02*
D03*
X89468Y75197D02*
D03*
X123333Y85339D02*
D03*
X68310Y66539D02*
D03*
X105905Y55315D02*
D03*
X113779Y49508D02*
D03*
X58467Y38388D02*
D03*
X150591Y129823D02*
D03*
X162148Y35728D02*
D03*
X144193Y5217D02*
D03*
X157628Y132529D02*
D03*
X165354Y137008D02*
D03*
X70866Y84646D02*
D03*
X46260Y36614D02*
D03*
X37402Y41142D02*
D03*
X132087Y28150D02*
D03*
X54036Y63878D02*
D03*
X34646Y63779D02*
D03*
X164996Y7087D02*
D03*
X68996Y27657D02*
D03*
M02*
