M48
;Layer_Color=9474304
;FILE_FORMAT=2:4
INCH,TZ
;TYPE=PLATED
T1F00S00C0.0118
;TYPE=NON_PLATED
T2F00S00C0.0390
%
T01
X974Y541
X1348Y522
X1791Y1102
X2313Y1299
X2283Y1614
X1949Y2244
X1122Y2116
X787Y1604
X797Y1053
X2815Y1043
X3504Y1033
X3750Y827
X4163Y502
X4597Y492
X4409Y1014
X3937Y1496
X3543Y1545
X3652Y2037
X4124Y1959
X4823Y1594
X5039Y2411
X5591Y2323
X5581Y2805
X5168Y3297
X4941Y3965
X5463Y3927
X5699Y4144
X5847Y3839
X6329Y3760
X6457Y4104
X6772Y3986
X6909Y4360
X7244Y4134
X7402Y3780
X7707Y3878
X8573Y4419
X8100Y5148
X8769Y5631
X9035Y5827
X9281Y5600
X10591Y5531
X10072Y4929
Y4614
X10128Y4304
X10876Y4144
X11900Y4141
X11989Y3839
X11752Y4419
X11611Y4701
X11378Y4951
X12691Y4278
X12913Y4055
X13209Y2815
X13415Y1880
X13672Y1663
X13976Y1801
X14331Y1831
X14489Y2303
X14813Y2306
X15129Y2323
X14124Y2303
X14194Y3396
X14518
X14833
X15187
X14144Y5561
X13927Y6547
X13561Y6566
X13224Y6471
X13243Y6917
X13051Y7185
X12771Y6977
X12520Y7185
X12609Y7658
X12854Y7933
X12667Y8720
X12972Y8809
X13287Y8839
X13618Y8878
X12372Y9094
X12579Y9351
X12540Y9841
X12825Y9981
X13209Y10266
X13593Y10463
X14173Y10797
X14340Y11270
X14350Y12923
X15059Y12982
X15404Y13760
X13831Y13297
X13058Y13273
X12766Y12353
X12746Y12028
X12609Y11743
X12648Y11270
X12382Y11087
X11722Y10689
X11433Y10172
X11378Y9183
X11398Y8858
X11742Y8573
X11871Y9046
X12333Y8534
X10669Y8612
X10689Y8967
X10857Y9262
X10659Y9557
X9783Y9429
X9134Y9724
X8819Y9705
X7953Y9626
X7743Y8711
X8258Y8573
X8819Y8209
X8996Y7923
X8947Y7520
X8534Y7264
X7688Y7264
X7904Y7583
X8031Y6811
X8760Y6644
X9163Y6909
X9754Y7215
X10306Y7835
X10394Y8140
X10640Y7756
X10979Y7822
X10787Y6855
X11575Y6988
X14033Y6844
X14338Y6921
X15467Y7028
X15552Y8278
X13229Y12169
X11565Y14114
X10561
X9843Y14094
X9508Y14114
X9646Y13207
X9227Y13224
X9218Y12420
X8875Y11870
X8622Y12077
X8711Y11398
X8406Y11486
X8140Y11663
X7894Y11900
X7796Y12200
X7878Y12504
X8494Y13049
X6801Y13250
X6594Y13012
X5768Y12943
X5453Y12904
X5325Y13199
X5089Y12510
X5030Y11722
X5000Y11398
X5315Y11418
X4951Y11053
X4911Y10630
X4905Y10360
X5138Y10000
X5482Y9409
X5827
X6772Y9419
X6762Y8396
X7087Y8465
X7146Y7874
X6831Y6654
X6979Y6142
X6339Y6191
X5866Y6004
X5778Y5385
X5246Y5049
X4911Y4715
X4902Y5787
X4990Y6703
X5305Y6693
X5404Y6388
X5305Y7176
X5217Y7480
X4902Y7510
X5571Y7352
X6604Y5315
X6358Y5049
X6841Y4990
X6900Y2766
X6792Y2028
X6545Y1791
X6102Y1860
X6240Y2421
X6398Y1289
X5640Y1299
X6555Y610
X7254Y1890
X8199Y1949
X8071Y1654
X7894Y2372
X8691Y2411
X9183Y2008
X9459Y1457
X9489Y906
X9478Y591
X8809Y974
X8583Y748
X10707Y777
X10874Y1368
X11191Y1555
X11585Y1486
X11870Y1339
X11850Y2559
X12037Y2825
X11230Y2776
X11260Y2431
X10640Y2362
X10380Y2869
X9754Y2628
X9333Y3684
X4626Y3661
X4272Y3986
X3740Y4114
X3386Y4104
X2372Y4478
X2411Y5000
X2057Y5561
X1575Y5482
X1496Y5167
X709Y5010
X797Y4498
X1742Y4350
X1752Y6467
X1220Y6250
X1250Y6850
X928Y6969
X827Y7283
X1270Y7628
X541Y8120
X236Y8199
X591Y9232
X925Y10030
X1939Y10197
X1860Y9360
X2372Y9488
X2461Y8976
X2224Y8760
X1545Y8996
X3263Y9253
X3524Y9764
X3396Y11309
X3283Y12001
X3067Y12230
X2569Y12549
X2496Y12856
X1781Y13022
X1516Y13248
X1744Y13553
X1500Y13797
X1378Y14528
X1033Y14390
X2205Y14016
X2546Y14012
X2861Y13997
X2795Y13689
X3228Y13955
X3307Y13479
X3366Y13169
X3752Y13034
X3856Y14085
X4447Y13813
X4754Y14203
X5069Y14154
X5837Y12323
X6161Y10896
X9134Y11043
X9804Y10985
X9459Y8425
X3465Y6378
X3508Y5545
X2670Y6191
X2569Y6792
X354Y6270
X620Y10955
X1230Y10974
X1181Y11821
X1713Y11663
X2146Y10974
X2766Y10935
X305Y11663
X3159Y2943
X12215Y344
X13701Y1191
X14419Y522
X16500Y709
X16496Y1152
X17116Y1388
X17559Y1526
X17550Y2530
X17756Y3100
X16388Y2982
X16043
X16215Y3573
X16357Y4783
X16704Y4675
X17087
X17579Y4882
X17482Y5205
X17785Y4626
X15818Y4725
X15994Y1929
X16093Y7746
X16633Y7313
X16871
X17313Y7667
X17539Y7165
X17815Y10364
X17834Y10945
X17717Y12096
X17530Y12392
X17234Y12274
X16909Y12278
X16949Y11644
X16693Y10679
X16766Y10207
X15738Y9892
X15669Y10837
X16249Y12589
X16566Y12609
X17047Y13129
X17402Y13376
X17618Y13848
X17992Y13730
X17844Y12608
X16535Y13701
X16161Y14055
X15763Y13253
T02
X16943Y9492
X17743
X17343Y11492
M30
