G04 #@! TF.GenerationSoftware,KiCad,Pcbnew,(6.0.8)*
G04 #@! TF.CreationDate,2023-01-16T12:06:17+03:00*
G04 #@! TF.ProjectId,hellen1-vr-discrete,68656c6c-656e-4312-9d76-722d64697363,rev?*
G04 #@! TF.SameCoordinates,PX4a19ba0PY5aa5910*
G04 #@! TF.FileFunction,Legend,Bot*
G04 #@! TF.FilePolarity,Positive*
%FSLAX46Y46*%
G04 Gerber Fmt 4.6, Leading zero omitted, Abs format (unit mm)*
G04 Created by KiCad (PCBNEW (6.0.8)) date 2023-01-16 12:06:17*
%MOMM*%
%LPD*%
G01*
G04 APERTURE LIST*
%ADD10C,0.200000*%
%ADD11C,0.120000*%
G04 APERTURE END LIST*
D10*
G04 #@! TO.C,M750*
X100000Y9700000D02*
X100000Y3300000D01*
X14500000Y9700000D02*
X100000Y9700000D01*
X15100000Y100000D02*
X15100000Y5200000D01*
X100000Y100000D02*
X15100000Y100000D01*
X100000Y100000D02*
X100000Y1400000D01*
D11*
G04 #@! TO.C,U757*
X2500000Y8230784D02*
X1700000Y8230784D01*
X2500000Y8230784D02*
X4300000Y8230784D01*
X2500000Y5110784D02*
X3300000Y5110784D01*
X2500000Y5110784D02*
X1700000Y5110784D01*
G04 #@! TO.C,C760*
X4760000Y1457836D02*
X4760000Y1242164D01*
X4040000Y1457836D02*
X4040000Y1242164D01*
G04 #@! TO.C,C755*
X11617164Y8410000D02*
X11832836Y8410000D01*
X11617164Y7690000D02*
X11832836Y7690000D01*
G04 #@! TO.C,C766*
X13702836Y8620000D02*
X13487164Y8620000D01*
X13702836Y9340000D02*
X13487164Y9340000D01*
G04 #@! TO.C,C757*
X9482164Y7460000D02*
X9697836Y7460000D01*
X9482164Y6740000D02*
X9697836Y6740000D01*
G04 #@! TO.C,C764*
X13652836Y8410000D02*
X13437164Y8410000D01*
X13652836Y7690000D02*
X13437164Y7690000D01*
G04 #@! TO.C,C753*
X13617164Y3285000D02*
X13832836Y3285000D01*
X13617164Y2565000D02*
X13832836Y2565000D01*
G04 #@! TO.C,U753*
X8815717Y290000D02*
X11015717Y290000D01*
X8815717Y290000D02*
X5215717Y290000D01*
X8815717Y5510000D02*
X11015717Y5510000D01*
X8815717Y5510000D02*
X6615717Y5510000D01*
G04 #@! TO.C,R752*
X1932189Y4034000D02*
X2386317Y4034000D01*
X1932189Y2564000D02*
X2386317Y2564000D01*
G04 #@! TO.C,R762*
X11853641Y5770000D02*
X11546359Y5770000D01*
X11853641Y6530000D02*
X11546359Y6530000D01*
G04 #@! TO.C,C761*
X1557836Y8580000D02*
X1342164Y8580000D01*
X1557836Y9300000D02*
X1342164Y9300000D01*
G04 #@! TO.C,R754*
X13803641Y6720000D02*
X13496359Y6720000D01*
X13803641Y7480000D02*
X13496359Y7480000D01*
G04 #@! TO.C,R766*
X9756556Y5770073D02*
X9449274Y5770073D01*
X9756556Y6530073D02*
X9449274Y6530073D01*
G04 #@! TO.C,R753*
X2386317Y2110000D02*
X1932189Y2110000D01*
X2386317Y640000D02*
X1932189Y640000D01*
G04 #@! TO.C,R765*
X9743641Y8600000D02*
X9436359Y8600000D01*
X9743641Y9360000D02*
X9436359Y9360000D01*
G04 #@! TO.C,R763*
X13456359Y1220000D02*
X13763641Y1220000D01*
X13456359Y460000D02*
X13763641Y460000D01*
G04 #@! TO.C,R760*
X13571359Y3495000D02*
X13878641Y3495000D01*
X13571359Y4255000D02*
X13878641Y4255000D01*
G04 #@! TO.C,R761*
X11928641Y6720000D02*
X11621359Y6720000D01*
X11928641Y7480000D02*
X11621359Y7480000D01*
G04 #@! TO.C,C752*
X13857836Y4490000D02*
X13642164Y4490000D01*
X13857836Y5210000D02*
X13642164Y5210000D01*
G04 #@! TO.C,C762*
X4756437Y3077553D02*
X4756437Y3293225D01*
X4036437Y3077553D02*
X4036437Y3293225D01*
G04 #@! TO.C,R757*
X13446359Y5770000D02*
X13753641Y5770000D01*
X13446359Y6530000D02*
X13753641Y6530000D01*
G04 #@! TO.C,U752*
X6600000Y6190000D02*
X5800000Y6190000D01*
X6600000Y9310000D02*
X8400000Y9310000D01*
X6600000Y9310000D02*
X5800000Y9310000D01*
X6600000Y6190000D02*
X7400000Y6190000D01*
G04 #@! TO.C,C756*
X9482164Y7690000D02*
X9697836Y7690000D01*
X9482164Y8410000D02*
X9697836Y8410000D01*
G04 #@! TD*
M02*
