M48
; DRILL file {KiCad (6.0.8)} date Mon Jan 16 12:06:21 2023
; FORMAT={2:4/ absolute / inch / suppress leading zeros}
; #@! TF.CreationDate,2023-01-16T12:06:21+03:00
; #@! TF.GenerationSoftware,Kicad,Pcbnew,(6.0.8)
; #@! TF.FileFunction,MixedPlating,1,4
FMAT,2
INCH,TZ
; #@! TA.AperFunction,Plated,PTH,ViaDrill
T1C0.0118
; #@! TA.AperFunction,Plated,PTH,ComponentDrill
T2C0.0118
%
G90
G05
T1
X138Y1870
X165Y3516
X187Y2687
X909Y163
X918Y920
X955Y1722
X992Y3528
X1024Y2028
X1340Y3500
X1392Y1678
X1427Y291
X1555Y1988
X1732Y157
X1788Y3691
X1876Y898
X1880Y1791
X2030Y3219
X2076Y2170
X2441Y2185
X2689Y2586
X2821Y1780
X2874Y2106
X2884Y1388
X2904Y305
X2954Y677
X2994Y1027
X3215Y1685
X3524Y157
X3593Y1732
X3907Y2156
X4026Y1870
X4124Y1366
X4146Y2829
X4189Y317
X4212Y2126
X4281Y3500
X4577Y3441
X4760Y2171
X4772Y3670
X5099Y797
X5575Y789
X5817Y620
X5827Y1033
X5843Y138
T2
X148Y1118
X148Y724
X5827Y3661
X5827Y3189
X5827Y2717
X5827Y2244
T0
M30
