G04 #@! TF.GenerationSoftware,KiCad,Pcbnew,7.0.9*
G04 #@! TF.CreationDate,2024-03-10T08:24:15+03:00*
G04 #@! TF.ProjectId,hellen1-mcz33810,68656c6c-656e-4312-9d6d-637a33333831,rev?*
G04 #@! TF.SameCoordinates,PX507d780PY4a62f80*
G04 #@! TF.FileFunction,Copper,L3,Inr*
G04 #@! TF.FilePolarity,Positive*
%FSLAX46Y46*%
G04 Gerber Fmt 4.6, Leading zero omitted, Abs format (unit mm)*
G04 Created by KiCad (PCBNEW 7.0.9) date 2024-03-10 08:24:15*
%MOMM*%
%LPD*%
G01*
G04 APERTURE LIST*
G04 #@! TA.AperFunction,ComponentPad*
%ADD10C,0.600000*%
G04 #@! TD*
G04 #@! TA.AperFunction,Conductor*
%ADD11R,0.200000X12.500000*%
G04 #@! TD*
G04 #@! TA.AperFunction,Conductor*
%ADD12R,3.300000X0.200000*%
G04 #@! TD*
G04 #@! TA.AperFunction,Conductor*
%ADD13R,3.500000X0.200000*%
G04 #@! TD*
G04 #@! TA.AperFunction,Conductor*
%ADD14R,6.000000X0.200000*%
G04 #@! TD*
G04 #@! TA.AperFunction,Conductor*
%ADD15R,26.650000X0.200000*%
G04 #@! TD*
G04 #@! TA.AperFunction,Conductor*
%ADD16R,15.400000X0.200000*%
G04 #@! TD*
G04 #@! TA.AperFunction,Conductor*
%ADD17R,0.200000X8.500000*%
G04 #@! TD*
G04 #@! TA.AperFunction,ComponentPad*
%ADD18C,1.000000*%
G04 #@! TD*
G04 #@! TA.AperFunction,ViaPad*
%ADD19C,0.600000*%
G04 #@! TD*
G04 #@! TA.AperFunction,ViaPad*
%ADD20C,0.900000*%
G04 #@! TD*
G04 #@! TA.AperFunction,Conductor*
%ADD21C,0.200000*%
G04 #@! TD*
G04 #@! TA.AperFunction,Conductor*
%ADD22C,1.000000*%
G04 #@! TD*
G04 #@! TA.AperFunction,Conductor*
%ADD23C,0.500000*%
G04 #@! TD*
G04 APERTURE END LIST*
D10*
G04 #@! TO.N,/OUT_INJ4*
G04 #@! TO.C,M801*
X44450000Y9800000D03*
G04 #@! TO.N,/OUT_INJ3*
X44450000Y10600000D03*
G04 #@! TO.N,/OUT_INJ1*
X44450000Y11400000D03*
G04 #@! TO.N,/OUT_INJ2*
X44450000Y12200000D03*
D11*
G04 #@! TO.N,GND*
X100000Y6250000D03*
D12*
X1650000Y12400000D03*
D13*
X1750000Y100000D03*
D14*
X8100000Y12400000D03*
X15900000Y12400000D03*
D15*
X18625000Y100000D03*
D14*
X23700000Y12400000D03*
D16*
X36250000Y12400000D03*
D17*
X44650000Y5050000D03*
D18*
G04 #@! TO.N,/OUT_IGN1*
X4200000Y12000000D03*
G04 #@! TO.N,/OUT_IGN2*
X12000000Y12000000D03*
G04 #@! TO.N,/OUT_IGN3*
X19800000Y12000000D03*
G04 #@! TO.N,/OUT_IGN4*
X27600000Y12000000D03*
D10*
G04 #@! TO.N,/INJ4*
X44450000Y300000D03*
G04 #@! TO.N,/INJ3*
X43650000Y300000D03*
G04 #@! TO.N,/INJ2*
X42850000Y300000D03*
G04 #@! TO.N,/~SPKDUR*
X42050000Y300000D03*
G04 #@! TO.N,/IGN4*
X41250000Y300000D03*
G04 #@! TO.N,/IGN3*
X40450000Y300000D03*
G04 #@! TO.N,/IGN2*
X39650000Y300000D03*
G04 #@! TO.N,/IGN1*
X38850000Y300000D03*
G04 #@! TO.N,/INJ1*
X38050000Y300000D03*
G04 #@! TO.N,/~OUTEN*
X37250000Y300000D03*
G04 #@! TO.N,/NOMI*
X36450000Y300000D03*
G04 #@! TO.N,/MAXI*
X35650000Y300000D03*
G04 #@! TO.N,/MISO*
X34850000Y300000D03*
G04 #@! TO.N,/MOSI*
X34050000Y300000D03*
G04 #@! TO.N,/SCLK*
X33250000Y300000D03*
G04 #@! TO.N,/~CS*
X32450000Y300000D03*
G04 #@! TO.N,+12V*
X4800000Y300000D03*
G04 #@! TO.N,+3V3*
X4000000Y300000D03*
G04 #@! TD*
D19*
G04 #@! TO.N,GND*
X3950000Y1300000D03*
X43073372Y8750000D03*
X6000000Y3800000D03*
X16100000Y3500000D03*
X41759336Y2945147D03*
X40000000Y7900000D03*
X32050000Y3200000D03*
X36549774Y3023488D03*
X23777984Y12072360D03*
X8000000Y3900000D03*
X13350000Y3650000D03*
X40950000Y6550000D03*
X32300000Y11050000D03*
X15942120Y12058927D03*
X15600000Y8300000D03*
X33312602Y11864640D03*
X724093Y12200000D03*
X21467947Y3625679D03*
X16050000Y550000D03*
X28650000Y550000D03*
X39850000Y4400000D03*
X24000000Y3900000D03*
X41866117Y6216117D03*
X6765987Y440800D03*
X31800000Y850000D03*
X8000000Y8300000D03*
X39587686Y2869910D03*
X8143526Y12057988D03*
X29700000Y3549500D03*
X44200000Y4400000D03*
X41850000Y4200000D03*
X2800000Y550000D03*
X34897194Y4598129D03*
X37250000Y4700000D03*
X38850000Y6300000D03*
X799659Y549490D03*
X23500000Y8800000D03*
X36950000Y8250000D03*
G04 #@! TO.N,+3V3*
X38350000Y9800000D03*
G04 #@! TO.N,+12V*
X38850000Y3024000D03*
G04 #@! TO.N,/OUT_IGN1*
X2446804Y3660002D03*
G04 #@! TO.N,/OUT_IGN2*
X10246804Y3660002D03*
G04 #@! TO.N,Net-(U801-FB1)*
X42393323Y9066287D03*
X11190001Y2900000D03*
G04 #@! TO.N,/OUT_IGN3*
X18046804Y3660002D03*
G04 #@! TO.N,/OUT_IGN4*
X25846804Y3660002D03*
G04 #@! TO.N,Net-(Q801-G)*
X1400000Y3800000D03*
X34450000Y8550000D03*
X33200500Y8550000D03*
D20*
G04 #@! TO.N,Net-(Q801-E)*
X22800000Y1425500D03*
X15000000Y1425500D03*
X7200000Y1425500D03*
X30600000Y1425500D03*
D19*
G04 #@! TO.N,Net-(Q802-G)*
X9200000Y3800000D03*
X42463518Y9914300D03*
G04 #@! TO.N,Net-(Q803-G)*
X17000000Y3800000D03*
X33256041Y4451808D03*
G04 #@! TO.N,Net-(Q804-G)*
X24800000Y3800000D03*
X42550000Y3000000D03*
G04 #@! TO.N,/~OUTEN*
X39150000Y9800000D03*
G04 #@! TO.N,/~CS*
X33950000Y6800000D03*
G04 #@! TO.N,Net-(U801-RSP)*
X38083307Y3005265D03*
G04 #@! TO.N,Net-(U801-RSN)*
X37362049Y2799620D03*
G04 #@! TO.N,/OUT_INJ1*
X33513650Y10350000D03*
G04 #@! TO.N,/SCLK*
X34550000Y6300000D03*
G04 #@! TO.N,/MOSI*
X35161043Y6790500D03*
G04 #@! TO.N,/MISO*
X35750000Y6309500D03*
G04 #@! TO.N,/INJ1*
X39899978Y9793873D03*
G04 #@! TO.N,/INJ2*
X40859500Y9226002D03*
G04 #@! TO.N,/INJ3*
X41240162Y9872222D03*
G04 #@! TO.N,/OUT_INJ4*
X43100000Y7650000D03*
G04 #@! TO.N,/OUT_INJ3*
X33268688Y3352808D03*
G04 #@! TD*
D21*
G04 #@! TO.N,+3V3*
X32950000Y9100000D02*
X37650000Y9100000D01*
X6350000Y2650000D02*
X8244974Y2650000D01*
X8544974Y2350000D02*
X13550000Y2350000D01*
X8244974Y2650000D02*
X8544974Y2350000D01*
X28550000Y4700000D02*
X32950000Y9100000D01*
X13550000Y2350000D02*
X15900000Y4700000D01*
X4000000Y300000D02*
X6350000Y2650000D01*
X37650000Y9100000D02*
X38350000Y9800000D01*
X15900000Y4700000D02*
X28550000Y4700000D01*
G04 #@! TO.N,+12V*
X6800000Y2300000D02*
X8100000Y2300000D01*
X32289948Y7450000D02*
X35387318Y7450000D01*
X27889948Y3050000D02*
X32289948Y7450000D01*
X19505335Y3050000D02*
X27889948Y3050000D01*
X13694974Y2000000D02*
X16044974Y4350000D01*
X18205335Y4350000D02*
X19505335Y3050000D01*
X16044974Y4350000D02*
X18205335Y4350000D01*
X35387318Y7450000D02*
X38850000Y3987318D01*
X8100000Y2300000D02*
X8400000Y2000000D01*
X8400000Y2000000D02*
X13694974Y2000000D01*
X4800000Y300000D02*
X6800000Y2300000D01*
X38850000Y3987318D02*
X38850000Y3024000D01*
G04 #@! TO.N,Net-(U801-FB1)*
X13340001Y5050000D02*
X28400000Y5050000D01*
X41450000Y10450000D02*
X41913518Y9986482D01*
X11190001Y2900000D02*
X13340001Y5050000D01*
X41913518Y9546092D02*
X42393323Y9066287D01*
X34100000Y9450000D02*
X35100000Y10450000D01*
X28400000Y5050000D02*
X32800000Y9450000D01*
X41913518Y9986482D02*
X41913518Y9546092D01*
X35100000Y10450000D02*
X41450000Y10450000D01*
X32800000Y9450000D02*
X34100000Y9450000D01*
D22*
G04 #@! TO.N,Net-(Q801-E)*
X7425500Y1200000D02*
X14774500Y1200000D01*
X15124500Y1550000D02*
X22675500Y1550000D01*
X22675500Y1550000D02*
X22800000Y1425500D01*
X15000000Y1425500D02*
X15124500Y1550000D01*
X22800000Y1425500D02*
X22924500Y1550000D01*
X30475500Y1550000D02*
X30600000Y1425500D01*
X7200000Y1425500D02*
X7425500Y1200000D01*
X22924500Y1550000D02*
X30475500Y1550000D01*
X14774500Y1200000D02*
X15000000Y1425500D01*
D21*
G04 #@! TO.N,Net-(Q802-G)*
X42463518Y9981456D02*
X42463518Y9914300D01*
X33955025Y9800000D02*
X34955025Y10800000D01*
X10800000Y5400000D02*
X28200000Y5400000D01*
X34955025Y10800000D02*
X41644974Y10800000D01*
X28200000Y5400000D02*
X32600000Y9800000D01*
X32600000Y9800000D02*
X33955025Y9800000D01*
X41644974Y10800000D02*
X42463518Y9981456D01*
X9200000Y3800000D02*
X10800000Y5400000D01*
G04 #@! TO.N,Net-(Q803-G)*
X18100000Y2700000D02*
X28034924Y2700000D01*
X17000000Y3800000D02*
X18100000Y2700000D01*
X28034924Y2700000D02*
X29786732Y4451808D01*
X29786732Y4451808D02*
X33256041Y4451808D01*
G04 #@! TO.N,Net-(Q804-G)*
X42550000Y3000000D02*
X42750000Y3200000D01*
X35432292Y7900000D02*
X32244974Y7900000D01*
X41760052Y7100000D02*
X36232292Y7100000D01*
X42750000Y6110052D02*
X41760052Y7100000D01*
X25300000Y4300000D02*
X24800000Y3800000D01*
X36232292Y7100000D02*
X35432292Y7900000D01*
X42750000Y3200000D02*
X42750000Y6110052D01*
X32244974Y7900000D02*
X28644974Y4300000D01*
X28644974Y4300000D02*
X25300000Y4300000D01*
G04 #@! TO.N,/~CS*
X33950000Y6800000D02*
X33950000Y1800000D01*
X33950000Y1800000D02*
X32450000Y300000D01*
D23*
G04 #@! TO.N,/OUT_INJ1*
X33547919Y10350000D02*
X33513650Y10350000D01*
X44450000Y11400000D02*
X44260050Y11400000D01*
X44010050Y11650000D02*
X34847919Y11650000D01*
X34847919Y11650000D02*
X33547919Y10350000D01*
X44260050Y11400000D02*
X44010050Y11650000D01*
D21*
G04 #@! TO.N,/SCLK*
X34300000Y6050000D02*
X34300000Y1350000D01*
X34550000Y6300000D02*
X34300000Y6050000D01*
X34300000Y1350000D02*
X33250000Y300000D01*
G04 #@! TO.N,/MOSI*
X35500000Y1750000D02*
X34050000Y300000D01*
X35161043Y5164904D02*
X35500000Y4825947D01*
X35500000Y4825947D02*
X35500000Y1750000D01*
X35161043Y6790500D02*
X35161043Y5164904D01*
G04 #@! TO.N,/MISO*
X35850000Y1300000D02*
X34850000Y300000D01*
X35850000Y6209500D02*
X35850000Y1300000D01*
X35750000Y6309500D02*
X35850000Y6209500D01*
G04 #@! TO.N,/INJ2*
X42850000Y300000D02*
X43100000Y550000D01*
X40859500Y8495526D02*
X40859500Y9226002D01*
X43100000Y6255026D02*
X40859500Y8495526D01*
X43100000Y550000D02*
X43100000Y6255026D01*
G04 #@! TO.N,/INJ3*
X43650000Y300000D02*
X43650000Y6200000D01*
X41450000Y8400000D02*
X41450000Y9722182D01*
X41299960Y9872222D02*
X41240162Y9872222D01*
X41450000Y9722182D02*
X41299960Y9872222D01*
X43650000Y6200000D02*
X41450000Y8400000D01*
D23*
G04 #@! TO.N,/OUT_INJ4*
X44450000Y9800000D02*
X43773372Y9123372D01*
X43773372Y9123372D02*
X43773372Y8323372D01*
X43773372Y8323372D02*
X43100000Y7650000D01*
G04 #@! TD*
G04 #@! TA.AperFunction,Conductor*
G04 #@! TO.N,GND*
G36*
X3243039Y12479815D02*
G01*
X3288794Y12427011D01*
X3300000Y12375500D01*
X3300000Y11500000D01*
X3660991Y11500000D01*
X3728030Y11480315D01*
X3743218Y11468816D01*
X3799150Y11419264D01*
X3949773Y11340211D01*
X3949775Y11340210D01*
X4114944Y11299500D01*
X4285056Y11299500D01*
X4450225Y11340210D01*
X4564144Y11400000D01*
X4600849Y11419264D01*
X4600850Y11419266D01*
X4600852Y11419266D01*
X4656783Y11468817D01*
X4720015Y11498537D01*
X4739009Y11500000D01*
X5100000Y11500000D01*
X5100000Y12375500D01*
X5119685Y12442539D01*
X5172489Y12488294D01*
X5224000Y12499500D01*
X10976000Y12499500D01*
X11043039Y12479815D01*
X11088794Y12427011D01*
X11100000Y12375500D01*
X11100000Y11500000D01*
X11460991Y11500000D01*
X11528030Y11480315D01*
X11543218Y11468816D01*
X11599150Y11419264D01*
X11749773Y11340211D01*
X11749775Y11340210D01*
X11914944Y11299500D01*
X12085056Y11299500D01*
X12250225Y11340210D01*
X12364144Y11400000D01*
X12400849Y11419264D01*
X12400850Y11419266D01*
X12400852Y11419266D01*
X12456783Y11468817D01*
X12520015Y11498537D01*
X12539009Y11500000D01*
X12900000Y11500000D01*
X12900000Y12375500D01*
X12919685Y12442539D01*
X12972489Y12488294D01*
X13024000Y12499500D01*
X18776000Y12499500D01*
X18843039Y12479815D01*
X18888794Y12427011D01*
X18900000Y12375500D01*
X18900000Y11500000D01*
X19260991Y11500000D01*
X19328030Y11480315D01*
X19343218Y11468816D01*
X19399150Y11419264D01*
X19549773Y11340211D01*
X19549775Y11340210D01*
X19714944Y11299500D01*
X19885056Y11299500D01*
X20050225Y11340210D01*
X20164144Y11400000D01*
X20200849Y11419264D01*
X20200850Y11419266D01*
X20200852Y11419266D01*
X20256783Y11468817D01*
X20320015Y11498537D01*
X20339009Y11500000D01*
X20700000Y11500000D01*
X20700000Y12375500D01*
X20719685Y12442539D01*
X20772489Y12488294D01*
X20824000Y12499500D01*
X26576000Y12499500D01*
X26643039Y12479815D01*
X26688794Y12427011D01*
X26700000Y12375500D01*
X26700000Y11500000D01*
X27060991Y11500000D01*
X27128030Y11480315D01*
X27143218Y11468816D01*
X27199150Y11419264D01*
X27349773Y11340211D01*
X27349775Y11340210D01*
X27514944Y11299500D01*
X27685056Y11299500D01*
X27850225Y11340210D01*
X27964144Y11400000D01*
X28000849Y11419264D01*
X28000850Y11419266D01*
X28000852Y11419266D01*
X28056783Y11468817D01*
X28120015Y11498537D01*
X28139009Y11500000D01*
X28500000Y11500000D01*
X28500000Y12375500D01*
X28519685Y12442539D01*
X28572489Y12488294D01*
X28624000Y12499500D01*
X43826000Y12499500D01*
X43893039Y12479815D01*
X43938794Y12427011D01*
X43950000Y12375500D01*
X43950000Y12174500D01*
X43930315Y12107461D01*
X43877511Y12061706D01*
X43826000Y12050500D01*
X34911352Y12050500D01*
X34784486Y12050500D01*
X34784483Y12050500D01*
X34784481Y12050499D01*
X34763409Y12043653D01*
X34744501Y12039114D01*
X34722617Y12035647D01*
X34722613Y12035646D01*
X34702870Y12025587D01*
X34684906Y12018146D01*
X34663830Y12011297D01*
X34645904Y11998273D01*
X34629319Y11988110D01*
X34609578Y11978052D01*
X34609578Y11978051D01*
X34587013Y11955487D01*
X34587010Y11955484D01*
X33447400Y10815876D01*
X33394654Y10784580D01*
X33324583Y10764006D01*
X33215600Y10693967D01*
X33130768Y10596063D01*
X33130767Y10596062D01*
X33076952Y10478226D01*
X33058517Y10350000D01*
X33076952Y10221774D01*
X33079451Y10213267D01*
X33076954Y10212534D01*
X33084963Y10156862D01*
X33055943Y10093304D01*
X32997168Y10055526D01*
X32962224Y10050500D01*
X32636891Y10050500D01*
X32612699Y10052883D01*
X32600001Y10055409D01*
X32600000Y10055409D01*
X32502260Y10035966D01*
X32449103Y10000448D01*
X32419399Y9980602D01*
X32412203Y9969832D01*
X32396786Y9951049D01*
X28132559Y5686819D01*
X28071236Y5653334D01*
X28044878Y5650500D01*
X10836891Y5650500D01*
X10812699Y5652883D01*
X10800001Y5655409D01*
X10800000Y5655409D01*
X10702260Y5635966D01*
X10619399Y5580601D01*
X10619394Y5580597D01*
X10612203Y5569834D01*
X10596785Y5551048D01*
X9332558Y4286819D01*
X9271235Y4253334D01*
X9244877Y4250500D01*
X9135226Y4250500D01*
X9010935Y4214006D01*
X9010932Y4214005D01*
X9010931Y4214004D01*
X8998080Y4205745D01*
X8901950Y4143967D01*
X8817118Y4046063D01*
X8817117Y4046062D01*
X8763302Y3928226D01*
X8744867Y3800000D01*
X8763302Y3671775D01*
X8810500Y3568428D01*
X8817118Y3553937D01*
X8901951Y3456033D01*
X9010931Y3385996D01*
X9135225Y3349501D01*
X9135227Y3349500D01*
X9135228Y3349500D01*
X9264773Y3349500D01*
X9264773Y3349501D01*
X9389069Y3385996D01*
X9498049Y3456033D01*
X9562707Y3530654D01*
X9621481Y3568426D01*
X9691350Y3568428D01*
X9750129Y3530655D01*
X9769212Y3500962D01*
X9785271Y3465798D01*
X9821427Y3386629D01*
X9915676Y3277859D01*
X10036751Y3200049D01*
X10036754Y3200048D01*
X10036753Y3200048D01*
X10174840Y3159503D01*
X10174842Y3159502D01*
X10174843Y3159502D01*
X10318766Y3159502D01*
X10318766Y3159503D01*
X10456857Y3200049D01*
X10577932Y3277859D01*
X10672181Y3386629D01*
X10731969Y3517545D01*
X10752451Y3660002D01*
X10731969Y3802459D01*
X10672181Y3933375D01*
X10577932Y4042145D01*
X10456857Y4119955D01*
X10456855Y4119956D01*
X10456853Y4119957D01*
X10456854Y4119957D01*
X10318767Y4160502D01*
X10318765Y4160502D01*
X10214124Y4160502D01*
X10147085Y4180187D01*
X10101330Y4232991D01*
X10091386Y4302149D01*
X10120411Y4365705D01*
X10126443Y4372183D01*
X10867442Y5113181D01*
X10928765Y5146666D01*
X10955123Y5149500D01*
X12785879Y5149500D01*
X12852918Y5129815D01*
X12898673Y5077011D01*
X12908617Y5007853D01*
X12879592Y4944297D01*
X12873561Y4937821D01*
X12096242Y4160502D01*
X11322559Y3386819D01*
X11261236Y3353334D01*
X11234878Y3350500D01*
X11125227Y3350500D01*
X11000936Y3314006D01*
X11000933Y3314005D01*
X11000932Y3314004D01*
X10949678Y3281066D01*
X10891951Y3243967D01*
X10807119Y3146063D01*
X10807118Y3146062D01*
X10753303Y3028226D01*
X10734868Y2900000D01*
X10753303Y2771774D01*
X10755802Y2763267D01*
X10753305Y2762534D01*
X10761314Y2706862D01*
X10732294Y2643304D01*
X10673519Y2605526D01*
X10638575Y2600500D01*
X8700096Y2600500D01*
X8633057Y2620185D01*
X8612415Y2636819D01*
X8448191Y2801043D01*
X8432768Y2819835D01*
X8425575Y2830601D01*
X8363953Y2871775D01*
X8342715Y2885967D01*
X8342713Y2885968D01*
X8244976Y2905408D01*
X8244973Y2905408D01*
X8232280Y2902883D01*
X8208088Y2900500D01*
X6386886Y2900500D01*
X6362694Y2902883D01*
X6350001Y2905408D01*
X6349999Y2905408D01*
X6325325Y2900500D01*
X6252263Y2885968D01*
X6252260Y2885967D01*
X6169399Y2830601D01*
X6169394Y2830597D01*
X6162201Y2819831D01*
X6146783Y2801045D01*
X4132558Y786819D01*
X4071235Y753334D01*
X4044877Y750500D01*
X3935226Y750500D01*
X3810935Y714006D01*
X3810932Y714005D01*
X3810931Y714004D01*
X3761009Y681921D01*
X3701950Y643967D01*
X3700938Y642798D01*
X3699633Y641960D01*
X3695246Y638158D01*
X3694699Y638789D01*
X3642160Y605023D01*
X3607224Y600000D01*
X3500000Y600000D01*
X3500000Y124500D01*
X3480315Y57461D01*
X3427511Y11706D01*
X3376000Y500D01*
X124500Y500D01*
X57461Y20185D01*
X11706Y72989D01*
X500Y124500D01*
X500Y3800000D01*
X944867Y3800000D01*
X963302Y3671775D01*
X1010500Y3568428D01*
X1017118Y3553937D01*
X1101951Y3456033D01*
X1210931Y3385996D01*
X1335225Y3349501D01*
X1335227Y3349500D01*
X1335228Y3349500D01*
X1464773Y3349500D01*
X1464773Y3349501D01*
X1589069Y3385996D01*
X1698049Y3456033D01*
X1762707Y3530654D01*
X1821481Y3568426D01*
X1891350Y3568428D01*
X1950129Y3530655D01*
X1969212Y3500962D01*
X1985271Y3465798D01*
X2021427Y3386629D01*
X2115676Y3277859D01*
X2236751Y3200049D01*
X2236754Y3200048D01*
X2236753Y3200048D01*
X2374840Y3159503D01*
X2374842Y3159502D01*
X2374843Y3159502D01*
X2518766Y3159502D01*
X2518766Y3159503D01*
X2656857Y3200049D01*
X2777932Y3277859D01*
X2872181Y3386629D01*
X2931969Y3517545D01*
X2952451Y3660002D01*
X2931969Y3802459D01*
X2872181Y3933375D01*
X2777932Y4042145D01*
X2656857Y4119955D01*
X2656855Y4119956D01*
X2656853Y4119957D01*
X2656854Y4119957D01*
X2518767Y4160502D01*
X2518765Y4160502D01*
X2374843Y4160502D01*
X2374840Y4160502D01*
X2236753Y4119957D01*
X2115677Y4042146D01*
X2115676Y4042146D01*
X2115676Y4042145D01*
X2086505Y4008480D01*
X2025268Y3937808D01*
X1966490Y3900034D01*
X1896620Y3900034D01*
X1837842Y3937808D01*
X1818761Y3967500D01*
X1782884Y4046060D01*
X1782882Y4046062D01*
X1782882Y4046063D01*
X1698049Y4143967D01*
X1589069Y4214004D01*
X1589065Y4214006D01*
X1589064Y4214006D01*
X1464774Y4250500D01*
X1464772Y4250500D01*
X1335228Y4250500D01*
X1335226Y4250500D01*
X1210935Y4214006D01*
X1210932Y4214005D01*
X1210931Y4214004D01*
X1198080Y4205745D01*
X1101950Y4143967D01*
X1017118Y4046063D01*
X1017117Y4046062D01*
X963302Y3928226D01*
X944867Y3800000D01*
X500Y3800000D01*
X500Y12375500D01*
X20185Y12442539D01*
X72989Y12488294D01*
X124500Y12499500D01*
X3176000Y12499500D01*
X3243039Y12479815D01*
G37*
G04 #@! TD.AperFunction*
G04 #@! TA.AperFunction,Conductor*
G36*
X32887413Y4181623D02*
G01*
X32914087Y4158511D01*
X32957992Y4107841D01*
X33066972Y4037804D01*
X33129553Y4019429D01*
X33188331Y3981656D01*
X33217357Y3918101D01*
X33207414Y3848942D01*
X33161660Y3796138D01*
X33129554Y3781475D01*
X33079622Y3766814D01*
X32970638Y3696775D01*
X32885806Y3598871D01*
X32885805Y3598870D01*
X32831990Y3481034D01*
X32813555Y3352808D01*
X32831990Y3224583D01*
X32875996Y3128226D01*
X32885806Y3106745D01*
X32970639Y3008841D01*
X33079619Y2938804D01*
X33201958Y2902883D01*
X33203913Y2902309D01*
X33203915Y2902308D01*
X33203916Y2902308D01*
X33333461Y2902308D01*
X33333461Y2902309D01*
X33457757Y2938804D01*
X33508462Y2971391D01*
X33575501Y2991074D01*
X33642540Y2971389D01*
X33688295Y2918585D01*
X33699500Y2867074D01*
X33699500Y1955123D01*
X33679815Y1888084D01*
X33663181Y1867442D01*
X32582558Y786819D01*
X32521235Y753334D01*
X32494877Y750500D01*
X32385226Y750500D01*
X32260935Y714006D01*
X32260932Y714005D01*
X32260931Y714004D01*
X32211009Y681921D01*
X32151950Y643967D01*
X32150938Y642798D01*
X32149633Y641960D01*
X32145246Y638158D01*
X32144699Y638789D01*
X32092160Y605023D01*
X32057224Y600000D01*
X31950000Y600000D01*
X31950000Y124500D01*
X31930315Y57461D01*
X31877511Y11706D01*
X31826000Y500D01*
X5424000Y500D01*
X5356961Y20185D01*
X5311206Y72989D01*
X5300000Y124500D01*
X5300000Y394379D01*
X5319685Y461418D01*
X5336314Y482055D01*
X6338351Y1484093D01*
X6399674Y1517577D01*
X6469366Y1512593D01*
X6525299Y1470721D01*
X6549716Y1405257D01*
X6549971Y1400306D01*
X6552402Y1322934D01*
X6552403Y1322931D01*
X6598256Y1165102D01*
X6633550Y1105423D01*
X6681917Y1023638D01*
X6681923Y1023630D01*
X6905064Y800490D01*
X6915135Y787920D01*
X6915322Y788074D01*
X6920296Y782063D01*
X6920298Y782060D01*
X6939759Y763785D01*
X6972743Y732810D01*
X6994467Y711087D01*
X7000257Y706595D01*
X7004697Y702803D01*
X7033998Y675289D01*
X7040107Y669552D01*
X7040109Y669551D01*
X7058705Y659328D01*
X7074970Y648643D01*
X7091732Y635640D01*
X7091735Y635639D01*
X7091736Y635638D01*
X7136323Y616344D01*
X7141559Y613779D01*
X7184132Y590373D01*
X7199840Y586341D01*
X7204686Y585096D01*
X7223098Y578793D01*
X7242573Y570365D01*
X7290571Y562763D01*
X7296240Y561589D01*
X7343323Y549500D01*
X7364551Y549500D01*
X7383948Y547974D01*
X7404903Y544655D01*
X7404904Y544654D01*
X7404904Y544655D01*
X7404905Y544654D01*
X7453261Y549225D01*
X7459099Y549500D01*
X14688995Y549500D01*
X14705005Y547733D01*
X14705028Y547974D01*
X14712789Y547242D01*
X14712796Y547240D01*
X14784703Y549500D01*
X14815425Y549500D01*
X14822690Y550419D01*
X14828516Y550878D01*
X14877069Y552403D01*
X14897456Y558327D01*
X14916496Y562269D01*
X14937558Y564929D01*
X14982735Y582817D01*
X14988235Y584700D01*
X15034898Y598256D01*
X15053165Y609061D01*
X15070636Y617620D01*
X15090371Y625432D01*
X15129677Y653990D01*
X15134543Y657187D01*
X15176365Y681919D01*
X15191370Y696925D01*
X15206168Y709564D01*
X15223337Y722037D01*
X15254304Y759472D01*
X15258230Y763785D01*
X15357629Y863182D01*
X15418952Y896666D01*
X15445309Y899500D01*
X22369715Y899500D01*
X22426007Y885986D01*
X22431458Y883209D01*
X22431459Y883208D01*
X22439448Y879138D01*
X22459148Y866636D01*
X22466237Y861137D01*
X22521139Y837380D01*
X22524614Y835744D01*
X22573164Y811006D01*
X22577894Y808595D01*
X22577900Y808592D01*
X22586644Y806638D01*
X22608847Y799424D01*
X22617071Y795865D01*
X22617072Y795865D01*
X22617074Y795864D01*
X22676143Y786509D01*
X22679957Y785781D01*
X22738296Y772740D01*
X22747254Y773022D01*
X22770544Y771557D01*
X22779405Y770153D01*
X22838947Y775783D01*
X22842813Y776026D01*
X22902569Y777903D01*
X22911165Y780401D01*
X22934095Y784776D01*
X22943030Y785620D01*
X22943032Y785621D01*
X22943034Y785621D01*
X22969524Y795159D01*
X22999307Y805883D01*
X23002991Y807079D01*
X23060398Y823756D01*
X23068117Y828322D01*
X23089234Y838258D01*
X23097668Y841294D01*
X23147118Y874902D01*
X23150385Y876976D01*
X23159283Y882238D01*
X23222396Y899500D01*
X30174325Y899500D01*
X30241364Y879815D01*
X30250324Y873480D01*
X30266237Y861137D01*
X30317018Y839162D01*
X30417070Y795865D01*
X30417072Y795865D01*
X30417074Y795864D01*
X30579402Y770154D01*
X30579404Y770153D01*
X30579404Y770154D01*
X30579405Y770153D01*
X30743030Y785620D01*
X30897668Y841294D01*
X31033602Y933674D01*
X31142292Y1056958D01*
X31216908Y1203400D01*
X31252760Y1363796D01*
X31247598Y1528069D01*
X31201745Y1685898D01*
X31136194Y1796738D01*
X31118083Y1827362D01*
X31118079Y1827367D01*
X31057362Y1888084D01*
X30995929Y1949517D01*
X30985861Y1962085D01*
X30985674Y1961930D01*
X30980701Y1967941D01*
X30928256Y2017190D01*
X30906535Y2038911D01*
X30900740Y2043406D01*
X30896298Y2047201D01*
X30860896Y2080446D01*
X30860888Y2080452D01*
X30842292Y2090675D01*
X30826031Y2101356D01*
X30809263Y2114363D01*
X30785680Y2124568D01*
X30764678Y2133657D01*
X30759456Y2136214D01*
X30716868Y2159627D01*
X30716865Y2159628D01*
X30696301Y2164908D01*
X30677896Y2171210D01*
X30658427Y2179635D01*
X30658421Y2179637D01*
X30610451Y2187234D01*
X30604736Y2188418D01*
X30588272Y2192645D01*
X30557680Y2200500D01*
X30557677Y2200500D01*
X30536455Y2200500D01*
X30517055Y2202027D01*
X30496096Y2205347D01*
X30496095Y2205347D01*
X30472286Y2203097D01*
X30447730Y2200775D01*
X30441892Y2200500D01*
X28066784Y2200500D01*
X28035907Y2209567D01*
X28014116Y2200993D01*
X28003065Y2200500D01*
X23010006Y2200500D01*
X22993997Y2202268D01*
X22993975Y2202026D01*
X22993721Y2202050D01*
X22992861Y2202394D01*
X22982954Y2203487D01*
X22978588Y2204463D01*
X22979046Y2206516D01*
X22948053Y2201562D01*
X22914283Y2200500D01*
X22883575Y2200500D01*
X22883571Y2200500D01*
X22883560Y2200499D01*
X22876304Y2199583D01*
X22870486Y2199125D01*
X22821927Y2197599D01*
X22814538Y2196428D01*
X22764314Y2198796D01*
X22757677Y2200500D01*
X22757675Y2200500D01*
X22736455Y2200500D01*
X22717055Y2202027D01*
X22710742Y2203027D01*
X22692500Y2211675D01*
X22684484Y2206523D01*
X22661218Y2202050D01*
X22647730Y2200775D01*
X22641892Y2200500D01*
X18131859Y2200500D01*
X18100981Y2209567D01*
X18079192Y2200994D01*
X18068140Y2200500D01*
X15210006Y2200500D01*
X15193995Y2202268D01*
X15193973Y2202026D01*
X15186206Y2202761D01*
X15114283Y2200500D01*
X15083575Y2200500D01*
X15083571Y2200500D01*
X15083560Y2200499D01*
X15076304Y2199583D01*
X15070486Y2199125D01*
X15021933Y2197599D01*
X15007373Y2193370D01*
X15001540Y2191675D01*
X14982496Y2187731D01*
X14961442Y2185071D01*
X14961440Y2185071D01*
X14916281Y2167192D01*
X14910755Y2165300D01*
X14864101Y2151746D01*
X14845825Y2140937D01*
X14828360Y2132381D01*
X14808624Y2124567D01*
X14769324Y2096014D01*
X14764442Y2092807D01*
X14722636Y2068083D01*
X14707624Y2053071D01*
X14692836Y2040442D01*
X14675667Y2027968D01*
X14675665Y2027966D01*
X14644694Y1990530D01*
X14640763Y1986210D01*
X14598135Y1943582D01*
X14541374Y1886820D01*
X14480051Y1853334D01*
X14453692Y1850500D01*
X14199096Y1850500D01*
X14132057Y1870185D01*
X14086302Y1922989D01*
X14076358Y1992147D01*
X14105383Y2055703D01*
X14111415Y2062181D01*
X16112415Y4063181D01*
X16173738Y4096666D01*
X16200096Y4099500D01*
X16448574Y4099500D01*
X16515613Y4079815D01*
X16561368Y4027011D01*
X16571312Y3957853D01*
X16565164Y3936920D01*
X16565801Y3936733D01*
X16563302Y3928227D01*
X16544867Y3800000D01*
X16563302Y3671775D01*
X16610500Y3568428D01*
X16617118Y3553937D01*
X16701951Y3456033D01*
X16810931Y3385996D01*
X16935225Y3349501D01*
X16935227Y3349500D01*
X17044878Y3349500D01*
X17111917Y3329815D01*
X17132559Y3313181D01*
X17896782Y2548958D01*
X17912203Y2530168D01*
X17919399Y2519398D01*
X17994232Y2469398D01*
X18002259Y2464034D01*
X18002261Y2464033D01*
X18092331Y2446117D01*
X18097232Y2443553D01*
X18107663Y2446117D01*
X18112694Y2447118D01*
X18136886Y2449500D01*
X22649549Y2449500D01*
X22689731Y2437701D01*
X22714252Y2448478D01*
X22730142Y2449500D01*
X22944157Y2449500D01*
X22970953Y2441632D01*
X22981798Y2447236D01*
X23005386Y2449500D01*
X27998038Y2449500D01*
X28022229Y2447118D01*
X28027258Y2446117D01*
X28032159Y2443554D01*
X28042593Y2446117D01*
X28132660Y2464033D01*
X28132660Y2464034D01*
X28132665Y2464034D01*
X28172000Y2490317D01*
X28215525Y2519399D01*
X28222720Y2530168D01*
X28238134Y2548952D01*
X29854174Y4164989D01*
X29915497Y4198474D01*
X29941855Y4201308D01*
X32820374Y4201308D01*
X32887413Y4181623D01*
G37*
G04 #@! TD.AperFunction*
G04 #@! TA.AperFunction,Conductor*
G36*
X41671969Y6829815D02*
G01*
X41692611Y6813181D01*
X42463181Y6042611D01*
X42496666Y5981288D01*
X42499500Y5954930D01*
X42499500Y3547517D01*
X42479815Y3480478D01*
X42427011Y3434723D01*
X42410435Y3428540D01*
X42360934Y3414006D01*
X42251950Y3343967D01*
X42167118Y3246063D01*
X42167117Y3246062D01*
X42113302Y3128226D01*
X42094867Y3000000D01*
X42113302Y2871775D01*
X42167117Y2753939D01*
X42167118Y2753937D01*
X42251951Y2656033D01*
X42360931Y2585996D01*
X42471411Y2553557D01*
X42485225Y2549501D01*
X42485227Y2549500D01*
X42485228Y2549500D01*
X42614773Y2549500D01*
X42614773Y2549501D01*
X42648050Y2559271D01*
X42690566Y2571754D01*
X42760436Y2571754D01*
X42819213Y2533979D01*
X42848238Y2470423D01*
X42849500Y2452777D01*
X42849500Y862198D01*
X42829815Y795159D01*
X42777011Y749404D01*
X42760434Y743221D01*
X42660935Y714007D01*
X42551950Y643967D01*
X42550938Y642798D01*
X42549633Y641960D01*
X42545246Y638158D01*
X42544699Y638789D01*
X42492160Y605023D01*
X42457224Y600000D01*
X42442776Y600000D01*
X42375737Y619685D01*
X42349062Y642798D01*
X42348049Y643967D01*
X42332467Y653981D01*
X42239069Y714004D01*
X42239065Y714006D01*
X42239064Y714006D01*
X42114774Y750500D01*
X42114772Y750500D01*
X41985228Y750500D01*
X41985226Y750500D01*
X41860935Y714006D01*
X41860932Y714005D01*
X41860931Y714004D01*
X41811009Y681921D01*
X41751950Y643967D01*
X41750938Y642798D01*
X41749633Y641960D01*
X41745246Y638158D01*
X41744699Y638789D01*
X41692160Y605023D01*
X41657224Y600000D01*
X41642776Y600000D01*
X41575737Y619685D01*
X41549062Y642798D01*
X41548049Y643967D01*
X41532467Y653981D01*
X41439069Y714004D01*
X41439065Y714006D01*
X41439064Y714006D01*
X41314774Y750500D01*
X41314772Y750500D01*
X41185228Y750500D01*
X41185226Y750500D01*
X41060935Y714006D01*
X41060932Y714005D01*
X41060931Y714004D01*
X41011009Y681921D01*
X40951950Y643967D01*
X40950938Y642798D01*
X40949633Y641960D01*
X40945246Y638158D01*
X40944699Y638789D01*
X40892160Y605023D01*
X40857224Y600000D01*
X40842776Y600000D01*
X40775737Y619685D01*
X40749062Y642798D01*
X40748049Y643967D01*
X40732467Y653981D01*
X40639069Y714004D01*
X40639065Y714006D01*
X40639064Y714006D01*
X40514774Y750500D01*
X40514772Y750500D01*
X40385228Y750500D01*
X40385226Y750500D01*
X40260935Y714006D01*
X40260932Y714005D01*
X40260931Y714004D01*
X40211009Y681921D01*
X40151950Y643967D01*
X40150938Y642798D01*
X40149633Y641960D01*
X40145246Y638158D01*
X40144699Y638789D01*
X40092160Y605023D01*
X40057224Y600000D01*
X40042776Y600000D01*
X39975737Y619685D01*
X39949062Y642798D01*
X39948049Y643967D01*
X39932467Y653981D01*
X39839069Y714004D01*
X39839065Y714006D01*
X39839064Y714006D01*
X39714774Y750500D01*
X39714772Y750500D01*
X39585228Y750500D01*
X39585226Y750500D01*
X39460935Y714006D01*
X39460932Y714005D01*
X39460931Y714004D01*
X39411009Y681921D01*
X39351950Y643967D01*
X39350938Y642798D01*
X39349633Y641960D01*
X39345246Y638158D01*
X39344699Y638789D01*
X39292160Y605023D01*
X39257224Y600000D01*
X39242776Y600000D01*
X39175737Y619685D01*
X39149062Y642798D01*
X39148049Y643967D01*
X39132467Y653981D01*
X39039069Y714004D01*
X39039065Y714006D01*
X39039064Y714006D01*
X38914774Y750500D01*
X38914772Y750500D01*
X38785228Y750500D01*
X38785226Y750500D01*
X38660935Y714006D01*
X38660932Y714005D01*
X38660931Y714004D01*
X38611009Y681921D01*
X38551950Y643967D01*
X38550938Y642798D01*
X38549633Y641960D01*
X38545246Y638158D01*
X38544699Y638789D01*
X38492160Y605023D01*
X38457224Y600000D01*
X38442776Y600000D01*
X38375737Y619685D01*
X38349062Y642798D01*
X38348049Y643967D01*
X38332467Y653981D01*
X38239069Y714004D01*
X38239065Y714006D01*
X38239064Y714006D01*
X38114774Y750500D01*
X38114772Y750500D01*
X37985228Y750500D01*
X37985226Y750500D01*
X37860935Y714006D01*
X37860932Y714005D01*
X37860931Y714004D01*
X37811009Y681921D01*
X37751950Y643967D01*
X37750938Y642798D01*
X37749633Y641960D01*
X37745246Y638158D01*
X37744699Y638789D01*
X37692160Y605023D01*
X37657224Y600000D01*
X37642776Y600000D01*
X37575737Y619685D01*
X37549062Y642798D01*
X37548049Y643967D01*
X37532467Y653981D01*
X37439069Y714004D01*
X37439065Y714006D01*
X37439064Y714006D01*
X37314774Y750500D01*
X37314772Y750500D01*
X37185228Y750500D01*
X37185226Y750500D01*
X37060935Y714006D01*
X37060932Y714005D01*
X37060931Y714004D01*
X37011009Y681921D01*
X36951950Y643967D01*
X36950938Y642798D01*
X36949633Y641960D01*
X36945246Y638158D01*
X36944699Y638789D01*
X36892160Y605023D01*
X36857224Y600000D01*
X36842776Y600000D01*
X36775737Y619685D01*
X36749062Y642798D01*
X36748049Y643967D01*
X36732467Y653981D01*
X36639069Y714004D01*
X36639065Y714006D01*
X36639064Y714006D01*
X36514774Y750500D01*
X36514772Y750500D01*
X36385228Y750500D01*
X36385226Y750500D01*
X36260935Y714006D01*
X36260932Y714005D01*
X36260931Y714004D01*
X36211009Y681921D01*
X36151950Y643967D01*
X36150938Y642798D01*
X36149633Y641960D01*
X36145246Y638158D01*
X36144699Y638789D01*
X36092160Y605023D01*
X36057224Y600000D01*
X36042776Y600000D01*
X35975737Y619685D01*
X35949062Y642798D01*
X35948049Y643967D01*
X35908233Y669555D01*
X35839069Y714004D01*
X35839068Y714005D01*
X35834097Y717199D01*
X35788342Y770003D01*
X35778398Y839162D01*
X35807423Y902718D01*
X35813433Y909174D01*
X36001051Y1096792D01*
X36019836Y1112208D01*
X36030601Y1119399D01*
X36041584Y1135837D01*
X36049803Y1148135D01*
X36085965Y1202258D01*
X36085965Y1202259D01*
X36085966Y1202260D01*
X36105409Y1300000D01*
X36102883Y1312699D01*
X36100500Y1336891D01*
X36100500Y5979817D01*
X36120185Y6046856D01*
X36130780Y6061013D01*
X36132882Y6063437D01*
X36148587Y6097825D01*
X36194342Y6150629D01*
X36261381Y6170314D01*
X36328420Y6150629D01*
X36349062Y6133995D01*
X38563181Y3919877D01*
X38596666Y3858554D01*
X38599500Y3832196D01*
X38599500Y3465798D01*
X38579815Y3398759D01*
X38556704Y3372086D01*
X38551946Y3367964D01*
X38550719Y3366547D01*
X38549143Y3365535D01*
X38545249Y3362160D01*
X38544763Y3362721D01*
X38491939Y3328775D01*
X38422069Y3328779D01*
X38390001Y3346281D01*
X38388817Y3344437D01*
X38379383Y3350500D01*
X38272376Y3419269D01*
X38272372Y3419271D01*
X38272371Y3419271D01*
X38148081Y3455765D01*
X38148079Y3455765D01*
X38018535Y3455765D01*
X38018533Y3455765D01*
X37894242Y3419271D01*
X37894239Y3419270D01*
X37894238Y3419269D01*
X37787231Y3350500D01*
X37785255Y3349230D01*
X37695472Y3245614D01*
X37636694Y3207839D01*
X37566825Y3207839D01*
X37552029Y3213357D01*
X37426823Y3250120D01*
X37426821Y3250120D01*
X37297277Y3250120D01*
X37297275Y3250120D01*
X37172984Y3213626D01*
X37172981Y3213625D01*
X37172980Y3213624D01*
X37141631Y3193477D01*
X37063999Y3143587D01*
X36979167Y3045683D01*
X36979166Y3045682D01*
X36925351Y2927846D01*
X36906916Y2799620D01*
X36925351Y2671395D01*
X36976557Y2559271D01*
X36979167Y2553557D01*
X37064000Y2455653D01*
X37172980Y2385616D01*
X37297274Y2349121D01*
X37297276Y2349120D01*
X37297277Y2349120D01*
X37426822Y2349120D01*
X37426822Y2349121D01*
X37551118Y2385616D01*
X37660098Y2455653D01*
X37744931Y2553557D01*
X37744931Y2553558D01*
X37749882Y2559271D01*
X37808660Y2597047D01*
X37878529Y2597048D01*
X37893330Y2591527D01*
X38018532Y2554766D01*
X38018534Y2554765D01*
X38018535Y2554765D01*
X38148080Y2554765D01*
X38148080Y2554766D01*
X38272376Y2591261D01*
X38381356Y2661298D01*
X38382578Y2662709D01*
X38384152Y2663721D01*
X38388061Y2667107D01*
X38388547Y2666546D01*
X38441352Y2700486D01*
X38511221Y2700492D01*
X38543304Y2682984D01*
X38544490Y2684828D01*
X38551950Y2680034D01*
X38551951Y2680033D01*
X38660931Y2609996D01*
X38742673Y2585995D01*
X38785225Y2573501D01*
X38785227Y2573500D01*
X38785228Y2573500D01*
X38914773Y2573500D01*
X38914773Y2573501D01*
X39039069Y2609996D01*
X39148049Y2680033D01*
X39232882Y2777937D01*
X39286697Y2895774D01*
X39305133Y3024000D01*
X39286697Y3152226D01*
X39232882Y3270063D01*
X39148049Y3367967D01*
X39148048Y3367968D01*
X39148047Y3367969D01*
X39143296Y3372086D01*
X39105523Y3430864D01*
X39100500Y3465798D01*
X39100500Y3950433D01*
X39102883Y3974626D01*
X39103358Y3977011D01*
X39105408Y3987318D01*
X39105408Y3987319D01*
X39105408Y3987321D01*
X39085966Y4085057D01*
X39085966Y4085058D01*
X39044578Y4147001D01*
X39044577Y4147002D01*
X39032559Y4164989D01*
X39030601Y4167920D01*
X39019835Y4175113D01*
X39001045Y4190534D01*
X36553759Y6637819D01*
X36520274Y6699142D01*
X36525258Y6768834D01*
X36567130Y6824767D01*
X36632594Y6849184D01*
X36641440Y6849500D01*
X41604930Y6849500D01*
X41671969Y6829815D01*
G37*
G04 #@! TD.AperFunction*
G04 #@! TA.AperFunction,Conductor*
G36*
X44692539Y9280315D02*
G01*
X44738294Y9227511D01*
X44749500Y9176000D01*
X44749500Y847224D01*
X44729815Y780185D01*
X44677011Y734430D01*
X44607853Y724486D01*
X44590567Y728246D01*
X44514772Y750500D01*
X44385228Y750500D01*
X44385226Y750500D01*
X44260935Y714006D01*
X44260932Y714005D01*
X44260931Y714004D01*
X44211009Y681921D01*
X44151950Y643967D01*
X44150938Y642798D01*
X44149633Y641960D01*
X44145246Y638158D01*
X44144699Y638789D01*
X44092160Y605023D01*
X44057224Y600000D01*
X44042776Y600000D01*
X43975737Y619685D01*
X43949062Y642798D01*
X43948047Y643969D01*
X43943296Y648086D01*
X43905523Y706864D01*
X43900500Y741798D01*
X43900500Y6163115D01*
X43902883Y6187308D01*
X43905408Y6200001D01*
X43894462Y6255025D01*
X43894462Y6255026D01*
X43885966Y6297740D01*
X43884456Y6300000D01*
X43844578Y6359683D01*
X43844577Y6359684D01*
X43841193Y6364749D01*
X43830601Y6380602D01*
X43819835Y6387795D01*
X43801045Y6403216D01*
X43188859Y7015402D01*
X43155374Y7076725D01*
X43160358Y7146417D01*
X43202230Y7202350D01*
X43241603Y7222060D01*
X43289069Y7235996D01*
X43398049Y7306033D01*
X43482882Y7403937D01*
X43526167Y7498719D01*
X43551280Y7534888D01*
X44085924Y8069531D01*
X44085929Y8069538D01*
X44101422Y8085030D01*
X44111481Y8104774D01*
X44121641Y8121354D01*
X44134668Y8139283D01*
X44141514Y8160355D01*
X44148960Y8178329D01*
X44159017Y8198067D01*
X44159018Y8198068D01*
X44162484Y8219956D01*
X44167023Y8238862D01*
X44173872Y8259939D01*
X44173872Y8386805D01*
X44173872Y8906118D01*
X44193557Y8973157D01*
X44210191Y8993799D01*
X44480073Y9263681D01*
X44541396Y9297166D01*
X44567754Y9300000D01*
X44625500Y9300000D01*
X44692539Y9280315D01*
G37*
G04 #@! TD.AperFunction*
G04 #@! TA.AperFunction,Conductor*
G36*
X34867735Y5865080D02*
G01*
X34905516Y5806307D01*
X34910543Y5771358D01*
X34910543Y5201793D01*
X34908161Y5177604D01*
X34905635Y5164904D01*
X34905635Y5164902D01*
X34925075Y5067168D01*
X34925076Y5067165D01*
X34925076Y5067164D01*
X34925077Y5067163D01*
X34936545Y5050000D01*
X34980442Y4984303D01*
X34991208Y4977110D01*
X35009999Y4961688D01*
X35213181Y4758506D01*
X35246666Y4697183D01*
X35249500Y4670825D01*
X35249500Y1905123D01*
X35229815Y1838084D01*
X35213181Y1817442D01*
X34762181Y1366442D01*
X34700858Y1332957D01*
X34631166Y1337941D01*
X34575233Y1379813D01*
X34550816Y1445277D01*
X34550500Y1454123D01*
X34550500Y5737803D01*
X34570185Y5804842D01*
X34622989Y5850597D01*
X34639558Y5856778D01*
X34739069Y5885996D01*
X34739069Y5885997D01*
X34747580Y5888495D01*
X34748295Y5886057D01*
X34804176Y5894098D01*
X34867735Y5865080D01*
G37*
G04 #@! TD.AperFunction*
G04 #@! TA.AperFunction,Conductor*
G36*
X15412917Y4779815D02*
G01*
X15458672Y4727011D01*
X15468616Y4657853D01*
X15439591Y4594297D01*
X15433559Y4587819D01*
X13482559Y2636819D01*
X13421236Y2603334D01*
X13394878Y2600500D01*
X11741427Y2600500D01*
X11674388Y2620185D01*
X11628633Y2672989D01*
X11618689Y2742147D01*
X11624836Y2763081D01*
X11624200Y2763267D01*
X11626698Y2771774D01*
X11630906Y2801043D01*
X11645134Y2900000D01*
X11644719Y2902883D01*
X11641287Y2926753D01*
X11651228Y2995911D01*
X11676340Y3032081D01*
X13407442Y4763181D01*
X13468765Y4796666D01*
X13495123Y4799500D01*
X15345878Y4799500D01*
X15412917Y4779815D01*
G37*
G04 #@! TD.AperFunction*
G04 #@! TA.AperFunction,Conductor*
G36*
X24623616Y4429815D02*
G01*
X24669371Y4377011D01*
X24679315Y4307853D01*
X24650290Y4244297D01*
X24617689Y4219892D01*
X24618392Y4218798D01*
X24610933Y4214005D01*
X24610931Y4214004D01*
X24574411Y4190534D01*
X24501950Y4143967D01*
X24417118Y4046063D01*
X24417117Y4046062D01*
X24363302Y3928226D01*
X24344867Y3800000D01*
X24363302Y3671775D01*
X24417117Y3553939D01*
X24417118Y3553937D01*
X24458913Y3505702D01*
X24487937Y3442146D01*
X24477993Y3372987D01*
X24432237Y3320184D01*
X24365199Y3300500D01*
X19660458Y3300500D01*
X19593419Y3320185D01*
X19572777Y3336819D01*
X19124408Y3785188D01*
X18671775Y4237820D01*
X18638291Y4299142D01*
X18643275Y4368833D01*
X18685147Y4424767D01*
X18750611Y4449184D01*
X18759457Y4449500D01*
X24556577Y4449500D01*
X24623616Y4429815D01*
G37*
G04 #@! TD.AperFunction*
G04 #@! TA.AperFunction,Conductor*
G36*
X38843710Y9465544D02*
G01*
X38843716Y9465537D01*
X38851949Y9456034D01*
X38861482Y9449908D01*
X38960931Y9385996D01*
X39085225Y9349501D01*
X39085227Y9349500D01*
X39085228Y9349500D01*
X39214773Y9349500D01*
X39214773Y9349501D01*
X39269234Y9365491D01*
X39339064Y9385994D01*
X39339065Y9385995D01*
X39339069Y9385996D01*
X39448049Y9456033D01*
X39448050Y9456035D01*
X39454252Y9460020D01*
X39521291Y9479704D01*
X39588331Y9460019D01*
X39601297Y9450313D01*
X39601927Y9449908D01*
X39601929Y9449906D01*
X39710909Y9379869D01*
X39814339Y9349500D01*
X39835203Y9343374D01*
X39835205Y9343373D01*
X39835206Y9343373D01*
X39964751Y9343373D01*
X39964751Y9343374D01*
X40089047Y9379869D01*
X40198027Y9449906D01*
X40207459Y9460791D01*
X40266236Y9498567D01*
X40336106Y9498569D01*
X40394885Y9460796D01*
X40423911Y9397241D01*
X40423912Y9361944D01*
X40404367Y9226003D01*
X40422802Y9097777D01*
X40476617Y8979941D01*
X40476620Y8979935D01*
X40529075Y8919399D01*
X40561451Y8882035D01*
X40561457Y8882031D01*
X40566198Y8877923D01*
X40603975Y8819146D01*
X40609000Y8784206D01*
X40609000Y8532415D01*
X40606618Y8508226D01*
X40604092Y8495526D01*
X40604092Y8495524D01*
X40623532Y8397788D01*
X40623533Y8397785D01*
X40630871Y8386803D01*
X40678898Y8314926D01*
X40678899Y8314925D01*
X40689668Y8307730D01*
X40708457Y8292309D01*
X41438585Y7562181D01*
X41472070Y7500858D01*
X41467086Y7431166D01*
X41425214Y7375233D01*
X41359750Y7350816D01*
X41350904Y7350500D01*
X36387415Y7350500D01*
X36320376Y7370185D01*
X36299734Y7386819D01*
X35635509Y8051043D01*
X35620086Y8069835D01*
X35619751Y8070336D01*
X35612893Y8080601D01*
X35581419Y8101631D01*
X35559828Y8116058D01*
X35551891Y8121361D01*
X35530033Y8135966D01*
X35530032Y8135967D01*
X35530031Y8135967D01*
X35432294Y8155408D01*
X35432291Y8155408D01*
X35419598Y8152883D01*
X35395406Y8150500D01*
X34955758Y8150500D01*
X34888719Y8170185D01*
X34842964Y8222989D01*
X34833020Y8292147D01*
X34842964Y8326011D01*
X34875743Y8397788D01*
X34886697Y8421774D01*
X34905133Y8550000D01*
X34886697Y8678226D01*
X34886697Y8678227D01*
X34884199Y8686733D01*
X34886695Y8687467D01*
X34878687Y8743138D01*
X34907707Y8806696D01*
X34966482Y8844474D01*
X35001426Y8849500D01*
X37613114Y8849500D01*
X37637306Y8847117D01*
X37649999Y8844592D01*
X37650000Y8844592D01*
X37650002Y8844592D01*
X37747738Y8864033D01*
X37747738Y8864034D01*
X37747741Y8864034D01*
X37780145Y8885686D01*
X37830601Y8919399D01*
X37837794Y8930167D01*
X37853210Y8948952D01*
X38217440Y9313181D01*
X38278763Y9346666D01*
X38305121Y9349500D01*
X38414773Y9349500D01*
X38414773Y9349501D01*
X38539069Y9385996D01*
X38648049Y9456033D01*
X38656284Y9465538D01*
X38715061Y9503314D01*
X38784930Y9503316D01*
X38843710Y9465544D01*
G37*
G04 #@! TD.AperFunction*
G04 #@! TA.AperFunction,Conductor*
G36*
X43859834Y11229815D02*
G01*
X43880475Y11213182D01*
X43932000Y11161658D01*
X44021708Y11071950D01*
X44041445Y11061894D01*
X44058034Y11051729D01*
X44063669Y11047634D01*
X44106333Y10992303D01*
X44112309Y10922690D01*
X44084495Y10866119D01*
X44067120Y10846068D01*
X44067117Y10846062D01*
X44013302Y10728226D01*
X43994867Y10600000D01*
X44013302Y10471775D01*
X44045570Y10401119D01*
X44067118Y10353937D01*
X44119714Y10293237D01*
X44148738Y10229685D01*
X44150000Y10212037D01*
X44150000Y10187966D01*
X44130315Y10120927D01*
X44119714Y10106765D01*
X44067120Y10046068D01*
X44067118Y10046064D01*
X44023831Y9951280D01*
X43998718Y9915112D01*
X43467888Y9384281D01*
X43467885Y9384278D01*
X43445321Y9361713D01*
X43445320Y9361712D01*
X43435263Y9341975D01*
X43425103Y9325395D01*
X43412078Y9307467D01*
X43412075Y9307462D01*
X43405226Y9286384D01*
X43397785Y9268420D01*
X43387726Y9248677D01*
X43384259Y9226790D01*
X43379719Y9207881D01*
X43372872Y9186805D01*
X43372872Y8540628D01*
X43353187Y8473589D01*
X43336553Y8452947D01*
X42985236Y8101631D01*
X42932494Y8070336D01*
X42910931Y8064004D01*
X42910930Y8064004D01*
X42801950Y7993967D01*
X42717118Y7896063D01*
X42717117Y7896062D01*
X42663107Y7777798D01*
X42617352Y7724994D01*
X42550312Y7705310D01*
X42483273Y7724995D01*
X42462632Y7741629D01*
X41736819Y8467442D01*
X41703334Y8528765D01*
X41700500Y8555123D01*
X41700500Y8985710D01*
X41720185Y9052749D01*
X41772989Y9098504D01*
X41842147Y9108448D01*
X41905703Y9079423D01*
X41943477Y9020645D01*
X41947238Y9003357D01*
X41956625Y8938062D01*
X41997071Y8849500D01*
X42010441Y8820224D01*
X42095274Y8722320D01*
X42204254Y8652283D01*
X42328548Y8615788D01*
X42328550Y8615787D01*
X42328551Y8615787D01*
X42458096Y8615787D01*
X42458096Y8615788D01*
X42582392Y8652283D01*
X42691372Y8722320D01*
X42776205Y8820224D01*
X42830020Y8938061D01*
X42848456Y9066287D01*
X42830020Y9194513D01*
X42776205Y9312350D01*
X42721095Y9375951D01*
X42692072Y9439506D01*
X42702016Y9508664D01*
X42747768Y9561466D01*
X42761567Y9570333D01*
X42846400Y9668237D01*
X42900215Y9786074D01*
X42918651Y9914300D01*
X42900215Y10042526D01*
X42846400Y10160363D01*
X42761567Y10258267D01*
X42652587Y10328304D01*
X42652583Y10328306D01*
X42652582Y10328306D01*
X42528292Y10364800D01*
X42528290Y10364800D01*
X42485796Y10364800D01*
X42418757Y10384485D01*
X42398115Y10401119D01*
X41848191Y10951043D01*
X41832768Y10969835D01*
X41825574Y10980602D01*
X41807966Y10992367D01*
X41772510Y11016058D01*
X41763017Y11022401D01*
X41718215Y11076013D01*
X41709509Y11145338D01*
X41739665Y11208365D01*
X41799109Y11245082D01*
X41831912Y11249500D01*
X43792795Y11249500D01*
X43859834Y11229815D01*
G37*
G04 #@! TD.AperFunction*
G04 #@! TD*
M02*
