G04 #@! TF.GenerationSoftware,KiCad,Pcbnew,7.0.5*
G04 #@! TF.CreationDate,2024-01-29T23:54:35+03:00*
G04 #@! TF.ProjectId,uaefi-module,75616566-692d-46d6-9f64-756c652e6b69,rev?*
G04 #@! TF.SameCoordinates,PX55d4a80PY8f0d180*
G04 #@! TF.FileFunction,Legend,Bot*
G04 #@! TF.FilePolarity,Positive*
%FSLAX46Y46*%
G04 Gerber Fmt 4.6, Leading zero omitted, Abs format (unit mm)*
G04 Created by KiCad (PCBNEW 7.0.5) date 2024-01-29 23:54:35*
%MOMM*%
%LPD*%
G01*
G04 APERTURE LIST*
%ADD10C,0.100000*%
%ADD11C,0.120000*%
G04 APERTURE END LIST*
D10*
G04 #@! TO.C,BRD1*
X7887745Y58144229D02*
X7753058Y58278916D01*
X7753058Y58278916D02*
X7652043Y58312588D01*
X7652043Y58312588D02*
X7517356Y58312588D01*
X7517356Y58312588D02*
X7348997Y58211573D01*
X7348997Y58211573D02*
X7113295Y57975870D01*
X7113295Y57975870D02*
X7012279Y57807512D01*
X7012279Y57807512D02*
X7012279Y57672825D01*
X7012279Y57672825D02*
X7045951Y57571809D01*
X7045951Y57571809D02*
X7180638Y57437122D01*
X7180638Y57437122D02*
X7281653Y57403451D01*
X7281653Y57403451D02*
X7416341Y57403451D01*
X7416341Y57403451D02*
X7584699Y57504466D01*
X7584699Y57504466D02*
X7820402Y57740168D01*
X7820402Y57740168D02*
X7921417Y57908527D01*
X7921417Y57908527D02*
X7921417Y58043214D01*
X7921417Y58043214D02*
X7887745Y58144229D01*
X7281654Y58750321D02*
X6709234Y58177901D01*
X6709234Y58177901D02*
X6608219Y58144229D01*
X6608219Y58144229D02*
X6540875Y58144229D01*
X6540875Y58144229D02*
X6439860Y58177901D01*
X6439860Y58177901D02*
X6305173Y58312588D01*
X6305173Y58312588D02*
X6271501Y58413603D01*
X6271501Y58413603D02*
X6271501Y58480947D01*
X6271501Y58480947D02*
X6305173Y58581962D01*
X6305173Y58581962D02*
X6877593Y59154382D01*
X6641890Y59390084D02*
X6237829Y59794145D01*
X5732753Y58885008D02*
X6439860Y59592114D01*
X4756272Y59861489D02*
X5463379Y60568596D01*
X4419555Y60198206D02*
X5126661Y60905313D01*
X5126661Y60905313D02*
X4015494Y60602267D01*
X4015494Y60602267D02*
X4722600Y61309374D01*
X4183852Y61848122D02*
X3678776Y61343046D01*
X3678776Y61343046D02*
X3611433Y61208359D01*
X3611433Y61208359D02*
X3611433Y61073672D01*
X3611433Y61073672D02*
X3678776Y60938985D01*
X3678776Y60938985D02*
X3746120Y60871641D01*
X3914478Y62117496D02*
X3476746Y62555229D01*
X3476746Y62555229D02*
X3443074Y62050152D01*
X3443074Y62050152D02*
X3342059Y62151168D01*
X3342059Y62151168D02*
X3241043Y62184839D01*
X3241043Y62184839D02*
X3173700Y62184839D01*
X3173700Y62184839D02*
X3072684Y62151168D01*
X3072684Y62151168D02*
X2904326Y61982809D01*
X2904326Y61982809D02*
X2870654Y61881794D01*
X2870654Y61881794D02*
X2870654Y61814450D01*
X2870654Y61814450D02*
X2904326Y61713435D01*
X2904326Y61713435D02*
X3106356Y61511404D01*
X3106356Y61511404D02*
X3207372Y61477733D01*
X3207372Y61477733D02*
X3274715Y61477733D01*
X8067754Y26546886D02*
X7933067Y26681573D01*
X7933067Y26681573D02*
X7832052Y26715245D01*
X7832052Y26715245D02*
X7697365Y26715245D01*
X7697365Y26715245D02*
X7529006Y26614230D01*
X7529006Y26614230D02*
X7293304Y26378527D01*
X7293304Y26378527D02*
X7192288Y26210169D01*
X7192288Y26210169D02*
X7192288Y26075482D01*
X7192288Y26075482D02*
X7225960Y25974466D01*
X7225960Y25974466D02*
X7360647Y25839779D01*
X7360647Y25839779D02*
X7461662Y25806108D01*
X7461662Y25806108D02*
X7596350Y25806108D01*
X7596350Y25806108D02*
X7764708Y25907123D01*
X7764708Y25907123D02*
X8000411Y26142825D01*
X8000411Y26142825D02*
X8101426Y26311184D01*
X8101426Y26311184D02*
X8101426Y26445871D01*
X8101426Y26445871D02*
X8067754Y26546886D01*
X7461663Y27152978D02*
X6889243Y26580558D01*
X6889243Y26580558D02*
X6788228Y26546886D01*
X6788228Y26546886D02*
X6720884Y26546886D01*
X6720884Y26546886D02*
X6619869Y26580558D01*
X6619869Y26580558D02*
X6485182Y26715245D01*
X6485182Y26715245D02*
X6451510Y26816260D01*
X6451510Y26816260D02*
X6451510Y26883604D01*
X6451510Y26883604D02*
X6485182Y26984619D01*
X6485182Y26984619D02*
X7057602Y27557039D01*
X6821899Y27792741D02*
X6417838Y28196802D01*
X5912762Y27287665D02*
X6619869Y27994771D01*
X4936281Y28264146D02*
X5643388Y28971253D01*
X5643388Y28971253D02*
X5475029Y29139611D01*
X5475029Y29139611D02*
X5340342Y29206955D01*
X5340342Y29206955D02*
X5205655Y29206955D01*
X5205655Y29206955D02*
X5104640Y29173283D01*
X5104640Y29173283D02*
X4936281Y29072268D01*
X4936281Y29072268D02*
X4835266Y28971253D01*
X4835266Y28971253D02*
X4734250Y28802894D01*
X4734250Y28802894D02*
X4700579Y28701879D01*
X4700579Y28701879D02*
X4700579Y28567192D01*
X4700579Y28567192D02*
X4767922Y28432505D01*
X4767922Y28432505D02*
X4936281Y28264146D01*
X3892457Y29442657D02*
X3892457Y29375314D01*
X3892457Y29375314D02*
X3959800Y29240627D01*
X3959800Y29240627D02*
X4027144Y29173283D01*
X4027144Y29173283D02*
X4161831Y29105940D01*
X4161831Y29105940D02*
X4296518Y29105940D01*
X4296518Y29105940D02*
X4397533Y29139611D01*
X4397533Y29139611D02*
X4565892Y29240627D01*
X4565892Y29240627D02*
X4666907Y29341642D01*
X4666907Y29341642D02*
X4767922Y29510001D01*
X4767922Y29510001D02*
X4801594Y29611016D01*
X4801594Y29611016D02*
X4801594Y29745703D01*
X4801594Y29745703D02*
X4734250Y29880390D01*
X4734250Y29880390D02*
X4666907Y29947733D01*
X4666907Y29947733D02*
X4532220Y30015077D01*
X4532220Y30015077D02*
X4464876Y30015077D01*
X3151678Y30048749D02*
X3555739Y29644688D01*
X3353709Y29846718D02*
X4060815Y30553825D01*
X4060815Y30553825D02*
X4027144Y30385466D01*
X4027144Y30385466D02*
X4027144Y30250779D01*
X4027144Y30250779D02*
X4060815Y30149764D01*
X22735334Y91745092D02*
X23442441Y92452199D01*
X22398617Y92081810D02*
X23105724Y92788916D01*
X23105724Y92788916D02*
X21994556Y92485871D01*
X21994556Y92485871D02*
X22701663Y93192977D01*
X21927212Y93967428D02*
X21523151Y94371489D01*
X21018075Y93462352D02*
X21725182Y94169458D01*
X20950731Y94270474D02*
X20715029Y94506176D01*
X20243625Y94236802D02*
X20580342Y93900085D01*
X20580342Y93900085D02*
X21287449Y94607191D01*
X21287449Y94607191D02*
X20950731Y94943909D01*
X19940579Y94539848D02*
X20647686Y95246955D01*
X20647686Y95246955D02*
X19906907Y94977581D01*
X19906907Y94977581D02*
X20176281Y95718359D01*
X20176281Y95718359D02*
X19469174Y95011252D01*
X19132457Y95347970D02*
X19839564Y96055077D01*
X19839564Y96055077D02*
X19570190Y96324451D01*
X19570190Y96324451D02*
X19469174Y96358122D01*
X19469174Y96358122D02*
X19401831Y96358122D01*
X19401831Y96358122D02*
X19300816Y96324451D01*
X19300816Y96324451D02*
X19199800Y96223435D01*
X19199800Y96223435D02*
X19166129Y96122420D01*
X19166129Y96122420D02*
X19166129Y96055077D01*
X19166129Y96055077D02*
X19199800Y95954061D01*
X19199800Y95954061D02*
X19469174Y95684687D01*
X15072147Y51329286D02*
X14937460Y51463973D01*
X14937460Y51463973D02*
X14836445Y51497645D01*
X14836445Y51497645D02*
X14701758Y51497645D01*
X14701758Y51497645D02*
X14533399Y51396630D01*
X14533399Y51396630D02*
X14297697Y51160927D01*
X14297697Y51160927D02*
X14196681Y50992569D01*
X14196681Y50992569D02*
X14196681Y50857882D01*
X14196681Y50857882D02*
X14230353Y50756866D01*
X14230353Y50756866D02*
X14365040Y50622179D01*
X14365040Y50622179D02*
X14466055Y50588508D01*
X14466055Y50588508D02*
X14600743Y50588508D01*
X14600743Y50588508D02*
X14769101Y50689523D01*
X14769101Y50689523D02*
X15004804Y50925225D01*
X15004804Y50925225D02*
X15105819Y51093584D01*
X15105819Y51093584D02*
X15105819Y51228271D01*
X15105819Y51228271D02*
X15072147Y51329286D01*
X14466056Y51935378D02*
X13893636Y51362958D01*
X13893636Y51362958D02*
X13792621Y51329286D01*
X13792621Y51329286D02*
X13725277Y51329286D01*
X13725277Y51329286D02*
X13624262Y51362958D01*
X13624262Y51362958D02*
X13489575Y51497645D01*
X13489575Y51497645D02*
X13455903Y51598660D01*
X13455903Y51598660D02*
X13455903Y51666004D01*
X13455903Y51666004D02*
X13489575Y51767019D01*
X13489575Y51767019D02*
X14061995Y52339439D01*
X13826292Y52575141D02*
X13422231Y52979202D01*
X12917155Y52070065D02*
X13624262Y52777171D01*
X11940674Y53046546D02*
X12647781Y53753653D01*
X11907002Y54427087D02*
X12008018Y54393416D01*
X12008018Y54393416D02*
X12109033Y54292400D01*
X12109033Y54292400D02*
X12176376Y54157713D01*
X12176376Y54157713D02*
X12176376Y54023026D01*
X12176376Y54023026D02*
X12142705Y53922011D01*
X12142705Y53922011D02*
X12041689Y53753652D01*
X12041689Y53753652D02*
X11940674Y53652637D01*
X11940674Y53652637D02*
X11772315Y53551622D01*
X11772315Y53551622D02*
X11671300Y53517950D01*
X11671300Y53517950D02*
X11536613Y53517950D01*
X11536613Y53517950D02*
X11401926Y53585294D01*
X11401926Y53585294D02*
X11334583Y53652637D01*
X11334583Y53652637D02*
X11267239Y53787324D01*
X11267239Y53787324D02*
X11267239Y53854668D01*
X11267239Y53854668D02*
X11502941Y54090370D01*
X11502941Y54090370D02*
X11637628Y53955683D01*
X10896850Y54090370D02*
X11603957Y54797477D01*
X11603957Y54797477D02*
X10492789Y54494431D01*
X10492789Y54494431D02*
X11199896Y55201538D01*
X10324430Y55605599D02*
X9853026Y55134194D01*
X10762163Y55706614D02*
X10425445Y55033179D01*
X10425445Y55033179D02*
X9987713Y55470912D01*
X19177162Y87751681D02*
X19278177Y87718009D01*
X19278177Y87718009D02*
X19379193Y87616994D01*
X19379193Y87616994D02*
X19446536Y87482307D01*
X19446536Y87482307D02*
X19446536Y87347620D01*
X19446536Y87347620D02*
X19412864Y87246604D01*
X19412864Y87246604D02*
X19311849Y87078246D01*
X19311849Y87078246D02*
X19210834Y86977230D01*
X19210834Y86977230D02*
X19042475Y86876215D01*
X19042475Y86876215D02*
X18941460Y86842543D01*
X18941460Y86842543D02*
X18806773Y86842543D01*
X18806773Y86842543D02*
X18672086Y86909887D01*
X18672086Y86909887D02*
X18604742Y86977230D01*
X18604742Y86977230D02*
X18537399Y87111917D01*
X18537399Y87111917D02*
X18537399Y87179261D01*
X18537399Y87179261D02*
X18773101Y87414963D01*
X18773101Y87414963D02*
X18907788Y87280276D01*
X18167009Y87414963D02*
X18874116Y88122070D01*
X18874116Y88122070D02*
X17762948Y87819024D01*
X17762948Y87819024D02*
X18470055Y88526131D01*
X17426231Y88155742D02*
X18133338Y88862849D01*
X18133338Y88862849D02*
X17964979Y89031207D01*
X17964979Y89031207D02*
X17830292Y89098551D01*
X17830292Y89098551D02*
X17695605Y89098551D01*
X17695605Y89098551D02*
X17594590Y89064879D01*
X17594590Y89064879D02*
X17426231Y88963864D01*
X17426231Y88963864D02*
X17325216Y88862849D01*
X17325216Y88862849D02*
X17224200Y88694490D01*
X17224200Y88694490D02*
X17190529Y88593475D01*
X17190529Y88593475D02*
X17190529Y88458788D01*
X17190529Y88458788D02*
X17257872Y88324100D01*
X17257872Y88324100D02*
X17426231Y88155742D01*
X16954826Y89031207D02*
X16618109Y89367925D01*
X16820139Y88761833D02*
X17291544Y89704642D01*
X17291544Y89704642D02*
X16348735Y89233238D01*
X10804311Y87627864D02*
X10905326Y87594192D01*
X10905326Y87594192D02*
X11006342Y87493177D01*
X11006342Y87493177D02*
X11073685Y87358490D01*
X11073685Y87358490D02*
X11073685Y87223803D01*
X11073685Y87223803D02*
X11040013Y87122787D01*
X11040013Y87122787D02*
X10938998Y86954429D01*
X10938998Y86954429D02*
X10837983Y86853413D01*
X10837983Y86853413D02*
X10669624Y86752398D01*
X10669624Y86752398D02*
X10568609Y86718726D01*
X10568609Y86718726D02*
X10433922Y86718726D01*
X10433922Y86718726D02*
X10299235Y86786070D01*
X10299235Y86786070D02*
X10231891Y86853413D01*
X10231891Y86853413D02*
X10164548Y86988100D01*
X10164548Y86988100D02*
X10164548Y87055444D01*
X10164548Y87055444D02*
X10400250Y87291146D01*
X10400250Y87291146D02*
X10534937Y87156459D01*
X9794158Y87291146D02*
X10501265Y87998253D01*
X10501265Y87998253D02*
X9390097Y87695207D01*
X9390097Y87695207D02*
X10097204Y88402314D01*
X9053380Y88031925D02*
X9760487Y88739032D01*
X9760487Y88739032D02*
X9592128Y88907390D01*
X9592128Y88907390D02*
X9457441Y88974734D01*
X9457441Y88974734D02*
X9322754Y88974734D01*
X9322754Y88974734D02*
X9221739Y88941062D01*
X9221739Y88941062D02*
X9053380Y88840047D01*
X9053380Y88840047D02*
X8952365Y88739032D01*
X8952365Y88739032D02*
X8851349Y88570673D01*
X8851349Y88570673D02*
X8817678Y88469658D01*
X8817678Y88469658D02*
X8817678Y88334971D01*
X8817678Y88334971D02*
X8885021Y88200283D01*
X8885021Y88200283D02*
X9053380Y88031925D01*
X8581975Y88907390D02*
X8245258Y89244108D01*
X8447288Y88638016D02*
X8918693Y89580825D01*
X8918693Y89580825D02*
X7975884Y89109421D01*
X35590481Y91847527D02*
X36297588Y92554634D01*
X35253764Y92184245D02*
X35960871Y92891351D01*
X35960871Y92891351D02*
X34849703Y92588306D01*
X34849703Y92588306D02*
X35556810Y93295412D01*
X34782359Y94069863D02*
X33839550Y93598458D01*
X33839550Y93598458D02*
X34310955Y94541267D01*
X33435489Y94069863D02*
X33300802Y94137206D01*
X33300802Y94137206D02*
X33132443Y94305565D01*
X33132443Y94305565D02*
X33098772Y94406580D01*
X33098772Y94406580D02*
X33098772Y94473924D01*
X33098772Y94473924D02*
X33132443Y94574939D01*
X33132443Y94574939D02*
X33199787Y94642283D01*
X33199787Y94642283D02*
X33300802Y94675954D01*
X33300802Y94675954D02*
X33368146Y94675954D01*
X33368146Y94675954D02*
X33469161Y94642283D01*
X33469161Y94642283D02*
X33637520Y94541267D01*
X33637520Y94541267D02*
X33738535Y94507596D01*
X33738535Y94507596D02*
X33805879Y94507596D01*
X33805879Y94507596D02*
X33906894Y94541267D01*
X33906894Y94541267D02*
X33974237Y94608611D01*
X33974237Y94608611D02*
X34007909Y94709626D01*
X34007909Y94709626D02*
X34007909Y94776970D01*
X34007909Y94776970D02*
X33974237Y94877985D01*
X33974237Y94877985D02*
X33805879Y95046344D01*
X33805879Y95046344D02*
X33671192Y95113687D01*
X32762054Y94743298D02*
X32627367Y94810642D01*
X32627367Y94810642D02*
X32459008Y94979000D01*
X32459008Y94979000D02*
X32425337Y95080016D01*
X32425337Y95080016D02*
X32425337Y95147359D01*
X32425337Y95147359D02*
X32459008Y95248374D01*
X32459008Y95248374D02*
X32526352Y95315718D01*
X32526352Y95315718D02*
X32627367Y95349390D01*
X32627367Y95349390D02*
X32694711Y95349390D01*
X32694711Y95349390D02*
X32795726Y95315718D01*
X32795726Y95315718D02*
X32964085Y95214703D01*
X32964085Y95214703D02*
X33065100Y95181031D01*
X33065100Y95181031D02*
X33132443Y95181031D01*
X33132443Y95181031D02*
X33233459Y95214703D01*
X33233459Y95214703D02*
X33300802Y95282046D01*
X33300802Y95282046D02*
X33334474Y95383061D01*
X33334474Y95383061D02*
X33334474Y95450405D01*
X33334474Y95450405D02*
X33300802Y95551420D01*
X33300802Y95551420D02*
X33132443Y95719779D01*
X33132443Y95719779D02*
X32997756Y95787122D01*
X10304708Y92014466D02*
X9765960Y92553214D01*
X9765960Y92014466D02*
X10304708Y92553214D01*
X9530258Y93664382D02*
X9866976Y93327665D01*
X9866976Y93327665D02*
X9563930Y92957275D01*
X9563930Y92957275D02*
X9563930Y93024619D01*
X9563930Y93024619D02*
X9530258Y93125634D01*
X9530258Y93125634D02*
X9361899Y93293993D01*
X9361899Y93293993D02*
X9260884Y93327665D01*
X9260884Y93327665D02*
X9193541Y93327665D01*
X9193541Y93327665D02*
X9092525Y93293993D01*
X9092525Y93293993D02*
X8924167Y93125634D01*
X8924167Y93125634D02*
X8890495Y93024619D01*
X8890495Y93024619D02*
X8890495Y92957275D01*
X8890495Y92957275D02*
X8924167Y92856260D01*
X8924167Y92856260D02*
X9092525Y92687901D01*
X9092525Y92687901D02*
X9193541Y92654230D01*
X9193541Y92654230D02*
X9260884Y92654230D01*
X9294556Y93900084D02*
X8351747Y93428680D01*
X8351747Y93428680D02*
X8823151Y94371489D01*
X7880342Y93900085D02*
X8587449Y94607191D01*
X8587449Y94607191D02*
X8318075Y94876565D01*
X8318075Y94876565D02*
X8217060Y94910237D01*
X8217060Y94910237D02*
X8149716Y94910237D01*
X8149716Y94910237D02*
X8048701Y94876565D01*
X8048701Y94876565D02*
X7947686Y94775550D01*
X7947686Y94775550D02*
X7914014Y94674535D01*
X7914014Y94674535D02*
X7914014Y94607191D01*
X7914014Y94607191D02*
X7947686Y94506176D01*
X7947686Y94506176D02*
X8217060Y94236802D01*
X86635566Y20004285D02*
X86064138Y20004285D01*
X86349852Y19004285D02*
X86349852Y20004285D01*
X85826042Y19004285D02*
X85302233Y19670952D01*
X85826042Y19670952D02*
X85302233Y19004285D01*
X72871975Y92361056D02*
X72333227Y92899804D01*
X72333227Y92361056D02*
X72871975Y92899804D01*
X72097525Y94010972D02*
X72434243Y93674255D01*
X72434243Y93674255D02*
X72131197Y93303865D01*
X72131197Y93303865D02*
X72131197Y93371209D01*
X72131197Y93371209D02*
X72097525Y93472224D01*
X72097525Y93472224D02*
X71929166Y93640583D01*
X71929166Y93640583D02*
X71828151Y93674255D01*
X71828151Y93674255D02*
X71760808Y93674255D01*
X71760808Y93674255D02*
X71659792Y93640583D01*
X71659792Y93640583D02*
X71491434Y93472224D01*
X71491434Y93472224D02*
X71457762Y93371209D01*
X71457762Y93371209D02*
X71457762Y93303865D01*
X71457762Y93303865D02*
X71491434Y93202850D01*
X71491434Y93202850D02*
X71659792Y93034491D01*
X71659792Y93034491D02*
X71760808Y93000820D01*
X71760808Y93000820D02*
X71828151Y93000820D01*
X71861823Y94246674D02*
X70919014Y93775270D01*
X70919014Y93775270D02*
X71390418Y94718079D01*
X70447609Y94246675D02*
X71154716Y94953781D01*
X71154716Y94953781D02*
X70885342Y95223155D01*
X70885342Y95223155D02*
X70784327Y95256827D01*
X70784327Y95256827D02*
X70716983Y95256827D01*
X70716983Y95256827D02*
X70615968Y95223155D01*
X70615968Y95223155D02*
X70514953Y95122140D01*
X70514953Y95122140D02*
X70481281Y95021125D01*
X70481281Y95021125D02*
X70481281Y94953781D01*
X70481281Y94953781D02*
X70514953Y94852766D01*
X70514953Y94852766D02*
X70784327Y94583392D01*
X13896129Y79797878D02*
X13761442Y79932565D01*
X13761442Y79932565D02*
X13660427Y79966237D01*
X13660427Y79966237D02*
X13525740Y79966237D01*
X13525740Y79966237D02*
X13357381Y79865222D01*
X13357381Y79865222D02*
X13121679Y79629519D01*
X13121679Y79629519D02*
X13020663Y79461161D01*
X13020663Y79461161D02*
X13020663Y79326474D01*
X13020663Y79326474D02*
X13054335Y79225458D01*
X13054335Y79225458D02*
X13189022Y79090771D01*
X13189022Y79090771D02*
X13290037Y79057100D01*
X13290037Y79057100D02*
X13424725Y79057100D01*
X13424725Y79057100D02*
X13593083Y79158115D01*
X13593083Y79158115D02*
X13828786Y79393817D01*
X13828786Y79393817D02*
X13929801Y79562176D01*
X13929801Y79562176D02*
X13929801Y79696863D01*
X13929801Y79696863D02*
X13896129Y79797878D01*
X13290038Y80403970D02*
X12717618Y79831550D01*
X12717618Y79831550D02*
X12616603Y79797878D01*
X12616603Y79797878D02*
X12549259Y79797878D01*
X12549259Y79797878D02*
X12448244Y79831550D01*
X12448244Y79831550D02*
X12313557Y79966237D01*
X12313557Y79966237D02*
X12279885Y80067252D01*
X12279885Y80067252D02*
X12279885Y80134596D01*
X12279885Y80134596D02*
X12313557Y80235611D01*
X12313557Y80235611D02*
X12885977Y80808031D01*
X12650274Y81043733D02*
X12246213Y81447794D01*
X11741137Y80538657D02*
X12448244Y81245763D01*
X10764656Y81515138D02*
X11471763Y82222245D01*
X10427939Y81851855D02*
X11135045Y82558962D01*
X11135045Y82558962D02*
X10966687Y82727321D01*
X10966687Y82727321D02*
X10832000Y82794664D01*
X10832000Y82794664D02*
X10697313Y82794664D01*
X10697313Y82794664D02*
X10596297Y82760992D01*
X10596297Y82760992D02*
X10427939Y82659977D01*
X10427939Y82659977D02*
X10326923Y82558962D01*
X10326923Y82558962D02*
X10225908Y82390603D01*
X10225908Y82390603D02*
X10192236Y82289588D01*
X10192236Y82289588D02*
X10192236Y82154901D01*
X10192236Y82154901D02*
X10259580Y82020214D01*
X10259580Y82020214D02*
X10427939Y81851855D01*
X9384114Y82895679D02*
X9720832Y82558962D01*
X9720832Y82558962D02*
X10427939Y83266069D01*
X9518801Y83501771D02*
X9283099Y83737473D01*
X8811694Y83468099D02*
X9148412Y83131382D01*
X9148412Y83131382D02*
X9855519Y83838488D01*
X9855519Y83838488D02*
X9518801Y84175206D01*
X28401603Y85852570D02*
X29108710Y86559677D01*
X28064886Y86189288D02*
X28771993Y86896394D01*
X28771993Y86896394D02*
X27660825Y86593349D01*
X27660825Y86593349D02*
X28367932Y87300455D01*
X26785359Y87468814D02*
X27492466Y88175921D01*
X27492466Y88175921D02*
X27223092Y88445295D01*
X27223092Y88445295D02*
X27122077Y88478967D01*
X27122077Y88478967D02*
X27054733Y88478967D01*
X27054733Y88478967D02*
X26953718Y88445295D01*
X26953718Y88445295D02*
X26852703Y88344280D01*
X26852703Y88344280D02*
X26819031Y88243265D01*
X26819031Y88243265D02*
X26819031Y88175921D01*
X26819031Y88175921D02*
X26852703Y88074906D01*
X26852703Y88074906D02*
X27122077Y87805532D01*
X25674192Y88579982D02*
X26246611Y88680997D01*
X26078253Y88175921D02*
X26785359Y88883028D01*
X26785359Y88883028D02*
X26515985Y89152402D01*
X26515985Y89152402D02*
X26414970Y89186074D01*
X26414970Y89186074D02*
X26347627Y89186074D01*
X26347627Y89186074D02*
X26246611Y89152402D01*
X26246611Y89152402D02*
X26145596Y89051387D01*
X26145596Y89051387D02*
X26111924Y88950371D01*
X26111924Y88950371D02*
X26111924Y88883028D01*
X26111924Y88883028D02*
X26145596Y88782013D01*
X26145596Y88782013D02*
X26414970Y88512639D01*
X25438489Y88883028D02*
X25303802Y88950371D01*
X25303802Y88950371D02*
X25135444Y89118730D01*
X25135444Y89118730D02*
X25101772Y89219745D01*
X25101772Y89219745D02*
X25101772Y89287089D01*
X25101772Y89287089D02*
X25135444Y89388104D01*
X25135444Y89388104D02*
X25202787Y89455448D01*
X25202787Y89455448D02*
X25303802Y89489119D01*
X25303802Y89489119D02*
X25371146Y89489119D01*
X25371146Y89489119D02*
X25472161Y89455448D01*
X25472161Y89455448D02*
X25640520Y89354432D01*
X25640520Y89354432D02*
X25741535Y89320761D01*
X25741535Y89320761D02*
X25808879Y89320761D01*
X25808879Y89320761D02*
X25909894Y89354432D01*
X25909894Y89354432D02*
X25977237Y89421776D01*
X25977237Y89421776D02*
X26010909Y89522791D01*
X26010909Y89522791D02*
X26010909Y89590135D01*
X26010909Y89590135D02*
X25977237Y89691150D01*
X25977237Y89691150D02*
X25808879Y89859509D01*
X25808879Y89859509D02*
X25674192Y89926852D01*
X24765054Y89556463D02*
X24630367Y89623806D01*
X24630367Y89623806D02*
X24462008Y89792165D01*
X24462008Y89792165D02*
X24428337Y89893180D01*
X24428337Y89893180D02*
X24428337Y89960524D01*
X24428337Y89960524D02*
X24462008Y90061539D01*
X24462008Y90061539D02*
X24529352Y90128883D01*
X24529352Y90128883D02*
X24630367Y90162554D01*
X24630367Y90162554D02*
X24697711Y90162554D01*
X24697711Y90162554D02*
X24798726Y90128883D01*
X24798726Y90128883D02*
X24967085Y90027867D01*
X24967085Y90027867D02*
X25068100Y89994196D01*
X25068100Y89994196D02*
X25135444Y89994196D01*
X25135444Y89994196D02*
X25236459Y90027867D01*
X25236459Y90027867D02*
X25303802Y90095211D01*
X25303802Y90095211D02*
X25337474Y90196226D01*
X25337474Y90196226D02*
X25337474Y90263570D01*
X25337474Y90263570D02*
X25303802Y90364585D01*
X25303802Y90364585D02*
X25135444Y90532944D01*
X25135444Y90532944D02*
X25000757Y90600287D01*
X44335729Y86645756D02*
X43392920Y86174351D01*
X43392920Y86174351D02*
X43864325Y87117161D01*
X42517455Y87049817D02*
X43089874Y87150832D01*
X42921516Y86645756D02*
X43628622Y87352863D01*
X43628622Y87352863D02*
X43359248Y87622237D01*
X43359248Y87622237D02*
X43258233Y87655909D01*
X43258233Y87655909D02*
X43190890Y87655909D01*
X43190890Y87655909D02*
X43089874Y87622237D01*
X43089874Y87622237D02*
X42988859Y87521222D01*
X42988859Y87521222D02*
X42955187Y87420206D01*
X42955187Y87420206D02*
X42955187Y87352863D01*
X42955187Y87352863D02*
X42988859Y87251848D01*
X42988859Y87251848D02*
X43258233Y86982474D01*
X41844020Y87723252D02*
X42248081Y87319191D01*
X42046050Y87521222D02*
X42753157Y88228328D01*
X42753157Y88228328D02*
X42719485Y88059970D01*
X42719485Y88059970D02*
X42719485Y87925283D01*
X42719485Y87925283D02*
X42753157Y87824267D01*
X41810348Y88295672D02*
X41271600Y88834420D01*
X15120257Y59700397D02*
X14985570Y59835084D01*
X14985570Y59835084D02*
X14884555Y59868756D01*
X14884555Y59868756D02*
X14749868Y59868756D01*
X14749868Y59868756D02*
X14581509Y59767741D01*
X14581509Y59767741D02*
X14345807Y59532038D01*
X14345807Y59532038D02*
X14244791Y59363680D01*
X14244791Y59363680D02*
X14244791Y59228993D01*
X14244791Y59228993D02*
X14278463Y59127977D01*
X14278463Y59127977D02*
X14413150Y58993290D01*
X14413150Y58993290D02*
X14514165Y58959619D01*
X14514165Y58959619D02*
X14648853Y58959619D01*
X14648853Y58959619D02*
X14817211Y59060634D01*
X14817211Y59060634D02*
X15052914Y59296336D01*
X15052914Y59296336D02*
X15153929Y59464695D01*
X15153929Y59464695D02*
X15153929Y59599382D01*
X15153929Y59599382D02*
X15120257Y59700397D01*
X14514166Y60306489D02*
X13941746Y59734069D01*
X13941746Y59734069D02*
X13840731Y59700397D01*
X13840731Y59700397D02*
X13773387Y59700397D01*
X13773387Y59700397D02*
X13672372Y59734069D01*
X13672372Y59734069D02*
X13537685Y59868756D01*
X13537685Y59868756D02*
X13504013Y59969771D01*
X13504013Y59969771D02*
X13504013Y60037115D01*
X13504013Y60037115D02*
X13537685Y60138130D01*
X13537685Y60138130D02*
X14110105Y60710550D01*
X13874402Y60946252D02*
X13470341Y61350313D01*
X12965265Y60441176D02*
X13672372Y61148282D01*
X11988784Y61417657D02*
X12695891Y62124764D01*
X11955112Y62798198D02*
X12056128Y62764527D01*
X12056128Y62764527D02*
X12157143Y62663511D01*
X12157143Y62663511D02*
X12224486Y62528824D01*
X12224486Y62528824D02*
X12224486Y62394137D01*
X12224486Y62394137D02*
X12190815Y62293122D01*
X12190815Y62293122D02*
X12089799Y62124763D01*
X12089799Y62124763D02*
X11988784Y62023748D01*
X11988784Y62023748D02*
X11820425Y61922733D01*
X11820425Y61922733D02*
X11719410Y61889061D01*
X11719410Y61889061D02*
X11584723Y61889061D01*
X11584723Y61889061D02*
X11450036Y61956405D01*
X11450036Y61956405D02*
X11382693Y62023748D01*
X11382693Y62023748D02*
X11315349Y62158435D01*
X11315349Y62158435D02*
X11315349Y62225779D01*
X11315349Y62225779D02*
X11551051Y62461481D01*
X11551051Y62461481D02*
X11685738Y62326794D01*
X10944960Y62461481D02*
X11652067Y63168588D01*
X11652067Y63168588D02*
X10540899Y62865542D01*
X10540899Y62865542D02*
X11248006Y63572649D01*
X10574571Y64246084D02*
X10911288Y63909366D01*
X10911288Y63909366D02*
X10608242Y63538977D01*
X10608242Y63538977D02*
X10608242Y63606320D01*
X10608242Y63606320D02*
X10574571Y63707336D01*
X10574571Y63707336D02*
X10406212Y63875694D01*
X10406212Y63875694D02*
X10305197Y63909366D01*
X10305197Y63909366D02*
X10237853Y63909366D01*
X10237853Y63909366D02*
X10136838Y63875694D01*
X10136838Y63875694D02*
X9968479Y63707336D01*
X9968479Y63707336D02*
X9934807Y63606320D01*
X9934807Y63606320D02*
X9934807Y63538977D01*
X9934807Y63538977D02*
X9968479Y63437962D01*
X9968479Y63437962D02*
X10136838Y63269603D01*
X10136838Y63269603D02*
X10237853Y63235931D01*
X10237853Y63235931D02*
X10305197Y63235931D01*
X15136293Y63871909D02*
X15001606Y64006596D01*
X15001606Y64006596D02*
X14900591Y64040268D01*
X14900591Y64040268D02*
X14765904Y64040268D01*
X14765904Y64040268D02*
X14597545Y63939253D01*
X14597545Y63939253D02*
X14361843Y63703550D01*
X14361843Y63703550D02*
X14260827Y63535192D01*
X14260827Y63535192D02*
X14260827Y63400505D01*
X14260827Y63400505D02*
X14294499Y63299489D01*
X14294499Y63299489D02*
X14429186Y63164802D01*
X14429186Y63164802D02*
X14530201Y63131131D01*
X14530201Y63131131D02*
X14664889Y63131131D01*
X14664889Y63131131D02*
X14833247Y63232146D01*
X14833247Y63232146D02*
X15068950Y63467848D01*
X15068950Y63467848D02*
X15169965Y63636207D01*
X15169965Y63636207D02*
X15169965Y63770894D01*
X15169965Y63770894D02*
X15136293Y63871909D01*
X14530202Y64478001D02*
X13957782Y63905581D01*
X13957782Y63905581D02*
X13856767Y63871909D01*
X13856767Y63871909D02*
X13789423Y63871909D01*
X13789423Y63871909D02*
X13688408Y63905581D01*
X13688408Y63905581D02*
X13553721Y64040268D01*
X13553721Y64040268D02*
X13520049Y64141283D01*
X13520049Y64141283D02*
X13520049Y64208627D01*
X13520049Y64208627D02*
X13553721Y64309642D01*
X13553721Y64309642D02*
X14126141Y64882062D01*
X13890438Y65117764D02*
X13486377Y65521825D01*
X12981301Y64612688D02*
X13688408Y65319794D01*
X12004820Y65589169D02*
X12711927Y66296276D01*
X11971148Y66969710D02*
X12072164Y66936039D01*
X12072164Y66936039D02*
X12173179Y66835023D01*
X12173179Y66835023D02*
X12240522Y66700336D01*
X12240522Y66700336D02*
X12240522Y66565649D01*
X12240522Y66565649D02*
X12206851Y66464634D01*
X12206851Y66464634D02*
X12105835Y66296275D01*
X12105835Y66296275D02*
X12004820Y66195260D01*
X12004820Y66195260D02*
X11836461Y66094245D01*
X11836461Y66094245D02*
X11735446Y66060573D01*
X11735446Y66060573D02*
X11600759Y66060573D01*
X11600759Y66060573D02*
X11466072Y66127917D01*
X11466072Y66127917D02*
X11398729Y66195260D01*
X11398729Y66195260D02*
X11331385Y66329947D01*
X11331385Y66329947D02*
X11331385Y66397291D01*
X11331385Y66397291D02*
X11567087Y66632993D01*
X11567087Y66632993D02*
X11701774Y66498306D01*
X10960996Y66632993D02*
X11668103Y67340100D01*
X11668103Y67340100D02*
X10556935Y67037054D01*
X10556935Y67037054D02*
X11264042Y67744161D01*
X10893652Y67979863D02*
X10893652Y68047206D01*
X10893652Y68047206D02*
X10859981Y68148222D01*
X10859981Y68148222D02*
X10691622Y68316580D01*
X10691622Y68316580D02*
X10590607Y68350252D01*
X10590607Y68350252D02*
X10523263Y68350252D01*
X10523263Y68350252D02*
X10422248Y68316580D01*
X10422248Y68316580D02*
X10354904Y68249237D01*
X10354904Y68249237D02*
X10287561Y68114550D01*
X10287561Y68114550D02*
X10287561Y67306428D01*
X10287561Y67306428D02*
X9849828Y67744161D01*
X87751573Y13478872D02*
X87846811Y13526491D01*
X87846811Y13526491D02*
X87989668Y13526491D01*
X87989668Y13526491D02*
X88132525Y13478872D01*
X88132525Y13478872D02*
X88227763Y13383634D01*
X88227763Y13383634D02*
X88275382Y13288396D01*
X88275382Y13288396D02*
X88323001Y13097920D01*
X88323001Y13097920D02*
X88323001Y12955063D01*
X88323001Y12955063D02*
X88275382Y12764587D01*
X88275382Y12764587D02*
X88227763Y12669349D01*
X88227763Y12669349D02*
X88132525Y12574110D01*
X88132525Y12574110D02*
X87989668Y12526491D01*
X87989668Y12526491D02*
X87894430Y12526491D01*
X87894430Y12526491D02*
X87751573Y12574110D01*
X87751573Y12574110D02*
X87703954Y12621730D01*
X87703954Y12621730D02*
X87703954Y12955063D01*
X87703954Y12955063D02*
X87894430Y12955063D01*
X87275382Y12526491D02*
X87275382Y13526491D01*
X87275382Y13526491D02*
X86703954Y12526491D01*
X86703954Y12526491D02*
X86703954Y13526491D01*
X86227763Y12526491D02*
X86227763Y13526491D01*
X86227763Y13526491D02*
X85989668Y13526491D01*
X85989668Y13526491D02*
X85846811Y13478872D01*
X85846811Y13478872D02*
X85751573Y13383634D01*
X85751573Y13383634D02*
X85703954Y13288396D01*
X85703954Y13288396D02*
X85656335Y13097920D01*
X85656335Y13097920D02*
X85656335Y12955063D01*
X85656335Y12955063D02*
X85703954Y12764587D01*
X85703954Y12764587D02*
X85751573Y12669349D01*
X85751573Y12669349D02*
X85846811Y12574110D01*
X85846811Y12574110D02*
X85989668Y12526491D01*
X85989668Y12526491D02*
X86227763Y12526491D01*
X14879708Y76394510D02*
X14745021Y76529197D01*
X14745021Y76529197D02*
X14644006Y76562869D01*
X14644006Y76562869D02*
X14509319Y76562869D01*
X14509319Y76562869D02*
X14340960Y76461854D01*
X14340960Y76461854D02*
X14105258Y76226151D01*
X14105258Y76226151D02*
X14004242Y76057793D01*
X14004242Y76057793D02*
X14004242Y75923106D01*
X14004242Y75923106D02*
X14037914Y75822090D01*
X14037914Y75822090D02*
X14172601Y75687403D01*
X14172601Y75687403D02*
X14273616Y75653732D01*
X14273616Y75653732D02*
X14408304Y75653732D01*
X14408304Y75653732D02*
X14576662Y75754747D01*
X14576662Y75754747D02*
X14812365Y75990449D01*
X14812365Y75990449D02*
X14913380Y76158808D01*
X14913380Y76158808D02*
X14913380Y76293495D01*
X14913380Y76293495D02*
X14879708Y76394510D01*
X14273617Y77000602D02*
X13701197Y76428182D01*
X13701197Y76428182D02*
X13600182Y76394510D01*
X13600182Y76394510D02*
X13532838Y76394510D01*
X13532838Y76394510D02*
X13431823Y76428182D01*
X13431823Y76428182D02*
X13297136Y76562869D01*
X13297136Y76562869D02*
X13263464Y76663884D01*
X13263464Y76663884D02*
X13263464Y76731228D01*
X13263464Y76731228D02*
X13297136Y76832243D01*
X13297136Y76832243D02*
X13869556Y77404663D01*
X13633853Y77640365D02*
X13229792Y78044426D01*
X12724716Y77135289D02*
X13431823Y77842395D01*
X11411517Y78448487D02*
X11748235Y78111770D01*
X11748235Y78111770D02*
X12455342Y78818877D01*
X11243158Y78684190D02*
X11108471Y78751533D01*
X11108471Y78751533D02*
X10940113Y78919892D01*
X10940113Y78919892D02*
X10906441Y79020907D01*
X10906441Y79020907D02*
X10906441Y79088251D01*
X10906441Y79088251D02*
X10940113Y79189266D01*
X10940113Y79189266D02*
X11007456Y79256610D01*
X11007456Y79256610D02*
X11108471Y79290281D01*
X11108471Y79290281D02*
X11175815Y79290281D01*
X11175815Y79290281D02*
X11276830Y79256610D01*
X11276830Y79256610D02*
X11445189Y79155594D01*
X11445189Y79155594D02*
X11546204Y79121923D01*
X11546204Y79121923D02*
X11613548Y79121923D01*
X11613548Y79121923D02*
X11714563Y79155594D01*
X11714563Y79155594D02*
X11781906Y79222938D01*
X11781906Y79222938D02*
X11815578Y79323953D01*
X11815578Y79323953D02*
X11815578Y79391297D01*
X11815578Y79391297D02*
X11781906Y79492312D01*
X11781906Y79492312D02*
X11613548Y79660671D01*
X11613548Y79660671D02*
X11478861Y79728014D01*
X11276830Y79997388D02*
X10839097Y80435121D01*
X10839097Y80435121D02*
X10805426Y79930045D01*
X10805426Y79930045D02*
X10704410Y80031060D01*
X10704410Y80031060D02*
X10603395Y80064732D01*
X10603395Y80064732D02*
X10536052Y80064732D01*
X10536052Y80064732D02*
X10435036Y80031060D01*
X10435036Y80031060D02*
X10266678Y79862701D01*
X10266678Y79862701D02*
X10233006Y79761686D01*
X10233006Y79761686D02*
X10233006Y79694342D01*
X10233006Y79694342D02*
X10266678Y79593327D01*
X10266678Y79593327D02*
X10468708Y79391297D01*
X10468708Y79391297D02*
X10569723Y79357625D01*
X10569723Y79357625D02*
X10637067Y79357625D01*
X89365872Y6245869D02*
X89365872Y5436346D01*
X89365872Y5436346D02*
X89318253Y5341108D01*
X89318253Y5341108D02*
X89270634Y5293488D01*
X89270634Y5293488D02*
X89175396Y5245869D01*
X89175396Y5245869D02*
X88984920Y5245869D01*
X88984920Y5245869D02*
X88889682Y5293488D01*
X88889682Y5293488D02*
X88842063Y5341108D01*
X88842063Y5341108D02*
X88794444Y5436346D01*
X88794444Y5436346D02*
X88794444Y6245869D01*
X88365872Y5293488D02*
X88223015Y5245869D01*
X88223015Y5245869D02*
X87984920Y5245869D01*
X87984920Y5245869D02*
X87889682Y5293488D01*
X87889682Y5293488D02*
X87842063Y5341108D01*
X87842063Y5341108D02*
X87794444Y5436346D01*
X87794444Y5436346D02*
X87794444Y5531584D01*
X87794444Y5531584D02*
X87842063Y5626822D01*
X87842063Y5626822D02*
X87889682Y5674441D01*
X87889682Y5674441D02*
X87984920Y5722060D01*
X87984920Y5722060D02*
X88175396Y5769679D01*
X88175396Y5769679D02*
X88270634Y5817298D01*
X88270634Y5817298D02*
X88318253Y5864917D01*
X88318253Y5864917D02*
X88365872Y5960155D01*
X88365872Y5960155D02*
X88365872Y6055393D01*
X88365872Y6055393D02*
X88318253Y6150631D01*
X88318253Y6150631D02*
X88270634Y6198250D01*
X88270634Y6198250D02*
X88175396Y6245869D01*
X88175396Y6245869D02*
X87937301Y6245869D01*
X87937301Y6245869D02*
X87794444Y6198250D01*
X87032539Y5769679D02*
X86889682Y5722060D01*
X86889682Y5722060D02*
X86842063Y5674441D01*
X86842063Y5674441D02*
X86794444Y5579203D01*
X86794444Y5579203D02*
X86794444Y5436346D01*
X86794444Y5436346D02*
X86842063Y5341108D01*
X86842063Y5341108D02*
X86889682Y5293488D01*
X86889682Y5293488D02*
X86984920Y5245869D01*
X86984920Y5245869D02*
X87365872Y5245869D01*
X87365872Y5245869D02*
X87365872Y6245869D01*
X87365872Y6245869D02*
X87032539Y6245869D01*
X87032539Y6245869D02*
X86937301Y6198250D01*
X86937301Y6198250D02*
X86889682Y6150631D01*
X86889682Y6150631D02*
X86842063Y6055393D01*
X86842063Y6055393D02*
X86842063Y5960155D01*
X86842063Y5960155D02*
X86889682Y5864917D01*
X86889682Y5864917D02*
X86937301Y5817298D01*
X86937301Y5817298D02*
X87032539Y5769679D01*
X87032539Y5769679D02*
X87365872Y5769679D01*
X86365872Y5626822D02*
X85603968Y5626822D01*
X89424101Y74383949D02*
X88548635Y73845201D01*
X88548635Y73845201D02*
X88919024Y74484964D01*
X88919024Y74484964D02*
X88279261Y74114575D01*
X88279261Y74114575D02*
X88818009Y74990040D01*
X87976215Y75158399D02*
X87841528Y75225742D01*
X87841528Y75225742D02*
X87774185Y75225742D01*
X87774185Y75225742D02*
X87673170Y75192071D01*
X87673170Y75192071D02*
X87572154Y75091055D01*
X87572154Y75091055D02*
X87538483Y74990040D01*
X87538483Y74990040D02*
X87538483Y74922697D01*
X87538483Y74922697D02*
X87572154Y74821681D01*
X87572154Y74821681D02*
X87841528Y74552307D01*
X87841528Y74552307D02*
X88548635Y75259414D01*
X88548635Y75259414D02*
X88312933Y75495116D01*
X88312933Y75495116D02*
X88211918Y75528788D01*
X88211918Y75528788D02*
X88144574Y75528788D01*
X88144574Y75528788D02*
X88043559Y75495116D01*
X88043559Y75495116D02*
X87976215Y75427773D01*
X87976215Y75427773D02*
X87942544Y75326758D01*
X87942544Y75326758D02*
X87942544Y75259414D01*
X87942544Y75259414D02*
X87976215Y75158399D01*
X87976215Y75158399D02*
X88211918Y74922697D01*
X87706841Y76101208D02*
X87572154Y76235895D01*
X87572154Y76235895D02*
X87471139Y76269567D01*
X87471139Y76269567D02*
X87336452Y76269567D01*
X87336452Y76269567D02*
X87168093Y76168551D01*
X87168093Y76168551D02*
X86932391Y75932849D01*
X86932391Y75932849D02*
X86831376Y75764490D01*
X86831376Y75764490D02*
X86831376Y75629803D01*
X86831376Y75629803D02*
X86865048Y75528788D01*
X86865048Y75528788D02*
X86999735Y75394101D01*
X86999735Y75394101D02*
X87100750Y75360429D01*
X87100750Y75360429D02*
X87235437Y75360429D01*
X87235437Y75360429D02*
X87403796Y75461445D01*
X87403796Y75461445D02*
X87639498Y75697147D01*
X87639498Y75697147D02*
X87740513Y75865506D01*
X87740513Y75865506D02*
X87740513Y76000193D01*
X87740513Y76000193D02*
X87706841Y76101208D01*
X86562002Y77246048D02*
X85989582Y76673628D01*
X85989582Y76673628D02*
X85888567Y76639956D01*
X85888567Y76639956D02*
X85821223Y76639956D01*
X85821223Y76639956D02*
X85720208Y76673628D01*
X85720208Y76673628D02*
X85585521Y76808315D01*
X85585521Y76808315D02*
X85551849Y76909330D01*
X85551849Y76909330D02*
X85551849Y76976674D01*
X85551849Y76976674D02*
X85585521Y77077689D01*
X85585521Y77077689D02*
X86157941Y77650109D01*
X85585521Y77751124D02*
X85114116Y77279719D01*
X85518177Y77683780D02*
X85518177Y77751124D01*
X85518177Y77751124D02*
X85484506Y77852139D01*
X85484506Y77852139D02*
X85383490Y77953154D01*
X85383490Y77953154D02*
X85282475Y77986826D01*
X85282475Y77986826D02*
X85181460Y77953154D01*
X85181460Y77953154D02*
X84811071Y77582765D01*
X94099489Y81751673D02*
X94806596Y82458780D01*
X93762772Y82088391D02*
X94469879Y82795497D01*
X94469879Y82795497D02*
X93358711Y82492452D01*
X93358711Y82492452D02*
X94065818Y83199558D01*
X92146528Y83839322D02*
X92146528Y83771978D01*
X92146528Y83771978D02*
X92213871Y83637291D01*
X92213871Y83637291D02*
X92281215Y83569948D01*
X92281215Y83569948D02*
X92415902Y83502604D01*
X92415902Y83502604D02*
X92550589Y83502604D01*
X92550589Y83502604D02*
X92651604Y83536276D01*
X92651604Y83536276D02*
X92819963Y83637291D01*
X92819963Y83637291D02*
X92920978Y83738307D01*
X92920978Y83738307D02*
X93021993Y83906665D01*
X93021993Y83906665D02*
X93055665Y84007681D01*
X93055665Y84007681D02*
X93055665Y84142368D01*
X93055665Y84142368D02*
X92988322Y84277055D01*
X92988322Y84277055D02*
X92920978Y84344398D01*
X92920978Y84344398D02*
X92786291Y84411742D01*
X92786291Y84411742D02*
X92718948Y84411742D01*
X91439421Y84411742D02*
X91776139Y84075024D01*
X91776139Y84075024D02*
X92483245Y84782131D01*
X92011841Y85253536D02*
X91607780Y85657597D01*
X91102703Y84748459D02*
X91809810Y85455566D01*
X7759452Y66739853D02*
X7624765Y66874540D01*
X7624765Y66874540D02*
X7523750Y66908212D01*
X7523750Y66908212D02*
X7389063Y66908212D01*
X7389063Y66908212D02*
X7220704Y66807197D01*
X7220704Y66807197D02*
X6985002Y66571494D01*
X6985002Y66571494D02*
X6883986Y66403136D01*
X6883986Y66403136D02*
X6883986Y66268449D01*
X6883986Y66268449D02*
X6917658Y66167433D01*
X6917658Y66167433D02*
X7052345Y66032746D01*
X7052345Y66032746D02*
X7153360Y65999075D01*
X7153360Y65999075D02*
X7288048Y65999075D01*
X7288048Y65999075D02*
X7456406Y66100090D01*
X7456406Y66100090D02*
X7692109Y66335792D01*
X7692109Y66335792D02*
X7793124Y66504151D01*
X7793124Y66504151D02*
X7793124Y66638838D01*
X7793124Y66638838D02*
X7759452Y66739853D01*
X7153361Y67345945D02*
X6580941Y66773525D01*
X6580941Y66773525D02*
X6479926Y66739853D01*
X6479926Y66739853D02*
X6412582Y66739853D01*
X6412582Y66739853D02*
X6311567Y66773525D01*
X6311567Y66773525D02*
X6176880Y66908212D01*
X6176880Y66908212D02*
X6143208Y67009227D01*
X6143208Y67009227D02*
X6143208Y67076571D01*
X6143208Y67076571D02*
X6176880Y67177586D01*
X6176880Y67177586D02*
X6749300Y67750006D01*
X6513597Y67985708D02*
X6109536Y68389769D01*
X5604460Y67480632D02*
X6311567Y68187738D01*
X4627979Y68457113D02*
X5335086Y69164220D01*
X4291262Y68793830D02*
X4998368Y69500937D01*
X4998368Y69500937D02*
X3887201Y69197891D01*
X3887201Y69197891D02*
X4594307Y69904998D01*
X4055559Y70443746D02*
X3550483Y69938670D01*
X3550483Y69938670D02*
X3483140Y69803983D01*
X3483140Y69803983D02*
X3483140Y69669296D01*
X3483140Y69669296D02*
X3550483Y69534609D01*
X3550483Y69534609D02*
X3617827Y69467265D01*
X2641346Y70443746D02*
X3045407Y70039685D01*
X2843376Y70241715D02*
X3550483Y70948822D01*
X3550483Y70948822D02*
X3516811Y70780463D01*
X3516811Y70780463D02*
X3516811Y70645776D01*
X3516811Y70645776D02*
X3550483Y70544761D01*
X40102064Y86790085D02*
X39159255Y86318680D01*
X39159255Y86318680D02*
X39630660Y87261490D01*
X38283790Y87194146D02*
X38856209Y87295161D01*
X38687851Y86790085D02*
X39394957Y87497192D01*
X39394957Y87497192D02*
X39125583Y87766566D01*
X39125583Y87766566D02*
X39024568Y87800238D01*
X39024568Y87800238D02*
X38957225Y87800238D01*
X38957225Y87800238D02*
X38856209Y87766566D01*
X38856209Y87766566D02*
X38755194Y87665551D01*
X38755194Y87665551D02*
X38721522Y87564535D01*
X38721522Y87564535D02*
X38721522Y87497192D01*
X38721522Y87497192D02*
X38755194Y87396177D01*
X38755194Y87396177D02*
X39024568Y87126803D01*
X37610355Y87867581D02*
X38014416Y87463520D01*
X37812385Y87665551D02*
X38519492Y88372657D01*
X38519492Y88372657D02*
X38485820Y88204299D01*
X38485820Y88204299D02*
X38485820Y88069612D01*
X38485820Y88069612D02*
X38519492Y87968596D01*
X37576683Y88440001D02*
X37037935Y88978749D01*
X37037935Y88440001D02*
X37576683Y88978749D01*
X43440212Y91751307D02*
X44147319Y92458414D01*
X43103495Y92088025D02*
X43810602Y92795131D01*
X43810602Y92795131D02*
X42699434Y92492086D01*
X42699434Y92492086D02*
X43406541Y93199192D01*
X41958655Y93973643D02*
X41823968Y94040986D01*
X41823968Y94040986D02*
X41756625Y94040986D01*
X41756625Y94040986D02*
X41655610Y94007315D01*
X41655610Y94007315D02*
X41554594Y93906299D01*
X41554594Y93906299D02*
X41520923Y93805284D01*
X41520923Y93805284D02*
X41520923Y93737941D01*
X41520923Y93737941D02*
X41554594Y93636925D01*
X41554594Y93636925D02*
X41823968Y93367551D01*
X41823968Y93367551D02*
X42531075Y94074658D01*
X42531075Y94074658D02*
X42295373Y94310360D01*
X42295373Y94310360D02*
X42194358Y94344032D01*
X42194358Y94344032D02*
X42127014Y94344032D01*
X42127014Y94344032D02*
X42025999Y94310360D01*
X42025999Y94310360D02*
X41958655Y94243017D01*
X41958655Y94243017D02*
X41924984Y94142002D01*
X41924984Y94142002D02*
X41924984Y94074658D01*
X41924984Y94074658D02*
X41958655Y93973643D01*
X41958655Y93973643D02*
X42194358Y93737941D01*
X41823968Y94781765D02*
X41251549Y94209345D01*
X41251549Y94209345D02*
X41150533Y94175673D01*
X41150533Y94175673D02*
X41083190Y94175673D01*
X41083190Y94175673D02*
X40982175Y94209345D01*
X40982175Y94209345D02*
X40847488Y94344032D01*
X40847488Y94344032D02*
X40813816Y94445047D01*
X40813816Y94445047D02*
X40813816Y94512391D01*
X40813816Y94512391D02*
X40847488Y94613406D01*
X40847488Y94613406D02*
X41419907Y95185826D01*
X41184205Y95421528D02*
X40780144Y95825589D01*
X40275068Y94916452D02*
X40982175Y95623559D01*
X40645457Y95960276D02*
X40241396Y96364337D01*
X39736320Y95455200D02*
X40443426Y96162307D01*
X39871006Y96734727D02*
X39736319Y96869414D01*
X39736319Y96869414D02*
X39635304Y96903086D01*
X39635304Y96903086D02*
X39500617Y96903086D01*
X39500617Y96903086D02*
X39332258Y96802070D01*
X39332258Y96802070D02*
X39096556Y96566368D01*
X39096556Y96566368D02*
X38995541Y96398009D01*
X38995541Y96398009D02*
X38995541Y96263322D01*
X38995541Y96263322D02*
X39029213Y96162307D01*
X39029213Y96162307D02*
X39163900Y96027620D01*
X39163900Y96027620D02*
X39264915Y95993948D01*
X39264915Y95993948D02*
X39399602Y95993948D01*
X39399602Y95993948D02*
X39567961Y96094964D01*
X39567961Y96094964D02*
X39803663Y96330666D01*
X39803663Y96330666D02*
X39904678Y96499025D01*
X39904678Y96499025D02*
X39904678Y96633712D01*
X39904678Y96633712D02*
X39871006Y96734727D01*
X38557808Y96633711D02*
X39264915Y97340818D01*
X39264915Y97340818D02*
X38153747Y97037773D01*
X38153747Y97037773D02*
X38860854Y97744879D01*
X38591480Y98014253D02*
X38153747Y98451986D01*
X38153747Y98451986D02*
X38120075Y97946910D01*
X38120075Y97946910D02*
X38019060Y98047925D01*
X38019060Y98047925D02*
X37918045Y98081597D01*
X37918045Y98081597D02*
X37850701Y98081597D01*
X37850701Y98081597D02*
X37749686Y98047925D01*
X37749686Y98047925D02*
X37581327Y97879566D01*
X37581327Y97879566D02*
X37547656Y97778551D01*
X37547656Y97778551D02*
X37547656Y97711208D01*
X37547656Y97711208D02*
X37581327Y97610192D01*
X37581327Y97610192D02*
X37783358Y97408162D01*
X37783358Y97408162D02*
X37884373Y97374490D01*
X37884373Y97374490D02*
X37951717Y97374490D01*
X8288660Y79954638D02*
X8153973Y80089325D01*
X8153973Y80089325D02*
X8052958Y80122997D01*
X8052958Y80122997D02*
X7918271Y80122997D01*
X7918271Y80122997D02*
X7749912Y80021982D01*
X7749912Y80021982D02*
X7514210Y79786279D01*
X7514210Y79786279D02*
X7413194Y79617921D01*
X7413194Y79617921D02*
X7413194Y79483234D01*
X7413194Y79483234D02*
X7446866Y79382218D01*
X7446866Y79382218D02*
X7581553Y79247531D01*
X7581553Y79247531D02*
X7682568Y79213860D01*
X7682568Y79213860D02*
X7817256Y79213860D01*
X7817256Y79213860D02*
X7985614Y79314875D01*
X7985614Y79314875D02*
X8221317Y79550577D01*
X8221317Y79550577D02*
X8322332Y79718936D01*
X8322332Y79718936D02*
X8322332Y79853623D01*
X8322332Y79853623D02*
X8288660Y79954638D01*
X7682569Y80560730D02*
X7110149Y79988310D01*
X7110149Y79988310D02*
X7009134Y79954638D01*
X7009134Y79954638D02*
X6941790Y79954638D01*
X6941790Y79954638D02*
X6840775Y79988310D01*
X6840775Y79988310D02*
X6706088Y80122997D01*
X6706088Y80122997D02*
X6672416Y80224012D01*
X6672416Y80224012D02*
X6672416Y80291356D01*
X6672416Y80291356D02*
X6706088Y80392371D01*
X6706088Y80392371D02*
X7278508Y80964791D01*
X7042805Y81200493D02*
X6638744Y81604554D01*
X6133668Y80695417D02*
X6840775Y81402523D01*
X4820469Y82008615D02*
X5157187Y81671898D01*
X5157187Y81671898D02*
X5864294Y82379005D01*
X4652110Y82244318D02*
X4517423Y82311661D01*
X4517423Y82311661D02*
X4349065Y82480020D01*
X4349065Y82480020D02*
X4315393Y82581035D01*
X4315393Y82581035D02*
X4315393Y82648379D01*
X4315393Y82648379D02*
X4349065Y82749394D01*
X4349065Y82749394D02*
X4416408Y82816738D01*
X4416408Y82816738D02*
X4517423Y82850409D01*
X4517423Y82850409D02*
X4584767Y82850409D01*
X4584767Y82850409D02*
X4685782Y82816738D01*
X4685782Y82816738D02*
X4854141Y82715722D01*
X4854141Y82715722D02*
X4955156Y82682051D01*
X4955156Y82682051D02*
X5022500Y82682051D01*
X5022500Y82682051D02*
X5123515Y82715722D01*
X5123515Y82715722D02*
X5190858Y82783066D01*
X5190858Y82783066D02*
X5224530Y82884081D01*
X5224530Y82884081D02*
X5224530Y82951425D01*
X5224530Y82951425D02*
X5190858Y83052440D01*
X5190858Y83052440D02*
X5022500Y83220799D01*
X5022500Y83220799D02*
X4887813Y83288142D01*
X4147034Y84096264D02*
X3271568Y83557516D01*
X3271568Y83557516D02*
X3641958Y84197280D01*
X3641958Y84197280D02*
X3002194Y83826890D01*
X3002194Y83826890D02*
X3540942Y84702356D01*
X2934851Y84635012D02*
X2699149Y84870714D01*
X2227744Y84601340D02*
X2564462Y84264623D01*
X2564462Y84264623D02*
X3271569Y84971730D01*
X3271569Y84971730D02*
X2934851Y85308447D01*
X2160401Y85072745D02*
X1823683Y85409463D01*
X2025714Y84803371D02*
X2497118Y85746180D01*
X2497118Y85746180D02*
X1554309Y85274776D01*
X1318607Y85510478D02*
X2025714Y86217585D01*
X914546Y85914539D02*
X1621653Y86015554D01*
X1621653Y86621646D02*
X1621653Y85813524D01*
X241111Y86587974D02*
X645172Y86183913D01*
X443141Y86385943D02*
X1150248Y87093050D01*
X1150248Y87093050D02*
X1116576Y86924691D01*
X1116576Y86924691D02*
X1116576Y86790004D01*
X1116576Y86790004D02*
X1150248Y86688989D01*
X15328733Y72271361D02*
X15194046Y72406048D01*
X15194046Y72406048D02*
X15093031Y72439720D01*
X15093031Y72439720D02*
X14958344Y72439720D01*
X14958344Y72439720D02*
X14789985Y72338705D01*
X14789985Y72338705D02*
X14554283Y72103002D01*
X14554283Y72103002D02*
X14453267Y71934644D01*
X14453267Y71934644D02*
X14453267Y71799957D01*
X14453267Y71799957D02*
X14486939Y71698941D01*
X14486939Y71698941D02*
X14621626Y71564254D01*
X14621626Y71564254D02*
X14722641Y71530583D01*
X14722641Y71530583D02*
X14857329Y71530583D01*
X14857329Y71530583D02*
X15025687Y71631598D01*
X15025687Y71631598D02*
X15261390Y71867300D01*
X15261390Y71867300D02*
X15362405Y72035659D01*
X15362405Y72035659D02*
X15362405Y72170346D01*
X15362405Y72170346D02*
X15328733Y72271361D01*
X14722642Y72877453D02*
X14150222Y72305033D01*
X14150222Y72305033D02*
X14049207Y72271361D01*
X14049207Y72271361D02*
X13981863Y72271361D01*
X13981863Y72271361D02*
X13880848Y72305033D01*
X13880848Y72305033D02*
X13746161Y72439720D01*
X13746161Y72439720D02*
X13712489Y72540735D01*
X13712489Y72540735D02*
X13712489Y72608079D01*
X13712489Y72608079D02*
X13746161Y72709094D01*
X13746161Y72709094D02*
X14318581Y73281514D01*
X14082878Y73517216D02*
X13678817Y73921277D01*
X13173741Y73012140D02*
X13880848Y73719246D01*
X12197260Y73988621D02*
X12904367Y74695728D01*
X12904367Y74695728D02*
X12634993Y74965102D01*
X12634993Y74965102D02*
X12533977Y74998773D01*
X12533977Y74998773D02*
X12466634Y74998773D01*
X12466634Y74998773D02*
X12365619Y74965102D01*
X12365619Y74965102D02*
X12264603Y74864086D01*
X12264603Y74864086D02*
X12230932Y74763071D01*
X12230932Y74763071D02*
X12230932Y74695728D01*
X12230932Y74695728D02*
X12264603Y74594712D01*
X12264603Y74594712D02*
X12533977Y74325338D01*
X12197260Y75402834D02*
X11624840Y74830415D01*
X11624840Y74830415D02*
X11523825Y74796743D01*
X11523825Y74796743D02*
X11456481Y74796743D01*
X11456481Y74796743D02*
X11355466Y74830415D01*
X11355466Y74830415D02*
X11220779Y74965102D01*
X11220779Y74965102D02*
X11187107Y75066117D01*
X11187107Y75066117D02*
X11187107Y75133460D01*
X11187107Y75133460D02*
X11220779Y75234476D01*
X11220779Y75234476D02*
X11793199Y75806895D01*
X10749375Y75436506D02*
X11456481Y76143613D01*
X11456481Y76143613D02*
X10715703Y75874239D01*
X10715703Y75874239D02*
X10985077Y76615017D01*
X10985077Y76615017D02*
X10277970Y75907911D01*
X9941253Y76244628D02*
X10648359Y76951735D01*
X10648359Y76951735D02*
X10378985Y77221109D01*
X10378985Y77221109D02*
X10277970Y77254781D01*
X10277970Y77254781D02*
X10210627Y77254781D01*
X10210627Y77254781D02*
X10109611Y77221109D01*
X10109611Y77221109D02*
X10008596Y77120094D01*
X10008596Y77120094D02*
X9974924Y77019078D01*
X9974924Y77019078D02*
X9974924Y76951735D01*
X9974924Y76951735D02*
X10008596Y76850720D01*
X10008596Y76850720D02*
X10277970Y76581346D01*
X77001893Y91816365D02*
X77709000Y92523472D01*
X76665176Y92153083D02*
X77372283Y92860189D01*
X77372283Y92860189D02*
X76261115Y92557144D01*
X76261115Y92557144D02*
X76968222Y93264250D01*
X75385649Y93432609D02*
X76092756Y94139716D01*
X76092756Y94139716D02*
X75924397Y94308075D01*
X75924397Y94308075D02*
X75789710Y94375418D01*
X75789710Y94375418D02*
X75655023Y94375418D01*
X75655023Y94375418D02*
X75554008Y94341747D01*
X75554008Y94341747D02*
X75385649Y94240731D01*
X75385649Y94240731D02*
X75284634Y94139716D01*
X75284634Y94139716D02*
X75183619Y93971357D01*
X75183619Y93971357D02*
X75149947Y93870342D01*
X75149947Y93870342D02*
X75149947Y93735655D01*
X75149947Y93735655D02*
X75217291Y93600968D01*
X75217291Y93600968D02*
X75385649Y93432609D01*
X74678543Y94139716D02*
X75385649Y94846823D01*
X74644871Y95520258D02*
X74745886Y95486586D01*
X74745886Y95486586D02*
X74846902Y95385571D01*
X74846902Y95385571D02*
X74914245Y95250884D01*
X74914245Y95250884D02*
X74914245Y95116197D01*
X74914245Y95116197D02*
X74880573Y95015181D01*
X74880573Y95015181D02*
X74779558Y94846823D01*
X74779558Y94846823D02*
X74678543Y94745807D01*
X74678543Y94745807D02*
X74510184Y94644792D01*
X74510184Y94644792D02*
X74409169Y94611120D01*
X74409169Y94611120D02*
X74274482Y94611120D01*
X74274482Y94611120D02*
X74139795Y94678464D01*
X74139795Y94678464D02*
X74072451Y94745807D01*
X74072451Y94745807D02*
X74005108Y94880494D01*
X74005108Y94880494D02*
X74005108Y94947838D01*
X74005108Y94947838D02*
X74240810Y95183540D01*
X74240810Y95183540D02*
X74375497Y95048853D01*
X73634719Y95183540D02*
X74341825Y95890647D01*
X74106123Y96126349D02*
X73702062Y96530410D01*
X73196986Y95621273D02*
X73904093Y96328379D01*
X72994956Y96227364D02*
X72658238Y96564082D01*
X72860269Y95957990D02*
X73331673Y96900799D01*
X73331673Y96900799D02*
X72388864Y96429395D01*
X71816444Y97001815D02*
X72153162Y96665097D01*
X72153162Y96665097D02*
X72860268Y97372204D01*
X7760091Y34964881D02*
X7861106Y34931209D01*
X7861106Y34931209D02*
X7962122Y34830194D01*
X7962122Y34830194D02*
X8029465Y34695507D01*
X8029465Y34695507D02*
X8029465Y34560820D01*
X8029465Y34560820D02*
X7995793Y34459804D01*
X7995793Y34459804D02*
X7894778Y34291446D01*
X7894778Y34291446D02*
X7793763Y34190430D01*
X7793763Y34190430D02*
X7625404Y34089415D01*
X7625404Y34089415D02*
X7524389Y34055743D01*
X7524389Y34055743D02*
X7389702Y34055743D01*
X7389702Y34055743D02*
X7255015Y34123087D01*
X7255015Y34123087D02*
X7187671Y34190430D01*
X7187671Y34190430D02*
X7120328Y34325117D01*
X7120328Y34325117D02*
X7120328Y34392461D01*
X7120328Y34392461D02*
X7356030Y34628163D01*
X7356030Y34628163D02*
X7490717Y34493476D01*
X6749938Y34628163D02*
X7457045Y35335270D01*
X7457045Y35335270D02*
X6345877Y35032224D01*
X6345877Y35032224D02*
X7052984Y35739331D01*
X6009160Y35368942D02*
X6716267Y36076049D01*
X6716267Y36076049D02*
X6547908Y36244407D01*
X6547908Y36244407D02*
X6413221Y36311751D01*
X6413221Y36311751D02*
X6278534Y36311751D01*
X6278534Y36311751D02*
X6177519Y36278079D01*
X6177519Y36278079D02*
X6009160Y36177064D01*
X6009160Y36177064D02*
X5908145Y36076049D01*
X5908145Y36076049D02*
X5807129Y35907690D01*
X5807129Y35907690D02*
X5773458Y35806675D01*
X5773458Y35806675D02*
X5773458Y35671988D01*
X5773458Y35671988D02*
X5840801Y35537300D01*
X5840801Y35537300D02*
X6009160Y35368942D01*
X67851640Y6785384D02*
X68327830Y6785384D01*
X68327830Y6785384D02*
X68327830Y7785384D01*
X67518306Y7309194D02*
X67184973Y7309194D01*
X67042116Y6785384D02*
X67518306Y6785384D01*
X67518306Y6785384D02*
X67518306Y7785384D01*
X67518306Y7785384D02*
X67042116Y7785384D01*
X66613544Y6785384D02*
X66613544Y7785384D01*
X66613544Y7785384D02*
X66375449Y7785384D01*
X66375449Y7785384D02*
X66232592Y7737765D01*
X66232592Y7737765D02*
X66137354Y7642527D01*
X66137354Y7642527D02*
X66089735Y7547289D01*
X66089735Y7547289D02*
X66042116Y7356813D01*
X66042116Y7356813D02*
X66042116Y7213956D01*
X66042116Y7213956D02*
X66089735Y7023480D01*
X66089735Y7023480D02*
X66137354Y6928242D01*
X66137354Y6928242D02*
X66232592Y6833003D01*
X66232592Y6833003D02*
X66375449Y6785384D01*
X66375449Y6785384D02*
X66613544Y6785384D01*
X65851640Y6690146D02*
X65089735Y6690146D01*
X64327830Y7737765D02*
X64423068Y7785384D01*
X64423068Y7785384D02*
X64565925Y7785384D01*
X64565925Y7785384D02*
X64708782Y7737765D01*
X64708782Y7737765D02*
X64804020Y7642527D01*
X64804020Y7642527D02*
X64851639Y7547289D01*
X64851639Y7547289D02*
X64899258Y7356813D01*
X64899258Y7356813D02*
X64899258Y7213956D01*
X64899258Y7213956D02*
X64851639Y7023480D01*
X64851639Y7023480D02*
X64804020Y6928242D01*
X64804020Y6928242D02*
X64708782Y6833003D01*
X64708782Y6833003D02*
X64565925Y6785384D01*
X64565925Y6785384D02*
X64470687Y6785384D01*
X64470687Y6785384D02*
X64327830Y6833003D01*
X64327830Y6833003D02*
X64280211Y6880623D01*
X64280211Y6880623D02*
X64280211Y7213956D01*
X64280211Y7213956D02*
X64470687Y7213956D01*
X98851353Y71439535D02*
X98613258Y70439535D01*
X98613258Y70439535D02*
X98422782Y71153821D01*
X98422782Y71153821D02*
X98232306Y70439535D01*
X98232306Y70439535D02*
X97994211Y71439535D01*
X97279925Y70963345D02*
X97137068Y70915726D01*
X97137068Y70915726D02*
X97089449Y70868107D01*
X97089449Y70868107D02*
X97041830Y70772869D01*
X97041830Y70772869D02*
X97041830Y70630012D01*
X97041830Y70630012D02*
X97089449Y70534774D01*
X97089449Y70534774D02*
X97137068Y70487154D01*
X97137068Y70487154D02*
X97232306Y70439535D01*
X97232306Y70439535D02*
X97613258Y70439535D01*
X97613258Y70439535D02*
X97613258Y71439535D01*
X97613258Y71439535D02*
X97279925Y71439535D01*
X97279925Y71439535D02*
X97184687Y71391916D01*
X97184687Y71391916D02*
X97137068Y71344297D01*
X97137068Y71344297D02*
X97089449Y71249059D01*
X97089449Y71249059D02*
X97089449Y71153821D01*
X97089449Y71153821D02*
X97137068Y71058583D01*
X97137068Y71058583D02*
X97184687Y71010964D01*
X97184687Y71010964D02*
X97279925Y70963345D01*
X97279925Y70963345D02*
X97613258Y70963345D01*
X96422782Y71439535D02*
X96232306Y71439535D01*
X96232306Y71439535D02*
X96137068Y71391916D01*
X96137068Y71391916D02*
X96041830Y71296678D01*
X96041830Y71296678D02*
X95994211Y71106202D01*
X95994211Y71106202D02*
X95994211Y70772869D01*
X95994211Y70772869D02*
X96041830Y70582393D01*
X96041830Y70582393D02*
X96137068Y70487154D01*
X96137068Y70487154D02*
X96232306Y70439535D01*
X96232306Y70439535D02*
X96422782Y70439535D01*
X96422782Y70439535D02*
X96518020Y70487154D01*
X96518020Y70487154D02*
X96613258Y70582393D01*
X96613258Y70582393D02*
X96660877Y70772869D01*
X96660877Y70772869D02*
X96660877Y71106202D01*
X96660877Y71106202D02*
X96613258Y71296678D01*
X96613258Y71296678D02*
X96518020Y71391916D01*
X96518020Y71391916D02*
X96422782Y71439535D01*
X94803734Y70439535D02*
X94803734Y71439535D01*
X94803734Y70963345D02*
X94232306Y70963345D01*
X94232306Y70439535D02*
X94232306Y71439535D01*
X93898972Y71439535D02*
X93327544Y71439535D01*
X93613258Y70439535D02*
X93613258Y71439535D01*
X92422782Y70439535D02*
X92756115Y70915726D01*
X92994210Y70439535D02*
X92994210Y71439535D01*
X92994210Y71439535D02*
X92613258Y71439535D01*
X92613258Y71439535D02*
X92518020Y71391916D01*
X92518020Y71391916D02*
X92470401Y71344297D01*
X92470401Y71344297D02*
X92422782Y71249059D01*
X92422782Y71249059D02*
X92422782Y71106202D01*
X92422782Y71106202D02*
X92470401Y71010964D01*
X92470401Y71010964D02*
X92518020Y70963345D01*
X92518020Y70963345D02*
X92613258Y70915726D01*
X92613258Y70915726D02*
X92994210Y70915726D01*
X15102123Y87734774D02*
X15203138Y87701102D01*
X15203138Y87701102D02*
X15304154Y87600087D01*
X15304154Y87600087D02*
X15371497Y87465400D01*
X15371497Y87465400D02*
X15371497Y87330713D01*
X15371497Y87330713D02*
X15337825Y87229697D01*
X15337825Y87229697D02*
X15236810Y87061339D01*
X15236810Y87061339D02*
X15135795Y86960323D01*
X15135795Y86960323D02*
X14967436Y86859308D01*
X14967436Y86859308D02*
X14866421Y86825636D01*
X14866421Y86825636D02*
X14731734Y86825636D01*
X14731734Y86825636D02*
X14597047Y86892980D01*
X14597047Y86892980D02*
X14529703Y86960323D01*
X14529703Y86960323D02*
X14462360Y87095010D01*
X14462360Y87095010D02*
X14462360Y87162354D01*
X14462360Y87162354D02*
X14698062Y87398056D01*
X14698062Y87398056D02*
X14832749Y87263369D01*
X14091970Y87398056D02*
X14799077Y88105163D01*
X14799077Y88105163D02*
X13687909Y87802117D01*
X13687909Y87802117D02*
X14395016Y88509224D01*
X13351192Y88138835D02*
X14058299Y88845942D01*
X14058299Y88845942D02*
X13889940Y89014300D01*
X13889940Y89014300D02*
X13755253Y89081644D01*
X13755253Y89081644D02*
X13620566Y89081644D01*
X13620566Y89081644D02*
X13519551Y89047972D01*
X13519551Y89047972D02*
X13351192Y88946957D01*
X13351192Y88946957D02*
X13250177Y88845942D01*
X13250177Y88845942D02*
X13149161Y88677583D01*
X13149161Y88677583D02*
X13115490Y88576568D01*
X13115490Y88576568D02*
X13115490Y88441881D01*
X13115490Y88441881D02*
X13182833Y88307193D01*
X13182833Y88307193D02*
X13351192Y88138835D01*
X12879787Y89014300D02*
X12543070Y89351018D01*
X12745100Y88744926D02*
X13216505Y89687735D01*
X13216505Y89687735D02*
X12273696Y89216331D01*
X85069188Y92451700D02*
X85069188Y92384356D01*
X85069188Y92384356D02*
X85136531Y92249669D01*
X85136531Y92249669D02*
X85203875Y92182326D01*
X85203875Y92182326D02*
X85338562Y92114982D01*
X85338562Y92114982D02*
X85473249Y92114982D01*
X85473249Y92114982D02*
X85574264Y92148654D01*
X85574264Y92148654D02*
X85742623Y92249669D01*
X85742623Y92249669D02*
X85843638Y92350685D01*
X85843638Y92350685D02*
X85944653Y92519043D01*
X85944653Y92519043D02*
X85978325Y92620059D01*
X85978325Y92620059D02*
X85978325Y92754746D01*
X85978325Y92754746D02*
X85910982Y92889433D01*
X85910982Y92889433D02*
X85843638Y92956776D01*
X85843638Y92956776D02*
X85708951Y93024120D01*
X85708951Y93024120D02*
X85641608Y93024120D01*
X84934501Y92855761D02*
X84597783Y93192479D01*
X84799814Y92586387D02*
X85271218Y93529196D01*
X85271218Y93529196D02*
X84328409Y93057792D01*
X84092707Y93293494D02*
X84799814Y94000601D01*
X84799814Y94000601D02*
X83688646Y93697555D01*
X83688646Y93697555D02*
X84395753Y94404662D01*
X83621302Y94303646D02*
X83082554Y94842394D01*
X83082554Y94303646D02*
X83621302Y94842394D01*
X15221822Y47054849D02*
X15087135Y47189536D01*
X15087135Y47189536D02*
X14986120Y47223208D01*
X14986120Y47223208D02*
X14851433Y47223208D01*
X14851433Y47223208D02*
X14683074Y47122193D01*
X14683074Y47122193D02*
X14447372Y46886490D01*
X14447372Y46886490D02*
X14346356Y46718132D01*
X14346356Y46718132D02*
X14346356Y46583445D01*
X14346356Y46583445D02*
X14380028Y46482429D01*
X14380028Y46482429D02*
X14514715Y46347742D01*
X14514715Y46347742D02*
X14615730Y46314071D01*
X14615730Y46314071D02*
X14750418Y46314071D01*
X14750418Y46314071D02*
X14918776Y46415086D01*
X14918776Y46415086D02*
X15154479Y46650788D01*
X15154479Y46650788D02*
X15255494Y46819147D01*
X15255494Y46819147D02*
X15255494Y46953834D01*
X15255494Y46953834D02*
X15221822Y47054849D01*
X14615731Y47660941D02*
X14043311Y47088521D01*
X14043311Y47088521D02*
X13942296Y47054849D01*
X13942296Y47054849D02*
X13874952Y47054849D01*
X13874952Y47054849D02*
X13773937Y47088521D01*
X13773937Y47088521D02*
X13639250Y47223208D01*
X13639250Y47223208D02*
X13605578Y47324223D01*
X13605578Y47324223D02*
X13605578Y47391567D01*
X13605578Y47391567D02*
X13639250Y47492582D01*
X13639250Y47492582D02*
X14211670Y48065002D01*
X13975967Y48300704D02*
X13571906Y48704765D01*
X13066830Y47795628D02*
X13773937Y48502734D01*
X12898471Y49378200D02*
X12494410Y49782261D01*
X11989334Y48873124D02*
X12696440Y49580231D01*
X11787303Y49479216D02*
X11450585Y49815933D01*
X11652616Y49209842D02*
X12124020Y50152651D01*
X12124020Y50152651D02*
X11181211Y49681246D01*
X10608792Y50388353D02*
X10608792Y50321010D01*
X10608792Y50321010D02*
X10676135Y50186323D01*
X10676135Y50186323D02*
X10743479Y50118979D01*
X10743479Y50118979D02*
X10878166Y50051636D01*
X10878166Y50051636D02*
X11012853Y50051636D01*
X11012853Y50051636D02*
X11113868Y50085307D01*
X11113868Y50085307D02*
X11282227Y50186323D01*
X11282227Y50186323D02*
X11383242Y50287338D01*
X11383242Y50287338D02*
X11484257Y50455697D01*
X11484257Y50455697D02*
X11517929Y50556712D01*
X11517929Y50556712D02*
X11517929Y50691399D01*
X11517929Y50691399D02*
X11450585Y50826086D01*
X11450585Y50826086D02*
X11383242Y50893429D01*
X11383242Y50893429D02*
X11248555Y50960773D01*
X11248555Y50960773D02*
X11181211Y50960773D01*
X10238402Y50624055D02*
X10945509Y51331162D01*
X10608792Y50994445D02*
X10204731Y51398506D01*
X9834341Y51028116D02*
X10541448Y51735223D01*
X73210342Y87516477D02*
X73311357Y87482805D01*
X73311357Y87482805D02*
X73412373Y87381790D01*
X73412373Y87381790D02*
X73479716Y87247103D01*
X73479716Y87247103D02*
X73479716Y87112416D01*
X73479716Y87112416D02*
X73446044Y87011400D01*
X73446044Y87011400D02*
X73345029Y86843042D01*
X73345029Y86843042D02*
X73244014Y86742026D01*
X73244014Y86742026D02*
X73075655Y86641011D01*
X73075655Y86641011D02*
X72974640Y86607339D01*
X72974640Y86607339D02*
X72839953Y86607339D01*
X72839953Y86607339D02*
X72705266Y86674683D01*
X72705266Y86674683D02*
X72637922Y86742026D01*
X72637922Y86742026D02*
X72570579Y86876713D01*
X72570579Y86876713D02*
X72570579Y86944057D01*
X72570579Y86944057D02*
X72806281Y87179759D01*
X72806281Y87179759D02*
X72940968Y87045072D01*
X72200189Y87179759D02*
X72907296Y87886866D01*
X72907296Y87886866D02*
X71796128Y87583820D01*
X71796128Y87583820D02*
X72503235Y88290927D01*
X71459411Y87920538D02*
X72166518Y88627645D01*
X72166518Y88627645D02*
X71998159Y88796003D01*
X71998159Y88796003D02*
X71863472Y88863347D01*
X71863472Y88863347D02*
X71728785Y88863347D01*
X71728785Y88863347D02*
X71627770Y88829675D01*
X71627770Y88829675D02*
X71459411Y88728660D01*
X71459411Y88728660D02*
X71358396Y88627645D01*
X71358396Y88627645D02*
X71257380Y88459286D01*
X71257380Y88459286D02*
X71223709Y88358271D01*
X71223709Y88358271D02*
X71223709Y88223584D01*
X71223709Y88223584D02*
X71291052Y88088896D01*
X71291052Y88088896D02*
X71459411Y87920538D01*
X70988006Y88796003D02*
X70651289Y89132721D01*
X70853319Y88526629D02*
X71324724Y89469438D01*
X71324724Y89469438D02*
X70381915Y88998034D01*
X89333799Y8715507D02*
X89333799Y7905984D01*
X89333799Y7905984D02*
X89286180Y7810746D01*
X89286180Y7810746D02*
X89238561Y7763126D01*
X89238561Y7763126D02*
X89143323Y7715507D01*
X89143323Y7715507D02*
X88952847Y7715507D01*
X88952847Y7715507D02*
X88857609Y7763126D01*
X88857609Y7763126D02*
X88809990Y7810746D01*
X88809990Y7810746D02*
X88762371Y7905984D01*
X88762371Y7905984D02*
X88762371Y8715507D01*
X88333799Y7763126D02*
X88190942Y7715507D01*
X88190942Y7715507D02*
X87952847Y7715507D01*
X87952847Y7715507D02*
X87857609Y7763126D01*
X87857609Y7763126D02*
X87809990Y7810746D01*
X87809990Y7810746D02*
X87762371Y7905984D01*
X87762371Y7905984D02*
X87762371Y8001222D01*
X87762371Y8001222D02*
X87809990Y8096460D01*
X87809990Y8096460D02*
X87857609Y8144079D01*
X87857609Y8144079D02*
X87952847Y8191698D01*
X87952847Y8191698D02*
X88143323Y8239317D01*
X88143323Y8239317D02*
X88238561Y8286936D01*
X88238561Y8286936D02*
X88286180Y8334555D01*
X88286180Y8334555D02*
X88333799Y8429793D01*
X88333799Y8429793D02*
X88333799Y8525031D01*
X88333799Y8525031D02*
X88286180Y8620269D01*
X88286180Y8620269D02*
X88238561Y8667888D01*
X88238561Y8667888D02*
X88143323Y8715507D01*
X88143323Y8715507D02*
X87905228Y8715507D01*
X87905228Y8715507D02*
X87762371Y8667888D01*
X87000466Y8239317D02*
X86857609Y8191698D01*
X86857609Y8191698D02*
X86809990Y8144079D01*
X86809990Y8144079D02*
X86762371Y8048841D01*
X86762371Y8048841D02*
X86762371Y7905984D01*
X86762371Y7905984D02*
X86809990Y7810746D01*
X86809990Y7810746D02*
X86857609Y7763126D01*
X86857609Y7763126D02*
X86952847Y7715507D01*
X86952847Y7715507D02*
X87333799Y7715507D01*
X87333799Y7715507D02*
X87333799Y8715507D01*
X87333799Y8715507D02*
X87000466Y8715507D01*
X87000466Y8715507D02*
X86905228Y8667888D01*
X86905228Y8667888D02*
X86857609Y8620269D01*
X86857609Y8620269D02*
X86809990Y8525031D01*
X86809990Y8525031D02*
X86809990Y8429793D01*
X86809990Y8429793D02*
X86857609Y8334555D01*
X86857609Y8334555D02*
X86905228Y8286936D01*
X86905228Y8286936D02*
X87000466Y8239317D01*
X87000466Y8239317D02*
X87333799Y8239317D01*
X86333799Y8096460D02*
X85571895Y8096460D01*
X85952847Y7715507D02*
X85952847Y8477412D01*
X89444582Y3680011D02*
X89111249Y2680011D01*
X89111249Y2680011D02*
X88777916Y3680011D01*
X88111249Y3203821D02*
X87968392Y3156202D01*
X87968392Y3156202D02*
X87920773Y3108583D01*
X87920773Y3108583D02*
X87873154Y3013345D01*
X87873154Y3013345D02*
X87873154Y2870488D01*
X87873154Y2870488D02*
X87920773Y2775250D01*
X87920773Y2775250D02*
X87968392Y2727630D01*
X87968392Y2727630D02*
X88063630Y2680011D01*
X88063630Y2680011D02*
X88444582Y2680011D01*
X88444582Y2680011D02*
X88444582Y3680011D01*
X88444582Y3680011D02*
X88111249Y3680011D01*
X88111249Y3680011D02*
X88016011Y3632392D01*
X88016011Y3632392D02*
X87968392Y3584773D01*
X87968392Y3584773D02*
X87920773Y3489535D01*
X87920773Y3489535D02*
X87920773Y3394297D01*
X87920773Y3394297D02*
X87968392Y3299059D01*
X87968392Y3299059D02*
X88016011Y3251440D01*
X88016011Y3251440D02*
X88111249Y3203821D01*
X88111249Y3203821D02*
X88444582Y3203821D01*
X87444582Y3680011D02*
X87444582Y2870488D01*
X87444582Y2870488D02*
X87396963Y2775250D01*
X87396963Y2775250D02*
X87349344Y2727630D01*
X87349344Y2727630D02*
X87254106Y2680011D01*
X87254106Y2680011D02*
X87063630Y2680011D01*
X87063630Y2680011D02*
X86968392Y2727630D01*
X86968392Y2727630D02*
X86920773Y2775250D01*
X86920773Y2775250D02*
X86873154Y2870488D01*
X86873154Y2870488D02*
X86873154Y3680011D01*
X86444582Y2727630D02*
X86301725Y2680011D01*
X86301725Y2680011D02*
X86063630Y2680011D01*
X86063630Y2680011D02*
X85968392Y2727630D01*
X85968392Y2727630D02*
X85920773Y2775250D01*
X85920773Y2775250D02*
X85873154Y2870488D01*
X85873154Y2870488D02*
X85873154Y2965726D01*
X85873154Y2965726D02*
X85920773Y3060964D01*
X85920773Y3060964D02*
X85968392Y3108583D01*
X85968392Y3108583D02*
X86063630Y3156202D01*
X86063630Y3156202D02*
X86254106Y3203821D01*
X86254106Y3203821D02*
X86349344Y3251440D01*
X86349344Y3251440D02*
X86396963Y3299059D01*
X86396963Y3299059D02*
X86444582Y3394297D01*
X86444582Y3394297D02*
X86444582Y3489535D01*
X86444582Y3489535D02*
X86396963Y3584773D01*
X86396963Y3584773D02*
X86349344Y3632392D01*
X86349344Y3632392D02*
X86254106Y3680011D01*
X86254106Y3680011D02*
X86016011Y3680011D01*
X86016011Y3680011D02*
X85873154Y3632392D01*
X64529970Y86558181D02*
X65237077Y87265288D01*
X64193253Y86894899D02*
X64900360Y87602005D01*
X64900360Y87602005D02*
X63789192Y87298960D01*
X63789192Y87298960D02*
X64496299Y88006066D01*
X63149429Y88342784D02*
X62812711Y88679502D01*
X63014742Y88073410D02*
X63486146Y89016219D01*
X63486146Y89016219D02*
X62543337Y88544815D01*
X61970917Y89251921D02*
X61970917Y89184578D01*
X61970917Y89184578D02*
X62038261Y89049891D01*
X62038261Y89049891D02*
X62105604Y88982547D01*
X62105604Y88982547D02*
X62240291Y88915204D01*
X62240291Y88915204D02*
X62374978Y88915204D01*
X62374978Y88915204D02*
X62475994Y88948876D01*
X62475994Y88948876D02*
X62644352Y89049891D01*
X62644352Y89049891D02*
X62745368Y89150906D01*
X62745368Y89150906D02*
X62846383Y89319265D01*
X62846383Y89319265D02*
X62880055Y89420280D01*
X62880055Y89420280D02*
X62880055Y89554967D01*
X62880055Y89554967D02*
X62812711Y89689654D01*
X62812711Y89689654D02*
X62745368Y89756998D01*
X62745368Y89756998D02*
X62610681Y89824341D01*
X62610681Y89824341D02*
X62543337Y89824341D01*
X13454738Y38924478D02*
X14161845Y39631585D01*
X13118021Y39261196D02*
X13825128Y39968302D01*
X13825128Y39968302D02*
X12713960Y39665257D01*
X12713960Y39665257D02*
X13421067Y40372363D01*
X12646616Y41146814D02*
X11703807Y40675409D01*
X11703807Y40675409D02*
X12175212Y41618218D01*
X11232403Y41146814D02*
X11939510Y41853921D01*
X11198731Y42527355D02*
X11299747Y42493684D01*
X11299747Y42493684D02*
X11400762Y42392668D01*
X11400762Y42392668D02*
X11468105Y42257981D01*
X11468105Y42257981D02*
X11468105Y42123294D01*
X11468105Y42123294D02*
X11434434Y42022279D01*
X11434434Y42022279D02*
X11333418Y41853920D01*
X11333418Y41853920D02*
X11232403Y41752905D01*
X11232403Y41752905D02*
X11064044Y41651890D01*
X11064044Y41651890D02*
X10963029Y41618218D01*
X10963029Y41618218D02*
X10828342Y41618218D01*
X10828342Y41618218D02*
X10693655Y41685562D01*
X10693655Y41685562D02*
X10626312Y41752905D01*
X10626312Y41752905D02*
X10558968Y41887592D01*
X10558968Y41887592D02*
X10558968Y41954936D01*
X10558968Y41954936D02*
X10794670Y42190638D01*
X10794670Y42190638D02*
X10929357Y42055951D01*
X10188579Y42190638D02*
X10895686Y42897745D01*
X10895686Y42897745D02*
X9784518Y42594699D01*
X9784518Y42594699D02*
X10491625Y43301806D01*
X87479974Y79720369D02*
X88187081Y80427476D01*
X87143257Y80057087D02*
X87850364Y80764193D01*
X87850364Y80764193D02*
X86739196Y80461148D01*
X86739196Y80461148D02*
X87446303Y81168254D01*
X85863730Y81336613D02*
X86570837Y82043720D01*
X85459669Y81740674D02*
X86166776Y81841690D01*
X86166776Y82447781D02*
X86166776Y81639659D01*
X85156624Y82043720D02*
X85863730Y82750827D01*
X85863730Y82750827D02*
X84752563Y82447781D01*
X84752563Y82447781D02*
X85459669Y83154888D01*
X84988265Y83626292D02*
X84853578Y83760979D01*
X84853578Y83760979D02*
X84752563Y83794651D01*
X84752563Y83794651D02*
X84617876Y83794651D01*
X84617876Y83794651D02*
X84449517Y83693636D01*
X84449517Y83693636D02*
X84213815Y83457934D01*
X84213815Y83457934D02*
X84112799Y83289575D01*
X84112799Y83289575D02*
X84112799Y83154888D01*
X84112799Y83154888D02*
X84146471Y83053873D01*
X84146471Y83053873D02*
X84281158Y82919186D01*
X84281158Y82919186D02*
X84382173Y82885514D01*
X84382173Y82885514D02*
X84516860Y82885514D01*
X84516860Y82885514D02*
X84685219Y82986529D01*
X84685219Y82986529D02*
X84920921Y83222231D01*
X84920921Y83222231D02*
X85021937Y83390590D01*
X85021937Y83390590D02*
X85021937Y83525277D01*
X85021937Y83525277D02*
X84988265Y83626292D01*
X83338349Y83996682D02*
X83338349Y83929338D01*
X83338349Y83929338D02*
X83405693Y83794651D01*
X83405693Y83794651D02*
X83473036Y83727308D01*
X83473036Y83727308D02*
X83607723Y83659964D01*
X83607723Y83659964D02*
X83742410Y83659964D01*
X83742410Y83659964D02*
X83843425Y83693636D01*
X83843425Y83693636D02*
X84011784Y83794651D01*
X84011784Y83794651D02*
X84112799Y83895666D01*
X84112799Y83895666D02*
X84213815Y84064025D01*
X84213815Y84064025D02*
X84247486Y84165040D01*
X84247486Y84165040D02*
X84247486Y84299727D01*
X84247486Y84299727D02*
X84180143Y84434414D01*
X84180143Y84434414D02*
X84112799Y84501758D01*
X84112799Y84501758D02*
X83978112Y84569101D01*
X83978112Y84569101D02*
X83910769Y84569101D01*
X82967960Y84232384D02*
X83675067Y84939491D01*
X82563899Y84636445D02*
X83271006Y84737460D01*
X83271006Y85343552D02*
X83271006Y84535430D01*
X67964771Y92505385D02*
X67426023Y93044133D01*
X67426023Y92505385D02*
X67964771Y93044133D01*
X67190321Y94155301D02*
X67527039Y93818584D01*
X67527039Y93818584D02*
X67223993Y93448194D01*
X67223993Y93448194D02*
X67223993Y93515538D01*
X67223993Y93515538D02*
X67190321Y93616553D01*
X67190321Y93616553D02*
X67021962Y93784912D01*
X67021962Y93784912D02*
X66920947Y93818584D01*
X66920947Y93818584D02*
X66853604Y93818584D01*
X66853604Y93818584D02*
X66752588Y93784912D01*
X66752588Y93784912D02*
X66584230Y93616553D01*
X66584230Y93616553D02*
X66550558Y93515538D01*
X66550558Y93515538D02*
X66550558Y93448194D01*
X66550558Y93448194D02*
X66584230Y93347179D01*
X66584230Y93347179D02*
X66752588Y93178820D01*
X66752588Y93178820D02*
X66853604Y93145149D01*
X66853604Y93145149D02*
X66920947Y93145149D01*
X66954619Y94391003D02*
X66011810Y93919599D01*
X66011810Y93919599D02*
X66483214Y94862408D01*
X65540405Y94391004D02*
X66247512Y95098110D01*
X66247512Y95098110D02*
X65978138Y95367484D01*
X65978138Y95367484D02*
X65877123Y95401156D01*
X65877123Y95401156D02*
X65809779Y95401156D01*
X65809779Y95401156D02*
X65708764Y95367484D01*
X65708764Y95367484D02*
X65607749Y95266469D01*
X65607749Y95266469D02*
X65574077Y95165454D01*
X65574077Y95165454D02*
X65574077Y95098110D01*
X65574077Y95098110D02*
X65607749Y94997095D01*
X65607749Y94997095D02*
X65877123Y94727721D01*
X48035443Y86458163D02*
X47799740Y86693865D01*
X47328336Y86424491D02*
X47665053Y86087773D01*
X47665053Y86087773D02*
X48372160Y86794880D01*
X48372160Y86794880D02*
X48035443Y87131598D01*
X47328336Y87771361D02*
X47429351Y87737689D01*
X47429351Y87737689D02*
X47530366Y87636674D01*
X47530366Y87636674D02*
X47597710Y87501987D01*
X47597710Y87501987D02*
X47597710Y87367300D01*
X47597710Y87367300D02*
X47564038Y87266285D01*
X47564038Y87266285D02*
X47463023Y87097926D01*
X47463023Y87097926D02*
X47362007Y86996911D01*
X47362007Y86996911D02*
X47193649Y86895896D01*
X47193649Y86895896D02*
X47092633Y86862224D01*
X47092633Y86862224D02*
X46957946Y86862224D01*
X46957946Y86862224D02*
X46823259Y86929567D01*
X46823259Y86929567D02*
X46755916Y86996911D01*
X46755916Y86996911D02*
X46688572Y87131598D01*
X46688572Y87131598D02*
X46688572Y87198941D01*
X46688572Y87198941D02*
X46924275Y87434644D01*
X46924275Y87434644D02*
X47058962Y87299957D01*
X47126305Y88040735D02*
X46722244Y88444796D01*
X46217168Y87535659D02*
X46924275Y88242766D01*
X46048809Y88242766D02*
X45510061Y88781514D01*
X14927817Y27659247D02*
X14793130Y27793934D01*
X14793130Y27793934D02*
X14692115Y27827606D01*
X14692115Y27827606D02*
X14557428Y27827606D01*
X14557428Y27827606D02*
X14389069Y27726591D01*
X14389069Y27726591D02*
X14153367Y27490888D01*
X14153367Y27490888D02*
X14052351Y27322530D01*
X14052351Y27322530D02*
X14052351Y27187843D01*
X14052351Y27187843D02*
X14086023Y27086827D01*
X14086023Y27086827D02*
X14220710Y26952140D01*
X14220710Y26952140D02*
X14321725Y26918469D01*
X14321725Y26918469D02*
X14456413Y26918469D01*
X14456413Y26918469D02*
X14624771Y27019484D01*
X14624771Y27019484D02*
X14860474Y27255186D01*
X14860474Y27255186D02*
X14961489Y27423545D01*
X14961489Y27423545D02*
X14961489Y27558232D01*
X14961489Y27558232D02*
X14927817Y27659247D01*
X14321726Y28265339D02*
X13749306Y27692919D01*
X13749306Y27692919D02*
X13648291Y27659247D01*
X13648291Y27659247D02*
X13580947Y27659247D01*
X13580947Y27659247D02*
X13479932Y27692919D01*
X13479932Y27692919D02*
X13345245Y27827606D01*
X13345245Y27827606D02*
X13311573Y27928621D01*
X13311573Y27928621D02*
X13311573Y27995965D01*
X13311573Y27995965D02*
X13345245Y28096980D01*
X13345245Y28096980D02*
X13917665Y28669400D01*
X13681962Y28905102D02*
X13277901Y29309163D01*
X12772825Y28400026D02*
X13479932Y29107132D01*
X11796344Y29376507D02*
X12503451Y30083614D01*
X12503451Y30083614D02*
X12335092Y30251972D01*
X12335092Y30251972D02*
X12200405Y30319316D01*
X12200405Y30319316D02*
X12065718Y30319316D01*
X12065718Y30319316D02*
X11964703Y30285644D01*
X11964703Y30285644D02*
X11796344Y30184629D01*
X11796344Y30184629D02*
X11695329Y30083614D01*
X11695329Y30083614D02*
X11594313Y29915255D01*
X11594313Y29915255D02*
X11560642Y29814240D01*
X11560642Y29814240D02*
X11560642Y29679553D01*
X11560642Y29679553D02*
X11627985Y29544866D01*
X11627985Y29544866D02*
X11796344Y29376507D01*
X10752520Y30555018D02*
X10752520Y30487675D01*
X10752520Y30487675D02*
X10819863Y30352988D01*
X10819863Y30352988D02*
X10887207Y30285644D01*
X10887207Y30285644D02*
X11021894Y30218301D01*
X11021894Y30218301D02*
X11156581Y30218301D01*
X11156581Y30218301D02*
X11257596Y30251972D01*
X11257596Y30251972D02*
X11425955Y30352988D01*
X11425955Y30352988D02*
X11526970Y30454003D01*
X11526970Y30454003D02*
X11627985Y30622362D01*
X11627985Y30622362D02*
X11661657Y30723377D01*
X11661657Y30723377D02*
X11661657Y30858064D01*
X11661657Y30858064D02*
X11594313Y30992751D01*
X11594313Y30992751D02*
X11526970Y31060094D01*
X11526970Y31060094D02*
X11392283Y31127438D01*
X11392283Y31127438D02*
X11324939Y31127438D01*
X10011741Y31161110D02*
X10415802Y30757049D01*
X10213772Y30959079D02*
X10920878Y31666186D01*
X10920878Y31666186D02*
X10887207Y31497827D01*
X10887207Y31497827D02*
X10887207Y31363140D01*
X10887207Y31363140D02*
X10920878Y31262125D01*
X9978069Y31733529D02*
X9439321Y32272278D01*
X9439321Y31733529D02*
X9978069Y32272278D01*
X14146921Y35236058D02*
X14854028Y35943165D01*
X13810204Y35572776D02*
X14517311Y36279882D01*
X14517311Y36279882D02*
X13406143Y35976837D01*
X13406143Y35976837D02*
X14113250Y36683943D01*
X13338799Y37458394D02*
X12395990Y36986989D01*
X12395990Y36986989D02*
X12867395Y37929798D01*
X11924586Y37458394D02*
X12631693Y38165501D01*
X11890914Y38838935D02*
X11991930Y38805264D01*
X11991930Y38805264D02*
X12092945Y38704248D01*
X12092945Y38704248D02*
X12160288Y38569561D01*
X12160288Y38569561D02*
X12160288Y38434874D01*
X12160288Y38434874D02*
X12126617Y38333859D01*
X12126617Y38333859D02*
X12025601Y38165500D01*
X12025601Y38165500D02*
X11924586Y38064485D01*
X11924586Y38064485D02*
X11756227Y37963470D01*
X11756227Y37963470D02*
X11655212Y37929798D01*
X11655212Y37929798D02*
X11520525Y37929798D01*
X11520525Y37929798D02*
X11385838Y37997142D01*
X11385838Y37997142D02*
X11318495Y38064485D01*
X11318495Y38064485D02*
X11251151Y38199172D01*
X11251151Y38199172D02*
X11251151Y38266516D01*
X11251151Y38266516D02*
X11486853Y38502218D01*
X11486853Y38502218D02*
X11621540Y38367531D01*
X10880762Y38502218D02*
X11587869Y39209325D01*
X11587869Y39209325D02*
X10476701Y38906279D01*
X10476701Y38906279D02*
X11183808Y39613386D01*
X48044268Y92346209D02*
X47808565Y92581911D01*
X47337161Y92312537D02*
X47673878Y91975819D01*
X47673878Y91975819D02*
X48380985Y92682926D01*
X48380985Y92682926D02*
X48044268Y93019644D01*
X47337161Y93659407D02*
X47438176Y93625735D01*
X47438176Y93625735D02*
X47539191Y93524720D01*
X47539191Y93524720D02*
X47606535Y93390033D01*
X47606535Y93390033D02*
X47606535Y93255346D01*
X47606535Y93255346D02*
X47572863Y93154331D01*
X47572863Y93154331D02*
X47471848Y92985972D01*
X47471848Y92985972D02*
X47370832Y92884957D01*
X47370832Y92884957D02*
X47202474Y92783942D01*
X47202474Y92783942D02*
X47101458Y92750270D01*
X47101458Y92750270D02*
X46966771Y92750270D01*
X46966771Y92750270D02*
X46832084Y92817613D01*
X46832084Y92817613D02*
X46764741Y92884957D01*
X46764741Y92884957D02*
X46697397Y93019644D01*
X46697397Y93019644D02*
X46697397Y93086987D01*
X46697397Y93086987D02*
X46933100Y93322690D01*
X46933100Y93322690D02*
X47067787Y93188003D01*
X47135130Y93928781D02*
X46731069Y94332842D01*
X46225993Y93423705D02*
X46933100Y94130812D01*
X46057634Y94130812D02*
X45518886Y94669560D01*
X45518886Y94130812D02*
X46057634Y94669560D01*
X8000001Y71246758D02*
X7865314Y71381445D01*
X7865314Y71381445D02*
X7764299Y71415117D01*
X7764299Y71415117D02*
X7629612Y71415117D01*
X7629612Y71415117D02*
X7461253Y71314102D01*
X7461253Y71314102D02*
X7225551Y71078399D01*
X7225551Y71078399D02*
X7124535Y70910041D01*
X7124535Y70910041D02*
X7124535Y70775354D01*
X7124535Y70775354D02*
X7158207Y70674338D01*
X7158207Y70674338D02*
X7292894Y70539651D01*
X7292894Y70539651D02*
X7393909Y70505980D01*
X7393909Y70505980D02*
X7528597Y70505980D01*
X7528597Y70505980D02*
X7696955Y70606995D01*
X7696955Y70606995D02*
X7932658Y70842697D01*
X7932658Y70842697D02*
X8033673Y71011056D01*
X8033673Y71011056D02*
X8033673Y71145743D01*
X8033673Y71145743D02*
X8000001Y71246758D01*
X7393910Y71852850D02*
X6821490Y71280430D01*
X6821490Y71280430D02*
X6720475Y71246758D01*
X6720475Y71246758D02*
X6653131Y71246758D01*
X6653131Y71246758D02*
X6552116Y71280430D01*
X6552116Y71280430D02*
X6417429Y71415117D01*
X6417429Y71415117D02*
X6383757Y71516132D01*
X6383757Y71516132D02*
X6383757Y71583476D01*
X6383757Y71583476D02*
X6417429Y71684491D01*
X6417429Y71684491D02*
X6989849Y72256911D01*
X6754146Y72492613D02*
X6350085Y72896674D01*
X5845009Y71987537D02*
X6552116Y72694643D01*
X4531810Y73300735D02*
X4868528Y72964018D01*
X4868528Y72964018D02*
X5575635Y73671125D01*
X4363451Y73536438D02*
X4228764Y73603781D01*
X4228764Y73603781D02*
X4060406Y73772140D01*
X4060406Y73772140D02*
X4026734Y73873155D01*
X4026734Y73873155D02*
X4026734Y73940499D01*
X4026734Y73940499D02*
X4060406Y74041514D01*
X4060406Y74041514D02*
X4127749Y74108858D01*
X4127749Y74108858D02*
X4228764Y74142529D01*
X4228764Y74142529D02*
X4296108Y74142529D01*
X4296108Y74142529D02*
X4397123Y74108858D01*
X4397123Y74108858D02*
X4565482Y74007842D01*
X4565482Y74007842D02*
X4666497Y73974171D01*
X4666497Y73974171D02*
X4733841Y73974171D01*
X4733841Y73974171D02*
X4834856Y74007842D01*
X4834856Y74007842D02*
X4902199Y74075186D01*
X4902199Y74075186D02*
X4935871Y74176201D01*
X4935871Y74176201D02*
X4935871Y74243545D01*
X4935871Y74243545D02*
X4902199Y74344560D01*
X4902199Y74344560D02*
X4733841Y74512919D01*
X4733841Y74512919D02*
X4599154Y74580262D01*
X3252284Y74580262D02*
X3656345Y74176201D01*
X3454314Y74378232D02*
X4161421Y75085338D01*
X4161421Y75085338D02*
X4127749Y74916980D01*
X4127749Y74916980D02*
X4127749Y74782293D01*
X4127749Y74782293D02*
X4161421Y74681277D01*
X99614895Y75717704D02*
X99376800Y74717704D01*
X99376800Y74717704D02*
X99186324Y75431990D01*
X99186324Y75431990D02*
X98995848Y74717704D01*
X98995848Y74717704D02*
X98757753Y75717704D01*
X98043467Y75241514D02*
X97900610Y75193895D01*
X97900610Y75193895D02*
X97852991Y75146276D01*
X97852991Y75146276D02*
X97805372Y75051038D01*
X97805372Y75051038D02*
X97805372Y74908181D01*
X97805372Y74908181D02*
X97852991Y74812943D01*
X97852991Y74812943D02*
X97900610Y74765323D01*
X97900610Y74765323D02*
X97995848Y74717704D01*
X97995848Y74717704D02*
X98376800Y74717704D01*
X98376800Y74717704D02*
X98376800Y75717704D01*
X98376800Y75717704D02*
X98043467Y75717704D01*
X98043467Y75717704D02*
X97948229Y75670085D01*
X97948229Y75670085D02*
X97900610Y75622466D01*
X97900610Y75622466D02*
X97852991Y75527228D01*
X97852991Y75527228D02*
X97852991Y75431990D01*
X97852991Y75431990D02*
X97900610Y75336752D01*
X97900610Y75336752D02*
X97948229Y75289133D01*
X97948229Y75289133D02*
X98043467Y75241514D01*
X98043467Y75241514D02*
X98376800Y75241514D01*
X97186324Y75717704D02*
X96995848Y75717704D01*
X96995848Y75717704D02*
X96900610Y75670085D01*
X96900610Y75670085D02*
X96805372Y75574847D01*
X96805372Y75574847D02*
X96757753Y75384371D01*
X96757753Y75384371D02*
X96757753Y75051038D01*
X96757753Y75051038D02*
X96805372Y74860562D01*
X96805372Y74860562D02*
X96900610Y74765323D01*
X96900610Y74765323D02*
X96995848Y74717704D01*
X96995848Y74717704D02*
X97186324Y74717704D01*
X97186324Y74717704D02*
X97281562Y74765323D01*
X97281562Y74765323D02*
X97376800Y74860562D01*
X97376800Y74860562D02*
X97424419Y75051038D01*
X97424419Y75051038D02*
X97424419Y75384371D01*
X97424419Y75384371D02*
X97376800Y75574847D01*
X97376800Y75574847D02*
X97281562Y75670085D01*
X97281562Y75670085D02*
X97186324Y75717704D01*
X94995848Y74717704D02*
X95329181Y75193895D01*
X95567276Y74717704D02*
X95567276Y75717704D01*
X95567276Y75717704D02*
X95186324Y75717704D01*
X95186324Y75717704D02*
X95091086Y75670085D01*
X95091086Y75670085D02*
X95043467Y75622466D01*
X95043467Y75622466D02*
X94995848Y75527228D01*
X94995848Y75527228D02*
X94995848Y75384371D01*
X94995848Y75384371D02*
X95043467Y75289133D01*
X95043467Y75289133D02*
X95091086Y75241514D01*
X95091086Y75241514D02*
X95186324Y75193895D01*
X95186324Y75193895D02*
X95567276Y75193895D01*
X94710133Y75384371D02*
X94329181Y75384371D01*
X94567276Y75717704D02*
X94567276Y74860562D01*
X94567276Y74860562D02*
X94519657Y74765323D01*
X94519657Y74765323D02*
X94424419Y74717704D01*
X94424419Y74717704D02*
X94329181Y74717704D01*
X93995847Y74717704D02*
X93995847Y75384371D01*
X93995847Y75193895D02*
X93948228Y75289133D01*
X93948228Y75289133D02*
X93900609Y75336752D01*
X93900609Y75336752D02*
X93805371Y75384371D01*
X93805371Y75384371D02*
X93710133Y75384371D01*
X93376799Y74717704D02*
X93376799Y75384371D01*
X93376799Y75717704D02*
X93424418Y75670085D01*
X93424418Y75670085D02*
X93376799Y75622466D01*
X93376799Y75622466D02*
X93329180Y75670085D01*
X93329180Y75670085D02*
X93376799Y75717704D01*
X93376799Y75717704D02*
X93376799Y75622466D01*
X92900609Y74717704D02*
X92900609Y75384371D01*
X92900609Y75289133D02*
X92852990Y75336752D01*
X92852990Y75336752D02*
X92757752Y75384371D01*
X92757752Y75384371D02*
X92614895Y75384371D01*
X92614895Y75384371D02*
X92519657Y75336752D01*
X92519657Y75336752D02*
X92472038Y75241514D01*
X92472038Y75241514D02*
X92472038Y74717704D01*
X92472038Y75241514D02*
X92424419Y75336752D01*
X92424419Y75336752D02*
X92329181Y75384371D01*
X92329181Y75384371D02*
X92186324Y75384371D01*
X92186324Y75384371D02*
X92091085Y75336752D01*
X92091085Y75336752D02*
X92043466Y75241514D01*
X92043466Y75241514D02*
X92043466Y74717704D01*
X15331384Y68030568D02*
X15196697Y68165255D01*
X15196697Y68165255D02*
X15095682Y68198927D01*
X15095682Y68198927D02*
X14960995Y68198927D01*
X14960995Y68198927D02*
X14792636Y68097912D01*
X14792636Y68097912D02*
X14556934Y67862209D01*
X14556934Y67862209D02*
X14455918Y67693851D01*
X14455918Y67693851D02*
X14455918Y67559164D01*
X14455918Y67559164D02*
X14489590Y67458148D01*
X14489590Y67458148D02*
X14624277Y67323461D01*
X14624277Y67323461D02*
X14725292Y67289790D01*
X14725292Y67289790D02*
X14859980Y67289790D01*
X14859980Y67289790D02*
X15028338Y67390805D01*
X15028338Y67390805D02*
X15264041Y67626507D01*
X15264041Y67626507D02*
X15365056Y67794866D01*
X15365056Y67794866D02*
X15365056Y67929553D01*
X15365056Y67929553D02*
X15331384Y68030568D01*
X14725293Y68636660D02*
X14152873Y68064240D01*
X14152873Y68064240D02*
X14051858Y68030568D01*
X14051858Y68030568D02*
X13984514Y68030568D01*
X13984514Y68030568D02*
X13883499Y68064240D01*
X13883499Y68064240D02*
X13748812Y68198927D01*
X13748812Y68198927D02*
X13715140Y68299942D01*
X13715140Y68299942D02*
X13715140Y68367286D01*
X13715140Y68367286D02*
X13748812Y68468301D01*
X13748812Y68468301D02*
X14321232Y69040721D01*
X14085529Y69276423D02*
X13681468Y69680484D01*
X13176392Y68771347D02*
X13883499Y69478453D01*
X12199911Y69747828D02*
X12907018Y70454935D01*
X12166239Y71128369D02*
X12267255Y71094698D01*
X12267255Y71094698D02*
X12368270Y70993682D01*
X12368270Y70993682D02*
X12435613Y70858995D01*
X12435613Y70858995D02*
X12435613Y70724308D01*
X12435613Y70724308D02*
X12401942Y70623293D01*
X12401942Y70623293D02*
X12300926Y70454934D01*
X12300926Y70454934D02*
X12199911Y70353919D01*
X12199911Y70353919D02*
X12031552Y70252904D01*
X12031552Y70252904D02*
X11930537Y70219232D01*
X11930537Y70219232D02*
X11795850Y70219232D01*
X11795850Y70219232D02*
X11661163Y70286576D01*
X11661163Y70286576D02*
X11593820Y70353919D01*
X11593820Y70353919D02*
X11526476Y70488606D01*
X11526476Y70488606D02*
X11526476Y70555950D01*
X11526476Y70555950D02*
X11762178Y70791652D01*
X11762178Y70791652D02*
X11896865Y70656965D01*
X11156087Y70791652D02*
X11863194Y71498759D01*
X11863194Y71498759D02*
X10752026Y71195713D01*
X10752026Y71195713D02*
X11459133Y71902820D01*
X10044919Y71902820D02*
X10448980Y71498759D01*
X10246950Y71700789D02*
X10954056Y72407896D01*
X10954056Y72407896D02*
X10920385Y72239537D01*
X10920385Y72239537D02*
X10920385Y72104850D01*
X10920385Y72104850D02*
X10954056Y72003835D01*
X80394528Y80490126D02*
X81101635Y81197233D01*
X80057811Y80826844D02*
X80764918Y81533950D01*
X80764918Y81533950D02*
X79653750Y81230905D01*
X79653750Y81230905D02*
X80360857Y81938011D01*
X79586406Y82712462D02*
X79182345Y83116523D01*
X78677269Y82207386D02*
X79384376Y82914492D01*
X78239536Y82645119D02*
X78946643Y83352225D01*
X78946643Y83352225D02*
X78677269Y83621599D01*
X78677269Y83621599D02*
X78576254Y83655271D01*
X78576254Y83655271D02*
X78508910Y83655271D01*
X78508910Y83655271D02*
X78407895Y83621599D01*
X78407895Y83621599D02*
X78306880Y83520584D01*
X78306880Y83520584D02*
X78273208Y83419569D01*
X78273208Y83419569D02*
X78273208Y83352225D01*
X78273208Y83352225D02*
X78306880Y83251210D01*
X78306880Y83251210D02*
X78576254Y82981836D01*
X77599773Y83352225D02*
X77465086Y83419569D01*
X77465086Y83419569D02*
X77296727Y83587928D01*
X77296727Y83587928D02*
X77263055Y83688943D01*
X77263055Y83688943D02*
X77263055Y83756286D01*
X77263055Y83756286D02*
X77296727Y83857302D01*
X77296727Y83857302D02*
X77364071Y83924645D01*
X77364071Y83924645D02*
X77465086Y83958317D01*
X77465086Y83958317D02*
X77532429Y83958317D01*
X77532429Y83958317D02*
X77633445Y83924645D01*
X77633445Y83924645D02*
X77801803Y83823630D01*
X77801803Y83823630D02*
X77902819Y83789958D01*
X77902819Y83789958D02*
X77970162Y83789958D01*
X77970162Y83789958D02*
X78071177Y83823630D01*
X78071177Y83823630D02*
X78138521Y83890973D01*
X78138521Y83890973D02*
X78172193Y83991989D01*
X78172193Y83991989D02*
X78172193Y84059332D01*
X78172193Y84059332D02*
X78138521Y84160347D01*
X78138521Y84160347D02*
X77970162Y84328706D01*
X77970162Y84328706D02*
X77835475Y84396050D01*
X14923252Y91928067D02*
X14384504Y92466815D01*
X14384504Y91928067D02*
X14923252Y92466815D01*
X14148802Y93577983D02*
X14485520Y93241266D01*
X14485520Y93241266D02*
X14182474Y92870876D01*
X14182474Y92870876D02*
X14182474Y92938220D01*
X14182474Y92938220D02*
X14148802Y93039235D01*
X14148802Y93039235D02*
X13980443Y93207594D01*
X13980443Y93207594D02*
X13879428Y93241266D01*
X13879428Y93241266D02*
X13812085Y93241266D01*
X13812085Y93241266D02*
X13711069Y93207594D01*
X13711069Y93207594D02*
X13542711Y93039235D01*
X13542711Y93039235D02*
X13509039Y92938220D01*
X13509039Y92938220D02*
X13509039Y92870876D01*
X13509039Y92870876D02*
X13542711Y92769861D01*
X13542711Y92769861D02*
X13711069Y92601502D01*
X13711069Y92601502D02*
X13812085Y92567831D01*
X13812085Y92567831D02*
X13879428Y92567831D01*
X13913100Y93813685D02*
X12970291Y93342281D01*
X12970291Y93342281D02*
X13441695Y94285090D01*
X12498886Y93813686D02*
X13205993Y94520792D01*
X13205993Y94520792D02*
X12936619Y94790166D01*
X12936619Y94790166D02*
X12835604Y94823838D01*
X12835604Y94823838D02*
X12768260Y94823838D01*
X12768260Y94823838D02*
X12667245Y94790166D01*
X12667245Y94790166D02*
X12566230Y94689151D01*
X12566230Y94689151D02*
X12532558Y94588136D01*
X12532558Y94588136D02*
X12532558Y94520792D01*
X12532558Y94520792D02*
X12566230Y94419777D01*
X12566230Y94419777D02*
X12835604Y94150403D01*
X8080184Y53910564D02*
X7945497Y54045251D01*
X7945497Y54045251D02*
X7844482Y54078923D01*
X7844482Y54078923D02*
X7709795Y54078923D01*
X7709795Y54078923D02*
X7541436Y53977908D01*
X7541436Y53977908D02*
X7305734Y53742205D01*
X7305734Y53742205D02*
X7204718Y53573847D01*
X7204718Y53573847D02*
X7204718Y53439160D01*
X7204718Y53439160D02*
X7238390Y53338144D01*
X7238390Y53338144D02*
X7373077Y53203457D01*
X7373077Y53203457D02*
X7474092Y53169786D01*
X7474092Y53169786D02*
X7608780Y53169786D01*
X7608780Y53169786D02*
X7777138Y53270801D01*
X7777138Y53270801D02*
X8012841Y53506503D01*
X8012841Y53506503D02*
X8113856Y53674862D01*
X8113856Y53674862D02*
X8113856Y53809549D01*
X8113856Y53809549D02*
X8080184Y53910564D01*
X7474093Y54516656D02*
X6901673Y53944236D01*
X6901673Y53944236D02*
X6800658Y53910564D01*
X6800658Y53910564D02*
X6733314Y53910564D01*
X6733314Y53910564D02*
X6632299Y53944236D01*
X6632299Y53944236D02*
X6497612Y54078923D01*
X6497612Y54078923D02*
X6463940Y54179938D01*
X6463940Y54179938D02*
X6463940Y54247282D01*
X6463940Y54247282D02*
X6497612Y54348297D01*
X6497612Y54348297D02*
X7070032Y54920717D01*
X6834329Y55156419D02*
X6430268Y55560480D01*
X5925192Y54651343D02*
X6632299Y55358449D01*
X4948711Y55627824D02*
X5655818Y56334931D01*
X4611994Y55964541D02*
X5319100Y56671648D01*
X5319100Y56671648D02*
X4207933Y56368602D01*
X4207933Y56368602D02*
X4915039Y57075709D01*
X4376291Y57614457D02*
X3871215Y57109381D01*
X3871215Y57109381D02*
X3803872Y56974694D01*
X3803872Y56974694D02*
X3803872Y56840007D01*
X3803872Y56840007D02*
X3871215Y56705320D01*
X3871215Y56705320D02*
X3938559Y56637976D01*
X3500826Y58018518D02*
X3029421Y57547113D01*
X3938559Y58119533D02*
X3601841Y57446098D01*
X3601841Y57446098D02*
X3164108Y57883831D01*
X81292578Y91873384D02*
X81999685Y92580491D01*
X80955861Y92210102D02*
X81662968Y92917208D01*
X81662968Y92917208D02*
X80551800Y92614163D01*
X80551800Y92614163D02*
X81258907Y93321269D01*
X79676334Y93489628D02*
X80383441Y94196735D01*
X80383441Y94196735D02*
X80114067Y94466109D01*
X80114067Y94466109D02*
X80013052Y94499781D01*
X80013052Y94499781D02*
X79945708Y94499781D01*
X79945708Y94499781D02*
X79844693Y94466109D01*
X79844693Y94466109D02*
X79743678Y94365094D01*
X79743678Y94365094D02*
X79710006Y94264079D01*
X79710006Y94264079D02*
X79710006Y94196735D01*
X79710006Y94196735D02*
X79743678Y94095720D01*
X79743678Y94095720D02*
X80013052Y93826346D01*
X78969228Y94196735D02*
X79676334Y94903842D01*
X79676334Y94903842D02*
X79406960Y95173216D01*
X79406960Y95173216D02*
X79305945Y95206888D01*
X79305945Y95206888D02*
X79238602Y95206888D01*
X79238602Y95206888D02*
X79137586Y95173216D01*
X79137586Y95173216D02*
X79036571Y95072201D01*
X79036571Y95072201D02*
X79002899Y94971185D01*
X79002899Y94971185D02*
X79002899Y94903842D01*
X79002899Y94903842D02*
X79036571Y94802827D01*
X79036571Y94802827D02*
X79305945Y94533453D01*
X78329464Y94903842D02*
X78194777Y94971185D01*
X78194777Y94971185D02*
X78026419Y95139544D01*
X78026419Y95139544D02*
X77992747Y95240559D01*
X77992747Y95240559D02*
X77992747Y95307903D01*
X77992747Y95307903D02*
X78026419Y95408918D01*
X78026419Y95408918D02*
X78093762Y95476262D01*
X78093762Y95476262D02*
X78194777Y95509933D01*
X78194777Y95509933D02*
X78262121Y95509933D01*
X78262121Y95509933D02*
X78363136Y95476262D01*
X78363136Y95476262D02*
X78531495Y95375246D01*
X78531495Y95375246D02*
X78632510Y95341575D01*
X78632510Y95341575D02*
X78699854Y95341575D01*
X78699854Y95341575D02*
X78800869Y95375246D01*
X78800869Y95375246D02*
X78868212Y95442590D01*
X78868212Y95442590D02*
X78901884Y95543605D01*
X78901884Y95543605D02*
X78901884Y95610949D01*
X78901884Y95610949D02*
X78868212Y95711964D01*
X78868212Y95711964D02*
X78699854Y95880323D01*
X78699854Y95880323D02*
X78565167Y95947666D01*
X89238707Y92366172D02*
X89238707Y92298828D01*
X89238707Y92298828D02*
X89306050Y92164141D01*
X89306050Y92164141D02*
X89373394Y92096798D01*
X89373394Y92096798D02*
X89508081Y92029454D01*
X89508081Y92029454D02*
X89642768Y92029454D01*
X89642768Y92029454D02*
X89743783Y92063126D01*
X89743783Y92063126D02*
X89912142Y92164141D01*
X89912142Y92164141D02*
X90013157Y92265157D01*
X90013157Y92265157D02*
X90114172Y92433515D01*
X90114172Y92433515D02*
X90147844Y92534531D01*
X90147844Y92534531D02*
X90147844Y92669218D01*
X90147844Y92669218D02*
X90080501Y92803905D01*
X90080501Y92803905D02*
X90013157Y92871248D01*
X90013157Y92871248D02*
X89878470Y92938592D01*
X89878470Y92938592D02*
X89811127Y92938592D01*
X89104020Y92770233D02*
X88767302Y93106951D01*
X88969333Y92500859D02*
X89440737Y93443668D01*
X89440737Y93443668D02*
X88497928Y92972264D01*
X88262226Y93207966D02*
X88969333Y93915073D01*
X88969333Y93915073D02*
X87858165Y93612027D01*
X87858165Y93612027D02*
X88565272Y94319134D01*
X87790821Y94218118D02*
X87252073Y94756866D01*
X40164484Y93109649D02*
X40265499Y93075977D01*
X40265499Y93075977D02*
X40366515Y92974962D01*
X40366515Y92974962D02*
X40433858Y92840275D01*
X40433858Y92840275D02*
X40433858Y92705588D01*
X40433858Y92705588D02*
X40400186Y92604572D01*
X40400186Y92604572D02*
X40299171Y92436214D01*
X40299171Y92436214D02*
X40198156Y92335198D01*
X40198156Y92335198D02*
X40029797Y92234183D01*
X40029797Y92234183D02*
X39928782Y92200511D01*
X39928782Y92200511D02*
X39794095Y92200511D01*
X39794095Y92200511D02*
X39659408Y92267855D01*
X39659408Y92267855D02*
X39592064Y92335198D01*
X39592064Y92335198D02*
X39524721Y92469885D01*
X39524721Y92469885D02*
X39524721Y92537229D01*
X39524721Y92537229D02*
X39760423Y92772931D01*
X39760423Y92772931D02*
X39895110Y92638244D01*
X39154331Y92772931D02*
X39861438Y93480038D01*
X39861438Y93480038D02*
X38750270Y93176992D01*
X38750270Y93176992D02*
X39457377Y93884099D01*
X38413553Y93513710D02*
X39120660Y94220817D01*
X39120660Y94220817D02*
X38952301Y94389175D01*
X38952301Y94389175D02*
X38817614Y94456519D01*
X38817614Y94456519D02*
X38682927Y94456519D01*
X38682927Y94456519D02*
X38581912Y94422847D01*
X38581912Y94422847D02*
X38413553Y94321832D01*
X38413553Y94321832D02*
X38312538Y94220817D01*
X38312538Y94220817D02*
X38211522Y94052458D01*
X38211522Y94052458D02*
X38177851Y93951443D01*
X38177851Y93951443D02*
X38177851Y93816756D01*
X38177851Y93816756D02*
X38245194Y93682068D01*
X38245194Y93682068D02*
X38413553Y93513710D01*
X87751573Y10848867D02*
X87846811Y10896486D01*
X87846811Y10896486D02*
X87989668Y10896486D01*
X87989668Y10896486D02*
X88132525Y10848867D01*
X88132525Y10848867D02*
X88227763Y10753629D01*
X88227763Y10753629D02*
X88275382Y10658391D01*
X88275382Y10658391D02*
X88323001Y10467915D01*
X88323001Y10467915D02*
X88323001Y10325058D01*
X88323001Y10325058D02*
X88275382Y10134582D01*
X88275382Y10134582D02*
X88227763Y10039344D01*
X88227763Y10039344D02*
X88132525Y9944105D01*
X88132525Y9944105D02*
X87989668Y9896486D01*
X87989668Y9896486D02*
X87894430Y9896486D01*
X87894430Y9896486D02*
X87751573Y9944105D01*
X87751573Y9944105D02*
X87703954Y9991725D01*
X87703954Y9991725D02*
X87703954Y10325058D01*
X87703954Y10325058D02*
X87894430Y10325058D01*
X87275382Y9896486D02*
X87275382Y10896486D01*
X87275382Y10896486D02*
X86703954Y9896486D01*
X86703954Y9896486D02*
X86703954Y10896486D01*
X86227763Y9896486D02*
X86227763Y10896486D01*
X86227763Y10896486D02*
X85989668Y10896486D01*
X85989668Y10896486D02*
X85846811Y10848867D01*
X85846811Y10848867D02*
X85751573Y10753629D01*
X85751573Y10753629D02*
X85703954Y10658391D01*
X85703954Y10658391D02*
X85656335Y10467915D01*
X85656335Y10467915D02*
X85656335Y10325058D01*
X85656335Y10325058D02*
X85703954Y10134582D01*
X85703954Y10134582D02*
X85751573Y10039344D01*
X85751573Y10039344D02*
X85846811Y9944105D01*
X85846811Y9944105D02*
X85989668Y9896486D01*
X85989668Y9896486D02*
X86227763Y9896486D01*
X67799925Y2070620D02*
X68276115Y2070620D01*
X68276115Y2070620D02*
X68276115Y3070620D01*
X67466591Y2594430D02*
X67133258Y2594430D01*
X66990401Y2070620D02*
X67466591Y2070620D01*
X67466591Y2070620D02*
X67466591Y3070620D01*
X67466591Y3070620D02*
X66990401Y3070620D01*
X66561829Y2070620D02*
X66561829Y3070620D01*
X66561829Y3070620D02*
X66323734Y3070620D01*
X66323734Y3070620D02*
X66180877Y3023001D01*
X66180877Y3023001D02*
X66085639Y2927763D01*
X66085639Y2927763D02*
X66038020Y2832525D01*
X66038020Y2832525D02*
X65990401Y2642049D01*
X65990401Y2642049D02*
X65990401Y2499192D01*
X65990401Y2499192D02*
X66038020Y2308716D01*
X66038020Y2308716D02*
X66085639Y2213478D01*
X66085639Y2213478D02*
X66180877Y2118239D01*
X66180877Y2118239D02*
X66323734Y2070620D01*
X66323734Y2070620D02*
X66561829Y2070620D01*
X65799925Y1975382D02*
X65038020Y1975382D01*
X64609448Y2546811D02*
X64609448Y2070620D01*
X64942781Y3070620D02*
X64609448Y2546811D01*
X64609448Y2546811D02*
X64276115Y3070620D01*
X8067754Y74806886D02*
X7933067Y74941573D01*
X7933067Y74941573D02*
X7832052Y74975245D01*
X7832052Y74975245D02*
X7697365Y74975245D01*
X7697365Y74975245D02*
X7529006Y74874230D01*
X7529006Y74874230D02*
X7293304Y74638527D01*
X7293304Y74638527D02*
X7192288Y74470169D01*
X7192288Y74470169D02*
X7192288Y74335482D01*
X7192288Y74335482D02*
X7225960Y74234466D01*
X7225960Y74234466D02*
X7360647Y74099779D01*
X7360647Y74099779D02*
X7461662Y74066108D01*
X7461662Y74066108D02*
X7596350Y74066108D01*
X7596350Y74066108D02*
X7764708Y74167123D01*
X7764708Y74167123D02*
X8000411Y74402825D01*
X8000411Y74402825D02*
X8101426Y74571184D01*
X8101426Y74571184D02*
X8101426Y74705871D01*
X8101426Y74705871D02*
X8067754Y74806886D01*
X7461663Y75412978D02*
X6889243Y74840558D01*
X6889243Y74840558D02*
X6788228Y74806886D01*
X6788228Y74806886D02*
X6720884Y74806886D01*
X6720884Y74806886D02*
X6619869Y74840558D01*
X6619869Y74840558D02*
X6485182Y74975245D01*
X6485182Y74975245D02*
X6451510Y75076260D01*
X6451510Y75076260D02*
X6451510Y75143604D01*
X6451510Y75143604D02*
X6485182Y75244619D01*
X6485182Y75244619D02*
X7057602Y75817039D01*
X6821899Y76052741D02*
X6417838Y76456802D01*
X5912762Y75547665D02*
X6619869Y76254771D01*
X4532220Y76928207D02*
X5104640Y77029222D01*
X4936281Y76524146D02*
X5643388Y77231253D01*
X5643388Y77231253D02*
X5374014Y77500627D01*
X5374014Y77500627D02*
X5272998Y77534298D01*
X5272998Y77534298D02*
X5205655Y77534298D01*
X5205655Y77534298D02*
X5104640Y77500627D01*
X5104640Y77500627D02*
X5003624Y77399611D01*
X5003624Y77399611D02*
X4969953Y77298596D01*
X4969953Y77298596D02*
X4969953Y77231253D01*
X4969953Y77231253D02*
X5003624Y77130237D01*
X5003624Y77130237D02*
X5272998Y76860863D01*
X4464876Y77399611D02*
X4128159Y77736329D01*
X4330189Y77130237D02*
X4801594Y78073046D01*
X4801594Y78073046D02*
X3858785Y77601642D01*
X3623082Y77837344D02*
X4330189Y78544451D01*
X4330189Y78544451D02*
X4161830Y78712810D01*
X4161830Y78712810D02*
X4027143Y78780153D01*
X4027143Y78780153D02*
X3892456Y78780153D01*
X3892456Y78780153D02*
X3791441Y78746482D01*
X3791441Y78746482D02*
X3623082Y78645466D01*
X3623082Y78645466D02*
X3522067Y78544451D01*
X3522067Y78544451D02*
X3421052Y78376092D01*
X3421052Y78376092D02*
X3387380Y78275077D01*
X3387380Y78275077D02*
X3387380Y78140390D01*
X3387380Y78140390D02*
X3454724Y78005703D01*
X3454724Y78005703D02*
X3623082Y77837344D01*
X2511914Y79689291D02*
X2747617Y79453588D01*
X2377227Y79083199D02*
X3084334Y79790306D01*
X3084334Y79790306D02*
X2747617Y80127024D01*
X2006838Y79857650D02*
X1670121Y80194367D01*
X1872151Y79588276D02*
X2343556Y80531085D01*
X2343556Y80531085D02*
X1400747Y80059680D01*
X1165044Y80295382D02*
X1872151Y81002489D01*
X1872151Y81002489D02*
X760983Y80699443D01*
X760983Y80699443D02*
X1468090Y81406550D01*
X31827172Y86693865D02*
X30884363Y86222460D01*
X30884363Y86222460D02*
X31355768Y87165270D01*
X30008898Y87097926D02*
X30581317Y87198941D01*
X30412959Y86693865D02*
X31120065Y87400972D01*
X31120065Y87400972D02*
X30850691Y87670346D01*
X30850691Y87670346D02*
X30749676Y87704018D01*
X30749676Y87704018D02*
X30682333Y87704018D01*
X30682333Y87704018D02*
X30581317Y87670346D01*
X30581317Y87670346D02*
X30480302Y87569331D01*
X30480302Y87569331D02*
X30446630Y87468315D01*
X30446630Y87468315D02*
X30446630Y87400972D01*
X30446630Y87400972D02*
X30480302Y87299957D01*
X30480302Y87299957D02*
X30749676Y87030583D01*
X30379287Y88007063D02*
X30379287Y88074407D01*
X30379287Y88074407D02*
X30345615Y88175422D01*
X30345615Y88175422D02*
X30177256Y88343781D01*
X30177256Y88343781D02*
X30076241Y88377453D01*
X30076241Y88377453D02*
X30008898Y88377453D01*
X30008898Y88377453D02*
X29907882Y88343781D01*
X29907882Y88343781D02*
X29840539Y88276437D01*
X29840539Y88276437D02*
X29773195Y88141750D01*
X29773195Y88141750D02*
X29773195Y87333628D01*
X29773195Y87333628D02*
X29335463Y87771361D01*
X29301791Y88343781D02*
X28763043Y88882529D01*
X28763043Y88343781D02*
X29301791Y88882529D01*
X27091077Y91815453D02*
X27798184Y92522560D01*
X26754360Y92152171D02*
X27461467Y92859277D01*
X27461467Y92859277D02*
X26350299Y92556232D01*
X26350299Y92556232D02*
X27057406Y93263338D01*
X25138116Y93903102D02*
X25138116Y93835758D01*
X25138116Y93835758D02*
X25205459Y93701071D01*
X25205459Y93701071D02*
X25272803Y93633728D01*
X25272803Y93633728D02*
X25407490Y93566384D01*
X25407490Y93566384D02*
X25542177Y93566384D01*
X25542177Y93566384D02*
X25643192Y93600056D01*
X25643192Y93600056D02*
X25811551Y93701071D01*
X25811551Y93701071D02*
X25912566Y93802087D01*
X25912566Y93802087D02*
X26013581Y93970445D01*
X26013581Y93970445D02*
X26047253Y94071461D01*
X26047253Y94071461D02*
X26047253Y94206148D01*
X26047253Y94206148D02*
X25979910Y94340835D01*
X25979910Y94340835D02*
X25912566Y94408178D01*
X25912566Y94408178D02*
X25777879Y94475522D01*
X25777879Y94475522D02*
X25710536Y94475522D01*
X25003429Y94307163D02*
X24666711Y94643880D01*
X24868742Y94037789D02*
X25340146Y94980598D01*
X25340146Y94980598D02*
X24397337Y94509193D01*
X24161635Y94744896D02*
X24868742Y95452003D01*
X24868742Y95452003D02*
X24127963Y95182629D01*
X24127963Y95182629D02*
X24397337Y95923407D01*
X24397337Y95923407D02*
X23690230Y95216300D01*
X18912405Y91943746D02*
X19619512Y92650853D01*
X18575688Y92280464D02*
X19282795Y92987570D01*
X19282795Y92987570D02*
X18171627Y92684525D01*
X18171627Y92684525D02*
X18878734Y93391631D01*
X17868581Y94401784D02*
X17733894Y94536471D01*
X17733894Y94536471D02*
X17632879Y94570143D01*
X17632879Y94570143D02*
X17498192Y94570143D01*
X17498192Y94570143D02*
X17329833Y94469128D01*
X17329833Y94469128D02*
X17094131Y94233425D01*
X17094131Y94233425D02*
X16993116Y94065067D01*
X16993116Y94065067D02*
X16993116Y93930380D01*
X16993116Y93930380D02*
X17026787Y93829364D01*
X17026787Y93829364D02*
X17161474Y93694677D01*
X17161474Y93694677D02*
X17262490Y93661006D01*
X17262490Y93661006D02*
X17397177Y93661006D01*
X17397177Y93661006D02*
X17565535Y93762021D01*
X17565535Y93762021D02*
X17801238Y93997723D01*
X17801238Y93997723D02*
X17902253Y94166082D01*
X17902253Y94166082D02*
X17902253Y94300769D01*
X17902253Y94300769D02*
X17868581Y94401784D01*
X17228818Y94906860D02*
X17228818Y94974204D01*
X17228818Y94974204D02*
X17195146Y95075219D01*
X17195146Y95075219D02*
X17026787Y95243578D01*
X17026787Y95243578D02*
X16925772Y95277250D01*
X16925772Y95277250D02*
X16858429Y95277250D01*
X16858429Y95277250D02*
X16757413Y95243578D01*
X16757413Y95243578D02*
X16690070Y95176234D01*
X16690070Y95176234D02*
X16622726Y95041547D01*
X16622726Y95041547D02*
X16622726Y94233425D01*
X16622726Y94233425D02*
X16184994Y94671158D01*
X15949291Y94974204D02*
X15814604Y95041547D01*
X15814604Y95041547D02*
X15646246Y95209906D01*
X15646246Y95209906D02*
X15612574Y95310921D01*
X15612574Y95310921D02*
X15612574Y95378265D01*
X15612574Y95378265D02*
X15646246Y95479280D01*
X15646246Y95479280D02*
X15713589Y95546624D01*
X15713589Y95546624D02*
X15814604Y95580295D01*
X15814604Y95580295D02*
X15881948Y95580295D01*
X15881948Y95580295D02*
X15982963Y95546624D01*
X15982963Y95546624D02*
X16151322Y95445608D01*
X16151322Y95445608D02*
X16252337Y95411937D01*
X16252337Y95411937D02*
X16319681Y95411937D01*
X16319681Y95411937D02*
X16420696Y95445608D01*
X16420696Y95445608D02*
X16488039Y95512952D01*
X16488039Y95512952D02*
X16521711Y95613967D01*
X16521711Y95613967D02*
X16521711Y95681311D01*
X16521711Y95681311D02*
X16488039Y95782326D01*
X16488039Y95782326D02*
X16319681Y95950685D01*
X16319681Y95950685D02*
X16184994Y96018028D01*
X7798380Y39448917D02*
X7899395Y39415245D01*
X7899395Y39415245D02*
X8000411Y39314230D01*
X8000411Y39314230D02*
X8067754Y39179543D01*
X8067754Y39179543D02*
X8067754Y39044856D01*
X8067754Y39044856D02*
X8034082Y38943840D01*
X8034082Y38943840D02*
X7933067Y38775482D01*
X7933067Y38775482D02*
X7832052Y38674466D01*
X7832052Y38674466D02*
X7663693Y38573451D01*
X7663693Y38573451D02*
X7562678Y38539779D01*
X7562678Y38539779D02*
X7427991Y38539779D01*
X7427991Y38539779D02*
X7293304Y38607123D01*
X7293304Y38607123D02*
X7225960Y38674466D01*
X7225960Y38674466D02*
X7158617Y38809153D01*
X7158617Y38809153D02*
X7158617Y38876497D01*
X7158617Y38876497D02*
X7394319Y39112199D01*
X7394319Y39112199D02*
X7529006Y38977512D01*
X6788227Y39112199D02*
X7495334Y39819306D01*
X7495334Y39819306D02*
X6384166Y39516260D01*
X6384166Y39516260D02*
X7091273Y40223367D01*
X6047449Y39852978D02*
X6754556Y40560085D01*
X6754556Y40560085D02*
X6586197Y40728443D01*
X6586197Y40728443D02*
X6451510Y40795787D01*
X6451510Y40795787D02*
X6316823Y40795787D01*
X6316823Y40795787D02*
X6215808Y40762115D01*
X6215808Y40762115D02*
X6047449Y40661100D01*
X6047449Y40661100D02*
X5946434Y40560085D01*
X5946434Y40560085D02*
X5845418Y40391726D01*
X5845418Y40391726D02*
X5811747Y40290711D01*
X5811747Y40290711D02*
X5811747Y40156024D01*
X5811747Y40156024D02*
X5879090Y40021336D01*
X5879090Y40021336D02*
X6047449Y39852978D01*
X88943003Y66012838D02*
X88067537Y65474090D01*
X88067537Y65474090D02*
X88437926Y66113853D01*
X88437926Y66113853D02*
X87798163Y65743464D01*
X87798163Y65743464D02*
X88336911Y66618929D01*
X87495117Y66787288D02*
X87360430Y66854631D01*
X87360430Y66854631D02*
X87293087Y66854631D01*
X87293087Y66854631D02*
X87192072Y66820960D01*
X87192072Y66820960D02*
X87091056Y66719944D01*
X87091056Y66719944D02*
X87057385Y66618929D01*
X87057385Y66618929D02*
X87057385Y66551586D01*
X87057385Y66551586D02*
X87091056Y66450570D01*
X87091056Y66450570D02*
X87360430Y66181196D01*
X87360430Y66181196D02*
X88067537Y66888303D01*
X88067537Y66888303D02*
X87831835Y67124005D01*
X87831835Y67124005D02*
X87730820Y67157677D01*
X87730820Y67157677D02*
X87663476Y67157677D01*
X87663476Y67157677D02*
X87562461Y67124005D01*
X87562461Y67124005D02*
X87495117Y67056662D01*
X87495117Y67056662D02*
X87461446Y66955647D01*
X87461446Y66955647D02*
X87461446Y66888303D01*
X87461446Y66888303D02*
X87495117Y66787288D01*
X87495117Y66787288D02*
X87730820Y66551586D01*
X87225743Y67730097D02*
X87091056Y67864784D01*
X87091056Y67864784D02*
X86990041Y67898456D01*
X86990041Y67898456D02*
X86855354Y67898456D01*
X86855354Y67898456D02*
X86686995Y67797440D01*
X86686995Y67797440D02*
X86451293Y67561738D01*
X86451293Y67561738D02*
X86350278Y67393379D01*
X86350278Y67393379D02*
X86350278Y67258692D01*
X86350278Y67258692D02*
X86383950Y67157677D01*
X86383950Y67157677D02*
X86518637Y67022990D01*
X86518637Y67022990D02*
X86619652Y66989318D01*
X86619652Y66989318D02*
X86754339Y66989318D01*
X86754339Y66989318D02*
X86922698Y67090334D01*
X86922698Y67090334D02*
X87158400Y67326036D01*
X87158400Y67326036D02*
X87259415Y67494395D01*
X87259415Y67494395D02*
X87259415Y67629082D01*
X87259415Y67629082D02*
X87225743Y67730097D01*
X86181919Y68773921D02*
X85239110Y68302517D01*
X85239110Y68302517D02*
X85710514Y69245326D01*
X84767705Y68773921D02*
X85239110Y69245326D01*
X85171766Y69177983D02*
X85171766Y69245326D01*
X85171766Y69245326D02*
X85138094Y69346341D01*
X85138094Y69346341D02*
X85037079Y69447357D01*
X85037079Y69447357D02*
X84936064Y69481028D01*
X84936064Y69481028D02*
X84835049Y69447357D01*
X84835049Y69447357D02*
X84464659Y69076967D01*
X84835049Y69447357D02*
X84868720Y69548372D01*
X84868720Y69548372D02*
X84835049Y69649387D01*
X84835049Y69649387D02*
X84734033Y69750402D01*
X84734033Y69750402D02*
X84633018Y69784074D01*
X84633018Y69784074D02*
X84532003Y69750402D01*
X84532003Y69750402D02*
X84161614Y69380013D01*
X88991113Y70487052D02*
X88115647Y69948304D01*
X88115647Y69948304D02*
X88486036Y70588067D01*
X88486036Y70588067D02*
X87846273Y70217678D01*
X87846273Y70217678D02*
X88385021Y71093143D01*
X87543227Y71261502D02*
X87408540Y71328845D01*
X87408540Y71328845D02*
X87341197Y71328845D01*
X87341197Y71328845D02*
X87240182Y71295174D01*
X87240182Y71295174D02*
X87139166Y71194158D01*
X87139166Y71194158D02*
X87105495Y71093143D01*
X87105495Y71093143D02*
X87105495Y71025800D01*
X87105495Y71025800D02*
X87139166Y70924784D01*
X87139166Y70924784D02*
X87408540Y70655410D01*
X87408540Y70655410D02*
X88115647Y71362517D01*
X88115647Y71362517D02*
X87879945Y71598219D01*
X87879945Y71598219D02*
X87778930Y71631891D01*
X87778930Y71631891D02*
X87711586Y71631891D01*
X87711586Y71631891D02*
X87610571Y71598219D01*
X87610571Y71598219D02*
X87543227Y71530876D01*
X87543227Y71530876D02*
X87509556Y71429861D01*
X87509556Y71429861D02*
X87509556Y71362517D01*
X87509556Y71362517D02*
X87543227Y71261502D01*
X87543227Y71261502D02*
X87778930Y71025800D01*
X87273853Y72204311D02*
X87139166Y72338998D01*
X87139166Y72338998D02*
X87038151Y72372670D01*
X87038151Y72372670D02*
X86903464Y72372670D01*
X86903464Y72372670D02*
X86735105Y72271654D01*
X86735105Y72271654D02*
X86499403Y72035952D01*
X86499403Y72035952D02*
X86398388Y71867593D01*
X86398388Y71867593D02*
X86398388Y71732906D01*
X86398388Y71732906D02*
X86432060Y71631891D01*
X86432060Y71631891D02*
X86566747Y71497204D01*
X86566747Y71497204D02*
X86667762Y71463532D01*
X86667762Y71463532D02*
X86802449Y71463532D01*
X86802449Y71463532D02*
X86970808Y71564548D01*
X86970808Y71564548D02*
X87206510Y71800250D01*
X87206510Y71800250D02*
X87307525Y71968609D01*
X87307525Y71968609D02*
X87307525Y72103296D01*
X87307525Y72103296D02*
X87273853Y72204311D01*
X85421907Y72642044D02*
X86129014Y73349151D01*
X85556594Y73450166D02*
X84849487Y72743059D01*
X85522922Y73416494D02*
X85489251Y73517509D01*
X85489251Y73517509D02*
X85354564Y73652196D01*
X85354564Y73652196D02*
X85253548Y73685868D01*
X85253548Y73685868D02*
X85186205Y73685868D01*
X85186205Y73685868D02*
X85085190Y73652196D01*
X85085190Y73652196D02*
X84883159Y73450166D01*
X84883159Y73450166D02*
X84849487Y73349150D01*
X84849487Y73349150D02*
X84849487Y73281807D01*
X84849487Y73281807D02*
X84883159Y73180792D01*
X84883159Y73180792D02*
X85017846Y73046105D01*
X85017846Y73046105D02*
X85118861Y73012433D01*
X59468616Y86174172D02*
X60175723Y86881279D01*
X59131899Y86510890D02*
X59839006Y87217996D01*
X59839006Y87217996D02*
X58727838Y86914951D01*
X58727838Y86914951D02*
X59434945Y87622057D01*
X57852372Y87790416D02*
X58559479Y88497523D01*
X58559479Y88497523D02*
X57818701Y88228149D01*
X57818701Y88228149D02*
X58088075Y88968928D01*
X58088075Y88968928D02*
X57380968Y88261821D01*
X57279953Y88766897D02*
X56943235Y89103615D01*
X57145266Y88497523D02*
X57616670Y89440332D01*
X57616670Y89440332D02*
X56673861Y88968928D01*
X56438159Y89204630D02*
X57145266Y89911737D01*
X57145266Y89911737D02*
X56875892Y90181111D01*
X56875892Y90181111D02*
X56774876Y90214782D01*
X56774876Y90214782D02*
X56707533Y90214782D01*
X56707533Y90214782D02*
X56606518Y90181111D01*
X56606518Y90181111D02*
X56505502Y90080095D01*
X56505502Y90080095D02*
X56471831Y89979080D01*
X56471831Y89979080D02*
X56471831Y89911737D01*
X56471831Y89911737D02*
X56505502Y89810721D01*
X56505502Y89810721D02*
X56774876Y89541347D01*
X8048111Y50029704D02*
X7913424Y50164391D01*
X7913424Y50164391D02*
X7812409Y50198063D01*
X7812409Y50198063D02*
X7677722Y50198063D01*
X7677722Y50198063D02*
X7509363Y50097048D01*
X7509363Y50097048D02*
X7273661Y49861345D01*
X7273661Y49861345D02*
X7172645Y49692987D01*
X7172645Y49692987D02*
X7172645Y49558300D01*
X7172645Y49558300D02*
X7206317Y49457284D01*
X7206317Y49457284D02*
X7341004Y49322597D01*
X7341004Y49322597D02*
X7442019Y49288926D01*
X7442019Y49288926D02*
X7576707Y49288926D01*
X7576707Y49288926D02*
X7745065Y49389941D01*
X7745065Y49389941D02*
X7980768Y49625643D01*
X7980768Y49625643D02*
X8081783Y49794002D01*
X8081783Y49794002D02*
X8081783Y49928689D01*
X8081783Y49928689D02*
X8048111Y50029704D01*
X7442020Y50635796D02*
X6869600Y50063376D01*
X6869600Y50063376D02*
X6768585Y50029704D01*
X6768585Y50029704D02*
X6701241Y50029704D01*
X6701241Y50029704D02*
X6600226Y50063376D01*
X6600226Y50063376D02*
X6465539Y50198063D01*
X6465539Y50198063D02*
X6431867Y50299078D01*
X6431867Y50299078D02*
X6431867Y50366422D01*
X6431867Y50366422D02*
X6465539Y50467437D01*
X6465539Y50467437D02*
X7037959Y51039857D01*
X6802256Y51275559D02*
X6398195Y51679620D01*
X5893119Y50770483D02*
X6600226Y51477589D01*
X5051325Y52353055D02*
X4916638Y52420399D01*
X4916638Y52420399D02*
X4849294Y52420399D01*
X4849294Y52420399D02*
X4748279Y52386727D01*
X4748279Y52386727D02*
X4647264Y52285712D01*
X4647264Y52285712D02*
X4613592Y52184697D01*
X4613592Y52184697D02*
X4613592Y52117353D01*
X4613592Y52117353D02*
X4647264Y52016338D01*
X4647264Y52016338D02*
X4916638Y51746964D01*
X4916638Y51746964D02*
X5623745Y52454071D01*
X5623745Y52454071D02*
X5388042Y52689773D01*
X5388042Y52689773D02*
X5287027Y52723445D01*
X5287027Y52723445D02*
X5219684Y52723445D01*
X5219684Y52723445D02*
X5118668Y52689773D01*
X5118668Y52689773D02*
X5051325Y52622429D01*
X5051325Y52622429D02*
X5017653Y52521414D01*
X5017653Y52521414D02*
X5017653Y52454071D01*
X5017653Y52454071D02*
X5051325Y52353055D01*
X5051325Y52353055D02*
X5287027Y52117353D01*
X4276875Y52454071D02*
X4142188Y52521414D01*
X4142188Y52521414D02*
X3973829Y52689773D01*
X3973829Y52689773D02*
X3940157Y52790788D01*
X3940157Y52790788D02*
X3940157Y52858132D01*
X3940157Y52858132D02*
X3973829Y52959147D01*
X3973829Y52959147D02*
X4041172Y53026490D01*
X4041172Y53026490D02*
X4142188Y53060162D01*
X4142188Y53060162D02*
X4209531Y53060162D01*
X4209531Y53060162D02*
X4310546Y53026490D01*
X4310546Y53026490D02*
X4478905Y52925475D01*
X4478905Y52925475D02*
X4579920Y52891803D01*
X4579920Y52891803D02*
X4647264Y52891803D01*
X4647264Y52891803D02*
X4748279Y52925475D01*
X4748279Y52925475D02*
X4815623Y52992819D01*
X4815623Y52992819D02*
X4849294Y53093834D01*
X4849294Y53093834D02*
X4849294Y53161177D01*
X4849294Y53161177D02*
X4815623Y53262193D01*
X4815623Y53262193D02*
X4647264Y53430551D01*
X4647264Y53430551D02*
X4512577Y53497895D01*
X4344218Y53733597D02*
X3940157Y54137658D01*
X3435081Y53228521D02*
X4142188Y53935628D01*
X2121882Y54676407D02*
X2121882Y54609063D01*
X2121882Y54609063D02*
X2189226Y54474376D01*
X2189226Y54474376D02*
X2256569Y54407033D01*
X2256569Y54407033D02*
X2391256Y54339689D01*
X2391256Y54339689D02*
X2525943Y54339689D01*
X2525943Y54339689D02*
X2626958Y54373361D01*
X2626958Y54373361D02*
X2795317Y54474376D01*
X2795317Y54474376D02*
X2896332Y54575391D01*
X2896332Y54575391D02*
X2997348Y54743750D01*
X2997348Y54743750D02*
X3031019Y54844765D01*
X3031019Y54844765D02*
X3031019Y54979452D01*
X3031019Y54979452D02*
X2963676Y55114139D01*
X2963676Y55114139D02*
X2896332Y55181483D01*
X2896332Y55181483D02*
X2761645Y55248826D01*
X2761645Y55248826D02*
X2694302Y55248826D01*
X1751493Y54912109D02*
X2458600Y55619216D01*
X2458600Y55619216D02*
X1347432Y55316170D01*
X1347432Y55316170D02*
X2054539Y56023277D01*
X1818836Y56258979D02*
X1414775Y56663040D01*
X909699Y55753903D02*
X1616806Y56461009D01*
X68933912Y87388184D02*
X69034927Y87354512D01*
X69034927Y87354512D02*
X69135943Y87253497D01*
X69135943Y87253497D02*
X69203286Y87118810D01*
X69203286Y87118810D02*
X69203286Y86984123D01*
X69203286Y86984123D02*
X69169614Y86883107D01*
X69169614Y86883107D02*
X69068599Y86714749D01*
X69068599Y86714749D02*
X68967584Y86613733D01*
X68967584Y86613733D02*
X68799225Y86512718D01*
X68799225Y86512718D02*
X68698210Y86479046D01*
X68698210Y86479046D02*
X68563523Y86479046D01*
X68563523Y86479046D02*
X68428836Y86546390D01*
X68428836Y86546390D02*
X68361492Y86613733D01*
X68361492Y86613733D02*
X68294149Y86748420D01*
X68294149Y86748420D02*
X68294149Y86815764D01*
X68294149Y86815764D02*
X68529851Y87051466D01*
X68529851Y87051466D02*
X68664538Y86916779D01*
X67923759Y87051466D02*
X68630866Y87758573D01*
X68630866Y87758573D02*
X67519698Y87455527D01*
X67519698Y87455527D02*
X68226805Y88162634D01*
X67182981Y87792245D02*
X67890088Y88499352D01*
X67890088Y88499352D02*
X67721729Y88667710D01*
X67721729Y88667710D02*
X67587042Y88735054D01*
X67587042Y88735054D02*
X67452355Y88735054D01*
X67452355Y88735054D02*
X67351340Y88701382D01*
X67351340Y88701382D02*
X67182981Y88600367D01*
X67182981Y88600367D02*
X67081966Y88499352D01*
X67081966Y88499352D02*
X66980950Y88330993D01*
X66980950Y88330993D02*
X66947279Y88229978D01*
X66947279Y88229978D02*
X66947279Y88095291D01*
X66947279Y88095291D02*
X67014622Y87960603D01*
X67014622Y87960603D02*
X67182981Y87792245D01*
X66711576Y88667710D02*
X66374859Y89004428D01*
X66576889Y88398336D02*
X67048294Y89341145D01*
X67048294Y89341145D02*
X66105485Y88869741D01*
X15024037Y31941023D02*
X14889350Y32075710D01*
X14889350Y32075710D02*
X14788335Y32109382D01*
X14788335Y32109382D02*
X14653648Y32109382D01*
X14653648Y32109382D02*
X14485289Y32008367D01*
X14485289Y32008367D02*
X14249587Y31772664D01*
X14249587Y31772664D02*
X14148571Y31604306D01*
X14148571Y31604306D02*
X14148571Y31469619D01*
X14148571Y31469619D02*
X14182243Y31368603D01*
X14182243Y31368603D02*
X14316930Y31233916D01*
X14316930Y31233916D02*
X14417945Y31200245D01*
X14417945Y31200245D02*
X14552633Y31200245D01*
X14552633Y31200245D02*
X14720991Y31301260D01*
X14720991Y31301260D02*
X14956694Y31536962D01*
X14956694Y31536962D02*
X15057709Y31705321D01*
X15057709Y31705321D02*
X15057709Y31840008D01*
X15057709Y31840008D02*
X15024037Y31941023D01*
X14417946Y32547115D02*
X13845526Y31974695D01*
X13845526Y31974695D02*
X13744511Y31941023D01*
X13744511Y31941023D02*
X13677167Y31941023D01*
X13677167Y31941023D02*
X13576152Y31974695D01*
X13576152Y31974695D02*
X13441465Y32109382D01*
X13441465Y32109382D02*
X13407793Y32210397D01*
X13407793Y32210397D02*
X13407793Y32277741D01*
X13407793Y32277741D02*
X13441465Y32378756D01*
X13441465Y32378756D02*
X14013885Y32951176D01*
X13778182Y33186878D02*
X13374121Y33590939D01*
X12869045Y32681802D02*
X13576152Y33388908D01*
X11892564Y33658283D02*
X12599671Y34365390D01*
X12599671Y34365390D02*
X12431312Y34533748D01*
X12431312Y34533748D02*
X12296625Y34601092D01*
X12296625Y34601092D02*
X12161938Y34601092D01*
X12161938Y34601092D02*
X12060923Y34567420D01*
X12060923Y34567420D02*
X11892564Y34466405D01*
X11892564Y34466405D02*
X11791549Y34365390D01*
X11791549Y34365390D02*
X11690533Y34197031D01*
X11690533Y34197031D02*
X11656862Y34096016D01*
X11656862Y34096016D02*
X11656862Y33961329D01*
X11656862Y33961329D02*
X11724205Y33826642D01*
X11724205Y33826642D02*
X11892564Y33658283D01*
X10848740Y34836794D02*
X10848740Y34769451D01*
X10848740Y34769451D02*
X10916083Y34634764D01*
X10916083Y34634764D02*
X10983427Y34567420D01*
X10983427Y34567420D02*
X11118114Y34500077D01*
X11118114Y34500077D02*
X11252801Y34500077D01*
X11252801Y34500077D02*
X11353816Y34533748D01*
X11353816Y34533748D02*
X11522175Y34634764D01*
X11522175Y34634764D02*
X11623190Y34735779D01*
X11623190Y34735779D02*
X11724205Y34904138D01*
X11724205Y34904138D02*
X11757877Y35005153D01*
X11757877Y35005153D02*
X11757877Y35139840D01*
X11757877Y35139840D02*
X11690533Y35274527D01*
X11690533Y35274527D02*
X11623190Y35341870D01*
X11623190Y35341870D02*
X11488503Y35409214D01*
X11488503Y35409214D02*
X11421159Y35409214D01*
X11151785Y35678588D02*
X11151785Y35745931D01*
X11151785Y35745931D02*
X11118114Y35846947D01*
X11118114Y35846947D02*
X10949755Y36015305D01*
X10949755Y36015305D02*
X10848740Y36048977D01*
X10848740Y36048977D02*
X10781396Y36048977D01*
X10781396Y36048977D02*
X10680381Y36015305D01*
X10680381Y36015305D02*
X10613037Y35947962D01*
X10613037Y35947962D02*
X10545694Y35813275D01*
X10545694Y35813275D02*
X10545694Y35005153D01*
X10545694Y35005153D02*
X10107961Y35442886D01*
X10074289Y36015305D02*
X9535541Y36554054D01*
X9535541Y36015305D02*
X10074289Y36554054D01*
X86049574Y23622830D02*
X86382907Y24099021D01*
X86621002Y23622830D02*
X86621002Y24622830D01*
X86621002Y24622830D02*
X86240050Y24622830D01*
X86240050Y24622830D02*
X86144812Y24575211D01*
X86144812Y24575211D02*
X86097193Y24527592D01*
X86097193Y24527592D02*
X86049574Y24432354D01*
X86049574Y24432354D02*
X86049574Y24289497D01*
X86049574Y24289497D02*
X86097193Y24194259D01*
X86097193Y24194259D02*
X86144812Y24146640D01*
X86144812Y24146640D02*
X86240050Y24099021D01*
X86240050Y24099021D02*
X86621002Y24099021D01*
X85716240Y23622830D02*
X85192431Y24289497D01*
X85716240Y24289497D02*
X85192431Y23622830D01*
X14927817Y55466732D02*
X14793130Y55601419D01*
X14793130Y55601419D02*
X14692115Y55635091D01*
X14692115Y55635091D02*
X14557428Y55635091D01*
X14557428Y55635091D02*
X14389069Y55534076D01*
X14389069Y55534076D02*
X14153367Y55298373D01*
X14153367Y55298373D02*
X14052351Y55130015D01*
X14052351Y55130015D02*
X14052351Y54995328D01*
X14052351Y54995328D02*
X14086023Y54894312D01*
X14086023Y54894312D02*
X14220710Y54759625D01*
X14220710Y54759625D02*
X14321725Y54725954D01*
X14321725Y54725954D02*
X14456413Y54725954D01*
X14456413Y54725954D02*
X14624771Y54826969D01*
X14624771Y54826969D02*
X14860474Y55062671D01*
X14860474Y55062671D02*
X14961489Y55231030D01*
X14961489Y55231030D02*
X14961489Y55365717D01*
X14961489Y55365717D02*
X14927817Y55466732D01*
X14321726Y56072824D02*
X13749306Y55500404D01*
X13749306Y55500404D02*
X13648291Y55466732D01*
X13648291Y55466732D02*
X13580947Y55466732D01*
X13580947Y55466732D02*
X13479932Y55500404D01*
X13479932Y55500404D02*
X13345245Y55635091D01*
X13345245Y55635091D02*
X13311573Y55736106D01*
X13311573Y55736106D02*
X13311573Y55803450D01*
X13311573Y55803450D02*
X13345245Y55904465D01*
X13345245Y55904465D02*
X13917665Y56476885D01*
X13681962Y56712587D02*
X13277901Y57116648D01*
X12772825Y56207511D02*
X13479932Y56914617D01*
X11796344Y57183992D02*
X12503451Y57891099D01*
X11762672Y58564533D02*
X11863688Y58530862D01*
X11863688Y58530862D02*
X11964703Y58429846D01*
X11964703Y58429846D02*
X12032046Y58295159D01*
X12032046Y58295159D02*
X12032046Y58160472D01*
X12032046Y58160472D02*
X11998375Y58059457D01*
X11998375Y58059457D02*
X11897359Y57891098D01*
X11897359Y57891098D02*
X11796344Y57790083D01*
X11796344Y57790083D02*
X11627985Y57689068D01*
X11627985Y57689068D02*
X11526970Y57655396D01*
X11526970Y57655396D02*
X11392283Y57655396D01*
X11392283Y57655396D02*
X11257596Y57722740D01*
X11257596Y57722740D02*
X11190253Y57790083D01*
X11190253Y57790083D02*
X11122909Y57924770D01*
X11122909Y57924770D02*
X11122909Y57992114D01*
X11122909Y57992114D02*
X11358611Y58227816D01*
X11358611Y58227816D02*
X11493298Y58093129D01*
X10752520Y58227816D02*
X11459627Y58934923D01*
X11459627Y58934923D02*
X10348459Y58631877D01*
X10348459Y58631877D02*
X11055566Y59338984D01*
X10786192Y59608358D02*
X10348459Y60046090D01*
X10348459Y60046090D02*
X10314787Y59541014D01*
X10314787Y59541014D02*
X10213772Y59642029D01*
X10213772Y59642029D02*
X10112757Y59675701D01*
X10112757Y59675701D02*
X10045413Y59675701D01*
X10045413Y59675701D02*
X9944398Y59642029D01*
X9944398Y59642029D02*
X9776039Y59473671D01*
X9776039Y59473671D02*
X9742367Y59372655D01*
X9742367Y59372655D02*
X9742367Y59305312D01*
X9742367Y59305312D02*
X9776039Y59204297D01*
X9776039Y59204297D02*
X9978070Y59002266D01*
X9978070Y59002266D02*
X10079085Y58968594D01*
X10079085Y58968594D02*
X10146428Y58968594D01*
X60233982Y91944658D02*
X60941089Y92651765D01*
X59897265Y92281376D02*
X60604372Y92988482D01*
X60604372Y92988482D02*
X59493204Y92685437D01*
X59493204Y92685437D02*
X60200311Y93392543D01*
X59425860Y94166994D02*
X59021799Y94571055D01*
X58516723Y93661918D02*
X59223830Y94369024D01*
X58449379Y94470040D02*
X58213677Y94705742D01*
X57742273Y94436368D02*
X58078990Y94099651D01*
X58078990Y94099651D02*
X58786097Y94806757D01*
X58786097Y94806757D02*
X58449379Y95143475D01*
X57439227Y94739414D02*
X58146334Y95446521D01*
X58146334Y95446521D02*
X57405555Y95177147D01*
X57405555Y95177147D02*
X57674929Y95917925D01*
X57674929Y95917925D02*
X56967822Y95210818D01*
X56631105Y95547536D02*
X57338212Y96254643D01*
X57338212Y96254643D02*
X57068838Y96524017D01*
X57068838Y96524017D02*
X56967822Y96557688D01*
X56967822Y96557688D02*
X56900479Y96557688D01*
X56900479Y96557688D02*
X56799464Y96524017D01*
X56799464Y96524017D02*
X56698448Y96423001D01*
X56698448Y96423001D02*
X56664777Y96321986D01*
X56664777Y96321986D02*
X56664777Y96254643D01*
X56664777Y96254643D02*
X56698448Y96153627D01*
X56698448Y96153627D02*
X56967822Y95884253D01*
X31420962Y91847527D02*
X32128069Y92554634D01*
X31084245Y92184245D02*
X31791352Y92891351D01*
X31791352Y92891351D02*
X30680184Y92588306D01*
X30680184Y92588306D02*
X31387291Y93295412D01*
X29468001Y93935176D02*
X29468001Y93867832D01*
X29468001Y93867832D02*
X29535344Y93733145D01*
X29535344Y93733145D02*
X29602688Y93665802D01*
X29602688Y93665802D02*
X29737375Y93598458D01*
X29737375Y93598458D02*
X29872062Y93598458D01*
X29872062Y93598458D02*
X29973077Y93632130D01*
X29973077Y93632130D02*
X30141436Y93733145D01*
X30141436Y93733145D02*
X30242451Y93834161D01*
X30242451Y93834161D02*
X30343466Y94002519D01*
X30343466Y94002519D02*
X30377138Y94103535D01*
X30377138Y94103535D02*
X30377138Y94238222D01*
X30377138Y94238222D02*
X30309795Y94372909D01*
X30309795Y94372909D02*
X30242451Y94440252D01*
X30242451Y94440252D02*
X30107764Y94507596D01*
X30107764Y94507596D02*
X30040421Y94507596D01*
X28693551Y94574939D02*
X29265970Y94675954D01*
X29097612Y94170878D02*
X29804718Y94877985D01*
X29804718Y94877985D02*
X29535344Y95147359D01*
X29535344Y95147359D02*
X29434329Y95181031D01*
X29434329Y95181031D02*
X29366986Y95181031D01*
X29366986Y95181031D02*
X29265970Y95147359D01*
X29265970Y95147359D02*
X29164955Y95046344D01*
X29164955Y95046344D02*
X29131283Y94945328D01*
X29131283Y94945328D02*
X29131283Y94877985D01*
X29131283Y94877985D02*
X29164955Y94776970D01*
X29164955Y94776970D02*
X29434329Y94507596D01*
X28626207Y95046344D02*
X28289490Y95383061D01*
X28491520Y94776970D02*
X28962925Y95719779D01*
X28962925Y95719779D02*
X28020116Y95248374D01*
X27784413Y95484077D02*
X28491520Y96191183D01*
X28491520Y96191183D02*
X27380352Y95888138D01*
X27380352Y95888138D02*
X28087459Y96595244D01*
X27043635Y96224855D02*
X27750741Y96931962D01*
X26639574Y96628916D02*
X27346680Y96729931D01*
X27346680Y97336023D02*
X27346680Y96527901D01*
X64470299Y91941094D02*
X65177406Y92648201D01*
X64133582Y92277812D02*
X64840689Y92984918D01*
X64840689Y92984918D02*
X63729521Y92681873D01*
X63729521Y92681873D02*
X64436628Y93388979D01*
X62517338Y94028743D02*
X62517338Y93961399D01*
X62517338Y93961399D02*
X62584681Y93826712D01*
X62584681Y93826712D02*
X62652025Y93759369D01*
X62652025Y93759369D02*
X62786712Y93692025D01*
X62786712Y93692025D02*
X62921399Y93692025D01*
X62921399Y93692025D02*
X63022414Y93725697D01*
X63022414Y93725697D02*
X63190773Y93826712D01*
X63190773Y93826712D02*
X63291788Y93927728D01*
X63291788Y93927728D02*
X63392803Y94096086D01*
X63392803Y94096086D02*
X63426475Y94197102D01*
X63426475Y94197102D02*
X63426475Y94331789D01*
X63426475Y94331789D02*
X63359132Y94466476D01*
X63359132Y94466476D02*
X63291788Y94533819D01*
X63291788Y94533819D02*
X63157101Y94601163D01*
X63157101Y94601163D02*
X63089758Y94601163D01*
X61810231Y94601163D02*
X62146949Y94264445D01*
X62146949Y94264445D02*
X62854055Y94971552D01*
X62281635Y95543972D02*
X61709216Y94971552D01*
X61709216Y94971552D02*
X61608200Y94937880D01*
X61608200Y94937880D02*
X61540857Y94937880D01*
X61540857Y94937880D02*
X61439842Y94971552D01*
X61439842Y94971552D02*
X61305155Y95106239D01*
X61305155Y95106239D02*
X61271483Y95207254D01*
X61271483Y95207254D02*
X61271483Y95274598D01*
X61271483Y95274598D02*
X61305155Y95375613D01*
X61305155Y95375613D02*
X61877574Y95948033D01*
X61641872Y96183735D02*
X61237811Y96587796D01*
X60732735Y95678659D02*
X61439842Y96385766D01*
X59958284Y96587796D02*
X59958284Y96520453D01*
X59958284Y96520453D02*
X60025628Y96385766D01*
X60025628Y96385766D02*
X60092971Y96318422D01*
X60092971Y96318422D02*
X60227658Y96251079D01*
X60227658Y96251079D02*
X60362346Y96251079D01*
X60362346Y96251079D02*
X60463361Y96284750D01*
X60463361Y96284750D02*
X60631720Y96385766D01*
X60631720Y96385766D02*
X60732735Y96486781D01*
X60732735Y96486781D02*
X60833750Y96655140D01*
X60833750Y96655140D02*
X60867422Y96756155D01*
X60867422Y96756155D02*
X60867422Y96890842D01*
X60867422Y96890842D02*
X60800078Y97025529D01*
X60800078Y97025529D02*
X60732735Y97092873D01*
X60732735Y97092873D02*
X60598048Y97160216D01*
X60598048Y97160216D02*
X60530704Y97160216D01*
X59587895Y96823498D02*
X60295002Y97530605D01*
X59958284Y97193888D02*
X59554223Y97597949D01*
X59183834Y97227560D02*
X59890941Y97934666D01*
X99520653Y79062310D02*
X98758749Y79062310D01*
X99139701Y78681357D02*
X99139701Y79443262D01*
X97758749Y78681357D02*
X98330177Y78681357D01*
X98044463Y78681357D02*
X98044463Y79681357D01*
X98044463Y79681357D02*
X98139701Y79538500D01*
X98139701Y79538500D02*
X98234939Y79443262D01*
X98234939Y79443262D02*
X98330177Y79395643D01*
X97377796Y79586119D02*
X97330177Y79633738D01*
X97330177Y79633738D02*
X97234939Y79681357D01*
X97234939Y79681357D02*
X96996844Y79681357D01*
X96996844Y79681357D02*
X96901606Y79633738D01*
X96901606Y79633738D02*
X96853987Y79586119D01*
X96853987Y79586119D02*
X96806368Y79490881D01*
X96806368Y79490881D02*
X96806368Y79395643D01*
X96806368Y79395643D02*
X96853987Y79252786D01*
X96853987Y79252786D02*
X97425415Y78681357D01*
X97425415Y78681357D02*
X96806368Y78681357D01*
X96520653Y79681357D02*
X96187320Y78681357D01*
X96187320Y78681357D02*
X95853987Y79681357D01*
X94187320Y78681357D02*
X94520653Y79157548D01*
X94758748Y78681357D02*
X94758748Y79681357D01*
X94758748Y79681357D02*
X94377796Y79681357D01*
X94377796Y79681357D02*
X94282558Y79633738D01*
X94282558Y79633738D02*
X94234939Y79586119D01*
X94234939Y79586119D02*
X94187320Y79490881D01*
X94187320Y79490881D02*
X94187320Y79348024D01*
X94187320Y79348024D02*
X94234939Y79252786D01*
X94234939Y79252786D02*
X94282558Y79205167D01*
X94282558Y79205167D02*
X94377796Y79157548D01*
X94377796Y79157548D02*
X94758748Y79157548D01*
X93806367Y78967072D02*
X93330177Y78967072D01*
X93901605Y78681357D02*
X93568272Y79681357D01*
X93568272Y79681357D02*
X93234939Y78681357D01*
X92996843Y79681357D02*
X92758748Y78681357D01*
X92758748Y78681357D02*
X92568272Y79395643D01*
X92568272Y79395643D02*
X92377796Y78681357D01*
X92377796Y78681357D02*
X92139701Y79681357D01*
X89801677Y81238501D02*
X90508784Y81945608D01*
X89464960Y81575219D02*
X90172067Y82282325D01*
X90172067Y82282325D02*
X89060899Y81979280D01*
X89060899Y81979280D02*
X89768006Y82686386D01*
X88185433Y82854745D02*
X88892540Y83561852D01*
X88084418Y83359821D02*
X87747701Y83696539D01*
X87949731Y83090447D02*
X88421136Y84033256D01*
X88421136Y84033256D02*
X87478327Y83561852D01*
X88050747Y84403646D02*
X87646686Y84807707D01*
X87141609Y83898569D02*
X87848716Y84605676D01*
X8240550Y30690167D02*
X8105863Y30824854D01*
X8105863Y30824854D02*
X8004848Y30858526D01*
X8004848Y30858526D02*
X7870161Y30858526D01*
X7870161Y30858526D02*
X7701802Y30757511D01*
X7701802Y30757511D02*
X7466100Y30521808D01*
X7466100Y30521808D02*
X7365084Y30353450D01*
X7365084Y30353450D02*
X7365084Y30218763D01*
X7365084Y30218763D02*
X7398756Y30117747D01*
X7398756Y30117747D02*
X7533443Y29983060D01*
X7533443Y29983060D02*
X7634458Y29949389D01*
X7634458Y29949389D02*
X7769146Y29949389D01*
X7769146Y29949389D02*
X7937504Y30050404D01*
X7937504Y30050404D02*
X8173207Y30286106D01*
X8173207Y30286106D02*
X8274222Y30454465D01*
X8274222Y30454465D02*
X8274222Y30589152D01*
X8274222Y30589152D02*
X8240550Y30690167D01*
X7634459Y31296259D02*
X7062039Y30723839D01*
X7062039Y30723839D02*
X6961024Y30690167D01*
X6961024Y30690167D02*
X6893680Y30690167D01*
X6893680Y30690167D02*
X6792665Y30723839D01*
X6792665Y30723839D02*
X6657978Y30858526D01*
X6657978Y30858526D02*
X6624306Y30959541D01*
X6624306Y30959541D02*
X6624306Y31026885D01*
X6624306Y31026885D02*
X6657978Y31127900D01*
X6657978Y31127900D02*
X7230398Y31700320D01*
X6994695Y31936022D02*
X6590634Y32340083D01*
X6085558Y31430946D02*
X6792665Y32138052D01*
X5109077Y32407427D02*
X5816184Y33114534D01*
X5816184Y33114534D02*
X5647825Y33282892D01*
X5647825Y33282892D02*
X5513138Y33350236D01*
X5513138Y33350236D02*
X5378451Y33350236D01*
X5378451Y33350236D02*
X5277436Y33316564D01*
X5277436Y33316564D02*
X5109077Y33215549D01*
X5109077Y33215549D02*
X5008062Y33114534D01*
X5008062Y33114534D02*
X4907046Y32946175D01*
X4907046Y32946175D02*
X4873375Y32845160D01*
X4873375Y32845160D02*
X4873375Y32710473D01*
X4873375Y32710473D02*
X4940718Y32575786D01*
X4940718Y32575786D02*
X5109077Y32407427D01*
X4065253Y33585938D02*
X4065253Y33518595D01*
X4065253Y33518595D02*
X4132596Y33383908D01*
X4132596Y33383908D02*
X4199940Y33316564D01*
X4199940Y33316564D02*
X4334627Y33249221D01*
X4334627Y33249221D02*
X4469314Y33249221D01*
X4469314Y33249221D02*
X4570329Y33282892D01*
X4570329Y33282892D02*
X4738688Y33383908D01*
X4738688Y33383908D02*
X4839703Y33484923D01*
X4839703Y33484923D02*
X4940718Y33653282D01*
X4940718Y33653282D02*
X4974390Y33754297D01*
X4974390Y33754297D02*
X4974390Y33888984D01*
X4974390Y33888984D02*
X4907046Y34023671D01*
X4907046Y34023671D02*
X4839703Y34091014D01*
X4839703Y34091014D02*
X4705016Y34158358D01*
X4705016Y34158358D02*
X4637672Y34158358D01*
X4368298Y34427732D02*
X4368298Y34495075D01*
X4368298Y34495075D02*
X4334627Y34596091D01*
X4334627Y34596091D02*
X4166268Y34764449D01*
X4166268Y34764449D02*
X4065253Y34798121D01*
X4065253Y34798121D02*
X3997909Y34798121D01*
X3997909Y34798121D02*
X3896894Y34764449D01*
X3896894Y34764449D02*
X3829550Y34697106D01*
X3829550Y34697106D02*
X3762207Y34562419D01*
X3762207Y34562419D02*
X3762207Y33754297D01*
X3762207Y33754297D02*
X3324474Y34192030D01*
X36108947Y86693865D02*
X35166138Y86222460D01*
X35166138Y86222460D02*
X35637543Y87165270D01*
X34290673Y87097926D02*
X34863092Y87198941D01*
X34694734Y86693865D02*
X35401840Y87400972D01*
X35401840Y87400972D02*
X35132466Y87670346D01*
X35132466Y87670346D02*
X35031451Y87704018D01*
X35031451Y87704018D02*
X34964108Y87704018D01*
X34964108Y87704018D02*
X34863092Y87670346D01*
X34863092Y87670346D02*
X34762077Y87569331D01*
X34762077Y87569331D02*
X34728405Y87468315D01*
X34728405Y87468315D02*
X34728405Y87400972D01*
X34728405Y87400972D02*
X34762077Y87299957D01*
X34762077Y87299957D02*
X35031451Y87030583D01*
X34661062Y88007063D02*
X34661062Y88074407D01*
X34661062Y88074407D02*
X34627390Y88175422D01*
X34627390Y88175422D02*
X34459031Y88343781D01*
X34459031Y88343781D02*
X34358016Y88377453D01*
X34358016Y88377453D02*
X34290673Y88377453D01*
X34290673Y88377453D02*
X34189657Y88343781D01*
X34189657Y88343781D02*
X34122314Y88276437D01*
X34122314Y88276437D02*
X34054970Y88141750D01*
X34054970Y88141750D02*
X34054970Y87333628D01*
X34054970Y87333628D02*
X33617238Y87771361D01*
X33583566Y88343781D02*
X33044818Y88882529D01*
X8016038Y62313748D02*
X7881351Y62448435D01*
X7881351Y62448435D02*
X7780336Y62482107D01*
X7780336Y62482107D02*
X7645649Y62482107D01*
X7645649Y62482107D02*
X7477290Y62381092D01*
X7477290Y62381092D02*
X7241588Y62145389D01*
X7241588Y62145389D02*
X7140572Y61977031D01*
X7140572Y61977031D02*
X7140572Y61842344D01*
X7140572Y61842344D02*
X7174244Y61741328D01*
X7174244Y61741328D02*
X7308931Y61606641D01*
X7308931Y61606641D02*
X7409946Y61572970D01*
X7409946Y61572970D02*
X7544634Y61572970D01*
X7544634Y61572970D02*
X7712992Y61673985D01*
X7712992Y61673985D02*
X7948695Y61909687D01*
X7948695Y61909687D02*
X8049710Y62078046D01*
X8049710Y62078046D02*
X8049710Y62212733D01*
X8049710Y62212733D02*
X8016038Y62313748D01*
X7409947Y62919840D02*
X6837527Y62347420D01*
X6837527Y62347420D02*
X6736512Y62313748D01*
X6736512Y62313748D02*
X6669168Y62313748D01*
X6669168Y62313748D02*
X6568153Y62347420D01*
X6568153Y62347420D02*
X6433466Y62482107D01*
X6433466Y62482107D02*
X6399794Y62583122D01*
X6399794Y62583122D02*
X6399794Y62650466D01*
X6399794Y62650466D02*
X6433466Y62751481D01*
X6433466Y62751481D02*
X7005886Y63323901D01*
X6770183Y63559603D02*
X6366122Y63963664D01*
X5861046Y63054527D02*
X6568153Y63761633D01*
X4884565Y64031008D02*
X5591672Y64738115D01*
X4547848Y64367725D02*
X5254954Y65074832D01*
X5254954Y65074832D02*
X4143787Y64771786D01*
X4143787Y64771786D02*
X4850893Y65478893D01*
X4312145Y66017641D02*
X3807069Y65512565D01*
X3807069Y65512565D02*
X3739726Y65377878D01*
X3739726Y65377878D02*
X3739726Y65243191D01*
X3739726Y65243191D02*
X3807069Y65108504D01*
X3807069Y65108504D02*
X3874413Y65041160D01*
X3941756Y66253343D02*
X3941756Y66320687D01*
X3941756Y66320687D02*
X3908084Y66421702D01*
X3908084Y66421702D02*
X3739726Y66590061D01*
X3739726Y66590061D02*
X3638710Y66623733D01*
X3638710Y66623733D02*
X3571367Y66623733D01*
X3571367Y66623733D02*
X3470352Y66590061D01*
X3470352Y66590061D02*
X3403008Y66522717D01*
X3403008Y66522717D02*
X3335665Y66388030D01*
X3335665Y66388030D02*
X3335665Y65579908D01*
X3335665Y65579908D02*
X2897932Y66017641D01*
X24189320Y85809806D02*
X24896427Y86516913D01*
X23852603Y86146524D02*
X24559710Y86853630D01*
X24559710Y86853630D02*
X23448542Y86550585D01*
X23448542Y86550585D02*
X24155649Y87257691D01*
X23381198Y88032142D02*
X22977137Y88436203D01*
X22472061Y87527066D02*
X23179168Y88234172D01*
X22034328Y87964799D02*
X22741435Y88671905D01*
X22741435Y88671905D02*
X22472061Y88941279D01*
X22472061Y88941279D02*
X22371046Y88974951D01*
X22371046Y88974951D02*
X22303702Y88974951D01*
X22303702Y88974951D02*
X22202687Y88941279D01*
X22202687Y88941279D02*
X22101672Y88840264D01*
X22101672Y88840264D02*
X22068000Y88739249D01*
X22068000Y88739249D02*
X22068000Y88671905D01*
X22068000Y88671905D02*
X22101672Y88570890D01*
X22101672Y88570890D02*
X22371046Y88301516D01*
X21394565Y88671905D02*
X21259878Y88739249D01*
X21259878Y88739249D02*
X21091519Y88907608D01*
X21091519Y88907608D02*
X21057847Y89008623D01*
X21057847Y89008623D02*
X21057847Y89075966D01*
X21057847Y89075966D02*
X21091519Y89176982D01*
X21091519Y89176982D02*
X21158863Y89244325D01*
X21158863Y89244325D02*
X21259878Y89277997D01*
X21259878Y89277997D02*
X21327221Y89277997D01*
X21327221Y89277997D02*
X21428237Y89244325D01*
X21428237Y89244325D02*
X21596595Y89143310D01*
X21596595Y89143310D02*
X21697611Y89109638D01*
X21697611Y89109638D02*
X21764954Y89109638D01*
X21764954Y89109638D02*
X21865969Y89143310D01*
X21865969Y89143310D02*
X21933313Y89210653D01*
X21933313Y89210653D02*
X21966985Y89311669D01*
X21966985Y89311669D02*
X21966985Y89379012D01*
X21966985Y89379012D02*
X21933313Y89480027D01*
X21933313Y89480027D02*
X21764954Y89648386D01*
X21764954Y89648386D02*
X21630267Y89715730D01*
X21327221Y89951432D02*
X21327221Y90018775D01*
X21327221Y90018775D02*
X21293550Y90119791D01*
X21293550Y90119791D02*
X21125191Y90288149D01*
X21125191Y90288149D02*
X21024176Y90321821D01*
X21024176Y90321821D02*
X20956832Y90321821D01*
X20956832Y90321821D02*
X20855817Y90288149D01*
X20855817Y90288149D02*
X20788473Y90220806D01*
X20788473Y90220806D02*
X20721130Y90086119D01*
X20721130Y90086119D02*
X20721130Y89277997D01*
X20721130Y89277997D02*
X20283397Y89715730D01*
X7919818Y45475306D02*
X7785131Y45609993D01*
X7785131Y45609993D02*
X7684116Y45643665D01*
X7684116Y45643665D02*
X7549429Y45643665D01*
X7549429Y45643665D02*
X7381070Y45542650D01*
X7381070Y45542650D02*
X7145368Y45306947D01*
X7145368Y45306947D02*
X7044352Y45138589D01*
X7044352Y45138589D02*
X7044352Y45003902D01*
X7044352Y45003902D02*
X7078024Y44902886D01*
X7078024Y44902886D02*
X7212711Y44768199D01*
X7212711Y44768199D02*
X7313726Y44734528D01*
X7313726Y44734528D02*
X7448414Y44734528D01*
X7448414Y44734528D02*
X7616772Y44835543D01*
X7616772Y44835543D02*
X7852475Y45071245D01*
X7852475Y45071245D02*
X7953490Y45239604D01*
X7953490Y45239604D02*
X7953490Y45374291D01*
X7953490Y45374291D02*
X7919818Y45475306D01*
X7313727Y46081398D02*
X6741307Y45508978D01*
X6741307Y45508978D02*
X6640292Y45475306D01*
X6640292Y45475306D02*
X6572948Y45475306D01*
X6572948Y45475306D02*
X6471933Y45508978D01*
X6471933Y45508978D02*
X6337246Y45643665D01*
X6337246Y45643665D02*
X6303574Y45744680D01*
X6303574Y45744680D02*
X6303574Y45812024D01*
X6303574Y45812024D02*
X6337246Y45913039D01*
X6337246Y45913039D02*
X6909666Y46485459D01*
X6673963Y46721161D02*
X6269902Y47125222D01*
X5764826Y46216085D02*
X6471933Y46923191D01*
X4451627Y47663970D02*
X4451627Y47596627D01*
X4451627Y47596627D02*
X4518971Y47461940D01*
X4518971Y47461940D02*
X4586314Y47394596D01*
X4586314Y47394596D02*
X4721001Y47327253D01*
X4721001Y47327253D02*
X4855688Y47327253D01*
X4855688Y47327253D02*
X4956704Y47360925D01*
X4956704Y47360925D02*
X5125062Y47461940D01*
X5125062Y47461940D02*
X5226078Y47562955D01*
X5226078Y47562955D02*
X5327093Y47731314D01*
X5327093Y47731314D02*
X5360765Y47832329D01*
X5360765Y47832329D02*
X5360765Y47967016D01*
X5360765Y47967016D02*
X5293421Y48101703D01*
X5293421Y48101703D02*
X5226078Y48169047D01*
X5226078Y48169047D02*
X5091391Y48236390D01*
X5091391Y48236390D02*
X5024047Y48236390D01*
X4081238Y47899673D02*
X4788345Y48606779D01*
X4788345Y48606779D02*
X3677177Y48303734D01*
X3677177Y48303734D02*
X4384284Y49010840D01*
X3340460Y48640451D02*
X4047566Y49347558D01*
X4047566Y49347558D02*
X3879208Y49515917D01*
X3879208Y49515917D02*
X3744521Y49583260D01*
X3744521Y49583260D02*
X3609834Y49583260D01*
X3609834Y49583260D02*
X3508818Y49549588D01*
X3508818Y49549588D02*
X3340460Y49448573D01*
X3340460Y49448573D02*
X3239444Y49347558D01*
X3239444Y49347558D02*
X3138429Y49179199D01*
X3138429Y49179199D02*
X3104757Y49078184D01*
X3104757Y49078184D02*
X3104757Y48943497D01*
X3104757Y48943497D02*
X3172101Y48808810D01*
X3172101Y48808810D02*
X3340460Y48640451D01*
X2229292Y50492398D02*
X2464994Y50256695D01*
X2094605Y49886306D02*
X2801711Y50593413D01*
X2801711Y50593413D02*
X2464994Y50930130D01*
X1724215Y50660756D02*
X1387498Y50997474D01*
X1589528Y50391382D02*
X2060933Y51334192D01*
X2060933Y51334192D02*
X1118124Y50862787D01*
X882421Y51098489D02*
X1589528Y51805596D01*
X1589528Y51805596D02*
X478360Y51502550D01*
X478360Y51502550D02*
X1185467Y52209657D01*
D11*
X61195126Y6170000D02*
X61195126Y8830000D01*
X61195126Y1170000D02*
X61195126Y3830000D01*
X61489588Y8830000D02*
X61195126Y8830000D01*
X61489588Y3830000D02*
X61195126Y3830000D01*
X61500753Y6170000D02*
X61195126Y6170000D01*
X61500753Y1170000D02*
X61195126Y1170000D01*
X63549499Y8830000D02*
X63855126Y8830000D01*
X63549499Y3830000D02*
X63855126Y3830000D01*
X63560664Y6170000D02*
X63855126Y6170000D01*
X63560664Y1170000D02*
X63855126Y1170000D01*
X63855126Y8830000D02*
X63855126Y6170000D01*
X63855126Y3830000D02*
X63855126Y1170000D01*
X81895126Y22670000D02*
X81895126Y25330000D01*
X81895126Y17970000D02*
X81895126Y20630000D01*
X82189588Y25330000D02*
X81895126Y25330000D01*
X82189588Y20630000D02*
X81895126Y20630000D01*
X82200753Y22670000D02*
X81895126Y22670000D01*
X82200753Y17970000D02*
X81895126Y17970000D01*
X84249499Y25330000D02*
X84555126Y25330000D01*
X84249499Y20630000D02*
X84555126Y20630000D01*
X84260664Y22670000D02*
X84555126Y22670000D01*
X84260664Y17970000D02*
X84555126Y17970000D01*
X84555126Y25330000D02*
X84555126Y22670000D01*
X84555126Y20630000D02*
X84555126Y17970000D01*
G04 #@! TD*
M02*
