M48
;Layer_Color=9474304
;FILE_FORMAT=2:4
INCH,TZ
;TYPE=PLATED
T01F00S00C0.0118
T02F00S00C0.0315
T03F00S00C0.0394
;TYPE=NON_PLATED
T04F00S00C0.0390
%
T01
X276Y118
X752Y149
X984Y339
X1220Y118
X1457Y319
X1693Y118
X1929Y319
X2165Y118
X2402Y319
X2638Y118
X2874Y319
X3110Y118
X3346Y319
X3583Y118
X3819Y319
X4055Y118
X4291Y319
X4528Y118
X4764Y319
X5000Y118
X5236Y319
X5472Y118
X5709Y319
X5945Y118
X6181Y319
X6417Y118
X6654Y319
X6890Y118
X7126Y319
X7362Y118
X7598Y319
X7835Y118
X8071Y319
X8307Y118
X8543Y319
X8780Y118
X9016Y319
X9252Y118
X9488Y319
X9724Y118
X9961Y319
X10197Y118
X10433Y319
X10669Y118
X10984Y276
X10977Y811
X10550Y1005
X10099Y1015
X9657Y1022
X9184Y1020
X8679Y2067
X8369
X8122Y1594
X7524Y1797
X7228Y1806
X7385Y2077
X7502Y2759
X7247Y3027
X7150Y3568
X7589Y3568
X8049Y3448
Y3780
Y4075
X8043Y4366
X8373Y5050
X8918Y5046
X8764Y5614
X8150Y5551
X7943Y6381
X7717Y6575
X7361Y6452
X7040Y6847
X6572Y7111
X5935Y7126
X5500Y6476
X4831Y6450
X4821Y5903
X4113Y6030
X4158Y6829
X4132Y7594
X4110Y8404
X3799Y8878
X3826Y9166
X4109Y9203
X3810Y9518
Y10226
X3819Y10551
X3810Y10935
X4129Y11269
X4537Y11132
X4540Y10836
X4469Y11492
X4461Y11777
X4973Y11689
X5191Y12172
X5448Y12016
X5899Y11713
X6323Y11599
X7080Y11692
X7017Y10643
X6640Y10655
X6010Y10177
X5606Y10126
X5556Y9644
X5588Y9346
X5601Y9061
X5890Y9113
X5728Y8225
X4863Y8222
X4872Y8508
X4738Y8759
X4811Y7942
X4813Y7005
X3116Y7138
Y6852
X3134Y6428
Y6120
Y5831
X3358Y5091
X3638Y4996
X3950Y4601
X3652Y4281
X3652Y3715
X3645Y3429
X3736Y2768
X3533Y2023
X3701Y1791
X3401Y1756
X2776Y1592
X2480
X1854Y1797
X1568Y1797
X1732Y2080
X1836Y2756
X1677Y3025
X1497Y3602
X1973Y3602
X2459Y3448
Y3780
Y4075
X2452Y4366
X1689Y4588
X1693Y4965
X890Y4973
X917Y4639
X622Y5071
X143Y5114
X118Y5709
Y6102
Y6496
Y6890
Y7283
Y7677
Y8071
Y8465
X157Y9094
X118Y9488
Y9803
X118Y10177
X246Y10660
X157Y11024
X118Y11654
X402Y11764
X118Y12205
X139Y13367
X118Y14055
X2670Y14031
X3031Y14055
X3425
X4488
X4799Y13823
X5020Y13370
X5365Y13325
X5763Y13361
X5610Y12836
X6054Y12740
X6147Y12470
X6350Y12833
X6496Y14055
X6181
X5669Y14016
X6811Y14055
X7126
X7441
X7756
X8071
X8386Y14055
X8701
X9055Y13858
X9646Y14055
X9961
X10276
X10591
X10906Y14055
X11220
X11535
X11850
X12165
X12480
X12795
X13110
X12815Y13189
X12442Y13233
X12440Y12948
X12067Y13189
X11300Y12736
X11575Y12205
X11545Y11742
X11916Y11151
X11760Y10912
X11988Y10620
X12205Y10193
X11764Y10195
X11666Y9511
X12182Y9222
X12458Y9776
X13268Y9646
Y9961
Y10276
Y10591
Y10906
Y11220
X12911Y11308
X13128Y11552
X12819Y12254
X11274Y13640
X10164Y13767
X9848Y12532
X9774Y11684
X10068
X10359
X10118Y10906
X9820Y11004
X9860Y10698
X9961Y10315
X10153Y10059
X9959Y9661
X9719Y9435
X9921Y8898
X10044Y8430
X9668Y8528
X9681Y7827
X9531Y7169
X9725Y6955
X9929Y6751
X10131Y6549
X10433Y6378
X10866Y6024
X10502Y5630
X9606Y5472
X10003Y5001
X10012Y4588
X9493Y4616
X9203Y4400
Y3827
X9240Y3441
X9844Y3575
X10344Y3568
X10791Y3460
X10805Y3780
X10800Y4068
X10799Y4366
X11129Y5050
X11535Y5079
X11904Y5150
X11944Y5871
X11457Y6339
X11815Y7275
X11850Y7795
X12032Y8016
X11722Y8330
X12469Y8567
X13268Y8465
X13268Y8780
X13268Y9094
X13129Y9372
X13268Y8150
Y7835
Y7520
Y7205
Y6890
Y6575
Y6260
Y5945
Y5630
Y5315
Y5000
Y4685
Y4370
X12749Y3756
X13189Y3150
X13268Y2677
X12697Y2079
Y1760
Y1442
Y1124
Y805
X12333Y479
X13051Y436
X11455Y1267
X11588Y1846
X11024Y2756
X10472Y2345
X10125Y2356
X9808
X9462
X8661Y2756
X10004Y3022
X6445Y3441
X6447Y3840
X6447Y4279
X6529Y4663
X7256Y4641
X7205Y4923
X6063Y5055
X5739Y5063
X5717Y5555
X5258Y5179
X5236Y4446
X5259Y4075
X5246Y3780
X5236Y3280
X4941Y3543
X4272Y3588
X4472Y3046
X4401Y2170
X4632Y1590
X5342Y1797
X5634Y1797
X5492Y2087
X5615Y2756
X6261Y1636
X6589Y1585
X4594Y4594
X4395Y5000
X2782Y5050
X2248Y5669
Y6430
X2248Y7191
X2249Y7953
X3116Y7841
Y8128
X3093Y8581
X2793Y8542
X1968Y9007
X1969Y9396
X1949Y9917
X2137Y10977
X1142Y10787
X1268Y10492
X3125Y10061
X3128Y9617
X4149Y9898
X4811Y10213
X3976Y12205
X3533Y12253
X3576Y13104
X3113Y12785
X2448Y13123
X2678Y13568
X2367Y12250
X1927Y12473
X4741Y13068
X7748Y12907
X7819Y13214
X7608Y12628
X8081Y12524
X8912Y12553
X9104Y12878
X8856Y11491
X8914Y11208
X8486Y10390
X8278Y10187
X8468Y9863
X8826Y9816
X8275Y9632
X8069Y8489
X7846Y8260
X7800Y7577
X7509Y7566
X7996Y7358
X8065Y6769
X8665Y7358
X9094Y7362
X10128Y7362
X10709Y7304
X10472Y7913
X10494Y8722
X10512Y9213
X10769Y9596
X10622Y9841
X10678Y10403
X10622Y10704
X7953Y10787
X6348Y6422
X3116Y7554
X856Y3868
X894Y3403
X612Y3081
X121Y3042
X719Y2490
X453Y2178
X118Y1496
Y1102
X138Y517
X709Y709
X906Y1592
X246Y4400
X12664Y5357
T02
X6213Y5413
X7791
X9213
T03
X433Y13740
T04
X9512Y12769
Y13569
X11512Y13169
M30
