G04*
G04 #@! TF.GenerationSoftware,Altium Limited,Altium Designer,20.0.10 (225)*
G04*
G04 Layer_Physical_Order=2*
G04 Layer_Color=16711680*
%FSLAX25Y25*%
%MOIN*%
G70*
G01*
G75*
%ADD10C,0.00984*%
%ADD11C,0.00787*%
%ADD83C,0.01575*%
%ADD84C,0.01968*%
%ADD85C,0.01181*%
%ADD86C,0.03900*%
%ADD87C,0.02362*%
G04:AMPARAMS|DCode=88|XSize=9.84mil|YSize=19.68mil|CornerRadius=4.92mil|HoleSize=0mil|Usage=FLASHONLY|Rotation=90.000|XOffset=0mil|YOffset=0mil|HoleType=Round|Shape=RoundedRectangle|*
%AMROUNDEDRECTD88*
21,1,0.00984,0.00984,0,0,90.0*
21,1,0.00000,0.01968,0,0,90.0*
1,1,0.00984,0.00492,0.00000*
1,1,0.00984,0.00492,0.00000*
1,1,0.00984,-0.00492,0.00000*
1,1,0.00984,-0.00492,0.00000*
%
%ADD88ROUNDEDRECTD88*%
G04:AMPARAMS|DCode=89|XSize=9.84mil|YSize=19.68mil|CornerRadius=4.92mil|HoleSize=0mil|Usage=FLASHONLY|Rotation=0.000|XOffset=0mil|YOffset=0mil|HoleType=Round|Shape=RoundedRectangle|*
%AMROUNDEDRECTD89*
21,1,0.00984,0.00984,0,0,0.0*
21,1,0.00000,0.01968,0,0,0.0*
1,1,0.00984,0.00000,-0.00492*
1,1,0.00984,0.00000,-0.00492*
1,1,0.00984,0.00000,0.00492*
1,1,0.00984,0.00000,0.00492*
%
%ADD89ROUNDEDRECTD89*%
G36*
X9578Y142991D02*
X9504Y143047D01*
X9426Y143097D01*
X9342Y143142D01*
X9253Y143181D01*
X9159Y143213D01*
X9060Y143240D01*
X8957Y143261D01*
X8848Y143276D01*
X8734Y143284D01*
X8615Y143287D01*
X8506Y144272D01*
X8625Y144275D01*
X8739Y144286D01*
X8846Y144305D01*
X8946Y144330D01*
X9040Y144363D01*
X9128Y144403D01*
X9209Y144450D01*
X9283Y144505D01*
X9351Y144567D01*
X9413Y144636D01*
X9578Y142991D01*
D02*
G37*
G36*
X47909Y142819D02*
X47905Y142792D01*
X47902Y142751D01*
X47893Y142333D01*
X47892Y142069D01*
X47105D01*
X47104Y142209D01*
X47073Y142742D01*
X47063Y142779D01*
X47052Y142801D01*
X47039Y142808D01*
X47913Y142832D01*
X47909Y142819D01*
D02*
G37*
G36*
X98170Y142798D02*
X98153Y142753D01*
X98138Y142698D01*
X98126Y142632D01*
X98106Y142469D01*
X98094Y142264D01*
X98090Y142018D01*
X97303D01*
X97284Y142832D01*
X98188D01*
X98170Y142798D01*
D02*
G37*
G36*
X115418Y142891D02*
X115426Y142832D01*
X115511D01*
X115493Y142798D01*
X115476Y142752D01*
X115461Y142696D01*
X115459Y142684D01*
X115491Y142603D01*
X115535Y142526D01*
X115588Y142460D01*
X115651Y142404D01*
X115724Y142358D01*
X115807Y142322D01*
X115899Y142296D01*
X115413Y142010D01*
X115413Y142001D01*
X115399Y142001D01*
X114519Y141482D01*
X114539Y141560D01*
X114557Y141651D01*
X114587Y141872D01*
X114609Y142145D01*
X114616Y142440D01*
X114607Y142832D01*
X114626D01*
X114626Y142849D01*
X115413Y143008D01*
X115418Y142891D01*
D02*
G37*
G36*
X124154Y142798D02*
X124137Y142752D01*
X124123Y142695D01*
X124110Y142627D01*
X124090Y142458D01*
X124079Y142245D01*
X124075Y141988D01*
X123287Y142016D01*
X123268Y142832D01*
X124173D01*
X124154Y142798D01*
D02*
G37*
G36*
X85185Y142808D02*
X85175Y142769D01*
X85167Y142717D01*
X85152Y142570D01*
X85140Y142244D01*
X85138Y141957D01*
X84350D01*
X84350Y142108D01*
X84303Y142808D01*
X84292Y142832D01*
X85196D01*
X85185Y142808D01*
D02*
G37*
G36*
X76524D02*
X76514Y142769D01*
X76505Y142717D01*
X76491Y142570D01*
X76479Y142244D01*
X76476Y141957D01*
X75689D01*
X75688Y142108D01*
X75642Y142808D01*
X75630Y142832D01*
X76535D01*
X76524Y142808D01*
D02*
G37*
G36*
X58296D02*
X58285Y142769D01*
X58277Y142717D01*
X58263Y142570D01*
X58250Y142244D01*
X58248Y141957D01*
X57461D01*
X57460Y142108D01*
X57413Y142808D01*
X57402Y142832D01*
X58307D01*
X58296Y142808D01*
D02*
G37*
G36*
X53099D02*
X53089Y142769D01*
X53080Y142717D01*
X53066Y142570D01*
X53053Y142244D01*
X53051Y141957D01*
X52264D01*
X52263Y142108D01*
X52216Y142808D01*
X52205Y142832D01*
X53110D01*
X53099Y142808D01*
D02*
G37*
G36*
X176122Y142797D02*
X176106Y142748D01*
X176091Y142687D01*
X176078Y142613D01*
X176059Y142426D01*
X176047Y142188D01*
X176043Y141898D01*
X175256Y142016D01*
X175236Y142832D01*
X176141D01*
X176122Y142797D01*
D02*
G37*
G36*
X167461D02*
X167444Y142748D01*
X167430Y142687D01*
X167417Y142613D01*
X167397Y142426D01*
X167386Y142188D01*
X167382Y141898D01*
X166594Y142016D01*
X166575Y142832D01*
X167480D01*
X167461Y142797D01*
D02*
G37*
G36*
X158800D02*
X158783Y142748D01*
X158768Y142687D01*
X158756Y142613D01*
X158736Y142426D01*
X158724Y142188D01*
X158720Y141898D01*
X157933Y142016D01*
X157914Y142832D01*
X158818D01*
X158800Y142797D01*
D02*
G37*
G36*
X154469D02*
X154452Y142748D01*
X154438Y142687D01*
X154425Y142613D01*
X154405Y142426D01*
X154393Y142188D01*
X154390Y141898D01*
X153602Y142016D01*
X153583Y142832D01*
X154488D01*
X154469Y142797D01*
D02*
G37*
G36*
X150138D02*
X150122Y142748D01*
X150107Y142687D01*
X150094Y142613D01*
X150075Y142426D01*
X150063Y142188D01*
X150059Y141898D01*
X149272Y142016D01*
X149252Y142832D01*
X150157D01*
X150138Y142797D01*
D02*
G37*
G36*
X145808D02*
X145791Y142748D01*
X145776Y142687D01*
X145763Y142613D01*
X145744Y142426D01*
X145732Y142188D01*
X145728Y141898D01*
X144941Y142016D01*
X144922Y142832D01*
X145826D01*
X145808Y142797D01*
D02*
G37*
G36*
X132815D02*
X132799Y142748D01*
X132784Y142687D01*
X132771Y142613D01*
X132752Y142426D01*
X132740Y142188D01*
X132736Y141898D01*
X131949Y142016D01*
X131930Y142832D01*
X132834D01*
X132815Y142797D01*
D02*
G37*
G36*
X128485D02*
X128468Y142748D01*
X128453Y142687D01*
X128441Y142613D01*
X128421Y142426D01*
X128409Y142188D01*
X128405Y141898D01*
X127618Y142016D01*
X127599Y142832D01*
X128503D01*
X128485Y142797D01*
D02*
G37*
G36*
X111162D02*
X111145Y142748D01*
X111131Y142687D01*
X111118Y142613D01*
X111098Y142426D01*
X111086Y142188D01*
X111083Y141898D01*
X110295Y142016D01*
X110276Y142832D01*
X111180D01*
X111162Y142797D01*
D02*
G37*
G36*
X89508D02*
X89492Y142748D01*
X89477Y142687D01*
X89464Y142613D01*
X89445Y142426D01*
X89433Y142188D01*
X89429Y141898D01*
X88642Y142016D01*
X88622Y142832D01*
X89527D01*
X89508Y142797D01*
D02*
G37*
G36*
X67855D02*
X67838Y142748D01*
X67824Y142687D01*
X67811Y142613D01*
X67791Y142426D01*
X67779Y142188D01*
X67776Y141898D01*
X66988Y142016D01*
X66969Y142832D01*
X67874D01*
X67855Y142797D01*
D02*
G37*
G36*
X119816Y142786D02*
X119793Y142729D01*
X119773Y142660D01*
X119755Y142580D01*
X119740Y142489D01*
X119719Y142274D01*
X119708Y142013D01*
X119706Y141866D01*
X118919Y142138D01*
X118937Y142832D01*
X119842D01*
X119816Y142786D01*
D02*
G37*
G36*
X93593Y142567D02*
X93616Y142566D01*
X93621Y142549D01*
X93607Y142516D01*
X93575Y142467D01*
X93525Y142402D01*
X93369Y142226D01*
X92997Y141842D01*
X92441Y142399D01*
X92566Y142528D01*
X92765Y142756D01*
X92839Y142856D01*
X92896Y142947D01*
X92936Y143027D01*
X92960Y143098D01*
X92966Y143159D01*
X92955Y143211D01*
X92928Y143253D01*
X93593Y142567D01*
D02*
G37*
G36*
X102254D02*
X102269Y142564D01*
X102265Y142543D01*
X102242Y142506D01*
X102201Y142451D01*
X102060Y142291D01*
X101551Y141766D01*
X101039Y142368D01*
X101186Y142520D01*
X101417Y142795D01*
X101503Y142918D01*
X101568Y143033D01*
X101613Y143137D01*
X101637Y143233D01*
X101642Y143319D01*
X101626Y143395D01*
X101589Y143463D01*
X102254Y142567D01*
D02*
G37*
G36*
X80836Y142780D02*
X80809Y142718D01*
X80786Y142646D01*
X80765Y142563D01*
X80748Y142470D01*
X80723Y142253D01*
X80710Y141996D01*
X80709Y141852D01*
X79921Y141762D01*
X79961Y142832D01*
X80866D01*
X80836Y142780D01*
D02*
G37*
G36*
X72174D02*
X72148Y142718D01*
X72124Y142646D01*
X72104Y142563D01*
X72087Y142470D01*
X72061Y142253D01*
X72049Y141996D01*
X72047Y141852D01*
X71260Y141762D01*
X71300Y142832D01*
X72204D01*
X72174Y142780D01*
D02*
G37*
G36*
X3954Y140462D02*
X3889Y140505D01*
X3793Y140544D01*
X3664Y140578D01*
X3504Y140607D01*
X3311Y140632D01*
X2831Y140669D01*
X1870Y140689D01*
Y141673D01*
X2222Y141675D01*
X3504Y141755D01*
X3664Y141785D01*
X3793Y141819D01*
X3889Y141857D01*
X3954Y141901D01*
Y140462D01*
D02*
G37*
G36*
X116324Y140172D02*
X116234Y140103D01*
X116152Y140030D01*
X116081Y139951D01*
X116018Y139868D01*
X115966Y139780D01*
X115923Y139687D01*
X115890Y139590D01*
X115866Y139487D01*
X115851Y139380D01*
X115847Y139269D01*
X115059Y139410D01*
X115056Y139517D01*
X115044Y139623D01*
X115026Y139728D01*
X115001Y139833D01*
X114968Y139937D01*
X114928Y140040D01*
X114880Y140143D01*
X114825Y140245D01*
X114763Y140347D01*
X114694Y140448D01*
X116324Y140172D01*
D02*
G37*
G36*
X161602Y139370D02*
X161483Y139367D01*
X161368Y139357D01*
X161258Y139338D01*
X161152Y139311D01*
X161050Y139277D01*
X160952Y139234D01*
X160859Y139184D01*
X160769Y139125D01*
X160685Y139059D01*
X160604Y138984D01*
X160047Y139541D01*
X160122Y139622D01*
X160188Y139706D01*
X160247Y139795D01*
X160297Y139889D01*
X160340Y139987D01*
X160374Y140089D01*
X160401Y140195D01*
X160420Y140305D01*
X160430Y140420D01*
X160433Y140539D01*
X161602Y139370D01*
D02*
G37*
G36*
X165784Y142334D02*
Y141772D01*
X165784Y141772D01*
X165875Y141311D01*
X166137Y140920D01*
X166611Y140446D01*
Y136627D01*
X164700Y134716D01*
X164439Y134325D01*
X164347Y133864D01*
X164347Y133864D01*
Y129822D01*
X162566Y128041D01*
X162522Y128008D01*
X162471Y127977D01*
X162417Y127947D01*
X162358Y127918D01*
X162302Y127895D01*
X162136Y127841D01*
X162045Y127819D01*
X161990Y127794D01*
X161721Y127740D01*
X161070Y127305D01*
X160635Y126654D01*
X160482Y125886D01*
X160556Y125515D01*
X160021Y124728D01*
X149675D01*
X149043Y125359D01*
X148653Y125620D01*
X148192Y125712D01*
X148192Y125712D01*
X146141D01*
X145815Y126499D01*
X147407Y128091D01*
X147668Y128482D01*
X147759Y128943D01*
X147759Y128943D01*
Y129493D01*
X151905Y133638D01*
X155905D01*
X155905Y133638D01*
X156366Y133730D01*
X156757Y133991D01*
X161239Y138473D01*
X161270Y138494D01*
X161304Y138512D01*
X161339Y138527D01*
X161379Y138541D01*
X161423Y138552D01*
X161473Y138560D01*
X161514Y138564D01*
X161614Y138544D01*
X162382Y138697D01*
X163033Y139132D01*
X163469Y139783D01*
X163621Y140551D01*
X163586Y140728D01*
X163863Y141142D01*
X163962Y141642D01*
Y142717D01*
X165775D01*
X165784Y142334D01*
D02*
G37*
G36*
X155994Y137885D02*
X155011Y136933D01*
X154833Y138470D01*
X154900Y138417D01*
X154969Y138379D01*
X155041Y138355D01*
X155114Y138347D01*
X155190Y138353D01*
X155269Y138374D01*
X155349Y138410D01*
X155431Y138461D01*
X155516Y138527D01*
X155603Y138608D01*
X155994Y137885D01*
D02*
G37*
G36*
X2585Y139017D02*
X2633Y139000D01*
X2694Y138986D01*
X2768Y138973D01*
X2954Y138954D01*
X3192Y138943D01*
X3481Y138939D01*
X3368Y138151D01*
X2550Y138130D01*
Y139035D01*
X2585Y139017D01*
D02*
G37*
G36*
X14941Y137664D02*
X14878Y137757D01*
X14809Y137840D01*
X14735Y137913D01*
X14656Y137976D01*
X14571Y138030D01*
X14480Y138074D01*
X14384Y138108D01*
X14283Y138132D01*
X14175Y138146D01*
X14063Y138151D01*
X14251Y138939D01*
X14356Y138942D01*
X14462Y138952D01*
X14567Y138969D01*
X14672Y138993D01*
X14778Y139024D01*
X14883Y139061D01*
X14988Y139105D01*
X15092Y139156D01*
X15302Y139278D01*
X14941Y137664D01*
D02*
G37*
G36*
X2574Y136425D02*
X2613Y136416D01*
X2665Y136407D01*
X2812Y136393D01*
X3138Y136380D01*
X3425Y136378D01*
Y135591D01*
X3274Y135590D01*
X2574Y135543D01*
X2550Y135532D01*
Y136437D01*
X2574Y136425D01*
D02*
G37*
G36*
X180875Y136591D02*
X180773Y136378D01*
X180731Y136272D01*
X180696Y136166D01*
X180667Y136060D01*
X180645Y135954D01*
X180629Y135849D01*
X180620Y135744D01*
X180616Y135640D01*
X179829Y135417D01*
X179824Y135530D01*
X179809Y135637D01*
X179785Y135738D01*
X179750Y135833D01*
X179706Y135922D01*
X179652Y136005D01*
X179588Y136082D01*
X179514Y136153D01*
X179430Y136218D01*
X179337Y136277D01*
X180936Y136698D01*
X180875Y136591D01*
D02*
G37*
G36*
X18071Y135319D02*
X17960Y135359D01*
X17722Y135427D01*
X17596Y135455D01*
X17326Y135497D01*
X17183Y135512D01*
X16722Y135531D01*
X16618Y136319D01*
X16733Y136324D01*
X16840Y136339D01*
X16938Y136364D01*
X17028Y136399D01*
X17109Y136443D01*
X17183Y136498D01*
X17248Y136563D01*
X17304Y136638D01*
X17353Y136723D01*
X17393Y136818D01*
X18071Y135319D01*
D02*
G37*
G36*
X96493Y142018D02*
X96562Y141669D01*
X96418Y140945D01*
X96571Y140177D01*
X97006Y139526D01*
X97320Y139316D01*
X97498Y138380D01*
X96483Y137366D01*
X96060Y137281D01*
X95669Y137020D01*
X92796Y134148D01*
X92765Y134127D01*
X92731Y134109D01*
X92696Y134093D01*
X92657Y134080D01*
X92613Y134069D01*
X92563Y134061D01*
X92521Y134057D01*
X92421Y134077D01*
X91653Y133924D01*
X91263Y133663D01*
X90478Y134010D01*
X90476Y134012D01*
Y137215D01*
X93571Y140310D01*
X93571Y140310D01*
X93832Y140701D01*
X93923Y141162D01*
Y141622D01*
X94180Y141879D01*
X94180Y141879D01*
X94324Y142095D01*
X94328Y142097D01*
X94611Y142520D01*
X94650Y142717D01*
X96274D01*
X96493Y142018D01*
D02*
G37*
G36*
X2585Y133820D02*
X2633Y133803D01*
X2694Y133789D01*
X2768Y133776D01*
X2954Y133757D01*
X3192Y133746D01*
X3481Y133742D01*
X3368Y132955D01*
X2550Y132934D01*
Y133838D01*
X2585Y133820D01*
D02*
G37*
G36*
X89670Y133504D02*
X89683Y133397D01*
X89704Y133293D01*
X89735Y133191D01*
X89774Y133092D01*
X89821Y132995D01*
X89878Y132901D01*
X89943Y132810D01*
X90016Y132721D01*
X90098Y132635D01*
X88445D01*
X88527Y132721D01*
X88601Y132810D01*
X88666Y132901D01*
X88722Y132995D01*
X88770Y133092D01*
X88809Y133191D01*
X88839Y133293D01*
X88861Y133397D01*
X88874Y133504D01*
X88878Y133614D01*
X89665D01*
X89670Y133504D01*
D02*
G37*
G36*
X131312Y133676D02*
X131401Y133602D01*
X131492Y133537D01*
X131586Y133481D01*
X131683Y133433D01*
X131782Y133394D01*
X131884Y133364D01*
X131988Y133342D01*
X132095Y133329D01*
X132205Y133325D01*
Y132537D01*
X132095Y132533D01*
X131988Y132520D01*
X131884Y132499D01*
X131782Y132468D01*
X131683Y132429D01*
X131586Y132381D01*
X131492Y132325D01*
X131401Y132260D01*
X131312Y132187D01*
X131226Y132104D01*
Y133758D01*
X131312Y133676D01*
D02*
G37*
G36*
X129539Y132104D02*
X129453Y132187D01*
X129364Y132260D01*
X129273Y132325D01*
X129179Y132381D01*
X129082Y132429D01*
X128983Y132468D01*
X128881Y132499D01*
X128777Y132520D01*
X128670Y132533D01*
X128560Y132537D01*
Y133325D01*
X128670Y133329D01*
X128777Y133342D01*
X128881Y133364D01*
X128983Y133394D01*
X129082Y133433D01*
X129179Y133481D01*
X129273Y133537D01*
X129364Y133602D01*
X129453Y133676D01*
X129539Y133758D01*
Y132104D01*
D02*
G37*
G36*
X93988Y133080D02*
X93914Y132999D01*
X93847Y132914D01*
X93789Y132825D01*
X93738Y132732D01*
X93696Y132634D01*
X93661Y132532D01*
X93634Y132426D01*
X93616Y132315D01*
X93605Y132201D01*
X93602Y132081D01*
X92433Y133251D01*
X92552Y133253D01*
X92667Y133264D01*
X92778Y133283D01*
X92884Y133309D01*
X92986Y133344D01*
X93084Y133387D01*
X93177Y133437D01*
X93266Y133496D01*
X93351Y133562D01*
X93431Y133636D01*
X93988Y133080D01*
D02*
G37*
G36*
X174760Y132830D02*
X174687Y132741D01*
X174622Y132650D01*
X174565Y132556D01*
X174518Y132459D01*
X174479Y132360D01*
X174448Y132258D01*
X174427Y132154D01*
X174414Y132047D01*
X174409Y131938D01*
X173622D01*
X173618Y132047D01*
X173605Y132154D01*
X173583Y132258D01*
X173553Y132360D01*
X173514Y132459D01*
X173466Y132556D01*
X173410Y132650D01*
X173345Y132741D01*
X173271Y132830D01*
X173189Y132916D01*
X174843D01*
X174760Y132830D01*
D02*
G37*
G36*
X171358Y132780D02*
X171360Y132676D01*
X171377Y132468D01*
X171392Y132363D01*
X171435Y132152D01*
X171463Y132045D01*
X171531Y131831D01*
X171571Y131723D01*
X170072Y132401D01*
X170167Y132441D01*
X170252Y132490D01*
X170327Y132547D01*
X170391Y132612D01*
X170446Y132685D01*
X170491Y132766D01*
X170526Y132856D01*
X170551Y132955D01*
X170566Y133061D01*
X170571Y133176D01*
X171358Y132780D01*
D02*
G37*
G36*
X138301Y131791D02*
X138181Y131789D01*
X138067Y131778D01*
X137956Y131759D01*
X137850Y131732D01*
X137748Y131698D01*
X137650Y131655D01*
X137557Y131605D01*
X137468Y131546D01*
X137383Y131480D01*
X137302Y131405D01*
X136746Y131962D01*
X136820Y132043D01*
X136886Y132128D01*
X136945Y132217D01*
X136995Y132310D01*
X137038Y132408D01*
X137073Y132510D01*
X137099Y132616D01*
X137118Y132727D01*
X137129Y132842D01*
X137131Y132961D01*
X138301Y131791D01*
D02*
G37*
G36*
X2574Y131229D02*
X2613Y131219D01*
X2665Y131210D01*
X2812Y131196D01*
X3138Y131184D01*
X3425Y131181D01*
Y130394D01*
X3274Y130393D01*
X2574Y130346D01*
X2550Y130335D01*
Y131240D01*
X2574Y131229D01*
D02*
G37*
G36*
X143900Y130802D02*
X143914Y130621D01*
X143927Y130543D01*
X143943Y130475D01*
X143963Y130415D01*
X143986Y130364D01*
X144013Y130322D01*
X144044Y130289D01*
X144078Y130264D01*
X142930D01*
X142964Y130289D01*
X142995Y130322D01*
X143022Y130364D01*
X143045Y130415D01*
X143065Y130475D01*
X143081Y130543D01*
X143094Y130621D01*
X143103Y130707D01*
X143110Y130905D01*
X143898D01*
X143900Y130802D01*
D02*
G37*
G36*
X17160Y129726D02*
X17128Y129743D01*
X17085Y129757D01*
X17031Y129770D01*
X16966Y129781D01*
X16802Y129798D01*
X16592Y129809D01*
X16338Y129812D01*
X16224Y130599D01*
X16298Y130602D01*
X16366Y130609D01*
X16426Y130620D01*
X16479Y130636D01*
X16524Y130657D01*
X16562Y130682D01*
X16593Y130712D01*
X16616Y130747D01*
X16632Y130786D01*
X16640Y130830D01*
X17160Y129726D01*
D02*
G37*
G36*
X2574Y128630D02*
X2613Y128620D01*
X2665Y128611D01*
X2812Y128597D01*
X3138Y128585D01*
X3425Y128583D01*
Y127795D01*
X3274Y127795D01*
X2574Y127748D01*
X2550Y127737D01*
Y128641D01*
X2574Y128630D01*
D02*
G37*
G36*
X25196Y127683D02*
X25178Y127692D01*
X25156Y127693D01*
X25131Y127689D01*
X25102Y127678D01*
X25070Y127661D01*
X25034Y127637D01*
X24994Y127607D01*
X24903Y127527D01*
X24852Y127478D01*
X24295Y128034D01*
X24376Y128115D01*
X24697Y128477D01*
X24709Y128499D01*
X24712Y128514D01*
X25196Y127683D01*
D02*
G37*
G36*
X163911Y127127D02*
X163835Y127043D01*
X163770Y126957D01*
X163716Y126868D01*
X163672Y126777D01*
X163639Y126682D01*
X163617Y126584D01*
X163606Y126483D01*
X163606Y126379D01*
X163616Y126272D01*
X163638Y126163D01*
X162235Y127039D01*
X162355Y127068D01*
X162580Y127141D01*
X162685Y127185D01*
X162786Y127233D01*
X162882Y127286D01*
X162973Y127344D01*
X163059Y127407D01*
X163141Y127474D01*
X163217Y127546D01*
X163911Y127127D01*
D02*
G37*
G36*
X167225Y127099D02*
X167150Y127018D01*
X167084Y126934D01*
X167025Y126844D01*
X166975Y126751D01*
X166932Y126653D01*
X166897Y126551D01*
X166871Y126445D01*
X166852Y126335D01*
X166841Y126220D01*
X166839Y126101D01*
X165670Y127270D01*
X165789Y127273D01*
X165903Y127283D01*
X166014Y127302D01*
X166120Y127329D01*
X166222Y127363D01*
X166320Y127406D01*
X166413Y127456D01*
X166502Y127515D01*
X166587Y127581D01*
X166668Y127656D01*
X167225Y127099D01*
D02*
G37*
G36*
X2585Y126024D02*
X2633Y126008D01*
X2694Y125994D01*
X2768Y125981D01*
X2954Y125962D01*
X3192Y125950D01*
X3481Y125947D01*
X3368Y125159D01*
X2550Y125138D01*
Y126043D01*
X2585Y126024D01*
D02*
G37*
G36*
X24804Y124710D02*
X24723Y124795D01*
X24639Y124872D01*
X24551Y124939D01*
X24460Y124997D01*
X24366Y125047D01*
X24269Y125087D01*
X24168Y125119D01*
X24065Y125141D01*
X23957Y125155D01*
X23847Y125159D01*
X23890Y125947D01*
X23999Y125951D01*
X24106Y125963D01*
X24210Y125984D01*
X24313Y126013D01*
X24414Y126050D01*
X24513Y126096D01*
X24610Y126150D01*
X24705Y126212D01*
X24798Y126282D01*
X24889Y126361D01*
X24804Y124710D01*
D02*
G37*
G36*
X179636Y126067D02*
X179656Y125951D01*
X179684Y125840D01*
X179718Y125733D01*
X179759Y125631D01*
X179806Y125533D01*
X179859Y125441D01*
X179920Y125352D01*
X179987Y125269D01*
X180060Y125189D01*
X179562Y124574D01*
X179480Y124649D01*
X179395Y124715D01*
X179306Y124772D01*
X179212Y124819D01*
X179115Y124857D01*
X179015Y124886D01*
X178910Y124906D01*
X178802Y124916D01*
X178690Y124917D01*
X178574Y124909D01*
X179621Y126188D01*
X179636Y126067D01*
D02*
G37*
G36*
X87358Y125803D02*
X87443Y125737D01*
X87532Y125679D01*
X87625Y125628D01*
X87723Y125585D01*
X87825Y125551D01*
X87931Y125524D01*
X88042Y125505D01*
X88156Y125495D01*
X88276Y125492D01*
X87106Y124323D01*
X87104Y124442D01*
X87093Y124557D01*
X87074Y124667D01*
X87047Y124774D01*
X87013Y124876D01*
X86970Y124973D01*
X86920Y125067D01*
X86861Y125156D01*
X86795Y125241D01*
X86721Y125321D01*
X87277Y125878D01*
X87358Y125803D01*
D02*
G37*
G36*
X128719Y125267D02*
X128645Y125186D01*
X128578Y125101D01*
X128521Y125011D01*
X128471Y124918D01*
X128430Y124820D01*
X128398Y124719D01*
X128373Y124613D01*
X128358Y124503D01*
X128350Y124389D01*
X128351Y124271D01*
X127143Y125399D01*
X127263Y125406D01*
X127378Y125420D01*
X127489Y125442D01*
X127596Y125471D01*
X127698Y125508D01*
X127796Y125552D01*
X127889Y125603D01*
X127978Y125663D01*
X128062Y125729D01*
X128142Y125803D01*
X128719Y125267D01*
D02*
G37*
G36*
X91249Y125688D02*
X91334Y125622D01*
X91423Y125563D01*
X91516Y125513D01*
X91614Y125470D01*
X91716Y125435D01*
X91822Y125409D01*
X91932Y125390D01*
X92047Y125379D01*
X92167Y125377D01*
X90997Y124207D01*
X90995Y124327D01*
X90984Y124441D01*
X90965Y124552D01*
X90938Y124658D01*
X90904Y124760D01*
X90861Y124858D01*
X90811Y124951D01*
X90752Y125040D01*
X90686Y125125D01*
X90611Y125206D01*
X91168Y125762D01*
X91249Y125688D01*
D02*
G37*
G36*
X61885Y142516D02*
X61976Y142055D01*
X62237Y141664D01*
X62280Y141621D01*
Y140656D01*
X62280Y140655D01*
X62372Y140195D01*
X62633Y139804D01*
X75866Y126570D01*
Y124128D01*
X75854Y123712D01*
X75846Y123624D01*
X75545Y123403D01*
X75525Y123396D01*
X75011Y123346D01*
X59059Y139298D01*
Y142371D01*
X59064Y142516D01*
X59069Y142567D01*
X59099Y142717D01*
X61144D01*
X61885Y142516D01*
D02*
G37*
G36*
X77469Y124773D02*
X77483Y124667D01*
X77507Y124571D01*
X77540Y124486D01*
X77583Y124413D01*
X77635Y124349D01*
X77697Y124297D01*
X77768Y124256D01*
X77849Y124225D01*
X77939Y124205D01*
X76617Y123335D01*
X76628Y123390D01*
X76638Y123464D01*
X76655Y123665D01*
X76674Y124286D01*
X76677Y124705D01*
X77464Y124890D01*
X77469Y124773D01*
D02*
G37*
G36*
X2574Y123433D02*
X2613Y123423D01*
X2665Y123415D01*
X2812Y123400D01*
X3138Y123388D01*
X3425Y123386D01*
Y122598D01*
X3274Y122598D01*
X2574Y122551D01*
X2550Y122540D01*
Y123444D01*
X2574Y123433D01*
D02*
G37*
G36*
X175689Y122804D02*
X175594Y122764D01*
X175510Y122717D01*
X175435Y122660D01*
X175370Y122596D01*
X175315Y122523D01*
X175271Y122441D01*
X175236Y122352D01*
X175211Y122254D01*
X175196Y122147D01*
X175191Y122032D01*
X174403Y122138D01*
X174401Y122298D01*
X174370Y122746D01*
X174351Y122883D01*
X174301Y123142D01*
X174270Y123263D01*
X174195Y123488D01*
X175689Y122804D01*
D02*
G37*
G36*
X180431Y121615D02*
X180417Y121619D01*
X180388Y121622D01*
X180285Y121628D01*
X179612Y121635D01*
X179499Y122423D01*
X179650Y122424D01*
X180213Y122458D01*
X180286Y122470D01*
X180347Y122485D01*
X180395Y122501D01*
X180431Y122519D01*
Y121615D01*
D02*
G37*
G36*
X168911Y121612D02*
X167545Y121555D01*
X167288Y122343D01*
X167407Y122347D01*
X167514Y122360D01*
X167608Y122381D01*
X167689Y122412D01*
X167758Y122450D01*
X167814Y122498D01*
X167858Y122554D01*
X167889Y122619D01*
X167908Y122692D01*
X167913Y122774D01*
X168911Y121612D01*
D02*
G37*
G36*
X128929Y122073D02*
X128855Y121993D01*
X128788Y121908D01*
X128730Y121819D01*
X128679Y121725D01*
X128637Y121628D01*
X128602Y121526D01*
X128575Y121419D01*
X128557Y121309D01*
X128546Y121194D01*
X128543Y121075D01*
X127374Y122244D01*
X127493Y122247D01*
X127608Y122257D01*
X127719Y122276D01*
X127825Y122303D01*
X127927Y122337D01*
X128024Y122380D01*
X128118Y122431D01*
X128207Y122489D01*
X128292Y122555D01*
X128372Y122630D01*
X128929Y122073D01*
D02*
G37*
G36*
X133443Y122156D02*
X133491Y122071D01*
X133547Y121996D01*
X133611Y121931D01*
X133684Y121877D01*
X133766Y121832D01*
X133855Y121797D01*
X133954Y121772D01*
X134060Y121757D01*
X134175Y121752D01*
X134070Y120965D01*
X133909Y120962D01*
X133462Y120931D01*
X133324Y120912D01*
X133065Y120862D01*
X132944Y120831D01*
X132719Y120756D01*
X133403Y122250D01*
X133443Y122156D01*
D02*
G37*
G36*
X2574Y120835D02*
X2613Y120825D01*
X2665Y120816D01*
X2812Y120802D01*
X3138Y120790D01*
X3425Y120787D01*
Y120000D01*
X3274Y119999D01*
X2574Y119953D01*
X2550Y119941D01*
Y120846D01*
X2574Y120835D01*
D02*
G37*
G36*
X176945Y119804D02*
X176833Y119821D01*
X176724Y119827D01*
X176618Y119823D01*
X176515Y119809D01*
X176416Y119784D01*
X176320Y119749D01*
X176228Y119704D01*
X176139Y119649D01*
X176053Y119584D01*
X175970Y119508D01*
X175520Y120171D01*
X175593Y120249D01*
X175660Y120332D01*
X175722Y120419D01*
X175778Y120511D01*
X175829Y120607D01*
X175874Y120709D01*
X175914Y120815D01*
X175948Y120926D01*
X175977Y121041D01*
X176001Y121162D01*
X176945Y119804D01*
D02*
G37*
G36*
X78387Y119437D02*
X78305Y119521D01*
X78219Y119597D01*
X78131Y119664D01*
X78039Y119722D01*
X77944Y119771D01*
X77846Y119811D01*
X77746Y119842D01*
X77642Y119864D01*
X77535Y119877D01*
X77425Y119882D01*
X77456Y120669D01*
X77565Y120674D01*
X77672Y120686D01*
X77776Y120707D01*
X77879Y120737D01*
X77979Y120774D01*
X78078Y120820D01*
X78174Y120875D01*
X78268Y120938D01*
X78360Y121009D01*
X78449Y121089D01*
X78387Y119437D01*
D02*
G37*
G36*
X180431Y119016D02*
X180417Y119020D01*
X180388Y119024D01*
X180286Y119030D01*
X179617Y119037D01*
Y119825D01*
X179745Y119825D01*
X180231Y119859D01*
X180297Y119872D01*
X180352Y119886D01*
X180397Y119903D01*
X180431Y119921D01*
Y119016D01*
D02*
G37*
G36*
X33508Y120134D02*
X33597Y120061D01*
X33689Y119996D01*
X33783Y119939D01*
X33879Y119892D01*
X33978Y119853D01*
X34080Y119822D01*
X34184Y119801D01*
X34291Y119788D01*
X34401Y119783D01*
Y118996D01*
X34291Y118992D01*
X34184Y118979D01*
X34080Y118957D01*
X33978Y118927D01*
X33879Y118888D01*
X33783Y118840D01*
X33689Y118784D01*
X33597Y118719D01*
X33508Y118645D01*
X33422Y118563D01*
Y120217D01*
X33508Y120134D01*
D02*
G37*
G36*
X31735Y118563D02*
X31649Y118645D01*
X31560Y118719D01*
X31469Y118784D01*
X31375Y118840D01*
X31278Y118888D01*
X31179Y118927D01*
X31077Y118957D01*
X30973Y118979D01*
X30866Y118992D01*
X30757Y118996D01*
Y119783D01*
X30866Y119788D01*
X30973Y119801D01*
X31077Y119822D01*
X31179Y119853D01*
X31278Y119892D01*
X31375Y119939D01*
X31469Y119996D01*
X31560Y120061D01*
X31649Y120134D01*
X31735Y120217D01*
Y118563D01*
D02*
G37*
G36*
X126034Y119057D02*
X126123Y118984D01*
X126214Y118919D01*
X126308Y118862D01*
X126405Y118815D01*
X126504Y118776D01*
X126606Y118746D01*
X126710Y118724D01*
X126817Y118711D01*
X126927Y118707D01*
Y117919D01*
X126817Y117915D01*
X126710Y117902D01*
X126606Y117880D01*
X126504Y117850D01*
X126405Y117811D01*
X126308Y117763D01*
X126214Y117707D01*
X126123Y117642D01*
X126034Y117568D01*
X125948Y117486D01*
Y119140D01*
X126034Y119057D01*
D02*
G37*
G36*
X80160Y116693D02*
X80074Y116775D01*
X79985Y116849D01*
X79894Y116914D01*
X79800Y116970D01*
X79703Y117018D01*
X79604Y117057D01*
X79503Y117087D01*
X79398Y117109D01*
X79291Y117122D01*
X79182Y117126D01*
Y117913D01*
X79291Y117918D01*
X79398Y117931D01*
X79503Y117952D01*
X79604Y117983D01*
X79703Y118022D01*
X79800Y118069D01*
X79894Y118126D01*
X79985Y118191D01*
X80074Y118264D01*
X80160Y118347D01*
Y116693D01*
D02*
G37*
G36*
X49759Y118028D02*
X49844Y117962D01*
X49933Y117903D01*
X50027Y117852D01*
X50124Y117810D01*
X50226Y117775D01*
X50333Y117749D01*
X50443Y117730D01*
X50558Y117719D01*
X50677Y117717D01*
X49508Y116547D01*
X49505Y116666D01*
X49494Y116781D01*
X49476Y116892D01*
X49449Y116998D01*
X49415Y117100D01*
X49372Y117198D01*
X49321Y117291D01*
X49263Y117380D01*
X49196Y117465D01*
X49122Y117545D01*
X49679Y118102D01*
X49759Y118028D01*
D02*
G37*
G36*
X180431Y116418D02*
X180406Y116429D01*
X180368Y116439D01*
X180315Y116448D01*
X180168Y116462D01*
X179843Y116474D01*
X179556Y116476D01*
Y117264D01*
X179706Y117264D01*
X180406Y117311D01*
X180431Y117322D01*
Y116418D01*
D02*
G37*
G36*
X87607Y116580D02*
X87620Y116473D01*
X87642Y116369D01*
X87672Y116267D01*
X87711Y116168D01*
X87758Y116072D01*
X87815Y115978D01*
X87880Y115886D01*
X87953Y115797D01*
X88036Y115711D01*
X86382Y115711D01*
X86464Y115797D01*
X86538Y115886D01*
X86603Y115978D01*
X86659Y116072D01*
X86707Y116168D01*
X86746Y116267D01*
X86776Y116369D01*
X86798Y116473D01*
X86811Y116580D01*
X86815Y116690D01*
X87603Y116690D01*
X87607Y116580D01*
D02*
G37*
G36*
X84453Y116575D02*
X84466Y116468D01*
X84488Y116364D01*
X84518Y116262D01*
X84557Y116163D01*
X84605Y116066D01*
X84661Y115972D01*
X84726Y115881D01*
X84800Y115792D01*
X84882Y115706D01*
X83228Y115706D01*
X83311Y115792D01*
X83384Y115881D01*
X83449Y115972D01*
X83505Y116066D01*
X83553Y116163D01*
X83592Y116262D01*
X83622Y116364D01*
X83644Y116468D01*
X83657Y116575D01*
X83661Y116684D01*
X84449Y116684D01*
X84453Y116575D01*
D02*
G37*
G36*
X168958Y115382D02*
X168847Y115435D01*
X168628Y115524D01*
X168520Y115561D01*
X168306Y115617D01*
X168201Y115636D01*
X167992Y115658D01*
X167889Y115661D01*
X167598Y116449D01*
X167712Y116454D01*
X167819Y116469D01*
X167919Y116493D01*
X168012Y116528D01*
X168098Y116573D01*
X168176Y116628D01*
X168248Y116693D01*
X168314Y116767D01*
X168371Y116852D01*
X168423Y116946D01*
X168958Y115382D01*
D02*
G37*
G36*
X125003Y114249D02*
X125084Y114171D01*
X125170Y114102D01*
X125258Y114043D01*
X125351Y113993D01*
X125447Y113951D01*
X125547Y113919D01*
X125650Y113896D01*
X125757Y113883D01*
X125868Y113878D01*
X125798Y113091D01*
X125690Y113086D01*
X125583Y113075D01*
X125478Y113054D01*
X125375Y113026D01*
X125273Y112990D01*
X125173Y112946D01*
X125074Y112893D01*
X124977Y112833D01*
X124881Y112765D01*
X124787Y112689D01*
X124925Y114336D01*
X125003Y114249D01*
D02*
G37*
G36*
X142606Y111741D02*
X142505Y111810D01*
X142403Y111872D01*
X142301Y111927D01*
X142198Y111975D01*
X142095Y112015D01*
X141991Y112048D01*
X141886Y112073D01*
X141780Y112092D01*
X141675Y112103D01*
X141568Y112106D01*
X141426Y112894D01*
X141538Y112899D01*
X141645Y112913D01*
X141748Y112937D01*
X141845Y112970D01*
X141938Y113013D01*
X142026Y113066D01*
X142109Y113128D01*
X142188Y113199D01*
X142261Y113281D01*
X142330Y113372D01*
X142606Y111741D01*
D02*
G37*
G36*
X144338Y113281D02*
X144412Y113199D01*
X144490Y113128D01*
X144573Y113066D01*
X144661Y113013D01*
X144754Y112970D01*
X144852Y112937D01*
X144954Y112913D01*
X145061Y112899D01*
X145173Y112894D01*
X145031Y112106D01*
X144924Y112103D01*
X144818Y112092D01*
X144713Y112073D01*
X144608Y112048D01*
X144504Y112015D01*
X144401Y111975D01*
X144298Y111927D01*
X144196Y111872D01*
X144094Y111810D01*
X143993Y111741D01*
X144269Y113372D01*
X144338Y113281D01*
D02*
G37*
G36*
X99393Y110703D02*
X99334Y110644D01*
X99143Y110425D01*
X99125Y110396D01*
X99113Y110372D01*
X99108Y110354D01*
X99110Y110341D01*
X98457Y110951D01*
X98470Y110951D01*
X98488Y110958D01*
X98513Y110971D01*
X98542Y110991D01*
X98577Y111019D01*
X98664Y111094D01*
X98836Y111260D01*
X99393Y110703D01*
D02*
G37*
G36*
X122687Y111577D02*
X122776Y111503D01*
X122868Y111438D01*
X122962Y111382D01*
X123058Y111334D01*
X123157Y111295D01*
X123259Y111265D01*
X123364Y111243D01*
X123470Y111230D01*
X123580Y111226D01*
Y110438D01*
X123470Y110434D01*
X123364Y110421D01*
X123259Y110399D01*
X123157Y110369D01*
X123058Y110330D01*
X122962Y110283D01*
X122868Y110226D01*
X122776Y110161D01*
X122687Y110088D01*
X122601Y110005D01*
Y111659D01*
X122687Y111577D01*
D02*
G37*
G36*
X163432Y108302D02*
X163822Y108041D01*
X164283Y107949D01*
X167462D01*
X168991Y106421D01*
X168665Y105633D01*
X163080D01*
X161858Y106855D01*
X161467Y107116D01*
X161006Y107208D01*
X161006Y107208D01*
X151378D01*
X150917Y107116D01*
X150526Y106855D01*
X150485Y106815D01*
X142827D01*
X141239Y108403D01*
X141540Y109130D01*
X144587D01*
X144587Y109130D01*
X145047Y109222D01*
X145438Y109483D01*
X145676Y109721D01*
X162013D01*
X163432Y108302D01*
D02*
G37*
G36*
X21445Y108563D02*
X21326Y108560D01*
X21211Y108550D01*
X21100Y108531D01*
X20994Y108504D01*
X20892Y108470D01*
X20794Y108427D01*
X20701Y108377D01*
X20612Y108318D01*
X20527Y108252D01*
X20447Y108177D01*
X19890Y108734D01*
X19964Y108815D01*
X20031Y108899D01*
X20089Y108988D01*
X20140Y109082D01*
X20182Y109179D01*
X20217Y109282D01*
X20244Y109388D01*
X20262Y109498D01*
X20273Y109613D01*
X20276Y109732D01*
X21445Y108563D01*
D02*
G37*
G36*
X13315Y109118D02*
X13286Y109029D01*
X13268Y108941D01*
X13261Y108856D01*
X13266Y108774D01*
X13283Y108694D01*
X13312Y108616D01*
X13352Y108540D01*
X13404Y108468D01*
X13467Y108397D01*
X12905Y107846D01*
X12786Y107962D01*
X12333Y108351D01*
X12224Y108430D01*
X12015Y108564D01*
X11913Y108621D01*
X11813Y108669D01*
X13357Y109211D01*
X13315Y109118D01*
D02*
G37*
G36*
X27646Y108169D02*
X27527Y108167D01*
X27412Y108156D01*
X27301Y108137D01*
X27195Y108110D01*
X27093Y108076D01*
X26995Y108033D01*
X26902Y107983D01*
X26813Y107924D01*
X26728Y107858D01*
X26647Y107783D01*
X26091Y108340D01*
X26165Y108421D01*
X26232Y108506D01*
X26290Y108595D01*
X26340Y108688D01*
X26383Y108786D01*
X26418Y108888D01*
X26444Y108994D01*
X26463Y109105D01*
X26474Y109220D01*
X26476Y109339D01*
X27646Y108169D01*
D02*
G37*
G36*
X6945Y108618D02*
X6872Y108529D01*
X6807Y108437D01*
X6750Y108343D01*
X6703Y108247D01*
X6664Y108148D01*
X6634Y108046D01*
X6612Y107941D01*
X6599Y107835D01*
X6594Y107725D01*
X5807D01*
X5803Y107835D01*
X5790Y107941D01*
X5768Y108046D01*
X5738Y108148D01*
X5699Y108247D01*
X5651Y108343D01*
X5595Y108437D01*
X5530Y108529D01*
X5456Y108618D01*
X5374Y108704D01*
X7028D01*
X6945Y108618D01*
D02*
G37*
G36*
X117328Y108663D02*
X117342Y108556D01*
X117367Y108455D01*
X117401Y108359D01*
X117446Y108270D01*
X117500Y108187D01*
X117563Y108110D01*
X117637Y108038D01*
X117721Y107973D01*
X117814Y107913D01*
X116213Y107500D01*
X116274Y107607D01*
X116377Y107819D01*
X116419Y107926D01*
X116455Y108032D01*
X116484Y108137D01*
X116506Y108243D01*
X116523Y108348D01*
X116532Y108453D01*
X116535Y108558D01*
X117323Y108775D01*
X117328Y108663D01*
D02*
G37*
G36*
X39862Y145208D02*
Y142717D01*
X45049D01*
X45548Y142108D01*
X45532Y142027D01*
X45685Y141259D01*
X46120Y140608D01*
X46771Y140173D01*
X47539Y140021D01*
X48307Y140173D01*
X48959Y140608D01*
X49394Y141259D01*
X49546Y142027D01*
X49531Y142108D01*
X50030Y142717D01*
X51413D01*
X51420Y142682D01*
X51453Y142187D01*
Y141732D01*
X51453Y141732D01*
X51545Y141271D01*
X51806Y140881D01*
X76019Y116668D01*
X76019Y116668D01*
X76409Y116407D01*
X76870Y116315D01*
X76870Y116315D01*
X79269D01*
X79306Y116308D01*
X79342Y116297D01*
X79378Y116283D01*
X79416Y116265D01*
X79455Y116241D01*
X79496Y116212D01*
X79528Y116185D01*
X79585Y116101D01*
X80236Y115665D01*
X81004Y115513D01*
X81390Y115589D01*
X82065Y115000D01*
X82072Y114983D01*
X82048Y114862D01*
X82201Y114094D01*
X82636Y113443D01*
X83287Y113008D01*
X84055Y112855D01*
X84823Y113008D01*
X85040Y113153D01*
X85790Y113449D01*
X86441Y113014D01*
X87209Y112861D01*
X87977Y113014D01*
X88628Y113449D01*
X89063Y114100D01*
X89216Y114868D01*
X89063Y115636D01*
X88628Y116287D01*
X88544Y116343D01*
X88517Y116376D01*
X88487Y116417D01*
X88464Y116456D01*
X88446Y116493D01*
X88432Y116529D01*
X88421Y116566D01*
X88413Y116602D01*
Y116941D01*
X88413Y116941D01*
X88322Y117402D01*
X88060Y117792D01*
X88060Y117792D01*
X86856Y118997D01*
X87034Y119932D01*
X87349Y120142D01*
X87784Y120793D01*
X87936Y121561D01*
X87934Y121571D01*
X88287Y122304D01*
X89056Y122457D01*
X89707Y122892D01*
X89721Y122913D01*
X90668D01*
X90759Y122776D01*
X91410Y122341D01*
X92178Y122188D01*
X92946Y122341D01*
X93598Y122776D01*
X94033Y123427D01*
X94185Y124196D01*
X94033Y124964D01*
X93598Y125615D01*
X92946Y126050D01*
X92178Y126203D01*
X92079Y126183D01*
X92037Y126187D01*
X91987Y126195D01*
X91943Y126206D01*
X91903Y126220D01*
X91868Y126235D01*
X91835Y126253D01*
X91803Y126274D01*
X89496Y128581D01*
Y129278D01*
X90040Y129937D01*
X90691Y130372D01*
X91570Y130271D01*
X91653Y130215D01*
X92421Y130062D01*
X93189Y130215D01*
X93840Y130650D01*
X94275Y131301D01*
X94428Y132070D01*
X94409Y132169D01*
X94412Y132211D01*
X94421Y132261D01*
X94432Y132305D01*
X94445Y132344D01*
X94461Y132380D01*
X94479Y132413D01*
X94499Y132445D01*
X97026Y134972D01*
X97451Y135056D01*
X97841Y135317D01*
X101639Y139115D01*
X101639Y139115D01*
X101900Y139506D01*
X101992Y139966D01*
X101992Y139966D01*
Y141060D01*
X102841Y141910D01*
X102841Y141910D01*
X102948Y142070D01*
X102989Y142097D01*
X103078Y142230D01*
X103756Y141910D01*
X103603Y141142D01*
X103607Y141122D01*
Y133849D01*
X103515Y133385D01*
Y130444D01*
X92522Y119451D01*
X92130Y118865D01*
X91993Y118173D01*
Y117717D01*
X91993Y117717D01*
Y115906D01*
X90652Y114565D01*
X90260Y113979D01*
X90123Y113287D01*
Y112564D01*
X90063Y112266D01*
X89878Y111988D01*
X89835Y111771D01*
X86813Y108749D01*
X86422Y108163D01*
X86284Y107472D01*
Y97562D01*
X86182Y97047D01*
X86251Y96702D01*
X86234Y96621D01*
Y94376D01*
X84353Y92494D01*
X83961Y91908D01*
X83824Y91217D01*
Y88146D01*
X83036Y87649D01*
X82583Y87739D01*
X81815Y87587D01*
X81164Y87152D01*
X80777Y86573D01*
X80629Y86482D01*
X79894Y86343D01*
X79506Y86731D01*
X79485Y86763D01*
X79467Y86796D01*
X79452Y86831D01*
X79438Y86871D01*
X79427Y86915D01*
X79419Y86965D01*
X79415Y87006D01*
X79435Y87106D01*
X79282Y87874D01*
X78847Y88525D01*
X78196Y88961D01*
X77428Y89113D01*
X76660Y88961D01*
X76009Y88525D01*
X75573Y87874D01*
X75421Y87106D01*
X75573Y86338D01*
X76009Y85687D01*
X76660Y85252D01*
X77428Y85099D01*
X77528Y85119D01*
X77569Y85115D01*
X77619Y85107D01*
X77663Y85096D01*
X77703Y85082D01*
X77738Y85067D01*
X77771Y85049D01*
X77803Y85028D01*
X80193Y82638D01*
Y70368D01*
X80193Y70368D01*
X79981Y70051D01*
X79547Y69964D01*
X78896Y69529D01*
X78461Y68878D01*
X78308Y68110D01*
X78461Y67342D01*
X78896Y66691D01*
X79455Y66317D01*
X79458Y66303D01*
X79719Y65912D01*
X79800Y65831D01*
Y65158D01*
X79800Y65158D01*
X79891Y64697D01*
X80152Y64306D01*
X84382Y60076D01*
X84773Y59815D01*
X85233Y59724D01*
X85234Y59724D01*
X91127D01*
X92282Y58568D01*
X92104Y57633D01*
X91789Y57423D01*
X91354Y56772D01*
X91202Y56004D01*
X91354Y55236D01*
X91789Y54585D01*
X92037Y54419D01*
X92096Y54122D01*
X92357Y53731D01*
X97128Y48960D01*
Y37020D01*
X97128Y37020D01*
X97219Y36559D01*
X97480Y36169D01*
X102906Y30743D01*
X103297Y30482D01*
X103758Y30390D01*
X103758Y30390D01*
X110588D01*
X110862Y30060D01*
X110884Y29175D01*
X110449Y28524D01*
X110296Y27756D01*
X109622Y27385D01*
X103261D01*
X102924Y27722D01*
X102534Y27983D01*
X102073Y28074D01*
X102073Y28074D01*
X100499D01*
X99781Y28792D01*
X99719Y28861D01*
X99483Y29152D01*
X99441Y29213D01*
X99400Y29278D01*
X99394Y29311D01*
X98959Y29963D01*
X98308Y30398D01*
X97539Y30550D01*
X96771Y30398D01*
X95993Y30825D01*
Y47945D01*
X95993Y47945D01*
X95901Y48406D01*
X95640Y48796D01*
X95640Y48796D01*
X89021Y55415D01*
X89023Y55436D01*
X89029Y55463D01*
X89032Y55475D01*
X89038Y55488D01*
X89040Y55496D01*
X89066Y55530D01*
X89069Y55543D01*
X89260Y55829D01*
X89413Y56597D01*
X89260Y57365D01*
X88825Y58016D01*
X88174Y58451D01*
X87406Y58604D01*
X86638Y58451D01*
X85987Y58016D01*
X85901Y57888D01*
X84893Y57782D01*
X78566Y64108D01*
Y64477D01*
X78566Y64477D01*
X78475Y64938D01*
X78214Y65329D01*
X78214Y65329D01*
X77188Y66354D01*
Y67089D01*
X77097Y67550D01*
X76836Y67941D01*
X76836Y67941D01*
X76040Y68736D01*
X76300Y69591D01*
X76359Y69602D01*
X77010Y70038D01*
X77445Y70689D01*
X77598Y71457D01*
X77445Y72225D01*
X77397Y72297D01*
Y78937D01*
X77259Y79628D01*
X76868Y80214D01*
X74112Y82970D01*
X73526Y83362D01*
X72835Y83499D01*
X70374D01*
X69553Y84321D01*
X69472Y84725D01*
X69037Y85376D01*
X68743Y85572D01*
X68722Y85605D01*
X53518Y100808D01*
X52932Y101200D01*
X52368Y101312D01*
X52146Y101461D01*
X51378Y101613D01*
X50610Y101461D01*
X49959Y101025D01*
X49524Y100374D01*
X49371Y99606D01*
X49524Y98838D01*
X49959Y98187D01*
X50610Y97752D01*
X51378Y97599D01*
X51578Y97639D01*
X57128Y92089D01*
X56827Y91362D01*
X32123D01*
X31470Y92015D01*
Y94439D01*
X31470Y94439D01*
X31378Y94900D01*
X31117Y95291D01*
X26048Y100359D01*
X25658Y100620D01*
X25197Y100712D01*
X25197Y100712D01*
X21793D01*
X21304Y101499D01*
X21397Y101969D01*
X21244Y102737D01*
X20809Y103388D01*
X20495Y103598D01*
X20466Y103720D01*
X20958Y104500D01*
X24011D01*
X24011Y104500D01*
X24472Y104591D01*
X24862Y104852D01*
X27283Y107272D01*
X27314Y107293D01*
X27347Y107311D01*
X27383Y107326D01*
X27422Y107340D01*
X27466Y107351D01*
X27516Y107359D01*
X27558Y107363D01*
X27657Y107343D01*
X28426Y107496D01*
X29077Y107931D01*
X29512Y108582D01*
X29665Y109350D01*
X29512Y110118D01*
X29077Y110770D01*
X28426Y111205D01*
X27657Y111357D01*
X26889Y111205D01*
X26238Y110770D01*
X25803Y110118D01*
X25650Y109350D01*
X25670Y109251D01*
X25666Y109209D01*
X25658Y109159D01*
X25647Y109115D01*
X25633Y109075D01*
X25618Y109040D01*
X25600Y109007D01*
X25580Y108976D01*
X23512Y106908D01*
X22173D01*
X21753Y107695D01*
X21831Y107811D01*
X22225Y107890D01*
X22876Y108325D01*
X23311Y108976D01*
X23464Y109744D01*
X23311Y110512D01*
X22876Y111163D01*
X22225Y111598D01*
X21457Y111751D01*
X20689Y111598D01*
X20038Y111163D01*
X19602Y110512D01*
X19450Y109744D01*
X19469Y109644D01*
X19466Y109603D01*
X19457Y109553D01*
X19446Y109509D01*
X19433Y109469D01*
X19417Y109434D01*
X19399Y109400D01*
X19379Y109369D01*
X15121Y105111D01*
X14393Y105412D01*
Y108119D01*
X14393Y108119D01*
X14302Y108580D01*
X14097Y108886D01*
X14157Y108976D01*
X14310Y109744D01*
X14157Y110512D01*
X13722Y111163D01*
X13071Y111598D01*
X12303Y111751D01*
X11535Y111598D01*
X10884Y111163D01*
X10449Y110512D01*
X10296Y109744D01*
X10449Y108976D01*
X10884Y108325D01*
X11535Y107890D01*
X11598Y107877D01*
X11603Y107875D01*
X11771Y107767D01*
X11834Y107721D01*
X11985Y107592D01*
Y103635D01*
X11257Y103334D01*
X7405Y107186D01*
Y107813D01*
X7413Y107850D01*
X7423Y107886D01*
X7438Y107922D01*
X7456Y107959D01*
X7479Y107998D01*
X7509Y108039D01*
X7535Y108071D01*
X7620Y108128D01*
X8055Y108779D01*
X8208Y109547D01*
X8055Y110315D01*
X7620Y110967D01*
X6969Y111401D01*
X6201Y111554D01*
X5433Y111401D01*
X4782Y110967D01*
X4346Y110315D01*
X4194Y109547D01*
X4346Y108779D01*
X4782Y108128D01*
X4866Y108071D01*
X4893Y108039D01*
X4922Y107998D01*
X4946Y107959D01*
X4964Y107922D01*
X4978Y107886D01*
X4989Y107850D01*
X4997Y107813D01*
Y106687D01*
X4997Y106687D01*
X5088Y106226D01*
X5349Y105836D01*
X8325Y102860D01*
X8147Y101924D01*
X7833Y101715D01*
X7398Y101063D01*
X7354Y100846D01*
X4825Y98316D01*
X4434Y97730D01*
X4296Y97039D01*
Y93457D01*
X4051Y93091D01*
X3898Y92323D01*
X4051Y91555D01*
X4296Y91188D01*
Y84842D01*
X4434Y84151D01*
X4631Y83855D01*
X4635Y83663D01*
X4486Y83034D01*
X4391Y82885D01*
X3994Y82620D01*
X3559Y81969D01*
X3406Y81201D01*
X3559Y80433D01*
X3994Y79782D01*
X4645Y79347D01*
X4730Y79330D01*
X5182Y78878D01*
Y77087D01*
X2266Y74171D01*
X1874Y73585D01*
X1737Y72894D01*
Y67028D01*
X1874Y66336D01*
X2266Y65750D01*
X7890Y60126D01*
X7975Y60000D01*
X9704Y58270D01*
X10290Y57878D01*
X10982Y57741D01*
X12594D01*
X12895Y57013D01*
X12534Y56653D01*
X12273Y56262D01*
X12182Y55801D01*
X12182Y55801D01*
Y53248D01*
X12182Y53248D01*
X12273Y52787D01*
X12534Y52397D01*
X12883Y52048D01*
X12903Y52017D01*
X12921Y51983D01*
X12937Y51948D01*
X12950Y51909D01*
X12961Y51865D01*
X12969Y51815D01*
X12973Y51773D01*
X12954Y51673D01*
X13106Y50905D01*
X13541Y50254D01*
X14193Y49819D01*
X14961Y49666D01*
X15729Y49819D01*
X16380Y50254D01*
X16590Y50568D01*
X17525Y50746D01*
X17745Y50526D01*
X18136Y50265D01*
X18597Y50174D01*
X21964D01*
X22107Y50000D01*
X22260Y49232D01*
X22695Y48581D01*
X23346Y48146D01*
X24114Y47993D01*
X24882Y48146D01*
X25533Y48581D01*
X26278Y48397D01*
X28028Y46647D01*
Y28451D01*
X28028Y28451D01*
X28120Y27990D01*
X28381Y27599D01*
X28655Y27325D01*
X28353Y26598D01*
X27296D01*
X24137Y29756D01*
Y42859D01*
X24489Y42929D01*
X25140Y43364D01*
X25575Y44015D01*
X25728Y44783D01*
X25575Y45551D01*
X25140Y46203D01*
X24489Y46638D01*
X23720Y46791D01*
X22952Y46638D01*
X22301Y46203D01*
X22021Y46175D01*
X19904Y48292D01*
X19513Y48553D01*
X19052Y48645D01*
X19052Y48645D01*
X10637D01*
X9243Y50039D01*
X9211Y50083D01*
X9178Y50134D01*
X9147Y50189D01*
X9118Y50249D01*
X9094Y50305D01*
X9038Y50473D01*
X9015Y50564D01*
X8991Y50614D01*
X8941Y50867D01*
X8506Y51518D01*
X7855Y51953D01*
X7087Y52105D01*
X6318Y51953D01*
X5667Y51518D01*
X5232Y50867D01*
X5080Y50098D01*
X5232Y49330D01*
X5667Y48679D01*
X6318Y48244D01*
X7087Y48091D01*
X7465Y48167D01*
X7516Y48167D01*
X7939Y47757D01*
X8005Y47657D01*
X7690Y46931D01*
X7204Y46835D01*
X6553Y46400D01*
X6118Y45748D01*
X5965Y44980D01*
X6118Y44212D01*
X6553Y43561D01*
X7204Y43126D01*
X7972Y42973D01*
X8741Y43126D01*
X9392Y43561D01*
X9827Y44212D01*
X9916Y44662D01*
X14953D01*
X15488Y43874D01*
X15414Y43504D01*
X15567Y42736D01*
X15812Y42369D01*
Y24311D01*
X15949Y23620D01*
X16341Y23034D01*
X17617Y21757D01*
X17634Y21673D01*
X18069Y21022D01*
X18720Y20587D01*
X18805Y20570D01*
X21086Y18288D01*
X21315Y17784D01*
X21088Y17083D01*
X20664Y16801D01*
X19784Y15921D01*
X19647Y15861D01*
X18996Y15837D01*
X18748Y15904D01*
X13162Y21490D01*
X13075Y21929D01*
X12640Y22581D01*
X11988Y23016D01*
X11220Y23168D01*
X10452Y23016D01*
X9801Y22581D01*
X9366Y21929D01*
X9213Y21161D01*
X9366Y20393D01*
X9801Y19742D01*
X10452Y19307D01*
X10873Y19223D01*
X11017Y19094D01*
X16308Y13803D01*
Y12164D01*
X16059Y11792D01*
X15972Y11353D01*
X15159Y11052D01*
X10049Y16162D01*
X9993Y16231D01*
X9963Y16273D01*
X9876Y16416D01*
X9846Y16473D01*
X9768Y16646D01*
X9754Y16681D01*
X9728Y16811D01*
X9293Y17462D01*
X8642Y17898D01*
X7874Y18050D01*
X7106Y17898D01*
X6455Y17462D01*
X6020Y16811D01*
X5867Y16043D01*
X6020Y15275D01*
X6455Y14624D01*
X7106Y14189D01*
X7874Y14036D01*
X8620Y14185D01*
X9943Y12862D01*
X9969Y12413D01*
X9825Y12117D01*
X9704Y11987D01*
X9313Y12003D01*
X8741Y12386D01*
X7972Y12539D01*
X7204Y12386D01*
X6553Y11951D01*
X6118Y11300D01*
X5965Y10531D01*
X6118Y9763D01*
X6553Y9112D01*
X7204Y8677D01*
X7972Y8524D01*
X8741Y8677D01*
X9392Y9112D01*
X9448Y9197D01*
X9480Y9224D01*
X9522Y9253D01*
X9561Y9276D01*
X9598Y9295D01*
X9634Y9309D01*
X9670Y9320D01*
X9707Y9327D01*
X11115D01*
X12644Y7798D01*
X12442Y6887D01*
X12065Y6636D01*
X11206Y6768D01*
X11163Y6833D01*
X10512Y7268D01*
X9744Y7420D01*
X8976Y7268D01*
X8325Y6833D01*
X7890Y6182D01*
X7737Y5413D01*
X7890Y4645D01*
X7920Y4600D01*
X6893Y3572D01*
X6610Y3149D01*
X6511Y2650D01*
Y2281D01*
X6511Y2280D01*
Y1567D01*
X6063Y846D01*
X5853Y787D01*
X2988D01*
X886Y2889D01*
Y118685D01*
X1378Y119089D01*
X2362D01*
X2700Y119156D01*
X3195Y119190D01*
X27926D01*
X28578Y118538D01*
X28578Y118538D01*
X28968Y118277D01*
X29429Y118185D01*
X29429Y118185D01*
X30844D01*
X30881Y118178D01*
X30917Y118167D01*
X30953Y118153D01*
X30990Y118135D01*
X31029Y118111D01*
X31071Y118082D01*
X31103Y118055D01*
X31159Y117971D01*
X31811Y117535D01*
X32579Y117383D01*
X33347Y117535D01*
X33998Y117971D01*
X34054Y118055D01*
X34087Y118082D01*
X34128Y118111D01*
X34167Y118135D01*
X34204Y118153D01*
X34240Y118167D01*
X34277Y118178D01*
X34313Y118185D01*
X47336D01*
X48611Y116910D01*
X48632Y116879D01*
X48650Y116846D01*
X48665Y116810D01*
X48678Y116771D01*
X48689Y116727D01*
X48698Y116677D01*
X48702Y116635D01*
X48682Y116535D01*
X48835Y115767D01*
X49270Y115116D01*
X49921Y114681D01*
X50689Y114528D01*
X51048Y114600D01*
X51835Y114059D01*
Y111969D01*
X50202Y110336D01*
X50118Y110319D01*
X49467Y109884D01*
X49031Y109233D01*
X48879Y108465D01*
X49031Y107696D01*
X49467Y107045D01*
X50118Y106610D01*
X50886Y106457D01*
X51654Y106610D01*
X52305Y107045D01*
X52740Y107696D01*
X52757Y107781D01*
X54919Y109943D01*
X55311Y110529D01*
X55448Y111221D01*
Y117759D01*
X55311Y118450D01*
X54919Y119036D01*
X49843Y124112D01*
X49257Y124504D01*
X48566Y124641D01*
X37067D01*
X19250Y142458D01*
X18664Y142850D01*
X17972Y142988D01*
X17661D01*
X17365Y143046D01*
X13386D01*
X12950Y142960D01*
X12382Y143401D01*
X12276Y143568D01*
X12342Y143898D01*
X12189Y144666D01*
X11842Y145185D01*
X11991Y145673D01*
X12190Y145973D01*
X39087Y145995D01*
X39862Y145208D01*
D02*
G37*
G36*
X180909Y104988D02*
X180921Y104841D01*
X180941Y104714D01*
X180968Y104606D01*
X181004Y104519D01*
X181047Y104451D01*
X181098Y104403D01*
X181158Y104376D01*
X181224Y104368D01*
X181299Y104379D01*
X180166Y104065D01*
X180157Y104063D01*
X180149Y104085D01*
X180141Y104131D01*
X180135Y104202D01*
X180120Y104726D01*
X180118Y105134D01*
X180905Y105155D01*
X180909Y104988D01*
D02*
G37*
G36*
X137113Y104537D02*
X137127Y104421D01*
X137149Y104310D01*
X137178Y104204D01*
X137215Y104102D01*
X137259Y104004D01*
X137311Y103911D01*
X137370Y103822D01*
X137437Y103737D01*
X137511Y103657D01*
X136975Y103079D01*
X136894Y103154D01*
X136809Y103220D01*
X136720Y103278D01*
X136627Y103327D01*
X136529Y103368D01*
X136427Y103401D01*
X136322Y103425D01*
X136212Y103440D01*
X136098Y103447D01*
X135979Y103446D01*
X137106Y104657D01*
X137113Y104537D01*
D02*
G37*
G36*
X114473Y103484D02*
X114488Y103377D01*
X114512Y103276D01*
X114546Y103179D01*
X114590Y103089D01*
X114644Y103003D01*
X114707Y102924D01*
X114780Y102849D01*
X114862Y102780D01*
X114955Y102716D01*
X113340Y102362D01*
X113405Y102466D01*
X113514Y102676D01*
X113558Y102781D01*
X113596Y102885D01*
X113627Y102991D01*
X113650Y103096D01*
X113668Y103201D01*
X113678Y103307D01*
X113681Y103412D01*
X114469Y103597D01*
X114473Y103484D01*
D02*
G37*
G36*
X133023Y103407D02*
X133112Y103333D01*
X133203Y103268D01*
X133297Y103212D01*
X133393Y103164D01*
X133493Y103125D01*
X133594Y103095D01*
X133699Y103074D01*
X133806Y103060D01*
X133915Y103056D01*
Y102269D01*
X133806Y102264D01*
X133699Y102251D01*
X133594Y102230D01*
X133493Y102199D01*
X133393Y102161D01*
X133297Y102113D01*
X133203Y102057D01*
X133112Y101992D01*
X133023Y101918D01*
X132937Y101836D01*
Y103489D01*
X133023Y103407D01*
D02*
G37*
G36*
X180431Y100827D02*
X180425Y100824D01*
X180397Y100820D01*
X180346Y100818D01*
X179357Y100808D01*
X179464Y101596D01*
X179612Y101597D01*
X180087Y101630D01*
X180178Y101645D01*
X180258Y101662D01*
X180327Y101683D01*
X180384Y101706D01*
X180431Y101732D01*
Y100827D01*
D02*
G37*
G36*
X180103Y99559D02*
X180378Y99328D01*
X180501Y99243D01*
X180615Y99178D01*
X180719Y99133D01*
X180815Y99109D01*
X180900Y99105D01*
X180976Y99122D01*
X181043Y99159D01*
X180166Y98494D01*
X180163Y98475D01*
X180143Y98475D01*
X180105Y98495D01*
X180050Y98535D01*
X179978Y98594D01*
X179657Y98890D01*
X179357Y99186D01*
X179951Y99705D01*
X180103Y99559D01*
D02*
G37*
G36*
X156358Y98328D02*
X156299Y98421D01*
X156233Y98505D01*
X156162Y98578D01*
X156085Y98642D01*
X156001Y98696D01*
X155912Y98740D01*
X155817Y98775D01*
X155716Y98799D01*
X155609Y98814D01*
X155496Y98819D01*
X155714Y99606D01*
X155819Y99610D01*
X155924Y99619D01*
X156029Y99635D01*
X156134Y99658D01*
X156240Y99687D01*
X156346Y99722D01*
X156452Y99764D01*
X156665Y99867D01*
X156772Y99929D01*
X156358Y98328D01*
D02*
G37*
G36*
X129438Y99677D02*
X129449Y99562D01*
X129467Y99452D01*
X129494Y99345D01*
X129529Y99243D01*
X129571Y99146D01*
X129622Y99052D01*
X129680Y98963D01*
X129747Y98878D01*
X129821Y98798D01*
X129264Y98241D01*
X129184Y98316D01*
X129099Y98382D01*
X129010Y98440D01*
X128917Y98491D01*
X128819Y98533D01*
X128717Y98568D01*
X128611Y98595D01*
X128500Y98613D01*
X128385Y98624D01*
X128266Y98627D01*
X129435Y99796D01*
X129438Y99677D01*
D02*
G37*
G36*
X91737Y98957D02*
X91750Y98850D01*
X91771Y98746D01*
X91802Y98644D01*
X91841Y98545D01*
X91888Y98448D01*
X91944Y98354D01*
X92010Y98263D01*
X92083Y98174D01*
X92165Y98088D01*
X90512D01*
X90594Y98174D01*
X90668Y98263D01*
X90733Y98354D01*
X90789Y98448D01*
X90837Y98545D01*
X90876Y98644D01*
X90906Y98746D01*
X90928Y98850D01*
X90941Y98957D01*
X90945Y99066D01*
X91732D01*
X91737Y98957D01*
D02*
G37*
G36*
X126586Y98387D02*
X126602Y98335D01*
X126627Y98277D01*
X126661Y98214D01*
X126705Y98146D01*
X126758Y98072D01*
X126894Y97910D01*
X127068Y97727D01*
X126514Y97167D01*
X126450Y97228D01*
X126387Y97280D01*
X126327Y97323D01*
X126269Y97357D01*
X126213Y97383D01*
X126158Y97399D01*
X126106Y97406D01*
X126056Y97404D01*
X126008Y97393D01*
X125963Y97374D01*
X126581Y98435D01*
X126586Y98387D01*
D02*
G37*
G36*
X105872Y97049D02*
X106093Y96864D01*
X106157Y96820D01*
X106217Y96786D01*
X106273Y96760D01*
X106324Y96744D01*
X106371Y96736D01*
X106414Y96738D01*
X105502Y96020D01*
X105514Y96061D01*
X105518Y96106D01*
X105512Y96154D01*
X105499Y96205D01*
X105476Y96258D01*
X105445Y96315D01*
X105405Y96375D01*
X105357Y96438D01*
X105299Y96503D01*
X105233Y96572D01*
X105790Y97129D01*
X105872Y97049D01*
D02*
G37*
G36*
X180448Y96987D02*
X180719Y96759D01*
X180843Y96674D01*
X180958Y96608D01*
X181065Y96560D01*
X181165Y96532D01*
X181256Y96522D01*
X181339Y96532D01*
X181414Y96560D01*
X180166Y95895D01*
X180149Y95961D01*
X180122Y96030D01*
X180087Y96104D01*
X180043Y96181D01*
X179990Y96262D01*
X179857Y96437D01*
X179777Y96529D01*
X179589Y96727D01*
X180301Y97129D01*
X180448Y96987D01*
D02*
G37*
G36*
X181344Y93007D02*
X181285Y93018D01*
X181214Y93011D01*
X181132Y92986D01*
X181039Y92941D01*
X180935Y92878D01*
X180819Y92796D01*
X180692Y92695D01*
X180405Y92438D01*
X180244Y92281D01*
X179687Y92837D01*
X179777Y92930D01*
X179986Y93169D01*
X180035Y93237D01*
X180074Y93299D01*
X180103Y93354D01*
X180122Y93404D01*
X180130Y93447D01*
X180129Y93484D01*
X181344Y93007D01*
D02*
G37*
G36*
X126968Y93704D02*
X127007Y93621D01*
X127056Y93547D01*
X127114Y93484D01*
X127182Y93430D01*
X127260Y93386D01*
X127347Y93351D01*
X127444Y93327D01*
X127550Y93312D01*
X127666Y93307D01*
X127522Y92520D01*
X127338Y92518D01*
X126576Y92471D01*
X126455Y92454D01*
X126247Y92411D01*
X126158Y92385D01*
X126939Y93798D01*
X126968Y93704D01*
D02*
G37*
G36*
X107725Y91796D02*
X107639Y91878D01*
X107550Y91952D01*
X107458Y92017D01*
X107364Y92073D01*
X107268Y92121D01*
X107169Y92160D01*
X107067Y92190D01*
X106963Y92212D01*
X106856Y92225D01*
X106746Y92229D01*
Y93016D01*
X106856Y93021D01*
X106963Y93034D01*
X107067Y93055D01*
X107169Y93086D01*
X107268Y93125D01*
X107364Y93172D01*
X107458Y93229D01*
X107550Y93293D01*
X107639Y93367D01*
X107725Y93449D01*
Y91796D01*
D02*
G37*
G36*
X120593Y91092D02*
X120482Y90978D01*
X120190Y90641D01*
X120106Y90530D01*
X119959Y90310D01*
X119896Y90202D01*
X119790Y89987D01*
X119209Y91526D01*
X119304Y91487D01*
X119398Y91462D01*
X119491Y91449D01*
X119583Y91449D01*
X119674Y91462D01*
X119763Y91488D01*
X119851Y91527D01*
X119938Y91579D01*
X120024Y91644D01*
X120109Y91721D01*
X120593Y91092D01*
D02*
G37*
G36*
X181242Y90408D02*
X181170Y90440D01*
X181090Y90452D01*
X181000Y90444D01*
X180902Y90417D01*
X180795Y90370D01*
X180680Y90303D01*
X180555Y90217D01*
X180422Y90111D01*
X180129Y89840D01*
X179588Y90413D01*
X179694Y90520D01*
X180156Y91048D01*
X180166Y91073D01*
X181242Y90408D01*
D02*
G37*
G36*
X124708Y91611D02*
X124789Y91533D01*
X124874Y91465D01*
X124963Y91405D01*
X125056Y91355D01*
X125152Y91313D01*
X125251Y91281D01*
X125355Y91259D01*
X125462Y91245D01*
X125573Y91240D01*
X125503Y90453D01*
X125395Y90449D01*
X125288Y90437D01*
X125183Y90417D01*
X125080Y90388D01*
X124978Y90352D01*
X124878Y90308D01*
X124779Y90256D01*
X124682Y90195D01*
X124586Y90127D01*
X124492Y90051D01*
X124630Y91698D01*
X124708Y91611D01*
D02*
G37*
G36*
X105860Y91103D02*
X105946Y91037D01*
X106035Y90980D01*
X106128Y90932D01*
X106225Y90894D01*
X106326Y90865D01*
X106431Y90845D01*
X106539Y90834D01*
X106652Y90833D01*
X106768Y90840D01*
X105713Y89567D01*
X105699Y89688D01*
X105679Y89804D01*
X105652Y89915D01*
X105619Y90022D01*
X105578Y90124D01*
X105531Y90222D01*
X105478Y90314D01*
X105418Y90403D01*
X105351Y90487D01*
X105277Y90566D01*
X105779Y91178D01*
X105860Y91103D01*
D02*
G37*
G36*
X137106Y89528D02*
X137195Y89455D01*
X137286Y89390D01*
X137380Y89333D01*
X137477Y89286D01*
X137576Y89247D01*
X137677Y89217D01*
X137782Y89195D01*
X137889Y89182D01*
X137998Y89178D01*
Y88390D01*
X137889Y88386D01*
X137782Y88373D01*
X137677Y88351D01*
X137576Y88321D01*
X137477Y88282D01*
X137380Y88234D01*
X137286Y88178D01*
X137195Y88113D01*
X137106Y88039D01*
X137020Y87957D01*
Y89611D01*
X137106Y89528D01*
D02*
G37*
G36*
X180386Y88832D02*
X180348Y88754D01*
X180272Y88634D01*
X180871Y87810D01*
X180819Y87862D01*
X180756Y87891D01*
X180681Y87897D01*
X180594Y87881D01*
X180495Y87843D01*
X180385Y87781D01*
X180263Y87697D01*
X180129Y87591D01*
X179983Y87462D01*
X179826Y87310D01*
X179313Y87910D01*
X179581Y88176D01*
X180347Y88859D01*
X180385Y88867D01*
X180386Y88832D01*
D02*
G37*
G36*
X118995Y85734D02*
X118561Y85419D01*
X117754Y86862D01*
X117779Y86861D01*
X117813Y86870D01*
X117854Y86890D01*
X117903Y86921D01*
X117960Y86962D01*
X118097Y87076D01*
X118264Y87232D01*
X118360Y87327D01*
X118995Y85734D01*
D02*
G37*
G36*
X134019Y88056D02*
X134013Y87947D01*
X134017Y87841D01*
X134031Y87738D01*
X134056Y87639D01*
X134091Y87543D01*
X134136Y87451D01*
X134191Y87362D01*
X134257Y87276D01*
X134333Y87193D01*
X133671Y86741D01*
X133593Y86814D01*
X133510Y86881D01*
X133423Y86943D01*
X133331Y86999D01*
X133234Y87050D01*
X133133Y87095D01*
X133027Y87135D01*
X132916Y87169D01*
X132800Y87198D01*
X132680Y87221D01*
X134035Y88168D01*
X134019Y88056D01*
D02*
G37*
G36*
X130914Y88032D02*
X130931Y87916D01*
X130955Y87805D01*
X130986Y87699D01*
X131025Y87596D01*
X131070Y87499D01*
X131123Y87405D01*
X131182Y87317D01*
X131249Y87233D01*
X131323Y87153D01*
X130803Y86559D01*
X130722Y86634D01*
X130637Y86700D01*
X130547Y86758D01*
X130454Y86806D01*
X130357Y86846D01*
X130255Y86877D01*
X130150Y86899D01*
X130041Y86912D01*
X129927Y86917D01*
X129810Y86913D01*
X130904Y88152D01*
X130914Y88032D01*
D02*
G37*
G36*
X105763Y87615D02*
X105848Y87548D01*
X105937Y87490D01*
X106031Y87439D01*
X106128Y87397D01*
X106230Y87362D01*
X106337Y87335D01*
X106447Y87317D01*
X106562Y87306D01*
X106681Y87303D01*
X105512Y86134D01*
X105509Y86253D01*
X105498Y86368D01*
X105480Y86478D01*
X105453Y86585D01*
X105419Y86687D01*
X105376Y86784D01*
X105325Y86878D01*
X105267Y86967D01*
X105200Y87052D01*
X105126Y87132D01*
X105683Y87689D01*
X105763Y87615D01*
D02*
G37*
G36*
X78612Y86975D02*
X78622Y86861D01*
X78641Y86750D01*
X78668Y86644D01*
X78702Y86542D01*
X78745Y86444D01*
X78795Y86351D01*
X78854Y86261D01*
X78920Y86177D01*
X78995Y86096D01*
X78438Y85539D01*
X78357Y85614D01*
X78273Y85680D01*
X78184Y85739D01*
X78090Y85789D01*
X77992Y85832D01*
X77890Y85866D01*
X77784Y85893D01*
X77674Y85912D01*
X77559Y85922D01*
X77440Y85925D01*
X78609Y87094D01*
X78612Y86975D01*
D02*
G37*
G36*
X83589Y85098D02*
X83501Y84879D01*
X83465Y84771D01*
X83410Y84557D01*
X83391Y84451D01*
X83369Y84243D01*
X83366Y84140D01*
X82579Y83843D01*
X82574Y83956D01*
X82559Y84063D01*
X82534Y84163D01*
X82499Y84256D01*
X82454Y84341D01*
X82399Y84420D01*
X82335Y84491D01*
X82260Y84556D01*
X82175Y84613D01*
X82081Y84663D01*
X83641Y85209D01*
X83589Y85098D01*
D02*
G37*
G36*
X95738Y84557D02*
X95786Y84473D01*
X95843Y84398D01*
X95908Y84333D01*
X95981Y84278D01*
X96063Y84233D01*
X96153Y84198D01*
X96251Y84174D01*
X96358Y84158D01*
X96472Y84153D01*
X96077Y83366D01*
X95973Y83364D01*
X95764Y83347D01*
X95660Y83332D01*
X95448Y83289D01*
X95342Y83262D01*
X95128Y83194D01*
X95020Y83153D01*
X95698Y84652D01*
X95738Y84557D01*
D02*
G37*
G36*
X88643Y83891D02*
X88647Y83783D01*
X88659Y83676D01*
X88680Y83571D01*
X88709Y83468D01*
X88747Y83368D01*
X88792Y83269D01*
X88846Y83172D01*
X88909Y83078D01*
X88980Y82985D01*
X89059Y82894D01*
X87407Y82972D01*
X87492Y83053D01*
X87568Y83138D01*
X87636Y83226D01*
X87694Y83317D01*
X87743Y83412D01*
X87783Y83509D01*
X87815Y83610D01*
X87837Y83714D01*
X87851Y83821D01*
X87855Y83931D01*
X88643Y83891D01*
D02*
G37*
G36*
X180431Y82638D02*
X180406Y82649D01*
X180368Y82659D01*
X180315Y82668D01*
X180168Y82682D01*
X179843Y82695D01*
X179556Y82697D01*
Y83484D01*
X179706Y83485D01*
X180406Y83532D01*
X180431Y83543D01*
Y82638D01*
D02*
G37*
G36*
X154410Y82375D02*
X154369Y82470D01*
X154320Y82555D01*
X154263Y82630D01*
X154198Y82695D01*
X154125Y82749D01*
X154043Y82794D01*
X153953Y82829D01*
X153855Y82854D01*
X153748Y82869D01*
X153633Y82874D01*
X154025Y83661D01*
X154128Y83664D01*
X154336Y83681D01*
X154441Y83696D01*
X154653Y83739D01*
X154760Y83767D01*
X154975Y83836D01*
X155084Y83877D01*
X154410Y82375D01*
D02*
G37*
G36*
X180431Y80040D02*
X180401Y80055D01*
X180357Y80068D01*
X180300Y80080D01*
X180230Y80090D01*
X180049Y80106D01*
X179677Y80117D01*
X179526Y80118D01*
X179585Y80905D01*
X180431Y80944D01*
Y80040D01*
D02*
G37*
G36*
X90949Y80961D02*
X90951Y80777D01*
X90998Y80015D01*
X91015Y79894D01*
X91058Y79686D01*
X91084Y79597D01*
X89671Y80377D01*
X89764Y80407D01*
X89848Y80446D01*
X89921Y80495D01*
X89985Y80553D01*
X90039Y80621D01*
X90083Y80699D01*
X90118Y80786D01*
X90142Y80883D01*
X90157Y80989D01*
X90162Y81105D01*
X90949Y80961D01*
D02*
G37*
G36*
X98803Y107650D02*
X99485Y107052D01*
Y93484D01*
X99485Y93484D01*
X99576Y93023D01*
X99837Y92632D01*
X102363Y90106D01*
Y89247D01*
X102363Y89247D01*
X102455Y88787D01*
X102716Y88396D01*
X104615Y86497D01*
X104636Y86466D01*
X104654Y86432D01*
X104669Y86397D01*
X104682Y86358D01*
X104693Y86314D01*
X104702Y86263D01*
X104706Y86222D01*
X104686Y86122D01*
X104760Y85751D01*
X104257Y85013D01*
X104174Y84964D01*
X96452D01*
X96441Y85020D01*
X96006Y85671D01*
X95355Y86106D01*
X94587Y86259D01*
X93819Y86106D01*
X93167Y85671D01*
X92732Y85020D01*
X92580Y84252D01*
X92732Y83484D01*
X93167Y82833D01*
X93819Y82398D01*
X94587Y82245D01*
X95355Y82398D01*
X95428Y82447D01*
X95565Y82490D01*
X95628Y82507D01*
X95795Y82541D01*
X95854Y82549D01*
X95937Y82556D01*
X104414D01*
X104719Y82352D01*
X105180Y82260D01*
X105180Y82260D01*
X107376D01*
X107376Y82260D01*
X107837Y82352D01*
X108228Y82613D01*
X110497Y84883D01*
X110497Y84883D01*
X110758Y85273D01*
X110850Y85734D01*
Y88970D01*
X111777Y89897D01*
X111791Y89917D01*
X111815Y89939D01*
X112705Y90139D01*
X112800Y90118D01*
X113011Y89976D01*
X113779Y89824D01*
X114548Y89976D01*
X115199Y90412D01*
X115634Y91063D01*
X115639Y91088D01*
X116143Y91190D01*
X116717Y90543D01*
X116700Y90457D01*
X116852Y89689D01*
X117287Y89038D01*
X117595Y88832D01*
X117659Y88491D01*
X117421Y87735D01*
X116653Y87583D01*
X116002Y87148D01*
X115567Y86496D01*
X115414Y85728D01*
X115567Y84960D01*
X116002Y84309D01*
X116653Y83874D01*
X117421Y83721D01*
X118189Y83874D01*
X118841Y84309D01*
X119070Y84652D01*
X120907Y86489D01*
X124809D01*
X124819Y86437D01*
X125254Y85786D01*
X125276Y85567D01*
X122625Y82916D01*
X121139D01*
X120678Y82824D01*
X120288Y82564D01*
X117146Y79422D01*
X111527D01*
X111491Y79429D01*
X111454Y79440D01*
X111418Y79454D01*
X111381Y79473D01*
X111342Y79496D01*
X111301Y79525D01*
X111269Y79552D01*
X111212Y79637D01*
X110561Y80072D01*
X109793Y80225D01*
X109025Y80072D01*
X108374Y79637D01*
X107565Y79843D01*
X107171Y80106D01*
X106403Y80259D01*
X105635Y80106D01*
X105248Y79848D01*
X104475Y79769D01*
X103824Y80204D01*
X103056Y80357D01*
X102288Y80204D01*
X101637Y79769D01*
X101202Y79118D01*
X101049Y78350D01*
X101202Y77582D01*
X101637Y76931D01*
X102288Y76496D01*
X102391Y76476D01*
X102506Y76303D01*
X104720Y74089D01*
X104419Y73361D01*
X99094D01*
X98959Y73565D01*
X98307Y74000D01*
X97539Y74153D01*
X96771Y74000D01*
X96700Y73952D01*
X86944D01*
Y79171D01*
X87732Y79584D01*
X87953Y79431D01*
X87977Y79351D01*
X87954Y79232D01*
X88106Y78464D01*
X88541Y77813D01*
X89193Y77378D01*
X89961Y77225D01*
X90729Y77378D01*
X91380Y77813D01*
X91815Y78464D01*
X91968Y79232D01*
X91859Y79781D01*
X91855Y79820D01*
X91855Y79820D01*
X91855Y79821D01*
X91841Y79869D01*
X91815Y80000D01*
X91812Y80004D01*
X91806Y80033D01*
X91797Y80097D01*
X91760Y80699D01*
Y90354D01*
X96127Y94722D01*
X96388Y95112D01*
X96480Y95573D01*
X96480Y95573D01*
Y105604D01*
X98100Y107224D01*
X98100Y107224D01*
X98317Y107548D01*
X98764Y107663D01*
X98803Y107650D01*
D02*
G37*
G36*
X129733Y79300D02*
X129755Y79224D01*
X129790Y79156D01*
X129836Y79098D01*
X129894Y79049D01*
X129964Y79009D01*
X130046Y78977D01*
X130141Y78955D01*
X130247Y78942D01*
X130366Y78937D01*
X130132Y78150D01*
X128763Y78170D01*
X129723Y79385D01*
X129733Y79300D01*
D02*
G37*
G36*
X180431Y77441D02*
X180406Y77452D01*
X180368Y77463D01*
X180315Y77471D01*
X180168Y77485D01*
X179843Y77498D01*
X179556Y77500D01*
Y78287D01*
X179706Y78288D01*
X180406Y78335D01*
X180431Y78346D01*
Y77441D01*
D02*
G37*
G36*
X110723Y78962D02*
X110811Y78888D01*
X110903Y78823D01*
X110997Y78767D01*
X111093Y78720D01*
X111193Y78680D01*
X111294Y78650D01*
X111399Y78628D01*
X111506Y78615D01*
X111615Y78611D01*
Y77824D01*
X111506Y77820D01*
X111399Y77807D01*
X111294Y77785D01*
X111193Y77754D01*
X111093Y77715D01*
X110997Y77668D01*
X110903Y77612D01*
X110811Y77547D01*
X110723Y77473D01*
X110636Y77391D01*
Y79044D01*
X110723Y78962D01*
D02*
G37*
G36*
X159784Y78820D02*
X159870Y78754D01*
X159959Y78699D01*
X160051Y78655D01*
X160146Y78622D01*
X160245Y78599D01*
X160346Y78587D01*
X160451Y78585D01*
X160558Y78594D01*
X160669Y78614D01*
X159767Y77228D01*
X159740Y77347D01*
X159671Y77573D01*
X159629Y77679D01*
X159581Y77780D01*
X159529Y77876D01*
X159472Y77967D01*
X159410Y78054D01*
X159342Y78136D01*
X159270Y78213D01*
X159701Y78896D01*
X159784Y78820D01*
D02*
G37*
G36*
X107552Y77939D02*
X107548Y77829D01*
X107553Y77723D01*
X107568Y77620D01*
X107594Y77520D01*
X107629Y77424D01*
X107675Y77331D01*
X107730Y77242D01*
X107796Y77156D01*
X107872Y77074D01*
X107220Y76613D01*
X107141Y76685D01*
X107059Y76753D01*
X106971Y76814D01*
X106879Y76870D01*
X106782Y76920D01*
X106680Y76964D01*
X106574Y77003D01*
X106463Y77035D01*
X106347Y77062D01*
X106227Y77084D01*
X107567Y78052D01*
X107552Y77939D01*
D02*
G37*
G36*
X180431Y74843D02*
X180406Y74854D01*
X180368Y74864D01*
X180315Y74873D01*
X180168Y74887D01*
X179843Y74899D01*
X179556Y74902D01*
Y75689D01*
X179706Y75690D01*
X180406Y75736D01*
X180431Y75748D01*
Y74843D01*
D02*
G37*
G36*
X48172Y74272D02*
X48086Y74354D01*
X47997Y74427D01*
X47906Y74493D01*
X47812Y74549D01*
X47715Y74597D01*
X47616Y74635D01*
X47514Y74666D01*
X47410Y74687D01*
X47303Y74700D01*
X47194Y74705D01*
X47194Y75492D01*
X47303Y75497D01*
X47410Y75509D01*
X47514Y75531D01*
X47616Y75561D01*
X47715Y75600D01*
X47812Y75648D01*
X47906Y75704D01*
X47997Y75769D01*
X48086Y75843D01*
X48172Y75925D01*
X48172Y74272D01*
D02*
G37*
G36*
X52149Y73622D02*
X52030Y73620D01*
X51916Y73609D01*
X51805Y73591D01*
X51699Y73565D01*
X51597Y73530D01*
X51499Y73488D01*
X51406Y73437D01*
X51317Y73379D01*
X51232Y73312D01*
X51151Y73238D01*
X50597Y73797D01*
X50671Y73877D01*
X50737Y73962D01*
X50796Y74051D01*
X50847Y74145D01*
X50889Y74242D01*
X50924Y74344D01*
X50951Y74451D01*
X50970Y74561D01*
X50981Y74676D01*
X50984Y74795D01*
X52149Y73622D01*
D02*
G37*
G36*
X10712Y70588D02*
X10643Y70517D01*
X10531Y70388D01*
X10487Y70329D01*
X10452Y70274D01*
X10426Y70224D01*
X10407Y70177D01*
X10397Y70134D01*
X10396Y70096D01*
X10403Y70061D01*
X9617Y70818D01*
X9652Y70813D01*
X9691Y70816D01*
X9734Y70827D01*
X9781Y70847D01*
X9833Y70876D01*
X9889Y70912D01*
X9949Y70958D01*
X10082Y71074D01*
X10155Y71145D01*
X10712Y70588D01*
D02*
G37*
G36*
X52757Y70612D02*
X52706Y70624D01*
X52580Y70643D01*
X52420Y70657D01*
X52000Y70672D01*
X51874Y70673D01*
X51202Y71460D01*
X51319Y71465D01*
X51425Y71479D01*
X51520Y71503D01*
X51605Y71536D01*
X51679Y71579D01*
X51742Y71631D01*
X51794Y71693D01*
X51836Y71764D01*
X51866Y71844D01*
X51886Y71935D01*
X52757Y70612D01*
D02*
G37*
G36*
X175006Y70538D02*
X174929Y70560D01*
X174853Y70571D01*
X174776Y70572D01*
X174700Y70563D01*
X174624Y70543D01*
X174547Y70514D01*
X174471Y70474D01*
X174395Y70424D01*
X174319Y70363D01*
X174243Y70293D01*
X173739Y70901D01*
X173823Y70990D01*
X173968Y71164D01*
X174028Y71250D01*
X174080Y71336D01*
X174124Y71421D01*
X174160Y71504D01*
X174187Y71587D01*
X174206Y71670D01*
X174217Y71751D01*
X175006Y70538D01*
D02*
G37*
G36*
X125872Y70881D02*
X125781Y70812D01*
X125699Y70738D01*
X125628Y70660D01*
X125566Y70577D01*
X125513Y70489D01*
X125470Y70396D01*
X125437Y70298D01*
X125413Y70196D01*
X125399Y70089D01*
X125394Y69977D01*
X124606Y70119D01*
X124603Y70225D01*
X124592Y70331D01*
X124573Y70437D01*
X124548Y70541D01*
X124515Y70645D01*
X124475Y70749D01*
X124427Y70852D01*
X124373Y70954D01*
X124311Y71056D01*
X124241Y71157D01*
X125872Y70881D01*
D02*
G37*
G36*
X131096Y70824D02*
X131003Y70765D01*
X130919Y70700D01*
X130845Y70629D01*
X130781Y70552D01*
X130727Y70469D01*
X130683Y70380D01*
X130649Y70285D01*
X130624Y70184D01*
X130609Y70077D01*
X130604Y69964D01*
X129817Y70187D01*
X129814Y70292D01*
X129804Y70396D01*
X129788Y70502D01*
X129766Y70607D01*
X129737Y70713D01*
X129702Y70819D01*
X129660Y70925D01*
X129558Y71139D01*
X129497Y71246D01*
X131096Y70824D01*
D02*
G37*
G36*
X180431Y69646D02*
X180406Y69657D01*
X180368Y69667D01*
X180315Y69676D01*
X180168Y69690D01*
X179843Y69702D01*
X179556Y69705D01*
Y70492D01*
X179706Y70493D01*
X180406Y70539D01*
X180431Y70551D01*
Y69646D01*
D02*
G37*
G36*
X116678Y70626D02*
X116767Y70553D01*
X116858Y70488D01*
X116952Y70432D01*
X117048Y70384D01*
X117148Y70345D01*
X117249Y70315D01*
X117354Y70293D01*
X117461Y70280D01*
X117570Y70276D01*
Y69488D01*
X117461Y69484D01*
X117354Y69471D01*
X117249Y69449D01*
X117148Y69419D01*
X117048Y69380D01*
X116952Y69332D01*
X116858Y69276D01*
X116767Y69211D01*
X116678Y69137D01*
X116592Y69055D01*
Y70709D01*
X116678Y70626D01*
D02*
G37*
G36*
X127301Y68662D02*
X127278Y68666D01*
X127250Y68662D01*
X127217Y68651D01*
X127179Y68632D01*
X127137Y68605D01*
X127090Y68571D01*
X126981Y68479D01*
X126853Y68357D01*
X126296Y68914D01*
X126361Y68980D01*
X126510Y69150D01*
X126544Y69197D01*
X126571Y69240D01*
X126590Y69277D01*
X126602Y69310D01*
X126605Y69338D01*
X126602Y69361D01*
X127301Y68662D01*
D02*
G37*
G36*
X148952Y71786D02*
X148952Y71786D01*
X149342Y71525D01*
X149803Y71434D01*
X155593D01*
X157307Y69719D01*
X157697Y69458D01*
X158158Y69367D01*
X172740D01*
X173161Y68579D01*
X173126Y68527D01*
X145231D01*
X145161Y68878D01*
X144726Y69529D01*
X144075Y69964D01*
X143307Y70117D01*
X142539Y69964D01*
X141888Y69529D01*
X141827Y69439D01*
X141577Y69234D01*
X140926Y69669D01*
X140157Y69822D01*
X139389Y69669D01*
X138738Y69234D01*
X138303Y68583D01*
X138150Y67815D01*
X138182Y67654D01*
X138023Y66843D01*
X137666Y66583D01*
X137367Y66383D01*
X136932Y65732D01*
X136064Y65404D01*
X136011Y65440D01*
X135243Y65593D01*
X134475Y65440D01*
X133801Y65937D01*
X133703Y66085D01*
Y66445D01*
X134138Y67096D01*
X134291Y67864D01*
X134138Y68632D01*
X133703Y69283D01*
X133052Y69718D01*
X132414Y69845D01*
X132323Y69956D01*
X132174Y70250D01*
X132064Y70630D01*
X132366Y71082D01*
X132519Y71850D01*
X132445Y72221D01*
X132981Y73008D01*
X147730D01*
X148952Y71786D01*
D02*
G37*
G36*
X13430Y69248D02*
X13519Y69175D01*
X13610Y69110D01*
X13704Y69054D01*
X13800Y69006D01*
X13900Y68967D01*
X14001Y68937D01*
X14106Y68915D01*
X14213Y68902D01*
X14322Y68898D01*
Y68110D01*
X14213Y68106D01*
X14106Y68093D01*
X14001Y68071D01*
X13900Y68041D01*
X13800Y68002D01*
X13704Y67954D01*
X13610Y67898D01*
X13519Y67833D01*
X13430Y67760D01*
X13343Y67677D01*
Y69331D01*
X13430Y69248D01*
D02*
G37*
G36*
X52503Y68537D02*
X52583Y68469D01*
X52667Y68405D01*
X52757Y68345D01*
X52949Y68237D01*
X53053Y68188D01*
X53273Y68102D01*
X53390Y68064D01*
X51929Y67292D01*
X51957Y67397D01*
X51973Y67499D01*
X51978Y67600D01*
X51971Y67698D01*
X51953Y67793D01*
X51923Y67887D01*
X51881Y67977D01*
X51828Y68066D01*
X51762Y68152D01*
X51686Y68236D01*
X52427Y68608D01*
X52503Y68537D01*
D02*
G37*
G36*
X180431Y67048D02*
X180406Y67059D01*
X180368Y67069D01*
X180315Y67078D01*
X180168Y67092D01*
X179843Y67104D01*
X179556Y67106D01*
Y67894D01*
X179706Y67894D01*
X180406Y67941D01*
X180431Y67952D01*
Y67048D01*
D02*
G37*
G36*
X109058Y68464D02*
X109071Y68397D01*
X109093Y68326D01*
X109125Y68253D01*
X109167Y68177D01*
X109218Y68097D01*
X109278Y68014D01*
X109348Y67928D01*
X109516Y67747D01*
X108681Y66912D01*
X108589Y67001D01*
X108414Y67150D01*
X108331Y67211D01*
X108252Y67262D01*
X108175Y67303D01*
X108102Y67335D01*
X108032Y67357D01*
X107965Y67370D01*
X107900Y67374D01*
X109055Y68528D01*
X109058Y68464D01*
D02*
G37*
G36*
X132171Y66688D02*
X132055Y66695D01*
X131942Y66693D01*
X131833Y66681D01*
X131728Y66661D01*
X131628Y66631D01*
X131530Y66592D01*
X131437Y66545D01*
X131348Y66488D01*
X131262Y66422D01*
X131181Y66347D01*
X130674Y66954D01*
X130748Y67033D01*
X130815Y67117D01*
X130875Y67205D01*
X130928Y67299D01*
X130975Y67396D01*
X131015Y67498D01*
X131047Y67605D01*
X131074Y67716D01*
X131093Y67832D01*
X131106Y67953D01*
X132171Y66688D01*
D02*
G37*
G36*
X141225Y67286D02*
X141204Y67187D01*
X141195Y67090D01*
X141198Y66995D01*
X141214Y66901D01*
X141242Y66810D01*
X141282Y66720D01*
X141335Y66632D01*
X141400Y66546D01*
X141477Y66462D01*
X140692Y66133D01*
X140618Y66204D01*
X140456Y66336D01*
X140369Y66397D01*
X140181Y66512D01*
X140080Y66565D01*
X139865Y66662D01*
X139751Y66706D01*
X141258Y67386D01*
X141225Y67286D01*
D02*
G37*
G36*
X15479Y78086D02*
X15870Y77824D01*
X16331Y77733D01*
X16331Y77733D01*
X25832D01*
X25832Y77733D01*
X26292Y77824D01*
X26450Y77930D01*
X53012D01*
X56867Y74075D01*
Y66069D01*
X55546Y64749D01*
X55285Y64358D01*
X55193Y63897D01*
X55193Y63897D01*
Y63272D01*
X55187Y63262D01*
X55095Y62801D01*
X55095Y62801D01*
Y58968D01*
X55095Y58968D01*
X55187Y58507D01*
X55448Y58117D01*
X56768Y56796D01*
Y55641D01*
X56763Y55619D01*
X56756Y55598D01*
X56748Y55580D01*
X56738Y55563D01*
X56723Y55544D01*
X56703Y55522D01*
X56675Y55496D01*
X56613Y55448D01*
X56579Y55409D01*
X56365Y55266D01*
X55930Y54615D01*
X55777Y53847D01*
X55930Y53079D01*
X56365Y52428D01*
X57016Y51993D01*
X57784Y51840D01*
X57833Y51850D01*
X58442Y51350D01*
Y47871D01*
X58441Y47871D01*
X58533Y47411D01*
X58794Y47020D01*
X60902Y44912D01*
Y40163D01*
X60902Y40163D01*
X60994Y39702D01*
X61255Y39312D01*
X61741Y38825D01*
X61436Y38368D01*
X61283Y37600D01*
X61436Y36832D01*
X61871Y36181D01*
X62522Y35746D01*
X63290Y35593D01*
X64059Y35746D01*
X64710Y36181D01*
X65145Y36832D01*
X65298Y37600D01*
X65149Y38349D01*
X65145Y38371D01*
X65149Y38387D01*
X66048Y38778D01*
X66096Y38751D01*
X66301Y38445D01*
X66952Y38010D01*
X67720Y37857D01*
X68488Y38010D01*
X69139Y38445D01*
X69465Y38933D01*
X70253Y38778D01*
Y27276D01*
X68591Y25615D01*
X64863D01*
X64863Y25615D01*
X64402Y25523D01*
X64012Y25262D01*
X63546Y24796D01*
X62818Y25098D01*
Y29626D01*
X62818Y29626D01*
X62727Y30087D01*
X62466Y30477D01*
X62466Y30478D01*
X59512Y33432D01*
X59121Y33693D01*
X58660Y33784D01*
X58660Y33784D01*
X53502D01*
X53095Y34393D01*
X52444Y34828D01*
X51676Y34981D01*
X50908Y34828D01*
X50257Y34393D01*
X49821Y33742D01*
X49669Y32974D01*
X49821Y32206D01*
X50257Y31555D01*
X50908Y31120D01*
X51676Y30967D01*
X52444Y31120D01*
X52561Y31198D01*
X52625Y31228D01*
X52800Y31298D01*
X52859Y31317D01*
X53019Y31358D01*
X53067Y31367D01*
X53156Y31376D01*
X58161D01*
X60410Y29127D01*
Y21660D01*
X60271Y21521D01*
X60226Y21453D01*
X59703Y21104D01*
X59268Y20453D01*
X59115Y19685D01*
X58892Y19413D01*
X57766D01*
Y21649D01*
X57775Y21703D01*
X57788Y21760D01*
X57805Y21820D01*
X57827Y21882D01*
X57850Y21937D01*
X57930Y22092D01*
X57978Y22172D01*
X58000Y22230D01*
X58153Y22460D01*
X58306Y23228D01*
X58153Y23996D01*
X57718Y24647D01*
X57067Y25082D01*
X56299Y25235D01*
X55531Y25082D01*
X54880Y24647D01*
X54445Y23996D01*
X54292Y23228D01*
X54445Y22460D01*
X54880Y21809D01*
X55180Y21608D01*
X55231Y21557D01*
X55293Y21515D01*
X55315Y21497D01*
X55329Y21482D01*
X55338Y21471D01*
X55344Y21462D01*
X55349Y21452D01*
X55354Y21438D01*
X55358Y21421D01*
Y18635D01*
X55358Y18635D01*
X55450Y18174D01*
X55711Y17783D01*
X56137Y17357D01*
X56137Y17357D01*
X56527Y17096D01*
X56988Y17004D01*
X56988Y17004D01*
X58759D01*
X59292Y16471D01*
X59683Y16210D01*
X60144Y16119D01*
X60144Y16119D01*
X64283D01*
X64609Y15331D01*
X63722Y14445D01*
X63268Y14748D01*
X62500Y14901D01*
X61732Y14748D01*
X61081Y14313D01*
X60878Y14009D01*
X60030Y13818D01*
X59898Y13851D01*
X59382Y14196D01*
X58691Y14333D01*
X57869D01*
X57817Y14411D01*
X57555Y14586D01*
X52003Y20138D01*
Y22980D01*
X52248Y23346D01*
X52401Y24114D01*
X52248Y24882D01*
X51813Y25533D01*
X51632Y25654D01*
X51871Y26442D01*
X55958D01*
X55963Y26435D01*
X56614Y26000D01*
X57382Y25847D01*
X58150Y26000D01*
X58801Y26435D01*
X59236Y27086D01*
X59389Y27854D01*
X59236Y28622D01*
X58801Y29274D01*
X58150Y29709D01*
X57772Y29784D01*
X57573Y29917D01*
X56882Y30054D01*
X46811D01*
X45962Y30903D01*
X45376Y31295D01*
X44685Y31432D01*
X33302D01*
Y36697D01*
X33331Y36950D01*
X33388Y37252D01*
X33468Y37542D01*
X33571Y37822D01*
X33696Y38092D01*
X33845Y38354D01*
X34018Y38608D01*
X34176Y38807D01*
X34542Y39172D01*
X34626Y39189D01*
X35278Y39624D01*
X35713Y40275D01*
X35865Y41043D01*
X35713Y41811D01*
X35278Y42463D01*
X34626Y42898D01*
X33858Y43050D01*
X33302Y43507D01*
Y52952D01*
X33417Y53474D01*
X34222Y53658D01*
X34311Y53598D01*
X35079Y53446D01*
X35847Y53598D01*
X36498Y54033D01*
X36933Y54685D01*
X37086Y55453D01*
X36933Y56221D01*
X36498Y56872D01*
X35847Y57307D01*
X35079Y57460D01*
X34448Y57334D01*
X34220D01*
X33310Y58245D01*
X33636Y59032D01*
X46547D01*
X47082Y58245D01*
X47009Y57874D01*
X47161Y57106D01*
X47597Y56455D01*
X47681Y56398D01*
X47708Y56366D01*
X47737Y56325D01*
X47761Y56286D01*
X47779Y56249D01*
X47793Y56213D01*
X47804Y56176D01*
X47811Y56140D01*
Y50596D01*
X47811Y50596D01*
X47903Y50135D01*
X48164Y49745D01*
X48197Y49712D01*
X48016Y48779D01*
X47695Y48565D01*
X47260Y47914D01*
X47107Y47146D01*
X47260Y46378D01*
X47447Y46098D01*
X43224Y41875D01*
X43201Y41861D01*
X43178Y41849D01*
X43154Y41840D01*
X43130Y41834D01*
X43100Y41828D01*
X43065Y41826D01*
X43021Y41826D01*
X42939Y41833D01*
X42912Y41830D01*
X42717Y41869D01*
X41949Y41717D01*
X41297Y41281D01*
X40862Y40630D01*
X40709Y39862D01*
X40862Y39094D01*
X41297Y38443D01*
X41949Y38008D01*
X42717Y37855D01*
X43485Y38008D01*
X44136Y38443D01*
X44571Y39094D01*
X44664Y39561D01*
X44686Y39626D01*
X44699Y39723D01*
X44713Y39792D01*
X44729Y39854D01*
X44748Y39911D01*
X44769Y39961D01*
X44792Y40008D01*
X44816Y40050D01*
X44843Y40089D01*
X50261Y45507D01*
X50578Y45571D01*
X51112Y45610D01*
X54688Y42034D01*
X54678Y41909D01*
X54409Y41253D01*
X54378Y41231D01*
X53860Y41128D01*
X53464Y40863D01*
X53402Y40832D01*
X53324Y40773D01*
X53266Y40734D01*
X53210Y40701D01*
X53157Y40675D01*
X53107Y40654D01*
X53058Y40637D01*
X53010Y40625D01*
X52964Y40616D01*
X51215D01*
X51196Y40620D01*
X51180Y40626D01*
X51167Y40632D01*
X51155Y40640D01*
X51141Y40651D01*
X51124Y40667D01*
X51103Y40692D01*
X51059Y40754D01*
X51010Y40800D01*
X50831Y41068D01*
X50180Y41503D01*
X49412Y41656D01*
X48644Y41503D01*
X47993Y41068D01*
X47558Y40417D01*
X47405Y39649D01*
X47558Y38881D01*
X47993Y38229D01*
X48644Y37794D01*
X49412Y37642D01*
X50180Y37794D01*
X50439Y37967D01*
X50505Y37993D01*
X50592Y38049D01*
X50660Y38087D01*
X50724Y38120D01*
X50787Y38147D01*
X50846Y38169D01*
X50903Y38186D01*
X50959Y38199D01*
X51011Y38208D01*
X52847D01*
X52873Y38202D01*
X52898Y38194D01*
X52921Y38183D01*
X52943Y38170D01*
X52968Y38153D01*
X52995Y38130D01*
X53025Y38100D01*
X53078Y38036D01*
X53099Y38019D01*
X53209Y37854D01*
X53860Y37419D01*
X54629Y37266D01*
X55397Y37419D01*
X56048Y37854D01*
X56483Y38505D01*
X56525Y38719D01*
X56988Y39430D01*
X57756Y39583D01*
X58407Y40018D01*
X58842Y40669D01*
X58995Y41437D01*
X58842Y42205D01*
X58407Y42856D01*
X57756Y43291D01*
X56988Y43444D01*
X56888Y43424D01*
X56847Y43428D01*
X56797Y43437D01*
X56753Y43448D01*
X56713Y43461D01*
X56678Y43476D01*
X56645Y43494D01*
X56613Y43515D01*
X52681Y47448D01*
Y48136D01*
X52681Y48136D01*
X52984Y48589D01*
X53229Y48638D01*
X53880Y49073D01*
X54315Y49724D01*
X54468Y50492D01*
X54315Y51260D01*
X53880Y51911D01*
X53229Y52346D01*
X52461Y52499D01*
X52287Y53268D01*
Y56130D01*
X52491Y56435D01*
X52582Y56896D01*
X52582Y56896D01*
Y58852D01*
X52491Y59313D01*
X52229Y59704D01*
X52229Y59704D01*
X52081Y59853D01*
X52081Y59853D01*
X50846Y61088D01*
X50455Y61349D01*
X49994Y61440D01*
X49994Y61440D01*
X48917D01*
X48917Y61440D01*
X48917Y61440D01*
X33570D01*
X29887Y65123D01*
X29496Y65384D01*
X29036Y65476D01*
X29036Y65476D01*
X26998D01*
X26759Y66263D01*
X27109Y66497D01*
X27545Y67149D01*
X27585Y67351D01*
X45028D01*
X45314Y67065D01*
X45314Y67065D01*
X45704Y66804D01*
X46165Y66712D01*
X46165Y66712D01*
X47960D01*
X48050Y66263D01*
X48485Y65611D01*
X49136Y65176D01*
X49904Y65024D01*
X50672Y65176D01*
X50838Y65288D01*
X51635Y65513D01*
X52286Y65078D01*
X53054Y64925D01*
X53822Y65078D01*
X54473Y65513D01*
X54908Y66164D01*
X55061Y66932D01*
X54908Y67700D01*
X54473Y68352D01*
X53822Y68787D01*
X53717Y68807D01*
X53553Y69071D01*
X53639Y69468D01*
X53822Y69901D01*
X54473Y70336D01*
X54908Y70987D01*
X55061Y71755D01*
X54908Y72523D01*
X54473Y73175D01*
X54400Y73223D01*
X54020Y74035D01*
X54172Y74803D01*
X54020Y75571D01*
X53585Y76222D01*
X52933Y76657D01*
X52165Y76810D01*
X51397Y76657D01*
X51322Y76607D01*
X50435Y76518D01*
X49784Y76953D01*
X49016Y77105D01*
X48248Y76953D01*
X47596Y76518D01*
X47540Y76433D01*
X47508Y76406D01*
X47466Y76377D01*
X47427Y76354D01*
X47390Y76335D01*
X47354Y76321D01*
X47318Y76310D01*
X47281Y76303D01*
X20158D01*
X20158Y76303D01*
X19697Y76211D01*
X19306Y75950D01*
X15427Y72070D01*
X11065D01*
X10739Y72858D01*
X11021Y73140D01*
X11413Y73726D01*
X11550Y74418D01*
Y80901D01*
X12319Y81246D01*
X15479Y78086D01*
D02*
G37*
G36*
X180431Y64449D02*
X180417Y64453D01*
X180388Y64457D01*
X180285Y64463D01*
X179612Y64470D01*
X179499Y65258D01*
X179650Y65259D01*
X180213Y65292D01*
X180286Y65305D01*
X180347Y65319D01*
X180395Y65336D01*
X180431Y65354D01*
Y64449D01*
D02*
G37*
G36*
X139976Y64929D02*
X139998Y64853D01*
X140032Y64786D01*
X140078Y64728D01*
X140136Y64679D01*
X140206Y64638D01*
X140288Y64607D01*
X140383Y64585D01*
X140489Y64571D01*
X140607Y64567D01*
X140372Y63779D01*
X139004Y63803D01*
X139966Y65013D01*
X139976Y64929D01*
D02*
G37*
G36*
X63099Y63191D02*
X63092Y63080D01*
X63089Y63068D01*
X63086Y63059D01*
X63082Y63053D01*
X63078Y63050D01*
X62416Y62583D01*
X62312Y63222D01*
X63100D01*
X63099Y63191D01*
D02*
G37*
G36*
X136399Y63862D02*
X136491Y63654D01*
X136542Y63556D01*
X136655Y63370D01*
X136717Y63282D01*
X136852Y63118D01*
X136924Y63042D01*
X136533Y62320D01*
X136459Y62387D01*
X136382Y62443D01*
X136303Y62488D01*
X136222Y62521D01*
X136138Y62543D01*
X136051Y62555D01*
X135962Y62555D01*
X135870Y62543D01*
X135775Y62521D01*
X135678Y62488D01*
X136359Y63972D01*
X136399Y63862D01*
D02*
G37*
G36*
X180431Y61851D02*
X180406Y61862D01*
X180368Y61872D01*
X180315Y61881D01*
X180168Y61895D01*
X179843Y61907D01*
X179556Y61909D01*
Y62697D01*
X179706Y62697D01*
X180406Y62744D01*
X180431Y62755D01*
Y61851D01*
D02*
G37*
G36*
X58866Y61804D02*
X58880Y61697D01*
X58904Y61594D01*
X58938Y61497D01*
X58981Y61404D01*
X59033Y61316D01*
X59095Y61233D01*
X59167Y61154D01*
X59248Y61081D01*
X59339Y61012D01*
X57709Y60736D01*
X57778Y60837D01*
X57840Y60939D01*
X57895Y61041D01*
X57942Y61144D01*
X57983Y61247D01*
X58015Y61351D01*
X58041Y61456D01*
X58059Y61561D01*
X58070Y61667D01*
X58074Y61774D01*
X58861Y61915D01*
X58866Y61804D01*
D02*
G37*
G36*
X70779Y60765D02*
X70767Y60706D01*
X70768Y60643D01*
X70781Y60576D01*
X70806Y60505D01*
X70845Y60429D01*
X70895Y60349D01*
X70959Y60265D01*
X71035Y60177D01*
X71123Y60084D01*
X70176Y59361D01*
X69253Y60366D01*
X70804Y60820D01*
X70779Y60765D01*
D02*
G37*
G36*
X180431Y59252D02*
X180406Y59264D01*
X180368Y59273D01*
X180315Y59282D01*
X180168Y59296D01*
X179843Y59309D01*
X179556Y59311D01*
Y60098D01*
X179706Y60099D01*
X180406Y60146D01*
X180431Y60157D01*
Y59252D01*
D02*
G37*
G36*
Y56654D02*
X180406Y56665D01*
X180368Y56675D01*
X180315Y56684D01*
X180168Y56698D01*
X179843Y56710D01*
X179556Y56713D01*
Y57500D01*
X179706Y57501D01*
X180406Y57547D01*
X180431Y57559D01*
Y56654D01*
D02*
G37*
G36*
X49760Y56944D02*
X49687Y56856D01*
X49622Y56764D01*
X49565Y56670D01*
X49518Y56574D01*
X49479Y56474D01*
X49448Y56373D01*
X49427Y56268D01*
X49414Y56161D01*
X49409Y56052D01*
X48622D01*
X48618Y56161D01*
X48605Y56268D01*
X48583Y56373D01*
X48553Y56474D01*
X48514Y56574D01*
X48466Y56670D01*
X48410Y56764D01*
X48345Y56856D01*
X48271Y56944D01*
X48189Y57030D01*
X49843D01*
X49760Y56944D01*
D02*
G37*
G36*
X88313Y55833D02*
X88288Y55780D01*
X88266Y55717D01*
X88247Y55645D01*
X88230Y55563D01*
X88206Y55370D01*
X88199Y55259D01*
X88193Y55008D01*
X87406Y54934D01*
X87403Y55020D01*
X87395Y55098D01*
X87381Y55169D01*
X87362Y55232D01*
X87337Y55287D01*
X87307Y55335D01*
X87271Y55375D01*
X87230Y55407D01*
X87184Y55431D01*
X87132Y55448D01*
X88341Y55876D01*
X88313Y55833D01*
D02*
G37*
G36*
X32192Y58200D02*
X32776Y54832D01*
X32720Y54869D01*
X32669Y54860D01*
X32625Y54806D01*
X32587Y54706D01*
X32554Y54562D01*
X32483Y53530D01*
X32480Y53159D01*
X30512Y55128D01*
X30498Y55515D01*
X30456Y55892D01*
X30386Y56257D01*
X30289Y56610D01*
X30164Y56952D01*
X30011Y57282D01*
X29830Y57601D01*
X29621Y57908D01*
X29384Y58204D01*
X29120Y58488D01*
X32192Y58200D01*
D02*
G37*
G36*
X58366Y55584D02*
X58370Y55477D01*
X58381Y55371D01*
X58399Y55266D01*
X58425Y55161D01*
X58458Y55057D01*
X58499Y54954D01*
X58547Y54852D01*
X58602Y54750D01*
X58665Y54649D01*
X58735Y54548D01*
X57103Y54812D01*
X57193Y54881D01*
X57274Y54956D01*
X57345Y55035D01*
X57407Y55118D01*
X57460Y55207D01*
X57503Y55300D01*
X57536Y55398D01*
X57560Y55500D01*
X57574Y55607D01*
X57579Y55719D01*
X58366Y55584D01*
D02*
G37*
G36*
X180431Y54056D02*
X180406Y54067D01*
X180368Y54077D01*
X180315Y54085D01*
X180168Y54100D01*
X179843Y54112D01*
X179556Y54114D01*
Y54902D01*
X179706Y54902D01*
X180406Y54949D01*
X180431Y54960D01*
Y54056D01*
D02*
G37*
G36*
X96771Y70291D02*
X97010Y70244D01*
X97545Y69886D01*
X98237Y69749D01*
X105430D01*
X105948Y68961D01*
X105867Y68554D01*
X106020Y67786D01*
X106455Y67135D01*
X107106Y66700D01*
X107874Y66547D01*
X107878Y66548D01*
X107878Y66548D01*
X107916Y66520D01*
X107953Y66488D01*
X108211Y66231D01*
X108666Y65926D01*
X109204Y65820D01*
X119398D01*
X121823Y63394D01*
Y60794D01*
X121930Y60256D01*
X122235Y59800D01*
X123607Y58428D01*
X123306Y57700D01*
X110531D01*
X110071Y57609D01*
X109680Y57348D01*
X109680Y57348D01*
X104753Y52420D01*
X104201Y52321D01*
X103749Y52427D01*
X100616Y55559D01*
Y57595D01*
X100616Y57595D01*
X100525Y58056D01*
X100264Y58447D01*
X100264Y58447D01*
X93782Y64929D01*
X93391Y65190D01*
X92930Y65282D01*
X92930Y65282D01*
X90071D01*
X89536Y66069D01*
X89610Y66440D01*
X89457Y67208D01*
X89022Y67859D01*
X88760Y68035D01*
X88224Y68571D01*
Y70339D01*
X96700D01*
X96771Y70291D01*
D02*
G37*
G36*
X14031Y53166D02*
X14116Y53099D01*
X14205Y53041D01*
X14298Y52990D01*
X14396Y52948D01*
X14498Y52913D01*
X14604Y52886D01*
X14715Y52868D01*
X14830Y52857D01*
X14949Y52854D01*
X13780Y51685D01*
X13777Y51804D01*
X13766Y51919D01*
X13747Y52030D01*
X13721Y52136D01*
X13686Y52238D01*
X13644Y52336D01*
X13593Y52429D01*
X13535Y52518D01*
X13468Y52603D01*
X13394Y52683D01*
X13950Y53240D01*
X14031Y53166D01*
D02*
G37*
G36*
X180431Y51457D02*
X180417Y51461D01*
X180389Y51464D01*
X180286Y51469D01*
X179615Y51476D01*
X179497Y52264D01*
X179648Y52265D01*
X180211Y52299D01*
X180285Y52312D01*
X180347Y52326D01*
X180395Y52343D01*
X180431Y52362D01*
Y51457D01*
D02*
G37*
G36*
X66866Y52302D02*
X66784Y52217D01*
X66710Y52128D01*
X66645Y52037D01*
X66588Y51943D01*
X66540Y51847D01*
X66501Y51748D01*
X66471Y51646D01*
X66449Y51542D01*
X66436Y51435D01*
X66432Y51326D01*
X65644Y51329D01*
X65640Y51439D01*
X65627Y51546D01*
X65606Y51650D01*
X65575Y51752D01*
X65536Y51851D01*
X65489Y51948D01*
X65433Y52042D01*
X65368Y52134D01*
X65295Y52223D01*
X65213Y52310D01*
X66866Y52302D01*
D02*
G37*
G36*
X177703Y51303D02*
X177417Y50557D01*
X177376Y50516D01*
X177167Y50525D01*
X177070Y50535D01*
X176844Y50571D01*
X176765Y50588D01*
X176621Y50629D01*
X176556Y50673D01*
X175787Y50826D01*
X175019Y50673D01*
X174368Y50238D01*
X173933Y49587D01*
X173780Y48819D01*
X173933Y48051D01*
X174368Y47400D01*
X175019Y46965D01*
X175178Y46933D01*
X175847Y46260D01*
X175964Y45673D01*
X175530Y44885D01*
X174337D01*
X172918Y46304D01*
X172901Y46331D01*
X172887Y46359D01*
X172875Y46388D01*
X172865Y46419D01*
X172858Y46456D01*
X172853Y46498D01*
X172851Y46548D01*
X172854Y46614D01*
X172881Y46754D01*
X172729Y47522D01*
X172294Y48173D01*
X171642Y48608D01*
X170874Y48761D01*
X170106Y48608D01*
X169455Y48173D01*
X169429Y48134D01*
X168482D01*
X168455Y48173D01*
X167804Y48608D01*
X167036Y48761D01*
X166268Y48608D01*
X165796Y48293D01*
X165134Y48624D01*
X165071Y48684D01*
X165098Y48819D01*
X164945Y49587D01*
X164510Y50238D01*
X163859Y50673D01*
X163091Y50826D01*
X162322Y50673D01*
X161671Y50238D01*
X161236Y49587D01*
X161083Y48819D01*
X161236Y48051D01*
X161671Y47400D01*
X162322Y46965D01*
X162368Y46877D01*
X162460Y46416D01*
X162721Y46025D01*
X163822Y44924D01*
X163822Y44924D01*
X165121Y43626D01*
X164795Y42838D01*
X160948D01*
X159104Y44682D01*
X159282Y45617D01*
X159596Y45827D01*
X160031Y46478D01*
X160184Y47246D01*
X160031Y48014D01*
X159596Y48666D01*
X158945Y49101D01*
X158177Y49253D01*
X158176Y49253D01*
X158169Y49258D01*
X158132Y49285D01*
X158091Y49319D01*
X154618Y52793D01*
X154919Y53520D01*
X175486D01*
X177703Y51303D01*
D02*
G37*
G36*
X51468Y51949D02*
X51554Y51882D01*
X51643Y51824D01*
X51736Y51775D01*
X51832Y51735D01*
X51932Y51704D01*
X52035Y51682D01*
X52141Y51669D01*
X52251Y51665D01*
X52365Y51669D01*
X51280Y50448D01*
X51272Y50565D01*
X51257Y50677D01*
X51234Y50785D01*
X51203Y50890D01*
X51165Y50990D01*
X51120Y51087D01*
X51067Y51179D01*
X51007Y51268D01*
X50939Y51353D01*
X50864Y51434D01*
X51385Y52026D01*
X51468Y51949D01*
D02*
G37*
G36*
X25044Y50744D02*
X25133Y50671D01*
X25224Y50606D01*
X25318Y50550D01*
X25415Y50502D01*
X25514Y50463D01*
X25616Y50433D01*
X25720Y50411D01*
X25827Y50398D01*
X25936Y50394D01*
Y49606D01*
X25827Y49602D01*
X25720Y49589D01*
X25616Y49567D01*
X25514Y49537D01*
X25415Y49498D01*
X25318Y49450D01*
X25224Y49394D01*
X25133Y49329D01*
X25044Y49255D01*
X24958Y49173D01*
Y50827D01*
X25044Y50744D01*
D02*
G37*
G36*
X180431Y48859D02*
X180406Y48870D01*
X180368Y48880D01*
X180315Y48889D01*
X180168Y48903D01*
X179843Y48915D01*
X179556Y48917D01*
Y49705D01*
X179706Y49705D01*
X180406Y49752D01*
X180431Y49763D01*
Y48859D01*
D02*
G37*
G36*
X8268Y50246D02*
X8343Y50022D01*
X8387Y49917D01*
X8436Y49816D01*
X8489Y49721D01*
X8547Y49630D01*
X8610Y49544D01*
X8678Y49463D01*
X8750Y49386D01*
X8337Y48685D01*
X8254Y48761D01*
X8168Y48826D01*
X8079Y48880D01*
X7987Y48924D01*
X7893Y48956D01*
X7795Y48978D01*
X7695Y48988D01*
X7592Y48987D01*
X7485Y48976D01*
X7377Y48953D01*
X8237Y50365D01*
X8268Y50246D01*
D02*
G37*
G36*
X64535Y49778D02*
X64432Y49565D01*
X64390Y49458D01*
X64355Y49352D01*
X64326Y49247D01*
X64304Y49141D01*
X64288Y49036D01*
X64278Y48931D01*
X64275Y48826D01*
X63487Y48606D01*
X63482Y48719D01*
X63468Y48826D01*
X63443Y48927D01*
X63409Y49022D01*
X63364Y49111D01*
X63310Y49194D01*
X63247Y49271D01*
X63173Y49343D01*
X63089Y49408D01*
X62996Y49467D01*
X64596Y49885D01*
X64535Y49778D01*
D02*
G37*
G36*
X176331Y49877D02*
X176569Y49809D01*
X176696Y49781D01*
X176966Y49739D01*
X177109Y49724D01*
X177570Y49705D01*
X177673Y48917D01*
X177558Y48912D01*
X177452Y48897D01*
X177354Y48872D01*
X177264Y48838D01*
X177182Y48793D01*
X177109Y48738D01*
X177044Y48673D01*
X176987Y48598D01*
X176939Y48513D01*
X176899Y48419D01*
X176221Y49918D01*
X176331Y49877D01*
D02*
G37*
G36*
X69306Y49123D02*
X69192Y48917D01*
X69146Y48814D01*
X69107Y48709D01*
X69074Y48605D01*
X69050Y48500D01*
X69032Y48395D01*
X69021Y48289D01*
X69017Y48183D01*
X68230Y48025D01*
X68225Y48137D01*
X68211Y48244D01*
X68187Y48346D01*
X68153Y48443D01*
X68110Y48535D01*
X68057Y48622D01*
X67994Y48704D01*
X67922Y48781D01*
X67840Y48853D01*
X67749Y48920D01*
X69374Y49225D01*
X69306Y49123D01*
D02*
G37*
G36*
X157462Y48800D02*
X157637Y48652D01*
X157720Y48592D01*
X157801Y48541D01*
X157879Y48500D01*
X157955Y48467D01*
X158028Y48445D01*
X158098Y48431D01*
X158165Y48427D01*
X156996Y47258D01*
X156992Y47326D01*
X156978Y47396D01*
X156956Y47469D01*
X156924Y47544D01*
X156882Y47622D01*
X156832Y47703D01*
X156772Y47787D01*
X156702Y47873D01*
X156535Y48053D01*
X157370Y48888D01*
X157462Y48800D01*
D02*
G37*
G36*
X105816Y47876D02*
X105830Y47769D01*
X105851Y47665D01*
X105882Y47563D01*
X105921Y47464D01*
X105968Y47368D01*
X106024Y47273D01*
X106089Y47182D01*
X106163Y47093D01*
X106245Y47007D01*
X104592D01*
X104674Y47093D01*
X104748Y47182D01*
X104813Y47273D01*
X104869Y47368D01*
X104917Y47464D01*
X104955Y47563D01*
X104986Y47665D01*
X105008Y47769D01*
X105020Y47876D01*
X105025Y47986D01*
X105812D01*
X105816Y47876D01*
D02*
G37*
G36*
X164145Y48267D02*
X164074Y48027D01*
X164045Y47899D01*
X164001Y47630D01*
X163986Y47488D01*
X163966Y47032D01*
X163179Y46932D01*
X163174Y47047D01*
X163159Y47154D01*
X163134Y47252D01*
X163099Y47342D01*
X163054Y47424D01*
X162999Y47498D01*
X162934Y47564D01*
X162859Y47621D01*
X162774Y47671D01*
X162680Y47712D01*
X164187Y48379D01*
X164145Y48267D01*
D02*
G37*
G36*
X178432Y47301D02*
X178674Y47224D01*
X178802Y47193D01*
X179069Y47145D01*
X179209Y47128D01*
X179502Y47109D01*
X179634Y47107D01*
X179706Y47107D01*
X180406Y47154D01*
X180431Y47165D01*
Y46260D01*
X180406Y46271D01*
X180368Y46281D01*
X180315Y46290D01*
X180168Y46304D01*
X179843Y46316D01*
X179713Y46318D01*
X179628Y46314D01*
X179522Y46299D01*
X179423Y46274D01*
X179332Y46239D01*
X179249Y46194D01*
X179173Y46139D01*
X179106Y46074D01*
X179046Y45999D01*
X178994Y45914D01*
X178950Y45820D01*
X178316Y47347D01*
X178432Y47301D01*
D02*
G37*
G36*
X115800Y47515D02*
X116037Y47447D01*
X116164Y47419D01*
X116434Y47377D01*
X116577Y47362D01*
X117038Y47343D01*
X117142Y46555D01*
X117027Y46550D01*
X116920Y46535D01*
X116822Y46510D01*
X116732Y46475D01*
X116650Y46431D01*
X116577Y46376D01*
X116512Y46311D01*
X116456Y46236D01*
X116407Y46151D01*
X116367Y46057D01*
X115689Y47555D01*
X115800Y47515D01*
D02*
G37*
G36*
X49764Y46159D02*
X48797Y45189D01*
X48083Y45589D01*
X48164Y45676D01*
X48229Y45760D01*
X48280Y45843D01*
X48316Y45924D01*
X48337Y46003D01*
X48344Y46081D01*
X48335Y46156D01*
X48313Y46230D01*
X48275Y46301D01*
X48223Y46371D01*
X49764Y46159D01*
D02*
G37*
G36*
X168219Y46623D02*
X168230Y46508D01*
X168249Y46398D01*
X168275Y46292D01*
X168310Y46190D01*
X168353Y46092D01*
X168403Y45998D01*
X168462Y45909D01*
X168528Y45825D01*
X168603Y45744D01*
X168046Y45187D01*
X167965Y45262D01*
X167880Y45328D01*
X167791Y45387D01*
X167698Y45437D01*
X167600Y45480D01*
X167498Y45514D01*
X167392Y45541D01*
X167281Y45560D01*
X167167Y45570D01*
X167048Y45573D01*
X168217Y46742D01*
X168219Y46623D01*
D02*
G37*
G36*
X172048Y46548D02*
X172052Y46435D01*
X172065Y46326D01*
X172087Y46220D01*
X172118Y46119D01*
X172157Y46022D01*
X172206Y45928D01*
X172263Y45839D01*
X172329Y45754D01*
X172404Y45672D01*
X171809Y45154D01*
X171729Y45228D01*
X171645Y45295D01*
X171556Y45355D01*
X171463Y45407D01*
X171365Y45453D01*
X171263Y45491D01*
X171157Y45523D01*
X171045Y45547D01*
X170930Y45565D01*
X170809Y45575D01*
X172052Y46665D01*
X172048Y46548D01*
D02*
G37*
G36*
X107108Y43956D02*
X107034Y43876D01*
X106967Y43792D01*
X106908Y43703D01*
X106855Y43610D01*
X106810Y43512D01*
X106772Y43410D01*
X106741Y43303D01*
X106718Y43192D01*
X106701Y43076D01*
X106692Y42956D01*
X105591Y44190D01*
X105709Y44187D01*
X105822Y44192D01*
X105932Y44205D01*
X106037Y44228D01*
X106138Y44259D01*
X106236Y44299D01*
X106329Y44348D01*
X106418Y44405D01*
X106504Y44471D01*
X106585Y44546D01*
X107108Y43956D01*
D02*
G37*
G36*
X68476Y45197D02*
X68558Y45129D01*
X68643Y45066D01*
X68734Y45008D01*
X68829Y44954D01*
X68929Y44904D01*
X69034Y44859D01*
X69258Y44781D01*
X69377Y44749D01*
X67953Y43907D01*
X67977Y44015D01*
X67990Y44121D01*
X67991Y44224D01*
X67982Y44324D01*
X67961Y44421D01*
X67929Y44515D01*
X67886Y44607D01*
X67832Y44695D01*
X67767Y44782D01*
X67690Y44865D01*
X68400Y45269D01*
X68476Y45197D01*
D02*
G37*
G36*
X180431Y43662D02*
X180407Y43673D01*
X180370Y43683D01*
X180321Y43692D01*
X180259Y43699D01*
X179995Y43715D01*
X179617Y43720D01*
Y44508D01*
X179756Y44508D01*
X180370Y44545D01*
X180407Y44555D01*
X180431Y44566D01*
Y43662D01*
D02*
G37*
G36*
X128811Y43313D02*
X128738Y43235D01*
X128671Y43153D01*
X128609Y43066D01*
X128553Y42974D01*
X128502Y42877D01*
X128457Y42775D01*
X128417Y42669D01*
X128382Y42558D01*
X128353Y42443D01*
X128330Y42322D01*
X127386Y43680D01*
X127498Y43663D01*
X127607Y43657D01*
X127713Y43661D01*
X127815Y43675D01*
X127915Y43700D01*
X128010Y43735D01*
X128103Y43780D01*
X128192Y43835D01*
X128278Y43901D01*
X128360Y43976D01*
X128811Y43313D01*
D02*
G37*
G36*
X118449Y44937D02*
X118538Y44864D01*
X118630Y44799D01*
X118723Y44743D01*
X118820Y44695D01*
X118919Y44656D01*
X119021Y44626D01*
X119125Y44604D01*
X119232Y44591D01*
X119342Y44587D01*
Y43799D01*
X119232Y43795D01*
X119125Y43782D01*
X119021Y43760D01*
X118919Y43730D01*
X118820Y43691D01*
X118723Y43643D01*
X118630Y43587D01*
X118538Y43522D01*
X118449Y43448D01*
X118363Y43366D01*
Y45020D01*
X118449Y44937D01*
D02*
G37*
G36*
X72842Y43053D02*
X72855Y42946D01*
X72877Y42842D01*
X72907Y42740D01*
X72946Y42641D01*
X72994Y42544D01*
X73050Y42450D01*
X73115Y42359D01*
X73189Y42270D01*
X73271Y42184D01*
X71618D01*
X71700Y42270D01*
X71774Y42359D01*
X71838Y42450D01*
X71895Y42544D01*
X71942Y42641D01*
X71981Y42740D01*
X72012Y42842D01*
X72033Y42946D01*
X72046Y43053D01*
X72051Y43163D01*
X72838D01*
X72842Y43053D01*
D02*
G37*
G36*
X64965Y42756D02*
X64978Y42649D01*
X65000Y42545D01*
X65030Y42443D01*
X65069Y42344D01*
X65117Y42247D01*
X65173Y42153D01*
X65238Y42062D01*
X65311Y41973D01*
X65394Y41887D01*
X63740D01*
X63823Y41973D01*
X63896Y42062D01*
X63961Y42153D01*
X64017Y42247D01*
X64065Y42344D01*
X64104Y42443D01*
X64134Y42545D01*
X64156Y42649D01*
X64169Y42756D01*
X64173Y42865D01*
X64961D01*
X64965Y42756D01*
D02*
G37*
G36*
X56059Y42930D02*
X56143Y42863D01*
X56233Y42805D01*
X56326Y42754D01*
X56424Y42711D01*
X56526Y42677D01*
X56632Y42650D01*
X56742Y42632D01*
X56857Y42621D01*
X56976Y42618D01*
X55807Y41449D01*
X55804Y41568D01*
X55794Y41683D01*
X55775Y41793D01*
X55748Y41900D01*
X55714Y42002D01*
X55671Y42099D01*
X55621Y42193D01*
X55562Y42282D01*
X55496Y42367D01*
X55421Y42447D01*
X55978Y43004D01*
X56059Y42930D01*
D02*
G37*
G36*
X180431Y41063D02*
X180406Y41075D01*
X180368Y41085D01*
X180315Y41093D01*
X180168Y41107D01*
X179843Y41120D01*
X179556Y41122D01*
Y41909D01*
X179706Y41910D01*
X180406Y41957D01*
X180431Y41968D01*
Y41063D01*
D02*
G37*
G36*
X44340Y40732D02*
X44267Y40653D01*
X44199Y40570D01*
X44139Y40481D01*
X44084Y40389D01*
X44036Y40291D01*
X43995Y40189D01*
X43959Y40083D01*
X43930Y39971D01*
X43907Y39855D01*
X43891Y39735D01*
X42867Y41034D01*
X42983Y41023D01*
X43094Y41023D01*
X43202Y41031D01*
X43306Y41050D01*
X43407Y41077D01*
X43503Y41115D01*
X43596Y41161D01*
X43686Y41218D01*
X43771Y41283D01*
X43853Y41359D01*
X44340Y40732D01*
D02*
G37*
G36*
X130984Y42156D02*
X131079Y42088D01*
X131176Y42028D01*
X131275Y41975D01*
X131375Y41931D01*
X131477Y41895D01*
X131581Y41867D01*
X131686Y41847D01*
X131792Y41835D01*
X131901Y41831D01*
X131970Y41043D01*
X131860Y41039D01*
X131753Y41025D01*
X131649Y41002D01*
X131549Y40970D01*
X131453Y40929D01*
X131361Y40878D01*
X131272Y40819D01*
X131187Y40750D01*
X131105Y40672D01*
X131028Y40585D01*
X130890Y42233D01*
X130984Y42156D01*
D02*
G37*
G36*
X67922Y41625D02*
X67936Y41518D01*
X67960Y41416D01*
X67994Y41318D01*
X68037Y41226D01*
X68089Y41137D01*
X68151Y41054D01*
X68223Y40976D01*
X68304Y40902D01*
X68395Y40833D01*
X66764Y40558D01*
X66834Y40659D01*
X66896Y40761D01*
X66951Y40863D01*
X66998Y40966D01*
X67039Y41069D01*
X67071Y41173D01*
X67097Y41278D01*
X67115Y41383D01*
X67126Y41489D01*
X67130Y41596D01*
X67917Y41737D01*
X67922Y41625D01*
D02*
G37*
G36*
X119243Y41888D02*
X119331Y41815D01*
X119423Y41750D01*
X119517Y41693D01*
X119613Y41646D01*
X119712Y41607D01*
X119814Y41576D01*
X119919Y41555D01*
X120026Y41542D01*
X120135Y41537D01*
Y40750D01*
X120026Y40746D01*
X119919Y40733D01*
X119814Y40711D01*
X119712Y40681D01*
X119613Y40642D01*
X119517Y40594D01*
X119423Y40538D01*
X119331Y40473D01*
X119243Y40399D01*
X119156Y40317D01*
Y41970D01*
X119243Y41888D01*
D02*
G37*
G36*
X72156Y40195D02*
X72142Y40194D01*
X72122Y40185D01*
X72096Y40169D01*
X72063Y40145D01*
X71979Y40074D01*
X71806Y39911D01*
X71735Y39841D01*
X71178Y40398D01*
X71232Y40452D01*
X71381Y40626D01*
X71403Y40659D01*
X71418Y40687D01*
X71426Y40711D01*
X71428Y40731D01*
X71424Y40746D01*
X72156Y40195D01*
D02*
G37*
G36*
X106441Y40607D02*
X106530Y40533D01*
X106622Y40468D01*
X106716Y40412D01*
X106812Y40364D01*
X106911Y40325D01*
X107013Y40295D01*
X107117Y40273D01*
X107225Y40260D01*
X107334Y40256D01*
Y39469D01*
X107225Y39464D01*
X107117Y39451D01*
X107013Y39430D01*
X106911Y39399D01*
X106812Y39360D01*
X106716Y39313D01*
X106622Y39256D01*
X106530Y39191D01*
X106441Y39118D01*
X106355Y39035D01*
Y40689D01*
X106441Y40607D01*
D02*
G37*
G36*
X50469Y40198D02*
X50540Y40115D01*
X50615Y40043D01*
X50696Y39980D01*
X50782Y39926D01*
X50874Y39883D01*
X50970Y39849D01*
X51072Y39825D01*
X51179Y39810D01*
X51291Y39805D01*
X51119Y39018D01*
X51013Y39015D01*
X50908Y39004D01*
X50802Y38987D01*
X50697Y38962D01*
X50593Y38931D01*
X50488Y38893D01*
X50384Y38847D01*
X50280Y38795D01*
X50176Y38736D01*
X50072Y38669D01*
X50404Y40290D01*
X50469Y40198D01*
D02*
G37*
G36*
X53694Y38551D02*
X53620Y38640D01*
X53541Y38719D01*
X53459Y38789D01*
X53373Y38850D01*
X53282Y38901D01*
X53187Y38943D01*
X53088Y38976D01*
X52985Y39000D01*
X52878Y39013D01*
X52767Y39018D01*
X52865Y39805D01*
X52973Y39809D01*
X53079Y39821D01*
X53185Y39840D01*
X53289Y39868D01*
X53391Y39902D01*
X53493Y39945D01*
X53593Y39996D01*
X53693Y40054D01*
X53791Y40120D01*
X53888Y40193D01*
X53694Y38551D01*
D02*
G37*
G36*
X63385Y39190D02*
X63393Y39107D01*
X63406Y39033D01*
X63424Y38966D01*
X63448Y38906D01*
X63476Y38855D01*
X63510Y38811D01*
X63549Y38776D01*
X63593Y38748D01*
X63642Y38728D01*
X62428Y38407D01*
X62460Y38448D01*
X62488Y38499D01*
X62513Y38559D01*
X62535Y38630D01*
X62554Y38711D01*
X62569Y38801D01*
X62589Y39013D01*
X62594Y39133D01*
X62595Y39264D01*
X63383Y39281D01*
X63385Y39190D01*
D02*
G37*
G36*
X77888Y37916D02*
X77820Y37820D01*
X77760Y37723D01*
X77707Y37624D01*
X77663Y37524D01*
X77627Y37422D01*
X77599Y37319D01*
X77579Y37214D01*
X77567Y37107D01*
X77563Y36999D01*
X76775Y36929D01*
X76771Y37040D01*
X76757Y37147D01*
X76734Y37250D01*
X76702Y37350D01*
X76661Y37446D01*
X76610Y37539D01*
X76551Y37628D01*
X76482Y37713D01*
X76404Y37794D01*
X76317Y37872D01*
X77965Y38010D01*
X77888Y37916D01*
D02*
G37*
G36*
X121073Y38276D02*
X121086Y38161D01*
X121106Y38050D01*
X121134Y37944D01*
X121170Y37842D01*
X121213Y37744D01*
X121264Y37651D01*
X121323Y37562D01*
X121389Y37477D01*
X121464Y37397D01*
X120917Y36830D01*
X120836Y36905D01*
X120751Y36971D01*
X120662Y37029D01*
X120569Y37079D01*
X120471Y37121D01*
X120369Y37154D01*
X120263Y37180D01*
X120153Y37197D01*
X120038Y37206D01*
X119920Y37207D01*
X121069Y38396D01*
X121073Y38276D01*
D02*
G37*
G36*
X32487Y42659D02*
X32508Y42344D01*
X32542Y42083D01*
X32589Y41875D01*
X32651Y41720D01*
X32726Y41618D01*
X32814Y41569D01*
X32917Y41572D01*
X33033Y41629D01*
X33162Y41739D01*
X33872Y39665D01*
X33608Y39381D01*
X33371Y39086D01*
X33162Y38778D01*
X32981Y38460D01*
X32828Y38129D01*
X32703Y37788D01*
X32606Y37434D01*
X32536Y37069D01*
X32494Y36693D01*
X32480Y36305D01*
X30512Y38681D01*
X32480Y43026D01*
X32487Y42659D01*
D02*
G37*
G36*
X74195Y36629D02*
X74104Y36609D01*
X74024Y36579D01*
X73953Y36538D01*
X73891Y36486D01*
X73839Y36423D01*
X73796Y36349D01*
X73763Y36264D01*
X73739Y36169D01*
X73725Y36063D01*
X73721Y35946D01*
X72933Y36625D01*
X72932Y36751D01*
X72887Y37453D01*
X72876Y37502D01*
X74195Y36629D01*
D02*
G37*
G36*
X147461Y35675D02*
X147545Y35608D01*
X147634Y35549D01*
X147727Y35496D01*
X147825Y35451D01*
X147927Y35413D01*
X148033Y35383D01*
X148145Y35359D01*
X148260Y35343D01*
X148380Y35333D01*
X147148Y34231D01*
X147152Y34348D01*
X147146Y34462D01*
X147133Y34571D01*
X147110Y34677D01*
X147079Y34778D01*
X147038Y34876D01*
X146990Y34969D01*
X146932Y35058D01*
X146866Y35144D01*
X146791Y35225D01*
X147381Y35749D01*
X147461Y35675D01*
D02*
G37*
G36*
X144317Y35579D02*
X144401Y35512D01*
X144490Y35453D01*
X144583Y35400D01*
X144681Y35355D01*
X144783Y35317D01*
X144890Y35285D01*
X145001Y35261D01*
X145117Y35245D01*
X145237Y35235D01*
X143999Y34138D01*
X144003Y34256D01*
X143998Y34369D01*
X143985Y34479D01*
X143963Y34584D01*
X143931Y34685D01*
X143892Y34783D01*
X143843Y34876D01*
X143786Y34965D01*
X143720Y35051D01*
X143645Y35132D01*
X144237Y35653D01*
X144317Y35579D01*
D02*
G37*
G36*
X150941Y35548D02*
X151025Y35481D01*
X151114Y35423D01*
X151208Y35372D01*
X151305Y35330D01*
X151407Y35295D01*
X151514Y35268D01*
X151624Y35250D01*
X151739Y35239D01*
X151858Y35236D01*
X150689Y34067D01*
X150686Y34186D01*
X150675Y34301D01*
X150657Y34411D01*
X150630Y34518D01*
X150596Y34620D01*
X150553Y34717D01*
X150503Y34811D01*
X150444Y34900D01*
X150378Y34985D01*
X150303Y35065D01*
X150860Y35622D01*
X150941Y35548D01*
D02*
G37*
G36*
X180332Y34622D02*
X180606Y34392D01*
X180730Y34306D01*
X180846Y34239D01*
X180953Y34192D01*
X181051Y34164D01*
X181141Y34156D01*
X181222Y34167D01*
X181295Y34198D01*
X180166Y33533D01*
X180154Y33571D01*
X180131Y33617D01*
X180098Y33670D01*
X180055Y33731D01*
X179937Y33876D01*
X179777Y34053D01*
X179575Y34260D01*
X180182Y34767D01*
X180332Y34622D01*
D02*
G37*
G36*
X141093Y33230D02*
X141006Y33312D01*
X140918Y33386D01*
X140826Y33451D01*
X140732Y33507D01*
X140636Y33555D01*
X140536Y33594D01*
X140435Y33624D01*
X140330Y33646D01*
X140223Y33659D01*
X140114Y33663D01*
Y34450D01*
X140223Y34455D01*
X140330Y34468D01*
X140435Y34489D01*
X140536Y34520D01*
X140636Y34559D01*
X140732Y34606D01*
X140826Y34663D01*
X140918Y34728D01*
X141006Y34801D01*
X141093Y34883D01*
Y33230D01*
D02*
G37*
G36*
X52797Y33378D02*
X52854Y33293D01*
X52918Y33218D01*
X52989Y33153D01*
X53067Y33099D01*
X53153Y33054D01*
X53245Y33019D01*
X53345Y32994D01*
X53452Y32979D01*
X53565Y32974D01*
X53265Y32186D01*
X53162Y32184D01*
X52953Y32162D01*
X52848Y32143D01*
X52634Y32088D01*
X52526Y32053D01*
X52306Y31965D01*
X52195Y31913D01*
X52746Y33472D01*
X52797Y33378D01*
D02*
G37*
G36*
X162881Y31279D02*
X162966Y31213D01*
X163055Y31156D01*
X163148Y31107D01*
X163246Y31067D01*
X163347Y31037D01*
X163452Y31014D01*
X163562Y31001D01*
X163675Y30997D01*
X163793Y31001D01*
X162698Y29761D01*
X162689Y29881D01*
X162671Y29997D01*
X162647Y30108D01*
X162616Y30215D01*
X162578Y30317D01*
X162532Y30415D01*
X162480Y30508D01*
X162420Y30597D01*
X162353Y30681D01*
X162279Y30760D01*
X162799Y31354D01*
X162881Y31279D01*
D02*
G37*
G36*
X128179Y47180D02*
X128570Y46919D01*
X129031Y46827D01*
X149098D01*
X158293Y37633D01*
X158293Y37633D01*
X158683Y37372D01*
X159144Y37280D01*
X159144Y37280D01*
X165898D01*
X169246Y33932D01*
X169246Y33932D01*
X169637Y33671D01*
X170098Y33579D01*
X170098Y33579D01*
X174363D01*
X175428Y32515D01*
X175428Y32515D01*
X175705Y31772D01*
X175552Y31004D01*
X175705Y30236D01*
X175753Y30164D01*
Y28602D01*
X175890Y27911D01*
X176282Y27325D01*
X177820Y25787D01*
Y9833D01*
X173927Y5940D01*
X150394D01*
X149702Y5803D01*
X149416Y5611D01*
X149349Y5583D01*
X149299Y5549D01*
X149273Y5535D01*
X149233Y5518D01*
X149180Y5499D01*
X149111Y5481D01*
X149029Y5464D01*
X148941Y5451D01*
X148784Y5438D01*
X148562D01*
X148063Y5339D01*
X147640Y5056D01*
X147207Y4624D01*
X146925Y4201D01*
X146825Y3701D01*
Y3149D01*
X141018D01*
X140717Y3876D01*
X152426Y15586D01*
X152426Y15586D01*
X152687Y15976D01*
X152779Y16437D01*
X152779Y16437D01*
Y21670D01*
X152788Y21725D01*
X152800Y21785D01*
X152817Y21846D01*
X152839Y21910D01*
X152862Y21968D01*
X152941Y22127D01*
X153382Y22271D01*
X153849Y22289D01*
X158394Y17744D01*
X158980Y17352D01*
X159671Y17215D01*
X160644D01*
X163154Y14705D01*
Y12355D01*
X163106Y12284D01*
X162954Y11516D01*
X163106Y10748D01*
X163541Y10097D01*
X164193Y9662D01*
X164961Y9509D01*
X165729Y9662D01*
X166380Y10097D01*
X166815Y10748D01*
X166968Y11516D01*
X166815Y12284D01*
X166767Y12355D01*
Y15453D01*
X166630Y16144D01*
X166238Y16730D01*
X162670Y20299D01*
X162083Y20690D01*
X161392Y20828D01*
X161185D01*
X160709Y21146D01*
X160196Y21248D01*
X160102Y21430D01*
X160627Y22128D01*
X160655Y22122D01*
X160655Y22122D01*
X162161D01*
X168284Y16000D01*
Y15846D01*
X168284Y15846D01*
X168376Y15386D01*
X168637Y14995D01*
X169186Y14445D01*
X169197Y14427D01*
X169206Y14410D01*
X169212Y14393D01*
X169216Y14376D01*
X169219Y14355D01*
X169220Y14328D01*
X169218Y14292D01*
X169207Y14215D01*
X169210Y14156D01*
X169154Y13878D01*
X169307Y13110D01*
X169742Y12459D01*
X170393Y12024D01*
X171161Y11871D01*
X171930Y12024D01*
X172581Y12459D01*
X173016Y13110D01*
X173169Y13878D01*
X173016Y14646D01*
X172581Y15297D01*
X171930Y15732D01*
X171585Y15801D01*
X171512Y15830D01*
X171413Y15850D01*
X171339Y15868D01*
X171272Y15889D01*
X171211Y15912D01*
X171155Y15937D01*
X171104Y15964D01*
X171057Y15992D01*
X171015Y16022D01*
X170692Y16345D01*
Y16499D01*
X170692Y16499D01*
X170631Y16808D01*
X170918Y17345D01*
X171123Y17595D01*
X171713D01*
X171750Y17587D01*
X171786Y17577D01*
X171822Y17562D01*
X171859Y17544D01*
X171898Y17521D01*
X171940Y17491D01*
X171972Y17465D01*
X172029Y17380D01*
X172680Y16945D01*
X173448Y16792D01*
X174216Y16945D01*
X174867Y17380D01*
X175302Y18031D01*
X175455Y18799D01*
X175302Y19567D01*
X174867Y20218D01*
X174216Y20653D01*
X173448Y20806D01*
X172680Y20653D01*
X172029Y20218D01*
X171972Y20134D01*
X171940Y20107D01*
X171898Y20078D01*
X171860Y20054D01*
X171822Y20036D01*
X171786Y20022D01*
X171750Y20011D01*
X171713Y20004D01*
X169914D01*
X164853Y25064D01*
X164853Y25064D01*
X164164Y25753D01*
X163773Y26014D01*
X163312Y26106D01*
X163312Y26106D01*
X162101D01*
X161068Y27139D01*
X161169Y27767D01*
X161292Y28029D01*
X161852Y28404D01*
X162459D01*
X163110Y27968D01*
X163878Y27816D01*
X164646Y27968D01*
X165297Y28404D01*
X165732Y29055D01*
X165885Y29823D01*
X165732Y30591D01*
X165297Y31242D01*
X164646Y31677D01*
X163878Y31830D01*
X163739Y31802D01*
X163677Y31800D01*
X163627Y31802D01*
X163584Y31807D01*
X163547Y31815D01*
X163515Y31825D01*
X163486Y31837D01*
X163458Y31851D01*
X163431Y31868D01*
X162263Y33037D01*
X161872Y33298D01*
X161411Y33389D01*
X161411Y33389D01*
X159807D01*
X157739Y35456D01*
X157739Y35456D01*
X157739Y35456D01*
X154254Y38942D01*
X153863Y39203D01*
X153402Y39295D01*
X153402Y39295D01*
X152861D01*
X147740Y44416D01*
X147349Y44677D01*
X146889Y44769D01*
X146888Y44768D01*
X131625D01*
X131557Y44813D01*
X131097Y44905D01*
X131097Y44905D01*
X128642D01*
X128181Y44813D01*
X127944Y44655D01*
X127910Y44641D01*
X127885Y44616D01*
X127790Y44552D01*
X127733Y44495D01*
X127715Y44484D01*
X127697Y44475D01*
X127681Y44469D01*
X127663Y44465D01*
X127642Y44462D01*
X127615Y44461D01*
X127580Y44463D01*
X127503Y44474D01*
X127444Y44471D01*
X127165Y44527D01*
X126397Y44374D01*
X125746Y43939D01*
X125495Y43562D01*
X124584Y43360D01*
X120143Y47800D01*
X119752Y48061D01*
X119291Y48153D01*
X119291Y48153D01*
X116869D01*
X116635Y48163D01*
X116538Y48173D01*
X116312Y48208D01*
X116234Y48226D01*
X116090Y48267D01*
X116024Y48311D01*
X115256Y48464D01*
X114488Y48311D01*
X113837Y47876D01*
X113402Y47225D01*
X113249Y46457D01*
X113402Y45689D01*
X113837Y45037D01*
X114488Y44602D01*
X115256Y44449D01*
X115607Y43717D01*
X115665Y43425D01*
X116101Y42774D01*
X116746Y42342D01*
X116458Y41912D01*
X116306Y41144D01*
X116458Y40376D01*
X116894Y39724D01*
X117345Y39423D01*
X117545Y39289D01*
X117903Y38501D01*
X117881Y38388D01*
X118033Y37620D01*
X118468Y36968D01*
X119120Y36533D01*
X119888Y36380D01*
X120003Y36404D01*
X120004D01*
X120059Y36399D01*
X120108Y36392D01*
X120150Y36382D01*
X120187Y36369D01*
X120221Y36355D01*
X120253Y36338D01*
X120283Y36318D01*
X122386Y34215D01*
X122084Y33488D01*
X118296D01*
X114614Y37170D01*
X114223Y37431D01*
X113762Y37523D01*
X113762Y37523D01*
X107475D01*
X107079Y38141D01*
X107059Y38311D01*
X107389Y38658D01*
X107579D01*
X107579Y38658D01*
X108040Y38750D01*
X108430Y39011D01*
X110207Y40787D01*
X110207Y40787D01*
X110468Y41178D01*
X110560Y41639D01*
Y50367D01*
X112335Y52142D01*
X123217D01*
X128179Y47180D01*
D02*
G37*
G36*
X119531Y27421D02*
X119444Y27504D01*
X119356Y27577D01*
X119264Y27642D01*
X119170Y27698D01*
X119074Y27746D01*
X118974Y27785D01*
X118873Y27815D01*
X118768Y27837D01*
X118661Y27850D01*
X118552Y27854D01*
Y28642D01*
X118661Y28646D01*
X118768Y28659D01*
X118873Y28681D01*
X118974Y28711D01*
X119074Y28750D01*
X119170Y28798D01*
X119264Y28854D01*
X119356Y28919D01*
X119444Y28993D01*
X119531Y29075D01*
Y27421D01*
D02*
G37*
G36*
X98651Y28964D02*
X98770Y28770D01*
X98842Y28668D01*
X99108Y28339D01*
X99214Y28223D01*
X99449Y27978D01*
X98983Y27330D01*
X98898Y27408D01*
X98812Y27473D01*
X98726Y27525D01*
X98639Y27562D01*
X98552Y27587D01*
X98464Y27598D01*
X98375Y27595D01*
X98286Y27579D01*
X98197Y27550D01*
X98106Y27507D01*
X98604Y29055D01*
X98651Y28964D01*
D02*
G37*
G36*
X112291Y26575D02*
X112172Y26572D01*
X112057Y26561D01*
X111947Y26543D01*
X111841Y26516D01*
X111739Y26481D01*
X111641Y26439D01*
X111548Y26388D01*
X111458Y26330D01*
X111374Y26263D01*
X111293Y26189D01*
X110736Y26746D01*
X110811Y26826D01*
X110877Y26911D01*
X110936Y27000D01*
X110986Y27094D01*
X111029Y27191D01*
X111063Y27293D01*
X111090Y27400D01*
X111109Y27510D01*
X111119Y27625D01*
X111122Y27744D01*
X112291Y26575D01*
D02*
G37*
G36*
X71434Y65483D02*
Y64748D01*
X71434Y64747D01*
X71525Y64287D01*
X71786Y63896D01*
X73008Y62674D01*
Y62305D01*
X73008Y62305D01*
X73100Y61844D01*
X73361Y61453D01*
X79808Y55007D01*
X79891Y54587D01*
X80152Y54197D01*
X80791Y53558D01*
X80811Y53571D01*
X80913Y53436D01*
X82964Y51385D01*
X83099Y51283D01*
X83086Y51263D01*
X88860Y45489D01*
Y24421D01*
X87795Y23356D01*
X86796Y23471D01*
X86539Y23727D01*
Y31193D01*
X86789Y31567D01*
X86880Y32028D01*
X86880Y32028D01*
Y40198D01*
X86789Y40659D01*
X86528Y41049D01*
X86528Y41049D01*
X86116Y41461D01*
X86375Y42316D01*
X86501Y42341D01*
X87152Y42776D01*
X87587Y43427D01*
X87740Y44195D01*
X87587Y44963D01*
X87152Y45614D01*
X86501Y46049D01*
X85733Y46202D01*
X84964Y46049D01*
X84576Y45790D01*
X78669Y51698D01*
Y53571D01*
X78562Y54108D01*
X78257Y54564D01*
X73068Y59753D01*
X72612Y60058D01*
X72224Y60135D01*
X71652Y60707D01*
X71794Y61420D01*
X71641Y62188D01*
X71206Y62840D01*
X70555Y63275D01*
X69787Y63427D01*
X69314Y63333D01*
X68527Y63821D01*
Y64100D01*
X68435Y64561D01*
X68174Y64951D01*
X67149Y65977D01*
Y68738D01*
X67877Y69040D01*
X71434Y65483D01*
D02*
G37*
G36*
X137337Y29071D02*
X137727Y28810D01*
X138188Y28718D01*
X138314D01*
X138391Y27931D01*
X137991Y27851D01*
X137405Y27459D01*
X136260Y26314D01*
X126122D01*
X125431Y26177D01*
X124845Y25785D01*
X122224Y23165D01*
X119735D01*
X119497Y23952D01*
X119825Y24171D01*
X120260Y24823D01*
X120413Y25591D01*
X121059Y26377D01*
X121142Y26394D01*
X121793Y26829D01*
X122228Y27480D01*
X122381Y28248D01*
X122288Y28717D01*
X122777Y29504D01*
X136903D01*
X137337Y29071D01*
D02*
G37*
G36*
X57229Y22485D02*
X57121Y22275D01*
X57077Y22170D01*
X57040Y22064D01*
X57010Y21959D01*
X56986Y21854D01*
X56969Y21749D01*
X56959Y21643D01*
X56956Y21538D01*
X56169Y21346D01*
X56164Y21458D01*
X56149Y21565D01*
X56125Y21667D01*
X56090Y21763D01*
X56047Y21853D01*
X55993Y21938D01*
X55930Y22017D01*
X55857Y22091D01*
X55774Y22159D01*
X55681Y22222D01*
X57293Y22590D01*
X57229Y22485D01*
D02*
G37*
G36*
X152232Y22506D02*
X152128Y22294D01*
X152086Y22188D01*
X152050Y22083D01*
X152021Y21977D01*
X151998Y21871D01*
X151981Y21766D01*
X151972Y21661D01*
X151969Y21556D01*
X151181Y21344D01*
X151176Y21457D01*
X151162Y21564D01*
X151137Y21665D01*
X151103Y21761D01*
X151058Y21850D01*
X151005Y21934D01*
X150941Y22012D01*
X150867Y22083D01*
X150784Y22150D01*
X150691Y22210D01*
X152294Y22613D01*
X152232Y22506D01*
D02*
G37*
G36*
X61893Y20883D02*
X61791Y20658D01*
X60782Y20816D01*
X61336Y21440D01*
X61893Y20883D01*
D02*
G37*
G36*
X82583Y21527D02*
X82597Y21420D01*
X82620Y21316D01*
X82652Y21217D01*
X82694Y21121D01*
X82744Y21028D01*
X82804Y20940D01*
X82873Y20855D01*
X82951Y20774D01*
X83038Y20696D01*
X81391Y20553D01*
X81467Y20647D01*
X81535Y20743D01*
X81595Y20840D01*
X81647Y20939D01*
X81691Y21040D01*
X81727Y21142D01*
X81755Y21245D01*
X81775Y21350D01*
X81787Y21457D01*
X81791Y21565D01*
X82579Y21638D01*
X82583Y21527D01*
D02*
G37*
G36*
X41638Y21299D02*
X41651Y21192D01*
X41673Y21088D01*
X41703Y20986D01*
X41742Y20887D01*
X41790Y20790D01*
X41846Y20696D01*
X41911Y20605D01*
X41985Y20516D01*
X42067Y20430D01*
X40413D01*
X40496Y20516D01*
X40569Y20605D01*
X40634Y20696D01*
X40691Y20790D01*
X40738Y20887D01*
X40777Y20986D01*
X40808Y21088D01*
X40829Y21192D01*
X40842Y21299D01*
X40846Y21409D01*
X41634D01*
X41638Y21299D01*
D02*
G37*
G36*
X20855Y22486D02*
X21151Y22249D01*
X21458Y22040D01*
X21777Y21859D01*
X22107Y21706D01*
X22449Y21581D01*
X22802Y21484D01*
X23167Y21414D01*
X23543Y21372D01*
X23931Y21358D01*
X21555Y20374D01*
X20571Y22750D01*
X20855Y22486D01*
D02*
G37*
G36*
X72837Y20664D02*
X72851Y20483D01*
X72864Y20406D01*
X72880Y20338D01*
X72899Y20278D01*
X72923Y20227D01*
X72950Y20186D01*
X72980Y20152D01*
X73014Y20128D01*
X71868D01*
X71902Y20152D01*
X71932Y20186D01*
X71959Y20227D01*
X71983Y20278D01*
X72003Y20338D01*
X72019Y20406D01*
X72031Y20483D01*
X72040Y20569D01*
X72047Y20768D01*
X72835D01*
X72837Y20664D01*
D02*
G37*
G36*
X65872Y21016D02*
X65797Y20934D01*
X65731Y20848D01*
X65675Y20759D01*
X65628Y20666D01*
X65590Y20569D01*
X65562Y20469D01*
X65544Y20364D01*
X65535Y20256D01*
X65535Y20145D01*
X65545Y20030D01*
X64250Y21057D01*
X64371Y21073D01*
X64486Y21096D01*
X64598Y21125D01*
X64705Y21160D01*
X64807Y21202D01*
X64904Y21249D01*
X64997Y21304D01*
X65085Y21364D01*
X65168Y21431D01*
X65247Y21505D01*
X65872Y21016D01*
D02*
G37*
G36*
X12406Y21134D02*
X12421Y21110D01*
X12446Y21077D01*
X12526Y20983D01*
X12806Y20690D01*
X12901Y20595D01*
X11787Y19481D01*
X11232Y19980D01*
X12402Y21150D01*
X12406Y21134D01*
D02*
G37*
G36*
X92760Y20823D02*
X92849Y20750D01*
X92941Y20685D01*
X93035Y20628D01*
X93131Y20581D01*
X93230Y20542D01*
X93332Y20511D01*
X93436Y20490D01*
X93543Y20477D01*
X93653Y20472D01*
Y19685D01*
X93543Y19681D01*
X93436Y19668D01*
X93332Y19646D01*
X93230Y19616D01*
X93131Y19577D01*
X93035Y19529D01*
X92941Y19473D01*
X92849Y19408D01*
X92760Y19334D01*
X92674Y19252D01*
Y20906D01*
X92760Y20823D01*
D02*
G37*
G36*
X132986Y18620D02*
X132966Y18710D01*
X132935Y18791D01*
X132894Y18862D01*
X132842Y18924D01*
X132779Y18976D01*
X132705Y19018D01*
X132620Y19052D01*
X132525Y19075D01*
X132418Y19090D01*
X132301Y19094D01*
X132973Y19882D01*
X133099Y19883D01*
X133747Y19920D01*
X133806Y19931D01*
X133856Y19942D01*
X132986Y18620D01*
D02*
G37*
G36*
X67745Y18807D02*
X67624Y18790D01*
X67508Y18768D01*
X67397Y18739D01*
X67290Y18704D01*
X67188Y18663D01*
X67090Y18615D01*
X66998Y18560D01*
X66910Y18500D01*
X66826Y18433D01*
X66747Y18360D01*
X66122Y18848D01*
X66198Y18930D01*
X66264Y19016D01*
X66320Y19105D01*
X66367Y19198D01*
X66404Y19295D01*
X66432Y19395D01*
X66451Y19500D01*
X66460Y19608D01*
X66459Y19719D01*
X66449Y19835D01*
X67745Y18807D01*
D02*
G37*
G36*
X172604Y17973D02*
X172518Y18055D01*
X172429Y18128D01*
X172338Y18193D01*
X172244Y18250D01*
X172147Y18297D01*
X172048Y18336D01*
X171946Y18367D01*
X171842Y18388D01*
X171735Y18401D01*
X171625Y18406D01*
Y19193D01*
X171735Y19197D01*
X171842Y19210D01*
X171946Y19232D01*
X172048Y19262D01*
X172147Y19301D01*
X172244Y19349D01*
X172338Y19405D01*
X172429Y19470D01*
X172518Y19544D01*
X172604Y19626D01*
Y17973D01*
D02*
G37*
G36*
X80553Y26761D02*
X80981Y26535D01*
Y21470D01*
X80972Y21426D01*
X80960Y21381D01*
X80944Y21335D01*
X80923Y21288D01*
X80897Y21239D01*
X80881Y21212D01*
X80868Y21204D01*
X80792Y21090D01*
X80766Y21057D01*
X80750Y21026D01*
X80433Y20552D01*
X80280Y19784D01*
X80352Y19425D01*
X79839Y18679D01*
X79767Y18638D01*
X77855D01*
X77164Y18500D01*
X76578Y18109D01*
X70216Y11747D01*
X65545D01*
X65219Y12535D01*
X70419Y17736D01*
X71022Y17676D01*
X71673Y17241D01*
X72441Y17088D01*
X73209Y17241D01*
X73860Y17676D01*
X74295Y18327D01*
X74448Y19095D01*
X74295Y19863D01*
X73873Y20496D01*
X80193Y26817D01*
X80553Y26761D01*
D02*
G37*
G36*
X143361Y17127D02*
X143241Y17118D01*
X143125Y17102D01*
X143014Y17078D01*
X142907Y17047D01*
X142805Y17009D01*
X142707Y16964D01*
X142614Y16912D01*
X142525Y16852D01*
X142441Y16786D01*
X142361Y16712D01*
X141772Y17236D01*
X141847Y17317D01*
X141913Y17402D01*
X141970Y17492D01*
X142019Y17585D01*
X142059Y17682D01*
X142090Y17784D01*
X142113Y17889D01*
X142127Y17999D01*
X142132Y18112D01*
X142129Y18230D01*
X143361Y17127D01*
D02*
G37*
G36*
X111190Y17122D02*
X111273Y17055D01*
X111360Y16993D01*
X111452Y16937D01*
X111549Y16887D01*
X111650Y16842D01*
X111756Y16803D01*
X111867Y16769D01*
X111983Y16740D01*
X112103Y16718D01*
X110753Y15764D01*
X110769Y15877D01*
X110774Y15986D01*
X110770Y16092D01*
X110755Y16195D01*
X110730Y16294D01*
X110695Y16390D01*
X110650Y16483D01*
X110594Y16572D01*
X110529Y16658D01*
X110453Y16740D01*
X111112Y17195D01*
X111190Y17122D01*
D02*
G37*
G36*
X136026Y15678D02*
X135925Y15748D01*
X135823Y15810D01*
X135721Y15865D01*
X135618Y15912D01*
X135515Y15952D01*
X135411Y15985D01*
X135306Y16011D01*
X135201Y16029D01*
X135095Y16040D01*
X134988Y16043D01*
X134846Y16831D01*
X134958Y16836D01*
X135065Y16850D01*
X135167Y16874D01*
X135265Y16907D01*
X135357Y16950D01*
X135445Y17003D01*
X135529Y17065D01*
X135607Y17137D01*
X135680Y17218D01*
X135749Y17309D01*
X136026Y15678D01*
D02*
G37*
G36*
X107830Y17142D02*
X107915Y17076D01*
X108004Y17017D01*
X108098Y16967D01*
X108195Y16924D01*
X108297Y16889D01*
X108404Y16863D01*
X108514Y16844D01*
X108629Y16833D01*
X108748Y16831D01*
X107579Y15661D01*
X107576Y15780D01*
X107565Y15895D01*
X107547Y16006D01*
X107520Y16112D01*
X107485Y16214D01*
X107443Y16312D01*
X107392Y16405D01*
X107334Y16494D01*
X107267Y16579D01*
X107193Y16660D01*
X107750Y17217D01*
X107830Y17142D01*
D02*
G37*
G36*
X38819Y16565D02*
X38899Y16497D01*
X38984Y16434D01*
X39073Y16374D01*
X39266Y16265D01*
X39369Y16216D01*
X39590Y16130D01*
X39707Y16093D01*
X38245Y15320D01*
X38273Y15425D01*
X38290Y15528D01*
X38294Y15628D01*
X38288Y15726D01*
X38269Y15822D01*
X38239Y15915D01*
X38197Y16006D01*
X38144Y16094D01*
X38079Y16180D01*
X38002Y16264D01*
X38743Y16636D01*
X38819Y16565D01*
D02*
G37*
G36*
X9027Y16336D02*
X9124Y16121D01*
X9177Y16020D01*
X9291Y15832D01*
X9353Y15745D01*
X9485Y15583D01*
X9556Y15509D01*
X9227Y14724D01*
X9143Y14801D01*
X9057Y14866D01*
X8969Y14919D01*
X8879Y14959D01*
X8788Y14987D01*
X8694Y15003D01*
X8599Y15006D01*
X8502Y14997D01*
X8403Y14976D01*
X8303Y14943D01*
X8983Y16450D01*
X9027Y16336D01*
D02*
G37*
G36*
X170446Y15451D02*
X170528Y15383D01*
X170615Y15322D01*
X170707Y15266D01*
X170804Y15215D01*
X170906Y15169D01*
X171012Y15129D01*
X171123Y15095D01*
X171238Y15066D01*
X171359Y15043D01*
X170001Y14098D01*
X170018Y14211D01*
X170024Y14320D01*
X170020Y14426D01*
X170006Y14528D01*
X169981Y14627D01*
X169946Y14723D01*
X169901Y14816D01*
X169846Y14905D01*
X169781Y14991D01*
X169705Y15073D01*
X170368Y15523D01*
X170446Y15451D01*
D02*
G37*
G36*
X36620Y15361D02*
X36635Y15245D01*
X36656Y15134D01*
X36685Y15028D01*
X36722Y14926D01*
X36766Y14828D01*
X36818Y14735D01*
X36877Y14646D01*
X36943Y14561D01*
X37018Y14481D01*
X36481Y13905D01*
X36399Y13979D01*
X36314Y14045D01*
X36225Y14103D01*
X36132Y14153D01*
X36034Y14194D01*
X35932Y14226D01*
X35827Y14251D01*
X35717Y14266D01*
X35603Y14274D01*
X35484Y14273D01*
X36614Y15481D01*
X36620Y15361D01*
D02*
G37*
G36*
X115765Y13684D02*
X115648Y13688D01*
X115534Y13683D01*
X115425Y13669D01*
X115319Y13647D01*
X115218Y13616D01*
X115121Y13576D01*
X115027Y13527D01*
X114938Y13470D01*
X114853Y13404D01*
X114771Y13329D01*
X114250Y13920D01*
X114323Y14000D01*
X114390Y14084D01*
X114450Y14173D01*
X114502Y14266D01*
X114548Y14364D01*
X114586Y14466D01*
X114617Y14573D01*
X114640Y14684D01*
X114657Y14800D01*
X114667Y14920D01*
X115765Y13684D01*
D02*
G37*
G36*
X95121Y13508D02*
X95091Y13475D01*
X95065Y13434D01*
X95043Y13384D01*
X95024Y13326D01*
X95008Y13258D01*
X94996Y13182D01*
X94987Y13096D01*
X94980Y12900D01*
X94193D01*
X94191Y13002D01*
X94177Y13182D01*
X94165Y13258D01*
X94150Y13326D01*
X94130Y13384D01*
X94108Y13434D01*
X94082Y13475D01*
X94052Y13508D01*
X94019Y13531D01*
X95154D01*
X95121Y13508D01*
D02*
G37*
G36*
X18740Y11867D02*
X17087D01*
X17094Y11881D01*
X17101Y11909D01*
X17107Y11950D01*
X17116Y12073D01*
X17126Y12478D01*
X17126Y12613D01*
X18701D01*
X18740Y11867D01*
D02*
G37*
G36*
X136164Y11083D02*
X136078Y11165D01*
X135989Y11239D01*
X135898Y11304D01*
X135804Y11360D01*
X135707Y11407D01*
X135608Y11446D01*
X135506Y11477D01*
X135402Y11498D01*
X135295Y11511D01*
X135186Y11516D01*
Y12303D01*
X135295Y12308D01*
X135402Y12320D01*
X135506Y12342D01*
X135608Y12372D01*
X135707Y12411D01*
X135804Y12459D01*
X135898Y12515D01*
X135989Y12580D01*
X136078Y12654D01*
X136164Y12736D01*
Y11083D01*
D02*
G37*
G36*
X28898Y11359D02*
X29108Y11250D01*
X29213Y11206D01*
X29318Y11168D01*
X29423Y11138D01*
X29528Y11114D01*
X29633Y11097D01*
X29739Y11087D01*
X29844Y11083D01*
X30031Y10296D01*
X29919Y10291D01*
X29812Y10276D01*
X29710Y10252D01*
X29614Y10218D01*
X29524Y10174D01*
X29438Y10121D01*
X29359Y10057D01*
X29285Y9984D01*
X29216Y9902D01*
X29153Y9809D01*
X28793Y11423D01*
X28898Y11359D01*
D02*
G37*
G36*
X8902Y11276D02*
X8991Y11202D01*
X9082Y11137D01*
X9176Y11081D01*
X9273Y11033D01*
X9372Y10994D01*
X9474Y10964D01*
X9578Y10943D01*
X9685Y10930D01*
X9795Y10925D01*
Y10138D01*
X9685Y10133D01*
X9578Y10120D01*
X9474Y10099D01*
X9372Y10069D01*
X9273Y10029D01*
X9176Y9982D01*
X9082Y9926D01*
X8991Y9861D01*
X8902Y9787D01*
X8816Y9705D01*
Y11358D01*
X8902Y11276D01*
D02*
G37*
G36*
X37898Y9980D02*
X37911Y9873D01*
X37933Y9769D01*
X37963Y9667D01*
X38002Y9568D01*
X38050Y9472D01*
X38106Y9378D01*
X38171Y9286D01*
X38245Y9197D01*
X38327Y9111D01*
X36673D01*
X36755Y9197D01*
X36829Y9286D01*
X36894Y9378D01*
X36950Y9472D01*
X36998Y9568D01*
X37037Y9667D01*
X37067Y9769D01*
X37089Y9873D01*
X37102Y9980D01*
X37106Y10090D01*
X37894D01*
X37898Y9980D01*
D02*
G37*
G36*
X45136Y10700D02*
X45210Y10601D01*
X45311Y10481D01*
X45688Y10085D01*
X45617Y9043D01*
X45531Y9122D01*
X45445Y9188D01*
X45361Y9238D01*
X45278Y9275D01*
X45196Y9296D01*
X45115Y9304D01*
X45035Y9297D01*
X44955Y9276D01*
X44877Y9240D01*
X44800Y9191D01*
X45110Y10740D01*
X45136Y10700D01*
D02*
G37*
G36*
X94040Y8232D02*
X93979Y8286D01*
X93915Y8325D01*
X93848Y8348D01*
X93778Y8357D01*
X93705Y8351D01*
X93629Y8330D01*
X93551Y8294D01*
X93469Y8242D01*
X93385Y8176D01*
X93297Y8095D01*
X92926Y8837D01*
X93936Y9756D01*
X94040Y8232D01*
D02*
G37*
G36*
X86580Y6571D02*
X86493Y6493D01*
X86415Y6412D01*
X86347Y6327D01*
X86287Y6238D01*
X86237Y6145D01*
X86195Y6049D01*
X86163Y5949D01*
X86140Y5846D01*
X86127Y5739D01*
X86122Y5628D01*
X85335Y5595D01*
X85331Y5722D01*
X85319Y5847D01*
X85299Y5967D01*
X85270Y6084D01*
X85234Y6197D01*
X85190Y6307D01*
X85138Y6413D01*
X85077Y6515D01*
X85009Y6613D01*
X84933Y6708D01*
X86580Y6571D01*
D02*
G37*
G36*
X95713Y6650D02*
X95802Y6576D01*
X95893Y6511D01*
X95987Y6455D01*
X96084Y6408D01*
X96183Y6368D01*
X96285Y6338D01*
X96389Y6317D01*
X96496Y6303D01*
X96606Y6299D01*
Y5512D01*
X96496Y5508D01*
X96389Y5494D01*
X96285Y5473D01*
X96183Y5443D01*
X96084Y5404D01*
X95987Y5356D01*
X95893Y5300D01*
X95802Y5235D01*
X95713Y5161D01*
X95627Y5079D01*
Y6732D01*
X95713Y6650D01*
D02*
G37*
G36*
X13473Y4036D02*
X13379Y4032D01*
X13286Y4020D01*
X13195Y3999D01*
X13104Y3969D01*
X13013Y3931D01*
X12923Y3884D01*
X12834Y3828D01*
X12746Y3763D01*
X12659Y3690D01*
X12572Y3608D01*
X11876Y4304D01*
X11958Y4391D01*
X12031Y4479D01*
X12096Y4567D01*
X12152Y4656D01*
X12199Y4745D01*
X12237Y4836D01*
X12267Y4927D01*
X12288Y5019D01*
X12300Y5111D01*
X12303Y5205D01*
X13473Y4036D01*
D02*
G37*
G36*
X10277Y4360D02*
X10247Y4340D01*
X10201Y4304D01*
X10064Y4182D01*
X9285Y3424D01*
X8480Y4011D01*
X8564Y4100D01*
X8635Y4188D01*
X8693Y4273D01*
X8737Y4356D01*
X8768Y4438D01*
X8787Y4517D01*
X8792Y4594D01*
X8783Y4669D01*
X8762Y4742D01*
X8727Y4813D01*
X10277Y4360D01*
D02*
G37*
G36*
X149800Y3349D02*
X149718Y3405D01*
X149626Y3455D01*
X149526Y3498D01*
X149416Y3536D01*
X149297Y3569D01*
X149169Y3595D01*
X149031Y3615D01*
X148728Y3639D01*
X148562Y3642D01*
Y4626D01*
X148728Y4629D01*
X149031Y4652D01*
X149169Y4673D01*
X149297Y4699D01*
X149416Y4731D01*
X149526Y4769D01*
X149626Y4813D01*
X149718Y4863D01*
X149800Y4919D01*
Y3349D01*
D02*
G37*
G36*
X133800Y3463D02*
X133847Y2763D01*
X133858Y2739D01*
X132953D01*
X132964Y2763D01*
X132974Y2802D01*
X132983Y2854D01*
X132997Y3001D01*
X133010Y3327D01*
X133012Y3614D01*
X133799D01*
X133800Y3463D01*
D02*
G37*
G36*
X129469D02*
X129516Y2763D01*
X129527Y2739D01*
X128622D01*
X128634Y2763D01*
X128644Y2802D01*
X128652Y2854D01*
X128666Y3001D01*
X128679Y3327D01*
X128681Y3614D01*
X129469D01*
X129469Y3463D01*
D02*
G37*
G36*
X125138D02*
X125185Y2763D01*
X125196Y2739D01*
X124292D01*
X124303Y2763D01*
X124313Y2802D01*
X124322Y2854D01*
X124336Y3001D01*
X124348Y3327D01*
X124350Y3614D01*
X125138D01*
X125138Y3463D01*
D02*
G37*
G36*
X112146D02*
X112193Y2763D01*
X112204Y2739D01*
X111300D01*
X111311Y2763D01*
X111321Y2802D01*
X111330Y2854D01*
X111344Y3001D01*
X111356Y3327D01*
X111358Y3614D01*
X112146D01*
X112146Y3463D01*
D02*
G37*
G36*
X99154D02*
X99201Y2763D01*
X99212Y2739D01*
X98308D01*
X98319Y2763D01*
X98329Y2802D01*
X98338Y2854D01*
X98352Y3001D01*
X98364Y3327D01*
X98366Y3614D01*
X99154D01*
X99154Y3463D01*
D02*
G37*
G36*
X90551Y2739D02*
X89646D01*
X89669Y2780D01*
X89688Y2833D01*
X89706Y2898D01*
X89722Y2976D01*
X89745Y3166D01*
X89759Y3405D01*
X89764Y3692D01*
X90551Y3816D01*
X90551Y2739D01*
D02*
G37*
G36*
X86123Y3522D02*
X86157Y2958D01*
X86170Y2884D01*
X86185Y2823D01*
X86201Y2774D01*
X86220Y2739D01*
X85316D01*
X85319Y2752D01*
X85322Y2780D01*
X85328Y2883D01*
X85335Y3554D01*
X86122Y3673D01*
X86123Y3522D01*
D02*
G37*
G36*
X81831Y3463D02*
X81878Y2763D01*
X81889Y2739D01*
X80985D01*
X80996Y2763D01*
X81006Y2802D01*
X81015Y2854D01*
X81029Y3001D01*
X81041Y3327D01*
X81043Y3614D01*
X81831D01*
X81831Y3463D01*
D02*
G37*
G36*
X68839D02*
X68886Y2763D01*
X68897Y2739D01*
X67993D01*
X68004Y2763D01*
X68014Y2802D01*
X68023Y2854D01*
X68037Y3001D01*
X68049Y3327D01*
X68051Y3614D01*
X68839D01*
X68839Y3463D01*
D02*
G37*
G36*
X64509D02*
X64555Y2763D01*
X64567Y2739D01*
X63662D01*
X63673Y2763D01*
X63683Y2802D01*
X63692Y2854D01*
X63706Y3001D01*
X63718Y3327D01*
X63721Y3614D01*
X64508D01*
X64509Y3463D01*
D02*
G37*
G36*
X51516D02*
X51563Y2763D01*
X51574Y2739D01*
X50670D01*
X50681Y2763D01*
X50691Y2802D01*
X50700Y2854D01*
X50714Y3001D01*
X50726Y3327D01*
X50728Y3614D01*
X51516D01*
X51516Y3463D01*
D02*
G37*
G36*
X47186D02*
X47233Y2763D01*
X47244Y2739D01*
X46339D01*
X46350Y2763D01*
X46360Y2802D01*
X46369Y2854D01*
X46383Y3001D01*
X46395Y3327D01*
X46398Y3614D01*
X47185D01*
X47186Y3463D01*
D02*
G37*
G36*
X42541Y4258D02*
X42539Y4239D01*
X42544Y4218D01*
X42554Y4192D01*
X42570Y4164D01*
X42592Y4131D01*
X42620Y4095D01*
X42693Y4012D01*
X42739Y3965D01*
X42387Y3614D01*
X42854D01*
X42855Y3463D01*
X42902Y2763D01*
X42913Y2739D01*
X42009D01*
X42020Y2763D01*
X42030Y2802D01*
X42038Y2854D01*
X42053Y3001D01*
X42065Y3327D01*
X42066Y3517D01*
X41717Y3841D01*
X42548Y4272D01*
X42541Y4258D01*
D02*
G37*
G36*
X38524Y3463D02*
X38571Y2763D01*
X38582Y2739D01*
X37678D01*
X37689Y2763D01*
X37699Y2802D01*
X37708Y2854D01*
X37722Y3001D01*
X37734Y3327D01*
X37736Y3614D01*
X38524D01*
X38524Y3463D01*
D02*
G37*
G36*
X34194D02*
X34241Y2763D01*
X34252Y2739D01*
X33347D01*
X33358Y2763D01*
X33368Y2802D01*
X33377Y2854D01*
X33391Y3001D01*
X33403Y3327D01*
X33406Y3614D01*
X34193D01*
X34194Y3463D01*
D02*
G37*
G36*
X29863D02*
X29910Y2763D01*
X29921Y2739D01*
X29016D01*
X29028Y2763D01*
X29037Y2802D01*
X29046Y2854D01*
X29060Y3001D01*
X29073Y3327D01*
X29075Y3614D01*
X29862D01*
X29863Y3463D01*
D02*
G37*
G36*
X21202D02*
X21248Y2763D01*
X21260Y2739D01*
X20355D01*
X20366Y2763D01*
X20376Y2802D01*
X20385Y2854D01*
X20399Y3001D01*
X20411Y3327D01*
X20414Y3614D01*
X21201D01*
X21202Y3463D01*
D02*
G37*
G36*
X16832Y3522D02*
X16866Y2959D01*
X16879Y2884D01*
X16894Y2823D01*
X16910Y2774D01*
X16929Y2739D01*
X16024D01*
X16028Y2752D01*
X16031Y2780D01*
X16037Y2883D01*
X16043Y3554D01*
X16831Y3673D01*
X16832Y3522D01*
D02*
G37*
G36*
X121579Y2409D02*
X121488Y2452D01*
X121399Y2481D01*
X121310Y2497D01*
X121221Y2499D01*
X121133Y2488D01*
X121046Y2464D01*
X120959Y2426D01*
X120873Y2375D01*
X120787Y2310D01*
X120702Y2232D01*
X120236Y2879D01*
X120358Y3004D01*
X120763Y3464D01*
X120843Y3570D01*
X120979Y3771D01*
X121034Y3865D01*
X121081Y3957D01*
X121579Y2409D01*
D02*
G37*
G36*
X138783Y3088D02*
X138636Y2936D01*
X138403Y2659D01*
X138316Y2534D01*
X138249Y2418D01*
X138202Y2311D01*
X138175Y2214D01*
X138168Y2125D01*
X138181Y2045D01*
X138214Y1974D01*
X137549Y3004D01*
X137563Y3011D01*
X137587Y3029D01*
X137622Y3058D01*
X137862Y3284D01*
X138150Y3569D01*
X138783Y3088D01*
D02*
G37*
G36*
X104137Y3086D02*
X103990Y2934D01*
X103757Y2657D01*
X103670Y2532D01*
X103603Y2416D01*
X103557Y2309D01*
X103530Y2212D01*
X103523Y2123D01*
X103535Y2043D01*
X103568Y1972D01*
X102903Y3004D01*
X102918Y3011D01*
X102943Y3029D01*
X102977Y3058D01*
X103219Y3285D01*
X103507Y3570D01*
X104137Y3086D01*
D02*
G37*
G36*
X117129Y3082D02*
X116983Y2930D01*
X116750Y2653D01*
X116663Y2528D01*
X116596Y2413D01*
X116549Y2306D01*
X116522Y2208D01*
X116515Y2119D01*
X116528Y2039D01*
X116560Y1968D01*
X115895Y3004D01*
X115911Y3011D01*
X115936Y3029D01*
X115972Y3059D01*
X116139Y3213D01*
X116504Y3571D01*
X117129Y3082D01*
D02*
G37*
G36*
X9001Y3139D02*
X8824Y2955D01*
X8540Y2617D01*
X8434Y2463D01*
X8351Y2319D01*
X8292Y2185D01*
X8257Y2060D01*
X8245Y1946D01*
X8257Y1842D01*
X8293Y1747D01*
X7628Y3004D01*
X7601Y3006D01*
X7599Y3030D01*
X7621Y3075D01*
X7667Y3141D01*
X7737Y3229D01*
X7950Y3466D01*
X8450Y3981D01*
X9001Y3139D01*
D02*
G37*
G36*
X59124Y3468D02*
X59308Y3314D01*
X59402Y3248D01*
X59495Y3189D01*
X59589Y3138D01*
X59684Y3093D01*
X59779Y3056D01*
X59875Y3026D01*
X59971Y3004D01*
X59306Y1623D01*
X59330Y1703D01*
X59330Y1796D01*
X59307Y1900D01*
X59260Y2018D01*
X59191Y2148D01*
X59097Y2290D01*
X58981Y2445D01*
X58677Y2792D01*
X58490Y2985D01*
X59032Y3556D01*
X59124Y3468D01*
D02*
G37*
%LPC*%
G36*
X27264Y140688D02*
X26496Y140535D01*
X25845Y140100D01*
X25409Y139449D01*
X25257Y138681D01*
X25409Y137913D01*
X25845Y137262D01*
X26496Y136827D01*
X27261Y136675D01*
X27264Y136674D01*
X28013Y136417D01*
X28077Y136094D01*
X28165Y135649D01*
X28600Y134998D01*
X29252Y134563D01*
X30020Y134410D01*
X30344Y134475D01*
X31021Y133844D01*
X30965Y133563D01*
X31118Y132795D01*
X31553Y132144D01*
X32204Y131709D01*
X32972Y131556D01*
X33740Y131709D01*
X34392Y132144D01*
X34448Y132228D01*
X34480Y132255D01*
X34522Y132284D01*
X34561Y132308D01*
X34598Y132326D01*
X34634Y132340D01*
X34670Y132351D01*
X34707Y132359D01*
X39911D01*
X45563Y126707D01*
X45563Y126707D01*
X45953Y126446D01*
X46414Y126355D01*
X57185D01*
X57185Y126355D01*
X57646Y126446D01*
X58037Y126707D01*
X58891Y127562D01*
X58937Y127597D01*
X58983Y127627D01*
X59123Y127706D01*
X59175Y127731D01*
X59346Y127798D01*
X59439Y127827D01*
X59454Y127836D01*
X59626Y127870D01*
X60277Y128305D01*
X60713Y128956D01*
X60865Y129724D01*
X60713Y130492D01*
X60277Y131144D01*
X59626Y131579D01*
X58858Y131731D01*
X58090Y131579D01*
X57439Y131144D01*
X56779Y131573D01*
X56477Y131775D01*
X55709Y131928D01*
X55380Y131863D01*
X55255Y131988D01*
X55102Y132756D01*
X54667Y133407D01*
X54016Y133843D01*
X53248Y133995D01*
X52480Y133843D01*
X52283Y133711D01*
X52239Y133696D01*
X52156Y133649D01*
X51995Y133571D01*
X51937Y133548D01*
X51872Y133526D01*
X51810Y133509D01*
X51750Y133496D01*
X51695Y133488D01*
X46643D01*
X41681Y138450D01*
X41290Y138711D01*
X40829Y138803D01*
X40829Y138803D01*
X36030D01*
X34907Y139926D01*
X34516Y140187D01*
X34055Y140279D01*
X34055Y140279D01*
X28745D01*
X28655Y140288D01*
X28607Y140297D01*
X28447Y140338D01*
X28388Y140357D01*
X28213Y140427D01*
X28149Y140457D01*
X28032Y140535D01*
X27264Y140688D01*
D02*
G37*
%LPD*%
G36*
X27894Y139690D02*
X28114Y139602D01*
X28222Y139567D01*
X28436Y139512D01*
X28542Y139493D01*
X28750Y139471D01*
X28853Y139469D01*
X29154Y138681D01*
X29040Y138676D01*
X28933Y138661D01*
X28833Y138636D01*
X28741Y138601D01*
X28655Y138557D01*
X28577Y138502D01*
X28506Y138437D01*
X28442Y138362D01*
X28385Y138277D01*
X28335Y138183D01*
X27783Y139742D01*
X27894Y139690D01*
D02*
G37*
G36*
X30949Y137162D02*
X31038Y137088D01*
X31130Y137023D01*
X31223Y136967D01*
X31320Y136919D01*
X31419Y136880D01*
X31521Y136850D01*
X31625Y136828D01*
X31732Y136815D01*
X31842Y136811D01*
Y136024D01*
X31732Y136019D01*
X31625Y136006D01*
X31521Y135985D01*
X31419Y135954D01*
X31320Y135915D01*
X31223Y135868D01*
X31130Y135811D01*
X31038Y135747D01*
X30949Y135673D01*
X30863Y135591D01*
Y137244D01*
X30949Y137162D01*
D02*
G37*
G36*
X33902Y134308D02*
X33991Y134234D01*
X34082Y134169D01*
X34176Y134113D01*
X34273Y134065D01*
X34372Y134026D01*
X34474Y133996D01*
X34578Y133974D01*
X34685Y133961D01*
X34795Y133957D01*
Y133169D01*
X34685Y133165D01*
X34578Y133152D01*
X34474Y133130D01*
X34372Y133100D01*
X34273Y133061D01*
X34176Y133013D01*
X34082Y132957D01*
X33991Y132892D01*
X33902Y132818D01*
X33816Y132736D01*
Y134390D01*
X33902Y134308D01*
D02*
G37*
G36*
X52225Y131398D02*
X52165Y131492D01*
X52100Y131575D01*
X52028Y131649D01*
X51951Y131713D01*
X51868Y131767D01*
X51778Y131811D01*
X51683Y131846D01*
X51582Y131870D01*
X51475Y131885D01*
X51362Y131890D01*
X51580Y132677D01*
X51685Y132680D01*
X51790Y132690D01*
X51895Y132706D01*
X52001Y132729D01*
X52106Y132758D01*
X52212Y132793D01*
X52318Y132835D01*
X52531Y132938D01*
X52638Y133000D01*
X52225Y131398D01*
D02*
G37*
G36*
X59195Y128592D02*
X59078Y128555D01*
X58857Y128469D01*
X58754Y128420D01*
X58561Y128311D01*
X58472Y128251D01*
X58387Y128188D01*
X58307Y128120D01*
X58232Y128049D01*
X57490Y128421D01*
X57567Y128505D01*
X57632Y128591D01*
X57685Y128679D01*
X57727Y128770D01*
X57757Y128863D01*
X57776Y128959D01*
X57783Y129057D01*
X57778Y129157D01*
X57761Y129260D01*
X57733Y129365D01*
X59195Y128592D01*
D02*
G37*
D10*
X1870Y143780D02*
X10217D01*
X10335Y143898D01*
X1870Y141181D02*
X4626D01*
X161614Y140599D02*
X162657Y141642D01*
Y143512D01*
X148130Y2059D02*
Y3701D01*
X148562Y4134D01*
X150394D01*
X142933Y2059D02*
Y3869D01*
X144193Y5129D01*
Y5217D01*
X20472Y8299D02*
X25138Y3634D01*
Y2597D02*
Y3634D01*
X12146Y3878D02*
X13484Y5217D01*
X12146Y2059D02*
Y3878D01*
X7815Y2281D02*
Y2650D01*
X9481Y4315D01*
Y5150D01*
X9744Y5413D01*
X161614Y140551D02*
Y140599D01*
X20472Y8299D02*
Y14764D01*
X22571Y15878D02*
X22835Y16142D01*
X21587Y15878D02*
X22571D01*
X20472Y14764D02*
X21587Y15878D01*
D11*
X26969Y89884D02*
Y91634D01*
X29844Y87008D02*
X56772D01*
X26969Y89884D02*
X29844Y87008D01*
X28691Y90864D02*
Y93252D01*
X24699Y97244D02*
X28691Y93252D01*
X25197Y99508D02*
X30266Y94439D01*
Y91551D02*
Y94439D01*
X22742Y97244D02*
X24699D01*
X21358Y93012D02*
X24606Y89764D01*
X21358Y93012D02*
Y95860D01*
X22742Y97244D01*
X23720Y94882D02*
X26969Y91634D01*
X28691Y90864D02*
X30972Y88583D01*
X57424D01*
X30413Y91368D02*
X31624Y90158D01*
X30413Y91368D02*
Y91403D01*
X30266Y91551D02*
X30413Y91403D01*
X31624Y90158D02*
X58077D01*
X19589Y96156D02*
Y99093D01*
X20004Y99508D01*
X25197D01*
X18696Y93696D02*
Y95263D01*
X19589Y96156D01*
X18602Y93602D02*
X18696Y93696D01*
X16240Y94980D02*
X17088Y95828D01*
Y95882D01*
X18014Y96808D02*
Y100593D01*
X17088Y95882D02*
X18014Y96808D01*
Y100593D02*
X19390Y101969D01*
X53564Y4134D02*
X54527D01*
X55418Y2094D02*
X55453Y2059D01*
X55418Y2094D02*
Y3243D01*
X54527Y4134D02*
X55418Y3243D01*
X46358Y8858D02*
X48839D01*
X53564Y4134D01*
X56322Y5709D02*
X59382Y2650D01*
X49492Y10433D02*
X54216Y5709D01*
X56322D01*
X50144Y12008D02*
X54868Y7283D01*
X56975D02*
X59435Y4823D01*
X54868Y7283D02*
X56975D01*
X51083Y51771D02*
X52761Y50093D01*
X51083Y56600D02*
X51378Y56896D01*
X51083Y51771D02*
Y56600D01*
X41732Y8465D02*
X42913Y7283D01*
X41732Y8465D02*
Y15939D01*
X39687Y17421D02*
X40250D01*
X41732Y15939D01*
X38878Y18230D02*
X39687Y17421D01*
X58563Y128937D02*
Y130020D01*
X1870Y128189D02*
X16108D01*
X16541Y127756D02*
X24574D01*
X16108Y128189D02*
X16541Y127756D01*
X24574D02*
X25460Y128642D01*
X25886D01*
X1870Y130787D02*
X13510D01*
X14179Y130118D02*
X16136D01*
X13510Y130787D02*
X14179Y130118D01*
X16136D02*
X16224Y130206D01*
X17115D02*
X17520Y130610D01*
X16224Y130206D02*
X17115D01*
X1870Y138583D02*
X1908Y138545D01*
X15687D01*
X15945Y138287D01*
X1870Y135984D02*
X9640D01*
X9699Y135925D01*
X17586D01*
X18078Y136417D01*
X18504D01*
X1870Y133386D02*
X1908Y133348D01*
X14289D01*
X15157Y132480D01*
X1870Y125591D02*
X1908Y125553D01*
X25628D01*
X25689Y125492D01*
X1870Y122992D02*
X29443D01*
X30113Y122322D01*
X30539D01*
X166400Y116055D02*
X169488D01*
X116929Y106299D02*
Y110433D01*
X1870Y120394D02*
X28425D01*
X29429Y119390D01*
X32579D02*
X47835D01*
X29429D02*
X32579D01*
X26673Y139075D02*
X34055D01*
X34449Y136417D02*
X35039Y135827D01*
X40374D02*
X46673Y129528D01*
X35039Y135827D02*
X40374D01*
X34055Y139075D02*
X35531Y137598D01*
X40829D01*
X46144Y132283D01*
X30020Y136417D02*
X34449D01*
X54981Y129620D02*
X55610Y130249D01*
X106321Y142275D02*
Y143651D01*
X105413Y141142D02*
Y141368D01*
X32972Y133563D02*
X40410D01*
X63192Y53639D02*
X65065Y55512D01*
X67901D01*
X71341Y56988D02*
X75492Y52837D01*
X70878Y56988D02*
X71341D01*
X75492Y50382D02*
Y52837D01*
X67323Y60544D02*
X70878Y56988D01*
X73917Y49729D02*
Y52185D01*
X70689Y55413D02*
X73917Y52185D01*
X70226Y55413D02*
X70689D01*
X65748Y59891D02*
X70226Y55413D01*
X67901Y55512D02*
X69574Y53838D01*
X72342Y49077D02*
Y51532D01*
X69574Y53838D02*
X70036D01*
X72342Y51532D01*
X78800Y42620D02*
X79250Y42170D01*
X66771Y52848D02*
X66975Y52644D01*
X69384Y52264D02*
X70768Y50880D01*
Y48425D02*
Y50880D01*
X66975Y52644D02*
X67238D01*
X66229Y52848D02*
X66771D01*
X66038Y52658D02*
X66229Y52848D01*
X67238Y52644D02*
X67618Y52264D01*
X69384D01*
X75492Y50382D02*
X85676Y40198D01*
Y32028D02*
Y40198D01*
X84101Y32680D02*
Y39545D01*
X73917Y49729D02*
X84101Y39545D01*
X73327Y48093D02*
Y48093D01*
X72342Y49077D02*
X73327Y48093D01*
Y48093D02*
X78800Y42620D01*
X70768Y48425D02*
X78148Y41045D01*
X68624Y47802D02*
X72444Y43981D01*
Y41107D02*
Y43981D01*
X68624Y47802D02*
Y50077D01*
X66038Y48160D02*
X67716Y46482D01*
X66038Y48160D02*
Y52658D01*
X67716Y45395D02*
X69095Y44017D01*
X67716Y45395D02*
Y46482D01*
X68405Y50295D02*
X68624Y50077D01*
X56299Y58968D02*
X57972Y57295D01*
Y53900D02*
Y57295D01*
X51476Y46949D02*
Y48136D01*
X49016Y50596D02*
X51476Y48136D01*
X49016Y50596D02*
Y57874D01*
X59646Y52320D02*
X61027Y53700D01*
X60827Y61128D02*
X61027Y60928D01*
Y53700D02*
Y60928D01*
X60827Y61128D02*
Y63872D01*
X56299Y58968D02*
Y62801D01*
X56398Y62900D01*
Y63897D02*
X58071Y65570D01*
X56398Y62900D02*
Y63897D01*
X51229Y59001D02*
X51378Y58852D01*
X51476Y46949D02*
X56988Y41437D01*
X48917Y60236D02*
X48917Y60236D01*
X33071Y60236D02*
X48917D01*
X29036Y64272D02*
X33071Y60236D01*
X49994Y60236D02*
X51229Y59001D01*
X48917Y60236D02*
X49994D01*
X51378Y56896D02*
Y58852D01*
X63192Y53639D02*
Y53639D01*
X61221Y48524D02*
Y51667D01*
X63192Y53639D01*
X60827Y63872D02*
X61221Y64266D01*
X65748Y59891D02*
Y63448D01*
X64370Y64826D02*
X65748Y63448D01*
X65945Y65478D02*
X67323Y64100D01*
Y60544D02*
Y64100D01*
X63207Y61910D02*
X63386D01*
X62706Y62411D02*
X63207Y61910D01*
X59646Y47871D02*
X62106Y45411D01*
X59646Y47871D02*
Y52320D01*
X61221Y48524D02*
X64567Y45177D01*
X81004Y12598D02*
X82343D01*
X72776Y2059D02*
Y4370D01*
X81004Y12598D01*
X81437Y2059D02*
Y6536D01*
X89468Y14567D01*
X87894Y15923D02*
Y21752D01*
X82995Y11024D02*
X87894Y15923D01*
X82973Y11024D02*
X82995D01*
X89468Y14567D02*
Y21100D01*
X77106Y5158D02*
X82973Y11024D01*
X82343Y12598D02*
X86225Y16480D01*
Y22339D01*
X81690Y14173D02*
X84650Y17133D01*
X68445Y3681D02*
X78937Y14173D01*
X81690D01*
X58071Y65570D02*
Y74574D01*
X26028Y79134D02*
X53511D01*
X58071Y74574D01*
X25376Y80709D02*
X54163D01*
X59646Y64918D02*
Y75226D01*
X54163Y80709D02*
X59646Y75226D01*
X61221Y64266D02*
Y75878D01*
X24724Y82284D02*
X54815D01*
X61221Y75878D01*
X62795Y63312D02*
Y76531D01*
X24072Y83858D02*
X55468D01*
X62795Y76531D01*
X64370Y64826D02*
Y77183D01*
X23419Y85433D02*
X56120D01*
X64370Y77183D01*
X56772Y87008D02*
X65945Y77835D01*
Y65478D02*
Y77835D01*
X57424Y88583D02*
X67520Y78487D01*
Y71100D02*
Y78487D01*
X69095Y71752D02*
Y79140D01*
X58077Y90158D02*
X69095Y79140D01*
X16331Y78937D02*
X25832D01*
X26028Y79134D01*
X8366Y86902D02*
X16331Y78937D01*
X16983Y80512D02*
X25179D01*
X25376Y80709D01*
X9941Y87554D02*
X16983Y80512D01*
X17636Y82087D02*
X24527D01*
X24724Y82284D01*
X11516Y88206D02*
X17636Y82087D01*
X18288Y83662D02*
X23875D01*
X24072Y83858D01*
X13091Y88859D02*
X18288Y83662D01*
X15685Y88492D02*
X18940Y85236D01*
X23223D01*
X23419Y85433D01*
X69095Y71752D02*
X74213Y66634D01*
X48122Y72641D02*
X49905D01*
X50000Y72736D01*
X50093D01*
X52461Y75104D01*
Y75197D01*
X58468Y63740D02*
X59646Y64918D01*
X62706Y62411D02*
Y63222D01*
X62795Y63312D01*
X58468Y60479D02*
Y63740D01*
Y60479D02*
X59255Y59691D01*
X67520Y71100D02*
X72638Y65982D01*
X71063Y78371D02*
Y78740D01*
X70762Y78069D02*
X71063Y78371D01*
X70762Y77630D02*
Y78069D01*
X70669Y77538D02*
X70762Y77630D01*
X70669Y72404D02*
Y77538D01*
X48842Y75554D02*
Y75614D01*
X48387Y75098D02*
X48842Y75554D01*
X20158Y75098D02*
X48387D01*
X47335Y73428D02*
X48122Y72641D01*
X15790Y68504D02*
X20416Y73130D01*
X21927D01*
X22226Y73428D02*
X47335D01*
X21927Y73130D02*
X22226Y73428D01*
X46682Y71854D02*
X47470Y71066D01*
X52642D02*
X53626Y72051D01*
X47470Y71066D02*
X52642D01*
X16246Y66732D02*
X20675Y71161D01*
X22878Y71854D02*
X46682D01*
X20675Y71161D02*
X22186D01*
X22878Y71854D01*
X15926Y70866D02*
X20158Y75098D01*
X21590Y68339D02*
X23527Y70276D01*
X46033D02*
X46817Y69491D01*
X23527Y70276D02*
X24709D01*
X26672D02*
X46033D01*
X24712Y70279D02*
X26669D01*
X24709Y70276D02*
X24712Y70279D01*
X26669D02*
X26672Y70276D01*
X45527Y68555D02*
X46165Y67917D01*
X25592Y68113D02*
X25893Y68415D01*
X26654D01*
X26794Y68555D01*
X45527D01*
X10433Y70866D02*
X15926D01*
X12500Y68504D02*
X15790D01*
X15685Y88492D02*
Y90418D01*
X13091Y88859D02*
Y94112D01*
X11516Y88206D02*
Y94764D01*
X16240Y92618D02*
X20958Y87900D01*
X16240Y92618D02*
Y94980D01*
X21653Y87900D02*
X22050Y87503D01*
X20958Y87900D02*
X21653D01*
X13091Y94112D02*
X16439Y97461D01*
X11516Y94764D02*
X14764Y98012D01*
X13189Y98664D02*
Y108119D01*
X9941Y95416D02*
X13189Y98664D01*
X11614Y99317D02*
Y101274D01*
X8366Y96069D02*
X11614Y99317D01*
X6201Y106687D02*
X11614Y101274D01*
X77106Y2059D02*
Y5158D01*
X84650Y17133D02*
Y20566D01*
X59435Y4823D02*
X62992D01*
X64114Y3701D01*
X25689Y11452D02*
X32052Y17815D01*
X37008D01*
X64114Y2059D02*
Y3701D01*
X68445Y2059D02*
Y3681D01*
X59382Y2650D02*
X59784D01*
X39075Y11867D02*
Y11867D01*
X39862Y6589D02*
Y11079D01*
X39075Y11867D02*
X39862Y11079D01*
X42913Y7283D02*
X43807D01*
X43807Y7284D01*
X45764D01*
X65154Y17323D02*
X67812Y19981D01*
X35433Y15453D02*
X35489D01*
X39075Y11867D01*
X32716Y12795D02*
X35919D01*
X37500Y8268D02*
Y11215D01*
X35919Y12795D02*
X37500Y11215D01*
X38878Y18230D02*
Y21352D01*
X37008Y17815D02*
X39370Y15453D01*
X25492Y22244D02*
X35045D01*
X35537Y22736D01*
X19783Y27953D02*
X25492Y22244D01*
X41240Y19685D02*
Y22835D01*
X34885Y24311D02*
X39764D01*
X41240Y22835D01*
X26144Y23819D02*
X34393D01*
X34885Y24311D01*
X33619Y25886D02*
X40982D01*
X33127Y25394D02*
X33619Y25886D01*
X26797Y25394D02*
X33127D01*
X32967Y27461D02*
X41634D01*
X30616Y27067D02*
X32573D01*
X32967Y27461D01*
X29232Y28451D02*
X30616Y27067D01*
X26378Y50000D02*
X29232Y47146D01*
Y28451D02*
Y47146D01*
X35537Y22736D02*
X37494D01*
X21358Y28605D02*
X26144Y23819D01*
X37494Y22736D02*
X38878Y21352D01*
X43701Y14407D02*
Y23167D01*
X40982Y25886D02*
X43701Y23167D01*
Y14407D02*
X47675Y10433D01*
X41634Y27461D02*
X45276Y23819D01*
Y15059D02*
X48327Y12008D01*
X45276Y15059D02*
Y23819D01*
X44587Y10630D02*
X46358Y8858D01*
X28150Y10433D02*
X28406Y10689D01*
X30610D01*
X32716Y12795D01*
X42461Y1876D02*
Y3687D01*
X45764Y7284D02*
X45764Y7283D01*
X48187D01*
X38130Y4857D02*
X39862Y6589D01*
X25689Y8661D02*
Y11452D01*
Y8661D02*
X29469Y4882D01*
Y2059D02*
Y4882D01*
X38130Y1770D02*
Y4857D01*
X47675Y10433D02*
X49492D01*
X48327Y12008D02*
X50144D01*
X62106Y40163D02*
Y45411D01*
X69095Y43602D02*
Y44017D01*
X66142Y43214D02*
X67524Y41833D01*
X66142Y43214D02*
Y45829D01*
X63881Y48090D02*
X66142Y45829D01*
X63881Y48090D02*
Y50766D01*
X49314Y39550D02*
X49452Y39412D01*
X54490D01*
X54629Y39274D01*
X10138Y47441D02*
X19052D01*
X21358Y45135D01*
Y28605D02*
Y45135D01*
X7480Y50098D02*
X10138Y47441D01*
X9175Y45866D02*
X18400D01*
X7972Y44980D02*
X8289D01*
X18400Y45866D02*
X19783Y44482D01*
X8289Y44980D02*
X9175Y45866D01*
X19783Y27953D02*
Y44482D01*
X16541Y62303D02*
X17733D01*
X22933Y54632D02*
Y57103D01*
X17733Y62303D02*
X22933Y57103D01*
X24335Y63114D02*
X25492Y64272D01*
X29036D01*
X22151Y51378D02*
X24335Y53561D01*
Y59990D02*
Y63114D01*
Y53561D02*
Y53806D01*
Y59990D02*
X24508Y59817D01*
Y53979D02*
Y59817D01*
X24335Y53806D02*
X24508Y53979D01*
X14862Y63982D02*
X16541Y62303D01*
X46817Y69491D02*
X50987D01*
X46165Y67917D02*
X48979D01*
X16240Y66732D02*
X16246D01*
X14764Y65256D02*
X16240Y66732D01*
X8366Y88878D02*
Y96069D01*
Y88878D02*
X8366Y88878D01*
Y86902D02*
Y88878D01*
X9941Y87554D02*
Y89781D01*
X9941Y89781D02*
Y95416D01*
Y89781D02*
X9941Y89781D01*
X14764Y64272D02*
X14862Y64173D01*
X14764Y64272D02*
Y65256D01*
X14862Y63982D02*
Y64173D01*
X21549Y53248D02*
X22933Y54632D01*
X19592Y53248D02*
X21549D01*
X18110Y54823D02*
X18209Y54724D01*
Y54632D02*
Y54724D01*
Y54632D02*
X19592Y53248D01*
X16726Y57185D02*
X17418Y56493D01*
X17418D01*
X18110Y55801D01*
Y54823D02*
Y55801D01*
X13386D02*
X14770Y57185D01*
X16726D01*
X13386Y53248D02*
X14961Y51673D01*
X13386Y53248D02*
Y55801D01*
X18597Y51378D02*
X22151D01*
X15748Y54397D02*
Y54823D01*
X16300Y53674D02*
Y53844D01*
X15748Y54397D02*
X16300Y53844D01*
Y53674D02*
X18597Y51378D01*
X54506Y129528D02*
X54598Y129620D01*
X54981D01*
X46673Y129528D02*
X54506D01*
X46144Y132283D02*
X52953D01*
X40410Y133563D02*
X46414Y127559D01*
X57185D01*
X110689Y135691D02*
Y143512D01*
X51676Y32580D02*
X58660D01*
X47461Y143512D02*
X47498Y143474D01*
Y142069D02*
Y143474D01*
Y142069D02*
X47539Y142027D01*
X97730Y28242D02*
X98628D01*
X102073Y26870D02*
X102762Y26181D01*
X98628Y28242D02*
X100000Y26870D01*
X102073D01*
X102253Y24409D02*
X105501Y21161D01*
X102227Y24409D02*
X102253D01*
X94789Y27216D02*
X96808Y25197D01*
X101440D01*
X102227Y24409D01*
X93214Y26564D02*
X96156Y23622D01*
X100787D02*
X108760Y15650D01*
X96156Y23622D02*
X100787D01*
X9180Y69613D02*
X10433Y70866D01*
X123819Y90847D02*
X129429D01*
X129921Y91339D02*
X150689D01*
X129429Y90847D02*
X129921Y91339D01*
X136176Y88784D02*
X138317D01*
X138809Y88291D01*
X160134D01*
X165335Y83091D01*
X127322Y42421D02*
X127362D01*
X128642Y43701D02*
X131097D01*
X127362Y42421D02*
X128642Y43701D01*
X106693Y86122D02*
Y86122D01*
X100689Y93484D02*
X103568Y90605D01*
Y89247D02*
X106693Y86122D01*
X103568Y89247D02*
Y90605D01*
X121844Y3144D02*
X122146Y3445D01*
X121057Y3144D02*
X121844D01*
X120413Y2500D02*
X121057Y3144D01*
X120413Y2059D02*
Y2500D01*
X117526Y4035D02*
X118405D01*
X120067Y4724D02*
X127252Y11909D01*
X118405Y4035D02*
X119095Y4724D01*
X120067D01*
X113673Y5610D02*
X117618D01*
X119415Y6299D02*
X127387Y14272D01*
X117618Y5610D02*
X118307Y6299D01*
X119415D01*
X111909Y7185D02*
X116929D01*
X118763Y7874D02*
X127325Y16437D01*
X116929Y7185D02*
X117618Y7874D01*
X118763D01*
X110925Y8760D02*
X116251D01*
X118110Y9449D02*
X128150Y19488D01*
X116251Y8760D02*
X116940Y9449D01*
X118110D01*
X127252Y11909D02*
X137008D01*
X116083Y2592D02*
X117526Y4035D01*
X127387Y14272D02*
X139364D01*
X111752Y3689D02*
X113673Y5610D01*
X127325Y16437D02*
X135833D01*
X108071Y3347D02*
X111909Y7185D01*
X107087Y4921D02*
X110925Y8760D01*
X104626Y14665D02*
X106102Y13190D01*
X114076D01*
X115748Y14862D01*
X128150Y19488D02*
X133957D01*
X104626Y14665D02*
X104626D01*
X91831Y20079D02*
X99213D01*
X104626Y14665D01*
X115748Y14862D02*
X115847D01*
X93214Y26564D02*
Y47293D01*
X98332Y37020D02*
X103758Y31594D01*
X111805D01*
X98332Y37020D02*
Y49459D01*
X111805Y31594D02*
X116726Y26673D01*
X99907Y37673D02*
X104410Y33169D01*
X112458D01*
X117379Y28248D01*
X99907Y37673D02*
Y50112D01*
X101481Y38325D02*
X105062Y34744D01*
X113110D02*
X117145Y30709D01*
X105062Y34744D02*
X113110D01*
X101481Y38325D02*
Y50764D01*
X103056Y38977D02*
Y51416D01*
X105714Y36319D02*
X113762D01*
X103056Y38977D02*
X105714Y36319D01*
X113762D02*
X117798Y32283D01*
X94587Y12900D02*
Y14567D01*
X90158Y8470D02*
X94587Y12900D01*
X89468Y21100D02*
X91639Y23270D01*
X87894Y21752D02*
X90064Y23923D01*
X85335Y23228D02*
X86225Y22339D01*
X105501Y21161D02*
X105807D01*
X106004Y20965D02*
X106786D01*
X105807Y21161D02*
X106004Y20965D01*
X94789Y27216D02*
Y47945D01*
X102762Y26181D02*
X110728D01*
X112303Y27756D01*
X91639Y23270D02*
Y46640D01*
X90064Y23923D02*
Y45988D01*
X85728Y6397D02*
Y7480D01*
X106786Y20965D02*
X111915Y15835D01*
Y15552D02*
Y15835D01*
X82185Y19690D02*
Y32991D01*
X85335Y23228D02*
Y31686D01*
X84646Y20570D02*
Y21611D01*
X83760Y22497D02*
Y32339D01*
Y22497D02*
X84646Y21611D01*
Y20570D02*
X84650Y20566D01*
X70079Y19098D02*
Y20706D01*
X63875Y12894D02*
X70079Y19098D01*
X62500Y12894D02*
X63875D01*
X70079Y20706D02*
X77169Y27796D01*
X72441Y20768D02*
X79429Y27756D01*
X72441Y19095D02*
Y20768D01*
X82527Y33333D02*
Y38893D01*
X79250Y42170D02*
X82527Y38893D01*
X82185Y32991D02*
X82527Y33333D01*
X83760Y32339D02*
X84101Y32680D01*
X85335Y31686D02*
X85676Y32028D01*
X81004Y55048D02*
X90064Y45988D01*
X90158Y2749D02*
Y8470D01*
X78148Y41045D02*
X78148D01*
X79433Y39760D01*
X78800Y42620D02*
X78800D01*
X81004Y55048D02*
Y55514D01*
X82579Y55700D02*
X91639Y46640D01*
X82579Y55700D02*
Y56166D01*
X85044Y55463D02*
X93214Y47293D01*
X85044Y55463D02*
Y55928D01*
X87800Y54934D02*
Y56204D01*
Y54934D02*
X94789Y47945D01*
X105512Y39862D02*
X107579D01*
X105512Y43012D02*
X105607D01*
X105419Y46164D02*
Y51383D01*
X107781Y45185D02*
Y51518D01*
X105607Y43012D02*
X107781Y45185D01*
X109355Y41639D02*
Y50866D01*
X107579Y39862D02*
X109355Y41639D01*
Y50866D02*
X111836Y53347D01*
X123716D01*
X107781Y51518D02*
X111184Y54921D01*
X124368D01*
X105419Y51383D02*
X110531Y56496D01*
X99412Y55060D02*
X103056Y51416D01*
X99412Y55060D02*
Y57595D01*
X92930Y64078D02*
X99412Y57595D01*
X97342Y54903D02*
X101481Y50764D01*
X97342Y54903D02*
Y57438D01*
X92278Y62503D02*
X97342Y57438D01*
X95526Y54492D02*
X99907Y50112D01*
X93209Y54582D02*
X98332Y49459D01*
X79429Y27756D02*
Y37799D01*
X79433Y37803D02*
Y39760D01*
X79429Y37799D02*
X79433Y37803D01*
X136182Y104429D02*
X136182D01*
X138151Y102461D02*
X152953D01*
X136182Y104429D02*
X138151Y102461D01*
X135826Y100886D02*
X154134D01*
X134050Y102662D02*
X135826Y100886D01*
X129233Y102170D02*
X132190Y99213D01*
X157677D01*
X130424Y97638D02*
X153605D01*
X128451Y99611D02*
X130424Y97638D01*
X153605D02*
X155078Y96165D01*
X128807Y96063D02*
X152953D01*
X127424Y97445D02*
X128807Y96063D01*
X152953D02*
X154425Y94591D01*
X128154Y94488D02*
X151994D01*
X152584Y93898D02*
X152657D01*
X153539Y93016D01*
X126772Y95871D02*
X128154Y94488D01*
X151994D02*
X152584Y93898D01*
X125794Y93508D02*
X126220D01*
X126815Y92913D01*
X151341D01*
X152814Y91441D01*
X150689Y91339D02*
X152161Y89866D01*
X160823D01*
X63089Y142516D02*
Y143949D01*
X77071Y123726D02*
X77760Y123037D01*
X57854Y138799D02*
X76378Y120276D01*
X79217D02*
X79261Y120231D01*
X76378Y120276D02*
X79217D01*
X67382Y139052D02*
Y143311D01*
X79286Y126029D02*
Y127148D01*
Y126029D02*
X79528Y125787D01*
X67382Y139052D02*
X79286Y127148D01*
X160449Y41634D02*
X167702D01*
X150902Y51181D02*
X160449Y41634D01*
X130335Y51181D02*
X150902D01*
X159797Y40059D02*
X167050D01*
X150249Y49606D02*
X159797Y40059D01*
X129683Y49606D02*
X150249D01*
X159144Y38484D02*
X166397D01*
X149597Y48031D02*
X159144Y38484D01*
X129031Y48031D02*
X149597D01*
X57185Y127559D02*
X58563Y128937D01*
X52658Y141732D02*
Y143184D01*
X76870Y117520D02*
X81004D01*
X52658Y141732D02*
X76870Y117520D01*
X100787Y139966D02*
Y141559D01*
X96990Y136169D02*
X100787Y139966D01*
Y141559D02*
X101990Y142762D01*
X105413Y141368D02*
X106321Y142275D01*
X101990Y143474D02*
X102027Y143512D01*
X101990Y142762D02*
Y143474D01*
X95276Y95573D02*
Y106102D01*
X97249Y108076D02*
Y108714D01*
X95276Y106102D02*
X97249Y108076D01*
X90555Y80221D02*
Y90853D01*
X95276Y95573D01*
X98009Y109876D02*
X99114Y110981D01*
X93405Y95970D02*
X93701Y96266D01*
X95674Y108801D02*
Y111028D01*
X93701Y96266D02*
Y106828D01*
X95674Y108801D01*
X93405Y95965D02*
Y95970D01*
X90206Y92765D02*
X93405Y95965D01*
X95674Y111028D02*
X97539Y112894D01*
X88249Y81897D02*
Y90773D01*
X90206Y92731D02*
Y92765D01*
X88249Y90773D02*
X90206Y92731D01*
X91339Y97244D02*
Y106693D01*
X94099Y109454D01*
X104885Y83760D02*
X105180Y83465D01*
X94193Y83760D02*
X104885D01*
X105180Y83465D02*
X107376D01*
X100689Y93484D02*
Y115320D01*
X97249Y108714D02*
X98036Y109502D01*
Y109848D01*
X115453Y141142D02*
Y141568D01*
Y138227D02*
Y141142D01*
X89961Y79626D02*
X90555Y80221D01*
X82972Y71021D02*
Y85343D01*
X82583Y85733D02*
X82972Y85343D01*
X106595Y95571D02*
Y95768D01*
X105512Y96850D02*
Y113461D01*
Y96850D02*
X106595Y95768D01*
X135904Y130564D02*
X138312Y132972D01*
X125629Y130564D02*
X135904D01*
X121660Y126595D02*
X125629Y130564D01*
X123130Y130301D02*
X125760Y132931D01*
X130382D01*
X120085Y123580D02*
Y127247D01*
X123130Y130292D01*
Y130301D01*
X130382Y132931D02*
X132759D01*
X117650Y92815D02*
X117655Y92819D01*
X113779Y91831D02*
X113929D01*
X114913Y92815D01*
X117650D01*
X169390Y135433D02*
Y140453D01*
X171319Y142382D02*
Y143512D01*
X169390Y140453D02*
X171319Y142382D01*
X165551Y129323D02*
Y133864D01*
X162686Y126083D02*
Y126458D01*
X165551Y129323D01*
X153996Y141398D02*
Y143512D01*
X143504Y129232D02*
Y130905D01*
X153996Y141398D01*
X134511Y137894D02*
X136721D01*
X133231Y136614D02*
X134511Y137894D01*
X136721D02*
X141004Y142177D01*
X132759Y132931D02*
X135753Y135925D01*
X139665D01*
X145334Y141594D01*
X149665Y140788D02*
Y143512D01*
X137867Y128989D02*
X149665Y140788D01*
X126281Y128989D02*
X137867D01*
X123234Y125943D02*
X126281Y128989D01*
X126887Y127368D02*
X135981D01*
X124809Y125291D02*
X126887Y127368D01*
X128689Y125793D02*
X135329D01*
X127172Y124276D02*
X128689Y125793D01*
X130518Y124218D02*
X134049D01*
X127362Y121063D02*
X130518Y124218D01*
X134049D02*
X135335Y122933D01*
X127172Y124219D02*
Y124276D01*
X128439Y118799D02*
X138853D01*
X127953Y118313D02*
X128439Y118799D01*
X138853D02*
X139837Y119783D01*
X146235D01*
X132290Y121856D02*
X132716D01*
X133214Y121358D01*
X146887D01*
X135981Y127368D02*
X136479Y126870D01*
X144482D01*
X146555Y128943D01*
Y129992D01*
X135329Y125793D02*
X136614Y124508D01*
X148192D01*
X149176Y123524D01*
X135335Y122933D02*
X147539D01*
X148524Y121949D01*
X149176Y123524D02*
X166433D01*
X174016Y131106D01*
X148524Y121949D02*
X168594D01*
X159049Y101279D02*
X162276Y98052D01*
X154527Y101279D02*
X159049D01*
X162276Y98052D02*
X170820D01*
X159702Y102854D02*
X162929Y99627D01*
X153346Y102854D02*
X159702D01*
X152030Y104429D02*
X160354D01*
X163504Y101279D01*
X166700D01*
X138488Y85142D02*
X158829D01*
X133077Y84842D02*
X138189D01*
X138488Y85142D01*
X129528Y88392D02*
X133077Y84842D01*
X156091Y72638D02*
X158158Y70571D01*
X173965D01*
X149803Y72638D02*
X156091D01*
X173965Y70571D02*
X175048Y71653D01*
X175394D01*
X159300Y78740D02*
X160579Y77461D01*
X152052Y78740D02*
X159300D01*
X152705Y80315D02*
X161412D01*
X164656Y77070D01*
X151327Y81693D02*
X152705Y80315D01*
X158829Y85142D02*
X164247Y79724D01*
X173419D01*
X159482Y86717D02*
X164899Y81299D01*
X137450Y86717D02*
X159482D01*
X164899Y81299D02*
X174072D01*
X165335Y83091D02*
X181110D01*
X160823Y89866D02*
X165365Y85324D01*
X180058D01*
X166179Y87008D02*
X178967D01*
X152814Y91441D02*
X161746D01*
X166179Y87008D01*
X153539Y93016D02*
X162398D01*
X166831Y88583D02*
X178315D01*
X162398Y93016D02*
X166831Y88583D01*
X154425Y94591D02*
X163101D01*
X167534Y90158D02*
X177524D01*
X163101Y94591D02*
X167534Y90158D01*
X163753Y96165D02*
X168186Y91732D01*
X155078Y96165D02*
X163753D01*
X168186Y91732D02*
X171161D01*
X123716Y53347D02*
X129031Y48031D01*
X124368Y54921D02*
X129683Y49606D01*
X110531Y56496D02*
X125020D01*
X130335Y51181D01*
X116726Y26673D02*
X116732D01*
X117473Y26097D02*
X117979Y25591D01*
X117309Y26097D02*
X117473D01*
X117979Y25591D02*
X118405D01*
X116732Y26673D02*
X117309Y26097D01*
X117798Y32283D02*
X140369D01*
X178858Y54508D02*
X181110D01*
X177067Y56299D02*
X178858Y54508D01*
X132455Y56299D02*
X177067D01*
X179058Y59705D02*
X181110D01*
X133504D02*
X133541D01*
X129724Y63484D02*
X133504Y59705D01*
X133797Y59449D02*
X178802D01*
X179058Y59705D01*
X133541D02*
X133797Y59449D01*
X134449Y61024D02*
X178150D01*
X179429Y62303D02*
X181110D01*
X178150Y61024D02*
X179429Y62303D01*
X177806Y70725D02*
X179740Y72659D01*
X177806Y70725D02*
Y70725D01*
X179740Y72659D02*
X180653D01*
X178315Y88583D02*
X180618Y90886D01*
X181110D01*
X178967Y87008D02*
X180209Y88250D01*
X181073D01*
X180277Y85542D02*
X180418D01*
X180565Y85689D02*
X181110D01*
X180058Y85324D02*
X180277Y85542D01*
X180418D02*
X180565Y85689D01*
X181073Y88250D02*
X181110Y88287D01*
X160138Y74902D02*
X163583D01*
X164177Y75496D02*
X169687D01*
X163583Y74902D02*
X164177Y75496D01*
X164656Y77070D02*
X170340D01*
X170343Y77067D02*
X171997D01*
X172089Y76974D02*
X172829D01*
X171997Y77067D02*
X172089Y76974D01*
X170340Y77070D02*
X170343Y77067D01*
X172829Y76974D02*
X173130Y76673D01*
X126254Y84842D02*
X130850D01*
X132424Y83268D01*
X155220D01*
X129921Y68239D02*
Y68843D01*
X128150Y66467D02*
X129921Y68239D01*
Y68843D02*
X130210Y69132D01*
Y71254D01*
X130512Y71555D01*
X146357Y39568D02*
X151870Y34055D01*
X131694Y39568D02*
X146357D01*
X126081Y35631D02*
X132974D01*
X133761Y36419D02*
X142914D01*
X132974Y35631D02*
X133761Y36419D01*
X126733Y37206D02*
X131694D01*
X132482Y37994D02*
X144579D01*
X131694Y37206D02*
X132482Y37994D01*
X131102Y38976D02*
X131694Y39568D01*
X127264Y38976D02*
X131102D01*
X175984Y54724D02*
X178839Y51870D01*
X131803Y54724D02*
X175984D01*
X125000Y61527D02*
X131803Y54724D01*
X164673Y45776D02*
Y45776D01*
X163572Y46877D02*
X164673Y45776D01*
X163091Y48393D02*
Y48819D01*
Y48393D02*
X163572Y47911D01*
Y46877D02*
Y47911D01*
X133405Y2059D02*
Y3878D01*
X134350Y4823D02*
X137733D01*
X133405Y3878D02*
X134350Y4823D01*
X137733D02*
X149016Y16105D01*
X129075Y3929D02*
X131543Y6398D01*
X137064D02*
X147244Y16578D01*
X131543Y6398D02*
X137064D01*
X128787Y7972D02*
X136411D01*
X124744Y3929D02*
X128787Y7972D01*
X111752Y2059D02*
Y3689D01*
X107866Y3347D02*
X108071D01*
X105416Y4921D02*
X107087D01*
X77362Y63610D02*
Y64477D01*
Y63610D02*
X85044Y55928D01*
X70669Y72404D02*
X75984Y67089D01*
X72638Y64747D02*
X74213Y63173D01*
X72638Y64747D02*
Y65982D01*
X74213Y62305D02*
Y63173D01*
Y62305D02*
X81004Y55514D01*
X48187Y7283D02*
X51122Y4348D01*
Y2059D02*
Y4348D01*
X64675Y19975D02*
Y20375D01*
X67135Y22836D02*
X69981D01*
X64675Y20375D02*
X67135Y22836D01*
X71457Y26777D02*
Y40119D01*
X72444Y41107D01*
X17520Y64665D02*
X17946D01*
X18501Y65221D01*
X18567D01*
X21590Y68244D01*
Y68339D01*
X12605Y108703D02*
X13189Y108119D01*
X12605Y108703D02*
Y109443D01*
X12303Y109744D02*
X12605Y109443D01*
X86516Y131054D02*
Y139075D01*
X89035Y141595D02*
Y143512D01*
X86516Y139075D02*
X89035Y141595D01*
X89272Y131791D02*
Y137714D01*
X92719Y141162D01*
Y142121D01*
X93328Y143474D02*
X93366Y143512D01*
X92719Y142121D02*
X93328Y142730D01*
Y143474D01*
X97697Y142018D02*
Y143512D01*
Y142018D02*
X98425Y141290D01*
Y140945D02*
Y141290D01*
X106321Y143651D02*
X106358Y143689D01*
X95965Y113546D02*
Y117276D01*
X94099Y111681D02*
X95965Y113546D01*
X94099Y109454D02*
Y111681D01*
X107486Y128798D02*
Y132488D01*
X95965Y117276D02*
X107486Y128798D01*
Y132488D02*
X110689Y135691D01*
X97539Y112894D02*
Y116624D01*
X109061Y128146D02*
Y131836D01*
X97539Y116624D02*
X109061Y128146D01*
Y131836D02*
X115453Y138227D01*
X99114Y110981D02*
Y115972D01*
X110636Y127494D02*
Y131184D01*
X99114Y115972D02*
X110636Y127494D01*
Y131184D02*
X119313Y139860D01*
Y143474D01*
X112211Y126841D02*
Y130531D01*
X100689Y115320D02*
X112211Y126841D01*
X102264Y94136D02*
X106734Y89665D01*
X102264Y94136D02*
Y114667D01*
X113786Y126189D01*
Y129879D01*
X112211Y130531D02*
X122967Y141288D01*
X113786Y129879D02*
X123619Y139713D01*
X103839Y114015D02*
X115360Y125537D01*
X103839Y94788D02*
X106004Y92623D01*
X103839Y94788D02*
Y114015D01*
X105512Y113461D02*
X116935Y124884D01*
X115360Y125537D02*
Y129227D01*
X120189Y134055D01*
X116935Y124884D02*
Y128575D01*
X120841Y132480D01*
X120854D01*
X126563Y138189D01*
X130991D01*
X118510Y124232D02*
Y127900D01*
X107087Y112809D02*
X118510Y124232D01*
X107087Y98721D02*
Y112809D01*
X119980Y129393D02*
X121493Y130905D01*
X119980Y129370D02*
Y129393D01*
X118510Y127900D02*
X119980Y129370D01*
X108661Y112156D02*
X120085Y123580D01*
X108661Y99373D02*
Y112156D01*
X110236Y100025D02*
Y111504D01*
X121660Y122928D02*
Y126595D01*
X110236Y111504D02*
X121660Y122928D01*
X123234Y122275D02*
Y125943D01*
X111811Y100677D02*
Y110852D01*
X123234Y122275D01*
X114075Y110889D02*
X124809Y121623D01*
Y125291D01*
X122967Y141288D02*
X122981D01*
X123619Y139713D02*
X123633D01*
X125259Y141339D01*
X127666D01*
X120189Y134055D02*
X120202D01*
X125911Y139764D01*
X130339D01*
X121493Y130905D02*
X121507D01*
X127216Y136614D02*
X133231D01*
X121507Y130905D02*
X127216Y136614D01*
X122441Y115945D02*
X127812D01*
X116929Y110433D02*
X122441Y115945D01*
X107376Y83465D02*
X109646Y85734D01*
X110925Y90748D02*
Y91639D01*
X109646Y89468D02*
X110925Y90748D01*
X109646Y85734D02*
Y89468D01*
X110925Y91639D02*
X110930Y91644D01*
Y93601D01*
X110925Y93606D02*
X110930Y93601D01*
X110925Y93606D02*
Y94882D01*
X111413Y94394D01*
X107087Y98721D02*
X110925Y94882D01*
X111413Y94394D02*
X118005D01*
X174404Y67323D02*
X177806Y70725D01*
X143307Y68110D02*
X143653D01*
X144440Y67323D01*
X174404D01*
X148228Y74213D02*
X149803Y72638D01*
X150022Y78543D02*
X151597Y76968D01*
X158071D01*
X160138Y74902D01*
X129035Y78543D02*
X149311D01*
X149311Y78543D01*
X150022D01*
X150674Y80118D02*
X152052Y78740D01*
X160579Y77461D02*
X160925D01*
X60144Y17323D02*
X65154D01*
X56988Y18209D02*
X59258D01*
X56562Y18635D02*
X56988Y18209D01*
X59258D02*
X60144Y17323D01*
X56562Y18635D02*
Y22965D01*
X58660Y32580D02*
X61614Y29626D01*
Y21161D02*
Y29626D01*
Y21161D02*
X64863Y24410D01*
X61122Y20669D02*
X61614Y21161D01*
X22933Y29257D02*
X26797Y25394D01*
X23720Y44438D02*
Y44783D01*
X22933Y43650D02*
X23720Y44438D01*
X22933Y29257D02*
Y43650D01*
X23917Y50000D02*
X26378D01*
X50987Y69491D02*
X53152Y67326D01*
X84252Y66364D02*
Y69741D01*
X86538Y64078D02*
X92930D01*
X84252Y66364D02*
X86538Y64078D01*
X82677Y65711D02*
Y69089D01*
X85886Y62503D02*
X92278D01*
X82677Y65711D02*
X85886Y62503D01*
X81004Y65158D02*
Y66330D01*
X85233Y60928D02*
X91625D01*
X81004Y65158D02*
X85233Y60928D01*
X57854Y138799D02*
Y143512D01*
X47835Y119390D02*
X50689Y116535D01*
X50689D01*
X125652Y104528D02*
X130617D01*
X133078Y106988D01*
X164673Y45776D02*
X166256Y44193D01*
X126793Y97445D02*
X127424D01*
X125568Y98670D02*
X126793Y97445D01*
X125346Y98670D02*
X125568D01*
X167126Y127557D02*
Y133169D01*
X165855Y126286D02*
X167126Y127557D01*
X165855Y126089D02*
Y126286D01*
X117655Y92819D02*
X118657D01*
X106004Y92623D02*
X108568D01*
X96520Y136169D02*
X96990D01*
X92421Y132070D02*
X96520Y136169D01*
X171161Y91732D02*
X173425Y93996D01*
X173419Y79724D02*
X175250Y77894D01*
X131772Y81693D02*
X151327D01*
X169687Y75496D02*
X170872Y74311D01*
X175601D01*
X118657Y92819D02*
X123038Y97200D01*
Y99686D01*
X118005Y94394D02*
X121463Y97852D01*
Y100338D01*
X117352Y95969D02*
X119888Y98505D01*
X112065Y95969D02*
X117352D01*
X119888Y98505D02*
Y100990D01*
X118313Y99157D02*
Y101643D01*
X112718Y97544D02*
X116700D01*
X118313Y99157D01*
X116739Y99809D02*
Y102295D01*
X116048Y99119D02*
X116739Y99809D01*
X111811Y100677D02*
X113370Y99119D01*
X110236Y100025D02*
X112718Y97544D01*
X108661Y99373D02*
X112065Y95969D01*
X177207Y108760D02*
X178487Y110039D01*
X118313Y101643D02*
X124348Y107677D01*
X119888Y100990D02*
X125000Y106102D01*
X129964D01*
X121463Y100338D02*
X125652Y104528D01*
X123038Y99686D02*
X125522Y102170D01*
X129233D01*
X128451Y99611D02*
X128451D01*
X124815Y95871D02*
X126772D01*
X118707Y90457D02*
X119008Y90758D01*
X119703D01*
X124815Y95871D01*
X129964Y106102D02*
X132424Y108563D01*
X129311Y107677D02*
X131969Y110335D01*
X124348Y107677D02*
X129311D01*
X123701Y109257D02*
X128425D01*
X122716Y108273D02*
X122716D01*
X123701Y109257D01*
X116739Y102295D02*
X122716Y108273D01*
X128425Y109257D02*
X131668Y112500D01*
X123721Y90945D02*
X123819Y90847D01*
X124428Y78562D02*
X126279Y80413D01*
X126285D01*
X127565Y81693D01*
X129545D01*
X131120Y80118D01*
X114075Y102067D02*
Y110889D01*
X113370Y99119D02*
X116048D01*
X131668Y112500D02*
X143103D01*
X106734Y89665D02*
X106890D01*
X119888Y69882D02*
X124218Y74213D01*
X115748Y69882D02*
X119888D01*
X118949Y75068D02*
X122444Y78562D01*
X118297Y76643D02*
X121791Y80137D01*
X117645Y78218D02*
X121139Y81712D01*
X113696Y75068D02*
X118949D01*
X112749Y74121D02*
X113696Y75068D01*
X113044Y76643D02*
X118297D01*
X112097Y75696D02*
X113044Y76643D01*
X109793Y78218D02*
X117645D01*
X106403Y77986D02*
X108693Y75696D01*
X112097D01*
X103358Y77154D02*
X106391Y74121D01*
X112749D01*
X106403Y77986D02*
Y78252D01*
X103056Y78350D02*
X103358Y78049D01*
Y77154D02*
Y78049D01*
X121139Y81712D02*
X123124D01*
X126254Y84842D01*
X123776Y80137D02*
X126907Y83268D01*
X121791Y80137D02*
X123776D01*
X126907Y83268D02*
X130197D01*
X122444Y78562D02*
X124428D01*
X132972Y87996D02*
X134547Y86422D01*
X137155D02*
X137450Y86717D01*
X134547Y86422D02*
X137155D01*
X162581Y104429D02*
X177016D01*
X177804Y103642D02*
X178150D01*
X177016Y104429D02*
X177804Y103642D01*
X145177Y110925D02*
X162512D01*
X164283Y109154D01*
X163164Y112500D02*
X164739Y110925D01*
X143496Y112500D02*
X163164D01*
X143299Y112697D02*
X143496Y112500D01*
X145262Y114075D02*
X163816D01*
X165391Y112500D01*
X144278Y115059D02*
X145262Y114075D01*
X165391Y112500D02*
X169069D01*
X164469Y115650D02*
X166043Y114075D01*
X144930Y116634D02*
X145914Y115650D01*
X164469D01*
X146567Y117224D02*
X165231D01*
X166400Y116055D01*
X145583Y118209D02*
X146567Y117224D01*
X167961Y109154D02*
X170422Y106693D01*
X164283Y109154D02*
X167961D01*
X168417Y110925D02*
X171074Y108268D01*
X164739Y110925D02*
X168417D01*
X169069Y112500D02*
X171726Y109843D01*
X166043Y114075D02*
X169721D01*
X172379Y111417D01*
X146235Y119783D02*
X147219Y118799D01*
X174705D02*
X176870Y120965D01*
X147219Y118799D02*
X174705D01*
X146887Y121358D02*
X147871Y120374D01*
X173321D01*
X174797Y121850D01*
X175000Y123196D02*
Y123425D01*
X174797Y122993D02*
X175000Y123196D01*
X174797Y121850D02*
Y122993D01*
X177362Y114038D02*
Y117176D01*
X179617Y119431D02*
X181271D01*
X177362Y117176D02*
X179617Y119431D01*
X161006Y106004D02*
X162581Y104429D01*
X151378Y106004D02*
X161006D01*
X162929Y99627D02*
X171473D01*
X154134Y100886D02*
X154527Y101279D01*
X152953Y102461D02*
X153346Y102854D01*
X151637Y104035D02*
X152030Y104429D01*
X141676Y104035D02*
X151637D01*
X142329Y105610D02*
X150984D01*
X151378Y106004D01*
X131120Y80118D02*
X150674D01*
X125098Y74213D02*
X148228D01*
X174072Y81299D02*
X174859Y80512D01*
X177524Y90158D02*
X179925Y92559D01*
X173425Y93996D02*
Y95965D01*
X176870Y120965D02*
X177118D01*
X174016Y131106D02*
Y132677D01*
X144587Y110335D02*
X145177Y110925D01*
X139505Y117224D02*
X140489Y118209D01*
X145583D01*
X140157Y115650D02*
X141142Y116634D01*
X144930D01*
X129744Y115650D02*
X140157D01*
X127578Y113484D02*
X129744Y115650D01*
X141043Y114075D02*
X142027Y115059D01*
X144278D01*
X130396Y114075D02*
X141043D01*
X127153Y110832D02*
X130396Y114075D01*
X143103Y112500D02*
X143299Y112697D01*
X171473Y99627D02*
X171494Y99606D01*
X172146D01*
X173741Y101202D01*
X170820Y98052D02*
X170841Y98032D01*
X173031D01*
X174627Y99627D01*
X174336Y106693D02*
X179134D01*
X170422Y106693D02*
X174336D01*
X174336Y106693D01*
X173683Y108268D02*
X173683Y108268D01*
X171074Y108268D02*
X173683D01*
X173683Y108268D02*
X176679D01*
X171726Y109843D02*
X173031D01*
X173031Y109843D02*
X175394D01*
X173031Y109843D02*
X173031Y109843D01*
X173741Y101202D02*
X180401D01*
X174627Y99627D02*
X179473D01*
X175513Y98052D02*
X178821D01*
X173425Y95965D02*
X175513Y98052D01*
X131969Y110335D02*
X144587D01*
X180671Y103878D02*
X181110D01*
X180580Y103969D02*
Y104254D01*
X179134Y106693D02*
X180512Y105315D01*
Y104322D02*
X180580Y104254D01*
Y103969D02*
X180671Y103878D01*
X180512Y104322D02*
Y105315D01*
X180441Y101242D02*
X181073D01*
X180401Y101202D02*
X180441Y101242D01*
X181073D02*
X181110Y101279D01*
X179473Y99627D02*
X180381Y98719D01*
X181073D01*
X181110Y98681D01*
X128150Y62832D02*
Y66467D01*
X145334Y141594D02*
Y143512D01*
X170965Y136713D02*
X175649Y141397D01*
Y143512D01*
X166988Y141772D02*
X167815Y140945D01*
X166988Y141772D02*
Y143512D01*
X155150Y137598D02*
X158327Y140775D01*
Y143888D01*
X82972Y71021D02*
X84252Y69741D01*
X81398Y70368D02*
Y83136D01*
Y70368D02*
X82677Y69089D01*
X80315Y68110D02*
X80571Y67854D01*
Y66763D02*
Y67854D01*
Y66763D02*
X81004Y66330D01*
X75984Y65855D02*
X77362Y64477D01*
X75984Y65855D02*
Y67089D01*
X74213Y65400D02*
Y66634D01*
X75787Y62957D02*
X82579Y56166D01*
X75787Y62957D02*
Y63825D01*
X74213Y65400D02*
X75787Y63825D01*
X77428Y87106D02*
X81398Y83136D01*
X125098Y74213D02*
X125098Y74213D01*
X124218Y74213D02*
X125098D01*
X130197Y83268D02*
X131772Y81693D01*
X86717Y125882D02*
Y128626D01*
Y125882D02*
X88287Y124311D01*
X88292Y128082D02*
X92178Y124196D01*
X88292Y128082D02*
Y129278D01*
X86516Y131054D02*
X88292Y129278D01*
X84744Y130599D02*
Y142841D01*
Y130599D02*
X86717Y128626D01*
X85929Y121561D02*
Y121907D01*
X85142Y122694D02*
Y127974D01*
Y122694D02*
X85929Y121907D01*
X80315Y132801D02*
X85142Y127974D01*
X80315Y132801D02*
Y144129D01*
X76083Y134806D02*
X83567Y127321D01*
Y120582D02*
Y127321D01*
X76083Y134806D02*
Y142841D01*
X71653Y137008D02*
X81992Y126669D01*
Y119930D02*
Y126669D01*
X71653Y137008D02*
Y142821D01*
X77071Y123726D02*
Y127069D01*
X128248Y79331D02*
X129035Y78543D01*
X174859Y80512D02*
X181149D01*
X133078Y106988D02*
X138724D01*
X132093Y102662D02*
X134050D01*
X91625Y60928D02*
X95571Y56982D01*
X77169Y27796D02*
Y38683D01*
X67524Y40060D02*
Y41833D01*
X95571Y55026D02*
Y56982D01*
X95526Y54492D02*
Y54981D01*
X95571Y55026D01*
X125000Y61527D02*
Y72441D01*
X126575Y62180D02*
X129515Y59239D01*
X126575Y62180D02*
Y68635D01*
X129515Y59239D02*
X132455Y56299D01*
X129515Y59239D02*
Y59239D01*
X128150Y62832D02*
X133108Y57874D01*
X177719D01*
X129724Y63484D02*
Y65354D01*
X132197Y63275D02*
Y63570D01*
Y63275D02*
X134449Y61024D01*
X129724Y65354D02*
X129921Y65551D01*
Y65644D01*
X131982Y67705D01*
X93209Y54582D02*
Y56004D01*
X64567Y41043D02*
Y45177D01*
X67524Y40060D02*
X67720Y39864D01*
X62989Y37901D02*
X63290Y37600D01*
X167702Y41634D02*
X171403Y37933D01*
X167050Y40059D02*
X170750Y36358D01*
X166397Y38484D02*
X170098Y34784D01*
X166256Y44193D02*
X167370D01*
X181110Y44114D02*
X181419D01*
X179617D02*
X181110D01*
X175787Y48819D02*
X176214D01*
X175591D02*
X175787D01*
X125104Y118313D02*
X127953D01*
X127812Y115945D02*
X129091Y117224D01*
X124016Y113484D02*
X127578D01*
X122053Y110832D02*
X127153D01*
X129091Y117224D02*
X139505D01*
X83567Y120582D02*
X87209Y116941D01*
Y114868D02*
Y116941D01*
X81992Y119930D02*
X84055Y117868D01*
Y114862D02*
Y117868D01*
Y114862D02*
X84055Y114862D01*
X87209Y114868D02*
X87209Y114868D01*
X139376Y108563D02*
X142329Y105610D01*
X138724Y106988D02*
X141676Y104035D01*
X132424Y108563D02*
X139376D01*
X136673Y142283D02*
Y143512D01*
X135335Y140945D02*
X136673Y142283D01*
X133747Y140945D02*
X135335D01*
X146555Y129992D02*
X151406Y134843D01*
X130991Y138189D02*
X133747Y140945D01*
X130339Y139764D02*
X132342Y141767D01*
X128012Y141684D02*
Y143512D01*
X127666Y141339D02*
X128012Y141684D01*
X123681Y141988D02*
Y143512D01*
X122981Y141288D02*
X123681Y141988D01*
X180223Y136916D02*
X180315Y137008D01*
X180609Y127259D02*
Y127322D01*
X140360Y67022D02*
X141634Y65748D01*
X175056D01*
X179406Y70098D01*
X175708Y64173D02*
X179035Y67500D01*
X138735Y64964D02*
X139526Y64173D01*
X138392Y64964D02*
X138735D01*
X139526Y64173D02*
X175708D01*
X136811Y62598D02*
X176360D01*
X131097Y43701D02*
X131233Y43564D01*
X119888Y38388D02*
X119916D01*
X118313Y41144D02*
X120569D01*
X119291Y46949D02*
X127264Y38976D01*
X119747Y44193D02*
X126733Y37206D01*
X120569Y41144D02*
X126081Y35631D01*
X176360Y62598D02*
X178626Y64864D01*
X135824Y63586D02*
X136811Y62598D01*
X132087Y63681D02*
X132197Y63570D01*
X131233Y43564D02*
X146889D01*
X152362Y38091D01*
X117520Y44193D02*
X119747D01*
X116174Y46949D02*
X119291D01*
X115983Y46758D02*
X116174Y46949D01*
X115447Y46758D02*
X115983D01*
X119916Y38388D02*
X124247Y34057D01*
X178626Y64864D02*
X181128D01*
X135243Y63586D02*
X135824D01*
X126575Y68635D02*
X127710Y69770D01*
X178487Y57106D02*
X181096D01*
X177719Y57874D02*
X178487Y57106D01*
X132342Y141767D02*
Y143512D01*
X141004Y142177D02*
Y143512D01*
X119313Y143474D02*
X119350Y143512D01*
X63484Y140655D02*
X77071Y127069D01*
X63484Y140655D02*
Y142120D01*
X63089Y142516D02*
X63484Y142120D01*
X71675Y142843D02*
Y143056D01*
X71653Y142821D02*
X71675Y142843D01*
X76081D02*
Y143591D01*
Y142843D02*
X76083Y142841D01*
X84742Y142843D02*
Y143205D01*
Y142843D02*
X84744Y142841D01*
X115020Y142001D02*
Y143512D01*
Y142001D02*
X115453Y141568D01*
X137736Y2598D02*
X151575Y16437D01*
X137736Y2059D02*
Y2598D01*
X148819Y22872D02*
Y23163D01*
X147933Y21986D02*
X148819Y22872D01*
X129075Y2059D02*
Y3929D01*
X124744Y2059D02*
Y3929D01*
X116083Y2059D02*
Y2592D01*
X143307Y18214D02*
Y18307D01*
X107459Y2097D02*
Y2940D01*
X107421Y2059D02*
X107459Y2097D01*
Y2940D02*
X107866Y3347D01*
X103091Y2059D02*
Y2596D01*
X98130Y5906D02*
X98760Y5275D01*
Y2059D02*
Y5275D01*
X93504Y3543D02*
X94083D01*
X94429Y1876D02*
Y3197D01*
X94083Y3543D02*
X94429Y3197D01*
X90136Y2078D02*
Y2728D01*
X90158Y2749D01*
X85728Y6397D02*
X85728Y6398D01*
Y2214D02*
X85730Y2216D01*
Y2728D01*
X85728Y2730D02*
X85730Y2728D01*
X85728Y2730D02*
Y6398D01*
X46002Y4423D02*
X46791Y3634D01*
Y2059D02*
Y3634D01*
X45710Y4423D02*
X46002D01*
X45409Y4725D02*
X45710Y4423D01*
X41831Y4823D02*
X41935Y4718D01*
Y4213D02*
X42461Y3687D01*
X41935Y4213D02*
Y4718D01*
X33799Y2059D02*
Y8110D01*
X34738Y9049D02*
Y10033D01*
X33799Y8110D02*
X34738Y9049D01*
Y10033D02*
X35039Y10335D01*
X8766Y15742D02*
X20807Y3701D01*
Y2505D02*
Y3701D01*
X7874Y16043D02*
X8175Y15742D01*
X8766D01*
X11614Y10531D02*
X16437Y5709D01*
Y1762D02*
X16439Y1764D01*
Y2728D01*
X16437Y2730D02*
X16439Y2728D01*
X16437Y2730D02*
Y5709D01*
X175250Y77894D02*
X181110D01*
X175601Y74311D02*
X176585Y75295D01*
X181110D01*
X179406Y70098D02*
X180839D01*
X179035Y67500D02*
X181170D01*
X180441Y51872D02*
X181312D01*
X180440Y51870D02*
X180441Y51872D01*
X178839Y51870D02*
X180440D01*
X176706Y49311D02*
X181110D01*
X176214Y48819D02*
X176706Y49311D01*
X177854Y46260D02*
X178280D01*
X178733Y46713D01*
X181110D01*
X179184Y43681D02*
X179617Y44114D01*
X172274Y41516D02*
X181110D01*
X167036Y46754D02*
X172274Y41516D01*
X172055Y39508D02*
X179390D01*
X179981Y38917D02*
X181110D01*
X179390Y39508D02*
X179981Y38917D01*
X180262Y36356D02*
X181073D01*
X177913Y37933D02*
X179331Y36516D01*
X180103D02*
X180262Y36356D01*
X179331Y36516D02*
X180103D01*
X181073Y36356D02*
X181110Y36319D01*
X171403Y37933D02*
X177913D01*
X179451Y34941D02*
X180520Y33872D01*
Y33872D02*
Y33872D01*
Y33872D02*
X180671Y33720D01*
X178150Y34941D02*
X179451D01*
X180671Y33720D02*
X181110D01*
X180380Y31220D02*
X180441Y31160D01*
X179921Y31566D02*
X180267Y31220D01*
X176279Y33366D02*
X178537D01*
X179921Y31982D01*
X180267Y31220D02*
X180380D01*
X180441Y31160D02*
X181110D01*
X179921Y31566D02*
Y31982D01*
X172379Y111417D02*
X174741D01*
X175394Y109843D02*
X178937Y113386D01*
X174741Y111417D02*
X177362Y114038D01*
X178937Y113386D02*
Y116524D01*
X176679Y108268D02*
X177171Y108760D01*
X177207D01*
X178821Y98052D02*
X180580Y96292D01*
X179966Y92559D02*
X180580Y93174D01*
X180671Y93484D02*
X181110D01*
X180580Y93174D02*
Y93393D01*
X180671Y93484D01*
X179925Y92559D02*
X179966D01*
X180671Y96083D02*
X181110D01*
X180580Y96174D02*
X180671Y96083D01*
X180580Y96174D02*
Y96292D01*
X180223Y127708D02*
X180609Y127322D01*
X180223Y127708D02*
Y136916D01*
X179283Y116870D02*
X180773D01*
X178937Y116524D02*
X179283Y116870D01*
X177118Y120965D02*
X178182Y122029D01*
X180784D01*
X180009Y124684D02*
X180951D01*
X178217Y126476D02*
X180009Y124684D01*
X146715Y41437D02*
X151637Y36516D01*
X129429Y41437D02*
X146715D01*
X144579Y37994D02*
X148327Y34246D01*
X142914Y36419D02*
X145177Y34156D01*
X124247Y34057D02*
X141936D01*
X140369Y32283D02*
X141058Y31594D01*
X115256Y46457D02*
X115447Y46648D01*
X62106Y40163D02*
X62989Y39281D01*
X156888Y34605D02*
Y34605D01*
X153402Y38091D02*
X156888Y34605D01*
Y34605D02*
X159308Y32185D01*
X152362Y38091D02*
X153402D01*
X159308Y32185D02*
X161411D01*
X152750Y36516D02*
X155313Y33953D01*
X151637Y36516D02*
X152750D01*
X155313Y33953D02*
Y33953D01*
X160132Y30124D02*
X160433Y29823D01*
X159142Y30124D02*
X160132D01*
X155313Y33953D02*
X159142Y30124D01*
X161411Y32185D02*
X163774Y29823D01*
X163878D01*
X170098Y34784D02*
X174862D01*
X170750Y36358D02*
X176732D01*
X167370Y44193D02*
X172055Y39508D01*
X174862Y34784D02*
X176279Y33366D01*
X176732Y36358D02*
X178150Y34941D01*
X164002Y24213D02*
X169415Y18799D01*
X155007Y31497D02*
X161602Y24902D01*
X164002Y24213D02*
X164002D01*
X163312Y24902D02*
X164002Y24213D01*
X161602Y24902D02*
X163312D01*
X169415Y18799D02*
X173448D01*
X138188Y29922D02*
X154059D01*
X160655Y23327D01*
X162660D01*
X171161Y13878D02*
Y14173D01*
X169488Y15846D02*
Y16499D01*
Y15846D02*
X171161Y14173D01*
X162660Y23327D02*
X169488Y16499D01*
X160002Y21752D02*
X162008D01*
X167913Y7087D02*
Y15846D01*
X162008Y21752D02*
X167913Y15846D01*
X153407Y28348D02*
X160002Y21752D01*
X117145Y30709D02*
X137402D01*
X138188Y29922D01*
X153642Y31594D02*
X153739Y31497D01*
X141058Y31594D02*
X153642D01*
X132284Y28348D02*
X153407D01*
X147933Y21850D02*
Y21986D01*
Y21850D02*
X149016Y20768D01*
Y16105D02*
Y20768D01*
X153739Y31497D02*
X155007D01*
X145669Y17230D02*
Y19384D01*
X144384Y20669D02*
X145669Y19384D01*
X142717Y20669D02*
X144384D01*
X139364Y14272D02*
X143307Y18214D01*
X136411Y7972D02*
X145669Y17230D01*
X141535Y23031D02*
X141746Y22821D01*
X147244Y16578D02*
Y20036D01*
X145578Y21702D02*
X147244Y20036D01*
X145578Y21702D02*
Y21899D01*
X145485Y21992D02*
X145578Y21899D01*
X145485Y21992D02*
Y22842D01*
X141746Y21640D02*
X142717Y20669D01*
X141746Y21640D02*
Y22821D01*
X148327Y34154D02*
Y34246D01*
X145177Y34055D02*
Y34156D01*
X115447Y46648D02*
Y46758D01*
X173839Y43681D02*
X179184D01*
X170874Y46645D02*
X173839Y43681D01*
X170874Y46645D02*
Y46754D01*
X151406Y134843D02*
X155905D01*
X161614Y140551D01*
X154528Y137598D02*
X155150D01*
X165551Y133864D02*
X167815Y136128D01*
X170965Y131865D02*
Y136713D01*
X170473Y131290D02*
Y131373D01*
X167815Y136128D02*
Y140945D01*
X167126Y133169D02*
X169390Y135433D01*
X170473Y131373D02*
X170965Y131865D01*
X24011Y105704D02*
X27657Y109350D01*
X19784Y105704D02*
X24011D01*
X16439Y102359D02*
X19784Y105704D01*
X16439Y97461D02*
Y102359D01*
X62989Y37901D02*
Y39281D01*
X132087Y28150D02*
X132284Y28348D01*
X151575Y16437D02*
Y23222D01*
X117379Y28248D02*
X120374D01*
X103091Y2596D02*
X105416Y4921D01*
X92323Y4724D02*
Y7677D01*
Y4724D02*
X93504Y3543D01*
X92323Y7677D02*
X94164Y9518D01*
X69981Y22836D02*
X73327Y26181D01*
Y38189D01*
X64863Y24410D02*
X69090D01*
X71457Y26777D01*
X61122Y19685D02*
Y20669D01*
X14764Y103051D02*
X21457Y109744D01*
X14764Y98012D02*
Y103051D01*
X6201Y106687D02*
Y109547D01*
X42913Y39862D02*
X49409Y46358D01*
X42717Y39862D02*
X42913D01*
X95276Y5906D02*
X98130D01*
X56299Y23228D02*
X56562Y22965D01*
X7972Y10531D02*
X11614D01*
D83*
X126109Y88095D02*
X126737Y87466D01*
X117875Y85728D02*
X120241Y88095D01*
X117421Y85728D02*
X117875D01*
X120241Y88095D02*
X126109D01*
X17913Y11024D02*
Y14469D01*
X11220Y21161D02*
X17913Y14469D01*
D84*
X55765Y9449D02*
X57872D01*
X60332Y6988D01*
X51018Y14196D02*
X55765Y9449D01*
X58691Y12527D02*
X61277Y9941D01*
X56969Y12527D02*
X58691D01*
X56398Y12992D02*
X56504D01*
X56969Y12527D01*
X17365Y141240D02*
X17424Y141181D01*
X13386Y141240D02*
X17365D01*
X4626Y141181D02*
X8875D01*
X17424D02*
X17972D01*
X9112Y140945D02*
X13091D01*
X8875Y141181D02*
X9112Y140945D01*
X17972Y141181D02*
X36319Y122835D01*
X13091Y140945D02*
X13386Y141240D01*
X36319Y122835D02*
X48566D01*
X172186Y122736D02*
Y126123D01*
X48566Y122835D02*
X53642Y117759D01*
X166334Y73189D02*
X168457D01*
X168709Y72936D01*
X124438Y76378D02*
X148228D01*
X105413Y133477D02*
Y141142D01*
X91657Y111039D02*
Y111296D01*
X88090Y97047D02*
Y107472D01*
X85138Y72457D02*
X85339Y72256D01*
X85138Y72457D02*
Y83915D01*
X86417Y67822D02*
X87800Y66440D01*
X67444Y84032D02*
X67694Y83783D01*
X53642Y111221D02*
Y117759D01*
X50886Y108465D02*
X53642Y111221D01*
X145779Y108465D02*
X156693D01*
X123204Y85317D02*
Y85467D01*
X176870Y16119D02*
Y20276D01*
X70677Y84941D02*
X73925D01*
X70571D02*
X70677D01*
X70866Y84752D01*
X70571Y85047D02*
X70677Y84941D01*
X59842Y102953D02*
X68160Y94636D01*
X67845Y94171D02*
Y94322D01*
X40551Y102953D02*
X59449D01*
X101833Y81303D02*
X104279D01*
X79035Y75689D02*
Y79830D01*
Y75590D02*
Y75689D01*
X53740Y58440D02*
Y63878D01*
X56299Y106102D02*
Y108071D01*
X53546Y53583D02*
Y58246D01*
X55216Y47385D02*
Y49072D01*
X55413Y49269D01*
Y51715D01*
X53546Y53583D02*
X55413Y51715D01*
X53388Y63632D02*
X53634Y63878D01*
X67845Y94171D02*
X67898Y94118D01*
X68678D02*
X70276Y92520D01*
X70571Y85047D02*
Y85180D01*
X70866Y84646D02*
Y84752D01*
X70276Y85475D02*
X70571Y85180D01*
X70276Y85475D02*
Y92520D01*
X67898Y94118D02*
X68678D01*
X69626Y81693D02*
X72835D01*
X67694Y83626D02*
X69626Y81693D01*
X72835D02*
X75590Y78937D01*
X67694Y83626D02*
Y83783D01*
X51378Y99606D02*
X51453Y99531D01*
X52241D01*
X67444Y84327D01*
Y84032D02*
Y84327D01*
X75590Y71457D02*
Y78937D01*
X9744Y74418D02*
Y81201D01*
X6102Y84842D02*
X9744Y81201D01*
X5413Y81201D02*
X6988Y79626D01*
X9252Y100189D02*
Y100295D01*
X61277Y9941D02*
X70964D01*
X60332Y6988D02*
X65748D01*
X36040Y20177D02*
X36212D01*
X22441Y19488D02*
X24058D01*
X19488Y22441D02*
X21555Y20374D01*
X24300D02*
X24595Y20079D01*
X17618Y24311D02*
X19488Y22441D01*
X21555Y20374D02*
X22441Y19488D01*
X36409Y20374D02*
X36508D01*
X36212Y20177D02*
X36409Y20374D01*
X35942Y20079D02*
X36040Y20177D01*
X24595Y20079D02*
X35942D01*
X21555Y20374D02*
X24300D01*
X47441Y18248D02*
Y25337D01*
X47473Y25370D01*
X48153Y16020D02*
Y17536D01*
X47473Y25370D02*
Y26838D01*
X46063Y28248D02*
X47473Y26838D01*
X48153Y16020D02*
X48228Y15945D01*
X47441Y18248D02*
X48153Y17536D01*
X24058Y19094D02*
X25787Y17365D01*
X152510Y26182D02*
X159671Y19021D01*
X161392D01*
X48228Y15838D02*
Y15945D01*
X26894Y62106D02*
X31496Y57504D01*
X5981Y92429D02*
X6087Y92323D01*
X5981Y92216D02*
X6087Y92323D01*
X8086Y72759D02*
X8139Y72706D01*
X49826Y14196D02*
X51018D01*
X48425Y15597D02*
X49826Y14196D01*
X48228Y15838D02*
X48425Y15642D01*
Y15597D02*
Y15642D01*
X25787Y14919D02*
Y17365D01*
X23936Y13067D02*
X25787Y14919D01*
X106398Y23327D02*
X109407D01*
X17618Y24311D02*
Y43504D01*
X10982Y59547D02*
X17426D01*
X20495Y55686D02*
X20571Y55610D01*
X20495Y55686D02*
Y56478D01*
X17426Y59547D02*
X20495Y56478D01*
X9252Y61277D02*
X10982Y59547D01*
X56299Y106102D02*
X59449Y102953D01*
X108662Y11024D02*
X115454D01*
X116339Y11909D01*
X117069D01*
X118594Y13386D02*
X118701D01*
X118397Y13189D02*
X118594Y13386D01*
X118349Y13189D02*
X118397D01*
X117069Y11909D02*
X118349Y13189D01*
X106791Y9154D02*
X108662Y11024D01*
X101772Y9154D02*
X106791D01*
X114131Y18602D02*
X124114D01*
X118209Y21358D02*
X122973D01*
X115331Y24236D02*
X118209Y21358D01*
X122973D02*
X126122Y24508D01*
X112674Y24236D02*
X115331D01*
X112598Y24311D02*
X112674Y24236D01*
X109407Y23327D02*
X114131Y18602D01*
X124114D02*
X127264Y21752D01*
X91634Y15790D02*
X93364Y17520D01*
X91634Y13287D02*
Y15790D01*
X93364Y17520D02*
X95810D01*
X98032Y15298D01*
Y12894D02*
Y15298D01*
X88090Y9744D02*
X91634Y13287D01*
X98032Y12894D02*
X101772Y9154D01*
X70964Y9941D02*
X77855Y16831D01*
X80614D01*
X88114Y96972D02*
X88189Y97047D01*
X88041Y93628D02*
Y96621D01*
X88114Y96694D02*
Y96972D01*
X88041Y96621D02*
X88114Y96694D01*
X158838Y35728D02*
X162148D01*
X148700Y45866D02*
X158838Y35728D01*
X123436Y45866D02*
X148700D01*
X93799Y118173D02*
X105321Y129695D01*
Y133385D01*
X105413Y133477D01*
X88090Y107472D02*
X91657Y111039D01*
Y111296D02*
X91701D01*
X85630Y91217D02*
X88041Y93628D01*
X95727Y75197D02*
X101833Y81303D01*
X89468Y75197D02*
X95727D01*
X85138Y83915D02*
X85630Y84407D01*
X85339Y72149D02*
Y72256D01*
X85630Y84407D02*
Y91217D01*
X172186Y126123D02*
X176969Y130905D01*
X176181Y138378D02*
Y138484D01*
Y138378D02*
X176969Y137590D01*
Y130905D02*
Y137590D01*
X139689Y18087D02*
Y18481D01*
X127264Y21752D02*
X136417D01*
X139689Y18087D02*
X139764Y18012D01*
X136417Y21752D02*
X139689Y18481D01*
X174675Y4134D02*
X179626Y9085D01*
X150394Y4134D02*
X174675D01*
X179626Y9085D02*
Y26535D01*
X177559Y28602D02*
X179626Y26535D01*
X177559Y28602D02*
Y31004D01*
X50197Y19390D02*
X56398Y13189D01*
X50197Y19390D02*
Y24114D01*
X44685Y29626D02*
X46063Y28248D01*
X6102Y97039D02*
X9252Y100189D01*
X6102Y84842D02*
Y92019D01*
X5981Y92141D02*
Y92216D01*
Y92429D02*
Y92505D01*
Y92141D02*
X6102Y92019D01*
Y92626D02*
Y97039D01*
X5981Y92505D02*
X6102Y92626D01*
X93799Y115157D02*
Y117717D01*
X93799Y117717D01*
Y118173D01*
X91929Y112075D02*
Y113287D01*
X93799Y115157D01*
X91701Y111296D02*
X91808Y111402D01*
Y111953D02*
X91929Y112075D01*
X91808Y111402D02*
Y111953D01*
X149125Y76378D02*
X150700Y74803D01*
X159055Y72736D02*
X165831D01*
X150700Y74803D02*
X156988D01*
X159055Y72736D01*
X148228Y76378D02*
X148228Y76378D01*
X149125D01*
X56882Y28248D02*
X57275Y27854D01*
X46063Y28248D02*
X56882D01*
X31496Y57504D02*
X33472Y55528D01*
X31496Y38681D02*
Y57504D01*
X8268Y72941D02*
X9744Y74418D01*
X8268Y72835D02*
Y72941D01*
X3543Y72894D02*
X6988Y76338D01*
Y79626D01*
X3543Y67028D02*
Y72894D01*
Y67028D02*
X9252Y61319D01*
Y61277D02*
Y61319D01*
X6299Y68405D02*
Y71752D01*
Y68405D02*
X12205Y62500D01*
X6299Y71752D02*
X7185Y72638D01*
X7964D02*
X8086Y72759D01*
X7185Y72638D02*
X7964D01*
X37106Y116929D02*
X37154D01*
X39358Y114726D01*
X47675D01*
X59449Y102953D02*
X59842D01*
X35236Y97638D02*
X40551Y102953D01*
X117378Y81299D02*
X121343Y85263D01*
X53546Y58246D02*
X53740Y58440D01*
X121343Y85263D02*
X123151D01*
X123204Y85317D01*
X165831Y72736D02*
X166228Y73133D01*
X166334D01*
X97539Y72146D02*
X97646D01*
X85342D02*
X97539D01*
X104283Y81299D02*
X117378D01*
X104279Y81303D02*
X104283Y81299D01*
X119846Y72903D02*
X123341Y76397D01*
X113245Y71555D02*
X114593Y72903D01*
X119846D01*
X97646Y72146D02*
X98237Y71555D01*
X113245D01*
X85339Y72149D02*
X85342Y72146D01*
X85339Y72043D02*
Y72149D01*
X123341Y76397D02*
X124438D01*
X161608Y108465D02*
X163281Y106791D01*
X166929D01*
X156693Y108465D02*
X156716Y108441D01*
X157070Y108465D02*
X161608D01*
X157047Y108441D02*
X157070Y108465D01*
X156716Y108441D02*
X157047D01*
X143414Y107972D02*
X143611Y108169D01*
X145484D01*
X145779Y108465D01*
X143307Y107972D02*
X143414D01*
X85339Y72043D02*
X86417Y70964D01*
Y67822D02*
Y70964D01*
X73925Y84941D02*
X79035Y79830D01*
X59941Y39755D02*
Y42660D01*
X55216Y47385D02*
X59941Y42660D01*
X58574Y38388D02*
X59941Y39755D01*
X58467Y38281D02*
Y38388D01*
X58574D01*
X34646Y63779D02*
X53240D01*
X119302Y50000D02*
X123436Y45866D01*
X114272Y50000D02*
X119302D01*
X162148Y35728D02*
X167667Y30209D01*
Y29478D02*
Y30209D01*
X161392Y19021D02*
X164961Y15453D01*
X159866Y19367D02*
X159941Y19291D01*
X138682Y26182D02*
X152510D01*
X126122Y24508D02*
X137008D01*
X138682Y26182D01*
X144193Y5217D02*
X146063Y7087D01*
X167667Y29478D02*
X176870Y20276D01*
X46260Y36614D02*
X51987D01*
X41142D02*
X46260D01*
X33472Y55528D02*
X35003D01*
X52281Y36321D02*
X57902D01*
X51987Y36614D02*
X52281Y36321D01*
X37477Y40279D02*
X41142Y36614D01*
X57902Y36321D02*
X58232Y36650D01*
X37402Y41142D02*
X37477Y41066D01*
Y40279D02*
Y41066D01*
X164996Y7087D02*
X167913D01*
X146063D02*
X164996D01*
X167913D02*
X172933D01*
X175295Y9449D01*
Y14545D02*
X176870Y16119D01*
X175295Y9449D02*
Y14545D01*
X35003Y55528D02*
X35079Y55453D01*
X164961Y11516D02*
Y15453D01*
X58232Y36650D02*
X67224Y27657D01*
X58232Y36650D02*
Y38045D01*
X58467Y38281D01*
X57275Y27854D02*
X57382D01*
X32095Y29626D02*
X44685D01*
X67224Y27657D02*
X68996D01*
X31618Y29513D02*
X31724Y29406D01*
X31875D01*
X32095Y29626D01*
X31618D02*
Y29684D01*
X31496Y38681D02*
X33858Y41043D01*
X31496Y29806D02*
X31618Y29684D01*
X31496Y29806D02*
Y38681D01*
X23130Y12992D02*
X23205Y13067D01*
X23936D01*
D85*
X157333Y132825D02*
X161516Y137008D01*
X154331Y129823D02*
X157333Y132825D01*
X88466Y59156D02*
X90359Y57263D01*
X87402Y25394D02*
Y31248D01*
X79232Y54314D02*
X88292Y45254D01*
X72075Y58760D02*
X77264Y53571D01*
X71612Y58760D02*
X72075D01*
X69787Y61420D02*
X70013Y61194D01*
Y60359D02*
Y61194D01*
Y60359D02*
X71612Y58760D01*
X77264Y51116D02*
Y53571D01*
X84101Y44279D02*
X85649D01*
X85733Y44195D01*
X77264Y51116D02*
X84101Y44279D01*
X96560Y32770D02*
X98228Y31102D01*
X103347Y28346D02*
X103445D01*
X100591Y31102D02*
X103347Y28346D01*
X98228Y31102D02*
X100591D01*
X88292Y32139D02*
Y45254D01*
X79232Y54314D02*
Y54780D01*
X90359Y54927D02*
Y57263D01*
Y54927D02*
X96560Y48725D01*
Y32770D02*
Y48725D01*
X87402Y31248D02*
X88292Y32139D01*
X152471Y52953D02*
X158177Y47246D01*
X131069Y52953D02*
X152471D01*
X109204Y67224D02*
X119980D01*
X123228Y63976D01*
Y60794D02*
X131069Y52953D01*
X123228Y60794D02*
Y63976D01*
X107874Y68554D02*
X109204Y67224D01*
X77756Y67050D02*
Y70003D01*
X79035Y71283D01*
Y75590D01*
X77756Y67050D02*
X79134Y65672D01*
Y64343D02*
X84321Y59156D01*
X79134Y64343D02*
Y65672D01*
X84321Y59156D02*
X88466D01*
X72441Y61571D02*
Y62439D01*
X68704Y66176D02*
X72441Y62439D01*
Y61571D02*
X79232Y54780D01*
X150591Y129823D02*
X154331D01*
X157333Y132825D02*
X157628Y132529D01*
X161516Y137008D02*
X165354D01*
D86*
X169425Y94921D02*
D03*
X177425D02*
D03*
X173425Y114921D02*
D03*
D87*
X118701Y13386D02*
D03*
X115847Y14862D02*
D03*
X108760Y15650D02*
D03*
X111915Y15552D02*
D03*
X45967Y4921D02*
D03*
X36909Y129921D02*
D03*
X18504Y136417D02*
D03*
X15945Y138287D02*
D03*
X15157Y132480D02*
D03*
X17815Y130709D02*
D03*
X25689Y125492D02*
D03*
X25886Y128642D02*
D03*
X30539Y122322D02*
D03*
X32579Y119390D02*
D03*
X32972Y133563D02*
D03*
X30020Y136417D02*
D03*
X27264Y138681D02*
D03*
X37106Y139961D02*
D03*
X10335Y143898D02*
D03*
X55709Y73524D02*
D03*
X58664Y60042D02*
D03*
X57784Y53847D02*
D03*
X63386Y61910D02*
D03*
X52460Y50492D02*
D03*
X18602Y93602D02*
D03*
X24606Y89764D02*
D03*
X22244Y87599D02*
D03*
X5413Y81201D02*
D03*
X9252Y100295D02*
D03*
X23720Y94882D02*
D03*
X41240Y19587D02*
D03*
X39370Y14961D02*
D03*
X37500Y8268D02*
D03*
X44094Y10138D02*
D03*
X28150Y10433D02*
D03*
X48228Y15945D02*
D03*
X63583Y50492D02*
D03*
X66043Y53150D02*
D03*
X49412Y39649D02*
D03*
X53054Y71755D02*
D03*
X52165Y74803D02*
D03*
X44565Y138226D02*
D03*
X50295Y112205D02*
D03*
X50886Y108465D02*
D03*
X47539Y142027D02*
D03*
X122146Y3445D02*
D03*
X91831Y20079D02*
D03*
X94587Y14567D02*
D03*
X94886Y9055D02*
D03*
X106398Y23622D02*
D03*
X82288Y19784D02*
D03*
X72441Y19095D02*
D03*
X80713Y16536D02*
D03*
X88090Y9744D02*
D03*
X85733Y44195D02*
D03*
X105512Y39862D02*
D03*
X105512Y43012D02*
D03*
X105419Y46164D02*
D03*
X32628Y92530D02*
D03*
X81004Y51476D02*
D03*
X158177Y47246D02*
D03*
X175000Y52362D02*
D03*
X55709Y129921D02*
D03*
X97835Y94291D02*
D03*
X91339Y97244D02*
D03*
X94587Y84252D02*
D03*
X88189Y97047D02*
D03*
X82583Y85733D02*
D03*
X88193Y82091D02*
D03*
X89961Y79232D02*
D03*
X103937Y81398D02*
D03*
X130382Y132931D02*
D03*
X113976Y88583D02*
D03*
X49114Y103543D02*
D03*
X67716Y94193D02*
D03*
X56299Y108071D02*
D03*
X106595Y95571D02*
D03*
X127172Y124219D02*
D03*
X154724Y69784D02*
D03*
X79134Y24114D02*
D03*
X50394Y24114D02*
D03*
X12697Y76279D02*
D03*
X2362Y81988D02*
D03*
X3543Y62697D02*
D03*
X13780Y145276D02*
D03*
X64468Y125000D02*
D03*
X90354Y58268D02*
D03*
X91634Y69095D02*
D03*
X67913Y132087D02*
D03*
X58366Y124311D02*
D03*
X79528Y96260D02*
D03*
X3051Y116634D02*
D03*
X16437Y115650D02*
D03*
X95081Y141142D02*
D03*
X50689Y116535D02*
D03*
X37106Y116929D02*
D03*
X35236Y97638D02*
D03*
X58858Y129724D02*
D03*
X53248Y131988D02*
D03*
X113779Y91831D02*
D03*
X129724Y88090D02*
D03*
X114328Y101715D02*
D03*
X118707Y90457D02*
D03*
X125794Y93508D02*
D03*
X125400Y98412D02*
D03*
X117421Y85728D02*
D03*
X108568Y92623D02*
D03*
X106890Y89665D02*
D03*
X106693Y86122D02*
D03*
X109793Y78218D02*
D03*
X107874Y68554D02*
D03*
X97539Y72146D02*
D03*
X169095Y122779D02*
D03*
X165658Y126089D02*
D03*
X162489Y125886D02*
D03*
X167661Y102067D02*
D03*
X166929Y106791D02*
D03*
X143307Y107972D02*
D03*
X156693Y108366D02*
D03*
X178150Y103642D02*
D03*
X89468Y75197D02*
D03*
X85339Y72641D02*
D03*
X79035Y75689D02*
D03*
X106403Y78252D02*
D03*
X126089Y76578D02*
D03*
X115748Y69882D02*
D03*
X123721Y90945D02*
D03*
X123333Y85339D02*
D03*
X128543Y79331D02*
D03*
X130512Y71850D02*
D03*
X103056Y78350D02*
D03*
X117224Y106890D02*
D03*
X98036Y109848D02*
D03*
X91732Y111221D02*
D03*
X88287Y124311D02*
D03*
X92421Y132070D02*
D03*
X89272Y131791D02*
D03*
X79528Y125787D02*
D03*
X77760Y123037D02*
D03*
X126673Y87205D02*
D03*
X132874Y88386D02*
D03*
X136176Y88784D02*
D03*
X132093Y102662D02*
D03*
X128254Y99808D02*
D03*
X77428Y87106D02*
D03*
X87603Y66440D02*
D03*
X68405Y49902D02*
D03*
X87406Y56597D02*
D03*
X68310Y66539D02*
D03*
X69787Y61420D02*
D03*
X80315Y68110D02*
D03*
X75590Y71457D02*
D03*
X71457Y78740D02*
D03*
X77071Y38781D02*
D03*
X69095Y43602D02*
D03*
X56988Y41437D02*
D03*
X49114Y47146D02*
D03*
X105905Y55315D02*
D03*
X113779Y49508D02*
D03*
X132283Y67864D02*
D03*
X125197Y71850D02*
D03*
X93209Y56004D02*
D03*
X74019Y37797D02*
D03*
X67720Y39864D02*
D03*
X72444Y41341D02*
D03*
X58467Y38388D02*
D03*
X63290Y37600D02*
D03*
X49904Y67031D02*
D03*
X163091Y48819D02*
D03*
X127362Y121063D02*
D03*
X132290Y121856D02*
D03*
X121758Y110832D02*
D03*
X124016Y113583D02*
D03*
X125104Y118313D02*
D03*
X92178Y124196D02*
D03*
X85929Y121561D02*
D03*
X87209Y114868D02*
D03*
X84055Y114862D02*
D03*
X143299Y112697D02*
D03*
X135925Y104626D02*
D03*
X143504Y129232D02*
D03*
X138312Y132972D02*
D03*
X150591Y129823D02*
D03*
X143307Y68110D02*
D03*
X140157Y67815D02*
D03*
X138786Y64964D02*
D03*
X127165Y42520D02*
D03*
X119888Y38388D02*
D03*
X118313Y41144D02*
D03*
X135243Y63586D02*
D03*
X127710Y69770D02*
D03*
X132283Y64665D02*
D03*
X79261Y120231D02*
D03*
X81004Y117520D02*
D03*
X130118Y41339D02*
D03*
X117520Y44193D02*
D03*
X115256Y46457D02*
D03*
X175394Y71653D02*
D03*
X155519Y82780D02*
D03*
X173130Y76673D02*
D03*
X160925Y77461D02*
D03*
X162148Y35728D02*
D03*
X163878Y29823D02*
D03*
X159941Y19291D02*
D03*
X160433Y29823D02*
D03*
X151287Y23229D02*
D03*
X144889Y23032D02*
D03*
X137008Y11909D02*
D03*
X144193Y5217D02*
D03*
X141240Y23031D02*
D03*
X134153Y18799D02*
D03*
X139764Y18012D02*
D03*
X166334Y73133D02*
D03*
X168709D02*
D03*
X175787Y48819D02*
D03*
X177854Y46260D02*
D03*
X170874Y46754D02*
D03*
X167036D02*
D03*
X157628Y132529D02*
D03*
X154035Y137598D02*
D03*
X157382Y98917D02*
D03*
X169488Y116437D02*
D03*
X175295Y123917D02*
D03*
X172343Y122736D02*
D03*
X170473Y131290D02*
D03*
X176181Y138484D02*
D03*
X174016Y133760D02*
D03*
X177559Y31004D02*
D03*
X178341Y109449D02*
D03*
X177165Y120965D02*
D03*
X178445Y126083D02*
D03*
X179921Y137303D02*
D03*
X165354Y137008D02*
D03*
X161614Y140551D02*
D03*
X98425Y140945D02*
D03*
X105610Y141142D02*
D03*
X115650D02*
D03*
X70866Y84646D02*
D03*
X67618Y83957D02*
D03*
X51378Y99606D02*
D03*
X53054Y66932D02*
D03*
X46260Y36614D02*
D03*
X37402Y41142D02*
D03*
X54629Y39274D02*
D03*
X132087Y28150D02*
D03*
X171161Y13878D02*
D03*
X176673Y18799D02*
D03*
X173448Y18799D02*
D03*
X54036Y63878D02*
D03*
X34646Y63779D02*
D03*
X25690Y67917D02*
D03*
X26697Y61909D02*
D03*
X103740Y28543D02*
D03*
X87697Y25394D02*
D03*
X148327Y34154D02*
D03*
X164996Y7087D02*
D03*
X164961Y11516D02*
D03*
X112598Y24311D02*
D03*
X118405Y25591D02*
D03*
X148130Y23065D02*
D03*
X145177Y34055D02*
D03*
X141936Y34057D02*
D03*
X151870Y34055D02*
D03*
X97539Y28543D02*
D03*
X143307Y18307D02*
D03*
X106791Y9154D02*
D03*
X120374Y28248D02*
D03*
X136719Y16635D02*
D03*
X67621Y19981D02*
D03*
X64373Y19883D02*
D03*
X61122Y19685D02*
D03*
X112303Y27756D02*
D03*
X49016Y57874D02*
D03*
X6201Y109547D02*
D03*
X27657Y109350D02*
D03*
X21457Y109744D02*
D03*
X12303D02*
D03*
X19390Y101969D02*
D03*
X15453Y89961D02*
D03*
X5906Y92323D02*
D03*
X49016Y75098D02*
D03*
X51676Y32974D02*
D03*
X64567Y41043D02*
D03*
X42717Y39862D02*
D03*
X85827Y7480D02*
D03*
X94783Y5906D02*
D03*
X57382Y27854D02*
D03*
X68996Y27657D02*
D03*
X65748Y6988D02*
D03*
X62500Y12894D02*
D03*
X56299Y23228D02*
D03*
X56398Y12992D02*
D03*
X41634Y5020D02*
D03*
X31594Y29429D02*
D03*
X36516Y20374D02*
D03*
X33858Y41043D02*
D03*
X8268Y72835D02*
D03*
X12205Y62500D02*
D03*
X12500Y68504D02*
D03*
X9283Y69685D02*
D03*
X17520Y64665D02*
D03*
X20571Y55610D02*
D03*
X24114Y50000D02*
D03*
X14961Y51673D02*
D03*
X15748Y54823D02*
D03*
X17421Y43504D02*
D03*
X35433Y15453D02*
D03*
X35039Y10335D02*
D03*
X35079Y55453D02*
D03*
X19488Y22441D02*
D03*
X11220Y21161D02*
D03*
X23130Y12992D02*
D03*
X22835Y16142D02*
D03*
X17913Y11024D02*
D03*
X13484Y5217D02*
D03*
X7972Y10531D02*
D03*
X7874Y16043D02*
D03*
X9744Y5413D02*
D03*
X23720Y44783D02*
D03*
X7972Y44980D02*
D03*
X7087Y50098D02*
D03*
D88*
X1870Y141181D02*
D03*
Y143780D02*
D03*
Y120394D02*
D03*
Y122992D02*
D03*
Y125591D02*
D03*
Y128189D02*
D03*
Y130787D02*
D03*
Y133386D02*
D03*
Y135984D02*
D03*
Y138583D02*
D03*
X181110Y51909D02*
D03*
Y54508D02*
D03*
Y57106D02*
D03*
Y59705D02*
D03*
Y62303D02*
D03*
Y64902D02*
D03*
Y67500D02*
D03*
Y70098D02*
D03*
Y72697D02*
D03*
Y75295D02*
D03*
Y77894D02*
D03*
Y80492D02*
D03*
Y83091D02*
D03*
Y85689D02*
D03*
Y88287D02*
D03*
Y90886D02*
D03*
Y93484D02*
D03*
Y96083D02*
D03*
Y98681D02*
D03*
Y101279D02*
D03*
Y103878D02*
D03*
Y116870D02*
D03*
Y127264D02*
D03*
Y124665D02*
D03*
Y122067D02*
D03*
Y119468D02*
D03*
Y31122D02*
D03*
Y33720D02*
D03*
Y36319D02*
D03*
Y38917D02*
D03*
Y41516D02*
D03*
Y44114D02*
D03*
Y46713D02*
D03*
Y49311D02*
D03*
D89*
X175689Y143512D02*
D03*
X7815Y2059D02*
D03*
X29469D02*
D03*
X33799D02*
D03*
X158366Y143512D02*
D03*
X154035D02*
D03*
X149705D02*
D03*
X145374D02*
D03*
X141043D02*
D03*
X136713D02*
D03*
X132382D02*
D03*
X128051D02*
D03*
X123720D02*
D03*
X119390D02*
D03*
X115059D02*
D03*
X110728D02*
D03*
X106398D02*
D03*
X102067D02*
D03*
X97736D02*
D03*
X93405D02*
D03*
X89075D02*
D03*
X84744D02*
D03*
X80413D02*
D03*
X76083D02*
D03*
X71752D02*
D03*
X67421D02*
D03*
X47461D02*
D03*
X52658D02*
D03*
X57854D02*
D03*
X63091D02*
D03*
X38130Y2059D02*
D03*
X42461D02*
D03*
X46791D02*
D03*
X51122D02*
D03*
X55453D02*
D03*
X59784D02*
D03*
X64114D02*
D03*
X68445D02*
D03*
X72776D02*
D03*
X77106D02*
D03*
X81437D02*
D03*
X85768D02*
D03*
X90099D02*
D03*
X94429D02*
D03*
X98760D02*
D03*
X103091D02*
D03*
X107421D02*
D03*
X111752D02*
D03*
X116083D02*
D03*
X120413D02*
D03*
X124744D02*
D03*
X129075D02*
D03*
X148130D02*
D03*
X142933D02*
D03*
X137736D02*
D03*
X133405D02*
D03*
X12146D02*
D03*
X16477D02*
D03*
X20807D02*
D03*
X25138D02*
D03*
X171358Y143512D02*
D03*
X167027D02*
D03*
X162697D02*
D03*
M02*
