M48
;Layer_Color=9474304
;FILE_FORMAT=2:4
INCH,TZ
;TYPE=PLATED
T1F00S00C0.0118
;TYPE=NON_PLATED
T2F00S00C0.0390
%
T01
X974Y541
X1348Y522
X1791Y1102
X2313Y1299
X2283Y1614
X1949Y2244
X1122Y2116
X787Y1604
X797Y1053
X2815Y1043
X3504Y1033
X3750Y827
X4163Y502
X4597Y492
X4409Y1014
X3937Y1496
X3543Y1545
X3652Y2037
X4124Y1959
X4823Y1594
X5039Y2411
X5630Y2323
X5738Y2785
X5168Y3297
X4941Y3965
X5463Y3927
X5699Y4144
X5847Y3839
X6329Y3760
X6457Y4104
X6772Y3986
X6909Y4360
X7244Y4134
X7402Y3780
X7707Y3878
X8573Y4419
X8100Y5148
X8741Y5660
X9035Y5827
X9321Y5600
X10591Y5531
X10542Y4616
X10551Y4301
X10551Y3986
X10374Y2854
X9754Y2854
X8770Y2539
X9183Y2008
X9459Y1457
X9489Y906
X9478Y591
X8809Y974
X8583Y748
X8071Y1654
X8229Y1978
X7913Y2411
X7244Y1910
X6762Y1998
X6437Y1988
X6112Y1969
X6250Y1289
X5640Y1299
X6575Y699
X6900Y2766
X6841Y4990
X6358Y5049
X6604Y5315
X5778Y5385
X5866Y6004
X6339Y6191
X6979Y6142
X6831Y6654
X7559Y7146
X7904Y7569
X8031Y6811
X8760Y6644
X9163Y6909
X8947Y7520
X8996Y7923
X8819Y8209
X9459Y8425
X10394Y8140
X10306Y7835
X10640Y7825
X10979Y7822
X10669Y8612
X10689Y8967
X10857Y9262
X10659Y9557
X9783Y9429
X9134Y9724
X8819Y9705
X7953Y9626
X7743Y8711
X8258Y8573
X7087Y8465
X6762Y8396
X7146Y7874
X6772Y9419
X5138Y9961
X4911Y10354
X5089Y10846
X5030Y11220
X5069Y11654
X3711Y11693
X3258Y11939
X3054Y12232
X2569Y12549
X2589Y12864
X1781Y13071
X1516Y13248
X1594Y13829
X1850Y13642
X2726Y13868
X3002Y13642
X3297Y13356
X3691Y12992
X3711Y13996
X4456Y13823
X4754Y14203
X5325Y13199
X5571Y12992
X5886Y12972
X5837Y12431
X6447Y12500
X6791Y13209
X7953Y12579
X7776Y12304
X7926Y12023
X8100Y11752
X8406Y11486
X8721Y11487
X8593Y12156
X8829Y12431
X9218Y12420
X9242Y13207
X8927Y13179
X9508Y14114
X9843Y14094
X10561Y14114
X11565
X13038Y13293
X13831Y13297
X14350Y12923
X15059Y12982
X15404Y13760
X14330Y11270
X14331Y10797
X13593Y10463
X13209Y10266
X12825Y9981
X12540Y9841
X12579Y9351
X12372Y9094
X11871Y9046
X11742Y8573
X11398Y8858
X11378Y9183
X11433Y10172
X11722Y10689
X12176Y11083
X12402Y11358
X12510Y11831
X12736Y12106
X12717Y12422
X13229Y12186
X13287Y8839
X12972Y8809
X12667Y8720
X12333Y8534
X12854Y7933
X12609Y7658
X12520Y7185
X12771Y6977
X13051Y7185
X13228Y6786
Y6467
X13524Y6359
X13879Y6496
X14016Y6781
X14331Y6811
X15472Y6978
X15552Y8278
X13618Y8878
X11575Y6988
X10787Y6855
X9754Y7215
X8534Y7264
X5571Y7352
X5305Y7176
X5217Y7480
X4902Y7510
X4990Y6703
X5305Y6693
X5404Y6388
X4902Y5787
X5246Y5049
X4911Y4715
X4626Y3661
X4272Y3986
X3740Y4114
X3386Y4104
X2372Y4478
X2411Y5000
X2057Y5561
X1575Y5482
X1496Y5167
X709Y5010
X797Y4498
X1742Y4350
X1752Y6467
X1220Y6250
X1250Y6850
X928Y6969
X827Y7283
X1270Y7628
X541Y8120
X236Y8199
X591Y9232
X925Y10030
X1939Y10197
X1860Y9360
X2372Y9488
X2461Y8976
X2224Y8760
X1545Y8996
X3263Y9253
X3524Y9764
X2766Y10935
X2146Y10974
X1230
X620Y10955
X305Y11663
X1644Y11565
X1378Y14528
X1033Y14390
X5630Y10807
X9173Y11122
X9804Y10985
X11378Y4951
X11526Y4646
X11752Y4419
X11831Y4114
X11989Y3839
X12037Y2825
X11841Y2559
X11260Y2431
X11230Y2776
X10640Y2362
X10876Y1565
X11191Y1555
X11585Y1486
X11870Y1339
X12215Y344
X10679Y915
X13701Y1191
X13672Y1663
X13976Y1801
X14331Y1831
X14489Y2303
X14813Y2306
X15129Y2323
X14124Y2303
X13415Y1880
X13209Y2815
X13012Y4134
X12717Y4252
X14194Y3406
X14518Y3406
X14833Y3415
X15187Y3406
X14419Y522
X3159Y2943
X3508Y5545
X3465Y6378
X2670Y6191
X2569Y6792
X354Y6270
X15818Y4725
X16309Y4882
X16704Y4675
X17087
X17579Y4882
X17500Y5236
X17785Y4626
X17756Y3100
X17667Y1880
X17345Y1880
X17116Y1388
X16496Y1152
X16500Y709
X15994Y1929
X16043Y2982
X16388
X16215Y3573
X16633Y7313
X16871
X17313Y7667
X17539Y7165
X16093Y7746
X15738Y9892
X15669Y10837
X16693Y10679
X16766Y10207
X17815Y10364
X17834Y10945
X17717Y12096
X17530Y12392
X17234Y12274
X16909Y12278
X16949Y11644
X16566Y12609
X16249Y12589
X15763Y13253
X16161Y14055
X16535Y13701
X17047Y13129
X17402Y13376
X17618Y13848
X17992Y13730
X17844Y12608
T02
X16943Y9492
X17743
X17343Y11492
M30
