M48
;Layer_Color=9474304
;FILE_FORMAT=2:4
INCH,TZ
;TYPE=PLATED
T1F00S00C0.0118
%
T01
X266Y4642
X1821Y4794
X1831Y5236
X1634Y6161
X2106Y6191
X1959Y6526
X2165Y7077
X2303Y7363
X2313Y7687
X2805Y8280
Y8610
X3140Y8652
X2500Y9213
X2905Y9723
X3386Y9686
X3691Y9577
X4272Y9262
X3947Y10610
X3947Y10827
X3740Y10870
X3740Y11185
X3670Y11632
X1850Y11620
X1545Y11699
X1289Y11025
X1053Y11020
Y10774
X906Y10266
X669Y10256
X346Y10126
X325Y10449
X307Y9811
X297Y9496
X295Y9169
X276Y8805
Y8490
X433Y8189
Y7933
X374Y6945
X768Y5907
X2736Y6010
Y5803
Y6246
X4705Y6256
Y6020
Y5783
X5020Y6020
Y6256
Y6492
X4705Y6594
X5335Y6344
Y6108
Y5872
X6368Y5587
X6615Y4705
X6890Y4528
X6841Y4173
X6722Y3583
X6925Y2931
X8156Y3050
X8248Y3553
X8474Y4055
X8278Y4370
X9158Y4026
X9606Y4311
X10138Y4508
X10541Y4051
Y3805
Y3559
X10266Y3067
X10256Y2821
Y2555
X9126Y2839
X9057Y3058
X9124Y2126
X8622Y1959
X8268Y1535
X7707Y906
X9075Y876
X6309Y301
X6014Y301
X5256Y2657
X5256Y4104
X5917Y4151
X3189Y3973
X2972Y3396
X1703Y3904
X1909Y4144
X2077Y10213
X2323
X2575
X2234Y12171
X2520Y12476
X2510Y13677
X3386Y13638
X3610Y14728
X4016Y14720
X4114Y15026
X3878Y15242
X3555Y15244
X3355Y14963
X3063Y15126
X3051Y14807
X2746Y14947
X2707Y14632
X915Y15350
X843Y13539
X709Y13226
X709Y12911
X1449Y12960
X4843Y12815
X5285Y12618
X5335Y12224
X6132Y11837
X5965Y10453
X5965Y10236
X5758Y10167
X5541Y10400
X6674Y9420
X8494Y9892
X8791Y10263
X9232Y11004
X9237Y11247
X9193Y11998
X9577Y11998
X10039Y11831
X10033Y12788
X10394Y12992
X9692Y13226
X9800Y14145
X10039Y14665
X10536Y14793
X10453Y14350
X10798Y15520
X9774Y15335
X9232Y14961
X8504Y14888
X8455Y15443
X8730Y14409
X8223Y13623
X7943Y13465
X8032Y12993
X8445Y13356
X8445Y12373
X8927Y12195
X8931Y12818
X8602Y11722
X7776Y12146
X7510Y14071
X7077Y14071
X6687Y14071
X6196Y14036
X5689Y13913
X5187Y14081
X5118Y13760
X4744Y13783
X4469Y15400
X5531Y15055
X5315Y7421
X6360Y6839
X8287Y7142
X8543Y6719
X8622Y6148
X8010Y5778
X9862Y5882
X9862Y6128
X9862Y6374
X9862Y6620
X9862Y6866
X9471Y6897
X8819Y7545
X8622Y7998
X8809Y9053
X9587Y9646
X9921Y9484
X10059Y10532
X10974Y12136
X10620Y15925
X9931Y16270
X7689Y15776
X7187
X6695
X6161Y15872
X5669
X4094Y15902
X1358Y16610
X866Y16620
M30
