G04*
G04 #@! TF.GenerationSoftware,Altium Limited,Altium Designer,20.2.7 (254)*
G04*
G04 Layer_Color=7674933*
%FSLAX25Y25*%
%MOIN*%
G70*
G04*
G04 #@! TF.SameCoordinates,F843C583-EBE9-4D23-8C3A-A0ED9C3F7A7C*
G04*
G04*
G04 #@! TF.FilePolarity,Negative*
G04*
G01*
G75*
G04:AMPARAMS|DCode=33|XSize=38.98mil|YSize=38.98mil|CornerRadius=6.1mil|HoleSize=0mil|Usage=FLASHONLY|Rotation=0.000|XOffset=0mil|YOffset=0mil|HoleType=Round|Shape=RoundedRectangle|*
%AMROUNDEDRECTD33*
21,1,0.03898,0.02677,0,0,0.0*
21,1,0.02677,0.03898,0,0,0.0*
1,1,0.01221,0.01339,-0.01339*
1,1,0.01221,-0.01339,-0.01339*
1,1,0.01221,-0.01339,0.01339*
1,1,0.01221,0.01339,0.01339*
%
%ADD33ROUNDEDRECTD33*%
G04:AMPARAMS|DCode=34|XSize=38.98mil|YSize=38.98mil|CornerRadius=6.1mil|HoleSize=0mil|Usage=FLASHONLY|Rotation=270.000|XOffset=0mil|YOffset=0mil|HoleType=Round|Shape=RoundedRectangle|*
%AMROUNDEDRECTD34*
21,1,0.03898,0.02677,0,0,270.0*
21,1,0.02677,0.03898,0,0,270.0*
1,1,0.01221,-0.01339,-0.01339*
1,1,0.01221,-0.01339,0.01339*
1,1,0.01221,0.01339,0.01339*
1,1,0.01221,0.01339,-0.01339*
%
%ADD34ROUNDEDRECTD34*%
G04:AMPARAMS|DCode=35|XSize=44.88mil|YSize=62.6mil|CornerRadius=6.69mil|HoleSize=0mil|Usage=FLASHONLY|Rotation=180.000|XOffset=0mil|YOffset=0mil|HoleType=Round|Shape=RoundedRectangle|*
%AMROUNDEDRECTD35*
21,1,0.04488,0.04921,0,0,180.0*
21,1,0.03150,0.06260,0,0,180.0*
1,1,0.01339,-0.01575,0.02461*
1,1,0.01339,0.01575,0.02461*
1,1,0.01339,0.01575,-0.02461*
1,1,0.01339,-0.01575,-0.02461*
%
%ADD35ROUNDEDRECTD35*%
G04:AMPARAMS|DCode=36|XSize=33.07mil|YSize=41.73mil|CornerRadius=5.51mil|HoleSize=0mil|Usage=FLASHONLY|Rotation=90.000|XOffset=0mil|YOffset=0mil|HoleType=Round|Shape=RoundedRectangle|*
%AMROUNDEDRECTD36*
21,1,0.03307,0.03071,0,0,90.0*
21,1,0.02205,0.04173,0,0,90.0*
1,1,0.01102,0.01535,0.01102*
1,1,0.01102,0.01535,-0.01102*
1,1,0.01102,-0.01535,-0.01102*
1,1,0.01102,-0.01535,0.01102*
%
%ADD36ROUNDEDRECTD36*%
G04:AMPARAMS|DCode=37|XSize=40.95mil|YSize=42.91mil|CornerRadius=6.3mil|HoleSize=0mil|Usage=FLASHONLY|Rotation=270.000|XOffset=0mil|YOffset=0mil|HoleType=Round|Shape=RoundedRectangle|*
%AMROUNDEDRECTD37*
21,1,0.04095,0.03032,0,0,270.0*
21,1,0.02835,0.04291,0,0,270.0*
1,1,0.01260,-0.01516,-0.01417*
1,1,0.01260,-0.01516,0.01417*
1,1,0.01260,0.01516,0.01417*
1,1,0.01260,0.01516,-0.01417*
%
%ADD37ROUNDEDRECTD37*%
G04:AMPARAMS|DCode=38|XSize=40.95mil|YSize=42.91mil|CornerRadius=6.3mil|HoleSize=0mil|Usage=FLASHONLY|Rotation=270.000|XOffset=0mil|YOffset=0mil|HoleType=Round|Shape=RoundedRectangle|*
%AMROUNDEDRECTD38*
21,1,0.04095,0.03032,0,0,270.0*
21,1,0.02835,0.04291,0,0,270.0*
1,1,0.01260,-0.01516,-0.01417*
1,1,0.01260,-0.01516,0.01417*
1,1,0.01260,0.01516,0.01417*
1,1,0.01260,0.01516,-0.01417*
%
%ADD38ROUNDEDRECTD38*%
G04:AMPARAMS|DCode=39|XSize=40.95mil|YSize=42.91mil|CornerRadius=6.3mil|HoleSize=0mil|Usage=FLASHONLY|Rotation=0.000|XOffset=0mil|YOffset=0mil|HoleType=Round|Shape=RoundedRectangle|*
%AMROUNDEDRECTD39*
21,1,0.04095,0.03032,0,0,0.0*
21,1,0.02835,0.04291,0,0,0.0*
1,1,0.01260,0.01417,-0.01516*
1,1,0.01260,-0.01417,-0.01516*
1,1,0.01260,-0.01417,0.01516*
1,1,0.01260,0.01417,0.01516*
%
%ADD39ROUNDEDRECTD39*%
G04:AMPARAMS|DCode=40|XSize=40.95mil|YSize=42.91mil|CornerRadius=6.3mil|HoleSize=0mil|Usage=FLASHONLY|Rotation=0.000|XOffset=0mil|YOffset=0mil|HoleType=Round|Shape=RoundedRectangle|*
%AMROUNDEDRECTD40*
21,1,0.04095,0.03032,0,0,0.0*
21,1,0.02835,0.04291,0,0,0.0*
1,1,0.01260,0.01417,-0.01516*
1,1,0.01260,-0.01417,-0.01516*
1,1,0.01260,-0.01417,0.01516*
1,1,0.01260,0.01417,0.01516*
%
%ADD40ROUNDEDRECTD40*%
%ADD41O,0.04488X0.06457*%
%ADD42O,0.03701X0.02913*%
G04:AMPARAMS|DCode=43|XSize=76.38mil|YSize=50.79mil|CornerRadius=7.28mil|HoleSize=0mil|Usage=FLASHONLY|Rotation=0.000|XOffset=0mil|YOffset=0mil|HoleType=Round|Shape=RoundedRectangle|*
%AMROUNDEDRECTD43*
21,1,0.07638,0.03622,0,0,0.0*
21,1,0.06181,0.05079,0,0,0.0*
1,1,0.01457,0.03091,-0.01811*
1,1,0.01457,-0.03091,-0.01811*
1,1,0.01457,-0.03091,0.01811*
1,1,0.01457,0.03091,0.01811*
%
%ADD43ROUNDEDRECTD43*%
G04:AMPARAMS|DCode=44|XSize=48.82mil|YSize=90.16mil|CornerRadius=7.09mil|HoleSize=0mil|Usage=FLASHONLY|Rotation=180.000|XOffset=0mil|YOffset=0mil|HoleType=Round|Shape=RoundedRectangle|*
%AMROUNDEDRECTD44*
21,1,0.04882,0.07598,0,0,180.0*
21,1,0.03465,0.09016,0,0,180.0*
1,1,0.01417,-0.01732,0.03799*
1,1,0.01417,0.01732,0.03799*
1,1,0.01417,0.01732,-0.03799*
1,1,0.01417,-0.01732,-0.03799*
%
%ADD44ROUNDEDRECTD44*%
G04:AMPARAMS|DCode=45|XSize=48.82mil|YSize=90.16mil|CornerRadius=7.09mil|HoleSize=0mil|Usage=FLASHONLY|Rotation=180.000|XOffset=0mil|YOffset=0mil|HoleType=Round|Shape=RoundedRectangle|*
%AMROUNDEDRECTD45*
21,1,0.04882,0.07599,0,0,180.0*
21,1,0.03465,0.09016,0,0,180.0*
1,1,0.01417,-0.01732,0.03799*
1,1,0.01417,0.01732,0.03799*
1,1,0.01417,0.01732,-0.03799*
1,1,0.01417,-0.01732,-0.03799*
%
%ADD45ROUNDEDRECTD45*%
G04:AMPARAMS|DCode=46|XSize=143.31mil|YSize=90.16mil|CornerRadius=11.22mil|HoleSize=0mil|Usage=FLASHONLY|Rotation=180.000|XOffset=0mil|YOffset=0mil|HoleType=Round|Shape=RoundedRectangle|*
%AMROUNDEDRECTD46*
21,1,0.14331,0.06772,0,0,180.0*
21,1,0.12087,0.09016,0,0,180.0*
1,1,0.02244,-0.06043,0.03386*
1,1,0.02244,0.06043,0.03386*
1,1,0.02244,0.06043,-0.03386*
1,1,0.02244,-0.06043,-0.03386*
%
%ADD46ROUNDEDRECTD46*%
G04:AMPARAMS|DCode=47|XSize=31.1mil|YSize=37.01mil|CornerRadius=5.32mil|HoleSize=0mil|Usage=FLASHONLY|Rotation=90.000|XOffset=0mil|YOffset=0mil|HoleType=Round|Shape=RoundedRectangle|*
%AMROUNDEDRECTD47*
21,1,0.03110,0.02638,0,0,90.0*
21,1,0.02047,0.03701,0,0,90.0*
1,1,0.01063,0.01319,0.01024*
1,1,0.01063,0.01319,-0.01024*
1,1,0.01063,-0.01319,-0.01024*
1,1,0.01063,-0.01319,0.01024*
%
%ADD47ROUNDEDRECTD47*%
G04:AMPARAMS|DCode=48|XSize=23.23mil|YSize=37.01mil|CornerRadius=4.53mil|HoleSize=0mil|Usage=FLASHONLY|Rotation=90.000|XOffset=0mil|YOffset=0mil|HoleType=Round|Shape=RoundedRectangle|*
%AMROUNDEDRECTD48*
21,1,0.02323,0.02795,0,0,90.0*
21,1,0.01417,0.03701,0,0,90.0*
1,1,0.00906,0.01398,0.00709*
1,1,0.00906,0.01398,-0.00709*
1,1,0.00906,-0.01398,-0.00709*
1,1,0.00906,-0.01398,0.00709*
%
%ADD48ROUNDEDRECTD48*%
%ADD49O,0.02913X0.09213*%
%ADD50O,0.09213X0.02913*%
G04:AMPARAMS|DCode=51|XSize=44.88mil|YSize=62.6mil|CornerRadius=6.69mil|HoleSize=0mil|Usage=FLASHONLY|Rotation=90.000|XOffset=0mil|YOffset=0mil|HoleType=Round|Shape=RoundedRectangle|*
%AMROUNDEDRECTD51*
21,1,0.04488,0.04921,0,0,90.0*
21,1,0.03150,0.06260,0,0,90.0*
1,1,0.01339,0.02461,0.01575*
1,1,0.01339,0.02461,-0.01575*
1,1,0.01339,-0.02461,-0.01575*
1,1,0.01339,-0.02461,0.01575*
%
%ADD51ROUNDEDRECTD51*%
G04:AMPARAMS|DCode=52|XSize=41.34mil|YSize=38.98mil|CornerRadius=6.1mil|HoleSize=0mil|Usage=FLASHONLY|Rotation=90.000|XOffset=0mil|YOffset=0mil|HoleType=Round|Shape=RoundedRectangle|*
%AMROUNDEDRECTD52*
21,1,0.04134,0.02677,0,0,90.0*
21,1,0.02913,0.03898,0,0,90.0*
1,1,0.01221,0.01339,0.01457*
1,1,0.01221,0.01339,-0.01457*
1,1,0.01221,-0.01339,-0.01457*
1,1,0.01221,-0.01339,0.01457*
%
%ADD52ROUNDEDRECTD52*%
G04:AMPARAMS|DCode=53|XSize=33.07mil|YSize=41.73mil|CornerRadius=5.51mil|HoleSize=0mil|Usage=FLASHONLY|Rotation=180.000|XOffset=0mil|YOffset=0mil|HoleType=Round|Shape=RoundedRectangle|*
%AMROUNDEDRECTD53*
21,1,0.03307,0.03071,0,0,180.0*
21,1,0.02205,0.04173,0,0,180.0*
1,1,0.01102,-0.01102,0.01535*
1,1,0.01102,0.01102,0.01535*
1,1,0.01102,0.01102,-0.01535*
1,1,0.01102,-0.01102,-0.01535*
%
%ADD53ROUNDEDRECTD53*%
D33*
X52697Y86417D02*
D03*
X58917D02*
D03*
D34*
X107677Y158917D02*
D03*
Y152697D02*
D03*
X107776Y148386D02*
D03*
Y142165D02*
D03*
D35*
X93602Y164567D02*
D03*
X86122D02*
D03*
X106004D02*
D03*
X98523D02*
D03*
D36*
X91929Y118701D02*
D03*
Y125000D02*
D03*
X96555Y118701D02*
D03*
Y125000D02*
D03*
X76968Y35925D02*
D03*
Y42224D02*
D03*
X63681Y33071D02*
D03*
Y26772D02*
D03*
X107185Y118209D02*
D03*
Y124508D02*
D03*
X107480Y138091D02*
D03*
Y131791D02*
D03*
X102165Y118209D02*
D03*
Y124508D02*
D03*
D37*
X62776Y44094D02*
D03*
X72028Y40354D02*
D03*
X68091Y19783D02*
D03*
X58839Y23524D02*
D03*
D38*
X62776Y36614D02*
D03*
X58839Y16043D02*
D03*
D39*
X69095Y25473D02*
D03*
X72835Y34724D02*
D03*
X70768Y127284D02*
D03*
X67027Y118032D02*
D03*
X27657Y12677D02*
D03*
X23917Y3425D02*
D03*
X9941D02*
D03*
X13681Y12677D02*
D03*
X37500Y3425D02*
D03*
X41240Y12677D02*
D03*
X50000Y36162D02*
D03*
X53740Y45414D02*
D03*
X17028Y31378D02*
D03*
X20768Y40630D02*
D03*
D40*
X76575Y25473D02*
D03*
X63287Y127284D02*
D03*
X20177Y12677D02*
D03*
X6201D02*
D03*
X33760D02*
D03*
X57480Y36162D02*
D03*
X13287Y40630D02*
D03*
D41*
X37506Y3302D02*
D03*
X94101D02*
D03*
X99045D02*
D03*
D42*
X1856Y17067D02*
D03*
D43*
X77165Y15945D02*
D03*
Y4527D02*
D03*
D44*
X78740Y110787D02*
D03*
X60630D02*
D03*
X78740Y52520D02*
D03*
X60630D02*
D03*
X87992D02*
D03*
X106102D02*
D03*
X87992Y110787D02*
D03*
X106102D02*
D03*
X51378D02*
D03*
X33268D02*
D03*
X5906D02*
D03*
X24016D02*
D03*
X32874Y52520D02*
D03*
X50984D02*
D03*
X23228D02*
D03*
X5118D02*
D03*
D45*
X69685Y110787D02*
D03*
X69685Y52520D02*
D03*
X97047D02*
D03*
X97047Y110787D02*
D03*
X42323D02*
D03*
X14961D02*
D03*
X41929Y52520D02*
D03*
X14173D02*
D03*
D46*
X69685Y86378D02*
D03*
X69685Y76929D02*
D03*
X97047D02*
D03*
X97047Y86378D02*
D03*
X42323D02*
D03*
X14961D02*
D03*
X41929Y76929D02*
D03*
X14173D02*
D03*
D47*
X31594Y77028D02*
D03*
X24508D02*
D03*
Y87067D02*
D03*
X31594D02*
D03*
X10630Y123583D02*
D03*
X3543D02*
D03*
Y133622D02*
D03*
X10630D02*
D03*
X87303Y86575D02*
D03*
X80216D02*
D03*
Y76535D02*
D03*
X87303D02*
D03*
D48*
X31594Y80472D02*
D03*
Y83622D02*
D03*
X24508D02*
D03*
Y80472D02*
D03*
X10630Y127028D02*
D03*
Y130177D02*
D03*
X3543D02*
D03*
Y127028D02*
D03*
X80216Y79980D02*
D03*
Y83130D02*
D03*
X87303D02*
D03*
Y79980D02*
D03*
D49*
X5433Y143661D02*
D03*
X10433D02*
D03*
X15433D02*
D03*
X20433D02*
D03*
X25433D02*
D03*
X30433D02*
D03*
X35433D02*
D03*
X40433D02*
D03*
X5433Y162559D02*
D03*
X10433D02*
D03*
X15433D02*
D03*
X20433D02*
D03*
X25433D02*
D03*
X30433D02*
D03*
X35433D02*
D03*
X40433D02*
D03*
X81870Y162756D02*
D03*
X76870D02*
D03*
X71870D02*
D03*
X66870D02*
D03*
X61870D02*
D03*
X56870D02*
D03*
X51870D02*
D03*
X46870D02*
D03*
X81870Y143858D02*
D03*
X76870D02*
D03*
X71870D02*
D03*
X66870D02*
D03*
X61870D02*
D03*
X56870D02*
D03*
X51870D02*
D03*
X46870D02*
D03*
X87775Y137461D02*
D03*
X92775D02*
D03*
X97776D02*
D03*
X102776D02*
D03*
X87775Y156358D02*
D03*
X92775D02*
D03*
X97776D02*
D03*
X102776D02*
D03*
D50*
X86024Y18681D02*
D03*
Y13681D02*
D03*
Y8681D02*
D03*
Y3681D02*
D03*
X104922Y18681D02*
D03*
Y13681D02*
D03*
Y8681D02*
D03*
Y3681D02*
D03*
X103150Y25532D02*
D03*
Y30531D02*
D03*
Y35531D02*
D03*
Y40532D02*
D03*
X84252Y25532D02*
D03*
Y30531D02*
D03*
Y35531D02*
D03*
Y40532D02*
D03*
D51*
X4921Y25059D02*
D03*
Y17579D02*
D03*
X11811D02*
D03*
Y25059D02*
D03*
X18701D02*
D03*
Y17579D02*
D03*
X25591D02*
D03*
Y25059D02*
D03*
X32480D02*
D03*
Y17579D02*
D03*
X39370D02*
D03*
Y25059D02*
D03*
X46260D02*
D03*
Y17579D02*
D03*
X53150D02*
D03*
Y25059D02*
D03*
X65650Y3307D02*
D03*
Y10787D02*
D03*
X58465Y10886D02*
D03*
Y3405D02*
D03*
D52*
X43406Y31358D02*
D03*
Y44350D02*
D03*
X6201Y43957D02*
D03*
Y30965D02*
D03*
X27362Y31358D02*
D03*
Y44350D02*
D03*
X35531D02*
D03*
Y31358D02*
D03*
D53*
X52953Y10984D02*
D03*
X46654D02*
D03*
X46555Y5374D02*
D03*
X52854D02*
D03*
X50492Y31949D02*
D03*
X56791D02*
D03*
X86417Y130118D02*
D03*
X92716D02*
D03*
X21358Y45335D02*
D03*
X15059D02*
D03*
M02*
