G04 #@! TF.GenerationSoftware,KiCad,Pcbnew,7.0.9*
G04 #@! TF.CreationDate,2024-03-27T02:29:44+03:00*
G04 #@! TF.ProjectId,hellen1-mcz33810,68656c6c-656e-4312-9d6d-637a33333831,rev?*
G04 #@! TF.SameCoordinates,PX507b070PY4a65690*
G04 #@! TF.FileFunction,Copper,L3,Inr*
G04 #@! TF.FilePolarity,Positive*
%FSLAX46Y46*%
G04 Gerber Fmt 4.6, Leading zero omitted, Abs format (unit mm)*
G04 Created by KiCad (PCBNEW 7.0.9) date 2024-03-27 02:29:44*
%MOMM*%
%LPD*%
G01*
G04 APERTURE LIST*
G04 #@! TA.AperFunction,ComponentPad*
%ADD10C,0.600000*%
G04 #@! TD*
G04 #@! TA.AperFunction,Conductor*
%ADD11R,0.200000X12.500000*%
G04 #@! TD*
G04 #@! TA.AperFunction,Conductor*
%ADD12R,3.300000X0.200000*%
G04 #@! TD*
G04 #@! TA.AperFunction,Conductor*
%ADD13R,3.500000X0.200000*%
G04 #@! TD*
G04 #@! TA.AperFunction,Conductor*
%ADD14R,6.000000X0.200000*%
G04 #@! TD*
G04 #@! TA.AperFunction,Conductor*
%ADD15R,26.650000X0.200000*%
G04 #@! TD*
G04 #@! TA.AperFunction,Conductor*
%ADD16R,15.400000X0.200000*%
G04 #@! TD*
G04 #@! TA.AperFunction,Conductor*
%ADD17R,0.200000X8.500000*%
G04 #@! TD*
G04 #@! TA.AperFunction,ComponentPad*
%ADD18C,1.000000*%
G04 #@! TD*
G04 #@! TA.AperFunction,ViaPad*
%ADD19C,0.600000*%
G04 #@! TD*
G04 #@! TA.AperFunction,ViaPad*
%ADD20C,0.900000*%
G04 #@! TD*
G04 #@! TA.AperFunction,Conductor*
%ADD21C,0.200000*%
G04 #@! TD*
G04 #@! TA.AperFunction,Conductor*
%ADD22C,1.000000*%
G04 #@! TD*
G04 #@! TA.AperFunction,Conductor*
%ADD23C,0.500000*%
G04 #@! TD*
G04 APERTURE END LIST*
D10*
G04 #@! TO.N,/OUT_INJ4*
G04 #@! TO.C,M801*
X44460000Y9810000D03*
G04 #@! TO.N,/OUT_INJ3*
X44460000Y10610000D03*
G04 #@! TO.N,/OUT_INJ1*
X44460000Y11410000D03*
G04 #@! TO.N,/OUT_INJ2*
X44460000Y12210000D03*
D11*
G04 #@! TO.N,GND*
X110000Y6260000D03*
D12*
X1660000Y12410000D03*
D13*
X1760000Y110000D03*
D14*
X8110000Y12410000D03*
X15910000Y12410000D03*
D15*
X18635000Y110000D03*
D14*
X23710000Y12410000D03*
D16*
X36260000Y12410000D03*
D17*
X44660000Y5060000D03*
D18*
G04 #@! TO.N,/OUT_IGN1*
X4210000Y12010000D03*
G04 #@! TO.N,/OUT_IGN2*
X12010000Y12010000D03*
G04 #@! TO.N,/OUT_IGN3*
X19810000Y12010000D03*
G04 #@! TO.N,/OUT_IGN4*
X27610000Y12010000D03*
D10*
G04 #@! TO.N,/INJ4*
X44460000Y310000D03*
G04 #@! TO.N,/INJ3*
X43660000Y310000D03*
G04 #@! TO.N,/INJ2*
X42860000Y310000D03*
G04 #@! TO.N,/~SPKDUR*
X42060000Y310000D03*
G04 #@! TO.N,/IGN4*
X41260000Y310000D03*
G04 #@! TO.N,/IGN3*
X40460000Y310000D03*
G04 #@! TO.N,/IGN2*
X39660000Y310000D03*
G04 #@! TO.N,/IGN1*
X38860000Y310000D03*
G04 #@! TO.N,/INJ1*
X38060000Y310000D03*
G04 #@! TO.N,/~OUTEN*
X37260000Y310000D03*
G04 #@! TO.N,/NOMI*
X36460000Y310000D03*
G04 #@! TO.N,/MAXI*
X35660000Y310000D03*
G04 #@! TO.N,/MISO*
X34860000Y310000D03*
G04 #@! TO.N,/MOSI*
X34060000Y310000D03*
G04 #@! TO.N,/SCLK*
X33260000Y310000D03*
G04 #@! TO.N,/~CS*
X32460000Y310000D03*
G04 #@! TO.N,+12V*
X4810000Y310000D03*
G04 #@! TO.N,+3V3*
X4010000Y310000D03*
G04 #@! TD*
D19*
G04 #@! TO.N,GND*
X3960000Y1310000D03*
X43083372Y8760000D03*
X6010000Y3810000D03*
X16110000Y3510000D03*
X41769336Y2955147D03*
X40010000Y7910000D03*
X32060000Y3210000D03*
X36559774Y3033488D03*
X23787984Y12082360D03*
X8010000Y3910000D03*
X13360000Y3660000D03*
X40960000Y6560000D03*
X32310000Y11060000D03*
X15952120Y12068927D03*
X15610000Y8310000D03*
X33322602Y11874640D03*
X734093Y12210000D03*
X21477947Y3635679D03*
X16060000Y560000D03*
X28660000Y560000D03*
X39860000Y4410000D03*
X24010000Y3910000D03*
X41876117Y6226117D03*
X6775987Y450800D03*
X31810000Y860000D03*
X8010000Y8310000D03*
X39597686Y2879910D03*
X8153526Y12067988D03*
X29710000Y3559500D03*
X44210000Y4410000D03*
X41860000Y4210000D03*
X2810000Y560000D03*
X34907194Y4608129D03*
X37260000Y4710000D03*
X38860000Y6310000D03*
X809659Y559490D03*
X23510000Y8810000D03*
X36960000Y8260000D03*
G04 #@! TO.N,+3V3*
X38360000Y9810000D03*
G04 #@! TO.N,+12V*
X38860000Y3034000D03*
G04 #@! TO.N,/OUT_IGN1*
X2456804Y3670002D03*
G04 #@! TO.N,/OUT_IGN2*
X10256804Y3670002D03*
G04 #@! TO.N,Net-(U801-FB1)*
X42403323Y9076287D03*
X11200001Y2910000D03*
G04 #@! TO.N,/OUT_IGN3*
X18056804Y3670002D03*
G04 #@! TO.N,/OUT_IGN4*
X25856804Y3670002D03*
G04 #@! TO.N,Net-(Q801-G)*
X1410000Y3810000D03*
X34460000Y8560000D03*
X33210500Y8560000D03*
D20*
G04 #@! TO.N,Net-(Q801-E)*
X22810000Y1435500D03*
X15010000Y1435500D03*
X7210000Y1435500D03*
X30610000Y1435500D03*
D19*
G04 #@! TO.N,Net-(Q802-G)*
X9210000Y3810000D03*
X42473518Y9924300D03*
G04 #@! TO.N,Net-(Q803-G)*
X17010000Y3810000D03*
X33266041Y4461808D03*
G04 #@! TO.N,Net-(Q804-G)*
X24810000Y3810000D03*
X42560000Y3010000D03*
G04 #@! TO.N,/~OUTEN*
X39160000Y9810000D03*
G04 #@! TO.N,/~CS*
X33960000Y6810000D03*
G04 #@! TO.N,Net-(U801-RSP)*
X38093307Y3015265D03*
G04 #@! TO.N,Net-(U801-RSN)*
X37372049Y2809620D03*
G04 #@! TO.N,/OUT_INJ1*
X33523650Y10360000D03*
G04 #@! TO.N,/SCLK*
X34560000Y6310000D03*
G04 #@! TO.N,/MOSI*
X35171043Y6800500D03*
G04 #@! TO.N,/MISO*
X35760000Y6319500D03*
G04 #@! TO.N,/INJ1*
X39909978Y9803873D03*
G04 #@! TO.N,/INJ2*
X40869500Y9236002D03*
G04 #@! TO.N,/INJ3*
X41250162Y9882222D03*
G04 #@! TO.N,/OUT_INJ4*
X43110000Y7660000D03*
G04 #@! TO.N,/OUT_INJ3*
X33278688Y3362808D03*
G04 #@! TD*
D21*
G04 #@! TO.N,+3V3*
X32960000Y9110000D02*
X37660000Y9110000D01*
X6360000Y2660000D02*
X8254974Y2660000D01*
X8554974Y2360000D02*
X13560000Y2360000D01*
X8254974Y2660000D02*
X8554974Y2360000D01*
X28560000Y4710000D02*
X32960000Y9110000D01*
X13560000Y2360000D02*
X15910000Y4710000D01*
X4010000Y310000D02*
X6360000Y2660000D01*
X37660000Y9110000D02*
X38360000Y9810000D01*
X15910000Y4710000D02*
X28560000Y4710000D01*
G04 #@! TO.N,+12V*
X6810000Y2310000D02*
X8110000Y2310000D01*
X32299948Y7460000D02*
X35397318Y7460000D01*
X27899948Y3060000D02*
X32299948Y7460000D01*
X19515335Y3060000D02*
X27899948Y3060000D01*
X13704974Y2010000D02*
X16054974Y4360000D01*
X18215335Y4360000D02*
X19515335Y3060000D01*
X16054974Y4360000D02*
X18215335Y4360000D01*
X35397318Y7460000D02*
X38860000Y3997318D01*
X8110000Y2310000D02*
X8410000Y2010000D01*
X8410000Y2010000D02*
X13704974Y2010000D01*
X4810000Y310000D02*
X6810000Y2310000D01*
X38860000Y3997318D02*
X38860000Y3034000D01*
G04 #@! TO.N,Net-(U801-FB1)*
X13350001Y5060000D02*
X28410000Y5060000D01*
X41460000Y10460000D02*
X41923518Y9996482D01*
X11200001Y2910000D02*
X13350001Y5060000D01*
X41923518Y9556092D02*
X42403323Y9076287D01*
X34110000Y9460000D02*
X35110000Y10460000D01*
X28410000Y5060000D02*
X32810000Y9460000D01*
X41923518Y9996482D02*
X41923518Y9556092D01*
X35110000Y10460000D02*
X41460000Y10460000D01*
X32810000Y9460000D02*
X34110000Y9460000D01*
D22*
G04 #@! TO.N,Net-(Q801-E)*
X7435500Y1210000D02*
X14784500Y1210000D01*
X15134500Y1560000D02*
X22685500Y1560000D01*
X22685500Y1560000D02*
X22810000Y1435500D01*
X15010000Y1435500D02*
X15134500Y1560000D01*
X22810000Y1435500D02*
X22934500Y1560000D01*
X30485500Y1560000D02*
X30610000Y1435500D01*
X7210000Y1435500D02*
X7435500Y1210000D01*
X22934500Y1560000D02*
X30485500Y1560000D01*
X14784500Y1210000D02*
X15010000Y1435500D01*
D21*
G04 #@! TO.N,Net-(Q802-G)*
X42473518Y9991456D02*
X42473518Y9924300D01*
X33965025Y9810000D02*
X34965025Y10810000D01*
X10810000Y5410000D02*
X28210000Y5410000D01*
X34965025Y10810000D02*
X41654974Y10810000D01*
X28210000Y5410000D02*
X32610000Y9810000D01*
X32610000Y9810000D02*
X33965025Y9810000D01*
X41654974Y10810000D02*
X42473518Y9991456D01*
X9210000Y3810000D02*
X10810000Y5410000D01*
G04 #@! TO.N,Net-(Q803-G)*
X18110000Y2710000D02*
X28044924Y2710000D01*
X17010000Y3810000D02*
X18110000Y2710000D01*
X28044924Y2710000D02*
X29796732Y4461808D01*
X29796732Y4461808D02*
X33266041Y4461808D01*
G04 #@! TO.N,Net-(Q804-G)*
X42560000Y3010000D02*
X42760000Y3210000D01*
X35442292Y7910000D02*
X32254974Y7910000D01*
X41770052Y7110000D02*
X36242292Y7110000D01*
X42760000Y6120052D02*
X41770052Y7110000D01*
X25310000Y4310000D02*
X24810000Y3810000D01*
X36242292Y7110000D02*
X35442292Y7910000D01*
X42760000Y3210000D02*
X42760000Y6120052D01*
X32254974Y7910000D02*
X28654974Y4310000D01*
X28654974Y4310000D02*
X25310000Y4310000D01*
G04 #@! TO.N,/~CS*
X33960000Y6810000D02*
X33960000Y1810000D01*
X33960000Y1810000D02*
X32460000Y310000D01*
D23*
G04 #@! TO.N,/OUT_INJ1*
X33557919Y10360000D02*
X33523650Y10360000D01*
X44460000Y11410000D02*
X44270050Y11410000D01*
X44020050Y11660000D02*
X34857919Y11660000D01*
X34857919Y11660000D02*
X33557919Y10360000D01*
X44270050Y11410000D02*
X44020050Y11660000D01*
D21*
G04 #@! TO.N,/SCLK*
X34310000Y6060000D02*
X34310000Y1360000D01*
X34560000Y6310000D02*
X34310000Y6060000D01*
X34310000Y1360000D02*
X33260000Y310000D01*
G04 #@! TO.N,/MOSI*
X35510000Y1760000D02*
X34060000Y310000D01*
X35171043Y5174904D02*
X35510000Y4835947D01*
X35510000Y4835947D02*
X35510000Y1760000D01*
X35171043Y6800500D02*
X35171043Y5174904D01*
G04 #@! TO.N,/MISO*
X35860000Y1310000D02*
X34860000Y310000D01*
X35860000Y6219500D02*
X35860000Y1310000D01*
X35760000Y6319500D02*
X35860000Y6219500D01*
G04 #@! TO.N,/INJ2*
X42860000Y310000D02*
X43110000Y560000D01*
X40869500Y8505526D02*
X40869500Y9236002D01*
X43110000Y6265026D02*
X40869500Y8505526D01*
X43110000Y560000D02*
X43110000Y6265026D01*
G04 #@! TO.N,/INJ3*
X43660000Y310000D02*
X43660000Y6210000D01*
X41460000Y8410000D02*
X41460000Y9732182D01*
X41309960Y9882222D02*
X41250162Y9882222D01*
X41460000Y9732182D02*
X41309960Y9882222D01*
X43660000Y6210000D02*
X41460000Y8410000D01*
D23*
G04 #@! TO.N,/OUT_INJ4*
X44460000Y9810000D02*
X43783372Y9133372D01*
X43783372Y9133372D02*
X43783372Y8333372D01*
X43783372Y8333372D02*
X43110000Y7660000D01*
G04 #@! TD*
G04 #@! TA.AperFunction,Conductor*
G04 #@! TO.N,GND*
G36*
X3253039Y12490315D02*
G01*
X3298794Y12437511D01*
X3310000Y12386000D01*
X3310000Y11510000D01*
X3670991Y11510000D01*
X3738030Y11490315D01*
X3753218Y11478816D01*
X3809150Y11429264D01*
X3959773Y11350211D01*
X3959775Y11350210D01*
X4124944Y11309500D01*
X4295056Y11309500D01*
X4460225Y11350210D01*
X4574144Y11410000D01*
X4610849Y11429264D01*
X4610850Y11429266D01*
X4610852Y11429266D01*
X4666783Y11478817D01*
X4730015Y11508537D01*
X4749009Y11510000D01*
X5110000Y11510000D01*
X5110000Y12386000D01*
X5129685Y12453039D01*
X5182489Y12498794D01*
X5234000Y12510000D01*
X10986000Y12510000D01*
X11053039Y12490315D01*
X11098794Y12437511D01*
X11110000Y12386000D01*
X11110000Y11510000D01*
X11470991Y11510000D01*
X11538030Y11490315D01*
X11553218Y11478816D01*
X11609150Y11429264D01*
X11759773Y11350211D01*
X11759775Y11350210D01*
X11924944Y11309500D01*
X12095056Y11309500D01*
X12260225Y11350210D01*
X12374144Y11410000D01*
X12410849Y11429264D01*
X12410850Y11429266D01*
X12410852Y11429266D01*
X12466783Y11478817D01*
X12530015Y11508537D01*
X12549009Y11510000D01*
X12910000Y11510000D01*
X12910000Y12386000D01*
X12929685Y12453039D01*
X12982489Y12498794D01*
X13034000Y12510000D01*
X18786000Y12510000D01*
X18853039Y12490315D01*
X18898794Y12437511D01*
X18910000Y12386000D01*
X18910000Y11510000D01*
X19270991Y11510000D01*
X19338030Y11490315D01*
X19353218Y11478816D01*
X19409150Y11429264D01*
X19559773Y11350211D01*
X19559775Y11350210D01*
X19724944Y11309500D01*
X19895056Y11309500D01*
X20060225Y11350210D01*
X20174144Y11410000D01*
X20210849Y11429264D01*
X20210850Y11429266D01*
X20210852Y11429266D01*
X20266783Y11478817D01*
X20330015Y11508537D01*
X20349009Y11510000D01*
X20710000Y11510000D01*
X20710000Y12386000D01*
X20729685Y12453039D01*
X20782489Y12498794D01*
X20834000Y12510000D01*
X26586000Y12510000D01*
X26653039Y12490315D01*
X26698794Y12437511D01*
X26710000Y12386000D01*
X26710000Y11510000D01*
X27070991Y11510000D01*
X27138030Y11490315D01*
X27153218Y11478816D01*
X27209150Y11429264D01*
X27359773Y11350211D01*
X27359775Y11350210D01*
X27524944Y11309500D01*
X27695056Y11309500D01*
X27860225Y11350210D01*
X27974144Y11410000D01*
X28010849Y11429264D01*
X28010850Y11429266D01*
X28010852Y11429266D01*
X28066783Y11478817D01*
X28130015Y11508537D01*
X28149009Y11510000D01*
X28510000Y11510000D01*
X28510000Y12386000D01*
X28529685Y12453039D01*
X28582489Y12498794D01*
X28634000Y12510000D01*
X43836000Y12510000D01*
X43903039Y12490315D01*
X43948794Y12437511D01*
X43960000Y12386000D01*
X43960000Y12184500D01*
X43940315Y12117461D01*
X43887511Y12071706D01*
X43836000Y12060500D01*
X34921352Y12060500D01*
X34794486Y12060500D01*
X34794483Y12060500D01*
X34794481Y12060499D01*
X34773409Y12053653D01*
X34754501Y12049114D01*
X34732617Y12045647D01*
X34732613Y12045646D01*
X34712870Y12035587D01*
X34694906Y12028146D01*
X34673830Y12021297D01*
X34655904Y12008273D01*
X34639319Y11998110D01*
X34619578Y11988052D01*
X34619578Y11988051D01*
X34597013Y11965487D01*
X34597010Y11965484D01*
X33457400Y10825876D01*
X33404654Y10794580D01*
X33334583Y10774006D01*
X33225600Y10703967D01*
X33140768Y10606063D01*
X33140767Y10606062D01*
X33086952Y10488226D01*
X33068517Y10360000D01*
X33086952Y10231774D01*
X33089451Y10223267D01*
X33086954Y10222534D01*
X33094963Y10166862D01*
X33065943Y10103304D01*
X33007168Y10065526D01*
X32972224Y10060500D01*
X32646891Y10060500D01*
X32622699Y10062883D01*
X32610001Y10065409D01*
X32610000Y10065409D01*
X32512260Y10045966D01*
X32459103Y10010448D01*
X32429399Y9990602D01*
X32422203Y9979832D01*
X32406786Y9961049D01*
X28142559Y5696819D01*
X28081236Y5663334D01*
X28054878Y5660500D01*
X10846891Y5660500D01*
X10822699Y5662883D01*
X10810001Y5665409D01*
X10810000Y5665409D01*
X10712260Y5645966D01*
X10629399Y5590601D01*
X10629394Y5590597D01*
X10622203Y5579834D01*
X10606785Y5561048D01*
X9342558Y4296819D01*
X9281235Y4263334D01*
X9254877Y4260500D01*
X9145226Y4260500D01*
X9020935Y4224006D01*
X9020932Y4224005D01*
X9020931Y4224004D01*
X9008080Y4215745D01*
X8911950Y4153967D01*
X8827118Y4056063D01*
X8827117Y4056062D01*
X8773302Y3938226D01*
X8754867Y3810000D01*
X8773302Y3681775D01*
X8820500Y3578428D01*
X8827118Y3563937D01*
X8911951Y3466033D01*
X9020931Y3395996D01*
X9145225Y3359501D01*
X9145227Y3359500D01*
X9145228Y3359500D01*
X9274773Y3359500D01*
X9274773Y3359501D01*
X9399069Y3395996D01*
X9508049Y3466033D01*
X9572707Y3540654D01*
X9631481Y3578426D01*
X9701350Y3578428D01*
X9760129Y3540655D01*
X9779212Y3510962D01*
X9795271Y3475798D01*
X9831427Y3396629D01*
X9925676Y3287859D01*
X10046751Y3210049D01*
X10046754Y3210048D01*
X10046753Y3210048D01*
X10184840Y3169503D01*
X10184842Y3169502D01*
X10184843Y3169502D01*
X10328766Y3169502D01*
X10328766Y3169503D01*
X10466857Y3210049D01*
X10587932Y3287859D01*
X10682181Y3396629D01*
X10741969Y3527545D01*
X10762451Y3670002D01*
X10741969Y3812459D01*
X10682181Y3943375D01*
X10587932Y4052145D01*
X10466857Y4129955D01*
X10466855Y4129956D01*
X10466853Y4129957D01*
X10466854Y4129957D01*
X10328767Y4170502D01*
X10328765Y4170502D01*
X10224124Y4170502D01*
X10157085Y4190187D01*
X10111330Y4242991D01*
X10101386Y4312149D01*
X10130411Y4375705D01*
X10136443Y4382183D01*
X10877442Y5123181D01*
X10938765Y5156666D01*
X10965123Y5159500D01*
X12795879Y5159500D01*
X12862918Y5139815D01*
X12908673Y5087011D01*
X12918617Y5017853D01*
X12889592Y4954297D01*
X12883561Y4947821D01*
X12106242Y4170502D01*
X11332559Y3396819D01*
X11271236Y3363334D01*
X11244878Y3360500D01*
X11135227Y3360500D01*
X11010936Y3324006D01*
X11010933Y3324005D01*
X11010932Y3324004D01*
X10959678Y3291066D01*
X10901951Y3253967D01*
X10817119Y3156063D01*
X10817118Y3156062D01*
X10763303Y3038226D01*
X10744868Y2910000D01*
X10763303Y2781774D01*
X10765802Y2773267D01*
X10763305Y2772534D01*
X10771314Y2716862D01*
X10742294Y2653304D01*
X10683519Y2615526D01*
X10648575Y2610500D01*
X8710096Y2610500D01*
X8643057Y2630185D01*
X8622415Y2646819D01*
X8458191Y2811043D01*
X8442768Y2829835D01*
X8435575Y2840601D01*
X8373953Y2881775D01*
X8352715Y2895967D01*
X8352713Y2895968D01*
X8254976Y2915408D01*
X8254973Y2915408D01*
X8242280Y2912883D01*
X8218088Y2910500D01*
X6396886Y2910500D01*
X6372694Y2912883D01*
X6360001Y2915408D01*
X6359999Y2915408D01*
X6335325Y2910500D01*
X6262263Y2895968D01*
X6262260Y2895967D01*
X6179399Y2840601D01*
X6179394Y2840597D01*
X6172201Y2829831D01*
X6156783Y2811045D01*
X4142558Y796819D01*
X4081235Y763334D01*
X4054877Y760500D01*
X3945226Y760500D01*
X3820935Y724006D01*
X3820932Y724005D01*
X3820931Y724004D01*
X3771009Y691921D01*
X3711950Y653967D01*
X3710938Y652798D01*
X3709633Y651960D01*
X3705246Y648158D01*
X3704699Y648789D01*
X3652160Y615023D01*
X3617224Y610000D01*
X3510000Y610000D01*
X3510000Y134000D01*
X3490315Y66961D01*
X3437511Y21206D01*
X3386000Y10000D01*
X134000Y10000D01*
X66961Y29685D01*
X21206Y82489D01*
X10000Y134000D01*
X10000Y3810000D01*
X954867Y3810000D01*
X973302Y3681775D01*
X1020500Y3578428D01*
X1027118Y3563937D01*
X1111951Y3466033D01*
X1220931Y3395996D01*
X1345225Y3359501D01*
X1345227Y3359500D01*
X1345228Y3359500D01*
X1474773Y3359500D01*
X1474773Y3359501D01*
X1599069Y3395996D01*
X1708049Y3466033D01*
X1772707Y3540654D01*
X1831481Y3578426D01*
X1901350Y3578428D01*
X1960129Y3540655D01*
X1979212Y3510962D01*
X1995271Y3475798D01*
X2031427Y3396629D01*
X2125676Y3287859D01*
X2246751Y3210049D01*
X2246754Y3210048D01*
X2246753Y3210048D01*
X2384840Y3169503D01*
X2384842Y3169502D01*
X2384843Y3169502D01*
X2528766Y3169502D01*
X2528766Y3169503D01*
X2666857Y3210049D01*
X2787932Y3287859D01*
X2882181Y3396629D01*
X2941969Y3527545D01*
X2962451Y3670002D01*
X2941969Y3812459D01*
X2882181Y3943375D01*
X2787932Y4052145D01*
X2666857Y4129955D01*
X2666855Y4129956D01*
X2666853Y4129957D01*
X2666854Y4129957D01*
X2528767Y4170502D01*
X2528765Y4170502D01*
X2384843Y4170502D01*
X2384840Y4170502D01*
X2246753Y4129957D01*
X2125677Y4052146D01*
X2125676Y4052146D01*
X2125676Y4052145D01*
X2096505Y4018480D01*
X2035268Y3947808D01*
X1976490Y3910034D01*
X1906620Y3910034D01*
X1847842Y3947808D01*
X1828761Y3977500D01*
X1792884Y4056060D01*
X1792882Y4056062D01*
X1792882Y4056063D01*
X1708049Y4153967D01*
X1599069Y4224004D01*
X1599065Y4224006D01*
X1599064Y4224006D01*
X1474774Y4260500D01*
X1474772Y4260500D01*
X1345228Y4260500D01*
X1345226Y4260500D01*
X1220935Y4224006D01*
X1220932Y4224005D01*
X1220931Y4224004D01*
X1208080Y4215745D01*
X1111950Y4153967D01*
X1027118Y4056063D01*
X1027117Y4056062D01*
X973302Y3938226D01*
X954867Y3810000D01*
X10000Y3810000D01*
X10000Y12386000D01*
X29685Y12453039D01*
X82489Y12498794D01*
X134000Y12510000D01*
X3186000Y12510000D01*
X3253039Y12490315D01*
G37*
G04 #@! TD.AperFunction*
G04 #@! TA.AperFunction,Conductor*
G36*
X32897413Y4191623D02*
G01*
X32924087Y4168511D01*
X32967992Y4117841D01*
X33076972Y4047804D01*
X33139553Y4029429D01*
X33198331Y3991656D01*
X33227357Y3928101D01*
X33217414Y3858942D01*
X33171660Y3806138D01*
X33139554Y3791475D01*
X33089622Y3776814D01*
X32980638Y3706775D01*
X32895806Y3608871D01*
X32895805Y3608870D01*
X32841990Y3491034D01*
X32823555Y3362808D01*
X32841990Y3234583D01*
X32885996Y3138226D01*
X32895806Y3116745D01*
X32980639Y3018841D01*
X33089619Y2948804D01*
X33211958Y2912883D01*
X33213913Y2912309D01*
X33213915Y2912308D01*
X33213916Y2912308D01*
X33343461Y2912308D01*
X33343461Y2912309D01*
X33467757Y2948804D01*
X33518462Y2981391D01*
X33585501Y3001074D01*
X33652540Y2981389D01*
X33698295Y2928585D01*
X33709500Y2877074D01*
X33709500Y1965123D01*
X33689815Y1898084D01*
X33673181Y1877442D01*
X32592558Y796819D01*
X32531235Y763334D01*
X32504877Y760500D01*
X32395226Y760500D01*
X32270935Y724006D01*
X32270932Y724005D01*
X32270931Y724004D01*
X32221009Y691921D01*
X32161950Y653967D01*
X32160938Y652798D01*
X32159633Y651960D01*
X32155246Y648158D01*
X32154699Y648789D01*
X32102160Y615023D01*
X32067224Y610000D01*
X31960000Y610000D01*
X31960000Y134000D01*
X31940315Y66961D01*
X31887511Y21206D01*
X31836000Y10000D01*
X5434000Y10000D01*
X5366961Y29685D01*
X5321206Y82489D01*
X5310000Y134000D01*
X5310000Y404379D01*
X5329685Y471418D01*
X5346314Y492055D01*
X6348351Y1494093D01*
X6409674Y1527577D01*
X6479366Y1522593D01*
X6535299Y1480721D01*
X6559716Y1415257D01*
X6559971Y1410306D01*
X6562402Y1332934D01*
X6562403Y1332931D01*
X6608256Y1175102D01*
X6643550Y1115423D01*
X6691917Y1033638D01*
X6691923Y1033630D01*
X6915064Y810490D01*
X6925135Y797920D01*
X6925322Y798074D01*
X6930296Y792063D01*
X6930298Y792060D01*
X6949759Y773785D01*
X6982743Y742810D01*
X7004467Y721087D01*
X7010257Y716595D01*
X7014697Y712803D01*
X7043998Y685289D01*
X7050107Y679552D01*
X7050109Y679551D01*
X7068705Y669328D01*
X7084970Y658643D01*
X7101732Y645640D01*
X7101735Y645639D01*
X7101736Y645638D01*
X7146323Y626344D01*
X7151559Y623779D01*
X7194132Y600373D01*
X7209840Y596341D01*
X7214686Y595096D01*
X7233098Y588793D01*
X7252573Y580365D01*
X7300571Y572763D01*
X7306240Y571589D01*
X7353323Y559500D01*
X7374551Y559500D01*
X7393948Y557974D01*
X7414903Y554655D01*
X7414904Y554654D01*
X7414904Y554655D01*
X7414905Y554654D01*
X7463261Y559225D01*
X7469099Y559500D01*
X14698995Y559500D01*
X14715005Y557733D01*
X14715028Y557974D01*
X14722789Y557242D01*
X14722796Y557240D01*
X14794703Y559500D01*
X14825425Y559500D01*
X14832690Y560419D01*
X14838516Y560878D01*
X14887069Y562403D01*
X14907456Y568327D01*
X14926496Y572269D01*
X14947558Y574929D01*
X14992735Y592817D01*
X14998235Y594700D01*
X15044898Y608256D01*
X15063165Y619061D01*
X15080636Y627620D01*
X15100371Y635432D01*
X15139677Y663990D01*
X15144543Y667187D01*
X15186365Y691919D01*
X15201370Y706925D01*
X15216168Y719564D01*
X15233337Y732037D01*
X15264304Y769472D01*
X15268230Y773785D01*
X15367629Y873182D01*
X15428952Y906666D01*
X15455309Y909500D01*
X22379715Y909500D01*
X22436007Y895986D01*
X22441458Y893209D01*
X22441459Y893208D01*
X22449448Y889138D01*
X22469148Y876636D01*
X22476237Y871137D01*
X22531139Y847380D01*
X22534614Y845744D01*
X22583164Y821006D01*
X22587894Y818595D01*
X22587900Y818592D01*
X22596644Y816638D01*
X22618847Y809424D01*
X22627071Y805865D01*
X22627072Y805865D01*
X22627074Y805864D01*
X22686143Y796509D01*
X22689957Y795781D01*
X22748296Y782740D01*
X22757254Y783022D01*
X22780544Y781557D01*
X22789405Y780153D01*
X22848947Y785783D01*
X22852813Y786026D01*
X22912569Y787903D01*
X22921165Y790401D01*
X22944095Y794776D01*
X22953030Y795620D01*
X22953032Y795621D01*
X22953034Y795621D01*
X22979524Y805159D01*
X23009307Y815883D01*
X23012991Y817079D01*
X23070398Y833756D01*
X23078117Y838322D01*
X23099234Y848258D01*
X23107668Y851294D01*
X23157118Y884902D01*
X23160385Y886976D01*
X23169283Y892238D01*
X23232396Y909500D01*
X30184325Y909500D01*
X30251364Y889815D01*
X30260324Y883480D01*
X30276237Y871137D01*
X30327018Y849162D01*
X30427070Y805865D01*
X30427072Y805865D01*
X30427074Y805864D01*
X30589402Y780154D01*
X30589404Y780153D01*
X30589404Y780154D01*
X30589405Y780153D01*
X30753030Y795620D01*
X30907668Y851294D01*
X31043602Y943674D01*
X31152292Y1066958D01*
X31226908Y1213400D01*
X31262760Y1373796D01*
X31257598Y1538069D01*
X31211745Y1695898D01*
X31146194Y1806738D01*
X31128083Y1837362D01*
X31128079Y1837367D01*
X31067362Y1898084D01*
X31005929Y1959517D01*
X30995861Y1972085D01*
X30995674Y1971930D01*
X30990701Y1977941D01*
X30938256Y2027190D01*
X30916535Y2048911D01*
X30910740Y2053406D01*
X30906298Y2057201D01*
X30870896Y2090446D01*
X30870888Y2090452D01*
X30852292Y2100675D01*
X30836031Y2111356D01*
X30819263Y2124363D01*
X30795680Y2134568D01*
X30774678Y2143657D01*
X30769456Y2146214D01*
X30726868Y2169627D01*
X30726865Y2169628D01*
X30706301Y2174908D01*
X30687896Y2181210D01*
X30668427Y2189635D01*
X30668421Y2189637D01*
X30620451Y2197234D01*
X30614736Y2198418D01*
X30598272Y2202645D01*
X30567680Y2210500D01*
X30567677Y2210500D01*
X30546455Y2210500D01*
X30527055Y2212027D01*
X30506096Y2215347D01*
X30506095Y2215347D01*
X30482286Y2213097D01*
X30457730Y2210775D01*
X30451892Y2210500D01*
X28076784Y2210500D01*
X28045907Y2219567D01*
X28024116Y2210993D01*
X28013065Y2210500D01*
X23020006Y2210500D01*
X23003997Y2212268D01*
X23003975Y2212026D01*
X23003721Y2212050D01*
X23002861Y2212394D01*
X22992954Y2213487D01*
X22988588Y2214463D01*
X22989046Y2216516D01*
X22958053Y2211562D01*
X22924283Y2210500D01*
X22893575Y2210500D01*
X22893571Y2210500D01*
X22893560Y2210499D01*
X22886304Y2209583D01*
X22880486Y2209125D01*
X22831927Y2207599D01*
X22824538Y2206428D01*
X22774314Y2208796D01*
X22767677Y2210500D01*
X22767675Y2210500D01*
X22746455Y2210500D01*
X22727055Y2212027D01*
X22720742Y2213027D01*
X22702500Y2221675D01*
X22694484Y2216523D01*
X22671218Y2212050D01*
X22657730Y2210775D01*
X22651892Y2210500D01*
X18141859Y2210500D01*
X18110981Y2219567D01*
X18089192Y2210994D01*
X18078140Y2210500D01*
X15220006Y2210500D01*
X15203995Y2212268D01*
X15203973Y2212026D01*
X15196206Y2212761D01*
X15124283Y2210500D01*
X15093575Y2210500D01*
X15093571Y2210500D01*
X15093560Y2210499D01*
X15086304Y2209583D01*
X15080486Y2209125D01*
X15031933Y2207599D01*
X15017373Y2203370D01*
X15011540Y2201675D01*
X14992496Y2197731D01*
X14971442Y2195071D01*
X14971440Y2195071D01*
X14926281Y2177192D01*
X14920755Y2175300D01*
X14874101Y2161746D01*
X14855825Y2150937D01*
X14838360Y2142381D01*
X14818624Y2134567D01*
X14779324Y2106014D01*
X14774442Y2102807D01*
X14732636Y2078083D01*
X14717624Y2063071D01*
X14702836Y2050442D01*
X14685667Y2037968D01*
X14685665Y2037966D01*
X14654694Y2000530D01*
X14650763Y1996210D01*
X14608135Y1953582D01*
X14551374Y1896820D01*
X14490051Y1863334D01*
X14463692Y1860500D01*
X14209096Y1860500D01*
X14142057Y1880185D01*
X14096302Y1932989D01*
X14086358Y2002147D01*
X14115383Y2065703D01*
X14121415Y2072181D01*
X16122415Y4073181D01*
X16183738Y4106666D01*
X16210096Y4109500D01*
X16458574Y4109500D01*
X16525613Y4089815D01*
X16571368Y4037011D01*
X16581312Y3967853D01*
X16575164Y3946920D01*
X16575801Y3946733D01*
X16573302Y3938227D01*
X16554867Y3810000D01*
X16573302Y3681775D01*
X16620500Y3578428D01*
X16627118Y3563937D01*
X16711951Y3466033D01*
X16820931Y3395996D01*
X16945225Y3359501D01*
X16945227Y3359500D01*
X17054878Y3359500D01*
X17121917Y3339815D01*
X17142559Y3323181D01*
X17906782Y2558958D01*
X17922203Y2540168D01*
X17929399Y2529398D01*
X18004232Y2479398D01*
X18012259Y2474034D01*
X18012261Y2474033D01*
X18102331Y2456117D01*
X18107232Y2453553D01*
X18117663Y2456117D01*
X18122694Y2457118D01*
X18146886Y2459500D01*
X22659549Y2459500D01*
X22699731Y2447701D01*
X22724252Y2458478D01*
X22740142Y2459500D01*
X22954157Y2459500D01*
X22980953Y2451632D01*
X22991798Y2457236D01*
X23015386Y2459500D01*
X28008038Y2459500D01*
X28032229Y2457118D01*
X28037258Y2456117D01*
X28042159Y2453554D01*
X28052593Y2456117D01*
X28142660Y2474033D01*
X28142660Y2474034D01*
X28142665Y2474034D01*
X28182000Y2500317D01*
X28225525Y2529399D01*
X28232720Y2540168D01*
X28248134Y2558952D01*
X29864174Y4174989D01*
X29925497Y4208474D01*
X29951855Y4211308D01*
X32830374Y4211308D01*
X32897413Y4191623D01*
G37*
G04 #@! TD.AperFunction*
G04 #@! TA.AperFunction,Conductor*
G36*
X41681969Y6839815D02*
G01*
X41702611Y6823181D01*
X42473181Y6052611D01*
X42506666Y5991288D01*
X42509500Y5964930D01*
X42509500Y3557517D01*
X42489815Y3490478D01*
X42437011Y3444723D01*
X42420435Y3438540D01*
X42370934Y3424006D01*
X42261950Y3353967D01*
X42177118Y3256063D01*
X42177117Y3256062D01*
X42123302Y3138226D01*
X42104867Y3010000D01*
X42123302Y2881775D01*
X42177117Y2763939D01*
X42177118Y2763937D01*
X42261951Y2666033D01*
X42370931Y2595996D01*
X42481411Y2563557D01*
X42495225Y2559501D01*
X42495227Y2559500D01*
X42495228Y2559500D01*
X42624773Y2559500D01*
X42624773Y2559501D01*
X42658050Y2569271D01*
X42700566Y2581754D01*
X42770436Y2581754D01*
X42829213Y2543979D01*
X42858238Y2480423D01*
X42859500Y2462777D01*
X42859500Y872198D01*
X42839815Y805159D01*
X42787011Y759404D01*
X42770434Y753221D01*
X42670935Y724007D01*
X42561950Y653967D01*
X42560938Y652798D01*
X42559633Y651960D01*
X42555246Y648158D01*
X42554699Y648789D01*
X42502160Y615023D01*
X42467224Y610000D01*
X42452776Y610000D01*
X42385737Y629685D01*
X42359062Y652798D01*
X42358049Y653967D01*
X42342467Y663981D01*
X42249069Y724004D01*
X42249065Y724006D01*
X42249064Y724006D01*
X42124774Y760500D01*
X42124772Y760500D01*
X41995228Y760500D01*
X41995226Y760500D01*
X41870935Y724006D01*
X41870932Y724005D01*
X41870931Y724004D01*
X41821009Y691921D01*
X41761950Y653967D01*
X41760938Y652798D01*
X41759633Y651960D01*
X41755246Y648158D01*
X41754699Y648789D01*
X41702160Y615023D01*
X41667224Y610000D01*
X41652776Y610000D01*
X41585737Y629685D01*
X41559062Y652798D01*
X41558049Y653967D01*
X41542467Y663981D01*
X41449069Y724004D01*
X41449065Y724006D01*
X41449064Y724006D01*
X41324774Y760500D01*
X41324772Y760500D01*
X41195228Y760500D01*
X41195226Y760500D01*
X41070935Y724006D01*
X41070932Y724005D01*
X41070931Y724004D01*
X41021009Y691921D01*
X40961950Y653967D01*
X40960938Y652798D01*
X40959633Y651960D01*
X40955246Y648158D01*
X40954699Y648789D01*
X40902160Y615023D01*
X40867224Y610000D01*
X40852776Y610000D01*
X40785737Y629685D01*
X40759062Y652798D01*
X40758049Y653967D01*
X40742467Y663981D01*
X40649069Y724004D01*
X40649065Y724006D01*
X40649064Y724006D01*
X40524774Y760500D01*
X40524772Y760500D01*
X40395228Y760500D01*
X40395226Y760500D01*
X40270935Y724006D01*
X40270932Y724005D01*
X40270931Y724004D01*
X40221009Y691921D01*
X40161950Y653967D01*
X40160938Y652798D01*
X40159633Y651960D01*
X40155246Y648158D01*
X40154699Y648789D01*
X40102160Y615023D01*
X40067224Y610000D01*
X40052776Y610000D01*
X39985737Y629685D01*
X39959062Y652798D01*
X39958049Y653967D01*
X39942467Y663981D01*
X39849069Y724004D01*
X39849065Y724006D01*
X39849064Y724006D01*
X39724774Y760500D01*
X39724772Y760500D01*
X39595228Y760500D01*
X39595226Y760500D01*
X39470935Y724006D01*
X39470932Y724005D01*
X39470931Y724004D01*
X39421009Y691921D01*
X39361950Y653967D01*
X39360938Y652798D01*
X39359633Y651960D01*
X39355246Y648158D01*
X39354699Y648789D01*
X39302160Y615023D01*
X39267224Y610000D01*
X39252776Y610000D01*
X39185737Y629685D01*
X39159062Y652798D01*
X39158049Y653967D01*
X39142467Y663981D01*
X39049069Y724004D01*
X39049065Y724006D01*
X39049064Y724006D01*
X38924774Y760500D01*
X38924772Y760500D01*
X38795228Y760500D01*
X38795226Y760500D01*
X38670935Y724006D01*
X38670932Y724005D01*
X38670931Y724004D01*
X38621009Y691921D01*
X38561950Y653967D01*
X38560938Y652798D01*
X38559633Y651960D01*
X38555246Y648158D01*
X38554699Y648789D01*
X38502160Y615023D01*
X38467224Y610000D01*
X38452776Y610000D01*
X38385737Y629685D01*
X38359062Y652798D01*
X38358049Y653967D01*
X38342467Y663981D01*
X38249069Y724004D01*
X38249065Y724006D01*
X38249064Y724006D01*
X38124774Y760500D01*
X38124772Y760500D01*
X37995228Y760500D01*
X37995226Y760500D01*
X37870935Y724006D01*
X37870932Y724005D01*
X37870931Y724004D01*
X37821009Y691921D01*
X37761950Y653967D01*
X37760938Y652798D01*
X37759633Y651960D01*
X37755246Y648158D01*
X37754699Y648789D01*
X37702160Y615023D01*
X37667224Y610000D01*
X37652776Y610000D01*
X37585737Y629685D01*
X37559062Y652798D01*
X37558049Y653967D01*
X37542467Y663981D01*
X37449069Y724004D01*
X37449065Y724006D01*
X37449064Y724006D01*
X37324774Y760500D01*
X37324772Y760500D01*
X37195228Y760500D01*
X37195226Y760500D01*
X37070935Y724006D01*
X37070932Y724005D01*
X37070931Y724004D01*
X37021009Y691921D01*
X36961950Y653967D01*
X36960938Y652798D01*
X36959633Y651960D01*
X36955246Y648158D01*
X36954699Y648789D01*
X36902160Y615023D01*
X36867224Y610000D01*
X36852776Y610000D01*
X36785737Y629685D01*
X36759062Y652798D01*
X36758049Y653967D01*
X36742467Y663981D01*
X36649069Y724004D01*
X36649065Y724006D01*
X36649064Y724006D01*
X36524774Y760500D01*
X36524772Y760500D01*
X36395228Y760500D01*
X36395226Y760500D01*
X36270935Y724006D01*
X36270932Y724005D01*
X36270931Y724004D01*
X36221009Y691921D01*
X36161950Y653967D01*
X36160938Y652798D01*
X36159633Y651960D01*
X36155246Y648158D01*
X36154699Y648789D01*
X36102160Y615023D01*
X36067224Y610000D01*
X36052776Y610000D01*
X35985737Y629685D01*
X35959062Y652798D01*
X35958049Y653967D01*
X35918233Y679555D01*
X35849069Y724004D01*
X35849068Y724005D01*
X35844097Y727199D01*
X35798342Y780003D01*
X35788398Y849162D01*
X35817423Y912718D01*
X35823433Y919174D01*
X36011051Y1106792D01*
X36029836Y1122208D01*
X36040601Y1129399D01*
X36051584Y1145837D01*
X36059803Y1158135D01*
X36095965Y1212258D01*
X36095965Y1212259D01*
X36095966Y1212260D01*
X36115409Y1310000D01*
X36112883Y1322699D01*
X36110500Y1346891D01*
X36110500Y5989817D01*
X36130185Y6056856D01*
X36140780Y6071013D01*
X36142882Y6073437D01*
X36158587Y6107825D01*
X36204342Y6160629D01*
X36271381Y6180314D01*
X36338420Y6160629D01*
X36359062Y6143995D01*
X38573181Y3929877D01*
X38606666Y3868554D01*
X38609500Y3842196D01*
X38609500Y3475798D01*
X38589815Y3408759D01*
X38566704Y3382086D01*
X38561946Y3377964D01*
X38560719Y3376547D01*
X38559143Y3375535D01*
X38555249Y3372160D01*
X38554763Y3372721D01*
X38501939Y3338775D01*
X38432069Y3338779D01*
X38400001Y3356281D01*
X38398817Y3354437D01*
X38389383Y3360500D01*
X38282376Y3429269D01*
X38282372Y3429271D01*
X38282371Y3429271D01*
X38158081Y3465765D01*
X38158079Y3465765D01*
X38028535Y3465765D01*
X38028533Y3465765D01*
X37904242Y3429271D01*
X37904239Y3429270D01*
X37904238Y3429269D01*
X37797231Y3360500D01*
X37795255Y3359230D01*
X37705472Y3255614D01*
X37646694Y3217839D01*
X37576825Y3217839D01*
X37562029Y3223357D01*
X37436823Y3260120D01*
X37436821Y3260120D01*
X37307277Y3260120D01*
X37307275Y3260120D01*
X37182984Y3223626D01*
X37182981Y3223625D01*
X37182980Y3223624D01*
X37151631Y3203477D01*
X37073999Y3153587D01*
X36989167Y3055683D01*
X36989166Y3055682D01*
X36935351Y2937846D01*
X36916916Y2809620D01*
X36935351Y2681395D01*
X36986557Y2569271D01*
X36989167Y2563557D01*
X37074000Y2465653D01*
X37182980Y2395616D01*
X37307274Y2359121D01*
X37307276Y2359120D01*
X37307277Y2359120D01*
X37436822Y2359120D01*
X37436822Y2359121D01*
X37561118Y2395616D01*
X37670098Y2465653D01*
X37754931Y2563557D01*
X37754931Y2563558D01*
X37759882Y2569271D01*
X37818660Y2607047D01*
X37888529Y2607048D01*
X37903330Y2601527D01*
X38028532Y2564766D01*
X38028534Y2564765D01*
X38028535Y2564765D01*
X38158080Y2564765D01*
X38158080Y2564766D01*
X38282376Y2601261D01*
X38391356Y2671298D01*
X38392578Y2672709D01*
X38394152Y2673721D01*
X38398061Y2677107D01*
X38398547Y2676546D01*
X38451352Y2710486D01*
X38521221Y2710492D01*
X38553304Y2692984D01*
X38554490Y2694828D01*
X38561950Y2690034D01*
X38561951Y2690033D01*
X38670931Y2619996D01*
X38752673Y2595995D01*
X38795225Y2583501D01*
X38795227Y2583500D01*
X38795228Y2583500D01*
X38924773Y2583500D01*
X38924773Y2583501D01*
X39049069Y2619996D01*
X39158049Y2690033D01*
X39242882Y2787937D01*
X39296697Y2905774D01*
X39315133Y3034000D01*
X39296697Y3162226D01*
X39242882Y3280063D01*
X39158049Y3377967D01*
X39158048Y3377968D01*
X39158047Y3377969D01*
X39153296Y3382086D01*
X39115523Y3440864D01*
X39110500Y3475798D01*
X39110500Y3960433D01*
X39112883Y3984626D01*
X39113358Y3987011D01*
X39115408Y3997318D01*
X39115408Y3997319D01*
X39115408Y3997321D01*
X39095966Y4095057D01*
X39095966Y4095058D01*
X39054578Y4157001D01*
X39054577Y4157002D01*
X39042559Y4174989D01*
X39040601Y4177920D01*
X39029835Y4185113D01*
X39011045Y4200534D01*
X36563759Y6647819D01*
X36530274Y6709142D01*
X36535258Y6778834D01*
X36577130Y6834767D01*
X36642594Y6859184D01*
X36651440Y6859500D01*
X41614930Y6859500D01*
X41681969Y6839815D01*
G37*
G04 #@! TD.AperFunction*
G04 #@! TA.AperFunction,Conductor*
G36*
X44703039Y9290315D02*
G01*
X44748794Y9237511D01*
X44760000Y9186000D01*
X44760000Y857077D01*
X44740315Y790038D01*
X44687511Y744283D01*
X44618353Y734339D01*
X44601067Y738099D01*
X44524772Y760500D01*
X44395228Y760500D01*
X44395226Y760500D01*
X44270935Y724006D01*
X44270932Y724005D01*
X44270931Y724004D01*
X44221009Y691921D01*
X44161950Y653967D01*
X44160938Y652798D01*
X44159633Y651960D01*
X44155246Y648158D01*
X44154699Y648789D01*
X44102160Y615023D01*
X44067224Y610000D01*
X44052776Y610000D01*
X43985737Y629685D01*
X43959062Y652798D01*
X43958047Y653969D01*
X43953296Y658086D01*
X43915523Y716864D01*
X43910500Y751798D01*
X43910500Y6173115D01*
X43912883Y6197308D01*
X43915408Y6210001D01*
X43904462Y6265025D01*
X43904462Y6265026D01*
X43895966Y6307740D01*
X43894456Y6310000D01*
X43854578Y6369683D01*
X43854577Y6369684D01*
X43851193Y6374749D01*
X43840601Y6390602D01*
X43829835Y6397795D01*
X43811045Y6413216D01*
X43198859Y7025402D01*
X43165374Y7086725D01*
X43170358Y7156417D01*
X43212230Y7212350D01*
X43251603Y7232060D01*
X43299069Y7245996D01*
X43408049Y7316033D01*
X43492882Y7413937D01*
X43536167Y7508719D01*
X43561280Y7544888D01*
X44095924Y8079531D01*
X44095929Y8079538D01*
X44111422Y8095030D01*
X44121481Y8114774D01*
X44131641Y8131354D01*
X44144668Y8149283D01*
X44151514Y8170355D01*
X44158960Y8188329D01*
X44169017Y8208067D01*
X44169018Y8208068D01*
X44172484Y8229956D01*
X44177023Y8248862D01*
X44183872Y8269939D01*
X44183872Y8396805D01*
X44183872Y8916118D01*
X44203557Y8983157D01*
X44220191Y9003799D01*
X44490073Y9273681D01*
X44551396Y9307166D01*
X44577754Y9310000D01*
X44636000Y9310000D01*
X44703039Y9290315D01*
G37*
G04 #@! TD.AperFunction*
G04 #@! TA.AperFunction,Conductor*
G36*
X34877735Y5875080D02*
G01*
X34915516Y5816307D01*
X34920543Y5781358D01*
X34920543Y5211793D01*
X34918161Y5187604D01*
X34915635Y5174904D01*
X34915635Y5174902D01*
X34935075Y5077168D01*
X34935076Y5077165D01*
X34935076Y5077164D01*
X34935077Y5077163D01*
X34946545Y5060000D01*
X34990442Y4994303D01*
X35001208Y4987110D01*
X35019999Y4971688D01*
X35223181Y4768506D01*
X35256666Y4707183D01*
X35259500Y4680825D01*
X35259500Y1915123D01*
X35239815Y1848084D01*
X35223181Y1827442D01*
X34772181Y1376442D01*
X34710858Y1342957D01*
X34641166Y1347941D01*
X34585233Y1389813D01*
X34560816Y1455277D01*
X34560500Y1464123D01*
X34560500Y5747803D01*
X34580185Y5814842D01*
X34632989Y5860597D01*
X34649558Y5866778D01*
X34749069Y5895996D01*
X34749069Y5895997D01*
X34757580Y5898495D01*
X34758295Y5896057D01*
X34814176Y5904098D01*
X34877735Y5875080D01*
G37*
G04 #@! TD.AperFunction*
G04 #@! TA.AperFunction,Conductor*
G36*
X15422917Y4789815D02*
G01*
X15468672Y4737011D01*
X15478616Y4667853D01*
X15449591Y4604297D01*
X15443559Y4597819D01*
X13492559Y2646819D01*
X13431236Y2613334D01*
X13404878Y2610500D01*
X11751427Y2610500D01*
X11684388Y2630185D01*
X11638633Y2682989D01*
X11628689Y2752147D01*
X11634836Y2773081D01*
X11634200Y2773267D01*
X11636698Y2781774D01*
X11640906Y2811043D01*
X11655134Y2910000D01*
X11654719Y2912883D01*
X11651287Y2936753D01*
X11661228Y3005911D01*
X11686340Y3042081D01*
X13417442Y4773181D01*
X13478765Y4806666D01*
X13505123Y4809500D01*
X15355878Y4809500D01*
X15422917Y4789815D01*
G37*
G04 #@! TD.AperFunction*
G04 #@! TA.AperFunction,Conductor*
G36*
X24633616Y4439815D02*
G01*
X24679371Y4387011D01*
X24689315Y4317853D01*
X24660290Y4254297D01*
X24627689Y4229892D01*
X24628392Y4228798D01*
X24620933Y4224005D01*
X24620931Y4224004D01*
X24584411Y4200534D01*
X24511950Y4153967D01*
X24427118Y4056063D01*
X24427117Y4056062D01*
X24373302Y3938226D01*
X24354867Y3810000D01*
X24373302Y3681775D01*
X24427117Y3563939D01*
X24427118Y3563937D01*
X24468913Y3515702D01*
X24497937Y3452146D01*
X24487993Y3382987D01*
X24442237Y3330184D01*
X24375199Y3310500D01*
X19670458Y3310500D01*
X19603419Y3330185D01*
X19582777Y3346819D01*
X19134408Y3795188D01*
X18681775Y4247820D01*
X18648291Y4309142D01*
X18653275Y4378833D01*
X18695147Y4434767D01*
X18760611Y4459184D01*
X18769457Y4459500D01*
X24566577Y4459500D01*
X24633616Y4439815D01*
G37*
G04 #@! TD.AperFunction*
G04 #@! TA.AperFunction,Conductor*
G36*
X38853710Y9475544D02*
G01*
X38853716Y9475537D01*
X38861949Y9466034D01*
X38871482Y9459908D01*
X38970931Y9395996D01*
X39095225Y9359501D01*
X39095227Y9359500D01*
X39095228Y9359500D01*
X39224773Y9359500D01*
X39224773Y9359501D01*
X39279234Y9375491D01*
X39349064Y9395994D01*
X39349065Y9395995D01*
X39349069Y9395996D01*
X39458049Y9466033D01*
X39458050Y9466035D01*
X39464252Y9470020D01*
X39531291Y9489704D01*
X39598331Y9470019D01*
X39611297Y9460313D01*
X39611927Y9459908D01*
X39611929Y9459906D01*
X39720909Y9389869D01*
X39824339Y9359500D01*
X39845203Y9353374D01*
X39845205Y9353373D01*
X39845206Y9353373D01*
X39974751Y9353373D01*
X39974751Y9353374D01*
X40099047Y9389869D01*
X40208027Y9459906D01*
X40217459Y9470791D01*
X40276236Y9508567D01*
X40346106Y9508569D01*
X40404885Y9470796D01*
X40433911Y9407241D01*
X40433912Y9371944D01*
X40414367Y9236003D01*
X40432802Y9107777D01*
X40486617Y8989941D01*
X40486620Y8989935D01*
X40539075Y8929399D01*
X40571451Y8892035D01*
X40571457Y8892031D01*
X40576198Y8887923D01*
X40613975Y8829146D01*
X40619000Y8794206D01*
X40619000Y8542415D01*
X40616618Y8518226D01*
X40614092Y8505526D01*
X40614092Y8505524D01*
X40633532Y8407788D01*
X40633533Y8407785D01*
X40640871Y8396803D01*
X40688898Y8324926D01*
X40688899Y8324925D01*
X40699668Y8317730D01*
X40718457Y8302309D01*
X41448585Y7572181D01*
X41482070Y7510858D01*
X41477086Y7441166D01*
X41435214Y7385233D01*
X41369750Y7360816D01*
X41360904Y7360500D01*
X36397415Y7360500D01*
X36330376Y7380185D01*
X36309734Y7396819D01*
X35645509Y8061043D01*
X35630086Y8079835D01*
X35629751Y8080336D01*
X35622893Y8090601D01*
X35591419Y8111631D01*
X35569828Y8126058D01*
X35561891Y8131361D01*
X35540033Y8145966D01*
X35540032Y8145967D01*
X35540031Y8145967D01*
X35442294Y8165408D01*
X35442291Y8165408D01*
X35429598Y8162883D01*
X35405406Y8160500D01*
X34965758Y8160500D01*
X34898719Y8180185D01*
X34852964Y8232989D01*
X34843020Y8302147D01*
X34852964Y8336011D01*
X34885743Y8407788D01*
X34896697Y8431774D01*
X34915133Y8560000D01*
X34896697Y8688226D01*
X34896697Y8688227D01*
X34894199Y8696733D01*
X34896695Y8697467D01*
X34888687Y8753138D01*
X34917707Y8816696D01*
X34976482Y8854474D01*
X35011426Y8859500D01*
X37623114Y8859500D01*
X37647306Y8857117D01*
X37659999Y8854592D01*
X37660000Y8854592D01*
X37660002Y8854592D01*
X37757738Y8874033D01*
X37757738Y8874034D01*
X37757741Y8874034D01*
X37790145Y8895686D01*
X37840601Y8929399D01*
X37847794Y8940167D01*
X37863210Y8958952D01*
X38227440Y9323181D01*
X38288763Y9356666D01*
X38315121Y9359500D01*
X38424773Y9359500D01*
X38424773Y9359501D01*
X38549069Y9395996D01*
X38658049Y9466033D01*
X38666284Y9475538D01*
X38725061Y9513314D01*
X38794930Y9513316D01*
X38853710Y9475544D01*
G37*
G04 #@! TD.AperFunction*
G04 #@! TA.AperFunction,Conductor*
G36*
X43869834Y11239815D02*
G01*
X43890475Y11223182D01*
X43942000Y11171658D01*
X44031708Y11081950D01*
X44051445Y11071894D01*
X44068034Y11061729D01*
X44073669Y11057634D01*
X44116333Y11002303D01*
X44122309Y10932690D01*
X44094495Y10876119D01*
X44077120Y10856068D01*
X44077117Y10856062D01*
X44023302Y10738226D01*
X44004867Y10610000D01*
X44023302Y10481775D01*
X44055570Y10411119D01*
X44077118Y10363937D01*
X44129714Y10303237D01*
X44158738Y10239685D01*
X44160000Y10222037D01*
X44160000Y10197966D01*
X44140315Y10130927D01*
X44129714Y10116765D01*
X44077120Y10056068D01*
X44077118Y10056064D01*
X44033831Y9961280D01*
X44008718Y9925112D01*
X43477888Y9394281D01*
X43477885Y9394278D01*
X43455321Y9371713D01*
X43455320Y9371712D01*
X43445263Y9351975D01*
X43435103Y9335395D01*
X43422078Y9317467D01*
X43422075Y9317462D01*
X43415226Y9296384D01*
X43407785Y9278420D01*
X43397726Y9258677D01*
X43394259Y9236790D01*
X43389719Y9217881D01*
X43382872Y9196805D01*
X43382872Y8550628D01*
X43363187Y8483589D01*
X43346553Y8462947D01*
X42995236Y8111631D01*
X42942494Y8080336D01*
X42920931Y8074004D01*
X42920930Y8074004D01*
X42811950Y8003967D01*
X42727118Y7906063D01*
X42727117Y7906062D01*
X42673107Y7787798D01*
X42627352Y7734994D01*
X42560312Y7715310D01*
X42493273Y7734995D01*
X42472632Y7751629D01*
X41746819Y8477442D01*
X41713334Y8538765D01*
X41710500Y8565123D01*
X41710500Y8995710D01*
X41730185Y9062749D01*
X41782989Y9108504D01*
X41852147Y9118448D01*
X41915703Y9089423D01*
X41953477Y9030645D01*
X41957238Y9013357D01*
X41966625Y8948062D01*
X42007071Y8859500D01*
X42020441Y8830224D01*
X42105274Y8732320D01*
X42214254Y8662283D01*
X42338548Y8625788D01*
X42338550Y8625787D01*
X42338551Y8625787D01*
X42468096Y8625787D01*
X42468096Y8625788D01*
X42592392Y8662283D01*
X42701372Y8732320D01*
X42786205Y8830224D01*
X42840020Y8948061D01*
X42858456Y9076287D01*
X42840020Y9204513D01*
X42786205Y9322350D01*
X42731095Y9385951D01*
X42702072Y9449506D01*
X42712016Y9518664D01*
X42757768Y9571466D01*
X42771567Y9580333D01*
X42856400Y9678237D01*
X42910215Y9796074D01*
X42928651Y9924300D01*
X42910215Y10052526D01*
X42856400Y10170363D01*
X42771567Y10268267D01*
X42662587Y10338304D01*
X42662583Y10338306D01*
X42662582Y10338306D01*
X42538292Y10374800D01*
X42538290Y10374800D01*
X42495796Y10374800D01*
X42428757Y10394485D01*
X42408115Y10411119D01*
X41858191Y10961043D01*
X41842768Y10979835D01*
X41835574Y10990602D01*
X41817966Y11002367D01*
X41782510Y11026058D01*
X41773017Y11032401D01*
X41728215Y11086013D01*
X41719509Y11155338D01*
X41749665Y11218365D01*
X41809109Y11255082D01*
X41841912Y11259500D01*
X43802795Y11259500D01*
X43869834Y11239815D01*
G37*
G04 #@! TD.AperFunction*
G04 #@! TD*
M02*
