G04 #@! TF.GenerationSoftware,KiCad,Pcbnew,7.0.9*
G04 #@! TF.CreationDate,2024-03-10T06:33:53+03:00*
G04 #@! TF.ProjectId,hellen1-mcz33810,68656c6c-656e-4312-9d6d-637a33333831,rev?*
G04 #@! TF.SameCoordinates,PX507d780PY4a62f80*
G04 #@! TF.FileFunction,Copper,L2,Inr*
G04 #@! TF.FilePolarity,Positive*
%FSLAX46Y46*%
G04 Gerber Fmt 4.6, Leading zero omitted, Abs format (unit mm)*
G04 Created by KiCad (PCBNEW 7.0.9) date 2024-03-10 06:33:53*
%MOMM*%
%LPD*%
G01*
G04 APERTURE LIST*
G04 #@! TA.AperFunction,ComponentPad*
%ADD10C,0.600000*%
G04 #@! TD*
G04 #@! TA.AperFunction,Conductor*
%ADD11R,0.200000X12.500000*%
G04 #@! TD*
G04 #@! TA.AperFunction,Conductor*
%ADD12R,3.300000X0.200000*%
G04 #@! TD*
G04 #@! TA.AperFunction,Conductor*
%ADD13R,3.500000X0.200000*%
G04 #@! TD*
G04 #@! TA.AperFunction,Conductor*
%ADD14R,6.000000X0.200000*%
G04 #@! TD*
G04 #@! TA.AperFunction,Conductor*
%ADD15R,26.600000X0.200000*%
G04 #@! TD*
G04 #@! TA.AperFunction,Conductor*
%ADD16R,15.400000X0.200000*%
G04 #@! TD*
G04 #@! TA.AperFunction,Conductor*
%ADD17R,0.200000X8.500000*%
G04 #@! TD*
G04 #@! TA.AperFunction,ComponentPad*
%ADD18C,1.000000*%
G04 #@! TD*
G04 #@! TA.AperFunction,ViaPad*
%ADD19C,0.600000*%
G04 #@! TD*
G04 #@! TA.AperFunction,ViaPad*
%ADD20C,0.900000*%
G04 #@! TD*
G04 APERTURE END LIST*
D10*
G04 #@! TO.N,/OUT_INJ4*
G04 #@! TO.C,M801*
X44450000Y9800000D03*
G04 #@! TO.N,/OUT_INJ3*
X44450000Y10600000D03*
G04 #@! TO.N,/OUT_INJ1*
X44450000Y11400000D03*
G04 #@! TO.N,/OUT_INJ2*
X44450000Y12200000D03*
D11*
G04 #@! TO.N,GND*
X100000Y6250000D03*
D12*
X1650000Y12400000D03*
D13*
X1750000Y100000D03*
D14*
X8100000Y12400000D03*
X15900000Y12400000D03*
D15*
X18650000Y100000D03*
D14*
X23700000Y12400000D03*
D16*
X36250000Y12400000D03*
D17*
X44650000Y5050000D03*
D18*
G04 #@! TO.N,/OUT_IGN1*
X4200000Y12000000D03*
G04 #@! TO.N,/OUT_IGN2*
X12000000Y12000000D03*
G04 #@! TO.N,/OUT_IGN3*
X19800000Y12000000D03*
G04 #@! TO.N,/OUT_IGN4*
X27600000Y12000000D03*
D10*
G04 #@! TO.N,/INJ4*
X44450000Y300000D03*
G04 #@! TO.N,/INJ3*
X43650000Y300000D03*
G04 #@! TO.N,/INJ2*
X42850000Y300000D03*
G04 #@! TO.N,/~SPKDUR*
X42050000Y300000D03*
G04 #@! TO.N,/IGN4*
X41250000Y300000D03*
G04 #@! TO.N,/IGN3*
X40450000Y300000D03*
G04 #@! TO.N,/IGN2*
X39650000Y300000D03*
G04 #@! TO.N,/IGN1*
X38850000Y300000D03*
G04 #@! TO.N,/INJ1*
X38050000Y300000D03*
G04 #@! TO.N,/~OUTEN*
X37250000Y300000D03*
G04 #@! TO.N,/NOMI*
X36450000Y300000D03*
G04 #@! TO.N,/MAXI*
X35650000Y300000D03*
G04 #@! TO.N,/MISO*
X34850000Y300000D03*
G04 #@! TO.N,/MOSI*
X34050000Y300000D03*
G04 #@! TO.N,/SCLK*
X33250000Y300000D03*
G04 #@! TO.N,/~CS*
X32450000Y300000D03*
G04 #@! TO.N,+12V*
X4800000Y300000D03*
G04 #@! TO.N,+3V3*
X4000000Y300000D03*
G04 #@! TD*
D19*
G04 #@! TO.N,GND*
X40000000Y7900000D03*
X37250000Y4700000D03*
X13350000Y3650000D03*
X32300000Y11050000D03*
X31800000Y850000D03*
X32050000Y3200000D03*
G04 #@! TO.N,/OUT_INJ1*
X33513650Y10350000D03*
G04 #@! TO.N,GND*
X33312602Y11864640D03*
X39587686Y2869910D03*
X28650000Y550000D03*
X16050000Y550000D03*
X6765987Y440800D03*
X2800000Y550000D03*
X799659Y549490D03*
X8143526Y12057988D03*
X15942120Y12058927D03*
X23777984Y12072360D03*
X44200000Y4400000D03*
G04 #@! TO.N,/OUT_INJ4*
X43100000Y7650000D03*
G04 #@! TO.N,/OUT_INJ3*
X33268688Y3352808D03*
G04 #@! TO.N,GND*
X43073372Y8750000D03*
X41866117Y6216117D03*
X40950000Y6550000D03*
X41850000Y4200000D03*
X39850000Y4400000D03*
X36950000Y8250000D03*
X38850000Y6300000D03*
X41759336Y2945147D03*
X34897194Y4598129D03*
X36549774Y3023488D03*
X29700000Y3549500D03*
X23500000Y8800000D03*
X15600000Y8300000D03*
X724093Y12200000D03*
X8000000Y8300000D03*
X3950000Y1300000D03*
X8000000Y3900000D03*
X6000000Y3800000D03*
X16100000Y3500000D03*
X24000000Y3900000D03*
X21467947Y3625679D03*
G04 #@! TO.N,Net-(U801-FB1)*
X11190001Y2900000D03*
X42393323Y9066287D03*
G04 #@! TO.N,Net-(Q802-G)*
X42463518Y9914300D03*
G04 #@! TO.N,Net-(Q801-G)*
X34450000Y8550000D03*
X33200500Y8550000D03*
G04 #@! TO.N,Net-(Q803-G)*
X33256041Y4451808D03*
G04 #@! TO.N,Net-(Q804-G)*
X42550000Y3000000D03*
G04 #@! TO.N,/~CS*
X33950000Y6800000D03*
G04 #@! TO.N,/SCLK*
X34550000Y6300000D03*
G04 #@! TO.N,/MOSI*
X35161043Y6790500D03*
G04 #@! TO.N,/MISO*
X35750000Y6309500D03*
G04 #@! TO.N,Net-(U801-RSN)*
X37362049Y2799620D03*
G04 #@! TO.N,Net-(U801-RSP)*
X38083307Y3005265D03*
G04 #@! TO.N,+3V3*
X38350000Y9800000D03*
G04 #@! TO.N,/~OUTEN*
X39150000Y9800000D03*
G04 #@! TO.N,/INJ1*
X39899978Y9793873D03*
G04 #@! TO.N,/INJ2*
X40859500Y9226002D03*
G04 #@! TO.N,/INJ3*
X41240162Y9872222D03*
G04 #@! TO.N,+12V*
X38850000Y3024000D03*
D20*
G04 #@! TO.N,Net-(Q801-E)*
X30600000Y1425500D03*
X22800000Y1425500D03*
X15000000Y1425500D03*
X7200000Y1425500D03*
D19*
G04 #@! TO.N,Net-(Q804-G)*
X24800000Y3800000D03*
G04 #@! TO.N,/OUT_IGN4*
X25846804Y3660002D03*
G04 #@! TO.N,Net-(Q803-G)*
X17000000Y3800000D03*
G04 #@! TO.N,/OUT_IGN3*
X18046804Y3660002D03*
G04 #@! TO.N,Net-(Q802-G)*
X9200000Y3800000D03*
G04 #@! TO.N,/OUT_IGN2*
X10246804Y3660002D03*
G04 #@! TO.N,Net-(Q801-G)*
X1400000Y3800000D03*
G04 #@! TO.N,/OUT_IGN1*
X2446804Y3660002D03*
G04 #@! TD*
G04 #@! TA.AperFunction,Conductor*
G04 #@! TO.N,GND*
G36*
X3243039Y12479815D02*
G01*
X3288794Y12427011D01*
X3300000Y12375500D01*
X3300000Y11500000D01*
X3660991Y11500000D01*
X3728030Y11480315D01*
X3743218Y11468816D01*
X3799150Y11419264D01*
X3949773Y11340211D01*
X3949775Y11340210D01*
X4114944Y11299500D01*
X4285056Y11299500D01*
X4450225Y11340210D01*
X4564144Y11400000D01*
X4600849Y11419264D01*
X4600850Y11419266D01*
X4600852Y11419266D01*
X4656783Y11468817D01*
X4720015Y11498537D01*
X4739009Y11500000D01*
X5100000Y11500000D01*
X5100000Y12375500D01*
X5119685Y12442539D01*
X5172489Y12488294D01*
X5224000Y12499500D01*
X10976000Y12499500D01*
X11043039Y12479815D01*
X11088794Y12427011D01*
X11100000Y12375500D01*
X11100000Y11500000D01*
X11460991Y11500000D01*
X11528030Y11480315D01*
X11543218Y11468816D01*
X11599150Y11419264D01*
X11749773Y11340211D01*
X11749775Y11340210D01*
X11914944Y11299500D01*
X12085056Y11299500D01*
X12250225Y11340210D01*
X12364144Y11400000D01*
X12400849Y11419264D01*
X12400850Y11419266D01*
X12400852Y11419266D01*
X12456783Y11468817D01*
X12520015Y11498537D01*
X12539009Y11500000D01*
X12900000Y11500000D01*
X12900000Y12375500D01*
X12919685Y12442539D01*
X12972489Y12488294D01*
X13024000Y12499500D01*
X18776000Y12499500D01*
X18843039Y12479815D01*
X18888794Y12427011D01*
X18900000Y12375500D01*
X18900000Y11500000D01*
X19260991Y11500000D01*
X19328030Y11480315D01*
X19343218Y11468816D01*
X19399150Y11419264D01*
X19549773Y11340211D01*
X19549775Y11340210D01*
X19714944Y11299500D01*
X19885056Y11299500D01*
X20050225Y11340210D01*
X20164144Y11400000D01*
X20200849Y11419264D01*
X20200850Y11419266D01*
X20200852Y11419266D01*
X20256783Y11468817D01*
X20320015Y11498537D01*
X20339009Y11500000D01*
X20700000Y11500000D01*
X20700000Y12375500D01*
X20719685Y12442539D01*
X20772489Y12488294D01*
X20824000Y12499500D01*
X26576000Y12499500D01*
X26643039Y12479815D01*
X26688794Y12427011D01*
X26700000Y12375500D01*
X26700000Y11500000D01*
X27060991Y11500000D01*
X27128030Y11480315D01*
X27143218Y11468816D01*
X27199150Y11419264D01*
X27349773Y11340211D01*
X27349775Y11340210D01*
X27514944Y11299500D01*
X27685056Y11299500D01*
X27850225Y11340210D01*
X27964144Y11400000D01*
X28000849Y11419264D01*
X28000850Y11419266D01*
X28000852Y11419266D01*
X28056783Y11468817D01*
X28120015Y11498537D01*
X28139009Y11500000D01*
X28500000Y11500000D01*
X28500000Y12375500D01*
X28519685Y12442539D01*
X28572489Y12488294D01*
X28624000Y12499500D01*
X43898574Y12499500D01*
X43965613Y12479815D01*
X44011368Y12427011D01*
X44021312Y12357853D01*
X44015164Y12336920D01*
X44015801Y12336733D01*
X44013302Y12328227D01*
X43994867Y12200000D01*
X44013302Y12071775D01*
X44067117Y11953939D01*
X44067118Y11953937D01*
X44115115Y11898545D01*
X44130142Y11881202D01*
X44159166Y11817646D01*
X44149222Y11748487D01*
X44130142Y11718798D01*
X44067118Y11646063D01*
X44067117Y11646062D01*
X44013302Y11528226D01*
X43994867Y11400000D01*
X44013302Y11271775D01*
X44067117Y11153939D01*
X44067118Y11153937D01*
X44115115Y11098545D01*
X44130142Y11081202D01*
X44159166Y11017646D01*
X44149222Y10948487D01*
X44130142Y10918798D01*
X44067118Y10846063D01*
X44067117Y10846062D01*
X44013302Y10728226D01*
X43994867Y10600000D01*
X44013302Y10471775D01*
X44062157Y10364800D01*
X44067118Y10353937D01*
X44089329Y10328304D01*
X44130142Y10281202D01*
X44159166Y10217646D01*
X44149222Y10148487D01*
X44130142Y10118798D01*
X44067118Y10046063D01*
X44067117Y10046062D01*
X44013302Y9928226D01*
X43994867Y9800000D01*
X44013302Y9671775D01*
X44027810Y9640008D01*
X44067118Y9553937D01*
X44151951Y9456033D01*
X44260931Y9385996D01*
X44342847Y9361944D01*
X44385225Y9349501D01*
X44385227Y9349500D01*
X44385228Y9349500D01*
X44514773Y9349500D01*
X44514773Y9349501D01*
X44546211Y9358732D01*
X44590566Y9371754D01*
X44660436Y9371754D01*
X44719213Y9333979D01*
X44748238Y9270423D01*
X44749500Y9252777D01*
X44749500Y847224D01*
X44729815Y780185D01*
X44677011Y734430D01*
X44607853Y724486D01*
X44590567Y728246D01*
X44514772Y750500D01*
X44385228Y750500D01*
X44385226Y750500D01*
X44260935Y714006D01*
X44260932Y714005D01*
X44260931Y714004D01*
X44219435Y687337D01*
X44151948Y643966D01*
X44143713Y634461D01*
X44084936Y596686D01*
X44015066Y596686D01*
X43956288Y634460D01*
X43956287Y634461D01*
X43948051Y643966D01*
X43927301Y657301D01*
X43839069Y714004D01*
X43839065Y714006D01*
X43839064Y714006D01*
X43714774Y750500D01*
X43714772Y750500D01*
X43585228Y750500D01*
X43585226Y750500D01*
X43460935Y714006D01*
X43460932Y714005D01*
X43460931Y714004D01*
X43419435Y687337D01*
X43351948Y643966D01*
X43343713Y634461D01*
X43284936Y596686D01*
X43215066Y596686D01*
X43156288Y634460D01*
X43156287Y634461D01*
X43148051Y643966D01*
X43127301Y657301D01*
X43039069Y714004D01*
X43039065Y714006D01*
X43039064Y714006D01*
X42914774Y750500D01*
X42914772Y750500D01*
X42785228Y750500D01*
X42785226Y750500D01*
X42660935Y714006D01*
X42660932Y714005D01*
X42660931Y714004D01*
X42619435Y687337D01*
X42551948Y643966D01*
X42543713Y634461D01*
X42484936Y596686D01*
X42415066Y596686D01*
X42356288Y634460D01*
X42356287Y634461D01*
X42348051Y643966D01*
X42327301Y657301D01*
X42239069Y714004D01*
X42239065Y714006D01*
X42239064Y714006D01*
X42114774Y750500D01*
X42114772Y750500D01*
X41985228Y750500D01*
X41985226Y750500D01*
X41860935Y714006D01*
X41860932Y714005D01*
X41860931Y714004D01*
X41819435Y687337D01*
X41751948Y643966D01*
X41743713Y634461D01*
X41684936Y596686D01*
X41615066Y596686D01*
X41556288Y634460D01*
X41556287Y634461D01*
X41548051Y643966D01*
X41527301Y657301D01*
X41439069Y714004D01*
X41439065Y714006D01*
X41439064Y714006D01*
X41314774Y750500D01*
X41314772Y750500D01*
X41185228Y750500D01*
X41185226Y750500D01*
X41060935Y714006D01*
X41060932Y714005D01*
X41060931Y714004D01*
X41019435Y687337D01*
X40951948Y643966D01*
X40943713Y634461D01*
X40884936Y596686D01*
X40815066Y596686D01*
X40756288Y634460D01*
X40756287Y634461D01*
X40748051Y643966D01*
X40727301Y657301D01*
X40639069Y714004D01*
X40639065Y714006D01*
X40639064Y714006D01*
X40514774Y750500D01*
X40514772Y750500D01*
X40385228Y750500D01*
X40385226Y750500D01*
X40260935Y714006D01*
X40260932Y714005D01*
X40260931Y714004D01*
X40219435Y687337D01*
X40151948Y643966D01*
X40143713Y634461D01*
X40084936Y596686D01*
X40015066Y596686D01*
X39956288Y634460D01*
X39956287Y634461D01*
X39948051Y643966D01*
X39927301Y657301D01*
X39839069Y714004D01*
X39839065Y714006D01*
X39839064Y714006D01*
X39714774Y750500D01*
X39714772Y750500D01*
X39585228Y750500D01*
X39585226Y750500D01*
X39460935Y714006D01*
X39460932Y714005D01*
X39460931Y714004D01*
X39419435Y687337D01*
X39351948Y643966D01*
X39343713Y634461D01*
X39284936Y596686D01*
X39215066Y596686D01*
X39156288Y634460D01*
X39156287Y634461D01*
X39148051Y643966D01*
X39127301Y657301D01*
X39039069Y714004D01*
X39039065Y714006D01*
X39039064Y714006D01*
X38914774Y750500D01*
X38914772Y750500D01*
X38785228Y750500D01*
X38785226Y750500D01*
X38660935Y714006D01*
X38660932Y714005D01*
X38660931Y714004D01*
X38619435Y687337D01*
X38551948Y643966D01*
X38543713Y634461D01*
X38484936Y596686D01*
X38415066Y596686D01*
X38356288Y634460D01*
X38356287Y634461D01*
X38348051Y643966D01*
X38327301Y657301D01*
X38239069Y714004D01*
X38239065Y714006D01*
X38239064Y714006D01*
X38114774Y750500D01*
X38114772Y750500D01*
X37985228Y750500D01*
X37985226Y750500D01*
X37860935Y714006D01*
X37860932Y714005D01*
X37860931Y714004D01*
X37819435Y687337D01*
X37751948Y643966D01*
X37743713Y634461D01*
X37684936Y596686D01*
X37615066Y596686D01*
X37556288Y634460D01*
X37556287Y634461D01*
X37548051Y643966D01*
X37527301Y657301D01*
X37439069Y714004D01*
X37439065Y714006D01*
X37439064Y714006D01*
X37314774Y750500D01*
X37314772Y750500D01*
X37185228Y750500D01*
X37185226Y750500D01*
X37060935Y714006D01*
X37060932Y714005D01*
X37060931Y714004D01*
X37019435Y687337D01*
X36951948Y643966D01*
X36943713Y634461D01*
X36884936Y596686D01*
X36815066Y596686D01*
X36756288Y634460D01*
X36756287Y634461D01*
X36748051Y643966D01*
X36727301Y657301D01*
X36639069Y714004D01*
X36639065Y714006D01*
X36639064Y714006D01*
X36514774Y750500D01*
X36514772Y750500D01*
X36385228Y750500D01*
X36385226Y750500D01*
X36260935Y714006D01*
X36260932Y714005D01*
X36260931Y714004D01*
X36219435Y687337D01*
X36151948Y643966D01*
X36143713Y634461D01*
X36084936Y596686D01*
X36015066Y596686D01*
X35956288Y634460D01*
X35956287Y634461D01*
X35948051Y643966D01*
X35927301Y657301D01*
X35839069Y714004D01*
X35839065Y714006D01*
X35839064Y714006D01*
X35714774Y750500D01*
X35714772Y750500D01*
X35585228Y750500D01*
X35585226Y750500D01*
X35460935Y714006D01*
X35460932Y714005D01*
X35460931Y714004D01*
X35419435Y687337D01*
X35351948Y643966D01*
X35343713Y634461D01*
X35284936Y596686D01*
X35215066Y596686D01*
X35156288Y634460D01*
X35156287Y634461D01*
X35148051Y643966D01*
X35127301Y657301D01*
X35039069Y714004D01*
X35039065Y714006D01*
X35039064Y714006D01*
X34914774Y750500D01*
X34914772Y750500D01*
X34785228Y750500D01*
X34785226Y750500D01*
X34660935Y714006D01*
X34660932Y714005D01*
X34660931Y714004D01*
X34619435Y687337D01*
X34551948Y643966D01*
X34543713Y634461D01*
X34484936Y596686D01*
X34415066Y596686D01*
X34356288Y634460D01*
X34356287Y634461D01*
X34348051Y643966D01*
X34327301Y657301D01*
X34239069Y714004D01*
X34239065Y714006D01*
X34239064Y714006D01*
X34114774Y750500D01*
X34114772Y750500D01*
X33985228Y750500D01*
X33985226Y750500D01*
X33860935Y714006D01*
X33860932Y714005D01*
X33860931Y714004D01*
X33819435Y687337D01*
X33751948Y643966D01*
X33743713Y634461D01*
X33684936Y596686D01*
X33615066Y596686D01*
X33556288Y634460D01*
X33556287Y634461D01*
X33548051Y643966D01*
X33527301Y657301D01*
X33439069Y714004D01*
X33439065Y714006D01*
X33439064Y714006D01*
X33314774Y750500D01*
X33314772Y750500D01*
X33185228Y750500D01*
X33185226Y750500D01*
X33060935Y714006D01*
X33060932Y714005D01*
X33060931Y714004D01*
X33019435Y687337D01*
X32951948Y643966D01*
X32943713Y634461D01*
X32884936Y596686D01*
X32815066Y596686D01*
X32756288Y634460D01*
X32756287Y634461D01*
X32748051Y643966D01*
X32727301Y657301D01*
X32639069Y714004D01*
X32639065Y714006D01*
X32639064Y714006D01*
X32514774Y750500D01*
X32514772Y750500D01*
X32385228Y750500D01*
X32385226Y750500D01*
X32260935Y714006D01*
X32260932Y714005D01*
X32260931Y714004D01*
X32209677Y681066D01*
X32151950Y643967D01*
X32067118Y546063D01*
X32067117Y546062D01*
X32013302Y428226D01*
X31994867Y300000D01*
X32013302Y171774D01*
X32015801Y163267D01*
X32013304Y162534D01*
X32021313Y106862D01*
X31992293Y43304D01*
X31933518Y5526D01*
X31898574Y500D01*
X5351426Y500D01*
X5284387Y20185D01*
X5238632Y72989D01*
X5228688Y142147D01*
X5234835Y163081D01*
X5234199Y163267D01*
X5236697Y171774D01*
X5255133Y300000D01*
X5236697Y428226D01*
X5182882Y546063D01*
X5098049Y643967D01*
X4989069Y714004D01*
X4989065Y714006D01*
X4989064Y714006D01*
X4864774Y750500D01*
X4864772Y750500D01*
X4735228Y750500D01*
X4735226Y750500D01*
X4610935Y714006D01*
X4610932Y714005D01*
X4610931Y714004D01*
X4569435Y687337D01*
X4501948Y643966D01*
X4493713Y634461D01*
X4434936Y596686D01*
X4365066Y596686D01*
X4306288Y634460D01*
X4306287Y634461D01*
X4298051Y643966D01*
X4277301Y657301D01*
X4189069Y714004D01*
X4189065Y714006D01*
X4189064Y714006D01*
X4064774Y750500D01*
X4064772Y750500D01*
X3935228Y750500D01*
X3935226Y750500D01*
X3810935Y714006D01*
X3810932Y714005D01*
X3810931Y714004D01*
X3759677Y681066D01*
X3701950Y643967D01*
X3617118Y546063D01*
X3617117Y546062D01*
X3563302Y428226D01*
X3544867Y300000D01*
X3563302Y171774D01*
X3565801Y163267D01*
X3563304Y162534D01*
X3571313Y106862D01*
X3542293Y43304D01*
X3483518Y5526D01*
X3448574Y500D01*
X124500Y500D01*
X57461Y20185D01*
X11706Y72989D01*
X500Y124500D01*
X500Y1425499D01*
X6594318Y1425499D01*
X6614955Y1268740D01*
X6614956Y1268738D01*
X6675464Y1122659D01*
X6771718Y997218D01*
X6897159Y900964D01*
X7043238Y840456D01*
X7121619Y830137D01*
X7199999Y819818D01*
X7200000Y819818D01*
X7200001Y819818D01*
X7252254Y826698D01*
X7356762Y840456D01*
X7502841Y900964D01*
X7628282Y997218D01*
X7724536Y1122659D01*
X7785044Y1268738D01*
X7805682Y1425499D01*
X14394318Y1425499D01*
X14414955Y1268740D01*
X14414956Y1268738D01*
X14475464Y1122659D01*
X14571718Y997218D01*
X14697159Y900964D01*
X14843238Y840456D01*
X14921619Y830137D01*
X14999999Y819818D01*
X15000000Y819818D01*
X15000001Y819818D01*
X15052254Y826698D01*
X15156762Y840456D01*
X15302841Y900964D01*
X15428282Y997218D01*
X15524536Y1122659D01*
X15585044Y1268738D01*
X15605682Y1425499D01*
X22194318Y1425499D01*
X22214955Y1268740D01*
X22214956Y1268738D01*
X22275464Y1122659D01*
X22371718Y997218D01*
X22497159Y900964D01*
X22643238Y840456D01*
X22721619Y830137D01*
X22799999Y819818D01*
X22800000Y819818D01*
X22800001Y819818D01*
X22852254Y826698D01*
X22956762Y840456D01*
X23102841Y900964D01*
X23228282Y997218D01*
X23324536Y1122659D01*
X23385044Y1268738D01*
X23405682Y1425499D01*
X29994318Y1425499D01*
X30014955Y1268740D01*
X30014956Y1268738D01*
X30075464Y1122659D01*
X30171718Y997218D01*
X30297159Y900964D01*
X30443238Y840456D01*
X30521619Y830137D01*
X30599999Y819818D01*
X30600000Y819818D01*
X30600001Y819818D01*
X30652254Y826698D01*
X30756762Y840456D01*
X30902841Y900964D01*
X31028282Y997218D01*
X31124536Y1122659D01*
X31185044Y1268738D01*
X31205682Y1425500D01*
X31185044Y1582262D01*
X31124536Y1728341D01*
X31028282Y1853782D01*
X30902841Y1950036D01*
X30756762Y2010544D01*
X30756760Y2010545D01*
X30600001Y2031182D01*
X30599999Y2031182D01*
X30443239Y2010545D01*
X30443237Y2010544D01*
X30297160Y1950037D01*
X30171718Y1853782D01*
X30075463Y1728340D01*
X30014956Y1582263D01*
X30014955Y1582261D01*
X29994318Y1425502D01*
X29994318Y1425499D01*
X23405682Y1425499D01*
X23405682Y1425500D01*
X23385044Y1582262D01*
X23324536Y1728341D01*
X23228282Y1853782D01*
X23102841Y1950036D01*
X22956762Y2010544D01*
X22956760Y2010545D01*
X22800001Y2031182D01*
X22799999Y2031182D01*
X22643239Y2010545D01*
X22643237Y2010544D01*
X22497160Y1950037D01*
X22371718Y1853782D01*
X22275463Y1728340D01*
X22214956Y1582263D01*
X22214955Y1582261D01*
X22194318Y1425502D01*
X22194318Y1425499D01*
X15605682Y1425499D01*
X15605682Y1425500D01*
X15585044Y1582262D01*
X15524536Y1728341D01*
X15428282Y1853782D01*
X15302841Y1950036D01*
X15156762Y2010544D01*
X15156760Y2010545D01*
X15000001Y2031182D01*
X14999999Y2031182D01*
X14843239Y2010545D01*
X14843237Y2010544D01*
X14697160Y1950037D01*
X14571718Y1853782D01*
X14475463Y1728340D01*
X14414956Y1582263D01*
X14414955Y1582261D01*
X14394318Y1425502D01*
X14394318Y1425499D01*
X7805682Y1425499D01*
X7805682Y1425500D01*
X7785044Y1582262D01*
X7724536Y1728341D01*
X7628282Y1853782D01*
X7502841Y1950036D01*
X7356762Y2010544D01*
X7356760Y2010545D01*
X7200001Y2031182D01*
X7199999Y2031182D01*
X7043239Y2010545D01*
X7043237Y2010544D01*
X6897160Y1950037D01*
X6771718Y1853782D01*
X6675463Y1728340D01*
X6614956Y1582263D01*
X6614955Y1582261D01*
X6594318Y1425502D01*
X6594318Y1425499D01*
X500Y1425499D01*
X500Y2900000D01*
X10734868Y2900000D01*
X10753303Y2771775D01*
X10802651Y2663721D01*
X10807119Y2653937D01*
X10891952Y2556033D01*
X11000932Y2485996D01*
X11125226Y2449501D01*
X11125228Y2449500D01*
X11125229Y2449500D01*
X11254774Y2449500D01*
X11254774Y2449501D01*
X11379070Y2485996D01*
X11488050Y2556033D01*
X11572883Y2653937D01*
X11626698Y2771774D01*
X11630702Y2799620D01*
X36906916Y2799620D01*
X36925351Y2671395D01*
X36961826Y2591527D01*
X36979167Y2553557D01*
X37064000Y2455653D01*
X37172980Y2385616D01*
X37297274Y2349121D01*
X37297276Y2349120D01*
X37297277Y2349120D01*
X37426822Y2349120D01*
X37426822Y2349121D01*
X37551118Y2385616D01*
X37660098Y2455653D01*
X37744931Y2553557D01*
X37744931Y2553558D01*
X37749882Y2559271D01*
X37808660Y2597047D01*
X37878529Y2597048D01*
X37893330Y2591527D01*
X37997970Y2560804D01*
X38014216Y2556033D01*
X38018532Y2554766D01*
X38018534Y2554765D01*
X38018535Y2554765D01*
X38148080Y2554765D01*
X38148080Y2554766D01*
X38272376Y2591261D01*
X38381356Y2661298D01*
X38382578Y2662709D01*
X38384152Y2663721D01*
X38388061Y2667107D01*
X38388547Y2666546D01*
X38441352Y2700486D01*
X38511221Y2700492D01*
X38543304Y2682984D01*
X38544490Y2684828D01*
X38551950Y2680034D01*
X38551951Y2680033D01*
X38660931Y2609996D01*
X38742673Y2585995D01*
X38785225Y2573501D01*
X38785227Y2573500D01*
X38785228Y2573500D01*
X38914773Y2573500D01*
X38914773Y2573501D01*
X39039069Y2609996D01*
X39148049Y2680033D01*
X39232882Y2777937D01*
X39286697Y2895774D01*
X39301682Y3000000D01*
X42094867Y3000000D01*
X42113302Y2871775D01*
X42167117Y2753939D01*
X42167118Y2753937D01*
X42251951Y2656033D01*
X42360931Y2585996D01*
X42471411Y2553557D01*
X42485225Y2549501D01*
X42485227Y2549500D01*
X42485228Y2549500D01*
X42614773Y2549500D01*
X42614773Y2549501D01*
X42739069Y2585996D01*
X42848049Y2656033D01*
X42932882Y2753937D01*
X42986697Y2871774D01*
X43005133Y3000000D01*
X42986697Y3128226D01*
X42932882Y3246063D01*
X42848049Y3343967D01*
X42739069Y3414004D01*
X42739065Y3414006D01*
X42739064Y3414006D01*
X42614774Y3450500D01*
X42614772Y3450500D01*
X42485228Y3450500D01*
X42485226Y3450500D01*
X42360935Y3414006D01*
X42360932Y3414005D01*
X42360931Y3414004D01*
X42318338Y3386631D01*
X42251950Y3343967D01*
X42167118Y3246063D01*
X42167117Y3246062D01*
X42113302Y3128226D01*
X42094867Y3000000D01*
X39301682Y3000000D01*
X39305133Y3024000D01*
X39286697Y3152226D01*
X39232882Y3270063D01*
X39148049Y3367967D01*
X39039069Y3438004D01*
X39039065Y3438006D01*
X39039064Y3438006D01*
X38914774Y3474500D01*
X38914772Y3474500D01*
X38785228Y3474500D01*
X38785226Y3474500D01*
X38660935Y3438006D01*
X38660932Y3438005D01*
X38660931Y3438004D01*
X38623586Y3414004D01*
X38551947Y3367965D01*
X38550719Y3366547D01*
X38549141Y3365534D01*
X38545246Y3362158D01*
X38544760Y3362719D01*
X38491939Y3328775D01*
X38422069Y3328779D01*
X38390001Y3346281D01*
X38388817Y3344437D01*
X38379383Y3350500D01*
X38272376Y3419269D01*
X38272372Y3419271D01*
X38272371Y3419271D01*
X38148081Y3455765D01*
X38148079Y3455765D01*
X38018535Y3455765D01*
X38018533Y3455765D01*
X37894242Y3419271D01*
X37894239Y3419270D01*
X37894238Y3419269D01*
X37787231Y3350500D01*
X37785255Y3349230D01*
X37695472Y3245614D01*
X37636694Y3207839D01*
X37566825Y3207839D01*
X37552029Y3213357D01*
X37426823Y3250120D01*
X37426821Y3250120D01*
X37297277Y3250120D01*
X37297275Y3250120D01*
X37172984Y3213626D01*
X37172981Y3213625D01*
X37172980Y3213624D01*
X37121726Y3180686D01*
X37063999Y3143587D01*
X36979167Y3045683D01*
X36979166Y3045682D01*
X36925351Y2927846D01*
X36906916Y2799620D01*
X11630702Y2799620D01*
X11645134Y2900000D01*
X11626698Y3028226D01*
X11572883Y3146063D01*
X11488050Y3243967D01*
X11379070Y3314004D01*
X11379066Y3314006D01*
X11379065Y3314006D01*
X11254775Y3350500D01*
X11254773Y3350500D01*
X11125229Y3350500D01*
X11125227Y3350500D01*
X11000936Y3314006D01*
X11000933Y3314005D01*
X11000932Y3314004D01*
X10949678Y3281066D01*
X10891951Y3243967D01*
X10807119Y3146063D01*
X10807118Y3146062D01*
X10753303Y3028226D01*
X10734868Y2900000D01*
X500Y2900000D01*
X500Y3800000D01*
X944867Y3800000D01*
X963302Y3671775D01*
X1010500Y3568428D01*
X1017118Y3553937D01*
X1101951Y3456033D01*
X1210931Y3385996D01*
X1335225Y3349501D01*
X1335227Y3349500D01*
X1335228Y3349500D01*
X1464773Y3349500D01*
X1464773Y3349501D01*
X1589069Y3385996D01*
X1698049Y3456033D01*
X1762707Y3530654D01*
X1821481Y3568426D01*
X1891350Y3568428D01*
X1950129Y3530655D01*
X1969212Y3500962D01*
X2006520Y3419271D01*
X2021427Y3386629D01*
X2115676Y3277859D01*
X2236751Y3200049D01*
X2236754Y3200048D01*
X2236753Y3200048D01*
X2374840Y3159503D01*
X2374842Y3159502D01*
X2374843Y3159502D01*
X2518766Y3159502D01*
X2518766Y3159503D01*
X2656857Y3200049D01*
X2777932Y3277859D01*
X2872181Y3386629D01*
X2931969Y3517545D01*
X2952451Y3660002D01*
X2932323Y3800000D01*
X8744867Y3800000D01*
X8763302Y3671775D01*
X8810500Y3568428D01*
X8817118Y3553937D01*
X8901951Y3456033D01*
X9010931Y3385996D01*
X9135225Y3349501D01*
X9135227Y3349500D01*
X9135228Y3349500D01*
X9264773Y3349500D01*
X9264773Y3349501D01*
X9389069Y3385996D01*
X9498049Y3456033D01*
X9562707Y3530654D01*
X9621481Y3568426D01*
X9691350Y3568428D01*
X9750129Y3530655D01*
X9769212Y3500962D01*
X9806520Y3419271D01*
X9821427Y3386629D01*
X9915676Y3277859D01*
X10036751Y3200049D01*
X10036754Y3200048D01*
X10036753Y3200048D01*
X10174840Y3159503D01*
X10174842Y3159502D01*
X10174843Y3159502D01*
X10318766Y3159502D01*
X10318766Y3159503D01*
X10456857Y3200049D01*
X10577932Y3277859D01*
X10672181Y3386629D01*
X10731969Y3517545D01*
X10752451Y3660002D01*
X10732323Y3800000D01*
X16544867Y3800000D01*
X16563302Y3671775D01*
X16610500Y3568428D01*
X16617118Y3553937D01*
X16701951Y3456033D01*
X16810931Y3385996D01*
X16935225Y3349501D01*
X16935227Y3349500D01*
X16935228Y3349500D01*
X17064773Y3349500D01*
X17064773Y3349501D01*
X17189069Y3385996D01*
X17298049Y3456033D01*
X17362707Y3530654D01*
X17421481Y3568426D01*
X17491350Y3568428D01*
X17550129Y3530655D01*
X17569212Y3500962D01*
X17606520Y3419271D01*
X17621427Y3386629D01*
X17715676Y3277859D01*
X17836751Y3200049D01*
X17836754Y3200048D01*
X17836753Y3200048D01*
X17974840Y3159503D01*
X17974842Y3159502D01*
X17974843Y3159502D01*
X18118766Y3159502D01*
X18118766Y3159503D01*
X18256857Y3200049D01*
X18377932Y3277859D01*
X18472181Y3386629D01*
X18531969Y3517545D01*
X18552451Y3660002D01*
X18532323Y3800000D01*
X24344867Y3800000D01*
X24363302Y3671775D01*
X24410500Y3568428D01*
X24417118Y3553937D01*
X24501951Y3456033D01*
X24610931Y3385996D01*
X24735225Y3349501D01*
X24735227Y3349500D01*
X24735228Y3349500D01*
X24864773Y3349500D01*
X24864773Y3349501D01*
X24989069Y3385996D01*
X25098049Y3456033D01*
X25162707Y3530654D01*
X25221481Y3568426D01*
X25291350Y3568428D01*
X25350129Y3530655D01*
X25369212Y3500962D01*
X25406520Y3419271D01*
X25421427Y3386629D01*
X25515676Y3277859D01*
X25636751Y3200049D01*
X25636754Y3200048D01*
X25636753Y3200048D01*
X25774840Y3159503D01*
X25774842Y3159502D01*
X25774843Y3159502D01*
X25918766Y3159502D01*
X25918766Y3159503D01*
X26056857Y3200049D01*
X26177932Y3277859D01*
X26272181Y3386629D01*
X26331969Y3517545D01*
X26352451Y3660002D01*
X26331969Y3802459D01*
X26272181Y3933375D01*
X26177932Y4042145D01*
X26056857Y4119955D01*
X26056855Y4119956D01*
X26056853Y4119957D01*
X26056854Y4119957D01*
X25918767Y4160502D01*
X25918765Y4160502D01*
X25774843Y4160502D01*
X25774840Y4160502D01*
X25636753Y4119957D01*
X25515677Y4042146D01*
X25515676Y4042146D01*
X25515676Y4042145D01*
X25486505Y4008480D01*
X25425268Y3937808D01*
X25366490Y3900034D01*
X25296620Y3900034D01*
X25237842Y3937808D01*
X25218761Y3967500D01*
X25182884Y4046060D01*
X25182882Y4046062D01*
X25182882Y4046063D01*
X25098049Y4143967D01*
X24989069Y4214004D01*
X24989065Y4214006D01*
X24989064Y4214006D01*
X24864774Y4250500D01*
X24864772Y4250500D01*
X24735228Y4250500D01*
X24735226Y4250500D01*
X24610935Y4214006D01*
X24610932Y4214005D01*
X24610931Y4214004D01*
X24598080Y4205745D01*
X24501950Y4143967D01*
X24417118Y4046063D01*
X24417117Y4046062D01*
X24363302Y3928226D01*
X24344867Y3800000D01*
X18532323Y3800000D01*
X18531969Y3802459D01*
X18472181Y3933375D01*
X18377932Y4042145D01*
X18256857Y4119955D01*
X18256855Y4119956D01*
X18256853Y4119957D01*
X18256854Y4119957D01*
X18118767Y4160502D01*
X18118765Y4160502D01*
X17974843Y4160502D01*
X17974840Y4160502D01*
X17836753Y4119957D01*
X17715677Y4042146D01*
X17715676Y4042146D01*
X17715676Y4042145D01*
X17686505Y4008480D01*
X17625268Y3937808D01*
X17566490Y3900034D01*
X17496620Y3900034D01*
X17437842Y3937808D01*
X17418761Y3967500D01*
X17382884Y4046060D01*
X17382882Y4046062D01*
X17382882Y4046063D01*
X17298049Y4143967D01*
X17189069Y4214004D01*
X17189065Y4214006D01*
X17189064Y4214006D01*
X17064774Y4250500D01*
X17064772Y4250500D01*
X16935228Y4250500D01*
X16935226Y4250500D01*
X16810935Y4214006D01*
X16810932Y4214005D01*
X16810931Y4214004D01*
X16798080Y4205745D01*
X16701950Y4143967D01*
X16617118Y4046063D01*
X16617117Y4046062D01*
X16563302Y3928226D01*
X16544867Y3800000D01*
X10732323Y3800000D01*
X10731969Y3802459D01*
X10672181Y3933375D01*
X10577932Y4042145D01*
X10456857Y4119955D01*
X10456855Y4119956D01*
X10456853Y4119957D01*
X10456854Y4119957D01*
X10318767Y4160502D01*
X10318765Y4160502D01*
X10174843Y4160502D01*
X10174840Y4160502D01*
X10036753Y4119957D01*
X9915677Y4042146D01*
X9915676Y4042146D01*
X9915676Y4042145D01*
X9886505Y4008480D01*
X9825268Y3937808D01*
X9766490Y3900034D01*
X9696620Y3900034D01*
X9637842Y3937808D01*
X9618761Y3967500D01*
X9582884Y4046060D01*
X9582882Y4046062D01*
X9582882Y4046063D01*
X9498049Y4143967D01*
X9389069Y4214004D01*
X9389065Y4214006D01*
X9389064Y4214006D01*
X9264774Y4250500D01*
X9264772Y4250500D01*
X9135228Y4250500D01*
X9135226Y4250500D01*
X9010935Y4214006D01*
X9010932Y4214005D01*
X9010931Y4214004D01*
X8998080Y4205745D01*
X8901950Y4143967D01*
X8817118Y4046063D01*
X8817117Y4046062D01*
X8763302Y3928226D01*
X8744867Y3800000D01*
X2932323Y3800000D01*
X2931969Y3802459D01*
X2872181Y3933375D01*
X2777932Y4042145D01*
X2656857Y4119955D01*
X2656855Y4119956D01*
X2656853Y4119957D01*
X2656854Y4119957D01*
X2518767Y4160502D01*
X2518765Y4160502D01*
X2374843Y4160502D01*
X2374840Y4160502D01*
X2236753Y4119957D01*
X2115677Y4042146D01*
X2115676Y4042146D01*
X2115676Y4042145D01*
X2086505Y4008480D01*
X2025268Y3937808D01*
X1966490Y3900034D01*
X1896620Y3900034D01*
X1837842Y3937808D01*
X1818761Y3967500D01*
X1782884Y4046060D01*
X1782882Y4046062D01*
X1782882Y4046063D01*
X1698049Y4143967D01*
X1589069Y4214004D01*
X1589065Y4214006D01*
X1589064Y4214006D01*
X1464774Y4250500D01*
X1464772Y4250500D01*
X1335228Y4250500D01*
X1335226Y4250500D01*
X1210935Y4214006D01*
X1210932Y4214005D01*
X1210931Y4214004D01*
X1198080Y4205745D01*
X1101950Y4143967D01*
X1017118Y4046063D01*
X1017117Y4046062D01*
X963302Y3928226D01*
X944867Y3800000D01*
X500Y3800000D01*
X500Y4451808D01*
X32800908Y4451808D01*
X32819343Y4323583D01*
X32852720Y4250500D01*
X32873159Y4205745D01*
X32957992Y4107841D01*
X33066972Y4037804D01*
X33129553Y4019429D01*
X33188331Y3981656D01*
X33217357Y3918101D01*
X33207414Y3848942D01*
X33161660Y3796138D01*
X33129554Y3781475D01*
X33079622Y3766814D01*
X32970638Y3696775D01*
X32885806Y3598871D01*
X32885805Y3598870D01*
X32831990Y3481034D01*
X32813555Y3352808D01*
X32831990Y3224583D01*
X32875996Y3128226D01*
X32885806Y3106745D01*
X32970639Y3008841D01*
X33079619Y2938804D01*
X33203913Y2902309D01*
X33203915Y2902308D01*
X33203916Y2902308D01*
X33333461Y2902308D01*
X33333461Y2902309D01*
X33457757Y2938804D01*
X33566737Y3008841D01*
X33651570Y3106745D01*
X33705385Y3224582D01*
X33723821Y3352808D01*
X33705385Y3481034D01*
X33651570Y3598871D01*
X33566737Y3696775D01*
X33457757Y3766812D01*
X33457753Y3766814D01*
X33457752Y3766814D01*
X33395175Y3785188D01*
X33336397Y3822962D01*
X33307371Y3886517D01*
X33317314Y3955676D01*
X33363069Y4008480D01*
X33395172Y4023142D01*
X33445110Y4037804D01*
X33554090Y4107841D01*
X33638923Y4205745D01*
X33692738Y4323582D01*
X33711174Y4451808D01*
X33692738Y4580034D01*
X33638923Y4697871D01*
X33554090Y4795775D01*
X33445110Y4865812D01*
X33445106Y4865814D01*
X33445105Y4865814D01*
X33320815Y4902308D01*
X33320813Y4902308D01*
X33191269Y4902308D01*
X33191267Y4902308D01*
X33066976Y4865814D01*
X33066973Y4865813D01*
X33066972Y4865812D01*
X33015718Y4832874D01*
X32957991Y4795775D01*
X32873159Y4697871D01*
X32873158Y4697870D01*
X32819343Y4580034D01*
X32800908Y4451808D01*
X500Y4451808D01*
X500Y6800000D01*
X33494867Y6800000D01*
X33513302Y6671775D01*
X33566375Y6555563D01*
X33567118Y6553937D01*
X33651951Y6456033D01*
X33760931Y6385996D01*
X33840909Y6362513D01*
X33885225Y6349501D01*
X33885227Y6349500D01*
X33980303Y6349500D01*
X34047342Y6329815D01*
X34093097Y6277011D01*
X34103041Y6243147D01*
X34113302Y6171775D01*
X34162779Y6063438D01*
X34167118Y6053937D01*
X34251951Y5956033D01*
X34360931Y5885996D01*
X34485225Y5849501D01*
X34485227Y5849500D01*
X34485228Y5849500D01*
X34614773Y5849500D01*
X34614773Y5849501D01*
X34739069Y5885996D01*
X34848049Y5956033D01*
X34932882Y6053937D01*
X34986697Y6171774D01*
X34995593Y6233647D01*
X35024618Y6297203D01*
X35083396Y6334977D01*
X35118331Y6340000D01*
X35183035Y6340000D01*
X35250074Y6320315D01*
X35295829Y6267511D01*
X35305773Y6233647D01*
X35313302Y6181275D01*
X35367117Y6063439D01*
X35367118Y6063437D01*
X35451951Y5965533D01*
X35560931Y5895496D01*
X35685225Y5859001D01*
X35685227Y5859000D01*
X35685228Y5859000D01*
X35814773Y5859000D01*
X35814773Y5859001D01*
X35939069Y5895496D01*
X36048049Y5965533D01*
X36132882Y6063437D01*
X36186697Y6181274D01*
X36205133Y6309500D01*
X36186697Y6437726D01*
X36132882Y6555563D01*
X36048049Y6653467D01*
X35939069Y6723504D01*
X35939065Y6723506D01*
X35939064Y6723506D01*
X35814774Y6760000D01*
X35814772Y6760000D01*
X35728008Y6760000D01*
X35660969Y6779685D01*
X35615214Y6832489D01*
X35605270Y6866353D01*
X35597740Y6918726D01*
X35543925Y7036562D01*
X35543925Y7036563D01*
X35459092Y7134467D01*
X35350112Y7204504D01*
X35350108Y7204506D01*
X35350107Y7204506D01*
X35225817Y7241000D01*
X35225815Y7241000D01*
X35096271Y7241000D01*
X35096269Y7241000D01*
X34971978Y7204506D01*
X34971975Y7204505D01*
X34971974Y7204504D01*
X34964188Y7199500D01*
X34862993Y7134467D01*
X34778161Y7036563D01*
X34778160Y7036562D01*
X34724345Y6918726D01*
X34715450Y6856853D01*
X34686425Y6793297D01*
X34627647Y6755523D01*
X34592712Y6750500D01*
X34519697Y6750500D01*
X34452658Y6770185D01*
X34406903Y6822989D01*
X34396959Y6856853D01*
X34386697Y6928226D01*
X34337221Y7036562D01*
X34332882Y7046063D01*
X34248049Y7143967D01*
X34139069Y7214004D01*
X34139065Y7214006D01*
X34139064Y7214006D01*
X34014774Y7250500D01*
X34014772Y7250500D01*
X33885228Y7250500D01*
X33885226Y7250500D01*
X33760935Y7214006D01*
X33760932Y7214005D01*
X33760931Y7214004D01*
X33709677Y7181066D01*
X33651950Y7143967D01*
X33567118Y7046063D01*
X33567117Y7046062D01*
X33513302Y6928226D01*
X33494867Y6800000D01*
X500Y6800000D01*
X500Y7650000D01*
X42644867Y7650000D01*
X42663302Y7521775D01*
X42717117Y7403939D01*
X42717118Y7403937D01*
X42801951Y7306033D01*
X42910931Y7235996D01*
X42985824Y7214006D01*
X43035225Y7199501D01*
X43035227Y7199500D01*
X43035228Y7199500D01*
X43164773Y7199500D01*
X43164773Y7199501D01*
X43289069Y7235996D01*
X43398049Y7306033D01*
X43482882Y7403937D01*
X43536697Y7521774D01*
X43555133Y7650000D01*
X43536697Y7778226D01*
X43482882Y7896063D01*
X43398049Y7993967D01*
X43289069Y8064004D01*
X43289065Y8064006D01*
X43289064Y8064006D01*
X43164774Y8100500D01*
X43164772Y8100500D01*
X43035228Y8100500D01*
X43035226Y8100500D01*
X42910935Y8064006D01*
X42910932Y8064005D01*
X42910931Y8064004D01*
X42859677Y8031066D01*
X42801950Y7993967D01*
X42717118Y7896063D01*
X42717117Y7896062D01*
X42663302Y7778226D01*
X42644867Y7650000D01*
X500Y7650000D01*
X500Y8550000D01*
X32745367Y8550000D01*
X32763802Y8421775D01*
X32817617Y8303939D01*
X32817618Y8303937D01*
X32902451Y8206033D01*
X33011431Y8135996D01*
X33135725Y8099501D01*
X33135727Y8099500D01*
X33135728Y8099500D01*
X33265273Y8099500D01*
X33265273Y8099501D01*
X33389569Y8135996D01*
X33498549Y8206033D01*
X33583382Y8303937D01*
X33637197Y8421774D01*
X33655633Y8550000D01*
X33994867Y8550000D01*
X34013302Y8421775D01*
X34067117Y8303939D01*
X34067118Y8303937D01*
X34151951Y8206033D01*
X34260931Y8135996D01*
X34385225Y8099501D01*
X34385227Y8099500D01*
X34385228Y8099500D01*
X34514773Y8099500D01*
X34514773Y8099501D01*
X34639069Y8135996D01*
X34748049Y8206033D01*
X34832882Y8303937D01*
X34886697Y8421774D01*
X34905133Y8550000D01*
X34886697Y8678226D01*
X34832882Y8796063D01*
X34748049Y8893967D01*
X34639069Y8964004D01*
X34639065Y8964006D01*
X34639064Y8964006D01*
X34514774Y9000500D01*
X34514772Y9000500D01*
X34385228Y9000500D01*
X34385226Y9000500D01*
X34260935Y8964006D01*
X34260932Y8964005D01*
X34260931Y8964004D01*
X34220563Y8938061D01*
X34151950Y8893967D01*
X34067118Y8796063D01*
X34067117Y8796062D01*
X34013302Y8678226D01*
X33994867Y8550000D01*
X33655633Y8550000D01*
X33637197Y8678226D01*
X33583382Y8796063D01*
X33498549Y8893967D01*
X33389569Y8964004D01*
X33389565Y8964006D01*
X33389564Y8964006D01*
X33265274Y9000500D01*
X33265272Y9000500D01*
X33135728Y9000500D01*
X33135726Y9000500D01*
X33011435Y8964006D01*
X33011432Y8964005D01*
X33011431Y8964004D01*
X32971063Y8938061D01*
X32902450Y8893967D01*
X32817618Y8796063D01*
X32817617Y8796062D01*
X32763802Y8678226D01*
X32745367Y8550000D01*
X500Y8550000D01*
X500Y9800000D01*
X37894867Y9800000D01*
X37913302Y9671775D01*
X37927810Y9640008D01*
X37967118Y9553937D01*
X38051951Y9456033D01*
X38160931Y9385996D01*
X38242847Y9361944D01*
X38285225Y9349501D01*
X38285227Y9349500D01*
X38285228Y9349500D01*
X38414773Y9349500D01*
X38414773Y9349501D01*
X38539069Y9385996D01*
X38648049Y9456033D01*
X38656284Y9465538D01*
X38715061Y9503314D01*
X38784930Y9503316D01*
X38843710Y9465544D01*
X38843716Y9465537D01*
X38851949Y9456034D01*
X38861482Y9449908D01*
X38960931Y9385996D01*
X39042847Y9361944D01*
X39085225Y9349501D01*
X39085227Y9349500D01*
X39085228Y9349500D01*
X39214773Y9349500D01*
X39214773Y9349501D01*
X39269081Y9365447D01*
X39339064Y9385994D01*
X39339065Y9385995D01*
X39339069Y9385996D01*
X39448049Y9456033D01*
X39448050Y9456035D01*
X39454252Y9460020D01*
X39521291Y9479704D01*
X39588331Y9460019D01*
X39601297Y9450313D01*
X39601927Y9449908D01*
X39601929Y9449906D01*
X39710909Y9379869D01*
X39814339Y9349500D01*
X39835203Y9343374D01*
X39835205Y9343373D01*
X39835206Y9343373D01*
X39964751Y9343373D01*
X39964751Y9343374D01*
X40089047Y9379869D01*
X40198027Y9449906D01*
X40207459Y9460791D01*
X40266236Y9498567D01*
X40336106Y9498569D01*
X40394885Y9460796D01*
X40423911Y9397241D01*
X40423912Y9361944D01*
X40404367Y9226003D01*
X40422802Y9097777D01*
X40467228Y9000500D01*
X40476618Y8979939D01*
X40561451Y8882035D01*
X40670431Y8811998D01*
X40794725Y8775503D01*
X40794727Y8775502D01*
X40794728Y8775502D01*
X40924273Y8775502D01*
X40924273Y8775503D01*
X41048569Y8811998D01*
X41157549Y8882035D01*
X41242382Y8979939D01*
X41281816Y9066287D01*
X41938190Y9066287D01*
X41956625Y8938062D01*
X42010440Y8820226D01*
X42010441Y8820224D01*
X42095274Y8722320D01*
X42204254Y8652283D01*
X42328548Y8615788D01*
X42328550Y8615787D01*
X42328551Y8615787D01*
X42458096Y8615787D01*
X42458096Y8615788D01*
X42582392Y8652283D01*
X42691372Y8722320D01*
X42776205Y8820224D01*
X42830020Y8938061D01*
X42848456Y9066287D01*
X42830020Y9194513D01*
X42776205Y9312350D01*
X42721095Y9375951D01*
X42692072Y9439506D01*
X42702016Y9508664D01*
X42747768Y9561466D01*
X42761567Y9570333D01*
X42846400Y9668237D01*
X42900215Y9786074D01*
X42918651Y9914300D01*
X42900215Y10042526D01*
X42846400Y10160363D01*
X42761567Y10258267D01*
X42652587Y10328304D01*
X42652583Y10328306D01*
X42652582Y10328306D01*
X42528292Y10364800D01*
X42528290Y10364800D01*
X42398746Y10364800D01*
X42398744Y10364800D01*
X42274453Y10328306D01*
X42274450Y10328305D01*
X42274449Y10328304D01*
X42223195Y10295366D01*
X42165468Y10258267D01*
X42080636Y10160363D01*
X42080635Y10160362D01*
X42026820Y10042526D01*
X42008385Y9914300D01*
X42026820Y9786075D01*
X42057502Y9718892D01*
X42080636Y9668237D01*
X42120144Y9622642D01*
X42135744Y9604638D01*
X42164768Y9541082D01*
X42154824Y9471923D01*
X42109072Y9419122D01*
X42095274Y9410255D01*
X42010441Y9312350D01*
X42010440Y9312349D01*
X41956625Y9194513D01*
X41938190Y9066287D01*
X41281816Y9066287D01*
X41296197Y9097776D01*
X41314633Y9226002D01*
X41302531Y9310174D01*
X41312475Y9379332D01*
X41358230Y9432135D01*
X41390334Y9446798D01*
X41429231Y9458218D01*
X41538211Y9528255D01*
X41623044Y9626159D01*
X41676859Y9743996D01*
X41695295Y9872222D01*
X41676859Y10000448D01*
X41623044Y10118285D01*
X41538211Y10216189D01*
X41429231Y10286226D01*
X41429227Y10286228D01*
X41429226Y10286228D01*
X41304936Y10322722D01*
X41304934Y10322722D01*
X41175390Y10322722D01*
X41175388Y10322722D01*
X41051097Y10286228D01*
X41051094Y10286227D01*
X41051093Y10286226D01*
X41008514Y10258862D01*
X40942112Y10216189D01*
X40857280Y10118285D01*
X40857279Y10118284D01*
X40803464Y10000448D01*
X40785029Y9872222D01*
X40797130Y9788051D01*
X40787186Y9718892D01*
X40741430Y9666089D01*
X40709328Y9651428D01*
X40670434Y9640008D01*
X40561448Y9569968D01*
X40552013Y9559079D01*
X40493234Y9521307D01*
X40423364Y9521309D01*
X40364587Y9559085D01*
X40335565Y9622642D01*
X40335565Y9657932D01*
X40336673Y9665645D01*
X40336675Y9665647D01*
X40355111Y9793873D01*
X40336675Y9922099D01*
X40282860Y10039936D01*
X40198027Y10137840D01*
X40089047Y10207877D01*
X40089043Y10207879D01*
X40089042Y10207879D01*
X39964752Y10244373D01*
X39964750Y10244373D01*
X39835206Y10244373D01*
X39835204Y10244373D01*
X39710913Y10207879D01*
X39710910Y10207878D01*
X39710909Y10207877D01*
X39644227Y10165024D01*
X39595726Y10133854D01*
X39528686Y10114170D01*
X39461647Y10133855D01*
X39448679Y10143562D01*
X39448049Y10143967D01*
X39339069Y10214004D01*
X39339065Y10214006D01*
X39339064Y10214006D01*
X39214774Y10250500D01*
X39214772Y10250500D01*
X39085228Y10250500D01*
X39085226Y10250500D01*
X38960935Y10214006D01*
X38960932Y10214005D01*
X38960931Y10214004D01*
X38919435Y10187337D01*
X38851948Y10143966D01*
X38843713Y10134461D01*
X38784936Y10096686D01*
X38715066Y10096686D01*
X38656288Y10134460D01*
X38656287Y10134461D01*
X38648051Y10143966D01*
X38622536Y10160363D01*
X38539069Y10214004D01*
X38539065Y10214006D01*
X38539064Y10214006D01*
X38414774Y10250500D01*
X38414772Y10250500D01*
X38285228Y10250500D01*
X38285226Y10250500D01*
X38160935Y10214006D01*
X38160932Y10214005D01*
X38160931Y10214004D01*
X38109677Y10181066D01*
X38051950Y10143967D01*
X37967118Y10046063D01*
X37967117Y10046062D01*
X37913302Y9928226D01*
X37894867Y9800000D01*
X500Y9800000D01*
X500Y10350000D01*
X33058517Y10350000D01*
X33076952Y10221775D01*
X33113251Y10142293D01*
X33130768Y10103937D01*
X33215601Y10006033D01*
X33324581Y9935996D01*
X33398473Y9914300D01*
X33448875Y9899501D01*
X33448877Y9899500D01*
X33448878Y9899500D01*
X33578423Y9899500D01*
X33578423Y9899501D01*
X33702719Y9935996D01*
X33811699Y10006033D01*
X33896532Y10103937D01*
X33950347Y10221774D01*
X33968783Y10350000D01*
X33950347Y10478226D01*
X33896532Y10596063D01*
X33811699Y10693967D01*
X33702719Y10764004D01*
X33702715Y10764006D01*
X33702714Y10764006D01*
X33578424Y10800500D01*
X33578422Y10800500D01*
X33448878Y10800500D01*
X33448876Y10800500D01*
X33324585Y10764006D01*
X33324582Y10764005D01*
X33324581Y10764004D01*
X33273327Y10731066D01*
X33215600Y10693967D01*
X33130768Y10596063D01*
X33130767Y10596062D01*
X33076952Y10478226D01*
X33058517Y10350000D01*
X500Y10350000D01*
X500Y12375500D01*
X20185Y12442539D01*
X72989Y12488294D01*
X124500Y12499500D01*
X3176000Y12499500D01*
X3243039Y12479815D01*
G37*
G04 #@! TD.AperFunction*
G04 #@! TD*
M02*
