G04 #@! TF.GenerationSoftware,KiCad,Pcbnew,7.0.9*
G04 #@! TF.CreationDate,2024-03-10T08:24:15+03:00*
G04 #@! TF.ProjectId,hellen1-mcz33810,68656c6c-656e-4312-9d6d-637a33333831,rev?*
G04 #@! TF.SameCoordinates,PX507d780PY4a62f80*
G04 #@! TF.FileFunction,Legend,Bot*
G04 #@! TF.FilePolarity,Positive*
%FSLAX46Y46*%
G04 Gerber Fmt 4.6, Leading zero omitted, Abs format (unit mm)*
G04 Created by KiCad (PCBNEW 7.0.9) date 2024-03-10 08:24:15*
%MOMM*%
%LPD*%
G01*
G04 APERTURE LIST*
%ADD10C,0.170000*%
%ADD11C,0.150000*%
%ADD12C,0.100000*%
%ADD13C,0.200000*%
%ADD14C,0.120000*%
%ADD15C,0.152400*%
G04 APERTURE END LIST*
D10*
X26424347Y387287D02*
X26463395Y348239D01*
X26463395Y348239D02*
X26580538Y309192D01*
X26580538Y309192D02*
X26658633Y309192D01*
X26658633Y309192D02*
X26775776Y348239D01*
X26775776Y348239D02*
X26853872Y426335D01*
X26853872Y426335D02*
X26892919Y504430D01*
X26892919Y504430D02*
X26931967Y660620D01*
X26931967Y660620D02*
X26931967Y777763D01*
X26931967Y777763D02*
X26892919Y933954D01*
X26892919Y933954D02*
X26853872Y1012049D01*
X26853872Y1012049D02*
X26775776Y1090144D01*
X26775776Y1090144D02*
X26658633Y1129192D01*
X26658633Y1129192D02*
X26580538Y1129192D01*
X26580538Y1129192D02*
X26463395Y1090144D01*
X26463395Y1090144D02*
X26424347Y1051097D01*
X25955775Y777763D02*
X26033871Y816811D01*
X26033871Y816811D02*
X26072918Y855859D01*
X26072918Y855859D02*
X26111966Y933954D01*
X26111966Y933954D02*
X26111966Y973001D01*
X26111966Y973001D02*
X26072918Y1051097D01*
X26072918Y1051097D02*
X26033871Y1090144D01*
X26033871Y1090144D02*
X25955775Y1129192D01*
X25955775Y1129192D02*
X25799585Y1129192D01*
X25799585Y1129192D02*
X25721489Y1090144D01*
X25721489Y1090144D02*
X25682442Y1051097D01*
X25682442Y1051097D02*
X25643394Y973001D01*
X25643394Y973001D02*
X25643394Y933954D01*
X25643394Y933954D02*
X25682442Y855859D01*
X25682442Y855859D02*
X25721489Y816811D01*
X25721489Y816811D02*
X25799585Y777763D01*
X25799585Y777763D02*
X25955775Y777763D01*
X25955775Y777763D02*
X26033871Y738716D01*
X26033871Y738716D02*
X26072918Y699668D01*
X26072918Y699668D02*
X26111966Y621573D01*
X26111966Y621573D02*
X26111966Y465382D01*
X26111966Y465382D02*
X26072918Y387287D01*
X26072918Y387287D02*
X26033871Y348239D01*
X26033871Y348239D02*
X25955775Y309192D01*
X25955775Y309192D02*
X25799585Y309192D01*
X25799585Y309192D02*
X25721489Y348239D01*
X25721489Y348239D02*
X25682442Y387287D01*
X25682442Y387287D02*
X25643394Y465382D01*
X25643394Y465382D02*
X25643394Y621573D01*
X25643394Y621573D02*
X25682442Y699668D01*
X25682442Y699668D02*
X25721489Y738716D01*
X25721489Y738716D02*
X25799585Y777763D01*
X25135775Y1129192D02*
X25057679Y1129192D01*
X25057679Y1129192D02*
X24979584Y1090144D01*
X24979584Y1090144D02*
X24940536Y1051097D01*
X24940536Y1051097D02*
X24901489Y973001D01*
X24901489Y973001D02*
X24862441Y816811D01*
X24862441Y816811D02*
X24862441Y621573D01*
X24862441Y621573D02*
X24901489Y465382D01*
X24901489Y465382D02*
X24940536Y387287D01*
X24940536Y387287D02*
X24979584Y348239D01*
X24979584Y348239D02*
X25057679Y309192D01*
X25057679Y309192D02*
X25135775Y309192D01*
X25135775Y309192D02*
X25213870Y348239D01*
X25213870Y348239D02*
X25252918Y387287D01*
X25252918Y387287D02*
X25291965Y465382D01*
X25291965Y465382D02*
X25331013Y621573D01*
X25331013Y621573D02*
X25331013Y816811D01*
X25331013Y816811D02*
X25291965Y973001D01*
X25291965Y973001D02*
X25252918Y1051097D01*
X25252918Y1051097D02*
X25213870Y1090144D01*
X25213870Y1090144D02*
X25135775Y1129192D01*
X24471965Y309192D02*
X24315774Y309192D01*
X24315774Y309192D02*
X24237679Y348239D01*
X24237679Y348239D02*
X24198631Y387287D01*
X24198631Y387287D02*
X24120536Y504430D01*
X24120536Y504430D02*
X24081488Y660620D01*
X24081488Y660620D02*
X24081488Y973001D01*
X24081488Y973001D02*
X24120536Y1051097D01*
X24120536Y1051097D02*
X24159583Y1090144D01*
X24159583Y1090144D02*
X24237679Y1129192D01*
X24237679Y1129192D02*
X24393869Y1129192D01*
X24393869Y1129192D02*
X24471965Y1090144D01*
X24471965Y1090144D02*
X24511012Y1051097D01*
X24511012Y1051097D02*
X24550060Y973001D01*
X24550060Y973001D02*
X24550060Y777763D01*
X24550060Y777763D02*
X24511012Y699668D01*
X24511012Y699668D02*
X24471965Y660620D01*
X24471965Y660620D02*
X24393869Y621573D01*
X24393869Y621573D02*
X24237679Y621573D01*
X24237679Y621573D02*
X24159583Y660620D01*
X24159583Y660620D02*
X24120536Y699668D01*
X24120536Y699668D02*
X24081488Y777763D01*
D11*
X30054819Y9019048D02*
X29578628Y9352381D01*
X30054819Y9590476D02*
X29054819Y9590476D01*
X29054819Y9590476D02*
X29054819Y9209524D01*
X29054819Y9209524D02*
X29102438Y9114286D01*
X29102438Y9114286D02*
X29150057Y9066667D01*
X29150057Y9066667D02*
X29245295Y9019048D01*
X29245295Y9019048D02*
X29388152Y9019048D01*
X29388152Y9019048D02*
X29483390Y9066667D01*
X29483390Y9066667D02*
X29531009Y9114286D01*
X29531009Y9114286D02*
X29578628Y9209524D01*
X29578628Y9209524D02*
X29578628Y9590476D01*
X29483390Y8447619D02*
X29435771Y8542857D01*
X29435771Y8542857D02*
X29388152Y8590476D01*
X29388152Y8590476D02*
X29292914Y8638095D01*
X29292914Y8638095D02*
X29245295Y8638095D01*
X29245295Y8638095D02*
X29150057Y8590476D01*
X29150057Y8590476D02*
X29102438Y8542857D01*
X29102438Y8542857D02*
X29054819Y8447619D01*
X29054819Y8447619D02*
X29054819Y8257143D01*
X29054819Y8257143D02*
X29102438Y8161905D01*
X29102438Y8161905D02*
X29150057Y8114286D01*
X29150057Y8114286D02*
X29245295Y8066667D01*
X29245295Y8066667D02*
X29292914Y8066667D01*
X29292914Y8066667D02*
X29388152Y8114286D01*
X29388152Y8114286D02*
X29435771Y8161905D01*
X29435771Y8161905D02*
X29483390Y8257143D01*
X29483390Y8257143D02*
X29483390Y8447619D01*
X29483390Y8447619D02*
X29531009Y8542857D01*
X29531009Y8542857D02*
X29578628Y8590476D01*
X29578628Y8590476D02*
X29673866Y8638095D01*
X29673866Y8638095D02*
X29864342Y8638095D01*
X29864342Y8638095D02*
X29959580Y8590476D01*
X29959580Y8590476D02*
X30007200Y8542857D01*
X30007200Y8542857D02*
X30054819Y8447619D01*
X30054819Y8447619D02*
X30054819Y8257143D01*
X30054819Y8257143D02*
X30007200Y8161905D01*
X30007200Y8161905D02*
X29959580Y8114286D01*
X29959580Y8114286D02*
X29864342Y8066667D01*
X29864342Y8066667D02*
X29673866Y8066667D01*
X29673866Y8066667D02*
X29578628Y8114286D01*
X29578628Y8114286D02*
X29531009Y8161905D01*
X29531009Y8161905D02*
X29483390Y8257143D01*
X30054819Y7114286D02*
X30054819Y7685714D01*
X30054819Y7400000D02*
X29054819Y7400000D01*
X29054819Y7400000D02*
X29197676Y7495238D01*
X29197676Y7495238D02*
X29292914Y7590476D01*
X29292914Y7590476D02*
X29340533Y7685714D01*
X29150057Y6733333D02*
X29102438Y6685714D01*
X29102438Y6685714D02*
X29054819Y6590476D01*
X29054819Y6590476D02*
X29054819Y6352381D01*
X29054819Y6352381D02*
X29102438Y6257143D01*
X29102438Y6257143D02*
X29150057Y6209524D01*
X29150057Y6209524D02*
X29245295Y6161905D01*
X29245295Y6161905D02*
X29340533Y6161905D01*
X29340533Y6161905D02*
X29483390Y6209524D01*
X29483390Y6209524D02*
X30054819Y6780952D01*
X30054819Y6780952D02*
X30054819Y6161905D01*
D10*
X10824347Y387287D02*
X10863395Y348239D01*
X10863395Y348239D02*
X10980538Y309192D01*
X10980538Y309192D02*
X11058633Y309192D01*
X11058633Y309192D02*
X11175776Y348239D01*
X11175776Y348239D02*
X11253872Y426335D01*
X11253872Y426335D02*
X11292919Y504430D01*
X11292919Y504430D02*
X11331967Y660620D01*
X11331967Y660620D02*
X11331967Y777763D01*
X11331967Y777763D02*
X11292919Y933954D01*
X11292919Y933954D02*
X11253872Y1012049D01*
X11253872Y1012049D02*
X11175776Y1090144D01*
X11175776Y1090144D02*
X11058633Y1129192D01*
X11058633Y1129192D02*
X10980538Y1129192D01*
X10980538Y1129192D02*
X10863395Y1090144D01*
X10863395Y1090144D02*
X10824347Y1051097D01*
X10355775Y777763D02*
X10433871Y816811D01*
X10433871Y816811D02*
X10472918Y855859D01*
X10472918Y855859D02*
X10511966Y933954D01*
X10511966Y933954D02*
X10511966Y973001D01*
X10511966Y973001D02*
X10472918Y1051097D01*
X10472918Y1051097D02*
X10433871Y1090144D01*
X10433871Y1090144D02*
X10355775Y1129192D01*
X10355775Y1129192D02*
X10199585Y1129192D01*
X10199585Y1129192D02*
X10121489Y1090144D01*
X10121489Y1090144D02*
X10082442Y1051097D01*
X10082442Y1051097D02*
X10043394Y973001D01*
X10043394Y973001D02*
X10043394Y933954D01*
X10043394Y933954D02*
X10082442Y855859D01*
X10082442Y855859D02*
X10121489Y816811D01*
X10121489Y816811D02*
X10199585Y777763D01*
X10199585Y777763D02*
X10355775Y777763D01*
X10355775Y777763D02*
X10433871Y738716D01*
X10433871Y738716D02*
X10472918Y699668D01*
X10472918Y699668D02*
X10511966Y621573D01*
X10511966Y621573D02*
X10511966Y465382D01*
X10511966Y465382D02*
X10472918Y387287D01*
X10472918Y387287D02*
X10433871Y348239D01*
X10433871Y348239D02*
X10355775Y309192D01*
X10355775Y309192D02*
X10199585Y309192D01*
X10199585Y309192D02*
X10121489Y348239D01*
X10121489Y348239D02*
X10082442Y387287D01*
X10082442Y387287D02*
X10043394Y465382D01*
X10043394Y465382D02*
X10043394Y621573D01*
X10043394Y621573D02*
X10082442Y699668D01*
X10082442Y699668D02*
X10121489Y738716D01*
X10121489Y738716D02*
X10199585Y777763D01*
X9535775Y1129192D02*
X9457679Y1129192D01*
X9457679Y1129192D02*
X9379584Y1090144D01*
X9379584Y1090144D02*
X9340536Y1051097D01*
X9340536Y1051097D02*
X9301489Y973001D01*
X9301489Y973001D02*
X9262441Y816811D01*
X9262441Y816811D02*
X9262441Y621573D01*
X9262441Y621573D02*
X9301489Y465382D01*
X9301489Y465382D02*
X9340536Y387287D01*
X9340536Y387287D02*
X9379584Y348239D01*
X9379584Y348239D02*
X9457679Y309192D01*
X9457679Y309192D02*
X9535775Y309192D01*
X9535775Y309192D02*
X9613870Y348239D01*
X9613870Y348239D02*
X9652918Y387287D01*
X9652918Y387287D02*
X9691965Y465382D01*
X9691965Y465382D02*
X9731013Y621573D01*
X9731013Y621573D02*
X9731013Y816811D01*
X9731013Y816811D02*
X9691965Y973001D01*
X9691965Y973001D02*
X9652918Y1051097D01*
X9652918Y1051097D02*
X9613870Y1090144D01*
X9613870Y1090144D02*
X9535775Y1129192D01*
X8989108Y1129192D02*
X8442440Y1129192D01*
X8442440Y1129192D02*
X8793869Y309192D01*
D11*
X10554819Y9019048D02*
X10078628Y9352381D01*
X10554819Y9590476D02*
X9554819Y9590476D01*
X9554819Y9590476D02*
X9554819Y9209524D01*
X9554819Y9209524D02*
X9602438Y9114286D01*
X9602438Y9114286D02*
X9650057Y9066667D01*
X9650057Y9066667D02*
X9745295Y9019048D01*
X9745295Y9019048D02*
X9888152Y9019048D01*
X9888152Y9019048D02*
X9983390Y9066667D01*
X9983390Y9066667D02*
X10031009Y9114286D01*
X10031009Y9114286D02*
X10078628Y9209524D01*
X10078628Y9209524D02*
X10078628Y9590476D01*
X9983390Y8447619D02*
X9935771Y8542857D01*
X9935771Y8542857D02*
X9888152Y8590476D01*
X9888152Y8590476D02*
X9792914Y8638095D01*
X9792914Y8638095D02*
X9745295Y8638095D01*
X9745295Y8638095D02*
X9650057Y8590476D01*
X9650057Y8590476D02*
X9602438Y8542857D01*
X9602438Y8542857D02*
X9554819Y8447619D01*
X9554819Y8447619D02*
X9554819Y8257143D01*
X9554819Y8257143D02*
X9602438Y8161905D01*
X9602438Y8161905D02*
X9650057Y8114286D01*
X9650057Y8114286D02*
X9745295Y8066667D01*
X9745295Y8066667D02*
X9792914Y8066667D01*
X9792914Y8066667D02*
X9888152Y8114286D01*
X9888152Y8114286D02*
X9935771Y8161905D01*
X9935771Y8161905D02*
X9983390Y8257143D01*
X9983390Y8257143D02*
X9983390Y8447619D01*
X9983390Y8447619D02*
X10031009Y8542857D01*
X10031009Y8542857D02*
X10078628Y8590476D01*
X10078628Y8590476D02*
X10173866Y8638095D01*
X10173866Y8638095D02*
X10364342Y8638095D01*
X10364342Y8638095D02*
X10459580Y8590476D01*
X10459580Y8590476D02*
X10507200Y8542857D01*
X10507200Y8542857D02*
X10554819Y8447619D01*
X10554819Y8447619D02*
X10554819Y8257143D01*
X10554819Y8257143D02*
X10507200Y8161905D01*
X10507200Y8161905D02*
X10459580Y8114286D01*
X10459580Y8114286D02*
X10364342Y8066667D01*
X10364342Y8066667D02*
X10173866Y8066667D01*
X10173866Y8066667D02*
X10078628Y8114286D01*
X10078628Y8114286D02*
X10031009Y8161905D01*
X10031009Y8161905D02*
X9983390Y8257143D01*
X10554819Y7114286D02*
X10554819Y7685714D01*
X10554819Y7400000D02*
X9554819Y7400000D01*
X9554819Y7400000D02*
X9697676Y7495238D01*
X9697676Y7495238D02*
X9792914Y7590476D01*
X9792914Y7590476D02*
X9840533Y7685714D01*
X9554819Y6209524D02*
X9554819Y6685714D01*
X9554819Y6685714D02*
X10031009Y6733333D01*
X10031009Y6733333D02*
X9983390Y6685714D01*
X9983390Y6685714D02*
X9935771Y6590476D01*
X9935771Y6590476D02*
X9935771Y6352381D01*
X9935771Y6352381D02*
X9983390Y6257143D01*
X9983390Y6257143D02*
X10031009Y6209524D01*
X10031009Y6209524D02*
X10126247Y6161905D01*
X10126247Y6161905D02*
X10364342Y6161905D01*
X10364342Y6161905D02*
X10459580Y6209524D01*
X10459580Y6209524D02*
X10507200Y6257143D01*
X10507200Y6257143D02*
X10554819Y6352381D01*
X10554819Y6352381D02*
X10554819Y6590476D01*
X10554819Y6590476D02*
X10507200Y6685714D01*
X10507200Y6685714D02*
X10459580Y6733333D01*
X6654819Y9019048D02*
X6178628Y9352381D01*
X6654819Y9590476D02*
X5654819Y9590476D01*
X5654819Y9590476D02*
X5654819Y9209524D01*
X5654819Y9209524D02*
X5702438Y9114286D01*
X5702438Y9114286D02*
X5750057Y9066667D01*
X5750057Y9066667D02*
X5845295Y9019048D01*
X5845295Y9019048D02*
X5988152Y9019048D01*
X5988152Y9019048D02*
X6083390Y9066667D01*
X6083390Y9066667D02*
X6131009Y9114286D01*
X6131009Y9114286D02*
X6178628Y9209524D01*
X6178628Y9209524D02*
X6178628Y9590476D01*
X6083390Y8447619D02*
X6035771Y8542857D01*
X6035771Y8542857D02*
X5988152Y8590476D01*
X5988152Y8590476D02*
X5892914Y8638095D01*
X5892914Y8638095D02*
X5845295Y8638095D01*
X5845295Y8638095D02*
X5750057Y8590476D01*
X5750057Y8590476D02*
X5702438Y8542857D01*
X5702438Y8542857D02*
X5654819Y8447619D01*
X5654819Y8447619D02*
X5654819Y8257143D01*
X5654819Y8257143D02*
X5702438Y8161905D01*
X5702438Y8161905D02*
X5750057Y8114286D01*
X5750057Y8114286D02*
X5845295Y8066667D01*
X5845295Y8066667D02*
X5892914Y8066667D01*
X5892914Y8066667D02*
X5988152Y8114286D01*
X5988152Y8114286D02*
X6035771Y8161905D01*
X6035771Y8161905D02*
X6083390Y8257143D01*
X6083390Y8257143D02*
X6083390Y8447619D01*
X6083390Y8447619D02*
X6131009Y8542857D01*
X6131009Y8542857D02*
X6178628Y8590476D01*
X6178628Y8590476D02*
X6273866Y8638095D01*
X6273866Y8638095D02*
X6464342Y8638095D01*
X6464342Y8638095D02*
X6559580Y8590476D01*
X6559580Y8590476D02*
X6607200Y8542857D01*
X6607200Y8542857D02*
X6654819Y8447619D01*
X6654819Y8447619D02*
X6654819Y8257143D01*
X6654819Y8257143D02*
X6607200Y8161905D01*
X6607200Y8161905D02*
X6559580Y8114286D01*
X6559580Y8114286D02*
X6464342Y8066667D01*
X6464342Y8066667D02*
X6273866Y8066667D01*
X6273866Y8066667D02*
X6178628Y8114286D01*
X6178628Y8114286D02*
X6131009Y8161905D01*
X6131009Y8161905D02*
X6083390Y8257143D01*
X5654819Y7447619D02*
X5654819Y7352381D01*
X5654819Y7352381D02*
X5702438Y7257143D01*
X5702438Y7257143D02*
X5750057Y7209524D01*
X5750057Y7209524D02*
X5845295Y7161905D01*
X5845295Y7161905D02*
X6035771Y7114286D01*
X6035771Y7114286D02*
X6273866Y7114286D01*
X6273866Y7114286D02*
X6464342Y7161905D01*
X6464342Y7161905D02*
X6559580Y7209524D01*
X6559580Y7209524D02*
X6607200Y7257143D01*
X6607200Y7257143D02*
X6654819Y7352381D01*
X6654819Y7352381D02*
X6654819Y7447619D01*
X6654819Y7447619D02*
X6607200Y7542857D01*
X6607200Y7542857D02*
X6559580Y7590476D01*
X6559580Y7590476D02*
X6464342Y7638095D01*
X6464342Y7638095D02*
X6273866Y7685714D01*
X6273866Y7685714D02*
X6035771Y7685714D01*
X6035771Y7685714D02*
X5845295Y7638095D01*
X5845295Y7638095D02*
X5750057Y7590476D01*
X5750057Y7590476D02*
X5702438Y7542857D01*
X5702438Y7542857D02*
X5654819Y7447619D01*
X5654819Y6257143D02*
X5654819Y6447619D01*
X5654819Y6447619D02*
X5702438Y6542857D01*
X5702438Y6542857D02*
X5750057Y6590476D01*
X5750057Y6590476D02*
X5892914Y6685714D01*
X5892914Y6685714D02*
X6083390Y6733333D01*
X6083390Y6733333D02*
X6464342Y6733333D01*
X6464342Y6733333D02*
X6559580Y6685714D01*
X6559580Y6685714D02*
X6607200Y6638095D01*
X6607200Y6638095D02*
X6654819Y6542857D01*
X6654819Y6542857D02*
X6654819Y6352381D01*
X6654819Y6352381D02*
X6607200Y6257143D01*
X6607200Y6257143D02*
X6559580Y6209524D01*
X6559580Y6209524D02*
X6464342Y6161905D01*
X6464342Y6161905D02*
X6226247Y6161905D01*
X6226247Y6161905D02*
X6131009Y6209524D01*
X6131009Y6209524D02*
X6083390Y6257143D01*
X6083390Y6257143D02*
X6035771Y6352381D01*
X6035771Y6352381D02*
X6035771Y6542857D01*
X6035771Y6542857D02*
X6083390Y6638095D01*
X6083390Y6638095D02*
X6131009Y6685714D01*
X6131009Y6685714D02*
X6226247Y6733333D01*
D10*
X30619047Y329492D02*
X30952380Y719968D01*
X31190475Y329492D02*
X31190475Y1149492D01*
X31190475Y1149492D02*
X30809523Y1149492D01*
X30809523Y1149492D02*
X30714285Y1110444D01*
X30714285Y1110444D02*
X30666666Y1071397D01*
X30666666Y1071397D02*
X30619047Y993301D01*
X30619047Y993301D02*
X30619047Y876159D01*
X30619047Y876159D02*
X30666666Y798063D01*
X30666666Y798063D02*
X30714285Y759016D01*
X30714285Y759016D02*
X30809523Y719968D01*
X30809523Y719968D02*
X31190475Y719968D01*
X30047618Y798063D02*
X30142856Y837111D01*
X30142856Y837111D02*
X30190475Y876159D01*
X30190475Y876159D02*
X30238094Y954254D01*
X30238094Y954254D02*
X30238094Y993301D01*
X30238094Y993301D02*
X30190475Y1071397D01*
X30190475Y1071397D02*
X30142856Y1110444D01*
X30142856Y1110444D02*
X30047618Y1149492D01*
X30047618Y1149492D02*
X29857142Y1149492D01*
X29857142Y1149492D02*
X29761904Y1110444D01*
X29761904Y1110444D02*
X29714285Y1071397D01*
X29714285Y1071397D02*
X29666666Y993301D01*
X29666666Y993301D02*
X29666666Y954254D01*
X29666666Y954254D02*
X29714285Y876159D01*
X29714285Y876159D02*
X29761904Y837111D01*
X29761904Y837111D02*
X29857142Y798063D01*
X29857142Y798063D02*
X30047618Y798063D01*
X30047618Y798063D02*
X30142856Y759016D01*
X30142856Y759016D02*
X30190475Y719968D01*
X30190475Y719968D02*
X30238094Y641873D01*
X30238094Y641873D02*
X30238094Y485682D01*
X30238094Y485682D02*
X30190475Y407587D01*
X30190475Y407587D02*
X30142856Y368539D01*
X30142856Y368539D02*
X30047618Y329492D01*
X30047618Y329492D02*
X29857142Y329492D01*
X29857142Y329492D02*
X29761904Y368539D01*
X29761904Y368539D02*
X29714285Y407587D01*
X29714285Y407587D02*
X29666666Y485682D01*
X29666666Y485682D02*
X29666666Y641873D01*
X29666666Y641873D02*
X29714285Y719968D01*
X29714285Y719968D02*
X29761904Y759016D01*
X29761904Y759016D02*
X29857142Y798063D01*
X28714285Y329492D02*
X29285713Y329492D01*
X28999999Y329492D02*
X28999999Y1149492D01*
X28999999Y1149492D02*
X29095237Y1032349D01*
X29095237Y1032349D02*
X29190475Y954254D01*
X29190475Y954254D02*
X29285713Y915206D01*
X28380951Y1149492D02*
X27761904Y1149492D01*
X27761904Y1149492D02*
X28095237Y837111D01*
X28095237Y837111D02*
X27952380Y837111D01*
X27952380Y837111D02*
X27857142Y798063D01*
X27857142Y798063D02*
X27809523Y759016D01*
X27809523Y759016D02*
X27761904Y680920D01*
X27761904Y680920D02*
X27761904Y485682D01*
X27761904Y485682D02*
X27809523Y407587D01*
X27809523Y407587D02*
X27857142Y368539D01*
X27857142Y368539D02*
X27952380Y329492D01*
X27952380Y329492D02*
X28238094Y329492D01*
X28238094Y329492D02*
X28333332Y368539D01*
X28333332Y368539D02*
X28380951Y407587D01*
X18624347Y387287D02*
X18663395Y348239D01*
X18663395Y348239D02*
X18780538Y309192D01*
X18780538Y309192D02*
X18858633Y309192D01*
X18858633Y309192D02*
X18975776Y348239D01*
X18975776Y348239D02*
X19053872Y426335D01*
X19053872Y426335D02*
X19092919Y504430D01*
X19092919Y504430D02*
X19131967Y660620D01*
X19131967Y660620D02*
X19131967Y777763D01*
X19131967Y777763D02*
X19092919Y933954D01*
X19092919Y933954D02*
X19053872Y1012049D01*
X19053872Y1012049D02*
X18975776Y1090144D01*
X18975776Y1090144D02*
X18858633Y1129192D01*
X18858633Y1129192D02*
X18780538Y1129192D01*
X18780538Y1129192D02*
X18663395Y1090144D01*
X18663395Y1090144D02*
X18624347Y1051097D01*
X18155775Y777763D02*
X18233871Y816811D01*
X18233871Y816811D02*
X18272918Y855859D01*
X18272918Y855859D02*
X18311966Y933954D01*
X18311966Y933954D02*
X18311966Y973001D01*
X18311966Y973001D02*
X18272918Y1051097D01*
X18272918Y1051097D02*
X18233871Y1090144D01*
X18233871Y1090144D02*
X18155775Y1129192D01*
X18155775Y1129192D02*
X17999585Y1129192D01*
X17999585Y1129192D02*
X17921489Y1090144D01*
X17921489Y1090144D02*
X17882442Y1051097D01*
X17882442Y1051097D02*
X17843394Y973001D01*
X17843394Y973001D02*
X17843394Y933954D01*
X17843394Y933954D02*
X17882442Y855859D01*
X17882442Y855859D02*
X17921489Y816811D01*
X17921489Y816811D02*
X17999585Y777763D01*
X17999585Y777763D02*
X18155775Y777763D01*
X18155775Y777763D02*
X18233871Y738716D01*
X18233871Y738716D02*
X18272918Y699668D01*
X18272918Y699668D02*
X18311966Y621573D01*
X18311966Y621573D02*
X18311966Y465382D01*
X18311966Y465382D02*
X18272918Y387287D01*
X18272918Y387287D02*
X18233871Y348239D01*
X18233871Y348239D02*
X18155775Y309192D01*
X18155775Y309192D02*
X17999585Y309192D01*
X17999585Y309192D02*
X17921489Y348239D01*
X17921489Y348239D02*
X17882442Y387287D01*
X17882442Y387287D02*
X17843394Y465382D01*
X17843394Y465382D02*
X17843394Y621573D01*
X17843394Y621573D02*
X17882442Y699668D01*
X17882442Y699668D02*
X17921489Y738716D01*
X17921489Y738716D02*
X17999585Y777763D01*
X17335775Y1129192D02*
X17257679Y1129192D01*
X17257679Y1129192D02*
X17179584Y1090144D01*
X17179584Y1090144D02*
X17140536Y1051097D01*
X17140536Y1051097D02*
X17101489Y973001D01*
X17101489Y973001D02*
X17062441Y816811D01*
X17062441Y816811D02*
X17062441Y621573D01*
X17062441Y621573D02*
X17101489Y465382D01*
X17101489Y465382D02*
X17140536Y387287D01*
X17140536Y387287D02*
X17179584Y348239D01*
X17179584Y348239D02*
X17257679Y309192D01*
X17257679Y309192D02*
X17335775Y309192D01*
X17335775Y309192D02*
X17413870Y348239D01*
X17413870Y348239D02*
X17452918Y387287D01*
X17452918Y387287D02*
X17491965Y465382D01*
X17491965Y465382D02*
X17531013Y621573D01*
X17531013Y621573D02*
X17531013Y816811D01*
X17531013Y816811D02*
X17491965Y973001D01*
X17491965Y973001D02*
X17452918Y1051097D01*
X17452918Y1051097D02*
X17413870Y1090144D01*
X17413870Y1090144D02*
X17335775Y1129192D01*
X16593869Y777763D02*
X16671965Y816811D01*
X16671965Y816811D02*
X16711012Y855859D01*
X16711012Y855859D02*
X16750060Y933954D01*
X16750060Y933954D02*
X16750060Y973001D01*
X16750060Y973001D02*
X16711012Y1051097D01*
X16711012Y1051097D02*
X16671965Y1090144D01*
X16671965Y1090144D02*
X16593869Y1129192D01*
X16593869Y1129192D02*
X16437679Y1129192D01*
X16437679Y1129192D02*
X16359583Y1090144D01*
X16359583Y1090144D02*
X16320536Y1051097D01*
X16320536Y1051097D02*
X16281488Y973001D01*
X16281488Y973001D02*
X16281488Y933954D01*
X16281488Y933954D02*
X16320536Y855859D01*
X16320536Y855859D02*
X16359583Y816811D01*
X16359583Y816811D02*
X16437679Y777763D01*
X16437679Y777763D02*
X16593869Y777763D01*
X16593869Y777763D02*
X16671965Y738716D01*
X16671965Y738716D02*
X16711012Y699668D01*
X16711012Y699668D02*
X16750060Y621573D01*
X16750060Y621573D02*
X16750060Y465382D01*
X16750060Y465382D02*
X16711012Y387287D01*
X16711012Y387287D02*
X16671965Y348239D01*
X16671965Y348239D02*
X16593869Y309192D01*
X16593869Y309192D02*
X16437679Y309192D01*
X16437679Y309192D02*
X16359583Y348239D01*
X16359583Y348239D02*
X16320536Y387287D01*
X16320536Y387287D02*
X16281488Y465382D01*
X16281488Y465382D02*
X16281488Y621573D01*
X16281488Y621573D02*
X16320536Y699668D01*
X16320536Y699668D02*
X16359583Y738716D01*
X16359583Y738716D02*
X16437679Y777763D01*
X3124347Y387287D02*
X3163395Y348239D01*
X3163395Y348239D02*
X3280538Y309192D01*
X3280538Y309192D02*
X3358633Y309192D01*
X3358633Y309192D02*
X3475776Y348239D01*
X3475776Y348239D02*
X3553872Y426335D01*
X3553872Y426335D02*
X3592919Y504430D01*
X3592919Y504430D02*
X3631967Y660620D01*
X3631967Y660620D02*
X3631967Y777763D01*
X3631967Y777763D02*
X3592919Y933954D01*
X3592919Y933954D02*
X3553872Y1012049D01*
X3553872Y1012049D02*
X3475776Y1090144D01*
X3475776Y1090144D02*
X3358633Y1129192D01*
X3358633Y1129192D02*
X3280538Y1129192D01*
X3280538Y1129192D02*
X3163395Y1090144D01*
X3163395Y1090144D02*
X3124347Y1051097D01*
X2655775Y777763D02*
X2733871Y816811D01*
X2733871Y816811D02*
X2772918Y855859D01*
X2772918Y855859D02*
X2811966Y933954D01*
X2811966Y933954D02*
X2811966Y973001D01*
X2811966Y973001D02*
X2772918Y1051097D01*
X2772918Y1051097D02*
X2733871Y1090144D01*
X2733871Y1090144D02*
X2655775Y1129192D01*
X2655775Y1129192D02*
X2499585Y1129192D01*
X2499585Y1129192D02*
X2421489Y1090144D01*
X2421489Y1090144D02*
X2382442Y1051097D01*
X2382442Y1051097D02*
X2343394Y973001D01*
X2343394Y973001D02*
X2343394Y933954D01*
X2343394Y933954D02*
X2382442Y855859D01*
X2382442Y855859D02*
X2421489Y816811D01*
X2421489Y816811D02*
X2499585Y777763D01*
X2499585Y777763D02*
X2655775Y777763D01*
X2655775Y777763D02*
X2733871Y738716D01*
X2733871Y738716D02*
X2772918Y699668D01*
X2772918Y699668D02*
X2811966Y621573D01*
X2811966Y621573D02*
X2811966Y465382D01*
X2811966Y465382D02*
X2772918Y387287D01*
X2772918Y387287D02*
X2733871Y348239D01*
X2733871Y348239D02*
X2655775Y309192D01*
X2655775Y309192D02*
X2499585Y309192D01*
X2499585Y309192D02*
X2421489Y348239D01*
X2421489Y348239D02*
X2382442Y387287D01*
X2382442Y387287D02*
X2343394Y465382D01*
X2343394Y465382D02*
X2343394Y621573D01*
X2343394Y621573D02*
X2382442Y699668D01*
X2382442Y699668D02*
X2421489Y738716D01*
X2421489Y738716D02*
X2499585Y777763D01*
X1835775Y1129192D02*
X1757679Y1129192D01*
X1757679Y1129192D02*
X1679584Y1090144D01*
X1679584Y1090144D02*
X1640536Y1051097D01*
X1640536Y1051097D02*
X1601489Y973001D01*
X1601489Y973001D02*
X1562441Y816811D01*
X1562441Y816811D02*
X1562441Y621573D01*
X1562441Y621573D02*
X1601489Y465382D01*
X1601489Y465382D02*
X1640536Y387287D01*
X1640536Y387287D02*
X1679584Y348239D01*
X1679584Y348239D02*
X1757679Y309192D01*
X1757679Y309192D02*
X1835775Y309192D01*
X1835775Y309192D02*
X1913870Y348239D01*
X1913870Y348239D02*
X1952918Y387287D01*
X1952918Y387287D02*
X1991965Y465382D01*
X1991965Y465382D02*
X2031013Y621573D01*
X2031013Y621573D02*
X2031013Y816811D01*
X2031013Y816811D02*
X1991965Y973001D01*
X1991965Y973001D02*
X1952918Y1051097D01*
X1952918Y1051097D02*
X1913870Y1090144D01*
X1913870Y1090144D02*
X1835775Y1129192D01*
X859583Y1129192D02*
X1015774Y1129192D01*
X1015774Y1129192D02*
X1093869Y1090144D01*
X1093869Y1090144D02*
X1132917Y1051097D01*
X1132917Y1051097D02*
X1211012Y933954D01*
X1211012Y933954D02*
X1250060Y777763D01*
X1250060Y777763D02*
X1250060Y465382D01*
X1250060Y465382D02*
X1211012Y387287D01*
X1211012Y387287D02*
X1171965Y348239D01*
X1171965Y348239D02*
X1093869Y309192D01*
X1093869Y309192D02*
X937679Y309192D01*
X937679Y309192D02*
X859583Y348239D01*
X859583Y348239D02*
X820536Y387287D01*
X820536Y387287D02*
X781488Y465382D01*
X781488Y465382D02*
X781488Y660620D01*
X781488Y660620D02*
X820536Y738716D01*
X820536Y738716D02*
X859583Y777763D01*
X859583Y777763D02*
X937679Y816811D01*
X937679Y816811D02*
X1093869Y816811D01*
X1093869Y816811D02*
X1171965Y777763D01*
X1171965Y777763D02*
X1211012Y738716D01*
X1211012Y738716D02*
X1250060Y660620D01*
D11*
X31904819Y11864286D02*
X32714342Y11864286D01*
X32714342Y11864286D02*
X32809580Y11816667D01*
X32809580Y11816667D02*
X32857200Y11769048D01*
X32857200Y11769048D02*
X32904819Y11673810D01*
X32904819Y11673810D02*
X32904819Y11483334D01*
X32904819Y11483334D02*
X32857200Y11388096D01*
X32857200Y11388096D02*
X32809580Y11340477D01*
X32809580Y11340477D02*
X32714342Y11292858D01*
X32714342Y11292858D02*
X31904819Y11292858D01*
X32333390Y10673810D02*
X32285771Y10769048D01*
X32285771Y10769048D02*
X32238152Y10816667D01*
X32238152Y10816667D02*
X32142914Y10864286D01*
X32142914Y10864286D02*
X32095295Y10864286D01*
X32095295Y10864286D02*
X32000057Y10816667D01*
X32000057Y10816667D02*
X31952438Y10769048D01*
X31952438Y10769048D02*
X31904819Y10673810D01*
X31904819Y10673810D02*
X31904819Y10483334D01*
X31904819Y10483334D02*
X31952438Y10388096D01*
X31952438Y10388096D02*
X32000057Y10340477D01*
X32000057Y10340477D02*
X32095295Y10292858D01*
X32095295Y10292858D02*
X32142914Y10292858D01*
X32142914Y10292858D02*
X32238152Y10340477D01*
X32238152Y10340477D02*
X32285771Y10388096D01*
X32285771Y10388096D02*
X32333390Y10483334D01*
X32333390Y10483334D02*
X32333390Y10673810D01*
X32333390Y10673810D02*
X32381009Y10769048D01*
X32381009Y10769048D02*
X32428628Y10816667D01*
X32428628Y10816667D02*
X32523866Y10864286D01*
X32523866Y10864286D02*
X32714342Y10864286D01*
X32714342Y10864286D02*
X32809580Y10816667D01*
X32809580Y10816667D02*
X32857200Y10769048D01*
X32857200Y10769048D02*
X32904819Y10673810D01*
X32904819Y10673810D02*
X32904819Y10483334D01*
X32904819Y10483334D02*
X32857200Y10388096D01*
X32857200Y10388096D02*
X32809580Y10340477D01*
X32809580Y10340477D02*
X32714342Y10292858D01*
X32714342Y10292858D02*
X32523866Y10292858D01*
X32523866Y10292858D02*
X32428628Y10340477D01*
X32428628Y10340477D02*
X32381009Y10388096D01*
X32381009Y10388096D02*
X32333390Y10483334D01*
X31904819Y9673810D02*
X31904819Y9578572D01*
X31904819Y9578572D02*
X31952438Y9483334D01*
X31952438Y9483334D02*
X32000057Y9435715D01*
X32000057Y9435715D02*
X32095295Y9388096D01*
X32095295Y9388096D02*
X32285771Y9340477D01*
X32285771Y9340477D02*
X32523866Y9340477D01*
X32523866Y9340477D02*
X32714342Y9388096D01*
X32714342Y9388096D02*
X32809580Y9435715D01*
X32809580Y9435715D02*
X32857200Y9483334D01*
X32857200Y9483334D02*
X32904819Y9578572D01*
X32904819Y9578572D02*
X32904819Y9673810D01*
X32904819Y9673810D02*
X32857200Y9769048D01*
X32857200Y9769048D02*
X32809580Y9816667D01*
X32809580Y9816667D02*
X32714342Y9864286D01*
X32714342Y9864286D02*
X32523866Y9911905D01*
X32523866Y9911905D02*
X32285771Y9911905D01*
X32285771Y9911905D02*
X32095295Y9864286D01*
X32095295Y9864286D02*
X32000057Y9816667D01*
X32000057Y9816667D02*
X31952438Y9769048D01*
X31952438Y9769048D02*
X31904819Y9673810D01*
X32904819Y8388096D02*
X32904819Y8959524D01*
X32904819Y8673810D02*
X31904819Y8673810D01*
X31904819Y8673810D02*
X32047676Y8769048D01*
X32047676Y8769048D02*
X32142914Y8864286D01*
X32142914Y8864286D02*
X32190533Y8959524D01*
X18354819Y9019048D02*
X17878628Y9352381D01*
X18354819Y9590476D02*
X17354819Y9590476D01*
X17354819Y9590476D02*
X17354819Y9209524D01*
X17354819Y9209524D02*
X17402438Y9114286D01*
X17402438Y9114286D02*
X17450057Y9066667D01*
X17450057Y9066667D02*
X17545295Y9019048D01*
X17545295Y9019048D02*
X17688152Y9019048D01*
X17688152Y9019048D02*
X17783390Y9066667D01*
X17783390Y9066667D02*
X17831009Y9114286D01*
X17831009Y9114286D02*
X17878628Y9209524D01*
X17878628Y9209524D02*
X17878628Y9590476D01*
X17783390Y8447619D02*
X17735771Y8542857D01*
X17735771Y8542857D02*
X17688152Y8590476D01*
X17688152Y8590476D02*
X17592914Y8638095D01*
X17592914Y8638095D02*
X17545295Y8638095D01*
X17545295Y8638095D02*
X17450057Y8590476D01*
X17450057Y8590476D02*
X17402438Y8542857D01*
X17402438Y8542857D02*
X17354819Y8447619D01*
X17354819Y8447619D02*
X17354819Y8257143D01*
X17354819Y8257143D02*
X17402438Y8161905D01*
X17402438Y8161905D02*
X17450057Y8114286D01*
X17450057Y8114286D02*
X17545295Y8066667D01*
X17545295Y8066667D02*
X17592914Y8066667D01*
X17592914Y8066667D02*
X17688152Y8114286D01*
X17688152Y8114286D02*
X17735771Y8161905D01*
X17735771Y8161905D02*
X17783390Y8257143D01*
X17783390Y8257143D02*
X17783390Y8447619D01*
X17783390Y8447619D02*
X17831009Y8542857D01*
X17831009Y8542857D02*
X17878628Y8590476D01*
X17878628Y8590476D02*
X17973866Y8638095D01*
X17973866Y8638095D02*
X18164342Y8638095D01*
X18164342Y8638095D02*
X18259580Y8590476D01*
X18259580Y8590476D02*
X18307200Y8542857D01*
X18307200Y8542857D02*
X18354819Y8447619D01*
X18354819Y8447619D02*
X18354819Y8257143D01*
X18354819Y8257143D02*
X18307200Y8161905D01*
X18307200Y8161905D02*
X18259580Y8114286D01*
X18259580Y8114286D02*
X18164342Y8066667D01*
X18164342Y8066667D02*
X17973866Y8066667D01*
X17973866Y8066667D02*
X17878628Y8114286D01*
X17878628Y8114286D02*
X17831009Y8161905D01*
X17831009Y8161905D02*
X17783390Y8257143D01*
X18354819Y7114286D02*
X18354819Y7685714D01*
X18354819Y7400000D02*
X17354819Y7400000D01*
X17354819Y7400000D02*
X17497676Y7495238D01*
X17497676Y7495238D02*
X17592914Y7590476D01*
X17592914Y7590476D02*
X17640533Y7685714D01*
X17354819Y6257143D02*
X17354819Y6447619D01*
X17354819Y6447619D02*
X17402438Y6542857D01*
X17402438Y6542857D02*
X17450057Y6590476D01*
X17450057Y6590476D02*
X17592914Y6685714D01*
X17592914Y6685714D02*
X17783390Y6733333D01*
X17783390Y6733333D02*
X18164342Y6733333D01*
X18164342Y6733333D02*
X18259580Y6685714D01*
X18259580Y6685714D02*
X18307200Y6638095D01*
X18307200Y6638095D02*
X18354819Y6542857D01*
X18354819Y6542857D02*
X18354819Y6352381D01*
X18354819Y6352381D02*
X18307200Y6257143D01*
X18307200Y6257143D02*
X18259580Y6209524D01*
X18259580Y6209524D02*
X18164342Y6161905D01*
X18164342Y6161905D02*
X17926247Y6161905D01*
X17926247Y6161905D02*
X17831009Y6209524D01*
X17831009Y6209524D02*
X17783390Y6257143D01*
X17783390Y6257143D02*
X17735771Y6352381D01*
X17735771Y6352381D02*
X17735771Y6542857D01*
X17735771Y6542857D02*
X17783390Y6638095D01*
X17783390Y6638095D02*
X17831009Y6685714D01*
X17831009Y6685714D02*
X17926247Y6733333D01*
X14454819Y9019048D02*
X13978628Y9352381D01*
X14454819Y9590476D02*
X13454819Y9590476D01*
X13454819Y9590476D02*
X13454819Y9209524D01*
X13454819Y9209524D02*
X13502438Y9114286D01*
X13502438Y9114286D02*
X13550057Y9066667D01*
X13550057Y9066667D02*
X13645295Y9019048D01*
X13645295Y9019048D02*
X13788152Y9019048D01*
X13788152Y9019048D02*
X13883390Y9066667D01*
X13883390Y9066667D02*
X13931009Y9114286D01*
X13931009Y9114286D02*
X13978628Y9209524D01*
X13978628Y9209524D02*
X13978628Y9590476D01*
X13883390Y8447619D02*
X13835771Y8542857D01*
X13835771Y8542857D02*
X13788152Y8590476D01*
X13788152Y8590476D02*
X13692914Y8638095D01*
X13692914Y8638095D02*
X13645295Y8638095D01*
X13645295Y8638095D02*
X13550057Y8590476D01*
X13550057Y8590476D02*
X13502438Y8542857D01*
X13502438Y8542857D02*
X13454819Y8447619D01*
X13454819Y8447619D02*
X13454819Y8257143D01*
X13454819Y8257143D02*
X13502438Y8161905D01*
X13502438Y8161905D02*
X13550057Y8114286D01*
X13550057Y8114286D02*
X13645295Y8066667D01*
X13645295Y8066667D02*
X13692914Y8066667D01*
X13692914Y8066667D02*
X13788152Y8114286D01*
X13788152Y8114286D02*
X13835771Y8161905D01*
X13835771Y8161905D02*
X13883390Y8257143D01*
X13883390Y8257143D02*
X13883390Y8447619D01*
X13883390Y8447619D02*
X13931009Y8542857D01*
X13931009Y8542857D02*
X13978628Y8590476D01*
X13978628Y8590476D02*
X14073866Y8638095D01*
X14073866Y8638095D02*
X14264342Y8638095D01*
X14264342Y8638095D02*
X14359580Y8590476D01*
X14359580Y8590476D02*
X14407200Y8542857D01*
X14407200Y8542857D02*
X14454819Y8447619D01*
X14454819Y8447619D02*
X14454819Y8257143D01*
X14454819Y8257143D02*
X14407200Y8161905D01*
X14407200Y8161905D02*
X14359580Y8114286D01*
X14359580Y8114286D02*
X14264342Y8066667D01*
X14264342Y8066667D02*
X14073866Y8066667D01*
X14073866Y8066667D02*
X13978628Y8114286D01*
X13978628Y8114286D02*
X13931009Y8161905D01*
X13931009Y8161905D02*
X13883390Y8257143D01*
X13454819Y7447619D02*
X13454819Y7352381D01*
X13454819Y7352381D02*
X13502438Y7257143D01*
X13502438Y7257143D02*
X13550057Y7209524D01*
X13550057Y7209524D02*
X13645295Y7161905D01*
X13645295Y7161905D02*
X13835771Y7114286D01*
X13835771Y7114286D02*
X14073866Y7114286D01*
X14073866Y7114286D02*
X14264342Y7161905D01*
X14264342Y7161905D02*
X14359580Y7209524D01*
X14359580Y7209524D02*
X14407200Y7257143D01*
X14407200Y7257143D02*
X14454819Y7352381D01*
X14454819Y7352381D02*
X14454819Y7447619D01*
X14454819Y7447619D02*
X14407200Y7542857D01*
X14407200Y7542857D02*
X14359580Y7590476D01*
X14359580Y7590476D02*
X14264342Y7638095D01*
X14264342Y7638095D02*
X14073866Y7685714D01*
X14073866Y7685714D02*
X13835771Y7685714D01*
X13835771Y7685714D02*
X13645295Y7638095D01*
X13645295Y7638095D02*
X13550057Y7590476D01*
X13550057Y7590476D02*
X13502438Y7542857D01*
X13502438Y7542857D02*
X13454819Y7447619D01*
X13883390Y6542857D02*
X13835771Y6638095D01*
X13835771Y6638095D02*
X13788152Y6685714D01*
X13788152Y6685714D02*
X13692914Y6733333D01*
X13692914Y6733333D02*
X13645295Y6733333D01*
X13645295Y6733333D02*
X13550057Y6685714D01*
X13550057Y6685714D02*
X13502438Y6638095D01*
X13502438Y6638095D02*
X13454819Y6542857D01*
X13454819Y6542857D02*
X13454819Y6352381D01*
X13454819Y6352381D02*
X13502438Y6257143D01*
X13502438Y6257143D02*
X13550057Y6209524D01*
X13550057Y6209524D02*
X13645295Y6161905D01*
X13645295Y6161905D02*
X13692914Y6161905D01*
X13692914Y6161905D02*
X13788152Y6209524D01*
X13788152Y6209524D02*
X13835771Y6257143D01*
X13835771Y6257143D02*
X13883390Y6352381D01*
X13883390Y6352381D02*
X13883390Y6542857D01*
X13883390Y6542857D02*
X13931009Y6638095D01*
X13931009Y6638095D02*
X13978628Y6685714D01*
X13978628Y6685714D02*
X14073866Y6733333D01*
X14073866Y6733333D02*
X14264342Y6733333D01*
X14264342Y6733333D02*
X14359580Y6685714D01*
X14359580Y6685714D02*
X14407200Y6638095D01*
X14407200Y6638095D02*
X14454819Y6542857D01*
X14454819Y6542857D02*
X14454819Y6352381D01*
X14454819Y6352381D02*
X14407200Y6257143D01*
X14407200Y6257143D02*
X14359580Y6209524D01*
X14359580Y6209524D02*
X14264342Y6161905D01*
X14264342Y6161905D02*
X14073866Y6161905D01*
X14073866Y6161905D02*
X13978628Y6209524D01*
X13978628Y6209524D02*
X13931009Y6257143D01*
X13931009Y6257143D02*
X13883390Y6352381D01*
X2754819Y9019048D02*
X2278628Y9352381D01*
X2754819Y9590476D02*
X1754819Y9590476D01*
X1754819Y9590476D02*
X1754819Y9209524D01*
X1754819Y9209524D02*
X1802438Y9114286D01*
X1802438Y9114286D02*
X1850057Y9066667D01*
X1850057Y9066667D02*
X1945295Y9019048D01*
X1945295Y9019048D02*
X2088152Y9019048D01*
X2088152Y9019048D02*
X2183390Y9066667D01*
X2183390Y9066667D02*
X2231009Y9114286D01*
X2231009Y9114286D02*
X2278628Y9209524D01*
X2278628Y9209524D02*
X2278628Y9590476D01*
X2183390Y8447619D02*
X2135771Y8542857D01*
X2135771Y8542857D02*
X2088152Y8590476D01*
X2088152Y8590476D02*
X1992914Y8638095D01*
X1992914Y8638095D02*
X1945295Y8638095D01*
X1945295Y8638095D02*
X1850057Y8590476D01*
X1850057Y8590476D02*
X1802438Y8542857D01*
X1802438Y8542857D02*
X1754819Y8447619D01*
X1754819Y8447619D02*
X1754819Y8257143D01*
X1754819Y8257143D02*
X1802438Y8161905D01*
X1802438Y8161905D02*
X1850057Y8114286D01*
X1850057Y8114286D02*
X1945295Y8066667D01*
X1945295Y8066667D02*
X1992914Y8066667D01*
X1992914Y8066667D02*
X2088152Y8114286D01*
X2088152Y8114286D02*
X2135771Y8161905D01*
X2135771Y8161905D02*
X2183390Y8257143D01*
X2183390Y8257143D02*
X2183390Y8447619D01*
X2183390Y8447619D02*
X2231009Y8542857D01*
X2231009Y8542857D02*
X2278628Y8590476D01*
X2278628Y8590476D02*
X2373866Y8638095D01*
X2373866Y8638095D02*
X2564342Y8638095D01*
X2564342Y8638095D02*
X2659580Y8590476D01*
X2659580Y8590476D02*
X2707200Y8542857D01*
X2707200Y8542857D02*
X2754819Y8447619D01*
X2754819Y8447619D02*
X2754819Y8257143D01*
X2754819Y8257143D02*
X2707200Y8161905D01*
X2707200Y8161905D02*
X2659580Y8114286D01*
X2659580Y8114286D02*
X2564342Y8066667D01*
X2564342Y8066667D02*
X2373866Y8066667D01*
X2373866Y8066667D02*
X2278628Y8114286D01*
X2278628Y8114286D02*
X2231009Y8161905D01*
X2231009Y8161905D02*
X2183390Y8257143D01*
X2754819Y7114286D02*
X2754819Y7685714D01*
X2754819Y7400000D02*
X1754819Y7400000D01*
X1754819Y7400000D02*
X1897676Y7495238D01*
X1897676Y7495238D02*
X1992914Y7590476D01*
X1992914Y7590476D02*
X2040533Y7685714D01*
X2088152Y6257143D02*
X2754819Y6257143D01*
X1707200Y6495238D02*
X2421485Y6733333D01*
X2421485Y6733333D02*
X2421485Y6114286D01*
D10*
X14919047Y329492D02*
X15252380Y719968D01*
X15490475Y329492D02*
X15490475Y1149492D01*
X15490475Y1149492D02*
X15109523Y1149492D01*
X15109523Y1149492D02*
X15014285Y1110444D01*
X15014285Y1110444D02*
X14966666Y1071397D01*
X14966666Y1071397D02*
X14919047Y993301D01*
X14919047Y993301D02*
X14919047Y876159D01*
X14919047Y876159D02*
X14966666Y798063D01*
X14966666Y798063D02*
X15014285Y759016D01*
X15014285Y759016D02*
X15109523Y719968D01*
X15109523Y719968D02*
X15490475Y719968D01*
X14347618Y798063D02*
X14442856Y837111D01*
X14442856Y837111D02*
X14490475Y876159D01*
X14490475Y876159D02*
X14538094Y954254D01*
X14538094Y954254D02*
X14538094Y993301D01*
X14538094Y993301D02*
X14490475Y1071397D01*
X14490475Y1071397D02*
X14442856Y1110444D01*
X14442856Y1110444D02*
X14347618Y1149492D01*
X14347618Y1149492D02*
X14157142Y1149492D01*
X14157142Y1149492D02*
X14061904Y1110444D01*
X14061904Y1110444D02*
X14014285Y1071397D01*
X14014285Y1071397D02*
X13966666Y993301D01*
X13966666Y993301D02*
X13966666Y954254D01*
X13966666Y954254D02*
X14014285Y876159D01*
X14014285Y876159D02*
X14061904Y837111D01*
X14061904Y837111D02*
X14157142Y798063D01*
X14157142Y798063D02*
X14347618Y798063D01*
X14347618Y798063D02*
X14442856Y759016D01*
X14442856Y759016D02*
X14490475Y719968D01*
X14490475Y719968D02*
X14538094Y641873D01*
X14538094Y641873D02*
X14538094Y485682D01*
X14538094Y485682D02*
X14490475Y407587D01*
X14490475Y407587D02*
X14442856Y368539D01*
X14442856Y368539D02*
X14347618Y329492D01*
X14347618Y329492D02*
X14157142Y329492D01*
X14157142Y329492D02*
X14061904Y368539D01*
X14061904Y368539D02*
X14014285Y407587D01*
X14014285Y407587D02*
X13966666Y485682D01*
X13966666Y485682D02*
X13966666Y641873D01*
X13966666Y641873D02*
X14014285Y719968D01*
X14014285Y719968D02*
X14061904Y759016D01*
X14061904Y759016D02*
X14157142Y798063D01*
X13347618Y1149492D02*
X13252380Y1149492D01*
X13252380Y1149492D02*
X13157142Y1110444D01*
X13157142Y1110444D02*
X13109523Y1071397D01*
X13109523Y1071397D02*
X13061904Y993301D01*
X13061904Y993301D02*
X13014285Y837111D01*
X13014285Y837111D02*
X13014285Y641873D01*
X13014285Y641873D02*
X13061904Y485682D01*
X13061904Y485682D02*
X13109523Y407587D01*
X13109523Y407587D02*
X13157142Y368539D01*
X13157142Y368539D02*
X13252380Y329492D01*
X13252380Y329492D02*
X13347618Y329492D01*
X13347618Y329492D02*
X13442856Y368539D01*
X13442856Y368539D02*
X13490475Y407587D01*
X13490475Y407587D02*
X13538094Y485682D01*
X13538094Y485682D02*
X13585713Y641873D01*
X13585713Y641873D02*
X13585713Y837111D01*
X13585713Y837111D02*
X13538094Y993301D01*
X13538094Y993301D02*
X13490475Y1071397D01*
X13490475Y1071397D02*
X13442856Y1110444D01*
X13442856Y1110444D02*
X13347618Y1149492D01*
X12538094Y329492D02*
X12347618Y329492D01*
X12347618Y329492D02*
X12252380Y368539D01*
X12252380Y368539D02*
X12204761Y407587D01*
X12204761Y407587D02*
X12109523Y524730D01*
X12109523Y524730D02*
X12061904Y680920D01*
X12061904Y680920D02*
X12061904Y993301D01*
X12061904Y993301D02*
X12109523Y1071397D01*
X12109523Y1071397D02*
X12157142Y1110444D01*
X12157142Y1110444D02*
X12252380Y1149492D01*
X12252380Y1149492D02*
X12442856Y1149492D01*
X12442856Y1149492D02*
X12538094Y1110444D01*
X12538094Y1110444D02*
X12585713Y1071397D01*
X12585713Y1071397D02*
X12633332Y993301D01*
X12633332Y993301D02*
X12633332Y798063D01*
X12633332Y798063D02*
X12585713Y719968D01*
X12585713Y719968D02*
X12538094Y680920D01*
X12538094Y680920D02*
X12442856Y641873D01*
X12442856Y641873D02*
X12252380Y641873D01*
X12252380Y641873D02*
X12157142Y680920D01*
X12157142Y680920D02*
X12109523Y719968D01*
X12109523Y719968D02*
X12061904Y798063D01*
D11*
X22254819Y9019048D02*
X21778628Y9352381D01*
X22254819Y9590476D02*
X21254819Y9590476D01*
X21254819Y9590476D02*
X21254819Y9209524D01*
X21254819Y9209524D02*
X21302438Y9114286D01*
X21302438Y9114286D02*
X21350057Y9066667D01*
X21350057Y9066667D02*
X21445295Y9019048D01*
X21445295Y9019048D02*
X21588152Y9019048D01*
X21588152Y9019048D02*
X21683390Y9066667D01*
X21683390Y9066667D02*
X21731009Y9114286D01*
X21731009Y9114286D02*
X21778628Y9209524D01*
X21778628Y9209524D02*
X21778628Y9590476D01*
X21683390Y8447619D02*
X21635771Y8542857D01*
X21635771Y8542857D02*
X21588152Y8590476D01*
X21588152Y8590476D02*
X21492914Y8638095D01*
X21492914Y8638095D02*
X21445295Y8638095D01*
X21445295Y8638095D02*
X21350057Y8590476D01*
X21350057Y8590476D02*
X21302438Y8542857D01*
X21302438Y8542857D02*
X21254819Y8447619D01*
X21254819Y8447619D02*
X21254819Y8257143D01*
X21254819Y8257143D02*
X21302438Y8161905D01*
X21302438Y8161905D02*
X21350057Y8114286D01*
X21350057Y8114286D02*
X21445295Y8066667D01*
X21445295Y8066667D02*
X21492914Y8066667D01*
X21492914Y8066667D02*
X21588152Y8114286D01*
X21588152Y8114286D02*
X21635771Y8161905D01*
X21635771Y8161905D02*
X21683390Y8257143D01*
X21683390Y8257143D02*
X21683390Y8447619D01*
X21683390Y8447619D02*
X21731009Y8542857D01*
X21731009Y8542857D02*
X21778628Y8590476D01*
X21778628Y8590476D02*
X21873866Y8638095D01*
X21873866Y8638095D02*
X22064342Y8638095D01*
X22064342Y8638095D02*
X22159580Y8590476D01*
X22159580Y8590476D02*
X22207200Y8542857D01*
X22207200Y8542857D02*
X22254819Y8447619D01*
X22254819Y8447619D02*
X22254819Y8257143D01*
X22254819Y8257143D02*
X22207200Y8161905D01*
X22207200Y8161905D02*
X22159580Y8114286D01*
X22159580Y8114286D02*
X22064342Y8066667D01*
X22064342Y8066667D02*
X21873866Y8066667D01*
X21873866Y8066667D02*
X21778628Y8114286D01*
X21778628Y8114286D02*
X21731009Y8161905D01*
X21731009Y8161905D02*
X21683390Y8257143D01*
X22254819Y7114286D02*
X22254819Y7685714D01*
X22254819Y7400000D02*
X21254819Y7400000D01*
X21254819Y7400000D02*
X21397676Y7495238D01*
X21397676Y7495238D02*
X21492914Y7590476D01*
X21492914Y7590476D02*
X21540533Y7685714D01*
X21254819Y6495238D02*
X21254819Y6400000D01*
X21254819Y6400000D02*
X21302438Y6304762D01*
X21302438Y6304762D02*
X21350057Y6257143D01*
X21350057Y6257143D02*
X21445295Y6209524D01*
X21445295Y6209524D02*
X21635771Y6161905D01*
X21635771Y6161905D02*
X21873866Y6161905D01*
X21873866Y6161905D02*
X22064342Y6209524D01*
X22064342Y6209524D02*
X22159580Y6257143D01*
X22159580Y6257143D02*
X22207200Y6304762D01*
X22207200Y6304762D02*
X22254819Y6400000D01*
X22254819Y6400000D02*
X22254819Y6495238D01*
X22254819Y6495238D02*
X22207200Y6590476D01*
X22207200Y6590476D02*
X22159580Y6638095D01*
X22159580Y6638095D02*
X22064342Y6685714D01*
X22064342Y6685714D02*
X21873866Y6733333D01*
X21873866Y6733333D02*
X21635771Y6733333D01*
X21635771Y6733333D02*
X21445295Y6685714D01*
X21445295Y6685714D02*
X21350057Y6638095D01*
X21350057Y6638095D02*
X21302438Y6590476D01*
X21302438Y6590476D02*
X21254819Y6495238D01*
D10*
X7319047Y329492D02*
X7652380Y719968D01*
X7890475Y329492D02*
X7890475Y1149492D01*
X7890475Y1149492D02*
X7509523Y1149492D01*
X7509523Y1149492D02*
X7414285Y1110444D01*
X7414285Y1110444D02*
X7366666Y1071397D01*
X7366666Y1071397D02*
X7319047Y993301D01*
X7319047Y993301D02*
X7319047Y876159D01*
X7319047Y876159D02*
X7366666Y798063D01*
X7366666Y798063D02*
X7414285Y759016D01*
X7414285Y759016D02*
X7509523Y719968D01*
X7509523Y719968D02*
X7890475Y719968D01*
X6747618Y798063D02*
X6842856Y837111D01*
X6842856Y837111D02*
X6890475Y876159D01*
X6890475Y876159D02*
X6938094Y954254D01*
X6938094Y954254D02*
X6938094Y993301D01*
X6938094Y993301D02*
X6890475Y1071397D01*
X6890475Y1071397D02*
X6842856Y1110444D01*
X6842856Y1110444D02*
X6747618Y1149492D01*
X6747618Y1149492D02*
X6557142Y1149492D01*
X6557142Y1149492D02*
X6461904Y1110444D01*
X6461904Y1110444D02*
X6414285Y1071397D01*
X6414285Y1071397D02*
X6366666Y993301D01*
X6366666Y993301D02*
X6366666Y954254D01*
X6366666Y954254D02*
X6414285Y876159D01*
X6414285Y876159D02*
X6461904Y837111D01*
X6461904Y837111D02*
X6557142Y798063D01*
X6557142Y798063D02*
X6747618Y798063D01*
X6747618Y798063D02*
X6842856Y759016D01*
X6842856Y759016D02*
X6890475Y719968D01*
X6890475Y719968D02*
X6938094Y641873D01*
X6938094Y641873D02*
X6938094Y485682D01*
X6938094Y485682D02*
X6890475Y407587D01*
X6890475Y407587D02*
X6842856Y368539D01*
X6842856Y368539D02*
X6747618Y329492D01*
X6747618Y329492D02*
X6557142Y329492D01*
X6557142Y329492D02*
X6461904Y368539D01*
X6461904Y368539D02*
X6414285Y407587D01*
X6414285Y407587D02*
X6366666Y485682D01*
X6366666Y485682D02*
X6366666Y641873D01*
X6366666Y641873D02*
X6414285Y719968D01*
X6414285Y719968D02*
X6461904Y759016D01*
X6461904Y759016D02*
X6557142Y798063D01*
X5747618Y1149492D02*
X5652380Y1149492D01*
X5652380Y1149492D02*
X5557142Y1110444D01*
X5557142Y1110444D02*
X5509523Y1071397D01*
X5509523Y1071397D02*
X5461904Y993301D01*
X5461904Y993301D02*
X5414285Y837111D01*
X5414285Y837111D02*
X5414285Y641873D01*
X5414285Y641873D02*
X5461904Y485682D01*
X5461904Y485682D02*
X5509523Y407587D01*
X5509523Y407587D02*
X5557142Y368539D01*
X5557142Y368539D02*
X5652380Y329492D01*
X5652380Y329492D02*
X5747618Y329492D01*
X5747618Y329492D02*
X5842856Y368539D01*
X5842856Y368539D02*
X5890475Y407587D01*
X5890475Y407587D02*
X5938094Y485682D01*
X5938094Y485682D02*
X5985713Y641873D01*
X5985713Y641873D02*
X5985713Y837111D01*
X5985713Y837111D02*
X5938094Y993301D01*
X5938094Y993301D02*
X5890475Y1071397D01*
X5890475Y1071397D02*
X5842856Y1110444D01*
X5842856Y1110444D02*
X5747618Y1149492D01*
X5080951Y1149492D02*
X4414285Y1149492D01*
X4414285Y1149492D02*
X4842856Y329492D01*
D11*
X26154819Y9019048D02*
X25678628Y9352381D01*
X26154819Y9590476D02*
X25154819Y9590476D01*
X25154819Y9590476D02*
X25154819Y9209524D01*
X25154819Y9209524D02*
X25202438Y9114286D01*
X25202438Y9114286D02*
X25250057Y9066667D01*
X25250057Y9066667D02*
X25345295Y9019048D01*
X25345295Y9019048D02*
X25488152Y9019048D01*
X25488152Y9019048D02*
X25583390Y9066667D01*
X25583390Y9066667D02*
X25631009Y9114286D01*
X25631009Y9114286D02*
X25678628Y9209524D01*
X25678628Y9209524D02*
X25678628Y9590476D01*
X25583390Y8447619D02*
X25535771Y8542857D01*
X25535771Y8542857D02*
X25488152Y8590476D01*
X25488152Y8590476D02*
X25392914Y8638095D01*
X25392914Y8638095D02*
X25345295Y8638095D01*
X25345295Y8638095D02*
X25250057Y8590476D01*
X25250057Y8590476D02*
X25202438Y8542857D01*
X25202438Y8542857D02*
X25154819Y8447619D01*
X25154819Y8447619D02*
X25154819Y8257143D01*
X25154819Y8257143D02*
X25202438Y8161905D01*
X25202438Y8161905D02*
X25250057Y8114286D01*
X25250057Y8114286D02*
X25345295Y8066667D01*
X25345295Y8066667D02*
X25392914Y8066667D01*
X25392914Y8066667D02*
X25488152Y8114286D01*
X25488152Y8114286D02*
X25535771Y8161905D01*
X25535771Y8161905D02*
X25583390Y8257143D01*
X25583390Y8257143D02*
X25583390Y8447619D01*
X25583390Y8447619D02*
X25631009Y8542857D01*
X25631009Y8542857D02*
X25678628Y8590476D01*
X25678628Y8590476D02*
X25773866Y8638095D01*
X25773866Y8638095D02*
X25964342Y8638095D01*
X25964342Y8638095D02*
X26059580Y8590476D01*
X26059580Y8590476D02*
X26107200Y8542857D01*
X26107200Y8542857D02*
X26154819Y8447619D01*
X26154819Y8447619D02*
X26154819Y8257143D01*
X26154819Y8257143D02*
X26107200Y8161905D01*
X26107200Y8161905D02*
X26059580Y8114286D01*
X26059580Y8114286D02*
X25964342Y8066667D01*
X25964342Y8066667D02*
X25773866Y8066667D01*
X25773866Y8066667D02*
X25678628Y8114286D01*
X25678628Y8114286D02*
X25631009Y8161905D01*
X25631009Y8161905D02*
X25583390Y8257143D01*
X26154819Y7114286D02*
X26154819Y7685714D01*
X26154819Y7400000D02*
X25154819Y7400000D01*
X25154819Y7400000D02*
X25297676Y7495238D01*
X25297676Y7495238D02*
X25392914Y7590476D01*
X25392914Y7590476D02*
X25440533Y7685714D01*
X25154819Y6780952D02*
X25154819Y6114286D01*
X25154819Y6114286D02*
X26154819Y6542857D01*
D10*
X22719047Y329492D02*
X23052380Y719968D01*
X23290475Y329492D02*
X23290475Y1149492D01*
X23290475Y1149492D02*
X22909523Y1149492D01*
X22909523Y1149492D02*
X22814285Y1110444D01*
X22814285Y1110444D02*
X22766666Y1071397D01*
X22766666Y1071397D02*
X22719047Y993301D01*
X22719047Y993301D02*
X22719047Y876159D01*
X22719047Y876159D02*
X22766666Y798063D01*
X22766666Y798063D02*
X22814285Y759016D01*
X22814285Y759016D02*
X22909523Y719968D01*
X22909523Y719968D02*
X23290475Y719968D01*
X22147618Y798063D02*
X22242856Y837111D01*
X22242856Y837111D02*
X22290475Y876159D01*
X22290475Y876159D02*
X22338094Y954254D01*
X22338094Y954254D02*
X22338094Y993301D01*
X22338094Y993301D02*
X22290475Y1071397D01*
X22290475Y1071397D02*
X22242856Y1110444D01*
X22242856Y1110444D02*
X22147618Y1149492D01*
X22147618Y1149492D02*
X21957142Y1149492D01*
X21957142Y1149492D02*
X21861904Y1110444D01*
X21861904Y1110444D02*
X21814285Y1071397D01*
X21814285Y1071397D02*
X21766666Y993301D01*
X21766666Y993301D02*
X21766666Y954254D01*
X21766666Y954254D02*
X21814285Y876159D01*
X21814285Y876159D02*
X21861904Y837111D01*
X21861904Y837111D02*
X21957142Y798063D01*
X21957142Y798063D02*
X22147618Y798063D01*
X22147618Y798063D02*
X22242856Y759016D01*
X22242856Y759016D02*
X22290475Y719968D01*
X22290475Y719968D02*
X22338094Y641873D01*
X22338094Y641873D02*
X22338094Y485682D01*
X22338094Y485682D02*
X22290475Y407587D01*
X22290475Y407587D02*
X22242856Y368539D01*
X22242856Y368539D02*
X22147618Y329492D01*
X22147618Y329492D02*
X21957142Y329492D01*
X21957142Y329492D02*
X21861904Y368539D01*
X21861904Y368539D02*
X21814285Y407587D01*
X21814285Y407587D02*
X21766666Y485682D01*
X21766666Y485682D02*
X21766666Y641873D01*
X21766666Y641873D02*
X21814285Y719968D01*
X21814285Y719968D02*
X21861904Y759016D01*
X21861904Y759016D02*
X21957142Y798063D01*
X20814285Y329492D02*
X21385713Y329492D01*
X21099999Y329492D02*
X21099999Y1149492D01*
X21099999Y1149492D02*
X21195237Y1032349D01*
X21195237Y1032349D02*
X21290475Y954254D01*
X21290475Y954254D02*
X21385713Y915206D01*
X19861904Y329492D02*
X20433332Y329492D01*
X20147618Y329492D02*
X20147618Y1149492D01*
X20147618Y1149492D02*
X20242856Y1032349D01*
X20242856Y1032349D02*
X20338094Y954254D01*
X20338094Y954254D02*
X20433332Y915206D01*
D12*
G04 #@! TO.C,M801*
X50000Y50000D02*
X44700000Y50000D01*
X44700000Y50000D02*
X44700000Y12450000D01*
X44700000Y12450000D02*
X50000Y12450000D01*
X50000Y12450000D02*
X50000Y50000D01*
D13*
G04 #@! TO.C,C809*
X25400000Y1950014D02*
X25400000Y2699999D01*
D14*
G04 #@! TO.C,R812*
X31310000Y10114564D02*
X31310000Y5760436D01*
X27890000Y10114564D02*
X27890000Y5760436D01*
D13*
G04 #@! TO.C,C807*
X9800000Y1950014D02*
X9800000Y2699999D01*
D14*
G04 #@! TO.C,R815*
X11810000Y10114564D02*
X11810000Y5760436D01*
X8390000Y10114564D02*
X8390000Y5760436D01*
G04 #@! TO.C,R806*
X7910000Y10114564D02*
X7910000Y5760436D01*
X4490000Y10114564D02*
X4490000Y5760436D01*
G04 #@! TO.C,R813*
X28472936Y3810000D02*
X29927064Y3810000D01*
X28472936Y1990000D02*
X29927064Y1990000D01*
D13*
G04 #@! TO.C,C808*
X17600000Y1950014D02*
X17600000Y2699999D01*
G04 #@! TO.C,C806*
X2000000Y1950014D02*
X2000000Y2699999D01*
D15*
G04 #@! TO.C,U801*
X44412600Y10110000D02*
X44412600Y2490000D01*
X33287400Y6604800D02*
X33287400Y10110000D01*
X33287400Y5995200D02*
X33287400Y6604800D01*
X33287400Y2490000D02*
X33287400Y5995200D01*
X33287400Y5995200D02*
G75*
G03*
X33287400Y6604800I0J304800D01*
G01*
D14*
X33600000Y11050000D02*
X33100000Y10750000D01*
X33100000Y11350000D01*
X33600000Y11050000D01*
G36*
X33600000Y11050000D02*
G01*
X33100000Y10750000D01*
X33100000Y11350000D01*
X33600000Y11050000D01*
G37*
G04 #@! TO.C,R816*
X19610000Y10114564D02*
X19610000Y5760436D01*
X16190000Y10114564D02*
X16190000Y5760436D01*
G04 #@! TO.C,R808*
X15710000Y10114564D02*
X15710000Y5760436D01*
X12290000Y10114564D02*
X12290000Y5760436D01*
G04 #@! TO.C,R814*
X4010000Y10114564D02*
X4010000Y5760436D01*
X590000Y10114564D02*
X590000Y5760436D01*
G04 #@! TO.C,R809*
X12872936Y3810000D02*
X14327064Y3810000D01*
X12872936Y1990000D02*
X14327064Y1990000D01*
G04 #@! TO.C,R810*
X23510000Y10114564D02*
X23510000Y5760436D01*
X20090000Y10114564D02*
X20090000Y5760436D01*
G04 #@! TO.C,R807*
X5072936Y3810000D02*
X6527064Y3810000D01*
X5072936Y1990000D02*
X6527064Y1990000D01*
G04 #@! TO.C,R817*
X27410000Y10114564D02*
X27410000Y5760436D01*
X23990000Y10114564D02*
X23990000Y5760436D01*
G04 #@! TO.C,R811*
X20672936Y3810000D02*
X22127064Y3810000D01*
X20672936Y1990000D02*
X22127064Y1990000D01*
G04 #@! TD*
M02*
