G75*
G70*
%OFA0B0*%
%FSLAX25Y25*%
%IPPOS*%
%LPD*%
%AMOC8*
5,1,8,0,0,1.08239X$1,22.5*
%
%AMM4*
21,1,0.040950,0.030320,0.000000,0.000000,180.000000*
21,1,0.028350,0.042910,0.000000,0.000000,180.000000*
1,1,0.012600,-0.014170,0.015160*
1,1,0.012600,0.014170,0.015160*
1,1,0.012600,0.014170,-0.015160*
1,1,0.012600,-0.014170,-0.015160*
%
%AMM5*
21,1,0.038980,0.026770,0.000000,0.000000,0.000000*
21,1,0.026770,0.038980,0.000000,0.000000,0.000000*
1,1,0.012210,0.013390,-0.013390*
1,1,0.012210,-0.013390,-0.013390*
1,1,0.012210,-0.013390,0.013390*
1,1,0.012210,0.013390,0.013390*
%
%AMM6*
21,1,0.033070,0.030710,0.000000,0.000000,180.000000*
21,1,0.022050,0.041730,0.000000,0.000000,180.000000*
1,1,0.011020,-0.011020,0.015350*
1,1,0.011020,0.011020,0.015350*
1,1,0.011020,0.011020,-0.015350*
1,1,0.011020,-0.011020,-0.015350*
%
%ADD10C,0.06693*%
%ADD14O,0.01969X0.00984*%
%ADD16O,0.00984X0.01969*%
%ADD17C,0.02362*%
%ADD31O,0.02520X0.01535*%
%ADD32O,0.01535X0.02520*%
%ADD33M4*%
%ADD34O,0.09213X0.02913*%
%ADD35M5*%
%ADD36M6*%
%ADD37C,0.02913*%
X0000000Y0000000D02*
%LPD*%
G01*
D10*
X0024409Y0007087D03*
X0006929Y0052756D03*
X0043701Y0052756D03*
D14*
X0046604Y0019514D03*
D16*
X0005856Y0019711D03*
X0007825Y0019711D03*
D17*
X0033612Y0023845D03*
X0030167Y0025912D03*
X0034793Y0028865D03*
X0034498Y0042841D03*
D10*
X0011024Y0007087D03*
X0019291Y0052756D03*
X0041339Y0007087D03*
X0031496Y0052756D03*
X0003297Y0018432D02*
G01*
G75*
D31*
X0046604Y0019515D02*
D03*
D32*
X0005856Y0019712D02*
D03*
X0007825Y0019712D02*
D03*
D33*
X0014714Y0031444D02*
D03*
X0010974Y0022192D02*
D03*
D33*
X0007234Y0031444D02*
D03*
D34*
X0022273Y0043058D02*
D03*
X0022273Y0038058D02*
D03*
X0022273Y0033058D02*
D03*
X0022273Y0028058D02*
D03*
X0041171Y0043058D02*
D03*
X0041171Y0038058D02*
D03*
X0041171Y0033058D02*
D03*
X0041171Y0028058D02*
D03*
D35*
X0037982Y0022763D02*
D03*
X0044202Y0022763D02*
D03*
X0029636Y0022763D02*
D03*
X0023415Y0022763D02*
D03*
D36*
X0007824Y0036345D02*
D03*
X0014124Y0036345D02*
D03*
D37*
X0018454Y0020302D02*
D03*
X0034498Y0042841D02*
D03*
X0034793Y0028865D02*
D03*
X0033612Y0023845D02*
D03*
X0030167Y0025912D02*
D03*
M02*
