G04*
G04 #@! TF.GenerationSoftware,Altium Limited,Altium Designer,20.0.10 (225)*
G04*
G04 Layer_Color=7674933*
%FSLAX25Y25*%
%MOIN*%
G70*
G01*
G75*
G04:AMPARAMS|DCode=17|XSize=84.25mil|YSize=62.6mil|CornerRadius=8.47mil|HoleSize=0mil|Usage=FLASHONLY|Rotation=270.000|XOffset=0mil|YOffset=0mil|HoleType=Round|Shape=RoundedRectangle|*
%AMROUNDEDRECTD17*
21,1,0.08425,0.04567,0,0,270.0*
21,1,0.06732,0.06260,0,0,270.0*
1,1,0.01693,-0.02284,-0.03366*
1,1,0.01693,-0.02284,0.03366*
1,1,0.01693,0.02284,0.03366*
1,1,0.01693,0.02284,-0.03366*
%
%ADD17ROUNDEDRECTD17*%
G04:AMPARAMS|DCode=18|XSize=64.57mil|YSize=31.1mil|CornerRadius=5.32mil|HoleSize=0mil|Usage=FLASHONLY|Rotation=270.000|XOffset=0mil|YOffset=0mil|HoleType=Round|Shape=RoundedRectangle|*
%AMROUNDEDRECTD18*
21,1,0.06457,0.02047,0,0,270.0*
21,1,0.05394,0.03110,0,0,270.0*
1,1,0.01063,-0.01024,-0.02697*
1,1,0.01063,-0.01024,0.02697*
1,1,0.01063,0.01024,0.02697*
1,1,0.01063,0.01024,-0.02697*
%
%ADD18ROUNDEDRECTD18*%
G04:AMPARAMS|DCode=19|XSize=38.98mil|YSize=38.98mil|CornerRadius=6.1mil|HoleSize=0mil|Usage=FLASHONLY|Rotation=90.000|XOffset=0mil|YOffset=0mil|HoleType=Round|Shape=RoundedRectangle|*
%AMROUNDEDRECTD19*
21,1,0.03898,0.02677,0,0,90.0*
21,1,0.02677,0.03898,0,0,90.0*
1,1,0.01221,0.01339,0.01339*
1,1,0.01221,0.01339,-0.01339*
1,1,0.01221,-0.01339,-0.01339*
1,1,0.01221,-0.01339,0.01339*
%
%ADD19ROUNDEDRECTD19*%
G04:AMPARAMS|DCode=20|XSize=33.07mil|YSize=41.73mil|CornerRadius=5.51mil|HoleSize=0mil|Usage=FLASHONLY|Rotation=270.000|XOffset=0mil|YOffset=0mil|HoleType=Round|Shape=RoundedRectangle|*
%AMROUNDEDRECTD20*
21,1,0.03307,0.03071,0,0,270.0*
21,1,0.02205,0.04173,0,0,270.0*
1,1,0.01102,-0.01535,-0.01102*
1,1,0.01102,-0.01535,0.01102*
1,1,0.01102,0.01535,0.01102*
1,1,0.01102,0.01535,-0.01102*
%
%ADD20ROUNDEDRECTD20*%
%ADD21C,0.02913*%
D17*
X17618Y48031D02*
D03*
Y15354D02*
D03*
X71752D02*
D03*
Y48031D02*
D03*
D18*
X62382Y37795D02*
D03*
X58051D02*
D03*
X53720D02*
D03*
X49390D02*
D03*
X45059D02*
D03*
X40728D02*
D03*
X36398D02*
D03*
X32067D02*
D03*
D19*
X11713Y52598D02*
D03*
Y58819D02*
D03*
X7087Y52598D02*
D03*
Y58819D02*
D03*
D20*
X2559Y58858D02*
D03*
Y52559D02*
D03*
D21*
X13484Y53445D02*
D03*
X40945Y31496D02*
D03*
X58268D02*
D03*
X49508D02*
D03*
X19685Y34134D02*
D03*
X36319Y31496D02*
D03*
X69701Y34170D02*
D03*
M02*
