G04*
G04 #@! TF.GenerationSoftware,Altium Limited,Altium Designer,24.1.2 (44)*
G04*
G04 Layer_Color=32896*
%FSLAX25Y25*%
%MOIN*%
G70*
G04*
G04 #@! TF.SameCoordinates,64876319-8F7E-4D7F-B011-834D707076D5*
G04*
G04*
G04 #@! TF.FilePolarity,Positive*
G04*
G01*
G75*
%ADD10C,0.00984*%
%ADD11C,0.00591*%
%ADD12C,0.00787*%
%ADD17C,0.00394*%
%ADD18C,0.00669*%
G36*
X62909Y12200D02*
X63042Y12190D01*
X63170Y12175D01*
X63293Y12156D01*
X63411Y12136D01*
X63524Y12106D01*
X63627Y12082D01*
X63726Y12052D01*
X63810Y12023D01*
X63888Y11998D01*
X63957Y11969D01*
X64011Y11949D01*
X64060Y11929D01*
X64090Y11914D01*
X64114Y11905D01*
X64119Y11900D01*
X64228Y11836D01*
X64331Y11772D01*
X64429Y11698D01*
X64518Y11624D01*
X64597Y11550D01*
X64675Y11472D01*
X64744Y11398D01*
X64803Y11324D01*
X64857Y11255D01*
X64907Y11191D01*
X64946Y11132D01*
X64980Y11083D01*
X65005Y11044D01*
X65025Y11009D01*
X65035Y10989D01*
X65039Y10985D01*
X65094Y10866D01*
X65143Y10753D01*
X65187Y10635D01*
X65222Y10517D01*
X65251Y10399D01*
X65276Y10286D01*
X65300Y10183D01*
X65315Y10079D01*
X65330Y9986D01*
X65340Y9897D01*
X65345Y9823D01*
X65349Y9755D01*
X65354Y9705D01*
Y9632D01*
X65345Y9425D01*
X65325Y9233D01*
X65310Y9140D01*
X65290Y9051D01*
X65276Y8967D01*
X65256Y8889D01*
X65236Y8815D01*
X65222Y8751D01*
X65202Y8697D01*
X65187Y8648D01*
X65177Y8608D01*
X65167Y8584D01*
X65158Y8564D01*
Y8559D01*
X65074Y8362D01*
X64980Y8175D01*
X64887Y8003D01*
X64838Y7924D01*
X64789Y7851D01*
X64744Y7787D01*
X64705Y7723D01*
X64670Y7668D01*
X64636Y7624D01*
X64611Y7590D01*
X64587Y7560D01*
X64577Y7546D01*
X64572Y7541D01*
X62697D01*
Y9676D01*
X63293D01*
Y8195D01*
X64233D01*
X64301Y8283D01*
X64370Y8387D01*
X64429Y8490D01*
X64483Y8589D01*
X64528Y8682D01*
X64547Y8721D01*
X64562Y8756D01*
X64577Y8785D01*
X64582Y8805D01*
X64592Y8820D01*
Y8825D01*
X64646Y8977D01*
X64685Y9130D01*
X64715Y9272D01*
X64734Y9400D01*
X64739Y9459D01*
X64744Y9514D01*
X64749Y9558D01*
Y9597D01*
X64754Y9627D01*
Y9671D01*
X64749Y9764D01*
X64744Y9853D01*
X64720Y10025D01*
X64685Y10187D01*
X64666Y10261D01*
X64646Y10325D01*
X64626Y10389D01*
X64606Y10443D01*
X64587Y10493D01*
X64572Y10532D01*
X64557Y10566D01*
X64547Y10591D01*
X64538Y10606D01*
Y10611D01*
X64493Y10689D01*
X64444Y10768D01*
X64395Y10837D01*
X64341Y10901D01*
X64282Y10965D01*
X64228Y11019D01*
X64174Y11068D01*
X64119Y11112D01*
X64065Y11152D01*
X64016Y11186D01*
X63977Y11216D01*
X63937Y11240D01*
X63908Y11260D01*
X63883Y11275D01*
X63868Y11280D01*
X63864Y11285D01*
X63775Y11324D01*
X63682Y11359D01*
X63495Y11417D01*
X63303Y11457D01*
X63214Y11477D01*
X63126Y11486D01*
X63042Y11496D01*
X62968Y11501D01*
X62904Y11511D01*
X62845D01*
X62796Y11516D01*
X62761D01*
X62742D01*
X62732D01*
X62530Y11506D01*
X62343Y11486D01*
X62255Y11472D01*
X62171Y11457D01*
X62092Y11437D01*
X62019Y11417D01*
X61955Y11403D01*
X61896Y11383D01*
X61841Y11368D01*
X61802Y11354D01*
X61763Y11344D01*
X61738Y11334D01*
X61723Y11324D01*
X61718D01*
X61620Y11280D01*
X61527Y11226D01*
X61443Y11176D01*
X61369Y11122D01*
X61305Y11078D01*
X61261Y11044D01*
X61231Y11019D01*
X61221Y11009D01*
X61138Y10926D01*
X61064Y10837D01*
X61005Y10748D01*
X60951Y10665D01*
X60907Y10586D01*
X60892Y10556D01*
X60877Y10527D01*
X60867Y10502D01*
X60857Y10488D01*
X60852Y10478D01*
Y10473D01*
X60803Y10345D01*
X60769Y10207D01*
X60744Y10074D01*
X60729Y9951D01*
X60720Y9892D01*
X60715Y9843D01*
Y9799D01*
X60710Y9759D01*
Y9681D01*
X60715Y9543D01*
X60729Y9410D01*
X60754Y9292D01*
X60774Y9189D01*
X60789Y9144D01*
X60798Y9105D01*
X60813Y9071D01*
X60823Y9041D01*
X60828Y9017D01*
X60838Y9002D01*
X60843Y8992D01*
Y8987D01*
X60897Y8874D01*
X60956Y8780D01*
X61015Y8697D01*
X61069Y8628D01*
X61118Y8574D01*
X61163Y8534D01*
X61187Y8515D01*
X61192Y8505D01*
X61197D01*
X61286Y8441D01*
X61384Y8387D01*
X61487Y8338D01*
X61581Y8298D01*
X61669Y8264D01*
X61709Y8249D01*
X61738Y8239D01*
X61763Y8229D01*
X61787Y8224D01*
X61797Y8219D01*
X61802D01*
X61640Y7619D01*
X61546Y7644D01*
X61458Y7673D01*
X61374Y7703D01*
X61295Y7732D01*
X61221Y7767D01*
X61153Y7796D01*
X61089Y7826D01*
X61035Y7860D01*
X60985Y7890D01*
X60941Y7914D01*
X60902Y7939D01*
X60872Y7959D01*
X60848Y7978D01*
X60828Y7993D01*
X60818Y7998D01*
X60813Y8003D01*
X60700Y8106D01*
X60602Y8219D01*
X60518Y8333D01*
X60449Y8446D01*
X60395Y8544D01*
X60370Y8589D01*
X60356Y8623D01*
X60341Y8653D01*
X60331Y8677D01*
X60321Y8692D01*
Y8697D01*
X60262Y8864D01*
X60218Y9036D01*
X60183Y9199D01*
X60174Y9277D01*
X60164Y9351D01*
X60154Y9420D01*
X60149Y9484D01*
X60144Y9543D01*
Y9587D01*
X60139Y9627D01*
Y9681D01*
X60144Y9819D01*
X60154Y9956D01*
X60169Y10084D01*
X60188Y10207D01*
X60213Y10325D01*
X60237Y10434D01*
X60267Y10537D01*
X60292Y10630D01*
X60321Y10714D01*
X60351Y10793D01*
X60375Y10857D01*
X60400Y10911D01*
X60420Y10955D01*
X60434Y10989D01*
X60444Y11009D01*
X60449Y11014D01*
X60513Y11117D01*
X60577Y11216D01*
X60651Y11309D01*
X60729Y11393D01*
X60808Y11477D01*
X60887Y11545D01*
X60966Y11614D01*
X61040Y11673D01*
X61113Y11727D01*
X61182Y11772D01*
X61241Y11811D01*
X61295Y11841D01*
X61340Y11865D01*
X61369Y11885D01*
X61389Y11895D01*
X61399Y11900D01*
X61522Y11954D01*
X61640Y11998D01*
X61763Y12042D01*
X61881Y12077D01*
X61999Y12106D01*
X62112Y12131D01*
X62220Y12151D01*
X62324Y12165D01*
X62417Y12180D01*
X62506Y12190D01*
X62579Y12195D01*
X62648Y12200D01*
X62697Y12205D01*
X62737D01*
X62761D01*
X62771D01*
X62909Y12200D01*
D02*
G37*
G36*
X64459Y38962D02*
X64567Y38937D01*
X64671Y38908D01*
X64769Y38873D01*
X64862Y38834D01*
X64946Y38794D01*
X65025Y38750D01*
X65094Y38706D01*
X65153Y38666D01*
X65207Y38622D01*
X65256Y38588D01*
X65295Y38553D01*
X65325Y38524D01*
X65345Y38504D01*
X65359Y38489D01*
X65364Y38484D01*
X65433Y38401D01*
X65492Y38312D01*
X65541Y38219D01*
X65586Y38125D01*
X65625Y38027D01*
X65654Y37933D01*
X65679Y37845D01*
X65699Y37756D01*
X65714Y37673D01*
X65728Y37599D01*
X65738Y37530D01*
X65743Y37471D01*
Y37422D01*
X65748Y37387D01*
Y37358D01*
X65743Y37205D01*
X65723Y37058D01*
X65694Y36925D01*
X65654Y36797D01*
X65605Y36679D01*
X65556Y36571D01*
X65502Y36472D01*
X65443Y36379D01*
X65384Y36300D01*
X65330Y36231D01*
X65281Y36172D01*
X65231Y36123D01*
X65192Y36083D01*
X65162Y36059D01*
X65143Y36039D01*
X65138Y36034D01*
X65044Y35965D01*
X64946Y35901D01*
X64843Y35847D01*
X64744Y35803D01*
X64646Y35764D01*
X64548Y35729D01*
X64449Y35705D01*
X64361Y35680D01*
X64277Y35665D01*
X64198Y35651D01*
X64129Y35641D01*
X64070Y35636D01*
X64021D01*
X63987Y35631D01*
X63967D01*
X63957D01*
X63824Y35636D01*
X63696Y35651D01*
X63578Y35675D01*
X63465Y35700D01*
X63362Y35739D01*
X63263Y35774D01*
X63175Y35818D01*
X63096Y35857D01*
X63022Y35901D01*
X62958Y35946D01*
X62904Y35980D01*
X62860Y36015D01*
X62826Y36044D01*
X62796Y36069D01*
X62781Y36083D01*
X62776Y36088D01*
X62698Y36177D01*
X62624Y36266D01*
X62565Y36359D01*
X62511Y36452D01*
X62466Y36546D01*
X62432Y36639D01*
X62402Y36733D01*
X62378Y36816D01*
X62358Y36895D01*
X62343Y36969D01*
X62334Y37038D01*
X62324Y37092D01*
Y37141D01*
X62319Y37176D01*
Y37205D01*
X62324Y37299D01*
X62334Y37392D01*
X62348Y37481D01*
X62368Y37564D01*
X62422Y37727D01*
X62447Y37800D01*
X62476Y37869D01*
X62511Y37933D01*
X62535Y37988D01*
X62565Y38042D01*
X62589Y38081D01*
X62609Y38115D01*
X62624Y38140D01*
X62634Y38155D01*
X62639Y38160D01*
X61276Y37889D01*
Y35867D01*
X60685D01*
Y38381D01*
X63278Y38868D01*
X63352Y38288D01*
X63278Y38234D01*
X63209Y38170D01*
X63150Y38111D01*
X63096Y38047D01*
X63057Y37997D01*
X63027Y37953D01*
X63008Y37923D01*
X63003Y37919D01*
Y37914D01*
X62958Y37820D01*
X62924Y37727D01*
X62899Y37638D01*
X62880Y37554D01*
X62870Y37481D01*
Y37451D01*
X62865Y37422D01*
Y37372D01*
X62870Y37284D01*
X62880Y37200D01*
X62894Y37121D01*
X62914Y37043D01*
X62939Y36974D01*
X62963Y36910D01*
X62993Y36851D01*
X63017Y36797D01*
X63047Y36753D01*
X63077Y36708D01*
X63101Y36674D01*
X63126Y36644D01*
X63145Y36620D01*
X63160Y36605D01*
X63170Y36595D01*
X63175Y36590D01*
X63234Y36536D01*
X63298Y36492D01*
X63367Y36452D01*
X63436Y36418D01*
X63504Y36388D01*
X63573Y36364D01*
X63706Y36329D01*
X63770Y36315D01*
X63829Y36305D01*
X63878Y36300D01*
X63923Y36295D01*
X63962Y36290D01*
X63987D01*
X64006D01*
X64011D01*
X64115Y36295D01*
X64208Y36305D01*
X64302Y36320D01*
X64385Y36339D01*
X64464Y36364D01*
X64538Y36388D01*
X64607Y36418D01*
X64666Y36443D01*
X64720Y36472D01*
X64769Y36502D01*
X64813Y36526D01*
X64843Y36551D01*
X64872Y36571D01*
X64892Y36585D01*
X64902Y36595D01*
X64907Y36600D01*
X64966Y36659D01*
X65015Y36723D01*
X65059Y36787D01*
X65099Y36851D01*
X65133Y36915D01*
X65158Y36974D01*
X65197Y37097D01*
X65212Y37151D01*
X65222Y37200D01*
X65231Y37244D01*
X65236Y37284D01*
X65241Y37313D01*
Y37358D01*
X65236Y37427D01*
X65231Y37490D01*
X65202Y37613D01*
X65167Y37722D01*
X65123Y37815D01*
X65079Y37894D01*
X65059Y37923D01*
X65039Y37948D01*
X65025Y37968D01*
X65015Y37982D01*
X65010Y37992D01*
X65005Y37997D01*
X64956Y38042D01*
X64907Y38086D01*
X64789Y38160D01*
X64671Y38214D01*
X64557Y38258D01*
X64449Y38293D01*
X64405Y38302D01*
X64366Y38312D01*
X64331Y38317D01*
X64306Y38322D01*
X64292Y38327D01*
X64287D01*
X64341Y38976D01*
X64459Y38962D01*
D02*
G37*
G36*
X65664Y33373D02*
Y32679D01*
X60621Y30706D01*
Y31385D01*
X64287Y32753D01*
X64439Y32807D01*
X64592Y32861D01*
X64730Y32905D01*
X64853Y32945D01*
X64912Y32964D01*
X64961Y32979D01*
X65005Y32989D01*
X65044Y33004D01*
X65074Y33013D01*
X65094Y33018D01*
X65108Y33023D01*
X65113D01*
X64966Y33068D01*
X64823Y33112D01*
X64685Y33156D01*
X64557Y33195D01*
X64498Y33215D01*
X64449Y33235D01*
X64400Y33250D01*
X64361Y33264D01*
X64331Y33274D01*
X64306Y33284D01*
X64292Y33289D01*
X64287D01*
X60621Y34598D01*
Y35321D01*
X65664Y33373D01*
D02*
G37*
G36*
X62506Y67215D02*
X62457Y67101D01*
X62402Y66993D01*
X62353Y66895D01*
X62309Y66806D01*
X62289Y66772D01*
X62270Y66737D01*
X62255Y66713D01*
X62245Y66693D01*
X62235Y66683D01*
Y66678D01*
X62156Y66550D01*
X62078Y66432D01*
X62004Y66329D01*
X61940Y66245D01*
X61886Y66176D01*
X61841Y66127D01*
X61827Y66113D01*
X61817Y66098D01*
X61807Y66093D01*
Y66088D01*
X65748D01*
Y65468D01*
X60685D01*
Y65871D01*
X60749Y65901D01*
X60808Y65940D01*
X60931Y66024D01*
X61045Y66113D01*
X61148Y66201D01*
X61192Y66245D01*
X61236Y66285D01*
X61271Y66324D01*
X61305Y66354D01*
X61330Y66378D01*
X61349Y66403D01*
X61359Y66413D01*
X61364Y66418D01*
X61487Y66570D01*
X61601Y66723D01*
X61704Y66875D01*
X61787Y67018D01*
X61827Y67082D01*
X61856Y67141D01*
X61886Y67190D01*
X61910Y67234D01*
X61930Y67274D01*
X61945Y67298D01*
X61950Y67318D01*
X61955Y67323D01*
X62550D01*
X62506Y67215D01*
D02*
G37*
G36*
X65748Y60632D02*
X65153D01*
Y63106D01*
X65089Y63067D01*
X65030Y63023D01*
X64976Y62979D01*
X64921Y62939D01*
X64882Y62900D01*
X64848Y62870D01*
X64823Y62851D01*
X64818Y62846D01*
X64784Y62811D01*
X64744Y62767D01*
X64695Y62718D01*
X64646Y62664D01*
X64543Y62546D01*
X64439Y62427D01*
X64341Y62309D01*
X64297Y62260D01*
X64257Y62216D01*
X64228Y62181D01*
X64203Y62152D01*
X64188Y62132D01*
X64183Y62127D01*
X64080Y62009D01*
X63987Y61896D01*
X63893Y61793D01*
X63810Y61699D01*
X63731Y61611D01*
X63657Y61537D01*
X63588Y61463D01*
X63529Y61404D01*
X63475Y61350D01*
X63431Y61301D01*
X63391Y61266D01*
X63357Y61232D01*
X63332Y61207D01*
X63313Y61193D01*
X63303Y61183D01*
X63298Y61178D01*
X63180Y61074D01*
X63067Y60991D01*
X62958Y60917D01*
X62870Y60863D01*
X62791Y60819D01*
X62762Y60804D01*
X62732Y60789D01*
X62712Y60779D01*
X62698Y60769D01*
X62688Y60764D01*
X62683D01*
X62575Y60720D01*
X62466Y60691D01*
X62363Y60666D01*
X62274Y60651D01*
X62196Y60641D01*
X62166D01*
X62137Y60637D01*
X62117D01*
X62102D01*
X62093D01*
X62088D01*
X61979Y60641D01*
X61876Y60656D01*
X61773Y60676D01*
X61679Y60701D01*
X61591Y60735D01*
X61512Y60769D01*
X61433Y60809D01*
X61364Y60848D01*
X61300Y60887D01*
X61246Y60927D01*
X61202Y60961D01*
X61163Y60996D01*
X61128Y61020D01*
X61108Y61040D01*
X61094Y61055D01*
X61089Y61060D01*
X61020Y61143D01*
X60956Y61232D01*
X60902Y61320D01*
X60857Y61419D01*
X60818Y61512D01*
X60784Y61611D01*
X60759Y61704D01*
X60734Y61793D01*
X60720Y61881D01*
X60705Y61960D01*
X60695Y62029D01*
X60690Y62088D01*
Y62142D01*
X60685Y62177D01*
Y62211D01*
X60690Y62344D01*
X60700Y62467D01*
X60720Y62585D01*
X60744Y62693D01*
X60774Y62796D01*
X60803Y62890D01*
X60838Y62974D01*
X60872Y63052D01*
X60907Y63121D01*
X60941Y63185D01*
X60971Y63234D01*
X61000Y63279D01*
X61025Y63313D01*
X61045Y63338D01*
X61054Y63352D01*
X61059Y63357D01*
X61133Y63431D01*
X61212Y63500D01*
X61295Y63559D01*
X61384Y63613D01*
X61478Y63657D01*
X61566Y63697D01*
X61655Y63731D01*
X61738Y63761D01*
X61822Y63780D01*
X61896Y63800D01*
X61964Y63815D01*
X62024Y63830D01*
X62073Y63835D01*
X62112Y63840D01*
X62132Y63844D01*
X62142D01*
X62206Y63210D01*
X62117Y63205D01*
X62038Y63200D01*
X61960Y63185D01*
X61891Y63170D01*
X61827Y63146D01*
X61763Y63126D01*
X61709Y63102D01*
X61659Y63077D01*
X61615Y63052D01*
X61576Y63028D01*
X61541Y63003D01*
X61517Y62983D01*
X61497Y62969D01*
X61478Y62954D01*
X61472Y62949D01*
X61468Y62944D01*
X61418Y62890D01*
X61379Y62836D01*
X61340Y62777D01*
X61310Y62718D01*
X61261Y62600D01*
X61231Y62482D01*
X61222Y62432D01*
X61212Y62383D01*
X61207Y62339D01*
X61202Y62300D01*
X61197Y62270D01*
Y62226D01*
X61202Y62147D01*
X61207Y62073D01*
X61236Y61940D01*
X61276Y61822D01*
X61300Y61768D01*
X61325Y61724D01*
X61349Y61680D01*
X61374Y61645D01*
X61394Y61611D01*
X61414Y61586D01*
X61428Y61566D01*
X61443Y61547D01*
X61448Y61542D01*
X61453Y61537D01*
X61502Y61488D01*
X61551Y61448D01*
X61605Y61414D01*
X61655Y61384D01*
X61758Y61335D01*
X61856Y61306D01*
X61945Y61286D01*
X61979Y61281D01*
X62009Y61276D01*
X62038Y61271D01*
X62058D01*
X62068D01*
X62073D01*
X62137Y61276D01*
X62206Y61286D01*
X62270Y61301D01*
X62339Y61316D01*
X62462Y61365D01*
X62575Y61419D01*
X62624Y61448D01*
X62673Y61473D01*
X62712Y61498D01*
X62747Y61522D01*
X62776Y61537D01*
X62796Y61552D01*
X62811Y61562D01*
X62816Y61566D01*
X62894Y61625D01*
X62973Y61699D01*
X63062Y61778D01*
X63150Y61862D01*
X63327Y62044D01*
X63500Y62231D01*
X63578Y62319D01*
X63652Y62403D01*
X63721Y62477D01*
X63775Y62546D01*
X63824Y62600D01*
X63859Y62644D01*
X63878Y62669D01*
X63888Y62678D01*
X63967Y62772D01*
X64046Y62865D01*
X64119Y62949D01*
X64188Y63028D01*
X64257Y63097D01*
X64321Y63165D01*
X64380Y63225D01*
X64429Y63279D01*
X64479Y63328D01*
X64523Y63367D01*
X64562Y63402D01*
X64592Y63431D01*
X64616Y63456D01*
X64636Y63471D01*
X64646Y63480D01*
X64651Y63485D01*
X64774Y63584D01*
X64892Y63667D01*
X65005Y63736D01*
X65108Y63795D01*
X65197Y63840D01*
X65231Y63854D01*
X65261Y63869D01*
X65285Y63879D01*
X65305Y63889D01*
X65315Y63894D01*
X65320D01*
X65399Y63918D01*
X65473Y63938D01*
X65546Y63948D01*
X65610Y63958D01*
X65669Y63963D01*
X65709D01*
X65738D01*
X65743D01*
X65748D01*
Y60632D01*
D02*
G37*
G36*
Y58280D02*
Y57586D01*
X60705Y55613D01*
Y56292D01*
X64370Y57660D01*
X64523Y57714D01*
X64675Y57768D01*
X64813Y57812D01*
X64936Y57852D01*
X64995Y57872D01*
X65044Y57886D01*
X65089Y57896D01*
X65128Y57911D01*
X65158Y57921D01*
X65177Y57926D01*
X65192Y57931D01*
X65197D01*
X65049Y57975D01*
X64907Y58019D01*
X64769Y58063D01*
X64641Y58103D01*
X64582Y58122D01*
X64533Y58142D01*
X64484Y58157D01*
X64444Y58172D01*
X64415Y58182D01*
X64390Y58191D01*
X64375Y58196D01*
X64370D01*
X60705Y59505D01*
Y60228D01*
X65748Y58280D01*
D02*
G37*
G36*
X5404Y21639D02*
X5512Y21614D01*
X5615Y21585D01*
X5714Y21550D01*
X5807Y21511D01*
X5891Y21472D01*
X5970Y21427D01*
X6039Y21383D01*
X6098Y21344D01*
X6152Y21299D01*
X6201Y21265D01*
X6240Y21230D01*
X6270Y21201D01*
X6289Y21181D01*
X6304Y21167D01*
X6309Y21161D01*
X6378Y21078D01*
X6437Y20989D01*
X6486Y20896D01*
X6531Y20802D01*
X6570Y20704D01*
X6599Y20610D01*
X6624Y20522D01*
X6644Y20433D01*
X6658Y20350D01*
X6673Y20276D01*
X6683Y20207D01*
X6688Y20148D01*
Y20099D01*
X6693Y20064D01*
Y20035D01*
X6688Y19882D01*
X6668Y19735D01*
X6639Y19602D01*
X6599Y19474D01*
X6550Y19356D01*
X6501Y19248D01*
X6447Y19149D01*
X6388Y19056D01*
X6329Y18977D01*
X6275Y18908D01*
X6225Y18849D01*
X6176Y18800D01*
X6137Y18761D01*
X6107Y18736D01*
X6088Y18716D01*
X6083Y18711D01*
X5989Y18643D01*
X5891Y18578D01*
X5788Y18524D01*
X5689Y18480D01*
X5591Y18441D01*
X5492Y18406D01*
X5394Y18382D01*
X5305Y18357D01*
X5222Y18342D01*
X5143Y18328D01*
X5074Y18318D01*
X5015Y18313D01*
X4966D01*
X4932Y18308D01*
X4912D01*
X4902D01*
X4769Y18313D01*
X4641Y18328D01*
X4523Y18352D01*
X4410Y18377D01*
X4307Y18416D01*
X4208Y18451D01*
X4120Y18495D01*
X4041Y18534D01*
X3967Y18578D01*
X3903Y18623D01*
X3849Y18657D01*
X3805Y18692D01*
X3770Y18721D01*
X3741Y18746D01*
X3726Y18761D01*
X3721Y18766D01*
X3642Y18854D01*
X3569Y18943D01*
X3510Y19036D01*
X3456Y19130D01*
X3411Y19223D01*
X3377Y19317D01*
X3347Y19410D01*
X3323Y19494D01*
X3303Y19572D01*
X3288Y19646D01*
X3278Y19715D01*
X3269Y19769D01*
Y19818D01*
X3264Y19853D01*
Y19882D01*
X3269Y19976D01*
X3278Y20069D01*
X3293Y20158D01*
X3313Y20242D01*
X3367Y20404D01*
X3392Y20478D01*
X3421Y20547D01*
X3456Y20610D01*
X3480Y20665D01*
X3510Y20719D01*
X3534Y20758D01*
X3554Y20793D01*
X3569Y20817D01*
X3579Y20832D01*
X3584Y20837D01*
X2221Y20566D01*
Y18544D01*
X1630D01*
Y21058D01*
X4223Y21545D01*
X4297Y20965D01*
X4223Y20911D01*
X4154Y20847D01*
X4095Y20788D01*
X4041Y20724D01*
X4002Y20674D01*
X3972Y20630D01*
X3952Y20601D01*
X3948Y20596D01*
Y20591D01*
X3903Y20497D01*
X3869Y20404D01*
X3844Y20315D01*
X3824Y20232D01*
X3815Y20158D01*
Y20128D01*
X3810Y20099D01*
Y20050D01*
X3815Y19961D01*
X3824Y19877D01*
X3839Y19799D01*
X3859Y19720D01*
X3884Y19651D01*
X3908Y19587D01*
X3938Y19528D01*
X3962Y19474D01*
X3992Y19430D01*
X4021Y19385D01*
X4046Y19351D01*
X4071Y19321D01*
X4090Y19297D01*
X4105Y19282D01*
X4115Y19272D01*
X4120Y19267D01*
X4179Y19213D01*
X4243Y19169D01*
X4312Y19130D01*
X4380Y19095D01*
X4449Y19066D01*
X4518Y19041D01*
X4651Y19007D01*
X4715Y18992D01*
X4774Y18982D01*
X4823Y18977D01*
X4868Y18972D01*
X4907Y18967D01*
X4932D01*
X4951D01*
X4956D01*
X5060Y18972D01*
X5153Y18982D01*
X5246Y18997D01*
X5330Y19016D01*
X5409Y19041D01*
X5483Y19066D01*
X5551Y19095D01*
X5610Y19120D01*
X5665Y19149D01*
X5714Y19179D01*
X5758Y19203D01*
X5788Y19228D01*
X5817Y19248D01*
X5837Y19262D01*
X5847Y19272D01*
X5852Y19277D01*
X5911Y19336D01*
X5960Y19400D01*
X6004Y19464D01*
X6044Y19528D01*
X6078Y19592D01*
X6103Y19651D01*
X6142Y19774D01*
X6157Y19828D01*
X6166Y19877D01*
X6176Y19922D01*
X6181Y19961D01*
X6186Y19991D01*
Y20035D01*
X6181Y20104D01*
X6176Y20168D01*
X6147Y20291D01*
X6112Y20399D01*
X6068Y20492D01*
X6024Y20571D01*
X6004Y20601D01*
X5984Y20625D01*
X5970Y20645D01*
X5960Y20660D01*
X5955Y20670D01*
X5950Y20674D01*
X5901Y20719D01*
X5852Y20763D01*
X5734Y20837D01*
X5615Y20891D01*
X5502Y20935D01*
X5394Y20970D01*
X5350Y20979D01*
X5310Y20989D01*
X5276Y20994D01*
X5251Y20999D01*
X5237Y21004D01*
X5232D01*
X5286Y21654D01*
X5404Y21639D01*
D02*
G37*
G36*
X6609Y16050D02*
Y15356D01*
X1566Y13383D01*
Y14062D01*
X5232Y15430D01*
X5384Y15484D01*
X5537Y15538D01*
X5675Y15582D01*
X5798Y15622D01*
X5856Y15641D01*
X5906Y15656D01*
X5950Y15666D01*
X5989Y15681D01*
X6019Y15690D01*
X6039Y15695D01*
X6053Y15700D01*
X6058D01*
X5911Y15745D01*
X5768Y15789D01*
X5630Y15833D01*
X5502Y15872D01*
X5443Y15892D01*
X5394Y15912D01*
X5345Y15927D01*
X5305Y15941D01*
X5276Y15951D01*
X5251Y15961D01*
X5237Y15966D01*
X5232D01*
X1566Y17275D01*
Y17998D01*
X6609Y16050D01*
D02*
G37*
G36*
Y12119D02*
X4558D01*
Y10825D01*
X4553Y10633D01*
X4538Y10456D01*
X4518Y10293D01*
X4489Y10146D01*
X4454Y10008D01*
X4415Y9890D01*
X4376Y9782D01*
X4336Y9688D01*
X4297Y9605D01*
X4253Y9536D01*
X4218Y9477D01*
X4184Y9427D01*
X4154Y9393D01*
X4135Y9368D01*
X4120Y9353D01*
X4115Y9349D01*
X4026Y9275D01*
X3938Y9211D01*
X3849Y9157D01*
X3756Y9108D01*
X3662Y9068D01*
X3574Y9034D01*
X3485Y9009D01*
X3401Y8985D01*
X3323Y8970D01*
X3254Y8955D01*
X3190Y8950D01*
X3136Y8940D01*
X3091D01*
X3057Y8935D01*
X3032D01*
X3028D01*
X2890Y8940D01*
X2762Y8960D01*
X2644Y8985D01*
X2540Y9014D01*
X2496Y9029D01*
X2457Y9044D01*
X2422Y9058D01*
X2393Y9068D01*
X2368Y9078D01*
X2354Y9088D01*
X2344Y9093D01*
X2339D01*
X2226Y9152D01*
X2127Y9221D01*
X2048Y9290D01*
X1975Y9353D01*
X1921Y9408D01*
X1881Y9457D01*
X1861Y9486D01*
X1852Y9491D01*
Y9496D01*
X1793Y9595D01*
X1743Y9698D01*
X1699Y9806D01*
X1670Y9905D01*
X1645Y9988D01*
X1635Y10028D01*
X1630Y10057D01*
X1620Y10087D01*
Y10106D01*
X1616Y10116D01*
Y10121D01*
X1606Y10170D01*
X1601Y10229D01*
X1586Y10352D01*
X1576Y10480D01*
X1571Y10603D01*
Y10662D01*
X1566Y10716D01*
Y12788D01*
X6609D01*
Y12119D01*
D02*
G37*
G36*
X58578Y46083D02*
Y45389D01*
X53535Y43417D01*
Y44096D01*
X57200Y45463D01*
X57353Y45517D01*
X57505Y45572D01*
X57643Y45616D01*
X57766Y45655D01*
X57825Y45675D01*
X57874Y45690D01*
X57919Y45699D01*
X57958Y45714D01*
X57987Y45724D01*
X58007Y45729D01*
X58022Y45734D01*
X58027D01*
X57879Y45778D01*
X57736Y45822D01*
X57599Y45867D01*
X57471Y45906D01*
X57412Y45926D01*
X57363Y45945D01*
X57313Y45960D01*
X57274Y45975D01*
X57244Y45985D01*
X57220Y45995D01*
X57205Y46000D01*
X57200D01*
X53535Y47308D01*
Y48031D01*
X58578Y46083D01*
D02*
G37*
G36*
Y42034D02*
X53535D01*
Y42703D01*
X58578D01*
Y42034D01*
D02*
G37*
G36*
X56216Y41025D02*
X56349Y41016D01*
X56477Y41001D01*
X56600Y40981D01*
X56718Y40962D01*
X56831Y40932D01*
X56934Y40907D01*
X57033Y40878D01*
X57117Y40848D01*
X57195Y40824D01*
X57264Y40794D01*
X57318Y40775D01*
X57367Y40755D01*
X57397Y40740D01*
X57422Y40730D01*
X57427Y40725D01*
X57535Y40661D01*
X57638Y40597D01*
X57736Y40524D01*
X57825Y40450D01*
X57904Y40376D01*
X57982Y40297D01*
X58051Y40224D01*
X58110Y40150D01*
X58165Y40081D01*
X58214Y40017D01*
X58253Y39958D01*
X58288Y39909D01*
X58312Y39869D01*
X58332Y39835D01*
X58342Y39815D01*
X58346Y39810D01*
X58401Y39692D01*
X58450Y39579D01*
X58494Y39461D01*
X58529Y39343D01*
X58558Y39225D01*
X58583Y39112D01*
X58607Y39008D01*
X58622Y38905D01*
X58637Y38811D01*
X58647Y38723D01*
X58652Y38649D01*
X58657Y38580D01*
X58661Y38531D01*
Y38457D01*
X58652Y38250D01*
X58632Y38059D01*
X58617Y37965D01*
X58597Y37877D01*
X58583Y37793D01*
X58563Y37714D01*
X58543Y37640D01*
X58529Y37576D01*
X58509Y37522D01*
X58494Y37473D01*
X58484Y37434D01*
X58474Y37409D01*
X58465Y37389D01*
Y37385D01*
X58381Y37188D01*
X58288Y37001D01*
X58194Y36829D01*
X58145Y36750D01*
X58096Y36676D01*
X58051Y36612D01*
X58012Y36548D01*
X57977Y36494D01*
X57943Y36450D01*
X57919Y36415D01*
X57894Y36386D01*
X57884Y36371D01*
X57879Y36366D01*
X56005D01*
Y38501D01*
X56600D01*
Y37020D01*
X57540D01*
X57608Y37109D01*
X57677Y37212D01*
X57736Y37316D01*
X57791Y37414D01*
X57835Y37508D01*
X57854Y37547D01*
X57869Y37581D01*
X57884Y37611D01*
X57889Y37631D01*
X57899Y37645D01*
Y37650D01*
X57953Y37803D01*
X57992Y37955D01*
X58022Y38098D01*
X58042Y38226D01*
X58046Y38285D01*
X58051Y38339D01*
X58056Y38383D01*
Y38423D01*
X58061Y38452D01*
Y38497D01*
X58056Y38590D01*
X58051Y38679D01*
X58027Y38851D01*
X57992Y39013D01*
X57973Y39087D01*
X57953Y39151D01*
X57933Y39215D01*
X57914Y39269D01*
X57894Y39318D01*
X57879Y39358D01*
X57864Y39392D01*
X57854Y39417D01*
X57845Y39431D01*
Y39436D01*
X57800Y39515D01*
X57751Y39594D01*
X57702Y39663D01*
X57648Y39726D01*
X57589Y39790D01*
X57535Y39845D01*
X57481Y39894D01*
X57427Y39938D01*
X57372Y39977D01*
X57323Y40012D01*
X57284Y40041D01*
X57244Y40066D01*
X57215Y40086D01*
X57190Y40100D01*
X57176Y40105D01*
X57171Y40110D01*
X57082Y40150D01*
X56989Y40184D01*
X56802Y40243D01*
X56610Y40282D01*
X56521Y40302D01*
X56433Y40312D01*
X56349Y40322D01*
X56275Y40327D01*
X56211Y40337D01*
X56152D01*
X56103Y40341D01*
X56069D01*
X56049D01*
X56039D01*
X55837Y40332D01*
X55650Y40312D01*
X55562Y40297D01*
X55478Y40282D01*
X55400Y40263D01*
X55326Y40243D01*
X55262Y40228D01*
X55203Y40209D01*
X55149Y40194D01*
X55109Y40179D01*
X55070Y40169D01*
X55045Y40159D01*
X55030Y40150D01*
X55026D01*
X54927Y40105D01*
X54834Y40051D01*
X54750Y40002D01*
X54676Y39948D01*
X54612Y39904D01*
X54568Y39869D01*
X54539Y39845D01*
X54529Y39835D01*
X54445Y39751D01*
X54371Y39663D01*
X54312Y39574D01*
X54258Y39490D01*
X54214Y39412D01*
X54199Y39382D01*
X54184Y39353D01*
X54174Y39328D01*
X54164Y39313D01*
X54160Y39303D01*
Y39298D01*
X54110Y39171D01*
X54076Y39033D01*
X54051Y38900D01*
X54037Y38777D01*
X54027Y38718D01*
X54022Y38669D01*
Y38625D01*
X54017Y38585D01*
Y38506D01*
X54022Y38369D01*
X54037Y38236D01*
X54061Y38118D01*
X54081Y38014D01*
X54096Y37970D01*
X54106Y37931D01*
X54120Y37896D01*
X54130Y37867D01*
X54135Y37842D01*
X54145Y37827D01*
X54150Y37818D01*
Y37813D01*
X54204Y37699D01*
X54263Y37606D01*
X54322Y37522D01*
X54376Y37453D01*
X54425Y37399D01*
X54470Y37360D01*
X54494Y37340D01*
X54499Y37330D01*
X54504D01*
X54593Y37266D01*
X54691Y37212D01*
X54794Y37163D01*
X54888Y37124D01*
X54976Y37089D01*
X55016Y37075D01*
X55045Y37065D01*
X55070Y37055D01*
X55094Y37050D01*
X55104Y37045D01*
X55109D01*
X54947Y36445D01*
X54853Y36470D01*
X54765Y36499D01*
X54681Y36529D01*
X54602Y36558D01*
X54529Y36593D01*
X54460Y36622D01*
X54396Y36652D01*
X54342Y36686D01*
X54292Y36715D01*
X54248Y36740D01*
X54209Y36765D01*
X54179Y36784D01*
X54155Y36804D01*
X54135Y36819D01*
X54125Y36824D01*
X54120Y36829D01*
X54007Y36932D01*
X53909Y37045D01*
X53825Y37158D01*
X53756Y37271D01*
X53702Y37370D01*
X53677Y37414D01*
X53663Y37449D01*
X53648Y37478D01*
X53638Y37503D01*
X53628Y37517D01*
Y37522D01*
X53569Y37690D01*
X53525Y37862D01*
X53491Y38024D01*
X53481Y38103D01*
X53471Y38177D01*
X53461Y38246D01*
X53456Y38310D01*
X53451Y38369D01*
Y38413D01*
X53446Y38452D01*
Y38506D01*
X53451Y38644D01*
X53461Y38782D01*
X53476Y38910D01*
X53495Y39033D01*
X53520Y39151D01*
X53545Y39259D01*
X53574Y39362D01*
X53599Y39456D01*
X53628Y39540D01*
X53658Y39618D01*
X53682Y39682D01*
X53707Y39736D01*
X53727Y39781D01*
X53741Y39815D01*
X53751Y39835D01*
X53756Y39840D01*
X53820Y39943D01*
X53884Y40041D01*
X53958Y40135D01*
X54037Y40218D01*
X54115Y40302D01*
X54194Y40371D01*
X54273Y40440D01*
X54347Y40499D01*
X54420Y40553D01*
X54489Y40597D01*
X54548Y40637D01*
X54602Y40666D01*
X54647Y40691D01*
X54676Y40710D01*
X54696Y40720D01*
X54706Y40725D01*
X54829Y40779D01*
X54947Y40824D01*
X55070Y40868D01*
X55188Y40902D01*
X55306Y40932D01*
X55419Y40957D01*
X55527Y40976D01*
X55631Y40991D01*
X55724Y41006D01*
X55813Y41016D01*
X55887Y41021D01*
X55955Y41025D01*
X56005Y41030D01*
X56044D01*
X56069D01*
X56078D01*
X56216Y41025D01*
D02*
G37*
G36*
X58578Y34747D02*
X54622D01*
X58578Y32100D01*
Y31412D01*
X53535D01*
Y32051D01*
X57495D01*
X53535Y34703D01*
Y35387D01*
X58578D01*
Y34747D01*
D02*
G37*
G36*
X8898Y6735D02*
X8984Y6727D01*
X9063Y6715D01*
X9137Y6696D01*
X9208Y6676D01*
X9275Y6652D01*
X9338Y6629D01*
X9393Y6601D01*
X9440Y6578D01*
X9487Y6550D01*
X9522Y6527D01*
X9554Y6507D01*
X9582Y6487D01*
X9597Y6476D01*
X9609Y6468D01*
X9613Y6464D01*
X9668Y6409D01*
X9723Y6354D01*
X9770Y6291D01*
X9809Y6228D01*
X9849Y6165D01*
X9880Y6098D01*
X9912Y6035D01*
X9935Y5976D01*
X9959Y5917D01*
X9974Y5866D01*
X9990Y5815D01*
X10002Y5776D01*
X10010Y5741D01*
X10018Y5717D01*
X10022Y5697D01*
Y5693D01*
X9526Y5607D01*
X9515Y5674D01*
X9503Y5733D01*
X9483Y5792D01*
X9467Y5843D01*
X9448Y5894D01*
X9428Y5937D01*
X9405Y5976D01*
X9385Y6016D01*
X9365Y6047D01*
X9346Y6075D01*
X9330Y6098D01*
X9314Y6114D01*
X9302Y6130D01*
X9291Y6141D01*
X9287Y6145D01*
X9283Y6149D01*
X9247Y6181D01*
X9208Y6212D01*
X9126Y6255D01*
X9047Y6291D01*
X8968Y6310D01*
X8902Y6326D01*
X8874Y6330D01*
X8847D01*
X8827Y6334D01*
X8744D01*
X8697Y6326D01*
X8603Y6306D01*
X8520Y6275D01*
X8454Y6244D01*
X8399Y6212D01*
X8355Y6181D01*
X8343Y6169D01*
X8332Y6161D01*
X8328Y6157D01*
X8324Y6153D01*
X8292Y6118D01*
X8261Y6083D01*
X8218Y6008D01*
X8182Y5933D01*
X8163Y5862D01*
X8147Y5799D01*
X8143Y5772D01*
Y5748D01*
X8139Y5729D01*
Y5713D01*
Y5705D01*
Y5701D01*
X8143Y5638D01*
X8151Y5583D01*
X8163Y5528D01*
X8179Y5477D01*
X8198Y5434D01*
X8222Y5391D01*
X8241Y5351D01*
X8265Y5320D01*
X8292Y5289D01*
X8312Y5265D01*
X8336Y5241D01*
X8355Y5226D01*
X8371Y5210D01*
X8383Y5202D01*
X8391Y5198D01*
X8395Y5194D01*
X8493Y5139D01*
X8591Y5100D01*
X8685Y5069D01*
X8776Y5049D01*
X8815Y5045D01*
X8850Y5037D01*
X8882Y5033D01*
X8909D01*
X8933Y5029D01*
X8988D01*
X9016Y5033D01*
X9035Y5037D01*
X9043D01*
X9098Y4605D01*
X9023Y4620D01*
X8957Y4636D01*
X8898Y4644D01*
X8847Y4648D01*
X8807Y4652D01*
X8776Y4656D01*
X8752D01*
X8689Y4652D01*
X8630Y4648D01*
X8520Y4620D01*
X8422Y4585D01*
X8379Y4566D01*
X8340Y4546D01*
X8304Y4526D01*
X8277Y4507D01*
X8249Y4487D01*
X8226Y4471D01*
X8210Y4456D01*
X8198Y4444D01*
X8190Y4440D01*
X8186Y4436D01*
X8147Y4393D01*
X8112Y4349D01*
X8084Y4302D01*
X8057Y4255D01*
X8033Y4208D01*
X8017Y4161D01*
X7990Y4074D01*
X7982Y4031D01*
X7974Y3996D01*
X7970Y3960D01*
X7966Y3933D01*
X7962Y3905D01*
Y3890D01*
Y3878D01*
Y3874D01*
X7966Y3807D01*
X7974Y3744D01*
X7986Y3685D01*
X7998Y3630D01*
X8037Y3528D01*
X8061Y3481D01*
X8080Y3441D01*
X8104Y3402D01*
X8127Y3371D01*
X8147Y3343D01*
X8163Y3320D01*
X8179Y3300D01*
X8190Y3288D01*
X8198Y3280D01*
X8202Y3277D01*
X8249Y3233D01*
X8296Y3198D01*
X8343Y3166D01*
X8395Y3139D01*
X8446Y3115D01*
X8493Y3096D01*
X8587Y3068D01*
X8630Y3056D01*
X8670Y3049D01*
X8701Y3045D01*
X8733Y3041D01*
X8756Y3037D01*
X8792D01*
X8847Y3041D01*
X8898Y3045D01*
X8992Y3064D01*
X9078Y3096D01*
X9153Y3131D01*
X9212Y3162D01*
X9236Y3178D01*
X9255Y3194D01*
X9271Y3206D01*
X9283Y3214D01*
X9287Y3221D01*
X9291D01*
X9326Y3261D01*
X9361Y3300D01*
X9420Y3394D01*
X9471Y3497D01*
X9511Y3595D01*
X9526Y3642D01*
X9542Y3685D01*
X9554Y3728D01*
X9562Y3760D01*
X9570Y3791D01*
X9574Y3811D01*
X9578Y3827D01*
Y3831D01*
X10073Y3764D01*
X10061Y3669D01*
X10041Y3583D01*
X10018Y3500D01*
X9990Y3422D01*
X9959Y3347D01*
X9927Y3280D01*
X9892Y3218D01*
X9857Y3162D01*
X9821Y3111D01*
X9790Y3068D01*
X9758Y3033D01*
X9731Y3001D01*
X9707Y2974D01*
X9691Y2958D01*
X9680Y2946D01*
X9676Y2942D01*
X9609Y2887D01*
X9538Y2840D01*
X9464Y2797D01*
X9389Y2762D01*
X9318Y2730D01*
X9244Y2707D01*
X9173Y2683D01*
X9106Y2667D01*
X9039Y2655D01*
X8980Y2644D01*
X8929Y2636D01*
X8882Y2632D01*
X8847D01*
X8819Y2628D01*
X8795D01*
X8685Y2632D01*
X8583Y2644D01*
X8485Y2663D01*
X8395Y2687D01*
X8308Y2715D01*
X8230Y2742D01*
X8155Y2777D01*
X8088Y2813D01*
X8025Y2844D01*
X7974Y2880D01*
X7927Y2907D01*
X7892Y2939D01*
X7860Y2958D01*
X7836Y2978D01*
X7825Y2990D01*
X7821Y2994D01*
X7754Y3064D01*
X7695Y3135D01*
X7644Y3214D01*
X7597Y3288D01*
X7562Y3363D01*
X7530Y3438D01*
X7502Y3508D01*
X7483Y3575D01*
X7467Y3642D01*
X7455Y3701D01*
X7447Y3752D01*
X7440Y3799D01*
Y3835D01*
X7436Y3862D01*
Y3882D01*
Y3886D01*
X7440Y3956D01*
X7444Y4027D01*
X7467Y4153D01*
X7483Y4208D01*
X7499Y4263D01*
X7518Y4310D01*
X7534Y4357D01*
X7554Y4397D01*
X7573Y4432D01*
X7589Y4463D01*
X7605Y4487D01*
X7616Y4507D01*
X7628Y4522D01*
X7632Y4530D01*
X7636Y4534D01*
X7675Y4581D01*
X7715Y4625D01*
X7805Y4695D01*
X7899Y4758D01*
X7986Y4801D01*
X8068Y4837D01*
X8100Y4848D01*
X8131Y4860D01*
X8155Y4868D01*
X8174Y4872D01*
X8186Y4876D01*
X8190D01*
X8092Y4927D01*
X8010Y4982D01*
X7939Y5037D01*
X7880Y5092D01*
X7833Y5139D01*
X7801Y5179D01*
X7789Y5194D01*
X7782Y5206D01*
X7774Y5210D01*
Y5214D01*
X7727Y5297D01*
X7691Y5379D01*
X7668Y5458D01*
X7648Y5532D01*
X7640Y5595D01*
X7636Y5623D01*
Y5646D01*
X7632Y5666D01*
Y5678D01*
Y5686D01*
Y5689D01*
X7640Y5792D01*
X7656Y5886D01*
X7679Y5976D01*
X7707Y6051D01*
X7734Y6118D01*
X7746Y6145D01*
X7758Y6165D01*
X7766Y6185D01*
X7774Y6196D01*
X7782Y6204D01*
Y6208D01*
X7841Y6295D01*
X7907Y6373D01*
X7978Y6440D01*
X8049Y6495D01*
X8112Y6538D01*
X8135Y6558D01*
X8159Y6570D01*
X8179Y6582D01*
X8194Y6589D01*
X8202Y6597D01*
X8206D01*
X8312Y6645D01*
X8418Y6680D01*
X8516Y6703D01*
X8611Y6723D01*
X8654Y6727D01*
X8693Y6731D01*
X8725Y6735D01*
X8756D01*
X8780Y6739D01*
X8811D01*
X8898Y6735D01*
D02*
G37*
G36*
X34808Y6735D02*
X34906Y6727D01*
X35001Y6711D01*
X35087Y6692D01*
X35170Y6668D01*
X35244Y6645D01*
X35311Y6617D01*
X35374Y6589D01*
X35429Y6562D01*
X35480Y6534D01*
X35519Y6511D01*
X35555Y6487D01*
X35582Y6468D01*
X35602Y6452D01*
X35614Y6444D01*
X35618Y6440D01*
X35677Y6381D01*
X35732Y6318D01*
X35779Y6251D01*
X35822Y6181D01*
X35857Y6106D01*
X35889Y6035D01*
X35916Y5965D01*
X35940Y5898D01*
X35956Y5831D01*
X35971Y5772D01*
X35983Y5717D01*
X35995Y5670D01*
X35999Y5631D01*
X36003Y5599D01*
X36007Y5583D01*
Y5576D01*
X35500Y5525D01*
X35496Y5595D01*
X35492Y5658D01*
X35480Y5721D01*
X35468Y5776D01*
X35449Y5827D01*
X35433Y5878D01*
X35413Y5921D01*
X35394Y5961D01*
X35374Y5996D01*
X35354Y6027D01*
X35335Y6055D01*
X35319Y6075D01*
X35307Y6090D01*
X35296Y6106D01*
X35291Y6110D01*
X35288Y6114D01*
X35244Y6153D01*
X35201Y6185D01*
X35154Y6216D01*
X35107Y6240D01*
X35013Y6279D01*
X34918Y6303D01*
X34879Y6311D01*
X34840Y6318D01*
X34804Y6322D01*
X34773Y6326D01*
X34749Y6330D01*
X34714D01*
X34651Y6326D01*
X34592Y6322D01*
X34486Y6299D01*
X34392Y6267D01*
X34348Y6248D01*
X34313Y6228D01*
X34278Y6208D01*
X34250Y6189D01*
X34223Y6173D01*
X34203Y6157D01*
X34187Y6145D01*
X34172Y6134D01*
X34168Y6130D01*
X34164Y6126D01*
X34124Y6086D01*
X34093Y6047D01*
X34065Y6004D01*
X34042Y5965D01*
X34003Y5882D01*
X33979Y5804D01*
X33963Y5733D01*
X33959Y5705D01*
X33955Y5682D01*
X33951Y5658D01*
Y5642D01*
Y5635D01*
Y5631D01*
X33955Y5579D01*
X33963Y5525D01*
X33975Y5473D01*
X33987Y5418D01*
X34026Y5320D01*
X34069Y5230D01*
X34093Y5190D01*
X34113Y5151D01*
X34132Y5120D01*
X34152Y5092D01*
X34164Y5069D01*
X34175Y5053D01*
X34183Y5041D01*
X34187Y5037D01*
X34234Y4974D01*
X34293Y4911D01*
X34356Y4841D01*
X34423Y4770D01*
X34568Y4628D01*
X34718Y4491D01*
X34789Y4428D01*
X34855Y4369D01*
X34914Y4314D01*
X34969Y4271D01*
X35013Y4231D01*
X35048Y4204D01*
X35067Y4188D01*
X35075Y4180D01*
X35150Y4118D01*
X35225Y4055D01*
X35291Y3996D01*
X35354Y3941D01*
X35409Y3886D01*
X35464Y3835D01*
X35512Y3787D01*
X35555Y3748D01*
X35594Y3709D01*
X35626Y3673D01*
X35653Y3642D01*
X35677Y3618D01*
X35696Y3599D01*
X35708Y3583D01*
X35716Y3575D01*
X35720Y3571D01*
X35798Y3473D01*
X35865Y3379D01*
X35920Y3288D01*
X35967Y3206D01*
X36003Y3135D01*
X36015Y3108D01*
X36026Y3084D01*
X36034Y3064D01*
X36042Y3049D01*
X36046Y3041D01*
Y3037D01*
X36066Y2974D01*
X36081Y2915D01*
X36089Y2856D01*
X36097Y2805D01*
X36101Y2758D01*
Y2726D01*
Y2703D01*
Y2699D01*
Y2695D01*
X33441D01*
Y3170D01*
X35417D01*
X35386Y3221D01*
X35350Y3269D01*
X35315Y3312D01*
X35284Y3355D01*
X35252Y3387D01*
X35229Y3414D01*
X35213Y3434D01*
X35209Y3438D01*
X35181Y3465D01*
X35146Y3497D01*
X35107Y3536D01*
X35064Y3575D01*
X34969Y3658D01*
X34875Y3740D01*
X34781Y3819D01*
X34741Y3854D01*
X34706Y3886D01*
X34678Y3909D01*
X34655Y3929D01*
X34639Y3941D01*
X34635Y3945D01*
X34541Y4027D01*
X34451Y4102D01*
X34368Y4177D01*
X34293Y4243D01*
X34223Y4306D01*
X34164Y4365D01*
X34105Y4420D01*
X34058Y4467D01*
X34014Y4510D01*
X33975Y4546D01*
X33948Y4577D01*
X33920Y4605D01*
X33900Y4625D01*
X33889Y4640D01*
X33881Y4648D01*
X33877Y4652D01*
X33794Y4746D01*
X33727Y4837D01*
X33668Y4923D01*
X33625Y4994D01*
X33590Y5057D01*
X33578Y5080D01*
X33566Y5104D01*
X33558Y5120D01*
X33551Y5131D01*
X33547Y5139D01*
Y5143D01*
X33511Y5230D01*
X33488Y5316D01*
X33468Y5399D01*
X33456Y5469D01*
X33448Y5532D01*
Y5556D01*
X33444Y5579D01*
Y5595D01*
Y5607D01*
Y5615D01*
Y5619D01*
X33448Y5705D01*
X33460Y5788D01*
X33476Y5870D01*
X33496Y5945D01*
X33523Y6016D01*
X33551Y6079D01*
X33582Y6142D01*
X33613Y6196D01*
X33645Y6248D01*
X33676Y6291D01*
X33704Y6326D01*
X33731Y6358D01*
X33751Y6385D01*
X33767Y6401D01*
X33779Y6413D01*
X33782Y6417D01*
X33849Y6472D01*
X33920Y6523D01*
X33991Y6566D01*
X34069Y6601D01*
X34144Y6633D01*
X34223Y6660D01*
X34297Y6680D01*
X34368Y6700D01*
X34439Y6711D01*
X34502Y6723D01*
X34557Y6731D01*
X34604Y6735D01*
X34647D01*
X34675Y6739D01*
X34702D01*
X34808Y6735D01*
D02*
G37*
G36*
X37650Y6688D02*
X37681Y6641D01*
X37748Y6542D01*
X37819Y6452D01*
X37889Y6369D01*
X37925Y6334D01*
X37956Y6299D01*
X37988Y6271D01*
X38011Y6244D01*
X38031Y6224D01*
X38050Y6208D01*
X38058Y6200D01*
X38062Y6196D01*
X38184Y6098D01*
X38306Y6008D01*
X38428Y5925D01*
X38542Y5858D01*
X38593Y5827D01*
X38640Y5804D01*
X38679Y5780D01*
X38715Y5760D01*
X38746Y5745D01*
X38766Y5733D01*
X38781Y5729D01*
X38785Y5725D01*
Y5249D01*
X38699Y5285D01*
X38608Y5324D01*
X38522Y5367D01*
X38443Y5407D01*
X38373Y5442D01*
X38345Y5458D01*
X38318Y5473D01*
X38298Y5485D01*
X38282Y5493D01*
X38274Y5501D01*
X38271D01*
X38168Y5564D01*
X38074Y5627D01*
X37991Y5686D01*
X37925Y5737D01*
X37870Y5780D01*
X37830Y5815D01*
X37819Y5827D01*
X37807Y5835D01*
X37803Y5843D01*
X37799D01*
Y2695D01*
X37304D01*
Y6739D01*
X37626D01*
X37650Y6688D01*
D02*
G37*
G36*
X23439Y4601D02*
X22975Y4542D01*
X22932Y4601D01*
X22881Y4656D01*
X22833Y4703D01*
X22782Y4746D01*
X22743Y4778D01*
X22708Y4801D01*
X22684Y4817D01*
X22680Y4821D01*
X22676D01*
X22602Y4856D01*
X22527Y4884D01*
X22456Y4904D01*
X22389Y4919D01*
X22330Y4927D01*
X22307D01*
X22283Y4931D01*
X22244D01*
X22173Y4927D01*
X22106Y4919D01*
X22043Y4907D01*
X21981Y4892D01*
X21926Y4872D01*
X21874Y4852D01*
X21827Y4829D01*
X21784Y4809D01*
X21749Y4786D01*
X21713Y4762D01*
X21686Y4742D01*
X21662Y4723D01*
X21643Y4707D01*
X21631Y4695D01*
X21623Y4687D01*
X21619Y4683D01*
X21576Y4636D01*
X21541Y4585D01*
X21509Y4530D01*
X21482Y4475D01*
X21458Y4420D01*
X21438Y4365D01*
X21411Y4259D01*
X21399Y4208D01*
X21391Y4161D01*
X21387Y4121D01*
X21383Y4086D01*
X21379Y4055D01*
Y4035D01*
Y4019D01*
Y4015D01*
X21383Y3933D01*
X21391Y3858D01*
X21403Y3783D01*
X21419Y3717D01*
X21438Y3654D01*
X21458Y3595D01*
X21482Y3540D01*
X21501Y3493D01*
X21525Y3449D01*
X21548Y3410D01*
X21568Y3375D01*
X21588Y3351D01*
X21603Y3328D01*
X21615Y3312D01*
X21623Y3304D01*
X21627Y3300D01*
X21674Y3253D01*
X21725Y3214D01*
X21776Y3178D01*
X21827Y3147D01*
X21878Y3119D01*
X21926Y3100D01*
X22024Y3068D01*
X22067Y3056D01*
X22106Y3049D01*
X22142Y3041D01*
X22173Y3037D01*
X22197Y3033D01*
X22232D01*
X22287Y3037D01*
X22338Y3041D01*
X22436Y3064D01*
X22523Y3092D01*
X22598Y3127D01*
X22660Y3162D01*
X22684Y3178D01*
X22704Y3194D01*
X22719Y3206D01*
X22731Y3214D01*
X22739Y3218D01*
X22743Y3221D01*
X22778Y3261D01*
X22814Y3300D01*
X22873Y3394D01*
X22916Y3489D01*
X22951Y3579D01*
X22979Y3666D01*
X22987Y3701D01*
X22995Y3732D01*
X22998Y3760D01*
X23002Y3779D01*
X23006Y3791D01*
Y3795D01*
X23525Y3752D01*
X23513Y3658D01*
X23494Y3571D01*
X23470Y3489D01*
X23443Y3410D01*
X23411Y3335D01*
X23380Y3269D01*
X23344Y3206D01*
X23309Y3151D01*
X23278Y3104D01*
X23242Y3060D01*
X23215Y3021D01*
X23187Y2990D01*
X23164Y2966D01*
X23148Y2950D01*
X23136Y2939D01*
X23132Y2935D01*
X23065Y2880D01*
X22995Y2832D01*
X22920Y2793D01*
X22845Y2758D01*
X22767Y2726D01*
X22692Y2703D01*
X22621Y2683D01*
X22550Y2667D01*
X22484Y2655D01*
X22425Y2644D01*
X22370Y2636D01*
X22322Y2632D01*
X22283D01*
X22256Y2628D01*
X22232D01*
X22110Y2632D01*
X21992Y2648D01*
X21886Y2671D01*
X21784Y2703D01*
X21690Y2742D01*
X21603Y2781D01*
X21525Y2825D01*
X21450Y2872D01*
X21387Y2919D01*
X21332Y2962D01*
X21285Y3001D01*
X21246Y3041D01*
X21214Y3072D01*
X21195Y3096D01*
X21179Y3111D01*
X21175Y3115D01*
X21120Y3190D01*
X21069Y3269D01*
X21026Y3351D01*
X20990Y3430D01*
X20959Y3508D01*
X20931Y3587D01*
X20912Y3666D01*
X20892Y3736D01*
X20880Y3803D01*
X20868Y3866D01*
X20861Y3921D01*
X20857Y3968D01*
Y4008D01*
X20853Y4035D01*
Y4051D01*
Y4059D01*
X20857Y4165D01*
X20868Y4267D01*
X20888Y4361D01*
X20908Y4452D01*
X20939Y4534D01*
X20967Y4613D01*
X21002Y4683D01*
X21034Y4746D01*
X21069Y4805D01*
X21104Y4856D01*
X21132Y4900D01*
X21159Y4935D01*
X21183Y4962D01*
X21203Y4986D01*
X21214Y4998D01*
X21218Y5002D01*
X21289Y5065D01*
X21360Y5124D01*
X21434Y5171D01*
X21509Y5214D01*
X21584Y5249D01*
X21658Y5277D01*
X21733Y5300D01*
X21800Y5320D01*
X21863Y5336D01*
X21922Y5348D01*
X21977Y5355D01*
X22020Y5363D01*
X22059D01*
X22087Y5367D01*
X22110D01*
X22185Y5363D01*
X22260Y5355D01*
X22330Y5344D01*
X22397Y5328D01*
X22527Y5285D01*
X22586Y5265D01*
X22641Y5241D01*
X22692Y5214D01*
X22735Y5194D01*
X22778Y5171D01*
X22810Y5151D01*
X22837Y5135D01*
X22857Y5124D01*
X22869Y5116D01*
X22873Y5112D01*
X22657Y6200D01*
X21041D01*
Y6672D01*
X23050D01*
X23439Y4601D01*
D02*
G37*
G36*
X31676Y5678D02*
X31802Y5666D01*
X31916Y5646D01*
X31967Y5638D01*
X32010Y5631D01*
X32053Y5619D01*
X32092Y5611D01*
X32124Y5599D01*
X32151Y5591D01*
X32175Y5587D01*
X32191Y5579D01*
X32199Y5576D01*
X32203D01*
X32301Y5532D01*
X32391Y5485D01*
X32466Y5438D01*
X32525Y5391D01*
X32576Y5348D01*
X32611Y5312D01*
X32631Y5289D01*
X32639Y5285D01*
Y5281D01*
X32690Y5206D01*
X32733Y5124D01*
X32772Y5041D01*
X32800Y4963D01*
X32824Y4892D01*
X32831Y4860D01*
X32839Y4833D01*
X32843Y4813D01*
X32847Y4797D01*
X32851Y4786D01*
Y4782D01*
X32368Y4715D01*
X32352Y4770D01*
X32336Y4821D01*
X32316Y4872D01*
X32297Y4915D01*
X32277Y4955D01*
X32258Y4990D01*
X32214Y5049D01*
X32179Y5092D01*
X32151Y5124D01*
X32132Y5143D01*
X32124Y5147D01*
X32092Y5171D01*
X32053Y5190D01*
X31975Y5222D01*
X31888Y5241D01*
X31806Y5257D01*
X31731Y5265D01*
X31699Y5269D01*
X31668Y5273D01*
X31546D01*
X31483Y5265D01*
X31420Y5257D01*
X31369Y5245D01*
X31318Y5234D01*
X31271Y5218D01*
X31228Y5206D01*
X31192Y5190D01*
X31157Y5175D01*
X31130Y5159D01*
X31106Y5143D01*
X31086Y5131D01*
X31071Y5120D01*
X31059Y5112D01*
X31055Y5108D01*
X31051Y5104D01*
X31027Y5080D01*
X31004Y5049D01*
X30968Y4986D01*
X30945Y4911D01*
X30925Y4845D01*
X30917Y4778D01*
X30913Y4750D01*
Y4727D01*
X30910Y4703D01*
Y4687D01*
Y4679D01*
Y4676D01*
Y4664D01*
Y4644D01*
Y4601D01*
X30913Y4581D01*
Y4566D01*
Y4554D01*
Y4550D01*
X30968Y4530D01*
X31031Y4514D01*
X31098Y4495D01*
X31169Y4479D01*
X31314Y4452D01*
X31460Y4424D01*
X31527Y4416D01*
X31589Y4404D01*
X31648Y4397D01*
X31696Y4389D01*
X31735Y4385D01*
X31766Y4381D01*
X31786Y4377D01*
X31794D01*
X31896Y4365D01*
X31986Y4349D01*
X32061Y4338D01*
X32124Y4326D01*
X32171Y4318D01*
X32206Y4310D01*
X32226Y4302D01*
X32234D01*
X32305Y4279D01*
X32372Y4255D01*
X32430Y4228D01*
X32485Y4200D01*
X32529Y4177D01*
X32560Y4157D01*
X32580Y4145D01*
X32588Y4141D01*
X32643Y4098D01*
X32694Y4051D01*
X32737Y4003D01*
X32772Y3956D01*
X32804Y3917D01*
X32824Y3886D01*
X32839Y3862D01*
X32843Y3858D01*
Y3854D01*
X32875Y3787D01*
X32898Y3717D01*
X32914Y3654D01*
X32926Y3591D01*
X32934Y3540D01*
X32937Y3497D01*
Y3481D01*
Y3469D01*
Y3465D01*
Y3461D01*
X32934Y3394D01*
X32926Y3331D01*
X32914Y3269D01*
X32898Y3214D01*
X32879Y3159D01*
X32855Y3111D01*
X32835Y3064D01*
X32808Y3025D01*
X32784Y2986D01*
X32765Y2954D01*
X32741Y2927D01*
X32721Y2903D01*
X32706Y2884D01*
X32694Y2872D01*
X32686Y2864D01*
X32682Y2860D01*
X32631Y2821D01*
X32576Y2785D01*
X32517Y2754D01*
X32458Y2726D01*
X32395Y2703D01*
X32332Y2683D01*
X32214Y2655D01*
X32159Y2648D01*
X32108Y2640D01*
X32061Y2636D01*
X32022Y2632D01*
X31990Y2628D01*
X31943D01*
X31837Y2632D01*
X31735Y2644D01*
X31644Y2660D01*
X31562Y2675D01*
X31527Y2683D01*
X31495Y2691D01*
X31468Y2699D01*
X31444Y2707D01*
X31424Y2715D01*
X31413Y2718D01*
X31405Y2722D01*
X31401D01*
X31306Y2766D01*
X31208Y2817D01*
X31122Y2872D01*
X31039Y2927D01*
X30972Y2978D01*
X30941Y2998D01*
X30917Y3017D01*
X30898Y3033D01*
X30882Y3045D01*
X30874Y3053D01*
X30870Y3056D01*
X30858Y2982D01*
X30847Y2911D01*
X30831Y2852D01*
X30811Y2797D01*
X30796Y2754D01*
X30780Y2722D01*
X30772Y2703D01*
X30768Y2695D01*
X30253D01*
X30285Y2758D01*
X30312Y2821D01*
X30336Y2876D01*
X30351Y2931D01*
X30363Y2974D01*
X30371Y3009D01*
X30379Y3033D01*
Y3041D01*
X30383Y3080D01*
X30391Y3131D01*
X30395Y3190D01*
X30399Y3257D01*
Y3328D01*
X30403Y3398D01*
X30406Y3548D01*
Y3622D01*
X30411Y3689D01*
Y3752D01*
Y3807D01*
Y3850D01*
Y3886D01*
Y3909D01*
Y3917D01*
Y4577D01*
Y4636D01*
Y4691D01*
X30414Y4742D01*
Y4789D01*
X30418Y4829D01*
Y4868D01*
X30422Y4900D01*
Y4931D01*
X30430Y4974D01*
X30434Y5010D01*
X30438Y5025D01*
Y5033D01*
X30458Y5108D01*
X30481Y5171D01*
X30505Y5230D01*
X30532Y5281D01*
X30556Y5320D01*
X30572Y5348D01*
X30587Y5363D01*
X30591Y5371D01*
X30638Y5418D01*
X30689Y5462D01*
X30749Y5501D01*
X30803Y5532D01*
X30855Y5556D01*
X30894Y5576D01*
X30910Y5583D01*
X30921Y5587D01*
X30929Y5591D01*
X30933D01*
X31027Y5623D01*
X31126Y5642D01*
X31228Y5658D01*
X31322Y5670D01*
X31365Y5674D01*
X31409Y5678D01*
X31444D01*
X31475Y5682D01*
X31538D01*
X31676Y5678D01*
D02*
G37*
G36*
X16699Y3905D02*
X15178D01*
Y4404D01*
X16699D01*
Y3905D01*
D02*
G37*
G36*
X50689Y2695D02*
X50174D01*
X49581Y4939D01*
X49467Y4440D01*
X49003Y2695D01*
X48492D01*
X47577Y5615D01*
X48056D01*
X48559Y3925D01*
X48728Y3363D01*
X48870Y3917D01*
X49306Y5615D01*
X49813D01*
X50280Y3901D01*
X50304Y3803D01*
X50328Y3717D01*
X50347Y3642D01*
X50363Y3575D01*
X50379Y3516D01*
X50391Y3469D01*
X50402Y3426D01*
X50410Y3394D01*
X50418Y3367D01*
X50422Y3343D01*
X50426Y3328D01*
X50430Y3316D01*
X50434Y3304D01*
Y3300D01*
X50603Y3925D01*
X51070Y5615D01*
X51581D01*
X50689Y2695D01*
D02*
G37*
G36*
X19049Y2695D02*
X18495D01*
X16919Y6723D01*
X17461D01*
X18554Y3795D01*
X18597Y3673D01*
X18640Y3552D01*
X18676Y3441D01*
X18707Y3343D01*
X18723Y3296D01*
X18734Y3257D01*
X18742Y3221D01*
X18754Y3190D01*
X18762Y3166D01*
X18766Y3151D01*
X18770Y3139D01*
Y3135D01*
X18805Y3253D01*
X18841Y3367D01*
X18876Y3477D01*
X18907Y3579D01*
X18923Y3626D01*
X18939Y3666D01*
X18951Y3705D01*
X18962Y3736D01*
X18970Y3760D01*
X18978Y3779D01*
X18982Y3791D01*
Y3795D01*
X20027Y6723D01*
X20605D01*
X19049Y2695D01*
D02*
G37*
G36*
X46071Y5678D02*
X46178Y5666D01*
X46276Y5642D01*
X46370Y5619D01*
X46457Y5587D01*
X46539Y5552D01*
X46614Y5517D01*
X46681Y5477D01*
X46744Y5438D01*
X46795Y5403D01*
X46842Y5367D01*
X46877Y5336D01*
X46909Y5312D01*
X46928Y5293D01*
X46944Y5277D01*
X46948Y5273D01*
X47015Y5194D01*
X47074Y5108D01*
X47121Y5017D01*
X47164Y4923D01*
X47203Y4825D01*
X47235Y4731D01*
X47258Y4636D01*
X47278Y4550D01*
X47294Y4463D01*
X47306Y4385D01*
X47313Y4314D01*
X47317Y4251D01*
X47321Y4200D01*
X47325Y4161D01*
Y4137D01*
Y4133D01*
Y4129D01*
X47321Y4000D01*
X47309Y3878D01*
X47290Y3760D01*
X47266Y3654D01*
X47239Y3556D01*
X47207Y3465D01*
X47172Y3383D01*
X47137Y3308D01*
X47105Y3241D01*
X47070Y3182D01*
X47038Y3135D01*
X47011Y3096D01*
X46987Y3060D01*
X46968Y3041D01*
X46956Y3025D01*
X46952Y3021D01*
X46877Y2950D01*
X46799Y2891D01*
X46716Y2840D01*
X46633Y2793D01*
X46547Y2758D01*
X46464Y2722D01*
X46382Y2699D01*
X46299Y2679D01*
X46225Y2660D01*
X46158Y2648D01*
X46095Y2640D01*
X46040Y2636D01*
X45997Y2632D01*
X45961Y2628D01*
X45934D01*
X45840Y2632D01*
X45753Y2640D01*
X45671Y2652D01*
X45588Y2667D01*
X45517Y2683D01*
X45447Y2707D01*
X45384Y2726D01*
X45329Y2750D01*
X45278Y2774D01*
X45230Y2793D01*
X45191Y2817D01*
X45160Y2832D01*
X45132Y2848D01*
X45116Y2860D01*
X45105Y2868D01*
X45101Y2872D01*
X45042Y2919D01*
X44987Y2974D01*
X44936Y3029D01*
X44892Y3084D01*
X44849Y3143D01*
X44814Y3202D01*
X44783Y3261D01*
X44751Y3316D01*
X44728Y3367D01*
X44708Y3414D01*
X44688Y3457D01*
X44676Y3497D01*
X44665Y3528D01*
X44657Y3552D01*
X44653Y3567D01*
Y3571D01*
X45164Y3638D01*
X45187Y3579D01*
X45211Y3528D01*
X45234Y3477D01*
X45258Y3430D01*
X45309Y3351D01*
X45360Y3288D01*
X45403Y3237D01*
X45439Y3202D01*
X45462Y3182D01*
X45466Y3174D01*
X45470D01*
X45545Y3127D01*
X45623Y3092D01*
X45702Y3068D01*
X45773Y3053D01*
X45840Y3041D01*
X45863Y3037D01*
X45887D01*
X45906Y3033D01*
X45934D01*
X46001Y3037D01*
X46068Y3045D01*
X46126Y3056D01*
X46185Y3072D01*
X46240Y3092D01*
X46292Y3115D01*
X46335Y3135D01*
X46378Y3162D01*
X46417Y3186D01*
X46449Y3206D01*
X46480Y3229D01*
X46504Y3249D01*
X46523Y3265D01*
X46535Y3277D01*
X46543Y3284D01*
X46547Y3288D01*
X46590Y3339D01*
X46630Y3394D01*
X46661Y3453D01*
X46692Y3512D01*
X46716Y3571D01*
X46740Y3634D01*
X46775Y3752D01*
X46787Y3811D01*
X46795Y3862D01*
X46802Y3909D01*
X46810Y3949D01*
X46814Y3980D01*
X46818Y4008D01*
Y4023D01*
Y4027D01*
X44637D01*
Y4059D01*
X44633Y4082D01*
Y4106D01*
Y4125D01*
Y4137D01*
Y4149D01*
Y4157D01*
X44637Y4290D01*
X44649Y4412D01*
X44668Y4530D01*
X44692Y4636D01*
X44720Y4738D01*
X44751Y4829D01*
X44786Y4915D01*
X44818Y4990D01*
X44853Y5057D01*
X44889Y5116D01*
X44920Y5167D01*
X44947Y5206D01*
X44971Y5238D01*
X44991Y5261D01*
X45003Y5277D01*
X45006Y5281D01*
X45077Y5351D01*
X45152Y5414D01*
X45230Y5466D01*
X45313Y5513D01*
X45392Y5552D01*
X45470Y5583D01*
X45549Y5611D01*
X45623Y5631D01*
X45690Y5646D01*
X45757Y5662D01*
X45816Y5670D01*
X45863Y5674D01*
X45906Y5678D01*
X45934Y5682D01*
X45961D01*
X46071Y5678D01*
D02*
G37*
G36*
X43022D02*
X43081Y5666D01*
X43136Y5650D01*
X43183Y5631D01*
X43222Y5611D01*
X43250Y5595D01*
X43269Y5583D01*
X43277Y5579D01*
X43305Y5560D01*
X43332Y5532D01*
X43387Y5473D01*
X43442Y5407D01*
X43490Y5340D01*
X43529Y5273D01*
X43549Y5245D01*
X43564Y5222D01*
X43576Y5198D01*
X43584Y5183D01*
X43588Y5175D01*
X43592Y5171D01*
Y5615D01*
X44036D01*
Y2695D01*
X43541D01*
Y4224D01*
X43537Y4338D01*
X43529Y4448D01*
X43517Y4546D01*
X43501Y4632D01*
X43493Y4668D01*
X43486Y4703D01*
X43482Y4731D01*
X43474Y4754D01*
X43470Y4774D01*
X43466Y4789D01*
X43462Y4797D01*
Y4801D01*
X43438Y4864D01*
X43411Y4915D01*
X43380Y4963D01*
X43348Y5002D01*
X43321Y5033D01*
X43297Y5053D01*
X43281Y5069D01*
X43277Y5073D01*
X43226Y5104D01*
X43175Y5127D01*
X43128Y5147D01*
X43085Y5159D01*
X43045Y5167D01*
X43014Y5171D01*
X42987D01*
X42920Y5167D01*
X42853Y5155D01*
X42794Y5135D01*
X42739Y5116D01*
X42692Y5096D01*
X42656Y5076D01*
X42633Y5065D01*
X42625Y5061D01*
X42448Y5520D01*
X42546Y5576D01*
X42637Y5615D01*
X42723Y5642D01*
X42802Y5662D01*
X42865Y5674D01*
X42892Y5678D01*
X42916D01*
X42935Y5682D01*
X42959D01*
X43022Y5678D01*
D02*
G37*
G36*
X28383Y5678D02*
X28489Y5662D01*
X28583Y5638D01*
X28673Y5607D01*
X28756Y5572D01*
X28835Y5528D01*
X28901Y5485D01*
X28964Y5442D01*
X29019Y5395D01*
X29066Y5351D01*
X29106Y5312D01*
X29141Y5273D01*
X29165Y5241D01*
X29184Y5218D01*
X29196Y5202D01*
X29200Y5198D01*
Y5615D01*
X29644D01*
Y2695D01*
X29149D01*
Y4290D01*
X29145Y4393D01*
X29137Y4483D01*
X29129Y4569D01*
X29114Y4644D01*
X29098Y4715D01*
X29078Y4778D01*
X29055Y4833D01*
X29035Y4880D01*
X29015Y4919D01*
X28992Y4955D01*
X28972Y4986D01*
X28956Y5010D01*
X28941Y5025D01*
X28929Y5041D01*
X28925Y5045D01*
X28921Y5049D01*
X28878Y5084D01*
X28831Y5116D01*
X28787Y5143D01*
X28740Y5167D01*
X28650Y5202D01*
X28563Y5230D01*
X28489Y5241D01*
X28457Y5245D01*
X28430Y5249D01*
X28410Y5253D01*
X28379D01*
X28308Y5249D01*
X28241Y5238D01*
X28182Y5226D01*
X28131Y5210D01*
X28088Y5190D01*
X28060Y5179D01*
X28041Y5167D01*
X28033Y5163D01*
X27982Y5127D01*
X27939Y5088D01*
X27903Y5049D01*
X27876Y5010D01*
X27856Y4974D01*
X27840Y4947D01*
X27832Y4931D01*
X27828Y4923D01*
X27809Y4860D01*
X27793Y4789D01*
X27785Y4715D01*
X27777Y4640D01*
X27773Y4573D01*
X27770Y4546D01*
Y4522D01*
Y4499D01*
Y4483D01*
Y4475D01*
Y4471D01*
Y2695D01*
X27274D01*
Y4487D01*
Y4550D01*
Y4609D01*
X27278Y4660D01*
Y4707D01*
X27282Y4754D01*
Y4794D01*
X27286Y4829D01*
Y4860D01*
X27290Y4884D01*
X27294Y4907D01*
X27298Y4943D01*
X27302Y4962D01*
Y4970D01*
X27321Y5049D01*
X27345Y5116D01*
X27373Y5179D01*
X27396Y5234D01*
X27420Y5277D01*
X27439Y5308D01*
X27455Y5328D01*
X27459Y5336D01*
X27506Y5391D01*
X27557Y5438D01*
X27612Y5481D01*
X27663Y5517D01*
X27714Y5544D01*
X27754Y5568D01*
X27770Y5576D01*
X27781Y5579D01*
X27785Y5583D01*
X27789D01*
X27872Y5615D01*
X27958Y5638D01*
X28037Y5658D01*
X28111Y5670D01*
X28178Y5678D01*
X28206D01*
X28229Y5682D01*
X28273D01*
X28383Y5678D01*
D02*
G37*
G36*
X11362Y2695D02*
X10800D01*
Y3257D01*
X11362D01*
Y2695D01*
D02*
G37*
G36*
X53267Y5678D02*
X53362Y5666D01*
X53452Y5650D01*
X53539Y5631D01*
X53621Y5607D01*
X53696Y5579D01*
X53767Y5548D01*
X53829Y5520D01*
X53884Y5489D01*
X53935Y5458D01*
X53983Y5430D01*
X54018Y5407D01*
X54045Y5387D01*
X54069Y5371D01*
X54081Y5359D01*
X54085Y5356D01*
X54163Y5277D01*
X54234Y5190D01*
X54293Y5100D01*
X54344Y5002D01*
X54387Y4904D01*
X54423Y4805D01*
X54454Y4703D01*
X54478Y4609D01*
X54493Y4518D01*
X54509Y4432D01*
X54517Y4353D01*
X54525Y4287D01*
X54529Y4231D01*
X54533Y4188D01*
Y4172D01*
Y4161D01*
Y4157D01*
Y4153D01*
X54529Y4019D01*
X54517Y3893D01*
X54497Y3776D01*
X54474Y3666D01*
X54446Y3563D01*
X54415Y3469D01*
X54379Y3387D01*
X54344Y3312D01*
X54309Y3241D01*
X54273Y3186D01*
X54242Y3135D01*
X54215Y3096D01*
X54191Y3060D01*
X54171Y3041D01*
X54159Y3025D01*
X54155Y3021D01*
X54081Y2950D01*
X54006Y2891D01*
X53924Y2840D01*
X53841Y2793D01*
X53759Y2758D01*
X53676Y2722D01*
X53597Y2699D01*
X53519Y2679D01*
X53448Y2660D01*
X53381Y2648D01*
X53322Y2640D01*
X53271Y2636D01*
X53228Y2632D01*
X53197Y2628D01*
X53169D01*
X53098Y2632D01*
X53028Y2636D01*
X52898Y2655D01*
X52780Y2683D01*
X52725Y2699D01*
X52674Y2718D01*
X52627Y2734D01*
X52587Y2750D01*
X52552Y2766D01*
X52521Y2777D01*
X52497Y2789D01*
X52481Y2797D01*
X52470Y2805D01*
X52466D01*
X52352Y2880D01*
X52249Y2958D01*
X52167Y3045D01*
X52096Y3123D01*
X52041Y3198D01*
X52018Y3229D01*
X52002Y3257D01*
X51986Y3277D01*
X51978Y3292D01*
X51970Y3304D01*
Y3308D01*
X51939Y3371D01*
X51915Y3438D01*
X51872Y3583D01*
X51841Y3732D01*
X51821Y3874D01*
X51817Y3941D01*
X51809Y4000D01*
X51805Y4055D01*
Y4102D01*
X51802Y4141D01*
Y4172D01*
Y4188D01*
Y4196D01*
X51805Y4322D01*
X51817Y4444D01*
X51837Y4554D01*
X51860Y4660D01*
X51892Y4758D01*
X51923Y4845D01*
X51959Y4927D01*
X51994Y5002D01*
X52029Y5069D01*
X52065Y5124D01*
X52096Y5171D01*
X52128Y5214D01*
X52151Y5245D01*
X52171Y5265D01*
X52183Y5281D01*
X52187Y5285D01*
X52261Y5356D01*
X52340Y5414D01*
X52419Y5469D01*
X52501Y5513D01*
X52583Y5552D01*
X52666Y5583D01*
X52745Y5611D01*
X52819Y5631D01*
X52894Y5650D01*
X52957Y5662D01*
X53020Y5670D01*
X53071Y5674D01*
X53110Y5678D01*
X53142Y5682D01*
X53169D01*
X53267Y5678D01*
D02*
G37*
G36*
X24661Y5281D02*
X24712Y5344D01*
X24767Y5399D01*
X24826Y5450D01*
X24877Y5489D01*
X24924Y5524D01*
X24963Y5548D01*
X24979Y5556D01*
X24991Y5564D01*
X24995Y5568D01*
X24999D01*
X25078Y5607D01*
X25156Y5635D01*
X25235Y5654D01*
X25309Y5666D01*
X25372Y5678D01*
X25400D01*
X25423Y5682D01*
X25466D01*
X25533Y5678D01*
X25596Y5674D01*
X25718Y5650D01*
X25828Y5623D01*
X25879Y5603D01*
X25926Y5587D01*
X25966Y5568D01*
X26005Y5552D01*
X26036Y5532D01*
X26064Y5520D01*
X26087Y5509D01*
X26103Y5497D01*
X26111Y5493D01*
X26115Y5489D01*
X26166Y5454D01*
X26217Y5410D01*
X26307Y5324D01*
X26382Y5234D01*
X26441Y5147D01*
X26488Y5065D01*
X26508Y5033D01*
X26524Y5002D01*
X26535Y4978D01*
X26543Y4958D01*
X26551Y4947D01*
Y4943D01*
X26598Y4809D01*
X26634Y4672D01*
X26661Y4538D01*
X26669Y4471D01*
X26677Y4412D01*
X26685Y4357D01*
X26689Y4306D01*
X26693Y4263D01*
Y4224D01*
X26697Y4192D01*
Y4169D01*
Y4153D01*
Y4149D01*
X26689Y3988D01*
X26673Y3835D01*
X26661Y3768D01*
X26645Y3701D01*
X26634Y3642D01*
X26618Y3583D01*
X26602Y3532D01*
X26590Y3489D01*
X26575Y3449D01*
X26563Y3418D01*
X26555Y3390D01*
X26547Y3371D01*
X26539Y3359D01*
Y3355D01*
X26473Y3233D01*
X26402Y3127D01*
X26327Y3037D01*
X26288Y2997D01*
X26252Y2958D01*
X26221Y2927D01*
X26190Y2899D01*
X26158Y2876D01*
X26135Y2856D01*
X26115Y2840D01*
X26099Y2829D01*
X26091Y2825D01*
X26087Y2821D01*
X26033Y2785D01*
X25973Y2758D01*
X25918Y2730D01*
X25864Y2711D01*
X25753Y2675D01*
X25655Y2652D01*
X25608Y2644D01*
X25569Y2640D01*
X25533Y2636D01*
X25502Y2632D01*
X25478Y2628D01*
X25443D01*
X25345Y2632D01*
X25254Y2648D01*
X25168Y2667D01*
X25089Y2695D01*
X25015Y2726D01*
X24948Y2766D01*
X24885Y2801D01*
X24834Y2844D01*
X24783Y2884D01*
X24743Y2923D01*
X24708Y2958D01*
X24677Y2990D01*
X24653Y3017D01*
X24637Y3037D01*
X24629Y3053D01*
X24625Y3056D01*
Y2695D01*
X24166D01*
Y6723D01*
X24661D01*
Y5281D01*
D02*
G37*
G36*
X13539Y6735D02*
X13614Y6727D01*
X13688Y6715D01*
X13755Y6703D01*
X13822Y6684D01*
X13881Y6664D01*
X13936Y6645D01*
X13987Y6621D01*
X14030Y6597D01*
X14074Y6578D01*
X14105Y6558D01*
X14136Y6538D01*
X14156Y6527D01*
X14176Y6515D01*
X14184Y6507D01*
X14187Y6503D01*
X14239Y6456D01*
X14290Y6405D01*
X14380Y6299D01*
X14455Y6189D01*
X14514Y6079D01*
X14541Y6027D01*
X14561Y5980D01*
X14580Y5941D01*
X14596Y5902D01*
X14608Y5874D01*
X14616Y5851D01*
X14624Y5835D01*
Y5831D01*
X14647Y5745D01*
X14671Y5658D01*
X14706Y5466D01*
X14734Y5277D01*
X14742Y5183D01*
X14749Y5092D01*
X14757Y5006D01*
X14761Y4927D01*
X14765Y4860D01*
Y4797D01*
X14769Y4750D01*
Y4711D01*
Y4687D01*
Y4683D01*
Y4679D01*
X14765Y4475D01*
X14753Y4283D01*
X14734Y4110D01*
X14706Y3945D01*
X14679Y3799D01*
X14643Y3666D01*
X14608Y3544D01*
X14569Y3438D01*
X14533Y3343D01*
X14498Y3261D01*
X14462Y3194D01*
X14435Y3139D01*
X14408Y3096D01*
X14388Y3064D01*
X14376Y3049D01*
X14372Y3041D01*
X14309Y2970D01*
X14239Y2903D01*
X14164Y2848D01*
X14089Y2801D01*
X14015Y2762D01*
X13936Y2730D01*
X13861Y2703D01*
X13791Y2679D01*
X13724Y2663D01*
X13661Y2652D01*
X13602Y2640D01*
X13555Y2636D01*
X13511Y2632D01*
X13484Y2628D01*
X13456D01*
X13374Y2632D01*
X13299Y2640D01*
X13225Y2652D01*
X13158Y2663D01*
X13091Y2683D01*
X13032Y2703D01*
X12977Y2722D01*
X12926Y2746D01*
X12883Y2770D01*
X12843Y2789D01*
X12808Y2809D01*
X12780Y2829D01*
X12757Y2840D01*
X12741Y2852D01*
X12733Y2860D01*
X12729Y2864D01*
X12678Y2911D01*
X12627Y2962D01*
X12537Y3068D01*
X12462Y3182D01*
X12403Y3288D01*
X12376Y3339D01*
X12356Y3387D01*
X12336Y3426D01*
X12321Y3465D01*
X12309Y3493D01*
X12301Y3516D01*
X12293Y3532D01*
Y3536D01*
X12266Y3622D01*
X12242Y3709D01*
X12207Y3897D01*
X12179Y4090D01*
X12171Y4180D01*
X12163Y4271D01*
X12156Y4357D01*
X12152Y4432D01*
X12148Y4503D01*
Y4562D01*
X12144Y4613D01*
Y4648D01*
Y4672D01*
Y4679D01*
Y4789D01*
X12148Y4892D01*
X12152Y4990D01*
X12160Y5080D01*
X12167Y5167D01*
X12175Y5241D01*
X12183Y5316D01*
X12191Y5379D01*
X12199Y5438D01*
X12207Y5489D01*
X12215Y5532D01*
X12222Y5568D01*
X12230Y5595D01*
X12234Y5615D01*
X12238Y5627D01*
Y5631D01*
X12274Y5756D01*
X12317Y5874D01*
X12356Y5976D01*
X12376Y6020D01*
X12395Y6063D01*
X12415Y6098D01*
X12431Y6134D01*
X12446Y6161D01*
X12458Y6185D01*
X12470Y6204D01*
X12478Y6216D01*
X12486Y6224D01*
Y6228D01*
X12549Y6314D01*
X12615Y6393D01*
X12682Y6456D01*
X12745Y6511D01*
X12804Y6550D01*
X12847Y6582D01*
X12867Y6593D01*
X12879Y6597D01*
X12887Y6605D01*
X12890D01*
X12985Y6648D01*
X13083Y6684D01*
X13177Y6707D01*
X13264Y6723D01*
X13303Y6727D01*
X13342Y6731D01*
X13374Y6735D01*
X13401Y6739D01*
X13456D01*
X13539Y6735D01*
D02*
G37*
G36*
X56286Y5678D02*
X56380Y5666D01*
X56462Y5646D01*
X56533Y5627D01*
X56592Y5603D01*
X56616Y5595D01*
X56635Y5587D01*
X56651Y5579D01*
X56663Y5572D01*
X56667Y5568D01*
X56671D01*
X56745Y5520D01*
X56812Y5469D01*
X56871Y5414D01*
X56926Y5359D01*
X56969Y5312D01*
X57001Y5269D01*
X57013Y5253D01*
X57020Y5245D01*
X57028Y5238D01*
Y5615D01*
X57480D01*
Y1575D01*
X56985D01*
Y2994D01*
X56934Y2935D01*
X56883Y2884D01*
X56828Y2840D01*
X56777Y2801D01*
X56730Y2770D01*
X56694Y2750D01*
X56671Y2734D01*
X56667Y2730D01*
X56663D01*
X56588Y2695D01*
X56510Y2671D01*
X56435Y2652D01*
X56368Y2640D01*
X56309Y2632D01*
X56282D01*
X56262Y2628D01*
X56219D01*
X56156Y2632D01*
X56093Y2636D01*
X55975Y2660D01*
X55865Y2687D01*
X55818Y2707D01*
X55771Y2722D01*
X55727Y2742D01*
X55688Y2758D01*
X55657Y2774D01*
X55625Y2789D01*
X55606Y2801D01*
X55586Y2809D01*
X55578Y2813D01*
X55574Y2817D01*
X55464Y2895D01*
X55370Y2986D01*
X55291Y3076D01*
X55225Y3162D01*
X55173Y3245D01*
X55154Y3277D01*
X55138Y3308D01*
X55122Y3331D01*
X55114Y3351D01*
X55107Y3363D01*
Y3367D01*
X55052Y3504D01*
X55012Y3646D01*
X54985Y3783D01*
X54973Y3846D01*
X54965Y3909D01*
X54957Y3964D01*
X54953Y4015D01*
X54949Y4062D01*
Y4102D01*
X54945Y4133D01*
Y4157D01*
Y4172D01*
Y4177D01*
X54953Y4330D01*
X54969Y4471D01*
X54981Y4538D01*
X54993Y4601D01*
X55004Y4660D01*
X55020Y4715D01*
X55036Y4766D01*
X55048Y4809D01*
X55059Y4848D01*
X55071Y4880D01*
X55079Y4907D01*
X55087Y4927D01*
X55095Y4939D01*
Y4943D01*
X55154Y5069D01*
X55189Y5124D01*
X55225Y5179D01*
X55260Y5226D01*
X55295Y5273D01*
X55331Y5312D01*
X55366Y5348D01*
X55397Y5383D01*
X55429Y5410D01*
X55456Y5434D01*
X55480Y5454D01*
X55500Y5469D01*
X55515Y5481D01*
X55523Y5485D01*
X55527Y5489D01*
X55582Y5525D01*
X55637Y5552D01*
X55692Y5579D01*
X55747Y5599D01*
X55857Y5635D01*
X55959Y5658D01*
X56007Y5666D01*
X56050Y5670D01*
X56089Y5678D01*
X56121D01*
X56148Y5682D01*
X56183D01*
X56286Y5678D01*
D02*
G37*
G36*
X42613Y1575D02*
X39339D01*
Y1932D01*
X42613D01*
Y1575D01*
D02*
G37*
%LPC*%
G36*
X3962Y12119D02*
X2162D01*
Y10672D01*
X2166Y10603D01*
X2171Y10539D01*
Y10485D01*
X2176Y10436D01*
X2181Y10392D01*
X2186Y10347D01*
X2191Y10318D01*
X2196Y10288D01*
X2201Y10264D01*
Y10244D01*
X2211Y10220D01*
Y10210D01*
X2245Y10116D01*
X2285Y10033D01*
X2334Y9959D01*
X2383Y9900D01*
X2432Y9850D01*
X2472Y9816D01*
X2496Y9791D01*
X2501Y9787D01*
X2506D01*
X2595Y9732D01*
X2688Y9693D01*
X2777Y9663D01*
X2860Y9644D01*
X2934Y9634D01*
X2968Y9629D01*
X2993Y9624D01*
X3018D01*
X3032D01*
X3042D01*
X3047D01*
X3126Y9629D01*
X3200Y9634D01*
X3337Y9668D01*
X3396Y9688D01*
X3456Y9713D01*
X3505Y9737D01*
X3549Y9762D01*
X3593Y9787D01*
X3628Y9811D01*
X3657Y9836D01*
X3682Y9855D01*
X3702Y9875D01*
X3716Y9890D01*
X3721Y9895D01*
X3726Y9900D01*
X3765Y9954D01*
X3805Y10018D01*
X3834Y10087D01*
X3864Y10155D01*
X3903Y10308D01*
X3933Y10460D01*
X3943Y10529D01*
X3948Y10598D01*
X3957Y10657D01*
Y10712D01*
X3962Y10756D01*
Y12119D01*
D02*
G37*
G36*
X30913Y4161D02*
X30910D01*
X30913Y3976D01*
X30917Y3862D01*
X30925Y3760D01*
X30937Y3677D01*
X30953Y3607D01*
X30968Y3552D01*
X30980Y3512D01*
X30988Y3489D01*
X30992Y3485D01*
Y3481D01*
X31035Y3406D01*
X31086Y3335D01*
X31141Y3277D01*
X31196Y3229D01*
X31248Y3190D01*
X31287Y3162D01*
X31303Y3151D01*
X31310Y3147D01*
X31318Y3139D01*
X31322D01*
X31409Y3100D01*
X31495Y3068D01*
X31578Y3049D01*
X31656Y3033D01*
X31723Y3025D01*
X31754Y3021D01*
X31778D01*
X31798Y3017D01*
X31825D01*
X31927Y3021D01*
X32018Y3037D01*
X32092Y3056D01*
X32155Y3084D01*
X32203Y3108D01*
X32238Y3127D01*
X32258Y3143D01*
X32265Y3147D01*
X32313Y3198D01*
X32348Y3257D01*
X32375Y3312D01*
X32391Y3363D01*
X32403Y3406D01*
X32407Y3446D01*
X32411Y3469D01*
Y3473D01*
Y3477D01*
X32407Y3524D01*
X32399Y3567D01*
X32391Y3610D01*
X32375Y3642D01*
X32364Y3673D01*
X32356Y3693D01*
X32348Y3709D01*
X32344Y3713D01*
X32316Y3752D01*
X32285Y3783D01*
X32254Y3811D01*
X32222Y3835D01*
X32195Y3850D01*
X32171Y3862D01*
X32155Y3870D01*
X32151Y3874D01*
X32124Y3886D01*
X32096Y3893D01*
X32030Y3913D01*
X31959Y3929D01*
X31888Y3945D01*
X31821Y3956D01*
X31794Y3960D01*
X31770Y3964D01*
X31747Y3968D01*
X31731Y3972D01*
X31719D01*
X31621Y3988D01*
X31530Y4003D01*
X31444Y4019D01*
X31365Y4035D01*
X31291Y4051D01*
X31228Y4066D01*
X31165Y4082D01*
X31114Y4098D01*
X31067Y4110D01*
X31024Y4121D01*
X30988Y4133D01*
X30961Y4141D01*
X30937Y4149D01*
X30921Y4157D01*
X30913Y4161D01*
D02*
G37*
G36*
X45993Y5277D02*
X45961D01*
X45891Y5273D01*
X45828Y5265D01*
X45765Y5249D01*
X45706Y5230D01*
X45651Y5210D01*
X45600Y5187D01*
X45553Y5159D01*
X45509Y5131D01*
X45474Y5104D01*
X45439Y5076D01*
X45411Y5053D01*
X45388Y5033D01*
X45368Y5014D01*
X45356Y4998D01*
X45348Y4990D01*
X45344Y4986D01*
X45317Y4951D01*
X45293Y4907D01*
X45250Y4821D01*
X45219Y4731D01*
X45191Y4640D01*
X45175Y4558D01*
X45168Y4522D01*
X45164Y4491D01*
X45160Y4467D01*
X45156Y4448D01*
Y4436D01*
Y4432D01*
X46791D01*
X46783Y4503D01*
X46771Y4569D01*
X46759Y4628D01*
X46740Y4687D01*
X46720Y4742D01*
X46700Y4794D01*
X46677Y4841D01*
X46653Y4880D01*
X46630Y4919D01*
X46610Y4951D01*
X46590Y4978D01*
X46571Y5002D01*
X46555Y5021D01*
X46547Y5033D01*
X46539Y5041D01*
X46535Y5045D01*
X46492Y5084D01*
X46445Y5124D01*
X46398Y5151D01*
X46347Y5179D01*
X46299Y5202D01*
X46252Y5222D01*
X46162Y5249D01*
X46119Y5257D01*
X46083Y5265D01*
X46048Y5269D01*
X46016Y5273D01*
X45993Y5277D01*
D02*
G37*
G36*
X53205Y5273D02*
X53169D01*
X53102Y5269D01*
X53039Y5261D01*
X52977Y5245D01*
X52918Y5230D01*
X52815Y5183D01*
X52768Y5159D01*
X52725Y5131D01*
X52686Y5104D01*
X52654Y5080D01*
X52623Y5057D01*
X52599Y5033D01*
X52580Y5017D01*
X52568Y5002D01*
X52560Y4994D01*
X52556Y4990D01*
X52513Y4935D01*
X52473Y4876D01*
X52442Y4809D01*
X52415Y4742D01*
X52387Y4676D01*
X52367Y4609D01*
X52340Y4475D01*
X52328Y4412D01*
X52320Y4353D01*
X52316Y4302D01*
X52312Y4259D01*
X52308Y4220D01*
Y4192D01*
Y4177D01*
Y4169D01*
X52312Y4066D01*
X52320Y3968D01*
X52332Y3878D01*
X52348Y3791D01*
X52367Y3717D01*
X52387Y3646D01*
X52411Y3583D01*
X52430Y3524D01*
X52454Y3477D01*
X52477Y3434D01*
X52497Y3394D01*
X52517Y3367D01*
X52532Y3343D01*
X52544Y3324D01*
X52552Y3316D01*
X52556Y3312D01*
X52603Y3265D01*
X52650Y3221D01*
X52701Y3182D01*
X52753Y3151D01*
X52807Y3123D01*
X52859Y3100D01*
X52906Y3084D01*
X52953Y3068D01*
X53000Y3056D01*
X53039Y3049D01*
X53075Y3041D01*
X53106Y3037D01*
X53134Y3033D01*
X53169D01*
X53236Y3037D01*
X53303Y3045D01*
X53362Y3060D01*
X53421Y3076D01*
X53476Y3096D01*
X53527Y3119D01*
X53570Y3147D01*
X53613Y3174D01*
X53653Y3198D01*
X53684Y3225D01*
X53715Y3249D01*
X53739Y3269D01*
X53759Y3284D01*
X53770Y3300D01*
X53778Y3308D01*
X53782Y3312D01*
X53825Y3367D01*
X53861Y3430D01*
X53896Y3493D01*
X53924Y3559D01*
X53947Y3630D01*
X53967Y3701D01*
X53994Y3839D01*
X54006Y3901D01*
X54014Y3960D01*
X54018Y4015D01*
X54022Y4062D01*
X54026Y4098D01*
Y4129D01*
Y4145D01*
Y4153D01*
X54022Y4255D01*
X54014Y4349D01*
X54002Y4440D01*
X53987Y4522D01*
X53971Y4597D01*
X53947Y4668D01*
X53928Y4727D01*
X53904Y4786D01*
X53880Y4833D01*
X53861Y4876D01*
X53837Y4911D01*
X53821Y4943D01*
X53806Y4966D01*
X53794Y4982D01*
X53786Y4990D01*
X53782Y4994D01*
X53735Y5045D01*
X53684Y5084D01*
X53637Y5124D01*
X53582Y5155D01*
X53531Y5183D01*
X53480Y5206D01*
X53432Y5222D01*
X53385Y5238D01*
X53338Y5249D01*
X53299Y5257D01*
X53263Y5265D01*
X53232Y5269D01*
X53205Y5273D01*
D02*
G37*
G36*
X25451Y5273D02*
X25419D01*
X25357Y5269D01*
X25297Y5261D01*
X25242Y5245D01*
X25188Y5230D01*
X25089Y5183D01*
X25046Y5159D01*
X25007Y5131D01*
X24971Y5104D01*
X24940Y5080D01*
X24912Y5057D01*
X24893Y5033D01*
X24873Y5017D01*
X24861Y5002D01*
X24854Y4994D01*
X24849Y4990D01*
X24810Y4935D01*
X24771Y4872D01*
X24743Y4805D01*
X24716Y4735D01*
X24692Y4660D01*
X24673Y4589D01*
X24645Y4444D01*
X24637Y4377D01*
X24629Y4314D01*
X24625Y4255D01*
X24622Y4208D01*
X24618Y4169D01*
Y4137D01*
Y4118D01*
Y4110D01*
X24622Y4011D01*
X24625Y3917D01*
X24637Y3831D01*
X24653Y3752D01*
X24669Y3677D01*
X24688Y3610D01*
X24712Y3552D01*
X24732Y3497D01*
X24751Y3449D01*
X24775Y3410D01*
X24794Y3375D01*
X24810Y3347D01*
X24826Y3324D01*
X24834Y3308D01*
X24842Y3300D01*
X24846Y3296D01*
X24889Y3249D01*
X24936Y3210D01*
X24979Y3174D01*
X25026Y3143D01*
X25074Y3119D01*
X25121Y3096D01*
X25207Y3064D01*
X25282Y3049D01*
X25313Y3041D01*
X25341Y3037D01*
X25364Y3033D01*
X25396D01*
X25455Y3037D01*
X25514Y3045D01*
X25569Y3056D01*
X25620Y3076D01*
X25714Y3119D01*
X25797Y3170D01*
X25832Y3198D01*
X25864Y3221D01*
X25891Y3245D01*
X25911Y3265D01*
X25930Y3284D01*
X25942Y3296D01*
X25950Y3304D01*
X25954Y3308D01*
X25997Y3363D01*
X26033Y3426D01*
X26064Y3489D01*
X26091Y3556D01*
X26111Y3626D01*
X26131Y3697D01*
X26158Y3835D01*
X26170Y3897D01*
X26178Y3956D01*
X26182Y4011D01*
X26186Y4059D01*
X26190Y4094D01*
Y4125D01*
Y4141D01*
Y4149D01*
X26186Y4255D01*
X26182Y4353D01*
X26170Y4444D01*
X26154Y4526D01*
X26139Y4605D01*
X26119Y4676D01*
X26099Y4738D01*
X26080Y4794D01*
X26060Y4845D01*
X26040Y4884D01*
X26021Y4923D01*
X26005Y4951D01*
X25989Y4974D01*
X25977Y4990D01*
X25973Y4998D01*
X25970Y5002D01*
X25926Y5049D01*
X25883Y5092D01*
X25836Y5127D01*
X25789Y5159D01*
X25746Y5187D01*
X25698Y5206D01*
X25655Y5226D01*
X25612Y5238D01*
X25533Y5257D01*
X25502Y5265D01*
X25474Y5269D01*
X25451Y5273D01*
D02*
G37*
G36*
X13496Y6330D02*
X13464D01*
X13401Y6326D01*
X13339Y6314D01*
X13280Y6299D01*
X13225Y6279D01*
X13126Y6224D01*
X13083Y6196D01*
X13044Y6165D01*
X13004Y6134D01*
X12973Y6106D01*
X12946Y6079D01*
X12926Y6051D01*
X12906Y6031D01*
X12894Y6016D01*
X12887Y6004D01*
X12883Y6000D01*
X12843Y5933D01*
X12804Y5851D01*
X12777Y5756D01*
X12749Y5658D01*
X12725Y5548D01*
X12706Y5438D01*
X12678Y5218D01*
X12670Y5112D01*
X12663Y5010D01*
X12659Y4919D01*
X12655Y4841D01*
Y4805D01*
X12651Y4774D01*
Y4746D01*
Y4723D01*
Y4703D01*
Y4691D01*
Y4683D01*
Y4679D01*
X12655Y4503D01*
X12663Y4338D01*
X12674Y4188D01*
X12686Y4055D01*
X12706Y3933D01*
X12725Y3827D01*
X12745Y3732D01*
X12769Y3650D01*
X12792Y3575D01*
X12812Y3516D01*
X12832Y3465D01*
X12851Y3426D01*
X12863Y3394D01*
X12875Y3375D01*
X12883Y3363D01*
X12887Y3359D01*
X12930Y3300D01*
X12977Y3253D01*
X13024Y3210D01*
X13075Y3170D01*
X13122Y3139D01*
X13170Y3111D01*
X13213Y3092D01*
X13260Y3072D01*
X13299Y3060D01*
X13339Y3049D01*
X13370Y3045D01*
X13401Y3037D01*
X13425D01*
X13441Y3033D01*
X13456D01*
X13519Y3037D01*
X13578Y3049D01*
X13637Y3064D01*
X13688Y3084D01*
X13787Y3135D01*
X13830Y3166D01*
X13873Y3198D01*
X13908Y3225D01*
X13940Y3257D01*
X13967Y3284D01*
X13987Y3308D01*
X14007Y3328D01*
X14018Y3343D01*
X14026Y3355D01*
X14030Y3359D01*
X14070Y3426D01*
X14105Y3508D01*
X14136Y3603D01*
X14164Y3705D01*
X14187Y3811D01*
X14207Y3921D01*
X14235Y4141D01*
X14242Y4247D01*
X14250Y4349D01*
X14254Y4440D01*
X14258Y4518D01*
Y4554D01*
X14262Y4585D01*
Y4613D01*
Y4636D01*
Y4656D01*
Y4668D01*
Y4676D01*
Y4679D01*
X14258Y4856D01*
X14250Y5021D01*
X14239Y5175D01*
X14223Y5308D01*
X14203Y5434D01*
X14184Y5544D01*
X14160Y5642D01*
X14136Y5733D01*
X14113Y5807D01*
X14089Y5870D01*
X14070Y5925D01*
X14050Y5965D01*
X14034Y6000D01*
X14022Y6024D01*
X14015Y6035D01*
X14011Y6039D01*
X13971Y6090D01*
X13928Y6134D01*
X13885Y6173D01*
X13838Y6208D01*
X13794Y6236D01*
X13747Y6259D01*
X13704Y6279D01*
X13661Y6295D01*
X13582Y6314D01*
X13551Y6322D01*
X13519Y6326D01*
X13496Y6330D01*
D02*
G37*
G36*
X56262Y5293D02*
X56231D01*
X56172Y5289D01*
X56117Y5281D01*
X56062Y5265D01*
X56011Y5249D01*
X55916Y5206D01*
X55838Y5155D01*
X55802Y5127D01*
X55775Y5100D01*
X55747Y5076D01*
X55724Y5057D01*
X55708Y5041D01*
X55696Y5025D01*
X55688Y5017D01*
X55684Y5014D01*
X55645Y4958D01*
X55606Y4896D01*
X55578Y4833D01*
X55551Y4766D01*
X55527Y4695D01*
X55507Y4625D01*
X55480Y4491D01*
X55472Y4428D01*
X55464Y4369D01*
X55460Y4314D01*
X55456Y4267D01*
X55452Y4231D01*
Y4200D01*
Y4184D01*
Y4177D01*
X55456Y4070D01*
X55464Y3972D01*
X55476Y3878D01*
X55488Y3795D01*
X55507Y3717D01*
X55527Y3646D01*
X55547Y3583D01*
X55570Y3524D01*
X55594Y3473D01*
X55614Y3430D01*
X55633Y3394D01*
X55653Y3363D01*
X55665Y3343D01*
X55676Y3324D01*
X55684Y3316D01*
X55688Y3312D01*
X55731Y3265D01*
X55779Y3221D01*
X55830Y3182D01*
X55877Y3151D01*
X55924Y3123D01*
X55971Y3100D01*
X56014Y3084D01*
X56058Y3068D01*
X56101Y3056D01*
X56136Y3049D01*
X56172Y3041D01*
X56199Y3037D01*
X56223Y3033D01*
X56254D01*
X56313Y3037D01*
X56372Y3045D01*
X56423Y3056D01*
X56474Y3076D01*
X56569Y3119D01*
X56651Y3167D01*
X56687Y3190D01*
X56714Y3218D01*
X56741Y3237D01*
X56765Y3257D01*
X56781Y3277D01*
X56793Y3288D01*
X56800Y3296D01*
X56804Y3300D01*
X56844Y3355D01*
X56879Y3414D01*
X56911Y3477D01*
X56934Y3544D01*
X56958Y3615D01*
X56977Y3681D01*
X57005Y3819D01*
X57013Y3882D01*
X57020Y3941D01*
X57024Y3996D01*
X57028Y4043D01*
X57032Y4078D01*
Y4110D01*
Y4125D01*
Y4133D01*
X57028Y4235D01*
X57020Y4334D01*
X57009Y4424D01*
X56993Y4507D01*
X56977Y4585D01*
X56958Y4656D01*
X56934Y4719D01*
X56911Y4778D01*
X56891Y4825D01*
X56867Y4872D01*
X56848Y4907D01*
X56828Y4939D01*
X56816Y4963D01*
X56804Y4982D01*
X56796Y4990D01*
X56793Y4994D01*
X56745Y5045D01*
X56698Y5092D01*
X56651Y5131D01*
X56600Y5167D01*
X56553Y5194D01*
X56506Y5218D01*
X56462Y5241D01*
X56419Y5257D01*
X56380Y5269D01*
X56344Y5277D01*
X56313Y5285D01*
X56286Y5289D01*
X56262Y5293D01*
D02*
G37*
%LPD*%
D10*
X7927Y42881D02*
X7188Y43307D01*
Y42455D01*
X7927Y42881D01*
X51045Y19157D02*
X50307Y19583D01*
Y18730D01*
X51045Y19157D01*
D11*
X55512Y79925D02*
X57268D01*
X58480Y80425D02*
X60138Y80425D01*
X58874Y79925D02*
Y80425D01*
X58480Y79925D02*
X60039D01*
X56874D02*
Y80425D01*
X55512Y80425D02*
X57268Y80425D01*
X55512Y68898D02*
Y80425D01*
X60138Y68898D02*
Y80425D01*
X7083Y66929D02*
Y68685D01*
X6583Y69898D02*
Y71555D01*
Y70291D02*
X7083D01*
Y69898D02*
Y71457D01*
X6583Y68291D02*
X7083D01*
X6583Y66929D02*
Y68685D01*
Y66929D02*
X18110D01*
X6583Y71555D02*
X18110D01*
X7874Y61779D02*
X19401D01*
X7874Y66405D02*
X19401D01*
Y64649D02*
Y66405D01*
X18902Y65043D02*
X19401D01*
X18902Y61877D02*
Y63436D01*
Y63043D02*
X19401D01*
Y61779D02*
Y63436D01*
X18902Y64649D02*
Y66405D01*
D12*
X7809Y37369D02*
X8793Y37633D01*
X9513Y38354D01*
X9777Y39338D01*
X50402Y24606D02*
X49418Y24342D01*
X48698Y23622D01*
X48434Y22638D01*
X6693Y394D02*
Y7874D01*
X7480Y8661D01*
Y12992D01*
Y17717D02*
Y22835D01*
X6693Y23622D02*
X7480Y22835D01*
X394Y23622D02*
X6693D01*
X62992Y13810D02*
X63749D01*
X61811Y24016D02*
X66535D01*
X59842Y25984D02*
X61811Y24016D01*
X59842Y25984D02*
Y29458D01*
X60917Y68397D02*
X66535D01*
X58968Y66448D02*
X60917Y68397D01*
X58968Y48906D02*
Y66448D01*
X50367Y34843D02*
Y47022D01*
X52251Y48906D01*
X58968D01*
X59694Y48180D01*
X66387D01*
X394Y7874D02*
Y48819D01*
X66535Y6102D02*
X66535Y12205D01*
X66535Y20079D02*
Y24409D01*
X394Y55512D02*
Y68110D01*
Y394D02*
Y1575D01*
X6299Y81496D02*
X66535Y81496D01*
Y80315D02*
Y81496D01*
X66535Y55118D02*
Y74016D01*
X394Y394D02*
X61024D01*
X66535Y30709D02*
Y41339D01*
X44685Y51260D02*
Y61496D01*
X42402Y51221D02*
X44685D01*
X15157Y55086D02*
X18110D01*
X29054D02*
X32007D01*
X24363D02*
X27316D01*
X19671D02*
X22624D01*
X28070Y67330D02*
X31023D01*
X27415Y27428D02*
Y39436D01*
X7730Y27428D02*
Y39436D01*
Y27428D02*
X27415D01*
X7730Y39436D02*
X27415D01*
X41793Y73603D02*
Y79902D01*
X46330Y73622D02*
Y79921D01*
X41793Y65571D02*
Y71871D01*
X46330Y65591D02*
Y71890D01*
X18596Y72342D02*
Y73819D01*
X24718Y76221D02*
Y76417D01*
X22041Y73661D02*
Y79094D01*
X24718Y76417D01*
X17710Y79764D02*
X19521D01*
X27356D02*
X29127D01*
X27356Y73032D02*
X29127D01*
X22041Y73543D02*
X24718Y76221D01*
X18596Y78937D02*
Y80610D01*
X24757Y73661D02*
Y79094D01*
X17710Y73032D02*
X19521D01*
X30796Y22244D02*
X50481D01*
X30796D02*
Y34843D01*
X50481Y22244D02*
Y34843D01*
X30796D02*
X50481D01*
X58525Y13835D02*
X62992Y13810D01*
X58525Y394D02*
Y13835D01*
X59842Y39652D02*
X66535D01*
X59842Y29458D02*
Y39652D01*
X50481Y29458D02*
X59842D01*
D17*
X11220Y56693D02*
X13583D01*
X18186Y10433D02*
X18580Y10433D01*
X18182Y12402D02*
X18576Y12402D01*
X31121Y49134D02*
X31515Y49134D01*
X31125Y47165D02*
X31519Y47165D01*
X17989Y14173D02*
Y16535D01*
X26608Y14173D02*
Y16535D01*
X32769Y66799D02*
X32769Y66405D01*
X34738Y66803D02*
X34738Y66409D01*
X23123Y64240D02*
X23517Y64240D01*
X23128Y62271D02*
X23521Y62271D01*
X23320Y68110D02*
Y70472D01*
X13970Y75657D02*
X13970Y75263D01*
X12002Y75653D02*
X12002Y75259D01*
X46253Y46496D02*
Y48858D01*
X50092Y9055D02*
Y11417D01*
X26805Y10433D02*
X27198Y10433D01*
X26801Y12402D02*
X27194Y12402D01*
X9842Y16339D02*
X10236Y16339D01*
X9847Y14370D02*
X10240Y14370D01*
X60765Y20884D02*
X60765Y20490D01*
X62734Y20888D02*
X62734Y20494D01*
D18*
X56496Y72441D02*
X57874Y75197D01*
X56496Y72441D02*
X59252D01*
X57874Y71260D02*
Y72441D01*
Y75197D02*
Y75984D01*
Y75197D02*
X59252Y72441D01*
X56496Y75197D02*
X59252D01*
X11811Y69291D02*
X14567Y67913D01*
Y70669D01*
Y69291D02*
X15748D01*
X11024D02*
X11811D01*
X14567Y70669D01*
X11811Y67913D02*
Y70669D01*
X14173Y62665D02*
Y65421D01*
X11417Y62665D02*
X14173Y64043D01*
X14961D01*
X10236D02*
X11417D01*
Y62665D02*
Y65421D01*
X14173Y64043D01*
M02*
