G04*
G04 #@! TF.GenerationSoftware,Altium Limited,Altium Designer,24.1.2 (44)*
G04*
G04 Layer_Physical_Order=4*
G04 Layer_Color=16711680*
%FSLAX25Y25*%
%MOIN*%
G70*
G04*
G04 #@! TF.SameCoordinates,64876319-8F7E-4D7F-B011-834D707076D5*
G04*
G04*
G04 #@! TF.FilePolarity,Positive*
G04*
G01*
G75*
%ADD12C,0.00787*%
%ADD14C,0.01968*%
%ADD15C,0.01575*%
G04:AMPARAMS|DCode=27|XSize=35.83mil|YSize=33.47mil|CornerRadius=3.35mil|HoleSize=0mil|Usage=FLASHONLY|Rotation=0.000|XOffset=0mil|YOffset=0mil|HoleType=Round|Shape=RoundedRectangle|*
%AMROUNDEDRECTD27*
21,1,0.03583,0.02677,0,0,0.0*
21,1,0.02913,0.03347,0,0,0.0*
1,1,0.00669,0.01457,-0.01339*
1,1,0.00669,-0.01457,-0.01339*
1,1,0.00669,-0.01457,0.01339*
1,1,0.00669,0.01457,0.01339*
%
%ADD27ROUNDEDRECTD27*%
G04:AMPARAMS|DCode=28|XSize=70.87mil|YSize=45.28mil|CornerRadius=4.53mil|HoleSize=0mil|Usage=FLASHONLY|Rotation=90.000|XOffset=0mil|YOffset=0mil|HoleType=Round|Shape=RoundedRectangle|*
%AMROUNDEDRECTD28*
21,1,0.07087,0.03622,0,0,90.0*
21,1,0.06181,0.04528,0,0,90.0*
1,1,0.00906,0.01811,0.03091*
1,1,0.00906,0.01811,-0.03091*
1,1,0.00906,-0.01811,-0.03091*
1,1,0.00906,-0.01811,0.03091*
%
%ADD28ROUNDEDRECTD28*%
G04:AMPARAMS|DCode=31|XSize=23.62mil|YSize=23.62mil|CornerRadius=2.36mil|HoleSize=0mil|Usage=FLASHONLY|Rotation=90.000|XOffset=0mil|YOffset=0mil|HoleType=Round|Shape=RoundedRectangle|*
%AMROUNDEDRECTD31*
21,1,0.02362,0.01890,0,0,90.0*
21,1,0.01890,0.02362,0,0,90.0*
1,1,0.00472,0.00945,0.00945*
1,1,0.00472,0.00945,-0.00945*
1,1,0.00472,-0.00945,-0.00945*
1,1,0.00472,-0.00945,0.00945*
%
%ADD31ROUNDEDRECTD31*%
G04:AMPARAMS|DCode=32|XSize=19.68mil|YSize=23.62mil|CornerRadius=1.97mil|HoleSize=0mil|Usage=FLASHONLY|Rotation=0.000|XOffset=0mil|YOffset=0mil|HoleType=Round|Shape=RoundedRectangle|*
%AMROUNDEDRECTD32*
21,1,0.01968,0.01968,0,0,0.0*
21,1,0.01575,0.02362,0,0,0.0*
1,1,0.00394,0.00787,-0.00984*
1,1,0.00394,-0.00787,-0.00984*
1,1,0.00394,-0.00787,0.00984*
1,1,0.00394,0.00787,0.00984*
%
%ADD32ROUNDEDRECTD32*%
G04:AMPARAMS|DCode=33|XSize=19.68mil|YSize=23.62mil|CornerRadius=1.97mil|HoleSize=0mil|Usage=FLASHONLY|Rotation=270.000|XOffset=0mil|YOffset=0mil|HoleType=Round|Shape=RoundedRectangle|*
%AMROUNDEDRECTD33*
21,1,0.01968,0.01968,0,0,270.0*
21,1,0.01575,0.02362,0,0,270.0*
1,1,0.00394,-0.00984,-0.00787*
1,1,0.00394,-0.00984,0.00787*
1,1,0.00394,0.00984,0.00787*
1,1,0.00394,0.00984,-0.00787*
%
%ADD33ROUNDEDRECTD33*%
%ADD51O,0.00787X0.05906*%
%ADD52O,0.00787X0.03937*%
%ADD53O,0.00787X0.40158*%
%ADD54O,0.66929X0.00787*%
%ADD55O,0.00787X0.18898*%
%ADD56O,0.00787X0.10236*%
%ADD57O,0.00787X0.12992*%
%ADD58O,0.60630X0.00787*%
%ADD59O,0.00787X0.01181*%
%ADD60C,0.02362*%
%ADD61C,0.03150*%
%ADD63C,0.02756*%
%ADD64C,0.02362*%
%ADD65C,0.05906*%
%ADD66C,0.01181*%
G04:AMPARAMS|DCode=67|XSize=23.62mil|YSize=23.62mil|CornerRadius=2.36mil|HoleSize=0mil|Usage=FLASHONLY|Rotation=0.000|XOffset=0mil|YOffset=0mil|HoleType=Round|Shape=RoundedRectangle|*
%AMROUNDEDRECTD67*
21,1,0.02362,0.01890,0,0,0.0*
21,1,0.01890,0.02362,0,0,0.0*
1,1,0.00472,0.00945,-0.00945*
1,1,0.00472,-0.00945,-0.00945*
1,1,0.00472,-0.00945,0.00945*
1,1,0.00472,0.00945,0.00945*
%
%ADD67ROUNDEDRECTD67*%
G04:AMPARAMS|DCode=68|XSize=106.3mil|YSize=62.99mil|CornerRadius=6.3mil|HoleSize=0mil|Usage=FLASHONLY|Rotation=90.000|XOffset=0mil|YOffset=0mil|HoleType=Round|Shape=RoundedRectangle|*
%AMROUNDEDRECTD68*
21,1,0.10630,0.05039,0,0,90.0*
21,1,0.09370,0.06299,0,0,90.0*
1,1,0.01260,0.02520,0.04685*
1,1,0.01260,0.02520,-0.04685*
1,1,0.01260,-0.02520,-0.04685*
1,1,0.01260,-0.02520,0.04685*
%
%ADD68ROUNDEDRECTD68*%
G04:AMPARAMS|DCode=69|XSize=33.47mil|YSize=33.47mil|CornerRadius=3.35mil|HoleSize=0mil|Usage=FLASHONLY|Rotation=270.000|XOffset=0mil|YOffset=0mil|HoleType=Round|Shape=RoundedRectangle|*
%AMROUNDEDRECTD69*
21,1,0.03347,0.02677,0,0,270.0*
21,1,0.02677,0.03347,0,0,270.0*
1,1,0.00669,-0.01339,-0.01339*
1,1,0.00669,-0.01339,0.01339*
1,1,0.00669,0.01339,0.01339*
1,1,0.00669,0.01339,-0.01339*
%
%ADD69ROUNDEDRECTD69*%
%ADD70O,0.01968X0.08661*%
G04:AMPARAMS|DCode=71|XSize=122.05mil|YSize=94.49mil|CornerRadius=9.45mil|HoleSize=0mil|Usage=FLASHONLY|Rotation=180.000|XOffset=0mil|YOffset=0mil|HoleType=Round|Shape=RoundedRectangle|*
%AMROUNDEDRECTD71*
21,1,0.12205,0.07559,0,0,180.0*
21,1,0.10315,0.09449,0,0,180.0*
1,1,0.01890,-0.05158,0.03780*
1,1,0.01890,0.05158,0.03780*
1,1,0.01890,0.05158,-0.03780*
1,1,0.01890,-0.05158,-0.03780*
%
%ADD71ROUNDEDRECTD71*%
G04:AMPARAMS|DCode=72|XSize=118.11mil|YSize=104.33mil|CornerRadius=10.43mil|HoleSize=0mil|Usage=FLASHONLY|Rotation=0.000|XOffset=0mil|YOffset=0mil|HoleType=Round|Shape=RoundedRectangle|*
%AMROUNDEDRECTD72*
21,1,0.11811,0.08346,0,0,0.0*
21,1,0.09724,0.10433,0,0,0.0*
1,1,0.02087,0.04862,-0.04173*
1,1,0.02087,-0.04862,-0.04173*
1,1,0.02087,-0.04862,0.04173*
1,1,0.02087,0.04862,0.04173*
%
%ADD72ROUNDEDRECTD72*%
G36*
X62081Y81299D02*
X61196Y80788D01*
X60353Y79945D01*
X60246Y79759D01*
X59372D01*
X59218Y79862D01*
X58819Y79941D01*
X56929D01*
X56530Y79862D01*
X55999Y79855D01*
X55446Y80409D01*
X54722Y80709D01*
X53939D01*
X53333Y80458D01*
X53149Y80422D01*
X52636Y80524D01*
X52481Y80756D01*
X52070Y81030D01*
X51586Y81127D01*
X47964D01*
X47480Y81030D01*
X47070Y80756D01*
X46796Y80346D01*
X46700Y79862D01*
Y73681D01*
X46796Y73197D01*
X47052Y72756D01*
X46796Y72315D01*
X46700Y71831D01*
Y65650D01*
X46796Y65166D01*
X47070Y64755D01*
X47480Y64481D01*
X47964Y64385D01*
X50131D01*
X50357Y63840D01*
X49423Y62906D01*
X49105Y62429D01*
X46693D01*
X46140Y62319D01*
X45671Y62006D01*
X45612Y61918D01*
X44793D01*
X42726Y63986D01*
X42270Y64290D01*
X41732Y64397D01*
X41509D01*
X41218Y64988D01*
X41337Y65166D01*
X41434Y65650D01*
Y67953D01*
X38358D01*
Y69528D01*
X41434D01*
Y71831D01*
X41337Y72315D01*
X41081Y72756D01*
X41337Y73197D01*
X41434Y73681D01*
Y75984D01*
X38358D01*
X35283D01*
Y73681D01*
X35379Y73197D01*
X35635Y72756D01*
X35379Y72315D01*
X35283Y71831D01*
Y70637D01*
X34738Y70164D01*
X33860D01*
X33465Y70560D01*
X33009Y70865D01*
X32471Y70972D01*
X31930D01*
Y71779D01*
X31843Y72217D01*
X31595Y72588D01*
X31224Y72836D01*
X30786Y72923D01*
X28109D01*
X27671Y72836D01*
X27300Y72588D01*
X27052Y72217D01*
X26965Y71779D01*
Y71635D01*
X26375Y71252D01*
X26234Y71280D01*
X25673D01*
X25345Y71771D01*
X25373Y71839D01*
Y72622D01*
X25074Y73346D01*
X24520Y73900D01*
X23796Y74199D01*
X23013D01*
X22290Y73900D01*
X21736Y73346D01*
X21436Y72622D01*
Y71839D01*
X21464Y71771D01*
X21136Y71280D01*
X20407D01*
X20008Y71201D01*
X19669Y70974D01*
X19399D01*
X19061Y71201D01*
X18661Y71280D01*
X17377D01*
X17323Y71291D01*
X17323Y71291D01*
X16618D01*
X14985Y72924D01*
Y73389D01*
X15298Y73778D01*
X15466Y73895D01*
X18379D01*
X18817Y73982D01*
X19188Y74230D01*
X19436Y74602D01*
X19523Y75039D01*
Y77716D01*
X19436Y78154D01*
X19188Y78526D01*
X18817Y78773D01*
X18379Y78861D01*
X15466D01*
X15028Y78773D01*
X14680Y78729D01*
X14354Y78946D01*
X13970Y79023D01*
X12002D01*
X11618Y78946D01*
X11292Y78729D01*
X11233Y78640D01*
X8334D01*
X8071Y78588D01*
X7480Y79014D01*
Y79533D01*
X7172Y80685D01*
X6817Y81299D01*
X7158Y81890D01*
X61923D01*
X62081Y81299D01*
D02*
G37*
G36*
X55371Y77009D02*
X55770Y76849D01*
X55941Y76731D01*
X55965Y76609D01*
X56191Y76270D01*
X56530Y76044D01*
X56929Y75964D01*
X58819D01*
X59218Y76044D01*
X59695Y75652D01*
X59757Y75418D01*
X60353Y74385D01*
X61196Y73542D01*
X62229Y72946D01*
X63380Y72638D01*
X64572D01*
X65724Y72946D01*
X66321Y73291D01*
X66911Y72950D01*
X66877Y56203D01*
X66286Y55863D01*
X65724Y56187D01*
X64572Y56496D01*
X63380D01*
X62229Y56187D01*
X61196Y55591D01*
X60572Y54967D01*
X53177D01*
Y59655D01*
X53192Y59729D01*
Y60430D01*
X55766Y63004D01*
X56244Y63720D01*
X56412Y64565D01*
Y66804D01*
X56929Y67303D01*
X58819D01*
X59218Y67382D01*
X59557Y67608D01*
X59783Y67947D01*
X59863Y68347D01*
Y70236D01*
X59783Y70636D01*
X59557Y70974D01*
X59218Y71201D01*
X58819Y71280D01*
X58148D01*
X56563Y72865D01*
X56042Y73213D01*
X55428Y73335D01*
X55428Y73335D01*
X53384D01*
X52912Y73641D01*
X52851Y73911D01*
Y76632D01*
X52899Y76690D01*
X53442Y76978D01*
X53939Y76772D01*
X54722D01*
X55295Y77009D01*
X55371Y77009D01*
D02*
G37*
G36*
X11618Y71974D02*
X11839Y71930D01*
X11896Y71644D01*
X12244Y71123D01*
X14818Y68550D01*
X15339Y68202D01*
X15774Y68115D01*
X15807Y67947D01*
X16034Y67608D01*
X16372Y67382D01*
X16772Y67303D01*
X18661D01*
X18969Y67364D01*
X20068D01*
Y65648D01*
X18664D01*
X18612Y65725D01*
X18273Y65952D01*
X17874Y66031D01*
X15984D01*
X15585Y65952D01*
X15246Y65725D01*
X15020Y65387D01*
X14941Y64987D01*
Y63098D01*
X15020Y62698D01*
X15246Y62360D01*
X15585Y62134D01*
X15984Y62054D01*
X17017D01*
X17072Y62043D01*
X17415D01*
Y61386D01*
X17505Y61170D01*
X17323Y60897D01*
Y58196D01*
Y55714D01*
X17874D01*
X18312Y55801D01*
X18683Y56049D01*
X19099D01*
X19470Y55801D01*
X19908Y55714D01*
X20459D01*
Y58196D01*
X22034D01*
Y55714D01*
X22585D01*
X23023Y55801D01*
X23394Y56049D01*
X23790D01*
X24161Y55801D01*
X24599Y55714D01*
X25150D01*
Y58196D01*
X26725D01*
Y55714D01*
X27276D01*
X27714Y55801D01*
X28085Y56049D01*
X28481D01*
X28852Y55801D01*
X29290Y55714D01*
X29841D01*
Y58196D01*
Y60679D01*
X29290D01*
X28852Y60592D01*
X28481Y60344D01*
X28085D01*
X27714Y60592D01*
X27276Y60679D01*
X25884D01*
X25879Y61268D01*
X26263Y61344D01*
X26589Y61561D01*
X26760Y61818D01*
X26938Y61901D01*
X26989Y61916D01*
X27428Y61987D01*
X27671Y61825D01*
X28109Y61737D01*
X28660D01*
Y64220D01*
Y66703D01*
X28109D01*
X27671Y66615D01*
X27300Y66368D01*
X27052Y65996D01*
X26965Y65559D01*
Y65368D01*
X26375Y65092D01*
X26263Y65167D01*
X25879Y65243D01*
Y63255D01*
X24305D01*
Y65243D01*
X23921Y65167D01*
X23870Y65133D01*
X23279Y65448D01*
Y67116D01*
X23870Y67432D01*
X23945Y67382D01*
X24344Y67303D01*
X24501D01*
Y69291D01*
X26076D01*
Y67303D01*
X26234D01*
X26633Y67382D01*
X26972Y67608D01*
X27061Y67742D01*
X27555Y67987D01*
X27814Y68017D01*
X28109Y67958D01*
X30786D01*
X31175Y68035D01*
X31256Y68027D01*
X31766Y67729D01*
Y67586D01*
X31842Y67202D01*
X32015Y66943D01*
X31934Y66717D01*
X31390Y66505D01*
X31224Y66615D01*
X30786Y66703D01*
X30235D01*
Y64220D01*
Y61737D01*
X30786D01*
X31224Y61825D01*
X31595Y62072D01*
X31843Y62444D01*
X31900Y62730D01*
X32130Y62913D01*
X32278Y63003D01*
X32521Y63089D01*
X32769Y63039D01*
X33680D01*
X34653Y62066D01*
X34648Y62006D01*
X34334Y61537D01*
X34224Y60984D01*
Y54017D01*
X33990Y53782D01*
X33004D01*
X32776Y54123D01*
X32405Y54371D01*
X31967Y54458D01*
X29290D01*
X28852Y54371D01*
X28698Y54268D01*
X28283Y54170D01*
X27868Y54268D01*
X27714Y54371D01*
X27276Y54458D01*
X24599D01*
X24161Y54371D01*
X24007Y54268D01*
X23592Y54170D01*
X23177Y54268D01*
X23023Y54371D01*
X22585Y54458D01*
X19908D01*
X19470Y54371D01*
X19302Y54259D01*
X18891Y54169D01*
X18479Y54259D01*
X18312Y54371D01*
X17874Y54458D01*
X15197D01*
X14981Y54415D01*
X14390Y54781D01*
Y55337D01*
X14483Y55454D01*
X14925Y55754D01*
X14964Y55760D01*
X15197Y55714D01*
X15748D01*
Y58196D01*
Y60679D01*
X15197D01*
X14759Y60592D01*
X14669Y60532D01*
X14084Y60344D01*
X13746Y60571D01*
X13346Y60650D01*
X11457D01*
X11057Y60571D01*
X10719Y60344D01*
X10666Y60266D01*
X9647D01*
X9383Y60530D01*
X8659Y60830D01*
X7876D01*
X7153Y60530D01*
X6599Y59976D01*
X6299Y59253D01*
Y58469D01*
X6599Y57746D01*
X7153Y57192D01*
X7876Y56893D01*
X8659D01*
X9383Y57192D01*
X9647Y57456D01*
X10465D01*
X10492Y57317D01*
X10719Y56978D01*
Y56407D01*
X10492Y56069D01*
X10413Y55669D01*
Y53780D01*
X10492Y53380D01*
X10599Y53220D01*
Y51118D01*
X9134Y49653D01*
X9072Y49560D01*
X8795Y49375D01*
X8404Y48789D01*
X8266Y48098D01*
Y41405D01*
X8404Y40714D01*
X8795Y40128D01*
X9381Y39736D01*
X10072Y39599D01*
X10764Y39736D01*
X11350Y40128D01*
X11741Y40714D01*
X11879Y41405D01*
Y47856D01*
X12799Y48777D01*
X13343Y48486D01*
X13266Y48098D01*
Y41405D01*
X13404Y40714D01*
X13795Y40128D01*
X14381Y39736D01*
X15072Y39599D01*
X15764Y39736D01*
X16350Y40128D01*
X16741Y40714D01*
X16879Y41405D01*
Y44751D01*
X16879Y44751D01*
Y47350D01*
X17117Y47588D01*
X17509Y48174D01*
X17647Y48866D01*
Y48916D01*
X17675Y48930D01*
X18266Y48556D01*
Y48098D01*
X18266Y48098D01*
Y41405D01*
X18404Y40714D01*
X18795Y40128D01*
X19381Y39736D01*
X20072Y39599D01*
X20764Y39736D01*
X21350Y40128D01*
X21741Y40714D01*
X21879Y41405D01*
Y46326D01*
X21879Y46326D01*
Y49493D01*
X22585D01*
X23023Y49580D01*
X23023Y49580D01*
X23356Y49463D01*
X23520Y48963D01*
X23404Y48789D01*
X23266Y48098D01*
Y41405D01*
X23404Y40714D01*
X23795Y40128D01*
X24381Y39736D01*
X25072Y39599D01*
X25764Y39736D01*
X26350Y40128D01*
X26741Y40714D01*
X26879Y41405D01*
Y46445D01*
X28065D01*
X28375Y46238D01*
X28759Y46162D01*
X30334D01*
X30718Y46238D01*
X31043Y46456D01*
X31593D01*
X31918Y46238D01*
X32302Y46162D01*
Y48150D01*
X33090D01*
Y48937D01*
X34880D01*
Y49134D01*
X34804Y49518D01*
X34763Y49579D01*
X35079Y50169D01*
X35525D01*
X35597Y50183D01*
X35669Y50169D01*
X40709D01*
X41262Y50279D01*
X41730Y50592D01*
X42044Y51061D01*
X42154Y51614D01*
Y59812D01*
X42699Y60038D01*
X43218Y59520D01*
X43673Y59215D01*
X44211Y59109D01*
X45248D01*
Y51614D01*
X45358Y51061D01*
X45671Y50592D01*
X46140Y50279D01*
X46291Y50249D01*
X46332Y49679D01*
X45820Y49459D01*
X45629Y49586D01*
X45230Y49666D01*
X45072D01*
Y47677D01*
X44285D01*
Y46890D01*
X42296D01*
Y46732D01*
X42376Y46333D01*
X42602Y45994D01*
X42706Y45925D01*
X42581Y45298D01*
X42447Y45271D01*
X41861Y44880D01*
X41470Y44294D01*
X41332Y43602D01*
Y36909D01*
X41470Y36218D01*
X41861Y35632D01*
X42447Y35241D01*
X43139Y35103D01*
X43225Y35120D01*
X44256Y34089D01*
X44646Y33828D01*
X45107Y33737D01*
X45107Y33737D01*
X46624D01*
X46781Y33632D01*
X47242Y33540D01*
X47242Y33540D01*
X50268D01*
X50268Y33540D01*
X50729Y33632D01*
X51120Y33893D01*
X51759Y34532D01*
X52416D01*
X53139Y34831D01*
X53693Y35385D01*
X53993Y36109D01*
Y36892D01*
X53693Y37615D01*
X53139Y38169D01*
X52416Y38469D01*
X51633D01*
X50909Y38169D01*
X50536Y37795D01*
X49945Y38040D01*
Y40322D01*
X49945Y40322D01*
Y43472D01*
Y46054D01*
X50131Y46333D01*
X50211Y46732D01*
Y48622D01*
X50131Y49021D01*
X50028Y49175D01*
Y50169D01*
X50694D01*
X50787Y50151D01*
X55574D01*
X55969Y49560D01*
X55905Y49407D01*
Y48624D01*
X56205Y47901D01*
X56759Y47347D01*
X57482Y47047D01*
X58266D01*
X58989Y47347D01*
X59543Y47901D01*
X59842Y48624D01*
Y48893D01*
X60109Y49047D01*
X60433Y49109D01*
X60913Y48629D01*
X61132Y48228D01*
X60913Y47827D01*
X60353Y47268D01*
X59757Y46236D01*
X59449Y45084D01*
Y43892D01*
X59757Y42741D01*
X60353Y41708D01*
X61196Y40865D01*
X62229Y40269D01*
X63380Y39961D01*
X64572D01*
X65724Y40269D01*
X66255Y40576D01*
X66845Y40235D01*
X66828Y31822D01*
X66237Y31482D01*
X65724Y31778D01*
X64572Y32087D01*
X63380D01*
X62229Y31778D01*
X61196Y31182D01*
X60353Y30339D01*
X59757Y29307D01*
X59449Y28155D01*
Y26963D01*
X59757Y25811D01*
X60353Y24779D01*
X60361Y24771D01*
X60368Y24567D01*
X60281Y24106D01*
X60056Y23956D01*
X59838Y23630D01*
X59762Y23246D01*
Y21671D01*
X59838Y21287D01*
X60056Y20962D01*
Y20629D01*
X59688Y20229D01*
X59042Y20220D01*
X55140Y24122D01*
X54749Y24383D01*
X54288Y24475D01*
X54288Y24475D01*
X47849D01*
X47849Y24475D01*
X47388Y24383D01*
X46997Y24122D01*
X46997Y24122D01*
X44767Y21892D01*
X43996Y21735D01*
X43830Y21846D01*
X43139Y21983D01*
X42447Y21846D01*
X41861Y21454D01*
X41470Y20868D01*
X41332Y20177D01*
Y13484D01*
X41408Y13102D01*
X41002Y12511D01*
X40275D01*
X39869Y13102D01*
X39945Y13484D01*
Y16043D01*
X36332D01*
Y13484D01*
X36399Y13148D01*
X35855Y12857D01*
X34945Y13767D01*
Y20177D01*
X34808Y20868D01*
X34416Y21454D01*
X33830Y21846D01*
X33139Y21983D01*
X32447Y21846D01*
X31861Y21454D01*
X31470Y20868D01*
X31332Y20177D01*
Y13484D01*
X31470Y12793D01*
X31861Y12207D01*
X32447Y11815D01*
X33139Y11678D01*
X33547Y11759D01*
X34850Y10456D01*
X34850Y10455D01*
X35241Y10194D01*
X35702Y10103D01*
X44911D01*
X44911Y10103D01*
X45372Y10194D01*
X45544Y10310D01*
X46135Y10031D01*
Y9291D01*
X46214Y8892D01*
X46221Y8882D01*
Y8618D01*
X44527Y6925D01*
X6910D01*
X6576Y7504D01*
X5733Y8347D01*
X4700Y8943D01*
X3549Y9252D01*
X2357D01*
X1205Y8943D01*
X591Y8589D01*
X0Y8929D01*
Y47960D01*
X591Y48301D01*
X1205Y47946D01*
X2357Y47638D01*
X3549D01*
X4700Y47946D01*
X5733Y48542D01*
X6576Y49385D01*
X7172Y50418D01*
X7480Y51569D01*
Y52761D01*
X7172Y53913D01*
X6576Y54945D01*
X5733Y55788D01*
X4700Y56384D01*
X3549Y56693D01*
X2357D01*
X1205Y56384D01*
X591Y56029D01*
X0Y56371D01*
Y67448D01*
X591Y67789D01*
X1205Y67435D01*
X2357Y67126D01*
X3549D01*
X4700Y67435D01*
X5733Y68031D01*
X6476Y68774D01*
X7067Y68633D01*
Y68347D01*
X7146Y67947D01*
X7372Y67608D01*
X7711Y67382D01*
X8110Y67303D01*
X10000D01*
X10399Y67382D01*
X10738Y67608D01*
X10964Y67947D01*
X11044Y68347D01*
Y70236D01*
X10964Y70636D01*
X10738Y70974D01*
X10661Y71026D01*
Y71842D01*
X10702Y71883D01*
X10735Y71962D01*
X10902Y72031D01*
X11430Y72099D01*
X11618Y71974D01*
D02*
G37*
G36*
X57792Y18064D02*
X57792Y18064D01*
X58183Y17803D01*
X58644Y17711D01*
X58644Y17711D01*
X59860D01*
X60056Y17418D01*
X60381Y17201D01*
X60765Y17124D01*
X61384D01*
X61424Y16923D01*
X61686Y16533D01*
X63138Y15080D01*
X62992Y14536D01*
Y13810D01*
X63180Y13110D01*
X63543Y12481D01*
X64056Y11968D01*
X64684Y11605D01*
X65385Y11417D01*
X66111D01*
X66319Y11473D01*
X66787Y11113D01*
X66764Y-0D01*
X5006Y0D01*
X4848Y591D01*
X5733Y1101D01*
X6576Y1944D01*
X7172Y2977D01*
X7261Y3312D01*
X45276D01*
X45967Y3449D01*
X46553Y3841D01*
X49305Y6593D01*
X49696Y7179D01*
X49834Y7870D01*
Y8304D01*
X50192Y8468D01*
X50361Y8508D01*
X50474Y8489D01*
X50716Y8327D01*
X51116Y8248D01*
X51273D01*
Y10236D01*
Y12225D01*
X51116D01*
X50716Y12145D01*
X50520Y12015D01*
X50034Y12193D01*
X49930Y12276D01*
Y13409D01*
X49945Y13484D01*
Y13550D01*
X49945Y13550D01*
Y17181D01*
X49945Y17181D01*
Y20177D01*
X49808Y20868D01*
X49416Y21454D01*
X49384Y21476D01*
X49563Y22067D01*
X53789D01*
X57792Y18064D01*
D02*
G37*
%LPC*%
G36*
X31372Y78861D02*
X28458D01*
X28020Y78773D01*
X27649Y78526D01*
X27543Y78367D01*
X27357Y78150D01*
X26786Y78090D01*
X26446Y78231D01*
X25663D01*
X24939Y77931D01*
X24386Y77378D01*
X24086Y76654D01*
Y75871D01*
X24386Y75147D01*
X24939Y74594D01*
X25663Y74294D01*
X26446D01*
X26841Y74458D01*
X27221Y74555D01*
X27646Y74235D01*
X27649Y74230D01*
X28020Y73982D01*
X28458Y73895D01*
X31372D01*
X31809Y73982D01*
X32181Y74230D01*
X32429Y74602D01*
X32516Y75039D01*
Y77716D01*
X32429Y78154D01*
X32181Y78526D01*
X31809Y78773D01*
X31372Y78861D01*
D02*
G37*
G36*
X40169Y81127D02*
X39145D01*
Y77559D01*
X41434D01*
Y79862D01*
X41337Y80346D01*
X41063Y80756D01*
X40653Y81030D01*
X40169Y81127D01*
D02*
G37*
G36*
X37571D02*
X36547D01*
X36063Y81030D01*
X35653Y80756D01*
X35379Y80346D01*
X35283Y79862D01*
Y77559D01*
X37571D01*
Y81127D01*
D02*
G37*
G36*
X9213Y66031D02*
X9055D01*
Y64830D01*
X10256D01*
Y64987D01*
X10177Y65387D01*
X9950Y65725D01*
X9612Y65952D01*
X9213Y66031D01*
D02*
G37*
G36*
X7480D02*
X7323D01*
X6923Y65952D01*
X6585Y65725D01*
X6359Y65387D01*
X6279Y64987D01*
Y64830D01*
X7480D01*
Y66031D01*
D02*
G37*
G36*
X10256Y63255D02*
X9055D01*
Y62054D01*
X9213D01*
X9612Y62134D01*
X9950Y62360D01*
X10177Y62698D01*
X10256Y63098D01*
Y63255D01*
D02*
G37*
G36*
X7480D02*
X6279D01*
Y63098D01*
X6359Y62698D01*
X6585Y62360D01*
X6923Y62134D01*
X7323Y62054D01*
X7480D01*
Y63255D01*
D02*
G37*
G36*
X31967Y60679D02*
X31416D01*
Y58984D01*
X33111D01*
Y59535D01*
X33024Y59973D01*
X32776Y60344D01*
X32405Y60592D01*
X31967Y60679D01*
D02*
G37*
G36*
X33111Y57409D02*
X31416D01*
Y55714D01*
X31967D01*
X32405Y55801D01*
X32776Y56049D01*
X33024Y56420D01*
X33111Y56858D01*
Y57409D01*
D02*
G37*
G36*
X43498Y49666D02*
X43340D01*
X42941Y49586D01*
X42602Y49360D01*
X42376Y49021D01*
X42296Y48622D01*
Y48465D01*
X43498D01*
Y49666D01*
D02*
G37*
G36*
X34880Y47362D02*
X33877D01*
Y46162D01*
X34261Y46238D01*
X34587Y46456D01*
X34804Y46781D01*
X34880Y47165D01*
Y47362D01*
D02*
G37*
G36*
X38139Y45409D02*
X37447Y45271D01*
X36861Y44880D01*
X36470Y44294D01*
X36332Y43602D01*
Y36909D01*
X36470Y36218D01*
X36861Y35632D01*
X37447Y35241D01*
X38139Y35103D01*
X38830Y35241D01*
X39416Y35632D01*
X39808Y36218D01*
X39945Y36909D01*
Y43602D01*
X39808Y44294D01*
X39416Y44880D01*
X38830Y45271D01*
X38139Y45409D01*
D02*
G37*
G36*
X33139D02*
X32447Y45271D01*
X31861Y44880D01*
X31470Y44294D01*
X31332Y43602D01*
Y40567D01*
X29527D01*
X29333Y40528D01*
X29135D01*
X28953Y40452D01*
X28759Y40414D01*
X28594Y40304D01*
X28412Y40228D01*
X28272Y40089D01*
X28107Y39979D01*
X27998Y39814D01*
X27858Y39675D01*
X27782Y39492D01*
X27672Y39328D01*
X27634Y39134D01*
X27558Y38951D01*
Y38754D01*
X27520Y38560D01*
X27558Y38366D01*
Y38168D01*
X27634Y37985D01*
X27672Y37791D01*
X27782Y37627D01*
X27858Y37444D01*
X27998Y37305D01*
X28107Y37140D01*
X28272Y37031D01*
X28412Y36891D01*
X28594Y36815D01*
X28759Y36705D01*
X28953Y36667D01*
X29135Y36591D01*
X29333D01*
X29527Y36553D01*
X31403D01*
X31470Y36218D01*
X31861Y35632D01*
X32447Y35241D01*
X33139Y35103D01*
X33830Y35241D01*
X34416Y35632D01*
X34808Y36218D01*
X34945Y36909D01*
Y43602D01*
X34808Y44294D01*
X34416Y44880D01*
X33830Y45271D01*
X33139Y45409D01*
D02*
G37*
G36*
X15860Y27065D02*
Y22901D01*
X16879D01*
Y25460D01*
X16741Y26151D01*
X16350Y26737D01*
X15860Y27065D01*
D02*
G37*
G36*
X14285D02*
X13795Y26737D01*
X13404Y26151D01*
X13266Y25460D01*
Y22901D01*
X14285D01*
Y27065D01*
D02*
G37*
G36*
X38926Y21782D02*
Y17618D01*
X39945D01*
Y20177D01*
X39808Y20868D01*
X39416Y21454D01*
X38926Y21782D01*
D02*
G37*
G36*
X37351D02*
X36861Y21454D01*
X36470Y20868D01*
X36332Y20177D01*
Y17618D01*
X37351D01*
Y21782D01*
D02*
G37*
G36*
X8659Y30120D02*
X7876D01*
X7153Y29820D01*
X6599Y29266D01*
X6299Y28543D01*
Y27760D01*
X6599Y27036D01*
X7153Y26482D01*
X7362Y26395D01*
X8266Y25492D01*
Y25460D01*
X8266Y25460D01*
Y18767D01*
X8404Y18076D01*
X8499Y17933D01*
X8184Y17342D01*
X7480D01*
X7096Y17266D01*
X6771Y17048D01*
X6553Y16723D01*
X6521Y16559D01*
X5906D01*
Y16723D01*
X5606Y17447D01*
X5052Y18000D01*
X4329Y18300D01*
X3545D01*
X2822Y18000D01*
X2268Y17447D01*
X1969Y16723D01*
Y15940D01*
X2268Y15217D01*
X2822Y14663D01*
X3545Y14363D01*
X4272D01*
X4453Y14242D01*
X4914Y14150D01*
X6521D01*
X6553Y13986D01*
X6771Y13660D01*
X7096Y13443D01*
X7480Y13367D01*
X9055D01*
X9439Y13443D01*
X9765Y13660D01*
X10314D01*
X10639Y13443D01*
X11023Y13367D01*
Y15354D01*
X12598D01*
Y13367D01*
X12982Y13443D01*
X13308Y13660D01*
X13517Y13973D01*
X13614Y13990D01*
X13997Y14005D01*
X14128Y13986D01*
X14338Y13671D01*
X14676Y13445D01*
X14905Y12798D01*
X14897Y12786D01*
X14820Y12402D01*
Y12205D01*
X16611D01*
Y11417D01*
X17399D01*
Y9430D01*
X17783Y9506D01*
X18108Y9724D01*
X18657D01*
X18983Y9506D01*
X19367Y9430D01*
X20942D01*
X21326Y9506D01*
X21652Y9724D01*
X21845Y10012D01*
X23540D01*
X23733Y9724D01*
X24058Y9506D01*
X24442Y9430D01*
X26017D01*
X26401Y9506D01*
X26727Y9724D01*
X27276D01*
X27602Y9506D01*
X27986Y9430D01*
X29561D01*
X29945Y9506D01*
X30270Y9724D01*
X30488Y10049D01*
X30564Y10433D01*
Y11340D01*
X30580Y11417D01*
Y15157D01*
X30565Y15231D01*
Y16299D01*
X30485Y16699D01*
X30471Y16720D01*
Y17539D01*
X30709Y18112D01*
Y18895D01*
X30409Y19619D01*
X29855Y20173D01*
X29132Y20472D01*
X28349D01*
X27625Y20173D01*
X27469Y20017D01*
X26879Y20262D01*
Y25460D01*
X26741Y26151D01*
X26350Y26737D01*
X25764Y27129D01*
X25072Y27266D01*
X24381Y27129D01*
X23795Y26737D01*
X23404Y26151D01*
X23266Y25460D01*
Y18767D01*
X23404Y18076D01*
X23515Y17909D01*
X23306Y17266D01*
X23295Y17264D01*
X22956Y17037D01*
X22730Y16699D01*
X22651Y16299D01*
Y14410D01*
X22730Y14010D01*
X22956Y13671D01*
X23295Y13445D01*
X23113Y12911D01*
X23063Y12822D01*
X22096D01*
X21670Y13340D01*
X21713Y13780D01*
X21867Y14010D01*
X21946Y14410D01*
Y16299D01*
X21867Y16699D01*
X21641Y17037D01*
X21520Y17118D01*
Y17745D01*
X21741Y18076D01*
X21879Y18767D01*
Y25460D01*
X21741Y26151D01*
X21350Y26737D01*
X20764Y27129D01*
X20072Y27266D01*
X19381Y27129D01*
X18795Y26737D01*
X18404Y26151D01*
X18266Y25460D01*
Y18767D01*
X18404Y18076D01*
X18552Y17853D01*
X18589Y17498D01*
X18115Y17037D01*
X17704D01*
X17365Y17264D01*
X16965Y17343D01*
X16962D01*
X16646Y17933D01*
X16741Y18076D01*
X16879Y18767D01*
Y21326D01*
X15072D01*
X13266D01*
Y18767D01*
X13404Y18076D01*
X13795Y17490D01*
X13893Y17424D01*
X13815Y17196D01*
X13705Y17164D01*
X13196Y17123D01*
X12982Y17266D01*
X12598Y17342D01*
X11961D01*
X11646Y17933D01*
X11741Y18076D01*
X11879Y18767D01*
Y22113D01*
X11879Y22114D01*
Y26240D01*
X11741Y26931D01*
X11350Y27517D01*
X10174Y28693D01*
X9937Y29266D01*
X9383Y29820D01*
X8659Y30120D01*
D02*
G37*
G36*
X15824Y10630D02*
X14820D01*
Y10433D01*
X14897Y10049D01*
X15114Y9724D01*
X15440Y9506D01*
X15824Y9430D01*
D01*
Y10630D01*
D02*
G37*
G36*
X53005Y12225D02*
X52848D01*
Y11024D01*
X54049D01*
Y11181D01*
X53970Y11581D01*
X53743Y11919D01*
X53405Y12145D01*
X53005Y12225D01*
D02*
G37*
G36*
X54049Y9449D02*
X52848D01*
Y8248D01*
X53005D01*
X53405Y8327D01*
X53743Y8553D01*
X53970Y8892D01*
X54049Y9291D01*
Y9449D01*
D02*
G37*
%LPD*%
D12*
X50268Y34744D02*
X52024Y36500D01*
X47242Y34744D02*
X50268D01*
X47045Y34941D02*
X47242Y34744D01*
X45107Y34941D02*
X47045D01*
X43139Y36909D02*
X45107Y34941D01*
X43139Y36909D02*
Y40256D01*
X47849Y23271D02*
X54288D01*
X45619Y12014D02*
Y21040D01*
X47849Y23271D01*
X62537Y17384D02*
X65748Y14173D01*
Y14173D02*
Y14173D01*
X62537Y17384D02*
Y18325D01*
X61946Y18915D02*
X62537Y18325D01*
X58644Y18915D02*
X61946D01*
X61750Y22459D02*
Y24624D01*
X63976Y26851D01*
Y27559D01*
X54288Y23271D02*
X58644Y18915D01*
X63699Y27282D02*
X63976Y27559D01*
X44911Y11307D02*
X45619Y12014D01*
X33139Y13870D02*
X35702Y11307D01*
X44911D01*
X33139Y13870D02*
Y16897D01*
X4914Y15354D02*
X8268D01*
X3937Y16332D02*
X4914Y15354D01*
X34214Y64567D02*
X34541Y64240D01*
X34139Y64567D02*
X34214D01*
X34541Y64165D02*
Y64240D01*
D14*
X62124Y77953D02*
X62911Y77165D01*
X57874Y77953D02*
X62124D01*
X62911Y77165D02*
X63976D01*
X48027Y10140D02*
X48124Y10236D01*
Y13535D02*
X48139Y13550D01*
Y16897D01*
Y17181D01*
X48124Y10236D02*
Y13535D01*
X28665Y16033D02*
Y18429D01*
X28740Y18504D01*
X48027Y7870D02*
Y10140D01*
X45276Y5118D02*
X48027Y7870D01*
X2953Y5118D02*
X45276D01*
X48222Y47677D02*
Y54131D01*
X15072Y48098D02*
X15840Y48866D01*
Y52369D01*
X15072Y44751D02*
Y48098D01*
X48139Y43472D02*
Y47594D01*
X48222Y54131D02*
Y55309D01*
X48139Y40322D02*
Y43472D01*
X48222Y55309D02*
X49213Y56299D01*
X28576Y15354D02*
X28773Y15157D01*
Y11417D02*
Y15157D01*
X10072Y22114D02*
Y26240D01*
X8268Y28045D02*
X10072Y26240D01*
X24994Y51976D02*
X35525D01*
X20820D02*
X25781D01*
X20466Y51621D02*
X20820Y51976D01*
X20072Y46326D02*
Y52015D01*
X15840Y51976D02*
X20820D01*
X8268Y28045D02*
Y28151D01*
X35131Y52369D02*
X35722Y52960D01*
D15*
X50888Y78740D02*
X54331D01*
X49645Y76247D02*
Y77497D01*
X50888Y78740D01*
X49645Y75590D02*
Y76247D01*
X49775Y68846D02*
Y70020D01*
Y68740D02*
Y68846D01*
X57472Y69685D02*
X57480D01*
X52982Y71730D02*
X55428D01*
X51252Y71496D02*
X52748D01*
X57480Y69685D02*
X57874Y69291D01*
X55428Y71730D02*
X57472Y69685D01*
X52748Y71496D02*
X52982Y71730D01*
X49775Y70020D02*
X51252Y71496D01*
X48988Y69633D02*
Y76247D01*
X49645Y75590D01*
X16529Y76346D02*
Y76424D01*
X8334Y77035D02*
X15919D01*
X26054Y76262D02*
X26096Y76304D01*
X29480D01*
X29521Y76346D01*
X9055Y69291D02*
Y72976D01*
X9033Y72998D02*
X9055Y72976D01*
X13183Y73688D02*
X13379Y73491D01*
Y72259D02*
X15953Y69685D01*
X13379Y72259D02*
Y73491D01*
X12986Y73688D02*
X13183D01*
X15953Y69685D02*
X17323D01*
X17717Y69291D01*
X17072Y63649D02*
X19384D01*
X21504Y64043D02*
X21674Y63873D01*
X16929Y64043D02*
X21504D01*
X19384Y61778D02*
X19535Y61928D01*
Y63176D02*
X20007Y63649D01*
X19535Y61928D02*
Y63176D01*
X20007Y63649D02*
X21352D01*
X25938Y58196D02*
X30629D01*
X15840D02*
X21246D01*
X25938D01*
X15650Y58387D02*
X15731Y58306D01*
X21674Y63873D02*
Y68970D01*
X25190Y64436D02*
Y69193D01*
Y64436D02*
X25762Y65007D01*
X29448D01*
X18182Y68970D02*
X20886D01*
X2953Y71653D02*
X8334Y77035D01*
X11811Y15354D02*
X16021D01*
X10269Y48518D02*
X12205Y50453D01*
Y54751D01*
X10072Y48204D02*
X10269Y48401D01*
Y48518D01*
X12148Y54808D02*
X12205Y54751D01*
X10072Y45145D02*
Y48204D01*
X12100Y54808D02*
X12148D01*
X16564Y11464D02*
X16611Y11417D01*
X15919Y77035D02*
X16529Y76424D01*
X16414Y11696D02*
Y14961D01*
Y11696D02*
X16566Y11544D01*
X16021Y15354D02*
X16414Y14961D01*
X38358Y68740D02*
Y76772D01*
X48988Y69633D02*
X49775Y68846D01*
D27*
X29915Y76378D02*
D03*
X16923D02*
D03*
D28*
X49775Y76772D02*
D03*
X38358D02*
D03*
X49775Y68740D02*
D03*
X38358D02*
D03*
D31*
X12402Y54724D02*
D03*
Y58661D02*
D03*
X9055Y69291D02*
D03*
X17717D02*
D03*
X8268Y64043D02*
D03*
X16929D02*
D03*
D32*
X20155Y11417D02*
D03*
X16611D02*
D03*
X29546Y48150D02*
D03*
X33090D02*
D03*
X21549Y63255D02*
D03*
X25092D02*
D03*
X28773Y11417D02*
D03*
X25230D02*
D03*
X8268Y15354D02*
D03*
X11811D02*
D03*
D33*
X33753Y64830D02*
D03*
Y68374D02*
D03*
X12986Y77232D02*
D03*
Y73688D02*
D03*
X61750Y18915D02*
D03*
Y22459D02*
D03*
D51*
X66535Y9055D02*
D03*
D52*
Y22047D02*
D03*
D53*
X394Y28543D02*
D03*
D54*
X33465Y394D02*
D03*
D55*
X66535Y64764D02*
D03*
D56*
Y35827D02*
D03*
D57*
X394Y62008D02*
D03*
D58*
X36614Y81496D02*
D03*
D59*
X394Y591D02*
D03*
X66535Y81299D02*
D03*
D60*
X29527Y38560D02*
X32423D01*
X32446Y38583D01*
D61*
X47772Y54131D02*
X48222D01*
X50787Y52559D02*
X62640D01*
X63231Y51968D01*
X63976D01*
X49215Y54131D02*
X50787Y52559D01*
X48222Y54131D02*
X49215D01*
X49213Y54134D02*
X49215Y54131D01*
D63*
X49213Y54134D02*
Y56299D01*
X50984Y61345D02*
X54205Y64565D01*
X50984Y59729D02*
Y61345D01*
X54205Y64565D02*
Y68777D01*
X49213Y57957D02*
X50984Y59729D01*
X49213Y56299D02*
Y57957D01*
D64*
X65748Y18110D02*
D03*
Y14173D02*
D03*
X54331Y78740D02*
D03*
X33922Y76362D02*
D03*
X26054Y76262D02*
D03*
X23405Y72231D02*
D03*
X57874Y49016D02*
D03*
X65345Y22029D02*
D03*
X52024Y36500D02*
D03*
X51575Y18110D02*
D03*
X58368Y32605D02*
D03*
X58376Y23754D02*
D03*
X29527Y38560D02*
D03*
X35415Y48539D02*
D03*
X32666Y32967D02*
D03*
X5512Y36417D02*
D03*
X9449Y33465D02*
D03*
X29851Y61535D02*
D03*
X51091Y13780D02*
D03*
X38406Y8262D02*
D03*
X58933Y15109D02*
D03*
X8206Y8193D02*
D03*
X10925Y1828D02*
D03*
X20669D02*
D03*
X55726Y2749D02*
D03*
X59699Y7054D02*
D03*
X51419Y48964D02*
D03*
X56693Y37402D02*
D03*
X62598Y35433D02*
D03*
Y70866D02*
D03*
X58661Y64961D02*
D03*
X62598Y59055D02*
D03*
X13118Y66649D02*
D03*
X4723Y64322D02*
D03*
X3543Y59055D02*
D03*
Y43307D02*
D03*
Y31496D02*
D03*
X5512Y25591D02*
D03*
X3543Y19685D02*
D03*
X9033Y72998D02*
D03*
X19384Y61778D02*
D03*
X10354Y12044D02*
D03*
X54205Y68777D02*
D03*
X38406Y1969D02*
D03*
X44882Y68110D02*
D03*
X3937Y16332D02*
D03*
X28740Y18504D02*
D03*
X33071Y58653D02*
D03*
X8268Y58861D02*
D03*
Y28151D02*
D03*
X43602Y57905D02*
D03*
X54724Y59055D02*
D03*
X55834Y10222D02*
D03*
X34343Y80425D02*
D03*
X22895Y8250D02*
D03*
X25197Y33465D02*
D03*
X29222Y1828D02*
D03*
X51844Y6538D02*
D03*
D65*
X2953Y71653D02*
D03*
Y4724D02*
D03*
Y52165D02*
D03*
X63976Y51968D02*
D03*
Y77165D02*
D03*
Y27559D02*
D03*
Y44488D02*
D03*
Y2953D02*
D03*
X2953Y78937D02*
D03*
D66*
X32471Y69567D02*
X33163Y68875D01*
X30321Y69567D02*
X32471D01*
X33163Y68767D02*
Y68875D01*
X29448Y70441D02*
X30321Y69567D01*
X33163Y68767D02*
X33557Y68374D01*
X33753D01*
X24639Y15354D02*
X25072Y15787D01*
Y22114D01*
X20115Y16299D02*
Y22693D01*
X8268Y58861D02*
X11879D01*
X12100Y59082D01*
X27095Y47850D02*
X27371D01*
X25072D02*
X27095D01*
X25072D02*
Y48190D01*
Y48278D01*
X24733Y47850D02*
X25072Y48190D01*
X24733Y47850D02*
X25072D01*
X27371D02*
X29290D01*
X46657Y60514D02*
X49213Y57957D01*
X41732Y62992D02*
X44211Y60514D01*
X46657D01*
X35714Y62992D02*
X41732D01*
X34541Y64165D02*
X35714Y62992D01*
X25000Y11918D02*
Y15354D01*
X20155Y11417D02*
X25230D01*
D67*
X57874Y77953D02*
D03*
Y69291D02*
D03*
X19958Y15354D02*
D03*
X16021D02*
D03*
X24639D02*
D03*
X28576D02*
D03*
X21352Y69291D02*
D03*
X25289D02*
D03*
X44285Y47677D02*
D03*
X48222D02*
D03*
X52061Y10236D02*
D03*
X48123D02*
D03*
D68*
X49213Y56299D02*
D03*
X38189D02*
D03*
D69*
X16535Y51976D02*
D03*
Y58196D02*
D03*
X30629Y51976D02*
D03*
Y58196D02*
D03*
X25938Y51976D02*
D03*
Y58196D02*
D03*
X21246Y51976D02*
D03*
Y58196D02*
D03*
X29448Y64220D02*
D03*
Y70441D02*
D03*
D70*
X25072Y22114D02*
D03*
X20072D02*
D03*
X15072D02*
D03*
X10072D02*
D03*
X25072Y44751D02*
D03*
X20072D02*
D03*
X15072D02*
D03*
X10072D02*
D03*
X48139Y16831D02*
D03*
X43139D02*
D03*
X38139D02*
D03*
X33139D02*
D03*
X48139Y40256D02*
D03*
X43139D02*
D03*
X38139D02*
D03*
X33139D02*
D03*
D71*
X17572Y33432D02*
D03*
D72*
X40639Y28543D02*
D03*
M02*
