M48
;Layer_Color=9474304
;FILE_FORMAT=2:4
INCH,TZ
;TYPE=PLATED
T01F00S00C0.0118
T02F00S00C0.0394
%
T01
X1093Y183
X821Y819
X1035Y1204
X394Y1633
X354Y1969
X551Y2559
X827Y2815
X945Y3346
X551Y3642
X354Y3150
Y4331
Y5906
X827Y5886
X1938Y6178
X2985Y6153
X3307Y5865
X4360Y5790
X5472Y5906
X6260
X5787Y4902
X5142Y4896
X5202Y3650
X5669Y3740
X5837Y3260
X6260Y3543
X5838Y2375
X6534Y2203
X6575Y1811
Y1417
X5893Y1511
X5583Y1022
X5970Y705
X5573Y275
X5184Y654
X5109Y1378
X5157Y1811
X3841Y826
Y197
X2922Y183
X2067
X2290Y825
X2874Y1850
X3267Y3297
X2520Y3346
X2953Y3856
X3542Y4854
X4488Y6811
X5420Y6878
X5866Y6496
X6260Y7087
X5433Y7874
X3434Y8042
X3392Y7636
X2605Y7626
X2340Y7223
X903Y7300
X1312Y6665
X472Y6432
T02
X295Y472
Y5217
X6398Y5197
Y4449
Y2756
Y295
Y7717
X295Y7894
Y7165
M30
