G04*
G04 #@! TF.GenerationSoftware,Altium Limited,Altium Designer,22.11.1 (43)*
G04*
G04 Layer_Physical_Order=2*
G04 Layer_Color=36540*
%FSLAX25Y25*%
%MOIN*%
G70*
G04*
G04 #@! TF.SameCoordinates,07D1034A-46FA-41E3-90C9-D2F90A9C3CC4*
G04*
G04*
G04 #@! TF.FilePolarity,Positive*
G04*
G01*
G75*
%ADD68R,0.05512X0.00787*%
%ADD69R,0.00787X0.06299*%
%ADD70R,0.00787X0.19291*%
%ADD71R,0.17717X0.00787*%
%ADD72R,0.36221X0.00787*%
%ADD73R,0.19685X0.00787*%
%ADD74R,0.00787X0.42126*%
%ADD75R,0.00787X0.08268*%
%ADD76R,0.00787X0.65748*%
%ADD77R,0.00787X0.07874*%
%ADD82C,0.02362*%
G36*
X162025Y157087D02*
X162008Y157045D01*
Y156341D01*
X162278Y155689D01*
X162776Y155191D01*
X163427Y154921D01*
X164132D01*
X164783Y155191D01*
X165281Y155689D01*
X165551Y156341D01*
Y156644D01*
X166226Y157231D01*
X166279Y157246D01*
X166535Y157168D01*
Y147597D01*
X165748Y147440D01*
X165577Y147854D01*
X165078Y148352D01*
X164427Y148622D01*
X163722D01*
X163071Y148352D01*
X162573Y147854D01*
X162303Y147203D01*
Y146498D01*
X162573Y145847D01*
X163071Y145349D01*
X163386Y145218D01*
Y144366D01*
X163071Y144235D01*
X162573Y143737D01*
X162303Y143086D01*
Y142381D01*
X162573Y141730D01*
X163071Y141231D01*
X163722Y140962D01*
X164427D01*
X165078Y141231D01*
X165577Y141730D01*
X165748Y142143D01*
X166535Y141987D01*
Y104684D01*
X165748Y104527D01*
X165577Y104941D01*
X165078Y105439D01*
X164427Y105709D01*
X163722D01*
X163071Y105439D01*
X162573Y104941D01*
X162303Y104289D01*
Y103585D01*
X162573Y102934D01*
X163071Y102435D01*
X163722Y102165D01*
X164427D01*
X165078Y102435D01*
X165577Y102934D01*
X165748Y103347D01*
X166535Y103190D01*
Y92438D01*
X165748Y91912D01*
X165707Y91929D01*
X165002D01*
X164351Y91659D01*
X163852Y91161D01*
X163583Y90510D01*
Y89805D01*
X163852Y89154D01*
X164351Y88656D01*
X164448Y88615D01*
Y87763D01*
X164351Y87722D01*
X163852Y87224D01*
X163583Y86573D01*
Y85868D01*
X163852Y85217D01*
X164351Y84719D01*
X164448Y84678D01*
Y83826D01*
X164351Y83785D01*
X163852Y83287D01*
X163583Y82636D01*
Y81931D01*
X163852Y81280D01*
X164351Y80782D01*
X164448Y80741D01*
Y79889D01*
X164351Y79848D01*
X163852Y79350D01*
X163583Y78699D01*
Y77994D01*
X163852Y77343D01*
X164351Y76845D01*
X164448Y76804D01*
Y75952D01*
X164351Y75911D01*
X163852Y75413D01*
X163583Y74762D01*
Y74057D01*
X163852Y73406D01*
X164351Y72908D01*
X164448Y72867D01*
Y72015D01*
X164351Y71974D01*
X163852Y71476D01*
X163583Y70825D01*
Y70120D01*
X163852Y69469D01*
X164351Y68971D01*
X164448Y68930D01*
Y68078D01*
X164351Y68037D01*
X163852Y67539D01*
X163583Y66888D01*
Y66183D01*
X163852Y65532D01*
X164351Y65034D01*
X164448Y64993D01*
Y64141D01*
X164351Y64100D01*
X163852Y63602D01*
X163583Y62951D01*
Y62246D01*
X163852Y61595D01*
X164351Y61097D01*
X165002Y60827D01*
X165707D01*
X165748Y60844D01*
X166535Y60318D01*
Y52674D01*
X165748Y52148D01*
X165707Y52165D01*
X165002D01*
X164351Y51896D01*
X163852Y51397D01*
X163583Y50746D01*
Y50041D01*
X163852Y49390D01*
X163909Y49333D01*
X164296Y48819D01*
X163909Y48305D01*
X163852Y48248D01*
X163583Y47596D01*
Y46892D01*
X163852Y46241D01*
X164351Y45742D01*
X165002Y45472D01*
X165707D01*
X165748Y45490D01*
X166535Y44963D01*
Y4176D01*
X165748Y3636D01*
X165514Y3727D01*
X165511Y3740D01*
X165551Y3890D01*
Y4771D01*
X165323Y5622D01*
X164883Y6385D01*
X164260Y7008D01*
X163496Y7449D01*
X162645Y7677D01*
X161764D01*
X160913Y7449D01*
X160631Y7286D01*
X160006Y7835D01*
X160039Y7915D01*
Y8620D01*
X159770Y9271D01*
X159271Y9770D01*
X158620Y10039D01*
X157915D01*
X157264Y9770D01*
X156766Y9271D01*
X156496Y8620D01*
Y7915D01*
X156766Y7264D01*
X157264Y6766D01*
X157915Y6496D01*
X158620D01*
X158701Y6530D01*
X159249Y5904D01*
X159086Y5622D01*
X158858Y4771D01*
Y3890D01*
X159086Y3039D01*
X159527Y2276D01*
X160150Y1653D01*
X160913Y1212D01*
X161764Y984D01*
X162645D01*
X162795Y1025D01*
X162809Y1021D01*
X162899Y787D01*
X162360Y0D01*
X144013D01*
X143487Y787D01*
X143504Y829D01*
Y1534D01*
X143234Y2185D01*
X142736Y2683D01*
X142085Y2953D01*
X141380D01*
X140729Y2683D01*
X140230Y2185D01*
X139961Y1534D01*
Y829D01*
X139978Y787D01*
X139452Y0D01*
X103855D01*
X103329Y787D01*
X103346Y829D01*
Y1534D01*
X103077Y2185D01*
X102578Y2683D01*
X101927Y2953D01*
X101222D01*
X100571Y2683D01*
X100514Y2626D01*
X100000Y2239D01*
X99486Y2626D01*
X99429Y2683D01*
X99282Y2744D01*
X98622Y3209D01*
Y3914D01*
X98352Y4565D01*
X97854Y5064D01*
X97203Y5333D01*
X96498D01*
X95847Y5064D01*
X95349Y4565D01*
X95079Y3914D01*
Y3209D01*
X94419Y2744D01*
X94272Y2683D01*
X94215Y2626D01*
X93701Y2239D01*
X93186Y2626D01*
X93129Y2683D01*
X92478Y2953D01*
X91774D01*
X91122Y2683D01*
X90624Y2185D01*
X90354Y1534D01*
Y829D01*
X90371Y787D01*
X89845Y0D01*
X83499D01*
X83342Y787D01*
X83756Y959D01*
X84254Y1457D01*
X84511Y1508D01*
X84636Y1383D01*
X85287Y1113D01*
X85992D01*
X86643Y1383D01*
X87141Y1881D01*
X87411Y2533D01*
Y3237D01*
X87141Y3889D01*
X86643Y4387D01*
X85992Y4657D01*
X85287D01*
X84636Y4387D01*
X84137Y3889D01*
X83881Y3838D01*
X83756Y3963D01*
X83105Y4232D01*
X82400D01*
X81749Y3963D01*
X81250Y3464D01*
X80980Y2813D01*
Y2108D01*
X81250Y1457D01*
X81749Y959D01*
X82162Y787D01*
X82006Y0D01*
X76791D01*
X76783Y784D01*
X76851Y812D01*
X77434Y1054D01*
X77932Y1552D01*
X78202Y2203D01*
Y2908D01*
X77932Y3559D01*
X77434Y4058D01*
X76783Y4327D01*
X76078D01*
X75427Y4058D01*
X74928Y3559D01*
X74659Y2908D01*
Y2203D01*
X74928Y1552D01*
X75427Y1054D01*
X76010Y812D01*
X76078Y784D01*
X76070Y0D01*
X72753D01*
X72227Y787D01*
X72244Y829D01*
Y1534D01*
X71974Y2185D01*
X71476Y2683D01*
X70825Y2953D01*
X70120D01*
X69469Y2683D01*
X69412Y2626D01*
X68898Y2239D01*
X68383Y2626D01*
X68326Y2683D01*
X67675Y2953D01*
X66970D01*
X66319Y2683D01*
X66262Y2626D01*
X65748Y2239D01*
X65234Y2626D01*
X65177Y2683D01*
X64526Y2953D01*
X63821D01*
X63170Y2683D01*
X63113Y2626D01*
X62598Y2239D01*
X62084Y2626D01*
X62027Y2683D01*
X61376Y2953D01*
X60671D01*
X60020Y2683D01*
X59963Y2626D01*
X59449Y2239D01*
X58934Y2626D01*
X58878Y2683D01*
X58226Y2953D01*
X57522D01*
X56871Y2683D01*
X56814Y2626D01*
X56299Y2239D01*
X55785Y2626D01*
X55728Y2683D01*
X55077Y2953D01*
X54372D01*
X53721Y2683D01*
X53664Y2626D01*
X53150Y2239D01*
X52635Y2626D01*
X52578Y2683D01*
X51927Y2953D01*
X51222D01*
X50571Y2683D01*
X50514Y2626D01*
X50000Y2239D01*
X49486Y2626D01*
X49429Y2683D01*
X48778Y2953D01*
X48073D01*
X47422Y2683D01*
X47365Y2626D01*
X46850Y2239D01*
X46336Y2626D01*
X46279Y2683D01*
X45628Y2953D01*
X44923D01*
X44272Y2683D01*
X44215Y2626D01*
X43701Y2239D01*
X43186Y2626D01*
X43130Y2683D01*
X42478Y2953D01*
X41774D01*
X41122Y2683D01*
X41066Y2626D01*
X40551Y2239D01*
X40037Y2626D01*
X39980Y2683D01*
X39329Y2953D01*
X38624D01*
X37973Y2683D01*
X37916Y2626D01*
X37402Y2239D01*
X36887Y2626D01*
X36830Y2683D01*
X36179Y2953D01*
X35474D01*
X34823Y2683D01*
X34766Y2626D01*
X34252Y2239D01*
X33738Y2626D01*
X33681Y2683D01*
X33030Y2953D01*
X32325D01*
X31674Y2683D01*
X31617Y2626D01*
X31102Y2239D01*
X30588Y2626D01*
X30531Y2683D01*
X29880Y2953D01*
X29175D01*
X28524Y2683D01*
X28467Y2626D01*
X27953Y2239D01*
X27438Y2626D01*
X27382Y2683D01*
X26730Y2953D01*
X26026D01*
X25374Y2683D01*
X25317Y2626D01*
X24803Y2239D01*
X24289Y2626D01*
X24232Y2683D01*
X23581Y2953D01*
X22876D01*
X22225Y2683D01*
X22168Y2626D01*
X21654Y2239D01*
X21139Y2626D01*
X21082Y2683D01*
X20431Y2953D01*
X19726D01*
X19075Y2683D01*
X19018Y2626D01*
X18504Y2239D01*
X17989Y2626D01*
X17933Y2683D01*
X17794Y2741D01*
Y3593D01*
X18024Y3688D01*
X18522Y4186D01*
X18792Y4838D01*
Y5542D01*
X18522Y6194D01*
X18024Y6692D01*
X17373Y6962D01*
X16668D01*
X16017Y6692D01*
X15518Y6194D01*
X15249Y5542D01*
Y4838D01*
X15518Y4186D01*
X16017Y3688D01*
X16156Y3631D01*
Y2778D01*
X15926Y2683D01*
X15869Y2626D01*
X15354Y2239D01*
X14840Y2626D01*
X14783Y2683D01*
X14132Y2953D01*
X13427D01*
X12776Y2683D01*
X12719Y2626D01*
X12205Y2239D01*
X11690Y2626D01*
X11633Y2683D01*
X10982Y2953D01*
X10278D01*
X9626Y2683D01*
X9569Y2626D01*
X9055Y2239D01*
X8541Y2626D01*
X8484Y2683D01*
X7833Y2953D01*
X7128D01*
X6477Y2683D01*
X6420Y2626D01*
X5906Y2239D01*
X5391Y2626D01*
X5334Y2683D01*
X4683Y2953D01*
X3978D01*
X3327Y2683D01*
X3270Y2626D01*
X2756Y2239D01*
X2241Y2626D01*
X2185Y2683D01*
X1534Y2953D01*
X829D01*
X787Y2936D01*
X0Y3462D01*
Y9137D01*
X787Y9663D01*
X829Y9646D01*
X1534D01*
X2185Y9915D01*
X2683Y10414D01*
X2953Y11065D01*
Y11770D01*
X2683Y12421D01*
X2626Y12478D01*
X2239Y12992D01*
X2626Y13507D01*
X2683Y13563D01*
X2953Y14215D01*
Y14919D01*
X2683Y15571D01*
X2626Y15627D01*
X2239Y16142D01*
X2626Y16656D01*
X2683Y16713D01*
X2953Y17364D01*
Y18069D01*
X2683Y18720D01*
X2626Y18777D01*
X2239Y19291D01*
X2626Y19806D01*
X2683Y19863D01*
X2953Y20514D01*
Y21219D01*
X2683Y21870D01*
X2626Y21927D01*
X2239Y22441D01*
X2626Y22955D01*
X2683Y23012D01*
X2953Y23663D01*
Y24368D01*
X2683Y25019D01*
X2626Y25076D01*
X2239Y25591D01*
X2626Y26105D01*
X2683Y26162D01*
X2953Y26813D01*
Y27518D01*
X2683Y28169D01*
X2626Y28226D01*
X2239Y28740D01*
X2626Y29255D01*
X2683Y29311D01*
X2953Y29963D01*
Y30667D01*
X2683Y31319D01*
X2626Y31375D01*
X2239Y31890D01*
X2626Y32404D01*
X2683Y32461D01*
X2953Y33112D01*
Y33817D01*
X2683Y34468D01*
X2626Y34525D01*
X2239Y35039D01*
X2626Y35554D01*
X2683Y35611D01*
X2953Y36262D01*
Y36967D01*
X2683Y37618D01*
X2626Y37675D01*
X2239Y38189D01*
X2626Y38703D01*
X2683Y38760D01*
X2953Y39411D01*
Y40116D01*
X2683Y40767D01*
X2626Y40824D01*
X2239Y41339D01*
X2626Y41853D01*
X2683Y41910D01*
X2953Y42561D01*
Y43266D01*
X2683Y43917D01*
X2626Y43974D01*
X2239Y44488D01*
X2626Y45003D01*
X2683Y45059D01*
X2953Y45711D01*
Y46415D01*
X2683Y47067D01*
X2626Y47123D01*
X2239Y47638D01*
X2626Y48152D01*
X2683Y48209D01*
X2953Y48860D01*
Y49565D01*
X2683Y50216D01*
X2626Y50273D01*
X2239Y50787D01*
X2626Y51302D01*
X2683Y51359D01*
X2953Y52010D01*
Y52715D01*
X2683Y53366D01*
X2626Y53423D01*
X2239Y53937D01*
X2626Y54451D01*
X2683Y54508D01*
X2953Y55159D01*
Y55864D01*
X2683Y56515D01*
X2626Y56572D01*
X2239Y57087D01*
X2626Y57601D01*
X2683Y57658D01*
X2953Y58309D01*
Y59014D01*
X2683Y59665D01*
X2626Y59722D01*
X2239Y60236D01*
X2626Y60751D01*
X2683Y60808D01*
X2953Y61459D01*
Y62164D01*
X2683Y62815D01*
X2626Y62871D01*
X2239Y63386D01*
X2626Y63900D01*
X2683Y63957D01*
X2953Y64608D01*
Y65313D01*
X2683Y65964D01*
X2626Y66021D01*
X2239Y66536D01*
X2626Y67050D01*
X2683Y67107D01*
X2953Y67758D01*
Y68463D01*
X2683Y69114D01*
X2626Y69171D01*
X2239Y69685D01*
X2626Y70200D01*
X2683Y70256D01*
X2953Y70907D01*
Y71612D01*
X2683Y72263D01*
X2626Y72320D01*
X2239Y72835D01*
X2626Y73349D01*
X2683Y73406D01*
X2953Y74057D01*
Y74762D01*
X2683Y75413D01*
X2626Y75470D01*
X2239Y75984D01*
X2626Y76499D01*
X2683Y76556D01*
X2953Y77207D01*
Y77912D01*
X2683Y78563D01*
X2626Y78619D01*
X2239Y79134D01*
X2626Y79648D01*
X2683Y79705D01*
X2953Y80356D01*
Y81061D01*
X2894Y81203D01*
X3497Y81805D01*
X3661Y81737D01*
X4366D01*
X5017Y82007D01*
X5516Y82505D01*
X5786Y83156D01*
Y83861D01*
X5516Y84512D01*
X5017Y85010D01*
X4366Y85280D01*
X3661D01*
X3010Y85010D01*
X2932Y85051D01*
X2681Y85786D01*
X2683Y86004D01*
X2953Y86655D01*
Y87360D01*
X2683Y88011D01*
X2626Y88068D01*
X2239Y88583D01*
X2626Y89097D01*
X2683Y89154D01*
X2953Y89805D01*
Y90510D01*
X2683Y91161D01*
X2626Y91218D01*
X2239Y91732D01*
X2626Y92247D01*
X2683Y92304D01*
X2953Y92955D01*
Y93660D01*
X2683Y94311D01*
X2626Y94367D01*
X2239Y94882D01*
X2626Y95396D01*
X2683Y95453D01*
X2953Y96104D01*
Y96809D01*
X2683Y97460D01*
X2626Y97517D01*
X2239Y98032D01*
X2626Y98546D01*
X2683Y98603D01*
X2953Y99254D01*
Y99959D01*
X2683Y100610D01*
X2626Y100667D01*
X2239Y101181D01*
X2626Y101696D01*
X2683Y101752D01*
X2953Y102403D01*
Y103108D01*
X2683Y103760D01*
X2626Y103816D01*
X2239Y104331D01*
X2626Y104845D01*
X2683Y104902D01*
X2953Y105553D01*
Y106258D01*
X2683Y106909D01*
X2626Y106966D01*
X2239Y107480D01*
X2626Y107995D01*
X2683Y108052D01*
X2953Y108703D01*
Y109407D01*
X2683Y110059D01*
X2626Y110116D01*
X2239Y110630D01*
X2626Y111144D01*
X2683Y111201D01*
X2953Y111852D01*
Y112557D01*
X2683Y113208D01*
X2626Y113265D01*
X2239Y113780D01*
X2626Y114294D01*
X2683Y114351D01*
X2953Y115002D01*
Y115707D01*
X2683Y116358D01*
X2626Y116415D01*
X2239Y116929D01*
X2626Y117444D01*
X2683Y117500D01*
X2953Y118152D01*
Y118856D01*
X2683Y119508D01*
X2626Y119564D01*
X2239Y120079D01*
X2626Y120593D01*
X2683Y120650D01*
X2953Y121301D01*
Y122006D01*
X2683Y122657D01*
X2185Y123155D01*
X1534Y123425D01*
X829D01*
X787Y123408D01*
X0Y123934D01*
Y142601D01*
X787Y143127D01*
X829Y143110D01*
X1534D01*
X2185Y143380D01*
X2683Y143878D01*
X2953Y144529D01*
Y145234D01*
X2683Y145886D01*
X2677Y145892D01*
X2686Y146033D01*
X2728Y146073D01*
X3617Y146229D01*
X4268Y145959D01*
X4973D01*
X5624Y146229D01*
X6123Y146727D01*
X6392Y147379D01*
Y148083D01*
X6123Y148734D01*
X5624Y149233D01*
X4973Y149503D01*
X4268D01*
X3617Y149233D01*
X3501Y149117D01*
X2722Y149039D01*
X2537Y149181D01*
X2185Y149533D01*
X1534Y149803D01*
X829D01*
X787Y149786D01*
X0Y150312D01*
Y155905D01*
X1952D01*
X2041Y155689D01*
X2540Y155191D01*
X3191Y154921D01*
X3896D01*
X4547Y155191D01*
X5045Y155689D01*
X5135Y155905D01*
X6676D01*
X6766Y155689D01*
X7264Y155191D01*
X7915Y154921D01*
X8620D01*
X9271Y155191D01*
X9770Y155689D01*
X9859Y155905D01*
X11401D01*
X11490Y155689D01*
X11989Y155191D01*
X12640Y154921D01*
X13344D01*
X13996Y155191D01*
X14494Y155689D01*
X14584Y155905D01*
X16125D01*
X16215Y155689D01*
X16713Y155191D01*
X17364Y154921D01*
X18069D01*
X18720Y155191D01*
X19218Y155689D01*
X19308Y155905D01*
X20850D01*
X20939Y155689D01*
X21437Y155191D01*
X22088Y154921D01*
X22793D01*
X23445Y155191D01*
X23943Y155689D01*
X24032Y155905D01*
X25180D01*
X25270Y155689D01*
X25768Y155191D01*
X26419Y154921D01*
X27124D01*
X27362Y154762D01*
Y154372D01*
X27632Y153721D01*
X28130Y153223D01*
X28781Y152953D01*
X29486D01*
X30137Y153223D01*
X30636Y153721D01*
X30833Y154198D01*
X31077Y154766D01*
X31319Y154809D01*
X32087Y154372D01*
X32356Y153721D01*
X32855Y153223D01*
X33506Y152953D01*
X34211D01*
X34862Y153223D01*
X35360Y153721D01*
X35630Y154372D01*
Y154762D01*
X35868Y154921D01*
X36573D01*
X36811Y154762D01*
Y154372D01*
X37081Y153721D01*
X37579Y153223D01*
X38230Y152953D01*
X38935D01*
X39586Y153223D01*
X40084Y153721D01*
X40282Y154198D01*
X40526Y154766D01*
X40767Y154809D01*
X41535Y154372D01*
X41805Y153721D01*
X42303Y153223D01*
X42955Y152953D01*
X43659D01*
X44311Y153223D01*
X44809Y153721D01*
X45079Y154372D01*
Y154762D01*
X45317Y154921D01*
X46022D01*
X46260Y154762D01*
Y154372D01*
X46529Y153721D01*
X47028Y153223D01*
X47679Y152953D01*
X48384D01*
X49035Y153223D01*
X49533Y153721D01*
X49803Y154372D01*
Y154762D01*
X50041Y154921D01*
X50746D01*
X50984Y154762D01*
Y154372D01*
X51254Y153721D01*
X51752Y153223D01*
X52403Y152953D01*
X53108D01*
X53759Y153223D01*
X54258Y153721D01*
X54527Y154372D01*
Y154762D01*
X54766Y154921D01*
X55471D01*
X55709Y154762D01*
Y154372D01*
X55978Y153721D01*
X56477Y153223D01*
X57128Y152953D01*
X57833D01*
X58484Y153223D01*
X58982Y153721D01*
X59252Y154372D01*
Y154762D01*
X59490Y154921D01*
X60195D01*
X60433Y154762D01*
Y154372D01*
X60703Y153721D01*
X61201Y153223D01*
X61852Y152953D01*
X62557D01*
X63208Y153223D01*
X63707Y153721D01*
X63976Y154372D01*
Y154762D01*
X64214Y154921D01*
X64919D01*
X65157Y154762D01*
Y154372D01*
X65427Y153721D01*
X65926Y153223D01*
X66577Y152953D01*
X67282D01*
X67933Y153223D01*
X68431Y153721D01*
X68629Y154198D01*
X68872Y154766D01*
X69114Y154809D01*
X69882Y154372D01*
X70152Y153721D01*
X70650Y153223D01*
X71301Y152953D01*
X72006D01*
X72657Y153223D01*
X73155Y153721D01*
X73425Y154372D01*
Y154762D01*
X73663Y154921D01*
X74368D01*
X74606Y154762D01*
Y154372D01*
X74876Y153721D01*
X75374Y153223D01*
X76025Y152953D01*
X76730D01*
X77381Y153223D01*
X77880Y153721D01*
X78077Y154198D01*
X78321Y154766D01*
X78563Y154809D01*
X79331Y154372D01*
X79600Y153721D01*
X80099Y153223D01*
X80750Y152953D01*
X81455D01*
X82106Y153223D01*
X82604Y153721D01*
X82802Y154198D01*
X83090Y154870D01*
X83839Y154870D01*
X84127Y154198D01*
X84325Y153721D01*
X84823Y153223D01*
X85474Y152953D01*
X86179D01*
X86830Y153223D01*
X87329Y153721D01*
X87526Y154198D01*
X87814Y154870D01*
X88564D01*
X88852Y154198D01*
X89049Y153721D01*
X89548Y153223D01*
X90199Y152953D01*
X90904D01*
X91555Y153223D01*
X92053Y153721D01*
X92323Y154372D01*
Y154762D01*
X92561Y154921D01*
X93266D01*
X93504Y154762D01*
Y154372D01*
X93774Y153721D01*
X94272Y153223D01*
X94923Y152953D01*
X95628D01*
X96279Y153223D01*
X96777Y153721D01*
X96975Y154198D01*
X97263Y154870D01*
X98012D01*
X98301Y154198D01*
X98498Y153721D01*
X98996Y153223D01*
X99648Y152953D01*
X100352D01*
X101004Y153223D01*
X101502Y153721D01*
X101772Y154372D01*
Y154762D01*
X102010Y154921D01*
X102715D01*
X102953Y154762D01*
Y154372D01*
X103223Y153721D01*
X103721Y153223D01*
X104372Y152953D01*
X105077D01*
X105728Y153223D01*
X106226Y153721D01*
X106424Y154198D01*
X106668Y154766D01*
X106909Y154809D01*
X107677Y154372D01*
X107947Y153721D01*
X108445Y153223D01*
X109096Y152953D01*
X109801D01*
X110452Y153223D01*
X110951Y153721D01*
X111148Y154198D01*
X111392Y154766D01*
X111634Y154809D01*
X112402Y154372D01*
X112671Y153721D01*
X113170Y153223D01*
X113821Y152953D01*
X114526D01*
X115177Y153223D01*
X115675Y153721D01*
X115945Y154372D01*
Y154762D01*
X116183Y154921D01*
X116888D01*
X117126Y154762D01*
Y154372D01*
X117396Y153721D01*
X117894Y153223D01*
X118545Y152953D01*
X119250D01*
X119901Y153223D01*
X120399Y153721D01*
X120597Y154198D01*
X120841Y154766D01*
X121082Y154809D01*
X121850Y154372D01*
X122120Y153721D01*
X122618Y153223D01*
X123270Y152953D01*
X123974D01*
X124626Y153223D01*
X125124Y153721D01*
X125321Y154198D01*
X125565Y154766D01*
X125807Y154809D01*
X126575Y154372D01*
X126845Y153721D01*
X127343Y153223D01*
X127994Y152953D01*
X128699D01*
X129350Y153223D01*
X129848Y153721D01*
X130046Y154198D01*
X130334Y154870D01*
X131083D01*
X131371Y154198D01*
X131569Y153721D01*
X132067Y153223D01*
X132719Y152953D01*
X133423D01*
X134074Y153223D01*
X134573Y153721D01*
X134770Y154198D01*
X135059Y154870D01*
X135808D01*
X136096Y154198D01*
X136293Y153721D01*
X136792Y153223D01*
X137443Y152953D01*
X138148D01*
X138799Y153223D01*
X139297Y153721D01*
X139495Y154198D01*
X139783Y154870D01*
X140532Y154870D01*
X140820Y154198D01*
X141018Y153721D01*
X141516Y153223D01*
X142167Y152953D01*
X142872D01*
X143523Y153223D01*
X144022Y153721D01*
X144219Y154198D01*
X144463Y154766D01*
X144704Y154809D01*
X145473Y154372D01*
X145742Y153721D01*
X146240Y153223D01*
X146892Y152953D01*
X147597D01*
X148248Y153223D01*
X148746Y153721D01*
X149016Y154372D01*
Y154762D01*
X149254Y154921D01*
X149959D01*
X150197Y154762D01*
Y154372D01*
X150467Y153721D01*
X150965Y153223D01*
X151616Y152953D01*
X152321D01*
X152972Y153223D01*
X153470Y153721D01*
X153668Y154198D01*
X153912Y154766D01*
X154153Y154809D01*
X154921Y154372D01*
X155191Y153721D01*
X155689Y153223D01*
X156341Y152953D01*
X157045D01*
X157696Y153223D01*
X158195Y153721D01*
X158465Y154372D01*
Y155077D01*
X158195Y155728D01*
X157696Y156226D01*
X157045Y156496D01*
X156341D01*
X156299Y156524D01*
Y157874D01*
X161499D01*
X162025Y157087D01*
D02*
G37*
%LPC*%
G36*
X159799Y152559D02*
X159094D01*
X158443Y152289D01*
X157945Y151791D01*
X157675Y151140D01*
Y150435D01*
X157945Y149784D01*
X158443Y149285D01*
X159094Y149016D01*
X159799D01*
X160450Y149285D01*
X160949Y149784D01*
X161218Y150435D01*
Y151140D01*
X160949Y151791D01*
X160450Y152289D01*
X159799Y152559D01*
D02*
G37*
G36*
X9595Y149492D02*
X8890D01*
X8239Y149222D01*
X7741Y148724D01*
X7471Y148073D01*
Y147368D01*
X7741Y146717D01*
X8239Y146219D01*
X8890Y145949D01*
X9595D01*
X10246Y146219D01*
X10745Y146717D01*
X11014Y147368D01*
Y148073D01*
X10745Y148724D01*
X10246Y149222D01*
X9595Y149492D01*
D02*
G37*
G36*
X18745Y149429D02*
X18041D01*
X17390Y149159D01*
X16891Y148661D01*
X16622Y148010D01*
Y147305D01*
X16891Y146654D01*
X17390Y146155D01*
X18041Y145886D01*
X18745D01*
X19397Y146155D01*
X19895Y146654D01*
X20165Y147305D01*
Y148010D01*
X19895Y148661D01*
X19397Y149159D01*
X18745Y149429D01*
D02*
G37*
G36*
X14021D02*
X13316D01*
X12665Y149159D01*
X12167Y148661D01*
X11897Y148010D01*
Y147305D01*
X12167Y146654D01*
X12665Y146155D01*
X13316Y145886D01*
X14021D01*
X14672Y146155D01*
X15171Y146654D01*
X15440Y147305D01*
Y148010D01*
X15171Y148661D01*
X14672Y149159D01*
X14021Y149429D01*
D02*
G37*
G36*
X85392Y143504D02*
X84687D01*
X84036Y143234D01*
X83979Y143177D01*
X83464Y142791D01*
X82950Y143177D01*
X82893Y143234D01*
X82242Y143504D01*
X81537D01*
X80886Y143234D01*
X80388Y142736D01*
X80118Y142085D01*
Y141380D01*
X80388Y140729D01*
X80886Y140230D01*
X81537Y139961D01*
X82242D01*
X82893Y140230D01*
X82950Y140287D01*
X83464Y140674D01*
X83979Y140287D01*
X84036Y140230D01*
X84687Y139961D01*
X85392D01*
X86043Y140230D01*
X86541Y140729D01*
X86811Y141380D01*
Y142085D01*
X86541Y142736D01*
X86043Y143234D01*
X85392Y143504D01*
D02*
G37*
G36*
X123187D02*
X122482D01*
X121831Y143234D01*
X121774Y143177D01*
X121260Y142791D01*
X120745Y143177D01*
X120689Y143234D01*
X120037Y143504D01*
X119333D01*
X118681Y143234D01*
X118183Y142736D01*
X117913Y142085D01*
Y141380D01*
X118183Y140729D01*
X118681Y140230D01*
X119333Y139961D01*
X120037D01*
X120689Y140230D01*
X120745Y140287D01*
X121260Y140674D01*
X121774Y140287D01*
X121831Y140230D01*
X122482Y139961D01*
X123187D01*
X123838Y140230D01*
X124337Y140729D01*
X124606Y141380D01*
Y142085D01*
X124337Y142736D01*
X123838Y143234D01*
X123187Y143504D01*
D02*
G37*
G36*
X47596D02*
X46892D01*
X46240Y143234D01*
X46184Y143177D01*
X45669Y142791D01*
X45155Y143177D01*
X45098Y143234D01*
X44447Y143504D01*
X43742D01*
X43091Y143234D01*
X42592Y142736D01*
X42323Y142085D01*
Y141380D01*
X42592Y140729D01*
X43091Y140230D01*
X43742Y139961D01*
X44447D01*
X45098Y140230D01*
X45155Y140287D01*
X45669Y140674D01*
X46184Y140287D01*
X46240Y140230D01*
X46892Y139961D01*
X47596D01*
X48248Y140230D01*
X48746Y140729D01*
X49016Y141380D01*
Y142085D01*
X48746Y142736D01*
X48248Y143234D01*
X47596Y143504D01*
D02*
G37*
G36*
X104289D02*
X103585D01*
X102933Y143234D01*
X102877Y143177D01*
X102362Y142791D01*
X101848Y143177D01*
X101791Y143234D01*
X101140Y143504D01*
X100435D01*
X99784Y143234D01*
X99285Y142736D01*
X99016Y142085D01*
Y141380D01*
X99285Y140729D01*
X99784Y140230D01*
X100435Y139961D01*
X101140D01*
X101791Y140230D01*
X101848Y140287D01*
X102362Y140674D01*
X102877Y140287D01*
X102933Y140230D01*
X103585Y139961D01*
X104289D01*
X104940Y140230D01*
X105439Y140729D01*
X105709Y141380D01*
Y142085D01*
X105439Y142736D01*
X104940Y143234D01*
X104289Y143504D01*
D02*
G37*
G36*
X66494D02*
X65789D01*
X65138Y143234D01*
X65081Y143177D01*
X64567Y142791D01*
X64052Y143177D01*
X63996Y143234D01*
X63345Y143504D01*
X62640D01*
X61989Y143234D01*
X61490Y142736D01*
X61220Y142085D01*
Y141380D01*
X61490Y140729D01*
X61989Y140230D01*
X62640Y139961D01*
X63345D01*
X63996Y140230D01*
X64052Y140287D01*
X64567Y140674D01*
X65081Y140287D01*
X65138Y140230D01*
X65789Y139961D01*
X66494D01*
X67145Y140230D01*
X67644Y140729D01*
X67913Y141380D01*
Y142085D01*
X67644Y142736D01*
X67145Y143234D01*
X66494Y143504D01*
D02*
G37*
G36*
X142085D02*
X141380D01*
X140729Y143234D01*
X140672Y143177D01*
X140157Y142791D01*
X139643Y143177D01*
X139586Y143234D01*
X138935Y143504D01*
X138230D01*
X137579Y143234D01*
X137081Y142736D01*
X136811Y142085D01*
Y141380D01*
X137081Y140729D01*
X137579Y140230D01*
X138230Y139961D01*
X138935D01*
X139586Y140230D01*
X139643Y140287D01*
X140157Y140674D01*
X140672Y140287D01*
X140729Y140230D01*
X141380Y139961D01*
X142085D01*
X142736Y140230D01*
X143234Y140729D01*
X143504Y141380D01*
Y142085D01*
X143234Y142736D01*
X142736Y143234D01*
X142085Y143504D01*
D02*
G37*
G36*
X57045Y141929D02*
X56340D01*
X55689Y141659D01*
X55633Y141603D01*
X55118Y141216D01*
X54604Y141603D01*
X54547Y141659D01*
X53896Y141929D01*
X53191D01*
X52540Y141659D01*
X52041Y141161D01*
X51772Y140510D01*
Y139805D01*
X52041Y139154D01*
X52540Y138656D01*
X53191Y138386D01*
X53896D01*
X54547Y138656D01*
X54604Y138712D01*
X55118Y139099D01*
X55633Y138712D01*
X55689Y138656D01*
X56340Y138386D01*
X57045D01*
X57696Y138656D01*
X58195Y139154D01*
X58464Y139805D01*
Y140510D01*
X58195Y141161D01*
X57696Y141659D01*
X57045Y141929D01*
D02*
G37*
G36*
X38148D02*
X37443D01*
X36792Y141659D01*
X36735Y141603D01*
X36220Y141216D01*
X35706Y141603D01*
X35649Y141659D01*
X34998Y141929D01*
X34293D01*
X33642Y141659D01*
X33144Y141161D01*
X32874Y140510D01*
Y139805D01*
X33144Y139154D01*
X33642Y138656D01*
X34293Y138386D01*
X34998D01*
X35649Y138656D01*
X35706Y138712D01*
X36220Y139099D01*
X36735Y138712D01*
X36792Y138656D01*
X37443Y138386D01*
X38148D01*
X38799Y138656D01*
X39297Y139154D01*
X39567Y139805D01*
Y140510D01*
X39297Y141161D01*
X38799Y141659D01*
X38148Y141929D01*
D02*
G37*
G36*
X114349Y141801D02*
X113644D01*
X112993Y141532D01*
X112527Y141066D01*
X112147Y141446D01*
X111495Y141716D01*
X110791D01*
X110140Y141446D01*
X109641Y140948D01*
X109371Y140297D01*
Y139592D01*
X109641Y138941D01*
X110140Y138443D01*
X110791Y138173D01*
X111495D01*
X112147Y138443D01*
X112612Y138908D01*
X112993Y138528D01*
X113644Y138258D01*
X114349D01*
X115000Y138528D01*
X115498Y139026D01*
X115768Y139677D01*
Y140382D01*
X115498Y141033D01*
X115000Y141532D01*
X114349Y141801D01*
D02*
G37*
G36*
X76341Y142442D02*
X75637D01*
X74985Y142172D01*
X74487Y141674D01*
X74225Y141042D01*
X74217Y141022D01*
X74210Y140924D01*
X74174Y140833D01*
X73420Y140544D01*
X73308Y140617D01*
X73222Y140702D01*
X73190Y140733D01*
X72723Y141200D01*
X72072Y141470D01*
X71367D01*
X70716Y141200D01*
X70218Y140702D01*
X69948Y140051D01*
Y139346D01*
X70218Y138695D01*
X70716Y138196D01*
X71367Y137927D01*
X72072D01*
X72723Y138196D01*
X73222Y138695D01*
X73483Y139327D01*
X73491Y139346D01*
X73498Y139444D01*
X73534Y139536D01*
X74289Y139824D01*
X74400Y139751D01*
X74487Y139666D01*
X74518Y139635D01*
X74985Y139168D01*
X75637Y138898D01*
X76341D01*
X76992Y139168D01*
X77491Y139666D01*
X77760Y140318D01*
Y141022D01*
X77491Y141674D01*
X76992Y142172D01*
X76341Y142442D01*
D02*
G37*
G36*
X133281Y141628D02*
X132576D01*
X131924Y141358D01*
X131426Y140859D01*
X131188Y140285D01*
X130795Y140245D01*
X130401Y140285D01*
X130163Y140859D01*
X129664Y141358D01*
X129013Y141628D01*
X128308D01*
X127657Y141358D01*
X127159Y140859D01*
X126889Y140208D01*
Y139504D01*
X127159Y138852D01*
X127657Y138354D01*
X128308Y138084D01*
X129013D01*
X129664Y138354D01*
X130163Y138852D01*
X130401Y139427D01*
X130795Y139467D01*
X131188Y139427D01*
X131426Y138852D01*
X131924Y138354D01*
X132576Y138084D01*
X133281D01*
X133932Y138354D01*
X134430Y138852D01*
X134700Y139504D01*
Y140208D01*
X134430Y140859D01*
X133932Y141358D01*
X133281Y141628D01*
D02*
G37*
G36*
X158128Y142081D02*
X157423D01*
X156772Y141812D01*
X156274Y141313D01*
X156004Y140662D01*
Y139957D01*
X156274Y139306D01*
X156772Y138808D01*
X157423Y138538D01*
X158128D01*
X158779Y138808D01*
X159277Y139306D01*
X159547Y139957D01*
Y140662D01*
X159277Y141313D01*
X158779Y141812D01*
X158128Y142081D01*
D02*
G37*
G36*
X148384Y141929D02*
X147679D01*
X147028Y141659D01*
X146530Y141161D01*
X146260Y140510D01*
Y139805D01*
X146530Y139154D01*
X147028Y138656D01*
X147679Y138386D01*
X148384D01*
X149035Y138656D01*
X149092Y138712D01*
X149606Y139099D01*
X150121Y138712D01*
X150178Y138656D01*
X150829Y138386D01*
X151533D01*
X152185Y138656D01*
X152683Y139154D01*
X152953Y139805D01*
Y140510D01*
X152683Y141161D01*
X152185Y141659D01*
X151533Y141929D01*
X150829D01*
X150178Y141659D01*
X150121Y141603D01*
X149606Y141216D01*
X149092Y141603D01*
X149035Y141659D01*
X148384Y141929D01*
D02*
G37*
G36*
X91249Y141630D02*
X90544D01*
X89893Y141360D01*
X89394Y140862D01*
X89125Y140211D01*
Y139506D01*
X89394Y138855D01*
X89893Y138356D01*
X90544Y138087D01*
X91249D01*
X91900Y138356D01*
X92398Y138855D01*
X92668Y139506D01*
Y140211D01*
X92398Y140862D01*
X91900Y141360D01*
X91249Y141630D01*
D02*
G37*
G36*
X95670Y141461D02*
X94965D01*
X94314Y141191D01*
X93816Y140693D01*
X93546Y140042D01*
Y139337D01*
X93816Y138686D01*
X94314Y138187D01*
X94965Y137918D01*
X95670D01*
X96321Y138187D01*
X96820Y138686D01*
X97089Y139337D01*
Y140042D01*
X96820Y140693D01*
X96321Y141191D01*
X95670Y141461D01*
D02*
G37*
G36*
X28699Y143504D02*
X27994D01*
X27343Y143234D01*
X26844Y142736D01*
X26575Y142085D01*
Y141869D01*
X26395Y141321D01*
X25847Y141142D01*
X25632D01*
X24981Y140872D01*
X24482Y140374D01*
X24213Y139723D01*
Y139018D01*
X24482Y138366D01*
X24981Y137868D01*
X25632Y137598D01*
X26337D01*
X26988Y137868D01*
X27486Y138366D01*
X27756Y139018D01*
Y139233D01*
X27935Y139781D01*
X28483Y139961D01*
X28699D01*
X29350Y140230D01*
X29848Y140729D01*
X30118Y141380D01*
Y142085D01*
X29848Y142736D01*
X29350Y143234D01*
X28699Y143504D01*
D02*
G37*
G36*
X18463Y136417D02*
X17758D01*
X17107Y136148D01*
X16829Y135870D01*
X16339Y135728D01*
X15848Y135870D01*
X15571Y136148D01*
X14919Y136417D01*
X14214D01*
X13563Y136148D01*
X13065Y135649D01*
X12795Y134998D01*
Y134293D01*
X13065Y133642D01*
X13563Y133144D01*
X14214Y132874D01*
X14919D01*
X15571Y133144D01*
X15848Y133421D01*
X16339Y133564D01*
X16829Y133421D01*
X17107Y133144D01*
X17758Y132874D01*
X18463D01*
X19114Y133144D01*
X19612Y133642D01*
X19882Y134293D01*
Y134998D01*
X19612Y135649D01*
X19114Y136148D01*
X18463Y136417D01*
D02*
G37*
G36*
X162163Y137697D02*
X161459D01*
X160808Y137427D01*
X160309Y136929D01*
X160039Y136278D01*
Y135573D01*
X160309Y134922D01*
X160808Y134423D01*
X161459Y134154D01*
X162163D01*
X162815Y134423D01*
X163313Y134922D01*
X163583Y135573D01*
Y136278D01*
X163313Y136929D01*
X162815Y137427D01*
X162163Y137697D01*
D02*
G37*
G36*
X129634Y131496D02*
X128929D01*
X128278Y131226D01*
X127780Y130728D01*
X127543Y130157D01*
X127270Y130077D01*
X126723Y130079D01*
X126699Y130137D01*
X126200Y130636D01*
X125549Y130905D01*
X124845D01*
X124193Y130636D01*
X124031Y130474D01*
X123177Y130530D01*
X123096Y130591D01*
X122657Y131029D01*
X122006Y131299D01*
X121301D01*
X120650Y131029D01*
X120152Y130531D01*
X119882Y129880D01*
Y129175D01*
X120152Y128524D01*
X120650Y128026D01*
X121301Y127756D01*
X122006D01*
X122657Y128026D01*
X122819Y128188D01*
X123674Y128132D01*
X123755Y128070D01*
X124193Y127632D01*
X124845Y127362D01*
X125549D01*
X126200Y127632D01*
X126699Y128130D01*
X126935Y128701D01*
X127209Y128781D01*
X127755Y128780D01*
X127780Y128721D01*
X128278Y128223D01*
X128929Y127953D01*
X129634D01*
X130285Y128223D01*
X130783Y128721D01*
X131053Y129372D01*
Y130077D01*
X130783Y130728D01*
X130285Y131226D01*
X129634Y131496D01*
D02*
G37*
G36*
X3502Y139173D02*
X2797D01*
X2146Y138903D01*
X1648Y138405D01*
X1378Y137754D01*
Y137049D01*
X1648Y136398D01*
X2146Y135900D01*
X2183Y135884D01*
X2435Y135649D01*
X2165Y134998D01*
Y134293D01*
X2435Y133642D01*
X2933Y133144D01*
X3084Y133081D01*
X3538Y132585D01*
X3466Y132136D01*
X3347Y131849D01*
Y131144D01*
X3616Y130492D01*
X4115Y129994D01*
X4766Y129724D01*
X5471D01*
X6122Y129994D01*
X6620Y130492D01*
X6890Y131144D01*
Y131849D01*
X6620Y132500D01*
X6122Y132998D01*
X5971Y133061D01*
X5517Y133557D01*
X5590Y134006D01*
X5709Y134293D01*
Y134998D01*
X5439Y135649D01*
X4941Y136148D01*
X4904Y136163D01*
X4651Y136398D01*
X4921Y137049D01*
Y137754D01*
X4651Y138405D01*
X4153Y138903D01*
X3502Y139173D01*
D02*
G37*
G36*
X159801Y132874D02*
X159096D01*
X158445Y132604D01*
X157947Y132106D01*
X157677Y131455D01*
Y130750D01*
X157947Y130099D01*
X158445Y129600D01*
X159096Y129331D01*
X159801D01*
X160452Y129600D01*
X160951Y130099D01*
X161221Y130750D01*
Y131455D01*
X160951Y132106D01*
X160452Y132604D01*
X159801Y132874D01*
D02*
G37*
G36*
X23581Y132480D02*
X22876D01*
X22225Y132211D01*
X21726Y131712D01*
X21457Y131061D01*
Y130356D01*
X21726Y129705D01*
X22225Y129207D01*
X22876Y128937D01*
X23581D01*
X24232Y129207D01*
X24730Y129705D01*
X25000Y130356D01*
Y131061D01*
X24730Y131712D01*
X24232Y132211D01*
X23581Y132480D01*
D02*
G37*
G36*
X148531Y131496D02*
X147827D01*
X147176Y131226D01*
X146677Y130728D01*
X146407Y130077D01*
Y129372D01*
X146677Y128721D01*
X147176Y128223D01*
X147827Y127953D01*
X148531D01*
X149183Y128223D01*
X149681Y128721D01*
X149951Y129372D01*
Y130077D01*
X149681Y130728D01*
X149183Y131226D01*
X148531Y131496D01*
D02*
G37*
G36*
X110736D02*
X110031D01*
X109380Y131226D01*
X108882Y130728D01*
X108612Y130077D01*
Y129372D01*
X108882Y128721D01*
X109380Y128223D01*
X110031Y127953D01*
X110736D01*
X111387Y128223D01*
X111886Y128721D01*
X112155Y129372D01*
Y130077D01*
X111886Y130728D01*
X111387Y131226D01*
X110736Y131496D01*
D02*
G37*
G36*
X91839D02*
X91134D01*
X90483Y131226D01*
X89984Y130728D01*
X89714Y130077D01*
Y129372D01*
X89984Y128721D01*
X90483Y128223D01*
X91134Y127953D01*
X91839D01*
X92490Y128223D01*
X92988Y128721D01*
X93258Y129372D01*
Y130077D01*
X92988Y130728D01*
X92490Y131226D01*
X91839Y131496D01*
D02*
G37*
G36*
X72941D02*
X72236D01*
X71585Y131226D01*
X71087Y130728D01*
X70817Y130077D01*
Y129372D01*
X71087Y128721D01*
X71585Y128223D01*
X72236Y127953D01*
X72941D01*
X73592Y128223D01*
X74090Y128721D01*
X74360Y129372D01*
Y130077D01*
X74090Y130728D01*
X73592Y131226D01*
X72941Y131496D01*
D02*
G37*
G36*
X54043D02*
X53338D01*
X52687Y131226D01*
X52189Y130728D01*
X51919Y130077D01*
Y129372D01*
X52189Y128721D01*
X52687Y128223D01*
X53338Y127953D01*
X54043D01*
X54694Y128223D01*
X55193Y128721D01*
X55462Y129372D01*
Y130077D01*
X55193Y130728D01*
X54694Y131226D01*
X54043Y131496D01*
D02*
G37*
G36*
X35146D02*
X34441D01*
X33790Y131226D01*
X33291Y130728D01*
X33022Y130077D01*
Y129372D01*
X33291Y128721D01*
X33790Y128223D01*
X34441Y127953D01*
X35146D01*
X35797Y128223D01*
X36295Y128721D01*
X36565Y129372D01*
Y130077D01*
X36295Y130728D01*
X35797Y131226D01*
X35146Y131496D01*
D02*
G37*
G36*
X29093Y130905D02*
X28388D01*
X27737Y130636D01*
X27238Y130137D01*
X26969Y129486D01*
Y128781D01*
X27238Y128130D01*
X27737Y127632D01*
X28388Y127362D01*
X29093D01*
X29744Y127632D01*
X30242Y128130D01*
X30512Y128781D01*
Y129486D01*
X30242Y130137D01*
X29744Y130636D01*
X29093Y130905D01*
D02*
G37*
G36*
X140904Y130807D02*
X140199D01*
X139548Y130537D01*
X139049Y130039D01*
X138779Y129388D01*
Y128683D01*
X139049Y128032D01*
X139548Y127533D01*
X140199Y127264D01*
X140904D01*
X141555Y127533D01*
X142053Y128032D01*
X142323Y128683D01*
Y129388D01*
X142053Y130039D01*
X141555Y130537D01*
X140904Y130807D01*
D02*
G37*
G36*
X136179D02*
X135474D01*
X134823Y130537D01*
X134325Y130039D01*
X134055Y129388D01*
Y128683D01*
X134325Y128032D01*
X134823Y127533D01*
X135474Y127264D01*
X136179D01*
X136830Y127533D01*
X137329Y128032D01*
X137598Y128683D01*
Y129388D01*
X137329Y130039D01*
X136830Y130537D01*
X136179Y130807D01*
D02*
G37*
G36*
X78528Y130660D02*
X77823D01*
X77172Y130391D01*
X76674Y129892D01*
X76404Y129241D01*
Y128536D01*
X76674Y127885D01*
X77172Y127387D01*
X77823Y127117D01*
X78528D01*
X79179Y127387D01*
X79678Y127885D01*
X79948Y128536D01*
Y129241D01*
X79678Y129892D01*
X79179Y130391D01*
X78528Y130660D01*
D02*
G37*
G36*
X48974Y130512D02*
X48270D01*
X47618Y130242D01*
X47120Y129744D01*
X46850Y129093D01*
Y128388D01*
X47120Y127737D01*
X47618Y127238D01*
X48270Y126969D01*
X48974D01*
X49626Y127238D01*
X50124Y127737D01*
X50394Y128388D01*
Y129093D01*
X50124Y129744D01*
X49626Y130242D01*
X48974Y130512D01*
D02*
G37*
G36*
X154057Y130477D02*
X153352D01*
X152701Y130208D01*
X152203Y129709D01*
X151933Y129058D01*
Y128353D01*
X152203Y127702D01*
X152701Y127204D01*
X153352Y126934D01*
X154057D01*
X154708Y127204D01*
X155207Y127702D01*
X155476Y128353D01*
Y129058D01*
X155207Y129709D01*
X154708Y130208D01*
X154057Y130477D01*
D02*
G37*
G36*
X99751Y130338D02*
X99046D01*
X98395Y130069D01*
X97896Y129570D01*
X97627Y128919D01*
Y128214D01*
X97896Y127563D01*
X98395Y127065D01*
X99046Y126795D01*
X99751D01*
X100402Y127065D01*
X100900Y127563D01*
X101170Y128214D01*
Y128919D01*
X100900Y129570D01*
X100402Y130069D01*
X99751Y130338D01*
D02*
G37*
G36*
X9801Y128543D02*
X9096D01*
X8445Y128274D01*
X7947Y127775D01*
X7677Y127124D01*
Y126419D01*
X7947Y125768D01*
X8445Y125270D01*
X9096Y125000D01*
X9801D01*
X10452Y125270D01*
X10951Y125768D01*
X11220Y126419D01*
Y127124D01*
X10951Y127775D01*
X10452Y128274D01*
X9801Y128543D01*
D02*
G37*
G36*
X107171Y127936D02*
X106466D01*
X105815Y127666D01*
X105316Y127168D01*
X105047Y126516D01*
Y125812D01*
X105316Y125161D01*
X105815Y124662D01*
X106466Y124392D01*
X107171D01*
X107822Y124662D01*
X108320Y125161D01*
X108590Y125812D01*
Y126516D01*
X108320Y127168D01*
X107822Y127666D01*
X107171Y127936D01*
D02*
G37*
G36*
X5201Y127660D02*
X4497D01*
X3846Y127390D01*
X3347Y126892D01*
X3077Y126240D01*
Y125536D01*
X3347Y124884D01*
X3846Y124386D01*
X4497Y124116D01*
X5201D01*
X5853Y124386D01*
X6351Y124884D01*
X6621Y125536D01*
Y126240D01*
X6351Y126892D01*
X5853Y127390D01*
X5201Y127660D01*
D02*
G37*
G36*
X14033Y127165D02*
X13329D01*
X12677Y126896D01*
X12179Y126397D01*
X11909Y125746D01*
Y125041D01*
X12179Y124390D01*
X12677Y123892D01*
X13329Y123622D01*
X14033D01*
X14685Y123892D01*
X15183Y124390D01*
X15453Y125041D01*
Y125746D01*
X15183Y126397D01*
X14685Y126896D01*
X14033Y127165D01*
D02*
G37*
G36*
X163345Y125000D02*
X162640D01*
X161989Y124730D01*
X161490Y124232D01*
X161221Y123581D01*
Y122876D01*
X161490Y122225D01*
X161989Y121727D01*
X162640Y121457D01*
X163345D01*
X163996Y121727D01*
X164494Y122225D01*
X164764Y122876D01*
Y123581D01*
X164494Y124232D01*
X163996Y124730D01*
X163345Y125000D01*
D02*
G37*
G36*
X150943Y125000D02*
X150238D01*
X149587Y124730D01*
X149089Y124232D01*
X148819Y123581D01*
Y122876D01*
X149089Y122225D01*
X149587Y121727D01*
X150238Y121457D01*
X150943D01*
X151594Y121727D01*
X152093Y122225D01*
X152362Y122876D01*
Y123581D01*
X152093Y124232D01*
X151594Y124730D01*
X150943Y125000D01*
D02*
G37*
G36*
X138541Y125000D02*
X137837D01*
X137185Y124730D01*
X136687Y124232D01*
X136417Y123581D01*
Y122876D01*
X136687Y122225D01*
X137185Y121726D01*
X137837Y121457D01*
X138541D01*
X139192Y121726D01*
X139691Y122225D01*
X139961Y122876D01*
Y123581D01*
X139691Y124232D01*
X139192Y124730D01*
X138541Y125000D01*
D02*
G37*
G36*
X126140Y125000D02*
X125435D01*
X124784Y124730D01*
X124285Y124232D01*
X124016Y123581D01*
Y122876D01*
X124285Y122225D01*
X124784Y121726D01*
X125435Y121457D01*
X126140D01*
X126791Y121726D01*
X127289Y122225D01*
X127559Y122876D01*
Y123581D01*
X127289Y124232D01*
X126791Y124730D01*
X126140Y125000D01*
D02*
G37*
G36*
X113738Y125000D02*
X113033D01*
X112382Y124730D01*
X111884Y124232D01*
X111614Y123581D01*
Y122876D01*
X111884Y122225D01*
X112382Y121726D01*
X113033Y121457D01*
X113738D01*
X114389Y121726D01*
X114888Y122225D01*
X115157Y122876D01*
Y123581D01*
X114888Y124232D01*
X114389Y124730D01*
X113738Y125000D01*
D02*
G37*
G36*
X19053Y126969D02*
X18348D01*
X17697Y126699D01*
X17199Y126200D01*
X16929Y125549D01*
Y124845D01*
X16979Y124725D01*
X17077Y123913D01*
X16578Y123414D01*
X16308Y122763D01*
Y122058D01*
X16578Y121407D01*
X17077Y120909D01*
X17728Y120639D01*
X18433D01*
X19084Y120909D01*
X19582Y121407D01*
X19852Y122058D01*
Y122763D01*
X19802Y122883D01*
X19704Y123695D01*
X20203Y124193D01*
X20472Y124845D01*
Y125549D01*
X20203Y126200D01*
X19704Y126699D01*
X19053Y126969D01*
D02*
G37*
G36*
X105471Y123031D02*
X104766D01*
X104115Y122762D01*
X103616Y122263D01*
X103347Y121612D01*
Y120942D01*
X102988Y120601D01*
X102690Y120435D01*
X102124Y120669D01*
X101419D01*
X100768Y120400D01*
X100270Y119901D01*
X100000Y119250D01*
Y118545D01*
X100270Y117894D01*
X100768Y117396D01*
X101419Y117126D01*
X102124D01*
X102775Y117396D01*
X103274Y117894D01*
X103543Y118545D01*
Y119216D01*
X103902Y119556D01*
X104200Y119723D01*
X104766Y119488D01*
X105471D01*
X106122Y119758D01*
X106620Y120256D01*
X106890Y120907D01*
Y121612D01*
X106620Y122263D01*
X106122Y122762D01*
X105471Y123031D01*
D02*
G37*
G36*
X88541D02*
X87837D01*
X87185Y122762D01*
X86687Y122263D01*
X86417Y121612D01*
Y120907D01*
X86687Y120256D01*
X87185Y119758D01*
X87837Y119488D01*
X88541D01*
X89192Y119758D01*
X89691Y120256D01*
X89961Y120907D01*
Y121612D01*
X89691Y122263D01*
X89192Y122762D01*
X88541Y123031D01*
D02*
G37*
G36*
X83030D02*
X82325D01*
X81674Y122762D01*
X81175Y122263D01*
X80905Y121612D01*
Y120907D01*
X81175Y120256D01*
X81674Y119758D01*
X82325Y119488D01*
X83030D01*
X83681Y119758D01*
X84179Y120256D01*
X84449Y120907D01*
Y121612D01*
X84179Y122263D01*
X83681Y122762D01*
X83030Y123031D01*
D02*
G37*
G36*
X66100D02*
X65396D01*
X64745Y122762D01*
X64246Y122263D01*
X63976Y121612D01*
Y120907D01*
X64246Y120256D01*
X64745Y119758D01*
X65396Y119488D01*
X66100D01*
X66752Y119758D01*
X67250Y120256D01*
X67520Y120907D01*
Y121612D01*
X67250Y122263D01*
X66752Y122762D01*
X66100Y123031D01*
D02*
G37*
G36*
X60195D02*
X59490D01*
X58839Y122762D01*
X58341Y122263D01*
X58071Y121612D01*
Y120907D01*
X58341Y120256D01*
X58839Y119758D01*
X59490Y119488D01*
X60195D01*
X60846Y119758D01*
X61344Y120256D01*
X61614Y120907D01*
Y121612D01*
X61344Y122263D01*
X60846Y122762D01*
X60195Y123031D01*
D02*
G37*
G36*
X43266D02*
X42561D01*
X41910Y122762D01*
X41412Y122263D01*
X41142Y121612D01*
Y120907D01*
X41412Y120256D01*
X41910Y119758D01*
X42561Y119488D01*
X43266D01*
X43917Y119758D01*
X44415Y120256D01*
X44685Y120907D01*
Y121612D01*
X44415Y122263D01*
X43917Y122762D01*
X43266Y123031D01*
D02*
G37*
G36*
X37360D02*
X36656D01*
X36004Y122762D01*
X35506Y122263D01*
X35236Y121612D01*
Y120907D01*
X35506Y120256D01*
X36004Y119758D01*
X36656Y119488D01*
X37360D01*
X38011Y119758D01*
X38510Y120256D01*
X38780Y120907D01*
Y121612D01*
X38510Y122263D01*
X38011Y122762D01*
X37360Y123031D01*
D02*
G37*
G36*
X118742Y121913D02*
X118037D01*
X117386Y121643D01*
X116888Y121144D01*
X116618Y120493D01*
Y119789D01*
X116888Y119137D01*
X117386Y118639D01*
X118037Y118369D01*
X118742D01*
X119393Y118639D01*
X119892Y119137D01*
X120161Y119789D01*
Y120493D01*
X119892Y121144D01*
X119393Y121643D01*
X118742Y121913D01*
D02*
G37*
G36*
X147633Y121051D02*
X146929D01*
X146277Y120781D01*
X145779Y120283D01*
X145509Y119632D01*
Y118927D01*
X145779Y118276D01*
X146277Y117778D01*
X146929Y117508D01*
X147633D01*
X148285Y117778D01*
X148783Y118276D01*
X149053Y118927D01*
Y119632D01*
X148783Y120283D01*
X148285Y120781D01*
X147633Y121051D01*
D02*
G37*
G36*
X79289Y120669D02*
X78585D01*
X77933Y120400D01*
X77435Y119901D01*
X77165Y119250D01*
Y118545D01*
X77435Y117894D01*
X77933Y117396D01*
X78585Y117126D01*
X79289D01*
X79940Y117396D01*
X80439Y117894D01*
X80709Y118545D01*
Y119250D01*
X80439Y119901D01*
X79940Y120400D01*
X79289Y120669D01*
D02*
G37*
G36*
X56455D02*
X55750D01*
X55099Y120400D01*
X54600Y119901D01*
X54331Y119250D01*
Y118545D01*
X54600Y117894D01*
X55099Y117396D01*
X55750Y117126D01*
X56455D01*
X57106Y117396D01*
X57604Y117894D01*
X57874Y118545D01*
Y119250D01*
X57604Y119901D01*
X57106Y120400D01*
X56455Y120669D01*
D02*
G37*
G36*
X33620D02*
X32915D01*
X32264Y120400D01*
X31766Y119901D01*
X31496Y119250D01*
Y118545D01*
X31766Y117894D01*
X32264Y117396D01*
X32915Y117126D01*
X33620D01*
X34271Y117396D01*
X34770Y117894D01*
X35039Y118545D01*
Y119250D01*
X34770Y119901D01*
X34271Y120400D01*
X33620Y120669D01*
D02*
G37*
G36*
X136179Y120669D02*
X135474D01*
X134823Y120400D01*
X134325Y119901D01*
X134055Y119250D01*
Y118545D01*
X134325Y117894D01*
X134823Y117396D01*
X135474Y117126D01*
X136179D01*
X136830Y117396D01*
X137329Y117894D01*
X137598Y118545D01*
Y119250D01*
X137329Y119901D01*
X136830Y120400D01*
X136179Y120669D01*
D02*
G37*
G36*
X125549D02*
X124845D01*
X124193Y120400D01*
X123695Y119901D01*
X123425Y119250D01*
Y118545D01*
X123695Y117894D01*
X124193Y117396D01*
X124845Y117126D01*
X125549D01*
X126200Y117396D01*
X126699Y117894D01*
X126969Y118545D01*
Y119250D01*
X126699Y119901D01*
X126200Y120400D01*
X125549Y120669D01*
D02*
G37*
G36*
X114243Y117989D02*
X113538D01*
X112887Y117720D01*
X112388Y117221D01*
X112119Y116570D01*
Y115865D01*
X112388Y115214D01*
X112887Y114716D01*
X113538Y114446D01*
X114243D01*
X114894Y114716D01*
X115392Y115214D01*
X115662Y115865D01*
Y116570D01*
X115392Y117221D01*
X114894Y117720D01*
X114243Y117989D01*
D02*
G37*
G36*
X161573Y117913D02*
X160868D01*
X160217Y117644D01*
X159719Y117145D01*
X159449Y116494D01*
Y115789D01*
X159719Y115138D01*
X160217Y114640D01*
X160868Y114370D01*
X161573D01*
X162224Y114640D01*
X162722Y115138D01*
X162992Y115789D01*
Y116494D01*
X162722Y117145D01*
X162224Y117644D01*
X161573Y117913D01*
D02*
G37*
G36*
X152321Y120768D02*
X151616D01*
X150965Y120498D01*
X150467Y120000D01*
X150197Y119349D01*
Y118644D01*
X150336Y118307D01*
X149938Y117570D01*
X149875Y117520D01*
X149648D01*
X148996Y117250D01*
X148498Y116752D01*
X148228Y116101D01*
Y115396D01*
X148498Y114744D01*
X148996Y114246D01*
X149648Y113976D01*
X150352D01*
X151004Y114246D01*
X151502Y114744D01*
X151772Y115396D01*
Y116101D01*
X151632Y116437D01*
X152031Y117174D01*
X152094Y117225D01*
X152321D01*
X152972Y117494D01*
X153470Y117993D01*
X153740Y118644D01*
Y119349D01*
X153470Y120000D01*
X152972Y120498D01*
X152321Y120768D01*
D02*
G37*
G36*
X106455Y115748D02*
X105750D01*
X105099Y115478D01*
X104600Y114980D01*
X104331Y114329D01*
Y113624D01*
X104600Y112973D01*
X105099Y112475D01*
X105750Y112205D01*
X106455D01*
X107106Y112475D01*
X107604Y112973D01*
X107874Y113624D01*
Y114329D01*
X107604Y114980D01*
X107106Y115478D01*
X106455Y115748D01*
D02*
G37*
G36*
X37951D02*
X37246D01*
X36595Y115478D01*
X36097Y114980D01*
X35827Y114329D01*
Y113624D01*
X36097Y112973D01*
X36595Y112475D01*
X37246Y112205D01*
X37951D01*
X38602Y112475D01*
X39100Y112973D01*
X39370Y113624D01*
Y114329D01*
X39100Y114980D01*
X38602Y115478D01*
X37951Y115748D01*
D02*
G37*
G36*
X83620Y115748D02*
X82915D01*
X82264Y115478D01*
X81766Y114980D01*
X81496Y114329D01*
Y113624D01*
X81766Y112973D01*
X82264Y112475D01*
X82915Y112205D01*
X83620D01*
X84271Y112475D01*
X84770Y112973D01*
X85039Y113624D01*
Y114329D01*
X84770Y114980D01*
X84271Y115478D01*
X83620Y115748D01*
D02*
G37*
G36*
X60786D02*
X60081D01*
X59430Y115478D01*
X58931Y114980D01*
X58661Y114329D01*
Y113624D01*
X58931Y112973D01*
X59430Y112475D01*
X60081Y112205D01*
X60786D01*
X61437Y112475D01*
X61935Y112973D01*
X62205Y113624D01*
Y114329D01*
X61935Y114980D01*
X61437Y115478D01*
X60786Y115748D01*
D02*
G37*
G36*
X13640Y116732D02*
X12935D01*
X12284Y116463D01*
X11785Y115964D01*
X11516Y115313D01*
Y114608D01*
X11785Y113957D01*
X12284Y113459D01*
X12935Y113189D01*
X13583Y112951D01*
X13583Y112246D01*
X13852Y111595D01*
X14351Y111097D01*
X15002Y110827D01*
X15707D01*
X16358Y111097D01*
X16856Y111595D01*
X17126Y112246D01*
Y112326D01*
X17913Y112652D01*
X18091Y112475D01*
X18742Y112205D01*
X19447D01*
X20098Y112475D01*
X20596Y112973D01*
X20866Y113624D01*
Y114329D01*
X20596Y114980D01*
X20098Y115478D01*
X19447Y115748D01*
X18742D01*
X18091Y115478D01*
X17593Y114980D01*
X17323Y114329D01*
Y114249D01*
X16535Y113923D01*
X16358Y114100D01*
X15707Y114370D01*
X15059Y114608D01*
X15059Y115313D01*
X14789Y115964D01*
X14291Y116463D01*
X13640Y116732D01*
D02*
G37*
G36*
X117478Y113583D02*
X116774D01*
X116122Y113313D01*
X115624Y112815D01*
X115354Y112163D01*
Y111689D01*
X114861Y111235D01*
X114637Y111134D01*
X114427Y111221D01*
X113722D01*
X113071Y110951D01*
X112573Y110452D01*
X112303Y109801D01*
Y109096D01*
X112573Y108445D01*
X112956Y108062D01*
X112943Y107998D01*
X112445Y107500D01*
X112175Y106849D01*
Y106144D01*
X112445Y105492D01*
X112798Y105139D01*
X112923Y104807D01*
X112853Y104179D01*
X112576Y103903D01*
X112306Y103252D01*
Y102547D01*
X112576Y101896D01*
X113075Y101397D01*
X113726Y101128D01*
X114430D01*
X115082Y101397D01*
X115580Y101896D01*
X115850Y102547D01*
Y103252D01*
X115580Y103903D01*
X115226Y104256D01*
X115102Y104588D01*
X115172Y105216D01*
X115449Y105492D01*
X115718Y106144D01*
Y106849D01*
X115449Y107500D01*
X115066Y107883D01*
X115078Y107947D01*
X115577Y108445D01*
X115846Y109096D01*
Y109571D01*
X116340Y110025D01*
X116564Y110126D01*
X116774Y110039D01*
X117478D01*
X118130Y110309D01*
X118628Y110808D01*
X118898Y111459D01*
Y112163D01*
X118628Y112815D01*
X118130Y113313D01*
X117478Y113583D01*
D02*
G37*
G36*
X79289Y114370D02*
X78585D01*
X77933Y114100D01*
X77435Y113602D01*
X77165Y112951D01*
Y112246D01*
X77435Y111595D01*
X77933Y111097D01*
X78585Y110827D01*
X79289D01*
X79940Y111097D01*
X80439Y111595D01*
X80709Y112246D01*
Y112951D01*
X80439Y113602D01*
X79940Y114100D01*
X79289Y114370D01*
D02*
G37*
G36*
X56455D02*
X55750D01*
X55099Y114100D01*
X54600Y113602D01*
X54331Y112951D01*
Y112246D01*
X54600Y111595D01*
X55099Y111097D01*
X55750Y110827D01*
X56455D01*
X57106Y111097D01*
X57604Y111595D01*
X57874Y112246D01*
Y112951D01*
X57604Y113602D01*
X57106Y114100D01*
X56455Y114370D01*
D02*
G37*
G36*
X33620D02*
X32915D01*
X32264Y114100D01*
X31766Y113602D01*
X31496Y112951D01*
Y112246D01*
X31766Y111595D01*
X32264Y111097D01*
X32915Y110827D01*
X33620D01*
X34271Y111097D01*
X34770Y111595D01*
X35039Y112246D01*
Y112951D01*
X34770Y113602D01*
X34271Y114100D01*
X33620Y114370D01*
D02*
G37*
G36*
X102124Y114370D02*
X101419D01*
X100768Y114100D01*
X100270Y113602D01*
X100000Y112951D01*
Y112246D01*
X100270Y111595D01*
X100768Y111097D01*
X101419Y110827D01*
X102124D01*
X102775Y111097D01*
X103274Y111595D01*
X103543Y112246D01*
Y112951D01*
X103274Y113602D01*
X102775Y114100D01*
X102124Y114370D01*
D02*
G37*
G36*
X91888Y117126D02*
X91183D01*
X90532Y116856D01*
X90034Y116358D01*
X89764Y115707D01*
Y115002D01*
X90034Y114351D01*
X90506Y113878D01*
X90083Y113454D01*
X89813Y112803D01*
Y112098D01*
X90083Y111447D01*
X90581Y110949D01*
X91232Y110679D01*
X91937D01*
X92588Y110949D01*
X93086Y111447D01*
X93356Y112098D01*
Y112803D01*
X93086Y113454D01*
X92614Y113927D01*
X93037Y114351D01*
X93307Y115002D01*
Y115707D01*
X93037Y116358D01*
X92539Y116856D01*
X91888Y117126D01*
D02*
G37*
G36*
X46218D02*
X45514D01*
X44863Y116856D01*
X44364Y116358D01*
X44094Y115707D01*
Y115002D01*
X44364Y114351D01*
X44837Y113878D01*
X44413Y113454D01*
X44144Y112803D01*
Y112098D01*
X44413Y111447D01*
X44912Y110949D01*
X45563Y110679D01*
X46268D01*
X46919Y110949D01*
X47417Y111447D01*
X47687Y112098D01*
Y112803D01*
X47417Y113454D01*
X46944Y113927D01*
X47368Y114351D01*
X47638Y115002D01*
Y115707D01*
X47368Y116358D01*
X46870Y116856D01*
X46218Y117126D01*
D02*
G37*
G36*
X6652Y114764D02*
X5947D01*
X5296Y114494D01*
X4797Y113996D01*
X4528Y113345D01*
Y112640D01*
X4797Y111989D01*
X5296Y111490D01*
X5947Y111221D01*
X6652D01*
X7303Y111490D01*
X7312Y111499D01*
X8190Y111436D01*
X8688Y110938D01*
X9340Y110668D01*
X10044D01*
X10696Y110938D01*
X11194Y111436D01*
X11464Y112088D01*
Y112792D01*
X11194Y113444D01*
X10696Y113942D01*
X10044Y114212D01*
X9340D01*
X8688Y113942D01*
X8680Y113933D01*
X7801Y113996D01*
X7303Y114494D01*
X6652Y114764D01*
D02*
G37*
G36*
X122400Y117520D02*
X121695D01*
X121044Y117250D01*
X120545Y116752D01*
X120276Y116101D01*
Y115396D01*
X120545Y114744D01*
X121044Y114246D01*
X121695Y113976D01*
X122056D01*
X122167Y113775D01*
X122298Y113189D01*
X121923Y112815D01*
X121653Y112163D01*
Y111459D01*
X121923Y110808D01*
X122422Y110309D01*
X123073Y110039D01*
X123778D01*
X124429Y110309D01*
X124927Y110808D01*
X125197Y111459D01*
Y112163D01*
X124927Y112815D01*
X124429Y113313D01*
X123778Y113583D01*
X123416D01*
X123305Y113784D01*
X123175Y114370D01*
X123549Y114744D01*
X123819Y115396D01*
Y116101D01*
X123549Y116752D01*
X123051Y117250D01*
X122400Y117520D01*
D02*
G37*
G36*
X146900Y113331D02*
X146196D01*
X145545Y113061D01*
X145046Y112563D01*
X144776Y111912D01*
Y111207D01*
X145046Y110556D01*
X145545Y110058D01*
X146196Y109788D01*
X146900D01*
X147552Y110058D01*
X148050Y110556D01*
X148320Y111207D01*
Y111912D01*
X148050Y112563D01*
X147552Y113061D01*
X146900Y113331D01*
D02*
G37*
G36*
X151913Y113261D02*
X151209D01*
X150557Y112991D01*
X150059Y112493D01*
X149790Y111842D01*
Y111137D01*
X150059Y110486D01*
X150557Y109987D01*
X151209Y109718D01*
X151913D01*
X152565Y109987D01*
X153063Y110486D01*
X153333Y111137D01*
Y111842D01*
X153063Y112493D01*
X152565Y112991D01*
X151913Y113261D01*
D02*
G37*
G36*
X130782Y114695D02*
X130077D01*
X129426Y114425D01*
X128928Y113927D01*
X128658Y113276D01*
Y112571D01*
X128754Y112340D01*
X129013Y111595D01*
X128514Y111097D01*
X128245Y110445D01*
Y109741D01*
X128514Y109089D01*
X129013Y108591D01*
X129664Y108321D01*
X130369D01*
X131020Y108591D01*
X131518Y109089D01*
X131788Y109741D01*
Y110445D01*
X131692Y110676D01*
X131433Y111421D01*
X131932Y111920D01*
X132202Y112571D01*
Y113276D01*
X131932Y113927D01*
X131433Y114425D01*
X130782Y114695D01*
D02*
G37*
G36*
X68364Y117616D02*
X67659D01*
X67008Y117347D01*
X66510Y116848D01*
X66240Y116197D01*
Y115492D01*
X66510Y114841D01*
X66982Y114369D01*
X66608Y113996D01*
X66339Y113345D01*
Y112640D01*
X66608Y111989D01*
X66665Y111932D01*
X67052Y111417D01*
X66665Y110903D01*
X66608Y110846D01*
X66339Y110195D01*
Y109490D01*
X66608Y108839D01*
X67107Y108341D01*
X67758Y108071D01*
X68463D01*
X69114Y108341D01*
X69612Y108839D01*
X69882Y109490D01*
Y110195D01*
X69612Y110846D01*
X69555Y110903D01*
X69169Y111417D01*
X69555Y111932D01*
X69612Y111989D01*
X69882Y112640D01*
Y113345D01*
X69612Y113996D01*
X69140Y114468D01*
X69514Y114841D01*
X69783Y115492D01*
Y116197D01*
X69514Y116848D01*
X69015Y117347D01*
X68364Y117616D01*
D02*
G37*
G36*
X158325Y111221D02*
X157620D01*
X156969Y110951D01*
X156471Y110452D01*
X156201Y109801D01*
Y109096D01*
X156471Y108445D01*
X156969Y107947D01*
X157620Y107677D01*
X158325D01*
X158976Y107947D01*
X159474Y108445D01*
X159744Y109096D01*
Y109801D01*
X159474Y110452D01*
X158976Y110951D01*
X158325Y111221D01*
D02*
G37*
G36*
X54683Y107677D02*
X53978D01*
X53327Y107407D01*
X53256Y107336D01*
X52771Y106950D01*
X52227Y107336D01*
X52185Y107378D01*
X51534Y107648D01*
X50829D01*
X50178Y107378D01*
X50135Y107336D01*
X49591Y106950D01*
X49107Y107336D01*
X49035Y107407D01*
X48384Y107677D01*
X47679D01*
X47028Y107407D01*
X46530Y106909D01*
X46260Y106258D01*
Y105553D01*
X46530Y104902D01*
X47028Y104404D01*
X47679Y104134D01*
X48384D01*
X49035Y104404D01*
X49077Y104446D01*
X49622Y104832D01*
X50106Y104446D01*
X50178Y104374D01*
X50829Y104104D01*
X51534D01*
X52185Y104374D01*
X52256Y104446D01*
X52741Y104832D01*
X53285Y104446D01*
X53327Y104404D01*
X53978Y104134D01*
X54683D01*
X55334Y104404D01*
X55833Y104902D01*
X56102Y105553D01*
Y106258D01*
X55833Y106909D01*
X55334Y107407D01*
X54683Y107677D01*
D02*
G37*
G36*
X77518D02*
X76813D01*
X76162Y107407D01*
X76090Y107336D01*
X75606Y106950D01*
X75061Y107336D01*
X75019Y107378D01*
X74368Y107648D01*
X73663D01*
X73012Y107378D01*
X72816Y107181D01*
X71923Y107023D01*
X71739Y107068D01*
X71219Y107283D01*
X70514D01*
X69863Y107014D01*
X69364Y106515D01*
X69095Y105864D01*
Y105159D01*
X69364Y104508D01*
X69863Y104010D01*
X70514Y103740D01*
X71219D01*
X71870Y104010D01*
X72066Y104207D01*
X72959Y104365D01*
X73142Y104320D01*
X73663Y104104D01*
X74368D01*
X75019Y104374D01*
X75091Y104446D01*
X75575Y104832D01*
X76120Y104446D01*
X76162Y104404D01*
X76813Y104134D01*
X77518D01*
X78169Y104404D01*
X78667Y104902D01*
X78937Y105553D01*
Y106258D01*
X78667Y106909D01*
X78169Y107407D01*
X77518Y107677D01*
D02*
G37*
G36*
X97203Y107648D02*
X96498D01*
X95847Y107378D01*
X95625Y107156D01*
X95247Y106916D01*
X94606Y107146D01*
X94497Y107255D01*
X93846Y107525D01*
X93141D01*
X92490Y107255D01*
X91991Y106757D01*
X91722Y106106D01*
Y105401D01*
X91991Y104750D01*
X92490Y104251D01*
X93141Y103982D01*
X93846D01*
X94497Y104251D01*
X94719Y104473D01*
X95097Y104713D01*
X95737Y104484D01*
X95847Y104374D01*
X96498Y104104D01*
X97203D01*
X97854Y104374D01*
X98352Y104873D01*
X98622Y105524D01*
Y106228D01*
X98352Y106880D01*
X97854Y107378D01*
X97203Y107648D01*
D02*
G37*
G36*
X22690Y108230D02*
X21985D01*
X21334Y107960D01*
X20835Y107462D01*
X20566Y106810D01*
Y106106D01*
X20835Y105455D01*
X21334Y104956D01*
X21985Y104686D01*
X22690D01*
X22896Y104772D01*
X23492Y104869D01*
X24048Y104549D01*
X24193Y104404D01*
X24845Y104134D01*
X25549D01*
X26200Y104404D01*
X26243Y104446D01*
X26787Y104832D01*
X27271Y104446D01*
X27343Y104374D01*
X27994Y104104D01*
X28699D01*
X29350Y104374D01*
X29422Y104446D01*
X29906Y104832D01*
X30450Y104446D01*
X30492Y104404D01*
X31144Y104134D01*
X31848D01*
X32500Y104404D01*
X32998Y104902D01*
X33268Y105553D01*
Y106258D01*
X32998Y106909D01*
X32500Y107407D01*
X31848Y107677D01*
X31144D01*
X30492Y107407D01*
X30421Y107336D01*
X29937Y106950D01*
X29392Y107336D01*
X29350Y107378D01*
X28699Y107648D01*
X27994D01*
X27343Y107378D01*
X27301Y107336D01*
X26756Y106950D01*
X26272Y107336D01*
X26200Y107407D01*
X25549Y107677D01*
X24845D01*
X24638Y107591D01*
X24042Y107495D01*
X23487Y107814D01*
X23341Y107960D01*
X22690Y108230D01*
D02*
G37*
G36*
X87557Y104528D02*
X86852D01*
X86201Y104258D01*
X85728Y103785D01*
X85255Y104258D01*
X84604Y104528D01*
X83900D01*
X83248Y104258D01*
X82750Y103760D01*
X82480Y103108D01*
Y102403D01*
X82750Y101752D01*
X83248Y101254D01*
X83900Y100984D01*
X84604D01*
X85255Y101254D01*
X85728Y101727D01*
X86201Y101254D01*
X86852Y100984D01*
X87557D01*
X88208Y101254D01*
X88707Y101752D01*
X88976Y102403D01*
Y103108D01*
X88707Y103760D01*
X88208Y104258D01*
X87557Y104528D01*
D02*
G37*
G36*
X131061Y106102D02*
X130356D01*
X129705Y105833D01*
X129207Y105334D01*
X128937Y104683D01*
Y103978D01*
X129207Y103327D01*
X129705Y102829D01*
X130356Y102559D01*
X131061D01*
X131712Y102829D01*
X132211Y103327D01*
X132480Y103978D01*
Y104683D01*
X132211Y105334D01*
X131712Y105833D01*
X131061Y106102D01*
D02*
G37*
G36*
X142085Y114764D02*
X141380D01*
X140729Y114494D01*
X140230Y113996D01*
X139961Y113345D01*
Y112640D01*
X140230Y111989D01*
X140632Y111587D01*
X140728Y111431D01*
X140716Y110643D01*
X140526Y110452D01*
X140256Y109801D01*
Y109096D01*
X140526Y108445D01*
X140909Y108062D01*
X140896Y107998D01*
X140398Y107500D01*
X140128Y106849D01*
Y106144D01*
X140398Y105492D01*
X140884Y105006D01*
X140526Y104648D01*
X140256Y103997D01*
Y103292D01*
X140526Y102641D01*
X141024Y102143D01*
X141675Y101873D01*
X142380D01*
X143031Y102143D01*
X143529Y102641D01*
X143799Y103292D01*
Y103997D01*
X143529Y104648D01*
X143043Y105134D01*
X143402Y105492D01*
X143671Y106144D01*
Y106849D01*
X143402Y107500D01*
X143018Y107883D01*
X143031Y107947D01*
X143529Y108445D01*
X143799Y109096D01*
Y109801D01*
X143529Y110452D01*
X143128Y110854D01*
X143032Y111010D01*
X143043Y111798D01*
X143234Y111989D01*
X143504Y112640D01*
Y113345D01*
X143234Y113996D01*
X142736Y114494D01*
X142085Y114764D01*
D02*
G37*
G36*
X37951Y104528D02*
X37246D01*
X36595Y104258D01*
X36097Y103760D01*
X35827Y103108D01*
Y102403D01*
X36097Y101752D01*
X36595Y101254D01*
X37246Y100984D01*
X37951D01*
X38602Y101254D01*
X39100Y101752D01*
X39141Y101850D01*
X39993D01*
X40034Y101752D01*
X40532Y101254D01*
X41183Y100984D01*
X41888D01*
X42539Y101254D01*
X43037Y101752D01*
X43307Y102403D01*
Y103108D01*
X43037Y103760D01*
X42539Y104258D01*
X41888Y104528D01*
X41183D01*
X40532Y104258D01*
X40034Y103760D01*
X39993Y103662D01*
X39141D01*
X39100Y103760D01*
X38602Y104258D01*
X37951Y104528D01*
D02*
G37*
G36*
X60973Y106311D02*
X60268D01*
X59617Y106041D01*
X59119Y105543D01*
X58849Y104892D01*
Y104187D01*
X59119Y103536D01*
X59617Y103038D01*
X60268Y102768D01*
X60973D01*
X61523Y102400D01*
Y102304D01*
X61793Y101652D01*
X62291Y101154D01*
X62942Y100884D01*
X63647D01*
X64298Y101154D01*
X64797Y101652D01*
X65066Y102304D01*
Y103008D01*
X64797Y103659D01*
X64298Y104158D01*
X63647Y104428D01*
X62942D01*
X62392Y104795D01*
Y104892D01*
X62123Y105543D01*
X61624Y106041D01*
X60973Y106311D01*
D02*
G37*
G36*
X16427Y103478D02*
X15722D01*
X15071Y103209D01*
X14572Y102710D01*
X14303Y102059D01*
Y101354D01*
X14572Y100703D01*
X15071Y100205D01*
X15722Y99935D01*
X16427D01*
X17078Y100205D01*
X17576Y100703D01*
X17846Y101354D01*
Y102059D01*
X17576Y102710D01*
X17078Y103209D01*
X16427Y103478D01*
D02*
G37*
G36*
X121022Y103347D02*
X120317D01*
X119666Y103077D01*
X119167Y102578D01*
X118898Y101927D01*
Y101222D01*
X119167Y100571D01*
X119666Y100073D01*
X120317Y99803D01*
X121022D01*
X121673Y100073D01*
X122171Y100571D01*
X122441Y101222D01*
Y101927D01*
X122171Y102578D01*
X121673Y103077D01*
X121022Y103347D01*
D02*
G37*
G36*
X126337Y103347D02*
X125632D01*
X124981Y103077D01*
X124482Y102578D01*
X124213Y101927D01*
Y101222D01*
X124482Y100571D01*
X124981Y100073D01*
X125632Y99803D01*
X126337D01*
X126988Y100073D01*
X127486Y100571D01*
X127756Y101222D01*
Y101927D01*
X127486Y102578D01*
X126988Y103077D01*
X126337Y103347D01*
D02*
G37*
G36*
X148974Y103347D02*
X148270D01*
X147618Y103077D01*
X147120Y102578D01*
X146850Y101927D01*
Y101222D01*
X147120Y100571D01*
X147618Y100073D01*
X148270Y99803D01*
X148463D01*
X148622Y99565D01*
Y98860D01*
X148892Y98209D01*
X149390Y97711D01*
X150041Y97441D01*
X150746D01*
X151397Y97711D01*
X151896Y98209D01*
X152165Y98860D01*
Y99025D01*
X152953Y99508D01*
X153191Y99410D01*
X153896D01*
X154547Y99679D01*
X155045Y100178D01*
X155315Y100829D01*
Y101533D01*
X155045Y102185D01*
X154547Y102683D01*
X153896Y102953D01*
X153191D01*
X152540Y102683D01*
X152041Y102185D01*
X151772Y101533D01*
Y101369D01*
X151061Y100933D01*
X150394Y101310D01*
Y101927D01*
X150124Y102578D01*
X149626Y103077D01*
X148974Y103347D01*
D02*
G37*
G36*
X77518Y99410D02*
X76813D01*
X76162Y99140D01*
X75663Y98641D01*
X75499Y98246D01*
X74689Y98118D01*
X74661Y98123D01*
X74646Y98149D01*
X74133Y98662D01*
X73505Y99025D01*
X72804Y99213D01*
X72078D01*
X71377Y99025D01*
X70749Y98662D01*
X70684Y98598D01*
X70068Y98280D01*
X69643Y98611D01*
X69507Y98746D01*
X68856Y99016D01*
X68151D01*
X67500Y98746D01*
X67002Y98248D01*
X66732Y97597D01*
Y96892D01*
X67002Y96241D01*
X66750Y96005D01*
X66713Y95990D01*
X66215Y95492D01*
X65945Y94841D01*
Y94136D01*
X66215Y93485D01*
X66713Y92986D01*
X67364Y92716D01*
X68069D01*
X68720Y92986D01*
X69218Y93485D01*
X69488Y94136D01*
Y94485D01*
X70095Y94712D01*
X70276Y94725D01*
X70749Y94252D01*
X71377Y93889D01*
X72078Y93701D01*
X72804D01*
X73505Y93889D01*
X73819Y94070D01*
X74532Y93773D01*
X74586Y93729D01*
X74635Y93672D01*
X74876Y93091D01*
X75374Y92593D01*
X76025Y92323D01*
X76730D01*
X77381Y92593D01*
X77880Y93091D01*
X78150Y93742D01*
Y94447D01*
X77880Y95098D01*
X77833Y95145D01*
X78018Y96073D01*
X78169Y96136D01*
X78667Y96634D01*
X78937Y97285D01*
Y97990D01*
X78667Y98641D01*
X78169Y99140D01*
X77518Y99410D01*
D02*
G37*
G36*
X99959Y101378D02*
X99254D01*
X98603Y101108D01*
X98104Y100610D01*
X97835Y99959D01*
Y99254D01*
X98104Y98603D01*
X98603Y98104D01*
X99254Y97835D01*
X99959D01*
X100610Y98104D01*
X101108Y98603D01*
X101378Y99254D01*
Y99959D01*
X101108Y100610D01*
X100610Y101108D01*
X99959Y101378D01*
D02*
G37*
G36*
X42489Y99606D02*
X41763D01*
X41062Y99418D01*
X40434Y99056D01*
X39921Y98543D01*
X39558Y97914D01*
X39370Y97213D01*
Y96640D01*
X39166Y96506D01*
X38411Y96545D01*
X37913Y97043D01*
X37262Y97313D01*
X36557D01*
X35906Y97043D01*
X35408Y96545D01*
X35138Y95893D01*
Y95189D01*
X35408Y94538D01*
X35906Y94039D01*
X36557Y93769D01*
X37262D01*
X37841Y93157D01*
X37868Y93091D01*
X38366Y92593D01*
X39018Y92323D01*
X39722D01*
X40374Y92593D01*
X40872Y93091D01*
X41142Y93742D01*
X41643Y94127D01*
X41763Y94095D01*
X42489D01*
X43190Y94282D01*
X43287Y94339D01*
X44167Y94272D01*
X44666Y93774D01*
X45317Y93504D01*
X46022D01*
X46448Y93681D01*
X46673Y93774D01*
X47317Y93485D01*
X47815Y92986D01*
X48467Y92716D01*
X49171D01*
X49823Y92986D01*
X50321Y93485D01*
X50591Y94136D01*
Y94841D01*
X50536Y94973D01*
X51231Y95316D01*
X51284Y95253D01*
X51338Y95158D01*
X51851Y94645D01*
X52480Y94282D01*
X53180Y94095D01*
X53906D01*
X54607Y94282D01*
X55235Y94645D01*
X55749Y95158D01*
X56111Y95787D01*
X56299Y96488D01*
Y97213D01*
X56111Y97914D01*
X55749Y98543D01*
X55235Y99056D01*
X54607Y99418D01*
X53906Y99606D01*
X53180D01*
X52480Y99418D01*
X51851Y99056D01*
X51338Y98543D01*
X50975Y97914D01*
X50787Y97213D01*
Y96488D01*
X50910Y96030D01*
X50946Y95895D01*
X50821Y95815D01*
X50209Y95604D01*
X50162Y95651D01*
X49823Y95990D01*
X49171Y96260D01*
X48467D01*
X48040Y96083D01*
X47815Y95990D01*
X47171Y96279D01*
X46673Y96777D01*
X46022Y97047D01*
X45317D01*
X44760Y97669D01*
X44694Y97914D01*
X44331Y98543D01*
X43818Y99056D01*
X43190Y99418D01*
X42489Y99606D01*
D02*
G37*
G36*
X90127D02*
X89401D01*
X88700Y99418D01*
X88072Y99056D01*
X87559Y98543D01*
X87196Y97914D01*
X87008Y97213D01*
Y97203D01*
X86278Y96653D01*
X85573D01*
X84922Y96384D01*
X84498Y95960D01*
X84074Y96384D01*
X83423Y96653D01*
X82718D01*
X82067Y96384D01*
X81569Y95885D01*
X81299Y95234D01*
Y94529D01*
X81569Y93878D01*
X82067Y93380D01*
X82718Y93110D01*
X83423D01*
X84074Y93380D01*
X84498Y93804D01*
X84922Y93380D01*
X85573Y93110D01*
X86278D01*
X86929Y93380D01*
X87427Y93878D01*
X87514Y94089D01*
X87588Y94162D01*
X88406Y94436D01*
X88443Y94431D01*
X88700Y94282D01*
X89401Y94095D01*
X90127D01*
X90828Y94282D01*
X91456Y94645D01*
X91969Y95158D01*
X92332Y95787D01*
X92460Y96266D01*
X93269Y96371D01*
X93380Y96103D01*
X93804Y95679D01*
X93380Y95255D01*
X93110Y94604D01*
Y93900D01*
X93380Y93248D01*
X93878Y92750D01*
X94529Y92480D01*
X95234D01*
X95885Y92750D01*
X96384Y93248D01*
X96653Y93900D01*
Y94604D01*
X96384Y95255D01*
X95960Y95679D01*
X96384Y96103D01*
X96653Y96754D01*
Y97459D01*
X96384Y98110D01*
X95885Y98608D01*
X95234Y98878D01*
X94529D01*
X93878Y98608D01*
X93380Y98110D01*
X93207Y97692D01*
X92383Y97724D01*
X92332Y97914D01*
X91969Y98543D01*
X91456Y99056D01*
X90828Y99418D01*
X90127Y99606D01*
D02*
G37*
G36*
X122400Y99016D02*
X121695D01*
X121044Y98746D01*
X120545Y98248D01*
X120276Y97597D01*
Y96892D01*
X120545Y96241D01*
X121044Y95742D01*
X121695Y95473D01*
X122400D01*
X123051Y95742D01*
X123549Y96241D01*
X123819Y96892D01*
Y97597D01*
X123549Y98248D01*
X123051Y98746D01*
X122400Y99016D01*
D02*
G37*
G36*
X130923Y100718D02*
X130218D01*
X129567Y100448D01*
X129069Y99950D01*
X128799Y99299D01*
Y98594D01*
X129069Y97943D01*
X129567Y97444D01*
X130218Y97175D01*
X130231D01*
X130421Y96890D01*
Y96186D01*
X130691Y95535D01*
X131189Y95036D01*
X131840Y94766D01*
X132545D01*
X133196Y95036D01*
X133695Y95535D01*
X133964Y96186D01*
Y96890D01*
X133695Y97542D01*
X133196Y98040D01*
X132545Y98310D01*
X132532D01*
X132342Y98594D01*
Y99299D01*
X132072Y99950D01*
X131574Y100448D01*
X130923Y100718D01*
D02*
G37*
G36*
X16508Y98502D02*
X15803D01*
X15152Y98232D01*
X14653Y97734D01*
X14383Y97083D01*
Y96378D01*
X14653Y95727D01*
X15152Y95229D01*
X15803Y94959D01*
X16508D01*
X17159Y95229D01*
X17789Y95453D01*
X18288Y94955D01*
X18939Y94685D01*
X19644D01*
X20295Y94955D01*
X20793Y95453D01*
X21063Y96104D01*
Y96809D01*
X20793Y97460D01*
X20295Y97959D01*
X19644Y98228D01*
X18939D01*
X18288Y97959D01*
X17657Y97734D01*
X17159Y98232D01*
X16508Y98502D01*
D02*
G37*
G36*
X30678Y99606D02*
X29952D01*
X29251Y99418D01*
X28623Y99056D01*
X28110Y98543D01*
X27747Y97914D01*
X27559Y97213D01*
Y96488D01*
X27747Y95787D01*
X28110Y95158D01*
X28623Y94645D01*
X29251Y94282D01*
X29952Y94095D01*
X30678D01*
X31379Y94282D01*
X32007Y94645D01*
X32520Y95158D01*
X32883Y95787D01*
X33071Y96488D01*
Y97213D01*
X32883Y97914D01*
X32520Y98543D01*
X32007Y99056D01*
X31379Y99418D01*
X30678Y99606D01*
D02*
G37*
G36*
X139132Y99016D02*
X138427D01*
X137776Y98746D01*
X137278Y98248D01*
X137008Y97597D01*
X136709Y96967D01*
X136004Y96967D01*
X135353Y96697D01*
X134854Y96199D01*
X134585Y95547D01*
Y94843D01*
X134854Y94191D01*
X135353Y93693D01*
X136004Y93423D01*
X136709D01*
X137360Y93693D01*
X137858Y94191D01*
X138093Y94758D01*
X138427Y95473D01*
X139132Y95473D01*
X139783Y95742D01*
X140281Y96241D01*
X140551Y96892D01*
Y97597D01*
X140281Y98248D01*
X139783Y98746D01*
X139132Y99016D01*
D02*
G37*
G36*
X114526Y99803D02*
X113821D01*
X113170Y99533D01*
X112671Y99035D01*
X112402Y98384D01*
Y97679D01*
X112671Y97028D01*
X113046Y96654D01*
X112573Y96181D01*
X112303Y95530D01*
Y94825D01*
X112573Y94174D01*
X113071Y93675D01*
X113722Y93406D01*
X114427D01*
X115078Y93675D01*
X115577Y94174D01*
X115846Y94825D01*
Y95530D01*
X115577Y96181D01*
X115202Y96555D01*
X115675Y97028D01*
X115945Y97679D01*
Y98384D01*
X115675Y99035D01*
X115177Y99533D01*
X114526Y99803D01*
D02*
G37*
G36*
X58930Y100707D02*
X58225D01*
X57574Y100437D01*
X57076Y99938D01*
X56806Y99287D01*
Y98582D01*
X57076Y97931D01*
X57574Y97433D01*
X58225Y97163D01*
X58930D01*
X58963Y97177D01*
X59754Y96652D01*
X59754Y96600D01*
X59709Y96581D01*
X59233Y96384D01*
X58734Y95885D01*
X58465Y95234D01*
Y94529D01*
X58734Y93878D01*
X59233Y93380D01*
X59884Y93110D01*
X60589D01*
X61240Y93380D01*
X61738Y93878D01*
X62008Y94529D01*
Y95234D01*
X62732Y95545D01*
X63208Y95742D01*
X63707Y96241D01*
X63976Y96892D01*
Y97597D01*
X63707Y98248D01*
X63208Y98746D01*
X62557Y99016D01*
X61852D01*
X61201Y98746D01*
X61137Y98681D01*
X60349Y99008D01*
Y99287D01*
X60079Y99938D01*
X59581Y100437D01*
X58930Y100707D01*
D02*
G37*
G36*
X159155Y99191D02*
X158450D01*
X157799Y98921D01*
X157301Y98423D01*
X157031Y97772D01*
Y97067D01*
X157301Y96416D01*
X157799Y95918D01*
X158450Y95648D01*
X158538D01*
X158845Y95189D01*
Y94484D01*
X159115Y93833D01*
X159613Y93334D01*
X160265Y93065D01*
X160969D01*
X161620Y93334D01*
X162119Y93833D01*
X162389Y94484D01*
Y95189D01*
X162119Y95840D01*
X161620Y96338D01*
X160969Y96608D01*
X160881D01*
X160574Y97067D01*
Y97772D01*
X160305Y98423D01*
X159806Y98921D01*
X159155Y99191D01*
D02*
G37*
G36*
X106455Y104528D02*
X105750D01*
X105099Y104258D01*
X104600Y103760D01*
X104331Y103108D01*
Y102403D01*
X104600Y101752D01*
X105099Y101254D01*
X105196Y101214D01*
X105580Y100504D01*
X105507Y100297D01*
X105317Y99840D01*
Y99135D01*
X105386Y98968D01*
X105558Y98452D01*
X105053Y97905D01*
X105001Y97875D01*
X104488Y97361D01*
X104125Y96733D01*
X103937Y96032D01*
Y95306D01*
X104125Y94606D01*
X104488Y93977D01*
X105001Y93464D01*
X105629Y93101D01*
X106330Y92913D01*
X107056D01*
X107757Y93101D01*
X108385Y93464D01*
X108898Y93977D01*
X109261Y94606D01*
X109449Y95306D01*
Y96032D01*
X109261Y96733D01*
X108898Y97361D01*
X108385Y97874D01*
X108338Y98231D01*
X108591Y98484D01*
X108861Y99135D01*
Y99840D01*
X108591Y100491D01*
X108093Y100989D01*
X107995Y101030D01*
X107611Y101739D01*
X107684Y101946D01*
X107874Y102403D01*
Y103108D01*
X107604Y103760D01*
X107106Y104258D01*
X106455Y104528D01*
D02*
G37*
G36*
X153192Y95486D02*
X152487D01*
X151836Y95216D01*
X151338Y94718D01*
X151068Y94067D01*
Y93362D01*
X151338Y92711D01*
X151836Y92212D01*
X152487Y91943D01*
X153192D01*
X153843Y92212D01*
X154341Y92711D01*
X154611Y93362D01*
Y94067D01*
X154341Y94718D01*
X153843Y95216D01*
X153192Y95486D01*
D02*
G37*
G36*
X142748Y96563D02*
X142043D01*
X141392Y96294D01*
X140894Y95795D01*
X140624Y95144D01*
Y94439D01*
X139916Y94092D01*
X139580Y93954D01*
X139082Y93455D01*
X138812Y92804D01*
Y92099D01*
X139082Y91448D01*
X139580Y90950D01*
X140232Y90680D01*
X140936D01*
X141588Y90950D01*
X142086Y91448D01*
X142356Y92099D01*
Y92804D01*
X143064Y93151D01*
X143399Y93290D01*
X143897Y93788D01*
X144167Y94439D01*
Y95144D01*
X143897Y95795D01*
X143399Y96294D01*
X142748Y96563D01*
D02*
G37*
G36*
X117931Y94193D02*
X117226D01*
X116575Y93923D01*
X116076Y93425D01*
X115806Y92774D01*
Y92069D01*
X116076Y91418D01*
X116575Y90919D01*
X117226Y90650D01*
X117931D01*
X118582Y90919D01*
X119080Y91418D01*
X119350Y92069D01*
Y92774D01*
X119080Y93425D01*
X118582Y93923D01*
X117931Y94193D01*
D02*
G37*
G36*
X129486Y94095D02*
X128781D01*
X128130Y93825D01*
X127632Y93326D01*
X127362Y92675D01*
Y91970D01*
X127632Y91319D01*
X128130Y90821D01*
X128781Y90551D01*
X129486D01*
X130137Y90821D01*
X130636Y91319D01*
X130905Y91970D01*
Y92675D01*
X130636Y93326D01*
X130137Y93825D01*
X129486Y94095D01*
D02*
G37*
G36*
X134604Y92242D02*
X133900D01*
X133248Y91972D01*
X132750Y91474D01*
X132480Y90823D01*
Y90118D01*
X132750Y89467D01*
X133248Y88968D01*
X133900Y88699D01*
X134604D01*
X135256Y88968D01*
X135754Y89467D01*
X136024Y90118D01*
Y90823D01*
X135754Y91474D01*
X135256Y91972D01*
X134604Y92242D01*
D02*
G37*
G36*
X109014Y91535D02*
X108309D01*
X107658Y91266D01*
X107159Y90767D01*
X106890Y90116D01*
Y89411D01*
X107159Y88760D01*
X107658Y88262D01*
X108309Y87992D01*
X109014D01*
X109665Y88262D01*
X110163Y88760D01*
X110433Y89411D01*
Y90116D01*
X110163Y90767D01*
X109665Y91266D01*
X109014Y91535D01*
D02*
G37*
G36*
X146335Y91043D02*
X145630D01*
X144979Y90774D01*
X144481Y90275D01*
X144211Y89624D01*
Y88919D01*
X144481Y88268D01*
X144979Y87770D01*
X145630Y87500D01*
X146335D01*
X146986Y87770D01*
X147485Y88268D01*
X147755Y88919D01*
Y89624D01*
X147485Y90275D01*
X146986Y90774D01*
X146335Y91043D01*
D02*
G37*
G36*
X45628Y87706D02*
X44923D01*
X44272Y87436D01*
X44161Y87326D01*
X43755Y86949D01*
X43133Y87326D01*
X43130Y87329D01*
X42478Y87598D01*
X41774D01*
X41122Y87329D01*
X40624Y86830D01*
X40354Y86179D01*
Y85474D01*
X40624Y84823D01*
X41122Y84325D01*
X41774Y84055D01*
X42478D01*
X43130Y84325D01*
X43240Y84435D01*
X43646Y84812D01*
X44269Y84435D01*
X44272Y84432D01*
X44923Y84163D01*
X45628D01*
X46279Y84432D01*
X46777Y84931D01*
X47047Y85582D01*
Y86287D01*
X46777Y86938D01*
X46279Y87436D01*
X45628Y87706D01*
D02*
G37*
G36*
X88935Y88386D02*
X88230D01*
X87579Y88116D01*
X87081Y87618D01*
X86811Y86967D01*
Y86262D01*
X86832Y86212D01*
X86229Y85609D01*
X86179Y85630D01*
X85474D01*
X84823Y85360D01*
X84325Y84862D01*
X84055Y84211D01*
Y83506D01*
X84325Y82855D01*
X84823Y82356D01*
X85474Y82087D01*
X86179D01*
X86830Y82356D01*
X87329Y82855D01*
X87598Y83506D01*
Y83541D01*
X88350Y84297D01*
X88715Y84285D01*
X88779Y84211D01*
Y83506D01*
X89049Y82855D01*
X89548Y82356D01*
X90199Y82087D01*
X90904D01*
X91555Y82356D01*
X92053Y82855D01*
X92323Y83506D01*
Y84211D01*
X92053Y84862D01*
X91555Y85360D01*
X90904Y85630D01*
X90354Y86262D01*
Y86967D01*
X90085Y87618D01*
X89586Y88116D01*
X88935Y88386D01*
D02*
G37*
G36*
X25560Y94882D02*
X24834D01*
X24133Y94694D01*
X23505Y94331D01*
X22992Y93818D01*
X22629Y93190D01*
X22441Y92489D01*
Y91763D01*
X22629Y91062D01*
X22992Y90434D01*
X23505Y89921D01*
X24133Y89558D01*
X24834Y89370D01*
X25560D01*
X26261Y89558D01*
X26347Y89608D01*
X26831Y88978D01*
X26683Y88830D01*
X26413Y88179D01*
Y87474D01*
X26683Y86823D01*
X27182Y86325D01*
X27833Y86055D01*
X28537D01*
X28821Y85778D01*
X28863Y85528D01*
X28850Y84899D01*
X28516Y84565D01*
X27990Y84558D01*
X27635Y84633D01*
X27531Y84884D01*
X27033Y85383D01*
X26381Y85652D01*
X25677D01*
X25025Y85383D01*
X24527Y84884D01*
X24257Y84233D01*
Y83528D01*
X24527Y82877D01*
X25025Y82379D01*
X25677Y82109D01*
X26381D01*
X27033Y82379D01*
X27435Y82781D01*
X27960Y82787D01*
X28315Y82713D01*
X28419Y82461D01*
X28918Y81963D01*
X29569Y81693D01*
X30274D01*
X30925Y81963D01*
X31028Y82066D01*
X31663Y82307D01*
X32050Y82059D01*
X32262Y81847D01*
X32914Y81577D01*
X33618D01*
X34269Y81847D01*
X34768Y82346D01*
X35038Y82997D01*
Y83702D01*
X34768Y84353D01*
X34269Y84851D01*
X33618Y85121D01*
X33023D01*
X32684Y85441D01*
X32443Y85778D01*
X32480Y85868D01*
Y86573D01*
X32211Y87224D01*
X31712Y87722D01*
X31061Y87992D01*
X30356D01*
X30283Y87962D01*
X29957Y88179D01*
X29687Y88830D01*
X29189Y89329D01*
X28537Y89599D01*
X27833D01*
X27573Y89491D01*
X27127Y90158D01*
X27402Y90434D01*
X27765Y91062D01*
X27953Y91763D01*
Y92489D01*
X27765Y93190D01*
X27402Y93818D01*
X26889Y94331D01*
X26261Y94694D01*
X25560Y94882D01*
D02*
G37*
G36*
X79782Y88236D02*
X79077D01*
X78426Y87967D01*
X77927Y87468D01*
X77658Y86817D01*
Y86112D01*
X77927Y85461D01*
X78301Y85088D01*
X77829Y84615D01*
X77696Y84295D01*
X76848Y84305D01*
X76699Y84665D01*
X76200Y85163D01*
X75549Y85433D01*
X74844D01*
X74193Y85163D01*
X73695Y84665D01*
X73425Y84014D01*
Y83309D01*
X73695Y82658D01*
X74193Y82160D01*
X74844Y81890D01*
X75549D01*
X76200Y82160D01*
X76699Y82658D01*
X76832Y82979D01*
X77680Y82968D01*
X77829Y82608D01*
X78327Y82110D01*
X78978Y81840D01*
X79683D01*
X80334Y82110D01*
X80833Y82608D01*
X81102Y83260D01*
Y83964D01*
X80833Y84615D01*
X80459Y84989D01*
X80931Y85461D01*
X81201Y86112D01*
Y86817D01*
X80931Y87468D01*
X80433Y87967D01*
X79782Y88236D01*
D02*
G37*
G36*
X105274Y87819D02*
X104569D01*
X103918Y87550D01*
X103420Y87051D01*
X103150Y86400D01*
Y85695D01*
X103420Y85044D01*
X103918Y84546D01*
X104569Y84276D01*
X105274D01*
X105925Y84546D01*
X106423Y85044D01*
X106693Y85695D01*
Y86400D01*
X106423Y87051D01*
X105925Y87550D01*
X105274Y87819D01*
D02*
G37*
G36*
X20431Y86417D02*
X19726D01*
X19075Y86148D01*
X18577Y85649D01*
X18307Y84998D01*
Y84293D01*
X18577Y83642D01*
X19075Y83144D01*
X19726Y82874D01*
X20431D01*
X21082Y83144D01*
X21581Y83642D01*
X21850Y84293D01*
Y84998D01*
X21581Y85649D01*
X21082Y86148D01*
X20431Y86417D01*
D02*
G37*
G36*
X111770Y86024D02*
X111065D01*
X110414Y85754D01*
X109915Y85255D01*
X109646Y84604D01*
Y83900D01*
X109915Y83248D01*
X110414Y82750D01*
X111065Y82480D01*
X111770D01*
X112421Y82750D01*
X112919Y83248D01*
X113189Y83900D01*
Y84604D01*
X112919Y85255D01*
X112421Y85754D01*
X111770Y86024D01*
D02*
G37*
G36*
X68172Y81473D02*
X67467D01*
X66816Y81204D01*
X66317Y80705D01*
X66048Y80054D01*
Y79349D01*
X66317Y78698D01*
X66816Y78200D01*
X67467Y77930D01*
X68172D01*
X68823Y78200D01*
X69321Y78698D01*
X69591Y79349D01*
Y80054D01*
X69321Y80705D01*
X68823Y81204D01*
X68172Y81473D01*
D02*
G37*
G36*
X46415Y80512D02*
X45711D01*
X45059Y80242D01*
X44561Y79744D01*
X44291Y79093D01*
Y78388D01*
X44561Y77737D01*
X45059Y77238D01*
X45711Y76968D01*
X46415D01*
X47067Y77238D01*
X47565Y77737D01*
X47835Y78388D01*
Y79093D01*
X47565Y79744D01*
X47067Y80242D01*
X46415Y80512D01*
D02*
G37*
G36*
X111770Y78543D02*
X111065D01*
X110414Y78274D01*
X109915Y77775D01*
X109646Y77124D01*
X109260Y76867D01*
X109014Y76968D01*
X108309D01*
X107658Y76699D01*
X107159Y76200D01*
X106890Y75549D01*
Y74844D01*
X107159Y74193D01*
X107658Y73695D01*
X107755Y73655D01*
Y72802D01*
X107658Y72762D01*
X107159Y72263D01*
X106890Y71612D01*
Y70907D01*
X107159Y70256D01*
X107658Y69758D01*
X108309Y69488D01*
X109014D01*
X109665Y69758D01*
X110163Y70256D01*
X110433Y70907D01*
Y71612D01*
X110163Y72263D01*
X109665Y72762D01*
X109567Y72802D01*
Y73655D01*
X109665Y73695D01*
X110163Y74193D01*
X110433Y74844D01*
X110819Y75102D01*
X111065Y75000D01*
X111770D01*
X112421Y75270D01*
X112919Y75768D01*
X113189Y76419D01*
Y77124D01*
X112919Y77775D01*
X112421Y78274D01*
X111770Y78543D01*
D02*
G37*
G36*
X35750Y79695D02*
X35045D01*
X34394Y79426D01*
X33895Y78927D01*
X33625Y78276D01*
Y77571D01*
X33895Y76920D01*
X34394Y76422D01*
X35045Y76152D01*
X35750D01*
X36401Y76422D01*
X36899Y76920D01*
X37169Y77571D01*
Y78276D01*
X36899Y78927D01*
X36401Y79426D01*
X35750Y79695D01*
D02*
G37*
G36*
X84211Y79331D02*
X83506D01*
X82855Y79061D01*
X82356Y78563D01*
X82087Y77912D01*
Y77207D01*
X82356Y76556D01*
X82855Y76057D01*
X83506Y75787D01*
X84211D01*
X84862Y76057D01*
X85360Y76556D01*
X85630Y77207D01*
Y77912D01*
X85360Y78563D01*
X84862Y79061D01*
X84211Y79331D01*
D02*
G37*
G36*
X99171Y78150D02*
X98466D01*
X97815Y77880D01*
X97317Y77381D01*
X97047Y76730D01*
Y76025D01*
X97317Y75374D01*
X97815Y74876D01*
X98466Y74606D01*
X99171D01*
X99822Y74876D01*
X100321Y75374D01*
X100591Y76025D01*
Y76730D01*
X100321Y77381D01*
X99822Y77880D01*
X99171Y78150D01*
D02*
G37*
G36*
X77124Y78543D02*
X76419D01*
X75768Y78274D01*
X75270Y77775D01*
X75000Y77124D01*
Y76419D01*
X75270Y75768D01*
X75768Y75270D01*
X76419Y75000D01*
X77124D01*
X77189Y75027D01*
X78078Y74940D01*
X78576Y74442D01*
X79227Y74172D01*
X79932D01*
X80583Y74442D01*
X81081Y74940D01*
X81351Y75591D01*
Y76296D01*
X81081Y76947D01*
X80583Y77446D01*
X79932Y77715D01*
X79227D01*
X79162Y77688D01*
X78274Y77775D01*
X77775Y78274D01*
X77124Y78543D01*
D02*
G37*
G36*
X134279Y84055D02*
X133574D01*
X132923Y83785D01*
X132425Y83287D01*
X132155Y82636D01*
Y81931D01*
X132425Y81280D01*
X132775Y80929D01*
X132756Y80286D01*
X132671Y80034D01*
X132461Y79947D01*
X131963Y79448D01*
X131693Y78797D01*
Y78092D01*
X131963Y77441D01*
X132386Y77018D01*
X131963Y76594D01*
X131693Y75943D01*
Y75238D01*
X131963Y74587D01*
X132461Y74089D01*
X133112Y73819D01*
X133817D01*
X134468Y74089D01*
X134967Y74587D01*
X135236Y75238D01*
Y75943D01*
X134967Y76594D01*
X134543Y77018D01*
X134967Y77441D01*
X135236Y78092D01*
Y78797D01*
X134967Y79448D01*
X134616Y79799D01*
X134635Y80443D01*
X134720Y80695D01*
X134930Y80782D01*
X135429Y81280D01*
X135698Y81931D01*
Y82636D01*
X135429Y83287D01*
X134930Y83785D01*
X134279Y84055D01*
D02*
G37*
G36*
X119021Y77314D02*
X118316D01*
X117665Y77044D01*
X117166Y76546D01*
X116897Y75895D01*
Y75190D01*
X117166Y74539D01*
X117665Y74041D01*
X118316Y73771D01*
X119021D01*
X119672Y74041D01*
X120170Y74539D01*
X120440Y75190D01*
Y75895D01*
X120170Y76546D01*
X119672Y77044D01*
X119021Y77314D01*
D02*
G37*
G36*
X60982Y76968D02*
X60277D01*
X59626Y76699D01*
X59128Y76200D01*
X58858Y75549D01*
Y74844D01*
X59128Y74193D01*
X59626Y73695D01*
X60277Y73425D01*
X60982D01*
X61633Y73695D01*
X62132Y74193D01*
X62402Y74844D01*
Y75549D01*
X62132Y76200D01*
X61633Y76699D01*
X60982Y76968D01*
D02*
G37*
G36*
X48384Y74213D02*
X47679D01*
X47028Y73943D01*
X46530Y73444D01*
X46489Y73347D01*
X45637D01*
X45596Y73444D01*
X45098Y73943D01*
X44447Y74213D01*
X43742D01*
X43091Y73943D01*
X42593Y73444D01*
X42323Y72793D01*
Y72088D01*
X42593Y71437D01*
X43091Y70939D01*
X43742Y70669D01*
X44447D01*
X45098Y70939D01*
X45596Y71437D01*
X45637Y71535D01*
X46489D01*
X46530Y71437D01*
X47028Y70939D01*
X47679Y70669D01*
X48384D01*
X49035Y70939D01*
X49533Y71437D01*
X49803Y72088D01*
Y72793D01*
X49533Y73444D01*
X49035Y73943D01*
X48384Y74213D01*
D02*
G37*
G36*
X33817Y75394D02*
X33112D01*
X32461Y75124D01*
X31963Y74626D01*
X31693Y73975D01*
Y73270D01*
X31963Y72619D01*
X32461Y72120D01*
X33112Y71850D01*
X33817D01*
X34468Y72120D01*
X34966Y72619D01*
X35236Y73270D01*
Y73975D01*
X34966Y74626D01*
X34468Y75124D01*
X33817Y75394D01*
D02*
G37*
G36*
X27031Y80680D02*
X26326D01*
X25675Y80410D01*
X25177Y79912D01*
X24907Y79261D01*
Y78556D01*
X25177Y77905D01*
X25326Y77756D01*
X24999Y76968D01*
X24845D01*
X24193Y76699D01*
X23695Y76200D01*
X23425Y75549D01*
Y74844D01*
X23695Y74193D01*
X24193Y73695D01*
X24214Y73686D01*
Y72834D01*
X24002Y72746D01*
X23504Y72248D01*
X23234Y71597D01*
Y70892D01*
X23504Y70241D01*
X24002Y69743D01*
X24653Y69473D01*
X25358D01*
X26009Y69743D01*
X26508Y70241D01*
X26633Y70545D01*
X27207Y71063D01*
X27911D01*
X28563Y71333D01*
X29061Y71831D01*
X29331Y72482D01*
Y73187D01*
X29061Y73838D01*
X28563Y74337D01*
X27911Y74606D01*
X27696D01*
X27148Y74786D01*
X26969Y75334D01*
Y75549D01*
X26699Y76200D01*
X26550Y76349D01*
X26876Y77137D01*
X27031D01*
X27682Y77406D01*
X28181Y77905D01*
X28450Y78556D01*
Y79261D01*
X28181Y79912D01*
X27682Y80410D01*
X27031Y80680D01*
D02*
G37*
G36*
X133817Y71850D02*
X133112D01*
X132461Y71581D01*
X131963Y71082D01*
X131693Y70431D01*
Y69726D01*
X131963Y69075D01*
X132461Y68577D01*
X133112Y68307D01*
X133817D01*
X134468Y68577D01*
X134967Y69075D01*
X135236Y69726D01*
Y70431D01*
X134967Y71082D01*
X134468Y71581D01*
X133817Y71850D01*
D02*
G37*
G36*
X36278Y70079D02*
X35573D01*
X34922Y69809D01*
X34423Y69311D01*
X34154Y68660D01*
Y67955D01*
X34423Y67304D01*
X34922Y66805D01*
X35573Y66535D01*
X36278D01*
X36929Y66805D01*
X37427Y67304D01*
X37697Y67955D01*
Y68660D01*
X37427Y69311D01*
X36929Y69809D01*
X36278Y70079D01*
D02*
G37*
G36*
X41666Y69443D02*
X40961D01*
X40310Y69173D01*
X39811Y68674D01*
X39542Y68023D01*
Y67318D01*
X39811Y66667D01*
X40310Y66169D01*
X40961Y65899D01*
X41666D01*
X42317Y66169D01*
X42815Y66667D01*
X43085Y67318D01*
Y68023D01*
X42815Y68674D01*
X42317Y69173D01*
X41666Y69443D01*
D02*
G37*
G36*
X125671Y68898D02*
X124966D01*
X124315Y68628D01*
X123816Y68130D01*
X123547Y67478D01*
Y66774D01*
X123816Y66123D01*
X124315Y65624D01*
X124966Y65354D01*
X125671D01*
X126322Y65624D01*
X126820Y66123D01*
X127090Y66774D01*
Y67478D01*
X126820Y68130D01*
X126322Y68628D01*
X125671Y68898D01*
D02*
G37*
G36*
X7950Y69797D02*
X7245D01*
X6594Y69527D01*
X6096Y69029D01*
X5826Y68378D01*
Y67673D01*
X6096Y67022D01*
X6594Y66524D01*
X6602Y66520D01*
X7145Y65979D01*
X6996Y65570D01*
X6890Y65313D01*
Y64608D01*
X7159Y63957D01*
X7658Y63459D01*
X8309Y63189D01*
X9014D01*
X9665Y63459D01*
X10163Y63957D01*
X10433Y64608D01*
Y65313D01*
X10163Y65964D01*
X9665Y66463D01*
X9657Y66466D01*
X9114Y67007D01*
X9263Y67417D01*
X9369Y67673D01*
Y68378D01*
X9099Y69029D01*
X8601Y69527D01*
X7950Y69797D01*
D02*
G37*
G36*
X101533Y66339D02*
X100829D01*
X100178Y66069D01*
X99679Y65570D01*
X99410Y64919D01*
Y64214D01*
X99679Y63563D01*
X100178Y63065D01*
X100469Y62944D01*
X100531Y62919D01*
X100374Y62131D01*
X100319Y62131D01*
X100083D01*
X99432Y61861D01*
X98934Y61363D01*
X98699Y60796D01*
X98609Y60778D01*
X97958Y61048D01*
X97253D01*
X96857Y61736D01*
X96777Y61929D01*
X96279Y62427D01*
X95628Y62697D01*
X94923D01*
X94272Y62427D01*
X93774Y61929D01*
X93504Y61278D01*
Y60573D01*
X93774Y59922D01*
X94272Y59423D01*
X94923Y59153D01*
X95628D01*
X96024Y58465D01*
X96104Y58273D01*
X96602Y57775D01*
X97240Y57510D01*
X97047Y57045D01*
Y56340D01*
X97317Y55689D01*
X97815Y55191D01*
X98466Y54921D01*
X99171D01*
X99703Y54289D01*
X99534Y53881D01*
Y53176D01*
X99803Y52525D01*
X100302Y52026D01*
X100953Y51757D01*
X101658D01*
X102309Y52026D01*
X102807Y52525D01*
X103077Y53176D01*
Y53881D01*
X102807Y54532D01*
X102309Y55030D01*
X101658Y55300D01*
X100953D01*
X100421Y55932D01*
X100591Y56340D01*
Y57045D01*
X100321Y57696D01*
X100217Y57801D01*
X100543Y58588D01*
X100788D01*
X101439Y58858D01*
X101937Y59356D01*
X102207Y60007D01*
Y60712D01*
X101937Y61363D01*
X101439Y61861D01*
X101147Y61982D01*
X101086Y62008D01*
X101242Y62795D01*
X101297Y62795D01*
X101533D01*
X102185Y63065D01*
X102683Y63563D01*
X102953Y64214D01*
Y64919D01*
X102683Y65570D01*
X102185Y66069D01*
X101533Y66339D01*
D02*
G37*
G36*
X25549Y63188D02*
X24844D01*
X24193Y62919D01*
X23694Y62420D01*
X23425Y61769D01*
Y61064D01*
X23694Y60413D01*
X24193Y59915D01*
X24844Y59645D01*
X25549D01*
X26200Y59915D01*
X26698Y60413D01*
X26968Y61064D01*
Y61769D01*
X26698Y62420D01*
X26200Y62919D01*
X25549Y63188D01*
D02*
G37*
G36*
X48384Y58858D02*
X47679D01*
X47028Y58588D01*
X46971Y58532D01*
X46457Y58145D01*
X45942Y58532D01*
X45885Y58588D01*
X45234Y58858D01*
X44530D01*
X43878Y58588D01*
X43380Y58090D01*
X43110Y57439D01*
Y56734D01*
X43380Y56083D01*
X43878Y55585D01*
X44530Y55315D01*
X45234D01*
X45885Y55585D01*
X45942Y55642D01*
X46457Y56028D01*
X46971Y55642D01*
X47028Y55585D01*
X47679Y55315D01*
X48384D01*
X49035Y55585D01*
X49533Y56083D01*
X49803Y56734D01*
Y57439D01*
X49533Y58090D01*
X49035Y58588D01*
X48384Y58858D01*
D02*
G37*
G36*
X7045Y60138D02*
X6340D01*
X5689Y59868D01*
X5191Y59370D01*
X4921Y58719D01*
Y58014D01*
X5191Y57363D01*
X5689Y56864D01*
X6340Y56595D01*
X7045D01*
X7696Y56864D01*
X8195Y57363D01*
X8465Y58014D01*
Y58719D01*
X8195Y59370D01*
X7696Y59868D01*
X7045Y60138D01*
D02*
G37*
G36*
X55175Y60980D02*
X54470D01*
X53819Y60710D01*
X53321Y60212D01*
X53051Y59561D01*
Y58856D01*
X53321Y58205D01*
X53819Y57706D01*
X54470Y57437D01*
X54528D01*
X54830Y57329D01*
Y56624D01*
X55100Y55973D01*
X55598Y55474D01*
X56249Y55205D01*
X56954D01*
X57605Y55474D01*
X58104Y55973D01*
X58374Y56624D01*
X58449Y56668D01*
X58520Y56673D01*
X58637Y56665D01*
X59358Y56369D01*
X59522Y55973D01*
X60020Y55474D01*
X60671Y55205D01*
X61376D01*
X62027Y55474D01*
X62525Y55973D01*
X62566Y56070D01*
X63418D01*
X63459Y55973D01*
X63957Y55474D01*
X64608Y55205D01*
X65313D01*
X65964Y55474D01*
X66463Y55973D01*
X66732Y56624D01*
Y57329D01*
X66463Y57980D01*
X65964Y58478D01*
X65313Y58748D01*
X64608D01*
X63957Y58478D01*
X63459Y57980D01*
X63418Y57882D01*
X62566D01*
X62525Y57980D01*
X62027Y58478D01*
X61376Y58748D01*
X60671D01*
X60581Y59034D01*
Y59139D01*
X60311Y59790D01*
X59813Y60288D01*
X59162Y60558D01*
X58457D01*
X57806Y60288D01*
X57307Y59790D01*
X56477Y59844D01*
X56325Y60212D01*
X55826Y60710D01*
X55175Y60980D01*
D02*
G37*
G36*
X90940Y58321D02*
X90235D01*
X89584Y58051D01*
X89086Y57553D01*
X88816Y56902D01*
Y56197D01*
X89086Y55546D01*
X89584Y55048D01*
X90235Y54778D01*
X90940D01*
X91591Y55048D01*
X92089Y55546D01*
X92359Y56197D01*
Y56902D01*
X92089Y57553D01*
X91591Y58051D01*
X90940Y58321D01*
D02*
G37*
G36*
X116100Y58071D02*
X115396D01*
X114744Y57801D01*
X114246Y57303D01*
X113976Y56652D01*
Y55947D01*
X114246Y55296D01*
X114744Y54797D01*
X115396Y54528D01*
X116100D01*
X116752Y54797D01*
X117250Y55296D01*
X117520Y55947D01*
Y56652D01*
X117250Y57303D01*
X116752Y57801D01*
X116100Y58071D01*
D02*
G37*
G36*
X132242Y58465D02*
X131537D01*
X130886Y58195D01*
X130388Y57696D01*
X130118Y57045D01*
Y56340D01*
X130388Y55689D01*
X130886Y55191D01*
X131537Y54921D01*
X132242Y54921D01*
X132579Y54322D01*
X132849Y53671D01*
X133347Y53173D01*
X133998Y52903D01*
X134703D01*
X135354Y53173D01*
X135852Y53671D01*
X136122Y54322D01*
Y55027D01*
X135852Y55678D01*
X135354Y56177D01*
X134703Y56446D01*
X133998Y56446D01*
X133661Y57045D01*
X133392Y57696D01*
X132893Y58195D01*
X132242Y58465D01*
D02*
G37*
G36*
X88148Y53347D02*
X87443D01*
X86792Y53077D01*
X86293Y52578D01*
X85509Y52741D01*
X84998Y52953D01*
X84293D01*
X83642Y52683D01*
X83144Y52185D01*
X82874Y51534D01*
Y50829D01*
X83144Y50178D01*
X83642Y49679D01*
X84293Y49409D01*
X84998D01*
X85649Y49679D01*
X86148Y50178D01*
X86932Y50015D01*
X87443Y49803D01*
X88148D01*
X88799Y50073D01*
X89297Y50571D01*
X89567Y51222D01*
Y51927D01*
X89297Y52578D01*
X88799Y53077D01*
X88148Y53347D01*
D02*
G37*
G36*
X26730Y54528D02*
X26026D01*
X25374Y54258D01*
X24876Y53759D01*
X24606Y53108D01*
Y52403D01*
X24876Y51752D01*
X25374Y51254D01*
X26026Y50984D01*
X26730D01*
X27382Y51254D01*
X27880Y51752D01*
X28150Y52403D01*
Y53108D01*
X27880Y53759D01*
X27382Y54258D01*
X26730Y54528D01*
D02*
G37*
G36*
X10195Y54429D02*
X9490D01*
X8839Y54159D01*
X8341Y53661D01*
X8071Y53010D01*
Y52305D01*
X8341Y51654D01*
X8839Y51156D01*
X9490Y50886D01*
X10195D01*
X10846Y51156D01*
X11344Y51654D01*
X11614Y52305D01*
Y53010D01*
X11344Y53661D01*
X10846Y54159D01*
X10195Y54429D01*
D02*
G37*
G36*
X132791Y51876D02*
X132087D01*
X131435Y51606D01*
X130937Y51108D01*
X130667Y50457D01*
Y49752D01*
X130937Y49101D01*
X131435Y48603D01*
X132087Y48333D01*
X132791D01*
X133442Y48603D01*
X133941Y49101D01*
X134211Y49752D01*
Y50457D01*
X133941Y51108D01*
X133442Y51606D01*
X132791Y51876D01*
D02*
G37*
G36*
X110982Y57677D02*
X110277D01*
X109626Y57407D01*
X109128Y56909D01*
X108858Y56258D01*
Y55553D01*
X109128Y54902D01*
X109175Y54855D01*
X108990Y53927D01*
X108839Y53864D01*
X108341Y53366D01*
X108071Y52715D01*
Y52010D01*
X108341Y51359D01*
X108839Y50860D01*
X109490Y50591D01*
X110195D01*
X110363Y50660D01*
X110966Y50058D01*
X110925Y49959D01*
Y49254D01*
X111195Y48603D01*
X111693Y48104D01*
X112344Y47835D01*
X112671Y47067D01*
X112402Y46415D01*
Y45711D01*
X112455Y45582D01*
X112254Y44646D01*
X111755Y44148D01*
X111486Y43497D01*
Y42792D01*
X111755Y42141D01*
X112254Y41642D01*
X112905Y41372D01*
X113610D01*
X114261Y41642D01*
X114759Y42141D01*
X115029Y42792D01*
Y43497D01*
X114976Y43625D01*
X115177Y44561D01*
X115675Y45059D01*
X115945Y45711D01*
Y46415D01*
X115675Y47067D01*
X115460Y47282D01*
X115906Y47949D01*
X116183Y47835D01*
X116888D01*
X117539Y48104D01*
X118037Y48603D01*
X118307Y49254D01*
Y49959D01*
X118037Y50610D01*
X117539Y51108D01*
X116888Y51378D01*
X116183D01*
X115532Y51108D01*
X115033Y50610D01*
X114199Y50610D01*
X113700Y51108D01*
X113049Y51378D01*
X112344D01*
X112176Y51308D01*
X111573Y51911D01*
X111614Y52010D01*
Y52715D01*
X111345Y53366D01*
X111298Y53412D01*
X111483Y54341D01*
X111634Y54404D01*
X112132Y54902D01*
X112402Y55553D01*
Y56258D01*
X112132Y56909D01*
X111634Y57407D01*
X110982Y57677D01*
D02*
G37*
G36*
X11114Y45847D02*
X10410D01*
X9759Y45577D01*
X9540Y45359D01*
X9253Y45079D01*
X8396Y45050D01*
X8325Y45079D01*
X7620D01*
X6969Y44809D01*
X6471Y44311D01*
X6201Y43659D01*
Y42955D01*
X6471Y42303D01*
X6969Y41805D01*
X7620Y41535D01*
X8325D01*
X8531Y41621D01*
X8672Y41512D01*
X9055Y40986D01*
X8858Y40510D01*
Y39805D01*
X9128Y39154D01*
X9626Y38655D01*
X10278Y38386D01*
X10982D01*
X11633Y38655D01*
X12132Y39154D01*
X12402Y39805D01*
Y40510D01*
X12132Y41161D01*
X11633Y41659D01*
X11625Y41663D01*
Y42515D01*
X11766Y42574D01*
X12264Y43072D01*
X12384Y43362D01*
X12402Y43404D01*
X13189Y43248D01*
X13189Y43211D01*
Y42955D01*
X13459Y42303D01*
X13957Y41805D01*
X14608Y41535D01*
X15313D01*
X15964Y41805D01*
X16463Y42303D01*
X16732Y42955D01*
Y43659D01*
X16463Y44311D01*
X15964Y44809D01*
X15313Y45079D01*
X14608D01*
X13957Y44809D01*
X13459Y44311D01*
X13339Y44021D01*
X13321Y43979D01*
X12534Y44135D01*
X12534Y44172D01*
Y44428D01*
X12264Y45079D01*
X11766Y45577D01*
X11114Y45847D01*
D02*
G37*
G36*
X109797Y48327D02*
X109092D01*
X108441Y48057D01*
X107943Y47559D01*
X107673Y46907D01*
Y46203D01*
X107943Y45551D01*
X108441Y45053D01*
X109092Y44783D01*
X109797D01*
X110448Y45053D01*
X110947Y45551D01*
X111216Y46203D01*
Y46907D01*
X110947Y47559D01*
X110448Y48057D01*
X109797Y48327D01*
D02*
G37*
G36*
X149171Y45866D02*
X148467D01*
X147815Y45596D01*
X147317Y45098D01*
X147255Y44947D01*
X146326Y44763D01*
X146279Y44809D01*
X145628Y45079D01*
X144923D01*
X144272Y44809D01*
X143774Y44311D01*
X143504Y43659D01*
Y42955D01*
X143774Y42303D01*
X144272Y41805D01*
X144923Y41535D01*
X145628D01*
X146279Y41805D01*
X146777Y42303D01*
X146840Y42454D01*
X147769Y42639D01*
X147815Y42593D01*
X148467Y42323D01*
X149171D01*
X149822Y42593D01*
X150321Y43091D01*
X150591Y43742D01*
Y44447D01*
X150321Y45098D01*
X149822Y45596D01*
X149171Y45866D01*
D02*
G37*
G36*
X52715Y45472D02*
X52010D01*
X51359Y45203D01*
X51302Y45146D01*
X50787Y44759D01*
X50273Y45146D01*
X50216Y45203D01*
X49565Y45472D01*
X48860D01*
X48209Y45203D01*
X47711Y44704D01*
X47441Y44053D01*
Y43348D01*
X47711Y42697D01*
X48209Y42199D01*
X48860Y41929D01*
X49565D01*
X50216Y42199D01*
X50273Y42256D01*
X50787Y42642D01*
X51302Y42256D01*
X51359Y42199D01*
X52010Y41929D01*
X52715D01*
X53366Y42199D01*
X53864Y42697D01*
X54134Y43348D01*
Y44053D01*
X53864Y44704D01*
X53366Y45203D01*
X52715Y45472D01*
D02*
G37*
G36*
X60982Y48228D02*
X60277D01*
X59626Y47959D01*
X59128Y47460D01*
X58858Y46809D01*
Y46104D01*
X59128Y45453D01*
X59626Y44955D01*
X60277Y44685D01*
X60982D01*
X61633Y44955D01*
X62132Y45453D01*
X62402Y46104D01*
Y46809D01*
X62132Y47460D01*
X61633Y47959D01*
X60982Y48228D01*
D02*
G37*
G36*
X65313Y47835D02*
X64608D01*
X63957Y47565D01*
X63459Y47067D01*
X63189Y46415D01*
Y45711D01*
X63459Y45059D01*
X63957Y44561D01*
X64608Y44291D01*
X65313D01*
X65964Y44561D01*
X66463Y45059D01*
X66732Y45711D01*
Y46415D01*
X66463Y47067D01*
X65964Y47565D01*
X65313Y47835D01*
D02*
G37*
G36*
X133277Y46140D02*
X132573D01*
X131922Y45870D01*
X131423Y45371D01*
X131153Y44720D01*
Y44016D01*
X131423Y43364D01*
X131922Y42866D01*
X132573Y42596D01*
X133277D01*
X133929Y42866D01*
X134427Y43364D01*
X134697Y44016D01*
Y44720D01*
X134427Y45371D01*
X133929Y45870D01*
X133277Y46140D01*
D02*
G37*
G36*
X84998Y44291D02*
X84293D01*
X83642Y44022D01*
X83144Y43523D01*
X82874Y42872D01*
Y42167D01*
X83144Y41516D01*
X83642Y41018D01*
X84293Y40748D01*
X84998D01*
X85649Y41018D01*
X86148Y41516D01*
X86417Y42167D01*
Y42872D01*
X86148Y43523D01*
X85649Y44022D01*
X84998Y44291D01*
D02*
G37*
G36*
X162951Y40354D02*
X162246D01*
X161595Y40085D01*
X161097Y39586D01*
X160827Y38935D01*
Y38230D01*
X161097Y37579D01*
X161595Y37081D01*
X162246Y36811D01*
X162951D01*
X163602Y37081D01*
X164100Y37579D01*
X164370Y38230D01*
Y38935D01*
X164100Y39586D01*
X163602Y40085D01*
X162951Y40354D01*
D02*
G37*
G36*
X26337D02*
X25632D01*
X24981Y40085D01*
X24482Y39586D01*
X24213Y38935D01*
Y38230D01*
X24482Y37579D01*
X24981Y37081D01*
X25632Y36811D01*
X26337D01*
X26988Y37081D01*
X27486Y37579D01*
X27756Y38230D01*
Y38935D01*
X27486Y39586D01*
X26988Y40085D01*
X26337Y40354D01*
D02*
G37*
G36*
X41297Y41535D02*
X40593D01*
X39941Y41266D01*
X39443Y40767D01*
X39347Y40537D01*
X39014Y39823D01*
X38309D01*
X37658Y39553D01*
X37159Y39055D01*
X36890Y38404D01*
Y37699D01*
X37159Y37048D01*
X37658Y36549D01*
X38309Y36279D01*
X39014D01*
X39665Y36549D01*
X40163Y37048D01*
X40259Y37278D01*
X40593Y37992D01*
X41297D01*
X41948Y38262D01*
X42447Y38760D01*
X42717Y39411D01*
Y40116D01*
X42447Y40767D01*
X41948Y41266D01*
X41297Y41535D01*
D02*
G37*
G36*
X85195Y39173D02*
X84490D01*
X83839Y38903D01*
X83341Y38405D01*
X83071Y37754D01*
Y37049D01*
X83341Y36398D01*
X83839Y35900D01*
X84490Y35630D01*
X85195D01*
X85846Y35900D01*
X86344Y36398D01*
X86614Y37049D01*
Y37754D01*
X86344Y38405D01*
X85846Y38903D01*
X85195Y39173D01*
D02*
G37*
G36*
X66888Y38386D02*
X66183D01*
X65532Y38116D01*
X65034Y37618D01*
X64764Y36967D01*
Y36367D01*
X64165D01*
X63513Y36098D01*
X63015Y35599D01*
X62106Y35463D01*
X62060Y35482D01*
X61355D01*
X60704Y35212D01*
X60206Y34714D01*
X59936Y34063D01*
Y33358D01*
X60206Y32707D01*
X60704Y32209D01*
X61355Y31939D01*
X62060D01*
X62711Y32209D01*
X63209Y32707D01*
X64118Y32844D01*
X64165Y32824D01*
X64869D01*
X65521Y33094D01*
X66019Y33592D01*
X66289Y34244D01*
Y34843D01*
X66888D01*
X67539Y35112D01*
X68037Y35611D01*
X68307Y36262D01*
Y36967D01*
X68037Y37618D01*
X67539Y38116D01*
X66888Y38386D01*
D02*
G37*
G36*
X125039Y40748D02*
X124334D01*
X123683Y40478D01*
X123185Y39980D01*
X122915Y39329D01*
Y38624D01*
X123185Y37973D01*
X123683Y37475D01*
X124282Y37226D01*
X124035Y36630D01*
Y35925D01*
X124305Y35274D01*
X124803Y34776D01*
X125455Y34506D01*
X126159D01*
X126811Y34776D01*
X127309Y35274D01*
X127579Y35925D01*
Y36630D01*
X127309Y37281D01*
X126811Y37779D01*
X126211Y38028D01*
X126458Y38624D01*
Y39329D01*
X126189Y39980D01*
X125690Y40478D01*
X125039Y40748D01*
D02*
G37*
G36*
X116702Y41003D02*
X115997D01*
X115346Y40733D01*
X114847Y40235D01*
X114578Y39584D01*
Y38879D01*
X114847Y38228D01*
X115125Y37950D01*
X115325Y37644D01*
X115158Y36955D01*
X115033Y36830D01*
X114764Y36179D01*
Y35474D01*
X115033Y34823D01*
X115532Y34325D01*
X116183Y34055D01*
X116888D01*
X117539Y34325D01*
X118037Y34823D01*
X118307Y35474D01*
Y36179D01*
X118037Y36830D01*
X117760Y37108D01*
X117560Y37414D01*
X117727Y38103D01*
X117851Y38228D01*
X118121Y38879D01*
Y39584D01*
X117851Y40235D01*
X117353Y40733D01*
X116702Y41003D01*
D02*
G37*
G36*
X137837Y39553D02*
X137133D01*
X136481Y39284D01*
X135983Y38785D01*
X135713Y38134D01*
Y37429D01*
X135983Y36778D01*
X136481Y36280D01*
X137072Y36035D01*
X137133Y36010D01*
X137240Y35964D01*
X137263Y35128D01*
X137199Y35100D01*
X136877Y34966D01*
X136379Y34468D01*
X136109Y33817D01*
Y33112D01*
X136379Y32461D01*
X136877Y31963D01*
X137528Y31693D01*
X138233D01*
X138884Y31963D01*
X139382Y32461D01*
X139652Y33112D01*
Y33817D01*
X139382Y34468D01*
X138884Y34966D01*
X138293Y35211D01*
X138233Y35236D01*
X138126Y35283D01*
X138103Y36118D01*
X138166Y36146D01*
X138488Y36280D01*
X138987Y36778D01*
X139257Y37429D01*
Y38134D01*
X138987Y38785D01*
X138488Y39284D01*
X137837Y39553D01*
D02*
G37*
G36*
X13344Y34006D02*
X12640D01*
X11989Y33736D01*
X11490Y33238D01*
X11220Y32587D01*
Y31882D01*
X11490Y31231D01*
X11989Y30732D01*
X12640Y30463D01*
X13344D01*
X13996Y30732D01*
X14494Y31231D01*
X14764Y31882D01*
Y32587D01*
X14494Y33238D01*
X13996Y33736D01*
X13344Y34006D01*
D02*
G37*
G36*
X120617Y31196D02*
X119913D01*
X119262Y30926D01*
X118763Y30427D01*
X118689Y30248D01*
X118384Y30168D01*
X117802Y30164D01*
X117422Y30545D01*
X116771Y30814D01*
X116066D01*
X115415Y30545D01*
X114916Y30046D01*
X114646Y29395D01*
Y28690D01*
X114916Y28039D01*
X115415Y27541D01*
X116066Y27271D01*
X116771D01*
X117422Y27541D01*
X117920Y28039D01*
X117994Y28218D01*
X118299Y28299D01*
X118881Y28302D01*
X119262Y27922D01*
X119913Y27652D01*
X120617D01*
X121269Y27922D01*
X121767Y28420D01*
X122037Y29071D01*
Y29776D01*
X121767Y30427D01*
X121269Y30926D01*
X120617Y31196D01*
D02*
G37*
G36*
X109801Y36516D02*
X109096D01*
X108445Y36246D01*
X107947Y35748D01*
X107677Y35096D01*
Y34392D01*
X107947Y33740D01*
X108370Y33317D01*
X107947Y32893D01*
X107677Y32242D01*
Y31537D01*
X107947Y30886D01*
X108445Y30388D01*
X109096Y30118D01*
X109801D01*
X110452Y30388D01*
X110951Y30886D01*
X111221Y31537D01*
Y32242D01*
X110951Y32893D01*
X110527Y33317D01*
X110951Y33740D01*
X111221Y34392D01*
Y35096D01*
X110951Y35748D01*
X110452Y36246D01*
X109801Y36516D01*
D02*
G37*
G36*
X126739Y33071D02*
X126034D01*
X125383Y32801D01*
X124884Y32303D01*
X124615Y31652D01*
Y30947D01*
X124884Y30296D01*
X125383Y29797D01*
X126034Y29528D01*
X126739D01*
X127390Y29797D01*
X127888Y30296D01*
X128158Y30947D01*
Y31652D01*
X127888Y32303D01*
X127390Y32801D01*
X126739Y33071D01*
D02*
G37*
G36*
X154947Y30512D02*
X154243D01*
X153591Y30242D01*
X153093Y29744D01*
X152823Y29093D01*
Y28388D01*
X153093Y27737D01*
X153591Y27238D01*
X154243Y26969D01*
X154947D01*
X155598Y27238D01*
X156097Y27737D01*
X156367Y28388D01*
Y29093D01*
X156097Y29744D01*
X155598Y30242D01*
X154947Y30512D01*
D02*
G37*
G36*
X144447Y31299D02*
X143742D01*
X143091Y31029D01*
X142593Y30531D01*
X142323Y29880D01*
Y29175D01*
X142593Y28524D01*
X143091Y28026D01*
X143742Y27756D01*
X144447D01*
X144834Y27064D01*
X144916Y26866D01*
X145415Y26368D01*
X146066Y26098D01*
X146771D01*
X147422Y26368D01*
X147920Y26866D01*
X148190Y27518D01*
Y28222D01*
X147920Y28874D01*
X147422Y29372D01*
X146771Y29642D01*
X146066D01*
X145678Y30333D01*
X145596Y30531D01*
X145098Y31029D01*
X144447Y31299D01*
D02*
G37*
G36*
X102321Y32087D02*
X101616D01*
X100965Y31817D01*
X100467Y31319D01*
X100197Y30667D01*
Y29963D01*
X100467Y29311D01*
X100848Y28930D01*
X100383Y28465D01*
X100113Y27814D01*
Y27109D01*
X100383Y26458D01*
X100881Y25960D01*
X101532Y25690D01*
X102237D01*
X102888Y25960D01*
X103387Y26458D01*
X103656Y27109D01*
Y27814D01*
X103387Y28465D01*
X103006Y28846D01*
X103470Y29311D01*
X103740Y29963D01*
Y30667D01*
X103470Y31319D01*
X102972Y31817D01*
X102321Y32087D01*
D02*
G37*
G36*
X124368Y28543D02*
X123663D01*
X123012Y28274D01*
X122514Y27775D01*
X122244Y27124D01*
Y26419D01*
X122514Y25768D01*
X123012Y25270D01*
X123663Y25000D01*
X124368D01*
X125019Y25270D01*
X125518Y25768D01*
X125787Y26419D01*
Y27124D01*
X125518Y27775D01*
X125019Y28274D01*
X124368Y28543D01*
D02*
G37*
G36*
X11376Y28150D02*
X10671D01*
X10020Y27880D01*
X9522Y27382D01*
X9252Y26730D01*
Y26026D01*
X9522Y25374D01*
X10020Y24876D01*
X10671Y24606D01*
X11376D01*
X12027Y24876D01*
X12526Y25374D01*
X12795Y26026D01*
Y26730D01*
X12526Y27382D01*
X12027Y27880D01*
X11376Y28150D01*
D02*
G37*
G36*
X45234Y29724D02*
X44530D01*
X43878Y29455D01*
X43380Y28956D01*
X43110Y28305D01*
Y27600D01*
X42394Y27272D01*
X41959Y27092D01*
X41461Y26594D01*
X41191Y25943D01*
Y25238D01*
X41461Y24587D01*
X41959Y24089D01*
X42610Y23819D01*
X43315D01*
X43966Y24089D01*
X44464Y24587D01*
X44734Y25238D01*
Y25943D01*
X45451Y26271D01*
X45885Y26451D01*
X46384Y26949D01*
X46654Y27600D01*
Y28305D01*
X46384Y28956D01*
X45885Y29455D01*
X45234Y29724D01*
D02*
G37*
G36*
X109014Y25787D02*
X108309D01*
X107658Y25518D01*
X107159Y25019D01*
X106890Y24368D01*
Y23663D01*
X107159Y23012D01*
X107658Y22514D01*
X108309Y22244D01*
X109014D01*
X109665Y22514D01*
X110163Y23012D01*
X110433Y23663D01*
Y24368D01*
X110163Y25019D01*
X109665Y25518D01*
X109014Y25787D01*
D02*
G37*
G36*
X90510D02*
X89805D01*
X89154Y25518D01*
X88656Y25019D01*
X88386Y24368D01*
Y23663D01*
X88656Y23012D01*
X89154Y22514D01*
X89805Y22244D01*
X90510D01*
X91161Y22514D01*
X91659Y23012D01*
X91929Y23663D01*
Y24368D01*
X91659Y25019D01*
X91161Y25518D01*
X90510Y25787D01*
D02*
G37*
G36*
X69644Y25394D02*
X68939D01*
X68288Y25124D01*
X67789Y24626D01*
X67520Y23974D01*
Y23270D01*
X67789Y22618D01*
X68288Y22120D01*
X68939Y21850D01*
X69644D01*
X70295Y22120D01*
X70793Y22618D01*
X71063Y23270D01*
Y23974D01*
X70793Y24626D01*
X70295Y25124D01*
X69644Y25394D01*
D02*
G37*
G36*
X156998Y23990D02*
X156293D01*
X155642Y23720D01*
X155144Y23222D01*
X154874Y22571D01*
Y21866D01*
X155144Y21215D01*
X155642Y20717D01*
X156293Y20447D01*
X156998D01*
X157649Y20717D01*
X158148Y21215D01*
X158417Y21866D01*
Y22571D01*
X158148Y23222D01*
X157649Y23720D01*
X156998Y23990D01*
D02*
G37*
G36*
X136179Y23031D02*
X135474D01*
X134823Y22762D01*
X134325Y22263D01*
X134055Y21612D01*
Y20907D01*
X134325Y20256D01*
X134823Y19758D01*
X135474Y19488D01*
X136179D01*
X136243Y19514D01*
X136884Y19664D01*
X137193Y19121D01*
X137230Y19031D01*
X137729Y18533D01*
X138380Y18263D01*
X139085D01*
X139736Y18533D01*
X140234Y19031D01*
X140504Y19682D01*
Y20387D01*
X140234Y21038D01*
X139736Y21537D01*
X139085Y21806D01*
X138380D01*
X138316Y21780D01*
X137675Y21630D01*
X137366Y22174D01*
X137329Y22263D01*
X136830Y22762D01*
X136179Y23031D01*
D02*
G37*
G36*
X127518Y18701D02*
X126813D01*
X126162Y18431D01*
X125663Y17933D01*
X124879Y18096D01*
X124368Y18307D01*
X123663D01*
X123012Y18037D01*
X122514Y17539D01*
X121870Y17250D01*
X121645Y17343D01*
X121219Y17520D01*
X120514D01*
X119863Y17250D01*
X119364Y16752D01*
X119095Y16100D01*
Y15396D01*
X119364Y14744D01*
X119863Y14246D01*
X120514Y13976D01*
X121219D01*
X121870Y14246D01*
X122368Y14744D01*
X123012Y15033D01*
X123237Y14941D01*
X123663Y14764D01*
X124368D01*
X125019Y15033D01*
X125518Y15532D01*
X126303Y15369D01*
X126624Y15236D01*
X126468Y14448D01*
X126387D01*
X125736Y14178D01*
X125238Y13680D01*
X124968Y13029D01*
Y12324D01*
X125238Y11673D01*
X125736Y11175D01*
X126387Y10905D01*
X127092D01*
X127198Y10949D01*
X128012Y10808D01*
X128186Y10571D01*
X128439Y10131D01*
X128986Y9585D01*
X129655Y9199D01*
X130401Y8999D01*
X131174D01*
X131920Y9199D01*
X132589Y9585D01*
X133135Y10131D01*
X133522Y10801D01*
X133722Y11547D01*
Y12319D01*
X133522Y13066D01*
X133135Y13735D01*
X132667Y14203D01*
X132613Y15032D01*
X132883Y15683D01*
Y16388D01*
X132613Y17039D01*
X132115Y17538D01*
X131464Y17807D01*
X130759D01*
X130108Y17538D01*
X129724Y17154D01*
X129158Y17246D01*
X128903Y17362D01*
X128667Y17933D01*
X128169Y18431D01*
X127518Y18701D01*
D02*
G37*
G36*
X151533Y21457D02*
X150829D01*
X150178Y21187D01*
X149679Y20689D01*
X149409Y20037D01*
Y19333D01*
X149679Y18681D01*
X150178Y18183D01*
X150829Y17913D01*
X151533D01*
X152185Y18183D01*
X152683Y18681D01*
X152953Y19333D01*
Y20037D01*
X152683Y20689D01*
X152185Y21187D01*
X151533Y21457D01*
D02*
G37*
G36*
X19280Y19863D02*
X18575D01*
X17924Y19594D01*
X17426Y19095D01*
X17156Y18444D01*
Y17739D01*
X17426Y17088D01*
X17924Y16590D01*
X18575Y16320D01*
X19280D01*
X19931Y16590D01*
X20430Y17088D01*
X20699Y17739D01*
Y18444D01*
X20430Y19095D01*
X19931Y19594D01*
X19280Y19863D01*
D02*
G37*
G36*
X112251Y22441D02*
X111546D01*
X110895Y22171D01*
X110397Y21673D01*
X110127Y21022D01*
Y20317D01*
X110397Y19666D01*
X110148Y19417D01*
X110147Y19417D01*
X109648Y18918D01*
X109379Y18267D01*
Y17562D01*
X109648Y16911D01*
X110147Y16413D01*
X110798Y16143D01*
X111503D01*
X112154Y16413D01*
X112652Y16911D01*
X112922Y17562D01*
Y18267D01*
X112652Y18918D01*
X112901Y19167D01*
X112902Y19167D01*
X113401Y19666D01*
X113670Y20317D01*
Y21022D01*
X113401Y21673D01*
X112902Y22171D01*
X112251Y22441D01*
D02*
G37*
G36*
X30274Y21063D02*
X29569D01*
X28918Y20793D01*
X28419Y20295D01*
X28150Y19644D01*
Y18939D01*
X28419Y18288D01*
X28918Y17789D01*
X29569Y17520D01*
X30274D01*
X30418Y17579D01*
X30593Y17463D01*
X30862Y16811D01*
X31361Y16313D01*
X32012Y16043D01*
X32717D01*
X33368Y16313D01*
X33866Y16811D01*
X34136Y17463D01*
Y18167D01*
X33866Y18819D01*
X33368Y19317D01*
X32717Y19587D01*
X32012D01*
X31868Y19527D01*
X31693Y19644D01*
X31423Y20295D01*
X30925Y20793D01*
X30274Y21063D01*
D02*
G37*
G36*
X49289Y20620D02*
X48584D01*
X47933Y20350D01*
X47435Y19852D01*
X47165Y19201D01*
Y18496D01*
X47435Y17845D01*
X47933Y17346D01*
X48584Y17077D01*
X49289D01*
X49829Y17300D01*
X49938Y17270D01*
X50236Y17108D01*
X50556Y16849D01*
Y16391D01*
X50826Y15740D01*
X51324Y15242D01*
X51976Y14972D01*
X52680D01*
X53331Y15242D01*
X53830Y15740D01*
X54100Y16391D01*
Y17096D01*
X53830Y17747D01*
X53331Y18246D01*
X52680Y18515D01*
X51976D01*
X51436Y18292D01*
X51327Y18322D01*
X51029Y18484D01*
X50708Y18743D01*
Y19201D01*
X50439Y19852D01*
X49940Y20350D01*
X49289Y20620D01*
D02*
G37*
G36*
X100352Y16732D02*
X99648D01*
X98996Y16463D01*
X98498Y15964D01*
X98228Y15313D01*
Y14608D01*
X98498Y13957D01*
X98996Y13459D01*
X99648Y13189D01*
X100352D01*
X101004Y13459D01*
X101502Y13957D01*
X101772Y14608D01*
Y15313D01*
X101502Y15964D01*
X101004Y16463D01*
X100352Y16732D01*
D02*
G37*
G36*
X144841Y16339D02*
X144136D01*
X143485Y16069D01*
X142986Y15571D01*
X142717Y14919D01*
Y14214D01*
X142986Y13563D01*
X143485Y13065D01*
X144136Y12795D01*
X144841D01*
X145492Y13065D01*
X145990Y13563D01*
X146260Y14214D01*
Y14919D01*
X145990Y15571D01*
X145492Y16069D01*
X144841Y16339D01*
D02*
G37*
G36*
X78308Y17982D02*
X77603D01*
X76952Y17712D01*
X76454Y17214D01*
X76184Y16563D01*
Y15858D01*
X76454Y15207D01*
X76952Y14708D01*
X77603Y14439D01*
X78308D01*
X78731Y13762D01*
X78813Y13563D01*
X79311Y13065D01*
X79963Y12795D01*
X80667D01*
X81318Y13065D01*
X81817Y13563D01*
X82087Y14214D01*
Y14919D01*
X81817Y15571D01*
X81318Y16069D01*
X80667Y16339D01*
X79963D01*
X79727Y16496D01*
Y16563D01*
X79458Y17214D01*
X78959Y17712D01*
X78308Y17982D01*
D02*
G37*
G36*
X119170Y13303D02*
X118465D01*
X117814Y13033D01*
X117316Y12535D01*
X117046Y11883D01*
Y11179D01*
X117316Y10527D01*
X117814Y10029D01*
X118465Y9759D01*
X119170D01*
X119821Y10029D01*
X120320Y10527D01*
X120589Y11179D01*
Y11883D01*
X120320Y12535D01*
X119821Y13033D01*
X119170Y13303D01*
D02*
G37*
G36*
X22235Y13108D02*
X21531D01*
X20879Y12838D01*
X20381Y12340D01*
X20111Y11689D01*
Y10984D01*
X20381Y10333D01*
X20879Y9834D01*
X21531Y9565D01*
X22235D01*
X22886Y9834D01*
X23385Y10333D01*
X23654Y10984D01*
Y11689D01*
X23385Y12340D01*
X22886Y12838D01*
X22235Y13108D01*
D02*
G37*
G36*
X89723Y12894D02*
X89018D01*
X88367Y12624D01*
X87869Y12126D01*
X87599Y11474D01*
Y10770D01*
X87869Y10119D01*
X88367Y9620D01*
X89018Y9350D01*
X89723D01*
X90374Y9620D01*
X90748Y9994D01*
X91220Y9522D01*
X91871Y9252D01*
X92576D01*
X93227Y9522D01*
X93725Y10020D01*
X93995Y10671D01*
Y11376D01*
X93725Y12027D01*
X93227Y12526D01*
X92576Y12795D01*
X91871D01*
X91220Y12526D01*
X90846Y12152D01*
X90374Y12624D01*
X89723Y12894D01*
D02*
G37*
G36*
X36967Y13976D02*
X36262D01*
X35611Y13707D01*
X35112Y13208D01*
X34211Y12795D01*
X33506D01*
X32855Y12526D01*
X32356Y12027D01*
X32087Y11376D01*
Y10671D01*
X32356Y10020D01*
X32855Y9522D01*
X33506Y9252D01*
X34211D01*
X34862Y9522D01*
X35360Y10020D01*
X36262Y10433D01*
X36967D01*
X37618Y10703D01*
X38116Y11201D01*
X38386Y11852D01*
Y12557D01*
X38116Y13208D01*
X37618Y13707D01*
X36967Y13976D01*
D02*
G37*
G36*
X61476Y12779D02*
X60772D01*
X60120Y12509D01*
X59622Y12011D01*
X59352Y11360D01*
Y10655D01*
X59622Y10003D01*
X60120Y9505D01*
X60772Y9235D01*
X61476D01*
X62128Y9505D01*
X62626Y10003D01*
X62896Y10655D01*
Y11360D01*
X62626Y12011D01*
X62128Y12509D01*
X61476Y12779D01*
D02*
G37*
G36*
X53222Y12121D02*
X52517D01*
X51866Y11852D01*
X51367Y11353D01*
X51098Y10702D01*
Y9997D01*
X51367Y9346D01*
X51866Y8848D01*
X52517Y8578D01*
X53222D01*
X53873Y8848D01*
X54371Y9346D01*
X54641Y9997D01*
Y10702D01*
X54371Y11353D01*
X53873Y11852D01*
X53222Y12121D01*
D02*
G37*
G36*
X104842Y11830D02*
X104138D01*
X103487Y11561D01*
X102988Y11062D01*
X102718Y10411D01*
Y9706D01*
X102988Y9055D01*
X103487Y8557D01*
X104138Y8287D01*
X104842D01*
X105494Y8557D01*
X105992Y9055D01*
X106262Y9706D01*
Y10411D01*
X105992Y11062D01*
X105494Y11561D01*
X104842Y11830D01*
D02*
G37*
G36*
X76748Y11623D02*
X76043D01*
X75392Y11353D01*
X74894Y10855D01*
X74624Y10204D01*
Y9499D01*
X74894Y8848D01*
X75392Y8349D01*
X76043Y8080D01*
X76748D01*
X77399Y8349D01*
X77898Y8848D01*
X78167Y9499D01*
Y10204D01*
X77898Y10855D01*
X77399Y11353D01*
X76748Y11623D01*
D02*
G37*
G36*
X111174Y10867D02*
X110401D01*
X109655Y10667D01*
X108986Y10281D01*
X108439Y9735D01*
X108053Y9066D01*
X107853Y8319D01*
Y7547D01*
X108053Y6801D01*
X108439Y6132D01*
X108986Y5585D01*
X109655Y5199D01*
X110401Y4999D01*
X110887D01*
X111174Y4999D01*
X111614Y4372D01*
X111884Y3721D01*
X112382Y3223D01*
X113033Y2953D01*
X113738D01*
X114389Y3223D01*
X114888Y3721D01*
X115157Y4372D01*
Y5077D01*
X114888Y5728D01*
X114389Y6226D01*
X114155Y6323D01*
X113721Y6650D01*
X113651Y7283D01*
X113722Y7547D01*
Y8319D01*
X113522Y9066D01*
X113135Y9735D01*
X112589Y10281D01*
X111920Y10667D01*
X111174Y10867D01*
D02*
G37*
G36*
X137754Y9252D02*
X137049D01*
X136398Y8982D01*
X135900Y8484D01*
X135630Y7833D01*
Y7128D01*
X135900Y6477D01*
X136177Y6200D01*
X136320Y5709D01*
X136177Y5218D01*
X135900Y4941D01*
X135630Y4289D01*
Y3585D01*
X135900Y2933D01*
X136398Y2435D01*
X137049Y2165D01*
X137754D01*
X138405Y2435D01*
X138903Y2933D01*
X139173Y3585D01*
Y4289D01*
X138903Y4941D01*
X138626Y5218D01*
X138484Y5709D01*
X138626Y6200D01*
X138903Y6477D01*
X139173Y7128D01*
Y7833D01*
X138903Y8484D01*
X138405Y8982D01*
X137754Y9252D01*
D02*
G37*
G36*
X131174Y6867D02*
X130401D01*
X129655Y6667D01*
X128986Y6281D01*
X128439Y5735D01*
X128053Y5066D01*
X127853Y4319D01*
Y3547D01*
X128053Y2801D01*
X128439Y2131D01*
X128986Y1585D01*
X129655Y1199D01*
X130401Y999D01*
X131174D01*
X131920Y1199D01*
X132589Y1585D01*
X133135Y2131D01*
X133522Y2801D01*
X133722Y3547D01*
Y4319D01*
X133522Y5066D01*
X133135Y5735D01*
X132589Y6281D01*
X131920Y6667D01*
X131174Y6867D01*
D02*
G37*
%LPD*%
D68*
X159055Y157480D02*
D03*
D69*
X394Y6299D02*
D03*
D70*
Y133268D02*
D03*
D71*
X81299Y394D02*
D03*
D72*
X121653D02*
D03*
D73*
X153543D02*
D03*
D74*
X166142Y24213D02*
D03*
D75*
Y56496D02*
D03*
D76*
Y125000D02*
D03*
D77*
X394Y153937D02*
D03*
D82*
X145792Y49854D02*
D03*
X143379Y38462D02*
D03*
X138189Y16535D02*
D03*
X159017Y156381D02*
D03*
X154724Y18898D02*
D03*
X134645Y2362D02*
D03*
X113386Y87401D02*
D03*
X85039Y68504D02*
D03*
X82677Y54331D02*
D03*
X73228Y68504D02*
D03*
X74409Y23622D02*
D03*
X70866Y35433D02*
D03*
X68504Y63779D02*
D03*
X69685Y28346D02*
D03*
X63779Y129921D02*
D03*
X62598Y66142D02*
D03*
X61417Y25984D02*
D03*
X55512Y28346D02*
D03*
X53149Y66142D02*
D03*
X47244Y63779D02*
D03*
X48425Y28346D02*
D03*
X40157Y44882D02*
D03*
X34252Y47244D02*
D03*
X28346Y49606D02*
D03*
X20079Y132283D02*
D03*
X79564Y2496D02*
D03*
X109941Y28248D02*
D03*
X47771Y47867D02*
D03*
X101283Y19956D02*
D03*
X70611Y10181D02*
D03*
X56545Y129725D02*
D03*
X100590Y41457D02*
D03*
X90773Y21075D02*
D03*
X86516Y11122D02*
D03*
X125197Y61417D02*
D03*
X10630Y68898D02*
D03*
X88890Y2432D02*
D03*
X126772Y1969D02*
D03*
X144882D02*
D03*
X155905D02*
D03*
X164961Y54331D02*
D03*
X164567Y96457D02*
D03*
X165200Y117923D02*
D03*
X1575Y153543D02*
D03*
X2362Y5906D02*
D03*
X14668Y17323D02*
D03*
X149140Y86967D02*
D03*
X96812Y86355D02*
D03*
X53649Y86363D02*
D03*
X123447Y3543D02*
D03*
X33968Y98028D02*
D03*
X16535Y91732D02*
D03*
X80315Y34646D02*
D03*
X125098Y78347D02*
D03*
X109843Y42520D02*
D03*
X141634Y71260D02*
D03*
X90551Y72835D02*
D03*
X99705Y72385D02*
D03*
X109500Y60433D02*
D03*
X91339Y36614D02*
D03*
X92913Y41732D02*
D03*
X25984Y42913D02*
D03*
X25889Y64188D02*
D03*
X79921Y62992D02*
D03*
X33858Y29921D02*
D03*
X26163Y16160D02*
D03*
X10630Y16929D02*
D03*
X9461Y119751D02*
D03*
X6299Y128347D02*
D03*
X14311Y109843D02*
D03*
X18898Y88583D02*
D03*
X50037Y10701D02*
D03*
X114567Y76181D02*
D03*
X71260Y86221D02*
D03*
X114371Y27032D02*
D03*
X114385Y19267D02*
D03*
X126378Y19685D02*
D03*
X164567Y14567D02*
D03*
Y19291D02*
D03*
Y24016D02*
D03*
X155512Y32677D02*
D03*
X135433Y14075D02*
D03*
X159843Y58661D02*
D03*
X158640Y38456D02*
D03*
X152756Y44132D02*
D03*
X120426Y92225D02*
D03*
X125136Y89168D02*
D03*
X125098Y71260D02*
D03*
X141634Y64173D02*
D03*
Y78347D02*
D03*
X141634Y85433D02*
D03*
X149696Y63917D02*
D03*
X133585Y85647D02*
D03*
X133858Y62598D02*
D03*
X3150Y141339D02*
D03*
X10630Y154725D02*
D03*
X20079D02*
D03*
X15354D02*
D03*
X5906Y154725D02*
D03*
X37648Y129725D02*
D03*
X75443D02*
D03*
X94340D02*
D03*
X113238D02*
D03*
X132136D02*
D03*
X151033D02*
D03*
M02*
