M48
;Layer_Color=9474304
;FILE_FORMAT=2:4
INCH,TZ
;TYPE=PLATED
T1F00S00C0.0118
T2F00S00C0.0315
T3F00S00C0.0394
;TYPE=NON_PLATED
T4F00S00C0.0390
%
T01
X276Y118
X199Y517
X118Y1102
Y1496
X876Y1756
X1535Y1772
X1850Y1772
X2480Y1614
X2795
X3361Y1802
X3787
X4370Y1614
X4685
X5254Y1784
X5539Y1793
X6260Y1614
X6575
X7122Y1818
X7564Y1802
X8150Y1614
X8465
X9055Y1720
X9482Y1818
X10039Y1614
X10354
X10984Y1772
X11299
X11929Y1614
X12244
X12874Y1772
X13189
X13819Y1614
X14055Y1850
X14331Y2717
X14646Y2559
X14843Y2323
X15197
X15285Y3248
X14783Y3268
X14846Y3546
X14744Y4390
X15118Y4528
X15222Y4803
X15325Y4291
X15046Y5617
X15038Y6114
X14724Y6142
X15000Y6614
X14764Y6929
X14646Y7323
X14051Y7399
X13661Y7441
X13327Y7452
X13583Y7165
X13835Y7005
X13986Y7897
X14134Y8268
X14153Y8663
X13898Y8504
X13307Y8425
X13114Y7995
X13061Y8957
X12522Y9020
X12244Y8543
X11850
X12047Y7913
X12126Y7194
X12441Y7205
X12717Y6378
X12963Y6233
X13257Y5985
X12894Y5512
X12500Y5512
X11850Y5197
X11535Y5200
X11220Y5197
X10591Y5333
X10324Y5522
X10433Y6063
X10630Y6299
X10796Y5894
X9803Y6063
X9882Y6339
X9016Y6378
X8937Y6024
Y5197
X9252Y5200
X9567Y5236
X9843Y4803
Y4488
X9852Y4203
X10079Y3661
X10669
X11043Y3898
X11043Y4528
X10610Y4390
X12067Y4252
X12062Y4542
X12894Y4390
X13327Y4528
X13327Y3898
X12953Y3661
X12362
X11791Y2913
X11284Y2815
X10999
X10276Y2795
X9395Y2815
X9109
X8836Y2899
X8760Y3898
X8386Y3661
X7835
X7500Y4252
X7495Y4542
X7304Y5212
X6969Y5200
X6693Y5827
X7165Y6077
Y6362
X8061Y6299
X8346
X8228Y5512
X7933Y5512
X8327Y4390
X8760Y4528
X6476Y4528
X6043Y4390
X6142Y3661
X6476Y3898
X6714Y2931
X7219Y2815
X7505
X5972Y3171
X5615Y2815
X5330
X5315Y3465
X5265Y4166
X5246Y4843
X5259Y5138
X5246Y5497
X5236Y5984
X5246Y6270
X4896Y6545
X4611Y6565
X4449Y6063
X4587Y5630
X4055Y5630
X3596Y5893
X3434Y6134
X3018Y6268
X2776Y6063
X2414Y6308
X2595Y6542
X2490Y7244
X2490Y7953
Y8661
Y9370
X1684Y9396
X669Y9921
X157Y10354
X118Y10748
Y11063
X394Y11929
X790Y11942
X1102Y12520
X1194Y12913
X989Y13566
X1181Y13898
X1535Y13819
X2205Y14331
X2835Y14134
X2780Y13784
X3071Y13661
X3110Y14380
X3542Y14184
X3937Y14094
X4252Y14134
X4567Y14213
X4772Y14634
X3980Y14520
X4016Y13819
X4252Y13110
X4627Y12845
X5012Y12883
X5216Y13084
X5659Y12963
X5709Y12598
Y12313
X5000Y12205
X5019Y11864
X5328Y11473
X5236Y11181
X5384Y10827
X5000Y10827
X5079Y10157
X5591Y10197
X5669Y10551
X5709Y11132
X5669Y11535
X6595Y11642
X7362Y11614
X7520Y12126
X8169Y12047
X8189Y11535
Y10669
X7874Y10630
X7595Y10132
X6772Y10118
X6893Y9860
X6610Y9751
X6535Y9331
X6683Y8549
X6772Y8150
X5787Y8268
Y8661
X5512Y8110
X5197Y8169
X4787Y8233
X4144Y7953
X4144Y8661
X4122Y9075
X4134Y9646
X3268Y9528
X3307Y8780
Y8228
Y7943
X3261Y7559
X3295Y7223
X3228Y6740
X3740Y6555
X4140Y6871
X5315Y7047
X5512Y7362
X5787Y6811
X6161Y7183
X6972Y7152
X7795Y7126
X7598Y7402
X8071
X8720Y7426
X8711Y7141
X9134Y7421
X9528Y7165
X9872Y7817
X10591Y8268
X10394Y9173
X9803Y9409
X9331Y8937
X8150
X7598Y8504
X8268Y8031
X8696Y8193
X8976Y8110
X8661Y9488
X8386Y10354
X7126Y9695
X6523Y10435
X5704Y9744
X3465Y10118
X3219Y10320
X3410Y10777
X3361Y11351
X2905Y12009
X2865Y12441
X2244Y12835
X2012Y13000
X2316Y11941
X2126Y11457
X1772Y11378
X1378Y11374
X2074Y10802
X4185Y11890
X4073Y12160
X4015Y12657
X5215Y13861
X5464Y13720
X5539Y13996
X5787Y13386
X6465Y13041
X6457Y12756
X6525Y13792
X6654Y14291
X6205Y14782
X7431Y14685
X7716Y14675
X8002
X8090Y15499
X8378Y15541
X8697Y15538
X9011Y15532
X9014Y14802
X9592Y14769
X10541Y14687
X11367Y14752
X11650Y14717
X11421Y14113
X11760Y13903
X11811Y12953
X12165Y12992
X12357Y13228
X13268Y12795
X12787Y11982
X12559Y11811
X12638Y11299
X13228Y11063
X13819Y10827
X14016Y10512
X14134Y9646
X14065Y9369
X15591Y8898
X15577Y11380
X15591Y11772
X15157Y11457
X14055Y11496
Y11929
X15354Y12564
X15551Y13150
X15591Y14094
X15187Y14055
X14761Y13978
X14037Y14171
X13661Y13858
X13417Y14006
X13268Y14685
X12992Y14567
X14465Y14654
X14951Y15268
X11102Y12953
X10512Y13189
X10483Y12416
X10202Y12328
X10000Y12126
X9567Y12244
X9685Y12953
X9724Y13425
X9213Y13425
X8858Y14166
X8622Y14331
X7576Y13680
X7638Y13386
X8622Y12323
X10157Y11181
X10591Y11142
X10551Y10090
X10157
X10773Y9909
X10993Y10090
X11171Y9867
X11339Y9173
X11929Y9409
X11850Y10079
X12165
X11876Y11001
X11732Y11417
X11417
X11289Y7151
X11772Y6339
X12087Y6260
X13504Y5197
X13819Y5200
X14134Y5197
X14420Y5142
X13780Y2874
X13174Y2815
X12889
X12795Y315
X12559Y118
X12323Y315
X12087Y118
X11850Y315
X11614Y118
X11378Y315
X11142Y118
X10906Y315
X10669Y118
X10433Y315
X10197Y118
X9961Y315
X9724Y118
X9488Y315
X9252Y118
X9016Y315
X8780Y118
X8543Y315
X8307Y118
X8071Y315
X7835Y118
X7598Y315
X7362Y118
X7126Y315
X6890Y118
X6654Y315
X6417Y118
X6181Y315
X5945Y118
X5709Y315
X5472Y118
X5236Y315
X5000Y118
X4764Y315
X4528Y118
X4291Y315
X4055Y118
X3819Y315
X3583Y118
X3346Y315
X3110Y118
X2874Y315
X2638Y118
X2402Y315
X2165Y118
X1929Y315
X1693Y118
X1457Y315
X1220Y118
X984Y315
X752Y149
X709Y709
X472Y2195
X709Y2677
X1283Y2917
X1550Y2815
X1836
X2598Y2884
X3071
X3440Y2815
X3725
X4134Y2874
X4488Y2835
X4075Y3465
X4134Y3898
X4449Y4213
X4311Y4606
X4941
X4815Y3773
X3071Y3898
X2835Y3465
X1594Y3465
X1457Y3888
X1925Y3859
X1654Y4213
X1497Y4638
X1999Y4631
X2480Y4488
X2451Y4843
X2464Y5138
X2451Y5423
X1791Y5630
X1614Y5866
X1299Y5669
X1370Y6416
X592Y6304
X773Y6045
X197Y6142
X118Y6772
Y7165
Y7559
Y7953
Y8346
Y8740
Y9134
Y9528
X197Y13386
Y13858
Y14331
X827Y14961
X1063Y15591
X2165
X2913Y15394
Y15039
X3189Y15551
X3976Y15591
X4309Y15433
X5315Y15315
X6969Y15431
X7765Y15544
X5945Y5839
X6043Y5512
X3583Y5354
X3652Y4778
X3611Y4495
X856Y4843
X531Y4173
X134Y3995
X354Y3465
X246Y5394
X1740Y7091
X2055Y6860
X13032Y118
X13268Y315
X13504Y118
X13740Y315
X13976Y118
X14409
X14646Y315
X14882Y118
X15118Y315
X15354Y118
X15591Y315
X15287Y1022
X14814
X15729Y1015
X16191Y1014
X16535Y984
X16535Y1299
X16339Y1654
Y2047
X16260Y2323
X16142Y2638
X16024Y2953
X16169Y3199
X15709Y3110
X15707Y3812
X15684Y4543
X16024Y4488
X16535Y4567
Y4882
Y5197
X16535Y5512
X16535Y5827
Y6142
Y6457
Y6772
Y7087
Y7402
Y7717
Y8031
Y8346
Y8661
X16535Y8976
Y9291
X16535Y9606
Y9921
Y10236
X16535Y10551
Y10866
Y11181
X16535Y11496
Y11811
Y12126
Y12441
X16535Y12756
Y13071
X16535Y13386
Y13701
Y14016
Y14331
Y14646
X16417Y15197
X15856Y11457
X15669Y10522
X15984Y9951
X15787Y9291
X15894Y8985
X16252Y7437
X16535Y4252
Y3937
Y3622
X16496Y433
X16299Y118
X16063Y315
X15827Y118
X15906Y15669
X16220
X16535Y15669
X15591
X15276
X14961
X14646
X14331Y15669
X14016Y15669
X13701
X13386
X13071
X12756
X12441
X12126Y15669
X11811
X11496Y15669
X11181
X10866
X10551
X10236Y15669
X9921Y15669
X9606
X7441
X7126
X6811
X6496
X2480
X118
T02
X5984Y6220
X7677Y6102
X9409Y6142
X11299Y6102
X12441Y6102
X13622
X14134Y6575
T03
X433Y15354
T04
X3575Y14594
Y15394
X5575Y14994
M30
