M48
;Layer_Color=9474304
;FILE_FORMAT=2:4
INCH,TZ
;TYPE=PLATED
T1F00S00C0.0118
T2F00S00C0.0315
T3F00S00C0.0394
;TYPE=NON_PLATED
T4F00S00C0.0390
%
T01
X118Y118
X433Y118
X748
X1063Y118
X1378
X1693
X2008
X2323Y118
X2638Y118
X2953
X3268
X3583
X3898
X4213
X4528Y118
X4843
X5157Y118
X5472
X5787
X6102
X6417Y118
X6732Y118
X7047
X7643Y256
X7956Y250
X8275Y246
X8564Y289
X8889Y243
X9213Y118
X9528
X9843
X10157
X9685Y356
X9222Y1102
X8937Y1112
X8652
X8031Y1457
X7796Y1621
X7640Y985
X7061Y1018
X6112Y1101
X5287Y1035
X5004Y1070
X5233Y1674
X4894Y1885
X4843Y2835
X4488Y2795
X4296Y2559
X3386Y2992
X3866Y3805
X4094Y3976
X4016Y4488
X3425Y4724
X2835Y4961
X2638Y5276
X2520Y6142
X2589Y6419
X2501Y7124
X2520Y7520
X2756Y7283
X3346Y7362
X3540Y7792
X3327Y8335
X2992Y8346
X3071Y8622
X2819Y8783
X2603Y8388
X2668Y7891
X2008Y8465
X1890Y8858
X1654Y9173
X1616Y9673
X1929Y9646
X1607Y10171
X1431Y10984
X1535Y11260
X1329Y11496
X969Y11244
X630Y11299
X118Y11220
Y10906
Y10591
X118Y10276
X118Y9961
Y9646
Y9331
Y9016
Y8701
Y8386
Y8071
Y7756
Y7441
Y7126
X118Y6811
Y6496
X118Y6181
Y5866
Y5551
X118Y5236
Y4921
Y4606
X118Y4291
Y3976
Y3661
Y3346
X118Y3031
Y2717
X118Y2402
Y2087
Y1772
Y1457
Y1142
X236Y591
X1702Y519
X2188Y1134
X2616Y1616
X2992Y1929
X3236Y1781
X3386Y1102
X3661Y1220
X1893Y1809
X1467Y1732
X1063Y1693
X1102Y2638
X1299Y3223
X1063Y4016
X1076Y4408
X797Y4331
X1496
X2598Y4291
Y3858
X4921Y4370
X5236
X4777Y4787
X4803Y5709
X4488
X4724Y6378
X5315Y6614
X5482Y5921
X5660Y5698
X5881Y5879
X6102Y5698
X6496
X6850Y6378
X6260Y6614
X6063Y7520
X6782Y7970
X7126Y8622
X7520Y8366
X7933Y8361
X7943Y8646
X8583Y8386
X9055
X8858Y8661
X9681Y8635
X10492Y8605
X10866Y8976
X11339Y8740
X11142Y8425
Y7677
X11457Y7618
X11867Y7554
X12510Y7835
X12510Y7126
X12532Y6713
X12520Y6142
X13386Y6260
X13346Y7008
Y7559
Y7844
X13393Y8228
X13359Y8565
X13425Y9047
X13636Y9520
X13878Y9724
X14240Y9479
X14058Y9245
X14163Y8543
X14163Y7835
Y7126
Y6417
X14970Y6392
X14664Y5130
X14882Y4409
X15276Y4413
X15551Y3268
X15459Y2874
X15472Y1890
X15118Y2126
X14449Y1457
X13543Y1407
X13111Y1604
X12717Y1693
X12402Y1654
X12087Y1575
X11882Y1153
X12674Y1268
X12638Y1969
X12402Y2677
X12026Y2942
X11642Y2904
X11437Y2703
X10994Y2825
X10945Y3189
Y3474
X11654Y3583
X11701Y4008
X11326Y4314
X11417Y4606
X11270Y4961
X11654Y4961
X11575Y5630
X11063Y5591
X10984Y5236
X10944Y4656
X10984Y4252
X10059Y4146
X9291Y4173
X9134Y3661
X8484Y3740
X8465Y4252
Y5118
X8780Y5157
X9059Y5655
X9882Y5669
X9761Y5928
X10044Y6036
X10118Y6457
X9970Y7238
X9882Y7638
X10866Y7520
Y7126
X10950Y6043
X9528Y6093
X10131Y5353
X8268Y5433
X7992Y6299
X8504Y6850
X9055Y7283
X8386Y7756
X7958Y7594
X7677Y7677
X7323Y6850
X7638Y9409
X7717Y9764
Y10591
X7402Y10588
X7087Y10551
X6811Y10984
Y11299
X6801Y11584
X6575Y12126
X5984
X5610Y11890
X5610Y11260
X6043Y11398
X6062Y10454
X6329Y10266
X6220Y9724
X6024Y9488
X5858Y9893
X5433Y10591
X5118Y10588
X4803Y10591
X4592Y11245
X4587Y11535
X4291Y12126
X3701
X3327Y11890
X3327Y11260
X3760Y11398
X3760Y10276
X4154Y10276
X3937Y9409
X3691Y9554
X3397Y9803
X3150Y10591
X2835Y10588
X2520Y10591
X2234Y10646
X1909Y11398
X1808Y12241
X1870Y12520
X1368Y12539
X945Y12677
X630Y12835
X485Y12589
X512Y13150
X394Y13465
X315Y13740
Y14134
X118Y14488
X118Y14803
X462Y14773
X924Y14772
X1367Y14766
X1839
X2008Y15472
X1535
X1063
X591Y15472
X157Y15354
X2913Y15472
X3386
X3858
X4331
X4803
X5276
X5748Y15472
X6220Y15472
X6693
X7165Y15472
X7638Y15472
X8110
X8583
X9055
X9528
X10000
X10472
X10945
X11417
X11890
X12362Y15472
X12835Y15472
X13307
X13780Y15472
X14252Y15472
X14724Y15472
X15197Y15472
X15118Y14016
X14803Y14016
X14173Y14173
X13858
X13293Y13986
X12866
X12283Y14173
X11968
X11400Y14003
X11114Y13994
X10394Y14173
X10079
X9532Y13969
X9090Y13986
X8504Y14173
X8189
X7599Y14067
X7172Y13970
X6614Y14173
X6299
X5669Y14016
X5354
X4724Y14173
X4409
X3780Y14016
X3465
X2835Y14173
X2598Y13937
X2323Y13071
X2008Y13228
X1811Y13465
X1457
X2874Y12913
X3479Y12972
X3765
X4862Y12874
X5369Y12972
X5655
X6378Y12992
X7259Y12972
X7544
X7818Y12889
X7894Y11890
X8268Y12126
X8819
X9154Y11535
X9158Y11245
X9349Y10575
X9685Y10588
X9961Y9961
X9488Y9711
Y9425
X8593Y9488
X8307
X8425Y10276
X8720Y10276
X8327Y11398
X7894Y11260
X10177Y11260
X10610Y11398
X10512Y12126
X10177Y11890
X9940Y12857
X9434Y12972
X9149
X10682Y12616
X11038Y12972
X11324
X11339Y12323
X11389Y11622
X11407Y10945
X11395Y10650
X11408Y10290
X11417Y9803
X11407Y9518
X11758Y9242
X12043Y9222
X12205Y9724
X12067Y10157
X12598Y10157
X13057Y9895
X13219Y9654
X12913Y9232
X12514Y8917
X13071Y10433
X13002Y11009
X13043Y11292
X12343Y11181
X12205Y11575
X12520Y11890
X12579Y12323
X12520Y12913
X12165Y12953
X12928Y12972
X13214
X13583Y12904
X14055
X13819Y12323
X13583Y11890
X14173Y11299
X14203Y10945
X14190Y10650
X14203Y10364
X14862Y10157
X15039Y9921
X15354Y10118
X15284Y9371
X14914Y8697
X14598Y8927
X14655Y11156
X15156Y11149
X15000Y11575
X15197Y11900
X14728Y11928
X15059Y12323
X15103Y12972
X14818
X15370Y12871
X11839Y12014
X11713Y11181
X10610Y10276
X10709Y9949
X6850Y9724
X6772Y9449
X4882
X4567Y9528
X4528Y8593
X4213Y8583
X4606Y7874
X4409Y7244
X4803
X4131Y6767
X3593Y6831
X1063Y6890
X760Y6803
X866Y6496
X669Y5837
X984Y5266
X401Y8351
X118Y11535
Y11850
Y12165
X946Y11975
X5365Y8636
X6063Y4646
X6496Y4606
X6654Y3661
X6452Y3460
X6171Y3371
X6142Y2598
X5551Y2835
X6968
X6929Y2362
X7441Y2362
X7087Y3543
X8031Y3465
X9016Y2402
X9077Y2108
X10128Y1996
X10000Y1496
X10449Y1006
X11339Y472
X12345Y354
X12677Y197
X13465Y236
X13740Y394
Y748
X14173Y118
X14488Y197
X15591
X13873Y2003
X13549Y2046
X13734Y2285
X13788Y3844
X14338Y3846
X14606Y3189
X13150Y3740
X13228Y4291
X13268Y4961
X13435Y5467
X13189Y5669
X12539Y3260
X11438Y1927
X11190Y2067
X11115Y1791
X10866Y2402
X10188Y2746
X10197Y3031
X15665Y2222
X16457Y2402
Y1929
Y1457
X15827Y827
X16535Y118
X16260Y3858
X15864Y3846
X16535Y4724
Y5039
X16496Y5433
X16535Y6260
Y6654
Y7047
Y7441
Y7835
Y8228
Y8622
Y9016
X16457Y9646
X16122Y9724
X16400Y10395
X15797Y10945
X16122Y11614
X16520Y11792
X16299Y12323
X15945Y13110
X16181Y13593
X15778Y14031
X16407Y14273
Y14685
X15945Y15079
X15669Y15472
X15984Y5866
X15902Y15638
X16378Y15669
X15433
X14961
X14488
X14016
X13543
X13071
X12598Y15669
X12126Y15669
X11654Y15669
X11181Y15669
X10709
X10236Y15669
X9764Y15669
X9291Y15669
X8819Y15669
X8346
X7874
X7402
X6929
X6457
X5984
X5512
X5039Y15669
X4567Y15669
X4094
X3622Y15669
X3150Y15669
X2677
X2244
X1772Y15669
X1299Y15669
X827
X354Y15669
T02
X2520Y9213
X3031Y9685
X4213
X5354Y9685
X7244Y9646
X8976Y9685
X10669Y9567
T03
X16220Y433
T04
X11079Y793
X13079Y1193
Y393
M30
