G04*
G04 #@! TF.GenerationSoftware,Altium Limited,Altium Designer,22.11.1 (43)*
G04*
G04 Layer_Color=8388736*
%FSLAX25Y25*%
%MOIN*%
G70*
G04*
G04 #@! TF.SameCoordinates,39BBDE86-2203-4F75-BA3C-139199E7D40A*
G04*
G04*
G04 #@! TF.FilePolarity,Negative*
G04*
G01*
G75*
G04:AMPARAMS|DCode=41|XSize=47.24mil|YSize=88.58mil|CornerRadius=6.3mil|HoleSize=0mil|Usage=FLASHONLY|Rotation=0.000|XOffset=0mil|YOffset=0mil|HoleType=Round|Shape=RoundedRectangle|*
%AMROUNDEDRECTD41*
21,1,0.04724,0.07598,0,0,0.0*
21,1,0.03465,0.08858,0,0,0.0*
1,1,0.01260,0.01732,-0.03799*
1,1,0.01260,-0.01732,-0.03799*
1,1,0.01260,-0.01732,0.03799*
1,1,0.01260,0.01732,0.03799*
%
%ADD41ROUNDEDRECTD41*%
G04:AMPARAMS|DCode=42|XSize=47.24mil|YSize=88.58mil|CornerRadius=6.3mil|HoleSize=0mil|Usage=FLASHONLY|Rotation=0.000|XOffset=0mil|YOffset=0mil|HoleType=Round|Shape=RoundedRectangle|*
%AMROUNDEDRECTD42*
21,1,0.04724,0.07599,0,0,0.0*
21,1,0.03465,0.08858,0,0,0.0*
1,1,0.01260,0.01732,-0.03799*
1,1,0.01260,-0.01732,-0.03799*
1,1,0.01260,-0.01732,0.03799*
1,1,0.01260,0.01732,0.03799*
%
%ADD42ROUNDEDRECTD42*%
G04:AMPARAMS|DCode=43|XSize=141.73mil|YSize=88.58mil|CornerRadius=10.43mil|HoleSize=0mil|Usage=FLASHONLY|Rotation=0.000|XOffset=0mil|YOffset=0mil|HoleType=Round|Shape=RoundedRectangle|*
%AMROUNDEDRECTD43*
21,1,0.14173,0.06772,0,0,0.0*
21,1,0.12087,0.08858,0,0,0.0*
1,1,0.02087,0.06043,-0.03386*
1,1,0.02087,-0.06043,-0.03386*
1,1,0.02087,-0.06043,0.03386*
1,1,0.02087,0.06043,0.03386*
%
%ADD43ROUNDEDRECTD43*%
%ADD44O,0.05512X0.01260*%
%ADD45O,0.01260X0.05512*%
G04:AMPARAMS|DCode=46|XSize=43.31mil|YSize=47.24mil|CornerRadius=5.91mil|HoleSize=0mil|Usage=FLASHONLY|Rotation=0.000|XOffset=0mil|YOffset=0mil|HoleType=Round|Shape=RoundedRectangle|*
%AMROUNDEDRECTD46*
21,1,0.04331,0.03543,0,0,0.0*
21,1,0.03150,0.04724,0,0,0.0*
1,1,0.01181,0.01575,-0.01772*
1,1,0.01181,-0.01575,-0.01772*
1,1,0.01181,-0.01575,0.01772*
1,1,0.01181,0.01575,0.01772*
%
%ADD46ROUNDEDRECTD46*%
G04:AMPARAMS|DCode=47|XSize=27.56mil|YSize=39.37mil|CornerRadius=4.33mil|HoleSize=0mil|Usage=FLASHONLY|Rotation=180.000|XOffset=0mil|YOffset=0mil|HoleType=Round|Shape=RoundedRectangle|*
%AMROUNDEDRECTD47*
21,1,0.02756,0.03071,0,0,180.0*
21,1,0.01890,0.03937,0,0,180.0*
1,1,0.00866,-0.00945,0.01535*
1,1,0.00866,0.00945,0.01535*
1,1,0.00866,0.00945,-0.01535*
1,1,0.00866,-0.00945,-0.01535*
%
%ADD47ROUNDEDRECTD47*%
%ADD48C,0.03494*%
G04:AMPARAMS|DCode=49|XSize=31.5mil|YSize=27.56mil|CornerRadius=4.33mil|HoleSize=0mil|Usage=FLASHONLY|Rotation=180.000|XOffset=0mil|YOffset=0mil|HoleType=Round|Shape=RoundedRectangle|*
%AMROUNDEDRECTD49*
21,1,0.03150,0.01890,0,0,180.0*
21,1,0.02284,0.02756,0,0,180.0*
1,1,0.00866,-0.01142,0.00945*
1,1,0.00866,0.01142,0.00945*
1,1,0.00866,0.01142,-0.00945*
1,1,0.00866,-0.01142,-0.00945*
%
%ADD49ROUNDEDRECTD49*%
G04:AMPARAMS|DCode=50|XSize=27.56mil|YSize=39.37mil|CornerRadius=4.33mil|HoleSize=0mil|Usage=FLASHONLY|Rotation=270.000|XOffset=0mil|YOffset=0mil|HoleType=Round|Shape=RoundedRectangle|*
%AMROUNDEDRECTD50*
21,1,0.02756,0.03071,0,0,270.0*
21,1,0.01890,0.03937,0,0,270.0*
1,1,0.00866,-0.01535,-0.00945*
1,1,0.00866,-0.01535,0.00945*
1,1,0.00866,0.01535,0.00945*
1,1,0.00866,0.01535,-0.00945*
%
%ADD50ROUNDEDRECTD50*%
G04:AMPARAMS|DCode=51|XSize=90.55mil|YSize=94.49mil|CornerRadius=10.63mil|HoleSize=0mil|Usage=FLASHONLY|Rotation=90.000|XOffset=0mil|YOffset=0mil|HoleType=Round|Shape=RoundedRectangle|*
%AMROUNDEDRECTD51*
21,1,0.09055,0.07323,0,0,90.0*
21,1,0.06929,0.09449,0,0,90.0*
1,1,0.02126,0.03661,0.03465*
1,1,0.02126,0.03661,-0.03465*
1,1,0.02126,-0.03661,-0.03465*
1,1,0.02126,-0.03661,0.03465*
%
%ADD51ROUNDEDRECTD51*%
%ADD52C,0.03543*%
G04:AMPARAMS|DCode=53|XSize=29.53mil|YSize=35.43mil|CornerRadius=4.53mil|HoleSize=0mil|Usage=FLASHONLY|Rotation=90.000|XOffset=0mil|YOffset=0mil|HoleType=Round|Shape=RoundedRectangle|*
%AMROUNDEDRECTD53*
21,1,0.02953,0.02638,0,0,90.0*
21,1,0.02047,0.03543,0,0,90.0*
1,1,0.00906,0.01319,0.01024*
1,1,0.00906,0.01319,-0.01024*
1,1,0.00906,-0.01319,-0.01024*
1,1,0.00906,-0.01319,0.01024*
%
%ADD53ROUNDEDRECTD53*%
G04:AMPARAMS|DCode=54|XSize=21.65mil|YSize=35.43mil|CornerRadius=3.74mil|HoleSize=0mil|Usage=FLASHONLY|Rotation=90.000|XOffset=0mil|YOffset=0mil|HoleType=Round|Shape=RoundedRectangle|*
%AMROUNDEDRECTD54*
21,1,0.02165,0.02795,0,0,90.0*
21,1,0.01417,0.03543,0,0,90.0*
1,1,0.00748,0.01398,0.00709*
1,1,0.00748,0.01398,-0.00709*
1,1,0.00748,-0.01398,-0.00709*
1,1,0.00748,-0.01398,0.00709*
%
%ADD54ROUNDEDRECTD54*%
G04:AMPARAMS|DCode=55|XSize=35.43mil|YSize=82.68mil|CornerRadius=5.12mil|HoleSize=0mil|Usage=FLASHONLY|Rotation=90.000|XOffset=0mil|YOffset=0mil|HoleType=Round|Shape=RoundedRectangle|*
%AMROUNDEDRECTD55*
21,1,0.03543,0.07244,0,0,90.0*
21,1,0.02520,0.08268,0,0,90.0*
1,1,0.01024,0.03622,0.01260*
1,1,0.01024,0.03622,-0.01260*
1,1,0.01024,-0.03622,-0.01260*
1,1,0.01024,-0.03622,0.01260*
%
%ADD55ROUNDEDRECTD55*%
%ADD56O,0.01575X0.04724*%
%ADD57O,0.04724X0.01575*%
G04:AMPARAMS|DCode=58|XSize=16.54mil|YSize=35.43mil|CornerRadius=3.23mil|HoleSize=0mil|Usage=FLASHONLY|Rotation=90.000|XOffset=0mil|YOffset=0mil|HoleType=Round|Shape=RoundedRectangle|*
%AMROUNDEDRECTD58*
21,1,0.01654,0.02898,0,0,90.0*
21,1,0.01008,0.03543,0,0,90.0*
1,1,0.00646,0.01449,0.00504*
1,1,0.00646,0.01449,-0.00504*
1,1,0.00646,-0.01449,-0.00504*
1,1,0.00646,-0.01449,0.00504*
%
%ADD58ROUNDEDRECTD58*%
%ADD59O,0.09055X0.02756*%
G04:AMPARAMS|DCode=60|XSize=16.54mil|YSize=35.43mil|CornerRadius=3.23mil|HoleSize=0mil|Usage=FLASHONLY|Rotation=180.000|XOffset=0mil|YOffset=0mil|HoleType=Round|Shape=RoundedRectangle|*
%AMROUNDEDRECTD60*
21,1,0.01654,0.02898,0,0,180.0*
21,1,0.01008,0.03543,0,0,180.0*
1,1,0.00646,-0.00504,0.01449*
1,1,0.00646,0.00504,0.01449*
1,1,0.00646,0.00504,-0.01449*
1,1,0.00646,-0.00504,-0.01449*
%
%ADD60ROUNDEDRECTD60*%
%ADD61R,0.01870X0.01772*%
%ADD62R,0.01772X0.01870*%
G04:AMPARAMS|DCode=63|XSize=43.31mil|YSize=47.24mil|CornerRadius=5.91mil|HoleSize=0mil|Usage=FLASHONLY|Rotation=270.000|XOffset=0mil|YOffset=0mil|HoleType=Round|Shape=RoundedRectangle|*
%AMROUNDEDRECTD63*
21,1,0.04331,0.03543,0,0,270.0*
21,1,0.03150,0.04724,0,0,270.0*
1,1,0.01181,-0.01772,-0.01575*
1,1,0.01181,-0.01772,0.01575*
1,1,0.01181,0.01772,0.01575*
1,1,0.01181,0.01772,-0.01575*
%
%ADD63ROUNDEDRECTD63*%
G04:AMPARAMS|DCode=64|XSize=31.5mil|YSize=27.56mil|CornerRadius=4.33mil|HoleSize=0mil|Usage=FLASHONLY|Rotation=90.000|XOffset=0mil|YOffset=0mil|HoleType=Round|Shape=RoundedRectangle|*
%AMROUNDEDRECTD64*
21,1,0.03150,0.01890,0,0,90.0*
21,1,0.02284,0.02756,0,0,90.0*
1,1,0.00866,0.00945,0.01142*
1,1,0.00866,0.00945,-0.01142*
1,1,0.00866,-0.00945,-0.01142*
1,1,0.00866,-0.00945,0.01142*
%
%ADD64ROUNDEDRECTD64*%
%ADD65C,0.04294*%
%ADD66C,0.04724*%
%ADD67C,0.05906*%
D41*
X7480Y125197D02*
D03*
X25591D02*
D03*
D42*
X16535D02*
D03*
D43*
X16535Y149606D02*
D03*
D44*
X61024Y143701D02*
D03*
Y141732D02*
D03*
X61024Y139764D02*
D03*
Y137795D02*
D03*
Y135827D02*
D03*
Y133858D02*
D03*
Y131890D02*
D03*
X61024Y129921D02*
D03*
Y127953D02*
D03*
Y125984D02*
D03*
X61024Y124016D02*
D03*
Y122047D02*
D03*
Y120079D02*
D03*
Y118110D02*
D03*
Y116142D02*
D03*
Y114173D02*
D03*
Y112205D02*
D03*
Y110236D02*
D03*
Y108268D02*
D03*
Y106299D02*
D03*
Y104331D02*
D03*
X61024Y102362D02*
D03*
X61024Y100394D02*
D03*
Y98425D02*
D03*
Y96457D02*
D03*
Y94488D02*
D03*
Y92520D02*
D03*
X61024Y90551D02*
D03*
Y88583D02*
D03*
Y86614D02*
D03*
X61024Y84646D02*
D03*
Y82677D02*
D03*
Y80709D02*
D03*
Y78740D02*
D03*
Y76772D02*
D03*
X61024Y74803D02*
D03*
X144685D02*
D03*
X144685Y76772D02*
D03*
Y78740D02*
D03*
Y80709D02*
D03*
Y82677D02*
D03*
Y84646D02*
D03*
X144685Y86614D02*
D03*
Y88583D02*
D03*
Y90551D02*
D03*
X144685Y92520D02*
D03*
Y94488D02*
D03*
Y96457D02*
D03*
Y98425D02*
D03*
Y100394D02*
D03*
X144685Y102362D02*
D03*
X144685Y104331D02*
D03*
Y106299D02*
D03*
Y108268D02*
D03*
Y110236D02*
D03*
Y112205D02*
D03*
Y114173D02*
D03*
Y116142D02*
D03*
Y118110D02*
D03*
Y120079D02*
D03*
Y122047D02*
D03*
Y124016D02*
D03*
X144685Y125984D02*
D03*
Y127953D02*
D03*
Y129921D02*
D03*
X144685Y131890D02*
D03*
Y133858D02*
D03*
Y135827D02*
D03*
Y137795D02*
D03*
Y139764D02*
D03*
X144685Y141732D02*
D03*
Y143701D02*
D03*
D45*
X68405Y67421D02*
D03*
X70374D02*
D03*
X72342Y67421D02*
D03*
X74311D02*
D03*
X76279D02*
D03*
X78248D02*
D03*
X80216D02*
D03*
X82185Y67421D02*
D03*
X84153D02*
D03*
X86122D02*
D03*
X88090Y67421D02*
D03*
X90059D02*
D03*
X92028D02*
D03*
X93996D02*
D03*
X95965D02*
D03*
X97933D02*
D03*
X99902D02*
D03*
X101870D02*
D03*
X103839D02*
D03*
X105807D02*
D03*
X107776D02*
D03*
X109744Y67421D02*
D03*
X111713Y67421D02*
D03*
X113681D02*
D03*
X115650D02*
D03*
X117618D02*
D03*
X119587D02*
D03*
X121555Y67421D02*
D03*
X123524D02*
D03*
X125492D02*
D03*
X127461Y67421D02*
D03*
X129429D02*
D03*
X131398D02*
D03*
X133366D02*
D03*
X135335D02*
D03*
X137303Y67421D02*
D03*
Y151083D02*
D03*
X135335Y151083D02*
D03*
X133366D02*
D03*
X131398D02*
D03*
X129429D02*
D03*
X127461D02*
D03*
X125492Y151083D02*
D03*
X123524D02*
D03*
X121555D02*
D03*
X119587Y151083D02*
D03*
X117618D02*
D03*
X115650D02*
D03*
X113681D02*
D03*
X111713D02*
D03*
X109744Y151083D02*
D03*
X107776Y151083D02*
D03*
X105807D02*
D03*
X103839D02*
D03*
X101870D02*
D03*
X99902D02*
D03*
X97933D02*
D03*
X95965D02*
D03*
X93996D02*
D03*
X92028D02*
D03*
X90059D02*
D03*
X88090D02*
D03*
X86122Y151083D02*
D03*
X84153D02*
D03*
X82185D02*
D03*
X80216Y151083D02*
D03*
X78248D02*
D03*
X76279D02*
D03*
X74311D02*
D03*
X72342D02*
D03*
X70374Y151083D02*
D03*
X68405D02*
D03*
D46*
X37795Y101181D02*
D03*
X44488Y101181D02*
D03*
Y108268D02*
D03*
X37795D02*
D03*
Y115354D02*
D03*
X44488D02*
D03*
Y122441D02*
D03*
X37795D02*
D03*
X27953Y93701D02*
D03*
X21260D02*
D03*
X44488Y93701D02*
D03*
X37795Y93701D02*
D03*
X27953Y86614D02*
D03*
X21260Y86614D02*
D03*
X44488Y86614D02*
D03*
X37795D02*
D03*
X27953Y79528D02*
D03*
X21260D02*
D03*
X44488D02*
D03*
X37795D02*
D03*
X21260Y72441D02*
D03*
X27953Y72441D02*
D03*
X44488Y72441D02*
D03*
X37795D02*
D03*
D47*
X159449Y144095D02*
D03*
X155709D02*
D03*
X151969D02*
D03*
Y134646D02*
D03*
X155709D02*
D03*
X159449D02*
D03*
D48*
X50748Y152441D02*
D03*
Y147441D02*
D03*
X45748Y152441D02*
D03*
X45748Y147441D02*
D03*
X40748Y152441D02*
D03*
Y147441D02*
D03*
D49*
X4724Y7480D02*
D03*
Y11417D02*
D03*
X151181Y20472D02*
D03*
Y16535D02*
D03*
X47638Y9055D02*
D03*
Y5118D02*
D03*
X61811Y9055D02*
D03*
X61811Y5118D02*
D03*
X80709Y12992D02*
D03*
Y9055D02*
D03*
Y5118D02*
D03*
Y9055D02*
D03*
X90158D02*
D03*
X90158Y12992D02*
D03*
X90158Y9055D02*
D03*
X90158Y5118D02*
D03*
X113780Y12992D02*
D03*
Y9055D02*
D03*
X137402D02*
D03*
X137402Y12992D02*
D03*
X137402Y9055D02*
D03*
X137402Y5118D02*
D03*
X54036Y122835D02*
D03*
Y126772D02*
D03*
X142126Y12598D02*
D03*
Y16535D02*
D03*
X4724Y28150D02*
D03*
Y24213D02*
D03*
X16142Y64173D02*
D03*
Y68110D02*
D03*
X160630Y16535D02*
D03*
Y20472D02*
D03*
X155905Y16535D02*
D03*
Y20472D02*
D03*
X146457Y16535D02*
D03*
Y20472D02*
D03*
X9843Y9055D02*
D03*
Y12992D02*
D03*
X14567Y9055D02*
D03*
Y12992D02*
D03*
X19291Y9055D02*
D03*
Y12992D02*
D03*
X24016Y9055D02*
D03*
Y12992D02*
D03*
X9843Y9055D02*
D03*
Y5118D02*
D03*
X14567Y9055D02*
D03*
Y5118D02*
D03*
X19291Y9055D02*
D03*
Y5118D02*
D03*
X24016Y9055D02*
D03*
Y5118D02*
D03*
X28740Y9055D02*
D03*
Y12992D02*
D03*
X33465Y9055D02*
D03*
Y12992D02*
D03*
X38189Y9055D02*
D03*
X38189Y12992D02*
D03*
X43031Y9055D02*
D03*
Y12992D02*
D03*
X28740Y9055D02*
D03*
Y5118D02*
D03*
X33465Y9055D02*
D03*
Y5118D02*
D03*
X38189Y9055D02*
D03*
X38189Y5118D02*
D03*
X42913Y9055D02*
D03*
Y5118D02*
D03*
X47638Y9055D02*
D03*
Y12992D02*
D03*
X52362Y9055D02*
D03*
Y12992D02*
D03*
X57087Y9055D02*
D03*
Y12992D02*
D03*
X61811Y9055D02*
D03*
Y12992D02*
D03*
X52362Y9055D02*
D03*
X52362Y5118D02*
D03*
X57087Y9055D02*
D03*
Y5118D02*
D03*
X66536Y12992D02*
D03*
Y9055D02*
D03*
X71260Y12992D02*
D03*
Y9055D02*
D03*
X75984Y12992D02*
D03*
Y9055D02*
D03*
X66536Y5118D02*
D03*
Y9055D02*
D03*
X71260Y5118D02*
D03*
Y9055D02*
D03*
X75984Y5118D02*
D03*
Y9055D02*
D03*
X85433D02*
D03*
Y12992D02*
D03*
X94882Y9055D02*
D03*
Y12992D02*
D03*
X99606Y9055D02*
D03*
Y12992D02*
D03*
X85433Y9055D02*
D03*
Y5118D02*
D03*
X94882Y9055D02*
D03*
Y5118D02*
D03*
X99606Y9055D02*
D03*
Y5118D02*
D03*
X104331Y12992D02*
D03*
Y9055D02*
D03*
X109055Y12992D02*
D03*
Y9055D02*
D03*
X118504Y12992D02*
D03*
Y9055D02*
D03*
X104331Y5118D02*
D03*
Y9055D02*
D03*
X109055Y5118D02*
D03*
Y9055D02*
D03*
X113780Y5118D02*
D03*
Y9055D02*
D03*
X118504Y5118D02*
D03*
Y9055D02*
D03*
X123228D02*
D03*
X123228Y12992D02*
D03*
X127953Y9055D02*
D03*
Y12992D02*
D03*
X132677Y9055D02*
D03*
Y12992D02*
D03*
X123228Y9055D02*
D03*
X123228Y5118D02*
D03*
X127953Y9055D02*
D03*
Y5118D02*
D03*
X132677Y9055D02*
D03*
Y5118D02*
D03*
X146457Y12992D02*
D03*
Y9055D02*
D03*
X151181Y12992D02*
D03*
Y9055D02*
D03*
X155905Y12992D02*
D03*
Y9055D02*
D03*
X160630Y12992D02*
D03*
Y9055D02*
D03*
X146457Y5118D02*
D03*
Y9055D02*
D03*
X151181Y5118D02*
D03*
Y9055D02*
D03*
X155905Y5118D02*
D03*
Y9055D02*
D03*
X160630Y5118D02*
D03*
Y9055D02*
D03*
X4724Y19094D02*
D03*
Y15157D02*
D03*
X40157Y131890D02*
D03*
Y135827D02*
D03*
D50*
X59449Y25787D02*
D03*
Y22047D02*
D03*
Y18307D02*
D03*
X50000Y18307D02*
D03*
Y22047D02*
D03*
X50000Y25787D02*
D03*
X21654D02*
D03*
X21654Y22047D02*
D03*
Y18307D02*
D03*
X12205D02*
D03*
Y22047D02*
D03*
X12205Y25787D02*
D03*
X40551Y25787D02*
D03*
Y22047D02*
D03*
Y18307D02*
D03*
X31102Y18307D02*
D03*
Y22047D02*
D03*
Y25787D02*
D03*
X78347D02*
D03*
Y22047D02*
D03*
Y18307D02*
D03*
X68898Y18307D02*
D03*
Y22047D02*
D03*
X68898Y25787D02*
D03*
X97244D02*
D03*
Y22047D02*
D03*
Y18307D02*
D03*
X87795D02*
D03*
Y22047D02*
D03*
Y25787D02*
D03*
X116142Y25787D02*
D03*
Y22047D02*
D03*
Y18307D02*
D03*
X106693D02*
D03*
Y22047D02*
D03*
Y25787D02*
D03*
X135039D02*
D03*
Y22047D02*
D03*
Y18307D02*
D03*
X125591Y18307D02*
D03*
Y22047D02*
D03*
X125591Y25787D02*
D03*
D51*
X156693Y59842D02*
D03*
Y77559D02*
D03*
D52*
X142402Y5118D02*
D03*
X4724Y3150D02*
D03*
D53*
X11024Y78642D02*
D03*
X3937D02*
D03*
Y68602D02*
D03*
X11024D02*
D03*
Y84744D02*
D03*
X3937D02*
D03*
Y94784D02*
D03*
X11024D02*
D03*
D54*
X3937Y72047D02*
D03*
Y75197D02*
D03*
X11024D02*
D03*
Y72047D02*
D03*
Y88189D02*
D03*
Y91339D02*
D03*
X3937D02*
D03*
Y88189D02*
D03*
D55*
X158661Y125984D02*
D03*
Y109449D02*
D03*
Y86221D02*
D03*
Y102756D02*
D03*
D56*
X145866Y55118D02*
D03*
X143307D02*
D03*
X140748D02*
D03*
X138189D02*
D03*
X135630D02*
D03*
X133071D02*
D03*
X130512D02*
D03*
X145866Y32677D02*
D03*
X143307Y32677D02*
D03*
X140748D02*
D03*
X138189Y32677D02*
D03*
X135630Y32677D02*
D03*
X133071D02*
D03*
X130512Y32677D02*
D03*
X77362Y55118D02*
D03*
X74803D02*
D03*
X72244D02*
D03*
X69685D02*
D03*
X67126D02*
D03*
X64567D02*
D03*
X62008D02*
D03*
X77362Y32677D02*
D03*
X74803D02*
D03*
X72244D02*
D03*
X69685D02*
D03*
X67126D02*
D03*
X64567D02*
D03*
X62008D02*
D03*
X100197Y55118D02*
D03*
X97638D02*
D03*
X95079D02*
D03*
X92520D02*
D03*
X89961D02*
D03*
X87402D02*
D03*
X84843D02*
D03*
X100197Y32677D02*
D03*
X97638D02*
D03*
X95079D02*
D03*
X92520D02*
D03*
X89961D02*
D03*
X87402D02*
D03*
X84843D02*
D03*
X123031Y55118D02*
D03*
X120472D02*
D03*
X117913D02*
D03*
X115354D02*
D03*
X112795D02*
D03*
X110236D02*
D03*
X107677D02*
D03*
X123031Y32677D02*
D03*
X120472D02*
D03*
X117913D02*
D03*
X115354D02*
D03*
X112795D02*
D03*
X110236D02*
D03*
X107677D02*
D03*
D57*
X55709Y43701D02*
D03*
Y46260D02*
D03*
Y48819D02*
D03*
Y51378D02*
D03*
Y53937D02*
D03*
Y56496D02*
D03*
Y59055D02*
D03*
X33268Y43701D02*
D03*
Y46260D02*
D03*
Y48819D02*
D03*
Y51378D02*
D03*
Y53937D02*
D03*
Y56496D02*
D03*
Y59055D02*
D03*
X27756Y43701D02*
D03*
Y46260D02*
D03*
Y48819D02*
D03*
Y51378D02*
D03*
Y53937D02*
D03*
Y56496D02*
D03*
Y59055D02*
D03*
X5315Y43701D02*
D03*
Y46260D02*
D03*
Y48819D02*
D03*
Y51378D02*
D03*
Y53937D02*
D03*
Y56496D02*
D03*
Y59055D02*
D03*
D58*
X38386Y32087D02*
D03*
Y34646D02*
D03*
Y37205D02*
D03*
X30906Y32087D02*
D03*
Y34646D02*
D03*
Y37205D02*
D03*
X18307Y37205D02*
D03*
Y34646D02*
D03*
Y32087D02*
D03*
X25787Y37205D02*
D03*
Y34646D02*
D03*
Y32087D02*
D03*
X13583Y32087D02*
D03*
Y34646D02*
D03*
Y37205D02*
D03*
X6102Y32087D02*
D03*
Y34646D02*
D03*
Y37205D02*
D03*
X43110Y37205D02*
D03*
Y34646D02*
D03*
Y32087D02*
D03*
X50591Y37205D02*
D03*
Y34646D02*
D03*
Y32087D02*
D03*
D59*
X6693Y116557D02*
D03*
X6693Y111557D02*
D03*
X6693Y106557D02*
D03*
Y101557D02*
D03*
X25591Y116557D02*
D03*
X25591Y111557D02*
D03*
X25591Y106557D02*
D03*
Y101557D02*
D03*
D60*
X159646Y49016D02*
D03*
X157087D02*
D03*
X154528D02*
D03*
X159646Y41535D02*
D03*
X157087Y41535D02*
D03*
X154528Y41535D02*
D03*
X159646Y33661D02*
D03*
X157087Y33661D02*
D03*
X154528Y33661D02*
D03*
X159646Y26181D02*
D03*
X157087D02*
D03*
X154528D02*
D03*
D61*
X45817Y132677D02*
D03*
Y134646D02*
D03*
Y136614D02*
D03*
X51821D02*
D03*
Y134646D02*
D03*
Y132677D02*
D03*
D62*
X47835Y137648D02*
D03*
X49803D02*
D03*
Y131644D02*
D03*
X47835D02*
D03*
D63*
X34941Y130709D02*
D03*
Y137402D02*
D03*
D64*
X43701Y65748D02*
D03*
X39764D02*
D03*
D65*
X55748Y149941D02*
D03*
X35748Y145941D02*
D03*
Y153941D02*
D03*
D66*
X94095Y61417D02*
D03*
X141339Y65748D02*
D03*
X136221Y61024D02*
D03*
X124409D02*
D03*
X112992Y61024D02*
D03*
X76772Y61024D02*
D03*
X59842Y62205D02*
D03*
D67*
X4331Y153543D02*
D03*
M02*
