M48
;Layer_Color=9474304
;FILE_FORMAT=2:4
INCH,TZ
;TYPE=PLATED
T1F00S00C0.0118
T2F00S00C0.0394
%
T01
X1093Y183
X821Y819
X1035Y1204
X394Y1633
X354Y1969
X551Y2559
X827Y2815
X945Y3346
X551Y3740
X354Y3150
Y4331
Y5906
X827Y5886
X1938Y6178
X2953Y6182
X3307Y5865
X4360Y5790
X5472Y5906
X6260
X5142Y4896
X3542Y4854
X2835Y3858
X2520Y3701
Y3346
X3267Y3297
X2874Y1850
X2290Y825
X2067Y183
X2922
X3841Y197
Y826
X5184Y654
X5573Y275
X5583Y1022
X5970Y705
X6457Y1181
Y1969
X5866Y1575
Y2362
X5837Y3260
X5669Y3740
X6260Y3543
X5157Y1811
X5109Y1378
X5420Y6878
X5472Y7283
X6260Y7087
X5866Y6496
X4488Y6811
X3392Y7636
X3434Y8042
X2605Y7626
X2538Y7282
X2244Y7559
X903Y7300
X1312Y6665
X472Y6432
T02
X295Y472
Y5217
X6398Y5197
Y4449
Y2756
Y295
Y7717
X295Y7894
Y7165
M30
