G04*
G04 #@! TF.GenerationSoftware,Altium Limited,Altium Designer,20.0.10 (225)*
G04*
G04 Layer_Physical_Order=1*
G04 Layer_Color=255*
%FSLAX25Y25*%
%MOIN*%
G70*
G01*
G75*
%ADD12C,0.00787*%
%ADD14O,0.01968X0.00984*%
%ADD15O,0.00984X0.01968*%
%ADD16O,0.07087X0.01378*%
G04:AMPARAMS|DCode=17|XSize=27.56mil|YSize=36.22mil|CornerRadius=2.76mil|HoleSize=0mil|Usage=FLASHONLY|Rotation=180.000|XOffset=0mil|YOffset=0mil|HoleType=Round|Shape=RoundedRectangle|*
%AMROUNDEDRECTD17*
21,1,0.02756,0.03071,0,0,180.0*
21,1,0.02205,0.03622,0,0,180.0*
1,1,0.00551,-0.01102,0.01535*
1,1,0.00551,0.01102,0.01535*
1,1,0.00551,0.01102,-0.01535*
1,1,0.00551,-0.01102,-0.01535*
%
%ADD17ROUNDEDRECTD17*%
G04:AMPARAMS|DCode=18|XSize=39.37mil|YSize=57.09mil|CornerRadius=3.94mil|HoleSize=0mil|Usage=FLASHONLY|Rotation=0.000|XOffset=0mil|YOffset=0mil|HoleType=Round|Shape=RoundedRectangle|*
%AMROUNDEDRECTD18*
21,1,0.03937,0.04921,0,0,0.0*
21,1,0.03150,0.05709,0,0,0.0*
1,1,0.00787,0.01575,-0.02461*
1,1,0.00787,-0.01575,-0.02461*
1,1,0.00787,-0.01575,0.02461*
1,1,0.00787,0.01575,0.02461*
%
%ADD18ROUNDEDRECTD18*%
G04:AMPARAMS|DCode=19|XSize=39.37mil|YSize=57.09mil|CornerRadius=3.94mil|HoleSize=0mil|Usage=FLASHONLY|Rotation=90.000|XOffset=0mil|YOffset=0mil|HoleType=Round|Shape=RoundedRectangle|*
%AMROUNDEDRECTD19*
21,1,0.03937,0.04921,0,0,90.0*
21,1,0.03150,0.05709,0,0,90.0*
1,1,0.00787,0.02461,0.01575*
1,1,0.00787,0.02461,-0.01575*
1,1,0.00787,-0.02461,-0.01575*
1,1,0.00787,-0.02461,0.01575*
%
%ADD19ROUNDEDRECTD19*%
G04:AMPARAMS|DCode=20|XSize=39.37mil|YSize=43.31mil|CornerRadius=3.94mil|HoleSize=0mil|Usage=FLASHONLY|Rotation=270.000|XOffset=0mil|YOffset=0mil|HoleType=Round|Shape=RoundedRectangle|*
%AMROUNDEDRECTD20*
21,1,0.03937,0.03543,0,0,270.0*
21,1,0.03150,0.04331,0,0,270.0*
1,1,0.00787,-0.01772,-0.01575*
1,1,0.00787,-0.01772,0.01575*
1,1,0.00787,0.01772,0.01575*
1,1,0.00787,0.01772,-0.01575*
%
%ADD20ROUNDEDRECTD20*%
G04:AMPARAMS|DCode=21|XSize=33.47mil|YSize=33.47mil|CornerRadius=3.35mil|HoleSize=0mil|Usage=FLASHONLY|Rotation=0.000|XOffset=0mil|YOffset=0mil|HoleType=Round|Shape=RoundedRectangle|*
%AMROUNDEDRECTD21*
21,1,0.03347,0.02677,0,0,0.0*
21,1,0.02677,0.03347,0,0,0.0*
1,1,0.00669,0.01339,-0.01339*
1,1,0.00669,-0.01339,-0.01339*
1,1,0.00669,-0.01339,0.01339*
1,1,0.00669,0.01339,0.01339*
%
%ADD21ROUNDEDRECTD21*%
%ADD30O,0.20472X0.00787*%
%ADD31O,0.50394X0.00787*%
%ADD32O,0.69291X0.00787*%
%ADD33O,0.00787X0.03937*%
%ADD34C,0.01575*%
%ADD35C,0.01181*%
G36*
X75931Y31163D02*
Y30503D01*
X75431Y30103D01*
X75197Y30149D01*
X72047D01*
X71433Y30027D01*
X70912Y29679D01*
X70564Y29158D01*
X70442Y28543D01*
Y23622D01*
X70564Y23008D01*
X70877Y22539D01*
X70564Y22071D01*
X70442Y21457D01*
Y16535D01*
X70564Y15921D01*
X70877Y15453D01*
X70564Y14985D01*
X70442Y14370D01*
Y9449D01*
X70564Y8834D01*
X70844Y8415D01*
X70564Y7996D01*
X70442Y7382D01*
Y2461D01*
X70564Y1846D01*
X70912Y1325D01*
X71263Y1091D01*
X71112Y591D01*
X16176D01*
X16027Y1053D01*
X16035Y1091D01*
X16572Y1450D01*
X16945Y2008D01*
X16977Y2167D01*
X12500D01*
X8023D01*
X8055Y2008D01*
X8428Y1450D01*
X8965Y1091D01*
X8973Y1053D01*
X8824Y591D01*
X2098D01*
X1083Y1476D01*
Y5559D01*
X1460Y5887D01*
X1945Y5835D01*
Y5413D01*
X2037Y4953D01*
X2298Y4562D01*
X2689Y4301D01*
X3150Y4209D01*
X6693D01*
X7154Y4301D01*
X7544Y4562D01*
X7704Y4800D01*
X8230Y4718D01*
X8255Y4591D01*
X8357Y4439D01*
X8428Y3885D01*
X8055Y3326D01*
X8023Y3167D01*
X12500D01*
X16977D01*
X16945Y3326D01*
X16572Y3885D01*
X16643Y4439D01*
X16745Y4591D01*
X16860Y5167D01*
X16745Y5743D01*
X16643Y5896D01*
X16572Y6450D01*
X16945Y7008D01*
X16977Y7167D01*
X12500D01*
Y8167D01*
X16977D01*
X16945Y8326D01*
X16572Y8885D01*
X16643Y9439D01*
X16745Y9591D01*
X16860Y10167D01*
X16745Y10743D01*
X16525Y11073D01*
X16456Y11417D01*
X16525Y11762D01*
X16745Y12091D01*
X16860Y12667D01*
X16745Y13243D01*
X16643Y13396D01*
X16572Y13950D01*
X16945Y14508D01*
X16977Y14667D01*
X12500D01*
Y15667D01*
X16977D01*
X16945Y15826D01*
X16572Y16385D01*
X16643Y16939D01*
X16745Y17091D01*
X16860Y17667D01*
X16745Y18243D01*
X16643Y18396D01*
X16572Y18950D01*
X16945Y19508D01*
X16977Y19667D01*
X12500D01*
Y20667D01*
X16977D01*
X16945Y20826D01*
X16572Y21385D01*
X16258Y21595D01*
X16375Y21770D01*
X16458Y22185D01*
Y25256D01*
X16375Y25671D01*
X16140Y26022D01*
X16062Y26075D01*
X16277Y26396D01*
X16359Y26811D01*
Y29882D01*
X16277Y30297D01*
X16042Y30648D01*
X15690Y30883D01*
X15276Y30966D01*
X13071D01*
X12656Y30883D01*
X12304Y30648D01*
X12070Y30297D01*
X11987Y29882D01*
Y29777D01*
X7375D01*
X7313Y30087D01*
X7052Y30478D01*
X6662Y30739D01*
X6201Y30830D01*
X2712D01*
X2599Y30964D01*
X2451Y31299D01*
X2614Y31496D01*
X22845Y31502D01*
X23122Y31198D01*
X23064Y30676D01*
X22832Y30508D01*
X22374Y30599D01*
X22341Y30648D01*
X21990Y30883D01*
X21575Y30966D01*
X19370D01*
X18955Y30883D01*
X18604Y30648D01*
X18369Y30297D01*
X18286Y29882D01*
Y26811D01*
X18369Y26396D01*
X18604Y26045D01*
X18682Y25992D01*
X18467Y25671D01*
X18385Y25256D01*
Y22185D01*
X18467Y21770D01*
X18702Y21419D01*
X19054Y21184D01*
X19468Y21101D01*
X21673D01*
X22088Y21184D01*
X22440Y21419D01*
X22449Y21433D01*
X22558Y21492D01*
X22647Y21517D01*
X23096Y21523D01*
X23103Y21519D01*
X23172Y21454D01*
X23231Y21386D01*
X23283Y21311D01*
X23328Y21226D01*
X23368Y21129D01*
X23401Y21017D01*
X23426Y20888D01*
X23434Y20823D01*
Y19545D01*
X23434Y19545D01*
X23556Y18930D01*
X23904Y18409D01*
X28187Y14126D01*
X28376Y14000D01*
X28537Y13341D01*
X28527Y13326D01*
X28495Y13167D01*
X32972D01*
Y12167D01*
X28495D01*
X28527Y12008D01*
X28653Y11821D01*
X28882Y11417D01*
X28653Y11014D01*
X28527Y10826D01*
X28495Y10667D01*
X32972D01*
Y9667D01*
X28495D01*
X28527Y9508D01*
X28653Y9321D01*
X28882Y8917D01*
X28653Y8514D01*
X28527Y8326D01*
X28495Y8167D01*
X32972D01*
Y7167D01*
X28495D01*
X28527Y7008D01*
X28900Y6450D01*
X28829Y5896D01*
X28727Y5743D01*
X28613Y5167D01*
X28727Y4591D01*
X28947Y4262D01*
X29017Y3917D01*
X28947Y3573D01*
X28727Y3243D01*
X28613Y2667D01*
X28727Y2091D01*
X29054Y1603D01*
X29542Y1277D01*
X30118Y1162D01*
X35827D01*
X36212Y1239D01*
X36226Y1238D01*
X36244Y1245D01*
X36403Y1277D01*
X36506Y1345D01*
X36519Y1350D01*
X36608Y1406D01*
X36677Y1445D01*
X36747Y1479D01*
X36815Y1507D01*
X36884Y1530D01*
X36952Y1549D01*
X37022Y1564D01*
X37093Y1575D01*
X37107Y1576D01*
X37876D01*
X38038Y1560D01*
X38094Y1551D01*
X38143Y1540D01*
X38177Y1531D01*
X38195Y1524D01*
X38197Y1523D01*
X38223Y1508D01*
X38231Y1505D01*
X38319Y1446D01*
X38437Y1423D01*
X38450Y1417D01*
X38468Y1417D01*
X38503Y1410D01*
X38518Y1405D01*
X38527Y1405D01*
X38780Y1355D01*
X43701D01*
X44162Y1446D01*
X44184Y1462D01*
X44587Y1688D01*
X44989Y1462D01*
X45012Y1446D01*
X45472Y1355D01*
X50394D01*
X50855Y1446D01*
X51314Y1609D01*
X51705Y1348D01*
X52165Y1256D01*
X55315D01*
X55776Y1348D01*
X56166Y1609D01*
X56428Y2000D01*
X56519Y2461D01*
Y7382D01*
X56428Y7843D01*
X56276Y8069D01*
X56204Y8415D01*
X56276Y8761D01*
X56428Y8988D01*
X56519Y9449D01*
Y14370D01*
X56428Y14831D01*
X56166Y15222D01*
X56068Y15684D01*
X56142Y15794D01*
X56329Y16075D01*
X56421Y16535D01*
Y21457D01*
X56329Y21918D01*
X56068Y22308D01*
Y22771D01*
X56329Y23161D01*
X56421Y23622D01*
Y28543D01*
X56329Y29004D01*
X56068Y29395D01*
X55677Y29656D01*
X55216Y29748D01*
X52067D01*
X51606Y29656D01*
X51215Y29395D01*
X50954Y29004D01*
X50863Y28543D01*
Y27384D01*
X50363Y26978D01*
X50295Y26992D01*
X45374D01*
X44913Y26900D01*
X44891Y26885D01*
X44488Y26658D01*
X44086Y26885D01*
X44063Y26900D01*
X43602Y26992D01*
X38681D01*
X38220Y26900D01*
X37830Y26639D01*
X37569Y26248D01*
X37477Y25787D01*
Y23605D01*
X37441Y23551D01*
X37087Y23131D01*
X35787Y21831D01*
X35670Y21722D01*
X35608Y21673D01*
X34220D01*
X33898Y22173D01*
X33959Y22480D01*
Y23319D01*
X28560D01*
Y22480D01*
X28664Y21960D01*
X28843Y21692D01*
X29054Y21232D01*
X28727Y20743D01*
X28613Y20167D01*
X28727Y19591D01*
X28947Y19262D01*
X28986Y19069D01*
X28759Y18683D01*
X28233Y18621D01*
X26645Y20210D01*
Y20823D01*
X26652Y20888D01*
X26678Y21017D01*
X26711Y21129D01*
X26750Y21226D01*
X26796Y21311D01*
X26847Y21386D01*
X26907Y21454D01*
X26976Y21519D01*
X27090Y21604D01*
X27097Y21611D01*
X27187Y21671D01*
X27289Y21824D01*
X27300Y21836D01*
X27303Y21846D01*
X27435Y22042D01*
X27522Y22480D01*
Y25157D01*
X27435Y25595D01*
X27187Y25966D01*
X27336Y26373D01*
X27424Y26811D01*
Y29488D01*
X27336Y29926D01*
X27088Y30297D01*
X26717Y30545D01*
X26280Y30632D01*
X25911D01*
Y31398D01*
X25997Y31503D01*
X75577Y31517D01*
X75931Y31163D01*
D02*
G37*
G36*
X25004Y30453D02*
X25016Y30317D01*
X25031Y30226D01*
X25059D01*
X25047Y30202D01*
X25041Y30176D01*
X25063Y30093D01*
X25098Y30005D01*
X25142Y29933D01*
X25193Y29877D01*
X25252Y29837D01*
X25319Y29813D01*
X25394Y29805D01*
X25009D01*
X25002Y29638D01*
X25000Y29351D01*
X24213D01*
X24212Y29502D01*
X24192Y29805D01*
X23819D01*
X23894Y29813D01*
X23961Y29837D01*
X24020Y29877D01*
X24071Y29933D01*
X24114Y30005D01*
X24150Y30093D01*
X24168Y30162D01*
X24165Y30202D01*
X24154Y30226D01*
X24182D01*
X24197Y30317D01*
X24209Y30453D01*
X24213Y30605D01*
X25000D01*
X25004Y30453D01*
D02*
G37*
G36*
X23285Y27362D02*
X23277Y27437D01*
X23253Y27504D01*
X23213Y27563D01*
X23157Y27614D01*
X23086Y27657D01*
X22998Y27693D01*
X22894Y27720D01*
X22774Y27740D01*
X22638Y27752D01*
X22558Y27754D01*
X22479Y27752D01*
X22343Y27740D01*
X22223Y27720D01*
X22119Y27693D01*
X22031Y27657D01*
X21959Y27614D01*
X21903Y27563D01*
X21863Y27504D01*
X21839Y27437D01*
X21832Y27362D01*
Y28937D01*
X21839Y28862D01*
X21863Y28795D01*
X21903Y28736D01*
X21959Y28685D01*
X22031Y28642D01*
X22119Y28606D01*
X22223Y28579D01*
X22343Y28559D01*
X22479Y28547D01*
X22558Y28545D01*
X22638Y28547D01*
X22774Y28559D01*
X22894Y28579D01*
X22998Y28606D01*
X23086Y28642D01*
X23157Y28685D01*
X23213Y28736D01*
X23253Y28795D01*
X23277Y28862D01*
X23285Y28937D01*
Y27362D01*
D02*
G37*
G36*
X12814Y27786D02*
X12806Y27860D01*
X12782Y27927D01*
X12742Y27986D01*
X12686Y28038D01*
X12614Y28081D01*
X12526Y28116D01*
X12422Y28144D01*
X12303Y28163D01*
X12167Y28175D01*
X12015Y28179D01*
Y28967D01*
X12167Y28971D01*
X12303Y28982D01*
X12422Y29002D01*
X12526Y29030D01*
X12614Y29065D01*
X12686Y29108D01*
X12742Y29160D01*
X12782Y29219D01*
X12806Y29285D01*
X12814Y29360D01*
Y27786D01*
D02*
G37*
G36*
X6586Y29285D02*
X6610Y29219D01*
X6650Y29160D01*
X6706Y29108D01*
X6778Y29065D01*
X6866Y29030D01*
X6970Y29002D01*
X7090Y28982D01*
X7226Y28971D01*
X7377Y28967D01*
Y28179D01*
X7226Y28175D01*
X7090Y28163D01*
X6970Y28144D01*
X6866Y28116D01*
X6778Y28081D01*
X6706Y28038D01*
X6650Y27986D01*
X6610Y27927D01*
X6586Y27860D01*
X6578Y27786D01*
Y29360D01*
X6586Y29285D01*
D02*
G37*
G36*
X21234Y26546D02*
X21167Y26522D01*
X21108Y26482D01*
X21057Y26426D01*
X21014Y26354D01*
X20978Y26267D01*
X20951Y26163D01*
X20931Y26043D01*
X20930Y26033D01*
X20931Y26024D01*
X20951Y25904D01*
X20978Y25800D01*
X21014Y25712D01*
X21057Y25641D01*
X21108Y25585D01*
X21167Y25545D01*
X21234Y25521D01*
X21309Y25513D01*
X19734D01*
X19809Y25521D01*
X19876Y25545D01*
X19935Y25585D01*
X19986Y25641D01*
X20030Y25712D01*
X20065Y25800D01*
X20092Y25904D01*
X20112Y26024D01*
X20113Y26033D01*
X20112Y26043D01*
X20092Y26163D01*
X20065Y26267D01*
X20030Y26354D01*
X19986Y26426D01*
X19935Y26482D01*
X19876Y26522D01*
X19809Y26546D01*
X19734Y26554D01*
X21309D01*
X21234Y26546D01*
D02*
G37*
G36*
X25785Y26747D02*
X25800Y26574D01*
X26512Y26578D01*
X26373Y26473D01*
X26248Y26355D01*
X26138Y26222D01*
X26042Y26075D01*
X25961Y25915D01*
X25949Y25883D01*
X25973Y25821D01*
X26059Y25672D01*
X26160Y25557D01*
X26277Y25475D01*
X26410Y25426D01*
X26558Y25411D01*
X25817Y25406D01*
X25807Y25352D01*
X25785Y25136D01*
X25778Y24907D01*
X24203D01*
X24195Y25222D01*
X24181Y25395D01*
X23468Y25390D01*
X23608Y25495D01*
X23733Y25614D01*
X23843Y25747D01*
X23938Y25893D01*
X24019Y26053D01*
X24032Y26086D01*
X24008Y26148D01*
X23922Y26296D01*
X23820Y26412D01*
X23703Y26493D01*
X23570Y26542D01*
X23422Y26558D01*
X24164Y26563D01*
X24173Y26617D01*
X24195Y26832D01*
X24203Y27061D01*
X25778D01*
X25785Y26747D01*
D02*
G37*
G36*
X51719Y23477D02*
X51709Y23551D01*
X51683Y23618D01*
X51641Y23676D01*
X51583Y23727D01*
X51508Y23770D01*
X51417Y23806D01*
X51310Y23833D01*
X51186Y23853D01*
X51186Y23853D01*
X51184Y23852D01*
X51064Y23833D01*
X50960Y23805D01*
X50872Y23770D01*
X50800Y23727D01*
X50744Y23675D01*
X50704Y23616D01*
X50681Y23549D01*
X50673Y23474D01*
Y25049D01*
X50681Y24974D01*
X50704Y24908D01*
X50744Y24848D01*
X50800Y24797D01*
X50872Y24754D01*
X50960Y24719D01*
X51064Y24691D01*
X51182Y24672D01*
X51301Y24691D01*
X51406Y24719D01*
X51494Y24754D01*
X51565Y24797D01*
X51621Y24848D01*
X51660Y24908D01*
X51683Y24974D01*
X51690Y25049D01*
X51719Y23477D01*
D02*
G37*
G36*
X75582Y25811D02*
X75606Y25744D01*
X75646Y25685D01*
X75702Y25634D01*
X75774Y25591D01*
X75862Y25555D01*
X75889Y25548D01*
X75895Y25551D01*
Y25546D01*
X75966Y25528D01*
X76086Y25508D01*
X76222Y25496D01*
X76373Y25492D01*
Y24705D01*
X76222Y24701D01*
X76086Y24689D01*
X75966Y24669D01*
X75895Y24651D01*
Y24646D01*
X75889Y24649D01*
X75862Y24642D01*
X75774Y24606D01*
X75702Y24563D01*
X75646Y24512D01*
X75606Y24453D01*
X75582Y24386D01*
X75574Y24311D01*
Y24692D01*
X75307Y24702D01*
X75020Y24705D01*
Y25492D01*
X75171Y25493D01*
X75574Y25520D01*
Y25886D01*
X75582Y25811D01*
D02*
G37*
G36*
X44997Y23425D02*
X44989Y23500D01*
X44965Y23567D01*
X44925Y23626D01*
X44869Y23677D01*
X44797Y23721D01*
X44709Y23756D01*
X44605Y23784D01*
X44488Y23803D01*
X44371Y23784D01*
X44267Y23756D01*
X44179Y23721D01*
X44107Y23677D01*
X44052Y23626D01*
X44012Y23567D01*
X43988Y23500D01*
X43980Y23425D01*
Y25000D01*
X43988Y24925D01*
X44012Y24858D01*
X44052Y24799D01*
X44107Y24748D01*
X44179Y24705D01*
X44267Y24669D01*
X44371Y24642D01*
X44488Y24623D01*
X44605Y24642D01*
X44709Y24669D01*
X44797Y24705D01*
X44869Y24748D01*
X44925Y24799D01*
X44965Y24858D01*
X44989Y24925D01*
X44997Y25000D01*
Y23425D01*
D02*
G37*
G36*
X12912Y22933D02*
X12904Y23008D01*
X12880Y23075D01*
X12841Y23134D01*
X12785Y23185D01*
X12713Y23228D01*
X12625Y23264D01*
X12521Y23291D01*
X12401Y23311D01*
X12265Y23323D01*
X12113Y23327D01*
Y24114D01*
X12265Y24118D01*
X12401Y24130D01*
X12521Y24150D01*
X12625Y24177D01*
X12713Y24213D01*
X12785Y24256D01*
X12841Y24307D01*
X12880Y24366D01*
X12904Y24433D01*
X12912Y24508D01*
Y22933D01*
D02*
G37*
G36*
X39022Y22261D02*
X38979Y22322D01*
X38922Y22357D01*
X38851Y22368D01*
X38765Y22353D01*
X38666Y22313D01*
X38552Y22248D01*
X38423Y22158D01*
X38281Y22043D01*
X37953Y21737D01*
X37458Y22355D01*
X37650Y22553D01*
X38085Y23069D01*
X38181Y23215D01*
X38254Y23347D01*
X38302Y23467D01*
X38327Y23573D01*
X38327Y23666D01*
X38304Y23746D01*
X39022Y22261D01*
D02*
G37*
G36*
X2672Y21898D02*
X2711Y21888D01*
X2764Y21879D01*
X2911Y21865D01*
X3236Y21853D01*
X3523Y21850D01*
Y21063D01*
X3373Y21062D01*
X2672Y21015D01*
X2648Y21004D01*
Y21909D01*
X2672Y21898D01*
D02*
G37*
G36*
X37052Y20835D02*
X36955Y20736D01*
X36788Y20541D01*
X36717Y20446D01*
X36599Y20259D01*
X36553Y20168D01*
X36515Y20078D01*
X36486Y19990D01*
X36464Y19903D01*
X35403Y20846D01*
X35466Y20805D01*
X35539Y20785D01*
X35623Y20787D01*
X35717Y20810D01*
X35820Y20854D01*
X35935Y20919D01*
X36059Y21006D01*
X36194Y21113D01*
X36495Y21392D01*
X37052Y20835D01*
D02*
G37*
G36*
X26462Y22137D02*
X26328Y22013D01*
X26211Y21877D01*
X26109Y21729D01*
X26023Y21568D01*
X25952Y21395D01*
X25897Y21209D01*
X25858Y21011D01*
X25835Y20800D01*
X25827Y20577D01*
X24252D01*
X24244Y20800D01*
X24221Y21011D01*
X24181Y21209D01*
X24126Y21395D01*
X24056Y21568D01*
X23970Y21729D01*
X23868Y21877D01*
X23750Y22013D01*
X23617Y22137D01*
X23468Y22248D01*
X26611D01*
X26462Y22137D01*
D02*
G37*
G36*
X4232Y19400D02*
X4194Y19381D01*
X4162Y19350D01*
X4133Y19306D01*
X4109Y19250D01*
X4089Y19181D01*
X4074Y19100D01*
X4063Y19006D01*
X4056Y18900D01*
X4054Y18781D01*
X3267D01*
X3264Y18900D01*
X3247Y19100D01*
X3232Y19181D01*
X3212Y19250D01*
X3188Y19306D01*
X3159Y19350D01*
X3126Y19381D01*
X3089Y19400D01*
X3047Y19406D01*
X4273D01*
X4232Y19400D01*
D02*
G37*
G36*
X75582Y19020D02*
X75606Y18953D01*
X75646Y18894D01*
X75702Y18843D01*
X75774Y18799D01*
X75862Y18764D01*
X75889Y18756D01*
X75895Y18759D01*
Y18755D01*
X75966Y18736D01*
X76086Y18717D01*
X76222Y18705D01*
X76373Y18701D01*
Y17913D01*
X76222Y17909D01*
X76086Y17898D01*
X75966Y17878D01*
X75895Y17859D01*
Y17855D01*
X75889Y17858D01*
X75862Y17850D01*
X75774Y17815D01*
X75702Y17772D01*
X75646Y17720D01*
X75606Y17661D01*
X75582Y17594D01*
X75574Y17520D01*
Y17901D01*
X75307Y17911D01*
X75020Y17913D01*
Y18701D01*
X75171Y18701D01*
X75574Y18728D01*
Y19094D01*
X75582Y19020D01*
D02*
G37*
G36*
X44997Y15945D02*
X44989Y16020D01*
X44965Y16087D01*
X44925Y16146D01*
X44869Y16197D01*
X44797Y16240D01*
X44709Y16276D01*
X44605Y16303D01*
X44488Y16322D01*
X44371Y16303D01*
X44267Y16276D01*
X44179Y16240D01*
X44107Y16197D01*
X44052Y16146D01*
X44012Y16087D01*
X43988Y16020D01*
X43980Y15945D01*
Y17520D01*
X43988Y17445D01*
X44012Y17378D01*
X44052Y17319D01*
X44107Y17268D01*
X44179Y17224D01*
X44267Y17189D01*
X44371Y17161D01*
X44488Y17142D01*
X44605Y17161D01*
X44709Y17189D01*
X44797Y17224D01*
X44869Y17268D01*
X44925Y17319D01*
X44965Y17378D01*
X44989Y17445D01*
X44997Y17520D01*
Y15945D01*
D02*
G37*
G36*
X51918Y16176D02*
X51864Y16207D01*
X51802Y16235D01*
X51729Y16259D01*
X51647Y16280D01*
X51555Y16298D01*
X51342Y16324D01*
X51261Y16330D01*
X51184Y16323D01*
X51064Y16303D01*
X50960Y16276D01*
X50872Y16240D01*
X50800Y16197D01*
X50744Y16146D01*
X50704Y16087D01*
X50681Y16020D01*
X50673Y15945D01*
Y17520D01*
X50681Y17445D01*
X50704Y17378D01*
X50744Y17319D01*
X50800Y17268D01*
X50872Y17224D01*
X50960Y17189D01*
X51064Y17161D01*
X51184Y17142D01*
X51192Y17141D01*
X51200Y17142D01*
X51326Y17161D01*
X51434Y17189D01*
X51523Y17224D01*
X51594Y17268D01*
X51646Y17319D01*
X51679Y17378D01*
X51694Y17445D01*
X51690Y17520D01*
X51918Y16176D01*
D02*
G37*
G36*
X36167Y18259D02*
X36251Y18217D01*
X36341Y18181D01*
X36438Y18149D01*
X36542Y18122D01*
X36653Y18100D01*
X36895Y18071D01*
X37027Y18064D01*
X37165Y18061D01*
Y17274D01*
X37027Y17271D01*
X36771Y17252D01*
X36653Y17235D01*
X36438Y17186D01*
X36341Y17154D01*
X36251Y17118D01*
X36167Y17076D01*
X36091Y17030D01*
Y18305D01*
X36167Y18259D01*
D02*
G37*
G36*
X38304Y16880D02*
X38297Y16955D01*
X38274Y17022D01*
X38235Y17081D01*
X38179Y17132D01*
X38108Y17175D01*
X38020Y17211D01*
X37915Y17238D01*
X37795Y17258D01*
X37658Y17270D01*
X37505Y17274D01*
Y18061D01*
X37661Y18065D01*
X37800Y18077D01*
X37924Y18096D01*
X38031Y18124D01*
X38122Y18159D01*
X38197Y18202D01*
X38256Y18253D01*
X38298Y18312D01*
X38324Y18378D01*
X38333Y18452D01*
X38304Y16880D01*
D02*
G37*
G36*
X7639Y15744D02*
X7477Y15577D01*
X7224Y15280D01*
X7132Y15150D01*
X7064Y15032D01*
X7019Y14927D01*
X6997Y14834D01*
X6998Y14754D01*
X7022Y14686D01*
X7070Y14630D01*
X5870Y15633D01*
X5935Y15594D01*
X6010Y15576D01*
X6095Y15580D01*
X6191Y15605D01*
X6297Y15651D01*
X6413Y15719D01*
X6540Y15808D01*
X6678Y15918D01*
X6984Y16202D01*
X7639Y15744D01*
D02*
G37*
G36*
X51788Y10827D02*
X51780Y10902D01*
X51756Y10969D01*
X51716Y11028D01*
X51660Y11079D01*
X51588Y11122D01*
X51500Y11158D01*
X51397Y11185D01*
X51279Y11204D01*
X51163Y11185D01*
X51059Y11158D01*
X50971Y11122D01*
X50899Y11079D01*
X50843Y11028D01*
X50803Y10969D01*
X50779Y10902D01*
X50771Y10827D01*
Y12402D01*
X50779Y12327D01*
X50803Y12260D01*
X50843Y12201D01*
X50899Y12150D01*
X50971Y12106D01*
X51059Y12071D01*
X51163Y12043D01*
X51279Y12024D01*
X51397Y12043D01*
X51500Y12071D01*
X51588Y12106D01*
X51660Y12150D01*
X51716Y12201D01*
X51756Y12260D01*
X51780Y12327D01*
X51788Y12402D01*
Y10827D01*
D02*
G37*
G36*
X45095D02*
X45087Y10902D01*
X45063Y10969D01*
X45023Y11028D01*
X44967Y11079D01*
X44895Y11122D01*
X44807Y11158D01*
X44704Y11185D01*
X44587Y11204D01*
X44470Y11185D01*
X44366Y11158D01*
X44278Y11122D01*
X44206Y11079D01*
X44150Y11028D01*
X44110Y10969D01*
X44086Y10902D01*
X44078Y10827D01*
Y12402D01*
X44086Y12327D01*
X44110Y12260D01*
X44150Y12201D01*
X44206Y12150D01*
X44278Y12106D01*
X44366Y12071D01*
X44470Y12043D01*
X44587Y12024D01*
X44704Y12043D01*
X44807Y12071D01*
X44895Y12106D01*
X44967Y12150D01*
X45023Y12201D01*
X45063Y12260D01*
X45087Y12327D01*
X45095Y12402D01*
Y10827D01*
D02*
G37*
G36*
X9924Y11989D02*
X9865Y12034D01*
X9796Y12057D01*
X9715Y12058D01*
X9625Y12038D01*
X9523Y11997D01*
X9411Y11934D01*
X9289Y11849D01*
X9155Y11743D01*
X9011Y11615D01*
X8857Y11467D01*
X8401Y12125D01*
X8508Y12233D01*
X8832Y12605D01*
X8887Y12682D01*
X8933Y12754D01*
X8968Y12819D01*
X8993Y12878D01*
X9008Y12932D01*
X9924Y11989D01*
D02*
G37*
G36*
X75582Y12228D02*
X75606Y12161D01*
X75646Y12102D01*
X75702Y12051D01*
X75774Y12008D01*
X75862Y11972D01*
X75889Y11965D01*
X75895Y11968D01*
Y11964D01*
X75966Y11945D01*
X76086Y11925D01*
X76222Y11913D01*
X76373Y11909D01*
Y11122D01*
X76222Y11118D01*
X76086Y11106D01*
X75966Y11087D01*
X75895Y11068D01*
Y11063D01*
X75889Y11066D01*
X75862Y11059D01*
X75774Y11024D01*
X75702Y10980D01*
X75646Y10929D01*
X75606Y10870D01*
X75582Y10803D01*
X75574Y10728D01*
Y11110D01*
X75307Y11120D01*
X75020Y11122D01*
Y11909D01*
X75171Y11910D01*
X75574Y11937D01*
Y12303D01*
X75582Y12228D01*
D02*
G37*
G36*
X9909Y9489D02*
X9851Y9534D01*
X9781Y9557D01*
X9702Y9559D01*
X9611Y9539D01*
X9510Y9498D01*
X9398Y9436D01*
X9275Y9351D01*
X9142Y9245D01*
X8999Y9118D01*
X8844Y8969D01*
X8405Y9643D01*
X8512Y9752D01*
X8834Y10119D01*
X8889Y10194D01*
X8934Y10263D01*
X8969Y10326D01*
X8994Y10382D01*
X9008Y10431D01*
X9909Y9489D01*
D02*
G37*
G36*
X39961Y9662D02*
X39886Y9659D01*
X39819Y9639D01*
X39760Y9602D01*
X39709Y9548D01*
X39665Y9476D01*
X39630Y9388D01*
X39602Y9282D01*
X39583Y9160D01*
X39571Y9020D01*
X39567Y8863D01*
X38780D01*
X38777Y9001D01*
X38755Y9245D01*
X38735Y9352D01*
X38711Y9447D01*
X38680Y9532D01*
X38645Y9606D01*
X38603Y9669D01*
X38557Y9722D01*
X38504Y9764D01*
X39961Y9662D01*
D02*
G37*
G36*
X7072Y8571D02*
X7085Y8569D01*
X7106Y8568D01*
X7408Y8563D01*
X7488Y8563D01*
Y7776D01*
X7070Y7764D01*
X7068Y8573D01*
X7072Y8571D01*
D02*
G37*
G36*
X2772Y7619D02*
X2887Y7608D01*
X3213Y7595D01*
X3500Y7593D01*
Y6805D01*
X3349Y6805D01*
X2772Y6766D01*
Y6412D01*
X2764Y6487D01*
X2740Y6554D01*
X2701Y6613D01*
X2644Y6664D01*
X2573Y6707D01*
X2485Y6742D01*
X2381Y6770D01*
X2261Y6790D01*
X2125Y6802D01*
X1973Y6805D01*
Y7593D01*
X2125Y7597D01*
X2261Y7609D01*
X2381Y7628D01*
X2485Y7656D01*
X2573Y7691D01*
X2644Y7735D01*
X2701Y7786D01*
X2740Y7845D01*
X2764Y7912D01*
X2772Y7987D01*
Y7619D01*
D02*
G37*
G36*
X37071Y5710D02*
X36965Y5602D01*
X36641Y5230D01*
X36585Y5152D01*
X36540Y5081D01*
X36505Y5015D01*
X36479Y4956D01*
X36464Y4903D01*
X35548Y5846D01*
X35607Y5801D01*
X35677Y5778D01*
X35757Y5777D01*
X35848Y5797D01*
X35949Y5838D01*
X36061Y5901D01*
X36184Y5986D01*
X36317Y6092D01*
X36461Y6219D01*
X36615Y6368D01*
X37071Y5710D01*
D02*
G37*
G36*
X51788Y3347D02*
X51780Y3421D01*
X51756Y3488D01*
X51716Y3547D01*
X51660Y3599D01*
X51588Y3642D01*
X51500Y3677D01*
X51397Y3705D01*
X51279Y3724D01*
X51163Y3705D01*
X51059Y3677D01*
X50971Y3642D01*
X50899Y3599D01*
X50843Y3547D01*
X50803Y3488D01*
X50779Y3421D01*
X50771Y3347D01*
Y4921D01*
X50779Y4846D01*
X50803Y4780D01*
X50843Y4721D01*
X50899Y4669D01*
X50971Y4626D01*
X51059Y4591D01*
X51163Y4563D01*
X51279Y4544D01*
X51397Y4563D01*
X51500Y4591D01*
X51588Y4626D01*
X51660Y4669D01*
X51716Y4721D01*
X51756Y4780D01*
X51780Y4846D01*
X51788Y4921D01*
Y3347D01*
D02*
G37*
G36*
X45095D02*
X45087Y3421D01*
X45063Y3488D01*
X45023Y3547D01*
X44967Y3599D01*
X44895Y3642D01*
X44807Y3677D01*
X44704Y3705D01*
X44587Y3724D01*
X44470Y3705D01*
X44366Y3677D01*
X44278Y3642D01*
X44206Y3599D01*
X44150Y3547D01*
X44110Y3488D01*
X44086Y3421D01*
X44078Y3347D01*
Y4921D01*
X44086Y4846D01*
X44110Y4780D01*
X44150Y4721D01*
X44206Y4669D01*
X44278Y4626D01*
X44366Y4591D01*
X44470Y4563D01*
X44587Y4544D01*
X44704Y4563D01*
X44807Y4591D01*
X44895Y4626D01*
X44967Y4669D01*
X45023Y4721D01*
X45063Y4780D01*
X45087Y4846D01*
X45095Y4921D01*
Y3347D01*
D02*
G37*
G36*
X75582Y5535D02*
X75606Y5469D01*
X75646Y5409D01*
X75702Y5358D01*
X75774Y5315D01*
X75862Y5280D01*
X75889Y5272D01*
X75895Y5275D01*
Y5271D01*
X75966Y5252D01*
X76086Y5232D01*
X76222Y5221D01*
X76373Y5217D01*
Y4429D01*
X76222Y4425D01*
X76086Y4413D01*
X75966Y4394D01*
X75895Y4375D01*
Y4371D01*
X75889Y4373D01*
X75862Y4366D01*
X75774Y4331D01*
X75702Y4287D01*
X75646Y4236D01*
X75606Y4177D01*
X75582Y4110D01*
X75574Y4035D01*
Y4417D01*
X75307Y4427D01*
X75020Y4429D01*
Y5217D01*
X75171Y5217D01*
X75574Y5244D01*
Y5610D01*
X75582Y5535D01*
D02*
G37*
G36*
X38631Y2200D02*
X38570Y2235D01*
X38502Y2267D01*
X38425Y2295D01*
X38339Y2319D01*
X38245Y2340D01*
X38143Y2357D01*
X37912Y2379D01*
X37785Y2385D01*
X37648Y2387D01*
X37603Y3174D01*
X37767Y3178D01*
X37912Y3190D01*
X38038Y3209D01*
X38146Y3237D01*
X38235Y3272D01*
X38306Y3316D01*
X38358Y3367D01*
X38391Y3426D01*
X38406Y3493D01*
X38402Y3568D01*
X38631Y2200D01*
D02*
G37*
G36*
X36136Y3280D02*
X36193Y3258D01*
X36262Y3238D01*
X36342Y3221D01*
X36435Y3207D01*
X36655Y3186D01*
X36923Y3175D01*
X37074Y3174D01*
X37241Y2387D01*
X37119Y2383D01*
X36998Y2372D01*
X36879Y2355D01*
X36761Y2330D01*
X36645Y2297D01*
X36531Y2258D01*
X36419Y2212D01*
X36308Y2158D01*
X36199Y2097D01*
X36091Y2030D01*
Y3305D01*
X36136Y3280D01*
D02*
G37*
%LPC*%
G36*
X67716Y29748D02*
X64567D01*
X64106Y29656D01*
X63715Y29395D01*
X63548D01*
X63158Y29656D01*
X62697Y29748D01*
X59547D01*
X59087Y29656D01*
X58696Y29395D01*
X58435Y29004D01*
X58343Y28543D01*
Y23622D01*
X58435Y23161D01*
X58696Y22771D01*
Y22308D01*
X58435Y21918D01*
X58343Y21457D01*
Y16535D01*
X58435Y16075D01*
X58696Y15684D01*
X58794Y15222D01*
X58721Y15112D01*
X58533Y14831D01*
X58442Y14370D01*
Y9449D01*
X58533Y8988D01*
X58685Y8761D01*
X58756Y8415D01*
X58685Y8069D01*
X58533Y7843D01*
X58442Y7382D01*
Y2461D01*
X58533Y2000D01*
X58794Y1609D01*
X59185Y1348D01*
X59646Y1256D01*
X62795D01*
X63256Y1348D01*
X63647Y1609D01*
X63715D01*
X64106Y1348D01*
X64567Y1256D01*
X67716D01*
X68177Y1348D01*
X68568Y1609D01*
X68829Y2000D01*
X68921Y2461D01*
Y7382D01*
X68829Y7843D01*
X68678Y8069D01*
X68606Y8415D01*
X68678Y8761D01*
X68829Y8988D01*
X68921Y9449D01*
Y14370D01*
X68829Y14831D01*
X68568Y15222D01*
Y15684D01*
X68829Y16075D01*
X68921Y16535D01*
Y21457D01*
X68829Y21918D01*
X68568Y22308D01*
Y22771D01*
X68829Y23161D01*
X68921Y23622D01*
Y28543D01*
X68829Y29004D01*
X68568Y29395D01*
X68177Y29656D01*
X67716Y29748D01*
D02*
G37*
G36*
X32500Y30849D02*
X31661D01*
Y28650D01*
X33861D01*
Y29488D01*
X33757Y30009D01*
X33462Y30450D01*
X33021Y30745D01*
X32500Y30849D01*
D02*
G37*
G36*
X30661D02*
X29823D01*
X29302Y30745D01*
X28861Y30450D01*
X28566Y30009D01*
X28462Y29488D01*
Y28650D01*
X30661D01*
Y30849D01*
D02*
G37*
G36*
X33861Y27650D02*
X28462D01*
Y26811D01*
X28566Y26290D01*
X28819Y25911D01*
X28664Y25678D01*
X28560Y25157D01*
Y24319D01*
X33959D01*
Y25157D01*
X33856Y25678D01*
X33602Y26058D01*
X33757Y26290D01*
X33861Y26811D01*
Y27650D01*
D02*
G37*
%LPD*%
G36*
X64190Y24409D02*
X64182Y24484D01*
X64158Y24551D01*
X64118Y24610D01*
X64062Y24661D01*
X63990Y24705D01*
X63902Y24740D01*
X63798Y24768D01*
X63678Y24788D01*
X63632Y24791D01*
X63586Y24788D01*
X63466Y24768D01*
X63362Y24740D01*
X63274Y24705D01*
X63202Y24661D01*
X63146Y24610D01*
X63106Y24551D01*
X63082Y24484D01*
X63074Y24409D01*
Y25984D01*
X63082Y25910D01*
X63106Y25843D01*
X63146Y25784D01*
X63202Y25732D01*
X63274Y25689D01*
X63362Y25654D01*
X63466Y25626D01*
X63586Y25606D01*
X63632Y25602D01*
X63678Y25606D01*
X63798Y25626D01*
X63902Y25654D01*
X63990Y25689D01*
X64062Y25732D01*
X64118Y25784D01*
X64158Y25843D01*
X64182Y25910D01*
X64190Y25984D01*
Y24409D01*
D02*
G37*
G36*
Y17618D02*
X64182Y17693D01*
X64158Y17760D01*
X64118Y17819D01*
X64062Y17870D01*
X63990Y17913D01*
X63902Y17949D01*
X63798Y17976D01*
X63678Y17996D01*
X63632Y18000D01*
X63586Y17996D01*
X63466Y17976D01*
X63362Y17949D01*
X63274Y17913D01*
X63202Y17870D01*
X63146Y17819D01*
X63106Y17760D01*
X63082Y17693D01*
X63074Y17618D01*
Y19193D01*
X63082Y19118D01*
X63106Y19051D01*
X63146Y18992D01*
X63202Y18941D01*
X63274Y18898D01*
X63362Y18862D01*
X63466Y18835D01*
X63586Y18815D01*
X63632Y18811D01*
X63678Y18815D01*
X63798Y18835D01*
X63902Y18862D01*
X63990Y18898D01*
X64062Y18941D01*
X64118Y18992D01*
X64158Y19051D01*
X64182Y19118D01*
X64190Y19193D01*
Y17618D01*
D02*
G37*
G36*
Y10827D02*
X64182Y10902D01*
X64158Y10969D01*
X64118Y11028D01*
X64062Y11079D01*
X63990Y11122D01*
X63902Y11157D01*
X63798Y11185D01*
X63681Y11204D01*
X63564Y11185D01*
X63460Y11157D01*
X63372Y11122D01*
X63301Y11079D01*
X63244Y11028D01*
X63204Y10969D01*
X63181Y10902D01*
X63173Y10827D01*
Y12402D01*
X63181Y12327D01*
X63204Y12260D01*
X63244Y12201D01*
X63301Y12150D01*
X63372Y12106D01*
X63460Y12071D01*
X63564Y12043D01*
X63681Y12024D01*
X63798Y12043D01*
X63902Y12071D01*
X63990Y12106D01*
X64062Y12150D01*
X64118Y12201D01*
X64158Y12260D01*
X64182Y12327D01*
X64190Y12402D01*
Y10827D01*
D02*
G37*
G36*
Y4134D02*
X64182Y4209D01*
X64158Y4276D01*
X64118Y4335D01*
X64062Y4386D01*
X63990Y4429D01*
X63902Y4465D01*
X63798Y4492D01*
X63681Y4511D01*
X63564Y4492D01*
X63460Y4465D01*
X63372Y4429D01*
X63301Y4386D01*
X63244Y4335D01*
X63204Y4276D01*
X63181Y4209D01*
X63173Y4134D01*
Y5709D01*
X63181Y5634D01*
X63204Y5567D01*
X63244Y5508D01*
X63301Y5457D01*
X63372Y5413D01*
X63460Y5378D01*
X63564Y5350D01*
X63681Y5331D01*
X63798Y5350D01*
X63902Y5378D01*
X63990Y5413D01*
X64062Y5457D01*
X64118Y5508D01*
X64158Y5567D01*
X64182Y5634D01*
X64190Y5709D01*
Y4134D01*
D02*
G37*
D12*
X73721Y4823D02*
X76575D01*
X73622Y4921D02*
X73721Y4823D01*
Y11516D02*
X76575D01*
X73622Y11614D02*
X73721Y11516D01*
Y18307D02*
X76575D01*
X73622Y18406D02*
X73721Y18307D01*
Y25098D02*
X76575D01*
X73622Y25197D02*
X73721Y25098D01*
X24941Y28150D02*
X24990Y28100D01*
X24606Y28484D02*
X24941Y28150D01*
X24606Y28484D02*
Y30906D01*
X3740Y21457D02*
X4331D01*
X1969D02*
X3740D01*
X4429Y22146D01*
X3660Y21377D02*
X3740Y21457D01*
X3660Y18781D02*
Y21377D01*
X4331Y21457D02*
X4429Y21358D01*
X1945Y7199D02*
X4710D01*
X4921Y6988D01*
X1575Y16696D02*
X3660Y18781D01*
X61221Y4921D02*
X66142D01*
X61221Y11614D02*
X66142D01*
X61122Y18406D02*
X66142D01*
X61122Y25197D02*
X66142D01*
X7776Y16437D02*
Y20965D01*
X4921Y13681D02*
X5118D01*
X6693Y15256D01*
Y15354D01*
X7776Y16437D01*
X7365Y10532D02*
X9501Y12667D01*
X1990Y10532D02*
X7365D01*
X1575Y10947D02*
X1990Y10532D01*
X1575Y10947D02*
Y16696D01*
X4921Y6988D02*
X6102Y8169D01*
X7488D02*
X9486Y10167D01*
X6102Y8169D02*
X7488D01*
X13947Y28573D02*
X14173Y28346D01*
X4695Y28573D02*
X13947D01*
X4429Y28839D02*
X4695Y28573D01*
X47933Y4134D02*
X52953D01*
X53740Y4921D01*
X41240Y4134D02*
X47933D01*
X32972Y2667D02*
X33085Y2780D01*
X39887D01*
X41240Y4134D01*
X47933Y11614D02*
X53740D01*
X41240D02*
X47933D01*
X53740D02*
X53740Y11614D01*
X47835Y24213D02*
X47884Y24262D01*
X52707D01*
X53642Y25197D01*
X41142Y24213D02*
X47835D01*
X32972Y20167D02*
X35827D01*
X38297Y22638D01*
X39567D01*
X41142Y24213D01*
X47835Y16732D02*
X52067D01*
X53642Y18307D01*
Y18406D01*
X41142Y16732D02*
X47835D01*
X32972Y17667D02*
X40207D01*
X41142Y16732D01*
X20522Y28297D02*
X20669Y28150D01*
X20472Y28346D02*
X20522Y28297D01*
Y23770D02*
Y28297D01*
Y23770D02*
X20571Y23720D01*
X20669Y28150D02*
X24941D01*
X32972Y5167D02*
X35971D01*
X39173Y8369D01*
Y10040D01*
X40748Y11614D01*
X41240D01*
X9486Y10167D02*
X12500D01*
X9501Y12667D02*
X12500D01*
X7776Y20965D02*
X10531Y23720D01*
X14272D01*
D14*
X76575Y4823D02*
D03*
Y11516D02*
D03*
Y18307D02*
D03*
Y25098D02*
D03*
X1969Y21457D02*
D03*
X1945Y7199D02*
D03*
D15*
X24606Y30906D02*
D03*
D16*
X32972Y2667D02*
D03*
Y5167D02*
D03*
Y7667D02*
D03*
Y10167D02*
D03*
Y12667D02*
D03*
Y15167D02*
D03*
Y17667D02*
D03*
Y20167D02*
D03*
X12500Y2667D02*
D03*
Y5167D02*
D03*
Y7667D02*
D03*
Y10167D02*
D03*
Y12667D02*
D03*
Y15167D02*
D03*
Y17667D02*
D03*
Y20167D02*
D03*
D17*
X20571Y23720D02*
D03*
X14272D02*
D03*
X20472Y28346D02*
D03*
X14173D02*
D03*
D18*
X53642Y18996D02*
D03*
X61122D02*
D03*
X66142D02*
D03*
X73622D02*
D03*
X66142Y26083D02*
D03*
X73622D02*
D03*
X53740Y4921D02*
D03*
X61221D02*
D03*
X66142D02*
D03*
X73622D02*
D03*
X53740Y11909D02*
D03*
X61221D02*
D03*
X66142D02*
D03*
X73622D02*
D03*
X53642Y26083D02*
D03*
X61122D02*
D03*
D19*
X47835Y16732D02*
D03*
Y24213D02*
D03*
X41142Y16732D02*
D03*
Y24213D02*
D03*
X41240Y4134D02*
D03*
Y11614D02*
D03*
X47933Y4134D02*
D03*
Y11614D02*
D03*
D20*
X4921Y13681D02*
D03*
Y6988D02*
D03*
X4429Y28051D02*
D03*
Y21358D02*
D03*
D21*
X25039Y23819D02*
D03*
X31260D02*
D03*
X24941Y28150D02*
D03*
X31161D02*
D03*
D30*
X12813Y31372D02*
D03*
D31*
X51083Y31398D02*
D03*
D32*
X35934Y774D02*
D03*
D33*
X1645Y2614D02*
D03*
D34*
X25039Y19545D02*
X29322Y15262D01*
X24990Y23868D02*
X25039Y23819D01*
X24990Y23868D02*
Y28100D01*
X25039Y19545D02*
Y23819D01*
D35*
X32935Y15205D02*
X32972Y15167D01*
X29322Y15262D02*
X29885D01*
X29941Y15205D02*
X32935D01*
X29885Y15262D02*
X29941Y15205D01*
M02*
