G04*
G04 #@! TF.GenerationSoftware,Altium Limited,Altium Designer,20.2.7 (254)*
G04*
G04 Layer_Color=7674933*
%FSLAX25Y25*%
%MOIN*%
G70*
G04*
G04 #@! TF.SameCoordinates,6E79BD04-F147-48ED-A575-C252E21D9338*
G04*
G04*
G04 #@! TF.FilePolarity,Negative*
G04*
G01*
G75*
%ADD22O,0.02520X0.01535*%
%ADD23O,0.01535X0.02520*%
%ADD24O,0.07638X0.01929*%
G04:AMPARAMS|DCode=25|XSize=33.07mil|YSize=41.73mil|CornerRadius=5.51mil|HoleSize=0mil|Usage=FLASHONLY|Rotation=180.000|XOffset=0mil|YOffset=0mil|HoleType=Round|Shape=RoundedRectangle|*
%AMROUNDEDRECTD25*
21,1,0.03307,0.03071,0,0,180.0*
21,1,0.02205,0.04173,0,0,180.0*
1,1,0.01102,-0.01102,0.01535*
1,1,0.01102,0.01102,0.01535*
1,1,0.01102,0.01102,-0.01535*
1,1,0.01102,-0.01102,-0.01535*
%
%ADD25ROUNDEDRECTD25*%
G04:AMPARAMS|DCode=26|XSize=44.88mil|YSize=62.6mil|CornerRadius=6.69mil|HoleSize=0mil|Usage=FLASHONLY|Rotation=0.000|XOffset=0mil|YOffset=0mil|HoleType=Round|Shape=RoundedRectangle|*
%AMROUNDEDRECTD26*
21,1,0.04488,0.04921,0,0,0.0*
21,1,0.03150,0.06260,0,0,0.0*
1,1,0.01339,0.01575,-0.02461*
1,1,0.01339,-0.01575,-0.02461*
1,1,0.01339,-0.01575,0.02461*
1,1,0.01339,0.01575,0.02461*
%
%ADD26ROUNDEDRECTD26*%
G04:AMPARAMS|DCode=27|XSize=44.88mil|YSize=62.6mil|CornerRadius=6.69mil|HoleSize=0mil|Usage=FLASHONLY|Rotation=90.000|XOffset=0mil|YOffset=0mil|HoleType=Round|Shape=RoundedRectangle|*
%AMROUNDEDRECTD27*
21,1,0.04488,0.04921,0,0,90.0*
21,1,0.03150,0.06260,0,0,90.0*
1,1,0.01339,0.02461,0.01575*
1,1,0.01339,0.02461,-0.01575*
1,1,0.01339,-0.02461,-0.01575*
1,1,0.01339,-0.02461,0.01575*
%
%ADD27ROUNDEDRECTD27*%
G04:AMPARAMS|DCode=28|XSize=44.88mil|YSize=48.82mil|CornerRadius=6.69mil|HoleSize=0mil|Usage=FLASHONLY|Rotation=270.000|XOffset=0mil|YOffset=0mil|HoleType=Round|Shape=RoundedRectangle|*
%AMROUNDEDRECTD28*
21,1,0.04488,0.03543,0,0,270.0*
21,1,0.03150,0.04882,0,0,270.0*
1,1,0.01339,-0.01772,-0.01575*
1,1,0.01339,-0.01772,0.01575*
1,1,0.01339,0.01772,0.01575*
1,1,0.01339,0.01772,-0.01575*
%
%ADD28ROUNDEDRECTD28*%
G04:AMPARAMS|DCode=29|XSize=38.98mil|YSize=38.98mil|CornerRadius=6.1mil|HoleSize=0mil|Usage=FLASHONLY|Rotation=0.000|XOffset=0mil|YOffset=0mil|HoleType=Round|Shape=RoundedRectangle|*
%AMROUNDEDRECTD29*
21,1,0.03898,0.02677,0,0,0.0*
21,1,0.02677,0.03898,0,0,0.0*
1,1,0.01221,0.01339,-0.01339*
1,1,0.01221,-0.01339,-0.01339*
1,1,0.01221,-0.01339,0.01339*
1,1,0.01221,0.01339,0.01339*
%
%ADD29ROUNDEDRECTD29*%
D22*
X76575Y4823D02*
D03*
Y11516D02*
D03*
Y18307D02*
D03*
Y25098D02*
D03*
X1969Y21457D02*
D03*
X1945Y7199D02*
D03*
D23*
X24606Y30906D02*
D03*
D24*
X32972Y2667D02*
D03*
Y5167D02*
D03*
Y7667D02*
D03*
Y10167D02*
D03*
Y12667D02*
D03*
Y15167D02*
D03*
Y17667D02*
D03*
Y20167D02*
D03*
X12500Y2667D02*
D03*
Y5167D02*
D03*
Y7667D02*
D03*
Y10167D02*
D03*
Y12667D02*
D03*
Y15167D02*
D03*
Y17667D02*
D03*
Y20167D02*
D03*
D25*
X20571Y23720D02*
D03*
X14272D02*
D03*
X20472Y28346D02*
D03*
X14173D02*
D03*
D26*
X53642Y18996D02*
D03*
X61122D02*
D03*
X66142D02*
D03*
X73622D02*
D03*
X66142Y26083D02*
D03*
X73622D02*
D03*
X53740Y4921D02*
D03*
X61221D02*
D03*
X66142D02*
D03*
X73622D02*
D03*
X53740Y11909D02*
D03*
X61221D02*
D03*
X66142D02*
D03*
X73622D02*
D03*
X53642Y26083D02*
D03*
X61122D02*
D03*
D27*
X47835Y16732D02*
D03*
Y24213D02*
D03*
X41142Y16732D02*
D03*
Y24213D02*
D03*
X41240Y4134D02*
D03*
Y11614D02*
D03*
X47933Y4134D02*
D03*
Y11614D02*
D03*
D28*
X4921Y13681D02*
D03*
Y6988D02*
D03*
X4429Y28051D02*
D03*
Y21358D02*
D03*
D29*
X25039Y23819D02*
D03*
X31260D02*
D03*
X24941Y28150D02*
D03*
X31161D02*
D03*
M02*
