G04*
G04 #@! TF.GenerationSoftware,Altium Limited,Altium Designer,20.0.10 (225)*
G04*
G04 Layer_Physical_Order=2*
G04 Layer_Color=16711680*
%FSLAX25Y25*%
%MOIN*%
G70*
G01*
G75*
%ADD10C,0.01575*%
%ADD11C,0.00984*%
%ADD12C,0.00787*%
G04:AMPARAMS|DCode=35|XSize=7.87mil|YSize=294.88mil|CornerRadius=3.94mil|HoleSize=0mil|Usage=FLASHONLY|Rotation=180.000|XOffset=0mil|YOffset=0mil|HoleType=Round|Shape=RoundedRectangle|*
%AMROUNDEDRECTD35*
21,1,0.00787,0.28701,0,0,180.0*
21,1,0.00000,0.29488,0,0,180.0*
1,1,0.00787,0.00000,0.14350*
1,1,0.00787,0.00000,0.14350*
1,1,0.00787,0.00000,-0.14350*
1,1,0.00787,0.00000,-0.14350*
%
%ADD35ROUNDEDRECTD35*%
G04:AMPARAMS|DCode=36|XSize=7.87mil|YSize=86.22mil|CornerRadius=3.94mil|HoleSize=0mil|Usage=FLASHONLY|Rotation=135.000|XOffset=0mil|YOffset=0mil|HoleType=Round|Shape=RoundedRectangle|*
%AMROUNDEDRECTD36*
21,1,0.00787,0.07835,0,0,135.0*
21,1,0.00000,0.08622,0,0,135.0*
1,1,0.00787,0.02770,0.02770*
1,1,0.00787,0.02770,0.02770*
1,1,0.00787,-0.02770,-0.02770*
1,1,0.00787,-0.02770,-0.02770*
%
%ADD36ROUNDEDRECTD36*%
G04:AMPARAMS|DCode=37|XSize=7.87mil|YSize=651.58mil|CornerRadius=3.94mil|HoleSize=0mil|Usage=FLASHONLY|Rotation=270.000|XOffset=0mil|YOffset=0mil|HoleType=Round|Shape=RoundedRectangle|*
%AMROUNDEDRECTD37*
21,1,0.00787,0.64370,0,0,270.0*
21,1,0.00000,0.65158,0,0,270.0*
1,1,0.00787,-0.32185,0.00000*
1,1,0.00787,-0.32185,0.00000*
1,1,0.00787,0.32185,0.00000*
1,1,0.00787,0.32185,0.00000*
%
%ADD37ROUNDEDRECTD37*%
%ADD38C,0.05906*%
%ADD39R,0.05906X0.05906*%
%ADD40C,0.02362*%
G04:AMPARAMS|DCode=41|XSize=9.84mil|YSize=19.68mil|CornerRadius=4.92mil|HoleSize=0mil|Usage=FLASHONLY|Rotation=180.000|XOffset=0mil|YOffset=0mil|HoleType=Round|Shape=RoundedRectangle|*
%AMROUNDEDRECTD41*
21,1,0.00984,0.00984,0,0,180.0*
21,1,0.00000,0.01968,0,0,180.0*
1,1,0.00984,0.00000,0.00492*
1,1,0.00984,0.00000,0.00492*
1,1,0.00984,0.00000,-0.00492*
1,1,0.00984,0.00000,-0.00492*
%
%ADD41ROUNDEDRECTD41*%
G04:AMPARAMS|DCode=42|XSize=7.87mil|YSize=368.9mil|CornerRadius=3.94mil|HoleSize=0mil|Usage=FLASHONLY|Rotation=0.000|XOffset=0mil|YOffset=0mil|HoleType=Round|Shape=RoundedRectangle|*
%AMROUNDEDRECTD42*
21,1,0.00787,0.36102,0,0,0.0*
21,1,0.00000,0.36890,0,0,0.0*
1,1,0.00787,0.00000,-0.18051*
1,1,0.00787,0.00000,-0.18051*
1,1,0.00787,0.00000,0.18051*
1,1,0.00787,0.00000,0.18051*
%
%ADD42ROUNDEDRECTD42*%
G04:AMPARAMS|DCode=43|XSize=7.87mil|YSize=31.5mil|CornerRadius=3.94mil|HoleSize=0mil|Usage=FLASHONLY|Rotation=225.000|XOffset=0mil|YOffset=0mil|HoleType=Round|Shape=RoundedRectangle|*
%AMROUNDEDRECTD43*
21,1,0.00787,0.02362,0,0,225.0*
21,1,0.00000,0.03150,0,0,225.0*
1,1,0.00787,-0.00835,0.00835*
1,1,0.00787,-0.00835,0.00835*
1,1,0.00787,0.00835,-0.00835*
1,1,0.00787,0.00835,-0.00835*
%
%ADD43ROUNDEDRECTD43*%
G36*
X11258Y30386D02*
X11130Y30235D01*
X11017Y30051D01*
X10917Y29833D01*
X10832Y29582D01*
X10760Y29297D01*
X10702Y28979D01*
X10658Y28627D01*
X10612Y27824D01*
X10610Y27372D01*
X7687Y30295D01*
X8139Y30297D01*
X8942Y30344D01*
X9294Y30387D01*
X9612Y30445D01*
X9896Y30517D01*
X10148Y30603D01*
X10366Y30702D01*
X10550Y30816D01*
X10701Y30943D01*
X11258Y30386D01*
D02*
G37*
G36*
X27628Y24390D02*
X27176Y24388D01*
X26373Y24341D01*
X26021Y24297D01*
X25703Y24240D01*
X25418Y24168D01*
X25167Y24082D01*
X24949Y23983D01*
X24765Y23869D01*
X24614Y23742D01*
X24057Y24299D01*
X24184Y24450D01*
X24298Y24634D01*
X24397Y24852D01*
X24483Y25103D01*
X24554Y25388D01*
X24612Y25706D01*
X24656Y26058D01*
X24702Y26861D01*
X24705Y27313D01*
X27628Y24390D01*
D02*
G37*
G36*
X66479Y22303D02*
X66465Y22311D01*
X66437Y22317D01*
X66396Y22323D01*
X66273Y22333D01*
X65868Y22342D01*
X65734Y22343D01*
Y23917D01*
X66479Y23957D01*
Y22303D01*
D02*
G37*
G36*
X70866Y40549D02*
X70866Y4429D01*
X47668D01*
Y6520D01*
X62673Y21524D01*
X66183D01*
X66555Y21276D01*
X67323Y21123D01*
X68091Y21276D01*
X68742Y21711D01*
X69177Y22362D01*
X69330Y23130D01*
X69177Y23898D01*
X68742Y24549D01*
X68091Y24984D01*
X67323Y25137D01*
X66555Y24984D01*
X66198Y24746D01*
X66005Y24736D01*
X62008D01*
X61393Y24613D01*
X60872Y24265D01*
X60872Y24265D01*
X44927Y8320D01*
X44579Y7800D01*
X44457Y7185D01*
X44457Y7185D01*
Y4429D01*
X43135D01*
Y6952D01*
X43036Y7451D01*
X42753Y7875D01*
X38962Y11666D01*
Y12757D01*
X38988Y12879D01*
X39038Y13028D01*
X39118Y13202D01*
X39229Y13400D01*
X39373Y13619D01*
X39545Y13848D01*
X40014Y14384D01*
X40226Y14599D01*
X40325Y14675D01*
X40924Y15456D01*
X41301Y16366D01*
X41430Y17343D01*
X41301Y18319D01*
X40924Y19229D01*
X40325Y20010D01*
X39544Y20609D01*
X38634Y20986D01*
X37657Y21115D01*
X36681Y20986D01*
X35771Y20609D01*
X34990Y20010D01*
X34390Y19229D01*
X34013Y18319D01*
X33885Y17343D01*
X34013Y16366D01*
X34390Y15456D01*
X34990Y14675D01*
X35089Y14599D01*
X35301Y14384D01*
X35769Y13848D01*
X35941Y13619D01*
X36086Y13400D01*
X36197Y13202D01*
X36276Y13028D01*
X36327Y12879D01*
X36353Y12757D01*
Y11125D01*
X36452Y10626D01*
X36735Y10203D01*
X40526Y6412D01*
Y4429D01*
X38317D01*
X29323Y13423D01*
X29286Y13553D01*
X29426Y14027D01*
X29544Y14075D01*
X30325Y14675D01*
X30924Y15456D01*
X31301Y16366D01*
X31430Y17343D01*
X31301Y18319D01*
X30924Y19229D01*
X30325Y20010D01*
X29544Y20609D01*
X28634Y20986D01*
X27657Y21115D01*
X26681Y20986D01*
X26283Y20821D01*
X25999Y21245D01*
X26483Y21729D01*
X29921D01*
X29921Y21729D01*
X30382Y21821D01*
X30773Y22082D01*
X32643Y23952D01*
X32643Y23952D01*
X32904Y24342D01*
X32995Y24803D01*
X32995Y24803D01*
Y29055D01*
X32904Y29516D01*
X32643Y29906D01*
X32643Y29906D01*
X29709Y32840D01*
X29319Y33101D01*
X28858Y33193D01*
X28858Y33193D01*
X12303D01*
X12303Y33193D01*
X11842Y33101D01*
X11451Y32840D01*
X10088Y31476D01*
X10078Y31468D01*
X9987Y31412D01*
X9851Y31350D01*
X9669Y31288D01*
X9442Y31230D01*
X9172Y31181D01*
X8869Y31144D01*
X8113Y31100D01*
X7783Y31098D01*
X7657Y31115D01*
X6681Y30986D01*
X5771Y30610D01*
X4990Y30010D01*
X4390Y29229D01*
X4013Y28319D01*
X3885Y27343D01*
X4013Y26366D01*
X4390Y25456D01*
X4990Y24675D01*
X5771Y24076D01*
X6681Y23699D01*
X7657Y23570D01*
X8634Y23699D01*
X9544Y24076D01*
X10325Y24675D01*
X10924Y25456D01*
X11301Y26366D01*
X11430Y27343D01*
X11413Y27468D01*
X11415Y27799D01*
X11458Y28554D01*
X11496Y28857D01*
X11545Y29127D01*
X11602Y29354D01*
X11664Y29536D01*
X11727Y29672D01*
X11783Y29763D01*
X11791Y29773D01*
X12802Y30784D01*
X14854D01*
X15023Y30284D01*
X14849Y30150D01*
X14218Y29328D01*
X13822Y28370D01*
X13790Y28130D01*
X21525D01*
X21493Y28370D01*
X21096Y29328D01*
X20465Y30150D01*
X20291Y30284D01*
X20461Y30784D01*
X25177D01*
X25347Y30284D01*
X24990Y30010D01*
X24390Y29229D01*
X24013Y28319D01*
X23885Y27343D01*
X23901Y27217D01*
X23900Y26886D01*
X23856Y26131D01*
X23818Y25828D01*
X23769Y25558D01*
X23712Y25331D01*
X23650Y25149D01*
X23588Y25013D01*
X23532Y24922D01*
X23524Y24912D01*
X20940Y22328D01*
X20679Y21937D01*
X20587Y21476D01*
X20587Y21476D01*
Y20687D01*
X20087Y20441D01*
X19643Y20782D01*
X18685Y21178D01*
X18445Y21210D01*
Y17343D01*
Y13475D01*
X18685Y13507D01*
X19643Y13904D01*
X20174Y14311D01*
X20279Y14317D01*
X20789Y14172D01*
X20940Y13946D01*
X27634Y7252D01*
Y4429D01*
X24734D01*
X15893Y13271D01*
X16176Y13695D01*
X16630Y13507D01*
X16870Y13475D01*
Y16555D01*
X13790D01*
X13822Y16315D01*
X14009Y15861D01*
X13586Y15578D01*
X11903Y17261D01*
X11512Y17522D01*
X11397Y17545D01*
Y21083D01*
X3917D01*
Y13602D01*
X11397D01*
Y13707D01*
X11859Y13898D01*
X20866Y4891D01*
X20675Y4429D01*
X2657D01*
X434Y6652D01*
Y35113D01*
X5870Y40549D01*
X70433Y40971D01*
X70866Y40549D01*
D02*
G37*
G36*
X10591Y16851D02*
X10605Y16841D01*
X10628Y16832D01*
X10661Y16824D01*
X10702Y16818D01*
X10814Y16808D01*
X10963Y16803D01*
X11051Y16803D01*
Y16015D01*
X10963Y16015D01*
X10661Y15994D01*
X10628Y15986D01*
X10605Y15977D01*
X10591Y15967D01*
X10586Y15956D01*
Y16862D01*
X10591Y16851D01*
D02*
G37*
G36*
X28681Y14559D02*
X28548Y14475D01*
X28432Y14379D01*
X28331Y14271D01*
X28245Y14153D01*
X28175Y14022D01*
X28121Y13880D01*
X28082Y13727D01*
X28059Y13562D01*
X28051Y13386D01*
X27264D01*
X27256Y13562D01*
X27233Y13727D01*
X27194Y13880D01*
X27139Y14022D01*
X27069Y14153D01*
X26984Y14271D01*
X26883Y14379D01*
X26766Y14475D01*
X26634Y14559D01*
X26486Y14632D01*
X28828D01*
X28681Y14559D01*
D02*
G37*
G36*
X39425Y14930D02*
X38921Y14354D01*
X38716Y14081D01*
X38543Y13818D01*
X38401Y13566D01*
X38291Y13324D01*
X38212Y13092D01*
X38165Y12871D01*
X38149Y12659D01*
X37165D01*
X37149Y12871D01*
X37102Y13092D01*
X37023Y13324D01*
X36913Y13566D01*
X36771Y13818D01*
X36598Y14081D01*
X36393Y14354D01*
X35890Y14930D01*
X35590Y15234D01*
X39724D01*
X39425Y14930D01*
D02*
G37*
G36*
X37894Y2979D02*
X37941Y2279D01*
X37952Y2254D01*
X37048D01*
X37059Y2279D01*
X37069Y2317D01*
X37078Y2370D01*
X37092Y2517D01*
X37104Y2842D01*
X37106Y3129D01*
X37894D01*
X37894Y2979D01*
D02*
G37*
G36*
X33564D02*
X33610Y2279D01*
X33622Y2254D01*
X32717D01*
X32728Y2279D01*
X32738Y2317D01*
X32747Y2370D01*
X32761Y2517D01*
X32773Y2842D01*
X32776Y3129D01*
X33563D01*
X33564Y2979D01*
D02*
G37*
G36*
X29233D02*
X29280Y2279D01*
X29291Y2254D01*
X28386D01*
X28397Y2279D01*
X28407Y2317D01*
X28416Y2370D01*
X28430Y2517D01*
X28442Y2842D01*
X28445Y3129D01*
X29232D01*
X29233Y2979D01*
D02*
G37*
%LPC*%
G36*
X47657Y31115D02*
X46681Y30986D01*
X45771Y30610D01*
X44990Y30010D01*
X44390Y29229D01*
X44013Y28319D01*
X43885Y27343D01*
X44013Y26366D01*
X44390Y25456D01*
X44990Y24675D01*
X45771Y24076D01*
X46681Y23699D01*
X47657Y23570D01*
X48634Y23699D01*
X49543Y24076D01*
X50325Y24675D01*
X50924Y25456D01*
X51301Y26366D01*
X51430Y27343D01*
X51301Y28319D01*
X50924Y29229D01*
X50325Y30010D01*
X49543Y30610D01*
X48634Y30986D01*
X47657Y31115D01*
D02*
G37*
G36*
X37657D02*
X36681Y30986D01*
X35771Y30610D01*
X34990Y30010D01*
X34390Y29229D01*
X34013Y28319D01*
X33885Y27343D01*
X34013Y26366D01*
X34390Y25456D01*
X34990Y24675D01*
X35771Y24076D01*
X36681Y23699D01*
X37657Y23570D01*
X38634Y23699D01*
X39544Y24076D01*
X40325Y24675D01*
X40924Y25456D01*
X41301Y26366D01*
X41430Y27343D01*
X41301Y28319D01*
X40924Y29229D01*
X40325Y30010D01*
X39544Y30610D01*
X38634Y30986D01*
X37657Y31115D01*
D02*
G37*
G36*
X21525Y26555D02*
X18445D01*
Y23475D01*
X18685Y23507D01*
X19643Y23904D01*
X20465Y24535D01*
X21096Y25357D01*
X21493Y26315D01*
X21525Y26555D01*
D02*
G37*
G36*
X16870D02*
X13790D01*
X13822Y26315D01*
X14218Y25357D01*
X14849Y24535D01*
X15672Y23904D01*
X16630Y23507D01*
X16870Y23475D01*
Y26555D01*
D02*
G37*
G36*
Y21210D02*
X16630Y21178D01*
X15672Y20782D01*
X14849Y20150D01*
X14218Y19328D01*
X13822Y18370D01*
X13790Y18130D01*
X16870D01*
Y21210D01*
D02*
G37*
G36*
X47657Y21115D02*
X46681Y20986D01*
X45771Y20609D01*
X44990Y20010D01*
X44390Y19229D01*
X44013Y18319D01*
X43885Y17343D01*
X44013Y16366D01*
X44390Y15456D01*
X44990Y14675D01*
X45771Y14075D01*
X46681Y13699D01*
X47657Y13570D01*
X48634Y13699D01*
X49543Y14075D01*
X50325Y14675D01*
X50924Y15456D01*
X51301Y16366D01*
X51430Y17343D01*
X51301Y18319D01*
X50924Y19229D01*
X50325Y20010D01*
X49543Y20609D01*
X48634Y20986D01*
X47657Y21115D01*
D02*
G37*
%LPD*%
D10*
X46063Y7185D02*
X62008Y23130D01*
X46063Y3642D02*
Y7185D01*
X62008Y23130D02*
X67323D01*
D11*
X46161Y1575D02*
Y3543D01*
X46063Y3642D02*
X46161Y3543D01*
X37657Y11125D02*
Y17343D01*
Y11125D02*
X41831Y6952D01*
Y1575D02*
Y6952D01*
D12*
X24508Y1575D02*
Y2953D01*
X7657Y17343D02*
X8591Y16409D01*
X11051D01*
X24508Y2953D01*
X21791Y14798D02*
X28839Y7750D01*
X21791Y14798D02*
Y21476D01*
X28839Y1575D02*
Y7750D01*
X23523Y15293D02*
Y15650D01*
X33169Y1575D02*
Y5647D01*
X23425Y15748D02*
Y20374D01*
X23523Y15293D02*
X33169Y5647D01*
X23425Y15748D02*
X23523Y15650D01*
X27657Y13386D02*
Y17343D01*
X37500Y1575D02*
Y3543D01*
X27657Y13386D02*
X37500Y3543D01*
X23425Y20374D02*
X25984Y22933D01*
X29921D02*
X31791Y24803D01*
X25984Y22933D02*
X29921D01*
X31791Y24803D02*
Y29055D01*
X12303Y31988D02*
X28858D01*
X31791Y29055D01*
X7657Y27343D02*
X12303Y31988D01*
X21791Y21476D02*
X27657Y27343D01*
D35*
X886Y20955D02*
D03*
D36*
X3683Y38193D02*
D03*
D37*
X38664Y40971D02*
D03*
D38*
X47657Y27343D02*
D03*
Y17343D02*
D03*
X37657Y27343D02*
D03*
Y17343D02*
D03*
X27657Y27343D02*
D03*
Y17343D02*
D03*
X17657Y27343D02*
D03*
Y17343D02*
D03*
X7657Y27343D02*
D03*
D39*
Y17343D02*
D03*
D40*
X17716Y5610D02*
D03*
X22638Y10236D02*
D03*
X33169Y11713D02*
D03*
X42815Y11614D02*
D03*
X63386Y19587D02*
D03*
X53642Y24016D02*
D03*
X52657Y9646D02*
D03*
X62778Y11213D02*
D03*
X68110Y37992D02*
D03*
X22638Y37303D02*
D03*
X67323Y23130D02*
D03*
D41*
X46161Y1575D02*
D03*
X41831D02*
D03*
X37500D02*
D03*
X33169D02*
D03*
X28839D02*
D03*
X24508D02*
D03*
D42*
X70935Y22881D02*
D03*
D43*
X1764Y5717D02*
D03*
M02*
