G04*
G04 #@! TF.GenerationSoftware,Altium Limited,Altium Designer,20.0.10 (225)*
G04*
G04 Layer_Color=65535*
%FSLAX25Y25*%
%MOIN*%
G70*
G01*
G75*
%ADD10C,0.01575*%
%ADD11C,0.00984*%
%ADD12C,0.00787*%
%ADD13C,0.00800*%
%ADD14C,0.01968*%
%ADD15C,0.00669*%
D10*
X3985Y7579D02*
X3675Y8533D01*
X2864Y9123D01*
X1860D01*
X1049Y8533D01*
X739Y7579D01*
X1049Y6625D01*
X1860Y6035D01*
X2864D01*
X3675Y6625D01*
X3985Y7579D01*
D11*
X54823Y24902D02*
X54084Y25328D01*
Y24475D01*
X54823Y24902D01*
D12*
X6102Y41339D02*
X71287Y41339D01*
X394Y35630D02*
X6102Y41339D01*
X6402Y390D02*
X70763D01*
X394Y6398D02*
Y35630D01*
Y6398D02*
X6402Y390D01*
X70763D02*
X71291Y917D01*
X71287Y41339D02*
X71391Y41235D01*
X71291Y917D02*
X71391Y41235D01*
X2657Y12342D02*
X4724D01*
X2657D02*
Y32342D01*
X52657Y12342D02*
Y32342D01*
X10728Y12342D02*
X14626D01*
X20728D02*
X24626D01*
X30728D02*
X34626D01*
X40728D02*
X44626D01*
X10728Y32342D02*
X14626D01*
X20728D02*
X24626D01*
X30728D02*
X34626D01*
X40728D02*
X44626D01*
X2657D02*
X4724D01*
X50590D02*
X52657D01*
X50590Y12342D02*
X52657D01*
X60827Y22343D02*
Y25295D01*
X56594Y20276D02*
Y21752D01*
X62716Y17677D02*
Y17874D01*
X60039Y15000D02*
Y20433D01*
Y15000D02*
X62716Y17677D01*
X55708Y14331D02*
X57520D01*
X65354D02*
X67126D01*
X65354Y21063D02*
X67126D01*
X60039Y20551D02*
X62716Y17874D01*
X56594Y13484D02*
Y15157D01*
X62756Y15000D02*
Y20433D01*
X55708Y21063D02*
X57520D01*
X66437Y31772D02*
Y37579D01*
X54232Y31772D02*
Y37579D01*
X57086D01*
X63779D02*
X66437D01*
X54232Y9646D02*
X57185D01*
X63386Y10335D02*
Y13287D01*
D13*
X62500Y8563D02*
X64075Y8563D01*
X62496Y5627D02*
X64070Y5627D01*
D14*
X17421Y1575D02*
X37992D01*
D15*
X1083Y10728D02*
X2158D01*
X1621D01*
Y13956D01*
X1083Y13418D01*
X51948Y40571D02*
Y38472D01*
X52998Y39521D02*
X50899D01*
X53523Y35323D02*
Y37422D01*
X51948D01*
X52473Y36373D01*
Y35848D01*
X51948Y35323D01*
X50899D01*
X50374Y35848D01*
Y36898D01*
X50899Y37422D01*
X43352Y40669D02*
X43877Y40145D01*
Y39095D01*
X43352Y38570D01*
X42827D01*
X42303Y39095D01*
Y39620D01*
Y39095D01*
X41778Y38570D01*
X41253D01*
X40728Y39095D01*
Y40145D01*
X41253Y40669D01*
X40728Y37521D02*
X41253D01*
Y36996D01*
X40728D01*
Y37521D01*
X43352Y34897D02*
X43877Y34372D01*
Y33323D01*
X43352Y32798D01*
X42827D01*
X42303Y33323D01*
Y33847D01*
Y33323D01*
X41778Y32798D01*
X41253D01*
X40728Y33323D01*
Y34372D01*
X41253Y34897D01*
X23372Y39161D02*
X23897Y39686D01*
Y40735D01*
X23372Y41260D01*
X21273D01*
X20748Y40735D01*
Y39686D01*
X21273Y39161D01*
X22322D01*
Y40210D01*
X20748Y38111D02*
X23897D01*
X20748Y36012D01*
X23897D01*
Y34963D02*
X20748D01*
Y33388D01*
X21273Y32864D01*
X23372D01*
X23897Y33388D01*
Y34963D01*
X14054Y40965D02*
X10905D01*
Y39390D01*
X11430Y38866D01*
X13529D01*
X14054Y39390D01*
Y40965D01*
Y37816D02*
Y36766D01*
Y37291D01*
X10905D01*
Y37816D01*
Y36766D01*
X14054Y33618D02*
Y34667D01*
X13529Y35192D01*
X11430D01*
X10905Y34667D01*
Y33618D01*
X11430Y33093D01*
X13529D01*
X14054Y33618D01*
X33707Y39062D02*
X34231Y39587D01*
Y40637D01*
X33707Y41161D01*
X31607D01*
X31083Y40637D01*
Y39587D01*
X31607Y39062D01*
X34231Y38013D02*
X31083D01*
Y35914D01*
X34231Y34864D02*
X31083D01*
X32132D01*
X34231Y32765D01*
X32657Y34339D01*
X31083Y32765D01*
X51948Y8976D02*
Y6877D01*
X52998Y7927D02*
X50899D01*
X53523Y3729D02*
Y5828D01*
X51948D01*
X52473Y4778D01*
Y4253D01*
X51948Y3729D01*
X50899D01*
X50374Y4253D01*
Y5303D01*
X50899Y5828D01*
X43431Y11634D02*
X43955Y11109D01*
Y10060D01*
X43431Y9535D01*
X42906D01*
X42381Y10060D01*
Y10584D01*
Y10060D01*
X41856Y9535D01*
X41332D01*
X40807Y10060D01*
Y11109D01*
X41332Y11634D01*
X40807Y8485D02*
X41332D01*
Y7960D01*
X40807D01*
Y8485D01*
X43431Y5861D02*
X43955Y5337D01*
Y4287D01*
X43431Y3762D01*
X42906D01*
X42381Y4287D01*
Y4812D01*
Y4287D01*
X41856Y3762D01*
X41332D01*
X40807Y4287D01*
Y5337D01*
X41332Y5861D01*
X23765Y9830D02*
X24290Y10355D01*
Y11404D01*
X23765Y11929D01*
X21666D01*
X21142Y11404D01*
Y10355D01*
X21666Y9830D01*
X22716D01*
Y10880D01*
X21142Y8781D02*
X24290D01*
X21142Y6681D01*
X24290D01*
Y5632D02*
X21142D01*
Y4058D01*
X21666Y3533D01*
X23765D01*
X24290Y4058D01*
Y5632D01*
X33707Y9535D02*
X34231Y10060D01*
Y11109D01*
X33707Y11634D01*
X33182D01*
X32657Y11109D01*
Y10060D01*
X32132Y9535D01*
X31607D01*
X31083Y10060D01*
Y11109D01*
X31607Y11634D01*
X34231Y8485D02*
X31083D01*
X32132Y7436D01*
X31083Y6386D01*
X34231D01*
Y3762D02*
Y4812D01*
X33707Y5337D01*
X31607D01*
X31083Y4812D01*
Y3762D01*
X31607Y3238D01*
X33707D01*
X34231Y3762D01*
X10905Y11634D02*
X13004D01*
Y10060D01*
X12480Y9535D01*
X10905D01*
Y8485D02*
X14054D01*
Y6911D01*
X13529Y6386D01*
X12480D01*
X11955Y6911D01*
Y8485D01*
Y7436D02*
X10905Y6386D01*
Y5337D02*
Y3762D01*
X11430Y3238D01*
X11955Y3762D01*
Y4812D01*
X12480Y5337D01*
X13004Y4812D01*
Y3238D01*
X13529Y1663D02*
X13004D01*
Y2188D01*
Y1139D01*
Y1663D01*
X11430D01*
X10905Y1139D01*
M02*
