G04 #@! TF.GenerationSoftware,KiCad,Pcbnew,7.0.9*
G04 #@! TF.CreationDate,2024-03-11T23:10:39+03:00*
G04 #@! TF.ProjectId,hellen1-uaefi,68656c6c-656e-4312-9d75-616566692e6b,rev?*
G04 #@! TF.SameCoordinates,PX55d4a80PY8f0d180*
G04 #@! TF.FileFunction,Soldermask,Top*
G04 #@! TF.FilePolarity,Negative*
%FSLAX46Y46*%
G04 Gerber Fmt 4.6, Leading zero omitted, Abs format (unit mm)*
G04 Created by KiCad (PCBNEW 7.0.9) date 2024-03-11 23:10:39*
%MOMM*%
%LPD*%
G01*
G04 APERTURE LIST*
%ADD10C,2.000000*%
%ADD11C,1.700000*%
%ADD12O,1.850000X1.700000*%
%ADD13O,1.700000X1.700000*%
G04 APERTURE END LIST*
D10*
G04 #@! TO.C,M801*
X9300126Y25800000D03*
X9300126Y30000000D03*
X9300126Y34200000D03*
D11*
X10800126Y35050000D03*
D10*
X9300126Y38400000D03*
D11*
X10800126Y37590000D03*
D10*
X14800126Y25800000D03*
X14800126Y30000000D03*
D11*
X13340126Y35050000D03*
D10*
X14800126Y34200000D03*
D11*
X13340126Y37590000D03*
D10*
X14800126Y38400000D03*
X9300126Y45200000D03*
X9300126Y49400000D03*
D11*
X10800126Y50250000D03*
D10*
X9300126Y53600000D03*
D11*
X10800126Y52790000D03*
D10*
X9300126Y57800000D03*
D11*
X10800126Y58650000D03*
D10*
X9300126Y62000000D03*
D11*
X10800126Y61190000D03*
D10*
X9300126Y66200000D03*
D11*
X10800126Y67050000D03*
D10*
X9300126Y70400000D03*
D11*
X10800126Y69590000D03*
D10*
X9300126Y74600000D03*
D11*
X10800126Y75450000D03*
D10*
X9300126Y78800000D03*
D11*
X10800126Y77990000D03*
D10*
X14800126Y45200000D03*
D11*
X13340126Y50250000D03*
D10*
X14800126Y49400000D03*
D11*
X13340126Y52790000D03*
D10*
X14800126Y53600000D03*
D11*
X13340126Y58650000D03*
D10*
X14800126Y57800000D03*
D11*
X13340126Y61190000D03*
D10*
X14800126Y62000000D03*
D11*
X13340126Y67050000D03*
D10*
X14800126Y66200000D03*
D11*
X13340126Y69590000D03*
D10*
X14800126Y70400000D03*
D11*
X13340126Y75450000D03*
D10*
X14800126Y74600000D03*
D11*
X13340126Y77990000D03*
D10*
X14800126Y78800000D03*
X10625126Y90725000D03*
D11*
X11475126Y89225000D03*
X14015126Y89225000D03*
D10*
X14825126Y90725000D03*
X19025126Y90725000D03*
D11*
X19875126Y89225000D03*
X22415126Y89225000D03*
D10*
X23225126Y90725000D03*
X27425126Y90725000D03*
D11*
X28275126Y89225000D03*
X30815126Y89225000D03*
D10*
X31625126Y90725000D03*
X35825126Y90725000D03*
D11*
X36675126Y89225000D03*
X39215126Y89225000D03*
D10*
X40025126Y90725000D03*
X44225126Y90725000D03*
X48425126Y90725000D03*
X10625126Y85225000D03*
D11*
X11475126Y86685000D03*
X14015126Y86685000D03*
D10*
X14825126Y85225000D03*
X19025126Y85225000D03*
D11*
X19875126Y86685000D03*
X22415126Y86685000D03*
D10*
X23225126Y85225000D03*
X27425126Y85225000D03*
D11*
X28275126Y86685000D03*
X30815126Y86685000D03*
D10*
X31625126Y85225000D03*
X35825126Y85225000D03*
D11*
X36675126Y86685000D03*
X39215126Y86685000D03*
D10*
X40025126Y85225000D03*
X44225126Y85225000D03*
X48425126Y85225000D03*
X60325126Y90725000D03*
D11*
X61175126Y89225000D03*
X63715126Y89225000D03*
D10*
X64525126Y90725000D03*
X68725126Y90725000D03*
D11*
X69575126Y89225000D03*
X72115126Y89225000D03*
D10*
X72925126Y90725000D03*
X77125126Y90725000D03*
D11*
X77975126Y89225000D03*
X80515126Y89225000D03*
D10*
X81325126Y90725000D03*
X85525126Y90725000D03*
D11*
X86375126Y89225000D03*
X88915126Y89225000D03*
D10*
X89725126Y90725000D03*
X60325126Y85225000D03*
D11*
X61175126Y86685000D03*
X63715126Y86685000D03*
D10*
X64525126Y85225000D03*
X68725126Y85225000D03*
D11*
X69575126Y86685000D03*
X72115126Y86685000D03*
D10*
X72925126Y85225000D03*
X77125126Y85225000D03*
D11*
X77975126Y86685000D03*
X80515126Y86685000D03*
D10*
X81325126Y85225000D03*
X85525126Y85225000D03*
D11*
X86375126Y86685000D03*
X88915126Y86685000D03*
D10*
X89725126Y85225000D03*
D11*
X89290126Y78390000D03*
D10*
X90750126Y79200000D03*
D11*
X89290126Y75850000D03*
D10*
X90750126Y75000000D03*
X90750126Y70800000D03*
X85250126Y79200000D03*
D11*
X86750126Y78390000D03*
D10*
X85250126Y75000000D03*
D11*
X86750126Y75850000D03*
D10*
X85250126Y70800000D03*
G36*
G01*
X83700126Y2150000D02*
X82350126Y2150000D01*
G75*
G02*
X82100126Y2400000I0J250000D01*
G01*
X82100126Y3600000D01*
G75*
G02*
X82350126Y3850000I250000J0D01*
G01*
X83700126Y3850000D01*
G75*
G02*
X83950126Y3600000I0J-250000D01*
G01*
X83950126Y2400000D01*
G75*
G02*
X83700126Y2150000I-250000J0D01*
G01*
G37*
D12*
X83025126Y5500000D03*
X83025126Y8000000D03*
X83025126Y10500000D03*
X83025126Y13000000D03*
D11*
X62525126Y2500000D03*
X62525126Y7500000D03*
X83225126Y24000000D03*
X83225126Y19300000D03*
X5565126Y11500000D03*
X8105126Y11500000D03*
X3025126Y11500000D03*
X23025126Y11000000D03*
G04 #@! TD*
D10*
G04 #@! TO.C,P809*
X9300126Y38400000D03*
G04 #@! TD*
D13*
G04 #@! TO.C,J805*
X69575126Y89225000D03*
X72115126Y89225000D03*
X69575126Y86685000D03*
X72115126Y86685000D03*
G04 #@! TD*
D10*
G04 #@! TO.C,P825*
X14800126Y53600000D03*
G04 #@! TD*
G04 #@! TO.C,P859*
X89725126Y90725000D03*
G04 #@! TD*
G04 #@! TO.C,P824*
X14800126Y49400000D03*
G04 #@! TD*
G04 #@! TO.C,P834*
X19025126Y90725000D03*
G04 #@! TD*
G04 #@! TO.C,P819*
X9300126Y66200000D03*
G04 #@! TD*
G04 #@! TO.C,P852*
X60325126Y90725000D03*
G04 #@! TD*
G04 #@! TO.C,P867*
X89725126Y85225000D03*
G04 #@! TD*
G04 #@! TO.C,P818*
X9300126Y62000000D03*
G04 #@! TD*
G04 #@! TO.C,P817*
X9300126Y57800000D03*
G04 #@! TD*
G04 #@! TO.C,P841*
X48425126Y90725000D03*
G04 #@! TD*
G04 #@! TO.C,P872*
X85250126Y75000000D03*
G04 #@! TD*
G04 #@! TO.C,P857*
X81325126Y90725000D03*
G04 #@! TD*
G04 #@! TO.C,P840*
X44225126Y90725000D03*
G04 #@! TD*
G04 #@! TO.C,P837*
X31625126Y90725000D03*
G04 #@! TD*
G04 #@! TO.C,P822*
X9300126Y78800000D03*
G04 #@! TD*
G04 #@! TO.C,P870*
X90750126Y70800000D03*
G04 #@! TD*
D11*
G04 #@! TO.C,P802*
X83225126Y19300000D03*
G04 #@! TD*
D13*
G04 #@! TO.C,J815*
X36675126Y89225000D03*
X39215126Y89225000D03*
X36675126Y86685000D03*
X39215126Y86685000D03*
G04 #@! TD*
D10*
G04 #@! TO.C,P865*
X81325126Y85225000D03*
G04 #@! TD*
G04 #@! TO.C,P835*
X23225126Y90725000D03*
G04 #@! TD*
D11*
G04 #@! TO.C,P801*
X83225126Y24000000D03*
G04 #@! TD*
D10*
G04 #@! TO.C,P816*
X9300126Y53600000D03*
G04 #@! TD*
G04 #@! TO.C,P838*
X35825126Y90725000D03*
G04 #@! TD*
G04 #@! TO.C,P848*
X35825126Y85225000D03*
G04 #@! TD*
G04 #@! TO.C,P866*
X85525126Y85225000D03*
G04 #@! TD*
G04 #@! TO.C,P813*
X14800126Y38400000D03*
G04 #@! TD*
D13*
G04 #@! TO.C,J806*
X10800126Y77990000D03*
X13340126Y77990000D03*
X10800126Y75450000D03*
X13340126Y75450000D03*
G04 #@! TD*
D10*
G04 #@! TO.C,P830*
X14800126Y74600000D03*
G04 #@! TD*
G04 #@! TO.C,P853*
X64525126Y90725000D03*
G04 #@! TD*
G04 #@! TO.C,P854*
X68725126Y90725000D03*
G04 #@! TD*
D13*
G04 #@! TO.C,J816*
X10800126Y52790000D03*
X13340126Y52790000D03*
X10800126Y50250000D03*
X13340126Y50250000D03*
G04 #@! TD*
G04 #@! TO.C,J801*
G36*
G01*
X83700126Y2150000D02*
X82350126Y2150000D01*
G75*
G02*
X82100126Y2400000I0J250000D01*
G01*
X82100126Y3600000D01*
G75*
G02*
X82350126Y3850000I250000J0D01*
G01*
X83700126Y3850000D01*
G75*
G02*
X83950126Y3600000I0J-250000D01*
G01*
X83950126Y2400000D01*
G75*
G02*
X83700126Y2150000I-250000J0D01*
G01*
G37*
D12*
X83025126Y5500000D03*
X83025126Y8000000D03*
X83025126Y10500000D03*
X83025126Y13000000D03*
G04 #@! TD*
D13*
G04 #@! TO.C,J809*
X10800126Y69590000D03*
X13340126Y69590000D03*
X10800126Y67050000D03*
X13340126Y67050000D03*
G04 #@! TD*
D10*
G04 #@! TO.C,P861*
X64525126Y85225000D03*
G04 #@! TD*
G04 #@! TO.C,P864*
X77125126Y85225000D03*
G04 #@! TD*
G04 #@! TO.C,P855*
X72925126Y90725000D03*
G04 #@! TD*
G04 #@! TO.C,P811*
X14800126Y30000000D03*
G04 #@! TD*
G04 #@! TO.C,P849*
X40025126Y85225000D03*
G04 #@! TD*
G04 #@! TO.C,P828*
X14800126Y66200000D03*
G04 #@! TD*
G04 #@! TO.C,P860*
X60325126Y85225000D03*
G04 #@! TD*
D13*
G04 #@! TO.C,J814*
X86375126Y89225000D03*
X88915126Y89225000D03*
X86375126Y86685000D03*
X88915126Y86685000D03*
G04 #@! TD*
D10*
G04 #@! TO.C,P807*
X9300126Y30000000D03*
G04 #@! TD*
G04 #@! TO.C,P832*
X10625126Y90725000D03*
G04 #@! TD*
D13*
G04 #@! TO.C,J812*
X86750126Y78390000D03*
X89290126Y78390000D03*
X86750126Y75850000D03*
X89290126Y75850000D03*
G04 #@! TD*
D10*
G04 #@! TO.C,P871*
X85250126Y79200000D03*
G04 #@! TD*
G04 #@! TO.C,P863*
X72925126Y85225000D03*
G04 #@! TD*
G04 #@! TO.C,P820*
X9300126Y70400000D03*
G04 #@! TD*
G04 #@! TO.C,P844*
X19025126Y85225000D03*
G04 #@! TD*
D13*
G04 #@! TO.C,J804*
X61175126Y89225000D03*
X63715126Y89225000D03*
X61175126Y86685000D03*
X63715126Y86685000D03*
G04 #@! TD*
D11*
G04 #@! TO.C,P804*
X62525126Y7500000D03*
G04 #@! TD*
D13*
G04 #@! TO.C,J803*
X10800126Y37590000D03*
X13340126Y37590000D03*
X10800126Y35050000D03*
X13340126Y35050000D03*
G04 #@! TD*
D10*
G04 #@! TO.C,P847*
X31625126Y85225000D03*
G04 #@! TD*
G04 #@! TO.C,P808*
X9300126Y34200000D03*
G04 #@! TD*
D13*
G04 #@! TO.C,J802*
X3025126Y11500000D03*
X5565126Y11500000D03*
X8105126Y11500000D03*
G04 #@! TD*
G04 #@! TO.C,J807*
X11475126Y89225000D03*
X14015126Y89225000D03*
X11475126Y86685000D03*
X14015126Y86685000D03*
G04 #@! TD*
D10*
G04 #@! TO.C,P831*
X14800126Y78800000D03*
G04 #@! TD*
G04 #@! TO.C,P814*
X9300126Y45200000D03*
G04 #@! TD*
G04 #@! TO.C,P858*
X85525126Y90725000D03*
G04 #@! TD*
G04 #@! TO.C,P869*
X90750126Y75000000D03*
G04 #@! TD*
D11*
G04 #@! TO.C,P805*
X23025126Y11000000D03*
G04 #@! TD*
D10*
G04 #@! TO.C,P846*
X27425126Y85225000D03*
G04 #@! TD*
G04 #@! TO.C,P868*
X90750126Y79200000D03*
G04 #@! TD*
G04 #@! TO.C,P812*
X14800126Y34200000D03*
G04 #@! TD*
G04 #@! TO.C,P839*
X40025126Y90725000D03*
G04 #@! TD*
G04 #@! TO.C,P850*
X44225126Y85225000D03*
G04 #@! TD*
D13*
G04 #@! TO.C,J811*
X28275126Y89225000D03*
X30815126Y89225000D03*
X28275126Y86685000D03*
X30815126Y86685000D03*
G04 #@! TD*
G04 #@! TO.C,J810*
X77975126Y89225000D03*
X80515126Y89225000D03*
X77975126Y86685000D03*
X80515126Y86685000D03*
G04 #@! TD*
G04 #@! TO.C,J808*
X19875126Y89225000D03*
X22415126Y89225000D03*
X19875126Y86685000D03*
X22415126Y86685000D03*
G04 #@! TD*
D10*
G04 #@! TO.C,P827*
X14800126Y62000000D03*
G04 #@! TD*
G04 #@! TO.C,P833*
X14825126Y90725000D03*
G04 #@! TD*
G04 #@! TO.C,P821*
X9300126Y74600000D03*
G04 #@! TD*
G04 #@! TO.C,P806*
X9300126Y25800000D03*
G04 #@! TD*
D13*
G04 #@! TO.C,J813*
X10800126Y61190000D03*
X13340126Y61190000D03*
X10800126Y58650000D03*
X13340126Y58650000D03*
G04 #@! TD*
D10*
G04 #@! TO.C,P842*
X10625126Y85225000D03*
G04 #@! TD*
G04 #@! TO.C,P851*
X48425126Y85225000D03*
G04 #@! TD*
G04 #@! TO.C,P856*
X77125126Y90725000D03*
G04 #@! TD*
D11*
G04 #@! TO.C,P803*
X62525126Y2500000D03*
G04 #@! TD*
D10*
G04 #@! TO.C,P845*
X23225126Y85225000D03*
G04 #@! TD*
G04 #@! TO.C,P836*
X27425126Y90725000D03*
G04 #@! TD*
G04 #@! TO.C,P843*
X14825126Y85225000D03*
G04 #@! TD*
G04 #@! TO.C,P826*
X14800126Y57800000D03*
G04 #@! TD*
G04 #@! TO.C,P810*
X14800126Y25800000D03*
G04 #@! TD*
G04 #@! TO.C,P873*
X85250126Y70800000D03*
G04 #@! TD*
G04 #@! TO.C,P829*
X14800126Y70400000D03*
G04 #@! TD*
G04 #@! TO.C,P815*
X9300126Y49400000D03*
G04 #@! TD*
G04 #@! TO.C,P862*
X68725126Y85225000D03*
G04 #@! TD*
G04 #@! TO.C,P823*
X14800126Y45200000D03*
G04 #@! TD*
M02*
