G04 #@! TF.GenerationSoftware,KiCad,Pcbnew,7.0.9*
G04 #@! TF.CreationDate,2024-02-13T05:55:41+03:00*
G04 #@! TF.ProjectId,hellen1-uaefi,68656c6c-656e-4312-9d75-616566692e6b,rev?*
G04 #@! TF.SameCoordinates,PX55d4a80PY8f0d180*
G04 #@! TF.FileFunction,Copper,L4,Bot*
G04 #@! TF.FilePolarity,Positive*
%FSLAX46Y46*%
G04 Gerber Fmt 4.6, Leading zero omitted, Abs format (unit mm)*
G04 Created by KiCad (PCBNEW 7.0.9) date 2024-02-13 05:55:41*
%MOMM*%
%LPD*%
G01*
G04 APERTURE LIST*
G04 #@! TA.AperFunction,ComponentPad*
%ADD10C,1.850000*%
G04 #@! TD*
G04 #@! TA.AperFunction,ComponentPad*
%ADD11C,1.700000*%
G04 #@! TD*
G04 #@! TA.AperFunction,ComponentPad*
%ADD12C,1.800000*%
G04 #@! TD*
G04 #@! TA.AperFunction,ComponentPad*
%ADD13O,1.850000X1.700000*%
G04 #@! TD*
G04 #@! TA.AperFunction,ComponentPad*
%ADD14R,1.700000X1.700000*%
G04 #@! TD*
G04 #@! TA.AperFunction,ComponentPad*
%ADD15O,1.700000X1.700000*%
G04 #@! TD*
G04 APERTURE END LIST*
D10*
G04 #@! TO.P,P809,1*
G04 #@! TO.N,/GND_A4*
X9300126Y38400000D03*
G04 #@! TD*
G04 #@! TO.P,M801,A1,OUT_DC1-*
G04 #@! TO.N,/OUT_DC1-*
X9300126Y25800000D03*
G04 #@! TO.P,M801,A2,OUT_DC2-*
G04 #@! TO.N,/OUT_DC2-*
X9300126Y30000000D03*
G04 #@! TO.P,M801,A3,GND*
G04 #@! TO.N,/GND_A3*
X9300126Y34200000D03*
D11*
X10800126Y35050000D03*
D10*
G04 #@! TO.P,M801,A4,GND*
G04 #@! TO.N,/GND_A4*
X9300126Y38400000D03*
D11*
X10800126Y37590000D03*
D10*
G04 #@! TO.P,M801,A5,OUT_DC1+*
G04 #@! TO.N,/OUT_DC1+*
X14800126Y25800000D03*
G04 #@! TO.P,M801,A6,OUT_DC2+*
G04 #@! TO.N,/OUT_DC2+*
X14800126Y30000000D03*
D11*
G04 #@! TO.P,M801,A7,IN_VIGN*
G04 #@! TO.N,/12V_KEY*
X13340126Y35050000D03*
D10*
X14800126Y34200000D03*
D11*
G04 #@! TO.P,M801,A8,IN_V_MAIN*
G04 #@! TO.N,/12V*
X13340126Y37590000D03*
D10*
X14800126Y38400000D03*
G04 #@! TO.P,M801,B1,OUT_INJ6*
G04 #@! TO.N,/OUT_INJ6*
X9300126Y45200000D03*
G04 #@! TO.P,M801,B2,OUT_INJ5*
G04 #@! TO.N,/OUT_INJ5*
X9300126Y49400000D03*
D11*
X10800126Y50250000D03*
D10*
G04 #@! TO.P,M801,B3,OUT_INJ4*
G04 #@! TO.N,/OUT_INJ4*
X9300126Y53600000D03*
D11*
X10800126Y52790000D03*
D10*
G04 #@! TO.P,M801,B4,OUT_INJ3*
G04 #@! TO.N,/OUT_INJ3*
X9300126Y57800000D03*
D11*
X10800126Y58650000D03*
D10*
G04 #@! TO.P,M801,B5,OUT_INJ2*
G04 #@! TO.N,/OUT_INJ2*
X9300126Y62000000D03*
D11*
X10800126Y61190000D03*
D10*
G04 #@! TO.P,M801,B6,OUT_INJ1*
G04 #@! TO.N,/OUT_INJ1*
X9300126Y66200000D03*
D11*
X10800126Y67050000D03*
D10*
G04 #@! TO.P,M801,B7,OUT_LS1*
G04 #@! TO.N,/OUT_LS1*
X9300126Y70400000D03*
D11*
X10800126Y69590000D03*
D10*
G04 #@! TO.P,M801,B8,OUT_LS_WEAK2*
G04 #@! TO.N,/OUT_LS_HOT2*
X9300126Y74600000D03*
D11*
X10800126Y75450000D03*
D10*
G04 #@! TO.P,M801,B9,OUT_LS_WEAK1*
G04 #@! TO.N,/OUT_LS_HOT1*
X9300126Y78800000D03*
D11*
X10800126Y77990000D03*
D10*
G04 #@! TO.P,M801,B10,OUT_IGN6*
G04 #@! TO.N,/OUT_IGN6*
X14800126Y45200000D03*
D11*
G04 #@! TO.P,M801,B11,OUT_IGN4*
G04 #@! TO.N,/OUT_IGN4*
X13340126Y50250000D03*
D10*
X14800126Y49400000D03*
D11*
G04 #@! TO.P,M801,B12,OUT_IGN3*
G04 #@! TO.N,/OUT_IGN3*
X13340126Y52790000D03*
D10*
X14800126Y53600000D03*
D11*
G04 #@! TO.P,M801,B13,OUT_IGN5*
G04 #@! TO.N,/OUT_IGN5*
X13340126Y58650000D03*
D10*
X14800126Y57800000D03*
D11*
G04 #@! TO.P,M801,B14,OUT_IGN2*
G04 #@! TO.N,/OUT_IGN2*
X13340126Y61190000D03*
D10*
X14800126Y62000000D03*
D11*
G04 #@! TO.P,M801,B15,OUT_IGN1*
G04 #@! TO.N,/OUT_IGN1*
X13340126Y67050000D03*
D10*
X14800126Y66200000D03*
D11*
G04 #@! TO.P,M801,B16,OUT_LS4*
G04 #@! TO.N,/OUT_LS4*
X13340126Y69590000D03*
D10*
X14800126Y70400000D03*
D11*
G04 #@! TO.P,M801,B17,OUT_LS3*
G04 #@! TO.N,/OUT_LS3*
X13340126Y75450000D03*
D10*
X14800126Y74600000D03*
D11*
G04 #@! TO.P,M801,B18,OUT_LS2*
G04 #@! TO.N,/OUT_LS2*
X13340126Y77990000D03*
D10*
X14800126Y78800000D03*
G04 #@! TO.P,M801,C1,+5VP*
G04 #@! TO.N,/5VP_C1*
X10625126Y90725000D03*
D11*
X11475126Y89225000D03*
G04 #@! TO.P,M801,C2,+5VP*
G04 #@! TO.N,/5VP_C2*
X14015126Y89225000D03*
D10*
X14825126Y90725000D03*
G04 #@! TO.P,M801,C3,IN_AUX2*
G04 #@! TO.N,/IN_AUX2*
X19025126Y90725000D03*
D11*
X19875126Y89225000D03*
G04 #@! TO.P,M801,C4,IN_PPS2*
G04 #@! TO.N,/IN_PPS2*
X22415126Y89225000D03*
D10*
X23225126Y90725000D03*
G04 #@! TO.P,M801,C5,IN_HALL1*
G04 #@! TO.N,/IN_HALL1*
X27425126Y90725000D03*
D11*
X28275126Y89225000D03*
G04 #@! TO.P,M801,C6,IN_HALL2*
G04 #@! TO.N,/IN_HALL2*
X30815126Y89225000D03*
D10*
X31625126Y90725000D03*
G04 #@! TO.P,M801,C7,IN_HALL3*
G04 #@! TO.N,/IN_HALL3*
X35825126Y90725000D03*
D11*
X36675126Y89225000D03*
G04 #@! TO.P,M801,C8,GND*
G04 #@! TO.N,/GND_C8*
X39215126Y89225000D03*
D10*
X40025126Y90725000D03*
G04 #@! TO.P,M801,C9,IN_BUTTON3*
G04 #@! TO.N,/IN_BUTTON3*
X44225126Y90725000D03*
G04 #@! TO.P,M801,C10,EGT+*
G04 #@! TO.N,/EGT+*
X48425126Y90725000D03*
G04 #@! TO.P,M801,C11,GNDA*
G04 #@! TO.N,/GNDA_C11*
X10625126Y85225000D03*
D11*
X11475126Y86685000D03*
G04 #@! TO.P,M801,C12,GNDA*
G04 #@! TO.N,/GNDA_C12*
X14015126Y86685000D03*
D10*
X14825126Y85225000D03*
G04 #@! TO.P,M801,C13,GNDA*
G04 #@! TO.N,/GNDA_C13*
X19025126Y85225000D03*
D11*
X19875126Y86685000D03*
G04 #@! TO.P,M801,C14,IN_TPS2*
G04 #@! TO.N,/IN_TPS2*
X22415126Y86685000D03*
D10*
X23225126Y85225000D03*
G04 #@! TO.P,M801,C15,IN_AUX3*
G04 #@! TO.N,/IN_AUX3*
X27425126Y85225000D03*
D11*
X28275126Y86685000D03*
G04 #@! TO.P,M801,C16,VR2+*
G04 #@! TO.N,/VR2+*
X30815126Y86685000D03*
D10*
X31625126Y85225000D03*
G04 #@! TO.P,M801,C17,VR2-*
G04 #@! TO.N,/VR2-*
X35825126Y85225000D03*
D11*
X36675126Y86685000D03*
G04 #@! TO.P,M801,C18,VR1+*
G04 #@! TO.N,/VR1+*
X39215126Y86685000D03*
D12*
X40025126Y85225000D03*
D10*
G04 #@! TO.P,M801,C19,VR1-*
G04 #@! TO.N,/VR1-*
X44225126Y85225000D03*
G04 #@! TO.P,M801,C20,EGT-*
G04 #@! TO.N,/EGT-*
X48425126Y85225000D03*
G04 #@! TO.P,M801,D1,IN_AUX1*
G04 #@! TO.N,/IN_AUX1*
X60325126Y90725000D03*
D11*
X61175126Y89225000D03*
G04 #@! TO.P,M801,D2,IN_BUTTON1*
G04 #@! TO.N,/IN_BUTTON1*
X63715126Y89225000D03*
D10*
X64525126Y90725000D03*
G04 #@! TO.P,M801,D3,+5VP*
G04 #@! TO.N,/5VP_D3*
X68725126Y90725000D03*
D11*
X69575126Y89225000D03*
G04 #@! TO.P,M801,D4,+5VP*
G04 #@! TO.N,/5VP_D4*
X72115126Y89225000D03*
D10*
X72925126Y90725000D03*
G04 #@! TO.P,M801,D5,IN_FLEX*
G04 #@! TO.N,/IN_FLEX*
X77125126Y90725000D03*
D11*
X77975126Y89225000D03*
G04 #@! TO.P,M801,D6,IN_PPS1*
G04 #@! TO.N,/IN_PPS1*
X80515126Y89225000D03*
D10*
X81325126Y90725000D03*
G04 #@! TO.P,M801,D7,CAN+*
G04 #@! TO.N,/CAN+*
X85525126Y90725000D03*
D11*
X86375126Y89225000D03*
G04 #@! TO.P,M801,D8,CAN-*
G04 #@! TO.N,/CAN-*
X88915126Y89225000D03*
D10*
X89725126Y90725000D03*
G04 #@! TO.P,M801,D9,IN_MAP*
G04 #@! TO.N,/IN_MAP*
X60325126Y85225000D03*
D11*
X61175126Y86685000D03*
G04 #@! TO.P,M801,D10,IN_BUTTON2*
G04 #@! TO.N,/IN_BUTTON2*
X63715126Y86685000D03*
D10*
X64525126Y85225000D03*
G04 #@! TO.P,M801,D11,GNDA*
G04 #@! TO.N,/GNDA_D11*
X68725126Y85225000D03*
D11*
X69575126Y86685000D03*
G04 #@! TO.P,M801,D12,GNDA*
G04 #@! TO.N,/GNDA_D12*
X72115126Y86685000D03*
D10*
X72925126Y85225000D03*
G04 #@! TO.P,M801,D13,IN_TPS1*
G04 #@! TO.N,/IN_TPS1*
X77125126Y85225000D03*
D11*
X77975126Y86685000D03*
G04 #@! TO.P,M801,D14,IN_KNOCK_RAW*
G04 #@! TO.N,/IN_KNOCK_RAW*
X80515126Y86685000D03*
D10*
X81325126Y85225000D03*
G04 #@! TO.P,M801,D15,IN_IAT*
G04 #@! TO.N,/IN_IAT*
X85525126Y85225000D03*
D11*
X86375126Y86685000D03*
G04 #@! TO.P,M801,D16,IN_CLT*
G04 #@! TO.N,/IN_CLT*
X88915126Y86685000D03*
D10*
X89725126Y85225000D03*
D11*
G04 #@! TO.P,M801,E1,+12V_RAW*
G04 #@! TO.N,/WBO_12V*
X89290126Y78390000D03*
D10*
X90750126Y79200000D03*
D11*
G04 #@! TO.P,M801,E2,WBO_Rtrim*
G04 #@! TO.N,/WBO_Rtrim*
X89290126Y75850000D03*
D10*
X90750126Y75000000D03*
G04 #@! TO.P,M801,E3,WBO_Heater*
G04 #@! TO.N,/WBO_Heater*
X90750126Y70800000D03*
G04 #@! TO.P,M801,E4,WBO_Un*
G04 #@! TO.N,/WBO_Un*
X85250126Y79200000D03*
D11*
X86750126Y78390000D03*
D10*
G04 #@! TO.P,M801,E5,WBO_Ip*
G04 #@! TO.N,/WBO_Ip*
X85250126Y75000000D03*
D11*
X86750126Y75850000D03*
D10*
G04 #@! TO.P,M801,E6,WBO_Vm*
G04 #@! TO.N,/WBO_Vm*
X85250126Y70800000D03*
G04 #@! TO.P,M801,J1,VBUS*
G04 #@! TO.N,Net-(J801-Pin_1)*
G04 #@! TA.AperFunction,ComponentPad*
G36*
G01*
X83700126Y2150000D02*
X82350126Y2150000D01*
G75*
G02*
X82100126Y2400000I0J250000D01*
G01*
X82100126Y3600000D01*
G75*
G02*
X82350126Y3850000I250000J0D01*
G01*
X83700126Y3850000D01*
G75*
G02*
X83950126Y3600000I0J-250000D01*
G01*
X83950126Y2400000D01*
G75*
G02*
X83700126Y2150000I-250000J0D01*
G01*
G37*
G04 #@! TD.AperFunction*
D13*
G04 #@! TO.P,M801,J2,USB-*
G04 #@! TO.N,Net-(J801-Pin_2)*
X83025126Y5500000D03*
G04 #@! TO.P,M801,J3,USB+*
G04 #@! TO.N,Net-(J801-Pin_3)*
X83025126Y8000000D03*
G04 #@! TO.P,M801,J4,GND*
G04 #@! TO.N,Net-(J801-Pin_4)*
X83025126Y10500000D03*
G04 #@! TO.P,M801,J5,GND*
G04 #@! TO.N,Net-(J801-Pin_5)*
X83025126Y13000000D03*
D11*
G04 #@! TO.P,M801,P3,LED_YELLOW*
G04 #@! TO.N,Net-(M801-LED_YELLOW)*
X62525126Y2500000D03*
G04 #@! TO.P,M801,P4,LED_GREEN*
G04 #@! TO.N,Net-(M801-LED_GREEN)*
X62525126Y7500000D03*
G04 #@! TO.P,M801,P7,Rx*
G04 #@! TO.N,Net-(M801-Rx)*
X83225126Y24000000D03*
G04 #@! TO.P,M801,P8,Tx*
G04 #@! TO.N,Net-(M801-Tx)*
X83225126Y19300000D03*
G04 #@! TO.P,M801,P15,DC1_DIR*
G04 #@! TO.N,Net-(J802-Pin_2)*
X5565126Y11500000D03*
G04 #@! TO.P,M801,P16,DC2_DIR*
G04 #@! TO.N,Net-(J802-Pin_3)*
X8105126Y11500000D03*
G04 #@! TO.P,M801,P17,DC1_PWM*
G04 #@! TO.N,Net-(J802-Pin_1)*
X3025126Y11500000D03*
G04 #@! TO.P,M801,P18,DC2_PWM*
G04 #@! TO.N,Net-(M801-DC2_PWM)*
X23025126Y11000000D03*
G04 #@! TD*
D14*
G04 #@! TO.P,J805,1,Pin_1*
G04 #@! TO.N,/5VP_D3*
X69575126Y89225000D03*
D15*
G04 #@! TO.P,J805,2,Pin_2*
G04 #@! TO.N,/5VP_D4*
X72115126Y89225000D03*
G04 #@! TO.P,J805,3,Pin_3*
G04 #@! TO.N,/GNDA_D11*
X69575126Y86685000D03*
G04 #@! TO.P,J805,4,Pin_4*
G04 #@! TO.N,/GNDA_D12*
X72115126Y86685000D03*
G04 #@! TD*
D10*
G04 #@! TO.P,P825,1*
G04 #@! TO.N,/OUT_IGN3*
X14800126Y53600000D03*
G04 #@! TD*
G04 #@! TO.P,P859,1*
G04 #@! TO.N,/CAN-*
X89725126Y90725000D03*
G04 #@! TD*
G04 #@! TO.P,P824,1*
G04 #@! TO.N,/OUT_IGN4*
X14800126Y49400000D03*
G04 #@! TD*
G04 #@! TO.P,P834,1*
G04 #@! TO.N,/IN_AUX2*
X19025126Y90725000D03*
G04 #@! TD*
G04 #@! TO.P,P819,1*
G04 #@! TO.N,/OUT_INJ1*
X9300126Y66200000D03*
G04 #@! TD*
G04 #@! TO.P,P852,1*
G04 #@! TO.N,/IN_AUX1*
X60325126Y90725000D03*
G04 #@! TD*
G04 #@! TO.P,P867,1*
G04 #@! TO.N,/IN_CLT*
X89725126Y85225000D03*
G04 #@! TD*
G04 #@! TO.P,P818,1*
G04 #@! TO.N,/OUT_INJ2*
X9300126Y62000000D03*
G04 #@! TD*
G04 #@! TO.P,P817,1*
G04 #@! TO.N,/OUT_INJ3*
X9300126Y57800000D03*
G04 #@! TD*
G04 #@! TO.P,P841,1*
G04 #@! TO.N,/EGT+*
X48425126Y90725000D03*
G04 #@! TD*
G04 #@! TO.P,P872,1*
G04 #@! TO.N,/WBO_Ip*
X85250126Y75000000D03*
G04 #@! TD*
G04 #@! TO.P,P857,1*
G04 #@! TO.N,/IN_PPS1*
X81325126Y90725000D03*
G04 #@! TD*
G04 #@! TO.P,P840,1*
G04 #@! TO.N,/IN_BUTTON3*
X44225126Y90725000D03*
G04 #@! TD*
G04 #@! TO.P,P837,1*
G04 #@! TO.N,/IN_HALL2*
X31625126Y90725000D03*
G04 #@! TD*
G04 #@! TO.P,P822,1*
G04 #@! TO.N,/OUT_LS_HOT1*
X9300126Y78800000D03*
G04 #@! TD*
G04 #@! TO.P,P870,1*
G04 #@! TO.N,/WBO_Heater*
X90750126Y70800000D03*
G04 #@! TD*
D14*
G04 #@! TO.P,P802,1,Pin_1*
G04 #@! TO.N,Net-(M801-Tx)*
X83225126Y19300000D03*
G04 #@! TD*
G04 #@! TO.P,J815,1,Pin_1*
G04 #@! TO.N,/IN_HALL3*
X36675126Y89225000D03*
D15*
G04 #@! TO.P,J815,2,Pin_2*
G04 #@! TO.N,/GND_C8*
X39215126Y89225000D03*
G04 #@! TO.P,J815,3,Pin_3*
G04 #@! TO.N,/VR2-*
X36675126Y86685000D03*
G04 #@! TO.P,J815,4,Pin_4*
G04 #@! TO.N,/VR1+*
X39215126Y86685000D03*
G04 #@! TD*
D10*
G04 #@! TO.P,P865,1*
G04 #@! TO.N,/IN_KNOCK_RAW*
X81325126Y85225000D03*
G04 #@! TD*
G04 #@! TO.P,P835,1*
G04 #@! TO.N,/IN_PPS2*
X23225126Y90725000D03*
G04 #@! TD*
D14*
G04 #@! TO.P,P801,1,Pin_1*
G04 #@! TO.N,Net-(M801-Rx)*
X83225126Y24000000D03*
G04 #@! TD*
D10*
G04 #@! TO.P,P816,1*
G04 #@! TO.N,/OUT_INJ4*
X9300126Y53600000D03*
G04 #@! TD*
G04 #@! TO.P,P838,1*
G04 #@! TO.N,/IN_HALL3*
X35825126Y90725000D03*
G04 #@! TD*
G04 #@! TO.P,P848,1*
G04 #@! TO.N,/VR2-*
X35825126Y85225000D03*
G04 #@! TD*
G04 #@! TO.P,P866,1*
G04 #@! TO.N,/IN_IAT*
X85525126Y85225000D03*
G04 #@! TD*
G04 #@! TO.P,P813,1*
G04 #@! TO.N,/12V*
X14800126Y38400000D03*
G04 #@! TD*
D14*
G04 #@! TO.P,J806,1,Pin_1*
G04 #@! TO.N,/OUT_LS_HOT1*
X10800126Y77990000D03*
D15*
G04 #@! TO.P,J806,2,Pin_2*
G04 #@! TO.N,/OUT_LS2*
X13340126Y77990000D03*
G04 #@! TO.P,J806,3,Pin_3*
G04 #@! TO.N,/OUT_LS_HOT2*
X10800126Y75450000D03*
G04 #@! TO.P,J806,4,Pin_4*
G04 #@! TO.N,/OUT_LS3*
X13340126Y75450000D03*
G04 #@! TD*
D10*
G04 #@! TO.P,P830,1*
G04 #@! TO.N,/OUT_LS3*
X14800126Y74600000D03*
G04 #@! TD*
G04 #@! TO.P,P853,1*
G04 #@! TO.N,/IN_BUTTON1*
X64525126Y90725000D03*
G04 #@! TD*
G04 #@! TO.P,P854,1*
G04 #@! TO.N,/5VP_D3*
X68725126Y90725000D03*
G04 #@! TD*
D14*
G04 #@! TO.P,J816,1,Pin_1*
G04 #@! TO.N,/OUT_INJ4*
X10800126Y52790000D03*
D15*
G04 #@! TO.P,J816,2,Pin_2*
G04 #@! TO.N,/OUT_IGN3*
X13340126Y52790000D03*
G04 #@! TO.P,J816,3,Pin_3*
G04 #@! TO.N,/OUT_INJ5*
X10800126Y50250000D03*
G04 #@! TO.P,J816,4,Pin_4*
G04 #@! TO.N,/OUT_IGN4*
X13340126Y50250000D03*
G04 #@! TD*
G04 #@! TO.P,J801,1,Pin_1*
G04 #@! TO.N,Net-(J801-Pin_1)*
G04 #@! TA.AperFunction,ComponentPad*
G36*
G01*
X83700126Y2150000D02*
X82350126Y2150000D01*
G75*
G02*
X82100126Y2400000I0J250000D01*
G01*
X82100126Y3600000D01*
G75*
G02*
X82350126Y3850000I250000J0D01*
G01*
X83700126Y3850000D01*
G75*
G02*
X83950126Y3600000I0J-250000D01*
G01*
X83950126Y2400000D01*
G75*
G02*
X83700126Y2150000I-250000J0D01*
G01*
G37*
G04 #@! TD.AperFunction*
D13*
G04 #@! TO.P,J801,2,Pin_2*
G04 #@! TO.N,Net-(J801-Pin_2)*
X83025126Y5500000D03*
G04 #@! TO.P,J801,3,Pin_3*
G04 #@! TO.N,Net-(J801-Pin_3)*
X83025126Y8000000D03*
G04 #@! TO.P,J801,4,Pin_4*
G04 #@! TO.N,Net-(J801-Pin_4)*
X83025126Y10500000D03*
G04 #@! TO.P,J801,5,Pin_5*
G04 #@! TO.N,Net-(J801-Pin_5)*
X83025126Y13000000D03*
G04 #@! TD*
D14*
G04 #@! TO.P,J809,1,Pin_1*
G04 #@! TO.N,/OUT_LS1*
X10800126Y69590000D03*
D15*
G04 #@! TO.P,J809,2,Pin_2*
G04 #@! TO.N,/OUT_LS4*
X13340126Y69590000D03*
G04 #@! TO.P,J809,3,Pin_3*
G04 #@! TO.N,/OUT_INJ1*
X10800126Y67050000D03*
G04 #@! TO.P,J809,4,Pin_4*
G04 #@! TO.N,/OUT_IGN1*
X13340126Y67050000D03*
G04 #@! TD*
D10*
G04 #@! TO.P,P861,1*
G04 #@! TO.N,/IN_BUTTON2*
X64525126Y85225000D03*
G04 #@! TD*
G04 #@! TO.P,P864,1*
G04 #@! TO.N,/IN_TPS1*
X77125126Y85225000D03*
G04 #@! TD*
G04 #@! TO.P,P855,1*
G04 #@! TO.N,/5VP_D4*
X72925126Y90725000D03*
G04 #@! TD*
G04 #@! TO.P,P811,1*
G04 #@! TO.N,/OUT_DC2+*
X14800126Y30000000D03*
G04 #@! TD*
G04 #@! TO.P,P849,1*
G04 #@! TO.N,/VR1+*
X40025126Y85225000D03*
G04 #@! TD*
G04 #@! TO.P,P828,1*
G04 #@! TO.N,/OUT_IGN1*
X14800126Y66200000D03*
G04 #@! TD*
G04 #@! TO.P,P860,1*
G04 #@! TO.N,/IN_MAP*
X60325126Y85225000D03*
G04 #@! TD*
D14*
G04 #@! TO.P,J814,1,Pin_1*
G04 #@! TO.N,/CAN+*
X86375126Y89225000D03*
D15*
G04 #@! TO.P,J814,2,Pin_2*
G04 #@! TO.N,/CAN-*
X88915126Y89225000D03*
G04 #@! TO.P,J814,3,Pin_3*
G04 #@! TO.N,/IN_IAT*
X86375126Y86685000D03*
G04 #@! TO.P,J814,4,Pin_4*
G04 #@! TO.N,/IN_CLT*
X88915126Y86685000D03*
G04 #@! TD*
D10*
G04 #@! TO.P,P807,1*
G04 #@! TO.N,/OUT_DC2-*
X9300126Y30000000D03*
G04 #@! TD*
G04 #@! TO.P,P832,1*
G04 #@! TO.N,/5VP_C1*
X10625126Y90725000D03*
G04 #@! TD*
D14*
G04 #@! TO.P,J812,1,Pin_1*
G04 #@! TO.N,/WBO_Un*
X86750126Y78390000D03*
D15*
G04 #@! TO.P,J812,2,Pin_2*
G04 #@! TO.N,/WBO_12V*
X89290126Y78390000D03*
G04 #@! TO.P,J812,3,Pin_3*
G04 #@! TO.N,/WBO_Ip*
X86750126Y75850000D03*
G04 #@! TO.P,J812,4,Pin_4*
G04 #@! TO.N,/WBO_Rtrim*
X89290126Y75850000D03*
G04 #@! TD*
D10*
G04 #@! TO.P,P871,1*
G04 #@! TO.N,/WBO_Un*
X85250126Y79200000D03*
G04 #@! TD*
G04 #@! TO.P,P863,1*
G04 #@! TO.N,/GNDA_D12*
X72925126Y85225000D03*
G04 #@! TD*
G04 #@! TO.P,P820,1*
G04 #@! TO.N,/OUT_LS1*
X9300126Y70400000D03*
G04 #@! TD*
G04 #@! TO.P,P844,1*
G04 #@! TO.N,/GNDA_C13*
X19025126Y85225000D03*
G04 #@! TD*
D14*
G04 #@! TO.P,J804,1,Pin_1*
G04 #@! TO.N,/IN_AUX1*
X61175126Y89225000D03*
D15*
G04 #@! TO.P,J804,2,Pin_2*
G04 #@! TO.N,/IN_BUTTON1*
X63715126Y89225000D03*
G04 #@! TO.P,J804,3,Pin_3*
G04 #@! TO.N,/IN_MAP*
X61175126Y86685000D03*
G04 #@! TO.P,J804,4,Pin_4*
G04 #@! TO.N,/IN_BUTTON2*
X63715126Y86685000D03*
G04 #@! TD*
D14*
G04 #@! TO.P,P804,1,Pin_1*
G04 #@! TO.N,Net-(M801-LED_GREEN)*
X62525126Y7500000D03*
G04 #@! TD*
G04 #@! TO.P,J803,1,Pin_1*
G04 #@! TO.N,/GND_A4*
X10800126Y37590000D03*
D15*
G04 #@! TO.P,J803,2,Pin_2*
G04 #@! TO.N,/12V*
X13340126Y37590000D03*
G04 #@! TO.P,J803,3,Pin_3*
G04 #@! TO.N,/GND_A3*
X10800126Y35050000D03*
G04 #@! TO.P,J803,4,Pin_4*
G04 #@! TO.N,/12V_KEY*
X13340126Y35050000D03*
G04 #@! TD*
D10*
G04 #@! TO.P,P847,1*
G04 #@! TO.N,/VR2+*
X31625126Y85225000D03*
G04 #@! TD*
G04 #@! TO.P,P808,1*
G04 #@! TO.N,/GND_A3*
X9300126Y34200000D03*
G04 #@! TD*
D14*
G04 #@! TO.P,J802,1,Pin_1*
G04 #@! TO.N,Net-(J802-Pin_1)*
X3025126Y11500000D03*
D15*
G04 #@! TO.P,J802,2,Pin_2*
G04 #@! TO.N,Net-(J802-Pin_2)*
X5565126Y11500000D03*
G04 #@! TO.P,J802,3,Pin_3*
G04 #@! TO.N,Net-(J802-Pin_3)*
X8105126Y11500000D03*
G04 #@! TD*
D14*
G04 #@! TO.P,J807,1,Pin_1*
G04 #@! TO.N,/5VP_C1*
X11475126Y89225000D03*
D15*
G04 #@! TO.P,J807,2,Pin_2*
G04 #@! TO.N,/5VP_C2*
X14015126Y89225000D03*
G04 #@! TO.P,J807,3,Pin_3*
G04 #@! TO.N,/GNDA_C11*
X11475126Y86685000D03*
G04 #@! TO.P,J807,4,Pin_4*
G04 #@! TO.N,/GNDA_C12*
X14015126Y86685000D03*
G04 #@! TD*
D10*
G04 #@! TO.P,P831,1*
G04 #@! TO.N,/OUT_LS2*
X14800126Y78800000D03*
G04 #@! TD*
G04 #@! TO.P,P814,1*
G04 #@! TO.N,/OUT_INJ6*
X9300126Y45200000D03*
G04 #@! TD*
G04 #@! TO.P,P858,1*
G04 #@! TO.N,/CAN+*
X85525126Y90725000D03*
G04 #@! TD*
G04 #@! TO.P,P869,1*
G04 #@! TO.N,/WBO_Rtrim*
X90750126Y75000000D03*
G04 #@! TD*
D14*
G04 #@! TO.P,P805,1,Pin_1*
G04 #@! TO.N,Net-(M801-DC2_PWM)*
X23025126Y11000000D03*
G04 #@! TD*
D10*
G04 #@! TO.P,P846,1*
G04 #@! TO.N,/IN_AUX3*
X27425126Y85225000D03*
G04 #@! TD*
G04 #@! TO.P,P868,1*
G04 #@! TO.N,/WBO_12V*
X90750126Y79200000D03*
G04 #@! TD*
G04 #@! TO.P,P812,1*
G04 #@! TO.N,/12V_KEY*
X14800126Y34200000D03*
G04 #@! TD*
G04 #@! TO.P,P839,1*
G04 #@! TO.N,/GND_C8*
X40025126Y90725000D03*
G04 #@! TD*
G04 #@! TO.P,P850,1*
G04 #@! TO.N,/VR1-*
X44225126Y85225000D03*
G04 #@! TD*
D14*
G04 #@! TO.P,J811,1,Pin_1*
G04 #@! TO.N,/IN_HALL1*
X28275126Y89225000D03*
D15*
G04 #@! TO.P,J811,2,Pin_2*
G04 #@! TO.N,/IN_HALL2*
X30815126Y89225000D03*
G04 #@! TO.P,J811,3,Pin_3*
G04 #@! TO.N,/IN_AUX3*
X28275126Y86685000D03*
G04 #@! TO.P,J811,4,Pin_4*
G04 #@! TO.N,/VR2+*
X30815126Y86685000D03*
G04 #@! TD*
D14*
G04 #@! TO.P,J810,1,Pin_1*
G04 #@! TO.N,/IN_FLEX*
X77975126Y89225000D03*
D15*
G04 #@! TO.P,J810,2,Pin_2*
G04 #@! TO.N,/IN_PPS1*
X80515126Y89225000D03*
G04 #@! TO.P,J810,3,Pin_3*
G04 #@! TO.N,/IN_TPS1*
X77975126Y86685000D03*
G04 #@! TO.P,J810,4,Pin_4*
G04 #@! TO.N,/IN_KNOCK_RAW*
X80515126Y86685000D03*
G04 #@! TD*
D14*
G04 #@! TO.P,J808,1,Pin_1*
G04 #@! TO.N,/IN_AUX2*
X19875126Y89225000D03*
D15*
G04 #@! TO.P,J808,2,Pin_2*
G04 #@! TO.N,/IN_PPS2*
X22415126Y89225000D03*
G04 #@! TO.P,J808,3,Pin_3*
G04 #@! TO.N,/GNDA_C13*
X19875126Y86685000D03*
G04 #@! TO.P,J808,4,Pin_4*
G04 #@! TO.N,/IN_TPS2*
X22415126Y86685000D03*
G04 #@! TD*
D10*
G04 #@! TO.P,P827,1*
G04 #@! TO.N,/OUT_IGN2*
X14800126Y62000000D03*
G04 #@! TD*
G04 #@! TO.P,P833,1*
G04 #@! TO.N,/5VP_C2*
X14825126Y90725000D03*
G04 #@! TD*
G04 #@! TO.P,P821,1*
G04 #@! TO.N,/OUT_LS_HOT2*
X9300126Y74600000D03*
G04 #@! TD*
G04 #@! TO.P,P806,1*
G04 #@! TO.N,/OUT_DC1-*
X9300126Y25800000D03*
G04 #@! TD*
D14*
G04 #@! TO.P,J813,1,Pin_1*
G04 #@! TO.N,/OUT_INJ2*
X10800126Y61190000D03*
D15*
G04 #@! TO.P,J813,2,Pin_2*
G04 #@! TO.N,/OUT_IGN2*
X13340126Y61190000D03*
G04 #@! TO.P,J813,3,Pin_3*
G04 #@! TO.N,/OUT_INJ3*
X10800126Y58650000D03*
G04 #@! TO.P,J813,4,Pin_4*
G04 #@! TO.N,/OUT_IGN5*
X13340126Y58650000D03*
G04 #@! TD*
D10*
G04 #@! TO.P,P842,1*
G04 #@! TO.N,/GNDA_C11*
X10625126Y85225000D03*
G04 #@! TD*
G04 #@! TO.P,P851,1*
G04 #@! TO.N,/EGT-*
X48425126Y85225000D03*
G04 #@! TD*
G04 #@! TO.P,P856,1*
G04 #@! TO.N,/IN_FLEX*
X77125126Y90725000D03*
G04 #@! TD*
D14*
G04 #@! TO.P,P803,1,Pin_1*
G04 #@! TO.N,Net-(M801-LED_YELLOW)*
X62525126Y2500000D03*
G04 #@! TD*
D10*
G04 #@! TO.P,P845,1*
G04 #@! TO.N,/IN_TPS2*
X23225126Y85225000D03*
G04 #@! TD*
G04 #@! TO.P,P836,1*
G04 #@! TO.N,/IN_HALL1*
X27425126Y90725000D03*
G04 #@! TD*
G04 #@! TO.P,P843,1*
G04 #@! TO.N,/GNDA_C12*
X14825126Y85225000D03*
G04 #@! TD*
G04 #@! TO.P,P826,1*
G04 #@! TO.N,/OUT_IGN5*
X14800126Y57800000D03*
G04 #@! TD*
G04 #@! TO.P,P810,1*
G04 #@! TO.N,/OUT_DC1+*
X14800126Y25800000D03*
G04 #@! TD*
G04 #@! TO.P,P873,1*
G04 #@! TO.N,/WBO_Vm*
X85250126Y70800000D03*
G04 #@! TD*
G04 #@! TO.P,P829,1*
G04 #@! TO.N,/OUT_LS4*
X14800126Y70400000D03*
G04 #@! TD*
G04 #@! TO.P,P815,1*
G04 #@! TO.N,/OUT_INJ5*
X9300126Y49400000D03*
G04 #@! TD*
G04 #@! TO.P,P862,1*
G04 #@! TO.N,/GNDA_D11*
X68725126Y85225000D03*
G04 #@! TD*
G04 #@! TO.P,P823,1*
G04 #@! TO.N,/OUT_IGN6*
X14800126Y45200000D03*
G04 #@! TD*
M02*
