G04 #@! TF.GenerationSoftware,KiCad,Pcbnew,7.0.9*
G04 #@! TF.CreationDate,2024-03-27T02:46:34+03:00*
G04 #@! TF.ProjectId,hellen1-motor-driver,68656c6c-656e-4312-9d6d-6f746f722d64,rev?*
G04 #@! TF.SameCoordinates,PX507b070PY4a65690*
G04 #@! TF.FileFunction,Soldermask,Bot*
G04 #@! TF.FilePolarity,Negative*
%FSLAX46Y46*%
G04 Gerber Fmt 4.6, Leading zero omitted, Abs format (unit mm)*
G04 Created by KiCad (PCBNEW 7.0.9) date 2024-03-27 02:46:34*
%MOMM*%
%LPD*%
G01*
G04 APERTURE LIST*
G04 APERTURE END LIST*
G04 #@! TO.C,R821*
G36*
G01*
X2700000Y4360000D02*
X1920000Y4360000D01*
G75*
G02*
X1850000Y4430000I0J70000D01*
G01*
X1850000Y4990000D01*
G75*
G02*
X1920000Y5060000I70000J0D01*
G01*
X2700000Y5060000D01*
G75*
G02*
X2770000Y4990000I0J-70000D01*
G01*
X2770000Y4430000D01*
G75*
G02*
X2700000Y4360000I-70000J0D01*
G01*
G37*
G36*
G01*
X2700000Y5960000D02*
X1920000Y5960000D01*
G75*
G02*
X1850000Y6030000I0J70000D01*
G01*
X1850000Y6590000D01*
G75*
G02*
X1920000Y6660000I70000J0D01*
G01*
X2700000Y6660000D01*
G75*
G02*
X2770000Y6590000I0J-70000D01*
G01*
X2770000Y6030000D01*
G75*
G02*
X2700000Y5960000I-70000J0D01*
G01*
G37*
G04 #@! TD*
G04 #@! TO.C,R822*
G36*
G01*
X1920000Y9660000D02*
X2700000Y9660000D01*
G75*
G02*
X2770000Y9590000I0J-70000D01*
G01*
X2770000Y9030000D01*
G75*
G02*
X2700000Y8960000I-70000J0D01*
G01*
X1920000Y8960000D01*
G75*
G02*
X1850000Y9030000I0J70000D01*
G01*
X1850000Y9590000D01*
G75*
G02*
X1920000Y9660000I70000J0D01*
G01*
G37*
G36*
G01*
X1920000Y8060000D02*
X2700000Y8060000D01*
G75*
G02*
X2770000Y7990000I0J-70000D01*
G01*
X2770000Y7430000D01*
G75*
G02*
X2700000Y7360000I-70000J0D01*
G01*
X1920000Y7360000D01*
G75*
G02*
X1850000Y7430000I0J70000D01*
G01*
X1850000Y7990000D01*
G75*
G02*
X1920000Y8060000I70000J0D01*
G01*
G37*
G04 #@! TD*
G04 #@! TO.C,C825*
G36*
G01*
X6810008Y8935000D02*
X6810008Y7885000D01*
G75*
G02*
X6710008Y7785000I-100000J0D01*
G01*
X5910008Y7785000D01*
G75*
G02*
X5810008Y7885000I0J100000D01*
G01*
X5810008Y8935000D01*
G75*
G02*
X5910008Y9035000I100000J0D01*
G01*
X6710008Y9035000D01*
G75*
G02*
X6810008Y8935000I0J-100000D01*
G01*
G37*
G36*
G01*
X4810008Y8935000D02*
X4810008Y7885000D01*
G75*
G02*
X4710008Y7785000I-100000J0D01*
G01*
X3910008Y7785000D01*
G75*
G02*
X3810008Y7885000I0J100000D01*
G01*
X3810008Y8935000D01*
G75*
G02*
X3910008Y9035000I100000J0D01*
G01*
X4710008Y9035000D01*
G75*
G02*
X4810008Y8935000I0J-100000D01*
G01*
G37*
G04 #@! TD*
G04 #@! TO.C,C828*
G36*
G01*
X7610008Y4285000D02*
X7610008Y5335000D01*
G75*
G02*
X7710008Y5435000I100000J0D01*
G01*
X8510008Y5435000D01*
G75*
G02*
X8610008Y5335000I0J-100000D01*
G01*
X8610008Y4285000D01*
G75*
G02*
X8510008Y4185000I-100000J0D01*
G01*
X7710008Y4185000D01*
G75*
G02*
X7610008Y4285000I0J100000D01*
G01*
G37*
G36*
G01*
X9610008Y4285000D02*
X9610008Y5335000D01*
G75*
G02*
X9710008Y5435000I100000J0D01*
G01*
X10510008Y5435000D01*
G75*
G02*
X10610008Y5335000I0J-100000D01*
G01*
X10610008Y4285000D01*
G75*
G02*
X10510008Y4185000I-100000J0D01*
G01*
X9710008Y4185000D01*
G75*
G02*
X9610008Y4285000I0J100000D01*
G01*
G37*
G04 #@! TD*
G04 #@! TO.C,C831*
G36*
G01*
X470000Y3725001D02*
X1150000Y3725001D01*
G75*
G02*
X1235000Y3640001I0J-85000D01*
G01*
X1235000Y2960001D01*
G75*
G02*
X1150000Y2875001I-85000J0D01*
G01*
X470000Y2875001D01*
G75*
G02*
X385000Y2960001I0J85000D01*
G01*
X385000Y3640001D01*
G75*
G02*
X470000Y3725001I85000J0D01*
G01*
G37*
G36*
G01*
X470000Y2144999D02*
X1150000Y2144999D01*
G75*
G02*
X1235000Y2059999I0J-85000D01*
G01*
X1235000Y1379999D01*
G75*
G02*
X1150000Y1294999I-85000J0D01*
G01*
X470000Y1294999D01*
G75*
G02*
X385000Y1379999I0J85000D01*
G01*
X385000Y2059999D01*
G75*
G02*
X470000Y2144999I85000J0D01*
G01*
G37*
G04 #@! TD*
G04 #@! TO.C,C833*
G36*
G01*
X11670008Y3200001D02*
X12350008Y3200001D01*
G75*
G02*
X12435008Y3115001I0J-85000D01*
G01*
X12435008Y2435001D01*
G75*
G02*
X12350008Y2350001I-85000J0D01*
G01*
X11670008Y2350001D01*
G75*
G02*
X11585008Y2435001I0J85000D01*
G01*
X11585008Y3115001D01*
G75*
G02*
X11670008Y3200001I85000J0D01*
G01*
G37*
G36*
G01*
X11670008Y1619999D02*
X12350008Y1619999D01*
G75*
G02*
X12435008Y1534999I0J-85000D01*
G01*
X12435008Y854999D01*
G75*
G02*
X12350008Y769999I-85000J0D01*
G01*
X11670008Y769999D01*
G75*
G02*
X11585008Y854999I0J85000D01*
G01*
X11585008Y1534999D01*
G75*
G02*
X11670008Y1619999I85000J0D01*
G01*
G37*
G04 #@! TD*
G04 #@! TO.C,C824*
G36*
G01*
X6810008Y7135000D02*
X6810008Y6085000D01*
G75*
G02*
X6710008Y5985000I-100000J0D01*
G01*
X5910008Y5985000D01*
G75*
G02*
X5810008Y6085000I0J100000D01*
G01*
X5810008Y7135000D01*
G75*
G02*
X5910008Y7235000I100000J0D01*
G01*
X6710008Y7235000D01*
G75*
G02*
X6810008Y7135000I0J-100000D01*
G01*
G37*
G36*
G01*
X4810008Y7135000D02*
X4810008Y6085000D01*
G75*
G02*
X4710008Y5985000I-100000J0D01*
G01*
X3910008Y5985000D01*
G75*
G02*
X3810008Y6085000I0J100000D01*
G01*
X3810008Y7135000D01*
G75*
G02*
X3910008Y7235000I100000J0D01*
G01*
X4710008Y7235000D01*
G75*
G02*
X4810008Y7135000I0J-100000D01*
G01*
G37*
G04 #@! TD*
G04 #@! TO.C,C829*
G36*
G01*
X7610008Y6085000D02*
X7610008Y7135000D01*
G75*
G02*
X7710008Y7235000I100000J0D01*
G01*
X8510008Y7235000D01*
G75*
G02*
X8610008Y7135000I0J-100000D01*
G01*
X8610008Y6085000D01*
G75*
G02*
X8510008Y5985000I-100000J0D01*
G01*
X7710008Y5985000D01*
G75*
G02*
X7610008Y6085000I0J100000D01*
G01*
G37*
G36*
G01*
X9610008Y6085000D02*
X9610008Y7135000D01*
G75*
G02*
X9710008Y7235000I100000J0D01*
G01*
X10510008Y7235000D01*
G75*
G02*
X10610008Y7135000I0J-100000D01*
G01*
X10610008Y6085000D01*
G75*
G02*
X10510008Y5985000I-100000J0D01*
G01*
X9710008Y5985000D01*
G75*
G02*
X9610008Y6085000I0J100000D01*
G01*
G37*
G04 #@! TD*
G04 #@! TO.C,C822*
G36*
G01*
X6810008Y3535000D02*
X6810008Y2485000D01*
G75*
G02*
X6710008Y2385000I-100000J0D01*
G01*
X5910008Y2385000D01*
G75*
G02*
X5810008Y2485000I0J100000D01*
G01*
X5810008Y3535000D01*
G75*
G02*
X5910008Y3635000I100000J0D01*
G01*
X6710008Y3635000D01*
G75*
G02*
X6810008Y3535000I0J-100000D01*
G01*
G37*
G36*
G01*
X4810008Y3535000D02*
X4810008Y2485000D01*
G75*
G02*
X4710008Y2385000I-100000J0D01*
G01*
X3910008Y2385000D01*
G75*
G02*
X3810008Y2485000I0J100000D01*
G01*
X3810008Y3535000D01*
G75*
G02*
X3910008Y3635000I100000J0D01*
G01*
X4710008Y3635000D01*
G75*
G02*
X4810008Y3535000I0J-100000D01*
G01*
G37*
G04 #@! TD*
G04 #@! TO.C,C826*
G36*
G01*
X7610008Y685000D02*
X7610008Y1735000D01*
G75*
G02*
X7710008Y1835000I100000J0D01*
G01*
X8510008Y1835000D01*
G75*
G02*
X8610008Y1735000I0J-100000D01*
G01*
X8610008Y685000D01*
G75*
G02*
X8510008Y585000I-100000J0D01*
G01*
X7710008Y585000D01*
G75*
G02*
X7610008Y685000I0J100000D01*
G01*
G37*
G36*
G01*
X9610008Y685000D02*
X9610008Y1735000D01*
G75*
G02*
X9710008Y1835000I100000J0D01*
G01*
X10510008Y1835000D01*
G75*
G02*
X10610008Y1735000I0J-100000D01*
G01*
X10610008Y685000D01*
G75*
G02*
X10510008Y585000I-100000J0D01*
G01*
X9710008Y585000D01*
G75*
G02*
X9610008Y685000I0J100000D01*
G01*
G37*
G04 #@! TD*
G04 #@! TO.C,C832*
G36*
G01*
X1970000Y3725001D02*
X2650000Y3725001D01*
G75*
G02*
X2735000Y3640001I0J-85000D01*
G01*
X2735000Y2960001D01*
G75*
G02*
X2650000Y2875001I-85000J0D01*
G01*
X1970000Y2875001D01*
G75*
G02*
X1885000Y2960001I0J85000D01*
G01*
X1885000Y3640001D01*
G75*
G02*
X1970000Y3725001I85000J0D01*
G01*
G37*
G36*
G01*
X1970000Y2144999D02*
X2650000Y2144999D01*
G75*
G02*
X2735000Y2059999I0J-85000D01*
G01*
X2735000Y1379999D01*
G75*
G02*
X2650000Y1294999I-85000J0D01*
G01*
X1970000Y1294999D01*
G75*
G02*
X1885000Y1379999I0J85000D01*
G01*
X1885000Y2059999D01*
G75*
G02*
X1970000Y2144999I85000J0D01*
G01*
G37*
G04 #@! TD*
G04 #@! TO.C,C821*
G36*
G01*
X6810008Y1735000D02*
X6810008Y685000D01*
G75*
G02*
X6710008Y585000I-100000J0D01*
G01*
X5910008Y585000D01*
G75*
G02*
X5810008Y685000I0J100000D01*
G01*
X5810008Y1735000D01*
G75*
G02*
X5910008Y1835000I100000J0D01*
G01*
X6710008Y1835000D01*
G75*
G02*
X6810008Y1735000I0J-100000D01*
G01*
G37*
G36*
G01*
X4810008Y1735000D02*
X4810008Y685000D01*
G75*
G02*
X4710008Y585000I-100000J0D01*
G01*
X3910008Y585000D01*
G75*
G02*
X3810008Y685000I0J100000D01*
G01*
X3810008Y1735000D01*
G75*
G02*
X3910008Y1835000I100000J0D01*
G01*
X4710008Y1835000D01*
G75*
G02*
X4810008Y1735000I0J-100000D01*
G01*
G37*
G04 #@! TD*
G04 #@! TO.C,C827*
G36*
G01*
X7610008Y2485000D02*
X7610008Y3535000D01*
G75*
G02*
X7710008Y3635000I100000J0D01*
G01*
X8510008Y3635000D01*
G75*
G02*
X8610008Y3535000I0J-100000D01*
G01*
X8610008Y2485000D01*
G75*
G02*
X8510008Y2385000I-100000J0D01*
G01*
X7710008Y2385000D01*
G75*
G02*
X7610008Y2485000I0J100000D01*
G01*
G37*
G36*
G01*
X9610008Y2485000D02*
X9610008Y3535000D01*
G75*
G02*
X9710008Y3635000I100000J0D01*
G01*
X10510008Y3635000D01*
G75*
G02*
X10610008Y3535000I0J-100000D01*
G01*
X10610008Y2485000D01*
G75*
G02*
X10510008Y2385000I-100000J0D01*
G01*
X9710008Y2385000D01*
G75*
G02*
X9610008Y2485000I0J100000D01*
G01*
G37*
G04 #@! TD*
G04 #@! TO.C,C830*
G36*
G01*
X7610008Y7885000D02*
X7610008Y8935000D01*
G75*
G02*
X7710008Y9035000I100000J0D01*
G01*
X8510008Y9035000D01*
G75*
G02*
X8610008Y8935000I0J-100000D01*
G01*
X8610008Y7885000D01*
G75*
G02*
X8510008Y7785000I-100000J0D01*
G01*
X7710008Y7785000D01*
G75*
G02*
X7610008Y7885000I0J100000D01*
G01*
G37*
G36*
G01*
X9610008Y7885000D02*
X9610008Y8935000D01*
G75*
G02*
X9710008Y9035000I100000J0D01*
G01*
X10510008Y9035000D01*
G75*
G02*
X10610008Y8935000I0J-100000D01*
G01*
X10610008Y7885000D01*
G75*
G02*
X10510008Y7785000I-100000J0D01*
G01*
X9710008Y7785000D01*
G75*
G02*
X9610008Y7885000I0J100000D01*
G01*
G37*
G04 #@! TD*
G04 #@! TO.C,C823*
G36*
G01*
X6810008Y5335000D02*
X6810008Y4285000D01*
G75*
G02*
X6710008Y4185000I-100000J0D01*
G01*
X5910008Y4185000D01*
G75*
G02*
X5810008Y4285000I0J100000D01*
G01*
X5810008Y5335000D01*
G75*
G02*
X5910008Y5435000I100000J0D01*
G01*
X6710008Y5435000D01*
G75*
G02*
X6810008Y5335000I0J-100000D01*
G01*
G37*
G36*
G01*
X4810008Y5335000D02*
X4810008Y4285000D01*
G75*
G02*
X4710008Y4185000I-100000J0D01*
G01*
X3910008Y4185000D01*
G75*
G02*
X3810008Y4285000I0J100000D01*
G01*
X3810008Y5335000D01*
G75*
G02*
X3910008Y5435000I100000J0D01*
G01*
X4710008Y5435000D01*
G75*
G02*
X4810008Y5335000I0J-100000D01*
G01*
G37*
G04 #@! TD*
M02*
