G04 #@! TF.GenerationSoftware,KiCad,Pcbnew,7.0.9*
G04 #@! TF.CreationDate,2024-03-27T02:46:34+03:00*
G04 #@! TF.ProjectId,hellen1-motor-driver,68656c6c-656e-4312-9d6d-6f746f722d64,rev?*
G04 #@! TF.SameCoordinates,PX507b070PY4a65690*
G04 #@! TF.FileFunction,Copper,L1,Top*
G04 #@! TF.FilePolarity,Positive*
%FSLAX46Y46*%
G04 Gerber Fmt 4.6, Leading zero omitted, Abs format (unit mm)*
G04 Created by KiCad (PCBNEW 7.0.9) date 2024-03-27 02:46:34*
%MOMM*%
%LPD*%
G01*
G04 APERTURE LIST*
G04 #@! TA.AperFunction,SMDPad,CuDef*
%ADD10R,0.200000X4.400000*%
G04 #@! TD*
G04 #@! TA.AperFunction,SMDPad,CuDef*
%ADD11R,1.200000X0.200000*%
G04 #@! TD*
G04 #@! TA.AperFunction,SMDPad,CuDef*
%ADD12R,6.800000X0.200000*%
G04 #@! TD*
G04 #@! TA.AperFunction,SMDPad,CuDef*
%ADD13R,4.000000X0.200000*%
G04 #@! TD*
G04 #@! TA.AperFunction,SMDPad,CuDef*
%ADD14R,1.800000X0.200000*%
G04 #@! TD*
G04 #@! TA.AperFunction,SMDPad,CuDef*
%ADD15R,0.200000X10.000000*%
G04 #@! TD*
G04 #@! TA.AperFunction,ComponentPad*
%ADD16C,0.600000*%
G04 #@! TD*
G04 #@! TA.AperFunction,ComponentPad*
%ADD17C,1.000000*%
G04 #@! TD*
G04 #@! TA.AperFunction,SMDPad,CuDef*
%ADD18R,2.000000X0.650000*%
G04 #@! TD*
G04 #@! TA.AperFunction,SMDPad,CuDef*
%ADD19R,4.500000X8.100000*%
G04 #@! TD*
G04 #@! TA.AperFunction,ViaPad*
%ADD20C,0.600000*%
G04 #@! TD*
G04 #@! TA.AperFunction,Conductor*
%ADD21C,0.200000*%
G04 #@! TD*
G04 #@! TA.AperFunction,Conductor*
%ADD22C,0.800000*%
G04 #@! TD*
G04 APERTURE END LIST*
D10*
G04 #@! TO.P,M821,G,GND*
G04 #@! TO.N,GND*
X110000Y2210000D03*
D11*
X610000Y110000D03*
D12*
X5010000Y9910000D03*
X7210000Y110000D03*
D13*
X11810000Y9910000D03*
D14*
X12910000Y110000D03*
D15*
X13710000Y5010000D03*
D16*
G04 #@! TO.P,M821,N1,MOSI*
G04 #@! TO.N,/MOSI*
X1110000Y9710000D03*
D17*
G04 #@! TO.P,M821,N2,12V_IN*
G04 #@! TO.N,+12V*
X9110000Y9510000D03*
G04 #@! TO.P,M821,S1,12V_IN*
X1910000Y510000D03*
G04 #@! TO.P,M821,S2,OUT-*
G04 #@! TO.N,/OUT-*
X3110000Y510000D03*
G04 #@! TO.P,M821,S3,OUT+*
G04 #@! TO.N,/OUT+*
X11310000Y510000D03*
D16*
G04 #@! TO.P,M821,W1,DIS*
G04 #@! TO.N,/DIS*
X310000Y9710000D03*
G04 #@! TO.P,M821,W2,PWM*
G04 #@! TO.N,/PWM*
X310000Y8910000D03*
G04 #@! TO.P,M821,W3,SCLK*
G04 #@! TO.N,/SCLK*
X310000Y8110000D03*
G04 #@! TO.P,M821,W4,DIR*
G04 #@! TO.N,/DIR*
X310000Y7310000D03*
G04 #@! TO.P,M821,W5,3V3_IN*
G04 #@! TO.N,+3V3*
X310000Y6510000D03*
G04 #@! TO.P,M821,W6,MISO*
G04 #@! TO.N,/MISO*
X310000Y5710000D03*
G04 #@! TO.P,M821,W7,~CS*
G04 #@! TO.N,/~CS*
X310000Y4910000D03*
G04 #@! TD*
D18*
G04 #@! TO.P,U821,1,DIR*
G04 #@! TO.N,/DIR*
X2410008Y7310000D03*
G04 #@! TO.P,U821,2,VSO*
G04 #@! TO.N,+3V3*
X2410008Y6310000D03*
G04 #@! TO.P,U821,3,SO*
G04 #@! TO.N,/MISO*
X2410008Y5310000D03*
G04 #@! TO.P,U821,4,VS*
G04 #@! TO.N,+12V*
X2410008Y4310000D03*
G04 #@! TO.P,U821,5,OUT1*
G04 #@! TO.N,/OUT-*
X2410008Y3310000D03*
G04 #@! TO.P,U821,6,GND*
G04 #@! TO.N,GND*
X2410008Y2310000D03*
G04 #@! TO.P,U821,7,OUT2*
G04 #@! TO.N,/OUT+*
X12010008Y2310000D03*
G04 #@! TO.P,U821,8,SI*
G04 #@! TO.N,/MOSI*
X12010008Y3310000D03*
G04 #@! TO.P,U821,9,CSN*
G04 #@! TO.N,/~CS*
X12010008Y4310000D03*
G04 #@! TO.P,U821,10,SCK*
G04 #@! TO.N,/SCLK*
X12010008Y5310000D03*
G04 #@! TO.P,U821,11,DIS*
G04 #@! TO.N,/DIS*
X12010008Y6310000D03*
G04 #@! TO.P,U821,12,PWM*
G04 #@! TO.N,/PWM*
X12010008Y7310000D03*
D19*
G04 #@! TO.P,U821,13,GND*
G04 #@! TO.N,GND*
X7210008Y4810000D03*
G04 #@! TD*
D20*
G04 #@! TO.N,GND*
X7210000Y9460000D03*
X3353535Y1753535D03*
X12810000Y9410000D03*
X5410000Y2110000D03*
X13310000Y8110000D03*
X9010000Y5710000D03*
X13210000Y610000D03*
X3310000Y9460000D03*
X7210000Y2110000D03*
X610002Y610000D03*
X5310000Y510000D03*
X5310000Y9410000D03*
X7210000Y3910000D03*
X7210000Y7510000D03*
X7210000Y5710000D03*
X9110000Y510000D03*
X5410000Y7510000D03*
G04 #@! TO.N,+12V*
X4406524Y4023526D03*
X10110000Y2110000D03*
X10110000Y3910000D03*
X1010008Y4310000D03*
X4310008Y5710000D03*
G04 #@! TO.N,/DIS*
X11203618Y8425799D03*
G04 #@! TO.N,/PWM*
X12010008Y8010010D03*
G04 #@! TO.N,/~CS*
X12910008Y1510000D03*
G04 #@! TO.N,/SCLK*
X13160498Y5310000D03*
G04 #@! TO.N,/MOSI*
X11210000Y9210000D03*
G04 #@! TD*
D21*
G04 #@! TO.N,+3V3*
X510008Y6310000D02*
X310000Y6510008D01*
X2410008Y6310000D02*
X510008Y6310000D01*
D22*
G04 #@! TO.N,/OUT-*
X3776548Y3310000D02*
X4203504Y2883044D01*
X3312082Y510000D02*
X3110000Y510000D01*
X2410008Y3310000D02*
X3776548Y3310000D01*
X4203504Y1401422D02*
X3312082Y510000D01*
X4203504Y2883044D02*
X4203504Y1401422D01*
G04 #@! TO.N,/OUT+*
X12010008Y1310008D02*
X11210000Y510000D01*
X12010008Y2310000D02*
X12010008Y1310008D01*
G04 #@! TO.N,+12V*
X2410008Y4310000D02*
X4120050Y4310000D01*
X860008Y4160000D02*
X860008Y1562076D01*
X1010008Y4310000D02*
X860008Y4160000D01*
X4120050Y4310000D02*
X4406524Y4023526D01*
X1910000Y512084D02*
X1910000Y510000D01*
X2410008Y4310000D02*
X1010008Y4310000D01*
X860008Y1562076D02*
X1910000Y512084D01*
D21*
G04 #@! TO.N,/DIS*
X12010008Y6310000D02*
X10810008Y6310000D01*
X10760008Y6360000D02*
X10760008Y7982189D01*
X10760008Y7982189D02*
X11203618Y8425799D01*
X10810008Y6310000D02*
X10760008Y6360000D01*
G04 #@! TO.N,/DIR*
X2410008Y7310000D02*
X310008Y7310000D01*
G04 #@! TO.N,/PWM*
X12010008Y7310000D02*
X12010008Y8010010D01*
G04 #@! TO.N,/~CS*
X13210008Y4310000D02*
X13260008Y4260000D01*
X13260008Y1860000D02*
X12910008Y1510000D01*
X13260008Y4260000D02*
X13260008Y1860000D01*
X12010008Y4310000D02*
X13210008Y4310000D01*
G04 #@! TO.N,/SCLK*
X13160498Y5310000D02*
X12010008Y5310000D01*
G04 #@! TO.N,/MOSI*
X10310000Y8310000D02*
X11210000Y9210000D01*
X12010008Y3310000D02*
X10810008Y3310000D01*
X10810008Y3310000D02*
X10760008Y3360000D01*
X10760008Y3360000D02*
X10760008Y4459992D01*
X10760008Y4459992D02*
X10310000Y4910000D01*
X10310000Y4910000D02*
X10310000Y8310000D01*
G04 #@! TO.N,/MISO*
X710008Y5310000D02*
X2410008Y5310000D01*
X310008Y5710000D02*
X710008Y5310000D01*
G04 #@! TD*
G04 #@! TA.AperFunction,Conductor*
G04 #@! TO.N,GND*
G36*
X315203Y1392924D02*
G01*
X342088Y1359981D01*
X343074Y1358227D01*
X343075Y1358224D01*
X361329Y1325759D01*
X364771Y1319637D01*
X367590Y1313961D01*
X378995Y1287706D01*
X385229Y1273354D01*
X396549Y1259440D01*
X408447Y1241959D01*
X417242Y1226316D01*
X417244Y1226315D01*
X448540Y1195019D01*
X452791Y1190310D01*
X480730Y1155968D01*
X495389Y1145621D01*
X511560Y1131999D01*
X1173681Y469878D01*
X1207166Y408555D01*
X1210000Y382197D01*
X1210000Y234000D01*
X1190315Y166961D01*
X1137511Y121206D01*
X1086000Y110000D01*
X234000Y110000D01*
X166961Y129685D01*
X121206Y182489D01*
X110000Y234000D01*
X110000Y1299211D01*
X129685Y1366250D01*
X182489Y1412005D01*
X251647Y1421949D01*
X315203Y1392924D01*
G37*
G04 #@! TD.AperFunction*
G04 #@! TA.AperFunction,Conductor*
G36*
X8353039Y9890315D02*
G01*
X8398794Y9837511D01*
X8410000Y9786000D01*
X8410000Y8810000D01*
X9810000Y8810000D01*
X9810000Y9786000D01*
X9829685Y9853039D01*
X9882489Y9898794D01*
X9934000Y9910000D01*
X13586000Y9910000D01*
X13653039Y9890315D01*
X13698794Y9837511D01*
X13710000Y9786000D01*
X13710000Y5696232D01*
X13690315Y5629193D01*
X13637511Y5583438D01*
X13568353Y5573494D01*
X13504797Y5602519D01*
X13492287Y5615030D01*
X13458549Y5653965D01*
X13458548Y5653966D01*
X13458547Y5653967D01*
X13349567Y5724004D01*
X13349566Y5724005D01*
X13349562Y5724007D01*
X13230978Y5758825D01*
X13172199Y5796599D01*
X13143174Y5860154D01*
X13149961Y5914187D01*
X13149393Y5914300D01*
X13150975Y5922257D01*
X13151353Y5925260D01*
X13151772Y5926274D01*
X13151775Y5926278D01*
X13158422Y5959691D01*
X13160508Y5970178D01*
X13160508Y6649823D01*
X13151776Y6693718D01*
X13151776Y6693719D01*
X13151775Y6693721D01*
X13151775Y6693722D01*
X13120109Y6741114D01*
X13099233Y6807786D01*
X13117717Y6875166D01*
X13120062Y6878817D01*
X13151775Y6926278D01*
X13160508Y6970180D01*
X13160508Y7649820D01*
X13160508Y7649823D01*
X13151776Y7693718D01*
X13151775Y7693719D01*
X13151775Y7693722D01*
X13118512Y7743504D01*
X13118511Y7743505D01*
X13068732Y7776766D01*
X13068725Y7776769D01*
X13024830Y7785500D01*
X13024828Y7785500D01*
X12575965Y7785500D01*
X12508926Y7805185D01*
X12463171Y7857989D01*
X12453227Y7927147D01*
X12460150Y7975299D01*
X12465141Y8010010D01*
X12446705Y8138236D01*
X12392890Y8256073D01*
X12308057Y8353977D01*
X12199077Y8424014D01*
X12199073Y8424016D01*
X12199072Y8424016D01*
X12074782Y8460510D01*
X12074780Y8460510D01*
X11945236Y8460510D01*
X11945234Y8460510D01*
X11820939Y8424015D01*
X11819659Y8423430D01*
X11818265Y8423230D01*
X11812429Y8421516D01*
X11812182Y8422356D01*
X11750500Y8413487D01*
X11686945Y8442513D01*
X11649171Y8501292D01*
X11645411Y8518580D01*
X11640315Y8554024D01*
X11633803Y8568285D01*
X11586500Y8671862D01*
X11586498Y8671864D01*
X11586497Y8671867D01*
X11533512Y8733015D01*
X11504487Y8796571D01*
X11514431Y8865729D01*
X11533512Y8895419D01*
X11592879Y8963933D01*
X11592879Y8963935D01*
X11592882Y8963937D01*
X11646697Y9081774D01*
X11665133Y9210000D01*
X11646697Y9338226D01*
X11592882Y9456063D01*
X11508049Y9553967D01*
X11399069Y9624004D01*
X11399065Y9624006D01*
X11399064Y9624006D01*
X11274774Y9660500D01*
X11274772Y9660500D01*
X11145228Y9660500D01*
X11145226Y9660500D01*
X11020935Y9624006D01*
X11020932Y9624005D01*
X11020931Y9624004D01*
X10969677Y9591066D01*
X10911950Y9553967D01*
X10827118Y9456063D01*
X10827117Y9456062D01*
X10773302Y9338226D01*
X10754867Y9209999D01*
X10754867Y9209998D01*
X10758713Y9183243D01*
X10748768Y9114085D01*
X10723656Y9077918D01*
X10158955Y8513217D01*
X10140169Y8497799D01*
X10129403Y8490606D01*
X10129397Y8490600D01*
X10093942Y8437537D01*
X10074034Y8407742D01*
X10074032Y8407736D01*
X10054592Y8310003D01*
X10054592Y8310001D01*
X10057117Y8297308D01*
X10059500Y8273115D01*
X10059500Y4946889D01*
X10057118Y4922700D01*
X10054592Y4910000D01*
X10054592Y4909998D01*
X10074032Y4812262D01*
X10074033Y4812260D01*
X10074034Y4812259D01*
X10091914Y4785500D01*
X10129399Y4729399D01*
X10140168Y4722204D01*
X10158957Y4706783D01*
X10299077Y4566663D01*
X10332562Y4505340D01*
X10327578Y4435648D01*
X10285706Y4379715D01*
X10220242Y4355298D01*
X10183552Y4359242D01*
X10183552Y4359238D01*
X10183450Y4359253D01*
X10176469Y4360003D01*
X10174778Y4360500D01*
X10174772Y4360500D01*
X10045228Y4360500D01*
X10045226Y4360500D01*
X9920935Y4324006D01*
X9920932Y4324005D01*
X9920931Y4324004D01*
X9870453Y4291564D01*
X9811950Y4253967D01*
X9727118Y4156063D01*
X9727117Y4156062D01*
X9673302Y4038226D01*
X9654867Y3910000D01*
X9673302Y3781775D01*
X9710492Y3700343D01*
X9727118Y3663937D01*
X9811951Y3566033D01*
X9920931Y3495996D01*
X10015683Y3468175D01*
X10045225Y3459501D01*
X10045227Y3459500D01*
X10045228Y3459500D01*
X10174773Y3459500D01*
X10174773Y3459501D01*
X10253572Y3482638D01*
X10299063Y3495994D01*
X10299063Y3495995D01*
X10299069Y3495996D01*
X10318471Y3508466D01*
X10385506Y3528149D01*
X10452546Y3508465D01*
X10498302Y3455662D01*
X10509508Y3404149D01*
X10509508Y3396889D01*
X10507126Y3372700D01*
X10504600Y3360000D01*
X10524042Y3262260D01*
X10524042Y3262259D01*
X10530114Y3253172D01*
X10579406Y3179399D01*
X10588871Y3173075D01*
X10623081Y3138866D01*
X10629405Y3129401D01*
X10629406Y3129401D01*
X10629407Y3129399D01*
X10650324Y3115423D01*
X10650325Y3115422D01*
X10712268Y3074034D01*
X10762805Y3063981D01*
X10824714Y3031597D01*
X10859288Y2970881D01*
X10860228Y2966557D01*
X10868239Y2926283D01*
X10868240Y2926280D01*
X10868240Y2926279D01*
X10868241Y2926278D01*
X10899905Y2878889D01*
X10920782Y2812213D01*
X10902297Y2744833D01*
X10899920Y2741134D01*
X10887925Y2723181D01*
X10868240Y2693721D01*
X10868239Y2693718D01*
X10859508Y2649823D01*
X10859508Y2649820D01*
X10859508Y1970180D01*
X10859508Y1970178D01*
X10859507Y1970178D01*
X10868239Y1926283D01*
X10868240Y1926279D01*
X10868241Y1926278D01*
X10901504Y1876496D01*
X10951286Y1843233D01*
X10951289Y1843233D01*
X10951290Y1843232D01*
X10995185Y1834500D01*
X10995188Y1834500D01*
X11335508Y1834500D01*
X11402547Y1814815D01*
X11448302Y1762011D01*
X11459508Y1710500D01*
X11459508Y1589395D01*
X11439823Y1522356D01*
X11423189Y1501714D01*
X11167794Y1246319D01*
X11106471Y1212834D01*
X11080113Y1210000D01*
X10610000Y1210000D01*
X10610000Y234000D01*
X10590315Y166961D01*
X10537511Y121206D01*
X10486000Y110000D01*
X3989968Y110000D01*
X3922929Y129685D01*
X3877174Y182489D01*
X3867230Y251647D01*
X3896255Y315203D01*
X3902287Y321681D01*
X4586107Y1005502D01*
X4634548Y1050742D01*
X4657545Y1088561D01*
X4661117Y1093811D01*
X4687865Y1129080D01*
X4694449Y1145779D01*
X4703848Y1164703D01*
X4713176Y1180040D01*
X4725123Y1222683D01*
X4727136Y1228669D01*
X4743380Y1269858D01*
X4743740Y1273354D01*
X4745215Y1287706D01*
X4749162Y1308478D01*
X4754004Y1325757D01*
X4754004Y1370017D01*
X4754329Y1376362D01*
X4758856Y1420394D01*
X4755807Y1438079D01*
X4754004Y1459147D01*
X4754004Y2110000D01*
X9654867Y2110000D01*
X9673302Y1981775D01*
X9698645Y1926283D01*
X9727118Y1863937D01*
X9811951Y1766033D01*
X9920931Y1695996D01*
X10025056Y1665423D01*
X10045225Y1659501D01*
X10045227Y1659500D01*
X10045228Y1659500D01*
X10174773Y1659500D01*
X10174773Y1659501D01*
X10299069Y1695996D01*
X10408049Y1766033D01*
X10492882Y1863937D01*
X10546697Y1981774D01*
X10565133Y2110000D01*
X10546697Y2238226D01*
X10492882Y2356063D01*
X10408049Y2453967D01*
X10299069Y2524004D01*
X10299065Y2524006D01*
X10299064Y2524006D01*
X10174774Y2560500D01*
X10174772Y2560500D01*
X10045228Y2560500D01*
X10045226Y2560500D01*
X9920935Y2524006D01*
X9920932Y2524005D01*
X9920931Y2524004D01*
X9869677Y2491066D01*
X9811950Y2453967D01*
X9727118Y2356063D01*
X9727117Y2356062D01*
X9673302Y2238226D01*
X9654867Y2110000D01*
X4754004Y2110000D01*
X4754004Y2873647D01*
X4754183Y2878890D01*
X4756266Y2939870D01*
X4749762Y2966557D01*
X4745787Y2982870D01*
X4744600Y2989113D01*
X4738574Y3032962D01*
X4738574Y3032964D01*
X4731425Y3049422D01*
X4724684Y3069466D01*
X4720437Y3086896D01*
X4698742Y3125480D01*
X4695918Y3131166D01*
X4692573Y3138866D01*
X4678284Y3171764D01*
X4678284Y3171765D01*
X4666962Y3185681D01*
X4655061Y3203168D01*
X4646272Y3218800D01*
X4646271Y3218801D01*
X4646270Y3218803D01*
X4614960Y3250113D01*
X4610714Y3254819D01*
X4603316Y3263912D01*
X4582782Y3289152D01*
X4579382Y3291552D01*
X4577014Y3294538D01*
X4576587Y3294937D01*
X4576646Y3295002D01*
X4535969Y3346294D01*
X4529042Y3415819D01*
X4560802Y3478053D01*
X4597634Y3504830D01*
X4711285Y3558879D01*
X4825344Y3658334D01*
X4908341Y3784873D01*
X4954120Y3929111D01*
X4959286Y4080352D01*
X4959285Y4080357D01*
X4923457Y4227379D01*
X4849288Y4359287D01*
X4849286Y4359289D01*
X4682622Y4525953D01*
X4515958Y4692617D01*
X4470730Y4741044D01*
X4466685Y4743504D01*
X4432911Y4764043D01*
X4427660Y4767617D01*
X4392391Y4794362D01*
X4392392Y4794362D01*
X4375692Y4800948D01*
X4356766Y4810348D01*
X4341430Y4819673D01*
X4298808Y4831616D01*
X4292790Y4833640D01*
X4251615Y4849876D01*
X4251606Y4849878D01*
X4233766Y4851712D01*
X4213001Y4855658D01*
X4195719Y4860500D01*
X4195715Y4860500D01*
X4151456Y4860500D01*
X4145114Y4860825D01*
X4117477Y4863667D01*
X4101079Y4865352D01*
X4101074Y4865352D01*
X4083394Y4862303D01*
X4062326Y4860500D01*
X3684508Y4860500D01*
X3617469Y4880185D01*
X3571714Y4932989D01*
X3560508Y4984500D01*
X3560508Y5649823D01*
X3551776Y5693718D01*
X3551776Y5693719D01*
X3551775Y5693721D01*
X3551775Y5693722D01*
X3540898Y5710000D01*
X3854875Y5710000D01*
X3873310Y5581775D01*
X3885053Y5556063D01*
X3927126Y5463937D01*
X4011959Y5366033D01*
X4120939Y5295996D01*
X4245233Y5259501D01*
X4245235Y5259500D01*
X4245236Y5259500D01*
X4374781Y5259500D01*
X4374781Y5259501D01*
X4499077Y5295996D01*
X4608057Y5366033D01*
X4692890Y5463937D01*
X4746705Y5581774D01*
X4765141Y5710000D01*
X4746705Y5838226D01*
X4692890Y5956063D01*
X4608057Y6053967D01*
X4499077Y6124004D01*
X4499073Y6124006D01*
X4499072Y6124006D01*
X4374782Y6160500D01*
X4374780Y6160500D01*
X4245236Y6160500D01*
X4245234Y6160500D01*
X4120943Y6124006D01*
X4120940Y6124005D01*
X4120939Y6124004D01*
X4069685Y6091066D01*
X4011958Y6053967D01*
X3927126Y5956063D01*
X3927125Y5956062D01*
X3873310Y5838226D01*
X3854875Y5710000D01*
X3540898Y5710000D01*
X3520109Y5741114D01*
X3499233Y5807786D01*
X3517717Y5875166D01*
X3520062Y5878817D01*
X3551775Y5926278D01*
X3558422Y5959691D01*
X3560508Y5970178D01*
X3560508Y6649823D01*
X3551776Y6693718D01*
X3551776Y6693719D01*
X3551775Y6693721D01*
X3551775Y6693722D01*
X3520109Y6741114D01*
X3499233Y6807786D01*
X3517717Y6875166D01*
X3520062Y6878817D01*
X3551775Y6926278D01*
X3560508Y6970180D01*
X3560508Y7649820D01*
X3560508Y7649823D01*
X3551776Y7693718D01*
X3551775Y7693719D01*
X3551775Y7693722D01*
X3518512Y7743504D01*
X3518511Y7743505D01*
X3468732Y7776766D01*
X3468725Y7776769D01*
X3424830Y7785500D01*
X3424828Y7785500D01*
X1395188Y7785500D01*
X1395186Y7785500D01*
X1351290Y7776769D01*
X1351283Y7776766D01*
X1301504Y7743505D01*
X1301503Y7743504D01*
X1268242Y7693725D01*
X1268239Y7693718D01*
X1261594Y7660309D01*
X1229209Y7598398D01*
X1168494Y7563824D01*
X1139977Y7560500D01*
X745666Y7560500D01*
X678627Y7580185D01*
X651951Y7603300D01*
X640282Y7616768D01*
X611261Y7680326D01*
X610000Y7697965D01*
X610000Y7722037D01*
X629685Y7789076D01*
X640278Y7803229D01*
X692882Y7863937D01*
X746697Y7981774D01*
X765133Y8110000D01*
X746697Y8238226D01*
X692882Y8356063D01*
X692880Y8356065D01*
X692879Y8356068D01*
X640286Y8416765D01*
X611262Y8480321D01*
X610000Y8497966D01*
X610000Y8522037D01*
X629685Y8589076D01*
X640278Y8603229D01*
X692882Y8663937D01*
X746697Y8781774D01*
X765133Y8910000D01*
X746697Y9038226D01*
X692882Y9156063D01*
X692879Y9156066D01*
X688087Y9163524D01*
X690830Y9165287D01*
X668425Y9214345D01*
X678368Y9283504D01*
X724122Y9336309D01*
X791161Y9355994D01*
X858201Y9336310D01*
X920931Y9295996D01*
X963476Y9283504D01*
X1045225Y9259501D01*
X1045227Y9259500D01*
X1045228Y9259500D01*
X1174773Y9259500D01*
X1174773Y9259501D01*
X1299069Y9295996D01*
X1408049Y9366033D01*
X1409062Y9367202D01*
X1410366Y9368041D01*
X1414754Y9371842D01*
X1415300Y9371212D01*
X1467840Y9404977D01*
X1502776Y9410000D01*
X1610000Y9410000D01*
X1610000Y9786000D01*
X1629685Y9853039D01*
X1682489Y9898794D01*
X1734000Y9910000D01*
X8286000Y9910000D01*
X8353039Y9890315D01*
G37*
G04 #@! TD.AperFunction*
G04 #@! TA.AperFunction,Conductor*
G36*
X13668862Y1766048D02*
G01*
X13705581Y1706606D01*
X13710000Y1673799D01*
X13710000Y234000D01*
X13690315Y166961D01*
X13637511Y121206D01*
X13586000Y110000D01*
X12134000Y110000D01*
X12066961Y129685D01*
X12021206Y182489D01*
X12010000Y234000D01*
X12010000Y480114D01*
X12029685Y547153D01*
X12046319Y567795D01*
X12392611Y914088D01*
X12441052Y959328D01*
X12464049Y997147D01*
X12467621Y1002397D01*
X12494369Y1037666D01*
X12500953Y1054365D01*
X12510355Y1073294D01*
X12513410Y1078317D01*
X12565063Y1125365D01*
X12633953Y1137020D01*
X12686390Y1118199D01*
X12720939Y1095996D01*
X12829127Y1064230D01*
X12845233Y1059501D01*
X12845235Y1059500D01*
X12845236Y1059500D01*
X12974781Y1059500D01*
X12974781Y1059501D01*
X13099077Y1095996D01*
X13208057Y1166033D01*
X13292890Y1263937D01*
X13346705Y1381774D01*
X13365141Y1510000D01*
X13361294Y1536755D01*
X13371237Y1605913D01*
X13396351Y1642083D01*
X13411056Y1656788D01*
X13429843Y1672207D01*
X13440609Y1679399D01*
X13482897Y1742690D01*
X13536509Y1787494D01*
X13605834Y1796203D01*
X13668862Y1766048D01*
G37*
G04 #@! TD.AperFunction*
G04 #@! TA.AperFunction,Conductor*
G36*
X2162118Y2816448D02*
G01*
X2188626Y2800328D01*
X2334343Y2759500D01*
X3497161Y2759500D01*
X3564200Y2739815D01*
X3584842Y2723181D01*
X3616685Y2691338D01*
X3650170Y2630015D01*
X3653004Y2603657D01*
X3653004Y1680809D01*
X3633319Y1613770D01*
X3616685Y1593128D01*
X3269876Y1246319D01*
X3208553Y1212834D01*
X3182195Y1210000D01*
X2041971Y1210000D01*
X1974932Y1229685D01*
X1954290Y1246319D01*
X1446827Y1753782D01*
X1413342Y1815105D01*
X1410508Y1841463D01*
X1410508Y2710500D01*
X1430193Y2777539D01*
X1482997Y2823294D01*
X1534508Y2834500D01*
X2097689Y2834500D01*
X2162118Y2816448D01*
G37*
G04 #@! TD.AperFunction*
G04 #@! TA.AperFunction,Conductor*
G36*
X13679712Y5004973D02*
G01*
X13708738Y4941418D01*
X13710000Y4923769D01*
X13710000Y4446201D01*
X13690315Y4379162D01*
X13637511Y4333407D01*
X13568353Y4323463D01*
X13504797Y4352488D01*
X13482897Y4377311D01*
X13481660Y4379162D01*
X13454586Y4419683D01*
X13451202Y4424748D01*
X13440608Y4440602D01*
X13431143Y4446926D01*
X13396933Y4481136D01*
X13390609Y4490601D01*
X13390607Y4490602D01*
X13390607Y4490603D01*
X13364165Y4508271D01*
X13337544Y4526058D01*
X13307749Y4545966D01*
X13307748Y4545967D01*
X13307747Y4545967D01*
X13257212Y4556019D01*
X13195301Y4588404D01*
X13160727Y4649120D01*
X13159794Y4653408D01*
X13151775Y4693722D01*
X13151774Y4693723D01*
X13151774Y4693725D01*
X13151352Y4694744D01*
X13151093Y4697148D01*
X13149392Y4705702D01*
X13150157Y4705855D01*
X13143882Y4764213D01*
X13175155Y4826693D01*
X13230976Y4861176D01*
X13349567Y4895996D01*
X13458547Y4966033D01*
X13458549Y4966035D01*
X13492286Y5004970D01*
X13551063Y5042746D01*
X13620933Y5042747D01*
X13679712Y5004973D01*
G37*
G04 #@! TD.AperFunction*
G04 #@! TD*
M02*
