G04 #@! TF.GenerationSoftware,KiCad,Pcbnew,7.0.9*
G04 #@! TF.CreationDate,2024-03-10T08:17:23+03:00*
G04 #@! TF.ProjectId,hellen1-motor-driver,68656c6c-656e-4312-9d6d-6f746f722d64,rev?*
G04 #@! TF.SameCoordinates,PX507d780PY4a62f80*
G04 #@! TF.FileFunction,Legend,Bot*
G04 #@! TF.FilePolarity,Positive*
%FSLAX46Y46*%
G04 Gerber Fmt 4.6, Leading zero omitted, Abs format (unit mm)*
G04 Created by KiCad (PCBNEW 7.0.9) date 2024-03-10 08:17:23*
%MOMM*%
%LPD*%
G01*
G04 APERTURE LIST*
%ADD10C,0.150000*%
%ADD11C,0.100000*%
%ADD12C,0.203200*%
%ADD13C,0.200000*%
G04 APERTURE END LIST*
D10*
X12237704Y8190477D02*
X12237704Y8266667D01*
X12237704Y8266667D02*
X12199609Y8342858D01*
X12199609Y8342858D02*
X12161514Y8380953D01*
X12161514Y8380953D02*
X12085323Y8419048D01*
X12085323Y8419048D02*
X11932942Y8457143D01*
X11932942Y8457143D02*
X11742466Y8457143D01*
X11742466Y8457143D02*
X11590085Y8419048D01*
X11590085Y8419048D02*
X11513895Y8380953D01*
X11513895Y8380953D02*
X11475800Y8342858D01*
X11475800Y8342858D02*
X11437704Y8266667D01*
X11437704Y8266667D02*
X11437704Y8190477D01*
X11437704Y8190477D02*
X11475800Y8114286D01*
X11475800Y8114286D02*
X11513895Y8076191D01*
X11513895Y8076191D02*
X11590085Y8038096D01*
X11590085Y8038096D02*
X11742466Y8000000D01*
X11742466Y8000000D02*
X11932942Y8000000D01*
X11932942Y8000000D02*
X12085323Y8038096D01*
X12085323Y8038096D02*
X12161514Y8076191D01*
X12161514Y8076191D02*
X12199609Y8114286D01*
X12199609Y8114286D02*
X12237704Y8190477D01*
X11513895Y8800001D02*
X11475800Y8838096D01*
X11475800Y8838096D02*
X11437704Y8800001D01*
X11437704Y8800001D02*
X11475800Y8761905D01*
X11475800Y8761905D02*
X11513895Y8800001D01*
X11513895Y8800001D02*
X11437704Y8800001D01*
X11437704Y9600000D02*
X11437704Y9142857D01*
X11437704Y9371429D02*
X12237704Y9371429D01*
X12237704Y9371429D02*
X12123419Y9295238D01*
X12123419Y9295238D02*
X12047228Y9219048D01*
X12047228Y9219048D02*
X12009133Y9142857D01*
X12637704Y600001D02*
X13437704Y600001D01*
X13437704Y600001D02*
X12866276Y866667D01*
X12866276Y866667D02*
X13437704Y1133334D01*
X13437704Y1133334D02*
X12637704Y1133334D01*
X13437704Y1666668D02*
X13437704Y1819049D01*
X13437704Y1819049D02*
X13399609Y1895239D01*
X13399609Y1895239D02*
X13323419Y1971430D01*
X13323419Y1971430D02*
X13171038Y2009525D01*
X13171038Y2009525D02*
X12904371Y2009525D01*
X12904371Y2009525D02*
X12751990Y1971430D01*
X12751990Y1971430D02*
X12675800Y1895239D01*
X12675800Y1895239D02*
X12637704Y1819049D01*
X12637704Y1819049D02*
X12637704Y1666668D01*
X12637704Y1666668D02*
X12675800Y1590477D01*
X12675800Y1590477D02*
X12751990Y1514287D01*
X12751990Y1514287D02*
X12904371Y1476191D01*
X12904371Y1476191D02*
X13171038Y1476191D01*
X13171038Y1476191D02*
X13323419Y1514287D01*
X13323419Y1514287D02*
X13399609Y1590477D01*
X13399609Y1590477D02*
X13437704Y1666668D01*
X13437704Y2238096D02*
X13437704Y2695239D01*
X12637704Y2466667D02*
X13437704Y2466667D01*
X13437704Y3114287D02*
X13437704Y3266668D01*
X13437704Y3266668D02*
X13399609Y3342858D01*
X13399609Y3342858D02*
X13323419Y3419049D01*
X13323419Y3419049D02*
X13171038Y3457144D01*
X13171038Y3457144D02*
X12904371Y3457144D01*
X12904371Y3457144D02*
X12751990Y3419049D01*
X12751990Y3419049D02*
X12675800Y3342858D01*
X12675800Y3342858D02*
X12637704Y3266668D01*
X12637704Y3266668D02*
X12637704Y3114287D01*
X12637704Y3114287D02*
X12675800Y3038096D01*
X12675800Y3038096D02*
X12751990Y2961906D01*
X12751990Y2961906D02*
X12904371Y2923810D01*
X12904371Y2923810D02*
X13171038Y2923810D01*
X13171038Y2923810D02*
X13323419Y2961906D01*
X13323419Y2961906D02*
X13399609Y3038096D01*
X13399609Y3038096D02*
X13437704Y3114287D01*
X12637704Y4257144D02*
X13018657Y3990477D01*
X12637704Y3800001D02*
X13437704Y3800001D01*
X13437704Y3800001D02*
X13437704Y4104763D01*
X13437704Y4104763D02*
X13399609Y4180953D01*
X13399609Y4180953D02*
X13361514Y4219048D01*
X13361514Y4219048D02*
X13285323Y4257144D01*
X13285323Y4257144D02*
X13171038Y4257144D01*
X13171038Y4257144D02*
X13094847Y4219048D01*
X13094847Y4219048D02*
X13056752Y4180953D01*
X13056752Y4180953D02*
X13018657Y4104763D01*
X13018657Y4104763D02*
X13018657Y3800001D01*
X12942466Y4600001D02*
X12942466Y5209524D01*
X12637704Y5590477D02*
X13437704Y5590477D01*
X13437704Y5590477D02*
X13437704Y5780953D01*
X13437704Y5780953D02*
X13399609Y5895239D01*
X13399609Y5895239D02*
X13323419Y5971429D01*
X13323419Y5971429D02*
X13247228Y6009524D01*
X13247228Y6009524D02*
X13094847Y6047620D01*
X13094847Y6047620D02*
X12980561Y6047620D01*
X12980561Y6047620D02*
X12828180Y6009524D01*
X12828180Y6009524D02*
X12751990Y5971429D01*
X12751990Y5971429D02*
X12675800Y5895239D01*
X12675800Y5895239D02*
X12637704Y5780953D01*
X12637704Y5780953D02*
X12637704Y5590477D01*
X12637704Y6847620D02*
X13018657Y6580953D01*
X12637704Y6390477D02*
X13437704Y6390477D01*
X13437704Y6390477D02*
X13437704Y6695239D01*
X13437704Y6695239D02*
X13399609Y6771429D01*
X13399609Y6771429D02*
X13361514Y6809524D01*
X13361514Y6809524D02*
X13285323Y6847620D01*
X13285323Y6847620D02*
X13171038Y6847620D01*
X13171038Y6847620D02*
X13094847Y6809524D01*
X13094847Y6809524D02*
X13056752Y6771429D01*
X13056752Y6771429D02*
X13018657Y6695239D01*
X13018657Y6695239D02*
X13018657Y6390477D01*
X12637704Y7190477D02*
X13437704Y7190477D01*
X13437704Y7457143D02*
X12637704Y7723810D01*
X12637704Y7723810D02*
X13437704Y7990476D01*
X13056752Y8257143D02*
X13056752Y8523809D01*
X12637704Y8638095D02*
X12637704Y8257143D01*
X12637704Y8257143D02*
X13437704Y8257143D01*
X13437704Y8257143D02*
X13437704Y8638095D01*
X12637704Y9438096D02*
X13018657Y9171429D01*
X12637704Y8980953D02*
X13437704Y8980953D01*
X13437704Y8980953D02*
X13437704Y9285715D01*
X13437704Y9285715D02*
X13399609Y9361905D01*
X13399609Y9361905D02*
X13361514Y9400000D01*
X13361514Y9400000D02*
X13285323Y9438096D01*
X13285323Y9438096D02*
X13171038Y9438096D01*
X13171038Y9438096D02*
X13094847Y9400000D01*
X13094847Y9400000D02*
X13056752Y9361905D01*
X13056752Y9361905D02*
X13018657Y9285715D01*
X13018657Y9285715D02*
X13018657Y8980953D01*
D11*
G04 #@! TO.C,M821*
X13750000Y9950000D02*
X50000Y9950000D01*
X50000Y9950000D02*
X50000Y50000D01*
X50000Y50000D02*
X13750000Y50000D01*
X13750000Y50000D02*
X13750000Y9950000D01*
D12*
G04 #@! TO.C,R822*
X1925005Y8700000D02*
X1925015Y8300000D01*
X2670840Y8701056D02*
X2670851Y8301057D01*
G04 #@! TO.C,R821*
X2674995Y5300000D02*
X2674985Y5700000D01*
X1929160Y5298944D02*
X1929149Y5698943D01*
D13*
G04 #@! TO.C,C833*
X11650022Y1975000D02*
X12400007Y1975000D01*
G04 #@! TO.C,C832*
X1950014Y2500000D02*
X2699999Y2500000D01*
G04 #@! TO.C,C831*
X450014Y2500000D02*
X1199999Y2500000D01*
G04 #@! TO.C,C830*
X9100008Y7900000D02*
X9100008Y8900000D01*
G04 #@! TO.C,C829*
X9100008Y6100000D02*
X9100008Y7100000D01*
G04 #@! TO.C,C828*
X9100008Y4300000D02*
X9100008Y5300000D01*
G04 #@! TO.C,C827*
X9100008Y2500000D02*
X9100008Y3500000D01*
G04 #@! TO.C,C826*
X9100008Y700000D02*
X9100008Y1700000D01*
G04 #@! TO.C,C825*
X5300008Y8900000D02*
X5300008Y7900000D01*
G04 #@! TO.C,C824*
X5300008Y7100000D02*
X5300008Y6100000D01*
G04 #@! TO.C,C823*
X5300008Y5300000D02*
X5300008Y4300000D01*
G04 #@! TO.C,C822*
X5300008Y3500000D02*
X5300008Y2500000D01*
G04 #@! TO.C,C821*
X5300008Y1700000D02*
X5300008Y700000D01*
G04 #@! TD*
M02*
