G04 #@! TF.GenerationSoftware,KiCad,Pcbnew,7.0.9*
G04 #@! TF.CreationDate,2024-03-27T02:46:34+03:00*
G04 #@! TF.ProjectId,hellen1-motor-driver,68656c6c-656e-4312-9d6d-6f746f722d64,rev?*
G04 #@! TF.SameCoordinates,PX507b070PY4a65690*
G04 #@! TF.FileFunction,Copper,L4,Bot*
G04 #@! TF.FilePolarity,Positive*
%FSLAX46Y46*%
G04 Gerber Fmt 4.6, Leading zero omitted, Abs format (unit mm)*
G04 Created by KiCad (PCBNEW 7.0.9) date 2024-03-27 02:46:34*
%MOMM*%
%LPD*%
G01*
G04 APERTURE LIST*
G04 #@! TA.AperFunction,SMDPad,CuDef*
%ADD10R,0.200000X4.400000*%
G04 #@! TD*
G04 #@! TA.AperFunction,SMDPad,CuDef*
%ADD11R,1.200000X0.200000*%
G04 #@! TD*
G04 #@! TA.AperFunction,SMDPad,CuDef*
%ADD12R,6.800000X0.200000*%
G04 #@! TD*
G04 #@! TA.AperFunction,SMDPad,CuDef*
%ADD13R,4.000000X0.200000*%
G04 #@! TD*
G04 #@! TA.AperFunction,SMDPad,CuDef*
%ADD14R,1.800000X0.200000*%
G04 #@! TD*
G04 #@! TA.AperFunction,SMDPad,CuDef*
%ADD15R,0.200000X10.000000*%
G04 #@! TD*
G04 #@! TA.AperFunction,ComponentPad*
%ADD16C,0.600000*%
G04 #@! TD*
G04 #@! TA.AperFunction,ComponentPad*
%ADD17C,1.000000*%
G04 #@! TD*
G04 #@! TA.AperFunction,ViaPad*
%ADD18C,0.600000*%
G04 #@! TD*
G04 #@! TA.AperFunction,Conductor*
%ADD19C,0.200000*%
G04 #@! TD*
G04 #@! TA.AperFunction,Conductor*
%ADD20C,0.800000*%
G04 #@! TD*
G04 APERTURE END LIST*
D10*
G04 #@! TO.P,M821,G,GND*
G04 #@! TO.N,GND*
X110000Y2210000D03*
D11*
X610000Y110000D03*
D12*
X5010000Y9910000D03*
X7210000Y110000D03*
D13*
X11810000Y9910000D03*
D14*
X12910000Y110000D03*
D15*
X13710000Y5010000D03*
D16*
G04 #@! TO.P,M821,N1,MOSI*
G04 #@! TO.N,/MOSI*
X1110000Y9710000D03*
D17*
G04 #@! TO.P,M821,N2,12V_IN*
G04 #@! TO.N,+12V*
X9110000Y9510000D03*
G04 #@! TO.P,M821,S1,12V_IN*
X1910000Y510000D03*
G04 #@! TO.P,M821,S2,OUT-*
G04 #@! TO.N,/OUT-*
X3110000Y510000D03*
G04 #@! TO.P,M821,S3,OUT+*
G04 #@! TO.N,/OUT+*
X11310000Y510000D03*
D16*
G04 #@! TO.P,M821,W1,DIS*
G04 #@! TO.N,/DIS*
X310000Y9710000D03*
G04 #@! TO.P,M821,W2,PWM*
G04 #@! TO.N,/PWM*
X310000Y8910000D03*
G04 #@! TO.P,M821,W3,SCLK*
G04 #@! TO.N,/SCLK*
X310000Y8110000D03*
G04 #@! TO.P,M821,W4,DIR*
G04 #@! TO.N,/DIR*
X310000Y7310000D03*
G04 #@! TO.P,M821,W5,3V3_IN*
G04 #@! TO.N,+3V3*
X310000Y6510000D03*
G04 #@! TO.P,M821,W6,MISO*
G04 #@! TO.N,/MISO*
X310000Y5710000D03*
G04 #@! TO.P,M821,W7,~CS*
G04 #@! TO.N,/~CS*
X310000Y4910000D03*
G04 #@! TD*
G04 #@! TO.P,R821,1*
G04 #@! TO.N,/~CS*
G04 #@! TA.AperFunction,SMDPad,CuDef*
G36*
G01*
X2700000Y4360000D02*
X1920000Y4360000D01*
G75*
G02*
X1850000Y4430000I0J70000D01*
G01*
X1850000Y4990000D01*
G75*
G02*
X1920000Y5060000I70000J0D01*
G01*
X2700000Y5060000D01*
G75*
G02*
X2770000Y4990000I0J-70000D01*
G01*
X2770000Y4430000D01*
G75*
G02*
X2700000Y4360000I-70000J0D01*
G01*
G37*
G04 #@! TD.AperFunction*
G04 #@! TO.P,R821,2*
G04 #@! TO.N,+3V3*
G04 #@! TA.AperFunction,SMDPad,CuDef*
G36*
G01*
X2700000Y5960000D02*
X1920000Y5960000D01*
G75*
G02*
X1850000Y6030000I0J70000D01*
G01*
X1850000Y6590000D01*
G75*
G02*
X1920000Y6660000I70000J0D01*
G01*
X2700000Y6660000D01*
G75*
G02*
X2770000Y6590000I0J-70000D01*
G01*
X2770000Y6030000D01*
G75*
G02*
X2700000Y5960000I-70000J0D01*
G01*
G37*
G04 #@! TD.AperFunction*
G04 #@! TD*
G04 #@! TO.P,R822,1*
G04 #@! TO.N,/DIS*
G04 #@! TA.AperFunction,SMDPad,CuDef*
G36*
G01*
X1920000Y9660000D02*
X2700000Y9660000D01*
G75*
G02*
X2770000Y9590000I0J-70000D01*
G01*
X2770000Y9030000D01*
G75*
G02*
X2700000Y8960000I-70000J0D01*
G01*
X1920000Y8960000D01*
G75*
G02*
X1850000Y9030000I0J70000D01*
G01*
X1850000Y9590000D01*
G75*
G02*
X1920000Y9660000I70000J0D01*
G01*
G37*
G04 #@! TD.AperFunction*
G04 #@! TO.P,R822,2*
G04 #@! TO.N,+3V3*
G04 #@! TA.AperFunction,SMDPad,CuDef*
G36*
G01*
X1920000Y8060000D02*
X2700000Y8060000D01*
G75*
G02*
X2770000Y7990000I0J-70000D01*
G01*
X2770000Y7430000D01*
G75*
G02*
X2700000Y7360000I-70000J0D01*
G01*
X1920000Y7360000D01*
G75*
G02*
X1850000Y7430000I0J70000D01*
G01*
X1850000Y7990000D01*
G75*
G02*
X1920000Y8060000I70000J0D01*
G01*
G37*
G04 #@! TD.AperFunction*
G04 #@! TD*
G04 #@! TO.P,C825,1*
G04 #@! TO.N,GND*
G04 #@! TA.AperFunction,SMDPad,CuDef*
G36*
G01*
X6810008Y8935000D02*
X6810008Y7885000D01*
G75*
G02*
X6710008Y7785000I-100000J0D01*
G01*
X5910008Y7785000D01*
G75*
G02*
X5810008Y7885000I0J100000D01*
G01*
X5810008Y8935000D01*
G75*
G02*
X5910008Y9035000I100000J0D01*
G01*
X6710008Y9035000D01*
G75*
G02*
X6810008Y8935000I0J-100000D01*
G01*
G37*
G04 #@! TD.AperFunction*
G04 #@! TO.P,C825,2*
G04 #@! TO.N,+12V*
G04 #@! TA.AperFunction,SMDPad,CuDef*
G36*
G01*
X4810008Y8935000D02*
X4810008Y7885000D01*
G75*
G02*
X4710008Y7785000I-100000J0D01*
G01*
X3910008Y7785000D01*
G75*
G02*
X3810008Y7885000I0J100000D01*
G01*
X3810008Y8935000D01*
G75*
G02*
X3910008Y9035000I100000J0D01*
G01*
X4710008Y9035000D01*
G75*
G02*
X4810008Y8935000I0J-100000D01*
G01*
G37*
G04 #@! TD.AperFunction*
G04 #@! TD*
G04 #@! TO.P,C828,1*
G04 #@! TO.N,GND*
G04 #@! TA.AperFunction,SMDPad,CuDef*
G36*
G01*
X7610008Y4285000D02*
X7610008Y5335000D01*
G75*
G02*
X7710008Y5435000I100000J0D01*
G01*
X8510008Y5435000D01*
G75*
G02*
X8610008Y5335000I0J-100000D01*
G01*
X8610008Y4285000D01*
G75*
G02*
X8510008Y4185000I-100000J0D01*
G01*
X7710008Y4185000D01*
G75*
G02*
X7610008Y4285000I0J100000D01*
G01*
G37*
G04 #@! TD.AperFunction*
G04 #@! TO.P,C828,2*
G04 #@! TO.N,+12V*
G04 #@! TA.AperFunction,SMDPad,CuDef*
G36*
G01*
X9610008Y4285000D02*
X9610008Y5335000D01*
G75*
G02*
X9710008Y5435000I100000J0D01*
G01*
X10510008Y5435000D01*
G75*
G02*
X10610008Y5335000I0J-100000D01*
G01*
X10610008Y4285000D01*
G75*
G02*
X10510008Y4185000I-100000J0D01*
G01*
X9710008Y4185000D01*
G75*
G02*
X9610008Y4285000I0J100000D01*
G01*
G37*
G04 #@! TD.AperFunction*
G04 #@! TD*
G04 #@! TO.P,C831,1*
G04 #@! TO.N,GND*
G04 #@! TA.AperFunction,SMDPad,CuDef*
G36*
G01*
X470000Y3725001D02*
X1150000Y3725001D01*
G75*
G02*
X1235000Y3640001I0J-85000D01*
G01*
X1235000Y2960001D01*
G75*
G02*
X1150000Y2875001I-85000J0D01*
G01*
X470000Y2875001D01*
G75*
G02*
X385000Y2960001I0J85000D01*
G01*
X385000Y3640001D01*
G75*
G02*
X470000Y3725001I85000J0D01*
G01*
G37*
G04 #@! TD.AperFunction*
G04 #@! TO.P,C831,2*
G04 #@! TO.N,+12V*
G04 #@! TA.AperFunction,SMDPad,CuDef*
G36*
G01*
X470000Y2144999D02*
X1150000Y2144999D01*
G75*
G02*
X1235000Y2059999I0J-85000D01*
G01*
X1235000Y1379999D01*
G75*
G02*
X1150000Y1294999I-85000J0D01*
G01*
X470000Y1294999D01*
G75*
G02*
X385000Y1379999I0J85000D01*
G01*
X385000Y2059999D01*
G75*
G02*
X470000Y2144999I85000J0D01*
G01*
G37*
G04 #@! TD.AperFunction*
G04 #@! TD*
G04 #@! TO.P,C833,1*
G04 #@! TO.N,GND*
G04 #@! TA.AperFunction,SMDPad,CuDef*
G36*
G01*
X11670008Y3200001D02*
X12350008Y3200001D01*
G75*
G02*
X12435008Y3115001I0J-85000D01*
G01*
X12435008Y2435001D01*
G75*
G02*
X12350008Y2350001I-85000J0D01*
G01*
X11670008Y2350001D01*
G75*
G02*
X11585008Y2435001I0J85000D01*
G01*
X11585008Y3115001D01*
G75*
G02*
X11670008Y3200001I85000J0D01*
G01*
G37*
G04 #@! TD.AperFunction*
G04 #@! TO.P,C833,2*
G04 #@! TO.N,/OUT+*
G04 #@! TA.AperFunction,SMDPad,CuDef*
G36*
G01*
X11670008Y1619999D02*
X12350008Y1619999D01*
G75*
G02*
X12435008Y1534999I0J-85000D01*
G01*
X12435008Y854999D01*
G75*
G02*
X12350008Y769999I-85000J0D01*
G01*
X11670008Y769999D01*
G75*
G02*
X11585008Y854999I0J85000D01*
G01*
X11585008Y1534999D01*
G75*
G02*
X11670008Y1619999I85000J0D01*
G01*
G37*
G04 #@! TD.AperFunction*
G04 #@! TD*
G04 #@! TO.P,C824,1*
G04 #@! TO.N,GND*
G04 #@! TA.AperFunction,SMDPad,CuDef*
G36*
G01*
X6810008Y7135000D02*
X6810008Y6085000D01*
G75*
G02*
X6710008Y5985000I-100000J0D01*
G01*
X5910008Y5985000D01*
G75*
G02*
X5810008Y6085000I0J100000D01*
G01*
X5810008Y7135000D01*
G75*
G02*
X5910008Y7235000I100000J0D01*
G01*
X6710008Y7235000D01*
G75*
G02*
X6810008Y7135000I0J-100000D01*
G01*
G37*
G04 #@! TD.AperFunction*
G04 #@! TO.P,C824,2*
G04 #@! TO.N,+12V*
G04 #@! TA.AperFunction,SMDPad,CuDef*
G36*
G01*
X4810008Y7135000D02*
X4810008Y6085000D01*
G75*
G02*
X4710008Y5985000I-100000J0D01*
G01*
X3910008Y5985000D01*
G75*
G02*
X3810008Y6085000I0J100000D01*
G01*
X3810008Y7135000D01*
G75*
G02*
X3910008Y7235000I100000J0D01*
G01*
X4710008Y7235000D01*
G75*
G02*
X4810008Y7135000I0J-100000D01*
G01*
G37*
G04 #@! TD.AperFunction*
G04 #@! TD*
G04 #@! TO.P,C829,1*
G04 #@! TO.N,GND*
G04 #@! TA.AperFunction,SMDPad,CuDef*
G36*
G01*
X7610008Y6085000D02*
X7610008Y7135000D01*
G75*
G02*
X7710008Y7235000I100000J0D01*
G01*
X8510008Y7235000D01*
G75*
G02*
X8610008Y7135000I0J-100000D01*
G01*
X8610008Y6085000D01*
G75*
G02*
X8510008Y5985000I-100000J0D01*
G01*
X7710008Y5985000D01*
G75*
G02*
X7610008Y6085000I0J100000D01*
G01*
G37*
G04 #@! TD.AperFunction*
G04 #@! TO.P,C829,2*
G04 #@! TO.N,+12V*
G04 #@! TA.AperFunction,SMDPad,CuDef*
G36*
G01*
X9610008Y6085000D02*
X9610008Y7135000D01*
G75*
G02*
X9710008Y7235000I100000J0D01*
G01*
X10510008Y7235000D01*
G75*
G02*
X10610008Y7135000I0J-100000D01*
G01*
X10610008Y6085000D01*
G75*
G02*
X10510008Y5985000I-100000J0D01*
G01*
X9710008Y5985000D01*
G75*
G02*
X9610008Y6085000I0J100000D01*
G01*
G37*
G04 #@! TD.AperFunction*
G04 #@! TD*
G04 #@! TO.P,C822,1*
G04 #@! TO.N,GND*
G04 #@! TA.AperFunction,SMDPad,CuDef*
G36*
G01*
X6810008Y3535000D02*
X6810008Y2485000D01*
G75*
G02*
X6710008Y2385000I-100000J0D01*
G01*
X5910008Y2385000D01*
G75*
G02*
X5810008Y2485000I0J100000D01*
G01*
X5810008Y3535000D01*
G75*
G02*
X5910008Y3635000I100000J0D01*
G01*
X6710008Y3635000D01*
G75*
G02*
X6810008Y3535000I0J-100000D01*
G01*
G37*
G04 #@! TD.AperFunction*
G04 #@! TO.P,C822,2*
G04 #@! TO.N,+12V*
G04 #@! TA.AperFunction,SMDPad,CuDef*
G36*
G01*
X4810008Y3535000D02*
X4810008Y2485000D01*
G75*
G02*
X4710008Y2385000I-100000J0D01*
G01*
X3910008Y2385000D01*
G75*
G02*
X3810008Y2485000I0J100000D01*
G01*
X3810008Y3535000D01*
G75*
G02*
X3910008Y3635000I100000J0D01*
G01*
X4710008Y3635000D01*
G75*
G02*
X4810008Y3535000I0J-100000D01*
G01*
G37*
G04 #@! TD.AperFunction*
G04 #@! TD*
G04 #@! TO.P,C826,1*
G04 #@! TO.N,GND*
G04 #@! TA.AperFunction,SMDPad,CuDef*
G36*
G01*
X7610008Y685000D02*
X7610008Y1735000D01*
G75*
G02*
X7710008Y1835000I100000J0D01*
G01*
X8510008Y1835000D01*
G75*
G02*
X8610008Y1735000I0J-100000D01*
G01*
X8610008Y685000D01*
G75*
G02*
X8510008Y585000I-100000J0D01*
G01*
X7710008Y585000D01*
G75*
G02*
X7610008Y685000I0J100000D01*
G01*
G37*
G04 #@! TD.AperFunction*
G04 #@! TO.P,C826,2*
G04 #@! TO.N,+12V*
G04 #@! TA.AperFunction,SMDPad,CuDef*
G36*
G01*
X9610008Y685000D02*
X9610008Y1735000D01*
G75*
G02*
X9710008Y1835000I100000J0D01*
G01*
X10510008Y1835000D01*
G75*
G02*
X10610008Y1735000I0J-100000D01*
G01*
X10610008Y685000D01*
G75*
G02*
X10510008Y585000I-100000J0D01*
G01*
X9710008Y585000D01*
G75*
G02*
X9610008Y685000I0J100000D01*
G01*
G37*
G04 #@! TD.AperFunction*
G04 #@! TD*
G04 #@! TO.P,C832,1*
G04 #@! TO.N,GND*
G04 #@! TA.AperFunction,SMDPad,CuDef*
G36*
G01*
X1970000Y3725001D02*
X2650000Y3725001D01*
G75*
G02*
X2735000Y3640001I0J-85000D01*
G01*
X2735000Y2960001D01*
G75*
G02*
X2650000Y2875001I-85000J0D01*
G01*
X1970000Y2875001D01*
G75*
G02*
X1885000Y2960001I0J85000D01*
G01*
X1885000Y3640001D01*
G75*
G02*
X1970000Y3725001I85000J0D01*
G01*
G37*
G04 #@! TD.AperFunction*
G04 #@! TO.P,C832,2*
G04 #@! TO.N,/OUT-*
G04 #@! TA.AperFunction,SMDPad,CuDef*
G36*
G01*
X1970000Y2144999D02*
X2650000Y2144999D01*
G75*
G02*
X2735000Y2059999I0J-85000D01*
G01*
X2735000Y1379999D01*
G75*
G02*
X2650000Y1294999I-85000J0D01*
G01*
X1970000Y1294999D01*
G75*
G02*
X1885000Y1379999I0J85000D01*
G01*
X1885000Y2059999D01*
G75*
G02*
X1970000Y2144999I85000J0D01*
G01*
G37*
G04 #@! TD.AperFunction*
G04 #@! TD*
G04 #@! TO.P,C821,1*
G04 #@! TO.N,GND*
G04 #@! TA.AperFunction,SMDPad,CuDef*
G36*
G01*
X6810008Y1735000D02*
X6810008Y685000D01*
G75*
G02*
X6710008Y585000I-100000J0D01*
G01*
X5910008Y585000D01*
G75*
G02*
X5810008Y685000I0J100000D01*
G01*
X5810008Y1735000D01*
G75*
G02*
X5910008Y1835000I100000J0D01*
G01*
X6710008Y1835000D01*
G75*
G02*
X6810008Y1735000I0J-100000D01*
G01*
G37*
G04 #@! TD.AperFunction*
G04 #@! TO.P,C821,2*
G04 #@! TO.N,+12V*
G04 #@! TA.AperFunction,SMDPad,CuDef*
G36*
G01*
X4810008Y1735000D02*
X4810008Y685000D01*
G75*
G02*
X4710008Y585000I-100000J0D01*
G01*
X3910008Y585000D01*
G75*
G02*
X3810008Y685000I0J100000D01*
G01*
X3810008Y1735000D01*
G75*
G02*
X3910008Y1835000I100000J0D01*
G01*
X4710008Y1835000D01*
G75*
G02*
X4810008Y1735000I0J-100000D01*
G01*
G37*
G04 #@! TD.AperFunction*
G04 #@! TD*
G04 #@! TO.P,C827,1*
G04 #@! TO.N,GND*
G04 #@! TA.AperFunction,SMDPad,CuDef*
G36*
G01*
X7610008Y2485000D02*
X7610008Y3535000D01*
G75*
G02*
X7710008Y3635000I100000J0D01*
G01*
X8510008Y3635000D01*
G75*
G02*
X8610008Y3535000I0J-100000D01*
G01*
X8610008Y2485000D01*
G75*
G02*
X8510008Y2385000I-100000J0D01*
G01*
X7710008Y2385000D01*
G75*
G02*
X7610008Y2485000I0J100000D01*
G01*
G37*
G04 #@! TD.AperFunction*
G04 #@! TO.P,C827,2*
G04 #@! TO.N,+12V*
G04 #@! TA.AperFunction,SMDPad,CuDef*
G36*
G01*
X9610008Y2485000D02*
X9610008Y3535000D01*
G75*
G02*
X9710008Y3635000I100000J0D01*
G01*
X10510008Y3635000D01*
G75*
G02*
X10610008Y3535000I0J-100000D01*
G01*
X10610008Y2485000D01*
G75*
G02*
X10510008Y2385000I-100000J0D01*
G01*
X9710008Y2385000D01*
G75*
G02*
X9610008Y2485000I0J100000D01*
G01*
G37*
G04 #@! TD.AperFunction*
G04 #@! TD*
G04 #@! TO.P,C830,1*
G04 #@! TO.N,GND*
G04 #@! TA.AperFunction,SMDPad,CuDef*
G36*
G01*
X7610008Y7885000D02*
X7610008Y8935000D01*
G75*
G02*
X7710008Y9035000I100000J0D01*
G01*
X8510008Y9035000D01*
G75*
G02*
X8610008Y8935000I0J-100000D01*
G01*
X8610008Y7885000D01*
G75*
G02*
X8510008Y7785000I-100000J0D01*
G01*
X7710008Y7785000D01*
G75*
G02*
X7610008Y7885000I0J100000D01*
G01*
G37*
G04 #@! TD.AperFunction*
G04 #@! TO.P,C830,2*
G04 #@! TO.N,+12V*
G04 #@! TA.AperFunction,SMDPad,CuDef*
G36*
G01*
X9610008Y7885000D02*
X9610008Y8935000D01*
G75*
G02*
X9710008Y9035000I100000J0D01*
G01*
X10510008Y9035000D01*
G75*
G02*
X10610008Y8935000I0J-100000D01*
G01*
X10610008Y7885000D01*
G75*
G02*
X10510008Y7785000I-100000J0D01*
G01*
X9710008Y7785000D01*
G75*
G02*
X9610008Y7885000I0J100000D01*
G01*
G37*
G04 #@! TD.AperFunction*
G04 #@! TD*
G04 #@! TO.P,C823,1*
G04 #@! TO.N,GND*
G04 #@! TA.AperFunction,SMDPad,CuDef*
G36*
G01*
X6810008Y5335000D02*
X6810008Y4285000D01*
G75*
G02*
X6710008Y4185000I-100000J0D01*
G01*
X5910008Y4185000D01*
G75*
G02*
X5810008Y4285000I0J100000D01*
G01*
X5810008Y5335000D01*
G75*
G02*
X5910008Y5435000I100000J0D01*
G01*
X6710008Y5435000D01*
G75*
G02*
X6810008Y5335000I0J-100000D01*
G01*
G37*
G04 #@! TD.AperFunction*
G04 #@! TO.P,C823,2*
G04 #@! TO.N,+12V*
G04 #@! TA.AperFunction,SMDPad,CuDef*
G36*
G01*
X4810008Y5335000D02*
X4810008Y4285000D01*
G75*
G02*
X4710008Y4185000I-100000J0D01*
G01*
X3910008Y4185000D01*
G75*
G02*
X3810008Y4285000I0J100000D01*
G01*
X3810008Y5335000D01*
G75*
G02*
X3910008Y5435000I100000J0D01*
G01*
X4710008Y5435000D01*
G75*
G02*
X4810008Y5335000I0J-100000D01*
G01*
G37*
G04 #@! TD.AperFunction*
G04 #@! TD*
D18*
G04 #@! TO.N,GND*
X7210000Y9460000D03*
X3353535Y1753535D03*
X12810000Y9410000D03*
X5410000Y2110000D03*
X13310000Y8110000D03*
X9010000Y5710000D03*
X13210000Y610000D03*
X3310000Y9460000D03*
X7210000Y2110000D03*
X610002Y610000D03*
X5310000Y510000D03*
X5310000Y9410000D03*
X7210000Y3910000D03*
X7210000Y7510000D03*
X7210000Y5710000D03*
X9110000Y510000D03*
X5410000Y7510000D03*
G04 #@! TO.N,+12V*
X4406524Y4023526D03*
X10110000Y2110000D03*
X10110000Y3910000D03*
X1010008Y4310000D03*
X4310008Y5710000D03*
G04 #@! TO.N,/DIS*
X11203618Y8425799D03*
G04 #@! TO.N,/PWM*
X12010008Y8010010D03*
G04 #@! TO.N,/~CS*
X12910008Y1510000D03*
G04 #@! TO.N,/SCLK*
X13160498Y5310000D03*
G04 #@! TO.N,/MOSI*
X11210000Y9210000D03*
G04 #@! TD*
D19*
G04 #@! TO.N,+3V3*
X510000Y6310000D02*
X310000Y6510000D01*
X2310000Y7710000D02*
X2310000Y6310000D01*
X2310000Y6310000D02*
X510000Y6310000D01*
D20*
G04 #@! TO.N,/OUT-*
X2310000Y1594925D02*
X3110000Y794925D01*
X3110000Y794925D02*
X3110000Y510000D01*
X2310000Y1719999D02*
X2310000Y1594925D01*
G04 #@! TO.N,/OUT+*
X11994999Y1194999D02*
X11310000Y510000D01*
X12010008Y1194999D02*
X11994999Y1194999D01*
G04 #@! TO.N,+12V*
X10110008Y8509992D02*
X9110000Y9510000D01*
X4310008Y4120042D02*
X4406524Y4023526D01*
X1910000Y512084D02*
X1910000Y510000D01*
X810000Y1719999D02*
X810000Y1612084D01*
X810000Y1612084D02*
X1910000Y512084D01*
X4310008Y7510000D02*
X4310008Y5710000D01*
X4310008Y8410000D02*
X4310008Y7510000D01*
X10110008Y8410000D02*
X10110008Y8509992D01*
X10110008Y1210000D02*
X10110008Y8410000D01*
X4310008Y5710000D02*
X4310008Y4120042D01*
X4406524Y4023526D02*
X4406524Y1306516D01*
X4406524Y1306516D02*
X4310008Y1210000D01*
D19*
G04 #@! TO.N,/DIS*
X2160000Y9160000D02*
X2310000Y9310000D01*
X837818Y9160000D02*
X2160000Y9160000D01*
X310000Y9710000D02*
X310000Y9687818D01*
X310000Y9687818D02*
X837818Y9160000D01*
G04 #@! TO.N,/~CS*
X2110000Y4910000D02*
X2310000Y4710000D01*
X310000Y4910000D02*
X2110000Y4910000D01*
G04 #@! TD*
G04 #@! TA.AperFunction,Conductor*
G04 #@! TO.N,GND*
G36*
X302889Y1208424D02*
G01*
X378111Y1158162D01*
X378113Y1158162D01*
X378114Y1158161D01*
X446800Y1144498D01*
X446803Y1144498D01*
X447699Y1144498D01*
X448152Y1144365D01*
X452863Y1143901D01*
X452775Y1143008D01*
X514738Y1124813D01*
X535380Y1108179D01*
X1173681Y469878D01*
X1207166Y408555D01*
X1210000Y382197D01*
X1210000Y234000D01*
X1190315Y166961D01*
X1137511Y121206D01*
X1086000Y110000D01*
X234000Y110000D01*
X166961Y129685D01*
X121206Y182489D01*
X110000Y234000D01*
X110000Y1105321D01*
X129685Y1172360D01*
X182489Y1218115D01*
X251647Y1228059D01*
X302889Y1208424D01*
G37*
G04 #@! TD.AperFunction*
G04 #@! TA.AperFunction,Conductor*
G36*
X8353039Y9890315D02*
G01*
X8398794Y9837511D01*
X8410000Y9786000D01*
X8410000Y9359000D01*
X8390315Y9291961D01*
X8337511Y9246206D01*
X8286000Y9235000D01*
X8235008Y9235000D01*
X8235008Y8535000D01*
X8810007Y8535000D01*
X8810007Y8686000D01*
X8829692Y8753039D01*
X8882496Y8798794D01*
X8934007Y8810000D01*
X8980113Y8810000D01*
X9047152Y8790315D01*
X9067794Y8773681D01*
X9423189Y8418286D01*
X9456674Y8356963D01*
X9459508Y8330605D01*
X9459508Y7860322D01*
X9474040Y7787265D01*
X9474041Y7787261D01*
X9486720Y7768285D01*
X9529407Y7704399D01*
X9529408Y7704399D01*
X9536193Y7694244D01*
X9533215Y7692255D01*
X9556674Y7649294D01*
X9559508Y7622936D01*
X9559508Y7397065D01*
X9539823Y7330026D01*
X9535269Y7324376D01*
X9474042Y7232740D01*
X9474040Y7232736D01*
X9459508Y7159679D01*
X9459508Y6060322D01*
X9474040Y5987265D01*
X9474041Y5987261D01*
X9474042Y5987260D01*
X9529407Y5904399D01*
X9529408Y5904399D01*
X9536193Y5894244D01*
X9533215Y5892255D01*
X9556674Y5849294D01*
X9559508Y5822936D01*
X9559508Y5597065D01*
X9539823Y5530026D01*
X9535269Y5524376D01*
X9474042Y5432740D01*
X9474040Y5432736D01*
X9459508Y5359679D01*
X9459508Y4260322D01*
X9474040Y4187265D01*
X9474041Y4187261D01*
X9480332Y4177846D01*
X9529407Y4104399D01*
X9529408Y4104399D01*
X9536193Y4094244D01*
X9533215Y4092255D01*
X9556674Y4049294D01*
X9559508Y4022936D01*
X9559508Y3797065D01*
X9539823Y3730026D01*
X9535269Y3724376D01*
X9474042Y3632740D01*
X9474040Y3632736D01*
X9459508Y3559679D01*
X9459508Y2460322D01*
X9474040Y2387265D01*
X9474041Y2387261D01*
X9474042Y2387260D01*
X9529407Y2304399D01*
X9529408Y2304399D01*
X9536193Y2294244D01*
X9533215Y2292255D01*
X9556674Y2249294D01*
X9559508Y2222936D01*
X9559508Y1997065D01*
X9539823Y1930026D01*
X9535269Y1924376D01*
X9474042Y1832740D01*
X9474040Y1832736D01*
X9459508Y1759679D01*
X9459508Y660322D01*
X9474040Y587265D01*
X9474041Y587261D01*
X9474042Y587260D01*
X9529407Y504399D01*
X9609999Y450550D01*
X9612268Y449034D01*
X9612272Y449033D01*
X9685329Y434501D01*
X9685332Y434500D01*
X10486000Y434500D01*
X10553039Y414815D01*
X10598794Y362011D01*
X10610000Y310500D01*
X10610000Y234000D01*
X10590315Y166961D01*
X10537511Y121206D01*
X10486000Y110000D01*
X3934000Y110000D01*
X3866961Y129685D01*
X3821206Y182489D01*
X3810000Y234000D01*
X3810000Y310500D01*
X3829685Y377539D01*
X3882489Y423294D01*
X3934000Y434500D01*
X4734684Y434500D01*
X4734685Y434501D01*
X4807748Y449034D01*
X4890609Y504399D01*
X4945974Y587260D01*
X4960508Y660326D01*
X4960508Y1085000D01*
X5610009Y1085000D01*
X5610009Y640215D01*
X5610010Y640192D01*
X5612916Y615131D01*
X5612917Y615127D01*
X5658219Y512526D01*
X5658222Y512521D01*
X5737528Y433215D01*
X5737533Y433212D01*
X5840131Y387911D01*
X5865214Y385001D01*
X6185007Y385001D01*
X6185008Y385002D01*
X6185008Y1085000D01*
X6435008Y1085000D01*
X6435008Y385001D01*
X6754794Y385001D01*
X6754816Y385003D01*
X6779877Y387909D01*
X6779881Y387910D01*
X6882482Y433212D01*
X6882487Y433215D01*
X6961793Y512521D01*
X6961796Y512526D01*
X7007097Y615123D01*
X7007097Y615125D01*
X7010007Y640206D01*
X7010008Y640209D01*
X7010008Y1085000D01*
X7410009Y1085000D01*
X7410009Y640215D01*
X7410010Y640192D01*
X7412916Y615131D01*
X7412917Y615127D01*
X7458219Y512526D01*
X7458222Y512521D01*
X7537528Y433215D01*
X7537533Y433212D01*
X7640131Y387911D01*
X7665214Y385001D01*
X7985007Y385001D01*
X7985008Y385002D01*
X7985008Y1085000D01*
X8235008Y1085000D01*
X8235008Y385001D01*
X8554794Y385001D01*
X8554816Y385003D01*
X8579877Y387909D01*
X8579881Y387910D01*
X8682482Y433212D01*
X8682487Y433215D01*
X8761793Y512521D01*
X8761796Y512526D01*
X8807097Y615123D01*
X8807097Y615125D01*
X8810007Y640206D01*
X8810008Y640209D01*
X8810008Y1085000D01*
X8235008Y1085000D01*
X7985008Y1085000D01*
X7410009Y1085000D01*
X7010008Y1085000D01*
X6435008Y1085000D01*
X6185008Y1085000D01*
X5610009Y1085000D01*
X4960508Y1085000D01*
X4960508Y1309000D01*
X4960833Y1315344D01*
X4961876Y1325488D01*
X4961874Y1325496D01*
X4961729Y1329749D01*
X4961280Y1335000D01*
X5610008Y1335000D01*
X7010007Y1335000D01*
X7410008Y1335000D01*
X8810007Y1335000D01*
X8810007Y1779786D01*
X8810005Y1779809D01*
X8807099Y1804870D01*
X8807098Y1804874D01*
X8761796Y1907475D01*
X8761793Y1907480D01*
X8682487Y1986786D01*
X8682482Y1986789D01*
X8660338Y1996567D01*
X8606963Y2041654D01*
X8586436Y2108440D01*
X8605275Y2175722D01*
X8657499Y2222138D01*
X8660344Y2223437D01*
X8682482Y2233212D01*
X8682487Y2233215D01*
X8761793Y2312521D01*
X8761796Y2312526D01*
X8807097Y2415123D01*
X8807097Y2415125D01*
X8810007Y2440206D01*
X8810008Y2440209D01*
X8810008Y2885000D01*
X7410009Y2885000D01*
X7410009Y2440215D01*
X7410010Y2440192D01*
X7412916Y2415131D01*
X7412917Y2415127D01*
X7458219Y2312526D01*
X7458222Y2312521D01*
X7537528Y2233215D01*
X7537535Y2233210D01*
X7559675Y2223434D01*
X7613051Y2178349D01*
X7633579Y2111562D01*
X7614741Y2044280D01*
X7562518Y1997864D01*
X7559675Y1996566D01*
X7537535Y1986791D01*
X7537528Y1986786D01*
X7458222Y1907480D01*
X7458219Y1907475D01*
X7412918Y1804878D01*
X7412918Y1804876D01*
X7410008Y1779795D01*
X7410008Y1335000D01*
X7010007Y1335000D01*
X7010007Y1779786D01*
X7010005Y1779809D01*
X7007099Y1804870D01*
X7007098Y1804874D01*
X6961796Y1907475D01*
X6961793Y1907480D01*
X6882487Y1986786D01*
X6882482Y1986789D01*
X6860338Y1996567D01*
X6806963Y2041654D01*
X6786436Y2108440D01*
X6805275Y2175722D01*
X6857499Y2222138D01*
X6860344Y2223437D01*
X6882482Y2233212D01*
X6882487Y2233215D01*
X6961793Y2312521D01*
X6961796Y2312526D01*
X7007097Y2415123D01*
X7007097Y2415125D01*
X7010007Y2440206D01*
X7010008Y2440209D01*
X7010008Y2885000D01*
X5610009Y2885000D01*
X5610009Y2440215D01*
X5610010Y2440192D01*
X5612916Y2415131D01*
X5612917Y2415127D01*
X5658219Y2312526D01*
X5658222Y2312521D01*
X5737528Y2233215D01*
X5737535Y2233210D01*
X5759675Y2223434D01*
X5813051Y2178349D01*
X5833579Y2111562D01*
X5814741Y2044280D01*
X5762518Y1997864D01*
X5759675Y1996566D01*
X5737535Y1986791D01*
X5737528Y1986786D01*
X5658222Y1907480D01*
X5658219Y1907475D01*
X5612918Y1804878D01*
X5612918Y1804876D01*
X5610008Y1779795D01*
X5610008Y1335000D01*
X4961280Y1335000D01*
X4960508Y1344033D01*
X4960508Y1759677D01*
X4959407Y1765211D01*
X4957024Y1789403D01*
X4957024Y2430598D01*
X4959408Y2454794D01*
X4960508Y2460323D01*
X4960508Y3135000D01*
X5610008Y3135000D01*
X7010007Y3135000D01*
X7410008Y3135000D01*
X8810007Y3135000D01*
X8810007Y3579786D01*
X8810005Y3579809D01*
X8807099Y3604870D01*
X8807098Y3604874D01*
X8761796Y3707475D01*
X8761793Y3707480D01*
X8682487Y3786786D01*
X8682482Y3786789D01*
X8660338Y3796567D01*
X8606963Y3841654D01*
X8586436Y3908440D01*
X8605275Y3975722D01*
X8657499Y4022138D01*
X8660344Y4023437D01*
X8682482Y4033212D01*
X8682487Y4033215D01*
X8761793Y4112521D01*
X8761796Y4112526D01*
X8807097Y4215123D01*
X8807097Y4215125D01*
X8810007Y4240206D01*
X8810008Y4240209D01*
X8810008Y4685000D01*
X7410009Y4685000D01*
X7410009Y4240215D01*
X7410010Y4240192D01*
X7412916Y4215131D01*
X7412917Y4215127D01*
X7458219Y4112526D01*
X7458222Y4112521D01*
X7537528Y4033215D01*
X7537535Y4033210D01*
X7559675Y4023434D01*
X7613051Y3978349D01*
X7633579Y3911562D01*
X7614741Y3844280D01*
X7562518Y3797864D01*
X7559675Y3796566D01*
X7537535Y3786791D01*
X7537528Y3786786D01*
X7458222Y3707480D01*
X7458219Y3707475D01*
X7412918Y3604878D01*
X7412918Y3604876D01*
X7410008Y3579795D01*
X7410008Y3135000D01*
X7010007Y3135000D01*
X7010007Y3579786D01*
X7010005Y3579809D01*
X7007099Y3604870D01*
X7007098Y3604874D01*
X6961796Y3707475D01*
X6961793Y3707480D01*
X6882487Y3786786D01*
X6882482Y3786789D01*
X6860338Y3796567D01*
X6806963Y3841654D01*
X6786436Y3908440D01*
X6805275Y3975722D01*
X6857499Y4022138D01*
X6860344Y4023437D01*
X6882482Y4033212D01*
X6882487Y4033215D01*
X6961793Y4112521D01*
X6961796Y4112526D01*
X7007097Y4215123D01*
X7007097Y4215125D01*
X7010007Y4240206D01*
X7010008Y4240209D01*
X7010008Y4685000D01*
X5610009Y4685000D01*
X5610009Y4240215D01*
X5610010Y4240192D01*
X5612916Y4215131D01*
X5612917Y4215127D01*
X5658219Y4112526D01*
X5658222Y4112521D01*
X5737528Y4033215D01*
X5737535Y4033210D01*
X5759675Y4023434D01*
X5813051Y3978349D01*
X5833579Y3911562D01*
X5814741Y3844280D01*
X5762518Y3797864D01*
X5759675Y3796566D01*
X5737535Y3786791D01*
X5737528Y3786786D01*
X5658222Y3707480D01*
X5658219Y3707475D01*
X5612918Y3604878D01*
X5612918Y3604876D01*
X5610008Y3579795D01*
X5610008Y3135000D01*
X4960508Y3135000D01*
X4960508Y3559677D01*
X4959407Y3565211D01*
X4957024Y3589403D01*
X4957024Y4014129D01*
X4957232Y4020224D01*
X4959286Y4080352D01*
X4948806Y4123352D01*
X4947621Y4129591D01*
X4947514Y4130368D01*
X4945097Y4147956D01*
X4946324Y4189024D01*
X4960508Y4260326D01*
X4960508Y4935000D01*
X5610008Y4935000D01*
X7010007Y4935000D01*
X7410008Y4935000D01*
X8810007Y4935000D01*
X8810007Y5379786D01*
X8810005Y5379809D01*
X8807099Y5404870D01*
X8807098Y5404874D01*
X8761796Y5507475D01*
X8761793Y5507480D01*
X8682487Y5586786D01*
X8682482Y5586789D01*
X8660338Y5596567D01*
X8606963Y5641654D01*
X8586436Y5708440D01*
X8605275Y5775722D01*
X8657499Y5822138D01*
X8660344Y5823437D01*
X8682482Y5833212D01*
X8682487Y5833215D01*
X8761793Y5912521D01*
X8761796Y5912526D01*
X8807097Y6015123D01*
X8807097Y6015125D01*
X8810007Y6040206D01*
X8810008Y6040209D01*
X8810008Y6485000D01*
X7410009Y6485000D01*
X7410009Y6040215D01*
X7410010Y6040192D01*
X7412916Y6015131D01*
X7412917Y6015127D01*
X7458219Y5912526D01*
X7458222Y5912521D01*
X7537528Y5833215D01*
X7537535Y5833210D01*
X7559675Y5823434D01*
X7613051Y5778349D01*
X7633579Y5711562D01*
X7614741Y5644280D01*
X7562518Y5597864D01*
X7559675Y5596566D01*
X7537535Y5586791D01*
X7537528Y5586786D01*
X7458222Y5507480D01*
X7458219Y5507475D01*
X7412918Y5404878D01*
X7412918Y5404876D01*
X7410008Y5379795D01*
X7410008Y4935000D01*
X7010007Y4935000D01*
X7010007Y5379786D01*
X7010005Y5379809D01*
X7007099Y5404870D01*
X7007098Y5404874D01*
X6961796Y5507475D01*
X6961793Y5507480D01*
X6882487Y5586786D01*
X6882482Y5586789D01*
X6860338Y5596567D01*
X6806963Y5641654D01*
X6786436Y5708440D01*
X6805275Y5775722D01*
X6857499Y5822138D01*
X6860344Y5823437D01*
X6882482Y5833212D01*
X6882487Y5833215D01*
X6961793Y5912521D01*
X6961796Y5912526D01*
X7007097Y6015123D01*
X7007097Y6015125D01*
X7010007Y6040206D01*
X7010008Y6040209D01*
X7010008Y6485000D01*
X5610009Y6485000D01*
X5610009Y6040215D01*
X5610010Y6040192D01*
X5612916Y6015131D01*
X5612917Y6015127D01*
X5658219Y5912526D01*
X5658222Y5912521D01*
X5737528Y5833215D01*
X5737535Y5833210D01*
X5759675Y5823434D01*
X5813051Y5778349D01*
X5833579Y5711562D01*
X5814741Y5644280D01*
X5762518Y5597864D01*
X5759675Y5596566D01*
X5737535Y5586791D01*
X5737528Y5586786D01*
X5658222Y5507480D01*
X5658219Y5507475D01*
X5612918Y5404878D01*
X5612918Y5404876D01*
X5610008Y5379795D01*
X5610008Y4935000D01*
X4960508Y4935000D01*
X4960508Y5359674D01*
X4960508Y5359677D01*
X4960507Y5359679D01*
X4945975Y5432736D01*
X4945974Y5432737D01*
X4945974Y5432740D01*
X4890609Y5515601D01*
X4883824Y5525756D01*
X4886801Y5527746D01*
X4863342Y5570707D01*
X4860508Y5597065D01*
X4860508Y5822936D01*
X4880193Y5889975D01*
X4884744Y5895624D01*
X4890605Y5904397D01*
X4890609Y5904399D01*
X4945974Y5987260D01*
X4960508Y6060326D01*
X4960508Y6735000D01*
X5610008Y6735000D01*
X7010007Y6735000D01*
X7410008Y6735000D01*
X8810007Y6735000D01*
X8810007Y7179786D01*
X8810005Y7179809D01*
X8807099Y7204870D01*
X8807098Y7204874D01*
X8761796Y7307475D01*
X8761793Y7307480D01*
X8682487Y7386786D01*
X8682482Y7386789D01*
X8660338Y7396567D01*
X8606963Y7441654D01*
X8586436Y7508440D01*
X8605275Y7575722D01*
X8657499Y7622138D01*
X8660344Y7623437D01*
X8682482Y7633212D01*
X8682487Y7633215D01*
X8761793Y7712521D01*
X8761796Y7712526D01*
X8807097Y7815123D01*
X8807097Y7815125D01*
X8810007Y7840206D01*
X8810008Y7840209D01*
X8810008Y8285000D01*
X7410009Y8285000D01*
X7410009Y7840215D01*
X7410010Y7840192D01*
X7412916Y7815131D01*
X7412917Y7815127D01*
X7458219Y7712526D01*
X7458222Y7712521D01*
X7537528Y7633215D01*
X7537535Y7633210D01*
X7559675Y7623434D01*
X7613051Y7578349D01*
X7633579Y7511562D01*
X7614741Y7444280D01*
X7562518Y7397864D01*
X7559675Y7396566D01*
X7537535Y7386791D01*
X7537528Y7386786D01*
X7458222Y7307480D01*
X7458219Y7307475D01*
X7412918Y7204878D01*
X7412918Y7204876D01*
X7410008Y7179795D01*
X7410008Y6735000D01*
X7010007Y6735000D01*
X7010007Y7179786D01*
X7010005Y7179809D01*
X7007099Y7204870D01*
X7007098Y7204874D01*
X6961796Y7307475D01*
X6961793Y7307480D01*
X6882487Y7386786D01*
X6882482Y7386789D01*
X6860338Y7396567D01*
X6806963Y7441654D01*
X6786436Y7508440D01*
X6805275Y7575722D01*
X6857499Y7622138D01*
X6860344Y7623437D01*
X6882482Y7633212D01*
X6882487Y7633215D01*
X6961793Y7712521D01*
X6961796Y7712526D01*
X7007097Y7815123D01*
X7007097Y7815125D01*
X7010007Y7840206D01*
X7010008Y7840209D01*
X7010008Y8285000D01*
X5610009Y8285000D01*
X5610009Y7840215D01*
X5610010Y7840192D01*
X5612916Y7815131D01*
X5612917Y7815127D01*
X5658219Y7712526D01*
X5658222Y7712521D01*
X5737528Y7633215D01*
X5737535Y7633210D01*
X5759675Y7623434D01*
X5813051Y7578349D01*
X5833579Y7511562D01*
X5814741Y7444280D01*
X5762518Y7397864D01*
X5759675Y7396566D01*
X5737535Y7386791D01*
X5737528Y7386786D01*
X5658222Y7307480D01*
X5658219Y7307475D01*
X5612918Y7204878D01*
X5612918Y7204876D01*
X5610008Y7179795D01*
X5610008Y6735000D01*
X4960508Y6735000D01*
X4960508Y7159674D01*
X4960508Y7159677D01*
X4960507Y7159679D01*
X4945975Y7232736D01*
X4945974Y7232737D01*
X4945974Y7232740D01*
X4890609Y7315601D01*
X4883824Y7325756D01*
X4886801Y7327746D01*
X4863342Y7370707D01*
X4860508Y7397065D01*
X4860508Y7622936D01*
X4880193Y7689975D01*
X4884744Y7695624D01*
X4890605Y7704397D01*
X4890609Y7704399D01*
X4945974Y7787260D01*
X4960508Y7860326D01*
X4960508Y8535000D01*
X5610008Y8535000D01*
X6185008Y8535000D01*
X6185008Y9235000D01*
X6435008Y9235000D01*
X6435008Y8535000D01*
X7010007Y8535000D01*
X7410008Y8535000D01*
X7985008Y8535000D01*
X7985008Y9235000D01*
X7665222Y9235000D01*
X7665199Y9234998D01*
X7640138Y9232092D01*
X7640134Y9232091D01*
X7537533Y9186789D01*
X7537528Y9186786D01*
X7458222Y9107480D01*
X7458219Y9107475D01*
X7412918Y9004878D01*
X7412918Y9004876D01*
X7410008Y8979795D01*
X7410008Y8535000D01*
X7010007Y8535000D01*
X7010007Y8979786D01*
X7010005Y8979809D01*
X7007099Y9004870D01*
X7007098Y9004874D01*
X6961796Y9107475D01*
X6961793Y9107480D01*
X6882487Y9186786D01*
X6882482Y9186789D01*
X6779884Y9232090D01*
X6754802Y9235000D01*
X6435008Y9235000D01*
X6185008Y9235000D01*
X5865222Y9235000D01*
X5865199Y9234998D01*
X5840138Y9232092D01*
X5840134Y9232091D01*
X5737533Y9186789D01*
X5737528Y9186786D01*
X5658222Y9107480D01*
X5658219Y9107475D01*
X5612918Y9004878D01*
X5612918Y9004876D01*
X5610008Y8979795D01*
X5610008Y8535000D01*
X4960508Y8535000D01*
X4960508Y8959674D01*
X4960508Y8959677D01*
X4960507Y8959679D01*
X4945975Y9032736D01*
X4945974Y9032740D01*
X4942308Y9038226D01*
X4890609Y9115601D01*
X4830052Y9156063D01*
X4807747Y9170967D01*
X4807743Y9170968D01*
X4734685Y9185500D01*
X4734682Y9185500D01*
X3885334Y9185500D01*
X3885331Y9185500D01*
X3812272Y9170968D01*
X3812268Y9170967D01*
X3729407Y9115601D01*
X3674041Y9032740D01*
X3674040Y9032736D01*
X3659508Y8959679D01*
X3659508Y7860322D01*
X3674040Y7787265D01*
X3674041Y7787261D01*
X3686720Y7768285D01*
X3729407Y7704399D01*
X3729408Y7704399D01*
X3736193Y7694244D01*
X3733215Y7692255D01*
X3756674Y7649294D01*
X3759508Y7622936D01*
X3759508Y7397065D01*
X3739823Y7330026D01*
X3735269Y7324376D01*
X3674042Y7232740D01*
X3674040Y7232736D01*
X3659508Y7159679D01*
X3659508Y6060322D01*
X3674040Y5987265D01*
X3674041Y5987261D01*
X3674042Y5987260D01*
X3729407Y5904399D01*
X3729408Y5904399D01*
X3736193Y5894244D01*
X3733215Y5892255D01*
X3756674Y5849294D01*
X3759508Y5822936D01*
X3759508Y5597065D01*
X3739823Y5530026D01*
X3735269Y5524376D01*
X3674042Y5432740D01*
X3674040Y5432736D01*
X3659508Y5359679D01*
X3659508Y4260322D01*
X3674040Y4187265D01*
X3674041Y4187261D01*
X3736193Y4094243D01*
X3735083Y4093502D01*
X3761172Y4047105D01*
X3767256Y4022138D01*
X3767723Y4020224D01*
X3768909Y4013982D01*
X3774937Y3970122D01*
X3782087Y3953663D01*
X3788827Y3933622D01*
X3793075Y3916190D01*
X3793075Y3916189D01*
X3801398Y3901387D01*
X3817095Y3833304D01*
X3793492Y3767542D01*
X3762202Y3737514D01*
X3729408Y3715602D01*
X3729407Y3715601D01*
X3723250Y3706386D01*
X3674041Y3632740D01*
X3674040Y3632736D01*
X3659508Y3559679D01*
X3659508Y2460322D01*
X3674040Y2387265D01*
X3674041Y2387261D01*
X3674042Y2387260D01*
X3729407Y2304399D01*
X3800915Y2256620D01*
X3845719Y2203009D01*
X3856024Y2153518D01*
X3856024Y2066483D01*
X3836339Y1999444D01*
X3800915Y1963381D01*
X3729407Y1915602D01*
X3674041Y1832740D01*
X3674040Y1832736D01*
X3659508Y1759679D01*
X3659508Y1334000D01*
X3639823Y1266961D01*
X3587019Y1221206D01*
X3535508Y1210000D01*
X3524812Y1210000D01*
X3457773Y1229685D01*
X3437131Y1246319D01*
X2921820Y1761630D01*
X2888335Y1822953D01*
X2885501Y1849311D01*
X2885501Y2083199D01*
X2871838Y2151885D01*
X2871837Y2151886D01*
X2871837Y2151888D01*
X2819787Y2229786D01*
X2741889Y2281836D01*
X2741887Y2281837D01*
X2741885Y2281838D01*
X2673199Y2295500D01*
X2673197Y2295500D01*
X1946803Y2295500D01*
X1946801Y2295500D01*
X1878114Y2281838D01*
X1878111Y2281836D01*
X1800213Y2229786D01*
X1748163Y2151888D01*
X1748161Y2151885D01*
X1734499Y2083199D01*
X1734499Y1765472D01*
X1714814Y1698433D01*
X1662010Y1652678D01*
X1592852Y1642734D01*
X1529296Y1671759D01*
X1522818Y1677791D01*
X1421820Y1778789D01*
X1388335Y1840112D01*
X1385501Y1866470D01*
X1385501Y2083199D01*
X1371838Y2151885D01*
X1371837Y2151886D01*
X1371837Y2151888D01*
X1319787Y2229786D01*
X1241889Y2281836D01*
X1241887Y2281837D01*
X1241885Y2281838D01*
X1173199Y2295500D01*
X1173197Y2295500D01*
X446803Y2295500D01*
X446801Y2295500D01*
X378114Y2281838D01*
X378112Y2281837D01*
X302890Y2231575D01*
X236213Y2210698D01*
X168833Y2229183D01*
X122143Y2281162D01*
X110000Y2334678D01*
X110000Y2619921D01*
X129685Y2686960D01*
X182489Y2732715D01*
X251647Y2742659D01*
X304084Y2722216D01*
X306149Y2720801D01*
X403616Y2677765D01*
X427439Y2675001D01*
X427445Y2675000D01*
X685000Y2675000D01*
X685000Y3175001D01*
X935000Y3175001D01*
X935000Y2675000D01*
X1192555Y2675000D01*
X1192560Y2675001D01*
X1216382Y2677765D01*
X1216384Y2677765D01*
X1313850Y2720802D01*
X1313857Y2720806D01*
X1389195Y2796144D01*
X1389199Y2796151D01*
X1432236Y2893617D01*
X1432236Y2893619D01*
X1435000Y2917441D01*
X1435001Y2917447D01*
X1435001Y3175001D01*
X1684999Y3175001D01*
X1684999Y2917441D01*
X1687763Y2893619D01*
X1687763Y2893617D01*
X1730800Y2796151D01*
X1730804Y2796144D01*
X1806142Y2720806D01*
X1806149Y2720802D01*
X1903616Y2677765D01*
X1927439Y2675001D01*
X1927445Y2675000D01*
X2185000Y2675000D01*
X2185000Y3175001D01*
X2435000Y3175001D01*
X2435000Y2675000D01*
X2692555Y2675000D01*
X2692560Y2675001D01*
X2716382Y2677765D01*
X2716384Y2677765D01*
X2813850Y2720802D01*
X2813857Y2720806D01*
X2889195Y2796144D01*
X2889199Y2796151D01*
X2932236Y2893617D01*
X2932236Y2893619D01*
X2935000Y2917441D01*
X2935001Y2917447D01*
X2935001Y3175001D01*
X2435000Y3175001D01*
X2185000Y3175001D01*
X1684999Y3175001D01*
X1435001Y3175001D01*
X935000Y3175001D01*
X685000Y3175001D01*
X685000Y3301001D01*
X704685Y3368040D01*
X757489Y3413795D01*
X809000Y3425001D01*
X1435001Y3425001D01*
X1684999Y3425001D01*
X2185000Y3425001D01*
X2185000Y3925002D01*
X2435000Y3925002D01*
X2435000Y3425001D01*
X2935001Y3425001D01*
X2935001Y3682556D01*
X2935000Y3682562D01*
X2932236Y3706384D01*
X2932236Y3706386D01*
X2889199Y3803852D01*
X2889195Y3803859D01*
X2813857Y3879197D01*
X2813850Y3879201D01*
X2716383Y3922238D01*
X2692560Y3925002D01*
X2435000Y3925002D01*
X2185000Y3925002D01*
X1927439Y3925002D01*
X1903617Y3922238D01*
X1903615Y3922238D01*
X1806149Y3879201D01*
X1806142Y3879197D01*
X1730804Y3803859D01*
X1730800Y3803852D01*
X1687763Y3706386D01*
X1687763Y3706384D01*
X1684999Y3682562D01*
X1684999Y3425001D01*
X1435001Y3425001D01*
X1435001Y3682556D01*
X1435000Y3682562D01*
X1432236Y3706384D01*
X1432236Y3706386D01*
X1389199Y3803852D01*
X1389195Y3803859D01*
X1352070Y3840984D01*
X1318585Y3902307D01*
X1323569Y3971999D01*
X1346037Y4009866D01*
X1380202Y4049294D01*
X1392887Y4063933D01*
X1392887Y4063935D01*
X1392890Y4063937D01*
X1446705Y4181774D01*
X1465141Y4310000D01*
X1461929Y4332337D01*
X1471872Y4401491D01*
X1517625Y4454296D01*
X1584665Y4473982D01*
X1651704Y4454299D01*
X1697460Y4401496D01*
X1706284Y4374173D01*
X1712292Y4343968D01*
X1712294Y4343962D01*
X1751024Y4286000D01*
X1761028Y4271028D01*
X1833965Y4222293D01*
X1833966Y4222293D01*
X1833967Y4222292D01*
X1870012Y4215123D01*
X1898281Y4209500D01*
X2721718Y4209501D01*
X2786035Y4222293D01*
X2858972Y4271028D01*
X2907707Y4343965D01*
X2920500Y4408281D01*
X2920499Y5011718D01*
X2907707Y5076035D01*
X2907705Y5076037D01*
X2907705Y5076039D01*
X2858972Y5148972D01*
X2812258Y5180185D01*
X2786035Y5197707D01*
X2786034Y5197708D01*
X2786033Y5197708D01*
X2786032Y5197709D01*
X2721721Y5210500D01*
X1898283Y5210500D01*
X1833964Y5197707D01*
X1833960Y5197706D01*
X1809558Y5181399D01*
X1742881Y5160520D01*
X1740666Y5160500D01*
X745666Y5160500D01*
X678627Y5180185D01*
X651951Y5203300D01*
X640282Y5216768D01*
X611261Y5280326D01*
X610000Y5297965D01*
X610000Y5322037D01*
X629685Y5389076D01*
X640278Y5403229D01*
X692882Y5463937D01*
X746697Y5581774D01*
X765133Y5710000D01*
X746697Y5838226D01*
X725798Y5883988D01*
X715854Y5953147D01*
X744879Y6016703D01*
X803657Y6054477D01*
X838592Y6059500D01*
X1587548Y6059500D01*
X1654587Y6039815D01*
X1700342Y5987011D01*
X1709166Y5959689D01*
X1712293Y5943965D01*
X1712294Y5943962D01*
X1752368Y5883988D01*
X1761028Y5871028D01*
X1833965Y5822293D01*
X1833966Y5822293D01*
X1833967Y5822292D01*
X1872483Y5814632D01*
X1898281Y5809500D01*
X2721718Y5809501D01*
X2786035Y5822293D01*
X2858972Y5871028D01*
X2907707Y5943965D01*
X2909534Y5953147D01*
X2920499Y6008278D01*
X2920500Y6008281D01*
X2920499Y6611718D01*
X2907707Y6676035D01*
X2907705Y6676037D01*
X2907705Y6676039D01*
X2858972Y6748972D01*
X2786036Y6797706D01*
X2786035Y6797707D01*
X2786034Y6797708D01*
X2786033Y6797708D01*
X2786032Y6797709D01*
X2721723Y6810500D01*
X2721719Y6810500D01*
X2684500Y6810500D01*
X2617461Y6830185D01*
X2571706Y6882989D01*
X2560500Y6934500D01*
X2560500Y7085501D01*
X2580185Y7152540D01*
X2632989Y7198295D01*
X2684500Y7209501D01*
X2721717Y7209501D01*
X2721718Y7209501D01*
X2786035Y7222293D01*
X2858972Y7271028D01*
X2907707Y7343965D01*
X2920500Y7408281D01*
X2920499Y8011718D01*
X2907707Y8076035D01*
X2907705Y8076037D01*
X2907705Y8076039D01*
X2858972Y8148972D01*
X2786036Y8197706D01*
X2786035Y8197707D01*
X2786034Y8197708D01*
X2786033Y8197708D01*
X2786032Y8197709D01*
X2721721Y8210500D01*
X1898283Y8210500D01*
X1833964Y8197707D01*
X1833961Y8197706D01*
X1761028Y8148973D01*
X1712292Y8076034D01*
X1712291Y8076033D01*
X1699500Y8011723D01*
X1699500Y7408284D01*
X1712293Y7343965D01*
X1712294Y7343962D01*
X1761027Y7271029D01*
X1761028Y7271028D01*
X1833965Y7222293D01*
X1833966Y7222293D01*
X1833967Y7222292D01*
X1881981Y7212743D01*
X1898281Y7209500D01*
X1935499Y7209501D01*
X2002537Y7189818D01*
X2048293Y7137015D01*
X2059500Y7085501D01*
X2059500Y6934500D01*
X2039815Y6867461D01*
X1987011Y6821706D01*
X1935503Y6810500D01*
X1898283Y6810500D01*
X1833964Y6797707D01*
X1833961Y6797706D01*
X1761028Y6748973D01*
X1712292Y6676034D01*
X1709164Y6660307D01*
X1676778Y6598397D01*
X1616062Y6563823D01*
X1587547Y6560500D01*
X861883Y6560500D01*
X794844Y6580185D01*
X749089Y6632988D01*
X729430Y6676035D01*
X692882Y6756063D01*
X692880Y6756065D01*
X692879Y6756068D01*
X640286Y6816765D01*
X611262Y6880321D01*
X610000Y6897966D01*
X610000Y6922037D01*
X629685Y6989076D01*
X640278Y7003229D01*
X692882Y7063937D01*
X746697Y7181774D01*
X765133Y7310000D01*
X746697Y7438226D01*
X692882Y7556063D01*
X692880Y7556065D01*
X692879Y7556068D01*
X640286Y7616765D01*
X611262Y7680321D01*
X610000Y7697966D01*
X610000Y7722037D01*
X629685Y7789076D01*
X640278Y7803229D01*
X692882Y7863937D01*
X746697Y7981774D01*
X765133Y8110000D01*
X746697Y8238226D01*
X692882Y8356063D01*
X692880Y8356065D01*
X692879Y8356068D01*
X640286Y8416765D01*
X611262Y8480321D01*
X610000Y8497966D01*
X610000Y8522037D01*
X629685Y8589076D01*
X640278Y8603229D01*
X692882Y8663937D01*
X746697Y8781774D01*
X749705Y8802697D01*
X778729Y8866252D01*
X837506Y8904028D01*
X848269Y8906671D01*
X850553Y8907126D01*
X874704Y8909500D01*
X1671194Y8909500D01*
X1738233Y8889815D01*
X1758879Y8873177D01*
X1761027Y8871029D01*
X1761028Y8871028D01*
X1833965Y8822293D01*
X1833967Y8822293D01*
X1833967Y8822292D01*
X1872483Y8814632D01*
X1898281Y8809500D01*
X2721718Y8809501D01*
X2786035Y8822293D01*
X2858972Y8871028D01*
X2907707Y8943965D01*
X2920500Y9008281D01*
X2920499Y9611718D01*
X2907707Y9676035D01*
X2907705Y9676037D01*
X2907705Y9676040D01*
X2880263Y9717108D01*
X2859384Y9783785D01*
X2877868Y9851166D01*
X2929846Y9897856D01*
X2983364Y9910000D01*
X8286000Y9910000D01*
X8353039Y9890315D01*
G37*
G04 #@! TD.AperFunction*
G04 #@! TA.AperFunction,Conductor*
G36*
X13653039Y9890315D02*
G01*
X13698794Y9837511D01*
X13710000Y9786000D01*
X13710000Y5696232D01*
X13690315Y5629193D01*
X13637511Y5583438D01*
X13568353Y5573494D01*
X13504797Y5602519D01*
X13492287Y5615030D01*
X13458549Y5653965D01*
X13458548Y5653966D01*
X13458547Y5653967D01*
X13349567Y5724004D01*
X13349563Y5724006D01*
X13349562Y5724006D01*
X13225272Y5760500D01*
X13225270Y5760500D01*
X13095726Y5760500D01*
X13095724Y5760500D01*
X12971433Y5724006D01*
X12971430Y5724005D01*
X12971429Y5724004D01*
X12947211Y5708440D01*
X12862448Y5653967D01*
X12777616Y5556063D01*
X12777615Y5556062D01*
X12723800Y5438226D01*
X12705365Y5310000D01*
X12723800Y5181775D01*
X12772091Y5076035D01*
X12777616Y5063937D01*
X12862449Y4966033D01*
X12971429Y4895996D01*
X13095723Y4859501D01*
X13095725Y4859500D01*
X13095726Y4859500D01*
X13225271Y4859500D01*
X13225271Y4859501D01*
X13349567Y4895996D01*
X13458547Y4966033D01*
X13492286Y5004970D01*
X13551063Y5042746D01*
X13620933Y5042747D01*
X13679712Y5004973D01*
X13708738Y4941418D01*
X13710000Y4923769D01*
X13710000Y234000D01*
X13690315Y166961D01*
X13637511Y121206D01*
X13586000Y110000D01*
X12134000Y110000D01*
X12066961Y129685D01*
X12021206Y182489D01*
X12010000Y234000D01*
X12010000Y380113D01*
X12029685Y447152D01*
X12046319Y467794D01*
X12161704Y583179D01*
X12223027Y616664D01*
X12249385Y619498D01*
X12373207Y619498D01*
X12441893Y633161D01*
X12441893Y633162D01*
X12441897Y633162D01*
X12519795Y685212D01*
X12571845Y763110D01*
X12585509Y831802D01*
X12585509Y970118D01*
X12605194Y1037157D01*
X12657998Y1082912D01*
X12727156Y1092856D01*
X12744437Y1089097D01*
X12808950Y1070155D01*
X12845235Y1059500D01*
X12845236Y1059500D01*
X12974781Y1059500D01*
X12974781Y1059501D01*
X13099077Y1095996D01*
X13208057Y1166033D01*
X13292890Y1263937D01*
X13346705Y1381774D01*
X13365141Y1510000D01*
X13346705Y1638226D01*
X13292890Y1756063D01*
X13208057Y1853967D01*
X13099077Y1924004D01*
X13099073Y1924006D01*
X13099072Y1924006D01*
X12974782Y1960500D01*
X12974780Y1960500D01*
X12845236Y1960500D01*
X12845234Y1960500D01*
X12720943Y1924006D01*
X12720940Y1924005D01*
X12720939Y1924004D01*
X12687433Y1902472D01*
X12611957Y1853967D01*
X12562371Y1796740D01*
X12503593Y1758966D01*
X12444467Y1756326D01*
X12373209Y1770500D01*
X12373205Y1770500D01*
X11646811Y1770500D01*
X11646809Y1770500D01*
X11578122Y1756838D01*
X11578119Y1756836D01*
X11500221Y1704786D01*
X11448171Y1626888D01*
X11448169Y1626885D01*
X11434507Y1558199D01*
X11434507Y1464394D01*
X11414822Y1397355D01*
X11398188Y1376713D01*
X11267794Y1246319D01*
X11206471Y1212834D01*
X11180113Y1210000D01*
X10884508Y1210000D01*
X10817469Y1229685D01*
X10771714Y1282489D01*
X10760508Y1334000D01*
X10760508Y1759677D01*
X10760507Y1759679D01*
X10745975Y1832736D01*
X10745974Y1832737D01*
X10745974Y1832740D01*
X10690609Y1915601D01*
X10690608Y1915602D01*
X10683824Y1925756D01*
X10686801Y1927746D01*
X10663342Y1970707D01*
X10660508Y1997065D01*
X10660508Y2222936D01*
X10680193Y2289975D01*
X10684744Y2295624D01*
X10690605Y2304397D01*
X10690609Y2304399D01*
X10745974Y2387260D01*
X10760508Y2460326D01*
X10760508Y2650001D01*
X11385007Y2650001D01*
X11385007Y2392441D01*
X11387771Y2368619D01*
X11387771Y2368617D01*
X11430808Y2271151D01*
X11430812Y2271144D01*
X11506150Y2195806D01*
X11506157Y2195802D01*
X11603624Y2152765D01*
X11627447Y2150001D01*
X11627453Y2150000D01*
X11885008Y2150000D01*
X11885008Y2650001D01*
X12135008Y2650001D01*
X12135008Y2150000D01*
X12392563Y2150000D01*
X12392568Y2150001D01*
X12416390Y2152765D01*
X12416392Y2152765D01*
X12513858Y2195802D01*
X12513865Y2195806D01*
X12589203Y2271144D01*
X12589207Y2271151D01*
X12632244Y2368617D01*
X12632244Y2368619D01*
X12635008Y2392441D01*
X12635009Y2392447D01*
X12635009Y2650001D01*
X12135008Y2650001D01*
X11885008Y2650001D01*
X11385007Y2650001D01*
X10760508Y2650001D01*
X10760508Y2900001D01*
X11385007Y2900001D01*
X11885008Y2900001D01*
X11885008Y3400002D01*
X12135008Y3400002D01*
X12135008Y2900001D01*
X12635009Y2900001D01*
X12635009Y3157556D01*
X12635008Y3157562D01*
X12632244Y3181384D01*
X12632244Y3181386D01*
X12589207Y3278852D01*
X12589203Y3278859D01*
X12513865Y3354197D01*
X12513858Y3354201D01*
X12416391Y3397238D01*
X12392568Y3400002D01*
X12135008Y3400002D01*
X11885008Y3400002D01*
X11627447Y3400002D01*
X11603625Y3397238D01*
X11603623Y3397238D01*
X11506157Y3354201D01*
X11506150Y3354197D01*
X11430812Y3278859D01*
X11430808Y3278852D01*
X11387771Y3181386D01*
X11387771Y3181384D01*
X11385007Y3157562D01*
X11385007Y2900001D01*
X10760508Y2900001D01*
X10760508Y3559674D01*
X10760508Y3559677D01*
X10760507Y3559679D01*
X10745975Y3632736D01*
X10745974Y3632737D01*
X10745974Y3632740D01*
X10690609Y3715601D01*
X10690608Y3715602D01*
X10683824Y3725756D01*
X10686801Y3727746D01*
X10663342Y3770707D01*
X10660508Y3797065D01*
X10660508Y4022936D01*
X10680193Y4089975D01*
X10684744Y4095624D01*
X10690605Y4104397D01*
X10690609Y4104399D01*
X10745974Y4187260D01*
X10760508Y4260326D01*
X10760508Y5359674D01*
X10760508Y5359677D01*
X10760507Y5359679D01*
X10745975Y5432736D01*
X10745974Y5432737D01*
X10745974Y5432740D01*
X10690609Y5515601D01*
X10683824Y5525756D01*
X10686801Y5527746D01*
X10663342Y5570707D01*
X10660508Y5597065D01*
X10660508Y5822936D01*
X10680193Y5889975D01*
X10684744Y5895624D01*
X10690605Y5904397D01*
X10690609Y5904399D01*
X10745974Y5987260D01*
X10760508Y6060326D01*
X10760508Y7159674D01*
X10760508Y7159677D01*
X10760507Y7159679D01*
X10745975Y7232736D01*
X10745974Y7232737D01*
X10745974Y7232740D01*
X10690609Y7315601D01*
X10683824Y7325756D01*
X10686801Y7327746D01*
X10663342Y7370707D01*
X10660508Y7397065D01*
X10660508Y7622936D01*
X10680193Y7689975D01*
X10684744Y7695624D01*
X10690605Y7704397D01*
X10690609Y7704399D01*
X10745974Y7787260D01*
X10760508Y7860326D01*
X10760508Y7947969D01*
X10780193Y8015008D01*
X10832997Y8060763D01*
X10902155Y8070707D01*
X10951544Y8052286D01*
X11014549Y8011795D01*
X11014551Y8011795D01*
X11014552Y8011794D01*
X11138843Y7975300D01*
X11138845Y7975299D01*
X11138846Y7975299D01*
X11268391Y7975299D01*
X11268391Y7975300D01*
X11392687Y8011795D01*
X11392700Y8011804D01*
X11393952Y8012374D01*
X11395342Y8012575D01*
X11401197Y8014293D01*
X11401443Y8013453D01*
X11463109Y8022325D01*
X11526668Y7993307D01*
X11564449Y7934533D01*
X11568214Y7917233D01*
X11573310Y7881785D01*
X11603754Y7815123D01*
X11627126Y7763947D01*
X11711959Y7666043D01*
X11820939Y7596006D01*
X11881075Y7578349D01*
X11945233Y7559511D01*
X11945235Y7559510D01*
X11945236Y7559510D01*
X12074781Y7559510D01*
X12074781Y7559511D01*
X12199077Y7596006D01*
X12308057Y7666043D01*
X12392890Y7763947D01*
X12446705Y7881784D01*
X12465141Y8010010D01*
X12446705Y8138236D01*
X12392890Y8256073D01*
X12308057Y8353977D01*
X12199077Y8424014D01*
X12199073Y8424016D01*
X12199072Y8424016D01*
X12074782Y8460510D01*
X12074780Y8460510D01*
X11945236Y8460510D01*
X11945234Y8460510D01*
X11820939Y8424015D01*
X11819659Y8423430D01*
X11818265Y8423230D01*
X11812429Y8421516D01*
X11812182Y8422356D01*
X11750500Y8413487D01*
X11686945Y8442513D01*
X11649171Y8501292D01*
X11645411Y8518580D01*
X11640315Y8554024D01*
X11633803Y8568285D01*
X11586500Y8671862D01*
X11586498Y8671864D01*
X11586497Y8671867D01*
X11533512Y8733015D01*
X11504487Y8796571D01*
X11514431Y8865729D01*
X11533512Y8895419D01*
X11592879Y8963933D01*
X11592879Y8963935D01*
X11592882Y8963937D01*
X11646697Y9081774D01*
X11665133Y9210000D01*
X11646697Y9338226D01*
X11592882Y9456063D01*
X11508049Y9553967D01*
X11399069Y9624004D01*
X11399065Y9624006D01*
X11399064Y9624006D01*
X11274774Y9660500D01*
X11274772Y9660500D01*
X11145228Y9660500D01*
X11145226Y9660500D01*
X11020935Y9624006D01*
X11020932Y9624005D01*
X11020931Y9624004D01*
X10969677Y9591066D01*
X10911950Y9553967D01*
X10827118Y9456063D01*
X10827117Y9456062D01*
X10773302Y9338226D01*
X10763938Y9273094D01*
X10734912Y9209539D01*
X10676134Y9171765D01*
X10617009Y9169125D01*
X10534686Y9185500D01*
X10534682Y9185500D01*
X10264387Y9185500D01*
X10197348Y9205185D01*
X10176706Y9221819D01*
X9846319Y9552206D01*
X9812834Y9613529D01*
X9810000Y9639887D01*
X9810000Y9786000D01*
X9829685Y9853039D01*
X9882489Y9898794D01*
X9934000Y9910000D01*
X13586000Y9910000D01*
X13653039Y9890315D01*
G37*
G04 #@! TD.AperFunction*
G04 #@! TA.AperFunction,Conductor*
G36*
X500089Y4390315D02*
G01*
X545844Y4337511D01*
X555788Y4303647D01*
X573310Y4181775D01*
X577114Y4173446D01*
X608647Y4104399D01*
X610422Y4100514D01*
X620366Y4031356D01*
X591341Y3967800D01*
X532564Y3930025D01*
X497628Y3925002D01*
X427439Y3925002D01*
X403617Y3922238D01*
X403615Y3922238D01*
X306145Y3879200D01*
X304078Y3877783D01*
X299726Y3876366D01*
X295634Y3874558D01*
X295451Y3874972D01*
X237646Y3856136D01*
X170057Y3873841D01*
X122769Y3925276D01*
X110000Y3980082D01*
X110000Y4286000D01*
X129685Y4353039D01*
X182489Y4398794D01*
X234000Y4410000D01*
X433050Y4410000D01*
X500089Y4390315D01*
G37*
G04 #@! TD.AperFunction*
G04 #@! TD*
M02*
