M48
; DRILL file {KiCad 7.0.9} date Sun Mar 10 08:17:24 2024
; FORMAT={2:4/ absolute / inch / suppress leading zeros}
; #@! TF.CreationDate,2024-03-10T08:17:24+03:00
; #@! TF.GenerationSoftware,Kicad,Pcbnew,7.0.9
; #@! TF.FileFunction,MixedPlating,1,4
FMAT,2
INCH,TZ
; #@! TA.AperFunction,Plated,PTH,ViaDrill
T1C0.0118
; #@! TA.AperFunction,Plated,PTH,ComponentDrill
T2C0.0118
; #@! TA.AperFunction,Plated,PTH,ComponentDrill
T3C0.0276
%
G90
G05
T1
X236Y236
X394Y1693
X1299Y3720
X1316Y686
X1693Y2244
X1731Y1580
X2087Y3701
X2087Y197
X2126Y2953
X2126Y827
X2835Y3720
X2835Y2953
X2835Y2244
X2835Y1535
X2835Y827
X3543Y2244
X3583Y197
X3976Y1535
X3976Y827
X4407Y3313
X4409Y3622
X4724Y3150
X5039Y3701
X5079Y591
X5177Y2087
X5197Y236
X5236Y3189
T2
X118Y3819
X118Y3504
X118Y3189
X118Y2874
X118Y2559
X118Y2244
X118Y1929
X433Y3819
T3
X748Y197
X1220Y197
X3583Y3740
X4449Y197
T0
M30
