G04 #@! TF.GenerationSoftware,KiCad,Pcbnew,(5.99.0-9294-gd3cf97847e)*
G04 #@! TF.CreationDate,2021-03-08T12:58:25+02:00*
G04 #@! TF.ProjectId,hellen1-wbo,68656c6c-656e-4312-9d77-626f2e6b6963,rev?*
G04 #@! TF.SameCoordinates,Original*
G04 #@! TF.FileFunction,Soldermask,Top*
G04 #@! TF.FilePolarity,Negative*
%FSLAX46Y46*%
G04 Gerber Fmt 4.6, Leading zero omitted, Abs format (unit mm)*
G04 Created by KiCad (PCBNEW (5.99.0-9294-gd3cf97847e)) date 2021-03-08 12:58:25*
%MOMM*%
%LPD*%
G01*
G04 APERTURE LIST*
%ADD10C,1.088600*%
%ADD11C,0.885400*%
G04 APERTURE END LIST*
G04 #@! TO.C,C612*
G36*
G01*
X95147000Y-85879000D02*
X94753000Y-85879000D01*
G75*
G02*
X94581000Y-85707000I0J172000D01*
G01*
X94581000Y-85363000D01*
G75*
G02*
X94753000Y-85191000I172000J0D01*
G01*
X95147000Y-85191000D01*
G75*
G02*
X95319000Y-85363000I0J-172000D01*
G01*
X95319000Y-85707000D01*
G75*
G02*
X95147000Y-85879000I-172000J0D01*
G01*
G37*
G36*
G01*
X95147000Y-84909000D02*
X94753000Y-84909000D01*
G75*
G02*
X94581000Y-84737000I0J172000D01*
G01*
X94581000Y-84393000D01*
G75*
G02*
X94753000Y-84221000I172000J0D01*
G01*
X95147000Y-84221000D01*
G75*
G02*
X95319000Y-84393000I0J-172000D01*
G01*
X95319000Y-84737000D01*
G75*
G02*
X95147000Y-84909000I-172000J0D01*
G01*
G37*
G04 #@! TD*
G04 #@! TO.C,C605*
G36*
G01*
X104016500Y-92068500D02*
X104016500Y-92462500D01*
G75*
G02*
X103844500Y-92634500I-172000J0D01*
G01*
X103500500Y-92634500D01*
G75*
G02*
X103328500Y-92462500I0J172000D01*
G01*
X103328500Y-92068500D01*
G75*
G02*
X103500500Y-91896500I172000J0D01*
G01*
X103844500Y-91896500D01*
G75*
G02*
X104016500Y-92068500I0J-172000D01*
G01*
G37*
G36*
G01*
X103046500Y-92068500D02*
X103046500Y-92462500D01*
G75*
G02*
X102874500Y-92634500I-172000J0D01*
G01*
X102530500Y-92634500D01*
G75*
G02*
X102358500Y-92462500I0J172000D01*
G01*
X102358500Y-92068500D01*
G75*
G02*
X102530500Y-91896500I172000J0D01*
G01*
X102874500Y-91896500D01*
G75*
G02*
X103046500Y-92068500I0J-172000D01*
G01*
G37*
G04 #@! TD*
G04 #@! TO.C,C607*
G36*
G01*
X104581000Y-85795000D02*
X104581000Y-85401000D01*
G75*
G02*
X104753000Y-85229000I172000J0D01*
G01*
X105097000Y-85229000D01*
G75*
G02*
X105269000Y-85401000I0J-172000D01*
G01*
X105269000Y-85795000D01*
G75*
G02*
X105097000Y-85967000I-172000J0D01*
G01*
X104753000Y-85967000D01*
G75*
G02*
X104581000Y-85795000I0J172000D01*
G01*
G37*
G36*
G01*
X105551000Y-85795000D02*
X105551000Y-85401000D01*
G75*
G02*
X105723000Y-85229000I172000J0D01*
G01*
X106067000Y-85229000D01*
G75*
G02*
X106239000Y-85401000I0J-172000D01*
G01*
X106239000Y-85795000D01*
G75*
G02*
X106067000Y-85967000I-172000J0D01*
G01*
X105723000Y-85967000D01*
G75*
G02*
X105551000Y-85795000I0J172000D01*
G01*
G37*
G04 #@! TD*
G04 #@! TO.C,C613*
G36*
G01*
X79175000Y-89956000D02*
X79175000Y-89562000D01*
G75*
G02*
X79347000Y-89390000I172000J0D01*
G01*
X79691000Y-89390000D01*
G75*
G02*
X79863000Y-89562000I0J-172000D01*
G01*
X79863000Y-89956000D01*
G75*
G02*
X79691000Y-90128000I-172000J0D01*
G01*
X79347000Y-90128000D01*
G75*
G02*
X79175000Y-89956000I0J172000D01*
G01*
G37*
G36*
G01*
X80145000Y-89956000D02*
X80145000Y-89562000D01*
G75*
G02*
X80317000Y-89390000I172000J0D01*
G01*
X80661000Y-89390000D01*
G75*
G02*
X80833000Y-89562000I0J-172000D01*
G01*
X80833000Y-89956000D01*
G75*
G02*
X80661000Y-90128000I-172000J0D01*
G01*
X80317000Y-90128000D01*
G75*
G02*
X80145000Y-89956000I0J172000D01*
G01*
G37*
G04 #@! TD*
G04 #@! TO.C,C616*
G36*
G01*
X82644250Y-86326000D02*
X83205750Y-86326000D01*
G75*
G02*
X83449000Y-86569250I0J-243250D01*
G01*
X83449000Y-87055750D01*
G75*
G02*
X83205750Y-87299000I-243250J0D01*
G01*
X82644250Y-87299000D01*
G75*
G02*
X82401000Y-87055750I0J243250D01*
G01*
X82401000Y-86569250D01*
G75*
G02*
X82644250Y-86326000I243250J0D01*
G01*
G37*
G36*
G01*
X82644250Y-87901000D02*
X83205750Y-87901000D01*
G75*
G02*
X83449000Y-88144250I0J-243250D01*
G01*
X83449000Y-88630750D01*
G75*
G02*
X83205750Y-88874000I-243250J0D01*
G01*
X82644250Y-88874000D01*
G75*
G02*
X82401000Y-88630750I0J243250D01*
G01*
X82401000Y-88144250D01*
G75*
G02*
X82644250Y-87901000I243250J0D01*
G01*
G37*
G04 #@! TD*
G04 #@! TO.C,R609*
G36*
G01*
X100580000Y-85624750D02*
X100580000Y-85063250D01*
G75*
G02*
X100823250Y-84820000I243250J0D01*
G01*
X101309750Y-84820000D01*
G75*
G02*
X101553000Y-85063250I0J-243250D01*
G01*
X101553000Y-85624750D01*
G75*
G02*
X101309750Y-85868000I-243250J0D01*
G01*
X100823250Y-85868000D01*
G75*
G02*
X100580000Y-85624750I0J243250D01*
G01*
G37*
G36*
G01*
X102155000Y-85624750D02*
X102155000Y-85063250D01*
G75*
G02*
X102398250Y-84820000I243250J0D01*
G01*
X102884750Y-84820000D01*
G75*
G02*
X103128000Y-85063250I0J-243250D01*
G01*
X103128000Y-85624750D01*
G75*
G02*
X102884750Y-85868000I-243250J0D01*
G01*
X102398250Y-85868000D01*
G75*
G02*
X102155000Y-85624750I0J243250D01*
G01*
G37*
G04 #@! TD*
G04 #@! TO.C,R607*
G36*
G01*
X102048000Y-92068500D02*
X102048000Y-92462500D01*
G75*
G02*
X101876000Y-92634500I-172000J0D01*
G01*
X101532000Y-92634500D01*
G75*
G02*
X101360000Y-92462500I0J172000D01*
G01*
X101360000Y-92068500D01*
G75*
G02*
X101532000Y-91896500I172000J0D01*
G01*
X101876000Y-91896500D01*
G75*
G02*
X102048000Y-92068500I0J-172000D01*
G01*
G37*
G36*
G01*
X101078000Y-92068500D02*
X101078000Y-92462500D01*
G75*
G02*
X100906000Y-92634500I-172000J0D01*
G01*
X100562000Y-92634500D01*
G75*
G02*
X100390000Y-92462500I0J172000D01*
G01*
X100390000Y-92068500D01*
G75*
G02*
X100562000Y-91896500I172000J0D01*
G01*
X100906000Y-91896500D01*
G75*
G02*
X101078000Y-92068500I0J-172000D01*
G01*
G37*
G04 #@! TD*
G04 #@! TO.C,R601*
G36*
G01*
X105099000Y-87951000D02*
X104705000Y-87951000D01*
G75*
G02*
X104533000Y-87779000I0J172000D01*
G01*
X104533000Y-87435000D01*
G75*
G02*
X104705000Y-87263000I172000J0D01*
G01*
X105099000Y-87263000D01*
G75*
G02*
X105271000Y-87435000I0J-172000D01*
G01*
X105271000Y-87779000D01*
G75*
G02*
X105099000Y-87951000I-172000J0D01*
G01*
G37*
G36*
G01*
X105099000Y-86981000D02*
X104705000Y-86981000D01*
G75*
G02*
X104533000Y-86809000I0J172000D01*
G01*
X104533000Y-86465000D01*
G75*
G02*
X104705000Y-86293000I172000J0D01*
G01*
X105099000Y-86293000D01*
G75*
G02*
X105271000Y-86465000I0J-172000D01*
G01*
X105271000Y-86809000D01*
G75*
G02*
X105099000Y-86981000I-172000J0D01*
G01*
G37*
G04 #@! TD*
G04 #@! TO.C,R614*
G36*
G01*
X103453000Y-82271000D02*
X103847000Y-82271000D01*
G75*
G02*
X104019000Y-82443000I0J-172000D01*
G01*
X104019000Y-82787000D01*
G75*
G02*
X103847000Y-82959000I-172000J0D01*
G01*
X103453000Y-82959000D01*
G75*
G02*
X103281000Y-82787000I0J172000D01*
G01*
X103281000Y-82443000D01*
G75*
G02*
X103453000Y-82271000I172000J0D01*
G01*
G37*
G36*
G01*
X103453000Y-83241000D02*
X103847000Y-83241000D01*
G75*
G02*
X104019000Y-83413000I0J-172000D01*
G01*
X104019000Y-83757000D01*
G75*
G02*
X103847000Y-83929000I-172000J0D01*
G01*
X103453000Y-83929000D01*
G75*
G02*
X103281000Y-83757000I0J172000D01*
G01*
X103281000Y-83413000D01*
G75*
G02*
X103453000Y-83241000I172000J0D01*
G01*
G37*
G04 #@! TD*
G04 #@! TO.C,R615*
G36*
G01*
X102271000Y-81497000D02*
X102271000Y-81103000D01*
G75*
G02*
X102443000Y-80931000I172000J0D01*
G01*
X102787000Y-80931000D01*
G75*
G02*
X102959000Y-81103000I0J-172000D01*
G01*
X102959000Y-81497000D01*
G75*
G02*
X102787000Y-81669000I-172000J0D01*
G01*
X102443000Y-81669000D01*
G75*
G02*
X102271000Y-81497000I0J172000D01*
G01*
G37*
G36*
G01*
X103241000Y-81497000D02*
X103241000Y-81103000D01*
G75*
G02*
X103413000Y-80931000I172000J0D01*
G01*
X103757000Y-80931000D01*
G75*
G02*
X103929000Y-81103000I0J-172000D01*
G01*
X103929000Y-81497000D01*
G75*
G02*
X103757000Y-81669000I-172000J0D01*
G01*
X103413000Y-81669000D01*
G75*
G02*
X103241000Y-81497000I0J172000D01*
G01*
G37*
G04 #@! TD*
G04 #@! TO.C,R621*
G36*
G01*
X95971000Y-81197000D02*
X95971000Y-80803000D01*
G75*
G02*
X96143000Y-80631000I172000J0D01*
G01*
X96487000Y-80631000D01*
G75*
G02*
X96659000Y-80803000I0J-172000D01*
G01*
X96659000Y-81197000D01*
G75*
G02*
X96487000Y-81369000I-172000J0D01*
G01*
X96143000Y-81369000D01*
G75*
G02*
X95971000Y-81197000I0J172000D01*
G01*
G37*
G36*
G01*
X96941000Y-81197000D02*
X96941000Y-80803000D01*
G75*
G02*
X97113000Y-80631000I172000J0D01*
G01*
X97457000Y-80631000D01*
G75*
G02*
X97629000Y-80803000I0J-172000D01*
G01*
X97629000Y-81197000D01*
G75*
G02*
X97457000Y-81369000I-172000J0D01*
G01*
X97113000Y-81369000D01*
G75*
G02*
X96941000Y-81197000I0J172000D01*
G01*
G37*
G04 #@! TD*
G04 #@! TO.C,R619*
G36*
G01*
X100079500Y-92068500D02*
X100079500Y-92462500D01*
G75*
G02*
X99907500Y-92634500I-172000J0D01*
G01*
X99563500Y-92634500D01*
G75*
G02*
X99391500Y-92462500I0J172000D01*
G01*
X99391500Y-92068500D01*
G75*
G02*
X99563500Y-91896500I172000J0D01*
G01*
X99907500Y-91896500D01*
G75*
G02*
X100079500Y-92068500I0J-172000D01*
G01*
G37*
G36*
G01*
X99109500Y-92068500D02*
X99109500Y-92462500D01*
G75*
G02*
X98937500Y-92634500I-172000J0D01*
G01*
X98593500Y-92634500D01*
G75*
G02*
X98421500Y-92462500I0J172000D01*
G01*
X98421500Y-92068500D01*
G75*
G02*
X98593500Y-91896500I172000J0D01*
G01*
X98937500Y-91896500D01*
G75*
G02*
X99109500Y-92068500I0J-172000D01*
G01*
G37*
G04 #@! TD*
G04 #@! TO.C,R620*
G36*
G01*
X98111000Y-92068500D02*
X98111000Y-92462500D01*
G75*
G02*
X97939000Y-92634500I-172000J0D01*
G01*
X97595000Y-92634500D01*
G75*
G02*
X97423000Y-92462500I0J172000D01*
G01*
X97423000Y-92068500D01*
G75*
G02*
X97595000Y-91896500I172000J0D01*
G01*
X97939000Y-91896500D01*
G75*
G02*
X98111000Y-92068500I0J-172000D01*
G01*
G37*
G36*
G01*
X97141000Y-92068500D02*
X97141000Y-92462500D01*
G75*
G02*
X96969000Y-92634500I-172000J0D01*
G01*
X96625000Y-92634500D01*
G75*
G02*
X96453000Y-92462500I0J172000D01*
G01*
X96453000Y-92068500D01*
G75*
G02*
X96625000Y-91896500I172000J0D01*
G01*
X96969000Y-91896500D01*
G75*
G02*
X97141000Y-92068500I0J-172000D01*
G01*
G37*
G04 #@! TD*
G04 #@! TO.C,R606*
G36*
G01*
X104083000Y-85919000D02*
X103689000Y-85919000D01*
G75*
G02*
X103517000Y-85747000I0J172000D01*
G01*
X103517000Y-85403000D01*
G75*
G02*
X103689000Y-85231000I172000J0D01*
G01*
X104083000Y-85231000D01*
G75*
G02*
X104255000Y-85403000I0J-172000D01*
G01*
X104255000Y-85747000D01*
G75*
G02*
X104083000Y-85919000I-172000J0D01*
G01*
G37*
G36*
G01*
X104083000Y-84949000D02*
X103689000Y-84949000D01*
G75*
G02*
X103517000Y-84777000I0J172000D01*
G01*
X103517000Y-84433000D01*
G75*
G02*
X103689000Y-84261000I172000J0D01*
G01*
X104083000Y-84261000D01*
G75*
G02*
X104255000Y-84433000I0J-172000D01*
G01*
X104255000Y-84777000D01*
G75*
G02*
X104083000Y-84949000I-172000J0D01*
G01*
G37*
G04 #@! TD*
G04 #@! TO.C,U604*
G36*
G01*
X81757000Y-87997600D02*
X81757000Y-88797600D01*
G75*
G02*
X81708000Y-88846600I-49000J0D01*
G01*
X80808000Y-88846600D01*
G75*
G02*
X80759000Y-88797600I0J49000D01*
G01*
X80759000Y-87997600D01*
G75*
G02*
X80808000Y-87948600I49000J0D01*
G01*
X81708000Y-87948600D01*
G75*
G02*
X81757000Y-87997600I0J-49000D01*
G01*
G37*
G36*
G01*
X81757000Y-86097600D02*
X81757000Y-86897600D01*
G75*
G02*
X81708000Y-86946600I-49000J0D01*
G01*
X80808000Y-86946600D01*
G75*
G02*
X80759000Y-86897600I0J49000D01*
G01*
X80759000Y-86097600D01*
G75*
G02*
X80808000Y-86048600I49000J0D01*
G01*
X81708000Y-86048600D01*
G75*
G02*
X81757000Y-86097600I0J-49000D01*
G01*
G37*
G36*
G01*
X79757000Y-87047600D02*
X79757000Y-87847600D01*
G75*
G02*
X79708000Y-87896600I-49000J0D01*
G01*
X78808000Y-87896600D01*
G75*
G02*
X78759000Y-87847600I0J49000D01*
G01*
X78759000Y-87047600D01*
G75*
G02*
X78808000Y-86998600I49000J0D01*
G01*
X79708000Y-86998600D01*
G75*
G02*
X79757000Y-87047600I0J-49000D01*
G01*
G37*
G04 #@! TD*
G04 #@! TO.C,U600*
G36*
G01*
X96606000Y-87175000D02*
X96606000Y-86725000D01*
G75*
G02*
X96655000Y-86676000I49000J0D01*
G01*
X98105000Y-86676000D01*
G75*
G02*
X98154000Y-86725000I0J-49000D01*
G01*
X98154000Y-87175000D01*
G75*
G02*
X98105000Y-87224000I-49000J0D01*
G01*
X96655000Y-87224000D01*
G75*
G02*
X96606000Y-87175000I0J49000D01*
G01*
G37*
G36*
G01*
X96606000Y-87825000D02*
X96606000Y-87375000D01*
G75*
G02*
X96655000Y-87326000I49000J0D01*
G01*
X98105000Y-87326000D01*
G75*
G02*
X98154000Y-87375000I0J-49000D01*
G01*
X98154000Y-87825000D01*
G75*
G02*
X98105000Y-87874000I-49000J0D01*
G01*
X96655000Y-87874000D01*
G75*
G02*
X96606000Y-87825000I0J49000D01*
G01*
G37*
G36*
G01*
X96606000Y-88475000D02*
X96606000Y-88025000D01*
G75*
G02*
X96655000Y-87976000I49000J0D01*
G01*
X98105000Y-87976000D01*
G75*
G02*
X98154000Y-88025000I0J-49000D01*
G01*
X98154000Y-88475000D01*
G75*
G02*
X98105000Y-88524000I-49000J0D01*
G01*
X96655000Y-88524000D01*
G75*
G02*
X96606000Y-88475000I0J49000D01*
G01*
G37*
G36*
G01*
X96606000Y-89125000D02*
X96606000Y-88675000D01*
G75*
G02*
X96655000Y-88626000I49000J0D01*
G01*
X98105000Y-88626000D01*
G75*
G02*
X98154000Y-88675000I0J-49000D01*
G01*
X98154000Y-89125000D01*
G75*
G02*
X98105000Y-89174000I-49000J0D01*
G01*
X96655000Y-89174000D01*
G75*
G02*
X96606000Y-89125000I0J49000D01*
G01*
G37*
G36*
G01*
X96606000Y-89775000D02*
X96606000Y-89325000D01*
G75*
G02*
X96655000Y-89276000I49000J0D01*
G01*
X98105000Y-89276000D01*
G75*
G02*
X98154000Y-89325000I0J-49000D01*
G01*
X98154000Y-89775000D01*
G75*
G02*
X98105000Y-89824000I-49000J0D01*
G01*
X96655000Y-89824000D01*
G75*
G02*
X96606000Y-89775000I0J49000D01*
G01*
G37*
G36*
G01*
X96606000Y-90425000D02*
X96606000Y-89975000D01*
G75*
G02*
X96655000Y-89926000I49000J0D01*
G01*
X98105000Y-89926000D01*
G75*
G02*
X98154000Y-89975000I0J-49000D01*
G01*
X98154000Y-90425000D01*
G75*
G02*
X98105000Y-90474000I-49000J0D01*
G01*
X96655000Y-90474000D01*
G75*
G02*
X96606000Y-90425000I0J49000D01*
G01*
G37*
G36*
G01*
X96606000Y-91075000D02*
X96606000Y-90625000D01*
G75*
G02*
X96655000Y-90576000I49000J0D01*
G01*
X98105000Y-90576000D01*
G75*
G02*
X98154000Y-90625000I0J-49000D01*
G01*
X98154000Y-91075000D01*
G75*
G02*
X98105000Y-91124000I-49000J0D01*
G01*
X96655000Y-91124000D01*
G75*
G02*
X96606000Y-91075000I0J49000D01*
G01*
G37*
G36*
G01*
X102506000Y-91075000D02*
X102506000Y-90625000D01*
G75*
G02*
X102555000Y-90576000I49000J0D01*
G01*
X104005000Y-90576000D01*
G75*
G02*
X104054000Y-90625000I0J-49000D01*
G01*
X104054000Y-91075000D01*
G75*
G02*
X104005000Y-91124000I-49000J0D01*
G01*
X102555000Y-91124000D01*
G75*
G02*
X102506000Y-91075000I0J49000D01*
G01*
G37*
G36*
G01*
X102506000Y-90425000D02*
X102506000Y-89975000D01*
G75*
G02*
X102555000Y-89926000I49000J0D01*
G01*
X104005000Y-89926000D01*
G75*
G02*
X104054000Y-89975000I0J-49000D01*
G01*
X104054000Y-90425000D01*
G75*
G02*
X104005000Y-90474000I-49000J0D01*
G01*
X102555000Y-90474000D01*
G75*
G02*
X102506000Y-90425000I0J49000D01*
G01*
G37*
G36*
G01*
X102506000Y-89775000D02*
X102506000Y-89325000D01*
G75*
G02*
X102555000Y-89276000I49000J0D01*
G01*
X104005000Y-89276000D01*
G75*
G02*
X104054000Y-89325000I0J-49000D01*
G01*
X104054000Y-89775000D01*
G75*
G02*
X104005000Y-89824000I-49000J0D01*
G01*
X102555000Y-89824000D01*
G75*
G02*
X102506000Y-89775000I0J49000D01*
G01*
G37*
G36*
G01*
X102506000Y-89125000D02*
X102506000Y-88675000D01*
G75*
G02*
X102555000Y-88626000I49000J0D01*
G01*
X104005000Y-88626000D01*
G75*
G02*
X104054000Y-88675000I0J-49000D01*
G01*
X104054000Y-89125000D01*
G75*
G02*
X104005000Y-89174000I-49000J0D01*
G01*
X102555000Y-89174000D01*
G75*
G02*
X102506000Y-89125000I0J49000D01*
G01*
G37*
G36*
G01*
X102506000Y-88475000D02*
X102506000Y-88025000D01*
G75*
G02*
X102555000Y-87976000I49000J0D01*
G01*
X104005000Y-87976000D01*
G75*
G02*
X104054000Y-88025000I0J-49000D01*
G01*
X104054000Y-88475000D01*
G75*
G02*
X104005000Y-88524000I-49000J0D01*
G01*
X102555000Y-88524000D01*
G75*
G02*
X102506000Y-88475000I0J49000D01*
G01*
G37*
G36*
G01*
X102506000Y-87825000D02*
X102506000Y-87375000D01*
G75*
G02*
X102555000Y-87326000I49000J0D01*
G01*
X104005000Y-87326000D01*
G75*
G02*
X104054000Y-87375000I0J-49000D01*
G01*
X104054000Y-87825000D01*
G75*
G02*
X104005000Y-87874000I-49000J0D01*
G01*
X102555000Y-87874000D01*
G75*
G02*
X102506000Y-87825000I0J49000D01*
G01*
G37*
G36*
G01*
X102506000Y-87175000D02*
X102506000Y-86725000D01*
G75*
G02*
X102555000Y-86676000I49000J0D01*
G01*
X104005000Y-86676000D01*
G75*
G02*
X104054000Y-86725000I0J-49000D01*
G01*
X104054000Y-87175000D01*
G75*
G02*
X104005000Y-87224000I-49000J0D01*
G01*
X102555000Y-87224000D01*
G75*
G02*
X102506000Y-87175000I0J49000D01*
G01*
G37*
G04 #@! TD*
G04 #@! TO.C,C600*
G36*
G01*
X106115000Y-87951000D02*
X105721000Y-87951000D01*
G75*
G02*
X105549000Y-87779000I0J172000D01*
G01*
X105549000Y-87435000D01*
G75*
G02*
X105721000Y-87263000I172000J0D01*
G01*
X106115000Y-87263000D01*
G75*
G02*
X106287000Y-87435000I0J-172000D01*
G01*
X106287000Y-87779000D01*
G75*
G02*
X106115000Y-87951000I-172000J0D01*
G01*
G37*
G36*
G01*
X106115000Y-86981000D02*
X105721000Y-86981000D01*
G75*
G02*
X105549000Y-86809000I0J172000D01*
G01*
X105549000Y-86465000D01*
G75*
G02*
X105721000Y-86293000I172000J0D01*
G01*
X106115000Y-86293000D01*
G75*
G02*
X106287000Y-86465000I0J-172000D01*
G01*
X106287000Y-86809000D01*
G75*
G02*
X106115000Y-86981000I-172000J0D01*
G01*
G37*
G04 #@! TD*
G04 #@! TO.C,C608*
G36*
G01*
X94071000Y-82147000D02*
X94071000Y-81753000D01*
G75*
G02*
X94243000Y-81581000I172000J0D01*
G01*
X94587000Y-81581000D01*
G75*
G02*
X94759000Y-81753000I0J-172000D01*
G01*
X94759000Y-82147000D01*
G75*
G02*
X94587000Y-82319000I-172000J0D01*
G01*
X94243000Y-82319000D01*
G75*
G02*
X94071000Y-82147000I0J172000D01*
G01*
G37*
G36*
G01*
X95041000Y-82147000D02*
X95041000Y-81753000D01*
G75*
G02*
X95213000Y-81581000I172000J0D01*
G01*
X95557000Y-81581000D01*
G75*
G02*
X95729000Y-81753000I0J-172000D01*
G01*
X95729000Y-82147000D01*
G75*
G02*
X95557000Y-82319000I-172000J0D01*
G01*
X95213000Y-82319000D01*
G75*
G02*
X95041000Y-82147000I0J172000D01*
G01*
G37*
G04 #@! TD*
G04 #@! TO.C,R624*
G36*
G01*
X95729000Y-80803000D02*
X95729000Y-81197000D01*
G75*
G02*
X95557000Y-81369000I-172000J0D01*
G01*
X95213000Y-81369000D01*
G75*
G02*
X95041000Y-81197000I0J172000D01*
G01*
X95041000Y-80803000D01*
G75*
G02*
X95213000Y-80631000I172000J0D01*
G01*
X95557000Y-80631000D01*
G75*
G02*
X95729000Y-80803000I0J-172000D01*
G01*
G37*
G36*
G01*
X94759000Y-80803000D02*
X94759000Y-81197000D01*
G75*
G02*
X94587000Y-81369000I-172000J0D01*
G01*
X94243000Y-81369000D01*
G75*
G02*
X94071000Y-81197000I0J172000D01*
G01*
X94071000Y-80803000D01*
G75*
G02*
X94243000Y-80631000I172000J0D01*
G01*
X94587000Y-80631000D01*
G75*
G02*
X94759000Y-80803000I0J-172000D01*
G01*
G37*
G04 #@! TD*
G04 #@! TO.C,C611*
G36*
G01*
X94753000Y-86121000D02*
X95147000Y-86121000D01*
G75*
G02*
X95319000Y-86293000I0J-172000D01*
G01*
X95319000Y-86637000D01*
G75*
G02*
X95147000Y-86809000I-172000J0D01*
G01*
X94753000Y-86809000D01*
G75*
G02*
X94581000Y-86637000I0J172000D01*
G01*
X94581000Y-86293000D01*
G75*
G02*
X94753000Y-86121000I172000J0D01*
G01*
G37*
G36*
G01*
X94753000Y-87091000D02*
X95147000Y-87091000D01*
G75*
G02*
X95319000Y-87263000I0J-172000D01*
G01*
X95319000Y-87607000D01*
G75*
G02*
X95147000Y-87779000I-172000J0D01*
G01*
X94753000Y-87779000D01*
G75*
G02*
X94581000Y-87607000I0J172000D01*
G01*
X94581000Y-87263000D01*
G75*
G02*
X94753000Y-87091000I172000J0D01*
G01*
G37*
G04 #@! TD*
G04 #@! TO.C,R622*
G36*
G01*
X106597000Y-83629000D02*
X106203000Y-83629000D01*
G75*
G02*
X106031000Y-83457000I0J172000D01*
G01*
X106031000Y-83113000D01*
G75*
G02*
X106203000Y-82941000I172000J0D01*
G01*
X106597000Y-82941000D01*
G75*
G02*
X106769000Y-83113000I0J-172000D01*
G01*
X106769000Y-83457000D01*
G75*
G02*
X106597000Y-83629000I-172000J0D01*
G01*
G37*
G36*
G01*
X106597000Y-82659000D02*
X106203000Y-82659000D01*
G75*
G02*
X106031000Y-82487000I0J172000D01*
G01*
X106031000Y-82143000D01*
G75*
G02*
X106203000Y-81971000I172000J0D01*
G01*
X106597000Y-81971000D01*
G75*
G02*
X106769000Y-82143000I0J-172000D01*
G01*
X106769000Y-82487000D01*
G75*
G02*
X106597000Y-82659000I-172000J0D01*
G01*
G37*
G04 #@! TD*
G04 #@! TO.C,R617*
G36*
G01*
X87586000Y-81197000D02*
X87586000Y-80803000D01*
G75*
G02*
X87758000Y-80631000I172000J0D01*
G01*
X88102000Y-80631000D01*
G75*
G02*
X88274000Y-80803000I0J-172000D01*
G01*
X88274000Y-81197000D01*
G75*
G02*
X88102000Y-81369000I-172000J0D01*
G01*
X87758000Y-81369000D01*
G75*
G02*
X87586000Y-81197000I0J172000D01*
G01*
G37*
G36*
G01*
X88556000Y-81197000D02*
X88556000Y-80803000D01*
G75*
G02*
X88728000Y-80631000I172000J0D01*
G01*
X89072000Y-80631000D01*
G75*
G02*
X89244000Y-80803000I0J-172000D01*
G01*
X89244000Y-81197000D01*
G75*
G02*
X89072000Y-81369000I-172000J0D01*
G01*
X88728000Y-81369000D01*
G75*
G02*
X88556000Y-81197000I0J172000D01*
G01*
G37*
G04 #@! TD*
G04 #@! TO.C,C614*
G36*
G01*
X93553000Y-90221000D02*
X93947000Y-90221000D01*
G75*
G02*
X94119000Y-90393000I0J-172000D01*
G01*
X94119000Y-90737000D01*
G75*
G02*
X93947000Y-90909000I-172000J0D01*
G01*
X93553000Y-90909000D01*
G75*
G02*
X93381000Y-90737000I0J172000D01*
G01*
X93381000Y-90393000D01*
G75*
G02*
X93553000Y-90221000I172000J0D01*
G01*
G37*
G36*
G01*
X93553000Y-91191000D02*
X93947000Y-91191000D01*
G75*
G02*
X94119000Y-91363000I0J-172000D01*
G01*
X94119000Y-91707000D01*
G75*
G02*
X93947000Y-91879000I-172000J0D01*
G01*
X93553000Y-91879000D01*
G75*
G02*
X93381000Y-91707000I0J172000D01*
G01*
X93381000Y-91363000D01*
G75*
G02*
X93553000Y-91191000I172000J0D01*
G01*
G37*
G04 #@! TD*
G04 #@! TO.C,C615*
G36*
G01*
X84847000Y-82929000D02*
X84453000Y-82929000D01*
G75*
G02*
X84281000Y-82757000I0J172000D01*
G01*
X84281000Y-82413000D01*
G75*
G02*
X84453000Y-82241000I172000J0D01*
G01*
X84847000Y-82241000D01*
G75*
G02*
X85019000Y-82413000I0J-172000D01*
G01*
X85019000Y-82757000D01*
G75*
G02*
X84847000Y-82929000I-172000J0D01*
G01*
G37*
G36*
G01*
X84847000Y-81959000D02*
X84453000Y-81959000D01*
G75*
G02*
X84281000Y-81787000I0J172000D01*
G01*
X84281000Y-81443000D01*
G75*
G02*
X84453000Y-81271000I172000J0D01*
G01*
X84847000Y-81271000D01*
G75*
G02*
X85019000Y-81443000I0J-172000D01*
G01*
X85019000Y-81787000D01*
G75*
G02*
X84847000Y-81959000I-172000J0D01*
G01*
G37*
G04 #@! TD*
G04 #@! TO.C,Q600*
G36*
G01*
X112080000Y-81326000D02*
X113280000Y-81326000D01*
G75*
G02*
X113329000Y-81375000I0J-49000D01*
G01*
X113329000Y-83575000D01*
G75*
G02*
X113280000Y-83624000I-49000J0D01*
G01*
X112080000Y-83624000D01*
G75*
G02*
X112031000Y-83575000I0J49000D01*
G01*
X112031000Y-81375000D01*
G75*
G02*
X112080000Y-81326000I49000J0D01*
G01*
G37*
G36*
G01*
X107500000Y-85526000D02*
X113300000Y-85526000D01*
G75*
G02*
X113349000Y-85575000I0J-49000D01*
G01*
X113349000Y-91975000D01*
G75*
G02*
X113300000Y-92024000I-49000J0D01*
G01*
X107500000Y-92024000D01*
G75*
G02*
X107451000Y-91975000I0J49000D01*
G01*
X107451000Y-85575000D01*
G75*
G02*
X107500000Y-85526000I49000J0D01*
G01*
G37*
G36*
G01*
X107520000Y-81326000D02*
X108720000Y-81326000D01*
G75*
G02*
X108769000Y-81375000I0J-49000D01*
G01*
X108769000Y-83575000D01*
G75*
G02*
X108720000Y-83624000I-49000J0D01*
G01*
X107520000Y-83624000D01*
G75*
G02*
X107471000Y-83575000I0J49000D01*
G01*
X107471000Y-81375000D01*
G75*
G02*
X107520000Y-81326000I49000J0D01*
G01*
G37*
G04 #@! TD*
G04 #@! TO.C,R612*
G36*
G01*
X104706000Y-93297000D02*
X104706000Y-92903000D01*
G75*
G02*
X104878000Y-92731000I172000J0D01*
G01*
X105222000Y-92731000D01*
G75*
G02*
X105394000Y-92903000I0J-172000D01*
G01*
X105394000Y-93297000D01*
G75*
G02*
X105222000Y-93469000I-172000J0D01*
G01*
X104878000Y-93469000D01*
G75*
G02*
X104706000Y-93297000I0J172000D01*
G01*
G37*
G36*
G01*
X105676000Y-93297000D02*
X105676000Y-92903000D01*
G75*
G02*
X105848000Y-92731000I172000J0D01*
G01*
X106192000Y-92731000D01*
G75*
G02*
X106364000Y-92903000I0J-172000D01*
G01*
X106364000Y-93297000D01*
G75*
G02*
X106192000Y-93469000I-172000J0D01*
G01*
X105848000Y-93469000D01*
G75*
G02*
X105676000Y-93297000I0J172000D01*
G01*
G37*
G04 #@! TD*
G04 #@! TO.C,R618*
G36*
G01*
X95097000Y-91879000D02*
X94703000Y-91879000D01*
G75*
G02*
X94531000Y-91707000I0J172000D01*
G01*
X94531000Y-91363000D01*
G75*
G02*
X94703000Y-91191000I172000J0D01*
G01*
X95097000Y-91191000D01*
G75*
G02*
X95269000Y-91363000I0J-172000D01*
G01*
X95269000Y-91707000D01*
G75*
G02*
X95097000Y-91879000I-172000J0D01*
G01*
G37*
G36*
G01*
X95097000Y-90909000D02*
X94703000Y-90909000D01*
G75*
G02*
X94531000Y-90737000I0J172000D01*
G01*
X94531000Y-90393000D01*
G75*
G02*
X94703000Y-90221000I172000J0D01*
G01*
X95097000Y-90221000D01*
G75*
G02*
X95269000Y-90393000I0J-172000D01*
G01*
X95269000Y-90737000D01*
G75*
G02*
X95097000Y-90909000I-172000J0D01*
G01*
G37*
G04 #@! TD*
G04 #@! TO.C,R616*
G36*
G01*
X104256000Y-81547000D02*
X104256000Y-81153000D01*
G75*
G02*
X104428000Y-80981000I172000J0D01*
G01*
X104772000Y-80981000D01*
G75*
G02*
X104944000Y-81153000I0J-172000D01*
G01*
X104944000Y-81547000D01*
G75*
G02*
X104772000Y-81719000I-172000J0D01*
G01*
X104428000Y-81719000D01*
G75*
G02*
X104256000Y-81547000I0J172000D01*
G01*
G37*
G36*
G01*
X105226000Y-81547000D02*
X105226000Y-81153000D01*
G75*
G02*
X105398000Y-80981000I172000J0D01*
G01*
X105742000Y-80981000D01*
G75*
G02*
X105914000Y-81153000I0J-172000D01*
G01*
X105914000Y-81547000D01*
G75*
G02*
X105742000Y-81719000I-172000J0D01*
G01*
X105398000Y-81719000D01*
G75*
G02*
X105226000Y-81547000I0J172000D01*
G01*
G37*
G04 #@! TD*
G04 #@! TO.C,R623*
G36*
G01*
X95688000Y-89976000D02*
X96082000Y-89976000D01*
G75*
G02*
X96254000Y-90148000I0J-172000D01*
G01*
X96254000Y-90492000D01*
G75*
G02*
X96082000Y-90664000I-172000J0D01*
G01*
X95688000Y-90664000D01*
G75*
G02*
X95516000Y-90492000I0J172000D01*
G01*
X95516000Y-90148000D01*
G75*
G02*
X95688000Y-89976000I172000J0D01*
G01*
G37*
G36*
G01*
X95688000Y-90946000D02*
X96082000Y-90946000D01*
G75*
G02*
X96254000Y-91118000I0J-172000D01*
G01*
X96254000Y-91462000D01*
G75*
G02*
X96082000Y-91634000I-172000J0D01*
G01*
X95688000Y-91634000D01*
G75*
G02*
X95516000Y-91462000I0J172000D01*
G01*
X95516000Y-91118000D01*
G75*
G02*
X95688000Y-90946000I172000J0D01*
G01*
G37*
G04 #@! TD*
G04 #@! TO.C,R625*
G36*
G01*
X81921000Y-89947000D02*
X81921000Y-89553000D01*
G75*
G02*
X82093000Y-89381000I172000J0D01*
G01*
X82437000Y-89381000D01*
G75*
G02*
X82609000Y-89553000I0J-172000D01*
G01*
X82609000Y-89947000D01*
G75*
G02*
X82437000Y-90119000I-172000J0D01*
G01*
X82093000Y-90119000D01*
G75*
G02*
X81921000Y-89947000I0J172000D01*
G01*
G37*
G36*
G01*
X82891000Y-89947000D02*
X82891000Y-89553000D01*
G75*
G02*
X83063000Y-89381000I172000J0D01*
G01*
X83407000Y-89381000D01*
G75*
G02*
X83579000Y-89553000I0J-172000D01*
G01*
X83579000Y-89947000D01*
G75*
G02*
X83407000Y-90119000I-172000J0D01*
G01*
X83063000Y-90119000D01*
G75*
G02*
X82891000Y-89947000I0J172000D01*
G01*
G37*
G04 #@! TD*
G04 #@! TO.C,D601*
G36*
G01*
X91952000Y-92429250D02*
X91952000Y-92990750D01*
G75*
G02*
X91708750Y-93234000I-243250J0D01*
G01*
X91222250Y-93234000D01*
G75*
G02*
X90979000Y-92990750I0J243250D01*
G01*
X90979000Y-92429250D01*
G75*
G02*
X91222250Y-92186000I243250J0D01*
G01*
X91708750Y-92186000D01*
G75*
G02*
X91952000Y-92429250I0J-243250D01*
G01*
G37*
G36*
G01*
X90377000Y-92429250D02*
X90377000Y-92990750D01*
G75*
G02*
X90133750Y-93234000I-243250J0D01*
G01*
X89647250Y-93234000D01*
G75*
G02*
X89404000Y-92990750I0J243250D01*
G01*
X89404000Y-92429250D01*
G75*
G02*
X89647250Y-92186000I243250J0D01*
G01*
X90133750Y-92186000D01*
G75*
G02*
X90377000Y-92429250I0J-243250D01*
G01*
G37*
G04 #@! TD*
G04 #@! TO.C,R626*
G36*
G01*
X94047000Y-92513000D02*
X94047000Y-92907000D01*
G75*
G02*
X93875000Y-93079000I-172000J0D01*
G01*
X93531000Y-93079000D01*
G75*
G02*
X93359000Y-92907000I0J172000D01*
G01*
X93359000Y-92513000D01*
G75*
G02*
X93531000Y-92341000I172000J0D01*
G01*
X93875000Y-92341000D01*
G75*
G02*
X94047000Y-92513000I0J-172000D01*
G01*
G37*
G36*
G01*
X93077000Y-92513000D02*
X93077000Y-92907000D01*
G75*
G02*
X92905000Y-93079000I-172000J0D01*
G01*
X92561000Y-93079000D01*
G75*
G02*
X92389000Y-92907000I0J172000D01*
G01*
X92389000Y-92513000D01*
G75*
G02*
X92561000Y-92341000I172000J0D01*
G01*
X92905000Y-92341000D01*
G75*
G02*
X93077000Y-92513000I0J-172000D01*
G01*
G37*
G04 #@! TD*
G04 #@! TO.C,R604*
G36*
G01*
X97222000Y-85401000D02*
X97222000Y-85795000D01*
G75*
G02*
X97050000Y-85967000I-172000J0D01*
G01*
X96706000Y-85967000D01*
G75*
G02*
X96534000Y-85795000I0J172000D01*
G01*
X96534000Y-85401000D01*
G75*
G02*
X96706000Y-85229000I172000J0D01*
G01*
X97050000Y-85229000D01*
G75*
G02*
X97222000Y-85401000I0J-172000D01*
G01*
G37*
G36*
G01*
X96252000Y-85401000D02*
X96252000Y-85795000D01*
G75*
G02*
X96080000Y-85967000I-172000J0D01*
G01*
X95736000Y-85967000D01*
G75*
G02*
X95564000Y-85795000I0J172000D01*
G01*
X95564000Y-85401000D01*
G75*
G02*
X95736000Y-85229000I172000J0D01*
G01*
X96080000Y-85229000D01*
G75*
G02*
X96252000Y-85401000I0J-172000D01*
G01*
G37*
G04 #@! TD*
G04 #@! TO.C,R605*
G36*
G01*
X98609000Y-84261000D02*
X99003000Y-84261000D01*
G75*
G02*
X99175000Y-84433000I0J-172000D01*
G01*
X99175000Y-84777000D01*
G75*
G02*
X99003000Y-84949000I-172000J0D01*
G01*
X98609000Y-84949000D01*
G75*
G02*
X98437000Y-84777000I0J172000D01*
G01*
X98437000Y-84433000D01*
G75*
G02*
X98609000Y-84261000I172000J0D01*
G01*
G37*
G36*
G01*
X98609000Y-85231000D02*
X99003000Y-85231000D01*
G75*
G02*
X99175000Y-85403000I0J-172000D01*
G01*
X99175000Y-85747000D01*
G75*
G02*
X99003000Y-85919000I-172000J0D01*
G01*
X98609000Y-85919000D01*
G75*
G02*
X98437000Y-85747000I0J172000D01*
G01*
X98437000Y-85403000D01*
G75*
G02*
X98609000Y-85231000I172000J0D01*
G01*
G37*
G04 #@! TD*
G04 #@! TO.C,R608*
G36*
G01*
X97653000Y-84261000D02*
X98047000Y-84261000D01*
G75*
G02*
X98219000Y-84433000I0J-172000D01*
G01*
X98219000Y-84777000D01*
G75*
G02*
X98047000Y-84949000I-172000J0D01*
G01*
X97653000Y-84949000D01*
G75*
G02*
X97481000Y-84777000I0J172000D01*
G01*
X97481000Y-84433000D01*
G75*
G02*
X97653000Y-84261000I172000J0D01*
G01*
G37*
G36*
G01*
X97653000Y-85231000D02*
X98047000Y-85231000D01*
G75*
G02*
X98219000Y-85403000I0J-172000D01*
G01*
X98219000Y-85747000D01*
G75*
G02*
X98047000Y-85919000I-172000J0D01*
G01*
X97653000Y-85919000D01*
G75*
G02*
X97481000Y-85747000I0J172000D01*
G01*
X97481000Y-85403000D01*
G75*
G02*
X97653000Y-85231000I172000J0D01*
G01*
G37*
G04 #@! TD*
G04 #@! TO.C,C603*
G36*
G01*
X97222000Y-84385000D02*
X97222000Y-84779000D01*
G75*
G02*
X97050000Y-84951000I-172000J0D01*
G01*
X96706000Y-84951000D01*
G75*
G02*
X96534000Y-84779000I0J172000D01*
G01*
X96534000Y-84385000D01*
G75*
G02*
X96706000Y-84213000I172000J0D01*
G01*
X97050000Y-84213000D01*
G75*
G02*
X97222000Y-84385000I0J-172000D01*
G01*
G37*
G36*
G01*
X96252000Y-84385000D02*
X96252000Y-84779000D01*
G75*
G02*
X96080000Y-84951000I-172000J0D01*
G01*
X95736000Y-84951000D01*
G75*
G02*
X95564000Y-84779000I0J172000D01*
G01*
X95564000Y-84385000D01*
G75*
G02*
X95736000Y-84213000I172000J0D01*
G01*
X96080000Y-84213000D01*
G75*
G02*
X96252000Y-84385000I0J-172000D01*
G01*
G37*
G04 #@! TD*
G04 #@! TO.C,U601*
G36*
G01*
X101919000Y-82925000D02*
X101919000Y-83575000D01*
G75*
G02*
X101870000Y-83624000I-49000J0D01*
G01*
X100650000Y-83624000D01*
G75*
G02*
X100601000Y-83575000I0J49000D01*
G01*
X100601000Y-82925000D01*
G75*
G02*
X100650000Y-82876000I49000J0D01*
G01*
X101870000Y-82876000D01*
G75*
G02*
X101919000Y-82925000I0J-49000D01*
G01*
G37*
G36*
G01*
X101919000Y-81975000D02*
X101919000Y-82625000D01*
G75*
G02*
X101870000Y-82674000I-49000J0D01*
G01*
X100650000Y-82674000D01*
G75*
G02*
X100601000Y-82625000I0J49000D01*
G01*
X100601000Y-81975000D01*
G75*
G02*
X100650000Y-81926000I49000J0D01*
G01*
X101870000Y-81926000D01*
G75*
G02*
X101919000Y-81975000I0J-49000D01*
G01*
G37*
G36*
G01*
X101919000Y-81025000D02*
X101919000Y-81675000D01*
G75*
G02*
X101870000Y-81724000I-49000J0D01*
G01*
X100650000Y-81724000D01*
G75*
G02*
X100601000Y-81675000I0J49000D01*
G01*
X100601000Y-81025000D01*
G75*
G02*
X100650000Y-80976000I49000J0D01*
G01*
X101870000Y-80976000D01*
G75*
G02*
X101919000Y-81025000I0J-49000D01*
G01*
G37*
G36*
G01*
X99299000Y-81025000D02*
X99299000Y-81675000D01*
G75*
G02*
X99250000Y-81724000I-49000J0D01*
G01*
X98030000Y-81724000D01*
G75*
G02*
X97981000Y-81675000I0J49000D01*
G01*
X97981000Y-81025000D01*
G75*
G02*
X98030000Y-80976000I49000J0D01*
G01*
X99250000Y-80976000D01*
G75*
G02*
X99299000Y-81025000I0J-49000D01*
G01*
G37*
G36*
G01*
X99299000Y-82925000D02*
X99299000Y-83575000D01*
G75*
G02*
X99250000Y-83624000I-49000J0D01*
G01*
X98030000Y-83624000D01*
G75*
G02*
X97981000Y-83575000I0J49000D01*
G01*
X97981000Y-82925000D01*
G75*
G02*
X98030000Y-82876000I49000J0D01*
G01*
X99250000Y-82876000D01*
G75*
G02*
X99299000Y-82925000I0J-49000D01*
G01*
G37*
G04 #@! TD*
G04 #@! TO.C,R603*
G36*
G01*
X99625000Y-84261000D02*
X100019000Y-84261000D01*
G75*
G02*
X100191000Y-84433000I0J-172000D01*
G01*
X100191000Y-84777000D01*
G75*
G02*
X100019000Y-84949000I-172000J0D01*
G01*
X99625000Y-84949000D01*
G75*
G02*
X99453000Y-84777000I0J172000D01*
G01*
X99453000Y-84433000D01*
G75*
G02*
X99625000Y-84261000I172000J0D01*
G01*
G37*
G36*
G01*
X99625000Y-85231000D02*
X100019000Y-85231000D01*
G75*
G02*
X100191000Y-85403000I0J-172000D01*
G01*
X100191000Y-85747000D01*
G75*
G02*
X100019000Y-85919000I-172000J0D01*
G01*
X99625000Y-85919000D01*
G75*
G02*
X99453000Y-85747000I0J172000D01*
G01*
X99453000Y-85403000D01*
G75*
G02*
X99625000Y-85231000I172000J0D01*
G01*
G37*
G04 #@! TD*
G04 #@! TO.C,R613*
G36*
G01*
X102453000Y-82471000D02*
X102847000Y-82471000D01*
G75*
G02*
X103019000Y-82643000I0J-172000D01*
G01*
X103019000Y-82987000D01*
G75*
G02*
X102847000Y-83159000I-172000J0D01*
G01*
X102453000Y-83159000D01*
G75*
G02*
X102281000Y-82987000I0J172000D01*
G01*
X102281000Y-82643000D01*
G75*
G02*
X102453000Y-82471000I172000J0D01*
G01*
G37*
G36*
G01*
X102453000Y-83441000D02*
X102847000Y-83441000D01*
G75*
G02*
X103019000Y-83613000I0J-172000D01*
G01*
X103019000Y-83957000D01*
G75*
G02*
X102847000Y-84129000I-172000J0D01*
G01*
X102453000Y-84129000D01*
G75*
G02*
X102281000Y-83957000I0J172000D01*
G01*
X102281000Y-83613000D01*
G75*
G02*
X102453000Y-83441000I172000J0D01*
G01*
G37*
G04 #@! TD*
G04 #@! TO.C,C601*
G36*
G01*
X105848000Y-88198000D02*
X106242000Y-88198000D01*
G75*
G02*
X106414000Y-88370000I0J-172000D01*
G01*
X106414000Y-88714000D01*
G75*
G02*
X106242000Y-88886000I-172000J0D01*
G01*
X105848000Y-88886000D01*
G75*
G02*
X105676000Y-88714000I0J172000D01*
G01*
X105676000Y-88370000D01*
G75*
G02*
X105848000Y-88198000I172000J0D01*
G01*
G37*
G36*
G01*
X105848000Y-89168000D02*
X106242000Y-89168000D01*
G75*
G02*
X106414000Y-89340000I0J-172000D01*
G01*
X106414000Y-89684000D01*
G75*
G02*
X106242000Y-89856000I-172000J0D01*
G01*
X105848000Y-89856000D01*
G75*
G02*
X105676000Y-89684000I0J172000D01*
G01*
X105676000Y-89340000D01*
G75*
G02*
X105848000Y-89168000I172000J0D01*
G01*
G37*
G04 #@! TD*
G04 #@! TO.C,D600*
G36*
G01*
X105436750Y-84840000D02*
X104875250Y-84840000D01*
G75*
G02*
X104632000Y-84596750I0J243250D01*
G01*
X104632000Y-84110250D01*
G75*
G02*
X104875250Y-83867000I243250J0D01*
G01*
X105436750Y-83867000D01*
G75*
G02*
X105680000Y-84110250I0J-243250D01*
G01*
X105680000Y-84596750D01*
G75*
G02*
X105436750Y-84840000I-243250J0D01*
G01*
G37*
G36*
G01*
X105436750Y-83265000D02*
X104875250Y-83265000D01*
G75*
G02*
X104632000Y-83021750I0J243250D01*
G01*
X104632000Y-82535250D01*
G75*
G02*
X104875250Y-82292000I243250J0D01*
G01*
X105436750Y-82292000D01*
G75*
G02*
X105680000Y-82535250I0J-243250D01*
G01*
X105680000Y-83021750D01*
G75*
G02*
X105436750Y-83265000I-243250J0D01*
G01*
G37*
G04 #@! TD*
G04 #@! TO.C,R610*
G36*
G01*
X104706000Y-91197000D02*
X104706000Y-90803000D01*
G75*
G02*
X104878000Y-90631000I172000J0D01*
G01*
X105222000Y-90631000D01*
G75*
G02*
X105394000Y-90803000I0J-172000D01*
G01*
X105394000Y-91197000D01*
G75*
G02*
X105222000Y-91369000I-172000J0D01*
G01*
X104878000Y-91369000D01*
G75*
G02*
X104706000Y-91197000I0J172000D01*
G01*
G37*
G36*
G01*
X105676000Y-91197000D02*
X105676000Y-90803000D01*
G75*
G02*
X105848000Y-90631000I172000J0D01*
G01*
X106192000Y-90631000D01*
G75*
G02*
X106364000Y-90803000I0J-172000D01*
G01*
X106364000Y-91197000D01*
G75*
G02*
X106192000Y-91369000I-172000J0D01*
G01*
X105848000Y-91369000D01*
G75*
G02*
X105676000Y-91197000I0J172000D01*
G01*
G37*
G04 #@! TD*
G04 #@! TO.C,R611*
G36*
G01*
X106364000Y-91853000D02*
X106364000Y-92247000D01*
G75*
G02*
X106192000Y-92419000I-172000J0D01*
G01*
X105848000Y-92419000D01*
G75*
G02*
X105676000Y-92247000I0J172000D01*
G01*
X105676000Y-91853000D01*
G75*
G02*
X105848000Y-91681000I172000J0D01*
G01*
X106192000Y-91681000D01*
G75*
G02*
X106364000Y-91853000I0J-172000D01*
G01*
G37*
G36*
G01*
X105394000Y-91853000D02*
X105394000Y-92247000D01*
G75*
G02*
X105222000Y-92419000I-172000J0D01*
G01*
X104878000Y-92419000D01*
G75*
G02*
X104706000Y-92247000I0J172000D01*
G01*
X104706000Y-91853000D01*
G75*
G02*
X104878000Y-91681000I172000J0D01*
G01*
X105222000Y-91681000D01*
G75*
G02*
X105394000Y-91853000I0J-172000D01*
G01*
G37*
G04 #@! TD*
G04 #@! TO.C,D602*
G36*
G01*
X86356000Y-92990750D02*
X86356000Y-92429250D01*
G75*
G02*
X86599250Y-92186000I243250J0D01*
G01*
X87085750Y-92186000D01*
G75*
G02*
X87329000Y-92429250I0J-243250D01*
G01*
X87329000Y-92990750D01*
G75*
G02*
X87085750Y-93234000I-243250J0D01*
G01*
X86599250Y-93234000D01*
G75*
G02*
X86356000Y-92990750I0J243250D01*
G01*
G37*
G36*
G01*
X87931000Y-92990750D02*
X87931000Y-92429250D01*
G75*
G02*
X88174250Y-92186000I243250J0D01*
G01*
X88660750Y-92186000D01*
G75*
G02*
X88904000Y-92429250I0J-243250D01*
G01*
X88904000Y-92990750D01*
G75*
G02*
X88660750Y-93234000I-243250J0D01*
G01*
X88174250Y-93234000D01*
G75*
G02*
X87931000Y-92990750I0J243250D01*
G01*
G37*
G04 #@! TD*
G04 #@! TO.C,R627*
G36*
G01*
X85536000Y-94147000D02*
X85536000Y-93753000D01*
G75*
G02*
X85708000Y-93581000I172000J0D01*
G01*
X86052000Y-93581000D01*
G75*
G02*
X86224000Y-93753000I0J-172000D01*
G01*
X86224000Y-94147000D01*
G75*
G02*
X86052000Y-94319000I-172000J0D01*
G01*
X85708000Y-94319000D01*
G75*
G02*
X85536000Y-94147000I0J172000D01*
G01*
G37*
G36*
G01*
X86506000Y-94147000D02*
X86506000Y-93753000D01*
G75*
G02*
X86678000Y-93581000I172000J0D01*
G01*
X87022000Y-93581000D01*
G75*
G02*
X87194000Y-93753000I0J-172000D01*
G01*
X87194000Y-94147000D01*
G75*
G02*
X87022000Y-94319000I-172000J0D01*
G01*
X86678000Y-94319000D01*
G75*
G02*
X86506000Y-94147000I0J172000D01*
G01*
G37*
G04 #@! TD*
G04 #@! TO.C,C602*
G36*
G01*
X97629000Y-83403000D02*
X97629000Y-83797000D01*
G75*
G02*
X97457000Y-83969000I-172000J0D01*
G01*
X97113000Y-83969000D01*
G75*
G02*
X96941000Y-83797000I0J172000D01*
G01*
X96941000Y-83403000D01*
G75*
G02*
X97113000Y-83231000I172000J0D01*
G01*
X97457000Y-83231000D01*
G75*
G02*
X97629000Y-83403000I0J-172000D01*
G01*
G37*
G36*
G01*
X96659000Y-83403000D02*
X96659000Y-83797000D01*
G75*
G02*
X96487000Y-83969000I-172000J0D01*
G01*
X96143000Y-83969000D01*
G75*
G02*
X95971000Y-83797000I0J172000D01*
G01*
X95971000Y-83403000D01*
G75*
G02*
X96143000Y-83231000I172000J0D01*
G01*
X96487000Y-83231000D01*
G75*
G02*
X96659000Y-83403000I0J-172000D01*
G01*
G37*
G04 #@! TD*
G04 #@! TO.C,U602*
G36*
G01*
X94224000Y-89400500D02*
X94224000Y-89699500D01*
G75*
G02*
X94074500Y-89849000I-149500J0D01*
G01*
X92775500Y-89849000D01*
G75*
G02*
X92626000Y-89699500I0J149500D01*
G01*
X92626000Y-89400500D01*
G75*
G02*
X92775500Y-89251000I149500J0D01*
G01*
X94074500Y-89251000D01*
G75*
G02*
X94224000Y-89400500I0J-149500D01*
G01*
G37*
G36*
G01*
X94224000Y-88600500D02*
X94224000Y-88899500D01*
G75*
G02*
X94074500Y-89049000I-149500J0D01*
G01*
X92775500Y-89049000D01*
G75*
G02*
X92626000Y-88899500I0J149500D01*
G01*
X92626000Y-88600500D01*
G75*
G02*
X92775500Y-88451000I149500J0D01*
G01*
X94074500Y-88451000D01*
G75*
G02*
X94224000Y-88600500I0J-149500D01*
G01*
G37*
G36*
G01*
X94224000Y-87800500D02*
X94224000Y-88099500D01*
G75*
G02*
X94074500Y-88249000I-149500J0D01*
G01*
X92775500Y-88249000D01*
G75*
G02*
X92626000Y-88099500I0J149500D01*
G01*
X92626000Y-87800500D01*
G75*
G02*
X92775500Y-87651000I149500J0D01*
G01*
X94074500Y-87651000D01*
G75*
G02*
X94224000Y-87800500I0J-149500D01*
G01*
G37*
G36*
G01*
X94224000Y-87000500D02*
X94224000Y-87299500D01*
G75*
G02*
X94074500Y-87449000I-149500J0D01*
G01*
X92775500Y-87449000D01*
G75*
G02*
X92626000Y-87299500I0J149500D01*
G01*
X92626000Y-87000500D01*
G75*
G02*
X92775500Y-86851000I149500J0D01*
G01*
X94074500Y-86851000D01*
G75*
G02*
X94224000Y-87000500I0J-149500D01*
G01*
G37*
G36*
G01*
X94224000Y-86200500D02*
X94224000Y-86499500D01*
G75*
G02*
X94074500Y-86649000I-149500J0D01*
G01*
X92775500Y-86649000D01*
G75*
G02*
X92626000Y-86499500I0J149500D01*
G01*
X92626000Y-86200500D01*
G75*
G02*
X92775500Y-86051000I149500J0D01*
G01*
X94074500Y-86051000D01*
G75*
G02*
X94224000Y-86200500I0J-149500D01*
G01*
G37*
G36*
G01*
X94224000Y-85400500D02*
X94224000Y-85699500D01*
G75*
G02*
X94074500Y-85849000I-149500J0D01*
G01*
X92775500Y-85849000D01*
G75*
G02*
X92626000Y-85699500I0J149500D01*
G01*
X92626000Y-85400500D01*
G75*
G02*
X92775500Y-85251000I149500J0D01*
G01*
X94074500Y-85251000D01*
G75*
G02*
X94224000Y-85400500I0J-149500D01*
G01*
G37*
G36*
G01*
X94224000Y-84600500D02*
X94224000Y-84899500D01*
G75*
G02*
X94074500Y-85049000I-149500J0D01*
G01*
X92775500Y-85049000D01*
G75*
G02*
X92626000Y-84899500I0J149500D01*
G01*
X92626000Y-84600500D01*
G75*
G02*
X92775500Y-84451000I149500J0D01*
G01*
X94074500Y-84451000D01*
G75*
G02*
X94224000Y-84600500I0J-149500D01*
G01*
G37*
G36*
G01*
X94224000Y-83800500D02*
X94224000Y-84099500D01*
G75*
G02*
X94074500Y-84249000I-149500J0D01*
G01*
X92775500Y-84249000D01*
G75*
G02*
X92626000Y-84099500I0J149500D01*
G01*
X92626000Y-83800500D01*
G75*
G02*
X92775500Y-83651000I149500J0D01*
G01*
X94074500Y-83651000D01*
G75*
G02*
X94224000Y-83800500I0J-149500D01*
G01*
G37*
G36*
G01*
X92349000Y-81925500D02*
X92349000Y-83224500D01*
G75*
G02*
X92199500Y-83374000I-149500J0D01*
G01*
X91900500Y-83374000D01*
G75*
G02*
X91751000Y-83224500I0J149500D01*
G01*
X91751000Y-81925500D01*
G75*
G02*
X91900500Y-81776000I149500J0D01*
G01*
X92199500Y-81776000D01*
G75*
G02*
X92349000Y-81925500I0J-149500D01*
G01*
G37*
G36*
G01*
X91549000Y-81925500D02*
X91549000Y-83224500D01*
G75*
G02*
X91399500Y-83374000I-149500J0D01*
G01*
X91100500Y-83374000D01*
G75*
G02*
X90951000Y-83224500I0J149500D01*
G01*
X90951000Y-81925500D01*
G75*
G02*
X91100500Y-81776000I149500J0D01*
G01*
X91399500Y-81776000D01*
G75*
G02*
X91549000Y-81925500I0J-149500D01*
G01*
G37*
G36*
G01*
X90749000Y-81925500D02*
X90749000Y-83224500D01*
G75*
G02*
X90599500Y-83374000I-149500J0D01*
G01*
X90300500Y-83374000D01*
G75*
G02*
X90151000Y-83224500I0J149500D01*
G01*
X90151000Y-81925500D01*
G75*
G02*
X90300500Y-81776000I149500J0D01*
G01*
X90599500Y-81776000D01*
G75*
G02*
X90749000Y-81925500I0J-149500D01*
G01*
G37*
G36*
G01*
X89949000Y-81925500D02*
X89949000Y-83224500D01*
G75*
G02*
X89799500Y-83374000I-149500J0D01*
G01*
X89500500Y-83374000D01*
G75*
G02*
X89351000Y-83224500I0J149500D01*
G01*
X89351000Y-81925500D01*
G75*
G02*
X89500500Y-81776000I149500J0D01*
G01*
X89799500Y-81776000D01*
G75*
G02*
X89949000Y-81925500I0J-149500D01*
G01*
G37*
G36*
G01*
X89149000Y-81925500D02*
X89149000Y-83224500D01*
G75*
G02*
X88999500Y-83374000I-149500J0D01*
G01*
X88700500Y-83374000D01*
G75*
G02*
X88551000Y-83224500I0J149500D01*
G01*
X88551000Y-81925500D01*
G75*
G02*
X88700500Y-81776000I149500J0D01*
G01*
X88999500Y-81776000D01*
G75*
G02*
X89149000Y-81925500I0J-149500D01*
G01*
G37*
G36*
G01*
X88349000Y-81925500D02*
X88349000Y-83224500D01*
G75*
G02*
X88199500Y-83374000I-149500J0D01*
G01*
X87900500Y-83374000D01*
G75*
G02*
X87751000Y-83224500I0J149500D01*
G01*
X87751000Y-81925500D01*
G75*
G02*
X87900500Y-81776000I149500J0D01*
G01*
X88199500Y-81776000D01*
G75*
G02*
X88349000Y-81925500I0J-149500D01*
G01*
G37*
G36*
G01*
X87549000Y-81925500D02*
X87549000Y-83224500D01*
G75*
G02*
X87399500Y-83374000I-149500J0D01*
G01*
X87100500Y-83374000D01*
G75*
G02*
X86951000Y-83224500I0J149500D01*
G01*
X86951000Y-81925500D01*
G75*
G02*
X87100500Y-81776000I149500J0D01*
G01*
X87399500Y-81776000D01*
G75*
G02*
X87549000Y-81925500I0J-149500D01*
G01*
G37*
G36*
G01*
X86749000Y-81925500D02*
X86749000Y-83224500D01*
G75*
G02*
X86599500Y-83374000I-149500J0D01*
G01*
X86300500Y-83374000D01*
G75*
G02*
X86151000Y-83224500I0J149500D01*
G01*
X86151000Y-81925500D01*
G75*
G02*
X86300500Y-81776000I149500J0D01*
G01*
X86599500Y-81776000D01*
G75*
G02*
X86749000Y-81925500I0J-149500D01*
G01*
G37*
G36*
G01*
X85874000Y-83800500D02*
X85874000Y-84099500D01*
G75*
G02*
X85724500Y-84249000I-149500J0D01*
G01*
X84425500Y-84249000D01*
G75*
G02*
X84276000Y-84099500I0J149500D01*
G01*
X84276000Y-83800500D01*
G75*
G02*
X84425500Y-83651000I149500J0D01*
G01*
X85724500Y-83651000D01*
G75*
G02*
X85874000Y-83800500I0J-149500D01*
G01*
G37*
G36*
G01*
X85874000Y-84600500D02*
X85874000Y-84899500D01*
G75*
G02*
X85724500Y-85049000I-149500J0D01*
G01*
X84425500Y-85049000D01*
G75*
G02*
X84276000Y-84899500I0J149500D01*
G01*
X84276000Y-84600500D01*
G75*
G02*
X84425500Y-84451000I149500J0D01*
G01*
X85724500Y-84451000D01*
G75*
G02*
X85874000Y-84600500I0J-149500D01*
G01*
G37*
G36*
G01*
X85874000Y-85400500D02*
X85874000Y-85699500D01*
G75*
G02*
X85724500Y-85849000I-149500J0D01*
G01*
X84425500Y-85849000D01*
G75*
G02*
X84276000Y-85699500I0J149500D01*
G01*
X84276000Y-85400500D01*
G75*
G02*
X84425500Y-85251000I149500J0D01*
G01*
X85724500Y-85251000D01*
G75*
G02*
X85874000Y-85400500I0J-149500D01*
G01*
G37*
G36*
G01*
X85874000Y-86200500D02*
X85874000Y-86499500D01*
G75*
G02*
X85724500Y-86649000I-149500J0D01*
G01*
X84425500Y-86649000D01*
G75*
G02*
X84276000Y-86499500I0J149500D01*
G01*
X84276000Y-86200500D01*
G75*
G02*
X84425500Y-86051000I149500J0D01*
G01*
X85724500Y-86051000D01*
G75*
G02*
X85874000Y-86200500I0J-149500D01*
G01*
G37*
G36*
G01*
X85874000Y-87000500D02*
X85874000Y-87299500D01*
G75*
G02*
X85724500Y-87449000I-149500J0D01*
G01*
X84425500Y-87449000D01*
G75*
G02*
X84276000Y-87299500I0J149500D01*
G01*
X84276000Y-87000500D01*
G75*
G02*
X84425500Y-86851000I149500J0D01*
G01*
X85724500Y-86851000D01*
G75*
G02*
X85874000Y-87000500I0J-149500D01*
G01*
G37*
G36*
G01*
X85874000Y-87800500D02*
X85874000Y-88099500D01*
G75*
G02*
X85724500Y-88249000I-149500J0D01*
G01*
X84425500Y-88249000D01*
G75*
G02*
X84276000Y-88099500I0J149500D01*
G01*
X84276000Y-87800500D01*
G75*
G02*
X84425500Y-87651000I149500J0D01*
G01*
X85724500Y-87651000D01*
G75*
G02*
X85874000Y-87800500I0J-149500D01*
G01*
G37*
G36*
G01*
X85874000Y-88600500D02*
X85874000Y-88899500D01*
G75*
G02*
X85724500Y-89049000I-149500J0D01*
G01*
X84425500Y-89049000D01*
G75*
G02*
X84276000Y-88899500I0J149500D01*
G01*
X84276000Y-88600500D01*
G75*
G02*
X84425500Y-88451000I149500J0D01*
G01*
X85724500Y-88451000D01*
G75*
G02*
X85874000Y-88600500I0J-149500D01*
G01*
G37*
G36*
G01*
X85874000Y-89400500D02*
X85874000Y-89699500D01*
G75*
G02*
X85724500Y-89849000I-149500J0D01*
G01*
X84425500Y-89849000D01*
G75*
G02*
X84276000Y-89699500I0J149500D01*
G01*
X84276000Y-89400500D01*
G75*
G02*
X84425500Y-89251000I149500J0D01*
G01*
X85724500Y-89251000D01*
G75*
G02*
X85874000Y-89400500I0J-149500D01*
G01*
G37*
G36*
G01*
X86749000Y-90275500D02*
X86749000Y-91574500D01*
G75*
G02*
X86599500Y-91724000I-149500J0D01*
G01*
X86300500Y-91724000D01*
G75*
G02*
X86151000Y-91574500I0J149500D01*
G01*
X86151000Y-90275500D01*
G75*
G02*
X86300500Y-90126000I149500J0D01*
G01*
X86599500Y-90126000D01*
G75*
G02*
X86749000Y-90275500I0J-149500D01*
G01*
G37*
G36*
G01*
X87549000Y-90275500D02*
X87549000Y-91574500D01*
G75*
G02*
X87399500Y-91724000I-149500J0D01*
G01*
X87100500Y-91724000D01*
G75*
G02*
X86951000Y-91574500I0J149500D01*
G01*
X86951000Y-90275500D01*
G75*
G02*
X87100500Y-90126000I149500J0D01*
G01*
X87399500Y-90126000D01*
G75*
G02*
X87549000Y-90275500I0J-149500D01*
G01*
G37*
G36*
G01*
X88349000Y-90275500D02*
X88349000Y-91574500D01*
G75*
G02*
X88199500Y-91724000I-149500J0D01*
G01*
X87900500Y-91724000D01*
G75*
G02*
X87751000Y-91574500I0J149500D01*
G01*
X87751000Y-90275500D01*
G75*
G02*
X87900500Y-90126000I149500J0D01*
G01*
X88199500Y-90126000D01*
G75*
G02*
X88349000Y-90275500I0J-149500D01*
G01*
G37*
G36*
G01*
X89149000Y-90275500D02*
X89149000Y-91574500D01*
G75*
G02*
X88999500Y-91724000I-149500J0D01*
G01*
X88700500Y-91724000D01*
G75*
G02*
X88551000Y-91574500I0J149500D01*
G01*
X88551000Y-90275500D01*
G75*
G02*
X88700500Y-90126000I149500J0D01*
G01*
X88999500Y-90126000D01*
G75*
G02*
X89149000Y-90275500I0J-149500D01*
G01*
G37*
G36*
G01*
X89949000Y-90275500D02*
X89949000Y-91574500D01*
G75*
G02*
X89799500Y-91724000I-149500J0D01*
G01*
X89500500Y-91724000D01*
G75*
G02*
X89351000Y-91574500I0J149500D01*
G01*
X89351000Y-90275500D01*
G75*
G02*
X89500500Y-90126000I149500J0D01*
G01*
X89799500Y-90126000D01*
G75*
G02*
X89949000Y-90275500I0J-149500D01*
G01*
G37*
G36*
G01*
X90749000Y-90275500D02*
X90749000Y-91574500D01*
G75*
G02*
X90599500Y-91724000I-149500J0D01*
G01*
X90300500Y-91724000D01*
G75*
G02*
X90151000Y-91574500I0J149500D01*
G01*
X90151000Y-90275500D01*
G75*
G02*
X90300500Y-90126000I149500J0D01*
G01*
X90599500Y-90126000D01*
G75*
G02*
X90749000Y-90275500I0J-149500D01*
G01*
G37*
G36*
G01*
X91549000Y-90275500D02*
X91549000Y-91574500D01*
G75*
G02*
X91399500Y-91724000I-149500J0D01*
G01*
X91100500Y-91724000D01*
G75*
G02*
X90951000Y-91574500I0J149500D01*
G01*
X90951000Y-90275500D01*
G75*
G02*
X91100500Y-90126000I149500J0D01*
G01*
X91399500Y-90126000D01*
G75*
G02*
X91549000Y-90275500I0J-149500D01*
G01*
G37*
G36*
G01*
X92349000Y-90275500D02*
X92349000Y-91574500D01*
G75*
G02*
X92199500Y-91724000I-149500J0D01*
G01*
X91900500Y-91724000D01*
G75*
G02*
X91751000Y-91574500I0J149500D01*
G01*
X91751000Y-90275500D01*
G75*
G02*
X91900500Y-90126000I149500J0D01*
G01*
X92199500Y-90126000D01*
G75*
G02*
X92349000Y-90275500I0J-149500D01*
G01*
G37*
G04 #@! TD*
G04 #@! TO.C,R602*
G36*
G01*
X94071000Y-83097000D02*
X94071000Y-82703000D01*
G75*
G02*
X94243000Y-82531000I172000J0D01*
G01*
X94587000Y-82531000D01*
G75*
G02*
X94759000Y-82703000I0J-172000D01*
G01*
X94759000Y-83097000D01*
G75*
G02*
X94587000Y-83269000I-172000J0D01*
G01*
X94243000Y-83269000D01*
G75*
G02*
X94071000Y-83097000I0J172000D01*
G01*
G37*
G36*
G01*
X95041000Y-83097000D02*
X95041000Y-82703000D01*
G75*
G02*
X95213000Y-82531000I172000J0D01*
G01*
X95557000Y-82531000D01*
G75*
G02*
X95729000Y-82703000I0J-172000D01*
G01*
X95729000Y-83097000D01*
G75*
G02*
X95557000Y-83269000I-172000J0D01*
G01*
X95213000Y-83269000D01*
G75*
G02*
X95041000Y-83097000I0J172000D01*
G01*
G37*
G04 #@! TD*
G04 #@! TO.C,C604*
G36*
G01*
X97629000Y-82403000D02*
X97629000Y-82797000D01*
G75*
G02*
X97457000Y-82969000I-172000J0D01*
G01*
X97113000Y-82969000D01*
G75*
G02*
X96941000Y-82797000I0J172000D01*
G01*
X96941000Y-82403000D01*
G75*
G02*
X97113000Y-82231000I172000J0D01*
G01*
X97457000Y-82231000D01*
G75*
G02*
X97629000Y-82403000I0J-172000D01*
G01*
G37*
G36*
G01*
X96659000Y-82403000D02*
X96659000Y-82797000D01*
G75*
G02*
X96487000Y-82969000I-172000J0D01*
G01*
X96143000Y-82969000D01*
G75*
G02*
X95971000Y-82797000I0J172000D01*
G01*
X95971000Y-82403000D01*
G75*
G02*
X96143000Y-82231000I172000J0D01*
G01*
X96487000Y-82231000D01*
G75*
G02*
X96659000Y-82403000I0J-172000D01*
G01*
G37*
G04 #@! TD*
G04 #@! TO.C,C606*
G36*
G01*
X96229000Y-88803000D02*
X96229000Y-89197000D01*
G75*
G02*
X96057000Y-89369000I-172000J0D01*
G01*
X95713000Y-89369000D01*
G75*
G02*
X95541000Y-89197000I0J172000D01*
G01*
X95541000Y-88803000D01*
G75*
G02*
X95713000Y-88631000I172000J0D01*
G01*
X96057000Y-88631000D01*
G75*
G02*
X96229000Y-88803000I0J-172000D01*
G01*
G37*
G36*
G01*
X95259000Y-88803000D02*
X95259000Y-89197000D01*
G75*
G02*
X95087000Y-89369000I-172000J0D01*
G01*
X94743000Y-89369000D01*
G75*
G02*
X94571000Y-89197000I0J172000D01*
G01*
X94571000Y-88803000D01*
G75*
G02*
X94743000Y-88631000I172000J0D01*
G01*
X95087000Y-88631000D01*
G75*
G02*
X95259000Y-88803000I0J-172000D01*
G01*
G37*
G04 #@! TD*
G04 #@! TO.C,R628*
G36*
G01*
X82745550Y-84161050D02*
X83139550Y-84161050D01*
G75*
G02*
X83311550Y-84333050I0J-172000D01*
G01*
X83311550Y-84677050D01*
G75*
G02*
X83139550Y-84849050I-172000J0D01*
G01*
X82745550Y-84849050D01*
G75*
G02*
X82573550Y-84677050I0J172000D01*
G01*
X82573550Y-84333050D01*
G75*
G02*
X82745550Y-84161050I172000J0D01*
G01*
G37*
G36*
G01*
X82745550Y-85131050D02*
X83139550Y-85131050D01*
G75*
G02*
X83311550Y-85303050I0J-172000D01*
G01*
X83311550Y-85647050D01*
G75*
G02*
X83139550Y-85819050I-172000J0D01*
G01*
X82745550Y-85819050D01*
G75*
G02*
X82573550Y-85647050I0J172000D01*
G01*
X82573550Y-85303050D01*
G75*
G02*
X82745550Y-85131050I172000J0D01*
G01*
G37*
G04 #@! TD*
G04 #@! TO.C,C609*
G36*
G01*
X85103000Y-90856000D02*
X85497000Y-90856000D01*
G75*
G02*
X85669000Y-91028000I0J-172000D01*
G01*
X85669000Y-91372000D01*
G75*
G02*
X85497000Y-91544000I-172000J0D01*
G01*
X85103000Y-91544000D01*
G75*
G02*
X84931000Y-91372000I0J172000D01*
G01*
X84931000Y-91028000D01*
G75*
G02*
X85103000Y-90856000I172000J0D01*
G01*
G37*
G36*
G01*
X85103000Y-91826000D02*
X85497000Y-91826000D01*
G75*
G02*
X85669000Y-91998000I0J-172000D01*
G01*
X85669000Y-92342000D01*
G75*
G02*
X85497000Y-92514000I-172000J0D01*
G01*
X85103000Y-92514000D01*
G75*
G02*
X84931000Y-92342000I0J172000D01*
G01*
X84931000Y-91998000D01*
G75*
G02*
X85103000Y-91826000I172000J0D01*
G01*
G37*
G04 #@! TD*
G04 #@! TO.C,C610*
G36*
G01*
X79048000Y-85257000D02*
X79048000Y-84863000D01*
G75*
G02*
X79220000Y-84691000I172000J0D01*
G01*
X79564000Y-84691000D01*
G75*
G02*
X79736000Y-84863000I0J-172000D01*
G01*
X79736000Y-85257000D01*
G75*
G02*
X79564000Y-85429000I-172000J0D01*
G01*
X79220000Y-85429000D01*
G75*
G02*
X79048000Y-85257000I0J172000D01*
G01*
G37*
G36*
G01*
X80018000Y-85257000D02*
X80018000Y-84863000D01*
G75*
G02*
X80190000Y-84691000I172000J0D01*
G01*
X80534000Y-84691000D01*
G75*
G02*
X80706000Y-84863000I0J-172000D01*
G01*
X80706000Y-85257000D01*
G75*
G02*
X80534000Y-85429000I-172000J0D01*
G01*
X80190000Y-85429000D01*
G75*
G02*
X80018000Y-85257000I0J172000D01*
G01*
G37*
G04 #@! TD*
G04 #@! TO.C,U603*
G36*
G01*
X79835000Y-84273000D02*
X79035000Y-84273000D01*
G75*
G02*
X78986000Y-84224000I0J49000D01*
G01*
X78986000Y-83324000D01*
G75*
G02*
X79035000Y-83275000I49000J0D01*
G01*
X79835000Y-83275000D01*
G75*
G02*
X79884000Y-83324000I0J-49000D01*
G01*
X79884000Y-84224000D01*
G75*
G02*
X79835000Y-84273000I-49000J0D01*
G01*
G37*
G36*
G01*
X81735000Y-84273000D02*
X80935000Y-84273000D01*
G75*
G02*
X80886000Y-84224000I0J49000D01*
G01*
X80886000Y-83324000D01*
G75*
G02*
X80935000Y-83275000I49000J0D01*
G01*
X81735000Y-83275000D01*
G75*
G02*
X81784000Y-83324000I0J-49000D01*
G01*
X81784000Y-84224000D01*
G75*
G02*
X81735000Y-84273000I-49000J0D01*
G01*
G37*
G36*
G01*
X80785000Y-82273000D02*
X79985000Y-82273000D01*
G75*
G02*
X79936000Y-82224000I0J49000D01*
G01*
X79936000Y-81324000D01*
G75*
G02*
X79985000Y-81275000I49000J0D01*
G01*
X80785000Y-81275000D01*
G75*
G02*
X80834000Y-81324000I0J-49000D01*
G01*
X80834000Y-82224000D01*
G75*
G02*
X80785000Y-82273000I-49000J0D01*
G01*
G37*
G04 #@! TD*
G04 #@! TO.C,R600*
G36*
G01*
X105226000Y-89856000D02*
X104832000Y-89856000D01*
G75*
G02*
X104660000Y-89684000I0J172000D01*
G01*
X104660000Y-89340000D01*
G75*
G02*
X104832000Y-89168000I172000J0D01*
G01*
X105226000Y-89168000D01*
G75*
G02*
X105398000Y-89340000I0J-172000D01*
G01*
X105398000Y-89684000D01*
G75*
G02*
X105226000Y-89856000I-172000J0D01*
G01*
G37*
G36*
G01*
X105226000Y-88886000D02*
X104832000Y-88886000D01*
G75*
G02*
X104660000Y-88714000I0J172000D01*
G01*
X104660000Y-88370000D01*
G75*
G02*
X104832000Y-88198000I172000J0D01*
G01*
X105226000Y-88198000D01*
G75*
G02*
X105398000Y-88370000I0J-172000D01*
G01*
X105398000Y-88714000D01*
G75*
G02*
X105226000Y-88886000I-172000J0D01*
G01*
G37*
G04 #@! TD*
G04 #@! TO.C,D603*
G36*
G01*
X82736800Y-81206050D02*
X83298300Y-81206050D01*
G75*
G02*
X83541550Y-81449300I0J-243250D01*
G01*
X83541550Y-81935800D01*
G75*
G02*
X83298300Y-82179050I-243250J0D01*
G01*
X82736800Y-82179050D01*
G75*
G02*
X82493550Y-81935800I0J243250D01*
G01*
X82493550Y-81449300D01*
G75*
G02*
X82736800Y-81206050I243250J0D01*
G01*
G37*
G36*
G01*
X82736800Y-82781050D02*
X83298300Y-82781050D01*
G75*
G02*
X83541550Y-83024300I0J-243250D01*
G01*
X83541550Y-83510800D01*
G75*
G02*
X83298300Y-83754050I-243250J0D01*
G01*
X82736800Y-83754050D01*
G75*
G02*
X82493550Y-83510800I0J243250D01*
G01*
X82493550Y-83024300D01*
G75*
G02*
X82736800Y-82781050I243250J0D01*
G01*
G37*
G04 #@! TD*
D10*
G04 #@! TO.C,J600*
X78760000Y-92300000D03*
X83840000Y-93316000D03*
X83840000Y-91284000D03*
D11*
X80030000Y-92935000D03*
X80030000Y-91665000D03*
X81300000Y-92935000D03*
X81300000Y-91665000D03*
X82570000Y-92935000D03*
X82570000Y-91665000D03*
G04 #@! TD*
G36*
X102525637Y-90460774D02*
G01*
X102537028Y-90468385D01*
X102555199Y-90472000D01*
X104004801Y-90472000D01*
X104022972Y-90468385D01*
X104034363Y-90460774D01*
X104036359Y-90460643D01*
X104037470Y-90462306D01*
X104037137Y-90463548D01*
X104032631Y-90470291D01*
X104016106Y-90528885D01*
X104032608Y-90579675D01*
X104037137Y-90586452D01*
X104037268Y-90588448D01*
X104035605Y-90589559D01*
X104034363Y-90589226D01*
X104022972Y-90581615D01*
X104004801Y-90578000D01*
X102555199Y-90578000D01*
X102537028Y-90581615D01*
X102525637Y-90589226D01*
X102523641Y-90589357D01*
X102522530Y-90587694D01*
X102522863Y-90586452D01*
X102527369Y-90579709D01*
X102543894Y-90521115D01*
X102527392Y-90470325D01*
X102522863Y-90463548D01*
X102522732Y-90461552D01*
X102524395Y-90460441D01*
X102525637Y-90460774D01*
G37*
G36*
X96625637Y-90460774D02*
G01*
X96637028Y-90468385D01*
X96655199Y-90472000D01*
X98104801Y-90472000D01*
X98122972Y-90468385D01*
X98134363Y-90460774D01*
X98136359Y-90460643D01*
X98137470Y-90462306D01*
X98137137Y-90463548D01*
X98132631Y-90470291D01*
X98116106Y-90528885D01*
X98132608Y-90579675D01*
X98137137Y-90586452D01*
X98137268Y-90588448D01*
X98135605Y-90589559D01*
X98134363Y-90589226D01*
X98122972Y-90581615D01*
X98104801Y-90578000D01*
X96655199Y-90578000D01*
X96637028Y-90581615D01*
X96625637Y-90589226D01*
X96623641Y-90589357D01*
X96622530Y-90587694D01*
X96622863Y-90586452D01*
X96627369Y-90579709D01*
X96643894Y-90521115D01*
X96627392Y-90470325D01*
X96622863Y-90463548D01*
X96622732Y-90461552D01*
X96624395Y-90460441D01*
X96625637Y-90460774D01*
G37*
G36*
X102525637Y-89810774D02*
G01*
X102537028Y-89818385D01*
X102555199Y-89822000D01*
X104004801Y-89822000D01*
X104022972Y-89818385D01*
X104034363Y-89810774D01*
X104036359Y-89810643D01*
X104037470Y-89812306D01*
X104037137Y-89813548D01*
X104032631Y-89820291D01*
X104016106Y-89878885D01*
X104032608Y-89929675D01*
X104037137Y-89936452D01*
X104037268Y-89938448D01*
X104035605Y-89939559D01*
X104034363Y-89939226D01*
X104022972Y-89931615D01*
X104004801Y-89928000D01*
X102555199Y-89928000D01*
X102537028Y-89931615D01*
X102525637Y-89939226D01*
X102523641Y-89939357D01*
X102522530Y-89937694D01*
X102522863Y-89936452D01*
X102527369Y-89929709D01*
X102543894Y-89871115D01*
X102527392Y-89820325D01*
X102522863Y-89813548D01*
X102522732Y-89811552D01*
X102524395Y-89810441D01*
X102525637Y-89810774D01*
G37*
G36*
X96625637Y-89810774D02*
G01*
X96637028Y-89818385D01*
X96655199Y-89822000D01*
X98104801Y-89822000D01*
X98122972Y-89818385D01*
X98134363Y-89810774D01*
X98136359Y-89810643D01*
X98137470Y-89812306D01*
X98137137Y-89813548D01*
X98132631Y-89820291D01*
X98116106Y-89878885D01*
X98132608Y-89929675D01*
X98137137Y-89936452D01*
X98137268Y-89938448D01*
X98135605Y-89939559D01*
X98134363Y-89939226D01*
X98122972Y-89931615D01*
X98104801Y-89928000D01*
X96655199Y-89928000D01*
X96637028Y-89931615D01*
X96625637Y-89939226D01*
X96623641Y-89939357D01*
X96622530Y-89937694D01*
X96622863Y-89936452D01*
X96627369Y-89929709D01*
X96643894Y-89871115D01*
X96627392Y-89820325D01*
X96622863Y-89813548D01*
X96622732Y-89811552D01*
X96624395Y-89810441D01*
X96625637Y-89810774D01*
G37*
G36*
X96625637Y-89160774D02*
G01*
X96637028Y-89168385D01*
X96655199Y-89172000D01*
X98104801Y-89172000D01*
X98122972Y-89168385D01*
X98134363Y-89160774D01*
X98136359Y-89160643D01*
X98137470Y-89162306D01*
X98137137Y-89163548D01*
X98132631Y-89170291D01*
X98116106Y-89228885D01*
X98132608Y-89279675D01*
X98137137Y-89286452D01*
X98137268Y-89288448D01*
X98135605Y-89289559D01*
X98134363Y-89289226D01*
X98122972Y-89281615D01*
X98104801Y-89278000D01*
X96655199Y-89278000D01*
X96637028Y-89281615D01*
X96625637Y-89289226D01*
X96623641Y-89289357D01*
X96622530Y-89287694D01*
X96622863Y-89286452D01*
X96627369Y-89279709D01*
X96643894Y-89221115D01*
X96627392Y-89170325D01*
X96622863Y-89163548D01*
X96622732Y-89161552D01*
X96624395Y-89160441D01*
X96625637Y-89160774D01*
G37*
G36*
X102525637Y-89160774D02*
G01*
X102537028Y-89168385D01*
X102555199Y-89172000D01*
X104004801Y-89172000D01*
X104022972Y-89168385D01*
X104034363Y-89160774D01*
X104036359Y-89160643D01*
X104037470Y-89162306D01*
X104037137Y-89163548D01*
X104032631Y-89170291D01*
X104016106Y-89228885D01*
X104032608Y-89279675D01*
X104037137Y-89286452D01*
X104037268Y-89288448D01*
X104035605Y-89289559D01*
X104034363Y-89289226D01*
X104022972Y-89281615D01*
X104004801Y-89278000D01*
X102555199Y-89278000D01*
X102537028Y-89281615D01*
X102525637Y-89289226D01*
X102523641Y-89289357D01*
X102522530Y-89287694D01*
X102522863Y-89286452D01*
X102527369Y-89279709D01*
X102543894Y-89221115D01*
X102527392Y-89170325D01*
X102522863Y-89163548D01*
X102522732Y-89161552D01*
X102524395Y-89160441D01*
X102525637Y-89160774D01*
G37*
G36*
X102525637Y-88510774D02*
G01*
X102537028Y-88518385D01*
X102555199Y-88522000D01*
X104004801Y-88522000D01*
X104022972Y-88518385D01*
X104034363Y-88510774D01*
X104036359Y-88510643D01*
X104037470Y-88512306D01*
X104037137Y-88513548D01*
X104032631Y-88520291D01*
X104016106Y-88578885D01*
X104032608Y-88629675D01*
X104037137Y-88636452D01*
X104037268Y-88638448D01*
X104035605Y-88639559D01*
X104034363Y-88639226D01*
X104022972Y-88631615D01*
X104004801Y-88628000D01*
X102555199Y-88628000D01*
X102537028Y-88631615D01*
X102525637Y-88639226D01*
X102523641Y-88639357D01*
X102522530Y-88637694D01*
X102522863Y-88636452D01*
X102527369Y-88629709D01*
X102543894Y-88571115D01*
X102527392Y-88520325D01*
X102522863Y-88513548D01*
X102522732Y-88511552D01*
X102524395Y-88510441D01*
X102525637Y-88510774D01*
G37*
G36*
X96625637Y-88510774D02*
G01*
X96637028Y-88518385D01*
X96655199Y-88522000D01*
X98104801Y-88522000D01*
X98122972Y-88518385D01*
X98134363Y-88510774D01*
X98136359Y-88510643D01*
X98137470Y-88512306D01*
X98137137Y-88513548D01*
X98132631Y-88520291D01*
X98116106Y-88578885D01*
X98132608Y-88629675D01*
X98137137Y-88636452D01*
X98137268Y-88638448D01*
X98135605Y-88639559D01*
X98134363Y-88639226D01*
X98122972Y-88631615D01*
X98104801Y-88628000D01*
X96655199Y-88628000D01*
X96637028Y-88631615D01*
X96625637Y-88639226D01*
X96623641Y-88639357D01*
X96622530Y-88637694D01*
X96622863Y-88636452D01*
X96627369Y-88629709D01*
X96643894Y-88571115D01*
X96627392Y-88520325D01*
X96622863Y-88513548D01*
X96622732Y-88511552D01*
X96624395Y-88510441D01*
X96625637Y-88510774D01*
G37*
G36*
X102525637Y-87860774D02*
G01*
X102537028Y-87868385D01*
X102555199Y-87872000D01*
X104004801Y-87872000D01*
X104022972Y-87868385D01*
X104034363Y-87860774D01*
X104036359Y-87860643D01*
X104037470Y-87862306D01*
X104037137Y-87863548D01*
X104032631Y-87870291D01*
X104016106Y-87928885D01*
X104032608Y-87979675D01*
X104037137Y-87986452D01*
X104037268Y-87988448D01*
X104035605Y-87989559D01*
X104034363Y-87989226D01*
X104022972Y-87981615D01*
X104004801Y-87978000D01*
X102555199Y-87978000D01*
X102537028Y-87981615D01*
X102525637Y-87989226D01*
X102523641Y-87989357D01*
X102522530Y-87987694D01*
X102522863Y-87986452D01*
X102527369Y-87979709D01*
X102543894Y-87921115D01*
X102527392Y-87870325D01*
X102522863Y-87863548D01*
X102522732Y-87861552D01*
X102524395Y-87860441D01*
X102525637Y-87860774D01*
G37*
G36*
X96625637Y-87860774D02*
G01*
X96637028Y-87868385D01*
X96655199Y-87872000D01*
X98104801Y-87872000D01*
X98122972Y-87868385D01*
X98134363Y-87860774D01*
X98136359Y-87860643D01*
X98137470Y-87862306D01*
X98137137Y-87863548D01*
X98132631Y-87870291D01*
X98116106Y-87928885D01*
X98132608Y-87979675D01*
X98137137Y-87986452D01*
X98137268Y-87988448D01*
X98135605Y-87989559D01*
X98134363Y-87989226D01*
X98122972Y-87981615D01*
X98104801Y-87978000D01*
X96655199Y-87978000D01*
X96637028Y-87981615D01*
X96625637Y-87989226D01*
X96623641Y-87989357D01*
X96622530Y-87987694D01*
X96622863Y-87986452D01*
X96627369Y-87979709D01*
X96643894Y-87921115D01*
X96627392Y-87870325D01*
X96622863Y-87863548D01*
X96622732Y-87861552D01*
X96624395Y-87860441D01*
X96625637Y-87860774D01*
G37*
G36*
X96625637Y-87210774D02*
G01*
X96637028Y-87218385D01*
X96655199Y-87222000D01*
X98104801Y-87222000D01*
X98122972Y-87218385D01*
X98134363Y-87210774D01*
X98136359Y-87210643D01*
X98137470Y-87212306D01*
X98137137Y-87213548D01*
X98132631Y-87220291D01*
X98116106Y-87278885D01*
X98132608Y-87329675D01*
X98137137Y-87336452D01*
X98137268Y-87338448D01*
X98135605Y-87339559D01*
X98134363Y-87339226D01*
X98122972Y-87331615D01*
X98104801Y-87328000D01*
X96655199Y-87328000D01*
X96637028Y-87331615D01*
X96625637Y-87339226D01*
X96623641Y-87339357D01*
X96622530Y-87337694D01*
X96622863Y-87336452D01*
X96627369Y-87329709D01*
X96643894Y-87271115D01*
X96627392Y-87220325D01*
X96622863Y-87213548D01*
X96622732Y-87211552D01*
X96624395Y-87210441D01*
X96625637Y-87210774D01*
G37*
G36*
X102525637Y-87210774D02*
G01*
X102537028Y-87218385D01*
X102555199Y-87222000D01*
X104004801Y-87222000D01*
X104022972Y-87218385D01*
X104034363Y-87210774D01*
X104036359Y-87210643D01*
X104037470Y-87212306D01*
X104037137Y-87213548D01*
X104032631Y-87220291D01*
X104016106Y-87278885D01*
X104032608Y-87329675D01*
X104037137Y-87336452D01*
X104037268Y-87338448D01*
X104035605Y-87339559D01*
X104034363Y-87339226D01*
X104022972Y-87331615D01*
X104004801Y-87328000D01*
X102555199Y-87328000D01*
X102537028Y-87331615D01*
X102525637Y-87339226D01*
X102523641Y-87339357D01*
X102522530Y-87337694D01*
X102522863Y-87336452D01*
X102527369Y-87329709D01*
X102543894Y-87271115D01*
X102527392Y-87220325D01*
X102522863Y-87213548D01*
X102522732Y-87211552D01*
X102524395Y-87210441D01*
X102525637Y-87210774D01*
G37*
M02*
