G04 #@! TF.GenerationSoftware,KiCad,Pcbnew,(5.99.0-9294-gd3cf97847e)*
G04 #@! TF.CreationDate,2021-03-10T21:33:55+02:00*
G04 #@! TF.ProjectId,hellen1-wbo,68656c6c-656e-4312-9d77-626f2e6b6963,rev?*
G04 #@! TF.SameCoordinates,Original*
G04 #@! TF.FileFunction,Copper,L1,Top*
G04 #@! TF.FilePolarity,Positive*
%FSLAX46Y46*%
G04 Gerber Fmt 4.6, Leading zero omitted, Abs format (unit mm)*
G04 Created by KiCad (PCBNEW (5.99.0-9294-gd3cf97847e)) date 2021-03-10 21:33:55*
%MOMM*%
%LPD*%
G01*
G04 APERTURE LIST*
G04 #@! TA.AperFunction,SMDPad,CuDef*
%ADD10R,0.900000X0.800000*%
G04 #@! TD*
G04 #@! TA.AperFunction,SMDPad,CuDef*
%ADD11R,1.450000X0.450000*%
G04 #@! TD*
G04 #@! TA.AperFunction,SMDPad,CuDef*
%ADD12R,1.200000X2.200000*%
G04 #@! TD*
G04 #@! TA.AperFunction,SMDPad,CuDef*
%ADD13R,5.800000X6.400000*%
G04 #@! TD*
G04 #@! TA.AperFunction,SMDPad,CuDef*
%ADD14R,1.220000X0.650000*%
G04 #@! TD*
G04 #@! TA.AperFunction,SMDPad,CuDef*
%ADD15R,0.800000X0.900000*%
G04 #@! TD*
G04 #@! TA.AperFunction,ComponentPad*
%ADD16C,0.700000*%
G04 #@! TD*
G04 #@! TA.AperFunction,SMDPad,CuDef*
%ADD17C,3.000000*%
G04 #@! TD*
G04 #@! TA.AperFunction,SMDPad,CuDef*
%ADD18R,39.250000X0.250000*%
G04 #@! TD*
G04 #@! TA.AperFunction,SMDPad,CuDef*
%ADD19R,0.250000X3.100000*%
G04 #@! TD*
G04 #@! TA.AperFunction,SMDPad,CuDef*
%ADD20R,0.250000X2.250000*%
G04 #@! TD*
G04 #@! TA.AperFunction,SMDPad,CuDef*
%ADD21R,0.250000X2.950000*%
G04 #@! TD*
G04 #@! TA.AperFunction,SMDPad,CuDef*
%ADD22R,0.250000X5.050000*%
G04 #@! TD*
G04 #@! TA.AperFunction,SMDPad,CuDef*
%ADD23R,0.250000X0.950000*%
G04 #@! TD*
G04 #@! TA.AperFunction,ConnectorPad*
%ADD24C,0.787400*%
G04 #@! TD*
G04 #@! TA.AperFunction,ViaPad*
%ADD25C,0.600000*%
G04 #@! TD*
G04 #@! TA.AperFunction,Conductor*
%ADD26C,0.250000*%
G04 #@! TD*
G04 #@! TA.AperFunction,Conductor*
%ADD27C,0.500000*%
G04 #@! TD*
G04 #@! TA.AperFunction,Conductor*
%ADD28C,2.999999*%
G04 #@! TD*
G04 APERTURE END LIST*
G04 #@! TO.P,C612,1*
G04 #@! TO.N,VDDA*
G04 #@! TA.AperFunction,SMDPad,CuDef*
G36*
G01*
X95122500Y-85830000D02*
X94777500Y-85830000D01*
G75*
G02*
X94630000Y-85682500I0J147500D01*
G01*
X94630000Y-85387500D01*
G75*
G02*
X94777500Y-85240000I147500J0D01*
G01*
X95122500Y-85240000D01*
G75*
G02*
X95270000Y-85387500I0J-147500D01*
G01*
X95270000Y-85682500D01*
G75*
G02*
X95122500Y-85830000I-147500J0D01*
G01*
G37*
G04 #@! TD.AperFunction*
G04 #@! TO.P,C612,2*
G04 #@! TO.N,GND*
G04 #@! TA.AperFunction,SMDPad,CuDef*
G36*
G01*
X95122500Y-84860000D02*
X94777500Y-84860000D01*
G75*
G02*
X94630000Y-84712500I0J147500D01*
G01*
X94630000Y-84417500D01*
G75*
G02*
X94777500Y-84270000I147500J0D01*
G01*
X95122500Y-84270000D01*
G75*
G02*
X95270000Y-84417500I0J-147500D01*
G01*
X95270000Y-84712500D01*
G75*
G02*
X95122500Y-84860000I-147500J0D01*
G01*
G37*
G04 #@! TD.AperFunction*
G04 #@! TD*
G04 #@! TO.P,C605,1*
G04 #@! TO.N,/LSU_Un*
G04 #@! TA.AperFunction,SMDPad,CuDef*
G36*
G01*
X103967500Y-92093000D02*
X103967500Y-92438000D01*
G75*
G02*
X103820000Y-92585500I-147500J0D01*
G01*
X103525000Y-92585500D01*
G75*
G02*
X103377500Y-92438000I0J147500D01*
G01*
X103377500Y-92093000D01*
G75*
G02*
X103525000Y-91945500I147500J0D01*
G01*
X103820000Y-91945500D01*
G75*
G02*
X103967500Y-92093000I0J-147500D01*
G01*
G37*
G04 #@! TD.AperFunction*
G04 #@! TO.P,C605,2*
G04 #@! TO.N,Net-(C605-Pad2)*
G04 #@! TA.AperFunction,SMDPad,CuDef*
G36*
G01*
X102997500Y-92093000D02*
X102997500Y-92438000D01*
G75*
G02*
X102850000Y-92585500I-147500J0D01*
G01*
X102555000Y-92585500D01*
G75*
G02*
X102407500Y-92438000I0J147500D01*
G01*
X102407500Y-92093000D01*
G75*
G02*
X102555000Y-91945500I147500J0D01*
G01*
X102850000Y-91945500D01*
G75*
G02*
X102997500Y-92093000I0J-147500D01*
G01*
G37*
G04 #@! TD.AperFunction*
G04 #@! TD*
G04 #@! TO.P,C607,1*
G04 #@! TO.N,/LSU_Vm*
G04 #@! TA.AperFunction,SMDPad,CuDef*
G36*
G01*
X104630000Y-85770500D02*
X104630000Y-85425500D01*
G75*
G02*
X104777500Y-85278000I147500J0D01*
G01*
X105072500Y-85278000D01*
G75*
G02*
X105220000Y-85425500I0J-147500D01*
G01*
X105220000Y-85770500D01*
G75*
G02*
X105072500Y-85918000I-147500J0D01*
G01*
X104777500Y-85918000D01*
G75*
G02*
X104630000Y-85770500I0J147500D01*
G01*
G37*
G04 #@! TD.AperFunction*
G04 #@! TO.P,C607,2*
G04 #@! TO.N,GND*
G04 #@! TA.AperFunction,SMDPad,CuDef*
G36*
G01*
X105600000Y-85770500D02*
X105600000Y-85425500D01*
G75*
G02*
X105747500Y-85278000I147500J0D01*
G01*
X106042500Y-85278000D01*
G75*
G02*
X106190000Y-85425500I0J-147500D01*
G01*
X106190000Y-85770500D01*
G75*
G02*
X106042500Y-85918000I-147500J0D01*
G01*
X105747500Y-85918000D01*
G75*
G02*
X105600000Y-85770500I0J147500D01*
G01*
G37*
G04 #@! TD.AperFunction*
G04 #@! TD*
G04 #@! TO.P,C613,1*
G04 #@! TO.N,+5V*
G04 #@! TA.AperFunction,SMDPad,CuDef*
G36*
G01*
X79224000Y-89931500D02*
X79224000Y-89586500D01*
G75*
G02*
X79371500Y-89439000I147500J0D01*
G01*
X79666500Y-89439000D01*
G75*
G02*
X79814000Y-89586500I0J-147500D01*
G01*
X79814000Y-89931500D01*
G75*
G02*
X79666500Y-90079000I-147500J0D01*
G01*
X79371500Y-90079000D01*
G75*
G02*
X79224000Y-89931500I0J147500D01*
G01*
G37*
G04 #@! TD.AperFunction*
G04 #@! TO.P,C613,2*
G04 #@! TO.N,GND*
G04 #@! TA.AperFunction,SMDPad,CuDef*
G36*
G01*
X80194000Y-89931500D02*
X80194000Y-89586500D01*
G75*
G02*
X80341500Y-89439000I147500J0D01*
G01*
X80636500Y-89439000D01*
G75*
G02*
X80784000Y-89586500I0J-147500D01*
G01*
X80784000Y-89931500D01*
G75*
G02*
X80636500Y-90079000I-147500J0D01*
G01*
X80341500Y-90079000D01*
G75*
G02*
X80194000Y-89931500I0J147500D01*
G01*
G37*
G04 #@! TD.AperFunction*
G04 #@! TD*
G04 #@! TO.P,C616,1*
G04 #@! TO.N,+3V3*
G04 #@! TA.AperFunction,SMDPad,CuDef*
G36*
G01*
X82668750Y-86375000D02*
X83181250Y-86375000D01*
G75*
G02*
X83400000Y-86593750I0J-218750D01*
G01*
X83400000Y-87031250D01*
G75*
G02*
X83181250Y-87250000I-218750J0D01*
G01*
X82668750Y-87250000D01*
G75*
G02*
X82450000Y-87031250I0J218750D01*
G01*
X82450000Y-86593750D01*
G75*
G02*
X82668750Y-86375000I218750J0D01*
G01*
G37*
G04 #@! TD.AperFunction*
G04 #@! TO.P,C616,2*
G04 #@! TO.N,GND*
G04 #@! TA.AperFunction,SMDPad,CuDef*
G36*
G01*
X82668750Y-87950000D02*
X83181250Y-87950000D01*
G75*
G02*
X83400000Y-88168750I0J-218750D01*
G01*
X83400000Y-88606250D01*
G75*
G02*
X83181250Y-88825000I-218750J0D01*
G01*
X82668750Y-88825000D01*
G75*
G02*
X82450000Y-88606250I0J218750D01*
G01*
X82450000Y-88168750D01*
G75*
G02*
X82668750Y-87950000I218750J0D01*
G01*
G37*
G04 #@! TD.AperFunction*
G04 #@! TD*
G04 #@! TO.P,R609,1*
G04 #@! TO.N,/LSU_Rtrim*
G04 #@! TA.AperFunction,SMDPad,CuDef*
G36*
G01*
X100629000Y-85600250D02*
X100629000Y-85087750D01*
G75*
G02*
X100847750Y-84869000I218750J0D01*
G01*
X101285250Y-84869000D01*
G75*
G02*
X101504000Y-85087750I0J-218750D01*
G01*
X101504000Y-85600250D01*
G75*
G02*
X101285250Y-85819000I-218750J0D01*
G01*
X100847750Y-85819000D01*
G75*
G02*
X100629000Y-85600250I0J218750D01*
G01*
G37*
G04 #@! TD.AperFunction*
G04 #@! TO.P,R609,2*
G04 #@! TO.N,/LSU_Ip*
G04 #@! TA.AperFunction,SMDPad,CuDef*
G36*
G01*
X102204000Y-85600250D02*
X102204000Y-85087750D01*
G75*
G02*
X102422750Y-84869000I218750J0D01*
G01*
X102860250Y-84869000D01*
G75*
G02*
X103079000Y-85087750I0J-218750D01*
G01*
X103079000Y-85600250D01*
G75*
G02*
X102860250Y-85819000I-218750J0D01*
G01*
X102422750Y-85819000D01*
G75*
G02*
X102204000Y-85600250I0J218750D01*
G01*
G37*
G04 #@! TD.AperFunction*
G04 #@! TD*
G04 #@! TO.P,R607,1*
G04 #@! TO.N,Net-(C605-Pad2)*
G04 #@! TA.AperFunction,SMDPad,CuDef*
G36*
G01*
X101999000Y-92093000D02*
X101999000Y-92438000D01*
G75*
G02*
X101851500Y-92585500I-147500J0D01*
G01*
X101556500Y-92585500D01*
G75*
G02*
X101409000Y-92438000I0J147500D01*
G01*
X101409000Y-92093000D01*
G75*
G02*
X101556500Y-91945500I147500J0D01*
G01*
X101851500Y-91945500D01*
G75*
G02*
X101999000Y-92093000I0J-147500D01*
G01*
G37*
G04 #@! TD.AperFunction*
G04 #@! TO.P,R607,2*
G04 #@! TO.N,/Nernst_esr_drive*
G04 #@! TA.AperFunction,SMDPad,CuDef*
G36*
G01*
X101029000Y-92093000D02*
X101029000Y-92438000D01*
G75*
G02*
X100881500Y-92585500I-147500J0D01*
G01*
X100586500Y-92585500D01*
G75*
G02*
X100439000Y-92438000I0J147500D01*
G01*
X100439000Y-92093000D01*
G75*
G02*
X100586500Y-91945500I147500J0D01*
G01*
X100881500Y-91945500D01*
G75*
G02*
X101029000Y-92093000I0J-147500D01*
G01*
G37*
G04 #@! TD.AperFunction*
G04 #@! TD*
G04 #@! TO.P,R601,1*
G04 #@! TO.N,Net-(C600-Pad1)*
G04 #@! TA.AperFunction,SMDPad,CuDef*
G36*
G01*
X105074500Y-87902000D02*
X104729500Y-87902000D01*
G75*
G02*
X104582000Y-87754500I0J147500D01*
G01*
X104582000Y-87459500D01*
G75*
G02*
X104729500Y-87312000I147500J0D01*
G01*
X105074500Y-87312000D01*
G75*
G02*
X105222000Y-87459500I0J-147500D01*
G01*
X105222000Y-87754500D01*
G75*
G02*
X105074500Y-87902000I-147500J0D01*
G01*
G37*
G04 #@! TD.AperFunction*
G04 #@! TO.P,R601,2*
G04 #@! TO.N,GND*
G04 #@! TA.AperFunction,SMDPad,CuDef*
G36*
G01*
X105074500Y-86932000D02*
X104729500Y-86932000D01*
G75*
G02*
X104582000Y-86784500I0J147500D01*
G01*
X104582000Y-86489500D01*
G75*
G02*
X104729500Y-86342000I147500J0D01*
G01*
X105074500Y-86342000D01*
G75*
G02*
X105222000Y-86489500I0J-147500D01*
G01*
X105222000Y-86784500D01*
G75*
G02*
X105074500Y-86932000I-147500J0D01*
G01*
G37*
G04 #@! TD.AperFunction*
G04 #@! TD*
G04 #@! TO.P,R614,1*
G04 #@! TO.N,Net-(R614-Pad1)*
G04 #@! TA.AperFunction,SMDPad,CuDef*
G36*
G01*
X103477500Y-82320000D02*
X103822500Y-82320000D01*
G75*
G02*
X103970000Y-82467500I0J-147500D01*
G01*
X103970000Y-82762500D01*
G75*
G02*
X103822500Y-82910000I-147500J0D01*
G01*
X103477500Y-82910000D01*
G75*
G02*
X103330000Y-82762500I0J147500D01*
G01*
X103330000Y-82467500D01*
G75*
G02*
X103477500Y-82320000I147500J0D01*
G01*
G37*
G04 #@! TD.AperFunction*
G04 #@! TO.P,R614,2*
G04 #@! TO.N,/LSU_Ip*
G04 #@! TA.AperFunction,SMDPad,CuDef*
G36*
G01*
X103477500Y-83290000D02*
X103822500Y-83290000D01*
G75*
G02*
X103970000Y-83437500I0J-147500D01*
G01*
X103970000Y-83732500D01*
G75*
G02*
X103822500Y-83880000I-147500J0D01*
G01*
X103477500Y-83880000D01*
G75*
G02*
X103330000Y-83732500I0J147500D01*
G01*
X103330000Y-83437500D01*
G75*
G02*
X103477500Y-83290000I147500J0D01*
G01*
G37*
G04 #@! TD.AperFunction*
G04 #@! TD*
G04 #@! TO.P,R615,1*
G04 #@! TO.N,Net-(R614-Pad1)*
G04 #@! TA.AperFunction,SMDPad,CuDef*
G36*
G01*
X102320000Y-81472500D02*
X102320000Y-81127500D01*
G75*
G02*
X102467500Y-80980000I147500J0D01*
G01*
X102762500Y-80980000D01*
G75*
G02*
X102910000Y-81127500I0J-147500D01*
G01*
X102910000Y-81472500D01*
G75*
G02*
X102762500Y-81620000I-147500J0D01*
G01*
X102467500Y-81620000D01*
G75*
G02*
X102320000Y-81472500I0J147500D01*
G01*
G37*
G04 #@! TD.AperFunction*
G04 #@! TO.P,R615,2*
G04 #@! TO.N,/Vm*
G04 #@! TA.AperFunction,SMDPad,CuDef*
G36*
G01*
X103290000Y-81472500D02*
X103290000Y-81127500D01*
G75*
G02*
X103437500Y-80980000I147500J0D01*
G01*
X103732500Y-80980000D01*
G75*
G02*
X103880000Y-81127500I0J-147500D01*
G01*
X103880000Y-81472500D01*
G75*
G02*
X103732500Y-81620000I-147500J0D01*
G01*
X103437500Y-81620000D01*
G75*
G02*
X103290000Y-81472500I0J147500D01*
G01*
G37*
G04 #@! TD.AperFunction*
G04 #@! TD*
G04 #@! TO.P,R621,1*
G04 #@! TO.N,Net-(R621-Pad1)*
G04 #@! TA.AperFunction,SMDPad,CuDef*
G36*
G01*
X96020000Y-81172500D02*
X96020000Y-80827500D01*
G75*
G02*
X96167500Y-80680000I147500J0D01*
G01*
X96462500Y-80680000D01*
G75*
G02*
X96610000Y-80827500I0J-147500D01*
G01*
X96610000Y-81172500D01*
G75*
G02*
X96462500Y-81320000I-147500J0D01*
G01*
X96167500Y-81320000D01*
G75*
G02*
X96020000Y-81172500I0J147500D01*
G01*
G37*
G04 #@! TD.AperFunction*
G04 #@! TO.P,R621,2*
G04 #@! TO.N,Net-(R613-Pad1)*
G04 #@! TA.AperFunction,SMDPad,CuDef*
G36*
G01*
X96990000Y-81172500D02*
X96990000Y-80827500D01*
G75*
G02*
X97137500Y-80680000I147500J0D01*
G01*
X97432500Y-80680000D01*
G75*
G02*
X97580000Y-80827500I0J-147500D01*
G01*
X97580000Y-81172500D01*
G75*
G02*
X97432500Y-81320000I-147500J0D01*
G01*
X97137500Y-81320000D01*
G75*
G02*
X96990000Y-81172500I0J147500D01*
G01*
G37*
G04 #@! TD.AperFunction*
G04 #@! TD*
G04 #@! TO.P,R619,1*
G04 #@! TO.N,/LSU_Un_sense*
G04 #@! TA.AperFunction,SMDPad,CuDef*
G36*
G01*
X100030500Y-92093000D02*
X100030500Y-92438000D01*
G75*
G02*
X99883000Y-92585500I-147500J0D01*
G01*
X99588000Y-92585500D01*
G75*
G02*
X99440500Y-92438000I0J147500D01*
G01*
X99440500Y-92093000D01*
G75*
G02*
X99588000Y-91945500I147500J0D01*
G01*
X99883000Y-91945500D01*
G75*
G02*
X100030500Y-92093000I0J-147500D01*
G01*
G37*
G04 #@! TD.AperFunction*
G04 #@! TO.P,R619,2*
G04 #@! TO.N,Net-(R619-Pad2)*
G04 #@! TA.AperFunction,SMDPad,CuDef*
G36*
G01*
X99060500Y-92093000D02*
X99060500Y-92438000D01*
G75*
G02*
X98913000Y-92585500I-147500J0D01*
G01*
X98618000Y-92585500D01*
G75*
G02*
X98470500Y-92438000I0J147500D01*
G01*
X98470500Y-92093000D01*
G75*
G02*
X98618000Y-91945500I147500J0D01*
G01*
X98913000Y-91945500D01*
G75*
G02*
X99060500Y-92093000I0J-147500D01*
G01*
G37*
G04 #@! TD.AperFunction*
G04 #@! TD*
G04 #@! TO.P,R620,1*
G04 #@! TO.N,Net-(R619-Pad2)*
G04 #@! TA.AperFunction,SMDPad,CuDef*
G36*
G01*
X98062000Y-92093000D02*
X98062000Y-92438000D01*
G75*
G02*
X97914500Y-92585500I-147500J0D01*
G01*
X97619500Y-92585500D01*
G75*
G02*
X97472000Y-92438000I0J147500D01*
G01*
X97472000Y-92093000D01*
G75*
G02*
X97619500Y-91945500I147500J0D01*
G01*
X97914500Y-91945500D01*
G75*
G02*
X98062000Y-92093000I0J-147500D01*
G01*
G37*
G04 #@! TD.AperFunction*
G04 #@! TO.P,R620,2*
G04 #@! TO.N,GND*
G04 #@! TA.AperFunction,SMDPad,CuDef*
G36*
G01*
X97092000Y-92093000D02*
X97092000Y-92438000D01*
G75*
G02*
X96944500Y-92585500I-147500J0D01*
G01*
X96649500Y-92585500D01*
G75*
G02*
X96502000Y-92438000I0J147500D01*
G01*
X96502000Y-92093000D01*
G75*
G02*
X96649500Y-91945500I147500J0D01*
G01*
X96944500Y-91945500D01*
G75*
G02*
X97092000Y-92093000I0J-147500D01*
G01*
G37*
G04 #@! TD.AperFunction*
G04 #@! TD*
G04 #@! TO.P,R606,1*
G04 #@! TO.N,/LSU_Vm*
G04 #@! TA.AperFunction,SMDPad,CuDef*
G36*
G01*
X104058500Y-85870000D02*
X103713500Y-85870000D01*
G75*
G02*
X103566000Y-85722500I0J147500D01*
G01*
X103566000Y-85427500D01*
G75*
G02*
X103713500Y-85280000I147500J0D01*
G01*
X104058500Y-85280000D01*
G75*
G02*
X104206000Y-85427500I0J-147500D01*
G01*
X104206000Y-85722500D01*
G75*
G02*
X104058500Y-85870000I-147500J0D01*
G01*
G37*
G04 #@! TD.AperFunction*
G04 #@! TO.P,R606,2*
G04 #@! TO.N,/Vm*
G04 #@! TA.AperFunction,SMDPad,CuDef*
G36*
G01*
X104058500Y-84900000D02*
X103713500Y-84900000D01*
G75*
G02*
X103566000Y-84752500I0J147500D01*
G01*
X103566000Y-84457500D01*
G75*
G02*
X103713500Y-84310000I147500J0D01*
G01*
X104058500Y-84310000D01*
G75*
G02*
X104206000Y-84457500I0J-147500D01*
G01*
X104206000Y-84752500D01*
G75*
G02*
X104058500Y-84900000I-147500J0D01*
G01*
G37*
G04 #@! TD.AperFunction*
G04 #@! TD*
D10*
G04 #@! TO.P,U604,1,GND*
G04 #@! TO.N,GND*
X81258000Y-88397600D03*
G04 #@! TO.P,U604,2,VO*
G04 #@! TO.N,+3V3*
X81258000Y-86497600D03*
G04 #@! TO.P,U604,3,VI*
G04 #@! TO.N,+5V*
X79258000Y-87447600D03*
G04 #@! TD*
D11*
G04 #@! TO.P,U600,1*
G04 #@! TO.N,Net-(C603-Pad1)*
X97380000Y-86950000D03*
G04 #@! TO.P,U600,2,-*
G04 #@! TO.N,Net-(C603-Pad2)*
X97380000Y-87600000D03*
G04 #@! TO.P,U600,3,+*
G04 #@! TO.N,Net-(R603-Pad1)*
X97380000Y-88250000D03*
G04 #@! TO.P,U600,4,V+*
G04 #@! TO.N,+3V3*
X97380000Y-88900000D03*
G04 #@! TO.P,U600,5,+*
G04 #@! TO.N,Net-(R619-Pad2)*
X97380000Y-89550000D03*
G04 #@! TO.P,U600,6,-*
G04 #@! TO.N,Net-(R618-Pad2)*
X97380000Y-90200000D03*
G04 #@! TO.P,U600,7*
G04 #@! TO.N,/Un_sense*
X97380000Y-90850000D03*
G04 #@! TO.P,U600,8*
G04 #@! TO.N,/LSU_Un_sense*
X103280000Y-90850000D03*
G04 #@! TO.P,U600,9,-*
X103280000Y-90200000D03*
G04 #@! TO.P,U600,10,+*
G04 #@! TO.N,/LSU_Un*
X103280000Y-89550000D03*
G04 #@! TO.P,U600,11,V-*
G04 #@! TO.N,GND*
X103280000Y-88900000D03*
G04 #@! TO.P,U600,12,+*
G04 #@! TO.N,Net-(C600-Pad1)*
X103280000Y-88250000D03*
G04 #@! TO.P,U600,13,-*
G04 #@! TO.N,/Vm*
X103280000Y-87600000D03*
G04 #@! TO.P,U600,14*
X103280000Y-86950000D03*
G04 #@! TD*
G04 #@! TO.P,C600,1*
G04 #@! TO.N,Net-(C600-Pad1)*
G04 #@! TA.AperFunction,SMDPad,CuDef*
G36*
G01*
X106090500Y-87902000D02*
X105745500Y-87902000D01*
G75*
G02*
X105598000Y-87754500I0J147500D01*
G01*
X105598000Y-87459500D01*
G75*
G02*
X105745500Y-87312000I147500J0D01*
G01*
X106090500Y-87312000D01*
G75*
G02*
X106238000Y-87459500I0J-147500D01*
G01*
X106238000Y-87754500D01*
G75*
G02*
X106090500Y-87902000I-147500J0D01*
G01*
G37*
G04 #@! TD.AperFunction*
G04 #@! TO.P,C600,2*
G04 #@! TO.N,GND*
G04 #@! TA.AperFunction,SMDPad,CuDef*
G36*
G01*
X106090500Y-86932000D02*
X105745500Y-86932000D01*
G75*
G02*
X105598000Y-86784500I0J147500D01*
G01*
X105598000Y-86489500D01*
G75*
G02*
X105745500Y-86342000I147500J0D01*
G01*
X106090500Y-86342000D01*
G75*
G02*
X106238000Y-86489500I0J-147500D01*
G01*
X106238000Y-86784500D01*
G75*
G02*
X106090500Y-86932000I-147500J0D01*
G01*
G37*
G04 #@! TD.AperFunction*
G04 #@! TD*
G04 #@! TO.P,C608,1*
G04 #@! TO.N,/Ip_sense*
G04 #@! TA.AperFunction,SMDPad,CuDef*
G36*
G01*
X94120000Y-82122500D02*
X94120000Y-81777500D01*
G75*
G02*
X94267500Y-81630000I147500J0D01*
G01*
X94562500Y-81630000D01*
G75*
G02*
X94710000Y-81777500I0J-147500D01*
G01*
X94710000Y-82122500D01*
G75*
G02*
X94562500Y-82270000I-147500J0D01*
G01*
X94267500Y-82270000D01*
G75*
G02*
X94120000Y-82122500I0J147500D01*
G01*
G37*
G04 #@! TD.AperFunction*
G04 #@! TO.P,C608,2*
G04 #@! TO.N,GND*
G04 #@! TA.AperFunction,SMDPad,CuDef*
G36*
G01*
X95090000Y-82122500D02*
X95090000Y-81777500D01*
G75*
G02*
X95237500Y-81630000I147500J0D01*
G01*
X95532500Y-81630000D01*
G75*
G02*
X95680000Y-81777500I0J-147500D01*
G01*
X95680000Y-82122500D01*
G75*
G02*
X95532500Y-82270000I-147500J0D01*
G01*
X95237500Y-82270000D01*
G75*
G02*
X95090000Y-82122500I0J147500D01*
G01*
G37*
G04 #@! TD.AperFunction*
G04 #@! TD*
G04 #@! TO.P,R624,1*
G04 #@! TO.N,Net-(R621-Pad1)*
G04 #@! TA.AperFunction,SMDPad,CuDef*
G36*
G01*
X95680000Y-80827500D02*
X95680000Y-81172500D01*
G75*
G02*
X95532500Y-81320000I-147500J0D01*
G01*
X95237500Y-81320000D01*
G75*
G02*
X95090000Y-81172500I0J147500D01*
G01*
X95090000Y-80827500D01*
G75*
G02*
X95237500Y-80680000I147500J0D01*
G01*
X95532500Y-80680000D01*
G75*
G02*
X95680000Y-80827500I0J-147500D01*
G01*
G37*
G04 #@! TD.AperFunction*
G04 #@! TO.P,R624,2*
G04 #@! TO.N,/Ip_sense*
G04 #@! TA.AperFunction,SMDPad,CuDef*
G36*
G01*
X94710000Y-80827500D02*
X94710000Y-81172500D01*
G75*
G02*
X94562500Y-81320000I-147500J0D01*
G01*
X94267500Y-81320000D01*
G75*
G02*
X94120000Y-81172500I0J147500D01*
G01*
X94120000Y-80827500D01*
G75*
G02*
X94267500Y-80680000I147500J0D01*
G01*
X94562500Y-80680000D01*
G75*
G02*
X94710000Y-80827500I0J-147500D01*
G01*
G37*
G04 #@! TD.AperFunction*
G04 #@! TD*
G04 #@! TO.P,C611,1*
G04 #@! TO.N,VDDA*
G04 #@! TA.AperFunction,SMDPad,CuDef*
G36*
G01*
X94777500Y-86170000D02*
X95122500Y-86170000D01*
G75*
G02*
X95270000Y-86317500I0J-147500D01*
G01*
X95270000Y-86612500D01*
G75*
G02*
X95122500Y-86760000I-147500J0D01*
G01*
X94777500Y-86760000D01*
G75*
G02*
X94630000Y-86612500I0J147500D01*
G01*
X94630000Y-86317500D01*
G75*
G02*
X94777500Y-86170000I147500J0D01*
G01*
G37*
G04 #@! TD.AperFunction*
G04 #@! TO.P,C611,2*
G04 #@! TO.N,GND*
G04 #@! TA.AperFunction,SMDPad,CuDef*
G36*
G01*
X94777500Y-87140000D02*
X95122500Y-87140000D01*
G75*
G02*
X95270000Y-87287500I0J-147500D01*
G01*
X95270000Y-87582500D01*
G75*
G02*
X95122500Y-87730000I-147500J0D01*
G01*
X94777500Y-87730000D01*
G75*
G02*
X94630000Y-87582500I0J147500D01*
G01*
X94630000Y-87287500D01*
G75*
G02*
X94777500Y-87140000I147500J0D01*
G01*
G37*
G04 #@! TD.AperFunction*
G04 #@! TD*
G04 #@! TO.P,R622,1*
G04 #@! TO.N,Net-(Q600-Pad1)*
G04 #@! TA.AperFunction,SMDPad,CuDef*
G36*
G01*
X106572500Y-83580000D02*
X106227500Y-83580000D01*
G75*
G02*
X106080000Y-83432500I0J147500D01*
G01*
X106080000Y-83137500D01*
G75*
G02*
X106227500Y-82990000I147500J0D01*
G01*
X106572500Y-82990000D01*
G75*
G02*
X106720000Y-83137500I0J-147500D01*
G01*
X106720000Y-83432500D01*
G75*
G02*
X106572500Y-83580000I-147500J0D01*
G01*
G37*
G04 #@! TD.AperFunction*
G04 #@! TO.P,R622,2*
G04 #@! TO.N,/heater_pwm*
G04 #@! TA.AperFunction,SMDPad,CuDef*
G36*
G01*
X106572500Y-82610000D02*
X106227500Y-82610000D01*
G75*
G02*
X106080000Y-82462500I0J147500D01*
G01*
X106080000Y-82167500D01*
G75*
G02*
X106227500Y-82020000I147500J0D01*
G01*
X106572500Y-82020000D01*
G75*
G02*
X106720000Y-82167500I0J-147500D01*
G01*
X106720000Y-82462500D01*
G75*
G02*
X106572500Y-82610000I-147500J0D01*
G01*
G37*
G04 #@! TD.AperFunction*
G04 #@! TD*
G04 #@! TO.P,R617,1*
G04 #@! TO.N,GND*
G04 #@! TA.AperFunction,SMDPad,CuDef*
G36*
G01*
X87635000Y-81172500D02*
X87635000Y-80827500D01*
G75*
G02*
X87782500Y-80680000I147500J0D01*
G01*
X88077500Y-80680000D01*
G75*
G02*
X88225000Y-80827500I0J-147500D01*
G01*
X88225000Y-81172500D01*
G75*
G02*
X88077500Y-81320000I-147500J0D01*
G01*
X87782500Y-81320000D01*
G75*
G02*
X87635000Y-81172500I0J147500D01*
G01*
G37*
G04 #@! TD.AperFunction*
G04 #@! TO.P,R617,2*
G04 #@! TO.N,/heater_pwm*
G04 #@! TA.AperFunction,SMDPad,CuDef*
G36*
G01*
X88605000Y-81172500D02*
X88605000Y-80827500D01*
G75*
G02*
X88752500Y-80680000I147500J0D01*
G01*
X89047500Y-80680000D01*
G75*
G02*
X89195000Y-80827500I0J-147500D01*
G01*
X89195000Y-81172500D01*
G75*
G02*
X89047500Y-81320000I-147500J0D01*
G01*
X88752500Y-81320000D01*
G75*
G02*
X88605000Y-81172500I0J147500D01*
G01*
G37*
G04 #@! TD.AperFunction*
G04 #@! TD*
G04 #@! TO.P,C614,1*
G04 #@! TO.N,+3V3*
G04 #@! TA.AperFunction,SMDPad,CuDef*
G36*
G01*
X93577500Y-90270000D02*
X93922500Y-90270000D01*
G75*
G02*
X94070000Y-90417500I0J-147500D01*
G01*
X94070000Y-90712500D01*
G75*
G02*
X93922500Y-90860000I-147500J0D01*
G01*
X93577500Y-90860000D01*
G75*
G02*
X93430000Y-90712500I0J147500D01*
G01*
X93430000Y-90417500D01*
G75*
G02*
X93577500Y-90270000I147500J0D01*
G01*
G37*
G04 #@! TD.AperFunction*
G04 #@! TO.P,C614,2*
G04 #@! TO.N,GND*
G04 #@! TA.AperFunction,SMDPad,CuDef*
G36*
G01*
X93577500Y-91240000D02*
X93922500Y-91240000D01*
G75*
G02*
X94070000Y-91387500I0J-147500D01*
G01*
X94070000Y-91682500D01*
G75*
G02*
X93922500Y-91830000I-147500J0D01*
G01*
X93577500Y-91830000D01*
G75*
G02*
X93430000Y-91682500I0J147500D01*
G01*
X93430000Y-91387500D01*
G75*
G02*
X93577500Y-91240000I147500J0D01*
G01*
G37*
G04 #@! TD.AperFunction*
G04 #@! TD*
G04 #@! TO.P,C615,1*
G04 #@! TO.N,+3V3*
G04 #@! TA.AperFunction,SMDPad,CuDef*
G36*
G01*
X84822500Y-82880000D02*
X84477500Y-82880000D01*
G75*
G02*
X84330000Y-82732500I0J147500D01*
G01*
X84330000Y-82437500D01*
G75*
G02*
X84477500Y-82290000I147500J0D01*
G01*
X84822500Y-82290000D01*
G75*
G02*
X84970000Y-82437500I0J-147500D01*
G01*
X84970000Y-82732500D01*
G75*
G02*
X84822500Y-82880000I-147500J0D01*
G01*
G37*
G04 #@! TD.AperFunction*
G04 #@! TO.P,C615,2*
G04 #@! TO.N,GND*
G04 #@! TA.AperFunction,SMDPad,CuDef*
G36*
G01*
X84822500Y-81910000D02*
X84477500Y-81910000D01*
G75*
G02*
X84330000Y-81762500I0J147500D01*
G01*
X84330000Y-81467500D01*
G75*
G02*
X84477500Y-81320000I147500J0D01*
G01*
X84822500Y-81320000D01*
G75*
G02*
X84970000Y-81467500I0J-147500D01*
G01*
X84970000Y-81762500D01*
G75*
G02*
X84822500Y-81910000I-147500J0D01*
G01*
G37*
G04 #@! TD.AperFunction*
G04 #@! TD*
D12*
G04 #@! TO.P,Q600,1,G*
G04 #@! TO.N,Net-(Q600-Pad1)*
X112680000Y-82475000D03*
D13*
G04 #@! TO.P,Q600,2,D*
G04 #@! TO.N,/LSU_H+*
X110400000Y-88775000D03*
D12*
G04 #@! TO.P,Q600,3,S*
G04 #@! TO.N,/LSU_H-*
X108120000Y-82475000D03*
G04 #@! TD*
G04 #@! TO.P,R612,1*
G04 #@! TO.N,/LSU_Un*
G04 #@! TA.AperFunction,SMDPad,CuDef*
G36*
G01*
X104755000Y-93272500D02*
X104755000Y-92927500D01*
G75*
G02*
X104902500Y-92780000I147500J0D01*
G01*
X105197500Y-92780000D01*
G75*
G02*
X105345000Y-92927500I0J-147500D01*
G01*
X105345000Y-93272500D01*
G75*
G02*
X105197500Y-93420000I-147500J0D01*
G01*
X104902500Y-93420000D01*
G75*
G02*
X104755000Y-93272500I0J147500D01*
G01*
G37*
G04 #@! TD.AperFunction*
G04 #@! TO.P,R612,2*
G04 #@! TO.N,Net-(R611-Pad1)*
G04 #@! TA.AperFunction,SMDPad,CuDef*
G36*
G01*
X105725000Y-93272500D02*
X105725000Y-92927500D01*
G75*
G02*
X105872500Y-92780000I147500J0D01*
G01*
X106167500Y-92780000D01*
G75*
G02*
X106315000Y-92927500I0J-147500D01*
G01*
X106315000Y-93272500D01*
G75*
G02*
X106167500Y-93420000I-147500J0D01*
G01*
X105872500Y-93420000D01*
G75*
G02*
X105725000Y-93272500I0J147500D01*
G01*
G37*
G04 #@! TD.AperFunction*
G04 #@! TD*
G04 #@! TO.P,R618,1*
G04 #@! TO.N,/LSU_Vm*
G04 #@! TA.AperFunction,SMDPad,CuDef*
G36*
G01*
X95072500Y-91830000D02*
X94727500Y-91830000D01*
G75*
G02*
X94580000Y-91682500I0J147500D01*
G01*
X94580000Y-91387500D01*
G75*
G02*
X94727500Y-91240000I147500J0D01*
G01*
X95072500Y-91240000D01*
G75*
G02*
X95220000Y-91387500I0J-147500D01*
G01*
X95220000Y-91682500D01*
G75*
G02*
X95072500Y-91830000I-147500J0D01*
G01*
G37*
G04 #@! TD.AperFunction*
G04 #@! TO.P,R618,2*
G04 #@! TO.N,Net-(R618-Pad2)*
G04 #@! TA.AperFunction,SMDPad,CuDef*
G36*
G01*
X95072500Y-90860000D02*
X94727500Y-90860000D01*
G75*
G02*
X94580000Y-90712500I0J147500D01*
G01*
X94580000Y-90417500D01*
G75*
G02*
X94727500Y-90270000I147500J0D01*
G01*
X95072500Y-90270000D01*
G75*
G02*
X95220000Y-90417500I0J-147500D01*
G01*
X95220000Y-90712500D01*
G75*
G02*
X95072500Y-90860000I-147500J0D01*
G01*
G37*
G04 #@! TD.AperFunction*
G04 #@! TD*
G04 #@! TO.P,R616,1*
G04 #@! TO.N,Net-(D600-Pad2)*
G04 #@! TA.AperFunction,SMDPad,CuDef*
G36*
G01*
X104305000Y-81522500D02*
X104305000Y-81177500D01*
G75*
G02*
X104452500Y-81030000I147500J0D01*
G01*
X104747500Y-81030000D01*
G75*
G02*
X104895000Y-81177500I0J-147500D01*
G01*
X104895000Y-81522500D01*
G75*
G02*
X104747500Y-81670000I-147500J0D01*
G01*
X104452500Y-81670000D01*
G75*
G02*
X104305000Y-81522500I0J147500D01*
G01*
G37*
G04 #@! TD.AperFunction*
G04 #@! TO.P,R616,2*
G04 #@! TO.N,/heater_pwm*
G04 #@! TA.AperFunction,SMDPad,CuDef*
G36*
G01*
X105275000Y-81522500D02*
X105275000Y-81177500D01*
G75*
G02*
X105422500Y-81030000I147500J0D01*
G01*
X105717500Y-81030000D01*
G75*
G02*
X105865000Y-81177500I0J-147500D01*
G01*
X105865000Y-81522500D01*
G75*
G02*
X105717500Y-81670000I-147500J0D01*
G01*
X105422500Y-81670000D01*
G75*
G02*
X105275000Y-81522500I0J147500D01*
G01*
G37*
G04 #@! TD.AperFunction*
G04 #@! TD*
G04 #@! TO.P,R623,1*
G04 #@! TO.N,Net-(R618-Pad2)*
G04 #@! TA.AperFunction,SMDPad,CuDef*
G36*
G01*
X95712500Y-90025000D02*
X96057500Y-90025000D01*
G75*
G02*
X96205000Y-90172500I0J-147500D01*
G01*
X96205000Y-90467500D01*
G75*
G02*
X96057500Y-90615000I-147500J0D01*
G01*
X95712500Y-90615000D01*
G75*
G02*
X95565000Y-90467500I0J147500D01*
G01*
X95565000Y-90172500D01*
G75*
G02*
X95712500Y-90025000I147500J0D01*
G01*
G37*
G04 #@! TD.AperFunction*
G04 #@! TO.P,R623,2*
G04 #@! TO.N,/Un_sense*
G04 #@! TA.AperFunction,SMDPad,CuDef*
G36*
G01*
X95712500Y-90995000D02*
X96057500Y-90995000D01*
G75*
G02*
X96205000Y-91142500I0J-147500D01*
G01*
X96205000Y-91437500D01*
G75*
G02*
X96057500Y-91585000I-147500J0D01*
G01*
X95712500Y-91585000D01*
G75*
G02*
X95565000Y-91437500I0J147500D01*
G01*
X95565000Y-91142500D01*
G75*
G02*
X95712500Y-90995000I147500J0D01*
G01*
G37*
G04 #@! TD.AperFunction*
G04 #@! TD*
G04 #@! TO.P,R625,1*
G04 #@! TO.N,GND*
G04 #@! TA.AperFunction,SMDPad,CuDef*
G36*
G01*
X81970000Y-89922500D02*
X81970000Y-89577500D01*
G75*
G02*
X82117500Y-89430000I147500J0D01*
G01*
X82412500Y-89430000D01*
G75*
G02*
X82560000Y-89577500I0J-147500D01*
G01*
X82560000Y-89922500D01*
G75*
G02*
X82412500Y-90070000I-147500J0D01*
G01*
X82117500Y-90070000D01*
G75*
G02*
X81970000Y-89922500I0J147500D01*
G01*
G37*
G04 #@! TD.AperFunction*
G04 #@! TO.P,R625,2*
G04 #@! TO.N,/Boot0*
G04 #@! TA.AperFunction,SMDPad,CuDef*
G36*
G01*
X82940000Y-89922500D02*
X82940000Y-89577500D01*
G75*
G02*
X83087500Y-89430000I147500J0D01*
G01*
X83382500Y-89430000D01*
G75*
G02*
X83530000Y-89577500I0J-147500D01*
G01*
X83530000Y-89922500D01*
G75*
G02*
X83382500Y-90070000I-147500J0D01*
G01*
X83087500Y-90070000D01*
G75*
G02*
X82940000Y-89922500I0J147500D01*
G01*
G37*
G04 #@! TD.AperFunction*
G04 #@! TD*
G04 #@! TO.P,D601,1,K*
G04 #@! TO.N,Net-(D601-Pad1)*
G04 #@! TA.AperFunction,SMDPad,CuDef*
G36*
G01*
X91903000Y-92453750D02*
X91903000Y-92966250D01*
G75*
G02*
X91684250Y-93185000I-218750J0D01*
G01*
X91246750Y-93185000D01*
G75*
G02*
X91028000Y-92966250I0J218750D01*
G01*
X91028000Y-92453750D01*
G75*
G02*
X91246750Y-92235000I218750J0D01*
G01*
X91684250Y-92235000D01*
G75*
G02*
X91903000Y-92453750I0J-218750D01*
G01*
G37*
G04 #@! TD.AperFunction*
G04 #@! TO.P,D601,2,A*
G04 #@! TO.N,/LED_GREEN*
G04 #@! TA.AperFunction,SMDPad,CuDef*
G36*
G01*
X90328000Y-92453750D02*
X90328000Y-92966250D01*
G75*
G02*
X90109250Y-93185000I-218750J0D01*
G01*
X89671750Y-93185000D01*
G75*
G02*
X89453000Y-92966250I0J218750D01*
G01*
X89453000Y-92453750D01*
G75*
G02*
X89671750Y-92235000I218750J0D01*
G01*
X90109250Y-92235000D01*
G75*
G02*
X90328000Y-92453750I0J-218750D01*
G01*
G37*
G04 #@! TD.AperFunction*
G04 #@! TD*
G04 #@! TO.P,R626,1*
G04 #@! TO.N,GND*
G04 #@! TA.AperFunction,SMDPad,CuDef*
G36*
G01*
X93998000Y-92537500D02*
X93998000Y-92882500D01*
G75*
G02*
X93850500Y-93030000I-147500J0D01*
G01*
X93555500Y-93030000D01*
G75*
G02*
X93408000Y-92882500I0J147500D01*
G01*
X93408000Y-92537500D01*
G75*
G02*
X93555500Y-92390000I147500J0D01*
G01*
X93850500Y-92390000D01*
G75*
G02*
X93998000Y-92537500I0J-147500D01*
G01*
G37*
G04 #@! TD.AperFunction*
G04 #@! TO.P,R626,2*
G04 #@! TO.N,Net-(D601-Pad1)*
G04 #@! TA.AperFunction,SMDPad,CuDef*
G36*
G01*
X93028000Y-92537500D02*
X93028000Y-92882500D01*
G75*
G02*
X92880500Y-93030000I-147500J0D01*
G01*
X92585500Y-93030000D01*
G75*
G02*
X92438000Y-92882500I0J147500D01*
G01*
X92438000Y-92537500D01*
G75*
G02*
X92585500Y-92390000I147500J0D01*
G01*
X92880500Y-92390000D01*
G75*
G02*
X93028000Y-92537500I0J-147500D01*
G01*
G37*
G04 #@! TD.AperFunction*
G04 #@! TD*
G04 #@! TO.P,R604,1*
G04 #@! TO.N,Net-(C603-Pad1)*
G04 #@! TA.AperFunction,SMDPad,CuDef*
G36*
G01*
X97173000Y-85425500D02*
X97173000Y-85770500D01*
G75*
G02*
X97025500Y-85918000I-147500J0D01*
G01*
X96730500Y-85918000D01*
G75*
G02*
X96583000Y-85770500I0J147500D01*
G01*
X96583000Y-85425500D01*
G75*
G02*
X96730500Y-85278000I147500J0D01*
G01*
X97025500Y-85278000D01*
G75*
G02*
X97173000Y-85425500I0J-147500D01*
G01*
G37*
G04 #@! TD.AperFunction*
G04 #@! TO.P,R604,2*
G04 #@! TO.N,Net-(C603-Pad2)*
G04 #@! TA.AperFunction,SMDPad,CuDef*
G36*
G01*
X96203000Y-85425500D02*
X96203000Y-85770500D01*
G75*
G02*
X96055500Y-85918000I-147500J0D01*
G01*
X95760500Y-85918000D01*
G75*
G02*
X95613000Y-85770500I0J147500D01*
G01*
X95613000Y-85425500D01*
G75*
G02*
X95760500Y-85278000I147500J0D01*
G01*
X96055500Y-85278000D01*
G75*
G02*
X96203000Y-85425500I0J-147500D01*
G01*
G37*
G04 #@! TD.AperFunction*
G04 #@! TD*
G04 #@! TO.P,R605,1*
G04 #@! TO.N,/LSU_Rtrim*
G04 #@! TA.AperFunction,SMDPad,CuDef*
G36*
G01*
X98633500Y-84310000D02*
X98978500Y-84310000D01*
G75*
G02*
X99126000Y-84457500I0J-147500D01*
G01*
X99126000Y-84752500D01*
G75*
G02*
X98978500Y-84900000I-147500J0D01*
G01*
X98633500Y-84900000D01*
G75*
G02*
X98486000Y-84752500I0J147500D01*
G01*
X98486000Y-84457500D01*
G75*
G02*
X98633500Y-84310000I147500J0D01*
G01*
G37*
G04 #@! TD.AperFunction*
G04 #@! TO.P,R605,2*
G04 #@! TO.N,Net-(R603-Pad1)*
G04 #@! TA.AperFunction,SMDPad,CuDef*
G36*
G01*
X98633500Y-85280000D02*
X98978500Y-85280000D01*
G75*
G02*
X99126000Y-85427500I0J-147500D01*
G01*
X99126000Y-85722500D01*
G75*
G02*
X98978500Y-85870000I-147500J0D01*
G01*
X98633500Y-85870000D01*
G75*
G02*
X98486000Y-85722500I0J147500D01*
G01*
X98486000Y-85427500D01*
G75*
G02*
X98633500Y-85280000I147500J0D01*
G01*
G37*
G04 #@! TD.AperFunction*
G04 #@! TD*
G04 #@! TO.P,R608,1*
G04 #@! TO.N,/LSU_Rtrim*
G04 #@! TA.AperFunction,SMDPad,CuDef*
G36*
G01*
X97677500Y-84310000D02*
X98022500Y-84310000D01*
G75*
G02*
X98170000Y-84457500I0J-147500D01*
G01*
X98170000Y-84752500D01*
G75*
G02*
X98022500Y-84900000I-147500J0D01*
G01*
X97677500Y-84900000D01*
G75*
G02*
X97530000Y-84752500I0J147500D01*
G01*
X97530000Y-84457500D01*
G75*
G02*
X97677500Y-84310000I147500J0D01*
G01*
G37*
G04 #@! TD.AperFunction*
G04 #@! TO.P,R608,2*
G04 #@! TO.N,Net-(C603-Pad1)*
G04 #@! TA.AperFunction,SMDPad,CuDef*
G36*
G01*
X97677500Y-85280000D02*
X98022500Y-85280000D01*
G75*
G02*
X98170000Y-85427500I0J-147500D01*
G01*
X98170000Y-85722500D01*
G75*
G02*
X98022500Y-85870000I-147500J0D01*
G01*
X97677500Y-85870000D01*
G75*
G02*
X97530000Y-85722500I0J147500D01*
G01*
X97530000Y-85427500D01*
G75*
G02*
X97677500Y-85280000I147500J0D01*
G01*
G37*
G04 #@! TD.AperFunction*
G04 #@! TD*
G04 #@! TO.P,C603,1*
G04 #@! TO.N,Net-(C603-Pad1)*
G04 #@! TA.AperFunction,SMDPad,CuDef*
G36*
G01*
X97173000Y-84409500D02*
X97173000Y-84754500D01*
G75*
G02*
X97025500Y-84902000I-147500J0D01*
G01*
X96730500Y-84902000D01*
G75*
G02*
X96583000Y-84754500I0J147500D01*
G01*
X96583000Y-84409500D01*
G75*
G02*
X96730500Y-84262000I147500J0D01*
G01*
X97025500Y-84262000D01*
G75*
G02*
X97173000Y-84409500I0J-147500D01*
G01*
G37*
G04 #@! TD.AperFunction*
G04 #@! TO.P,C603,2*
G04 #@! TO.N,Net-(C603-Pad2)*
G04 #@! TA.AperFunction,SMDPad,CuDef*
G36*
G01*
X96203000Y-84409500D02*
X96203000Y-84754500D01*
G75*
G02*
X96055500Y-84902000I-147500J0D01*
G01*
X95760500Y-84902000D01*
G75*
G02*
X95613000Y-84754500I0J147500D01*
G01*
X95613000Y-84409500D01*
G75*
G02*
X95760500Y-84262000I147500J0D01*
G01*
X96055500Y-84262000D01*
G75*
G02*
X96203000Y-84409500I0J-147500D01*
G01*
G37*
G04 #@! TD.AperFunction*
G04 #@! TD*
D14*
G04 #@! TO.P,U601,1*
G04 #@! TO.N,Net-(R621-Pad1)*
X101260000Y-83250000D03*
G04 #@! TO.P,U601,2,V-*
G04 #@! TO.N,GND*
X101260000Y-82300000D03*
G04 #@! TO.P,U601,3,+*
G04 #@! TO.N,Net-(R614-Pad1)*
X101260000Y-81350000D03*
G04 #@! TO.P,U601,4,-*
G04 #@! TO.N,Net-(R613-Pad1)*
X98640000Y-81350000D03*
G04 #@! TO.P,U601,5,V+*
G04 #@! TO.N,+3V3*
X98640000Y-83250000D03*
G04 #@! TD*
G04 #@! TO.P,R603,1*
G04 #@! TO.N,Net-(R603-Pad1)*
G04 #@! TA.AperFunction,SMDPad,CuDef*
G36*
G01*
X99649500Y-84310000D02*
X99994500Y-84310000D01*
G75*
G02*
X100142000Y-84457500I0J-147500D01*
G01*
X100142000Y-84752500D01*
G75*
G02*
X99994500Y-84900000I-147500J0D01*
G01*
X99649500Y-84900000D01*
G75*
G02*
X99502000Y-84752500I0J147500D01*
G01*
X99502000Y-84457500D01*
G75*
G02*
X99649500Y-84310000I147500J0D01*
G01*
G37*
G04 #@! TD.AperFunction*
G04 #@! TO.P,R603,2*
G04 #@! TO.N,/Vm*
G04 #@! TA.AperFunction,SMDPad,CuDef*
G36*
G01*
X99649500Y-85280000D02*
X99994500Y-85280000D01*
G75*
G02*
X100142000Y-85427500I0J-147500D01*
G01*
X100142000Y-85722500D01*
G75*
G02*
X99994500Y-85870000I-147500J0D01*
G01*
X99649500Y-85870000D01*
G75*
G02*
X99502000Y-85722500I0J147500D01*
G01*
X99502000Y-85427500D01*
G75*
G02*
X99649500Y-85280000I147500J0D01*
G01*
G37*
G04 #@! TD.AperFunction*
G04 #@! TD*
G04 #@! TO.P,R613,1*
G04 #@! TO.N,Net-(R613-Pad1)*
G04 #@! TA.AperFunction,SMDPad,CuDef*
G36*
G01*
X102477500Y-82520000D02*
X102822500Y-82520000D01*
G75*
G02*
X102970000Y-82667500I0J-147500D01*
G01*
X102970000Y-82962500D01*
G75*
G02*
X102822500Y-83110000I-147500J0D01*
G01*
X102477500Y-83110000D01*
G75*
G02*
X102330000Y-82962500I0J147500D01*
G01*
X102330000Y-82667500D01*
G75*
G02*
X102477500Y-82520000I147500J0D01*
G01*
G37*
G04 #@! TD.AperFunction*
G04 #@! TO.P,R613,2*
G04 #@! TO.N,/LSU_Rtrim*
G04 #@! TA.AperFunction,SMDPad,CuDef*
G36*
G01*
X102477500Y-83490000D02*
X102822500Y-83490000D01*
G75*
G02*
X102970000Y-83637500I0J-147500D01*
G01*
X102970000Y-83932500D01*
G75*
G02*
X102822500Y-84080000I-147500J0D01*
G01*
X102477500Y-84080000D01*
G75*
G02*
X102330000Y-83932500I0J147500D01*
G01*
X102330000Y-83637500D01*
G75*
G02*
X102477500Y-83490000I147500J0D01*
G01*
G37*
G04 #@! TD.AperFunction*
G04 #@! TD*
G04 #@! TO.P,C601,1*
G04 #@! TO.N,+3V3*
G04 #@! TA.AperFunction,SMDPad,CuDef*
G36*
G01*
X105872500Y-88247000D02*
X106217500Y-88247000D01*
G75*
G02*
X106365000Y-88394500I0J-147500D01*
G01*
X106365000Y-88689500D01*
G75*
G02*
X106217500Y-88837000I-147500J0D01*
G01*
X105872500Y-88837000D01*
G75*
G02*
X105725000Y-88689500I0J147500D01*
G01*
X105725000Y-88394500D01*
G75*
G02*
X105872500Y-88247000I147500J0D01*
G01*
G37*
G04 #@! TD.AperFunction*
G04 #@! TO.P,C601,2*
G04 #@! TO.N,GND*
G04 #@! TA.AperFunction,SMDPad,CuDef*
G36*
G01*
X105872500Y-89217000D02*
X106217500Y-89217000D01*
G75*
G02*
X106365000Y-89364500I0J-147500D01*
G01*
X106365000Y-89659500D01*
G75*
G02*
X106217500Y-89807000I-147500J0D01*
G01*
X105872500Y-89807000D01*
G75*
G02*
X105725000Y-89659500I0J147500D01*
G01*
X105725000Y-89364500D01*
G75*
G02*
X105872500Y-89217000I147500J0D01*
G01*
G37*
G04 #@! TD.AperFunction*
G04 #@! TD*
G04 #@! TO.P,D600,1,K*
G04 #@! TO.N,GND*
G04 #@! TA.AperFunction,SMDPad,CuDef*
G36*
G01*
X105412250Y-84791000D02*
X104899750Y-84791000D01*
G75*
G02*
X104681000Y-84572250I0J218750D01*
G01*
X104681000Y-84134750D01*
G75*
G02*
X104899750Y-83916000I218750J0D01*
G01*
X105412250Y-83916000D01*
G75*
G02*
X105631000Y-84134750I0J-218750D01*
G01*
X105631000Y-84572250D01*
G75*
G02*
X105412250Y-84791000I-218750J0D01*
G01*
G37*
G04 #@! TD.AperFunction*
G04 #@! TO.P,D600,2,A*
G04 #@! TO.N,Net-(D600-Pad2)*
G04 #@! TA.AperFunction,SMDPad,CuDef*
G36*
G01*
X105412250Y-83216000D02*
X104899750Y-83216000D01*
G75*
G02*
X104681000Y-82997250I0J218750D01*
G01*
X104681000Y-82559750D01*
G75*
G02*
X104899750Y-82341000I218750J0D01*
G01*
X105412250Y-82341000D01*
G75*
G02*
X105631000Y-82559750I0J-218750D01*
G01*
X105631000Y-82997250D01*
G75*
G02*
X105412250Y-83216000I-218750J0D01*
G01*
G37*
G04 #@! TD.AperFunction*
G04 #@! TD*
G04 #@! TO.P,R610,1*
G04 #@! TO.N,Net-(R610-Pad1)*
G04 #@! TA.AperFunction,SMDPad,CuDef*
G36*
G01*
X104755000Y-91172500D02*
X104755000Y-90827500D01*
G75*
G02*
X104902500Y-90680000I147500J0D01*
G01*
X105197500Y-90680000D01*
G75*
G02*
X105345000Y-90827500I0J-147500D01*
G01*
X105345000Y-91172500D01*
G75*
G02*
X105197500Y-91320000I-147500J0D01*
G01*
X104902500Y-91320000D01*
G75*
G02*
X104755000Y-91172500I0J147500D01*
G01*
G37*
G04 #@! TD.AperFunction*
G04 #@! TO.P,R610,2*
G04 #@! TO.N,+3V3*
G04 #@! TA.AperFunction,SMDPad,CuDef*
G36*
G01*
X105725000Y-91172500D02*
X105725000Y-90827500D01*
G75*
G02*
X105872500Y-90680000I147500J0D01*
G01*
X106167500Y-90680000D01*
G75*
G02*
X106315000Y-90827500I0J-147500D01*
G01*
X106315000Y-91172500D01*
G75*
G02*
X106167500Y-91320000I-147500J0D01*
G01*
X105872500Y-91320000D01*
G75*
G02*
X105725000Y-91172500I0J147500D01*
G01*
G37*
G04 #@! TD.AperFunction*
G04 #@! TD*
G04 #@! TO.P,R611,1*
G04 #@! TO.N,Net-(R611-Pad1)*
G04 #@! TA.AperFunction,SMDPad,CuDef*
G36*
G01*
X106315000Y-91877500D02*
X106315000Y-92222500D01*
G75*
G02*
X106167500Y-92370000I-147500J0D01*
G01*
X105872500Y-92370000D01*
G75*
G02*
X105725000Y-92222500I0J147500D01*
G01*
X105725000Y-91877500D01*
G75*
G02*
X105872500Y-91730000I147500J0D01*
G01*
X106167500Y-91730000D01*
G75*
G02*
X106315000Y-91877500I0J-147500D01*
G01*
G37*
G04 #@! TD.AperFunction*
G04 #@! TO.P,R611,2*
G04 #@! TO.N,Net-(R610-Pad1)*
G04 #@! TA.AperFunction,SMDPad,CuDef*
G36*
G01*
X105345000Y-91877500D02*
X105345000Y-92222500D01*
G75*
G02*
X105197500Y-92370000I-147500J0D01*
G01*
X104902500Y-92370000D01*
G75*
G02*
X104755000Y-92222500I0J147500D01*
G01*
X104755000Y-91877500D01*
G75*
G02*
X104902500Y-91730000I147500J0D01*
G01*
X105197500Y-91730000D01*
G75*
G02*
X105345000Y-91877500I0J-147500D01*
G01*
G37*
G04 #@! TD.AperFunction*
G04 #@! TD*
G04 #@! TO.P,D602,1,K*
G04 #@! TO.N,Net-(D602-Pad1)*
G04 #@! TA.AperFunction,SMDPad,CuDef*
G36*
G01*
X86405000Y-92966250D02*
X86405000Y-92453750D01*
G75*
G02*
X86623750Y-92235000I218750J0D01*
G01*
X87061250Y-92235000D01*
G75*
G02*
X87280000Y-92453750I0J-218750D01*
G01*
X87280000Y-92966250D01*
G75*
G02*
X87061250Y-93185000I-218750J0D01*
G01*
X86623750Y-93185000D01*
G75*
G02*
X86405000Y-92966250I0J218750D01*
G01*
G37*
G04 #@! TD.AperFunction*
G04 #@! TO.P,D602,2,A*
G04 #@! TO.N,/LED_BLUE*
G04 #@! TA.AperFunction,SMDPad,CuDef*
G36*
G01*
X87980000Y-92966250D02*
X87980000Y-92453750D01*
G75*
G02*
X88198750Y-92235000I218750J0D01*
G01*
X88636250Y-92235000D01*
G75*
G02*
X88855000Y-92453750I0J-218750D01*
G01*
X88855000Y-92966250D01*
G75*
G02*
X88636250Y-93185000I-218750J0D01*
G01*
X88198750Y-93185000D01*
G75*
G02*
X87980000Y-92966250I0J218750D01*
G01*
G37*
G04 #@! TD.AperFunction*
G04 #@! TD*
G04 #@! TO.P,R627,1*
G04 #@! TO.N,GND*
G04 #@! TA.AperFunction,SMDPad,CuDef*
G36*
G01*
X85585000Y-94122500D02*
X85585000Y-93777500D01*
G75*
G02*
X85732500Y-93630000I147500J0D01*
G01*
X86027500Y-93630000D01*
G75*
G02*
X86175000Y-93777500I0J-147500D01*
G01*
X86175000Y-94122500D01*
G75*
G02*
X86027500Y-94270000I-147500J0D01*
G01*
X85732500Y-94270000D01*
G75*
G02*
X85585000Y-94122500I0J147500D01*
G01*
G37*
G04 #@! TD.AperFunction*
G04 #@! TO.P,R627,2*
G04 #@! TO.N,Net-(D602-Pad1)*
G04 #@! TA.AperFunction,SMDPad,CuDef*
G36*
G01*
X86555000Y-94122500D02*
X86555000Y-93777500D01*
G75*
G02*
X86702500Y-93630000I147500J0D01*
G01*
X86997500Y-93630000D01*
G75*
G02*
X87145000Y-93777500I0J-147500D01*
G01*
X87145000Y-94122500D01*
G75*
G02*
X86997500Y-94270000I-147500J0D01*
G01*
X86702500Y-94270000D01*
G75*
G02*
X86555000Y-94122500I0J147500D01*
G01*
G37*
G04 #@! TD.AperFunction*
G04 #@! TD*
G04 #@! TO.P,C602,1*
G04 #@! TO.N,+3V3*
G04 #@! TA.AperFunction,SMDPad,CuDef*
G36*
G01*
X97580000Y-83427500D02*
X97580000Y-83772500D01*
G75*
G02*
X97432500Y-83920000I-147500J0D01*
G01*
X97137500Y-83920000D01*
G75*
G02*
X96990000Y-83772500I0J147500D01*
G01*
X96990000Y-83427500D01*
G75*
G02*
X97137500Y-83280000I147500J0D01*
G01*
X97432500Y-83280000D01*
G75*
G02*
X97580000Y-83427500I0J-147500D01*
G01*
G37*
G04 #@! TD.AperFunction*
G04 #@! TO.P,C602,2*
G04 #@! TO.N,GND*
G04 #@! TA.AperFunction,SMDPad,CuDef*
G36*
G01*
X96610000Y-83427500D02*
X96610000Y-83772500D01*
G75*
G02*
X96462500Y-83920000I-147500J0D01*
G01*
X96167500Y-83920000D01*
G75*
G02*
X96020000Y-83772500I0J147500D01*
G01*
X96020000Y-83427500D01*
G75*
G02*
X96167500Y-83280000I147500J0D01*
G01*
X96462500Y-83280000D01*
G75*
G02*
X96610000Y-83427500I0J-147500D01*
G01*
G37*
G04 #@! TD.AperFunction*
G04 #@! TD*
G04 #@! TO.P,U602,1,VDD*
G04 #@! TO.N,+3V3*
G04 #@! TA.AperFunction,SMDPad,CuDef*
G36*
G01*
X94175000Y-89425000D02*
X94175000Y-89675000D01*
G75*
G02*
X94050000Y-89800000I-125000J0D01*
G01*
X92800000Y-89800000D01*
G75*
G02*
X92675000Y-89675000I0J125000D01*
G01*
X92675000Y-89425000D01*
G75*
G02*
X92800000Y-89300000I125000J0D01*
G01*
X94050000Y-89300000D01*
G75*
G02*
X94175000Y-89425000I0J-125000D01*
G01*
G37*
G04 #@! TD.AperFunction*
G04 #@! TO.P,U602,2,PF0*
G04 #@! TO.N,unconnected-(U602-Pad2)*
G04 #@! TA.AperFunction,SMDPad,CuDef*
G36*
G01*
X94175000Y-88625000D02*
X94175000Y-88875000D01*
G75*
G02*
X94050000Y-89000000I-125000J0D01*
G01*
X92800000Y-89000000D01*
G75*
G02*
X92675000Y-88875000I0J125000D01*
G01*
X92675000Y-88625000D01*
G75*
G02*
X92800000Y-88500000I125000J0D01*
G01*
X94050000Y-88500000D01*
G75*
G02*
X94175000Y-88625000I0J-125000D01*
G01*
G37*
G04 #@! TD.AperFunction*
G04 #@! TO.P,U602,3,PF1*
G04 #@! TO.N,unconnected-(U602-Pad3)*
G04 #@! TA.AperFunction,SMDPad,CuDef*
G36*
G01*
X94175000Y-87825000D02*
X94175000Y-88075000D01*
G75*
G02*
X94050000Y-88200000I-125000J0D01*
G01*
X92800000Y-88200000D01*
G75*
G02*
X92675000Y-88075000I0J125000D01*
G01*
X92675000Y-87825000D01*
G75*
G02*
X92800000Y-87700000I125000J0D01*
G01*
X94050000Y-87700000D01*
G75*
G02*
X94175000Y-87825000I0J-125000D01*
G01*
G37*
G04 #@! TD.AperFunction*
G04 #@! TO.P,U602,4,NRST*
G04 #@! TO.N,/nRESET*
G04 #@! TA.AperFunction,SMDPad,CuDef*
G36*
G01*
X94175000Y-87025000D02*
X94175000Y-87275000D01*
G75*
G02*
X94050000Y-87400000I-125000J0D01*
G01*
X92800000Y-87400000D01*
G75*
G02*
X92675000Y-87275000I0J125000D01*
G01*
X92675000Y-87025000D01*
G75*
G02*
X92800000Y-86900000I125000J0D01*
G01*
X94050000Y-86900000D01*
G75*
G02*
X94175000Y-87025000I0J-125000D01*
G01*
G37*
G04 #@! TD.AperFunction*
G04 #@! TO.P,U602,5,VDDA*
G04 #@! TO.N,VDDA*
G04 #@! TA.AperFunction,SMDPad,CuDef*
G36*
G01*
X94175000Y-86225000D02*
X94175000Y-86475000D01*
G75*
G02*
X94050000Y-86600000I-125000J0D01*
G01*
X92800000Y-86600000D01*
G75*
G02*
X92675000Y-86475000I0J125000D01*
G01*
X92675000Y-86225000D01*
G75*
G02*
X92800000Y-86100000I125000J0D01*
G01*
X94050000Y-86100000D01*
G75*
G02*
X94175000Y-86225000I0J-125000D01*
G01*
G37*
G04 #@! TD.AperFunction*
G04 #@! TO.P,U602,6,PA0*
G04 #@! TO.N,/Un_sense*
G04 #@! TA.AperFunction,SMDPad,CuDef*
G36*
G01*
X94175000Y-85425000D02*
X94175000Y-85675000D01*
G75*
G02*
X94050000Y-85800000I-125000J0D01*
G01*
X92800000Y-85800000D01*
G75*
G02*
X92675000Y-85675000I0J125000D01*
G01*
X92675000Y-85425000D01*
G75*
G02*
X92800000Y-85300000I125000J0D01*
G01*
X94050000Y-85300000D01*
G75*
G02*
X94175000Y-85425000I0J-125000D01*
G01*
G37*
G04 #@! TD.AperFunction*
G04 #@! TO.P,U602,7,PA1*
G04 #@! TO.N,/LSU_Vm*
G04 #@! TA.AperFunction,SMDPad,CuDef*
G36*
G01*
X94175000Y-84625000D02*
X94175000Y-84875000D01*
G75*
G02*
X94050000Y-85000000I-125000J0D01*
G01*
X92800000Y-85000000D01*
G75*
G02*
X92675000Y-84875000I0J125000D01*
G01*
X92675000Y-84625000D01*
G75*
G02*
X92800000Y-84500000I125000J0D01*
G01*
X94050000Y-84500000D01*
G75*
G02*
X94175000Y-84625000I0J-125000D01*
G01*
G37*
G04 #@! TD.AperFunction*
G04 #@! TO.P,U602,8,PA2*
G04 #@! TO.N,/Ip_sense*
G04 #@! TA.AperFunction,SMDPad,CuDef*
G36*
G01*
X94175000Y-83825000D02*
X94175000Y-84075000D01*
G75*
G02*
X94050000Y-84200000I-125000J0D01*
G01*
X92800000Y-84200000D01*
G75*
G02*
X92675000Y-84075000I0J125000D01*
G01*
X92675000Y-83825000D01*
G75*
G02*
X92800000Y-83700000I125000J0D01*
G01*
X94050000Y-83700000D01*
G75*
G02*
X94175000Y-83825000I0J-125000D01*
G01*
G37*
G04 #@! TD.AperFunction*
G04 #@! TO.P,U602,9,PA3*
G04 #@! TO.N,/Vm*
G04 #@! TA.AperFunction,SMDPad,CuDef*
G36*
G01*
X92300000Y-81950000D02*
X92300000Y-83200000D01*
G75*
G02*
X92175000Y-83325000I-125000J0D01*
G01*
X91925000Y-83325000D01*
G75*
G02*
X91800000Y-83200000I0J125000D01*
G01*
X91800000Y-81950000D01*
G75*
G02*
X91925000Y-81825000I125000J0D01*
G01*
X92175000Y-81825000D01*
G75*
G02*
X92300000Y-81950000I0J-125000D01*
G01*
G37*
G04 #@! TD.AperFunction*
G04 #@! TO.P,U602,10,PA4*
G04 #@! TO.N,unconnected-(U602-Pad10)*
G04 #@! TA.AperFunction,SMDPad,CuDef*
G36*
G01*
X91500000Y-81950000D02*
X91500000Y-83200000D01*
G75*
G02*
X91375000Y-83325000I-125000J0D01*
G01*
X91125000Y-83325000D01*
G75*
G02*
X91000000Y-83200000I0J125000D01*
G01*
X91000000Y-81950000D01*
G75*
G02*
X91125000Y-81825000I125000J0D01*
G01*
X91375000Y-81825000D01*
G75*
G02*
X91500000Y-81950000I0J-125000D01*
G01*
G37*
G04 #@! TD.AperFunction*
G04 #@! TO.P,U602,11,PA5*
G04 #@! TO.N,unconnected-(U602-Pad11)*
G04 #@! TA.AperFunction,SMDPad,CuDef*
G36*
G01*
X90700000Y-81950000D02*
X90700000Y-83200000D01*
G75*
G02*
X90575000Y-83325000I-125000J0D01*
G01*
X90325000Y-83325000D01*
G75*
G02*
X90200000Y-83200000I0J125000D01*
G01*
X90200000Y-81950000D01*
G75*
G02*
X90325000Y-81825000I125000J0D01*
G01*
X90575000Y-81825000D01*
G75*
G02*
X90700000Y-81950000I0J-125000D01*
G01*
G37*
G04 #@! TD.AperFunction*
G04 #@! TO.P,U602,12,PA6*
G04 #@! TO.N,/Ip_dac*
G04 #@! TA.AperFunction,SMDPad,CuDef*
G36*
G01*
X89900000Y-81950000D02*
X89900000Y-83200000D01*
G75*
G02*
X89775000Y-83325000I-125000J0D01*
G01*
X89525000Y-83325000D01*
G75*
G02*
X89400000Y-83200000I0J125000D01*
G01*
X89400000Y-81950000D01*
G75*
G02*
X89525000Y-81825000I125000J0D01*
G01*
X89775000Y-81825000D01*
G75*
G02*
X89900000Y-81950000I0J-125000D01*
G01*
G37*
G04 #@! TD.AperFunction*
G04 #@! TO.P,U602,13,PA7*
G04 #@! TO.N,/heater_pwm*
G04 #@! TA.AperFunction,SMDPad,CuDef*
G36*
G01*
X89100000Y-81950000D02*
X89100000Y-83200000D01*
G75*
G02*
X88975000Y-83325000I-125000J0D01*
G01*
X88725000Y-83325000D01*
G75*
G02*
X88600000Y-83200000I0J125000D01*
G01*
X88600000Y-81950000D01*
G75*
G02*
X88725000Y-81825000I125000J0D01*
G01*
X88975000Y-81825000D01*
G75*
G02*
X89100000Y-81950000I0J-125000D01*
G01*
G37*
G04 #@! TD.AperFunction*
G04 #@! TO.P,U602,14,PB0*
G04 #@! TO.N,unconnected-(U602-Pad14)*
G04 #@! TA.AperFunction,SMDPad,CuDef*
G36*
G01*
X88300000Y-81950000D02*
X88300000Y-83200000D01*
G75*
G02*
X88175000Y-83325000I-125000J0D01*
G01*
X87925000Y-83325000D01*
G75*
G02*
X87800000Y-83200000I0J125000D01*
G01*
X87800000Y-81950000D01*
G75*
G02*
X87925000Y-81825000I125000J0D01*
G01*
X88175000Y-81825000D01*
G75*
G02*
X88300000Y-81950000I0J-125000D01*
G01*
G37*
G04 #@! TD.AperFunction*
G04 #@! TO.P,U602,15,PB1*
G04 #@! TO.N,unconnected-(U602-Pad15)*
G04 #@! TA.AperFunction,SMDPad,CuDef*
G36*
G01*
X87500000Y-81950000D02*
X87500000Y-83200000D01*
G75*
G02*
X87375000Y-83325000I-125000J0D01*
G01*
X87125000Y-83325000D01*
G75*
G02*
X87000000Y-83200000I0J125000D01*
G01*
X87000000Y-81950000D01*
G75*
G02*
X87125000Y-81825000I125000J0D01*
G01*
X87375000Y-81825000D01*
G75*
G02*
X87500000Y-81950000I0J-125000D01*
G01*
G37*
G04 #@! TD.AperFunction*
G04 #@! TO.P,U602,16,VSS*
G04 #@! TO.N,GND*
G04 #@! TA.AperFunction,SMDPad,CuDef*
G36*
G01*
X86700000Y-81950000D02*
X86700000Y-83200000D01*
G75*
G02*
X86575000Y-83325000I-125000J0D01*
G01*
X86325000Y-83325000D01*
G75*
G02*
X86200000Y-83200000I0J125000D01*
G01*
X86200000Y-81950000D01*
G75*
G02*
X86325000Y-81825000I125000J0D01*
G01*
X86575000Y-81825000D01*
G75*
G02*
X86700000Y-81950000I0J-125000D01*
G01*
G37*
G04 #@! TD.AperFunction*
G04 #@! TO.P,U602,17,VDDIO2*
G04 #@! TO.N,+3V3*
G04 #@! TA.AperFunction,SMDPad,CuDef*
G36*
G01*
X85825000Y-83825000D02*
X85825000Y-84075000D01*
G75*
G02*
X85700000Y-84200000I-125000J0D01*
G01*
X84450000Y-84200000D01*
G75*
G02*
X84325000Y-84075000I0J125000D01*
G01*
X84325000Y-83825000D01*
G75*
G02*
X84450000Y-83700000I125000J0D01*
G01*
X85700000Y-83700000D01*
G75*
G02*
X85825000Y-83825000I0J-125000D01*
G01*
G37*
G04 #@! TD.AperFunction*
G04 #@! TO.P,U602,18,PA8*
G04 #@! TO.N,unconnected-(U602-Pad18)*
G04 #@! TA.AperFunction,SMDPad,CuDef*
G36*
G01*
X85825000Y-84625000D02*
X85825000Y-84875000D01*
G75*
G02*
X85700000Y-85000000I-125000J0D01*
G01*
X84450000Y-85000000D01*
G75*
G02*
X84325000Y-84875000I0J125000D01*
G01*
X84325000Y-84625000D01*
G75*
G02*
X84450000Y-84500000I125000J0D01*
G01*
X85700000Y-84500000D01*
G75*
G02*
X85825000Y-84625000I0J-125000D01*
G01*
G37*
G04 #@! TD.AperFunction*
G04 #@! TO.P,U602,19,PA9*
G04 #@! TO.N,unconnected-(U602-Pad19)*
G04 #@! TA.AperFunction,SMDPad,CuDef*
G36*
G01*
X85825000Y-85425000D02*
X85825000Y-85675000D01*
G75*
G02*
X85700000Y-85800000I-125000J0D01*
G01*
X84450000Y-85800000D01*
G75*
G02*
X84325000Y-85675000I0J125000D01*
G01*
X84325000Y-85425000D01*
G75*
G02*
X84450000Y-85300000I125000J0D01*
G01*
X85700000Y-85300000D01*
G75*
G02*
X85825000Y-85425000I0J-125000D01*
G01*
G37*
G04 #@! TD.AperFunction*
G04 #@! TO.P,U602,20,PA10*
G04 #@! TO.N,unconnected-(U602-Pad20)*
G04 #@! TA.AperFunction,SMDPad,CuDef*
G36*
G01*
X85825000Y-86225000D02*
X85825000Y-86475000D01*
G75*
G02*
X85700000Y-86600000I-125000J0D01*
G01*
X84450000Y-86600000D01*
G75*
G02*
X84325000Y-86475000I0J125000D01*
G01*
X84325000Y-86225000D01*
G75*
G02*
X84450000Y-86100000I125000J0D01*
G01*
X85700000Y-86100000D01*
G75*
G02*
X85825000Y-86225000I0J-125000D01*
G01*
G37*
G04 #@! TD.AperFunction*
G04 #@! TO.P,U602,21,PA11*
G04 #@! TO.N,/CAN_RX*
G04 #@! TA.AperFunction,SMDPad,CuDef*
G36*
G01*
X85825000Y-87025000D02*
X85825000Y-87275000D01*
G75*
G02*
X85700000Y-87400000I-125000J0D01*
G01*
X84450000Y-87400000D01*
G75*
G02*
X84325000Y-87275000I0J125000D01*
G01*
X84325000Y-87025000D01*
G75*
G02*
X84450000Y-86900000I125000J0D01*
G01*
X85700000Y-86900000D01*
G75*
G02*
X85825000Y-87025000I0J-125000D01*
G01*
G37*
G04 #@! TD.AperFunction*
G04 #@! TO.P,U602,22,PA12*
G04 #@! TO.N,/CAN_TX*
G04 #@! TA.AperFunction,SMDPad,CuDef*
G36*
G01*
X85825000Y-87825000D02*
X85825000Y-88075000D01*
G75*
G02*
X85700000Y-88200000I-125000J0D01*
G01*
X84450000Y-88200000D01*
G75*
G02*
X84325000Y-88075000I0J125000D01*
G01*
X84325000Y-87825000D01*
G75*
G02*
X84450000Y-87700000I125000J0D01*
G01*
X85700000Y-87700000D01*
G75*
G02*
X85825000Y-87825000I0J-125000D01*
G01*
G37*
G04 #@! TD.AperFunction*
G04 #@! TO.P,U602,23,PA13*
G04 #@! TO.N,/SWDIO*
G04 #@! TA.AperFunction,SMDPad,CuDef*
G36*
G01*
X85825000Y-88625000D02*
X85825000Y-88875000D01*
G75*
G02*
X85700000Y-89000000I-125000J0D01*
G01*
X84450000Y-89000000D01*
G75*
G02*
X84325000Y-88875000I0J125000D01*
G01*
X84325000Y-88625000D01*
G75*
G02*
X84450000Y-88500000I125000J0D01*
G01*
X85700000Y-88500000D01*
G75*
G02*
X85825000Y-88625000I0J-125000D01*
G01*
G37*
G04 #@! TD.AperFunction*
G04 #@! TO.P,U602,24,PA14*
G04 #@! TO.N,/SWCLK*
G04 #@! TA.AperFunction,SMDPad,CuDef*
G36*
G01*
X85825000Y-89425000D02*
X85825000Y-89675000D01*
G75*
G02*
X85700000Y-89800000I-125000J0D01*
G01*
X84450000Y-89800000D01*
G75*
G02*
X84325000Y-89675000I0J125000D01*
G01*
X84325000Y-89425000D01*
G75*
G02*
X84450000Y-89300000I125000J0D01*
G01*
X85700000Y-89300000D01*
G75*
G02*
X85825000Y-89425000I0J-125000D01*
G01*
G37*
G04 #@! TD.AperFunction*
G04 #@! TO.P,U602,25,PA15*
G04 #@! TO.N,unconnected-(U602-Pad25)*
G04 #@! TA.AperFunction,SMDPad,CuDef*
G36*
G01*
X86700000Y-90300000D02*
X86700000Y-91550000D01*
G75*
G02*
X86575000Y-91675000I-125000J0D01*
G01*
X86325000Y-91675000D01*
G75*
G02*
X86200000Y-91550000I0J125000D01*
G01*
X86200000Y-90300000D01*
G75*
G02*
X86325000Y-90175000I125000J0D01*
G01*
X86575000Y-90175000D01*
G75*
G02*
X86700000Y-90300000I0J-125000D01*
G01*
G37*
G04 #@! TD.AperFunction*
G04 #@! TO.P,U602,26,PB3*
G04 #@! TO.N,unconnected-(U602-Pad26)*
G04 #@! TA.AperFunction,SMDPad,CuDef*
G36*
G01*
X87500000Y-90300000D02*
X87500000Y-91550000D01*
G75*
G02*
X87375000Y-91675000I-125000J0D01*
G01*
X87125000Y-91675000D01*
G75*
G02*
X87000000Y-91550000I0J125000D01*
G01*
X87000000Y-90300000D01*
G75*
G02*
X87125000Y-90175000I125000J0D01*
G01*
X87375000Y-90175000D01*
G75*
G02*
X87500000Y-90300000I0J-125000D01*
G01*
G37*
G04 #@! TD.AperFunction*
G04 #@! TO.P,U602,27,PB4*
G04 #@! TO.N,unconnected-(U602-Pad27)*
G04 #@! TA.AperFunction,SMDPad,CuDef*
G36*
G01*
X88300000Y-90300000D02*
X88300000Y-91550000D01*
G75*
G02*
X88175000Y-91675000I-125000J0D01*
G01*
X87925000Y-91675000D01*
G75*
G02*
X87800000Y-91550000I0J125000D01*
G01*
X87800000Y-90300000D01*
G75*
G02*
X87925000Y-90175000I125000J0D01*
G01*
X88175000Y-90175000D01*
G75*
G02*
X88300000Y-90300000I0J-125000D01*
G01*
G37*
G04 #@! TD.AperFunction*
G04 #@! TO.P,U602,28,PB5*
G04 #@! TO.N,/LED_BLUE*
G04 #@! TA.AperFunction,SMDPad,CuDef*
G36*
G01*
X89100000Y-90300000D02*
X89100000Y-91550000D01*
G75*
G02*
X88975000Y-91675000I-125000J0D01*
G01*
X88725000Y-91675000D01*
G75*
G02*
X88600000Y-91550000I0J125000D01*
G01*
X88600000Y-90300000D01*
G75*
G02*
X88725000Y-90175000I125000J0D01*
G01*
X88975000Y-90175000D01*
G75*
G02*
X89100000Y-90300000I0J-125000D01*
G01*
G37*
G04 #@! TD.AperFunction*
G04 #@! TO.P,U602,29,PB6*
G04 #@! TO.N,/LED_GREEN*
G04 #@! TA.AperFunction,SMDPad,CuDef*
G36*
G01*
X89900000Y-90300000D02*
X89900000Y-91550000D01*
G75*
G02*
X89775000Y-91675000I-125000J0D01*
G01*
X89525000Y-91675000D01*
G75*
G02*
X89400000Y-91550000I0J125000D01*
G01*
X89400000Y-90300000D01*
G75*
G02*
X89525000Y-90175000I125000J0D01*
G01*
X89775000Y-90175000D01*
G75*
G02*
X89900000Y-90300000I0J-125000D01*
G01*
G37*
G04 #@! TD.AperFunction*
G04 #@! TO.P,U602,30,PB7*
G04 #@! TO.N,/Nernst_esr_drive*
G04 #@! TA.AperFunction,SMDPad,CuDef*
G36*
G01*
X90700000Y-90300000D02*
X90700000Y-91550000D01*
G75*
G02*
X90575000Y-91675000I-125000J0D01*
G01*
X90325000Y-91675000D01*
G75*
G02*
X90200000Y-91550000I0J125000D01*
G01*
X90200000Y-90300000D01*
G75*
G02*
X90325000Y-90175000I125000J0D01*
G01*
X90575000Y-90175000D01*
G75*
G02*
X90700000Y-90300000I0J-125000D01*
G01*
G37*
G04 #@! TD.AperFunction*
G04 #@! TO.P,U602,31,PB8*
G04 #@! TO.N,/Boot0*
G04 #@! TA.AperFunction,SMDPad,CuDef*
G36*
G01*
X91500000Y-90300000D02*
X91500000Y-91550000D01*
G75*
G02*
X91375000Y-91675000I-125000J0D01*
G01*
X91125000Y-91675000D01*
G75*
G02*
X91000000Y-91550000I0J125000D01*
G01*
X91000000Y-90300000D01*
G75*
G02*
X91125000Y-90175000I125000J0D01*
G01*
X91375000Y-90175000D01*
G75*
G02*
X91500000Y-90300000I0J-125000D01*
G01*
G37*
G04 #@! TD.AperFunction*
G04 #@! TO.P,U602,32,VSSA*
G04 #@! TO.N,GND*
G04 #@! TA.AperFunction,SMDPad,CuDef*
G36*
G01*
X92300000Y-90300000D02*
X92300000Y-91550000D01*
G75*
G02*
X92175000Y-91675000I-125000J0D01*
G01*
X91925000Y-91675000D01*
G75*
G02*
X91800000Y-91550000I0J125000D01*
G01*
X91800000Y-90300000D01*
G75*
G02*
X91925000Y-90175000I125000J0D01*
G01*
X92175000Y-90175000D01*
G75*
G02*
X92300000Y-90300000I0J-125000D01*
G01*
G37*
G04 #@! TD.AperFunction*
G04 #@! TD*
G04 #@! TO.P,R602,1*
G04 #@! TO.N,/Ip_dac*
G04 #@! TA.AperFunction,SMDPad,CuDef*
G36*
G01*
X94120000Y-83072500D02*
X94120000Y-82727500D01*
G75*
G02*
X94267500Y-82580000I147500J0D01*
G01*
X94562500Y-82580000D01*
G75*
G02*
X94710000Y-82727500I0J-147500D01*
G01*
X94710000Y-83072500D01*
G75*
G02*
X94562500Y-83220000I-147500J0D01*
G01*
X94267500Y-83220000D01*
G75*
G02*
X94120000Y-83072500I0J147500D01*
G01*
G37*
G04 #@! TD.AperFunction*
G04 #@! TO.P,R602,2*
G04 #@! TO.N,Net-(C603-Pad2)*
G04 #@! TA.AperFunction,SMDPad,CuDef*
G36*
G01*
X95090000Y-83072500D02*
X95090000Y-82727500D01*
G75*
G02*
X95237500Y-82580000I147500J0D01*
G01*
X95532500Y-82580000D01*
G75*
G02*
X95680000Y-82727500I0J-147500D01*
G01*
X95680000Y-83072500D01*
G75*
G02*
X95532500Y-83220000I-147500J0D01*
G01*
X95237500Y-83220000D01*
G75*
G02*
X95090000Y-83072500I0J147500D01*
G01*
G37*
G04 #@! TD.AperFunction*
G04 #@! TD*
G04 #@! TO.P,C604,1*
G04 #@! TO.N,+3V3*
G04 #@! TA.AperFunction,SMDPad,CuDef*
G36*
G01*
X97580000Y-82427500D02*
X97580000Y-82772500D01*
G75*
G02*
X97432500Y-82920000I-147500J0D01*
G01*
X97137500Y-82920000D01*
G75*
G02*
X96990000Y-82772500I0J147500D01*
G01*
X96990000Y-82427500D01*
G75*
G02*
X97137500Y-82280000I147500J0D01*
G01*
X97432500Y-82280000D01*
G75*
G02*
X97580000Y-82427500I0J-147500D01*
G01*
G37*
G04 #@! TD.AperFunction*
G04 #@! TO.P,C604,2*
G04 #@! TO.N,GND*
G04 #@! TA.AperFunction,SMDPad,CuDef*
G36*
G01*
X96610000Y-82427500D02*
X96610000Y-82772500D01*
G75*
G02*
X96462500Y-82920000I-147500J0D01*
G01*
X96167500Y-82920000D01*
G75*
G02*
X96020000Y-82772500I0J147500D01*
G01*
X96020000Y-82427500D01*
G75*
G02*
X96167500Y-82280000I147500J0D01*
G01*
X96462500Y-82280000D01*
G75*
G02*
X96610000Y-82427500I0J-147500D01*
G01*
G37*
G04 #@! TD.AperFunction*
G04 #@! TD*
G04 #@! TO.P,C606,1*
G04 #@! TO.N,+3V3*
G04 #@! TA.AperFunction,SMDPad,CuDef*
G36*
G01*
X96180000Y-88827500D02*
X96180000Y-89172500D01*
G75*
G02*
X96032500Y-89320000I-147500J0D01*
G01*
X95737500Y-89320000D01*
G75*
G02*
X95590000Y-89172500I0J147500D01*
G01*
X95590000Y-88827500D01*
G75*
G02*
X95737500Y-88680000I147500J0D01*
G01*
X96032500Y-88680000D01*
G75*
G02*
X96180000Y-88827500I0J-147500D01*
G01*
G37*
G04 #@! TD.AperFunction*
G04 #@! TO.P,C606,2*
G04 #@! TO.N,GND*
G04 #@! TA.AperFunction,SMDPad,CuDef*
G36*
G01*
X95210000Y-88827500D02*
X95210000Y-89172500D01*
G75*
G02*
X95062500Y-89320000I-147500J0D01*
G01*
X94767500Y-89320000D01*
G75*
G02*
X94620000Y-89172500I0J147500D01*
G01*
X94620000Y-88827500D01*
G75*
G02*
X94767500Y-88680000I147500J0D01*
G01*
X95062500Y-88680000D01*
G75*
G02*
X95210000Y-88827500I0J-147500D01*
G01*
G37*
G04 #@! TD.AperFunction*
G04 #@! TD*
G04 #@! TO.P,R628,1*
G04 #@! TO.N,Net-(D603-Pad2)*
G04 #@! TA.AperFunction,SMDPad,CuDef*
G36*
G01*
X82770050Y-84210050D02*
X83115050Y-84210050D01*
G75*
G02*
X83262550Y-84357550I0J-147500D01*
G01*
X83262550Y-84652550D01*
G75*
G02*
X83115050Y-84800050I-147500J0D01*
G01*
X82770050Y-84800050D01*
G75*
G02*
X82622550Y-84652550I0J147500D01*
G01*
X82622550Y-84357550D01*
G75*
G02*
X82770050Y-84210050I147500J0D01*
G01*
G37*
G04 #@! TD.AperFunction*
G04 #@! TO.P,R628,2*
G04 #@! TO.N,+3V3*
G04 #@! TA.AperFunction,SMDPad,CuDef*
G36*
G01*
X82770050Y-85180050D02*
X83115050Y-85180050D01*
G75*
G02*
X83262550Y-85327550I0J-147500D01*
G01*
X83262550Y-85622550D01*
G75*
G02*
X83115050Y-85770050I-147500J0D01*
G01*
X82770050Y-85770050D01*
G75*
G02*
X82622550Y-85622550I0J147500D01*
G01*
X82622550Y-85327550D01*
G75*
G02*
X82770050Y-85180050I147500J0D01*
G01*
G37*
G04 #@! TD.AperFunction*
G04 #@! TD*
G04 #@! TO.P,C609,1*
G04 #@! TO.N,/nRESET*
G04 #@! TA.AperFunction,SMDPad,CuDef*
G36*
G01*
X85127500Y-90905000D02*
X85472500Y-90905000D01*
G75*
G02*
X85620000Y-91052500I0J-147500D01*
G01*
X85620000Y-91347500D01*
G75*
G02*
X85472500Y-91495000I-147500J0D01*
G01*
X85127500Y-91495000D01*
G75*
G02*
X84980000Y-91347500I0J147500D01*
G01*
X84980000Y-91052500D01*
G75*
G02*
X85127500Y-90905000I147500J0D01*
G01*
G37*
G04 #@! TD.AperFunction*
G04 #@! TO.P,C609,2*
G04 #@! TO.N,GND*
G04 #@! TA.AperFunction,SMDPad,CuDef*
G36*
G01*
X85127500Y-91875000D02*
X85472500Y-91875000D01*
G75*
G02*
X85620000Y-92022500I0J-147500D01*
G01*
X85620000Y-92317500D01*
G75*
G02*
X85472500Y-92465000I-147500J0D01*
G01*
X85127500Y-92465000D01*
G75*
G02*
X84980000Y-92317500I0J147500D01*
G01*
X84980000Y-92022500D01*
G75*
G02*
X85127500Y-91875000I147500J0D01*
G01*
G37*
G04 #@! TD.AperFunction*
G04 #@! TD*
G04 #@! TO.P,C610,1*
G04 #@! TO.N,+5V*
G04 #@! TA.AperFunction,SMDPad,CuDef*
G36*
G01*
X79097000Y-85232500D02*
X79097000Y-84887500D01*
G75*
G02*
X79244500Y-84740000I147500J0D01*
G01*
X79539500Y-84740000D01*
G75*
G02*
X79687000Y-84887500I0J-147500D01*
G01*
X79687000Y-85232500D01*
G75*
G02*
X79539500Y-85380000I-147500J0D01*
G01*
X79244500Y-85380000D01*
G75*
G02*
X79097000Y-85232500I0J147500D01*
G01*
G37*
G04 #@! TD.AperFunction*
G04 #@! TO.P,C610,2*
G04 #@! TO.N,GND*
G04 #@! TA.AperFunction,SMDPad,CuDef*
G36*
G01*
X80067000Y-85232500D02*
X80067000Y-84887500D01*
G75*
G02*
X80214500Y-84740000I147500J0D01*
G01*
X80509500Y-84740000D01*
G75*
G02*
X80657000Y-84887500I0J-147500D01*
G01*
X80657000Y-85232500D01*
G75*
G02*
X80509500Y-85380000I-147500J0D01*
G01*
X80214500Y-85380000D01*
G75*
G02*
X80067000Y-85232500I0J147500D01*
G01*
G37*
G04 #@! TD.AperFunction*
G04 #@! TD*
D15*
G04 #@! TO.P,U603,1,IN*
G04 #@! TO.N,+5V*
X79435000Y-83774000D03*
G04 #@! TO.P,U603,2,OUT*
G04 #@! TO.N,VDDA*
X81335000Y-83774000D03*
G04 #@! TO.P,U603,3,GND*
G04 #@! TO.N,GND*
X80385000Y-81774000D03*
G04 #@! TD*
G04 #@! TO.P,R600,1*
G04 #@! TO.N,VDDA*
G04 #@! TA.AperFunction,SMDPad,CuDef*
G36*
G01*
X105201500Y-89807000D02*
X104856500Y-89807000D01*
G75*
G02*
X104709000Y-89659500I0J147500D01*
G01*
X104709000Y-89364500D01*
G75*
G02*
X104856500Y-89217000I147500J0D01*
G01*
X105201500Y-89217000D01*
G75*
G02*
X105349000Y-89364500I0J-147500D01*
G01*
X105349000Y-89659500D01*
G75*
G02*
X105201500Y-89807000I-147500J0D01*
G01*
G37*
G04 #@! TD.AperFunction*
G04 #@! TO.P,R600,2*
G04 #@! TO.N,Net-(C600-Pad1)*
G04 #@! TA.AperFunction,SMDPad,CuDef*
G36*
G01*
X105201500Y-88837000D02*
X104856500Y-88837000D01*
G75*
G02*
X104709000Y-88689500I0J147500D01*
G01*
X104709000Y-88394500D01*
G75*
G02*
X104856500Y-88247000I147500J0D01*
G01*
X105201500Y-88247000D01*
G75*
G02*
X105349000Y-88394500I0J-147500D01*
G01*
X105349000Y-88689500D01*
G75*
G02*
X105201500Y-88837000I-147500J0D01*
G01*
G37*
G04 #@! TD.AperFunction*
G04 #@! TD*
G04 #@! TO.P,D603,1,K*
G04 #@! TO.N,GND*
G04 #@! TA.AperFunction,SMDPad,CuDef*
G36*
G01*
X82761300Y-81255050D02*
X83273800Y-81255050D01*
G75*
G02*
X83492550Y-81473800I0J-218750D01*
G01*
X83492550Y-81911300D01*
G75*
G02*
X83273800Y-82130050I-218750J0D01*
G01*
X82761300Y-82130050D01*
G75*
G02*
X82542550Y-81911300I0J218750D01*
G01*
X82542550Y-81473800D01*
G75*
G02*
X82761300Y-81255050I218750J0D01*
G01*
G37*
G04 #@! TD.AperFunction*
G04 #@! TO.P,D603,2,A*
G04 #@! TO.N,Net-(D603-Pad2)*
G04 #@! TA.AperFunction,SMDPad,CuDef*
G36*
G01*
X82761300Y-82830050D02*
X83273800Y-82830050D01*
G75*
G02*
X83492550Y-83048800I0J-218750D01*
G01*
X83492550Y-83486300D01*
G75*
G02*
X83273800Y-83705050I-218750J0D01*
G01*
X82761300Y-83705050D01*
G75*
G02*
X82542550Y-83486300I0J218750D01*
G01*
X82542550Y-83048800D01*
G75*
G02*
X82761300Y-82830050I218750J0D01*
G01*
G37*
G04 #@! TD.AperFunction*
G04 #@! TD*
D16*
G04 #@! TO.P,M600,E1,LSU_Un*
G04 #@! TO.N,/LSU_Un*
X116500000Y-93400000D03*
G04 #@! TO.P,M600,E2,LSU_Vm*
G04 #@! TO.N,/LSU_Vm*
X116500000Y-92400000D03*
G04 #@! TO.P,M600,E3,LSU_Ip*
G04 #@! TO.N,/LSU_Ip*
X116500000Y-91400000D03*
G04 #@! TO.P,M600,E4,LSU_Rtrim*
G04 #@! TO.N,/LSU_Rtrim*
X116500000Y-90400000D03*
D17*
G04 #@! TO.P,M600,E5,LSU_H+*
G04 #@! TO.N,/LSU_H+*
X115250000Y-88250000D03*
G04 #@! TO.P,M600,E6,LSU_H-*
G04 #@! TO.N,/LSU_H-*
X115250000Y-84750000D03*
D18*
G04 #@! TO.P,M600,G,GND*
G04 #@! TO.N,GND*
X97375000Y-80125000D03*
D19*
X77875000Y-81550000D03*
D20*
X77875000Y-86525000D03*
D21*
X116875000Y-81475000D03*
D22*
X77875000Y-92475000D03*
D23*
X116875000Y-94525000D03*
D18*
X97375000Y-94875000D03*
D16*
G04 #@! TO.P,M600,W1,5V_IN*
G04 #@! TO.N,+5V*
X78250000Y-83750000D03*
G04 #@! TO.P,M600,W2,CAN_VIO*
G04 #@! TO.N,+3V3*
X78250000Y-84750000D03*
G04 #@! TO.P,M600,W3,CAN_RX*
G04 #@! TO.N,/CAN_RX*
X78250000Y-88300000D03*
G04 #@! TO.P,M600,W4,CAN_TX*
G04 #@! TO.N,/CAN_TX*
X78250000Y-89300000D03*
G04 #@! TD*
D24*
G04 #@! TO.P,J600,1,Pin_1*
G04 #@! TO.N,+3V3*
X80030000Y-92935000D03*
G04 #@! TO.P,J600,2,Pin_2*
G04 #@! TO.N,/SWDIO*
X80030000Y-91665000D03*
G04 #@! TO.P,J600,3,Pin_3*
G04 #@! TO.N,/nRESET*
X81300000Y-92935000D03*
G04 #@! TO.P,J600,4,Pin_4*
G04 #@! TO.N,/SWCLK*
X81300000Y-91665000D03*
G04 #@! TO.P,J600,5,Pin_5*
G04 #@! TO.N,GND*
X82570000Y-92935000D03*
G04 #@! TO.P,J600,6,Pin_6*
G04 #@! TO.N,unconnected-(J600-Pad6)*
X82570000Y-91665000D03*
G04 #@! TD*
D25*
G04 #@! TO.N,GND*
X102000000Y-88900000D03*
X106800000Y-86900000D03*
X85300000Y-93100000D03*
X79050000Y-93350000D03*
X78350000Y-85650000D03*
X112400000Y-93300000D03*
X107000000Y-84250000D03*
X112550000Y-80600000D03*
X86900000Y-86600000D03*
X96250000Y-81800000D03*
X116500000Y-82650000D03*
X100150000Y-82100000D03*
X93550000Y-93750000D03*
X84650000Y-80600000D03*
X94800000Y-94500000D03*
X113050000Y-84600000D03*
X78300000Y-94500000D03*
X101000000Y-94500000D03*
X81350000Y-85050000D03*
X88900000Y-87650000D03*
X84500000Y-94450000D03*
X94750000Y-88250000D03*
X116400000Y-80550000D03*
X108300000Y-94500000D03*
X103950000Y-93250000D03*
X78200000Y-82850000D03*
X106781600Y-89306400D03*
X82750000Y-94150000D03*
X78300000Y-87400000D03*
X110350000Y-84350000D03*
X87000000Y-80950000D03*
X94950000Y-83700000D03*
X92900000Y-91700000D03*
X96100000Y-92250000D03*
X78350000Y-90250000D03*
X87850000Y-94450000D03*
X91350000Y-87300000D03*
X88200000Y-84050000D03*
X85450000Y-81550000D03*
X90850000Y-94250000D03*
X116550000Y-94500000D03*
X81800000Y-81600000D03*
X81274000Y-87473000D03*
X78150000Y-80450000D03*
X79350000Y-81700000D03*
G04 #@! TO.N,/LSU_Rtrim*
X101250000Y-84500000D03*
G04 #@! TO.N,/LSU_Vm*
X92000000Y-84750000D03*
X103886000Y-86233000D03*
X99600000Y-87600000D03*
X101300000Y-93000000D03*
G04 #@! TO.N,/LSU_Ip*
X103100000Y-84500000D03*
G04 #@! TO.N,+3V3*
X106807000Y-88519000D03*
X99650000Y-83300000D03*
X106807000Y-91236800D03*
X102000000Y-88000000D03*
X79900000Y-93700000D03*
X92900000Y-90850000D03*
X83900000Y-84100000D03*
G04 #@! TO.N,/nRESET*
X91940000Y-88240000D03*
X80700000Y-93650000D03*
X85350000Y-90450000D03*
G04 #@! TO.N,/Vm*
X102250000Y-86750000D03*
X92000000Y-83950000D03*
X99200000Y-86800000D03*
X104450000Y-83600000D03*
G04 #@! TO.N,/Un_sense*
X98600000Y-90850000D03*
X91998800Y-86334600D03*
G04 #@! TO.N,/Ip_dac*
X91186000Y-83845400D03*
X93650000Y-82550000D03*
G04 #@! TO.N,/Nernst_esr_drive*
X95750000Y-93013408D03*
X89750000Y-89650000D03*
G04 #@! TO.N,/CAN_TX*
X86250096Y-87488462D03*
G04 #@! TO.N,/CAN_RX*
X84000000Y-87090100D03*
G04 #@! TO.N,/heater_pwm*
X106300000Y-81300000D03*
X89800000Y-81100000D03*
G04 #@! TO.N,/Boot0*
X87500000Y-89000000D03*
X83750000Y-89250000D03*
G04 #@! TO.N,Net-(R613-Pad1)*
X102350000Y-82200000D03*
X99950000Y-81350000D03*
G04 #@! TO.N,/SWDIO*
X86450000Y-88300000D03*
X80500000Y-91200000D03*
G04 #@! TO.N,VDDA*
X81340000Y-82740000D03*
X95758000Y-86995000D03*
X101600000Y-90200000D03*
X99000000Y-89400000D03*
X104927400Y-90195400D03*
G04 #@! TO.N,/LSU_H-*
X109150000Y-81950000D03*
X109950000Y-81950000D03*
X115250000Y-82700000D03*
X109950000Y-83050000D03*
X109150000Y-83050000D03*
X115250000Y-81750000D03*
X114100000Y-81750000D03*
X114100000Y-82700000D03*
G04 #@! TD*
D26*
G04 #@! TO.N,GND*
X92900000Y-91700000D02*
X92900000Y-91750000D01*
X106181000Y-86900000D02*
X105918000Y-86637000D01*
X106045000Y-89512000D02*
X106576000Y-89512000D01*
X93703000Y-92553000D02*
X93703000Y-92710000D01*
X106800000Y-86900000D02*
X106181000Y-86900000D01*
X105895000Y-85598000D02*
X105895000Y-86614000D01*
D27*
X82265000Y-88435000D02*
X82302400Y-88397600D01*
D26*
X84715000Y-81550000D02*
X84650000Y-81615000D01*
D27*
X82265000Y-89750000D02*
X82265000Y-88435000D01*
D26*
X106576000Y-89512000D02*
X106781600Y-89306400D01*
X85450000Y-81550000D02*
X84715000Y-81550000D01*
X92125000Y-90925000D02*
X92900000Y-91700000D01*
X96115500Y-92265500D02*
X96100000Y-92250000D01*
D27*
X81258000Y-88397600D02*
X82302400Y-88397600D01*
D26*
X100350000Y-82300000D02*
X100150000Y-82100000D01*
X86175000Y-81550000D02*
X86450000Y-81825000D01*
D27*
X82914900Y-88397600D02*
X82925000Y-88387500D01*
D26*
X85450000Y-81550000D02*
X86175000Y-81550000D01*
X92900000Y-91750000D02*
X93703000Y-92553000D01*
D27*
X82302400Y-88397600D02*
X82914900Y-88397600D01*
D26*
X101260000Y-82300000D02*
X100350000Y-82300000D01*
X103280000Y-88900000D02*
X102000000Y-88900000D01*
X86450000Y-81825000D02*
X86450000Y-82575000D01*
X104902000Y-86637000D02*
X105918000Y-86637000D01*
X92050000Y-90925000D02*
X92125000Y-90925000D01*
X96116000Y-92266000D02*
X96100000Y-92250000D01*
X105895000Y-86614000D02*
X105918000Y-86637000D01*
G04 #@! TO.N,/LSU_Rtrim*
X97850000Y-84605000D02*
X98806000Y-84605000D01*
X99464000Y-83947000D02*
X100203000Y-83947000D01*
X101066500Y-85344000D02*
X101066500Y-85333500D01*
X101066500Y-85344000D02*
X101066500Y-84683500D01*
X101066500Y-85333500D02*
X101150000Y-85250000D01*
X100203000Y-83947000D02*
X100457000Y-84201000D01*
X101935000Y-84500000D02*
X102650000Y-83785000D01*
X100457000Y-84734500D02*
X101066500Y-85344000D01*
X101250000Y-84500000D02*
X101935000Y-84500000D01*
X98806000Y-84605000D02*
X99464000Y-83947000D01*
X101066500Y-84683500D02*
X101250000Y-84500000D01*
X100457000Y-84201000D02*
X100457000Y-84734500D01*
G04 #@! TO.N,/LSU_Un*
X103280000Y-89550000D02*
X104155000Y-89550000D01*
X104155000Y-89550000D02*
X104330500Y-89725500D01*
X104330500Y-92380500D02*
X105050000Y-93100000D01*
X105050000Y-93450000D02*
X105310120Y-93710120D01*
X105310120Y-93710120D02*
X106439880Y-93710120D01*
X107650000Y-92500000D02*
X115600000Y-92500000D01*
X104330500Y-92329000D02*
X103736000Y-92329000D01*
X104330500Y-89725500D02*
X104330500Y-92329000D01*
X103736000Y-92329000D02*
X103672500Y-92265500D01*
X106439880Y-93710120D02*
X107650000Y-92500000D01*
X105050000Y-93100000D02*
X105050000Y-93450000D01*
X104330500Y-92329000D02*
X104330500Y-92380500D01*
X115600000Y-92500000D02*
X116500000Y-93400000D01*
G04 #@! TO.N,/LSU_Vm*
X104902000Y-85575000D02*
X104925000Y-85598000D01*
X99600000Y-87600000D02*
X101040111Y-86159889D01*
X101659889Y-86159889D02*
X101340111Y-86159889D01*
X100696481Y-93603519D02*
X95353519Y-93603519D01*
X93425000Y-84750000D02*
X92000000Y-84750000D01*
X94900000Y-93150000D02*
X94900000Y-91535000D01*
X103812889Y-86159889D02*
X101659889Y-86159889D01*
X103886000Y-85575000D02*
X104902000Y-85575000D01*
X103886000Y-85575000D02*
X103886000Y-86233000D01*
X95353519Y-93603519D02*
X94900000Y-93150000D01*
X103886000Y-86233000D02*
X103812889Y-86159889D01*
X101300000Y-93000000D02*
X100696481Y-93603519D01*
X101040111Y-86159889D02*
X101659889Y-86159889D01*
G04 #@! TO.N,/LSU_Ip*
X103100000Y-84500000D02*
X103100000Y-84885500D01*
X103100000Y-84500000D02*
X103100000Y-84350000D01*
X103100000Y-84885500D02*
X102641500Y-85344000D01*
X103100000Y-84350000D02*
X103650000Y-83800000D01*
X102641500Y-85344000D02*
X102656000Y-85344000D01*
X103650000Y-83800000D02*
X103650000Y-83585000D01*
D27*
G04 #@! TO.N,+5V*
X79519000Y-87708600D02*
X79258000Y-87447600D01*
X79715111Y-85965111D02*
X79465111Y-85715111D01*
X79715111Y-86990489D02*
X79715111Y-85965111D01*
X79435000Y-83774000D02*
X78274000Y-83774000D01*
X79258000Y-87447600D02*
X79715111Y-86990489D01*
X79465111Y-85133111D02*
X79392000Y-85060000D01*
X79519000Y-89759000D02*
X79519000Y-87708600D01*
X79465111Y-85715111D02*
X79465111Y-85133111D01*
X78274000Y-83774000D02*
X78250000Y-83750000D01*
X79435000Y-85017000D02*
X79392000Y-85060000D01*
X79435000Y-83774000D02*
X79435000Y-85017000D01*
D26*
G04 #@! TO.N,+3V3*
X98093172Y-88900000D02*
X97380000Y-88900000D01*
X97285000Y-82600000D02*
X97285000Y-83085000D01*
X82942550Y-85475050D02*
X83274950Y-85475050D01*
X79900000Y-93065000D02*
X80030000Y-92935000D01*
X84650000Y-82585000D02*
X84650000Y-82800000D01*
X106020000Y-91000000D02*
X106570200Y-91000000D01*
X92700000Y-89550000D02*
X92000000Y-88850000D01*
X93485120Y-89610120D02*
X93425000Y-89550000D01*
D27*
X82925000Y-86812500D02*
X83026500Y-86812500D01*
D26*
X98640000Y-83250000D02*
X99600000Y-83250000D01*
X95885000Y-89320000D02*
X95594880Y-89610120D01*
X86680000Y-83950000D02*
X85075000Y-83950000D01*
X93750000Y-90565000D02*
X93750000Y-89875000D01*
D27*
X81258000Y-86497600D02*
X82102400Y-86497600D01*
D26*
X83750000Y-84250000D02*
X83900000Y-84100000D01*
X83900000Y-84100000D02*
X84050000Y-83950000D01*
X95985000Y-88900000D02*
X95885000Y-89000000D01*
X98475000Y-83085000D02*
X98640000Y-83250000D01*
X106784000Y-88542000D02*
X106807000Y-88519000D01*
D27*
X82610100Y-86497600D02*
X82925000Y-86812500D01*
D26*
X84050000Y-83950000D02*
X85075000Y-83950000D01*
X93425000Y-89550000D02*
X92700000Y-89550000D01*
X97285000Y-83085000D02*
X97285000Y-83600000D01*
X106570200Y-91000000D02*
X106807000Y-91236800D01*
X91580000Y-88850000D02*
X86680000Y-83950000D01*
X85075000Y-83950000D02*
X85075000Y-83225000D01*
X92000000Y-88850000D02*
X91580000Y-88850000D01*
X93750000Y-90565000D02*
X93185000Y-90565000D01*
X93750000Y-89875000D02*
X93425000Y-89550000D01*
X102000000Y-88000000D02*
X101234880Y-88765120D01*
X83750000Y-85000000D02*
X83750000Y-84250000D01*
X98228052Y-88765120D02*
X98093172Y-88900000D01*
X101234880Y-88765120D02*
X98228052Y-88765120D01*
X95594880Y-89610120D02*
X93485120Y-89610120D01*
X95885000Y-89000000D02*
X95885000Y-89320000D01*
D27*
X82925000Y-86812500D02*
X82925000Y-85492600D01*
D26*
X93185000Y-90565000D02*
X92900000Y-90850000D01*
D27*
X82925000Y-85492600D02*
X82942550Y-85475050D01*
X82102400Y-86497600D02*
X82610100Y-86497600D01*
D26*
X83274950Y-85475050D02*
X83750000Y-85000000D01*
X85075000Y-83225000D02*
X85050000Y-83200000D01*
X97380000Y-88900000D02*
X95985000Y-88900000D01*
X106045000Y-88542000D02*
X106784000Y-88542000D01*
X99600000Y-83250000D02*
X99650000Y-83300000D01*
X97285000Y-83085000D02*
X98475000Y-83085000D01*
X79900000Y-93700000D02*
X79900000Y-93065000D01*
X84650000Y-82800000D02*
X85050000Y-83200000D01*
G04 #@! TO.N,/nRESET*
X80700000Y-93535000D02*
X81300000Y-92935000D01*
X91940000Y-88240000D02*
X91940000Y-87620000D01*
X92410000Y-87150000D02*
X93425000Y-87150000D01*
X85350000Y-91150000D02*
X85300000Y-91200000D01*
X80700000Y-93650000D02*
X80700000Y-93535000D01*
X85350000Y-90450000D02*
X85350000Y-91150000D01*
X91940000Y-87620000D02*
X92410000Y-87150000D01*
G04 #@! TO.N,Net-(C600-Pad1)*
X104544000Y-88542000D02*
X105029000Y-88542000D01*
X104902000Y-87607000D02*
X105918000Y-87607000D01*
X105029000Y-88542000D02*
X105029000Y-87734000D01*
X105029000Y-87734000D02*
X104902000Y-87607000D01*
X104252000Y-88250000D02*
X104544000Y-88542000D01*
X103280000Y-88250000D02*
X104252000Y-88250000D01*
G04 #@! TO.N,/LSU_Un_sense*
X102500000Y-90200000D02*
X102150000Y-90550000D01*
X102150000Y-90850000D02*
X103280000Y-90850000D01*
X101151000Y-90850000D02*
X102150000Y-90850000D01*
X103280000Y-90200000D02*
X102500000Y-90200000D01*
X99735500Y-92265500D02*
X101151000Y-90850000D01*
X102150000Y-90550000D02*
X102150000Y-90850000D01*
G04 #@! TO.N,/Vm*
X99200000Y-86800000D02*
X99200000Y-86197000D01*
X103280000Y-86950000D02*
X104158500Y-86950000D01*
X103886000Y-84605000D02*
X103886000Y-84582000D01*
X103886000Y-84605000D02*
X103895000Y-84605000D01*
X98915120Y-88165120D02*
X99000000Y-88250000D01*
X99200000Y-86800000D02*
X98915120Y-87084880D01*
X104450000Y-83600000D02*
X104390880Y-83540880D01*
X100500000Y-88250000D02*
X102000000Y-86750000D01*
X103895000Y-84605000D02*
X104300000Y-84200000D01*
X102450000Y-86950000D02*
X103280000Y-86950000D01*
X104300000Y-84200000D02*
X104300000Y-83750000D01*
X99000000Y-88250000D02*
X100500000Y-88250000D01*
X104267000Y-87439500D02*
X104106500Y-87600000D01*
X104267000Y-87058500D02*
X104267000Y-87439500D01*
X104106500Y-87600000D02*
X103280000Y-87600000D01*
X103280000Y-87600000D02*
X103145111Y-87734889D01*
X102000000Y-86750000D02*
X102250000Y-86750000D01*
X104158500Y-86950000D02*
X104267000Y-87058500D01*
X103585000Y-81611112D02*
X103585000Y-81300000D01*
X104390880Y-82416992D02*
X103585000Y-81611112D01*
X98915120Y-87084880D02*
X98915120Y-88165120D01*
X99200000Y-86197000D02*
X99822000Y-85575000D01*
X92000000Y-83950000D02*
X92000000Y-82625000D01*
X104390880Y-83540880D02*
X104390880Y-82416992D01*
X102250000Y-86750000D02*
X102450000Y-86950000D01*
X104300000Y-83750000D02*
X104450000Y-83600000D01*
X92000000Y-82625000D02*
X92050000Y-82575000D01*
G04 #@! TO.N,/Ip_sense*
X94415000Y-81000000D02*
X94415000Y-81950000D01*
X93000000Y-82800000D02*
X93425000Y-83225000D01*
X93425000Y-83225000D02*
X93425000Y-83950000D01*
X93000000Y-82150000D02*
X93000000Y-82800000D01*
X93200000Y-81950000D02*
X93000000Y-82150000D01*
X94415000Y-81950000D02*
X93200000Y-81950000D01*
G04 #@! TO.N,/Un_sense*
X92275400Y-85550000D02*
X91998800Y-85826600D01*
X96325000Y-90850000D02*
X97380000Y-90850000D01*
X95885000Y-91290000D02*
X96325000Y-90850000D01*
X95900000Y-91305000D02*
X95885000Y-91290000D01*
X93425000Y-85550000D02*
X92275400Y-85550000D01*
X91998800Y-85826600D02*
X91998800Y-86334600D01*
X97380000Y-90850000D02*
X98600000Y-90850000D01*
G04 #@! TO.N,Net-(C603-Pad1)*
X97850000Y-85575000D02*
X97850000Y-86000000D01*
X97827000Y-85598000D02*
X97850000Y-85575000D01*
X96878000Y-84582000D02*
X96878000Y-85598000D01*
X97767000Y-85598000D02*
X97790000Y-85575000D01*
X96878000Y-85598000D02*
X97827000Y-85598000D01*
X97380000Y-86470000D02*
X97380000Y-86950000D01*
X97850000Y-86000000D02*
X97380000Y-86470000D01*
G04 #@! TO.N,Net-(C603-Pad2)*
X95650000Y-84324000D02*
X95908000Y-84582000D01*
X95908000Y-85598000D02*
X95908000Y-84582000D01*
X96350000Y-87600000D02*
X96350000Y-86040000D01*
X97380000Y-87600000D02*
X96350000Y-87600000D01*
X95650000Y-83450000D02*
X95650000Y-84324000D01*
X96350000Y-86040000D02*
X95908000Y-85598000D01*
X95385000Y-82900000D02*
X95385000Y-83185000D01*
X95385000Y-83185000D02*
X95650000Y-83450000D01*
G04 #@! TO.N,Net-(C605-Pad2)*
X101704000Y-92265500D02*
X102702500Y-92265500D01*
G04 #@! TO.N,Net-(D600-Pad2)*
X105156000Y-81906000D02*
X105156000Y-82778500D01*
X104600000Y-81350000D02*
X105156000Y-81906000D01*
G04 #@! TO.N,Net-(D601-Pad1)*
X92733000Y-92710000D02*
X91465500Y-92710000D01*
G04 #@! TO.N,/Ip_dac*
X89650000Y-83427000D02*
X89916000Y-83693000D01*
X94415000Y-82900000D02*
X94000000Y-82900000D01*
X91033600Y-83693000D02*
X91186000Y-83845400D01*
X94000000Y-82900000D02*
X93650000Y-82550000D01*
X89916000Y-83693000D02*
X91033600Y-83693000D01*
X89650000Y-82575000D02*
X89650000Y-83427000D01*
G04 #@! TO.N,/Nernst_esr_drive*
X90450000Y-90350000D02*
X90450000Y-90925000D01*
X100734000Y-92516000D02*
X100734000Y-92265500D01*
X89750000Y-89650000D02*
X90450000Y-90350000D01*
X100236592Y-93013408D02*
X100734000Y-92516000D01*
X95750000Y-93013408D02*
X100236592Y-93013408D01*
G04 #@! TO.N,/CAN_TX*
X86250096Y-87488462D02*
X86153507Y-87488462D01*
X86153507Y-87488462D02*
X85691969Y-87950000D01*
G04 #@! TO.N,/CAN_RX*
X85075000Y-87150000D02*
X84059900Y-87150000D01*
X84059900Y-87150000D02*
X84000000Y-87090100D01*
G04 #@! TO.N,/heater_pwm*
X106250000Y-81350000D02*
X105570000Y-81350000D01*
X88850000Y-82575000D02*
X88850000Y-81150000D01*
X106300000Y-81300000D02*
X106250000Y-81350000D01*
X89000000Y-81000000D02*
X89700000Y-81000000D01*
X106400000Y-81400000D02*
X106300000Y-81300000D01*
X89700000Y-81000000D02*
X89800000Y-81100000D01*
X88850000Y-81150000D02*
X89000000Y-81000000D01*
X106400000Y-82315000D02*
X106400000Y-81400000D01*
G04 #@! TO.N,Net-(D602-Pad1)*
X86842500Y-92710000D02*
X86842500Y-93942500D01*
X86842500Y-93942500D02*
X86850000Y-93950000D01*
G04 #@! TO.N,Net-(D603-Pad2)*
X83017550Y-84430050D02*
X82942550Y-84505050D01*
X83017550Y-83267550D02*
X83017550Y-84430050D01*
G04 #@! TO.N,Net-(Q600-Pad1)*
X106400000Y-83285000D02*
X106720000Y-83285000D01*
X106720000Y-83285000D02*
X107010120Y-82994880D01*
X112680000Y-81880000D02*
X112680000Y-82475000D01*
X107372800Y-80800000D02*
X111600000Y-80800000D01*
X107010120Y-81162680D02*
X107372800Y-80800000D01*
X112680000Y-82475000D02*
X112480000Y-82475000D01*
X107010120Y-82994880D02*
X107010120Y-81162680D01*
X111600000Y-80800000D02*
X112680000Y-81880000D01*
G04 #@! TO.N,Net-(R603-Pad1)*
X98806000Y-85575000D02*
X98852000Y-85575000D01*
X98852000Y-85575000D02*
X99822000Y-84605000D01*
X98300000Y-88250000D02*
X98500000Y-88050000D01*
X98500000Y-88050000D02*
X98500000Y-85881000D01*
X97380000Y-88250000D02*
X98300000Y-88250000D01*
X98500000Y-85881000D02*
X98806000Y-85575000D01*
G04 #@! TO.N,Net-(R610-Pad1)*
X105050000Y-92050000D02*
X105050000Y-91000000D01*
G04 #@! TO.N,Net-(R611-Pad1)*
X106020000Y-93100000D02*
X106020000Y-92050000D01*
G04 #@! TO.N,/Boot0*
X83235000Y-89750000D02*
X83250000Y-89750000D01*
X89950000Y-89000000D02*
X87500000Y-89000000D01*
X91250000Y-90925000D02*
X91250000Y-90300000D01*
X83250000Y-89750000D02*
X83750000Y-89250000D01*
X91250000Y-90300000D02*
X89950000Y-89000000D01*
G04 #@! TO.N,Net-(R613-Pad1)*
X99950000Y-81350000D02*
X98640000Y-81350000D01*
X102650000Y-82500000D02*
X102650000Y-82815000D01*
X97285000Y-81000000D02*
X98290000Y-81000000D01*
X102350000Y-82200000D02*
X102650000Y-82500000D01*
X98290000Y-81000000D02*
X98640000Y-81350000D01*
G04 #@! TO.N,Net-(R614-Pad1)*
X101260000Y-81350000D02*
X102565000Y-81350000D01*
X103650000Y-82335000D02*
X102615000Y-81300000D01*
X102565000Y-81350000D02*
X102615000Y-81300000D01*
X103650000Y-82615000D02*
X103650000Y-82335000D01*
G04 #@! TO.N,/LED_BLUE*
X88417500Y-92710000D02*
X88850000Y-92277500D01*
X88850000Y-92277500D02*
X88850000Y-90925000D01*
G04 #@! TO.N,/LED_GREEN*
X89650000Y-92469500D02*
X89890500Y-92710000D01*
X89650000Y-90925000D02*
X89650000Y-92469500D01*
G04 #@! TO.N,Net-(R618-Pad2)*
X94900000Y-90415000D02*
X95790000Y-90415000D01*
X96005000Y-90200000D02*
X95885000Y-90320000D01*
X95790000Y-90415000D02*
X95885000Y-90320000D01*
X97380000Y-90200000D02*
X96005000Y-90200000D01*
G04 #@! TO.N,Net-(R619-Pad2)*
X99250000Y-90500000D02*
X99250000Y-91050000D01*
X98300000Y-89550000D02*
X99250000Y-90500000D01*
X97380000Y-89550000D02*
X98300000Y-89550000D01*
X97767000Y-92265500D02*
X98765500Y-92265500D01*
X99250000Y-91050000D02*
X98765500Y-91534500D01*
X98765500Y-91534500D02*
X98765500Y-92265500D01*
G04 #@! TO.N,/SWCLK*
X83500000Y-90550000D02*
X84500000Y-89550000D01*
X84500000Y-89550000D02*
X85075000Y-89550000D01*
X81300000Y-91665000D02*
X82415000Y-90550000D01*
X82415000Y-90550000D02*
X83500000Y-90550000D01*
G04 #@! TO.N,/SWDIO*
X80030000Y-91665000D02*
X80035000Y-91665000D01*
X80035000Y-91665000D02*
X80500000Y-91200000D01*
X86000000Y-88750000D02*
X85075000Y-88750000D01*
X86450000Y-88300000D02*
X86000000Y-88750000D01*
G04 #@! TO.N,Net-(R621-Pad1)*
X95385000Y-81000000D02*
X96315000Y-81000000D01*
X97500000Y-81750000D02*
X97065000Y-81750000D01*
X99800000Y-82600000D02*
X100450000Y-83250000D01*
X98350000Y-82600000D02*
X97500000Y-81750000D01*
X99800000Y-82600000D02*
X98350000Y-82600000D01*
X97065000Y-81750000D02*
X96315000Y-81000000D01*
X100450000Y-83250000D02*
X101260000Y-83250000D01*
D28*
G04 #@! TO.N,/LSU_H+*
X110725000Y-88250000D02*
X110200000Y-88775000D01*
X115250000Y-88250000D02*
X110725000Y-88250000D01*
D26*
G04 #@! TO.N,VDDA*
X93425000Y-86350000D02*
X94835000Y-86350000D01*
X94950000Y-85535000D02*
X94950000Y-86465000D01*
X94950000Y-86465000D02*
X95228000Y-86465000D01*
X95228000Y-86465000D02*
X95758000Y-86995000D01*
X81335000Y-82745000D02*
X81335000Y-83774000D01*
X94950000Y-86465000D02*
X95015000Y-86465000D01*
X81340000Y-82740000D02*
X81335000Y-82745000D01*
X101600000Y-90200000D02*
X99800000Y-90200000D01*
X104965500Y-89512000D02*
X104965500Y-89494500D01*
D27*
X81335000Y-83774000D02*
X81446000Y-83663000D01*
D26*
X94835000Y-86350000D02*
X94950000Y-86465000D01*
X99800000Y-90200000D02*
X99000000Y-89400000D01*
X105029000Y-90093800D02*
X104927400Y-90195400D01*
X105029000Y-89512000D02*
X105029000Y-90093800D01*
G04 #@! TD*
G04 #@! TA.AperFunction,Conductor*
G04 #@! TO.N,/LSU_H-*
G36*
X110242121Y-81320002D02*
G01*
X110288614Y-81373658D01*
X110300000Y-81426000D01*
X110300000Y-83524000D01*
X110279998Y-83592121D01*
X110226342Y-83638614D01*
X110174000Y-83650000D01*
X107646000Y-83650000D01*
X107577879Y-83629998D01*
X107531386Y-83576342D01*
X107520000Y-83524000D01*
X107520000Y-81426000D01*
X107540002Y-81357879D01*
X107593658Y-81311386D01*
X107646000Y-81300000D01*
X110174000Y-81300000D01*
X110242121Y-81320002D01*
G37*
G04 #@! TD.AperFunction*
G04 #@! TD*
G04 #@! TA.AperFunction,Conductor*
G04 #@! TO.N,GND*
G36*
X116942121Y-80020002D02*
G01*
X116988614Y-80073658D01*
X117000000Y-80126000D01*
X117000000Y-82824000D01*
X116979998Y-82892121D01*
X116926342Y-82938614D01*
X116874000Y-82950000D01*
X115930000Y-82950000D01*
X115861879Y-82929998D01*
X115815386Y-82876342D01*
X115804000Y-82824000D01*
X115804000Y-82755584D01*
X115805551Y-82735873D01*
X115808655Y-82716275D01*
X115809377Y-82711717D01*
X115809500Y-82700000D01*
X115805166Y-82668362D01*
X115804000Y-82651261D01*
X115804000Y-81805584D01*
X115805551Y-81785873D01*
X115808655Y-81766275D01*
X115809377Y-81761717D01*
X115809500Y-81750000D01*
X115805166Y-81718362D01*
X115804000Y-81701261D01*
X115804000Y-81526000D01*
X115803355Y-81520000D01*
X115798558Y-81475374D01*
X115798557Y-81475367D01*
X115798196Y-81472010D01*
X115797478Y-81468709D01*
X115787170Y-81421322D01*
X115787168Y-81421315D01*
X115786810Y-81419668D01*
X115779616Y-81393445D01*
X115750825Y-81342885D01*
X115733638Y-81312702D01*
X115733635Y-81312698D01*
X115730575Y-81307324D01*
X115684082Y-81253668D01*
X115651498Y-81222227D01*
X115563681Y-81176291D01*
X115495560Y-81156289D01*
X115491101Y-81155648D01*
X115491097Y-81155647D01*
X115459780Y-81151144D01*
X115424000Y-81146000D01*
X113876000Y-81146000D01*
X113872653Y-81146360D01*
X113872649Y-81146360D01*
X113825374Y-81151442D01*
X113825367Y-81151443D01*
X113822010Y-81151804D01*
X113818710Y-81152522D01*
X113818709Y-81152522D01*
X113771322Y-81162830D01*
X113771315Y-81162832D01*
X113769668Y-81163190D01*
X113743445Y-81170384D01*
X113706353Y-81191506D01*
X113662702Y-81216362D01*
X113662698Y-81216365D01*
X113657324Y-81219425D01*
X113652648Y-81223477D01*
X113647593Y-81227054D01*
X113646547Y-81225576D01*
X113589751Y-81251523D01*
X113519476Y-81241428D01*
X113481040Y-81208723D01*
X113479164Y-81210599D01*
X113470387Y-81201822D01*
X113463494Y-81191506D01*
X113379306Y-81135253D01*
X113280000Y-81115500D01*
X112504385Y-81115500D01*
X112436264Y-81095498D01*
X112415289Y-81078595D01*
X112173424Y-80836729D01*
X111905652Y-80568957D01*
X111892578Y-80552769D01*
X111890039Y-80549978D01*
X111884388Y-80541227D01*
X111859669Y-80521740D01*
X111854784Y-80517398D01*
X111854744Y-80517445D01*
X111850787Y-80514092D01*
X111847106Y-80510411D01*
X111830194Y-80498325D01*
X111825448Y-80494762D01*
X111793412Y-80469507D01*
X111785234Y-80463060D01*
X111776603Y-80460029D01*
X111769157Y-80454708D01*
X111759179Y-80451724D01*
X111759177Y-80451723D01*
X111720065Y-80440026D01*
X111714418Y-80438191D01*
X111673586Y-80423851D01*
X111673583Y-80423850D01*
X111666107Y-80421225D01*
X111657735Y-80420500D01*
X111655026Y-80420500D01*
X111654733Y-80420487D01*
X111648191Y-80418531D01*
X111622821Y-80419528D01*
X111600555Y-80420403D01*
X111595607Y-80420500D01*
X107425565Y-80420500D01*
X107404847Y-80418295D01*
X107401089Y-80418118D01*
X107390913Y-80415927D01*
X107365456Y-80418940D01*
X107359651Y-80419627D01*
X107353134Y-80420011D01*
X107353139Y-80420072D01*
X107347960Y-80420500D01*
X107342760Y-80420500D01*
X107337632Y-80421354D01*
X107337627Y-80421354D01*
X107322277Y-80423909D01*
X107316400Y-80424746D01*
X107298146Y-80426907D01*
X107265528Y-80430767D01*
X107257280Y-80434728D01*
X107248254Y-80436230D01*
X107203146Y-80460569D01*
X107197888Y-80463247D01*
X107158856Y-80481989D01*
X107158852Y-80481991D01*
X107151710Y-80485421D01*
X107145278Y-80490828D01*
X107143342Y-80492764D01*
X107143148Y-80492942D01*
X107137137Y-80496185D01*
X107130068Y-80503832D01*
X107130067Y-80503833D01*
X107104793Y-80531175D01*
X107101363Y-80534742D01*
X106793930Y-80842175D01*
X106731618Y-80876201D01*
X106660803Y-80871136D01*
X106631850Y-80855788D01*
X106559214Y-80804169D01*
X106416327Y-80752726D01*
X106407767Y-80752097D01*
X106407765Y-80752097D01*
X106310039Y-80744921D01*
X106264869Y-80741604D01*
X106115999Y-80771621D01*
X106108347Y-80775520D01*
X106018390Y-80821355D01*
X105948613Y-80834459D01*
X105903985Y-80821355D01*
X105852106Y-80794922D01*
X105852105Y-80794922D01*
X105843270Y-80790420D01*
X105833481Y-80788869D01*
X105833479Y-80788869D01*
X105795361Y-80782832D01*
X105749069Y-80775500D01*
X105390931Y-80775500D01*
X105344639Y-80782832D01*
X105306521Y-80788869D01*
X105306519Y-80788869D01*
X105296730Y-80790420D01*
X105183271Y-80848230D01*
X105174095Y-80857406D01*
X105170816Y-80859196D01*
X105168239Y-80861069D01*
X105167997Y-80860736D01*
X105111783Y-80891432D01*
X105040968Y-80886367D01*
X104995905Y-80857406D01*
X104986729Y-80848230D01*
X104873270Y-80790420D01*
X104863481Y-80788869D01*
X104863479Y-80788869D01*
X104825361Y-80782832D01*
X104779069Y-80775500D01*
X104420931Y-80775500D01*
X104374639Y-80782832D01*
X104336521Y-80788869D01*
X104336519Y-80788869D01*
X104326730Y-80790420D01*
X104213271Y-80848230D01*
X104206260Y-80855241D01*
X104198239Y-80861069D01*
X104197407Y-80859923D01*
X104144283Y-80888932D01*
X104073468Y-80883867D01*
X104028405Y-80854906D01*
X103971729Y-80798230D01*
X103858270Y-80740420D01*
X103848481Y-80738869D01*
X103848479Y-80738869D01*
X103821567Y-80734607D01*
X103764069Y-80725500D01*
X103405931Y-80725500D01*
X103348433Y-80734607D01*
X103321521Y-80738869D01*
X103321519Y-80738869D01*
X103311730Y-80740420D01*
X103198271Y-80798230D01*
X103189095Y-80807406D01*
X103185816Y-80809196D01*
X103183239Y-80811069D01*
X103182997Y-80810736D01*
X103126783Y-80841432D01*
X103055968Y-80836367D01*
X103010905Y-80807406D01*
X103001729Y-80798230D01*
X102888270Y-80740420D01*
X102878481Y-80738869D01*
X102878479Y-80738869D01*
X102851567Y-80734607D01*
X102794069Y-80725500D01*
X102435931Y-80725500D01*
X102378433Y-80734607D01*
X102351521Y-80738869D01*
X102351519Y-80738869D01*
X102341730Y-80740420D01*
X102228271Y-80798230D01*
X102205442Y-80821059D01*
X102143130Y-80855085D01*
X102072315Y-80850020D01*
X102046345Y-80836729D01*
X101979625Y-80792148D01*
X101969306Y-80785253D01*
X101870000Y-80765500D01*
X100650000Y-80765500D01*
X100550694Y-80785253D01*
X100540375Y-80792148D01*
X100477053Y-80834459D01*
X100466506Y-80841506D01*
X100449976Y-80866245D01*
X100395499Y-80911771D01*
X100325056Y-80920618D01*
X100272223Y-80898947D01*
X100216216Y-80859145D01*
X100209214Y-80854169D01*
X100066327Y-80802726D01*
X100057767Y-80802097D01*
X100057765Y-80802097D01*
X99960039Y-80794921D01*
X99914869Y-80791604D01*
X99765999Y-80821621D01*
X99630686Y-80890567D01*
X99624411Y-80896337D01*
X99557092Y-80918780D01*
X99488292Y-80901257D01*
X99447767Y-80862866D01*
X99440388Y-80851823D01*
X99440387Y-80851822D01*
X99433494Y-80841506D01*
X99422948Y-80834459D01*
X99359625Y-80792148D01*
X99349306Y-80785253D01*
X99250000Y-80765500D01*
X98648871Y-80765500D01*
X98580750Y-80745498D01*
X98570864Y-80738449D01*
X98549668Y-80721739D01*
X98544784Y-80717398D01*
X98544744Y-80717445D01*
X98540787Y-80714092D01*
X98537106Y-80710411D01*
X98520194Y-80698325D01*
X98515448Y-80694762D01*
X98483412Y-80669507D01*
X98475234Y-80663060D01*
X98466603Y-80660029D01*
X98459157Y-80654708D01*
X98449179Y-80651724D01*
X98449177Y-80651723D01*
X98410065Y-80640026D01*
X98404418Y-80638191D01*
X98363586Y-80623851D01*
X98363583Y-80623850D01*
X98356107Y-80621225D01*
X98347735Y-80620500D01*
X98345026Y-80620500D01*
X98344733Y-80620487D01*
X98338191Y-80618531D01*
X98312821Y-80619528D01*
X98290555Y-80620403D01*
X98285607Y-80620500D01*
X97846189Y-80620500D01*
X97778068Y-80600498D01*
X97757094Y-80583595D01*
X97671729Y-80498230D01*
X97558270Y-80440420D01*
X97548481Y-80438869D01*
X97548479Y-80438869D01*
X97513120Y-80433269D01*
X97464069Y-80425500D01*
X97105931Y-80425500D01*
X97056880Y-80433269D01*
X97021521Y-80438869D01*
X97021519Y-80438869D01*
X97011730Y-80440420D01*
X96898271Y-80498230D01*
X96889095Y-80507406D01*
X96885816Y-80509196D01*
X96883239Y-80511069D01*
X96882997Y-80510736D01*
X96826783Y-80541432D01*
X96755968Y-80536367D01*
X96710905Y-80507406D01*
X96701729Y-80498230D01*
X96588270Y-80440420D01*
X96578481Y-80438869D01*
X96578479Y-80438869D01*
X96543120Y-80433269D01*
X96494069Y-80425500D01*
X96135931Y-80425500D01*
X96086880Y-80433269D01*
X96051521Y-80438869D01*
X96051519Y-80438869D01*
X96041730Y-80440420D01*
X95996929Y-80463247D01*
X95937106Y-80493728D01*
X95937104Y-80493729D01*
X95928271Y-80498230D01*
X95922871Y-80503630D01*
X95857198Y-80527065D01*
X95788046Y-80510987D01*
X95778084Y-80504585D01*
X95771729Y-80498230D01*
X95762896Y-80493729D01*
X95762894Y-80493728D01*
X95703071Y-80463247D01*
X95658270Y-80440420D01*
X95648481Y-80438869D01*
X95648479Y-80438869D01*
X95613120Y-80433269D01*
X95564069Y-80425500D01*
X95205931Y-80425500D01*
X95156880Y-80433269D01*
X95121521Y-80438869D01*
X95121519Y-80438869D01*
X95111730Y-80440420D01*
X94998271Y-80498230D01*
X94989095Y-80507406D01*
X94985816Y-80509196D01*
X94983239Y-80511069D01*
X94982997Y-80510736D01*
X94926783Y-80541432D01*
X94855968Y-80536367D01*
X94810905Y-80507406D01*
X94801729Y-80498230D01*
X94688270Y-80440420D01*
X94678481Y-80438869D01*
X94678479Y-80438869D01*
X94643120Y-80433269D01*
X94594069Y-80425500D01*
X94235931Y-80425500D01*
X94186880Y-80433269D01*
X94151521Y-80438869D01*
X94151519Y-80438869D01*
X94141730Y-80440420D01*
X94028271Y-80498230D01*
X93938230Y-80588271D01*
X93880420Y-80701730D01*
X93878869Y-80711519D01*
X93878869Y-80711521D01*
X93877938Y-80717398D01*
X93865500Y-80795931D01*
X93865500Y-81204069D01*
X93880420Y-81298270D01*
X93884922Y-81307105D01*
X93884922Y-81307106D01*
X93925781Y-81387298D01*
X93938885Y-81457075D01*
X93912184Y-81522859D01*
X93854157Y-81563765D01*
X93813514Y-81570500D01*
X93252765Y-81570500D01*
X93232047Y-81568295D01*
X93228289Y-81568118D01*
X93218113Y-81565927D01*
X93187685Y-81569528D01*
X93186851Y-81569627D01*
X93180334Y-81570011D01*
X93180339Y-81570072D01*
X93175160Y-81570500D01*
X93169960Y-81570500D01*
X93164832Y-81571354D01*
X93164827Y-81571354D01*
X93149477Y-81573909D01*
X93143600Y-81574746D01*
X93129373Y-81576430D01*
X93092728Y-81580767D01*
X93084480Y-81584728D01*
X93075454Y-81586230D01*
X93066286Y-81591177D01*
X93066285Y-81591177D01*
X93030375Y-81610553D01*
X93025086Y-81613248D01*
X92978911Y-81635421D01*
X92972478Y-81640828D01*
X92970549Y-81642757D01*
X92970347Y-81642943D01*
X92964337Y-81646185D01*
X92957268Y-81653833D01*
X92957267Y-81653833D01*
X92931969Y-81681200D01*
X92928540Y-81684765D01*
X92768960Y-81844345D01*
X92752768Y-81857423D01*
X92749978Y-81859961D01*
X92741227Y-81865612D01*
X92736763Y-81871275D01*
X92674596Y-81901509D01*
X92604098Y-81893113D01*
X92549330Y-81847935D01*
X92539097Y-81827421D01*
X92538770Y-81825454D01*
X92533826Y-81816291D01*
X92533825Y-81816288D01*
X92483760Y-81723502D01*
X92478815Y-81714337D01*
X92464670Y-81701261D01*
X92413788Y-81654227D01*
X92386099Y-81628632D01*
X92376577Y-81624423D01*
X92376575Y-81624421D01*
X92279009Y-81581288D01*
X92279007Y-81581288D01*
X92270621Y-81577580D01*
X92261520Y-81576430D01*
X92261519Y-81576430D01*
X92248188Y-81574746D01*
X92214578Y-81570500D01*
X91894960Y-81570500D01*
X91889830Y-81571354D01*
X91889828Y-81571354D01*
X91833276Y-81580767D01*
X91800454Y-81586230D01*
X91711787Y-81634072D01*
X91642338Y-81648816D01*
X91587809Y-81630213D01*
X91586099Y-81628632D01*
X91535940Y-81606457D01*
X91479009Y-81581288D01*
X91479007Y-81581288D01*
X91470621Y-81577580D01*
X91461520Y-81576430D01*
X91461519Y-81576430D01*
X91448188Y-81574746D01*
X91414578Y-81570500D01*
X91094960Y-81570500D01*
X91089830Y-81571354D01*
X91089828Y-81571354D01*
X91033276Y-81580767D01*
X91000454Y-81586230D01*
X90911787Y-81634072D01*
X90842338Y-81648816D01*
X90787809Y-81630213D01*
X90786099Y-81628632D01*
X90735940Y-81606457D01*
X90679009Y-81581288D01*
X90679007Y-81581288D01*
X90670621Y-81577580D01*
X90661520Y-81576430D01*
X90661519Y-81576430D01*
X90648188Y-81574746D01*
X90614578Y-81570500D01*
X90390511Y-81570500D01*
X90322390Y-81550498D01*
X90275897Y-81496842D01*
X90265793Y-81426568D01*
X90275945Y-81392053D01*
X90335620Y-81261713D01*
X90359377Y-81111717D01*
X90359500Y-81100000D01*
X90338889Y-80949539D01*
X90335477Y-80941654D01*
X90281987Y-80818045D01*
X90281985Y-80818042D01*
X90278576Y-80810164D01*
X90183004Y-80692142D01*
X90059214Y-80604169D01*
X89916327Y-80552726D01*
X89907767Y-80552097D01*
X89907765Y-80552097D01*
X89815187Y-80545299D01*
X89764869Y-80541604D01*
X89615999Y-80571621D01*
X89596516Y-80581548D01*
X89547021Y-80606767D01*
X89489818Y-80620500D01*
X89461189Y-80620500D01*
X89393068Y-80600498D01*
X89372094Y-80583595D01*
X89286729Y-80498230D01*
X89173270Y-80440420D01*
X89163481Y-80438869D01*
X89163479Y-80438869D01*
X89128120Y-80433269D01*
X89079069Y-80425500D01*
X88720931Y-80425500D01*
X88671880Y-80433269D01*
X88636521Y-80438869D01*
X88636519Y-80438869D01*
X88626730Y-80440420D01*
X88513271Y-80498230D01*
X88503747Y-80507754D01*
X88499939Y-80509834D01*
X88498239Y-80511069D01*
X88498079Y-80510849D01*
X88441441Y-80541780D01*
X88370625Y-80536719D01*
X88325556Y-80507756D01*
X88323452Y-80505652D01*
X88307594Y-80494131D01*
X88211952Y-80445398D01*
X88198749Y-80441108D01*
X88188212Y-80442470D01*
X88184000Y-80456443D01*
X88184000Y-81128000D01*
X88163998Y-81196121D01*
X88110342Y-81242614D01*
X88058000Y-81254000D01*
X87407024Y-81254000D01*
X87393788Y-81257887D01*
X87391814Y-81272345D01*
X87394345Y-81288322D01*
X87400397Y-81306947D01*
X87441337Y-81387297D01*
X87454441Y-81457074D01*
X87427741Y-81522859D01*
X87369713Y-81563765D01*
X87329070Y-81570500D01*
X87094960Y-81570500D01*
X87089830Y-81571354D01*
X87089828Y-81571354D01*
X87033276Y-81580767D01*
X87000454Y-81586230D01*
X86991286Y-81591177D01*
X86991285Y-81591177D01*
X86911285Y-81634342D01*
X86841837Y-81649086D01*
X86782278Y-81628767D01*
X86776294Y-81624836D01*
X86716571Y-81598433D01*
X86702587Y-81596595D01*
X86700000Y-81600730D01*
X86700000Y-82699000D01*
X86679998Y-82767121D01*
X86626342Y-82813614D01*
X86574000Y-82825000D01*
X85964115Y-82825000D01*
X85948876Y-82829475D01*
X85947671Y-82830865D01*
X85946000Y-82838548D01*
X85946000Y-83224838D01*
X85946854Y-83235170D01*
X85959910Y-83313610D01*
X85951364Y-83384091D01*
X85906070Y-83438762D01*
X85838409Y-83460267D01*
X85802989Y-83455837D01*
X85795621Y-83452580D01*
X85739578Y-83445500D01*
X85580500Y-83445500D01*
X85512379Y-83425498D01*
X85465886Y-83371842D01*
X85454500Y-83319500D01*
X85454500Y-83277764D01*
X85456705Y-83257046D01*
X85456882Y-83253288D01*
X85459073Y-83243112D01*
X85455373Y-83211850D01*
X85454989Y-83205330D01*
X85454928Y-83205335D01*
X85454500Y-83200154D01*
X85454500Y-83194960D01*
X85451090Y-83174470D01*
X85450254Y-83168596D01*
X85445457Y-83128067D01*
X85445457Y-83128066D01*
X85444233Y-83117727D01*
X85440272Y-83109478D01*
X85438770Y-83100454D01*
X85414451Y-83055383D01*
X85411755Y-83050092D01*
X85393011Y-83011056D01*
X85393009Y-83011052D01*
X85389579Y-83003910D01*
X85384172Y-82997478D01*
X85382236Y-82995542D01*
X85382058Y-82995348D01*
X85378815Y-82989337D01*
X85362224Y-82974000D01*
X85343824Y-82956992D01*
X85340257Y-82953562D01*
X85259815Y-82873120D01*
X85225789Y-82810808D01*
X85224753Y-82774007D01*
X85223337Y-82773896D01*
X85223725Y-82768959D01*
X85224500Y-82764069D01*
X85224500Y-82405931D01*
X85211682Y-82325000D01*
X85211131Y-82321521D01*
X85211131Y-82321519D01*
X85209580Y-82311730D01*
X85151770Y-82198271D01*
X85142245Y-82188746D01*
X85140166Y-82184939D01*
X85138931Y-82183239D01*
X85139151Y-82183079D01*
X85108219Y-82126434D01*
X85113284Y-82055619D01*
X85142240Y-82010560D01*
X85144349Y-82008451D01*
X85155869Y-81992594D01*
X85195722Y-81914380D01*
X85946000Y-81914380D01*
X85946000Y-82306885D01*
X85950475Y-82322124D01*
X85951865Y-82323329D01*
X85959548Y-82325000D01*
X86181885Y-82325000D01*
X86197124Y-82320525D01*
X86198329Y-82319135D01*
X86200000Y-82311452D01*
X86200000Y-81605150D01*
X86196027Y-81591619D01*
X86193446Y-81591248D01*
X86190216Y-81592314D01*
X86098810Y-81641634D01*
X86082575Y-81654227D01*
X86011117Y-81731530D01*
X85999839Y-81748699D01*
X85956774Y-81846111D01*
X85951914Y-81863605D01*
X85946497Y-81906490D01*
X85946000Y-81914380D01*
X85195722Y-81914380D01*
X85204602Y-81896952D01*
X85208892Y-81883749D01*
X85207530Y-81873212D01*
X85193557Y-81869000D01*
X84105983Y-81869000D01*
X84092748Y-81872886D01*
X84091219Y-81884090D01*
X84095398Y-81896952D01*
X84144131Y-81992594D01*
X84155652Y-82008452D01*
X84157756Y-82010556D01*
X84159497Y-82013744D01*
X84161476Y-82016468D01*
X84161124Y-82016724D01*
X84191782Y-82072868D01*
X84186717Y-82143683D01*
X84157756Y-82188745D01*
X84148230Y-82198271D01*
X84090420Y-82311730D01*
X84088869Y-82321519D01*
X84088869Y-82321521D01*
X84088318Y-82325000D01*
X84075500Y-82405931D01*
X84075500Y-82764069D01*
X84082903Y-82810808D01*
X84088825Y-82848197D01*
X84090420Y-82858270D01*
X84148230Y-82971729D01*
X84238271Y-83061770D01*
X84351730Y-83119580D01*
X84361521Y-83121131D01*
X84361522Y-83121131D01*
X84407725Y-83128449D01*
X84477109Y-83163803D01*
X84543711Y-83230405D01*
X84577737Y-83292717D01*
X84572672Y-83363532D01*
X84530125Y-83420368D01*
X84463605Y-83445179D01*
X84454616Y-83445500D01*
X84419960Y-83445500D01*
X84414830Y-83446354D01*
X84414828Y-83446354D01*
X84362409Y-83455079D01*
X84325454Y-83461230D01*
X84214337Y-83521185D01*
X84207267Y-83528833D01*
X84207266Y-83528834D01*
X84206163Y-83530027D01*
X84204261Y-83531165D01*
X84199038Y-83535216D01*
X84198547Y-83534583D01*
X84145236Y-83566473D01*
X84113637Y-83570500D01*
X84102765Y-83570500D01*
X84082047Y-83568295D01*
X84078290Y-83568118D01*
X84068113Y-83565927D01*
X84066064Y-83566170D01*
X84038362Y-83560659D01*
X84016327Y-83552726D01*
X83864869Y-83541604D01*
X83865121Y-83538168D01*
X83811733Y-83526082D01*
X83761956Y-83475457D01*
X83747050Y-83416008D01*
X83747050Y-83013886D01*
X83737689Y-82948521D01*
X83734100Y-82923457D01*
X83734099Y-82923454D01*
X83732827Y-82914571D01*
X83725416Y-82898270D01*
X83680419Y-82799306D01*
X83676703Y-82791133D01*
X83602917Y-82705500D01*
X83594051Y-82695210D01*
X83588190Y-82688408D01*
X83474403Y-82614655D01*
X83465801Y-82612082D01*
X83465800Y-82612082D01*
X83431502Y-82601825D01*
X83371969Y-82563143D01*
X83342799Y-82498416D01*
X83353255Y-82428193D01*
X83400015Y-82374771D01*
X83415454Y-82366407D01*
X83523024Y-82317498D01*
X83538001Y-82307921D01*
X83627015Y-82231221D01*
X83638698Y-82217827D01*
X83702605Y-82119231D01*
X83710064Y-82103088D01*
X83744347Y-81988453D01*
X83746538Y-81976576D01*
X83746550Y-81976241D01*
X83746550Y-81964665D01*
X83742075Y-81949426D01*
X83740685Y-81948221D01*
X83733002Y-81946550D01*
X82306713Y-81946550D01*
X82293172Y-81950526D01*
X82291164Y-81964467D01*
X82301480Y-82036502D01*
X82306468Y-82053560D01*
X82355102Y-82160524D01*
X82364679Y-82175501D01*
X82441379Y-82264515D01*
X82454773Y-82276198D01*
X82553369Y-82340105D01*
X82569514Y-82347565D01*
X82603560Y-82357747D01*
X82663094Y-82396428D01*
X82692264Y-82461155D01*
X82681810Y-82531378D01*
X82635050Y-82584801D01*
X82619613Y-82593164D01*
X82503633Y-82645897D01*
X82400908Y-82734410D01*
X82327155Y-82848197D01*
X82288303Y-82978110D01*
X82288050Y-82981515D01*
X82288050Y-83521214D01*
X82289312Y-83530027D01*
X82299607Y-83601912D01*
X82302273Y-83620529D01*
X82305987Y-83628697D01*
X82305987Y-83628698D01*
X82338613Y-83700454D01*
X82358397Y-83743967D01*
X82403517Y-83796332D01*
X82429531Y-83826522D01*
X82446910Y-83846692D01*
X82477315Y-83866400D01*
X82523597Y-83920233D01*
X82533428Y-83990546D01*
X82503684Y-84055011D01*
X82497876Y-84061225D01*
X82440780Y-84118321D01*
X82382970Y-84231780D01*
X82381419Y-84241569D01*
X82381419Y-84241571D01*
X82378859Y-84257735D01*
X82368050Y-84325981D01*
X82368050Y-84684119D01*
X82368825Y-84689009D01*
X82378485Y-84750000D01*
X82382970Y-84778320D01*
X82440780Y-84891779D01*
X82449956Y-84900955D01*
X82451746Y-84904234D01*
X82453619Y-84906811D01*
X82453286Y-84907053D01*
X82483982Y-84963267D01*
X82478917Y-85034082D01*
X82449956Y-85079145D01*
X82440780Y-85088321D01*
X82382970Y-85201780D01*
X82381419Y-85211569D01*
X82381419Y-85211571D01*
X82378850Y-85227791D01*
X82368050Y-85295981D01*
X82368050Y-85654119D01*
X82373829Y-85690607D01*
X82380432Y-85732293D01*
X82382970Y-85748320D01*
X82406767Y-85795024D01*
X82420500Y-85852227D01*
X82420500Y-85867100D01*
X82400498Y-85935221D01*
X82346842Y-85981714D01*
X82294500Y-85993100D01*
X82011624Y-85993100D01*
X81943503Y-85973098D01*
X81906858Y-85937100D01*
X81898387Y-85924422D01*
X81891494Y-85914106D01*
X81807306Y-85857853D01*
X81708000Y-85838100D01*
X80808000Y-85838100D01*
X80708694Y-85857853D01*
X80624506Y-85914106D01*
X80568253Y-85998294D01*
X80548500Y-86097600D01*
X80548500Y-86897600D01*
X80568253Y-86996906D01*
X80624506Y-87081094D01*
X80708694Y-87137347D01*
X80808000Y-87157100D01*
X81708000Y-87157100D01*
X81807306Y-87137347D01*
X81891494Y-87081094D01*
X81906858Y-87058100D01*
X81961334Y-87012571D01*
X82011624Y-87002100D01*
X82077085Y-87002100D01*
X82145206Y-87022102D01*
X82191699Y-87075758D01*
X82201812Y-87110238D01*
X82205996Y-87139452D01*
X82209723Y-87165479D01*
X82213437Y-87173647D01*
X82213437Y-87173648D01*
X82248885Y-87251612D01*
X82265847Y-87288917D01*
X82354360Y-87391642D01*
X82468147Y-87465395D01*
X82476749Y-87467968D01*
X82476750Y-87467968D01*
X82511048Y-87478225D01*
X82570581Y-87516907D01*
X82599751Y-87581634D01*
X82589295Y-87651857D01*
X82542535Y-87705279D01*
X82527096Y-87713643D01*
X82419526Y-87762552D01*
X82404549Y-87772129D01*
X82315535Y-87848829D01*
X82303852Y-87862223D01*
X82239945Y-87960819D01*
X82232486Y-87976962D01*
X82213717Y-88039721D01*
X82175036Y-88099254D01*
X82110309Y-88128424D01*
X82040086Y-88117970D01*
X81986663Y-88071210D01*
X81968807Y-88009832D01*
X81967607Y-88009950D01*
X81965793Y-87991532D01*
X81949706Y-87910657D01*
X81940390Y-87888165D01*
X81898034Y-87824775D01*
X81880825Y-87807566D01*
X81817435Y-87765210D01*
X81794943Y-87755894D01*
X81714068Y-87739807D01*
X81701813Y-87738600D01*
X81530115Y-87738600D01*
X81514876Y-87743075D01*
X81513671Y-87744465D01*
X81512000Y-87752148D01*
X81512000Y-89038485D01*
X81516475Y-89053724D01*
X81517865Y-89054929D01*
X81525548Y-89056600D01*
X81701813Y-89056600D01*
X81714068Y-89055393D01*
X81753251Y-89047599D01*
X81823965Y-89053927D01*
X81860551Y-89082348D01*
X81855725Y-89066744D01*
X81874748Y-88998344D01*
X81892617Y-88975842D01*
X81898034Y-88970425D01*
X81940390Y-88907035D01*
X81949706Y-88884543D01*
X81965793Y-88803668D01*
X81967000Y-88791413D01*
X81967000Y-88783933D01*
X81987002Y-88715812D01*
X82040658Y-88669319D01*
X82110932Y-88659215D01*
X82175512Y-88688709D01*
X82209002Y-88740885D01*
X82210203Y-88740339D01*
X82262552Y-88855474D01*
X82272129Y-88870451D01*
X82348829Y-88959465D01*
X82362223Y-88971148D01*
X82468357Y-89039941D01*
X82467144Y-89041812D01*
X82511295Y-89080409D01*
X82530997Y-89148618D01*
X82525637Y-89184426D01*
X82519000Y-89206445D01*
X82519000Y-89878000D01*
X82498998Y-89946121D01*
X82445342Y-89992614D01*
X82393000Y-90004000D01*
X81742024Y-90004000D01*
X81728788Y-90007887D01*
X81726814Y-90022345D01*
X81729345Y-90038322D01*
X81735398Y-90056950D01*
X81784131Y-90152594D01*
X81795652Y-90168452D01*
X81871548Y-90244348D01*
X81887405Y-90255869D01*
X81921704Y-90273345D01*
X81973320Y-90322092D01*
X81990386Y-90391007D01*
X81967486Y-90458209D01*
X81953597Y-90474707D01*
X81450115Y-90978189D01*
X81387803Y-91012215D01*
X81353110Y-91014845D01*
X81348799Y-91014574D01*
X81341015Y-91013089D01*
X81251919Y-91018694D01*
X81185514Y-91022872D01*
X81185512Y-91022872D01*
X81177603Y-91023370D01*
X81155098Y-91030682D01*
X81084134Y-91032710D01*
X81023336Y-90996048D01*
X81000527Y-90960889D01*
X80981988Y-90918048D01*
X80981987Y-90918046D01*
X80978576Y-90910164D01*
X80883004Y-90792142D01*
X80759214Y-90704169D01*
X80616327Y-90652726D01*
X80607767Y-90652097D01*
X80607765Y-90652097D01*
X80515187Y-90645299D01*
X80464869Y-90641604D01*
X80315999Y-90671621D01*
X80308347Y-90675520D01*
X80188337Y-90736668D01*
X80188334Y-90736670D01*
X80180686Y-90740567D01*
X80174364Y-90746380D01*
X80174363Y-90746381D01*
X80089099Y-90824785D01*
X80068898Y-90843361D01*
X79992386Y-90966762D01*
X79939491Y-91014115D01*
X79912100Y-91023087D01*
X79907603Y-91023370D01*
X79900067Y-91025819D01*
X79900065Y-91025819D01*
X79759423Y-91071516D01*
X79759420Y-91071517D01*
X79751881Y-91073967D01*
X79613635Y-91161701D01*
X79608208Y-91167480D01*
X79608207Y-91167481D01*
X79544583Y-91235234D01*
X79501550Y-91281059D01*
X79497733Y-91288002D01*
X79426488Y-91417595D01*
X79426486Y-91417599D01*
X79422670Y-91424541D01*
X79411237Y-91469069D01*
X79391407Y-91546305D01*
X79381951Y-91583132D01*
X79381951Y-91591060D01*
X79381875Y-91591662D01*
X79353494Y-91656740D01*
X79294435Y-91696142D01*
X79223449Y-91697360D01*
X79193582Y-91684827D01*
X79179641Y-91676729D01*
X79123908Y-91644357D01*
X79067305Y-91611479D01*
X79067304Y-91611478D01*
X79060976Y-91607803D01*
X79053972Y-91605682D01*
X79053968Y-91605680D01*
X78900677Y-91559253D01*
X78893664Y-91557129D01*
X78886354Y-91556676D01*
X78886351Y-91556675D01*
X78818747Y-91552482D01*
X78719181Y-91546305D01*
X78711965Y-91547545D01*
X78711963Y-91547545D01*
X78554104Y-91574670D01*
X78554102Y-91574671D01*
X78546889Y-91575910D01*
X78386028Y-91644357D01*
X78366719Y-91658567D01*
X78251122Y-91743636D01*
X78251119Y-91743638D01*
X78245228Y-91747974D01*
X78233984Y-91761209D01*
X78136780Y-91875624D01*
X78136777Y-91875628D01*
X78132041Y-91881203D01*
X78052540Y-92036898D01*
X78027862Y-92137747D01*
X78016665Y-92183508D01*
X78010988Y-92206706D01*
X78010931Y-92214024D01*
X78010930Y-92214028D01*
X78010484Y-92270813D01*
X78009615Y-92381518D01*
X78048494Y-92551957D01*
X78051718Y-92558524D01*
X78051719Y-92558526D01*
X78059932Y-92575253D01*
X78125540Y-92708881D01*
X78130188Y-92714530D01*
X78130189Y-92714531D01*
X78174080Y-92767870D01*
X78236620Y-92843872D01*
X78242447Y-92848303D01*
X78246705Y-92851541D01*
X78375776Y-92949688D01*
X78382464Y-92952659D01*
X78382468Y-92952661D01*
X78425807Y-92971911D01*
X78535541Y-93020653D01*
X78542736Y-93022006D01*
X78664370Y-93044879D01*
X78707348Y-93052961D01*
X78714656Y-93052623D01*
X78714659Y-93052623D01*
X78874664Y-93045218D01*
X78874668Y-93045217D01*
X78881979Y-93044879D01*
X78909757Y-93036940D01*
X79043024Y-92998852D01*
X79043027Y-92998851D01*
X79050066Y-92996839D01*
X79195458Y-92915415D01*
X79264664Y-92899582D01*
X79331446Y-92923679D01*
X79374599Y-92980055D01*
X79381951Y-93009252D01*
X79381951Y-93016868D01*
X79422670Y-93175459D01*
X79426486Y-93182401D01*
X79426488Y-93182405D01*
X79457850Y-93239451D01*
X79473139Y-93308782D01*
X79454521Y-93366548D01*
X79439225Y-93391219D01*
X79420997Y-93420618D01*
X79388871Y-93472431D01*
X79346502Y-93618267D01*
X79346412Y-93626853D01*
X79346412Y-93626854D01*
X79345440Y-93719696D01*
X79344912Y-93770124D01*
X79384218Y-93916815D01*
X79461524Y-94047532D01*
X79467725Y-94053478D01*
X79467726Y-94053480D01*
X79492097Y-94076851D01*
X79571134Y-94152645D01*
X79704974Y-94224409D01*
X79713356Y-94226283D01*
X79713357Y-94226283D01*
X79844797Y-94255664D01*
X79844799Y-94255664D01*
X79853182Y-94257538D01*
X79948885Y-94252522D01*
X79996257Y-94250040D01*
X79996258Y-94250040D01*
X80004840Y-94249590D01*
X80085797Y-94222345D01*
X85341814Y-94222345D01*
X85344345Y-94238322D01*
X85350398Y-94256950D01*
X85399131Y-94352594D01*
X85410652Y-94368452D01*
X85486548Y-94444348D01*
X85502406Y-94455869D01*
X85598048Y-94504602D01*
X85611251Y-94508892D01*
X85621788Y-94507530D01*
X85626000Y-94493557D01*
X85626000Y-94222115D01*
X85621525Y-94206876D01*
X85620135Y-94205671D01*
X85612452Y-94204000D01*
X85357024Y-94204000D01*
X85343788Y-94207887D01*
X85341814Y-94222345D01*
X80085797Y-94222345D01*
X80148773Y-94201151D01*
X80264752Y-94122332D01*
X80332334Y-94100588D01*
X80395112Y-94115502D01*
X80504974Y-94174409D01*
X80513356Y-94176283D01*
X80513357Y-94176283D01*
X80644797Y-94205664D01*
X80644799Y-94205664D01*
X80653182Y-94207538D01*
X80748885Y-94202522D01*
X80796257Y-94200040D01*
X80796258Y-94200040D01*
X80804840Y-94199590D01*
X80948773Y-94151151D01*
X80955878Y-94146322D01*
X80955881Y-94146321D01*
X81067275Y-94070618D01*
X81067276Y-94070617D01*
X81074379Y-94065790D01*
X81079922Y-94059231D01*
X81166858Y-93956355D01*
X81166860Y-93956352D01*
X81172401Y-93949795D01*
X81235620Y-93811713D01*
X81255198Y-93688102D01*
X81285610Y-93623949D01*
X81345879Y-93586422D01*
X81356028Y-93584047D01*
X81501850Y-93556230D01*
X81543649Y-93536561D01*
X82333269Y-93536561D01*
X82335300Y-93539274D01*
X82337082Y-93540198D01*
X82440158Y-93573690D01*
X82455608Y-93576637D01*
X82603072Y-93585914D01*
X82618769Y-93584927D01*
X82763908Y-93557240D01*
X82778868Y-93552379D01*
X82912560Y-93489469D01*
X82932536Y-93476792D01*
X82933987Y-93479079D01*
X82987210Y-93456219D01*
X83057236Y-93467917D01*
X83109822Y-93515616D01*
X83125147Y-93553285D01*
X83128494Y-93567957D01*
X83131718Y-93574524D01*
X83131719Y-93574526D01*
X83136393Y-93584045D01*
X83205540Y-93724881D01*
X83210188Y-93730530D01*
X83210189Y-93730531D01*
X83222861Y-93745931D01*
X83316620Y-93859872D01*
X83455776Y-93965688D01*
X83462464Y-93968659D01*
X83462468Y-93968661D01*
X83502333Y-93986368D01*
X83615541Y-94036653D01*
X83622736Y-94038006D01*
X83744370Y-94060879D01*
X83787348Y-94068961D01*
X83794656Y-94068623D01*
X83794659Y-94068623D01*
X83954664Y-94061218D01*
X83954668Y-94061217D01*
X83961979Y-94060879D01*
X83986230Y-94053948D01*
X84123024Y-94014852D01*
X84123027Y-94014851D01*
X84130066Y-94012839D01*
X84222174Y-93961256D01*
X84276202Y-93930999D01*
X84276204Y-93930998D01*
X84282594Y-93927419D01*
X84373428Y-93844039D01*
X84405990Y-93814150D01*
X84405991Y-93814148D01*
X84411380Y-93809202D01*
X84500306Y-93678106D01*
X85341743Y-93678106D01*
X85343511Y-93691788D01*
X85357485Y-93696000D01*
X85607885Y-93696000D01*
X85623124Y-93691525D01*
X85624329Y-93690135D01*
X85626000Y-93682452D01*
X85626000Y-93405983D01*
X85622114Y-93392748D01*
X85610910Y-93391219D01*
X85598048Y-93395398D01*
X85502406Y-93444131D01*
X85486548Y-93455652D01*
X85410652Y-93531548D01*
X85399131Y-93547406D01*
X85350398Y-93643050D01*
X85344345Y-93661678D01*
X85341743Y-93678106D01*
X84500306Y-93678106D01*
X84509516Y-93664528D01*
X84571737Y-93501158D01*
X84594707Y-93327856D01*
X84594800Y-93316000D01*
X84593959Y-93308782D01*
X84575403Y-93149631D01*
X84574555Y-93142358D01*
X84541136Y-93050289D01*
X84517405Y-92984910D01*
X84517405Y-92984909D01*
X84514908Y-92978031D01*
X84509555Y-92969865D01*
X84461080Y-92895931D01*
X84419056Y-92831834D01*
X84292143Y-92711608D01*
X84140976Y-92623803D01*
X84133972Y-92621682D01*
X84133968Y-92621680D01*
X83980677Y-92575253D01*
X83973664Y-92573129D01*
X83966354Y-92572676D01*
X83966351Y-92572675D01*
X83898747Y-92568482D01*
X83799181Y-92562305D01*
X83791965Y-92563545D01*
X83791963Y-92563545D01*
X83634104Y-92590670D01*
X83634102Y-92590671D01*
X83626889Y-92591910D01*
X83466028Y-92660357D01*
X83437624Y-92681260D01*
X83356662Y-92740841D01*
X83289941Y-92765107D01*
X83220693Y-92749449D01*
X83182642Y-92716869D01*
X83168800Y-92699129D01*
X83163915Y-92700295D01*
X82812309Y-93051901D01*
X82749997Y-93085927D01*
X82734458Y-93084816D01*
X82728798Y-93124178D01*
X82703280Y-93160930D01*
X82340029Y-93524181D01*
X82333269Y-93536561D01*
X81543649Y-93536561D01*
X81650002Y-93486515D01*
X81776162Y-93382146D01*
X81780819Y-93375736D01*
X81780822Y-93375733D01*
X81867743Y-93256097D01*
X81867745Y-93256094D01*
X81872404Y-93249681D01*
X81875323Y-93242308D01*
X81876239Y-93240642D01*
X81926585Y-93190583D01*
X81942283Y-93183414D01*
X81974496Y-93171294D01*
X82158885Y-92986905D01*
X82221197Y-92952879D01*
X82247980Y-92950000D01*
X82600000Y-92950000D01*
X82600000Y-92597980D01*
X82620002Y-92529859D01*
X82636905Y-92508885D01*
X82706700Y-92439090D01*
X84741219Y-92439090D01*
X84745398Y-92451952D01*
X84794131Y-92547594D01*
X84805652Y-92563452D01*
X84881548Y-92639348D01*
X84897406Y-92650869D01*
X84993050Y-92699602D01*
X85011678Y-92705655D01*
X85028106Y-92708257D01*
X85041788Y-92706489D01*
X85046000Y-92692515D01*
X85046000Y-92442115D01*
X85044659Y-92437548D01*
X85554000Y-92437548D01*
X85554000Y-92692976D01*
X85557887Y-92706212D01*
X85572345Y-92708186D01*
X85588322Y-92705655D01*
X85606950Y-92699602D01*
X85702594Y-92650869D01*
X85718452Y-92639348D01*
X85794348Y-92563452D01*
X85805869Y-92547594D01*
X85854602Y-92451952D01*
X85858892Y-92438749D01*
X85857530Y-92428212D01*
X85843557Y-92424000D01*
X85572115Y-92424000D01*
X85556876Y-92428475D01*
X85555671Y-92429865D01*
X85554000Y-92437548D01*
X85044659Y-92437548D01*
X85041525Y-92426876D01*
X85040135Y-92425671D01*
X85032452Y-92424000D01*
X84755983Y-92424000D01*
X84742748Y-92427886D01*
X84741219Y-92439090D01*
X82706700Y-92439090D01*
X82799582Y-92346208D01*
X82819485Y-92309760D01*
X82824119Y-92288460D01*
X82874323Y-92238260D01*
X82881057Y-92234841D01*
X82884967Y-92233001D01*
X82920002Y-92216515D01*
X83046162Y-92112146D01*
X83050819Y-92105736D01*
X83050822Y-92105733D01*
X83137745Y-91986094D01*
X83137746Y-91986092D01*
X83142404Y-91979681D01*
X83145321Y-91972314D01*
X83145323Y-91972310D01*
X83167751Y-91915662D01*
X83211425Y-91859688D01*
X83278428Y-91836211D01*
X83347487Y-91852686D01*
X83361169Y-91861748D01*
X83395331Y-91887725D01*
X83455776Y-91933688D01*
X83462464Y-91936659D01*
X83462468Y-91936661D01*
X83509945Y-91957749D01*
X83615541Y-92004653D01*
X83622736Y-92006006D01*
X83759515Y-92031727D01*
X83787348Y-92036961D01*
X83794656Y-92036623D01*
X83794659Y-92036623D01*
X83954664Y-92029218D01*
X83954668Y-92029217D01*
X83961979Y-92028879D01*
X84021842Y-92011770D01*
X84123024Y-91982852D01*
X84123027Y-91982851D01*
X84130066Y-91980839D01*
X84206330Y-91938129D01*
X84276202Y-91898999D01*
X84276204Y-91898998D01*
X84282594Y-91895419D01*
X84382088Y-91804090D01*
X84405990Y-91782150D01*
X84405991Y-91782148D01*
X84411380Y-91777202D01*
X84422229Y-91761209D01*
X84505408Y-91638584D01*
X84509516Y-91632528D01*
X84529988Y-91578776D01*
X84541913Y-91547466D01*
X84584851Y-91490925D01*
X84651541Y-91466574D01*
X84720809Y-91482144D01*
X84771929Y-91535110D01*
X84793728Y-91577895D01*
X84793731Y-91577899D01*
X84798230Y-91586729D01*
X84807756Y-91596255D01*
X84809836Y-91600064D01*
X84811069Y-91601761D01*
X84810850Y-91601920D01*
X84841782Y-91658567D01*
X84836717Y-91729382D01*
X84807752Y-91774450D01*
X84805647Y-91776555D01*
X84794131Y-91792406D01*
X84745398Y-91888048D01*
X84741108Y-91901251D01*
X84742470Y-91911788D01*
X84756443Y-91916000D01*
X85844017Y-91916000D01*
X85857252Y-91912114D01*
X85858226Y-91904975D01*
X85887257Y-91840185D01*
X85946707Y-91801375D01*
X86017701Y-91800867D01*
X86068596Y-91829489D01*
X86113901Y-91871368D01*
X86123423Y-91875577D01*
X86123425Y-91875579D01*
X86229379Y-91922420D01*
X86228696Y-91923964D01*
X86279939Y-91955841D01*
X86310380Y-92019980D01*
X86301312Y-92090395D01*
X86275077Y-92125881D01*
X86276059Y-92126737D01*
X86270160Y-92133499D01*
X86263358Y-92139360D01*
X86189605Y-92253147D01*
X86150753Y-92383060D01*
X86150500Y-92386465D01*
X86150500Y-93001164D01*
X86152664Y-93016275D01*
X86163151Y-93089500D01*
X86164723Y-93100479D01*
X86168437Y-93108647D01*
X86168438Y-93108651D01*
X86218054Y-93217774D01*
X86228042Y-93288065D01*
X86198441Y-93352597D01*
X86138700Y-93390850D01*
X86134000Y-93406443D01*
X86134000Y-94494017D01*
X86137886Y-94507252D01*
X86149090Y-94508781D01*
X86161952Y-94504602D01*
X86257594Y-94455869D01*
X86273451Y-94444349D01*
X86275560Y-94442240D01*
X86278752Y-94440497D01*
X86281468Y-94438524D01*
X86281723Y-94438875D01*
X86337875Y-94408218D01*
X86408690Y-94413287D01*
X86453746Y-94442245D01*
X86463271Y-94451770D01*
X86576730Y-94509580D01*
X86586519Y-94511131D01*
X86586521Y-94511131D01*
X86613433Y-94515393D01*
X86670931Y-94524500D01*
X87029069Y-94524500D01*
X87086567Y-94515393D01*
X87113479Y-94511131D01*
X87113481Y-94511131D01*
X87123270Y-94509580D01*
X87236729Y-94451770D01*
X87326770Y-94361729D01*
X87384580Y-94248270D01*
X87388063Y-94226283D01*
X87392724Y-94196849D01*
X87399500Y-94154069D01*
X87399500Y-93745931D01*
X87389446Y-93682452D01*
X87386131Y-93661521D01*
X87386131Y-93661519D01*
X87384580Y-93651730D01*
X87348638Y-93581189D01*
X87331271Y-93547104D01*
X87331270Y-93547102D01*
X87326770Y-93538271D01*
X87319760Y-93531261D01*
X87315165Y-93524937D01*
X87291306Y-93458070D01*
X87307385Y-93388918D01*
X87334850Y-93355424D01*
X87421642Y-93280640D01*
X87495395Y-93166853D01*
X87508009Y-93124674D01*
X87546690Y-93065141D01*
X87611417Y-93035971D01*
X87681640Y-93046425D01*
X87735063Y-93093185D01*
X87743426Y-93108622D01*
X87795847Y-93223917D01*
X87854499Y-93291986D01*
X87874517Y-93315218D01*
X87884360Y-93326642D01*
X87998147Y-93400395D01*
X88128060Y-93439247D01*
X88131465Y-93439500D01*
X88671164Y-93439500D01*
X88710119Y-93433921D01*
X88761593Y-93426550D01*
X88761596Y-93426549D01*
X88770479Y-93425277D01*
X88778647Y-93421563D01*
X88778648Y-93421563D01*
X88885744Y-93372869D01*
X88893917Y-93369153D01*
X88996642Y-93280640D01*
X89046606Y-93203555D01*
X89100441Y-93157273D01*
X89170754Y-93147442D01*
X89235219Y-93177186D01*
X89258934Y-93209051D01*
X89260294Y-93208181D01*
X89265131Y-93215744D01*
X89268847Y-93223917D01*
X89327499Y-93291986D01*
X89347517Y-93315218D01*
X89357360Y-93326642D01*
X89471147Y-93400395D01*
X89601060Y-93439247D01*
X89604465Y-93439500D01*
X90144164Y-93439500D01*
X90183119Y-93433921D01*
X90234593Y-93426550D01*
X90234596Y-93426549D01*
X90243479Y-93425277D01*
X90251647Y-93421563D01*
X90251648Y-93421563D01*
X90358744Y-93372869D01*
X90366917Y-93369153D01*
X90469642Y-93280640D01*
X90543395Y-93166853D01*
X90556009Y-93124674D01*
X90594690Y-93065141D01*
X90659417Y-93035971D01*
X90729640Y-93046425D01*
X90783063Y-93093185D01*
X90791426Y-93108622D01*
X90843847Y-93223917D01*
X90902499Y-93291986D01*
X90922517Y-93315218D01*
X90932360Y-93326642D01*
X91046147Y-93400395D01*
X91176060Y-93439247D01*
X91179465Y-93439500D01*
X91719164Y-93439500D01*
X91758119Y-93433921D01*
X91809593Y-93426550D01*
X91809596Y-93426549D01*
X91818479Y-93425277D01*
X91826647Y-93421563D01*
X91826648Y-93421563D01*
X91933744Y-93372869D01*
X91941917Y-93369153D01*
X92044642Y-93280640D01*
X92105641Y-93186530D01*
X92159477Y-93140246D01*
X92229789Y-93130415D01*
X92294255Y-93160159D01*
X92300468Y-93165967D01*
X92346271Y-93211770D01*
X92459730Y-93269580D01*
X92469519Y-93271131D01*
X92469521Y-93271131D01*
X92488533Y-93274142D01*
X92553931Y-93284500D01*
X92912069Y-93284500D01*
X92977467Y-93274142D01*
X92996479Y-93271131D01*
X92996481Y-93271131D01*
X93006270Y-93269580D01*
X93119729Y-93211770D01*
X93129259Y-93202240D01*
X93133072Y-93200158D01*
X93134761Y-93198931D01*
X93134920Y-93199149D01*
X93191573Y-93168218D01*
X93262389Y-93173287D01*
X93307445Y-93202245D01*
X93309548Y-93204348D01*
X93325406Y-93215869D01*
X93421048Y-93264602D01*
X93434251Y-93268892D01*
X93444788Y-93267530D01*
X93449000Y-93253557D01*
X93449000Y-92977548D01*
X93957000Y-92977548D01*
X93957000Y-93254017D01*
X93960886Y-93267252D01*
X93972090Y-93268781D01*
X93984952Y-93264602D01*
X94080594Y-93215869D01*
X94096452Y-93204348D01*
X94172348Y-93128452D01*
X94183869Y-93112594D01*
X94232602Y-93016950D01*
X94238655Y-92998322D01*
X94241257Y-92981894D01*
X94239489Y-92968212D01*
X94225515Y-92964000D01*
X93975115Y-92964000D01*
X93959876Y-92968475D01*
X93958671Y-92969865D01*
X93957000Y-92977548D01*
X93449000Y-92977548D01*
X93449000Y-92167618D01*
X93469002Y-92099497D01*
X93490831Y-92074666D01*
X93496000Y-92057515D01*
X93496000Y-91807115D01*
X93491525Y-91791876D01*
X93490135Y-91790671D01*
X93482452Y-91789000D01*
X93205983Y-91789000D01*
X93192748Y-91792886D01*
X93191219Y-91804090D01*
X93195398Y-91816952D01*
X93244131Y-91912594D01*
X93255652Y-91928452D01*
X93338565Y-92011365D01*
X93336198Y-92013732D01*
X93369021Y-92056311D01*
X93375087Y-92127048D01*
X93341946Y-92189835D01*
X93325662Y-92203943D01*
X93309559Y-92215643D01*
X93307450Y-92217752D01*
X93304254Y-92219498D01*
X93301532Y-92221475D01*
X93301277Y-92221123D01*
X93245140Y-92251780D01*
X93174324Y-92246719D01*
X93129255Y-92217756D01*
X93119729Y-92208230D01*
X93006270Y-92150420D01*
X92996481Y-92148869D01*
X92996479Y-92148869D01*
X92969567Y-92144607D01*
X92912069Y-92135500D01*
X92553931Y-92135500D01*
X92496433Y-92144607D01*
X92469521Y-92148869D01*
X92469519Y-92148869D01*
X92459730Y-92150420D01*
X92346271Y-92208230D01*
X92300490Y-92254011D01*
X92238178Y-92288037D01*
X92167363Y-92282972D01*
X92110527Y-92240425D01*
X92096695Y-92217068D01*
X92090871Y-92204259D01*
X92090869Y-92204256D01*
X92087153Y-92196083D01*
X91998640Y-92093358D01*
X91884853Y-92019605D01*
X91876255Y-92017034D01*
X91873148Y-92015598D01*
X91819700Y-91968867D01*
X91800000Y-91901219D01*
X91800000Y-89955150D01*
X91796027Y-89941619D01*
X91793446Y-89941248D01*
X91790217Y-89942314D01*
X91712255Y-89984380D01*
X91642807Y-89999125D01*
X91588062Y-89980446D01*
X91586099Y-89978632D01*
X91576577Y-89974423D01*
X91576575Y-89974421D01*
X91479009Y-89931288D01*
X91479007Y-89931288D01*
X91470621Y-89927580D01*
X91461520Y-89926430D01*
X91461519Y-89926430D01*
X91448924Y-89924839D01*
X91383848Y-89896457D01*
X91375622Y-89888928D01*
X90824966Y-89338271D01*
X90255655Y-88768960D01*
X90242578Y-88752768D01*
X90240037Y-88749975D01*
X90234388Y-88741227D01*
X90209669Y-88721740D01*
X90204784Y-88717398D01*
X90204744Y-88717445D01*
X90200787Y-88714092D01*
X90197106Y-88710411D01*
X90180194Y-88698325D01*
X90175448Y-88694762D01*
X90143412Y-88669507D01*
X90135234Y-88663060D01*
X90126603Y-88660029D01*
X90119157Y-88654708D01*
X90109179Y-88651724D01*
X90109177Y-88651723D01*
X90070065Y-88640026D01*
X90064418Y-88638191D01*
X90060270Y-88636734D01*
X90053805Y-88634464D01*
X90023586Y-88623851D01*
X90023583Y-88623850D01*
X90016107Y-88621225D01*
X90007735Y-88620500D01*
X90005026Y-88620500D01*
X90004733Y-88620487D01*
X89998191Y-88618531D01*
X89972821Y-88619528D01*
X89950555Y-88620403D01*
X89945607Y-88620500D01*
X87961386Y-88620500D01*
X87893265Y-88600498D01*
X87883774Y-88593092D01*
X87883004Y-88592142D01*
X87832290Y-88556101D01*
X87766216Y-88509145D01*
X87759214Y-88504169D01*
X87616327Y-88452726D01*
X87607767Y-88452097D01*
X87607765Y-88452097D01*
X87510039Y-88444921D01*
X87464869Y-88441604D01*
X87315999Y-88471621D01*
X87180686Y-88540567D01*
X87179873Y-88538971D01*
X87122417Y-88558123D01*
X87053618Y-88540595D01*
X87005216Y-88488654D01*
X86993415Y-88412496D01*
X87009377Y-88311717D01*
X87009500Y-88300000D01*
X86988889Y-88149539D01*
X86985477Y-88141654D01*
X86931987Y-88018045D01*
X86931985Y-88018042D01*
X86928576Y-88010164D01*
X86833004Y-87892142D01*
X86820475Y-87883238D01*
X86798704Y-87867766D01*
X86754765Y-87812000D01*
X86747950Y-87741332D01*
X86757131Y-87712610D01*
X86782141Y-87657984D01*
X86782141Y-87657982D01*
X86785716Y-87650175D01*
X86809473Y-87500179D01*
X86809596Y-87488462D01*
X86788985Y-87338001D01*
X86783668Y-87325713D01*
X86732083Y-87206507D01*
X86732081Y-87206504D01*
X86728672Y-87198626D01*
X86633100Y-87080604D01*
X86509310Y-86992631D01*
X86366423Y-86941188D01*
X86357863Y-86940559D01*
X86357861Y-86940559D01*
X86265283Y-86933761D01*
X86214965Y-86930066D01*
X86184494Y-86936210D01*
X86113764Y-86930067D01*
X86057583Y-86886660D01*
X86048702Y-86872528D01*
X86015928Y-86811786D01*
X86001184Y-86742338D01*
X86019787Y-86687809D01*
X86021368Y-86686099D01*
X86054998Y-86610029D01*
X86068712Y-86579009D01*
X86068712Y-86579007D01*
X86072420Y-86570621D01*
X86079500Y-86514578D01*
X86079500Y-86194960D01*
X86078572Y-86189381D01*
X86065480Y-86110728D01*
X86063770Y-86100454D01*
X86015928Y-86011786D01*
X86001184Y-85942338D01*
X86019787Y-85887809D01*
X86021368Y-85886099D01*
X86042588Y-85838100D01*
X86068712Y-85779009D01*
X86068712Y-85779007D01*
X86072420Y-85770621D01*
X86073700Y-85760493D01*
X86076986Y-85734479D01*
X86079500Y-85714578D01*
X86079500Y-85394960D01*
X86077913Y-85385422D01*
X86065480Y-85310728D01*
X86063770Y-85300454D01*
X86015928Y-85211786D01*
X86001184Y-85142338D01*
X86019787Y-85087809D01*
X86021368Y-85086099D01*
X86062204Y-84993729D01*
X86068712Y-84979009D01*
X86068712Y-84979007D01*
X86072420Y-84970621D01*
X86073793Y-84959757D01*
X86079003Y-84918509D01*
X86079500Y-84914578D01*
X86079500Y-84594960D01*
X86077712Y-84584218D01*
X86065480Y-84510726D01*
X86065479Y-84510724D01*
X86063770Y-84500454D01*
X86060456Y-84494313D01*
X86057404Y-84425385D01*
X86093108Y-84364019D01*
X86156321Y-84331698D01*
X86179752Y-84329500D01*
X86470616Y-84329500D01*
X86538737Y-84349502D01*
X86559711Y-84366405D01*
X91274344Y-89081038D01*
X91287425Y-89097234D01*
X91289961Y-89100021D01*
X91295612Y-89108773D01*
X91303791Y-89115220D01*
X91303791Y-89115221D01*
X91320336Y-89128264D01*
X91325216Y-89132601D01*
X91325256Y-89132554D01*
X91329213Y-89135907D01*
X91332894Y-89139588D01*
X91340620Y-89145109D01*
X91349791Y-89151663D01*
X91354537Y-89155227D01*
X91394766Y-89186940D01*
X91403400Y-89189972D01*
X91410843Y-89195291D01*
X91427321Y-89200219D01*
X91459903Y-89209963D01*
X91465552Y-89211798D01*
X91513893Y-89228775D01*
X91522265Y-89229500D01*
X91524979Y-89229500D01*
X91525271Y-89229513D01*
X91531809Y-89231468D01*
X91579429Y-89229597D01*
X91584376Y-89229500D01*
X91790616Y-89229500D01*
X91858737Y-89249502D01*
X91879711Y-89266405D01*
X92350062Y-89736756D01*
X92384088Y-89799068D01*
X92379023Y-89869883D01*
X92336476Y-89926719D01*
X92314697Y-89939821D01*
X92303532Y-89945085D01*
X92300000Y-89950730D01*
X92300000Y-91894850D01*
X92303973Y-91908381D01*
X92306554Y-91908752D01*
X92309784Y-91907686D01*
X92401190Y-91858366D01*
X92417425Y-91845773D01*
X92488883Y-91768470D01*
X92500161Y-91751301D01*
X92543226Y-91653889D01*
X92548086Y-91636395D01*
X92553503Y-91593510D01*
X92554000Y-91585620D01*
X92554000Y-91497936D01*
X92574002Y-91429815D01*
X92627658Y-91383322D01*
X92697932Y-91373218D01*
X92707486Y-91374971D01*
X92844795Y-91405664D01*
X92844800Y-91405664D01*
X92853182Y-91407538D01*
X92948885Y-91402522D01*
X92996257Y-91400040D01*
X92996258Y-91400040D01*
X93004840Y-91399590D01*
X93148773Y-91351151D01*
X93219940Y-91302786D01*
X93290760Y-91281000D01*
X93878000Y-91281000D01*
X93946121Y-91301002D01*
X93992614Y-91354658D01*
X94004000Y-91407000D01*
X94004000Y-92056341D01*
X93983998Y-92124462D01*
X93962170Y-92149292D01*
X93957000Y-92166443D01*
X93957000Y-92437885D01*
X93961475Y-92453124D01*
X93962865Y-92454329D01*
X93970548Y-92456000D01*
X94225976Y-92456000D01*
X94239212Y-92452113D01*
X94241186Y-92437655D01*
X94238655Y-92421678D01*
X94232602Y-92403050D01*
X94183869Y-92307406D01*
X94172348Y-92291548D01*
X94105683Y-92224883D01*
X94071657Y-92162571D01*
X94076722Y-92091756D01*
X94119269Y-92034920D01*
X94137578Y-92023520D01*
X94152595Y-92015869D01*
X94168448Y-92004351D01*
X94235556Y-91937244D01*
X94297869Y-91903219D01*
X94368684Y-91908285D01*
X94413746Y-91937245D01*
X94483595Y-92007094D01*
X94517621Y-92069406D01*
X94520500Y-92096189D01*
X94520500Y-93097235D01*
X94518295Y-93117953D01*
X94518118Y-93121711D01*
X94515927Y-93131887D01*
X94517768Y-93147442D01*
X94519627Y-93163149D01*
X94520011Y-93169666D01*
X94520072Y-93169661D01*
X94520500Y-93174840D01*
X94520500Y-93180040D01*
X94521354Y-93185168D01*
X94521354Y-93185173D01*
X94523909Y-93200523D01*
X94524746Y-93206400D01*
X94530767Y-93257272D01*
X94534728Y-93265520D01*
X94536230Y-93274546D01*
X94560569Y-93319654D01*
X94563247Y-93324912D01*
X94581989Y-93363944D01*
X94581991Y-93363948D01*
X94585421Y-93371090D01*
X94590828Y-93377522D01*
X94592766Y-93379460D01*
X94592942Y-93379651D01*
X94596185Y-93385663D01*
X94603833Y-93392732D01*
X94603837Y-93392738D01*
X94631202Y-93418033D01*
X94634769Y-93421463D01*
X95047863Y-93834557D01*
X95060944Y-93850753D01*
X95063480Y-93853540D01*
X95069131Y-93862292D01*
X95077310Y-93868739D01*
X95077310Y-93868740D01*
X95093855Y-93881783D01*
X95098738Y-93886123D01*
X95098778Y-93886076D01*
X95102737Y-93889431D01*
X95106414Y-93893108D01*
X95110639Y-93896127D01*
X95110648Y-93896135D01*
X95123318Y-93905189D01*
X95128056Y-93908746D01*
X95168285Y-93940459D01*
X95176916Y-93943490D01*
X95184362Y-93948811D01*
X95194340Y-93951795D01*
X95194342Y-93951796D01*
X95233454Y-93963493D01*
X95239101Y-93965328D01*
X95279933Y-93979668D01*
X95279936Y-93979669D01*
X95287412Y-93982294D01*
X95295784Y-93983019D01*
X95298493Y-93983019D01*
X95298786Y-93983032D01*
X95305328Y-93984988D01*
X95352963Y-93983116D01*
X95357912Y-93983019D01*
X100643716Y-93983019D01*
X100664434Y-93985224D01*
X100668192Y-93985401D01*
X100678368Y-93987592D01*
X100709630Y-93983892D01*
X100716147Y-93983508D01*
X100716142Y-93983447D01*
X100721321Y-93983019D01*
X100726521Y-93983019D01*
X100731649Y-93982165D01*
X100731654Y-93982165D01*
X100747004Y-93979610D01*
X100752881Y-93978773D01*
X100771135Y-93976612D01*
X100803753Y-93972752D01*
X100812001Y-93968791D01*
X100821027Y-93967289D01*
X100866135Y-93942950D01*
X100871393Y-93940272D01*
X100910425Y-93921530D01*
X100910429Y-93921528D01*
X100917571Y-93918098D01*
X100924003Y-93912691D01*
X100925941Y-93910753D01*
X100926132Y-93910577D01*
X100932144Y-93907334D01*
X100939213Y-93899686D01*
X100939219Y-93899682D01*
X100964514Y-93872317D01*
X100967944Y-93868750D01*
X101246392Y-93590302D01*
X101308704Y-93556276D01*
X101328893Y-93553570D01*
X101396257Y-93550040D01*
X101396259Y-93550040D01*
X101404840Y-93549590D01*
X101548773Y-93501151D01*
X101555878Y-93496322D01*
X101555881Y-93496321D01*
X101667275Y-93420618D01*
X101667276Y-93420617D01*
X101674379Y-93415790D01*
X101682278Y-93406443D01*
X101766858Y-93306355D01*
X101766860Y-93306352D01*
X101772401Y-93299795D01*
X101817851Y-93200523D01*
X101832045Y-93169522D01*
X101832045Y-93169520D01*
X101835620Y-93161713D01*
X101859377Y-93011717D01*
X101859500Y-93000000D01*
X101855294Y-92969298D01*
X101865865Y-92899094D01*
X101912714Y-92845749D01*
X101960419Y-92827749D01*
X101967478Y-92826631D01*
X101967479Y-92826631D01*
X101977270Y-92825080D01*
X102090729Y-92767270D01*
X102114155Y-92743844D01*
X102176467Y-92709818D01*
X102247282Y-92714883D01*
X102292345Y-92743844D01*
X102315771Y-92767270D01*
X102429230Y-92825080D01*
X102439019Y-92826631D01*
X102439021Y-92826631D01*
X102465933Y-92830893D01*
X102523431Y-92840000D01*
X102881569Y-92840000D01*
X102939067Y-92830893D01*
X102965979Y-92826631D01*
X102965981Y-92826631D01*
X102975770Y-92825080D01*
X103089229Y-92767270D01*
X103098405Y-92758094D01*
X103101684Y-92756304D01*
X103104261Y-92754431D01*
X103104503Y-92754764D01*
X103160717Y-92724068D01*
X103231532Y-92729133D01*
X103276595Y-92758094D01*
X103285771Y-92767270D01*
X103399230Y-92825080D01*
X103409019Y-92826631D01*
X103409021Y-92826631D01*
X103435933Y-92830893D01*
X103493431Y-92840000D01*
X103851569Y-92840000D01*
X103909067Y-92830893D01*
X103935979Y-92826631D01*
X103935981Y-92826631D01*
X103945770Y-92825080D01*
X104058052Y-92767870D01*
X104127827Y-92754766D01*
X104193611Y-92781466D01*
X104204348Y-92791042D01*
X104463595Y-93050289D01*
X104497621Y-93112601D01*
X104500500Y-93139384D01*
X104500500Y-93304069D01*
X104508634Y-93355422D01*
X104512466Y-93379617D01*
X104515420Y-93398270D01*
X104573230Y-93511729D01*
X104663271Y-93601770D01*
X104672102Y-93606270D01*
X104672104Y-93606271D01*
X104676779Y-93608653D01*
X104728393Y-93657403D01*
X104731294Y-93662867D01*
X104731990Y-93663945D01*
X104735421Y-93671090D01*
X104740828Y-93677522D01*
X104742766Y-93679460D01*
X104742942Y-93679651D01*
X104746185Y-93685663D01*
X104753833Y-93692732D01*
X104753837Y-93692738D01*
X104781202Y-93718033D01*
X104784769Y-93721463D01*
X105004464Y-93941158D01*
X105017545Y-93957354D01*
X105020081Y-93960141D01*
X105025732Y-93968893D01*
X105033911Y-93975340D01*
X105033911Y-93975341D01*
X105050456Y-93988384D01*
X105055336Y-93992721D01*
X105055376Y-93992674D01*
X105059333Y-93996027D01*
X105063014Y-93999708D01*
X105067246Y-94002732D01*
X105079911Y-94011783D01*
X105084657Y-94015347D01*
X105124886Y-94047060D01*
X105133520Y-94050092D01*
X105140963Y-94055411D01*
X105150941Y-94058395D01*
X105190023Y-94070083D01*
X105195671Y-94071918D01*
X105205563Y-94075392D01*
X105244013Y-94088895D01*
X105252385Y-94089620D01*
X105255099Y-94089620D01*
X105255391Y-94089633D01*
X105261929Y-94091588D01*
X105309549Y-94089717D01*
X105314496Y-94089620D01*
X106387115Y-94089620D01*
X106407833Y-94091825D01*
X106411591Y-94092002D01*
X106421767Y-94094193D01*
X106453029Y-94090493D01*
X106459546Y-94090109D01*
X106459541Y-94090048D01*
X106464720Y-94089620D01*
X106469920Y-94089620D01*
X106475048Y-94088766D01*
X106475053Y-94088766D01*
X106490403Y-94086211D01*
X106496280Y-94085374D01*
X106514534Y-94083213D01*
X106547152Y-94079353D01*
X106555400Y-94075392D01*
X106564426Y-94073890D01*
X106609534Y-94049551D01*
X106614792Y-94046873D01*
X106653824Y-94028131D01*
X106653828Y-94028129D01*
X106660970Y-94024699D01*
X106667402Y-94019292D01*
X106669340Y-94017354D01*
X106669531Y-94017178D01*
X106675543Y-94013935D01*
X106682612Y-94006287D01*
X106682618Y-94006283D01*
X106707913Y-93978918D01*
X106711343Y-93975351D01*
X107770289Y-92916405D01*
X107832601Y-92882379D01*
X107859384Y-92879500D01*
X115390616Y-92879500D01*
X115458737Y-92899502D01*
X115479711Y-92916405D01*
X115855033Y-93291727D01*
X115889059Y-93354039D01*
X115890287Y-93383554D01*
X115891578Y-93383554D01*
X115891578Y-93391812D01*
X115890500Y-93400000D01*
X115891578Y-93408188D01*
X115908836Y-93539274D01*
X115911268Y-93557750D01*
X115972158Y-93704750D01*
X116015728Y-93761532D01*
X116060225Y-93819522D01*
X116069018Y-93830982D01*
X116195250Y-93927842D01*
X116342250Y-93988732D01*
X116350432Y-93989809D01*
X116350435Y-93989810D01*
X116416588Y-93998519D01*
X116482653Y-94028216D01*
X116500000Y-94043247D01*
X116500000Y-94050000D01*
X116874000Y-94050000D01*
X116942121Y-94070002D01*
X116988614Y-94123658D01*
X117000000Y-94176000D01*
X117000000Y-94874000D01*
X116979998Y-94942121D01*
X116926342Y-94988614D01*
X116874000Y-95000000D01*
X77876000Y-95000000D01*
X77807879Y-94979998D01*
X77761386Y-94926342D01*
X77750000Y-94874000D01*
X77750000Y-90076000D01*
X77770002Y-90007879D01*
X77823658Y-89961386D01*
X77876000Y-89950000D01*
X78250000Y-89950000D01*
X78250000Y-89942207D01*
X78250654Y-89941452D01*
X78310380Y-89903069D01*
X78329431Y-89899043D01*
X78351138Y-89896185D01*
X78407750Y-89888732D01*
X78554750Y-89827842D01*
X78680982Y-89730982D01*
X78743538Y-89649456D01*
X78800875Y-89607590D01*
X78871746Y-89603368D01*
X78933649Y-89638132D01*
X78966930Y-89700844D01*
X78969500Y-89726161D01*
X78969500Y-89963069D01*
X78977408Y-90013000D01*
X78982366Y-90044299D01*
X78984420Y-90057270D01*
X79042230Y-90170729D01*
X79132271Y-90260770D01*
X79245730Y-90318580D01*
X79255519Y-90320131D01*
X79255521Y-90320131D01*
X79280683Y-90324116D01*
X79339931Y-90333500D01*
X79698069Y-90333500D01*
X79757317Y-90324116D01*
X79782479Y-90320131D01*
X79782481Y-90320131D01*
X79792270Y-90318580D01*
X79905729Y-90260770D01*
X79915259Y-90251240D01*
X79919072Y-90249158D01*
X79920761Y-90247931D01*
X79920920Y-90248149D01*
X79977573Y-90217218D01*
X80048389Y-90222287D01*
X80093445Y-90251245D01*
X80095548Y-90253348D01*
X80111406Y-90264869D01*
X80207048Y-90313602D01*
X80220251Y-90317892D01*
X80230788Y-90316530D01*
X80235000Y-90302557D01*
X80235000Y-90026548D01*
X80743000Y-90026548D01*
X80743000Y-90303017D01*
X80746886Y-90316252D01*
X80758090Y-90317781D01*
X80770952Y-90313602D01*
X80866594Y-90264869D01*
X80882452Y-90253348D01*
X80958348Y-90177452D01*
X80969869Y-90161594D01*
X81018602Y-90065950D01*
X81024655Y-90047322D01*
X81027257Y-90030894D01*
X81025489Y-90017212D01*
X81011515Y-90013000D01*
X80761115Y-90013000D01*
X80745876Y-90017475D01*
X80744671Y-90018865D01*
X80743000Y-90026548D01*
X80235000Y-90026548D01*
X80235000Y-89214983D01*
X80231114Y-89201748D01*
X80219910Y-89200219D01*
X80207052Y-89204397D01*
X80206703Y-89204575D01*
X80206234Y-89204663D01*
X80197620Y-89207462D01*
X80197258Y-89206349D01*
X80136926Y-89217679D01*
X80071142Y-89190979D01*
X80030235Y-89132952D01*
X80023500Y-89092308D01*
X80023500Y-88665148D01*
X80549000Y-88665148D01*
X80549000Y-88791413D01*
X80550207Y-88803668D01*
X80566294Y-88884543D01*
X80575610Y-88907035D01*
X80617966Y-88970425D01*
X80635175Y-88987634D01*
X80704523Y-89033971D01*
X80750051Y-89088448D01*
X80758899Y-89158891D01*
X80755161Y-89175097D01*
X80743000Y-89215445D01*
X80743000Y-89486885D01*
X80747475Y-89502124D01*
X80748865Y-89503329D01*
X80756548Y-89505000D01*
X81011976Y-89505000D01*
X81025212Y-89501113D01*
X81027186Y-89486655D01*
X81025832Y-89478106D01*
X81726743Y-89478106D01*
X81728511Y-89491788D01*
X81742485Y-89496000D01*
X81992885Y-89496000D01*
X82008124Y-89491525D01*
X82009329Y-89490135D01*
X82011000Y-89482452D01*
X82011000Y-89205983D01*
X82007114Y-89192748D01*
X81974248Y-89188263D01*
X81974568Y-89185915D01*
X81931019Y-89180290D01*
X81900048Y-89154222D01*
X81903651Y-89164434D01*
X81887324Y-89233528D01*
X81866927Y-89260273D01*
X81795652Y-89331548D01*
X81784131Y-89347406D01*
X81735398Y-89443050D01*
X81729345Y-89461678D01*
X81726743Y-89478106D01*
X81025832Y-89478106D01*
X81024655Y-89470678D01*
X81018602Y-89452050D01*
X80969869Y-89356406D01*
X80958348Y-89340548D01*
X80889495Y-89271695D01*
X80855469Y-89209383D01*
X80860534Y-89138568D01*
X80903081Y-89081732D01*
X80969601Y-89056921D01*
X80978590Y-89056600D01*
X80985885Y-89056600D01*
X81001124Y-89052125D01*
X81002329Y-89050735D01*
X81004000Y-89043052D01*
X81004000Y-88669715D01*
X80999525Y-88654476D01*
X80998135Y-88653271D01*
X80990452Y-88651600D01*
X80567115Y-88651600D01*
X80551876Y-88656075D01*
X80550671Y-88657465D01*
X80549000Y-88665148D01*
X80023500Y-88665148D01*
X80023500Y-88003787D01*
X80549000Y-88003787D01*
X80549000Y-88125485D01*
X80553475Y-88140724D01*
X80554865Y-88141929D01*
X80562548Y-88143600D01*
X80985885Y-88143600D01*
X81001124Y-88139125D01*
X81002329Y-88137735D01*
X81004000Y-88130052D01*
X81004000Y-87756715D01*
X80999525Y-87741476D01*
X80998135Y-87740271D01*
X80990452Y-87738600D01*
X80814187Y-87738600D01*
X80801932Y-87739807D01*
X80721057Y-87755894D01*
X80698565Y-87765210D01*
X80635175Y-87807566D01*
X80617966Y-87824775D01*
X80575610Y-87888165D01*
X80566294Y-87910657D01*
X80550207Y-87991532D01*
X80549000Y-88003787D01*
X80023500Y-88003787D01*
X80023500Y-87778385D01*
X80024748Y-87767214D01*
X80024158Y-87767167D01*
X80024878Y-87758216D01*
X80026859Y-87749462D01*
X80023742Y-87699219D01*
X80023500Y-87691418D01*
X80023500Y-87673686D01*
X80021847Y-87662141D01*
X80020819Y-87652104D01*
X80018470Y-87614238D01*
X80018470Y-87614236D01*
X80017914Y-87605280D01*
X80014866Y-87596838D01*
X80014180Y-87593524D01*
X80010246Y-87577742D01*
X80009293Y-87574483D01*
X80008021Y-87565600D01*
X80001878Y-87552088D01*
X79998468Y-87544590D01*
X79995860Y-87538853D01*
X79985872Y-87468563D01*
X80015472Y-87404031D01*
X80021465Y-87397606D01*
X80022501Y-87396570D01*
X80031284Y-87389553D01*
X80030900Y-87389101D01*
X80037736Y-87383283D01*
X80045328Y-87378493D01*
X80078657Y-87340754D01*
X80084003Y-87335068D01*
X80096535Y-87322536D01*
X80103525Y-87313209D01*
X80109900Y-87305379D01*
X80112665Y-87302249D01*
X80140955Y-87270216D01*
X80144771Y-87262090D01*
X80146618Y-87259277D01*
X80155023Y-87245289D01*
X80156635Y-87242345D01*
X80162018Y-87235162D01*
X80165167Y-87226761D01*
X80165169Y-87226758D01*
X80178488Y-87191227D01*
X80182416Y-87181905D01*
X80198533Y-87147577D01*
X80202348Y-87139452D01*
X80203729Y-87130582D01*
X80204722Y-87127335D01*
X80208852Y-87111590D01*
X80209575Y-87108302D01*
X80212726Y-87099896D01*
X80216203Y-87053106D01*
X80217357Y-87043057D01*
X80218862Y-87033395D01*
X80218862Y-87033389D01*
X80219611Y-87028582D01*
X80219611Y-87011920D01*
X80219956Y-87002608D01*
X80223432Y-86955835D01*
X80221559Y-86947059D01*
X80220948Y-86938098D01*
X80221032Y-86938092D01*
X80219611Y-86924636D01*
X80219611Y-86034893D01*
X80220859Y-86023721D01*
X80220269Y-86023674D01*
X80220989Y-86014728D01*
X80222970Y-86005972D01*
X80219853Y-85955729D01*
X80219611Y-85947928D01*
X80219611Y-85930197D01*
X80217958Y-85918657D01*
X80216930Y-85908614D01*
X80214581Y-85870748D01*
X80214581Y-85870746D01*
X80214025Y-85861790D01*
X80210978Y-85853349D01*
X80210296Y-85850057D01*
X80206357Y-85834257D01*
X80205405Y-85831003D01*
X80204132Y-85822111D01*
X80193687Y-85799138D01*
X80185348Y-85780799D01*
X80184713Y-85779403D01*
X80180899Y-85770034D01*
X80180103Y-85767827D01*
X80173676Y-85750025D01*
X80168019Y-85734354D01*
X80168018Y-85734351D01*
X80164972Y-85725915D01*
X80159681Y-85718672D01*
X80158101Y-85715701D01*
X80149878Y-85701629D01*
X80148056Y-85698781D01*
X80144340Y-85690607D01*
X80138479Y-85683805D01*
X80133645Y-85676246D01*
X80134761Y-85675533D01*
X80109234Y-85619225D01*
X80108000Y-85601637D01*
X80108000Y-85327548D01*
X80616000Y-85327548D01*
X80616000Y-85604017D01*
X80619886Y-85617252D01*
X80631090Y-85618781D01*
X80643952Y-85614602D01*
X80739594Y-85565869D01*
X80755452Y-85554348D01*
X80831348Y-85478452D01*
X80842869Y-85462594D01*
X80891602Y-85366950D01*
X80897655Y-85348322D01*
X80900257Y-85331894D01*
X80898489Y-85318212D01*
X80884515Y-85314000D01*
X80634115Y-85314000D01*
X80618876Y-85318475D01*
X80617671Y-85319865D01*
X80616000Y-85327548D01*
X80108000Y-85327548D01*
X80108000Y-84516443D01*
X80616000Y-84516443D01*
X80616000Y-84787885D01*
X80620475Y-84803124D01*
X80621865Y-84804329D01*
X80629548Y-84806000D01*
X80884976Y-84806000D01*
X80898212Y-84802113D01*
X80900186Y-84787655D01*
X80897655Y-84771678D01*
X80891603Y-84753053D01*
X80847606Y-84666703D01*
X80834502Y-84596926D01*
X80861202Y-84531141D01*
X80919230Y-84490235D01*
X80959873Y-84483500D01*
X81735000Y-84483500D01*
X81834306Y-84463747D01*
X81918494Y-84407494D01*
X81974747Y-84323306D01*
X81994500Y-84224000D01*
X81994500Y-83324000D01*
X81974747Y-83224694D01*
X81918494Y-83140506D01*
X81891187Y-83122260D01*
X81845659Y-83067783D01*
X81836811Y-82997340D01*
X81846625Y-82965044D01*
X81872045Y-82909522D01*
X81872045Y-82909520D01*
X81875620Y-82901713D01*
X81899377Y-82751717D01*
X81899500Y-82740000D01*
X81878889Y-82589539D01*
X81872945Y-82575803D01*
X81821987Y-82458045D01*
X81821985Y-82458042D01*
X81818576Y-82450164D01*
X81723004Y-82332142D01*
X81599214Y-82244169D01*
X81456327Y-82192726D01*
X81447767Y-82192097D01*
X81447765Y-82192097D01*
X81355187Y-82185299D01*
X81304869Y-82181604D01*
X81261852Y-82190278D01*
X81194904Y-82203776D01*
X81124174Y-82197633D01*
X81067993Y-82154225D01*
X81044000Y-82080262D01*
X81044000Y-82046115D01*
X81039525Y-82030876D01*
X81038135Y-82029671D01*
X81030452Y-82028000D01*
X80657115Y-82028000D01*
X80641876Y-82032475D01*
X80640671Y-82033865D01*
X80639000Y-82041548D01*
X80639000Y-82464885D01*
X80643475Y-82480124D01*
X80644865Y-82481329D01*
X80652548Y-82483000D01*
X80669605Y-82483000D01*
X80737726Y-82503002D01*
X80784219Y-82556658D01*
X80794323Y-82626932D01*
X80790603Y-82644149D01*
X80788898Y-82650018D01*
X80788897Y-82650022D01*
X80786502Y-82658267D01*
X80786412Y-82666853D01*
X80786412Y-82666854D01*
X80786065Y-82700000D01*
X80784912Y-82810124D01*
X80824218Y-82956815D01*
X80828591Y-82964209D01*
X80829258Y-82965796D01*
X80837219Y-83036344D01*
X80805775Y-83099998D01*
X80783108Y-83119390D01*
X80751506Y-83140506D01*
X80695253Y-83224694D01*
X80675500Y-83324000D01*
X80675500Y-84224000D01*
X80695253Y-84323306D01*
X80701466Y-84332604D01*
X80708964Y-84402349D01*
X80677184Y-84465836D01*
X80625667Y-84496402D01*
X80620808Y-84500492D01*
X80616000Y-84516443D01*
X80108000Y-84516443D01*
X80108000Y-84515983D01*
X80103526Y-84500745D01*
X80094226Y-84492687D01*
X80055841Y-84432961D01*
X80055840Y-84361964D01*
X80063627Y-84345307D01*
X80063103Y-84345090D01*
X80067852Y-84333625D01*
X80074747Y-84323306D01*
X80094500Y-84224000D01*
X80094500Y-83324000D01*
X80074747Y-83224694D01*
X80018494Y-83140506D01*
X79934306Y-83084253D01*
X79835000Y-83064500D01*
X79035000Y-83064500D01*
X78935694Y-83084253D01*
X78851506Y-83140506D01*
X78844613Y-83150822D01*
X78802731Y-83213502D01*
X78748254Y-83259030D01*
X78697966Y-83269500D01*
X78659219Y-83269500D01*
X78591098Y-83249498D01*
X78582526Y-83243471D01*
X78554750Y-83222158D01*
X78407750Y-83161268D01*
X78399568Y-83160191D01*
X78399565Y-83160190D01*
X78333412Y-83151481D01*
X78267347Y-83121784D01*
X78250000Y-83106753D01*
X78250000Y-83100000D01*
X77876000Y-83100000D01*
X77807879Y-83079998D01*
X77761386Y-83026342D01*
X77750000Y-82974000D01*
X77750000Y-82041548D01*
X79726000Y-82041548D01*
X79726000Y-82217813D01*
X79727207Y-82230068D01*
X79743294Y-82310943D01*
X79752610Y-82333435D01*
X79794966Y-82396825D01*
X79812175Y-82414034D01*
X79875565Y-82456390D01*
X79898057Y-82465706D01*
X79978932Y-82481793D01*
X79991187Y-82483000D01*
X80112885Y-82483000D01*
X80128124Y-82478525D01*
X80129329Y-82477135D01*
X80131000Y-82469452D01*
X80131000Y-82046115D01*
X80126525Y-82030876D01*
X80125135Y-82029671D01*
X80117452Y-82028000D01*
X79744115Y-82028000D01*
X79728876Y-82032475D01*
X79727671Y-82033865D01*
X79726000Y-82041548D01*
X77750000Y-82041548D01*
X77750000Y-81330187D01*
X79726000Y-81330187D01*
X79726000Y-81501885D01*
X79730475Y-81517124D01*
X79731865Y-81518329D01*
X79739548Y-81520000D01*
X80112885Y-81520000D01*
X80128124Y-81515525D01*
X80129329Y-81514135D01*
X80131000Y-81506452D01*
X80131000Y-81083115D01*
X80129659Y-81078548D01*
X80639000Y-81078548D01*
X80639000Y-81501885D01*
X80643475Y-81517124D01*
X80644865Y-81518329D01*
X80652548Y-81520000D01*
X81025885Y-81520000D01*
X81041124Y-81515525D01*
X81042329Y-81514135D01*
X81044000Y-81506452D01*
X81044000Y-81408859D01*
X82288550Y-81408859D01*
X82288550Y-81420435D01*
X82293025Y-81435674D01*
X82294415Y-81436879D01*
X82302098Y-81438550D01*
X82745435Y-81438550D01*
X82760674Y-81434075D01*
X82761879Y-81432685D01*
X82763550Y-81425002D01*
X82763550Y-81019165D01*
X82762209Y-81014598D01*
X83271550Y-81014598D01*
X83271550Y-81420435D01*
X83276025Y-81435674D01*
X83277415Y-81436879D01*
X83285098Y-81438550D01*
X83728387Y-81438550D01*
X83741928Y-81434574D01*
X83743936Y-81420633D01*
X83733620Y-81348598D01*
X83732934Y-81346251D01*
X84091108Y-81346251D01*
X84092470Y-81356788D01*
X84106443Y-81361000D01*
X84377885Y-81361000D01*
X84393124Y-81356525D01*
X84394329Y-81355135D01*
X84396000Y-81347452D01*
X84396000Y-81092485D01*
X84904000Y-81092485D01*
X84904000Y-81342885D01*
X84908475Y-81358124D01*
X84909865Y-81359329D01*
X84917548Y-81361000D01*
X85194017Y-81361000D01*
X85207252Y-81357114D01*
X85208781Y-81345910D01*
X85204602Y-81333048D01*
X85155869Y-81237406D01*
X85144348Y-81221548D01*
X85068452Y-81145652D01*
X85052594Y-81134131D01*
X84956950Y-81085398D01*
X84938322Y-81079345D01*
X84921894Y-81076743D01*
X84908212Y-81078511D01*
X84904000Y-81092485D01*
X84396000Y-81092485D01*
X84396000Y-81092024D01*
X84392113Y-81078788D01*
X84377655Y-81076814D01*
X84361678Y-81079345D01*
X84343050Y-81085398D01*
X84247406Y-81134131D01*
X84231548Y-81145652D01*
X84155652Y-81221548D01*
X84144131Y-81237406D01*
X84095398Y-81333048D01*
X84091108Y-81346251D01*
X83732934Y-81346251D01*
X83728632Y-81331540D01*
X83679998Y-81224576D01*
X83670421Y-81209599D01*
X83593721Y-81120585D01*
X83580327Y-81108902D01*
X83481731Y-81044995D01*
X83465588Y-81037536D01*
X83350953Y-81003253D01*
X83339076Y-81001062D01*
X83338741Y-81001050D01*
X83289665Y-81001050D01*
X83274426Y-81005525D01*
X83273221Y-81006915D01*
X83271550Y-81014598D01*
X82762209Y-81014598D01*
X82759075Y-81003926D01*
X82757685Y-81002721D01*
X82750002Y-81001050D01*
X82730867Y-81001050D01*
X82721947Y-81001686D01*
X82636097Y-81013980D01*
X82619042Y-81018967D01*
X82512076Y-81067602D01*
X82497099Y-81077179D01*
X82408085Y-81153879D01*
X82396402Y-81167273D01*
X82332495Y-81265869D01*
X82325036Y-81282012D01*
X82290753Y-81396647D01*
X82288562Y-81408524D01*
X82288550Y-81408859D01*
X81044000Y-81408859D01*
X81044000Y-81330187D01*
X81042793Y-81317932D01*
X81026706Y-81237057D01*
X81017390Y-81214565D01*
X80975034Y-81151175D01*
X80957825Y-81133966D01*
X80894435Y-81091610D01*
X80871943Y-81082294D01*
X80791068Y-81066207D01*
X80778813Y-81065000D01*
X80657115Y-81065000D01*
X80641876Y-81069475D01*
X80640671Y-81070865D01*
X80639000Y-81078548D01*
X80129659Y-81078548D01*
X80126525Y-81067876D01*
X80125135Y-81066671D01*
X80117452Y-81065000D01*
X79991187Y-81065000D01*
X79978932Y-81066207D01*
X79898057Y-81082294D01*
X79875565Y-81091610D01*
X79812175Y-81133966D01*
X79794966Y-81151175D01*
X79752610Y-81214565D01*
X79743294Y-81237057D01*
X79727207Y-81317932D01*
X79726000Y-81330187D01*
X77750000Y-81330187D01*
X77750000Y-80728106D01*
X87391743Y-80728106D01*
X87393511Y-80741788D01*
X87407485Y-80746000D01*
X87657885Y-80746000D01*
X87673124Y-80741525D01*
X87674329Y-80740135D01*
X87676000Y-80732452D01*
X87676000Y-80455983D01*
X87672114Y-80442748D01*
X87660910Y-80441219D01*
X87648048Y-80445398D01*
X87552406Y-80494131D01*
X87536548Y-80505652D01*
X87460652Y-80581548D01*
X87449131Y-80597406D01*
X87400398Y-80693050D01*
X87394345Y-80711678D01*
X87391743Y-80728106D01*
X77750000Y-80728106D01*
X77750000Y-80126000D01*
X77770002Y-80057879D01*
X77823658Y-80011386D01*
X77876000Y-80000000D01*
X116874000Y-80000000D01*
X116942121Y-80020002D01*
G37*
G04 #@! TD.AperFunction*
G04 #@! TA.AperFunction,Conductor*
G36*
X98304589Y-91320583D02*
G01*
X98324066Y-91331026D01*
X98374646Y-91380842D01*
X98390266Y-91450099D01*
X98388382Y-91463675D01*
X98386725Y-91468393D01*
X98386000Y-91476765D01*
X98386000Y-91479476D01*
X98385987Y-91479767D01*
X98384031Y-91486309D01*
X98384440Y-91496716D01*
X98385903Y-91533945D01*
X98386000Y-91538893D01*
X98386000Y-91691811D01*
X98365998Y-91759932D01*
X98312342Y-91806425D01*
X98242068Y-91816529D01*
X98177488Y-91787035D01*
X98170905Y-91780906D01*
X98153729Y-91763730D01*
X98040270Y-91705920D01*
X98030481Y-91704369D01*
X98030479Y-91704369D01*
X98003567Y-91700107D01*
X97946069Y-91691000D01*
X97587931Y-91691000D01*
X97530433Y-91700107D01*
X97503521Y-91704369D01*
X97503519Y-91704369D01*
X97493730Y-91705920D01*
X97380271Y-91763730D01*
X97370747Y-91773254D01*
X97366939Y-91775334D01*
X97365239Y-91776569D01*
X97365079Y-91776349D01*
X97308441Y-91807280D01*
X97237625Y-91802219D01*
X97192556Y-91773256D01*
X97190452Y-91771152D01*
X97174594Y-91759631D01*
X97078952Y-91710898D01*
X97065749Y-91706608D01*
X97055212Y-91707970D01*
X97051000Y-91721943D01*
X97051000Y-92393500D01*
X97030998Y-92461621D01*
X96977342Y-92508114D01*
X96925000Y-92519500D01*
X96274024Y-92519500D01*
X96258785Y-92523974D01*
X96242040Y-92543300D01*
X96182314Y-92581684D01*
X96111318Y-92581684D01*
X96073826Y-92563494D01*
X96016216Y-92522553D01*
X96009214Y-92517577D01*
X95866327Y-92466134D01*
X95857767Y-92465505D01*
X95857765Y-92465505D01*
X95765187Y-92458707D01*
X95714869Y-92455012D01*
X95565999Y-92485029D01*
X95558347Y-92488928D01*
X95462703Y-92537661D01*
X95392926Y-92550765D01*
X95327141Y-92524065D01*
X95286235Y-92466037D01*
X95279500Y-92425394D01*
X95279500Y-92096189D01*
X95299502Y-92028068D01*
X95316405Y-92007094D01*
X95401770Y-91921729D01*
X95406272Y-91912894D01*
X95422369Y-91881303D01*
X95471117Y-91829688D01*
X95540032Y-91812623D01*
X95573570Y-91818674D01*
X95577899Y-91820081D01*
X95586730Y-91824580D01*
X95680931Y-91839500D01*
X96089069Y-91839500D01*
X96116856Y-91835099D01*
X96187267Y-91844199D01*
X96241581Y-91889921D01*
X96262554Y-91957749D01*
X96261016Y-91979260D01*
X96258743Y-91993608D01*
X96260511Y-92007288D01*
X96274485Y-92011500D01*
X96524885Y-92011500D01*
X96540124Y-92007025D01*
X96541329Y-92005635D01*
X96543000Y-91997952D01*
X96543000Y-91721483D01*
X96538525Y-91706244D01*
X96533602Y-91701978D01*
X96486521Y-91680882D01*
X96447711Y-91621432D01*
X96448330Y-91563864D01*
X96444580Y-91563270D01*
X96449040Y-91535110D01*
X96459500Y-91469069D01*
X96459500Y-91449144D01*
X96479502Y-91381023D01*
X96533158Y-91334530D01*
X96610081Y-91325565D01*
X96655000Y-91334500D01*
X98105000Y-91334500D01*
X98122475Y-91331024D01*
X98192136Y-91317168D01*
X98192137Y-91317167D01*
X98204306Y-91314747D01*
X98204893Y-91314355D01*
X98267426Y-91307632D01*
X98304589Y-91320583D01*
G37*
G04 #@! TD.AperFunction*
G04 #@! TA.AperFunction,Conductor*
G36*
X107193885Y-89032520D02*
G01*
X107234183Y-89090971D01*
X107240500Y-89130367D01*
X107240500Y-90625348D01*
X107220498Y-90693469D01*
X107166842Y-90739962D01*
X107096568Y-90750066D01*
X107066440Y-90740340D01*
X107066214Y-90740969D01*
X106923327Y-90689526D01*
X106914767Y-90688897D01*
X106914765Y-90688897D01*
X106808415Y-90681087D01*
X106760180Y-90666801D01*
X106755434Y-90663060D01*
X106746803Y-90660029D01*
X106739357Y-90654708D01*
X106729379Y-90651724D01*
X106729377Y-90651723D01*
X106690265Y-90640026D01*
X106684618Y-90638191D01*
X106643786Y-90623851D01*
X106643783Y-90623850D01*
X106636307Y-90621225D01*
X106627935Y-90620500D01*
X106625226Y-90620500D01*
X106624933Y-90620487D01*
X106618391Y-90618531D01*
X106607983Y-90618940D01*
X106585553Y-90619821D01*
X106516700Y-90602508D01*
X106491512Y-90583013D01*
X106406729Y-90498230D01*
X106293270Y-90440420D01*
X106283481Y-90438869D01*
X106283479Y-90438869D01*
X106248177Y-90433278D01*
X106199069Y-90425500D01*
X105840931Y-90425500D01*
X105791823Y-90433278D01*
X105756521Y-90438869D01*
X105756519Y-90438869D01*
X105746730Y-90440420D01*
X105737895Y-90444922D01*
X105737894Y-90444922D01*
X105643483Y-90493026D01*
X105573707Y-90506130D01*
X105507922Y-90479430D01*
X105467016Y-90421402D01*
X105465891Y-90357568D01*
X105463020Y-90357113D01*
X105474758Y-90283001D01*
X105486777Y-90207117D01*
X105486900Y-90195400D01*
X105478116Y-90131278D01*
X105488687Y-90061075D01*
X105535536Y-90007730D01*
X105603789Y-89988182D01*
X105660152Y-90001912D01*
X105738050Y-90041602D01*
X105756678Y-90047655D01*
X105773106Y-90050257D01*
X105786788Y-90048489D01*
X105791000Y-90034515D01*
X105791000Y-89779548D01*
X106299000Y-89779548D01*
X106299000Y-90034976D01*
X106302887Y-90048212D01*
X106317345Y-90050186D01*
X106333322Y-90047655D01*
X106351950Y-90041602D01*
X106447594Y-89992869D01*
X106463452Y-89981348D01*
X106539348Y-89905452D01*
X106550869Y-89889594D01*
X106599602Y-89793952D01*
X106603892Y-89780749D01*
X106602530Y-89770212D01*
X106588557Y-89766000D01*
X106317115Y-89766000D01*
X106301876Y-89770475D01*
X106300671Y-89771865D01*
X106299000Y-89779548D01*
X105791000Y-89779548D01*
X105791000Y-89384000D01*
X105811002Y-89315879D01*
X105864658Y-89269386D01*
X105917000Y-89258000D01*
X106589017Y-89258000D01*
X106602252Y-89254114D01*
X106603781Y-89242909D01*
X106601504Y-89235903D01*
X106599475Y-89164935D01*
X106636136Y-89104136D01*
X106699848Y-89072810D01*
X106748819Y-89073998D01*
X106760182Y-89076538D01*
X106855885Y-89071522D01*
X106903257Y-89069040D01*
X106903258Y-89069040D01*
X106911840Y-89068590D01*
X107055773Y-89020151D01*
X107060079Y-89017225D01*
X107128383Y-89005134D01*
X107193885Y-89032520D01*
G37*
G04 #@! TD.AperFunction*
G04 #@! TA.AperFunction,Conductor*
G36*
X102265168Y-88573353D02*
G01*
X102297158Y-88636734D01*
X102298733Y-88648286D01*
X102300686Y-88670106D01*
X102315840Y-88675000D01*
X102357987Y-88675000D01*
X102427989Y-88696235D01*
X102455694Y-88714747D01*
X102555000Y-88734500D01*
X103379000Y-88734500D01*
X103447121Y-88754502D01*
X103493614Y-88808158D01*
X103505000Y-88860500D01*
X103505000Y-88939500D01*
X103484998Y-89007621D01*
X103431342Y-89054114D01*
X103379000Y-89065500D01*
X102555000Y-89065500D01*
X102455694Y-89085253D01*
X102445375Y-89092148D01*
X102427989Y-89103765D01*
X102357987Y-89125000D01*
X102314115Y-89125000D01*
X102301714Y-89128641D01*
X102299871Y-89144459D01*
X102310752Y-89199161D01*
X102310752Y-89248322D01*
X102295500Y-89325000D01*
X102295500Y-89775000D01*
X102297210Y-89783595D01*
X102297394Y-89784520D01*
X102297229Y-89786367D01*
X102297314Y-89787232D01*
X102297150Y-89787248D01*
X102291067Y-89855234D01*
X102262003Y-89894034D01*
X102264334Y-89896189D01*
X102258106Y-89902926D01*
X102253099Y-89905921D01*
X102251051Y-89908655D01*
X102249048Y-89910209D01*
X102248060Y-89908935D01*
X102197177Y-89939369D01*
X102126217Y-89937086D01*
X102067663Y-89896688D01*
X102064615Y-89892923D01*
X101983004Y-89792142D01*
X101859214Y-89704169D01*
X101716327Y-89652726D01*
X101707767Y-89652097D01*
X101707765Y-89652097D01*
X101615187Y-89645299D01*
X101564869Y-89641604D01*
X101415999Y-89671621D01*
X101408347Y-89675520D01*
X101288337Y-89736668D01*
X101288334Y-89736670D01*
X101280686Y-89740567D01*
X101229919Y-89787250D01*
X101166237Y-89818634D01*
X101144634Y-89820500D01*
X100009385Y-89820500D01*
X99941264Y-89800498D01*
X99920289Y-89783595D01*
X99593103Y-89456408D01*
X99559078Y-89394096D01*
X99557365Y-89384414D01*
X99551044Y-89338271D01*
X99544119Y-89287720D01*
X99554690Y-89217516D01*
X99601539Y-89164171D01*
X99668953Y-89144620D01*
X101182115Y-89144620D01*
X101202833Y-89146825D01*
X101206591Y-89147002D01*
X101216767Y-89149193D01*
X101248029Y-89145493D01*
X101254546Y-89145109D01*
X101254541Y-89145048D01*
X101259720Y-89144620D01*
X101264920Y-89144620D01*
X101270048Y-89143766D01*
X101270053Y-89143766D01*
X101285403Y-89141211D01*
X101291280Y-89140374D01*
X101309534Y-89138213D01*
X101342152Y-89134353D01*
X101350400Y-89130392D01*
X101359426Y-89128890D01*
X101404534Y-89104551D01*
X101409792Y-89101873D01*
X101448824Y-89083131D01*
X101448828Y-89083129D01*
X101455970Y-89079699D01*
X101462402Y-89074292D01*
X101464340Y-89072354D01*
X101464531Y-89072178D01*
X101470543Y-89068935D01*
X101477612Y-89061287D01*
X101477618Y-89061283D01*
X101502913Y-89033918D01*
X101506343Y-89030351D01*
X101946392Y-88590302D01*
X102008704Y-88556276D01*
X102028893Y-88553570D01*
X102096257Y-88550040D01*
X102096259Y-88550040D01*
X102104840Y-88549590D01*
X102112986Y-88546849D01*
X102112989Y-88546848D01*
X102133048Y-88540098D01*
X102203990Y-88537328D01*
X102265168Y-88573353D01*
G37*
G04 #@! TD.AperFunction*
G04 #@! TA.AperFunction,Conductor*
G36*
X95146121Y-87201002D02*
G01*
X95192614Y-87254658D01*
X95204000Y-87307000D01*
X95204000Y-87957976D01*
X95207887Y-87971212D01*
X95222345Y-87973186D01*
X95238322Y-87970655D01*
X95256950Y-87964602D01*
X95352594Y-87915869D01*
X95368452Y-87904348D01*
X95444348Y-87828452D01*
X95455869Y-87812594D01*
X95504602Y-87716951D01*
X95510655Y-87698321D01*
X95518823Y-87646755D01*
X95549236Y-87582602D01*
X95609505Y-87545076D01*
X95670758Y-87543502D01*
X95677800Y-87545076D01*
X95702797Y-87550664D01*
X95702799Y-87550664D01*
X95711182Y-87552538D01*
X95840551Y-87545758D01*
X95909624Y-87562167D01*
X95958861Y-87613316D01*
X95969427Y-87641209D01*
X95974633Y-87662164D01*
X95977119Y-87672173D01*
X95979125Y-87681860D01*
X95982015Y-87699220D01*
X95986230Y-87724546D01*
X95991176Y-87733712D01*
X95992720Y-87738222D01*
X95994612Y-87742595D01*
X95997123Y-87752703D01*
X96002771Y-87761450D01*
X96020597Y-87789057D01*
X96025633Y-87797573D01*
X96041240Y-87826499D01*
X96041242Y-87826501D01*
X96046185Y-87835663D01*
X96053829Y-87842729D01*
X96056743Y-87846486D01*
X96059964Y-87850025D01*
X96065612Y-87858773D01*
X96073791Y-87865220D01*
X96073792Y-87865222D01*
X96099593Y-87885562D01*
X96107117Y-87891988D01*
X96131252Y-87914299D01*
X96131258Y-87914303D01*
X96138901Y-87921368D01*
X96148422Y-87925577D01*
X96152397Y-87928188D01*
X96156585Y-87930490D01*
X96164766Y-87936940D01*
X96202423Y-87950164D01*
X96205607Y-87951282D01*
X96214806Y-87954925D01*
X96254379Y-87972420D01*
X96264756Y-87973319D01*
X96272451Y-87975295D01*
X96276411Y-87976147D01*
X96283893Y-87978775D01*
X96291793Y-87979459D01*
X96296019Y-87980369D01*
X96358404Y-88014260D01*
X96392563Y-88076499D01*
X96395500Y-88103547D01*
X96395500Y-88355681D01*
X96375498Y-88423802D01*
X96321842Y-88470295D01*
X96251568Y-88480399D01*
X96212297Y-88467948D01*
X96182422Y-88452726D01*
X96158270Y-88440420D01*
X96148481Y-88438869D01*
X96148479Y-88438869D01*
X96121567Y-88434607D01*
X96064069Y-88425500D01*
X95705931Y-88425500D01*
X95648433Y-88434607D01*
X95621521Y-88438869D01*
X95621519Y-88438869D01*
X95611730Y-88440420D01*
X95498271Y-88498230D01*
X95488747Y-88507754D01*
X95484939Y-88509834D01*
X95483239Y-88511069D01*
X95483079Y-88510849D01*
X95426441Y-88541780D01*
X95355625Y-88536719D01*
X95310556Y-88507756D01*
X95308452Y-88505652D01*
X95292594Y-88494131D01*
X95196952Y-88445398D01*
X95183749Y-88441108D01*
X95173212Y-88442470D01*
X95169000Y-88456443D01*
X95169000Y-89104620D01*
X95148998Y-89172741D01*
X95095342Y-89219234D01*
X95043000Y-89230620D01*
X94787000Y-89230620D01*
X94718879Y-89210618D01*
X94672386Y-89156962D01*
X94661000Y-89104620D01*
X94661000Y-88455983D01*
X94657114Y-88442748D01*
X94645910Y-88441219D01*
X94633048Y-88445398D01*
X94547406Y-88489035D01*
X94477630Y-88502139D01*
X94411845Y-88475439D01*
X94379318Y-88436602D01*
X94365927Y-88411784D01*
X94351184Y-88342337D01*
X94369787Y-88287809D01*
X94371368Y-88286099D01*
X94405580Y-88208712D01*
X94418712Y-88179009D01*
X94418712Y-88179007D01*
X94422420Y-88170621D01*
X94429500Y-88114578D01*
X94429500Y-88061406D01*
X94449502Y-87993285D01*
X94503158Y-87946792D01*
X94573432Y-87936688D01*
X94612703Y-87949139D01*
X94643053Y-87964603D01*
X94661678Y-87970655D01*
X94678106Y-87973257D01*
X94691788Y-87971489D01*
X94696000Y-87957515D01*
X94696000Y-87307000D01*
X94716002Y-87238879D01*
X94769658Y-87192386D01*
X94822000Y-87181000D01*
X95078000Y-87181000D01*
X95146121Y-87201002D01*
G37*
G04 #@! TD.AperFunction*
G04 #@! TA.AperFunction,Conductor*
G36*
X83562054Y-87441318D02*
G01*
X83580911Y-87456224D01*
X83671134Y-87542745D01*
X83804974Y-87614509D01*
X83813356Y-87616383D01*
X83813357Y-87616383D01*
X83944797Y-87645764D01*
X83944799Y-87645764D01*
X83953182Y-87647638D01*
X83957701Y-87647401D01*
X84022082Y-87672327D01*
X84063921Y-87729686D01*
X84071080Y-87780168D01*
X84070997Y-87781489D01*
X84070500Y-87785422D01*
X84070500Y-88105040D01*
X84071354Y-88110170D01*
X84071354Y-88110172D01*
X84072255Y-88115583D01*
X84086230Y-88199546D01*
X84132931Y-88286099D01*
X84134072Y-88288213D01*
X84148816Y-88357662D01*
X84130213Y-88412191D01*
X84128632Y-88413901D01*
X84124422Y-88423424D01*
X84085675Y-88511069D01*
X84077580Y-88529379D01*
X84076430Y-88538480D01*
X84076430Y-88538481D01*
X84076163Y-88540595D01*
X84070500Y-88585422D01*
X84070500Y-88596953D01*
X84050498Y-88665074D01*
X83996842Y-88711567D01*
X83926568Y-88721671D01*
X83901819Y-88715504D01*
X83899399Y-88714633D01*
X83866327Y-88702726D01*
X83857767Y-88702097D01*
X83857765Y-88702097D01*
X83789398Y-88697077D01*
X83744716Y-88693796D01*
X83678244Y-88668859D01*
X83671433Y-88663359D01*
X83648135Y-88643171D01*
X83640452Y-88641500D01*
X82797000Y-88641500D01*
X82728879Y-88621498D01*
X82682386Y-88567842D01*
X82671000Y-88515500D01*
X82671000Y-88259500D01*
X82691002Y-88191379D01*
X82744658Y-88144886D01*
X82797000Y-88133500D01*
X83635837Y-88133500D01*
X83649378Y-88129524D01*
X83651386Y-88115583D01*
X83641070Y-88043548D01*
X83636082Y-88026490D01*
X83587448Y-87919526D01*
X83577871Y-87904549D01*
X83501171Y-87815535D01*
X83487777Y-87803852D01*
X83389181Y-87739945D01*
X83373036Y-87732485D01*
X83338990Y-87722303D01*
X83279456Y-87683622D01*
X83250286Y-87618895D01*
X83260740Y-87548672D01*
X83307500Y-87495249D01*
X83322939Y-87486885D01*
X83341986Y-87478225D01*
X83438916Y-87434153D01*
X83440142Y-87436849D01*
X83493977Y-87421168D01*
X83562054Y-87441318D01*
G37*
G04 #@! TD.AperFunction*
G04 #@! TA.AperFunction,Conductor*
G36*
X111458737Y-81199502D02*
G01*
X111479711Y-81216405D01*
X111783595Y-81520289D01*
X111817621Y-81582601D01*
X111820500Y-81609384D01*
X111820500Y-83575000D01*
X111840253Y-83674306D01*
X111896506Y-83758494D01*
X111906822Y-83765387D01*
X111908821Y-83766723D01*
X111980694Y-83814747D01*
X112080000Y-83834500D01*
X113280000Y-83834500D01*
X113345420Y-83821487D01*
X113416132Y-83827815D01*
X113472200Y-83871369D01*
X113496000Y-83945066D01*
X113496000Y-84524000D01*
X113496360Y-84527345D01*
X113496360Y-84527353D01*
X113501425Y-84574469D01*
X113501513Y-84600560D01*
X113497825Y-84637191D01*
X113491103Y-84703942D01*
X113491327Y-84708608D01*
X113491327Y-84708614D01*
X113494765Y-84780181D01*
X113503615Y-84964429D01*
X113547536Y-85185234D01*
X113547945Y-85187291D01*
X113541617Y-85258005D01*
X113498063Y-85314072D01*
X113431110Y-85337691D01*
X113399882Y-85332356D01*
X113399306Y-85335253D01*
X113306068Y-85316707D01*
X113300000Y-85315500D01*
X107500000Y-85315500D01*
X107400694Y-85335253D01*
X107316506Y-85391506D01*
X107260253Y-85475694D01*
X107240500Y-85575000D01*
X107240500Y-87907548D01*
X107220498Y-87975669D01*
X107166842Y-88022162D01*
X107096568Y-88032266D01*
X107066440Y-88022540D01*
X107066214Y-88023169D01*
X106923327Y-87971726D01*
X106914767Y-87971097D01*
X106914765Y-87971097D01*
X106822187Y-87964299D01*
X106771869Y-87960604D01*
X106702282Y-87974635D01*
X106632441Y-87988717D01*
X106561711Y-87982574D01*
X106505530Y-87939166D01*
X106481736Y-87872276D01*
X106483088Y-87845492D01*
X106492500Y-87786069D01*
X106492500Y-87427931D01*
X106477580Y-87333730D01*
X106419770Y-87220271D01*
X106410245Y-87210746D01*
X106408166Y-87206939D01*
X106406931Y-87205239D01*
X106407151Y-87205079D01*
X106376219Y-87148434D01*
X106381284Y-87077619D01*
X106410240Y-87032560D01*
X106412349Y-87030451D01*
X106423869Y-87014594D01*
X106472602Y-86918952D01*
X106476892Y-86905749D01*
X106475530Y-86895212D01*
X106461557Y-86891000D01*
X104774000Y-86891000D01*
X104705879Y-86870998D01*
X104659386Y-86817342D01*
X104648000Y-86765000D01*
X104648000Y-86509000D01*
X104668002Y-86440879D01*
X104721658Y-86394386D01*
X104774000Y-86383000D01*
X105645885Y-86383000D01*
X105661124Y-86378525D01*
X105662329Y-86377135D01*
X105664000Y-86369452D01*
X105664000Y-86230115D01*
X105650219Y-86183180D01*
X105646102Y-86176774D01*
X105641000Y-86141281D01*
X105641000Y-85865548D01*
X106149000Y-85865548D01*
X106149000Y-86029885D01*
X106162781Y-86076820D01*
X106166898Y-86083226D01*
X106172000Y-86118719D01*
X106172000Y-86364885D01*
X106176475Y-86380124D01*
X106177865Y-86381329D01*
X106185548Y-86383000D01*
X106462017Y-86383000D01*
X106475252Y-86379114D01*
X106476781Y-86367910D01*
X106472602Y-86355048D01*
X106423869Y-86259406D01*
X106412348Y-86243548D01*
X106363895Y-86195095D01*
X106329869Y-86132783D01*
X106334934Y-86061968D01*
X106358872Y-86024721D01*
X106358524Y-86024468D01*
X106362945Y-86018383D01*
X106363895Y-86016905D01*
X106364348Y-86016452D01*
X106375869Y-86000594D01*
X106424602Y-85904950D01*
X106430655Y-85886322D01*
X106433257Y-85869894D01*
X106431489Y-85856212D01*
X106417515Y-85852000D01*
X106167115Y-85852000D01*
X106151876Y-85856475D01*
X106150671Y-85857865D01*
X106149000Y-85865548D01*
X105641000Y-85865548D01*
X105641000Y-85057170D01*
X105641801Y-85054443D01*
X106149000Y-85054443D01*
X106149000Y-85325885D01*
X106153475Y-85341124D01*
X106154865Y-85342329D01*
X106162548Y-85344000D01*
X106417976Y-85344000D01*
X106431212Y-85340113D01*
X106433186Y-85325655D01*
X106430655Y-85309678D01*
X106424602Y-85291050D01*
X106375869Y-85195406D01*
X106364348Y-85179548D01*
X106288452Y-85103652D01*
X106272594Y-85092131D01*
X106176952Y-85043398D01*
X106163749Y-85039108D01*
X106153212Y-85040470D01*
X106149000Y-85054443D01*
X105641801Y-85054443D01*
X105661002Y-84989049D01*
X105684752Y-84961717D01*
X105765465Y-84892170D01*
X105777148Y-84878777D01*
X105841055Y-84780181D01*
X105848514Y-84764038D01*
X105882797Y-84649403D01*
X105884988Y-84637526D01*
X105885000Y-84637191D01*
X105885000Y-84625615D01*
X105880525Y-84610376D01*
X105879135Y-84609171D01*
X105871452Y-84607500D01*
X105028000Y-84607500D01*
X104959879Y-84587498D01*
X104913386Y-84533842D01*
X104902000Y-84481500D01*
X104902000Y-84225500D01*
X104922002Y-84157379D01*
X104975658Y-84110886D01*
X105028000Y-84099500D01*
X105866837Y-84099500D01*
X105880378Y-84095524D01*
X105882386Y-84081583D01*
X105872070Y-84009548D01*
X105867081Y-83992487D01*
X105843139Y-83939830D01*
X105833151Y-83869539D01*
X105862752Y-83805007D01*
X105922542Y-83766723D01*
X105993538Y-83766841D01*
X106015041Y-83775411D01*
X106092894Y-83815078D01*
X106101730Y-83819580D01*
X106111519Y-83821131D01*
X106111521Y-83821131D01*
X106138433Y-83825393D01*
X106195931Y-83834500D01*
X106604069Y-83834500D01*
X106661567Y-83825393D01*
X106688479Y-83821131D01*
X106688481Y-83821131D01*
X106698270Y-83819580D01*
X106811729Y-83761770D01*
X106901770Y-83671729D01*
X106925444Y-83625267D01*
X106955551Y-83588876D01*
X106955663Y-83588815D01*
X106962735Y-83581165D01*
X106988033Y-83553798D01*
X106991463Y-83550231D01*
X107046336Y-83495358D01*
X107108648Y-83461332D01*
X107179463Y-83466397D01*
X107236299Y-83508944D01*
X107260500Y-83571269D01*
X107260500Y-83575000D01*
X107280253Y-83674306D01*
X107336506Y-83758494D01*
X107346822Y-83765387D01*
X107346824Y-83765389D01*
X107362187Y-83775654D01*
X107383638Y-83793744D01*
X107384076Y-83794207D01*
X107385918Y-83796332D01*
X107387929Y-83798273D01*
X107387939Y-83798283D01*
X107404846Y-83814596D01*
X107418502Y-83827773D01*
X107506319Y-83873709D01*
X107574440Y-83893711D01*
X107578899Y-83894352D01*
X107578903Y-83894353D01*
X107600639Y-83897478D01*
X107646000Y-83904000D01*
X110174000Y-83904000D01*
X110177347Y-83903640D01*
X110177351Y-83903640D01*
X110224626Y-83898558D01*
X110224633Y-83898557D01*
X110227990Y-83898196D01*
X110231291Y-83897478D01*
X110278678Y-83887170D01*
X110278685Y-83887168D01*
X110280332Y-83886810D01*
X110306555Y-83879616D01*
X110364373Y-83846692D01*
X110387298Y-83833638D01*
X110387302Y-83833635D01*
X110392676Y-83830575D01*
X110433778Y-83794960D01*
X110444209Y-83785922D01*
X110444214Y-83785917D01*
X110446332Y-83784082D01*
X110477773Y-83751498D01*
X110523709Y-83663681D01*
X110543711Y-83595560D01*
X110545245Y-83584895D01*
X110550480Y-83548479D01*
X110554000Y-83524000D01*
X110554000Y-81426000D01*
X110553402Y-81420435D01*
X110548558Y-81375374D01*
X110548557Y-81375367D01*
X110548196Y-81372010D01*
X110545438Y-81359329D01*
X110541860Y-81342885D01*
X110539554Y-81332282D01*
X110544619Y-81261467D01*
X110587166Y-81204632D01*
X110653687Y-81179821D01*
X110662675Y-81179500D01*
X111390616Y-81179500D01*
X111458737Y-81199502D01*
G37*
G04 #@! TD.AperFunction*
G04 #@! TA.AperFunction,Conductor*
G36*
X88512191Y-83519787D02*
G01*
X88513901Y-83521368D01*
X88523424Y-83525578D01*
X88620991Y-83568712D01*
X88620993Y-83568712D01*
X88629379Y-83572420D01*
X88638480Y-83573570D01*
X88638481Y-83573570D01*
X88649226Y-83574927D01*
X88685422Y-83579500D01*
X89005040Y-83579500D01*
X89010170Y-83578646D01*
X89010172Y-83578646D01*
X89085914Y-83566039D01*
X89099546Y-83563770D01*
X89108714Y-83558823D01*
X89108715Y-83558823D01*
X89138356Y-83542830D01*
X89207804Y-83528086D01*
X89274200Y-83553229D01*
X89309061Y-83593861D01*
X89310537Y-83596595D01*
X89313247Y-83601912D01*
X89331989Y-83640944D01*
X89331991Y-83640948D01*
X89335421Y-83648090D01*
X89340828Y-83654522D01*
X89342766Y-83656460D01*
X89342942Y-83656651D01*
X89346185Y-83662663D01*
X89353833Y-83669732D01*
X89353837Y-83669738D01*
X89381202Y-83695033D01*
X89384769Y-83698463D01*
X89610344Y-83924038D01*
X89623425Y-83940234D01*
X89625961Y-83943021D01*
X89631612Y-83951773D01*
X89639791Y-83958220D01*
X89639791Y-83958221D01*
X89656336Y-83971264D01*
X89661219Y-83975604D01*
X89661259Y-83975557D01*
X89665218Y-83978912D01*
X89668895Y-83982589D01*
X89673120Y-83985608D01*
X89673129Y-83985616D01*
X89685799Y-83994670D01*
X89690537Y-83998227D01*
X89730766Y-84029940D01*
X89739397Y-84032971D01*
X89746843Y-84038292D01*
X89756821Y-84041276D01*
X89756823Y-84041277D01*
X89795935Y-84052974D01*
X89801576Y-84054807D01*
X89812195Y-84058536D01*
X89842414Y-84069149D01*
X89842417Y-84069150D01*
X89849893Y-84071775D01*
X89858265Y-84072500D01*
X89860974Y-84072500D01*
X89861267Y-84072513D01*
X89867809Y-84074469D01*
X89915444Y-84072597D01*
X89920393Y-84072500D01*
X90604431Y-84072500D01*
X90672552Y-84092502D01*
X90712884Y-84134360D01*
X90743148Y-84185534D01*
X90743151Y-84185538D01*
X90747524Y-84192932D01*
X90857134Y-84298045D01*
X90990974Y-84369809D01*
X90999356Y-84371683D01*
X90999357Y-84371683D01*
X91130797Y-84401064D01*
X91130799Y-84401064D01*
X91139182Y-84402938D01*
X91234885Y-84397922D01*
X91282257Y-84395440D01*
X91282258Y-84395440D01*
X91290840Y-84394990D01*
X91298983Y-84392250D01*
X91298986Y-84392249D01*
X91322942Y-84384187D01*
X91393884Y-84381417D01*
X91455063Y-84417441D01*
X91487053Y-84480822D01*
X91484127Y-84538758D01*
X91448898Y-84660018D01*
X91448897Y-84660022D01*
X91446502Y-84668267D01*
X91446412Y-84676853D01*
X91446412Y-84676854D01*
X91445695Y-84745342D01*
X91444912Y-84820124D01*
X91484218Y-84966815D01*
X91561524Y-85097532D01*
X91567725Y-85103478D01*
X91567726Y-85103480D01*
X91605114Y-85139334D01*
X91671134Y-85202645D01*
X91678710Y-85206707D01*
X91678711Y-85206708D01*
X91791713Y-85267299D01*
X91842296Y-85317117D01*
X91857916Y-85386374D01*
X91833612Y-85453082D01*
X91821267Y-85467438D01*
X91767760Y-85520945D01*
X91751568Y-85534022D01*
X91748775Y-85536563D01*
X91740027Y-85542212D01*
X91733580Y-85550390D01*
X91733579Y-85550391D01*
X91720540Y-85566931D01*
X91716198Y-85571816D01*
X91716245Y-85571856D01*
X91712892Y-85575813D01*
X91709211Y-85579494D01*
X91706187Y-85583726D01*
X91697126Y-85596405D01*
X91693562Y-85601151D01*
X91661860Y-85641366D01*
X91658829Y-85649997D01*
X91653508Y-85657443D01*
X91650524Y-85667421D01*
X91650523Y-85667423D01*
X91638826Y-85706535D01*
X91636993Y-85712176D01*
X91635755Y-85715701D01*
X91623154Y-85751584D01*
X91620025Y-85760493D01*
X91619300Y-85768865D01*
X91619300Y-85771574D01*
X91619287Y-85771867D01*
X91617331Y-85778409D01*
X91617740Y-85788816D01*
X91619203Y-85826045D01*
X91619300Y-85830993D01*
X91619300Y-85875200D01*
X91599298Y-85943321D01*
X91578586Y-85967948D01*
X91574023Y-85972143D01*
X91574016Y-85972151D01*
X91567698Y-85977961D01*
X91538440Y-86025150D01*
X91497799Y-86090697D01*
X91487671Y-86107031D01*
X91445302Y-86252867D01*
X91445212Y-86261453D01*
X91445212Y-86261454D01*
X91444578Y-86321980D01*
X91443712Y-86404724D01*
X91483018Y-86551415D01*
X91560324Y-86682132D01*
X91566525Y-86688078D01*
X91566526Y-86688080D01*
X91592407Y-86712899D01*
X91669934Y-86787245D01*
X91803774Y-86859009D01*
X91812159Y-86860883D01*
X91812158Y-86860883D01*
X91874760Y-86874877D01*
X91936877Y-86909258D01*
X91970545Y-86971764D01*
X91965075Y-87042549D01*
X91936369Y-87086937D01*
X91822303Y-87201002D01*
X91708957Y-87314348D01*
X91692769Y-87327422D01*
X91689978Y-87329961D01*
X91681227Y-87335612D01*
X91674780Y-87343790D01*
X91674779Y-87343791D01*
X91661740Y-87360331D01*
X91657398Y-87365216D01*
X91657445Y-87365256D01*
X91654092Y-87369213D01*
X91650411Y-87372894D01*
X91647387Y-87377126D01*
X91638326Y-87389805D01*
X91634762Y-87394551D01*
X91603060Y-87434766D01*
X91600029Y-87443397D01*
X91594708Y-87450843D01*
X91591724Y-87460821D01*
X91591723Y-87460823D01*
X91580026Y-87499935D01*
X91578191Y-87505582D01*
X91564082Y-87545758D01*
X91561225Y-87553893D01*
X91560500Y-87562265D01*
X91560500Y-87564974D01*
X91560487Y-87565267D01*
X91558531Y-87571809D01*
X91558940Y-87582216D01*
X91560403Y-87619445D01*
X91560500Y-87624393D01*
X91560500Y-87780600D01*
X91540498Y-87848721D01*
X91519786Y-87873348D01*
X91515223Y-87877543D01*
X91515216Y-87877551D01*
X91508898Y-87883361D01*
X91504374Y-87890657D01*
X91504371Y-87890661D01*
X91455330Y-87969756D01*
X91402433Y-88017111D01*
X91332332Y-88028350D01*
X91267283Y-87999906D01*
X91259149Y-87992454D01*
X87061290Y-83794595D01*
X87027264Y-83732283D01*
X87032329Y-83661468D01*
X87074876Y-83604632D01*
X87141396Y-83579821D01*
X87150385Y-83579500D01*
X87405040Y-83579500D01*
X87410170Y-83578646D01*
X87410172Y-83578646D01*
X87485914Y-83566039D01*
X87499546Y-83563770D01*
X87588214Y-83515928D01*
X87657662Y-83501184D01*
X87712191Y-83519787D01*
X87713901Y-83521368D01*
X87723424Y-83525578D01*
X87820991Y-83568712D01*
X87820993Y-83568712D01*
X87829379Y-83572420D01*
X87838480Y-83573570D01*
X87838481Y-83573570D01*
X87849226Y-83574927D01*
X87885422Y-83579500D01*
X88205040Y-83579500D01*
X88210170Y-83578646D01*
X88210172Y-83578646D01*
X88285914Y-83566039D01*
X88299546Y-83563770D01*
X88388214Y-83515928D01*
X88457662Y-83501184D01*
X88512191Y-83519787D01*
G37*
G04 #@! TD.AperFunction*
G04 #@! TA.AperFunction,Conductor*
G36*
X78781011Y-85197071D02*
G01*
X78831807Y-85246673D01*
X78846394Y-85288657D01*
X78854895Y-85342329D01*
X78857420Y-85358270D01*
X78915230Y-85471729D01*
X78923706Y-85480205D01*
X78924917Y-85482423D01*
X78928069Y-85486761D01*
X78927508Y-85487168D01*
X78957732Y-85542517D01*
X78960611Y-85569300D01*
X78960611Y-85645326D01*
X78959363Y-85656497D01*
X78959953Y-85656544D01*
X78959233Y-85665495D01*
X78957252Y-85674249D01*
X78957808Y-85683208D01*
X78960369Y-85724491D01*
X78960611Y-85732293D01*
X78960611Y-85750025D01*
X78962264Y-85761570D01*
X78963292Y-85771607D01*
X78966197Y-85818431D01*
X78969245Y-85826875D01*
X78969934Y-85830200D01*
X78973870Y-85845985D01*
X78974818Y-85849226D01*
X78976090Y-85858111D01*
X78979805Y-85866282D01*
X78979806Y-85866285D01*
X78995510Y-85900822D01*
X78999313Y-85910163D01*
X79015250Y-85954307D01*
X79020544Y-85961554D01*
X79022127Y-85964531D01*
X79030344Y-85978593D01*
X79032166Y-85981441D01*
X79035882Y-85989615D01*
X79043360Y-85998294D01*
X79066500Y-86025150D01*
X79072786Y-86033066D01*
X79081440Y-86044911D01*
X79093215Y-86056686D01*
X79099574Y-86063534D01*
X79124320Y-86092254D01*
X79124322Y-86092256D01*
X79130178Y-86099052D01*
X79137707Y-86103932D01*
X79144475Y-86109836D01*
X79144420Y-86109899D01*
X79154941Y-86118412D01*
X79173706Y-86137177D01*
X79207732Y-86199489D01*
X79210611Y-86226272D01*
X79210611Y-86662100D01*
X79190609Y-86730221D01*
X79136953Y-86776714D01*
X79084611Y-86788100D01*
X78808000Y-86788100D01*
X78708694Y-86807853D01*
X78624506Y-86864106D01*
X78568253Y-86948294D01*
X78548500Y-87047600D01*
X78548500Y-87586123D01*
X78528498Y-87654244D01*
X78474842Y-87700737D01*
X78406054Y-87711045D01*
X78362259Y-87705279D01*
X78333412Y-87701481D01*
X78267347Y-87671784D01*
X78250000Y-87656753D01*
X78250000Y-87650000D01*
X77876000Y-87650000D01*
X77807879Y-87629998D01*
X77761386Y-87576342D01*
X77750000Y-87524000D01*
X77750000Y-85526000D01*
X77770002Y-85457879D01*
X77823658Y-85411386D01*
X77876000Y-85400000D01*
X78250000Y-85400000D01*
X78250000Y-85392207D01*
X78250654Y-85391452D01*
X78310380Y-85353069D01*
X78329431Y-85349043D01*
X78347611Y-85346649D01*
X78407750Y-85338732D01*
X78554750Y-85277842D01*
X78645242Y-85208406D01*
X78711462Y-85182806D01*
X78781011Y-85197071D01*
G37*
G04 #@! TD.AperFunction*
G04 #@! TA.AperFunction,Conductor*
G36*
X94944032Y-83363633D02*
G01*
X94989095Y-83392594D01*
X94998271Y-83401770D01*
X95007104Y-83406270D01*
X95007103Y-83406270D01*
X95111730Y-83459580D01*
X95110724Y-83461555D01*
X95147230Y-83483924D01*
X95233595Y-83570289D01*
X95267621Y-83632601D01*
X95270500Y-83659384D01*
X95270500Y-83915967D01*
X95250498Y-83984088D01*
X95225644Y-84012360D01*
X95208808Y-84026533D01*
X95204000Y-84042485D01*
X95204000Y-84693000D01*
X95183998Y-84761121D01*
X95130342Y-84807614D01*
X95078000Y-84819000D01*
X94822000Y-84819000D01*
X94753879Y-84798998D01*
X94707386Y-84745342D01*
X94696000Y-84693000D01*
X94696000Y-84042024D01*
X94692113Y-84028788D01*
X94677655Y-84026814D01*
X94661678Y-84029345D01*
X94643053Y-84035397D01*
X94612703Y-84050861D01*
X94542927Y-84063965D01*
X94477142Y-84037265D01*
X94436235Y-83979238D01*
X94429500Y-83938594D01*
X94429500Y-83794960D01*
X94427690Y-83784082D01*
X94415480Y-83710728D01*
X94413770Y-83700454D01*
X94408824Y-83691287D01*
X94392121Y-83660330D01*
X94377378Y-83590882D01*
X94402521Y-83524487D01*
X94459570Y-83482225D01*
X94503010Y-83474500D01*
X94594069Y-83474500D01*
X94659928Y-83464069D01*
X94678479Y-83461131D01*
X94678481Y-83461131D01*
X94688270Y-83459580D01*
X94801729Y-83401770D01*
X94810905Y-83392594D01*
X94814184Y-83390804D01*
X94816761Y-83388931D01*
X94817003Y-83389264D01*
X94873217Y-83358568D01*
X94944032Y-83363633D01*
G37*
G04 #@! TD.AperFunction*
G04 #@! TA.AperFunction,Conductor*
G36*
X96081803Y-81565927D02*
G01*
X96135931Y-81574500D01*
X96300616Y-81574500D01*
X96368737Y-81594502D01*
X96389711Y-81611405D01*
X96611233Y-81832927D01*
X96645259Y-81895239D01*
X96640194Y-81966054D01*
X96597647Y-82022890D01*
X96591994Y-82025184D01*
X96573808Y-82040492D01*
X96569000Y-82056443D01*
X96569000Y-83728000D01*
X96548998Y-83796121D01*
X96495342Y-83842614D01*
X96443000Y-83854000D01*
X96187000Y-83854000D01*
X96118879Y-83833998D01*
X96072386Y-83780342D01*
X96061000Y-83728000D01*
X96061000Y-82055983D01*
X96057114Y-82042748D01*
X96045909Y-82041219D01*
X96033052Y-82045397D01*
X95990140Y-82067261D01*
X95977532Y-82079169D01*
X95969629Y-82108386D01*
X95965413Y-82107246D01*
X95953998Y-82146121D01*
X95900342Y-82192614D01*
X95848000Y-82204000D01*
X95257000Y-82204000D01*
X95188879Y-82183998D01*
X95142386Y-82130342D01*
X95131000Y-82078000D01*
X95131000Y-81822000D01*
X95151002Y-81753879D01*
X95204658Y-81707386D01*
X95257000Y-81696000D01*
X95907976Y-81696000D01*
X95921212Y-81692114D01*
X95924060Y-81671247D01*
X95953090Y-81606457D01*
X96012541Y-81567648D01*
X96068613Y-81563838D01*
X96081803Y-81565927D01*
G37*
G04 #@! TD.AperFunction*
G04 #@! TA.AperFunction,Conductor*
G36*
X99621022Y-81802854D02*
G01*
X99621134Y-81802645D01*
X99754974Y-81874409D01*
X99763356Y-81876283D01*
X99763357Y-81876283D01*
X99894797Y-81905664D01*
X99894799Y-81905664D01*
X99903182Y-81907538D01*
X99998885Y-81902522D01*
X100046257Y-81900040D01*
X100046258Y-81900040D01*
X100054840Y-81899590D01*
X100198773Y-81851151D01*
X100205881Y-81846320D01*
X100210771Y-81843893D01*
X100280681Y-81831519D01*
X100346183Y-81858906D01*
X100386480Y-81917358D01*
X100392190Y-81969100D01*
X100391000Y-81981184D01*
X100391000Y-82027885D01*
X100395475Y-82043124D01*
X100396865Y-82044329D01*
X100404548Y-82046000D01*
X101388000Y-82046000D01*
X101456121Y-82066002D01*
X101502614Y-82119658D01*
X101514000Y-82172000D01*
X101514000Y-82428000D01*
X101493998Y-82496121D01*
X101440342Y-82542614D01*
X101388000Y-82554000D01*
X100409115Y-82554000D01*
X100389304Y-82559817D01*
X100318307Y-82559817D01*
X100264711Y-82528016D01*
X100105655Y-82368960D01*
X100092578Y-82352768D01*
X100090037Y-82349975D01*
X100084388Y-82341227D01*
X100064439Y-82325500D01*
X100059669Y-82321740D01*
X100054784Y-82317398D01*
X100054744Y-82317445D01*
X100050787Y-82314092D01*
X100047106Y-82310411D01*
X100030194Y-82298325D01*
X100025448Y-82294762D01*
X99993412Y-82269507D01*
X99985234Y-82263060D01*
X99976603Y-82260029D01*
X99969157Y-82254708D01*
X99959179Y-82251724D01*
X99959177Y-82251723D01*
X99920065Y-82240026D01*
X99914418Y-82238191D01*
X99873586Y-82223851D01*
X99873583Y-82223850D01*
X99866107Y-82221225D01*
X99857735Y-82220500D01*
X99855026Y-82220500D01*
X99854733Y-82220487D01*
X99848191Y-82218531D01*
X99822821Y-82219528D01*
X99800555Y-82220403D01*
X99795607Y-82220500D01*
X98559384Y-82220500D01*
X98491263Y-82200498D01*
X98470289Y-82183595D01*
X98436289Y-82149595D01*
X98402263Y-82087283D01*
X98407328Y-82016468D01*
X98449875Y-81959632D01*
X98516395Y-81934821D01*
X98525384Y-81934500D01*
X99250000Y-81934500D01*
X99349306Y-81914747D01*
X99433494Y-81858494D01*
X99447781Y-81837113D01*
X99502256Y-81791586D01*
X99572699Y-81782737D01*
X99621022Y-81802854D01*
G37*
G04 #@! TD.AperFunction*
G04 #@! TD*
G04 #@! TA.AperFunction,Conductor*
G04 #@! TO.N,/LSU_H-*
G36*
X115492121Y-81420002D02*
G01*
X115538614Y-81473658D01*
X115550000Y-81526000D01*
X115550000Y-84524000D01*
X115529998Y-84592121D01*
X115476342Y-84638614D01*
X115424000Y-84650000D01*
X113876000Y-84650000D01*
X113807879Y-84629998D01*
X113761386Y-84576342D01*
X113750000Y-84524000D01*
X113750000Y-81526000D01*
X113770002Y-81457879D01*
X113823658Y-81411386D01*
X113876000Y-81400000D01*
X115424000Y-81400000D01*
X115492121Y-81420002D01*
G37*
G04 #@! TD.AperFunction*
G04 #@! TD*
M02*
