G04 #@! TF.GenerationSoftware,KiCad,Pcbnew,(5.99.0-9294-gd3cf97847e)*
G04 #@! TF.CreationDate,2021-03-10T21:33:55+02:00*
G04 #@! TF.ProjectId,hellen1-wbo,68656c6c-656e-4312-9d77-626f2e6b6963,rev?*
G04 #@! TF.SameCoordinates,Original*
G04 #@! TF.FileFunction,Paste,Top*
G04 #@! TF.FilePolarity,Positive*
%FSLAX46Y46*%
G04 Gerber Fmt 4.6, Leading zero omitted, Abs format (unit mm)*
G04 Created by KiCad (PCBNEW (5.99.0-9294-gd3cf97847e)) date 2021-03-10 21:33:55*
%MOMM*%
%LPD*%
G01*
G04 APERTURE LIST*
%ADD10R,0.900000X0.800000*%
%ADD11R,1.450000X0.450000*%
%ADD12R,2.750000X3.050000*%
%ADD13R,1.200000X2.200000*%
%ADD14R,1.220000X0.650000*%
%ADD15R,0.800000X0.900000*%
G04 APERTURE END LIST*
G04 #@! TO.C,C612*
G36*
G01*
X95122500Y-85830000D02*
X94777500Y-85830000D01*
G75*
G02*
X94630000Y-85682500I0J147500D01*
G01*
X94630000Y-85387500D01*
G75*
G02*
X94777500Y-85240000I147500J0D01*
G01*
X95122500Y-85240000D01*
G75*
G02*
X95270000Y-85387500I0J-147500D01*
G01*
X95270000Y-85682500D01*
G75*
G02*
X95122500Y-85830000I-147500J0D01*
G01*
G37*
G36*
G01*
X95122500Y-84860000D02*
X94777500Y-84860000D01*
G75*
G02*
X94630000Y-84712500I0J147500D01*
G01*
X94630000Y-84417500D01*
G75*
G02*
X94777500Y-84270000I147500J0D01*
G01*
X95122500Y-84270000D01*
G75*
G02*
X95270000Y-84417500I0J-147500D01*
G01*
X95270000Y-84712500D01*
G75*
G02*
X95122500Y-84860000I-147500J0D01*
G01*
G37*
G04 #@! TD*
G04 #@! TO.C,C605*
G36*
G01*
X103967500Y-92093000D02*
X103967500Y-92438000D01*
G75*
G02*
X103820000Y-92585500I-147500J0D01*
G01*
X103525000Y-92585500D01*
G75*
G02*
X103377500Y-92438000I0J147500D01*
G01*
X103377500Y-92093000D01*
G75*
G02*
X103525000Y-91945500I147500J0D01*
G01*
X103820000Y-91945500D01*
G75*
G02*
X103967500Y-92093000I0J-147500D01*
G01*
G37*
G36*
G01*
X102997500Y-92093000D02*
X102997500Y-92438000D01*
G75*
G02*
X102850000Y-92585500I-147500J0D01*
G01*
X102555000Y-92585500D01*
G75*
G02*
X102407500Y-92438000I0J147500D01*
G01*
X102407500Y-92093000D01*
G75*
G02*
X102555000Y-91945500I147500J0D01*
G01*
X102850000Y-91945500D01*
G75*
G02*
X102997500Y-92093000I0J-147500D01*
G01*
G37*
G04 #@! TD*
G04 #@! TO.C,C607*
G36*
G01*
X104630000Y-85770500D02*
X104630000Y-85425500D01*
G75*
G02*
X104777500Y-85278000I147500J0D01*
G01*
X105072500Y-85278000D01*
G75*
G02*
X105220000Y-85425500I0J-147500D01*
G01*
X105220000Y-85770500D01*
G75*
G02*
X105072500Y-85918000I-147500J0D01*
G01*
X104777500Y-85918000D01*
G75*
G02*
X104630000Y-85770500I0J147500D01*
G01*
G37*
G36*
G01*
X105600000Y-85770500D02*
X105600000Y-85425500D01*
G75*
G02*
X105747500Y-85278000I147500J0D01*
G01*
X106042500Y-85278000D01*
G75*
G02*
X106190000Y-85425500I0J-147500D01*
G01*
X106190000Y-85770500D01*
G75*
G02*
X106042500Y-85918000I-147500J0D01*
G01*
X105747500Y-85918000D01*
G75*
G02*
X105600000Y-85770500I0J147500D01*
G01*
G37*
G04 #@! TD*
G04 #@! TO.C,C613*
G36*
G01*
X79224000Y-89931500D02*
X79224000Y-89586500D01*
G75*
G02*
X79371500Y-89439000I147500J0D01*
G01*
X79666500Y-89439000D01*
G75*
G02*
X79814000Y-89586500I0J-147500D01*
G01*
X79814000Y-89931500D01*
G75*
G02*
X79666500Y-90079000I-147500J0D01*
G01*
X79371500Y-90079000D01*
G75*
G02*
X79224000Y-89931500I0J147500D01*
G01*
G37*
G36*
G01*
X80194000Y-89931500D02*
X80194000Y-89586500D01*
G75*
G02*
X80341500Y-89439000I147500J0D01*
G01*
X80636500Y-89439000D01*
G75*
G02*
X80784000Y-89586500I0J-147500D01*
G01*
X80784000Y-89931500D01*
G75*
G02*
X80636500Y-90079000I-147500J0D01*
G01*
X80341500Y-90079000D01*
G75*
G02*
X80194000Y-89931500I0J147500D01*
G01*
G37*
G04 #@! TD*
G04 #@! TO.C,C616*
G36*
G01*
X82668750Y-86375000D02*
X83181250Y-86375000D01*
G75*
G02*
X83400000Y-86593750I0J-218750D01*
G01*
X83400000Y-87031250D01*
G75*
G02*
X83181250Y-87250000I-218750J0D01*
G01*
X82668750Y-87250000D01*
G75*
G02*
X82450000Y-87031250I0J218750D01*
G01*
X82450000Y-86593750D01*
G75*
G02*
X82668750Y-86375000I218750J0D01*
G01*
G37*
G36*
G01*
X82668750Y-87950000D02*
X83181250Y-87950000D01*
G75*
G02*
X83400000Y-88168750I0J-218750D01*
G01*
X83400000Y-88606250D01*
G75*
G02*
X83181250Y-88825000I-218750J0D01*
G01*
X82668750Y-88825000D01*
G75*
G02*
X82450000Y-88606250I0J218750D01*
G01*
X82450000Y-88168750D01*
G75*
G02*
X82668750Y-87950000I218750J0D01*
G01*
G37*
G04 #@! TD*
G04 #@! TO.C,R609*
G36*
G01*
X100629000Y-85600250D02*
X100629000Y-85087750D01*
G75*
G02*
X100847750Y-84869000I218750J0D01*
G01*
X101285250Y-84869000D01*
G75*
G02*
X101504000Y-85087750I0J-218750D01*
G01*
X101504000Y-85600250D01*
G75*
G02*
X101285250Y-85819000I-218750J0D01*
G01*
X100847750Y-85819000D01*
G75*
G02*
X100629000Y-85600250I0J218750D01*
G01*
G37*
G36*
G01*
X102204000Y-85600250D02*
X102204000Y-85087750D01*
G75*
G02*
X102422750Y-84869000I218750J0D01*
G01*
X102860250Y-84869000D01*
G75*
G02*
X103079000Y-85087750I0J-218750D01*
G01*
X103079000Y-85600250D01*
G75*
G02*
X102860250Y-85819000I-218750J0D01*
G01*
X102422750Y-85819000D01*
G75*
G02*
X102204000Y-85600250I0J218750D01*
G01*
G37*
G04 #@! TD*
G04 #@! TO.C,R607*
G36*
G01*
X101999000Y-92093000D02*
X101999000Y-92438000D01*
G75*
G02*
X101851500Y-92585500I-147500J0D01*
G01*
X101556500Y-92585500D01*
G75*
G02*
X101409000Y-92438000I0J147500D01*
G01*
X101409000Y-92093000D01*
G75*
G02*
X101556500Y-91945500I147500J0D01*
G01*
X101851500Y-91945500D01*
G75*
G02*
X101999000Y-92093000I0J-147500D01*
G01*
G37*
G36*
G01*
X101029000Y-92093000D02*
X101029000Y-92438000D01*
G75*
G02*
X100881500Y-92585500I-147500J0D01*
G01*
X100586500Y-92585500D01*
G75*
G02*
X100439000Y-92438000I0J147500D01*
G01*
X100439000Y-92093000D01*
G75*
G02*
X100586500Y-91945500I147500J0D01*
G01*
X100881500Y-91945500D01*
G75*
G02*
X101029000Y-92093000I0J-147500D01*
G01*
G37*
G04 #@! TD*
G04 #@! TO.C,R601*
G36*
G01*
X105074500Y-87902000D02*
X104729500Y-87902000D01*
G75*
G02*
X104582000Y-87754500I0J147500D01*
G01*
X104582000Y-87459500D01*
G75*
G02*
X104729500Y-87312000I147500J0D01*
G01*
X105074500Y-87312000D01*
G75*
G02*
X105222000Y-87459500I0J-147500D01*
G01*
X105222000Y-87754500D01*
G75*
G02*
X105074500Y-87902000I-147500J0D01*
G01*
G37*
G36*
G01*
X105074500Y-86932000D02*
X104729500Y-86932000D01*
G75*
G02*
X104582000Y-86784500I0J147500D01*
G01*
X104582000Y-86489500D01*
G75*
G02*
X104729500Y-86342000I147500J0D01*
G01*
X105074500Y-86342000D01*
G75*
G02*
X105222000Y-86489500I0J-147500D01*
G01*
X105222000Y-86784500D01*
G75*
G02*
X105074500Y-86932000I-147500J0D01*
G01*
G37*
G04 #@! TD*
G04 #@! TO.C,R614*
G36*
G01*
X103477500Y-82320000D02*
X103822500Y-82320000D01*
G75*
G02*
X103970000Y-82467500I0J-147500D01*
G01*
X103970000Y-82762500D01*
G75*
G02*
X103822500Y-82910000I-147500J0D01*
G01*
X103477500Y-82910000D01*
G75*
G02*
X103330000Y-82762500I0J147500D01*
G01*
X103330000Y-82467500D01*
G75*
G02*
X103477500Y-82320000I147500J0D01*
G01*
G37*
G36*
G01*
X103477500Y-83290000D02*
X103822500Y-83290000D01*
G75*
G02*
X103970000Y-83437500I0J-147500D01*
G01*
X103970000Y-83732500D01*
G75*
G02*
X103822500Y-83880000I-147500J0D01*
G01*
X103477500Y-83880000D01*
G75*
G02*
X103330000Y-83732500I0J147500D01*
G01*
X103330000Y-83437500D01*
G75*
G02*
X103477500Y-83290000I147500J0D01*
G01*
G37*
G04 #@! TD*
G04 #@! TO.C,R615*
G36*
G01*
X102320000Y-81472500D02*
X102320000Y-81127500D01*
G75*
G02*
X102467500Y-80980000I147500J0D01*
G01*
X102762500Y-80980000D01*
G75*
G02*
X102910000Y-81127500I0J-147500D01*
G01*
X102910000Y-81472500D01*
G75*
G02*
X102762500Y-81620000I-147500J0D01*
G01*
X102467500Y-81620000D01*
G75*
G02*
X102320000Y-81472500I0J147500D01*
G01*
G37*
G36*
G01*
X103290000Y-81472500D02*
X103290000Y-81127500D01*
G75*
G02*
X103437500Y-80980000I147500J0D01*
G01*
X103732500Y-80980000D01*
G75*
G02*
X103880000Y-81127500I0J-147500D01*
G01*
X103880000Y-81472500D01*
G75*
G02*
X103732500Y-81620000I-147500J0D01*
G01*
X103437500Y-81620000D01*
G75*
G02*
X103290000Y-81472500I0J147500D01*
G01*
G37*
G04 #@! TD*
G04 #@! TO.C,R621*
G36*
G01*
X96020000Y-81172500D02*
X96020000Y-80827500D01*
G75*
G02*
X96167500Y-80680000I147500J0D01*
G01*
X96462500Y-80680000D01*
G75*
G02*
X96610000Y-80827500I0J-147500D01*
G01*
X96610000Y-81172500D01*
G75*
G02*
X96462500Y-81320000I-147500J0D01*
G01*
X96167500Y-81320000D01*
G75*
G02*
X96020000Y-81172500I0J147500D01*
G01*
G37*
G36*
G01*
X96990000Y-81172500D02*
X96990000Y-80827500D01*
G75*
G02*
X97137500Y-80680000I147500J0D01*
G01*
X97432500Y-80680000D01*
G75*
G02*
X97580000Y-80827500I0J-147500D01*
G01*
X97580000Y-81172500D01*
G75*
G02*
X97432500Y-81320000I-147500J0D01*
G01*
X97137500Y-81320000D01*
G75*
G02*
X96990000Y-81172500I0J147500D01*
G01*
G37*
G04 #@! TD*
G04 #@! TO.C,R619*
G36*
G01*
X100030500Y-92093000D02*
X100030500Y-92438000D01*
G75*
G02*
X99883000Y-92585500I-147500J0D01*
G01*
X99588000Y-92585500D01*
G75*
G02*
X99440500Y-92438000I0J147500D01*
G01*
X99440500Y-92093000D01*
G75*
G02*
X99588000Y-91945500I147500J0D01*
G01*
X99883000Y-91945500D01*
G75*
G02*
X100030500Y-92093000I0J-147500D01*
G01*
G37*
G36*
G01*
X99060500Y-92093000D02*
X99060500Y-92438000D01*
G75*
G02*
X98913000Y-92585500I-147500J0D01*
G01*
X98618000Y-92585500D01*
G75*
G02*
X98470500Y-92438000I0J147500D01*
G01*
X98470500Y-92093000D01*
G75*
G02*
X98618000Y-91945500I147500J0D01*
G01*
X98913000Y-91945500D01*
G75*
G02*
X99060500Y-92093000I0J-147500D01*
G01*
G37*
G04 #@! TD*
G04 #@! TO.C,R620*
G36*
G01*
X98062000Y-92093000D02*
X98062000Y-92438000D01*
G75*
G02*
X97914500Y-92585500I-147500J0D01*
G01*
X97619500Y-92585500D01*
G75*
G02*
X97472000Y-92438000I0J147500D01*
G01*
X97472000Y-92093000D01*
G75*
G02*
X97619500Y-91945500I147500J0D01*
G01*
X97914500Y-91945500D01*
G75*
G02*
X98062000Y-92093000I0J-147500D01*
G01*
G37*
G36*
G01*
X97092000Y-92093000D02*
X97092000Y-92438000D01*
G75*
G02*
X96944500Y-92585500I-147500J0D01*
G01*
X96649500Y-92585500D01*
G75*
G02*
X96502000Y-92438000I0J147500D01*
G01*
X96502000Y-92093000D01*
G75*
G02*
X96649500Y-91945500I147500J0D01*
G01*
X96944500Y-91945500D01*
G75*
G02*
X97092000Y-92093000I0J-147500D01*
G01*
G37*
G04 #@! TD*
G04 #@! TO.C,R606*
G36*
G01*
X104058500Y-85870000D02*
X103713500Y-85870000D01*
G75*
G02*
X103566000Y-85722500I0J147500D01*
G01*
X103566000Y-85427500D01*
G75*
G02*
X103713500Y-85280000I147500J0D01*
G01*
X104058500Y-85280000D01*
G75*
G02*
X104206000Y-85427500I0J-147500D01*
G01*
X104206000Y-85722500D01*
G75*
G02*
X104058500Y-85870000I-147500J0D01*
G01*
G37*
G36*
G01*
X104058500Y-84900000D02*
X103713500Y-84900000D01*
G75*
G02*
X103566000Y-84752500I0J147500D01*
G01*
X103566000Y-84457500D01*
G75*
G02*
X103713500Y-84310000I147500J0D01*
G01*
X104058500Y-84310000D01*
G75*
G02*
X104206000Y-84457500I0J-147500D01*
G01*
X104206000Y-84752500D01*
G75*
G02*
X104058500Y-84900000I-147500J0D01*
G01*
G37*
G04 #@! TD*
D10*
G04 #@! TO.C,U604*
X81258000Y-88397600D03*
X81258000Y-86497600D03*
X79258000Y-87447600D03*
G04 #@! TD*
D11*
G04 #@! TO.C,U600*
X97380000Y-86950000D03*
X97380000Y-87600000D03*
X97380000Y-88250000D03*
X97380000Y-88900000D03*
X97380000Y-89550000D03*
X97380000Y-90200000D03*
X97380000Y-90850000D03*
X103280000Y-90850000D03*
X103280000Y-90200000D03*
X103280000Y-89550000D03*
X103280000Y-88900000D03*
X103280000Y-88250000D03*
X103280000Y-87600000D03*
X103280000Y-86950000D03*
G04 #@! TD*
G04 #@! TO.C,C600*
G36*
G01*
X106090500Y-87902000D02*
X105745500Y-87902000D01*
G75*
G02*
X105598000Y-87754500I0J147500D01*
G01*
X105598000Y-87459500D01*
G75*
G02*
X105745500Y-87312000I147500J0D01*
G01*
X106090500Y-87312000D01*
G75*
G02*
X106238000Y-87459500I0J-147500D01*
G01*
X106238000Y-87754500D01*
G75*
G02*
X106090500Y-87902000I-147500J0D01*
G01*
G37*
G36*
G01*
X106090500Y-86932000D02*
X105745500Y-86932000D01*
G75*
G02*
X105598000Y-86784500I0J147500D01*
G01*
X105598000Y-86489500D01*
G75*
G02*
X105745500Y-86342000I147500J0D01*
G01*
X106090500Y-86342000D01*
G75*
G02*
X106238000Y-86489500I0J-147500D01*
G01*
X106238000Y-86784500D01*
G75*
G02*
X106090500Y-86932000I-147500J0D01*
G01*
G37*
G04 #@! TD*
G04 #@! TO.C,C608*
G36*
G01*
X94120000Y-82122500D02*
X94120000Y-81777500D01*
G75*
G02*
X94267500Y-81630000I147500J0D01*
G01*
X94562500Y-81630000D01*
G75*
G02*
X94710000Y-81777500I0J-147500D01*
G01*
X94710000Y-82122500D01*
G75*
G02*
X94562500Y-82270000I-147500J0D01*
G01*
X94267500Y-82270000D01*
G75*
G02*
X94120000Y-82122500I0J147500D01*
G01*
G37*
G36*
G01*
X95090000Y-82122500D02*
X95090000Y-81777500D01*
G75*
G02*
X95237500Y-81630000I147500J0D01*
G01*
X95532500Y-81630000D01*
G75*
G02*
X95680000Y-81777500I0J-147500D01*
G01*
X95680000Y-82122500D01*
G75*
G02*
X95532500Y-82270000I-147500J0D01*
G01*
X95237500Y-82270000D01*
G75*
G02*
X95090000Y-82122500I0J147500D01*
G01*
G37*
G04 #@! TD*
G04 #@! TO.C,R624*
G36*
G01*
X95680000Y-80827500D02*
X95680000Y-81172500D01*
G75*
G02*
X95532500Y-81320000I-147500J0D01*
G01*
X95237500Y-81320000D01*
G75*
G02*
X95090000Y-81172500I0J147500D01*
G01*
X95090000Y-80827500D01*
G75*
G02*
X95237500Y-80680000I147500J0D01*
G01*
X95532500Y-80680000D01*
G75*
G02*
X95680000Y-80827500I0J-147500D01*
G01*
G37*
G36*
G01*
X94710000Y-80827500D02*
X94710000Y-81172500D01*
G75*
G02*
X94562500Y-81320000I-147500J0D01*
G01*
X94267500Y-81320000D01*
G75*
G02*
X94120000Y-81172500I0J147500D01*
G01*
X94120000Y-80827500D01*
G75*
G02*
X94267500Y-80680000I147500J0D01*
G01*
X94562500Y-80680000D01*
G75*
G02*
X94710000Y-80827500I0J-147500D01*
G01*
G37*
G04 #@! TD*
G04 #@! TO.C,C611*
G36*
G01*
X94777500Y-86170000D02*
X95122500Y-86170000D01*
G75*
G02*
X95270000Y-86317500I0J-147500D01*
G01*
X95270000Y-86612500D01*
G75*
G02*
X95122500Y-86760000I-147500J0D01*
G01*
X94777500Y-86760000D01*
G75*
G02*
X94630000Y-86612500I0J147500D01*
G01*
X94630000Y-86317500D01*
G75*
G02*
X94777500Y-86170000I147500J0D01*
G01*
G37*
G36*
G01*
X94777500Y-87140000D02*
X95122500Y-87140000D01*
G75*
G02*
X95270000Y-87287500I0J-147500D01*
G01*
X95270000Y-87582500D01*
G75*
G02*
X95122500Y-87730000I-147500J0D01*
G01*
X94777500Y-87730000D01*
G75*
G02*
X94630000Y-87582500I0J147500D01*
G01*
X94630000Y-87287500D01*
G75*
G02*
X94777500Y-87140000I147500J0D01*
G01*
G37*
G04 #@! TD*
G04 #@! TO.C,R622*
G36*
G01*
X106572500Y-83580000D02*
X106227500Y-83580000D01*
G75*
G02*
X106080000Y-83432500I0J147500D01*
G01*
X106080000Y-83137500D01*
G75*
G02*
X106227500Y-82990000I147500J0D01*
G01*
X106572500Y-82990000D01*
G75*
G02*
X106720000Y-83137500I0J-147500D01*
G01*
X106720000Y-83432500D01*
G75*
G02*
X106572500Y-83580000I-147500J0D01*
G01*
G37*
G36*
G01*
X106572500Y-82610000D02*
X106227500Y-82610000D01*
G75*
G02*
X106080000Y-82462500I0J147500D01*
G01*
X106080000Y-82167500D01*
G75*
G02*
X106227500Y-82020000I147500J0D01*
G01*
X106572500Y-82020000D01*
G75*
G02*
X106720000Y-82167500I0J-147500D01*
G01*
X106720000Y-82462500D01*
G75*
G02*
X106572500Y-82610000I-147500J0D01*
G01*
G37*
G04 #@! TD*
G04 #@! TO.C,R617*
G36*
G01*
X87635000Y-81172500D02*
X87635000Y-80827500D01*
G75*
G02*
X87782500Y-80680000I147500J0D01*
G01*
X88077500Y-80680000D01*
G75*
G02*
X88225000Y-80827500I0J-147500D01*
G01*
X88225000Y-81172500D01*
G75*
G02*
X88077500Y-81320000I-147500J0D01*
G01*
X87782500Y-81320000D01*
G75*
G02*
X87635000Y-81172500I0J147500D01*
G01*
G37*
G36*
G01*
X88605000Y-81172500D02*
X88605000Y-80827500D01*
G75*
G02*
X88752500Y-80680000I147500J0D01*
G01*
X89047500Y-80680000D01*
G75*
G02*
X89195000Y-80827500I0J-147500D01*
G01*
X89195000Y-81172500D01*
G75*
G02*
X89047500Y-81320000I-147500J0D01*
G01*
X88752500Y-81320000D01*
G75*
G02*
X88605000Y-81172500I0J147500D01*
G01*
G37*
G04 #@! TD*
G04 #@! TO.C,C614*
G36*
G01*
X93577500Y-90270000D02*
X93922500Y-90270000D01*
G75*
G02*
X94070000Y-90417500I0J-147500D01*
G01*
X94070000Y-90712500D01*
G75*
G02*
X93922500Y-90860000I-147500J0D01*
G01*
X93577500Y-90860000D01*
G75*
G02*
X93430000Y-90712500I0J147500D01*
G01*
X93430000Y-90417500D01*
G75*
G02*
X93577500Y-90270000I147500J0D01*
G01*
G37*
G36*
G01*
X93577500Y-91240000D02*
X93922500Y-91240000D01*
G75*
G02*
X94070000Y-91387500I0J-147500D01*
G01*
X94070000Y-91682500D01*
G75*
G02*
X93922500Y-91830000I-147500J0D01*
G01*
X93577500Y-91830000D01*
G75*
G02*
X93430000Y-91682500I0J147500D01*
G01*
X93430000Y-91387500D01*
G75*
G02*
X93577500Y-91240000I147500J0D01*
G01*
G37*
G04 #@! TD*
G04 #@! TO.C,C615*
G36*
G01*
X84822500Y-82880000D02*
X84477500Y-82880000D01*
G75*
G02*
X84330000Y-82732500I0J147500D01*
G01*
X84330000Y-82437500D01*
G75*
G02*
X84477500Y-82290000I147500J0D01*
G01*
X84822500Y-82290000D01*
G75*
G02*
X84970000Y-82437500I0J-147500D01*
G01*
X84970000Y-82732500D01*
G75*
G02*
X84822500Y-82880000I-147500J0D01*
G01*
G37*
G36*
G01*
X84822500Y-81910000D02*
X84477500Y-81910000D01*
G75*
G02*
X84330000Y-81762500I0J147500D01*
G01*
X84330000Y-81467500D01*
G75*
G02*
X84477500Y-81320000I147500J0D01*
G01*
X84822500Y-81320000D01*
G75*
G02*
X84970000Y-81467500I0J-147500D01*
G01*
X84970000Y-81762500D01*
G75*
G02*
X84822500Y-81910000I-147500J0D01*
G01*
G37*
G04 #@! TD*
D12*
G04 #@! TO.C,Q600*
X111925000Y-87100000D03*
X108875000Y-87100000D03*
X111925000Y-90450000D03*
X108875000Y-90450000D03*
D13*
X112680000Y-82475000D03*
X108120000Y-82475000D03*
G04 #@! TD*
G04 #@! TO.C,R612*
G36*
G01*
X104755000Y-93272500D02*
X104755000Y-92927500D01*
G75*
G02*
X104902500Y-92780000I147500J0D01*
G01*
X105197500Y-92780000D01*
G75*
G02*
X105345000Y-92927500I0J-147500D01*
G01*
X105345000Y-93272500D01*
G75*
G02*
X105197500Y-93420000I-147500J0D01*
G01*
X104902500Y-93420000D01*
G75*
G02*
X104755000Y-93272500I0J147500D01*
G01*
G37*
G36*
G01*
X105725000Y-93272500D02*
X105725000Y-92927500D01*
G75*
G02*
X105872500Y-92780000I147500J0D01*
G01*
X106167500Y-92780000D01*
G75*
G02*
X106315000Y-92927500I0J-147500D01*
G01*
X106315000Y-93272500D01*
G75*
G02*
X106167500Y-93420000I-147500J0D01*
G01*
X105872500Y-93420000D01*
G75*
G02*
X105725000Y-93272500I0J147500D01*
G01*
G37*
G04 #@! TD*
G04 #@! TO.C,R618*
G36*
G01*
X95072500Y-91830000D02*
X94727500Y-91830000D01*
G75*
G02*
X94580000Y-91682500I0J147500D01*
G01*
X94580000Y-91387500D01*
G75*
G02*
X94727500Y-91240000I147500J0D01*
G01*
X95072500Y-91240000D01*
G75*
G02*
X95220000Y-91387500I0J-147500D01*
G01*
X95220000Y-91682500D01*
G75*
G02*
X95072500Y-91830000I-147500J0D01*
G01*
G37*
G36*
G01*
X95072500Y-90860000D02*
X94727500Y-90860000D01*
G75*
G02*
X94580000Y-90712500I0J147500D01*
G01*
X94580000Y-90417500D01*
G75*
G02*
X94727500Y-90270000I147500J0D01*
G01*
X95072500Y-90270000D01*
G75*
G02*
X95220000Y-90417500I0J-147500D01*
G01*
X95220000Y-90712500D01*
G75*
G02*
X95072500Y-90860000I-147500J0D01*
G01*
G37*
G04 #@! TD*
G04 #@! TO.C,R616*
G36*
G01*
X104305000Y-81522500D02*
X104305000Y-81177500D01*
G75*
G02*
X104452500Y-81030000I147500J0D01*
G01*
X104747500Y-81030000D01*
G75*
G02*
X104895000Y-81177500I0J-147500D01*
G01*
X104895000Y-81522500D01*
G75*
G02*
X104747500Y-81670000I-147500J0D01*
G01*
X104452500Y-81670000D01*
G75*
G02*
X104305000Y-81522500I0J147500D01*
G01*
G37*
G36*
G01*
X105275000Y-81522500D02*
X105275000Y-81177500D01*
G75*
G02*
X105422500Y-81030000I147500J0D01*
G01*
X105717500Y-81030000D01*
G75*
G02*
X105865000Y-81177500I0J-147500D01*
G01*
X105865000Y-81522500D01*
G75*
G02*
X105717500Y-81670000I-147500J0D01*
G01*
X105422500Y-81670000D01*
G75*
G02*
X105275000Y-81522500I0J147500D01*
G01*
G37*
G04 #@! TD*
G04 #@! TO.C,R623*
G36*
G01*
X95712500Y-90025000D02*
X96057500Y-90025000D01*
G75*
G02*
X96205000Y-90172500I0J-147500D01*
G01*
X96205000Y-90467500D01*
G75*
G02*
X96057500Y-90615000I-147500J0D01*
G01*
X95712500Y-90615000D01*
G75*
G02*
X95565000Y-90467500I0J147500D01*
G01*
X95565000Y-90172500D01*
G75*
G02*
X95712500Y-90025000I147500J0D01*
G01*
G37*
G36*
G01*
X95712500Y-90995000D02*
X96057500Y-90995000D01*
G75*
G02*
X96205000Y-91142500I0J-147500D01*
G01*
X96205000Y-91437500D01*
G75*
G02*
X96057500Y-91585000I-147500J0D01*
G01*
X95712500Y-91585000D01*
G75*
G02*
X95565000Y-91437500I0J147500D01*
G01*
X95565000Y-91142500D01*
G75*
G02*
X95712500Y-90995000I147500J0D01*
G01*
G37*
G04 #@! TD*
G04 #@! TO.C,R625*
G36*
G01*
X81970000Y-89922500D02*
X81970000Y-89577500D01*
G75*
G02*
X82117500Y-89430000I147500J0D01*
G01*
X82412500Y-89430000D01*
G75*
G02*
X82560000Y-89577500I0J-147500D01*
G01*
X82560000Y-89922500D01*
G75*
G02*
X82412500Y-90070000I-147500J0D01*
G01*
X82117500Y-90070000D01*
G75*
G02*
X81970000Y-89922500I0J147500D01*
G01*
G37*
G36*
G01*
X82940000Y-89922500D02*
X82940000Y-89577500D01*
G75*
G02*
X83087500Y-89430000I147500J0D01*
G01*
X83382500Y-89430000D01*
G75*
G02*
X83530000Y-89577500I0J-147500D01*
G01*
X83530000Y-89922500D01*
G75*
G02*
X83382500Y-90070000I-147500J0D01*
G01*
X83087500Y-90070000D01*
G75*
G02*
X82940000Y-89922500I0J147500D01*
G01*
G37*
G04 #@! TD*
G04 #@! TO.C,D601*
G36*
G01*
X91903000Y-92453750D02*
X91903000Y-92966250D01*
G75*
G02*
X91684250Y-93185000I-218750J0D01*
G01*
X91246750Y-93185000D01*
G75*
G02*
X91028000Y-92966250I0J218750D01*
G01*
X91028000Y-92453750D01*
G75*
G02*
X91246750Y-92235000I218750J0D01*
G01*
X91684250Y-92235000D01*
G75*
G02*
X91903000Y-92453750I0J-218750D01*
G01*
G37*
G36*
G01*
X90328000Y-92453750D02*
X90328000Y-92966250D01*
G75*
G02*
X90109250Y-93185000I-218750J0D01*
G01*
X89671750Y-93185000D01*
G75*
G02*
X89453000Y-92966250I0J218750D01*
G01*
X89453000Y-92453750D01*
G75*
G02*
X89671750Y-92235000I218750J0D01*
G01*
X90109250Y-92235000D01*
G75*
G02*
X90328000Y-92453750I0J-218750D01*
G01*
G37*
G04 #@! TD*
G04 #@! TO.C,R626*
G36*
G01*
X93998000Y-92537500D02*
X93998000Y-92882500D01*
G75*
G02*
X93850500Y-93030000I-147500J0D01*
G01*
X93555500Y-93030000D01*
G75*
G02*
X93408000Y-92882500I0J147500D01*
G01*
X93408000Y-92537500D01*
G75*
G02*
X93555500Y-92390000I147500J0D01*
G01*
X93850500Y-92390000D01*
G75*
G02*
X93998000Y-92537500I0J-147500D01*
G01*
G37*
G36*
G01*
X93028000Y-92537500D02*
X93028000Y-92882500D01*
G75*
G02*
X92880500Y-93030000I-147500J0D01*
G01*
X92585500Y-93030000D01*
G75*
G02*
X92438000Y-92882500I0J147500D01*
G01*
X92438000Y-92537500D01*
G75*
G02*
X92585500Y-92390000I147500J0D01*
G01*
X92880500Y-92390000D01*
G75*
G02*
X93028000Y-92537500I0J-147500D01*
G01*
G37*
G04 #@! TD*
G04 #@! TO.C,R604*
G36*
G01*
X97173000Y-85425500D02*
X97173000Y-85770500D01*
G75*
G02*
X97025500Y-85918000I-147500J0D01*
G01*
X96730500Y-85918000D01*
G75*
G02*
X96583000Y-85770500I0J147500D01*
G01*
X96583000Y-85425500D01*
G75*
G02*
X96730500Y-85278000I147500J0D01*
G01*
X97025500Y-85278000D01*
G75*
G02*
X97173000Y-85425500I0J-147500D01*
G01*
G37*
G36*
G01*
X96203000Y-85425500D02*
X96203000Y-85770500D01*
G75*
G02*
X96055500Y-85918000I-147500J0D01*
G01*
X95760500Y-85918000D01*
G75*
G02*
X95613000Y-85770500I0J147500D01*
G01*
X95613000Y-85425500D01*
G75*
G02*
X95760500Y-85278000I147500J0D01*
G01*
X96055500Y-85278000D01*
G75*
G02*
X96203000Y-85425500I0J-147500D01*
G01*
G37*
G04 #@! TD*
G04 #@! TO.C,R605*
G36*
G01*
X98633500Y-84310000D02*
X98978500Y-84310000D01*
G75*
G02*
X99126000Y-84457500I0J-147500D01*
G01*
X99126000Y-84752500D01*
G75*
G02*
X98978500Y-84900000I-147500J0D01*
G01*
X98633500Y-84900000D01*
G75*
G02*
X98486000Y-84752500I0J147500D01*
G01*
X98486000Y-84457500D01*
G75*
G02*
X98633500Y-84310000I147500J0D01*
G01*
G37*
G36*
G01*
X98633500Y-85280000D02*
X98978500Y-85280000D01*
G75*
G02*
X99126000Y-85427500I0J-147500D01*
G01*
X99126000Y-85722500D01*
G75*
G02*
X98978500Y-85870000I-147500J0D01*
G01*
X98633500Y-85870000D01*
G75*
G02*
X98486000Y-85722500I0J147500D01*
G01*
X98486000Y-85427500D01*
G75*
G02*
X98633500Y-85280000I147500J0D01*
G01*
G37*
G04 #@! TD*
G04 #@! TO.C,R608*
G36*
G01*
X97677500Y-84310000D02*
X98022500Y-84310000D01*
G75*
G02*
X98170000Y-84457500I0J-147500D01*
G01*
X98170000Y-84752500D01*
G75*
G02*
X98022500Y-84900000I-147500J0D01*
G01*
X97677500Y-84900000D01*
G75*
G02*
X97530000Y-84752500I0J147500D01*
G01*
X97530000Y-84457500D01*
G75*
G02*
X97677500Y-84310000I147500J0D01*
G01*
G37*
G36*
G01*
X97677500Y-85280000D02*
X98022500Y-85280000D01*
G75*
G02*
X98170000Y-85427500I0J-147500D01*
G01*
X98170000Y-85722500D01*
G75*
G02*
X98022500Y-85870000I-147500J0D01*
G01*
X97677500Y-85870000D01*
G75*
G02*
X97530000Y-85722500I0J147500D01*
G01*
X97530000Y-85427500D01*
G75*
G02*
X97677500Y-85280000I147500J0D01*
G01*
G37*
G04 #@! TD*
G04 #@! TO.C,C603*
G36*
G01*
X97173000Y-84409500D02*
X97173000Y-84754500D01*
G75*
G02*
X97025500Y-84902000I-147500J0D01*
G01*
X96730500Y-84902000D01*
G75*
G02*
X96583000Y-84754500I0J147500D01*
G01*
X96583000Y-84409500D01*
G75*
G02*
X96730500Y-84262000I147500J0D01*
G01*
X97025500Y-84262000D01*
G75*
G02*
X97173000Y-84409500I0J-147500D01*
G01*
G37*
G36*
G01*
X96203000Y-84409500D02*
X96203000Y-84754500D01*
G75*
G02*
X96055500Y-84902000I-147500J0D01*
G01*
X95760500Y-84902000D01*
G75*
G02*
X95613000Y-84754500I0J147500D01*
G01*
X95613000Y-84409500D01*
G75*
G02*
X95760500Y-84262000I147500J0D01*
G01*
X96055500Y-84262000D01*
G75*
G02*
X96203000Y-84409500I0J-147500D01*
G01*
G37*
G04 #@! TD*
D14*
G04 #@! TO.C,U601*
X101260000Y-83250000D03*
X101260000Y-82300000D03*
X101260000Y-81350000D03*
X98640000Y-81350000D03*
X98640000Y-83250000D03*
G04 #@! TD*
G04 #@! TO.C,R603*
G36*
G01*
X99649500Y-84310000D02*
X99994500Y-84310000D01*
G75*
G02*
X100142000Y-84457500I0J-147500D01*
G01*
X100142000Y-84752500D01*
G75*
G02*
X99994500Y-84900000I-147500J0D01*
G01*
X99649500Y-84900000D01*
G75*
G02*
X99502000Y-84752500I0J147500D01*
G01*
X99502000Y-84457500D01*
G75*
G02*
X99649500Y-84310000I147500J0D01*
G01*
G37*
G36*
G01*
X99649500Y-85280000D02*
X99994500Y-85280000D01*
G75*
G02*
X100142000Y-85427500I0J-147500D01*
G01*
X100142000Y-85722500D01*
G75*
G02*
X99994500Y-85870000I-147500J0D01*
G01*
X99649500Y-85870000D01*
G75*
G02*
X99502000Y-85722500I0J147500D01*
G01*
X99502000Y-85427500D01*
G75*
G02*
X99649500Y-85280000I147500J0D01*
G01*
G37*
G04 #@! TD*
G04 #@! TO.C,R613*
G36*
G01*
X102477500Y-82520000D02*
X102822500Y-82520000D01*
G75*
G02*
X102970000Y-82667500I0J-147500D01*
G01*
X102970000Y-82962500D01*
G75*
G02*
X102822500Y-83110000I-147500J0D01*
G01*
X102477500Y-83110000D01*
G75*
G02*
X102330000Y-82962500I0J147500D01*
G01*
X102330000Y-82667500D01*
G75*
G02*
X102477500Y-82520000I147500J0D01*
G01*
G37*
G36*
G01*
X102477500Y-83490000D02*
X102822500Y-83490000D01*
G75*
G02*
X102970000Y-83637500I0J-147500D01*
G01*
X102970000Y-83932500D01*
G75*
G02*
X102822500Y-84080000I-147500J0D01*
G01*
X102477500Y-84080000D01*
G75*
G02*
X102330000Y-83932500I0J147500D01*
G01*
X102330000Y-83637500D01*
G75*
G02*
X102477500Y-83490000I147500J0D01*
G01*
G37*
G04 #@! TD*
G04 #@! TO.C,C601*
G36*
G01*
X105872500Y-88247000D02*
X106217500Y-88247000D01*
G75*
G02*
X106365000Y-88394500I0J-147500D01*
G01*
X106365000Y-88689500D01*
G75*
G02*
X106217500Y-88837000I-147500J0D01*
G01*
X105872500Y-88837000D01*
G75*
G02*
X105725000Y-88689500I0J147500D01*
G01*
X105725000Y-88394500D01*
G75*
G02*
X105872500Y-88247000I147500J0D01*
G01*
G37*
G36*
G01*
X105872500Y-89217000D02*
X106217500Y-89217000D01*
G75*
G02*
X106365000Y-89364500I0J-147500D01*
G01*
X106365000Y-89659500D01*
G75*
G02*
X106217500Y-89807000I-147500J0D01*
G01*
X105872500Y-89807000D01*
G75*
G02*
X105725000Y-89659500I0J147500D01*
G01*
X105725000Y-89364500D01*
G75*
G02*
X105872500Y-89217000I147500J0D01*
G01*
G37*
G04 #@! TD*
G04 #@! TO.C,D600*
G36*
G01*
X105412250Y-84791000D02*
X104899750Y-84791000D01*
G75*
G02*
X104681000Y-84572250I0J218750D01*
G01*
X104681000Y-84134750D01*
G75*
G02*
X104899750Y-83916000I218750J0D01*
G01*
X105412250Y-83916000D01*
G75*
G02*
X105631000Y-84134750I0J-218750D01*
G01*
X105631000Y-84572250D01*
G75*
G02*
X105412250Y-84791000I-218750J0D01*
G01*
G37*
G36*
G01*
X105412250Y-83216000D02*
X104899750Y-83216000D01*
G75*
G02*
X104681000Y-82997250I0J218750D01*
G01*
X104681000Y-82559750D01*
G75*
G02*
X104899750Y-82341000I218750J0D01*
G01*
X105412250Y-82341000D01*
G75*
G02*
X105631000Y-82559750I0J-218750D01*
G01*
X105631000Y-82997250D01*
G75*
G02*
X105412250Y-83216000I-218750J0D01*
G01*
G37*
G04 #@! TD*
G04 #@! TO.C,R610*
G36*
G01*
X104755000Y-91172500D02*
X104755000Y-90827500D01*
G75*
G02*
X104902500Y-90680000I147500J0D01*
G01*
X105197500Y-90680000D01*
G75*
G02*
X105345000Y-90827500I0J-147500D01*
G01*
X105345000Y-91172500D01*
G75*
G02*
X105197500Y-91320000I-147500J0D01*
G01*
X104902500Y-91320000D01*
G75*
G02*
X104755000Y-91172500I0J147500D01*
G01*
G37*
G36*
G01*
X105725000Y-91172500D02*
X105725000Y-90827500D01*
G75*
G02*
X105872500Y-90680000I147500J0D01*
G01*
X106167500Y-90680000D01*
G75*
G02*
X106315000Y-90827500I0J-147500D01*
G01*
X106315000Y-91172500D01*
G75*
G02*
X106167500Y-91320000I-147500J0D01*
G01*
X105872500Y-91320000D01*
G75*
G02*
X105725000Y-91172500I0J147500D01*
G01*
G37*
G04 #@! TD*
G04 #@! TO.C,R611*
G36*
G01*
X106315000Y-91877500D02*
X106315000Y-92222500D01*
G75*
G02*
X106167500Y-92370000I-147500J0D01*
G01*
X105872500Y-92370000D01*
G75*
G02*
X105725000Y-92222500I0J147500D01*
G01*
X105725000Y-91877500D01*
G75*
G02*
X105872500Y-91730000I147500J0D01*
G01*
X106167500Y-91730000D01*
G75*
G02*
X106315000Y-91877500I0J-147500D01*
G01*
G37*
G36*
G01*
X105345000Y-91877500D02*
X105345000Y-92222500D01*
G75*
G02*
X105197500Y-92370000I-147500J0D01*
G01*
X104902500Y-92370000D01*
G75*
G02*
X104755000Y-92222500I0J147500D01*
G01*
X104755000Y-91877500D01*
G75*
G02*
X104902500Y-91730000I147500J0D01*
G01*
X105197500Y-91730000D01*
G75*
G02*
X105345000Y-91877500I0J-147500D01*
G01*
G37*
G04 #@! TD*
G04 #@! TO.C,D602*
G36*
G01*
X86405000Y-92966250D02*
X86405000Y-92453750D01*
G75*
G02*
X86623750Y-92235000I218750J0D01*
G01*
X87061250Y-92235000D01*
G75*
G02*
X87280000Y-92453750I0J-218750D01*
G01*
X87280000Y-92966250D01*
G75*
G02*
X87061250Y-93185000I-218750J0D01*
G01*
X86623750Y-93185000D01*
G75*
G02*
X86405000Y-92966250I0J218750D01*
G01*
G37*
G36*
G01*
X87980000Y-92966250D02*
X87980000Y-92453750D01*
G75*
G02*
X88198750Y-92235000I218750J0D01*
G01*
X88636250Y-92235000D01*
G75*
G02*
X88855000Y-92453750I0J-218750D01*
G01*
X88855000Y-92966250D01*
G75*
G02*
X88636250Y-93185000I-218750J0D01*
G01*
X88198750Y-93185000D01*
G75*
G02*
X87980000Y-92966250I0J218750D01*
G01*
G37*
G04 #@! TD*
G04 #@! TO.C,R627*
G36*
G01*
X85585000Y-94122500D02*
X85585000Y-93777500D01*
G75*
G02*
X85732500Y-93630000I147500J0D01*
G01*
X86027500Y-93630000D01*
G75*
G02*
X86175000Y-93777500I0J-147500D01*
G01*
X86175000Y-94122500D01*
G75*
G02*
X86027500Y-94270000I-147500J0D01*
G01*
X85732500Y-94270000D01*
G75*
G02*
X85585000Y-94122500I0J147500D01*
G01*
G37*
G36*
G01*
X86555000Y-94122500D02*
X86555000Y-93777500D01*
G75*
G02*
X86702500Y-93630000I147500J0D01*
G01*
X86997500Y-93630000D01*
G75*
G02*
X87145000Y-93777500I0J-147500D01*
G01*
X87145000Y-94122500D01*
G75*
G02*
X86997500Y-94270000I-147500J0D01*
G01*
X86702500Y-94270000D01*
G75*
G02*
X86555000Y-94122500I0J147500D01*
G01*
G37*
G04 #@! TD*
G04 #@! TO.C,C602*
G36*
G01*
X97580000Y-83427500D02*
X97580000Y-83772500D01*
G75*
G02*
X97432500Y-83920000I-147500J0D01*
G01*
X97137500Y-83920000D01*
G75*
G02*
X96990000Y-83772500I0J147500D01*
G01*
X96990000Y-83427500D01*
G75*
G02*
X97137500Y-83280000I147500J0D01*
G01*
X97432500Y-83280000D01*
G75*
G02*
X97580000Y-83427500I0J-147500D01*
G01*
G37*
G36*
G01*
X96610000Y-83427500D02*
X96610000Y-83772500D01*
G75*
G02*
X96462500Y-83920000I-147500J0D01*
G01*
X96167500Y-83920000D01*
G75*
G02*
X96020000Y-83772500I0J147500D01*
G01*
X96020000Y-83427500D01*
G75*
G02*
X96167500Y-83280000I147500J0D01*
G01*
X96462500Y-83280000D01*
G75*
G02*
X96610000Y-83427500I0J-147500D01*
G01*
G37*
G04 #@! TD*
G04 #@! TO.C,U602*
G36*
G01*
X94175000Y-89425000D02*
X94175000Y-89675000D01*
G75*
G02*
X94050000Y-89800000I-125000J0D01*
G01*
X92800000Y-89800000D01*
G75*
G02*
X92675000Y-89675000I0J125000D01*
G01*
X92675000Y-89425000D01*
G75*
G02*
X92800000Y-89300000I125000J0D01*
G01*
X94050000Y-89300000D01*
G75*
G02*
X94175000Y-89425000I0J-125000D01*
G01*
G37*
G36*
G01*
X94175000Y-88625000D02*
X94175000Y-88875000D01*
G75*
G02*
X94050000Y-89000000I-125000J0D01*
G01*
X92800000Y-89000000D01*
G75*
G02*
X92675000Y-88875000I0J125000D01*
G01*
X92675000Y-88625000D01*
G75*
G02*
X92800000Y-88500000I125000J0D01*
G01*
X94050000Y-88500000D01*
G75*
G02*
X94175000Y-88625000I0J-125000D01*
G01*
G37*
G36*
G01*
X94175000Y-87825000D02*
X94175000Y-88075000D01*
G75*
G02*
X94050000Y-88200000I-125000J0D01*
G01*
X92800000Y-88200000D01*
G75*
G02*
X92675000Y-88075000I0J125000D01*
G01*
X92675000Y-87825000D01*
G75*
G02*
X92800000Y-87700000I125000J0D01*
G01*
X94050000Y-87700000D01*
G75*
G02*
X94175000Y-87825000I0J-125000D01*
G01*
G37*
G36*
G01*
X94175000Y-87025000D02*
X94175000Y-87275000D01*
G75*
G02*
X94050000Y-87400000I-125000J0D01*
G01*
X92800000Y-87400000D01*
G75*
G02*
X92675000Y-87275000I0J125000D01*
G01*
X92675000Y-87025000D01*
G75*
G02*
X92800000Y-86900000I125000J0D01*
G01*
X94050000Y-86900000D01*
G75*
G02*
X94175000Y-87025000I0J-125000D01*
G01*
G37*
G36*
G01*
X94175000Y-86225000D02*
X94175000Y-86475000D01*
G75*
G02*
X94050000Y-86600000I-125000J0D01*
G01*
X92800000Y-86600000D01*
G75*
G02*
X92675000Y-86475000I0J125000D01*
G01*
X92675000Y-86225000D01*
G75*
G02*
X92800000Y-86100000I125000J0D01*
G01*
X94050000Y-86100000D01*
G75*
G02*
X94175000Y-86225000I0J-125000D01*
G01*
G37*
G36*
G01*
X94175000Y-85425000D02*
X94175000Y-85675000D01*
G75*
G02*
X94050000Y-85800000I-125000J0D01*
G01*
X92800000Y-85800000D01*
G75*
G02*
X92675000Y-85675000I0J125000D01*
G01*
X92675000Y-85425000D01*
G75*
G02*
X92800000Y-85300000I125000J0D01*
G01*
X94050000Y-85300000D01*
G75*
G02*
X94175000Y-85425000I0J-125000D01*
G01*
G37*
G36*
G01*
X94175000Y-84625000D02*
X94175000Y-84875000D01*
G75*
G02*
X94050000Y-85000000I-125000J0D01*
G01*
X92800000Y-85000000D01*
G75*
G02*
X92675000Y-84875000I0J125000D01*
G01*
X92675000Y-84625000D01*
G75*
G02*
X92800000Y-84500000I125000J0D01*
G01*
X94050000Y-84500000D01*
G75*
G02*
X94175000Y-84625000I0J-125000D01*
G01*
G37*
G36*
G01*
X94175000Y-83825000D02*
X94175000Y-84075000D01*
G75*
G02*
X94050000Y-84200000I-125000J0D01*
G01*
X92800000Y-84200000D01*
G75*
G02*
X92675000Y-84075000I0J125000D01*
G01*
X92675000Y-83825000D01*
G75*
G02*
X92800000Y-83700000I125000J0D01*
G01*
X94050000Y-83700000D01*
G75*
G02*
X94175000Y-83825000I0J-125000D01*
G01*
G37*
G36*
G01*
X92300000Y-81950000D02*
X92300000Y-83200000D01*
G75*
G02*
X92175000Y-83325000I-125000J0D01*
G01*
X91925000Y-83325000D01*
G75*
G02*
X91800000Y-83200000I0J125000D01*
G01*
X91800000Y-81950000D01*
G75*
G02*
X91925000Y-81825000I125000J0D01*
G01*
X92175000Y-81825000D01*
G75*
G02*
X92300000Y-81950000I0J-125000D01*
G01*
G37*
G36*
G01*
X91500000Y-81950000D02*
X91500000Y-83200000D01*
G75*
G02*
X91375000Y-83325000I-125000J0D01*
G01*
X91125000Y-83325000D01*
G75*
G02*
X91000000Y-83200000I0J125000D01*
G01*
X91000000Y-81950000D01*
G75*
G02*
X91125000Y-81825000I125000J0D01*
G01*
X91375000Y-81825000D01*
G75*
G02*
X91500000Y-81950000I0J-125000D01*
G01*
G37*
G36*
G01*
X90700000Y-81950000D02*
X90700000Y-83200000D01*
G75*
G02*
X90575000Y-83325000I-125000J0D01*
G01*
X90325000Y-83325000D01*
G75*
G02*
X90200000Y-83200000I0J125000D01*
G01*
X90200000Y-81950000D01*
G75*
G02*
X90325000Y-81825000I125000J0D01*
G01*
X90575000Y-81825000D01*
G75*
G02*
X90700000Y-81950000I0J-125000D01*
G01*
G37*
G36*
G01*
X89900000Y-81950000D02*
X89900000Y-83200000D01*
G75*
G02*
X89775000Y-83325000I-125000J0D01*
G01*
X89525000Y-83325000D01*
G75*
G02*
X89400000Y-83200000I0J125000D01*
G01*
X89400000Y-81950000D01*
G75*
G02*
X89525000Y-81825000I125000J0D01*
G01*
X89775000Y-81825000D01*
G75*
G02*
X89900000Y-81950000I0J-125000D01*
G01*
G37*
G36*
G01*
X89100000Y-81950000D02*
X89100000Y-83200000D01*
G75*
G02*
X88975000Y-83325000I-125000J0D01*
G01*
X88725000Y-83325000D01*
G75*
G02*
X88600000Y-83200000I0J125000D01*
G01*
X88600000Y-81950000D01*
G75*
G02*
X88725000Y-81825000I125000J0D01*
G01*
X88975000Y-81825000D01*
G75*
G02*
X89100000Y-81950000I0J-125000D01*
G01*
G37*
G36*
G01*
X88300000Y-81950000D02*
X88300000Y-83200000D01*
G75*
G02*
X88175000Y-83325000I-125000J0D01*
G01*
X87925000Y-83325000D01*
G75*
G02*
X87800000Y-83200000I0J125000D01*
G01*
X87800000Y-81950000D01*
G75*
G02*
X87925000Y-81825000I125000J0D01*
G01*
X88175000Y-81825000D01*
G75*
G02*
X88300000Y-81950000I0J-125000D01*
G01*
G37*
G36*
G01*
X87500000Y-81950000D02*
X87500000Y-83200000D01*
G75*
G02*
X87375000Y-83325000I-125000J0D01*
G01*
X87125000Y-83325000D01*
G75*
G02*
X87000000Y-83200000I0J125000D01*
G01*
X87000000Y-81950000D01*
G75*
G02*
X87125000Y-81825000I125000J0D01*
G01*
X87375000Y-81825000D01*
G75*
G02*
X87500000Y-81950000I0J-125000D01*
G01*
G37*
G36*
G01*
X86700000Y-81950000D02*
X86700000Y-83200000D01*
G75*
G02*
X86575000Y-83325000I-125000J0D01*
G01*
X86325000Y-83325000D01*
G75*
G02*
X86200000Y-83200000I0J125000D01*
G01*
X86200000Y-81950000D01*
G75*
G02*
X86325000Y-81825000I125000J0D01*
G01*
X86575000Y-81825000D01*
G75*
G02*
X86700000Y-81950000I0J-125000D01*
G01*
G37*
G36*
G01*
X85825000Y-83825000D02*
X85825000Y-84075000D01*
G75*
G02*
X85700000Y-84200000I-125000J0D01*
G01*
X84450000Y-84200000D01*
G75*
G02*
X84325000Y-84075000I0J125000D01*
G01*
X84325000Y-83825000D01*
G75*
G02*
X84450000Y-83700000I125000J0D01*
G01*
X85700000Y-83700000D01*
G75*
G02*
X85825000Y-83825000I0J-125000D01*
G01*
G37*
G36*
G01*
X85825000Y-84625000D02*
X85825000Y-84875000D01*
G75*
G02*
X85700000Y-85000000I-125000J0D01*
G01*
X84450000Y-85000000D01*
G75*
G02*
X84325000Y-84875000I0J125000D01*
G01*
X84325000Y-84625000D01*
G75*
G02*
X84450000Y-84500000I125000J0D01*
G01*
X85700000Y-84500000D01*
G75*
G02*
X85825000Y-84625000I0J-125000D01*
G01*
G37*
G36*
G01*
X85825000Y-85425000D02*
X85825000Y-85675000D01*
G75*
G02*
X85700000Y-85800000I-125000J0D01*
G01*
X84450000Y-85800000D01*
G75*
G02*
X84325000Y-85675000I0J125000D01*
G01*
X84325000Y-85425000D01*
G75*
G02*
X84450000Y-85300000I125000J0D01*
G01*
X85700000Y-85300000D01*
G75*
G02*
X85825000Y-85425000I0J-125000D01*
G01*
G37*
G36*
G01*
X85825000Y-86225000D02*
X85825000Y-86475000D01*
G75*
G02*
X85700000Y-86600000I-125000J0D01*
G01*
X84450000Y-86600000D01*
G75*
G02*
X84325000Y-86475000I0J125000D01*
G01*
X84325000Y-86225000D01*
G75*
G02*
X84450000Y-86100000I125000J0D01*
G01*
X85700000Y-86100000D01*
G75*
G02*
X85825000Y-86225000I0J-125000D01*
G01*
G37*
G36*
G01*
X85825000Y-87025000D02*
X85825000Y-87275000D01*
G75*
G02*
X85700000Y-87400000I-125000J0D01*
G01*
X84450000Y-87400000D01*
G75*
G02*
X84325000Y-87275000I0J125000D01*
G01*
X84325000Y-87025000D01*
G75*
G02*
X84450000Y-86900000I125000J0D01*
G01*
X85700000Y-86900000D01*
G75*
G02*
X85825000Y-87025000I0J-125000D01*
G01*
G37*
G36*
G01*
X85825000Y-87825000D02*
X85825000Y-88075000D01*
G75*
G02*
X85700000Y-88200000I-125000J0D01*
G01*
X84450000Y-88200000D01*
G75*
G02*
X84325000Y-88075000I0J125000D01*
G01*
X84325000Y-87825000D01*
G75*
G02*
X84450000Y-87700000I125000J0D01*
G01*
X85700000Y-87700000D01*
G75*
G02*
X85825000Y-87825000I0J-125000D01*
G01*
G37*
G36*
G01*
X85825000Y-88625000D02*
X85825000Y-88875000D01*
G75*
G02*
X85700000Y-89000000I-125000J0D01*
G01*
X84450000Y-89000000D01*
G75*
G02*
X84325000Y-88875000I0J125000D01*
G01*
X84325000Y-88625000D01*
G75*
G02*
X84450000Y-88500000I125000J0D01*
G01*
X85700000Y-88500000D01*
G75*
G02*
X85825000Y-88625000I0J-125000D01*
G01*
G37*
G36*
G01*
X85825000Y-89425000D02*
X85825000Y-89675000D01*
G75*
G02*
X85700000Y-89800000I-125000J0D01*
G01*
X84450000Y-89800000D01*
G75*
G02*
X84325000Y-89675000I0J125000D01*
G01*
X84325000Y-89425000D01*
G75*
G02*
X84450000Y-89300000I125000J0D01*
G01*
X85700000Y-89300000D01*
G75*
G02*
X85825000Y-89425000I0J-125000D01*
G01*
G37*
G36*
G01*
X86700000Y-90300000D02*
X86700000Y-91550000D01*
G75*
G02*
X86575000Y-91675000I-125000J0D01*
G01*
X86325000Y-91675000D01*
G75*
G02*
X86200000Y-91550000I0J125000D01*
G01*
X86200000Y-90300000D01*
G75*
G02*
X86325000Y-90175000I125000J0D01*
G01*
X86575000Y-90175000D01*
G75*
G02*
X86700000Y-90300000I0J-125000D01*
G01*
G37*
G36*
G01*
X87500000Y-90300000D02*
X87500000Y-91550000D01*
G75*
G02*
X87375000Y-91675000I-125000J0D01*
G01*
X87125000Y-91675000D01*
G75*
G02*
X87000000Y-91550000I0J125000D01*
G01*
X87000000Y-90300000D01*
G75*
G02*
X87125000Y-90175000I125000J0D01*
G01*
X87375000Y-90175000D01*
G75*
G02*
X87500000Y-90300000I0J-125000D01*
G01*
G37*
G36*
G01*
X88300000Y-90300000D02*
X88300000Y-91550000D01*
G75*
G02*
X88175000Y-91675000I-125000J0D01*
G01*
X87925000Y-91675000D01*
G75*
G02*
X87800000Y-91550000I0J125000D01*
G01*
X87800000Y-90300000D01*
G75*
G02*
X87925000Y-90175000I125000J0D01*
G01*
X88175000Y-90175000D01*
G75*
G02*
X88300000Y-90300000I0J-125000D01*
G01*
G37*
G36*
G01*
X89100000Y-90300000D02*
X89100000Y-91550000D01*
G75*
G02*
X88975000Y-91675000I-125000J0D01*
G01*
X88725000Y-91675000D01*
G75*
G02*
X88600000Y-91550000I0J125000D01*
G01*
X88600000Y-90300000D01*
G75*
G02*
X88725000Y-90175000I125000J0D01*
G01*
X88975000Y-90175000D01*
G75*
G02*
X89100000Y-90300000I0J-125000D01*
G01*
G37*
G36*
G01*
X89900000Y-90300000D02*
X89900000Y-91550000D01*
G75*
G02*
X89775000Y-91675000I-125000J0D01*
G01*
X89525000Y-91675000D01*
G75*
G02*
X89400000Y-91550000I0J125000D01*
G01*
X89400000Y-90300000D01*
G75*
G02*
X89525000Y-90175000I125000J0D01*
G01*
X89775000Y-90175000D01*
G75*
G02*
X89900000Y-90300000I0J-125000D01*
G01*
G37*
G36*
G01*
X90700000Y-90300000D02*
X90700000Y-91550000D01*
G75*
G02*
X90575000Y-91675000I-125000J0D01*
G01*
X90325000Y-91675000D01*
G75*
G02*
X90200000Y-91550000I0J125000D01*
G01*
X90200000Y-90300000D01*
G75*
G02*
X90325000Y-90175000I125000J0D01*
G01*
X90575000Y-90175000D01*
G75*
G02*
X90700000Y-90300000I0J-125000D01*
G01*
G37*
G36*
G01*
X91500000Y-90300000D02*
X91500000Y-91550000D01*
G75*
G02*
X91375000Y-91675000I-125000J0D01*
G01*
X91125000Y-91675000D01*
G75*
G02*
X91000000Y-91550000I0J125000D01*
G01*
X91000000Y-90300000D01*
G75*
G02*
X91125000Y-90175000I125000J0D01*
G01*
X91375000Y-90175000D01*
G75*
G02*
X91500000Y-90300000I0J-125000D01*
G01*
G37*
G36*
G01*
X92300000Y-90300000D02*
X92300000Y-91550000D01*
G75*
G02*
X92175000Y-91675000I-125000J0D01*
G01*
X91925000Y-91675000D01*
G75*
G02*
X91800000Y-91550000I0J125000D01*
G01*
X91800000Y-90300000D01*
G75*
G02*
X91925000Y-90175000I125000J0D01*
G01*
X92175000Y-90175000D01*
G75*
G02*
X92300000Y-90300000I0J-125000D01*
G01*
G37*
G04 #@! TD*
G04 #@! TO.C,R602*
G36*
G01*
X94120000Y-83072500D02*
X94120000Y-82727500D01*
G75*
G02*
X94267500Y-82580000I147500J0D01*
G01*
X94562500Y-82580000D01*
G75*
G02*
X94710000Y-82727500I0J-147500D01*
G01*
X94710000Y-83072500D01*
G75*
G02*
X94562500Y-83220000I-147500J0D01*
G01*
X94267500Y-83220000D01*
G75*
G02*
X94120000Y-83072500I0J147500D01*
G01*
G37*
G36*
G01*
X95090000Y-83072500D02*
X95090000Y-82727500D01*
G75*
G02*
X95237500Y-82580000I147500J0D01*
G01*
X95532500Y-82580000D01*
G75*
G02*
X95680000Y-82727500I0J-147500D01*
G01*
X95680000Y-83072500D01*
G75*
G02*
X95532500Y-83220000I-147500J0D01*
G01*
X95237500Y-83220000D01*
G75*
G02*
X95090000Y-83072500I0J147500D01*
G01*
G37*
G04 #@! TD*
G04 #@! TO.C,C604*
G36*
G01*
X97580000Y-82427500D02*
X97580000Y-82772500D01*
G75*
G02*
X97432500Y-82920000I-147500J0D01*
G01*
X97137500Y-82920000D01*
G75*
G02*
X96990000Y-82772500I0J147500D01*
G01*
X96990000Y-82427500D01*
G75*
G02*
X97137500Y-82280000I147500J0D01*
G01*
X97432500Y-82280000D01*
G75*
G02*
X97580000Y-82427500I0J-147500D01*
G01*
G37*
G36*
G01*
X96610000Y-82427500D02*
X96610000Y-82772500D01*
G75*
G02*
X96462500Y-82920000I-147500J0D01*
G01*
X96167500Y-82920000D01*
G75*
G02*
X96020000Y-82772500I0J147500D01*
G01*
X96020000Y-82427500D01*
G75*
G02*
X96167500Y-82280000I147500J0D01*
G01*
X96462500Y-82280000D01*
G75*
G02*
X96610000Y-82427500I0J-147500D01*
G01*
G37*
G04 #@! TD*
G04 #@! TO.C,C606*
G36*
G01*
X96180000Y-88827500D02*
X96180000Y-89172500D01*
G75*
G02*
X96032500Y-89320000I-147500J0D01*
G01*
X95737500Y-89320000D01*
G75*
G02*
X95590000Y-89172500I0J147500D01*
G01*
X95590000Y-88827500D01*
G75*
G02*
X95737500Y-88680000I147500J0D01*
G01*
X96032500Y-88680000D01*
G75*
G02*
X96180000Y-88827500I0J-147500D01*
G01*
G37*
G36*
G01*
X95210000Y-88827500D02*
X95210000Y-89172500D01*
G75*
G02*
X95062500Y-89320000I-147500J0D01*
G01*
X94767500Y-89320000D01*
G75*
G02*
X94620000Y-89172500I0J147500D01*
G01*
X94620000Y-88827500D01*
G75*
G02*
X94767500Y-88680000I147500J0D01*
G01*
X95062500Y-88680000D01*
G75*
G02*
X95210000Y-88827500I0J-147500D01*
G01*
G37*
G04 #@! TD*
G04 #@! TO.C,R628*
G36*
G01*
X82770050Y-84210050D02*
X83115050Y-84210050D01*
G75*
G02*
X83262550Y-84357550I0J-147500D01*
G01*
X83262550Y-84652550D01*
G75*
G02*
X83115050Y-84800050I-147500J0D01*
G01*
X82770050Y-84800050D01*
G75*
G02*
X82622550Y-84652550I0J147500D01*
G01*
X82622550Y-84357550D01*
G75*
G02*
X82770050Y-84210050I147500J0D01*
G01*
G37*
G36*
G01*
X82770050Y-85180050D02*
X83115050Y-85180050D01*
G75*
G02*
X83262550Y-85327550I0J-147500D01*
G01*
X83262550Y-85622550D01*
G75*
G02*
X83115050Y-85770050I-147500J0D01*
G01*
X82770050Y-85770050D01*
G75*
G02*
X82622550Y-85622550I0J147500D01*
G01*
X82622550Y-85327550D01*
G75*
G02*
X82770050Y-85180050I147500J0D01*
G01*
G37*
G04 #@! TD*
G04 #@! TO.C,C609*
G36*
G01*
X85127500Y-90905000D02*
X85472500Y-90905000D01*
G75*
G02*
X85620000Y-91052500I0J-147500D01*
G01*
X85620000Y-91347500D01*
G75*
G02*
X85472500Y-91495000I-147500J0D01*
G01*
X85127500Y-91495000D01*
G75*
G02*
X84980000Y-91347500I0J147500D01*
G01*
X84980000Y-91052500D01*
G75*
G02*
X85127500Y-90905000I147500J0D01*
G01*
G37*
G36*
G01*
X85127500Y-91875000D02*
X85472500Y-91875000D01*
G75*
G02*
X85620000Y-92022500I0J-147500D01*
G01*
X85620000Y-92317500D01*
G75*
G02*
X85472500Y-92465000I-147500J0D01*
G01*
X85127500Y-92465000D01*
G75*
G02*
X84980000Y-92317500I0J147500D01*
G01*
X84980000Y-92022500D01*
G75*
G02*
X85127500Y-91875000I147500J0D01*
G01*
G37*
G04 #@! TD*
G04 #@! TO.C,C610*
G36*
G01*
X79097000Y-85232500D02*
X79097000Y-84887500D01*
G75*
G02*
X79244500Y-84740000I147500J0D01*
G01*
X79539500Y-84740000D01*
G75*
G02*
X79687000Y-84887500I0J-147500D01*
G01*
X79687000Y-85232500D01*
G75*
G02*
X79539500Y-85380000I-147500J0D01*
G01*
X79244500Y-85380000D01*
G75*
G02*
X79097000Y-85232500I0J147500D01*
G01*
G37*
G36*
G01*
X80067000Y-85232500D02*
X80067000Y-84887500D01*
G75*
G02*
X80214500Y-84740000I147500J0D01*
G01*
X80509500Y-84740000D01*
G75*
G02*
X80657000Y-84887500I0J-147500D01*
G01*
X80657000Y-85232500D01*
G75*
G02*
X80509500Y-85380000I-147500J0D01*
G01*
X80214500Y-85380000D01*
G75*
G02*
X80067000Y-85232500I0J147500D01*
G01*
G37*
G04 #@! TD*
D15*
G04 #@! TO.C,U603*
X79435000Y-83774000D03*
X81335000Y-83774000D03*
X80385000Y-81774000D03*
G04 #@! TD*
G04 #@! TO.C,R600*
G36*
G01*
X105201500Y-89807000D02*
X104856500Y-89807000D01*
G75*
G02*
X104709000Y-89659500I0J147500D01*
G01*
X104709000Y-89364500D01*
G75*
G02*
X104856500Y-89217000I147500J0D01*
G01*
X105201500Y-89217000D01*
G75*
G02*
X105349000Y-89364500I0J-147500D01*
G01*
X105349000Y-89659500D01*
G75*
G02*
X105201500Y-89807000I-147500J0D01*
G01*
G37*
G36*
G01*
X105201500Y-88837000D02*
X104856500Y-88837000D01*
G75*
G02*
X104709000Y-88689500I0J147500D01*
G01*
X104709000Y-88394500D01*
G75*
G02*
X104856500Y-88247000I147500J0D01*
G01*
X105201500Y-88247000D01*
G75*
G02*
X105349000Y-88394500I0J-147500D01*
G01*
X105349000Y-88689500D01*
G75*
G02*
X105201500Y-88837000I-147500J0D01*
G01*
G37*
G04 #@! TD*
G04 #@! TO.C,D603*
G36*
G01*
X82761300Y-81255050D02*
X83273800Y-81255050D01*
G75*
G02*
X83492550Y-81473800I0J-218750D01*
G01*
X83492550Y-81911300D01*
G75*
G02*
X83273800Y-82130050I-218750J0D01*
G01*
X82761300Y-82130050D01*
G75*
G02*
X82542550Y-81911300I0J218750D01*
G01*
X82542550Y-81473800D01*
G75*
G02*
X82761300Y-81255050I218750J0D01*
G01*
G37*
G36*
G01*
X82761300Y-82830050D02*
X83273800Y-82830050D01*
G75*
G02*
X83492550Y-83048800I0J-218750D01*
G01*
X83492550Y-83486300D01*
G75*
G02*
X83273800Y-83705050I-218750J0D01*
G01*
X82761300Y-83705050D01*
G75*
G02*
X82542550Y-83486300I0J218750D01*
G01*
X82542550Y-83048800D01*
G75*
G02*
X82761300Y-82830050I218750J0D01*
G01*
G37*
G04 #@! TD*
M02*
