G04*
G04 #@! TF.GenerationSoftware,Altium Limited,Altium Designer,22.9.1 (49)*
G04*
G04 Layer_Color=16711935*
%FSLAX25Y25*%
%MOIN*%
G70*
G04*
G04 #@! TF.SameCoordinates,DE8F1843-C83E-4B80-B048-2156F3839E03*
G04*
G04*
G04 #@! TF.FilePolarity,Negative*
G04*
G01*
G75*
%ADD16C,0.02913*%
G04:AMPARAMS|DCode=25|XSize=29.13mil|YSize=29.13mil|CornerRadius=5.12mil|HoleSize=0mil|Usage=FLASHONLY|Rotation=180.000|XOffset=0mil|YOffset=0mil|HoleType=Round|Shape=RoundedRectangle|*
%AMROUNDEDRECTD25*
21,1,0.02913,0.01890,0,0,180.0*
21,1,0.01890,0.02913,0,0,180.0*
1,1,0.01024,-0.00945,0.00945*
1,1,0.01024,0.00945,0.00945*
1,1,0.01024,0.00945,-0.00945*
1,1,0.01024,-0.00945,-0.00945*
%
%ADD25ROUNDEDRECTD25*%
G04:AMPARAMS|DCode=26|XSize=25.2mil|YSize=29.13mil|CornerRadius=4.72mil|HoleSize=0mil|Usage=FLASHONLY|Rotation=0.000|XOffset=0mil|YOffset=0mil|HoleType=Round|Shape=RoundedRectangle|*
%AMROUNDEDRECTD26*
21,1,0.02520,0.01968,0,0,0.0*
21,1,0.01575,0.02913,0,0,0.0*
1,1,0.00945,0.00787,-0.00984*
1,1,0.00945,-0.00787,-0.00984*
1,1,0.00945,-0.00787,0.00984*
1,1,0.00945,0.00787,0.00984*
%
%ADD26ROUNDEDRECTD26*%
D16*
X35433Y10236D02*
D03*
Y6496D02*
D03*
Y2756D02*
D03*
X1181Y6693D02*
D03*
Y10236D02*
D03*
D25*
X17126D02*
D03*
X13189D02*
D03*
X8464D02*
D03*
X4527D02*
D03*
X27953Y3937D02*
D03*
X31890D02*
D03*
Y10236D02*
D03*
X27953D02*
D03*
X20275Y2756D02*
D03*
X24212D02*
D03*
D26*
X8071Y6299D02*
D03*
X4528D02*
D03*
X16732Y2756D02*
D03*
X13189D02*
D03*
X23819Y6299D02*
D03*
X20276D02*
D03*
X23819Y10236D02*
D03*
X20276D02*
D03*
X4528Y2756D02*
D03*
X8071D02*
D03*
M02*
