G04*
G04 #@! TF.GenerationSoftware,Altium Limited,Altium Designer,22.11.1 (43)*
G04*
G04 Layer_Color=16711935*
%FSLAX25Y25*%
%MOIN*%
G70*
G04*
G04 #@! TF.SameCoordinates,A8071B05-AEE2-4DF3-83FA-DCB96034AA09*
G04*
G04*
G04 #@! TF.FilePolarity,Negative*
G04*
G01*
G75*
%ADD16C,0.02913*%
G04:AMPARAMS|DCode=27|XSize=29.13mil|YSize=29.13mil|CornerRadius=5.12mil|HoleSize=0mil|Usage=FLASHONLY|Rotation=180.000|XOffset=0mil|YOffset=0mil|HoleType=Round|Shape=RoundedRectangle|*
%AMROUNDEDRECTD27*
21,1,0.02913,0.01890,0,0,180.0*
21,1,0.01890,0.02913,0,0,180.0*
1,1,0.01024,-0.00945,0.00945*
1,1,0.01024,0.00945,0.00945*
1,1,0.01024,0.00945,-0.00945*
1,1,0.01024,-0.00945,-0.00945*
%
%ADD27ROUNDEDRECTD27*%
G04:AMPARAMS|DCode=28|XSize=25.2mil|YSize=29.13mil|CornerRadius=4.72mil|HoleSize=0mil|Usage=FLASHONLY|Rotation=270.000|XOffset=0mil|YOffset=0mil|HoleType=Round|Shape=RoundedRectangle|*
%AMROUNDEDRECTD28*
21,1,0.02520,0.01968,0,0,270.0*
21,1,0.01575,0.02913,0,0,270.0*
1,1,0.00945,-0.00984,-0.00787*
1,1,0.00945,-0.00984,0.00787*
1,1,0.00945,0.00984,0.00787*
1,1,0.00945,0.00984,-0.00787*
%
%ADD28ROUNDEDRECTD28*%
G04:AMPARAMS|DCode=29|XSize=38.98mil|YSize=38.98mil|CornerRadius=6.1mil|HoleSize=0mil|Usage=FLASHONLY|Rotation=270.000|XOffset=0mil|YOffset=0mil|HoleType=Round|Shape=RoundedRectangle|*
%AMROUNDEDRECTD29*
21,1,0.03898,0.02677,0,0,270.0*
21,1,0.02677,0.03898,0,0,270.0*
1,1,0.01221,-0.01339,-0.01339*
1,1,0.01221,-0.01339,0.01339*
1,1,0.01221,0.01339,0.01339*
1,1,0.01221,0.01339,-0.01339*
%
%ADD29ROUNDEDRECTD29*%
G04:AMPARAMS|DCode=30|XSize=25.2mil|YSize=29.13mil|CornerRadius=4.72mil|HoleSize=0mil|Usage=FLASHONLY|Rotation=0.000|XOffset=0mil|YOffset=0mil|HoleType=Round|Shape=RoundedRectangle|*
%AMROUNDEDRECTD30*
21,1,0.02520,0.01968,0,0,0.0*
21,1,0.01575,0.02913,0,0,0.0*
1,1,0.00945,0.00787,-0.00984*
1,1,0.00945,-0.00787,-0.00984*
1,1,0.00945,-0.00787,0.00984*
1,1,0.00945,0.00787,0.00984*
%
%ADD30ROUNDEDRECTD30*%
D16*
X35433Y10236D02*
D03*
Y6496D02*
D03*
Y2756D02*
D03*
X1181Y6693D02*
D03*
Y10236D02*
D03*
D27*
X27953D02*
D03*
X31890D02*
D03*
X16830D02*
D03*
X12893D02*
D03*
X8464D02*
D03*
X4527D02*
D03*
X27953Y2953D02*
D03*
X31890D02*
D03*
D28*
X24568Y2756D02*
D03*
Y6299D02*
D03*
D29*
X20683Y9469D02*
D03*
Y3248D02*
D03*
D30*
X8071Y6299D02*
D03*
X4528D02*
D03*
X16437Y2756D02*
D03*
X12894D02*
D03*
X31299Y6357D02*
D03*
X27756D02*
D03*
X4528Y2756D02*
D03*
X8071D02*
D03*
M02*
