G04 #@! TF.GenerationSoftware,KiCad,Pcbnew,(5.99.0-10483-ga6ad7a4a70)*
G04 #@! TF.CreationDate,2021-05-30T13:32:27+03:00*
G04 #@! TF.ProjectId,hellen1-vr-discrete,68656c6c-656e-4312-9d76-722d64697363,rev?*
G04 #@! TF.SameCoordinates,PX4a19ba0PY5aa5910*
G04 #@! TF.FileFunction,Copper,L2,Bot*
G04 #@! TF.FilePolarity,Positive*
%FSLAX46Y46*%
G04 Gerber Fmt 4.6, Leading zero omitted, Abs format (unit mm)*
G04 Created by KiCad (PCBNEW (5.99.0-10483-ga6ad7a4a70)) date 2021-05-30 13:32:27*
%MOMM*%
%LPD*%
G01*
G04 APERTURE LIST*
G04 #@! TA.AperFunction,ComponentPad*
%ADD10C,0.599999*%
G04 #@! TD*
G04 #@! TA.AperFunction,SMDPad,CuDef*
%ADD11R,0.250000X0.350000*%
G04 #@! TD*
G04 #@! TA.AperFunction,SMDPad,CuDef*
%ADD12R,0.250000X6.500000*%
G04 #@! TD*
G04 #@! TA.AperFunction,SMDPad,CuDef*
%ADD13R,18.200000X0.250000*%
G04 #@! TD*
G04 #@! TA.AperFunction,SMDPad,CuDef*
%ADD14R,0.250000X13.650000*%
G04 #@! TD*
G04 #@! TA.AperFunction,SMDPad,CuDef*
%ADD15R,0.250000X1.250000*%
G04 #@! TD*
G04 #@! TA.AperFunction,SMDPad,CuDef*
%ADD16R,0.250000X6.450000*%
G04 #@! TD*
G04 #@! TA.AperFunction,ViaPad*
%ADD17C,0.600000*%
G04 #@! TD*
G04 #@! TA.AperFunction,Conductor*
%ADD18C,0.250000*%
G04 #@! TD*
G04 #@! TA.AperFunction,Conductor*
%ADD19C,0.200000*%
G04 #@! TD*
G04 APERTURE END LIST*
D10*
G04 #@! TO.P,M750,E1,Thresh_IN*
G04 #@! TO.N,thresh_input*
X17900000Y875000D03*
G04 #@! TO.P,M750,E2,OUT_A*
G04 #@! TO.N,analog_out*
X17900000Y8375000D03*
G04 #@! TO.P,M750,E3,OUT*
G04 #@! TO.N,output*
X17900000Y9175000D03*
G04 #@! TO.P,M750,E4,V5_IN*
G04 #@! TO.N,+5V*
X17900000Y9975000D03*
D11*
G04 #@! TO.P,M750,G,GND*
G04 #@! TO.N,GND*
X18100000Y200000D03*
D12*
X18100000Y4625000D03*
D13*
X9125000Y16800000D03*
D14*
X150000Y10100000D03*
D15*
X150000Y650000D03*
D16*
X18100000Y13700000D03*
D13*
X9125000Y150000D03*
D10*
G04 #@! TO.P,M750,W1,VR-*
G04 #@! TO.N,VR-*
X375000Y2775000D03*
G04 #@! TO.P,M750,W2,VR+*
G04 #@! TO.N,VR+*
X375000Y1775000D03*
G04 #@! TD*
D17*
G04 #@! TO.N,GND*
X3500000Y5200000D03*
X11300000Y12900000D03*
X17400000Y14700000D03*
X7200000Y16200000D03*
X2400000Y15100000D03*
X700000Y15200000D03*
X11200000Y11900000D03*
X9800000Y9400000D03*
X10400000Y16400000D03*
X2100000Y4300000D03*
X3100000Y7100000D03*
X5800000Y12800000D03*
X17400000Y7600000D03*
X17000000Y6900000D03*
X11700000Y8300000D03*
X15900000Y13800000D03*
X11492303Y367887D03*
X3749209Y2300000D03*
X10407275Y5843130D03*
X17800000Y2400000D03*
X4500000Y5700000D03*
X800000Y16200000D03*
X2100000Y400000D03*
X7100000Y3900000D03*
X10200000Y7900000D03*
X4900000Y13700000D03*
X15200000Y2100000D03*
X13457300Y13897742D03*
X7957731Y11390581D03*
X12942938Y16358569D03*
X15400000Y8100000D03*
X5400000Y4100000D03*
X400000Y7100000D03*
X12600000Y7900000D03*
X11700000Y7500000D03*
X13683089Y5683089D03*
X4400000Y8100000D03*
X9800000Y10200000D03*
X13900000Y8000000D03*
X2644067Y11424041D03*
X3000000Y14000000D03*
X5100000Y16200000D03*
X1000000Y14200000D03*
X15100000Y7000000D03*
X2100000Y2300000D03*
X2300000Y16300000D03*
X9400000Y15600000D03*
X4400000Y12500000D03*
X3935400Y10200000D03*
X15200000Y16200000D03*
X10200000Y12400000D03*
X17500000Y16200000D03*
G04 #@! TO.N,+5V*
X7900000Y13000000D03*
X5045780Y8900000D03*
X6900000Y9800000D03*
X6200000Y14829220D03*
X6100000Y2200000D03*
G04 #@! TO.N,Vref*
X16725273Y5613621D03*
X16610400Y11233822D03*
X11576808Y5641676D03*
X10430020Y4500000D03*
X2700000Y10600000D03*
G04 #@! TO.N,thresh_low*
X11494618Y1155400D03*
X2700000Y12400000D03*
G04 #@! TO.N,Net-(C757-Pad1)*
X9549233Y14549233D03*
X8530000Y9830000D03*
G04 #@! TO.N,thresh_high*
X8888651Y5635400D03*
X17510399Y1672765D03*
G04 #@! TO.N,output*
X11850000Y14750000D03*
G04 #@! TO.N,analog_out*
X11337500Y10262500D03*
X13900000Y8800000D03*
X8000000Y6700000D03*
G04 #@! TO.N,Net-(R756-Pad2)*
X10644679Y2720780D03*
X12200000Y6231276D03*
G04 #@! TO.N,Net-(R762-Pad1)*
X10800000Y1900000D03*
X15250000Y3550000D03*
G04 #@! TD*
D18*
G04 #@! TO.N,+5V*
X5045780Y8900000D02*
X5045780Y6267590D01*
D19*
X6200000Y14829220D02*
X6200000Y14700000D01*
D18*
X5045780Y6267590D02*
X6100000Y5213370D01*
D19*
X6900000Y9800000D02*
X7300000Y10200000D01*
X7300000Y10200000D02*
X7300000Y12400000D01*
X6200000Y14700000D02*
X7900000Y13000000D01*
X7300000Y12400000D02*
X7900000Y13000000D01*
D18*
X6100000Y5213370D02*
X6100000Y2200000D01*
D19*
G04 #@! TO.N,Vref*
X16711652Y5600000D02*
X16725273Y5613621D01*
D18*
X10435132Y4500000D02*
X10430020Y4500000D01*
X2300000Y10600000D02*
X2700000Y10600000D01*
D19*
X16000000Y6200000D02*
X16600000Y5600000D01*
D18*
X6000000Y6415381D02*
X6000000Y10100000D01*
X7915381Y4500000D02*
X6000000Y6415381D01*
X10430020Y4500000D02*
X7915381Y4500000D01*
X6000000Y10100000D02*
X4989611Y11110389D01*
D19*
X16610400Y11233822D02*
X16000000Y10623422D01*
D18*
X1900000Y11000000D02*
X2300000Y10600000D01*
X11576808Y5641676D02*
X10435132Y4500000D01*
X4683014Y13089611D02*
X2516986Y13089611D01*
D19*
X16000000Y10623422D02*
X16000000Y6200000D01*
D18*
X1900000Y12472625D02*
X1900000Y11000000D01*
X4989611Y12783014D02*
X4683014Y13089611D01*
X4989611Y11110389D02*
X4989611Y12783014D01*
D19*
X16600000Y5600000D02*
X16711652Y5600000D01*
D18*
X2516986Y13089611D02*
X1900000Y12472625D01*
D19*
G04 #@! TO.N,thresh_low*
X11494618Y1155400D02*
X10708975Y1155400D01*
X10708975Y1155400D02*
X5610380Y6253996D01*
X5610380Y6253996D02*
X5610380Y9489620D01*
X5610380Y9489620D02*
X2700000Y12400000D01*
D18*
G04 #@! TO.N,Net-(C757-Pad1)*
X9549233Y14549233D02*
X9549233Y10849233D01*
X9549233Y10849233D02*
X8530000Y9830000D01*
G04 #@! TO.N,thresh_high*
X13979113Y6820887D02*
X10074138Y6820887D01*
X10074138Y6820887D02*
X8888651Y5635400D01*
X16900000Y3900000D02*
X13979113Y6820887D01*
X17510399Y1672765D02*
X16900000Y2283164D01*
X16900000Y2283164D02*
X16900000Y3900000D01*
G04 #@! TO.N,output*
X17200000Y9802375D02*
X17827375Y9175000D01*
X17827375Y9175000D02*
X17900000Y9175000D01*
X11850000Y14750000D02*
X16350000Y14750000D01*
X17200000Y13900000D02*
X17200000Y9802375D01*
X16350000Y14750000D02*
X17200000Y13900000D01*
G04 #@! TO.N,analog_out*
X11400000Y10200000D02*
X11337500Y10262500D01*
X12437500Y10262500D02*
X11337500Y10262500D01*
X13900000Y8800000D02*
X12437500Y10262500D01*
X11400000Y10100000D02*
X11400000Y10200000D01*
X8000000Y6700000D02*
X11400000Y10100000D01*
G04 #@! TO.N,Net-(R756-Pad2)*
X10644679Y3744679D02*
X12200000Y5300000D01*
X12200000Y5300000D02*
X12200000Y6231276D01*
X10644679Y2720780D02*
X10644679Y3744679D01*
D19*
G04 #@! TO.N,Net-(R762-Pad1)*
X12500000Y1900000D02*
X10800000Y1900000D01*
X14150000Y3550000D02*
X12500000Y1900000D01*
X15250000Y3550000D02*
X14150000Y3550000D01*
G04 #@! TD*
G04 #@! TA.AperFunction,Conductor*
G04 #@! TO.N,GND*
G36*
X18184191Y16906093D02*
G01*
X18220155Y16856593D01*
X18225000Y16826000D01*
X18225000Y10496395D01*
X18206093Y10438204D01*
X18156593Y10402240D01*
X18095407Y10402240D01*
X18086554Y10406196D01*
X18086520Y10406110D01*
X18079641Y10408833D01*
X18073239Y10412552D01*
X17936923Y10444148D01*
X17797342Y10434265D01*
X17783255Y10428815D01*
X17673741Y10386448D01*
X17673739Y10386447D01*
X17666838Y10383777D01*
X17656378Y10375531D01*
X17650889Y10371204D01*
X17593485Y10350027D01*
X17534597Y10366636D01*
X17496719Y10414687D01*
X17490600Y10448951D01*
X17490600Y13848617D01*
X17490868Y13852272D01*
X17492429Y13856817D01*
X17490670Y13903670D01*
X17490600Y13907383D01*
X17490600Y13926847D01*
X17489776Y13931272D01*
X17489439Y13936469D01*
X17488711Y13955847D01*
X17488368Y13964986D01*
X17484118Y13974877D01*
X17477752Y13995830D01*
X17475781Y14006415D01*
X17462393Y14028135D01*
X17455709Y14041002D01*
X17448398Y14058019D01*
X17448397Y14058021D01*
X17445639Y14064440D01*
X17441542Y14069429D01*
X17437732Y14073239D01*
X17424471Y14090015D01*
X17423780Y14090777D01*
X17418982Y14098561D01*
X17411706Y14104094D01*
X17411705Y14104095D01*
X17396894Y14115357D01*
X17386814Y14124157D01*
X16591815Y14919156D01*
X16589423Y14921927D01*
X16587313Y14926244D01*
X16552947Y14958123D01*
X16550271Y14960700D01*
X16536502Y14974469D01*
X16532787Y14977017D01*
X16528865Y14980462D01*
X16514658Y14993641D01*
X16507955Y14999859D01*
X16499464Y15003247D01*
X16499462Y15003248D01*
X16497953Y15003850D01*
X16478642Y15014161D01*
X16477300Y15015081D01*
X16477299Y15015081D01*
X16469760Y15020253D01*
X16460868Y15022363D01*
X16460866Y15022364D01*
X16444936Y15026144D01*
X16431110Y15030517D01*
X16413909Y15037380D01*
X16413906Y15037381D01*
X16407416Y15039970D01*
X16400991Y15040600D01*
X16395609Y15040600D01*
X16374365Y15043086D01*
X16373334Y15043136D01*
X16364440Y15045247D01*
X16355386Y15044015D01*
X16355383Y15044015D01*
X16336935Y15041504D01*
X16323586Y15040600D01*
X12258416Y15040600D01*
X12200225Y15059507D01*
X12185718Y15072399D01*
X12149263Y15111836D01*
X12144239Y15117271D01*
X12023239Y15187553D01*
X11886923Y15219149D01*
X11747342Y15209266D01*
X11714320Y15196491D01*
X11623740Y15161449D01*
X11623737Y15161448D01*
X11616837Y15158778D01*
X11564185Y15117271D01*
X11512760Y15076731D01*
X11512758Y15076729D01*
X11506947Y15072148D01*
X11502740Y15066061D01*
X11502739Y15066060D01*
X11437210Y14971247D01*
X11427388Y14957035D01*
X11425157Y14949980D01*
X11388182Y14833065D01*
X11385194Y14823618D01*
X11384095Y14683692D01*
X11386215Y14676604D01*
X11386215Y14676602D01*
X11404503Y14615452D01*
X11424188Y14549628D01*
X11428300Y14543474D01*
X11497820Y14439430D01*
X11497822Y14439427D01*
X11501930Y14433280D01*
X11507665Y14428611D01*
X11507666Y14428610D01*
X11604708Y14349605D01*
X11604711Y14349603D01*
X11610445Y14344935D01*
X11740141Y14292403D01*
X11747513Y14291765D01*
X11747515Y14291764D01*
X11830771Y14284554D01*
X11879549Y14280329D01*
X11967162Y14299191D01*
X12009109Y14308222D01*
X12009110Y14308222D01*
X12016345Y14309780D01*
X12138434Y14378153D01*
X12143542Y14383508D01*
X12143545Y14383510D01*
X12186686Y14428734D01*
X12240533Y14457789D01*
X12258320Y14459400D01*
X16188622Y14459400D01*
X16246813Y14440493D01*
X16258626Y14430404D01*
X16880404Y13808626D01*
X16908181Y13754109D01*
X16909400Y13738622D01*
X16909400Y11766073D01*
X16890493Y11707882D01*
X16840993Y11671918D01*
X16783765Y11671918D01*
X16783639Y11671375D01*
X16781296Y11671918D01*
X16777119Y11672886D01*
X16777117Y11672887D01*
X16722125Y11685633D01*
X16647323Y11702971D01*
X16507742Y11693088D01*
X16461456Y11675181D01*
X16384140Y11645271D01*
X16384137Y11645270D01*
X16377237Y11642600D01*
X16324585Y11601093D01*
X16273160Y11560553D01*
X16273158Y11560551D01*
X16267347Y11555970D01*
X16187788Y11440857D01*
X16145594Y11307440D01*
X16145536Y11300042D01*
X16144624Y11183895D01*
X16125260Y11125854D01*
X16115631Y11114668D01*
X15836859Y10835896D01*
X15821857Y10823585D01*
X15808657Y10814765D01*
X15794418Y10793455D01*
X15749998Y10726976D01*
X15748096Y10717413D01*
X15748095Y10717411D01*
X15743903Y10696334D01*
X15729400Y10623422D01*
X15731302Y10613860D01*
X15732498Y10607847D01*
X15734400Y10588533D01*
X15734400Y6234889D01*
X15732498Y6215575D01*
X15729400Y6200000D01*
X15731302Y6190438D01*
X15747387Y6109574D01*
X15749998Y6096446D01*
X15755417Y6088336D01*
X15783792Y6045871D01*
X15784923Y6044178D01*
X15808657Y6008657D01*
X15816767Y6003238D01*
X15821857Y5999837D01*
X15836859Y5987526D01*
X16234372Y5590013D01*
X16256180Y5546360D01*
X16259368Y5547313D01*
X16292948Y5435028D01*
X16299461Y5413249D01*
X16303573Y5407095D01*
X16373093Y5303051D01*
X16373095Y5303048D01*
X16377203Y5296901D01*
X16382938Y5292232D01*
X16382939Y5292231D01*
X16479981Y5213226D01*
X16479984Y5213224D01*
X16485718Y5208556D01*
X16615414Y5156024D01*
X16622786Y5155386D01*
X16622788Y5155385D01*
X16706044Y5148175D01*
X16754822Y5143950D01*
X16882129Y5171358D01*
X16884382Y5171843D01*
X16884383Y5171843D01*
X16891618Y5173401D01*
X16901686Y5179039D01*
X16962731Y5213226D01*
X17013707Y5241774D01*
X17018813Y5247126D01*
X17018815Y5247128D01*
X17087071Y5318680D01*
X17110294Y5343024D01*
X17142309Y5407095D01*
X17169533Y5461579D01*
X17169534Y5461581D01*
X17172840Y5468198D01*
X17187814Y5558158D01*
X17195175Y5602382D01*
X17195175Y5602386D01*
X17195815Y5606229D01*
X17195873Y5613621D01*
X17175069Y5751996D01*
X17114497Y5878137D01*
X17019512Y5980892D01*
X16898512Y6051174D01*
X16762196Y6082770D01*
X16712256Y6079234D01*
X16629995Y6073410D01*
X16629992Y6073409D01*
X16622615Y6072887D01*
X16615715Y6070218D01*
X16615712Y6070217D01*
X16596301Y6062708D01*
X16535208Y6059347D01*
X16490579Y6085036D01*
X16294596Y6281019D01*
X16266819Y6335536D01*
X16265600Y6351023D01*
X16265600Y10472399D01*
X16284507Y10530590D01*
X16294596Y10542403D01*
X16493590Y10741397D01*
X16548107Y10769174D01*
X16572136Y10770024D01*
X16604142Y10767252D01*
X16639949Y10764151D01*
X16776745Y10793602D01*
X16778177Y10794404D01*
X16836523Y10797155D01*
X16887662Y10763564D01*
X16909400Y10701664D01*
X16909400Y9853757D01*
X16909132Y9850102D01*
X16907571Y9845557D01*
X16907914Y9836424D01*
X16909330Y9798705D01*
X16909400Y9794991D01*
X16909400Y9775528D01*
X16910224Y9771103D01*
X16910561Y9765906D01*
X16911187Y9749236D01*
X16911632Y9737389D01*
X16915239Y9728993D01*
X16915240Y9728990D01*
X16915882Y9727497D01*
X16922247Y9706544D01*
X16922544Y9704951D01*
X16922545Y9704948D01*
X16924219Y9695960D01*
X16929016Y9688178D01*
X16937609Y9674237D01*
X16944291Y9661373D01*
X16954361Y9637934D01*
X16958459Y9632946D01*
X16962264Y9629141D01*
X16975529Y9612359D01*
X16976222Y9611595D01*
X16981018Y9603814D01*
X16988293Y9598282D01*
X16988294Y9598281D01*
X17003115Y9587011D01*
X17013195Y9578210D01*
X17405156Y9186248D01*
X17432933Y9131732D01*
X17434046Y9116853D01*
X17434154Y9116093D01*
X17434096Y9108692D01*
X17436216Y9101604D01*
X17436216Y9101602D01*
X17457756Y9029577D01*
X17474189Y8974629D01*
X17551930Y8858281D01*
X17557665Y8853612D01*
X17557666Y8853611D01*
X17559123Y8852425D01*
X17560046Y8850996D01*
X17562649Y8848135D01*
X17562173Y8847702D01*
X17592312Y8801024D01*
X17588950Y8739931D01*
X17565994Y8708842D01*
X17567825Y8707122D01*
X17562761Y8701729D01*
X17556948Y8697147D01*
X17552741Y8691060D01*
X17552740Y8691059D01*
X17494449Y8606719D01*
X17477389Y8582035D01*
X17435195Y8448618D01*
X17434096Y8308692D01*
X17474189Y8174629D01*
X17551930Y8058281D01*
X17557665Y8053612D01*
X17557666Y8053611D01*
X17654709Y7974606D01*
X17654712Y7974604D01*
X17660446Y7969936D01*
X17790141Y7917404D01*
X17797513Y7916766D01*
X17797515Y7916765D01*
X17880771Y7909555D01*
X17929549Y7905330D01*
X17985631Y7917404D01*
X18059106Y7933222D01*
X18059109Y7933223D01*
X18066345Y7934781D01*
X18077625Y7941098D01*
X18137634Y7953036D01*
X18193200Y7927421D01*
X18223097Y7874038D01*
X18225000Y7854722D01*
X18225000Y1396395D01*
X18206093Y1338204D01*
X18156593Y1302240D01*
X18095407Y1302240D01*
X18086554Y1306196D01*
X18086520Y1306110D01*
X18079641Y1308833D01*
X18073239Y1312552D01*
X17996083Y1330436D01*
X17943666Y1361993D01*
X17919807Y1418335D01*
X17929878Y1471129D01*
X17954659Y1520723D01*
X17954660Y1520725D01*
X17957966Y1527342D01*
X17974272Y1625306D01*
X17980301Y1661526D01*
X17980301Y1661530D01*
X17980941Y1665373D01*
X17980999Y1672765D01*
X17979116Y1685293D01*
X17961295Y1803823D01*
X17960195Y1811140D01*
X17914616Y1906058D01*
X17902827Y1930609D01*
X17902826Y1930610D01*
X17899623Y1937281D01*
X17804638Y2040036D01*
X17683638Y2110318D01*
X17547322Y2141914D01*
X17503566Y2138816D01*
X17444185Y2153567D01*
X17426570Y2167565D01*
X17219596Y2374539D01*
X17191819Y2429056D01*
X17190600Y2444543D01*
X17190600Y3848618D01*
X17190868Y3852273D01*
X17192429Y3856818D01*
X17190670Y3903671D01*
X17190600Y3907384D01*
X17190600Y3926847D01*
X17189776Y3931272D01*
X17189439Y3936469D01*
X17188711Y3955850D01*
X17188368Y3964986D01*
X17184761Y3973382D01*
X17184760Y3973385D01*
X17184118Y3974878D01*
X17177753Y3995831D01*
X17177456Y3997424D01*
X17177455Y3997427D01*
X17175781Y4006415D01*
X17162391Y4028138D01*
X17155707Y4041006D01*
X17145639Y4064441D01*
X17141541Y4069429D01*
X17137736Y4073234D01*
X17124471Y4090016D01*
X17123778Y4090780D01*
X17118982Y4098561D01*
X17096889Y4115361D01*
X17086810Y4124160D01*
X14220928Y6990043D01*
X14218536Y6992814D01*
X14216426Y6997131D01*
X14182060Y7029010D01*
X14179384Y7031587D01*
X14165615Y7045356D01*
X14161900Y7047904D01*
X14157978Y7051349D01*
X14143771Y7064528D01*
X14137068Y7070746D01*
X14128577Y7074134D01*
X14128575Y7074135D01*
X14127066Y7074737D01*
X14107755Y7085048D01*
X14106413Y7085968D01*
X14106412Y7085968D01*
X14098873Y7091140D01*
X14089981Y7093250D01*
X14089979Y7093251D01*
X14074049Y7097031D01*
X14060223Y7101404D01*
X14043022Y7108267D01*
X14043019Y7108268D01*
X14036529Y7110857D01*
X14030104Y7111487D01*
X14024722Y7111487D01*
X14003478Y7113973D01*
X14002447Y7114023D01*
X13993553Y7116134D01*
X13984499Y7114902D01*
X13984496Y7114902D01*
X13966048Y7112391D01*
X13952699Y7111487D01*
X10125520Y7111487D01*
X10121865Y7111755D01*
X10117320Y7113316D01*
X10070468Y7111557D01*
X10066754Y7111487D01*
X10047291Y7111487D01*
X10042866Y7110663D01*
X10037669Y7110326D01*
X10025775Y7109879D01*
X10009152Y7109255D01*
X9999261Y7105005D01*
X9978309Y7098639D01*
X9967723Y7096668D01*
X9959939Y7091870D01*
X9946003Y7083280D01*
X9933136Y7076596D01*
X9909698Y7066526D01*
X9904709Y7062428D01*
X9900904Y7058623D01*
X9884122Y7045358D01*
X9883358Y7044665D01*
X9875577Y7039869D01*
X9870045Y7032594D01*
X9870044Y7032593D01*
X9858778Y7017777D01*
X9849978Y7007697D01*
X8974588Y6132307D01*
X8920071Y6104530D01*
X8911576Y6103558D01*
X8886658Y6101794D01*
X8785993Y6094666D01*
X8746103Y6079234D01*
X8662391Y6046849D01*
X8662388Y6046848D01*
X8655488Y6044178D01*
X8620717Y6016767D01*
X8551411Y5962131D01*
X8551409Y5962129D01*
X8545598Y5957548D01*
X8541391Y5951461D01*
X8541390Y5951460D01*
X8470245Y5848521D01*
X8466039Y5842435D01*
X8423845Y5709018D01*
X8423787Y5701619D01*
X8423179Y5624161D01*
X8422746Y5569092D01*
X8424866Y5562004D01*
X8424866Y5562002D01*
X8454899Y5461579D01*
X8462839Y5435028D01*
X8466951Y5428874D01*
X8536471Y5324830D01*
X8536473Y5324827D01*
X8540581Y5318680D01*
X8546316Y5314011D01*
X8546317Y5314010D01*
X8643359Y5235005D01*
X8643362Y5235003D01*
X8649096Y5230335D01*
X8778792Y5177803D01*
X8786164Y5177165D01*
X8786166Y5177164D01*
X8869422Y5169954D01*
X8918200Y5165729D01*
X9026913Y5189134D01*
X9047760Y5193622D01*
X9047761Y5193622D01*
X9054996Y5195180D01*
X9177085Y5263553D01*
X9182191Y5268905D01*
X9182193Y5268907D01*
X9237051Y5326414D01*
X9273672Y5364803D01*
X9305687Y5428874D01*
X9332911Y5483358D01*
X9332912Y5483360D01*
X9336218Y5489977D01*
X9349387Y5569092D01*
X9358553Y5624161D01*
X9358553Y5624165D01*
X9359193Y5628008D01*
X9359251Y5635400D01*
X9358672Y5639249D01*
X9358398Y5643127D01*
X9359776Y5643225D01*
X9368941Y5698211D01*
X9386781Y5722560D01*
X10165512Y6501291D01*
X10220029Y6529068D01*
X10235516Y6530287D01*
X11671334Y6530287D01*
X11729525Y6511380D01*
X11765489Y6461880D01*
X11765726Y6401436D01*
X11759984Y6383280D01*
X11738738Y6316099D01*
X11735194Y6304894D01*
X11734446Y6209562D01*
X11734422Y6206543D01*
X11715058Y6148502D01*
X11665278Y6112928D01*
X11627656Y6108625D01*
X11620943Y6109153D01*
X11613731Y6110825D01*
X11474150Y6100942D01*
X11457126Y6094356D01*
X11350548Y6053125D01*
X11350545Y6053124D01*
X11343645Y6050454D01*
X11300913Y6016767D01*
X11239568Y5968407D01*
X11239566Y5968405D01*
X11233755Y5963824D01*
X11229548Y5957737D01*
X11229547Y5957736D01*
X11175989Y5880243D01*
X11154196Y5848711D01*
X11112002Y5715294D01*
X11111317Y5628008D01*
X11111312Y5627385D01*
X11091948Y5569344D01*
X11082319Y5558158D01*
X10521457Y4997296D01*
X10466940Y4969519D01*
X10458452Y4968548D01*
X10327362Y4959266D01*
X10281076Y4941359D01*
X10203760Y4911449D01*
X10203757Y4911448D01*
X10196857Y4908778D01*
X10141912Y4865463D01*
X10092780Y4826731D01*
X10092778Y4826729D01*
X10086967Y4822148D01*
X10085870Y4820561D01*
X10034559Y4792353D01*
X10016010Y4790600D01*
X8076759Y4790600D01*
X8018568Y4809507D01*
X8006755Y4819596D01*
X6319596Y6506756D01*
X6291819Y6561273D01*
X6290600Y6576760D01*
X6290600Y6633692D01*
X7534095Y6633692D01*
X7536215Y6626604D01*
X7536215Y6626602D01*
X7565384Y6529068D01*
X7574188Y6499628D01*
X7578300Y6493474D01*
X7647820Y6389430D01*
X7647822Y6389427D01*
X7651930Y6383280D01*
X7657665Y6378611D01*
X7657666Y6378610D01*
X7754708Y6299605D01*
X7754711Y6299603D01*
X7760445Y6294935D01*
X7890141Y6242403D01*
X7897513Y6241765D01*
X7897515Y6241764D01*
X7980771Y6234554D01*
X8029549Y6230329D01*
X8117162Y6249191D01*
X8159109Y6258222D01*
X8159110Y6258222D01*
X8166345Y6259780D01*
X8288434Y6328153D01*
X8293540Y6333505D01*
X8293542Y6333507D01*
X8341022Y6383280D01*
X8385021Y6429403D01*
X8418194Y6495792D01*
X8444260Y6547958D01*
X8444261Y6547960D01*
X8447567Y6554577D01*
X8470542Y6692608D01*
X8470600Y6700000D01*
X8470021Y6703849D01*
X8469747Y6707727D01*
X8471125Y6707825D01*
X8480290Y6762811D01*
X8498130Y6787160D01*
X10019663Y8308692D01*
X11561001Y9850030D01*
X11582632Y9866403D01*
X11625934Y9890653D01*
X11631042Y9896008D01*
X11631045Y9896010D01*
X11674186Y9941234D01*
X11728033Y9970289D01*
X11745820Y9971900D01*
X12276122Y9971900D01*
X12334313Y9952993D01*
X12346126Y9942904D01*
X13405721Y8883308D01*
X13433498Y8828791D01*
X13434714Y8812527D01*
X13434419Y8774923D01*
X13434095Y8733692D01*
X13436215Y8726604D01*
X13436215Y8726602D01*
X13457658Y8654902D01*
X13474188Y8599628D01*
X13478300Y8593474D01*
X13547820Y8489430D01*
X13547822Y8489427D01*
X13551930Y8483280D01*
X13557665Y8478611D01*
X13557666Y8478610D01*
X13654708Y8399605D01*
X13654711Y8399603D01*
X13660445Y8394935D01*
X13790141Y8342403D01*
X13797513Y8341765D01*
X13797515Y8341764D01*
X13880771Y8334554D01*
X13929549Y8330329D01*
X14017162Y8349191D01*
X14059109Y8358222D01*
X14059110Y8358222D01*
X14066345Y8359780D01*
X14188434Y8428153D01*
X14193540Y8433505D01*
X14193542Y8433507D01*
X14271091Y8514801D01*
X14285021Y8529403D01*
X14317036Y8593474D01*
X14344260Y8647958D01*
X14344261Y8647960D01*
X14347567Y8654577D01*
X14367513Y8774408D01*
X14369902Y8788761D01*
X14369902Y8788765D01*
X14370542Y8792608D01*
X14370600Y8800000D01*
X14349796Y8938375D01*
X14319510Y9001445D01*
X14292428Y9057844D01*
X14292427Y9057845D01*
X14289224Y9064516D01*
X14194239Y9167271D01*
X14073239Y9237553D01*
X13936923Y9269149D01*
X13893167Y9266051D01*
X13833786Y9280802D01*
X13816171Y9294800D01*
X12679315Y10431656D01*
X12676923Y10434427D01*
X12674813Y10438744D01*
X12640447Y10470623D01*
X12637771Y10473200D01*
X12624002Y10486969D01*
X12620287Y10489517D01*
X12616365Y10492962D01*
X12602158Y10506141D01*
X12595455Y10512359D01*
X12586964Y10515747D01*
X12586962Y10515748D01*
X12585453Y10516350D01*
X12566142Y10526661D01*
X12564800Y10527581D01*
X12564799Y10527581D01*
X12557260Y10532753D01*
X12548368Y10534863D01*
X12548366Y10534864D01*
X12532436Y10538644D01*
X12518610Y10543017D01*
X12501409Y10549880D01*
X12501406Y10549881D01*
X12494916Y10552470D01*
X12488491Y10553100D01*
X12483109Y10553100D01*
X12461865Y10555586D01*
X12460834Y10555636D01*
X12451940Y10557747D01*
X12442886Y10556515D01*
X12442883Y10556515D01*
X12424435Y10554004D01*
X12411086Y10553100D01*
X11745916Y10553100D01*
X11687725Y10572007D01*
X11673218Y10584899D01*
X11636763Y10624336D01*
X11631739Y10629771D01*
X11510739Y10700053D01*
X11374423Y10731649D01*
X11234842Y10721766D01*
X11223585Y10717411D01*
X11111240Y10673949D01*
X11111237Y10673948D01*
X11104337Y10671278D01*
X11055761Y10632984D01*
X11000260Y10589231D01*
X11000258Y10589229D01*
X10994447Y10584648D01*
X10990240Y10578561D01*
X10990239Y10578560D01*
X10928615Y10489397D01*
X10914888Y10469535D01*
X10905150Y10438744D01*
X10882346Y10366636D01*
X10872694Y10336118D01*
X10871595Y10196192D01*
X10873716Y10189100D01*
X10903848Y10088342D01*
X10902407Y10027174D01*
X10879003Y9989973D01*
X8085937Y7196907D01*
X8031420Y7169130D01*
X8022925Y7168158D01*
X7998007Y7166394D01*
X7897342Y7159266D01*
X7851056Y7141359D01*
X7773740Y7111449D01*
X7773737Y7111448D01*
X7766837Y7108778D01*
X7716739Y7069284D01*
X7662760Y7026731D01*
X7662758Y7026729D01*
X7656947Y7022148D01*
X7652740Y7016061D01*
X7652739Y7016060D01*
X7636160Y6992072D01*
X7577388Y6907035D01*
X7535194Y6773618D01*
X7535136Y6766219D01*
X7534528Y6688761D01*
X7534095Y6633692D01*
X6290600Y6633692D01*
X6290600Y9549456D01*
X6309507Y9607647D01*
X6359007Y9643611D01*
X6420193Y9643611D01*
X6469693Y9607647D01*
X6473935Y9600475D01*
X6474188Y9599628D01*
X6485331Y9582952D01*
X6547820Y9489430D01*
X6547822Y9489427D01*
X6551930Y9483280D01*
X6557665Y9478611D01*
X6557666Y9478610D01*
X6654708Y9399605D01*
X6654711Y9399603D01*
X6660445Y9394935D01*
X6790141Y9342403D01*
X6797513Y9341765D01*
X6797515Y9341764D01*
X6880771Y9334554D01*
X6929549Y9330329D01*
X7051556Y9356596D01*
X7059109Y9358222D01*
X7059110Y9358222D01*
X7066345Y9359780D01*
X7075679Y9365007D01*
X7181975Y9424536D01*
X7188434Y9428153D01*
X7193540Y9433505D01*
X7193542Y9433507D01*
X7246889Y9489430D01*
X7285021Y9529403D01*
X7319437Y9598281D01*
X7344260Y9647958D01*
X7344261Y9647960D01*
X7347567Y9654577D01*
X7365729Y9763692D01*
X8064095Y9763692D01*
X8066215Y9756604D01*
X8066215Y9756602D01*
X8100642Y9641486D01*
X8104188Y9629628D01*
X8108300Y9623474D01*
X8177820Y9519430D01*
X8177822Y9519427D01*
X8181930Y9513280D01*
X8187665Y9508611D01*
X8187666Y9508610D01*
X8284708Y9429605D01*
X8284711Y9429603D01*
X8290445Y9424935D01*
X8420141Y9372403D01*
X8427513Y9371765D01*
X8427515Y9371764D01*
X8505536Y9365007D01*
X8559549Y9360329D01*
X8647162Y9379191D01*
X8689109Y9388222D01*
X8689110Y9388222D01*
X8696345Y9389780D01*
X8818434Y9458153D01*
X8823540Y9463505D01*
X8823542Y9463507D01*
X8881296Y9524050D01*
X8915021Y9559403D01*
X8949867Y9629141D01*
X8974260Y9677958D01*
X8974261Y9677960D01*
X8977567Y9684577D01*
X8991104Y9765906D01*
X8999902Y9818761D01*
X8999902Y9818765D01*
X9000542Y9822608D01*
X9000600Y9830000D01*
X9000021Y9833849D01*
X8999747Y9837727D01*
X9001127Y9837825D01*
X9010287Y9892805D01*
X9028130Y9917159D01*
X9718389Y10607418D01*
X9721160Y10609810D01*
X9725477Y10611920D01*
X9757356Y10646286D01*
X9759933Y10648962D01*
X9773702Y10662731D01*
X9776250Y10666446D01*
X9779695Y10670368D01*
X9792874Y10684575D01*
X9799092Y10691278D01*
X9802480Y10699769D01*
X9802481Y10699771D01*
X9803083Y10701280D01*
X9813394Y10720591D01*
X9814314Y10721933D01*
X9814314Y10721934D01*
X9819486Y10729473D01*
X9825377Y10754297D01*
X9829750Y10768123D01*
X9836613Y10785324D01*
X9836614Y10785327D01*
X9839203Y10791817D01*
X9839833Y10798242D01*
X9839833Y10803624D01*
X9842319Y10824868D01*
X9842369Y10825899D01*
X9844480Y10834793D01*
X9843248Y10843847D01*
X9843248Y10843850D01*
X9840737Y10862298D01*
X9839833Y10875647D01*
X9839833Y14140009D01*
X9858740Y14198200D01*
X9867199Y14208344D01*
X9896122Y14238663D01*
X9934254Y14278636D01*
X9967384Y14344939D01*
X9993493Y14397191D01*
X9993494Y14397193D01*
X9996800Y14403810D01*
X10019775Y14541841D01*
X10019833Y14549233D01*
X9999029Y14687608D01*
X9938457Y14813749D01*
X9843472Y14916504D01*
X9722472Y14986786D01*
X9586156Y15018382D01*
X9446575Y15008499D01*
X9434558Y15003850D01*
X9322973Y14960682D01*
X9322970Y14960681D01*
X9316070Y14958011D01*
X9266783Y14919156D01*
X9211993Y14875964D01*
X9211991Y14875962D01*
X9206180Y14871381D01*
X9201973Y14865294D01*
X9201972Y14865293D01*
X9131213Y14762912D01*
X9126621Y14756268D01*
X9084427Y14622851D01*
X9083908Y14556719D01*
X9083761Y14537994D01*
X9083328Y14482925D01*
X9085448Y14475837D01*
X9085448Y14475835D01*
X9118390Y14365685D01*
X9123421Y14348861D01*
X9127533Y14342707D01*
X9197053Y14238663D01*
X9197055Y14238660D01*
X9201163Y14232513D01*
X9206899Y14227843D01*
X9206900Y14227842D01*
X9222138Y14215436D01*
X9255327Y14164034D01*
X9258633Y14138663D01*
X9258633Y11010611D01*
X9239726Y10952420D01*
X9229637Y10940607D01*
X8615937Y10326907D01*
X8561420Y10299130D01*
X8552925Y10298158D01*
X8528007Y10296394D01*
X8427342Y10289266D01*
X8407077Y10281426D01*
X8303740Y10241449D01*
X8303737Y10241448D01*
X8296837Y10238778D01*
X8278771Y10224536D01*
X8192760Y10156731D01*
X8192758Y10156729D01*
X8186947Y10152148D01*
X8182740Y10146061D01*
X8182739Y10146060D01*
X8121061Y10056818D01*
X8107388Y10037035D01*
X8089359Y9980027D01*
X8084174Y9963631D01*
X8065194Y9903618D01*
X8065136Y9896219D01*
X8064528Y9818761D01*
X8064095Y9763692D01*
X7365729Y9763692D01*
X7366149Y9766215D01*
X7369902Y9788761D01*
X7369902Y9788765D01*
X7370542Y9792608D01*
X7370600Y9800000D01*
X7367780Y9818761D01*
X7365613Y9833172D01*
X7375659Y9893527D01*
X7393509Y9917894D01*
X7463141Y9987526D01*
X7478143Y9999837D01*
X7483233Y10003238D01*
X7491343Y10008657D01*
X7510305Y10037035D01*
X7550002Y10096445D01*
X7556050Y10126847D01*
X7568698Y10190438D01*
X7570600Y10200000D01*
X7567502Y10215575D01*
X7565600Y10234889D01*
X7565600Y12248977D01*
X7584507Y12307168D01*
X7594596Y12318981D01*
X7783190Y12507575D01*
X7837707Y12535352D01*
X7861736Y12536202D01*
X7893742Y12533430D01*
X7929549Y12530329D01*
X8038267Y12553735D01*
X8059109Y12558222D01*
X8059110Y12558222D01*
X8066345Y12559780D01*
X8188434Y12628153D01*
X8193540Y12633505D01*
X8193542Y12633507D01*
X8266452Y12709938D01*
X8285021Y12729403D01*
X8327342Y12814101D01*
X8344260Y12847958D01*
X8344261Y12847960D01*
X8347567Y12854577D01*
X8360736Y12933692D01*
X8369902Y12988761D01*
X8369902Y12988765D01*
X8370542Y12992608D01*
X8370600Y13000000D01*
X8349796Y13138375D01*
X8289224Y13264516D01*
X8194239Y13367271D01*
X8073239Y13437553D01*
X7936923Y13469149D01*
X7860148Y13463713D01*
X7800768Y13478463D01*
X7783153Y13492462D01*
X6675627Y14599988D01*
X6647850Y14654505D01*
X6647975Y14686247D01*
X6669902Y14817981D01*
X6669902Y14817985D01*
X6670542Y14821828D01*
X6670600Y14829220D01*
X6649796Y14967595D01*
X6602514Y15066060D01*
X6592428Y15087064D01*
X6592427Y15087065D01*
X6589224Y15093736D01*
X6494239Y15196491D01*
X6373239Y15266773D01*
X6236923Y15298369D01*
X6097342Y15288486D01*
X6051056Y15270579D01*
X5973740Y15240669D01*
X5973737Y15240668D01*
X5966837Y15237998D01*
X5914185Y15196491D01*
X5862760Y15155951D01*
X5862758Y15155949D01*
X5856947Y15151368D01*
X5852740Y15145281D01*
X5852739Y15145280D01*
X5782751Y15044015D01*
X5777388Y15036255D01*
X5772995Y15022364D01*
X5744562Y14932458D01*
X5735194Y14902838D01*
X5735136Y14895439D01*
X5734528Y14817981D01*
X5734095Y14762912D01*
X5736215Y14755824D01*
X5736215Y14755822D01*
X5759907Y14676602D01*
X5774188Y14628848D01*
X5778300Y14622694D01*
X5847820Y14518650D01*
X5847822Y14518647D01*
X5851930Y14512500D01*
X5857665Y14507831D01*
X5857666Y14507830D01*
X5954708Y14428825D01*
X5954711Y14428823D01*
X5960445Y14424155D01*
X6090141Y14371623D01*
X6105401Y14370301D01*
X6122754Y14368798D01*
X6179096Y14344939D01*
X6184214Y14340171D01*
X7405997Y13118388D01*
X7433774Y13063871D01*
X7434990Y13047611D01*
X7434241Y12952201D01*
X7434224Y12950073D01*
X7414860Y12892032D01*
X7405231Y12880846D01*
X7136859Y12612474D01*
X7121857Y12600163D01*
X7108657Y12591343D01*
X7094418Y12570033D01*
X7049998Y12503554D01*
X7048096Y12493991D01*
X7048095Y12493989D01*
X7041247Y12459560D01*
X7029400Y12400000D01*
X7031302Y12390438D01*
X7032498Y12384425D01*
X7034400Y12365111D01*
X7034400Y10367471D01*
X7015493Y10309280D01*
X6965993Y10273316D01*
X6936872Y10269871D01*
X6936923Y10269149D01*
X6797342Y10259266D01*
X6786062Y10254902D01*
X6673740Y10211449D01*
X6673737Y10211448D01*
X6666837Y10208778D01*
X6623830Y10174874D01*
X6562760Y10126731D01*
X6562758Y10126729D01*
X6556947Y10122148D01*
X6552740Y10116061D01*
X6552739Y10116060D01*
X6498122Y10037035D01*
X6477388Y10007035D01*
X6476919Y10005551D01*
X6436296Y9963631D01*
X6376022Y9953110D01*
X6321076Y9980027D01*
X6292444Y10034101D01*
X6292156Y10056024D01*
X6292429Y10056818D01*
X6290670Y10103671D01*
X6290600Y10107384D01*
X6290600Y10126847D01*
X6289776Y10131272D01*
X6289439Y10136469D01*
X6288711Y10155847D01*
X6288368Y10164986D01*
X6284118Y10174877D01*
X6277752Y10195830D01*
X6275781Y10206415D01*
X6262393Y10228135D01*
X6255709Y10241002D01*
X6248397Y10258020D01*
X6245639Y10264440D01*
X6241541Y10269429D01*
X6237736Y10273234D01*
X6224471Y10290016D01*
X6223778Y10290780D01*
X6218982Y10298561D01*
X6203900Y10310030D01*
X6196890Y10315360D01*
X6186810Y10324160D01*
X5309207Y11201764D01*
X5281430Y11256281D01*
X5280211Y11271768D01*
X5280211Y12731631D01*
X5280479Y12735286D01*
X5282040Y12739831D01*
X5280281Y12786684D01*
X5280211Y12790397D01*
X5280211Y12809861D01*
X5279387Y12814286D01*
X5279050Y12819483D01*
X5278322Y12838861D01*
X5277979Y12848000D01*
X5273729Y12857891D01*
X5267363Y12878844D01*
X5265392Y12889429D01*
X5252004Y12911149D01*
X5245320Y12924016D01*
X5238009Y12941033D01*
X5238008Y12941035D01*
X5235250Y12947454D01*
X5231153Y12952443D01*
X5227343Y12956253D01*
X5214082Y12973029D01*
X5213391Y12973791D01*
X5208593Y12981575D01*
X5201317Y12987108D01*
X5201316Y12987109D01*
X5186505Y12998371D01*
X5176425Y13007171D01*
X4924829Y13258767D01*
X4922437Y13261538D01*
X4920327Y13265855D01*
X4885961Y13297734D01*
X4883285Y13300311D01*
X4869516Y13314080D01*
X4865801Y13316628D01*
X4861879Y13320073D01*
X4847672Y13333252D01*
X4840969Y13339470D01*
X4832478Y13342858D01*
X4832476Y13342859D01*
X4830967Y13343461D01*
X4811656Y13353772D01*
X4810314Y13354692D01*
X4810313Y13354692D01*
X4802774Y13359864D01*
X4793882Y13361974D01*
X4793880Y13361975D01*
X4777950Y13365755D01*
X4764124Y13370128D01*
X4746923Y13376991D01*
X4746920Y13376992D01*
X4740430Y13379581D01*
X4734005Y13380211D01*
X4728623Y13380211D01*
X4707379Y13382697D01*
X4706348Y13382747D01*
X4697454Y13384858D01*
X4688400Y13383626D01*
X4688397Y13383626D01*
X4669949Y13381115D01*
X4656600Y13380211D01*
X2568368Y13380211D01*
X2564713Y13380479D01*
X2560168Y13382040D01*
X2513316Y13380281D01*
X2509602Y13380211D01*
X2490139Y13380211D01*
X2485714Y13379387D01*
X2480517Y13379050D01*
X2468623Y13378603D01*
X2452000Y13377979D01*
X2442109Y13373729D01*
X2421157Y13367363D01*
X2410571Y13365392D01*
X2402787Y13360594D01*
X2388851Y13352004D01*
X2375984Y13345320D01*
X2352546Y13335250D01*
X2347557Y13331152D01*
X2343752Y13327347D01*
X2326970Y13314082D01*
X2326206Y13313389D01*
X2318425Y13308593D01*
X2312893Y13301318D01*
X2312892Y13301317D01*
X2301626Y13286501D01*
X2292826Y13276421D01*
X2009012Y12992608D01*
X1730844Y12714440D01*
X1728073Y12712048D01*
X1723756Y12709938D01*
X1717541Y12703239D01*
X1717542Y12703239D01*
X1691877Y12675572D01*
X1689300Y12672896D01*
X1675531Y12659127D01*
X1672983Y12655412D01*
X1669540Y12651492D01*
X1650141Y12630580D01*
X1646753Y12622089D01*
X1646752Y12622087D01*
X1646150Y12620578D01*
X1635839Y12601267D01*
X1635082Y12600163D01*
X1629747Y12592385D01*
X1627637Y12583493D01*
X1627636Y12583491D01*
X1623856Y12567561D01*
X1619483Y12553735D01*
X1610030Y12530041D01*
X1609400Y12523616D01*
X1609400Y12518234D01*
X1606914Y12496990D01*
X1606864Y12495959D01*
X1604753Y12487065D01*
X1605985Y12478011D01*
X1605985Y12478008D01*
X1608496Y12459560D01*
X1609400Y12446211D01*
X1609400Y11051382D01*
X1609132Y11047727D01*
X1607571Y11043182D01*
X1607914Y11034049D01*
X1609330Y10996330D01*
X1609400Y10992616D01*
X1609400Y10973153D01*
X1610224Y10968728D01*
X1610561Y10963531D01*
X1611632Y10935014D01*
X1615239Y10926618D01*
X1615240Y10926615D01*
X1615882Y10925122D01*
X1622247Y10904169D01*
X1622544Y10902576D01*
X1622545Y10902573D01*
X1624219Y10893585D01*
X1629016Y10885803D01*
X1637609Y10871862D01*
X1644291Y10858998D01*
X1654361Y10835559D01*
X1658459Y10830571D01*
X1662264Y10826766D01*
X1675529Y10809984D01*
X1676222Y10809220D01*
X1681018Y10801439D01*
X1688293Y10795907D01*
X1688294Y10795906D01*
X1703115Y10784636D01*
X1713195Y10775835D01*
X1889029Y10600000D01*
X2058182Y10430847D01*
X2060577Y10428072D01*
X2062687Y10423756D01*
X2069386Y10417542D01*
X2097053Y10391877D01*
X2099729Y10389300D01*
X2113498Y10375531D01*
X2117213Y10372983D01*
X2121133Y10369540D01*
X2142045Y10350141D01*
X2150536Y10346753D01*
X2150538Y10346752D01*
X2152047Y10346150D01*
X2171358Y10335839D01*
X2172700Y10334919D01*
X2180240Y10329747D01*
X2189132Y10327637D01*
X2189134Y10327636D01*
X2205064Y10323856D01*
X2218890Y10319483D01*
X2236091Y10312620D01*
X2236094Y10312619D01*
X2242584Y10310030D01*
X2249009Y10309400D01*
X2254391Y10309400D01*
X2275633Y10306914D01*
X2276667Y10306863D01*
X2285560Y10304753D01*
X2294013Y10305903D01*
X2350873Y10284305D01*
X2351875Y10283362D01*
X2351930Y10283280D01*
X2352172Y10283083D01*
X2352173Y10283082D01*
X2454708Y10199605D01*
X2454711Y10199603D01*
X2460445Y10194935D01*
X2590141Y10142403D01*
X2597513Y10141765D01*
X2597515Y10141764D01*
X2680771Y10134554D01*
X2729549Y10130329D01*
X2817162Y10149191D01*
X2859109Y10158222D01*
X2859110Y10158222D01*
X2866345Y10159780D01*
X2988434Y10228153D01*
X2993540Y10233505D01*
X2993542Y10233507D01*
X3047448Y10290016D01*
X3085021Y10329403D01*
X3129062Y10417542D01*
X3144260Y10447958D01*
X3144261Y10447960D01*
X3147567Y10454577D01*
X3161839Y10540322D01*
X3169902Y10588761D01*
X3169902Y10588765D01*
X3170542Y10592608D01*
X3170600Y10600000D01*
X3149796Y10738375D01*
X3089224Y10864516D01*
X3082434Y10871862D01*
X2999263Y10961836D01*
X2994239Y10967271D01*
X2873239Y11037553D01*
X2736923Y11069149D01*
X2597342Y11059266D01*
X2576963Y11051382D01*
X2473740Y11011449D01*
X2473737Y11011448D01*
X2466837Y11008778D01*
X2443856Y10990661D01*
X2386454Y10969485D01*
X2327566Y10986094D01*
X2312564Y10998406D01*
X2277137Y11033834D01*
X2219596Y11091375D01*
X2191819Y11145892D01*
X2190600Y11161378D01*
X2190600Y12006364D01*
X2209507Y12064555D01*
X2259007Y12100519D01*
X2320193Y12100519D01*
X2352104Y12083138D01*
X2454708Y11999605D01*
X2454711Y11999603D01*
X2460445Y11994935D01*
X2590141Y11942403D01*
X2597513Y11941765D01*
X2597515Y11941764D01*
X2668804Y11935590D01*
X2729549Y11930329D01*
X2736788Y11931888D01*
X2744168Y11932352D01*
X2744385Y11928909D01*
X2790682Y11924216D01*
X2820755Y11903630D01*
X5192931Y9531454D01*
X5220708Y9476937D01*
X5211137Y9416505D01*
X5167872Y9373240D01*
X5107440Y9363669D01*
X5100573Y9365007D01*
X5082703Y9369149D01*
X4943122Y9359266D01*
X4906717Y9345182D01*
X4819520Y9311449D01*
X4819517Y9311448D01*
X4812617Y9308778D01*
X4762348Y9269149D01*
X4708540Y9226731D01*
X4708538Y9226729D01*
X4702727Y9222148D01*
X4698520Y9216061D01*
X4698519Y9216060D01*
X4627374Y9113121D01*
X4623168Y9107035D01*
X4580974Y8973618D01*
X4579875Y8833692D01*
X4581995Y8826604D01*
X4581995Y8826602D01*
X4617727Y8707122D01*
X4619968Y8699628D01*
X4624080Y8693474D01*
X4693600Y8589430D01*
X4693602Y8589427D01*
X4697710Y8583280D01*
X4703446Y8578610D01*
X4703447Y8578609D01*
X4718685Y8566203D01*
X4751874Y8514801D01*
X4755180Y8489430D01*
X4755180Y6318972D01*
X4754912Y6315317D01*
X4753351Y6310772D01*
X4753946Y6294935D01*
X4755110Y6263920D01*
X4755180Y6260206D01*
X4755180Y6240743D01*
X4756004Y6236318D01*
X4756341Y6231121D01*
X4757412Y6202604D01*
X4761019Y6194208D01*
X4761020Y6194205D01*
X4761662Y6192712D01*
X4768027Y6171759D01*
X4768324Y6170166D01*
X4768325Y6170163D01*
X4769999Y6161175D01*
X4774796Y6153393D01*
X4783389Y6139452D01*
X4790071Y6126588D01*
X4800141Y6103149D01*
X4804239Y6098161D01*
X4808044Y6094356D01*
X4821309Y6077574D01*
X4822002Y6076810D01*
X4826798Y6069029D01*
X4834073Y6063497D01*
X4834074Y6063496D01*
X4848890Y6052230D01*
X4858970Y6043430D01*
X5780404Y5121995D01*
X5808181Y5067478D01*
X5809400Y5051991D01*
X5809400Y2611517D01*
X5790493Y2553326D01*
X5771691Y2533771D01*
X5756947Y2522148D01*
X5752740Y2516061D01*
X5692608Y2429056D01*
X5677388Y2407035D01*
X5675157Y2399980D01*
X5641493Y2293534D01*
X5635194Y2273618D01*
X5635094Y2260875D01*
X5634160Y2141914D01*
X5634095Y2133692D01*
X5636215Y2126604D01*
X5636215Y2126602D01*
X5669666Y2014750D01*
X5674188Y1999628D01*
X5678300Y1993474D01*
X5747820Y1889430D01*
X5747822Y1889427D01*
X5751930Y1883280D01*
X5757665Y1878611D01*
X5757666Y1878610D01*
X5854708Y1799605D01*
X5854711Y1799603D01*
X5860445Y1794935D01*
X5990141Y1742403D01*
X5997513Y1741765D01*
X5997515Y1741764D01*
X6080771Y1734554D01*
X6129549Y1730329D01*
X6217162Y1749191D01*
X6259109Y1758222D01*
X6259110Y1758222D01*
X6266345Y1759780D01*
X6388434Y1828153D01*
X6393540Y1833505D01*
X6393542Y1833507D01*
X6446889Y1889430D01*
X6485021Y1929403D01*
X6517036Y1993474D01*
X6544260Y2047958D01*
X6544261Y2047960D01*
X6547567Y2054577D01*
X6560736Y2133692D01*
X6569902Y2188761D01*
X6569902Y2188765D01*
X6570542Y2192608D01*
X6570600Y2200000D01*
X6566494Y2227314D01*
X6552546Y2320086D01*
X6549796Y2338375D01*
X6489224Y2464516D01*
X6416902Y2542754D01*
X6391286Y2598319D01*
X6390600Y2609955D01*
X6390600Y4859153D01*
X6409507Y4917344D01*
X6459007Y4953308D01*
X6520193Y4953308D01*
X6559604Y4929157D01*
X8554859Y2933901D01*
X10496501Y992259D01*
X10508812Y977257D01*
X10517632Y964057D01*
X10538942Y949818D01*
X10605421Y905398D01*
X10614984Y903496D01*
X10614986Y903495D01*
X10699413Y886702D01*
X10708975Y884800D01*
X10718537Y886702D01*
X10724550Y887898D01*
X10743864Y889800D01*
X11059474Y889800D01*
X11117665Y870893D01*
X11141788Y845803D01*
X11142436Y844833D01*
X11142438Y844830D01*
X11146548Y838680D01*
X11152283Y834011D01*
X11152284Y834010D01*
X11249326Y755005D01*
X11249329Y755003D01*
X11255063Y750335D01*
X11384759Y697803D01*
X11392131Y697165D01*
X11392133Y697164D01*
X11475389Y689954D01*
X11524167Y685729D01*
X11611780Y704591D01*
X11653727Y713622D01*
X11653728Y713622D01*
X11660963Y715180D01*
X11783052Y783553D01*
X11788158Y788905D01*
X11788160Y788907D01*
X11863236Y867608D01*
X11879639Y884803D01*
X11919240Y964057D01*
X11938878Y1003358D01*
X11938879Y1003360D01*
X11942185Y1009977D01*
X11965160Y1148008D01*
X11965218Y1155400D01*
X11944414Y1293775D01*
X11893628Y1399537D01*
X11887046Y1413244D01*
X11887045Y1413245D01*
X11883842Y1419916D01*
X11839210Y1468199D01*
X11813594Y1523764D01*
X11825531Y1583774D01*
X11870461Y1625306D01*
X11911908Y1634400D01*
X12465111Y1634400D01*
X12484425Y1632498D01*
X12500000Y1629400D01*
X12509562Y1631302D01*
X12593989Y1648095D01*
X12593991Y1648096D01*
X12603554Y1649998D01*
X12670033Y1694418D01*
X12691343Y1708657D01*
X12700163Y1721857D01*
X12712474Y1736859D01*
X14231019Y3255404D01*
X14285536Y3283181D01*
X14301023Y3284400D01*
X14814856Y3284400D01*
X14873047Y3265493D01*
X14897170Y3240403D01*
X14897818Y3239433D01*
X14897820Y3239430D01*
X14901930Y3233280D01*
X14907665Y3228611D01*
X14907666Y3228610D01*
X15004708Y3149605D01*
X15004711Y3149603D01*
X15010445Y3144935D01*
X15140141Y3092403D01*
X15147513Y3091765D01*
X15147515Y3091764D01*
X15230771Y3084554D01*
X15279549Y3080329D01*
X15367162Y3099191D01*
X15409109Y3108222D01*
X15409110Y3108222D01*
X15416345Y3109780D01*
X15538434Y3178153D01*
X15543540Y3183505D01*
X15543542Y3183507D01*
X15600891Y3243625D01*
X15635021Y3279403D01*
X15697567Y3404577D01*
X15720542Y3542608D01*
X15720600Y3550000D01*
X15699796Y3688375D01*
X15656422Y3778701D01*
X15642428Y3807844D01*
X15642427Y3807845D01*
X15639224Y3814516D01*
X15544239Y3917271D01*
X15423239Y3987553D01*
X15286923Y4019149D01*
X15147342Y4009266D01*
X15139973Y4006415D01*
X15023740Y3961449D01*
X15023737Y3961448D01*
X15016837Y3958778D01*
X14964185Y3917271D01*
X14912760Y3876731D01*
X14912758Y3876729D01*
X14906947Y3872148D01*
X14902741Y3866062D01*
X14902738Y3866059D01*
X14897384Y3858312D01*
X14848745Y3821192D01*
X14815943Y3815600D01*
X14184889Y3815600D01*
X14165575Y3817502D01*
X14159562Y3818698D01*
X14150000Y3820600D01*
X14140438Y3818698D01*
X14056010Y3801905D01*
X14056008Y3801904D01*
X14046445Y3800002D01*
X14014567Y3778701D01*
X13985261Y3759119D01*
X13982142Y3757035D01*
X13958657Y3741343D01*
X13953238Y3733233D01*
X13949837Y3728143D01*
X13937526Y3713141D01*
X12418981Y2194596D01*
X12364464Y2166819D01*
X12348977Y2165600D01*
X11231526Y2165600D01*
X11173335Y2184507D01*
X11158828Y2197399D01*
X11099263Y2261836D01*
X11094239Y2267271D01*
X11087839Y2270988D01*
X11087837Y2270990D01*
X11049025Y2293534D01*
X11008204Y2339110D01*
X11001968Y2399977D01*
X11021922Y2437658D01*
X11020336Y2438772D01*
X11024593Y2444829D01*
X11029700Y2450183D01*
X11062617Y2516061D01*
X11088939Y2568738D01*
X11088940Y2568740D01*
X11092246Y2575357D01*
X11106646Y2661871D01*
X11114581Y2709541D01*
X11114581Y2709545D01*
X11115221Y2713388D01*
X11115279Y2720780D01*
X11094475Y2859155D01*
X11033903Y2985296D01*
X10961581Y3063534D01*
X10935965Y3119099D01*
X10935279Y3130735D01*
X10935279Y3583301D01*
X10954186Y3641492D01*
X10964275Y3653305D01*
X12369156Y5058185D01*
X12371927Y5060577D01*
X12376244Y5062687D01*
X12408123Y5097053D01*
X12410700Y5099729D01*
X12424469Y5113498D01*
X12427017Y5117213D01*
X12430462Y5121135D01*
X12443641Y5135342D01*
X12449859Y5142045D01*
X12453247Y5150536D01*
X12453248Y5150538D01*
X12453850Y5152047D01*
X12464161Y5171358D01*
X12465081Y5172700D01*
X12465081Y5172701D01*
X12470253Y5180240D01*
X12473799Y5195180D01*
X12476144Y5205064D01*
X12480517Y5218890D01*
X12487380Y5236091D01*
X12487381Y5236094D01*
X12489970Y5242584D01*
X12490600Y5249009D01*
X12490600Y5254391D01*
X12493086Y5275635D01*
X12493136Y5276666D01*
X12495247Y5285560D01*
X12494015Y5294614D01*
X12494015Y5294617D01*
X12491504Y5313065D01*
X12490600Y5326414D01*
X12490600Y5822052D01*
X12509507Y5880243D01*
X12517966Y5890387D01*
X12522635Y5895281D01*
X12585021Y5960679D01*
X12624453Y6039595D01*
X12644260Y6079234D01*
X12644261Y6079236D01*
X12647567Y6085853D01*
X12664975Y6190438D01*
X12669902Y6220037D01*
X12669902Y6220041D01*
X12670542Y6223884D01*
X12670600Y6231276D01*
X12649796Y6369651D01*
X12640777Y6388433D01*
X12632632Y6449073D01*
X12661686Y6502920D01*
X12716842Y6529406D01*
X12730021Y6530287D01*
X13817735Y6530287D01*
X13875926Y6511380D01*
X13887739Y6501291D01*
X16580404Y3808625D01*
X16608181Y3754108D01*
X16609400Y3738621D01*
X16609400Y2334546D01*
X16609132Y2330891D01*
X16607571Y2326346D01*
X16607914Y2317213D01*
X16609330Y2279494D01*
X16609400Y2275780D01*
X16609400Y2256317D01*
X16610224Y2251892D01*
X16610561Y2246695D01*
X16611632Y2218178D01*
X16615239Y2209782D01*
X16615240Y2209779D01*
X16615882Y2208286D01*
X16622247Y2187333D01*
X16622544Y2185740D01*
X16622545Y2185737D01*
X16624219Y2176749D01*
X16629016Y2168967D01*
X16637609Y2155026D01*
X16644291Y2142162D01*
X16654361Y2118723D01*
X16658459Y2113735D01*
X16662264Y2109930D01*
X16675529Y2093148D01*
X16676222Y2092384D01*
X16681018Y2084603D01*
X16688293Y2079071D01*
X16688294Y2079070D01*
X16703110Y2067804D01*
X16713190Y2059004D01*
X17016120Y1756074D01*
X17043897Y1701557D01*
X17045113Y1685293D01*
X17044558Y1614666D01*
X17044494Y1606457D01*
X17046614Y1599369D01*
X17046614Y1599367D01*
X17065971Y1534643D01*
X17084587Y1472393D01*
X17088699Y1466239D01*
X17158219Y1362195D01*
X17158221Y1362192D01*
X17162329Y1356045D01*
X17168064Y1351376D01*
X17168065Y1351375D01*
X17265107Y1272370D01*
X17265110Y1272368D01*
X17270844Y1267700D01*
X17400540Y1215168D01*
X17407914Y1214529D01*
X17409094Y1214246D01*
X17461263Y1182276D01*
X17484678Y1125748D01*
X17476397Y1082349D01*
X17477389Y1082035D01*
X17442643Y972167D01*
X17435195Y948618D01*
X17435137Y941219D01*
X17434332Y838680D01*
X17434096Y808692D01*
X17436216Y801604D01*
X17436216Y801602D01*
X17470403Y687288D01*
X17474189Y674629D01*
X17551930Y558281D01*
X17557665Y553612D01*
X17557666Y553611D01*
X17654709Y474606D01*
X17654712Y474604D01*
X17660446Y469936D01*
X17790141Y417404D01*
X17797513Y416766D01*
X17797515Y416765D01*
X17880771Y409555D01*
X17929549Y405330D01*
X17985631Y417404D01*
X18059106Y433222D01*
X18059109Y433223D01*
X18066345Y434781D01*
X18077625Y441098D01*
X18137634Y453036D01*
X18193200Y427421D01*
X18223097Y374038D01*
X18225000Y354722D01*
X18225000Y124000D01*
X18206093Y65809D01*
X18156593Y29845D01*
X18126000Y25000D01*
X124000Y25000D01*
X65809Y43907D01*
X29845Y93407D01*
X25000Y124000D01*
X25000Y1267759D01*
X43907Y1325950D01*
X93407Y1361914D01*
X154593Y1361914D01*
X161166Y1359518D01*
X199113Y1344148D01*
X265141Y1317404D01*
X272513Y1316766D01*
X272515Y1316765D01*
X355771Y1309555D01*
X404549Y1305330D01*
X460631Y1317404D01*
X534106Y1333222D01*
X534109Y1333223D01*
X541345Y1334781D01*
X579315Y1356045D01*
X656974Y1399537D01*
X663433Y1403154D01*
X668541Y1408509D01*
X668544Y1408511D01*
X729484Y1472393D01*
X760020Y1504403D01*
X814711Y1613856D01*
X819259Y1622958D01*
X819260Y1622960D01*
X822566Y1629577D01*
X839336Y1730329D01*
X844901Y1763761D01*
X844901Y1763765D01*
X845541Y1767608D01*
X845599Y1775000D01*
X824795Y1913375D01*
X779555Y2007588D01*
X767427Y2032844D01*
X767426Y2032845D01*
X764223Y2039516D01*
X669239Y2142270D01*
X596522Y2184507D01*
X587804Y2189571D01*
X546982Y2235148D01*
X540746Y2296015D01*
X571477Y2348922D01*
X589154Y2361555D01*
X656974Y2399537D01*
X663433Y2403154D01*
X668541Y2408509D01*
X668544Y2408511D01*
X718777Y2461169D01*
X760020Y2504403D01*
X806947Y2598319D01*
X819259Y2622958D01*
X819260Y2622960D01*
X822566Y2629577D01*
X845541Y2767608D01*
X845599Y2775000D01*
X824795Y2913375D01*
X787650Y2990730D01*
X767427Y3032844D01*
X767426Y3032845D01*
X764223Y3039516D01*
X725906Y3080968D01*
X674263Y3136835D01*
X669239Y3142270D01*
X548239Y3212552D01*
X411923Y3244148D01*
X272342Y3234265D01*
X220539Y3214224D01*
X159720Y3190695D01*
X98627Y3187333D01*
X47226Y3220522D01*
X25000Y3283026D01*
X25000Y16826000D01*
X43907Y16884191D01*
X93407Y16920155D01*
X124000Y16925000D01*
X18126000Y16925000D01*
X18184191Y16906093D01*
G37*
G04 #@! TD.AperFunction*
G04 #@! TA.AperFunction,Conductor*
G36*
X4579827Y12780104D02*
G01*
X4591640Y12770015D01*
X4670015Y12691640D01*
X4697792Y12637123D01*
X4699011Y12621636D01*
X4699011Y11161771D01*
X4698743Y11158116D01*
X4697182Y11153571D01*
X4697525Y11144438D01*
X4698941Y11106719D01*
X4699011Y11103005D01*
X4699011Y11083542D01*
X4699835Y11079117D01*
X4700172Y11073920D01*
X4701243Y11045403D01*
X4704851Y11037004D01*
X4706861Y11028087D01*
X4703485Y11027326D01*
X4707584Y10982759D01*
X4676304Y10930173D01*
X4620090Y10906016D01*
X4560412Y10919515D01*
X4541019Y10934596D01*
X3194066Y12281549D01*
X3166289Y12336066D01*
X3166414Y12367808D01*
X3169902Y12388761D01*
X3169902Y12388765D01*
X3170542Y12392608D01*
X3170600Y12400000D01*
X3149796Y12538375D01*
X3092758Y12657157D01*
X3084613Y12717798D01*
X3113667Y12771645D01*
X3168823Y12798130D01*
X3182002Y12799011D01*
X4521636Y12799011D01*
X4579827Y12780104D01*
G37*
G04 #@! TD.AperFunction*
G04 #@! TD*
M02*
