G04*
G04 #@! TF.GenerationSoftware,Altium Limited,Altium Designer,20.0.10 (225)*
G04*
G04 Layer_Physical_Order=1*
G04 Layer_Color=255*
%FSLAX25Y25*%
%MOIN*%
G70*
G01*
G75*
%ADD10C,0.00787*%
%ADD11C,0.01968*%
G04:AMPARAMS|DCode=14|XSize=33.47mil|YSize=33.47mil|CornerRadius=3.35mil|HoleSize=0mil|Usage=FLASHONLY|Rotation=90.000|XOffset=0mil|YOffset=0mil|HoleType=Round|Shape=RoundedRectangle|*
%AMROUNDEDRECTD14*
21,1,0.03347,0.02677,0,0,90.0*
21,1,0.02677,0.03347,0,0,90.0*
1,1,0.00669,0.01339,0.01339*
1,1,0.00669,0.01339,-0.01339*
1,1,0.00669,-0.01339,-0.01339*
1,1,0.00669,-0.01339,0.01339*
%
%ADD14ROUNDEDRECTD14*%
G04:AMPARAMS|DCode=15|XSize=70.87mil|YSize=45.28mil|CornerRadius=4.53mil|HoleSize=0mil|Usage=FLASHONLY|Rotation=180.000|XOffset=0mil|YOffset=0mil|HoleType=Round|Shape=RoundedRectangle|*
%AMROUNDEDRECTD15*
21,1,0.07087,0.03622,0,0,180.0*
21,1,0.06181,0.04528,0,0,180.0*
1,1,0.00906,-0.03091,0.01811*
1,1,0.00906,0.03091,0.01811*
1,1,0.00906,0.03091,-0.01811*
1,1,0.00906,-0.03091,-0.01811*
%
%ADD15ROUNDEDRECTD15*%
G04:AMPARAMS|DCode=16|XSize=70.87mil|YSize=45.28mil|CornerRadius=4.53mil|HoleSize=0mil|Usage=FLASHONLY|Rotation=90.000|XOffset=0mil|YOffset=0mil|HoleType=Round|Shape=RoundedRectangle|*
%AMROUNDEDRECTD16*
21,1,0.07087,0.03622,0,0,90.0*
21,1,0.06181,0.04528,0,0,90.0*
1,1,0.00906,0.01811,0.03091*
1,1,0.00906,0.01811,-0.03091*
1,1,0.00906,-0.01811,-0.03091*
1,1,0.00906,-0.01811,0.03091*
%
%ADD16ROUNDEDRECTD16*%
G04:AMPARAMS|DCode=17|XSize=86.61mil|YSize=90.55mil|CornerRadius=8.66mil|HoleSize=0mil|Usage=FLASHONLY|Rotation=90.000|XOffset=0mil|YOffset=0mil|HoleType=Round|Shape=RoundedRectangle|*
%AMROUNDEDRECTD17*
21,1,0.08661,0.07323,0,0,90.0*
21,1,0.06929,0.09055,0,0,90.0*
1,1,0.01732,0.03661,0.03465*
1,1,0.01732,0.03661,-0.03465*
1,1,0.01732,-0.03661,-0.03465*
1,1,0.01732,-0.03661,0.03465*
%
%ADD17ROUNDEDRECTD17*%
G04:AMPARAMS|DCode=18|XSize=21.65mil|YSize=43.31mil|CornerRadius=2.17mil|HoleSize=0mil|Usage=FLASHONLY|Rotation=0.000|XOffset=0mil|YOffset=0mil|HoleType=Round|Shape=RoundedRectangle|*
%AMROUNDEDRECTD18*
21,1,0.02165,0.03898,0,0,0.0*
21,1,0.01732,0.04331,0,0,0.0*
1,1,0.00433,0.00866,-0.01949*
1,1,0.00433,-0.00866,-0.01949*
1,1,0.00433,-0.00866,0.01949*
1,1,0.00433,0.00866,0.01949*
%
%ADD18ROUNDEDRECTD18*%
G04:AMPARAMS|DCode=19|XSize=92.52mil|YSize=137.8mil|CornerRadius=9.25mil|HoleSize=0mil|Usage=FLASHONLY|Rotation=180.000|XOffset=0mil|YOffset=0mil|HoleType=Round|Shape=RoundedRectangle|*
%AMROUNDEDRECTD19*
21,1,0.09252,0.11929,0,0,180.0*
21,1,0.07402,0.13780,0,0,180.0*
1,1,0.01850,-0.03701,0.05965*
1,1,0.01850,0.03701,0.05965*
1,1,0.01850,0.03701,-0.05965*
1,1,0.01850,-0.03701,-0.05965*
%
%ADD19ROUNDEDRECTD19*%
G04:AMPARAMS|DCode=20|XSize=35.83mil|YSize=33.47mil|CornerRadius=3.35mil|HoleSize=0mil|Usage=FLASHONLY|Rotation=180.000|XOffset=0mil|YOffset=0mil|HoleType=Round|Shape=RoundedRectangle|*
%AMROUNDEDRECTD20*
21,1,0.03583,0.02677,0,0,180.0*
21,1,0.02913,0.03347,0,0,180.0*
1,1,0.00669,-0.01457,0.01339*
1,1,0.00669,0.01457,0.01339*
1,1,0.00669,0.01457,-0.01339*
1,1,0.00669,-0.01457,-0.01339*
%
%ADD20ROUNDEDRECTD20*%
G04:AMPARAMS|DCode=21|XSize=27.56mil|YSize=36.22mil|CornerRadius=2.76mil|HoleSize=0mil|Usage=FLASHONLY|Rotation=90.000|XOffset=0mil|YOffset=0mil|HoleType=Round|Shape=RoundedRectangle|*
%AMROUNDEDRECTD21*
21,1,0.02756,0.03071,0,0,90.0*
21,1,0.02205,0.03622,0,0,90.0*
1,1,0.00551,0.01535,0.01102*
1,1,0.00551,0.01535,-0.01102*
1,1,0.00551,-0.01535,-0.01102*
1,1,0.00551,-0.01535,0.01102*
%
%ADD21ROUNDEDRECTD21*%
%ADD22O,0.01968X0.03937*%
%ADD34O,0.19685X0.01575*%
%ADD35O,0.01968X0.11811*%
%ADD36O,0.01575X0.28347*%
%ADD37O,1.39370X0.01575*%
%ADD38O,0.03937X0.01968*%
%ADD39O,1.18110X0.01575*%
%ADD40O,0.00787X0.12205*%
%ADD41C,0.01575*%
%ADD42C,0.02362*%
%ADD43C,0.01181*%
%ADD44C,0.00984*%
%ADD45C,0.02362*%
G36*
X82231Y27386D02*
X82390Y27372D01*
X82772Y27362D01*
Y25394D01*
X82383Y25384D01*
X82270Y25374D01*
X82289Y24416D01*
X82265Y24602D01*
X82200Y24768D01*
X82095Y24915D01*
X81949Y25042D01*
X81762Y25149D01*
X81535Y25237D01*
X81496Y25247D01*
X81457Y25237D01*
X81230Y25149D01*
X81044Y25042D01*
X80898Y24915D01*
X80792Y24768D01*
X80728Y24602D01*
X80704Y24416D01*
X80722Y25374D01*
X80610Y25384D01*
X80220Y25394D01*
Y27362D01*
X80602Y27372D01*
X80761Y27386D01*
X80780Y28344D01*
X80797Y28157D01*
X80854Y27991D01*
X80951Y27843D01*
X81090Y27716D01*
X81269Y27608D01*
X81488Y27519D01*
X81496Y27517D01*
X81504Y27519D01*
X81723Y27608D01*
X81902Y27716D01*
X82041Y27843D01*
X82138Y27991D01*
X82196Y28157D01*
X82212Y28344D01*
X82231Y27386D01*
D02*
G37*
G36*
X121416Y25988D02*
X122654Y24175D01*
X122460Y23573D01*
X122006Y23270D01*
X121112Y22376D01*
X115000D01*
X114332Y22243D01*
X113765Y21865D01*
X113387Y21298D01*
X113254Y20630D01*
Y8701D01*
X113387Y8033D01*
X113765Y7466D01*
X114332Y7088D01*
X115000Y6955D01*
X122402D01*
X123070Y7088D01*
X123636Y7466D01*
X124015Y8033D01*
X124148Y8701D01*
Y12411D01*
X124229Y12510D01*
X124391Y12626D01*
X124648Y12728D01*
X124671Y12718D01*
X124756Y12673D01*
X124831Y12621D01*
X124899Y12562D01*
X124964Y12493D01*
X125049Y12378D01*
X125056Y12372D01*
X125116Y12282D01*
X125269Y12179D01*
X125282Y12168D01*
X125291Y12165D01*
X125487Y12034D01*
X125925Y11947D01*
X128602D01*
X129040Y12034D01*
X129411Y12282D01*
X129659Y12653D01*
X129746Y13091D01*
Y15768D01*
X129659Y16206D01*
X129411Y16577D01*
X129040Y16825D01*
X128602Y16912D01*
X125925D01*
X125487Y16825D01*
X125291Y16693D01*
X125282Y16690D01*
X125269Y16679D01*
X125116Y16577D01*
X125056Y16487D01*
X125049Y16480D01*
X124964Y16366D01*
X124899Y16296D01*
X124831Y16237D01*
X124756Y16185D01*
X124671Y16140D01*
X124648Y16131D01*
X124391Y16232D01*
X124229Y16349D01*
X124148Y16447D01*
Y18282D01*
X124153Y18307D01*
Y19740D01*
X124257Y19843D01*
X130080D01*
Y18996D01*
X130232Y18228D01*
X130591Y17692D01*
Y17441D01*
X130668Y17049D01*
X130890Y16717D01*
X131222Y16495D01*
X131614Y16417D01*
X133346D01*
X133738Y16495D01*
X134070Y16717D01*
X134631D01*
X134963Y16495D01*
X135354Y16417D01*
X137087D01*
X137478Y16495D01*
X137811Y16717D01*
X138371D01*
X138703Y16495D01*
X139094Y16417D01*
X139269D01*
X139306Y16400D01*
X139362Y16369D01*
X139420Y16330D01*
X139568Y16209D01*
X141078Y14700D01*
X141078Y14700D01*
X141468Y14439D01*
X141929Y14347D01*
X141929Y14347D01*
X149224D01*
X149634Y13847D01*
X149625Y13799D01*
Y13728D01*
X149791Y13740D01*
X150015Y13773D01*
X150400Y13861D01*
X150562Y13916D01*
X150702Y13978D01*
X150822Y14048D01*
Y13197D01*
X152461D01*
Y12197D01*
X150822D01*
Y11346D01*
X150702Y11416D01*
X150562Y11478D01*
X150400Y11533D01*
X150218Y11581D01*
X150015Y11621D01*
X149625Y11670D01*
Y11594D01*
X149644Y11500D01*
X149260Y11076D01*
X149220Y11068D01*
X146661D01*
Y7776D01*
X145661D01*
Y11068D01*
X143953D01*
X143982Y10878D01*
X144048Y10620D01*
X144132Y10407D01*
X144235Y10239D01*
X144357Y10117D01*
X144497Y10041D01*
X144657Y10010D01*
X144835Y10024D01*
X142622Y9587D01*
X142490Y8984D01*
X142372Y8567D01*
X142268Y8336D01*
X142178Y8290D01*
X142102Y8431D01*
X142040Y8758D01*
X141991Y9271D01*
X141936Y10855D01*
X141935Y11060D01*
X141850Y11102D01*
X141772Y11494D01*
X141551Y11826D01*
X141218Y12048D01*
X140827Y12126D01*
X139094D01*
X138703Y12048D01*
X138576Y11963D01*
X137964Y11980D01*
X137561Y12248D01*
X137087Y12343D01*
X136721D01*
Y9154D01*
Y5965D01*
X137087D01*
X137561Y6059D01*
X137964Y6328D01*
X138576Y6344D01*
X138703Y6259D01*
X139094Y6181D01*
X139132D01*
X139544Y5966D01*
X139636Y5505D01*
X139897Y5115D01*
X139804Y4653D01*
X139505Y4354D01*
X89922D01*
Y5236D01*
X89840Y5651D01*
X89605Y6003D01*
X89253Y6238D01*
X88839Y6320D01*
X85768D01*
X85686Y6387D01*
X85449Y6366D01*
X85211Y6327D01*
X85005Y6272D01*
X84830Y6201D01*
X84687Y6114D01*
X84576Y6012D01*
X84497Y5894D01*
X84449Y5760D01*
X84434Y5610D01*
Y8760D01*
X84449Y8610D01*
X84497Y8476D01*
X84576Y8358D01*
X84687Y8256D01*
X84830Y8169D01*
X85005Y8098D01*
X85211Y8043D01*
X85449Y8004D01*
X85477Y8002D01*
Y8009D01*
X85768Y8247D01*
X88839D01*
X89253Y8329D01*
X89532Y8214D01*
X89568Y8033D01*
X89946Y7466D01*
X90513Y7088D01*
X91181Y6955D01*
X98583D01*
X99251Y7088D01*
X99817Y7466D01*
X100196Y8033D01*
X100329Y8701D01*
Y20630D01*
X100196Y21298D01*
X99817Y21865D01*
X99251Y22243D01*
X98583Y22376D01*
X91181D01*
X90513Y22243D01*
X89946Y21865D01*
X89568Y21298D01*
X89435Y20630D01*
Y18506D01*
X88935Y18112D01*
X88819Y18135D01*
X82638D01*
X82154Y18038D01*
X81817Y17813D01*
X81557Y17764D01*
X81248D01*
X80838Y18038D01*
X80354Y18135D01*
X74173D01*
X73689Y18038D01*
X73522Y17926D01*
X72970Y18134D01*
X72966Y18154D01*
X72718Y18526D01*
X72347Y18774D01*
X71909Y18861D01*
X69232D01*
X69005Y18815D01*
X68997Y18816D01*
X68984Y18811D01*
X68795Y18774D01*
X68709Y18716D01*
X68701Y18713D01*
X68644Y18680D01*
X68426Y18744D01*
X68278Y18832D01*
X68145Y18983D01*
X68144Y18984D01*
Y19781D01*
X68644Y20048D01*
X68712Y20003D01*
X69232Y19899D01*
X70071D01*
Y22098D01*
X67483D01*
X67371Y22039D01*
X67066Y22243D01*
X66398Y22376D01*
X58996D01*
X58328Y22243D01*
X57761Y21865D01*
X57383Y21298D01*
X57250Y20630D01*
Y8701D01*
X57383Y8033D01*
X57761Y7466D01*
X58328Y7088D01*
X58996Y6955D01*
X66398D01*
X66827Y7040D01*
X67174Y7054D01*
X67194Y7051D01*
X67417Y6991D01*
X67572Y6928D01*
X67661Y6874D01*
X67692Y6845D01*
Y5079D01*
X67788Y4595D01*
X68063Y4185D01*
X68473Y3911D01*
X68957Y3814D01*
X72579D01*
X73063Y3911D01*
X73473Y4185D01*
X73747Y4595D01*
X73843Y5079D01*
Y8873D01*
X73851Y8874D01*
X74502Y9309D01*
X75574Y10382D01*
X76456Y11152D01*
X76884Y11475D01*
X77270Y11728D01*
X77601Y11908D01*
X77786Y11984D01*
X78555D01*
X78937Y11484D01*
X78893Y11260D01*
Y8669D01*
X82185D01*
Y8169D01*
X82685D01*
Y3598D01*
X83996D01*
X84014Y3601D01*
X84445Y3274D01*
X84000Y2787D01*
X34356D01*
X34088Y3287D01*
X34183Y3429D01*
X34210Y3560D01*
X32987Y3581D01*
X33252Y6496D01*
X33256Y6309D01*
X33303Y6142D01*
X33393Y5994D01*
X33526Y5866D01*
X33703Y5758D01*
X33922Y5669D01*
X34185Y5600D01*
X34296Y5583D01*
Y6674D01*
X34796Y7030D01*
X35177Y6955D01*
X42579D01*
X43247Y7088D01*
X43813Y7466D01*
X44192Y8033D01*
X44325Y8701D01*
Y20630D01*
X44192Y21298D01*
X43813Y21865D01*
X43247Y22243D01*
X42579Y22376D01*
X35177D01*
X34509Y22243D01*
X33942Y21865D01*
X33564Y21298D01*
X33431Y20630D01*
Y17567D01*
X33137Y17350D01*
X32931Y17265D01*
X32520Y17347D01*
X26339D01*
X25855Y17251D01*
X25620Y17094D01*
X25611Y17091D01*
X25599Y17080D01*
X25445Y16977D01*
X25418Y16937D01*
X25310Y16881D01*
X24887D01*
X24779Y16937D01*
X24752Y16977D01*
X24598Y17080D01*
X24586Y17091D01*
X24577Y17094D01*
X24342Y17251D01*
X23858Y17347D01*
X17677D01*
X17193Y17251D01*
X16783Y16977D01*
X16509Y16567D01*
X16413Y16083D01*
Y12461D01*
X16509Y11977D01*
X16783Y11567D01*
X16882Y11071D01*
X16823Y10984D01*
X16608Y10661D01*
X16511Y10177D01*
Y8080D01*
X16485Y8056D01*
X16398Y8003D01*
X16243Y7940D01*
X16019Y7880D01*
X15729Y7833D01*
X15517Y7814D01*
X14420D01*
X14212Y7833D01*
X13925Y7880D01*
X13702Y7940D01*
X13547Y8003D01*
X13457Y8058D01*
X13419Y8093D01*
X13418Y8094D01*
Y9173D01*
X13290Y9818D01*
X12924Y10365D01*
X12377Y10731D01*
X11732Y10859D01*
X9779D01*
Y11365D01*
X9827Y11437D01*
X9979Y12205D01*
X9827Y12973D01*
X9392Y13624D01*
X8741Y14059D01*
X7972Y14212D01*
X7204Y14059D01*
X6553Y13624D01*
X6118Y12973D01*
X5965Y12205D01*
X6118Y11437D01*
X6166Y11365D01*
Y10859D01*
X4409D01*
X3764Y10731D01*
X3217Y10365D01*
X2852Y9818D01*
X2724Y9173D01*
Y2244D01*
X2830Y1709D01*
X2725Y1181D01*
X2782Y894D01*
X2407Y394D01*
X1730D01*
X1376Y747D01*
X1379Y28543D01*
X2694D01*
X2936Y28043D01*
X2652Y27618D01*
X2507Y26890D01*
Y23925D01*
X8071D01*
X13635D01*
Y26890D01*
X13490Y27618D01*
X13206Y28043D01*
X13448Y28543D01*
X16052D01*
X16310Y28131D01*
X16304Y28043D01*
X16196Y27500D01*
Y26189D01*
X20768D01*
Y25689D01*
X21268D01*
Y22397D01*
X23858D01*
X24425Y22510D01*
X24906Y22831D01*
X25291D01*
X25772Y22510D01*
X26339Y22397D01*
X28929D01*
Y25689D01*
X29429D01*
Y26189D01*
X34001D01*
Y27500D01*
X33893Y28043D01*
X33887Y28131D01*
X34145Y28543D01*
X72298D01*
X72692Y28043D01*
Y27436D01*
X72779Y27451D01*
X73040Y27519D01*
X73259Y27608D01*
X73438Y27716D01*
X73576Y27843D01*
X73674Y27991D01*
X73731Y28157D01*
X73747Y28344D01*
X73774Y26976D01*
X77264D01*
Y26476D01*
X77764D01*
Y23184D01*
X80354D01*
X80921Y23297D01*
X81116Y23427D01*
X81496Y23580D01*
X81876Y23427D01*
X82071Y23297D01*
X82638Y23184D01*
X85228D01*
Y26476D01*
X85728D01*
Y26976D01*
X89222D01*
X89256Y28051D01*
X89270Y27864D01*
X89325Y27697D01*
X89421Y27549D01*
X89558Y27421D01*
X89736Y27313D01*
X89954Y27224D01*
X90213Y27156D01*
X90300Y27141D01*
Y28287D01*
X90510Y28543D01*
X120399D01*
X121416Y25988D01*
D02*
G37*
G36*
X155610Y22562D02*
X155110Y22268D01*
X155104Y22271D01*
Y23839D01*
X155022Y24253D01*
X154787Y24605D01*
X154436Y24840D01*
X154021Y24923D01*
X150950D01*
X150463Y25327D01*
X150324Y25305D01*
X150058Y25236D01*
X149838Y25148D01*
X149662Y25039D01*
X149532Y24912D01*
X149447Y24764D01*
X149407Y24597D01*
X149412Y24409D01*
X149097Y26654D01*
X149067Y26654D01*
X149034Y26454D01*
X149011Y26184D01*
X149003Y25883D01*
X148138D01*
Y25000D01*
X147638D01*
Y24500D01*
X144820D01*
Y23662D01*
X144924Y23141D01*
X145045Y22960D01*
X144810Y22455D01*
X144523Y22450D01*
X144442Y22571D01*
X144155Y22763D01*
X143852Y23216D01*
X142803Y24265D01*
X142282Y24613D01*
X141667Y24736D01*
X141667Y24736D01*
X138353D01*
X138353Y24736D01*
X137738Y24613D01*
X137247Y24853D01*
Y26339D01*
X137160Y26776D01*
X136911Y27148D01*
X136540Y27396D01*
X136102Y27483D01*
X133742D01*
X133617Y27607D01*
Y28543D01*
X155610D01*
Y22562D01*
D02*
G37*
G36*
X153058Y21821D02*
X153087Y21449D01*
X153099Y21377D01*
X153206D01*
X153177Y21368D01*
X153151Y21339D01*
X153128Y21292D01*
X153121Y21268D01*
X153145Y21183D01*
X153184Y21090D01*
X153232Y21023D01*
X153286Y20983D01*
X153347Y20970D01*
X153416Y20984D01*
X153066Y20855D01*
X153060Y20768D01*
X153054Y20426D01*
X151902D01*
X151722Y20360D01*
X151676Y20311D01*
X151635Y20311D01*
X151598Y20359D01*
X151576Y20426D01*
X151479D01*
X151478Y20607D01*
X151441Y21139D01*
X151425Y21225D01*
X151405Y21292D01*
X151382Y21339D01*
X151356Y21368D01*
X151328Y21377D01*
X151488D01*
X151479Y22047D01*
X153054D01*
X153058Y21821D01*
D02*
G37*
G36*
X134671Y23511D02*
X134938Y23622D01*
X134761Y23432D01*
X134860Y23345D01*
X134822Y23345D01*
X134751Y23307D01*
X134646Y23232D01*
X134508Y23120D01*
X134449Y23066D01*
X134337Y22926D01*
X134086Y22558D01*
X133869Y22175D01*
X133685Y21779D01*
X133535Y21369D01*
X133418Y20944D01*
X133335Y20507D01*
X133284Y20055D01*
X133268Y19589D01*
X132087Y22441D01*
X132127Y22458D01*
X131252Y23276D01*
X131579Y23605D01*
X132875Y25061D01*
X132872Y25096D01*
X134671Y23511D01*
D02*
G37*
G36*
X146820Y19783D02*
X146988Y19642D01*
X147071Y19582D01*
X147102Y19563D01*
X147236Y19697D01*
X147251Y19619D01*
X147273Y19540D01*
X147303Y19460D01*
X147307Y19452D01*
X147315Y19449D01*
X147395Y19419D01*
X147473Y19397D01*
X147551Y19382D01*
X147417Y19248D01*
X147437Y19217D01*
X147496Y19134D01*
X147637Y18966D01*
X147719Y18881D01*
X147163Y18324D01*
X147077Y18406D01*
X146909Y18547D01*
X146827Y18607D01*
X146796Y18626D01*
X146661Y18492D01*
X146647Y18570D01*
X146624Y18649D01*
X146595Y18729D01*
X146591Y18737D01*
X146583Y18741D01*
X146503Y18770D01*
X146424Y18792D01*
X146346Y18807D01*
X146481Y18941D01*
X146461Y18972D01*
X146402Y19055D01*
X146260Y19223D01*
X146178Y19308D01*
X146735Y19865D01*
X146820Y19783D01*
D02*
G37*
G36*
X149591Y21154D02*
X149646Y21021D01*
X149735Y20904D01*
X149856Y20803D01*
X150010Y20717D01*
X150198Y20647D01*
X150418Y20592D01*
X150671Y20553D01*
X150957Y20529D01*
X151276Y20522D01*
Y18947D01*
X150969Y18939D01*
X150695Y18915D01*
X150454Y18876D01*
X150246Y18821D01*
X150071Y18750D01*
X149929Y18663D01*
X149819Y18561D01*
X149743Y18443D01*
X149700Y18309D01*
X149689Y18159D01*
X149568Y21302D01*
X149591Y21154D01*
D02*
G37*
G36*
X141028Y17376D02*
X141019Y17308D01*
X141022Y17237D01*
X141037Y17163D01*
X141063Y17087D01*
X141102Y17007D01*
X141152Y16926D01*
X141215Y16841D01*
X141288Y16753D01*
X141374Y16663D01*
X140261D01*
X140138Y16781D01*
X139899Y16976D01*
X139784Y17053D01*
X139671Y17117D01*
X139561Y17167D01*
X139453Y17203D01*
X139349Y17226D01*
X139247Y17236D01*
X139147Y17232D01*
X141048Y17441D01*
X141028Y17376D01*
D02*
G37*
G36*
X90262Y15987D02*
X90393Y15953D01*
X90756Y15894D01*
X91169Y15858D01*
X91631Y15846D01*
Y13484D01*
X91223Y13479D01*
X90262Y13400D01*
Y12303D01*
X90238Y12528D01*
X90167Y12728D01*
X90048Y12905D01*
X89882Y13059D01*
X89669Y13189D01*
X89566Y13231D01*
X89517Y13213D01*
X89355Y13130D01*
X89228Y13036D01*
X89137Y12930D01*
X89146Y13365D01*
X89099Y13378D01*
X88743Y13437D01*
X88339Y13472D01*
X87888Y13484D01*
Y15846D01*
X88339Y15858D01*
X88743Y15894D01*
X89099Y15953D01*
X89203Y15981D01*
X89225Y17025D01*
X89245Y16801D01*
X89313Y16601D01*
X89431Y16424D01*
X89598Y16271D01*
X89740Y16185D01*
X89882Y16272D01*
X90048Y16425D01*
X90167Y16602D01*
X90238Y16803D01*
X90262Y17028D01*
Y15987D01*
D02*
G37*
G36*
X82256Y15899D02*
X82292Y15894D01*
X82704Y15858D01*
X83166Y15846D01*
Y13484D01*
X82759Y13479D01*
X82309Y13442D01*
X82320Y12930D01*
X82228Y13036D01*
X82102Y13130D01*
X81940Y13213D01*
X81743Y13285D01*
X81511Y13346D01*
X81496Y13349D01*
X81481Y13346D01*
X81249Y13285D01*
X81052Y13213D01*
X80890Y13130D01*
X80764Y13036D01*
X80672Y12930D01*
X80683Y13451D01*
X80233Y13479D01*
X79826Y13484D01*
Y15846D01*
X80288Y15858D01*
X80700Y15894D01*
X80736Y15899D01*
X80761Y17025D01*
X80780Y16801D01*
X80849Y16601D01*
X80966Y16424D01*
X81133Y16271D01*
X81349Y16141D01*
X81496Y16082D01*
X81643Y16141D01*
X81859Y16271D01*
X82026Y16424D01*
X82143Y16601D01*
X82212Y16801D01*
X82231Y17025D01*
X82256Y15899D01*
D02*
G37*
G36*
X34258Y15394D02*
X34381Y15359D01*
X34678Y15302D01*
X34995Y15267D01*
X35331Y15256D01*
Y12894D01*
X34948Y12886D01*
X34270Y12826D01*
X34258Y12824D01*
Y11713D01*
X34234Y11937D01*
X34163Y12138D01*
X34045Y12315D01*
X33878Y12468D01*
X33665Y12598D01*
X33545Y12647D01*
X33477Y12623D01*
X33273Y12526D01*
X33098Y12413D01*
X32953Y12286D01*
X32838Y12143D01*
Y12830D01*
X32739Y12846D01*
X32335Y12882D01*
X31884Y12894D01*
Y15256D01*
X32335Y15268D01*
X32739Y15303D01*
X32838Y15320D01*
Y16400D01*
X33000Y16183D01*
X33182Y15989D01*
X33383Y15817D01*
X33604Y15668D01*
X33739Y15597D01*
X33878Y15681D01*
X34045Y15835D01*
X34163Y16012D01*
X34234Y16213D01*
X34258Y16437D01*
Y15394D01*
D02*
G37*
G36*
X26021Y15301D02*
X26334Y15267D01*
X26670Y15256D01*
Y12894D01*
X26286Y12886D01*
X26021Y12863D01*
Y12143D01*
X25906Y12286D01*
X25761Y12413D01*
X25586Y12526D01*
X25381Y12623D01*
X25147Y12706D01*
X25098Y12718D01*
X25050Y12706D01*
X24816Y12623D01*
X24611Y12526D01*
X24436Y12413D01*
X24291Y12286D01*
X24176Y12143D01*
Y12867D01*
X23527Y12894D01*
Y15256D01*
X23863Y15267D01*
X24176Y15301D01*
Y16400D01*
X24339Y16183D01*
X24521Y15989D01*
X24722Y15817D01*
X24942Y15668D01*
X25098Y15586D01*
X25255Y15668D01*
X25475Y15817D01*
X25676Y15989D01*
X25858Y16183D01*
X26021Y16400D01*
Y15301D01*
D02*
G37*
G36*
X150847Y15086D02*
X150819Y15100D01*
X150778Y15112D01*
X150723Y15123D01*
X150655Y15132D01*
X150478Y15146D01*
X149964Y15157D01*
X149894Y15945D01*
X150054Y15949D01*
X150197Y15961D01*
X150322Y15980D01*
X150429Y16008D01*
X150517Y16043D01*
X150588Y16087D01*
X150642Y16138D01*
X150677Y16197D01*
X150694Y16264D01*
X150693Y16339D01*
X150847Y15086D01*
D02*
G37*
G36*
X67340Y18516D02*
X67412Y18315D01*
X67530Y18138D01*
X67697Y17984D01*
X67910Y17854D01*
X68172Y17748D01*
X68293Y17716D01*
X68585Y17785D01*
X68783Y17854D01*
X68956Y17933D01*
X69106Y18021D01*
Y17583D01*
X69240Y17571D01*
X69691Y17559D01*
Y15197D01*
X69240Y15185D01*
X69106Y15173D01*
Y14735D01*
X68956Y14823D01*
X68783Y14902D01*
X68585Y14971D01*
X68365Y15031D01*
X68304Y15043D01*
X68172Y15008D01*
X67910Y14902D01*
X67697Y14772D01*
X67530Y14618D01*
X67412Y14441D01*
X67340Y14240D01*
X67317Y14016D01*
Y15173D01*
X67244Y15178D01*
X66541Y15197D01*
Y17559D01*
X66904Y17564D01*
X67317Y17594D01*
Y18740D01*
X67340Y18516D01*
D02*
G37*
G36*
X155115Y11968D02*
X155598Y12500D01*
X155652Y12749D01*
X155701Y12916D01*
X155745Y13002D01*
X155782Y13007D01*
X155814Y12929D01*
X155840Y12770D01*
X155860Y12530D01*
X155886Y11319D01*
X155098D01*
X155095Y11435D01*
X155084Y11530D01*
X155066Y11604D01*
X155040Y11658D01*
X155007Y11691D01*
X154967Y11703D01*
X154919Y11695D01*
X154865Y11666D01*
X154802Y11616D01*
X154733Y11546D01*
X155053Y11899D01*
X155043Y11913D01*
X154987Y11965D01*
X154915Y12008D01*
X154827Y12043D01*
X154723Y12071D01*
X154684Y12077D01*
X154645Y12071D01*
X154541Y12043D01*
X154453Y12008D01*
X154381Y11965D01*
X154325Y11913D01*
X154285Y11854D01*
X154261Y11787D01*
X154253Y11713D01*
Y13287D01*
X154261Y13213D01*
X154285Y13146D01*
X154325Y13087D01*
X154381Y13036D01*
X154453Y12992D01*
X154541Y12957D01*
X154645Y12929D01*
X154684Y12923D01*
X154723Y12929D01*
X154827Y12957D01*
X154915Y12992D01*
X154987Y13036D01*
X155043Y13087D01*
X155083Y13146D01*
X155107Y13213D01*
X155115Y13287D01*
Y11968D01*
D02*
G37*
G36*
X123337Y15854D02*
X123384Y15721D01*
X123463Y15602D01*
X123574Y15500D01*
X123717Y15413D01*
X123892Y15342D01*
X124098Y15287D01*
X124336Y15248D01*
X124404Y15242D01*
X124455Y15248D01*
X124654Y15287D01*
X124840Y15342D01*
X125013Y15413D01*
X125174Y15499D01*
X125322Y15601D01*
X125458Y15718D01*
X125582Y15851D01*
X125693Y16000D01*
Y12858D01*
X125582Y13007D01*
X125458Y13140D01*
X125322Y13258D01*
X125174Y13360D01*
X125013Y13446D01*
X124840Y13516D01*
X124654Y13571D01*
X124455Y13610D01*
X124404Y13616D01*
X124336Y13610D01*
X124098Y13571D01*
X123892Y13516D01*
X123717Y13445D01*
X123574Y13358D01*
X123463Y13256D01*
X123384Y13138D01*
X123337Y13004D01*
X123321Y12854D01*
Y16004D01*
X123337Y15854D01*
D02*
G37*
G36*
X86932Y14650D02*
X86970Y14481D01*
X87016Y14318D01*
X87071Y14163D01*
X87134Y14014D01*
X87206Y13872D01*
X87287Y13737D01*
X87377Y13609D01*
X87475Y13488D01*
X87581Y13373D01*
X87025Y12817D01*
X86910Y12923D01*
X86789Y13022D01*
X86661Y13111D01*
X86526Y13192D01*
X86384Y13264D01*
X86235Y13328D01*
X86080Y13382D01*
X85917Y13429D01*
X85748Y13466D01*
X85572Y13495D01*
X86903Y14826D01*
X86932Y14650D01*
D02*
G37*
G36*
X78494Y12811D02*
X78238Y12871D01*
X77947Y12861D01*
X77620Y12783D01*
X77257Y12635D01*
X76857Y12418D01*
X76421Y12132D01*
X75950Y11776D01*
X74898Y10857D01*
X74318Y10293D01*
X72248Y11564D01*
X72744Y12076D01*
X73504Y12970D01*
X73769Y13350D01*
X73956Y13687D01*
X74067Y13980D01*
X74100Y14228D01*
X74056Y14433D01*
X73934Y14594D01*
X73736Y14710D01*
X78494Y12811D01*
D02*
G37*
G36*
X88016Y12803D02*
X87949Y12779D01*
X87890Y12739D01*
X87839Y12683D01*
X87795Y12611D01*
X87760Y12523D01*
X87732Y12419D01*
X87713Y12301D01*
X87732Y12184D01*
X87760Y12080D01*
X87795Y11992D01*
X87839Y11920D01*
X87890Y11864D01*
X87949Y11824D01*
X88016Y11800D01*
X88090Y11792D01*
X86516D01*
X86590Y11800D01*
X86658Y11824D01*
X86717Y11864D01*
X86768Y11920D01*
X86811Y11992D01*
X86847Y12080D01*
X86874Y12184D01*
X86893Y12301D01*
X86874Y12419D01*
X86847Y12523D01*
X86811Y12611D01*
X86768Y12683D01*
X86717Y12739D01*
X86658Y12779D01*
X86590Y12803D01*
X86516Y12811D01*
X88090D01*
X88016Y12803D01*
D02*
G37*
G36*
X21410Y12023D02*
X22589D01*
X22364Y12000D01*
X22163Y11928D01*
X21986Y11810D01*
X21833Y11643D01*
X21703Y11430D01*
X21597Y11169D01*
X21518Y10876D01*
X21518Y10875D01*
X21558Y10740D01*
X21605Y10631D01*
X21657Y10550D01*
X21715Y10495D01*
X21455Y10505D01*
X21455Y10504D01*
X21419Y10100D01*
X21407Y9649D01*
X19045D01*
X19034Y10100D01*
X18998Y10504D01*
X18982Y10600D01*
X18599Y10615D01*
X18684Y10628D01*
X18760Y10675D01*
X18827Y10755D01*
X18885Y10869D01*
X18914Y10955D01*
X18856Y11169D01*
X18750Y11430D01*
X18620Y11643D01*
X18467Y11810D01*
X18289Y11928D01*
X18089Y12000D01*
X17864Y12023D01*
X19038D01*
X19045Y12254D01*
X21407D01*
X21410Y12023D01*
D02*
G37*
G36*
X17458Y3678D02*
X17319Y3858D01*
X17155Y4019D01*
X16967Y4162D01*
X16755Y4285D01*
X16518Y4389D01*
X16256Y4474D01*
X15970Y4541D01*
X15659Y4588D01*
X15324Y4617D01*
X14965Y4626D01*
X14514Y4614D01*
X14111Y4579D01*
X13755Y4520D01*
X13446Y4437D01*
X13185Y4331D01*
X12971Y4201D01*
X12805Y4047D01*
X12686Y3870D01*
X12615Y3669D01*
X12591Y3445D01*
Y8169D01*
X12615Y7945D01*
X12686Y7744D01*
X12805Y7567D01*
X12971Y7413D01*
X13185Y7283D01*
X13446Y7177D01*
X13755Y7095D01*
X14111Y7035D01*
X14514Y7000D01*
X14965Y6988D01*
X15421Y7000D01*
X15829Y7035D01*
X16188Y7095D01*
X16499Y7177D01*
X16760Y7283D01*
X16973Y7413D01*
X17138Y7567D01*
X17253Y7744D01*
X17320Y7945D01*
X17338Y8169D01*
X17458Y3678D01*
D02*
G37*
G36*
X67308Y11262D02*
X67353Y11061D01*
X67454Y10884D01*
X67609Y10730D01*
X67819Y10600D01*
X67895Y10570D01*
X67969Y10599D01*
X68189Y10728D01*
X68361Y10881D01*
X68485Y11057D01*
X68560Y11256D01*
X68588Y11480D01*
X68572Y10385D01*
X68778Y10352D01*
X69207Y10317D01*
X69691Y10305D01*
X69269Y7943D01*
X68536Y7913D01*
X68519Y6762D01*
X68499Y6986D01*
X68430Y7187D01*
X68313Y7364D01*
X68148Y7518D01*
X67934Y7648D01*
X67673Y7754D01*
X67363Y7837D01*
X67223Y7860D01*
X66754Y7841D01*
X66766Y7917D01*
X66599Y7931D01*
X66145Y7943D01*
Y10305D01*
X66606Y10317D01*
X67019Y10352D01*
X67145Y10372D01*
X67317Y11486D01*
X67308Y11262D01*
D02*
G37*
G36*
X141096Y7209D02*
X141108Y7152D01*
X141118Y7066D01*
X141133Y6805D01*
X141142Y6196D01*
X140354D01*
X140350Y6362D01*
X140339Y6508D01*
X140319Y6636D01*
X140291Y6744D01*
X140256Y6833D01*
X140213Y6904D01*
X140162Y6955D01*
X140102Y6988D01*
X140035Y7001D01*
X139961Y6995D01*
X141048Y7205D01*
X141066Y7235D01*
X141082Y7237D01*
X141096Y7209D01*
D02*
G37*
G36*
X152375Y5039D02*
X152279Y5046D01*
X152179Y5038D01*
X152076Y5017D01*
X151970Y4981D01*
X151860Y4932D01*
X151747Y4868D01*
X151631Y4790D01*
X151511Y4697D01*
X151388Y4591D01*
X151262Y4470D01*
X150207Y4529D01*
X150302Y4627D01*
X150459Y4809D01*
X150520Y4892D01*
X150571Y4971D01*
X150610Y5046D01*
X150638Y5115D01*
X150655Y5180D01*
X150662Y5240D01*
X150656Y5295D01*
X152375Y5039D01*
D02*
G37*
G36*
X8975Y7945D02*
X9047Y7744D01*
X9166Y7567D01*
X9332Y7413D01*
X9545Y7283D01*
X9806Y7177D01*
X10115Y7095D01*
X10471Y7035D01*
X10875Y7000D01*
X11326Y6988D01*
Y4626D01*
X10875Y4614D01*
X10471Y4579D01*
X10115Y4520D01*
X9806Y4437D01*
X9545Y4331D01*
X9332Y4201D01*
X9166Y4047D01*
X9047Y3870D01*
X8975Y3669D01*
X8952Y3445D01*
Y8169D01*
X8975Y7945D01*
D02*
G37*
G36*
X25381Y11658D02*
X25396Y11638D01*
X25397Y11638D01*
X25445Y11567D01*
X25636Y11439D01*
X25637Y11438D01*
X25637Y11438D01*
X25855Y11293D01*
X26339Y11196D01*
X27596D01*
X27792Y10830D01*
X27815Y10696D01*
X27712Y10177D01*
Y7587D01*
X31004D01*
Y6587D01*
X27712D01*
Y3996D01*
X27825Y3429D01*
X27920Y3287D01*
X27652Y2787D01*
X22651D01*
X22415Y3287D01*
X22566Y3512D01*
X22662Y3996D01*
Y10177D01*
X22566Y10661D01*
X22542Y10696D01*
X22810Y11196D01*
X23858D01*
X24342Y11293D01*
X24560Y11438D01*
X24560Y11438D01*
X24561Y11439D01*
X24752Y11567D01*
X24800Y11638D01*
X24801Y11638D01*
X24816Y11658D01*
X25098Y11697D01*
X25381Y11658D01*
D02*
G37*
G36*
X89094Y3862D02*
X89110Y3795D01*
X89145Y3736D01*
X89198Y3685D01*
X89269Y3642D01*
X89358Y3606D01*
X89465Y3579D01*
X89590Y3559D01*
X89733Y3547D01*
X89895Y3543D01*
Y2756D01*
X88941Y2783D01*
X89095Y3937D01*
X89094Y3862D01*
D02*
G37*
%LPC*%
G36*
X70071Y25298D02*
X69945D01*
X70071Y24995D01*
Y25298D01*
D02*
G37*
G36*
X76764Y25976D02*
X73794D01*
X73824Y24416D01*
X73800Y24602D01*
X73735Y24768D01*
X73630Y24915D01*
X73484Y25042D01*
X73297Y25149D01*
X73070Y25237D01*
X72802Y25306D01*
X72494Y25355D01*
X72376Y25365D01*
X72192Y25242D01*
X71909Y25298D01*
X71071D01*
Y23098D01*
X73492D01*
X73770Y23264D01*
X74173Y23184D01*
X76764D01*
Y25976D01*
D02*
G37*
G36*
X89189Y25976D02*
X86228D01*
Y23184D01*
X88819D01*
X89386Y23297D01*
X89866Y23618D01*
X90187Y24099D01*
X90300Y24665D01*
Y25014D01*
X90134Y24978D01*
X89912Y24911D01*
X89714Y24828D01*
X89536Y24731D01*
X89381Y24618D01*
X89248Y24490D01*
X89137Y24348D01*
X89189Y25976D01*
D02*
G37*
G36*
X68637Y25145D02*
X68270Y24899D01*
X67975Y24458D01*
X67871Y23937D01*
Y23098D01*
X70071D01*
Y24357D01*
X69909Y24486D01*
X69602Y24695D01*
X69283Y24876D01*
X68953Y25029D01*
X68637Y25145D01*
D02*
G37*
G36*
X34001Y25189D02*
X29929D01*
Y22397D01*
X32520D01*
X33087Y22510D01*
X33567Y22831D01*
X33888Y23311D01*
X34001Y23878D01*
Y25189D01*
D02*
G37*
G36*
X20268D02*
X16196D01*
Y23878D01*
X16309Y23311D01*
X16630Y22831D01*
X17110Y22510D01*
X17677Y22397D01*
X20268D01*
Y25189D01*
D02*
G37*
G36*
X73270Y22098D02*
X71071D01*
Y19899D01*
X71909D01*
X72430Y20003D01*
X72872Y20298D01*
X73167Y20739D01*
X73270Y21260D01*
Y22098D01*
D02*
G37*
G36*
X13635Y22925D02*
X8571D01*
Y18058D01*
X11732D01*
X12461Y18203D01*
X13078Y18615D01*
X13490Y19232D01*
X13635Y19961D01*
Y22925D01*
D02*
G37*
G36*
X7571D02*
X2507D01*
Y19961D01*
X2652Y19232D01*
X3064Y18615D01*
X3681Y18203D01*
X4409Y18058D01*
X7571D01*
Y22925D01*
D02*
G37*
G36*
X135721Y12343D02*
X135354D01*
X134880Y12248D01*
X134477Y11980D01*
X133865Y11963D01*
X133738Y12048D01*
X133346Y12126D01*
X131614D01*
X131222Y12048D01*
X130890Y11826D01*
X130668Y11494D01*
X130591Y11102D01*
Y8738D01*
X130571Y8735D01*
X130488Y8728D01*
X129842D01*
X129761Y8734D01*
X129746Y8737D01*
Y9547D01*
X129659Y9985D01*
X129411Y10356D01*
X129040Y10604D01*
X128602Y10691D01*
X125925D01*
X125487Y10604D01*
X125116Y10356D01*
X124868Y9985D01*
X124781Y9547D01*
Y6870D01*
X124868Y6432D01*
X125116Y6061D01*
X125487Y5813D01*
X125925Y5726D01*
X128602D01*
X129040Y5813D01*
X129111Y5860D01*
X129115Y5863D01*
X129137Y5869D01*
X129171Y5875D01*
X129760Y5918D01*
X131464D01*
X132002Y6025D01*
X132236Y6181D01*
X133346D01*
X133738Y6259D01*
X133865Y6344D01*
X134477Y6328D01*
X134880Y6059D01*
X135354Y5965D01*
X135721D01*
Y9154D01*
Y12343D01*
D02*
G37*
G36*
X81685Y7669D02*
X78893D01*
Y5079D01*
X79006Y4512D01*
X79327Y4031D01*
X79807Y3710D01*
X80374Y3598D01*
X81685D01*
Y7669D01*
D02*
G37*
%LPD*%
G36*
X131614Y6983D02*
X131709Y6936D01*
X131752Y6893D01*
X131743Y6855D01*
X131681Y6823D01*
X131567Y6795D01*
X131400Y6773D01*
X131182Y6755D01*
X130212Y6732D01*
Y7913D01*
X130453Y7919D01*
X130667Y7937D01*
X130854Y7966D01*
X131014Y8008D01*
X131147Y8061D01*
X131253Y8126D01*
X131332Y8203D01*
X131383Y8291D01*
X131407Y8392D01*
X131405Y8504D01*
X131614Y6983D01*
D02*
G37*
G36*
X128921Y8392D02*
X128948Y8291D01*
X129002Y8203D01*
X129082Y8126D01*
X129189Y8061D01*
X129321Y8008D01*
X129480Y7966D01*
X129664Y7937D01*
X129875Y7919D01*
X130113Y7913D01*
X130079Y6732D01*
X129867Y6731D01*
X129064Y6673D01*
X128954Y6651D01*
X128862Y6626D01*
X128787Y6598D01*
X128728Y6566D01*
X128919Y8504D01*
X128921Y8392D01*
D02*
G37*
%LPC*%
G36*
X149095Y27699D02*
X148138D01*
Y27556D01*
X149003D01*
X149003Y27470D01*
X149790D01*
X149640Y27454D01*
X149507Y27406D01*
X149389Y27327D01*
X149384Y27322D01*
X149993Y27344D01*
X149615Y27596D01*
X149095Y27699D01*
D02*
G37*
G36*
X149078Y26671D02*
X149083Y26663D01*
X149096Y26656D01*
X149095Y26668D01*
X149078Y26671D01*
D02*
G37*
G36*
X147138Y27699D02*
X146181D01*
X145660Y27596D01*
X145219Y27301D01*
X144924Y26859D01*
X144820Y26339D01*
Y25500D01*
X147138D01*
Y27222D01*
X147042Y27327D01*
X146924Y27406D01*
X146790Y27454D01*
X146641Y27470D01*
X147138D01*
Y27699D01*
D02*
G37*
%LPD*%
D10*
X50787Y26280D02*
Y26378D01*
X141120Y4134D02*
X141951D01*
X142661Y3424D02*
X149659D01*
X141951Y4134D02*
X142661Y3424D01*
X88287Y3150D02*
X140136D01*
X141120Y4134D01*
X149659Y3424D02*
X152633Y6398D01*
X87303Y4134D02*
X88287Y3150D01*
X85728Y14665D02*
X85733D01*
X87303Y10433D02*
Y13095D01*
X85733Y14665D02*
X87303Y13095D01*
X155492Y11319D02*
Y12500D01*
X154213D02*
X155492D01*
X154016Y12303D02*
X154213Y12500D01*
X153622D02*
X153819D01*
X152633Y6398D02*
X152717D01*
X141120Y4134D02*
X141535Y4549D01*
Y5179D01*
X140748Y5966D02*
X141535Y5179D01*
X140748Y5966D02*
Y7382D01*
X140256Y7874D02*
X140748Y7382D01*
X153819Y12500D02*
X154016Y12303D01*
X146457Y19587D02*
X147441Y18602D01*
X139567Y17913D02*
X141929Y15551D01*
X152387D01*
X153174Y16339D01*
D11*
X98223Y5406D02*
X116323D01*
X85728Y26083D02*
X96944D01*
X101279Y7584D02*
Y21747D01*
X96944Y26083D02*
X101279Y21747D01*
X99208Y5413D02*
X102264Y8470D01*
X69522Y26378D02*
X85728D01*
X137692Y13091D02*
X141749D01*
X136221Y9154D02*
X136319Y9252D01*
Y11718D01*
X137692Y13091D01*
X69505Y26361D02*
X69522Y26378D01*
X57879Y6004D02*
X66732D01*
X62975Y5374D02*
X66732D01*
X30709Y4528D02*
X62128D01*
X62975Y5374D01*
X69505Y26361D02*
X71358Y24508D01*
X56299Y21747D02*
X60913Y26361D01*
X69505D01*
X56299Y7584D02*
Y21747D01*
X144980Y7776D02*
X146260D01*
X142913Y9843D02*
X144980Y7776D01*
X142913Y9843D02*
Y11926D01*
X141749Y13091D02*
X142913Y11926D01*
X136221Y8662D02*
X136417Y8858D01*
X142913Y12697D02*
X152717D01*
X148215Y25459D02*
X149134Y26378D01*
X147756Y25000D02*
X148215Y25459D01*
X149134Y26378D02*
X152756D01*
X147638Y25000D02*
X147756D01*
X135925Y7358D02*
Y8662D01*
X153150Y12697D02*
X153150Y12697D01*
D14*
X70571Y22598D02*
D03*
Y16378D02*
D03*
X127264Y14429D02*
D03*
Y8209D02*
D03*
D15*
X85728Y26476D02*
D03*
Y15059D02*
D03*
X77264Y15059D02*
D03*
Y26476D02*
D03*
X146161Y19193D02*
D03*
Y7776D02*
D03*
X20768Y25689D02*
D03*
Y14272D02*
D03*
X29429D02*
D03*
Y25689D02*
D03*
D16*
X82185Y8169D02*
D03*
X70768D02*
D03*
X31004Y7087D02*
D03*
X19587D02*
D03*
D17*
X8071Y23425D02*
D03*
Y5709D02*
D03*
D18*
X132480Y19390D02*
D03*
X136221D02*
D03*
X139961D02*
D03*
Y9154D02*
D03*
X136221D02*
D03*
X132480D02*
D03*
D19*
X94882Y14665D02*
D03*
X118701D02*
D03*
X62697D02*
D03*
X38878D02*
D03*
D20*
X147638Y25000D02*
D03*
X134646D02*
D03*
D21*
X152485Y16437D02*
D03*
Y22736D02*
D03*
X152461Y6398D02*
D03*
Y12697D02*
D03*
X87303Y4134D02*
D03*
Y10433D02*
D03*
D22*
X8071Y25886D02*
D03*
D34*
X143750Y28248D02*
D03*
D35*
X7972Y6761D02*
D03*
D36*
X1280Y14643D02*
D03*
D37*
X73228Y1181D02*
D03*
D38*
X153622Y19980D02*
D03*
X153622Y12500D02*
D03*
D39*
X59842Y28051D02*
D03*
D40*
X155492Y11319D02*
D03*
D41*
X82185Y8366D02*
X83366Y7185D01*
X81685Y7669D02*
X82185Y8169D01*
X78893Y7669D02*
X81685D01*
X83366Y7185D02*
X88878D01*
X135663Y5938D02*
Y7358D01*
X107087Y5709D02*
X115922D01*
X32480Y4921D02*
X32579D01*
X31004Y6398D02*
X32480Y4921D01*
X31004Y6398D02*
Y7087D01*
X144390Y19587D02*
X146457D01*
X142717Y21260D02*
X143307Y20669D01*
X142717Y21260D02*
Y22081D01*
X141667Y23130D02*
X142717Y22081D01*
X138353Y23130D02*
X141667D01*
X136909Y21687D02*
X138353Y23130D01*
X136122Y19291D02*
Y20374D01*
X143307Y20669D02*
X144390Y19587D01*
X143307Y20669D02*
Y21436D01*
X152267Y19830D02*
X154062D01*
X148215Y24423D02*
Y25459D01*
Y27556D01*
X151575Y19734D02*
X152267Y20426D01*
X154062Y19830D02*
X154213Y19980D01*
X152267Y22047D02*
X152857Y22638D01*
X148215Y24423D02*
X148469Y24169D01*
X148215Y27556D02*
X148907Y28248D01*
X118504Y14665D02*
X118740Y14429D01*
X147441Y18602D02*
X148573Y19734D01*
X152267Y20426D02*
Y22047D01*
X148573Y19734D02*
X151575D01*
X118740Y14429D02*
X125886D01*
X136122Y20374D02*
X136909Y21161D01*
Y21687D01*
D42*
X51378Y5315D02*
Y27165D01*
X76870Y14961D02*
X77264D01*
X70010Y9124D02*
X70768Y8366D01*
X75394Y14665D02*
X75394Y14665D01*
X76575D01*
X70768Y8366D02*
Y9646D01*
X71850Y10728D01*
X73083D01*
X75787Y13433D01*
Y13878D01*
X76575Y14665D02*
X76870Y14961D01*
X76575Y14665D02*
X85728D01*
X85728Y14665D01*
X85433D02*
X85728D01*
X75787Y13878D02*
X76575Y14665D01*
X85728Y14665D02*
X94882D01*
X66142Y9124D02*
X70010D01*
X62697Y12569D02*
X66142Y9124D01*
X62697Y12569D02*
Y14665D01*
X56102Y7502D02*
X57797Y5807D01*
X64410Y16378D02*
X70571D01*
X62697Y14665D02*
X64410Y16378D01*
X98425Y27559D02*
X107087D01*
X94882Y14665D02*
X94882Y14665D01*
X107087Y5709D02*
Y27559D01*
X70071Y23794D02*
Y25298D01*
Y23794D02*
X70079Y23786D01*
Y23091D02*
Y23786D01*
Y23091D02*
X70571Y22598D01*
X21063Y14075D02*
X37106D01*
Y12500D02*
X39272Y14665D01*
X20226Y6152D02*
Y12254D01*
X12795Y1575D02*
X12795Y1575D01*
X12697Y1673D02*
X12795Y1575D01*
X7972Y6004D02*
X8169Y5807D01*
X19882Y26575D02*
X20768Y25689D01*
X21654Y26575D01*
X28543D02*
X29429Y25689D01*
X30315Y26575D01*
X123425Y21850D02*
X131496D01*
X132087Y22441D01*
X118504Y14665D02*
X122146Y18307D01*
Y20571D01*
X123425Y21850D01*
X132087Y22441D02*
X134646Y25000D01*
X132087Y18996D02*
Y22441D01*
X8169Y5807D02*
X18647D01*
X19685Y6845D01*
Y7087D01*
X20226Y12254D02*
X20768Y12795D01*
D43*
X116709Y4921D02*
X134646D01*
X131464Y7323D02*
X132087Y7946D01*
X127067Y8209D02*
X127953Y7323D01*
X132087Y7946D02*
Y8760D01*
X127953Y7323D02*
X131464D01*
D44*
X118504Y14665D02*
X118701D01*
D45*
X106693Y27165D02*
D03*
X149606D02*
D03*
X7972Y12205D02*
D03*
X50787Y27165D02*
D03*
X2507D02*
D03*
M02*
