G04*
G04 #@! TF.GenerationSoftware,Altium Limited,Altium Designer,20.0.10 (225)*
G04*
G04 Layer_Color=7674933*
%FSLAX25Y25*%
%MOIN*%
G70*
G01*
G75*
%ADD23O,0.04488X0.02520*%
G04:AMPARAMS|DCode=24|XSize=38.98mil|YSize=38.98mil|CornerRadius=6.1mil|HoleSize=0mil|Usage=FLASHONLY|Rotation=90.000|XOffset=0mil|YOffset=0mil|HoleType=Round|Shape=RoundedRectangle|*
%AMROUNDEDRECTD24*
21,1,0.03898,0.02677,0,0,90.0*
21,1,0.02677,0.03898,0,0,90.0*
1,1,0.01221,0.01339,0.01339*
1,1,0.01221,0.01339,-0.01339*
1,1,0.01221,-0.01339,-0.01339*
1,1,0.01221,-0.01339,0.01339*
%
%ADD24ROUNDEDRECTD24*%
G04:AMPARAMS|DCode=25|XSize=76.38mil|YSize=50.79mil|CornerRadius=7.28mil|HoleSize=0mil|Usage=FLASHONLY|Rotation=180.000|XOffset=0mil|YOffset=0mil|HoleType=Round|Shape=RoundedRectangle|*
%AMROUNDEDRECTD25*
21,1,0.07638,0.03622,0,0,180.0*
21,1,0.06181,0.05079,0,0,180.0*
1,1,0.01457,-0.03091,0.01811*
1,1,0.01457,0.03091,0.01811*
1,1,0.01457,0.03091,-0.01811*
1,1,0.01457,-0.03091,-0.01811*
%
%ADD25ROUNDEDRECTD25*%
G04:AMPARAMS|DCode=26|XSize=76.38mil|YSize=50.79mil|CornerRadius=7.28mil|HoleSize=0mil|Usage=FLASHONLY|Rotation=90.000|XOffset=0mil|YOffset=0mil|HoleType=Round|Shape=RoundedRectangle|*
%AMROUNDEDRECTD26*
21,1,0.07638,0.03622,0,0,90.0*
21,1,0.06181,0.05079,0,0,90.0*
1,1,0.01457,0.01811,0.03091*
1,1,0.01457,0.01811,-0.03091*
1,1,0.01457,-0.01811,-0.03091*
1,1,0.01457,-0.01811,0.03091*
%
%ADD26ROUNDEDRECTD26*%
G04:AMPARAMS|DCode=27|XSize=92.13mil|YSize=96.06mil|CornerRadius=11.42mil|HoleSize=0mil|Usage=FLASHONLY|Rotation=90.000|XOffset=0mil|YOffset=0mil|HoleType=Round|Shape=RoundedRectangle|*
%AMROUNDEDRECTD27*
21,1,0.09213,0.07323,0,0,90.0*
21,1,0.06929,0.09606,0,0,90.0*
1,1,0.02284,0.03661,0.03465*
1,1,0.02284,0.03661,-0.03465*
1,1,0.02284,-0.03661,-0.03465*
1,1,0.02284,-0.03661,0.03465*
%
%ADD27ROUNDEDRECTD27*%
G04:AMPARAMS|DCode=28|XSize=27.17mil|YSize=48.82mil|CornerRadius=4.92mil|HoleSize=0mil|Usage=FLASHONLY|Rotation=0.000|XOffset=0mil|YOffset=0mil|HoleType=Round|Shape=RoundedRectangle|*
%AMROUNDEDRECTD28*
21,1,0.02717,0.03898,0,0,0.0*
21,1,0.01732,0.04882,0,0,0.0*
1,1,0.00984,0.00866,-0.01949*
1,1,0.00984,-0.00866,-0.01949*
1,1,0.00984,-0.00866,0.01949*
1,1,0.00984,0.00866,0.01949*
%
%ADD28ROUNDEDRECTD28*%
G04:AMPARAMS|DCode=29|XSize=98.03mil|YSize=143.31mil|CornerRadius=12.01mil|HoleSize=0mil|Usage=FLASHONLY|Rotation=180.000|XOffset=0mil|YOffset=0mil|HoleType=Round|Shape=RoundedRectangle|*
%AMROUNDEDRECTD29*
21,1,0.09803,0.11929,0,0,180.0*
21,1,0.07402,0.14331,0,0,180.0*
1,1,0.02402,-0.03701,0.05965*
1,1,0.02402,0.03701,0.05965*
1,1,0.02402,0.03701,-0.05965*
1,1,0.02402,-0.03701,-0.05965*
%
%ADD29ROUNDEDRECTD29*%
G04:AMPARAMS|DCode=30|XSize=41.34mil|YSize=38.98mil|CornerRadius=6.1mil|HoleSize=0mil|Usage=FLASHONLY|Rotation=180.000|XOffset=0mil|YOffset=0mil|HoleType=Round|Shape=RoundedRectangle|*
%AMROUNDEDRECTD30*
21,1,0.04134,0.02677,0,0,180.0*
21,1,0.02913,0.03898,0,0,180.0*
1,1,0.01221,-0.01457,0.01339*
1,1,0.01221,0.01457,0.01339*
1,1,0.01221,0.01457,-0.01339*
1,1,0.01221,-0.01457,-0.01339*
%
%ADD30ROUNDEDRECTD30*%
G04:AMPARAMS|DCode=31|XSize=33.07mil|YSize=41.73mil|CornerRadius=5.51mil|HoleSize=0mil|Usage=FLASHONLY|Rotation=90.000|XOffset=0mil|YOffset=0mil|HoleType=Round|Shape=RoundedRectangle|*
%AMROUNDEDRECTD31*
21,1,0.03307,0.03071,0,0,90.0*
21,1,0.02205,0.04173,0,0,90.0*
1,1,0.01102,0.01535,0.01102*
1,1,0.01102,0.01535,-0.01102*
1,1,0.01102,-0.01535,-0.01102*
1,1,0.01102,-0.01535,0.01102*
%
%ADD31ROUNDEDRECTD31*%
%ADD32O,0.02520X0.04488*%
%ADD33C,0.02913*%
D23*
X153622Y19980D02*
D03*
X153622Y12500D02*
D03*
D24*
X70571Y22598D02*
D03*
Y16378D02*
D03*
X127264Y14429D02*
D03*
Y8209D02*
D03*
D25*
X85728Y26476D02*
D03*
Y15059D02*
D03*
X77264Y15059D02*
D03*
Y26476D02*
D03*
X146161Y19193D02*
D03*
Y7776D02*
D03*
X20768Y25689D02*
D03*
Y14272D02*
D03*
X29429D02*
D03*
Y25689D02*
D03*
D26*
X82185Y8169D02*
D03*
X70768D02*
D03*
X31004Y7087D02*
D03*
X19587D02*
D03*
D27*
X8071Y23425D02*
D03*
Y5709D02*
D03*
D28*
X132480Y19390D02*
D03*
X136221D02*
D03*
X139961D02*
D03*
Y9154D02*
D03*
X136221D02*
D03*
X132480D02*
D03*
D29*
X94882Y14665D02*
D03*
X118701D02*
D03*
X62697D02*
D03*
X38878D02*
D03*
D30*
X147638Y25000D02*
D03*
X134646D02*
D03*
D31*
X152485Y16437D02*
D03*
Y22736D02*
D03*
X152461Y6398D02*
D03*
Y12697D02*
D03*
X87303Y4134D02*
D03*
Y10433D02*
D03*
D32*
X8071Y25886D02*
D03*
D33*
X106693Y27165D02*
D03*
X149606D02*
D03*
X7972Y12205D02*
D03*
X50787Y27165D02*
D03*
X2507D02*
D03*
M02*
