G04 #@! TF.GenerationSoftware,KiCad,Pcbnew,7.0.5*
G04 #@! TF.CreationDate,2024-02-01T10:21:26+03:00*
G04 #@! TF.ProjectId,hellen1-uaefi,68656c6c-656e-4312-9d75-616566692e6b,rev?*
G04 #@! TF.SameCoordinates,PX55d4a80PY8f0d180*
G04 #@! TF.FileFunction,Soldermask,Top*
G04 #@! TF.FilePolarity,Negative*
%FSLAX46Y46*%
G04 Gerber Fmt 4.6, Leading zero omitted, Abs format (unit mm)*
G04 Created by KiCad (PCBNEW 7.0.5) date 2024-02-01 10:21:26*
%MOMM*%
%LPD*%
G01*
G04 APERTURE LIST*
%ADD10C,1.850000*%
%ADD11C,1.700000*%
%ADD12O,1.850000X1.700000*%
%ADD13C,1.800000*%
G04 APERTURE END LIST*
D10*
G04 #@! TO.C,P4*
X9300126Y38400000D03*
G04 #@! TD*
G04 #@! TO.C,P20*
X14800126Y53600000D03*
G04 #@! TD*
G04 #@! TO.C,P54*
X89725126Y90725000D03*
G04 #@! TD*
G04 #@! TO.C,P19*
X14800126Y49400000D03*
G04 #@! TD*
G04 #@! TO.C,P29*
X19025126Y90725000D03*
G04 #@! TD*
D11*
G04 #@! TO.C,P71*
X62525126Y2500000D03*
G04 #@! TD*
D10*
G04 #@! TO.C,P14*
X9300126Y66200000D03*
G04 #@! TD*
G04 #@! TO.C,P47*
X60325126Y90725000D03*
G04 #@! TD*
G04 #@! TO.C,P62*
X89725126Y85225000D03*
G04 #@! TD*
G04 #@! TO.C,P13*
X9300126Y62000000D03*
G04 #@! TD*
G04 #@! TO.C,P12*
X9300126Y57800000D03*
G04 #@! TD*
G04 #@! TO.C,P36*
X48425126Y90725000D03*
G04 #@! TD*
G04 #@! TO.C,P67*
X85250126Y75000000D03*
G04 #@! TD*
G04 #@! TO.C,P52*
X81325126Y90725000D03*
G04 #@! TD*
G04 #@! TO.C,P35*
X44225126Y90725000D03*
G04 #@! TD*
G04 #@! TO.C,P32*
X31625126Y90725000D03*
G04 #@! TD*
G04 #@! TO.C,P17*
X9300126Y78800000D03*
G04 #@! TD*
G04 #@! TO.C,P65*
X90750126Y70800000D03*
G04 #@! TD*
G04 #@! TO.C,P60*
X81325126Y85225000D03*
G04 #@! TD*
G04 #@! TO.C,P30*
X23225126Y90725000D03*
G04 #@! TD*
G04 #@! TO.C,P11*
X9300126Y53600000D03*
G04 #@! TD*
G04 #@! TO.C,P33*
X35825126Y90725000D03*
G04 #@! TD*
G04 #@! TO.C,P43*
X35825126Y85225000D03*
G04 #@! TD*
G04 #@! TO.C,P61*
X85525126Y85245000D03*
G04 #@! TD*
G04 #@! TO.C,P8*
X14800126Y38400000D03*
G04 #@! TD*
G04 #@! TO.C,P25*
X14800126Y74600000D03*
G04 #@! TD*
G04 #@! TO.C,P48*
X64525126Y90725000D03*
G04 #@! TD*
G04 #@! TO.C,P49*
X68725126Y90725000D03*
G04 #@! TD*
G04 #@! TO.C,J1*
G36*
G01*
X83700126Y2150000D02*
X82350126Y2150000D01*
G75*
G02*
X82100126Y2400000I0J250000D01*
G01*
X82100126Y3600000D01*
G75*
G02*
X82350126Y3850000I250000J0D01*
G01*
X83700126Y3850000D01*
G75*
G02*
X83950126Y3600000I0J-250000D01*
G01*
X83950126Y2400000D01*
G75*
G02*
X83700126Y2150000I-250000J0D01*
G01*
G37*
D12*
X83025126Y5500000D03*
X83025126Y8000000D03*
X83025126Y10500000D03*
X83025126Y13000000D03*
G04 #@! TD*
D10*
G04 #@! TO.C,P56*
X64525126Y85225000D03*
G04 #@! TD*
G04 #@! TO.C,P59*
X77125126Y85225000D03*
G04 #@! TD*
G04 #@! TO.C,P50*
X72925126Y90725000D03*
G04 #@! TD*
G04 #@! TO.C,P6*
X14800126Y30000000D03*
G04 #@! TD*
G04 #@! TO.C,P44*
X40025126Y85225000D03*
G04 #@! TD*
G04 #@! TO.C,P23*
X14800126Y66200000D03*
G04 #@! TD*
G04 #@! TO.C,P55*
X60325126Y85225000D03*
G04 #@! TD*
G04 #@! TO.C,P2*
X9300126Y30000000D03*
G04 #@! TD*
G04 #@! TO.C,P27*
X10625126Y90725000D03*
G04 #@! TD*
G04 #@! TO.C,P66*
X85250126Y79200000D03*
G04 #@! TD*
G04 #@! TO.C,P58*
X72925126Y85225000D03*
G04 #@! TD*
G04 #@! TO.C,P15*
X9300126Y70400000D03*
G04 #@! TD*
G04 #@! TO.C,P39*
X19025126Y85225000D03*
G04 #@! TD*
G04 #@! TO.C,P42*
X31625126Y85225000D03*
G04 #@! TD*
G04 #@! TO.C,P3*
X9300126Y34200000D03*
G04 #@! TD*
G04 #@! TO.C,P26*
X14800126Y78800000D03*
G04 #@! TD*
G04 #@! TO.C,P9*
X9300126Y45200000D03*
G04 #@! TD*
G04 #@! TO.C,P53*
X85525126Y90725000D03*
G04 #@! TD*
G04 #@! TO.C,P64*
X90750126Y75000000D03*
G04 #@! TD*
G04 #@! TO.C,BRD1*
X9300126Y25800000D03*
X9300126Y30000000D03*
X9300126Y34200000D03*
X9300126Y38400000D03*
X14800126Y25800000D03*
X14800126Y30000000D03*
X14800126Y34200000D03*
X14800126Y38400000D03*
X9300126Y45200000D03*
X9300126Y49400000D03*
X9300126Y53600000D03*
X9300126Y57800000D03*
X9300126Y62000000D03*
X9300126Y66200000D03*
X9300126Y70400000D03*
X9300126Y74600000D03*
X9300126Y78800000D03*
X14800126Y45200000D03*
X14800126Y49400000D03*
X14800126Y53600000D03*
X14800126Y57800000D03*
X14800126Y62000000D03*
X14800126Y66200000D03*
X14800126Y70400000D03*
X14800126Y74600000D03*
X14800126Y78800000D03*
X10625126Y90725000D03*
X14825126Y90725000D03*
X19025126Y90725000D03*
X23225126Y90725000D03*
X27425126Y90725000D03*
X31625126Y90725000D03*
X35825126Y90725000D03*
X40025126Y90725000D03*
X44225126Y90725000D03*
X48425126Y90725000D03*
X10625126Y85225000D03*
X14825126Y85225000D03*
X19025126Y85225000D03*
X23225126Y85225000D03*
X27425126Y85225000D03*
X31625126Y85225000D03*
X35825126Y85225000D03*
D13*
X40025126Y85225000D03*
D10*
X44225126Y85225000D03*
X48425126Y85225000D03*
X60325126Y90725000D03*
X64525126Y90725000D03*
X68725126Y90725000D03*
X72925126Y90725000D03*
X77125126Y90725000D03*
D11*
X77912563Y89187437D03*
X80452563Y89187437D03*
D10*
X81325126Y90725000D03*
X85525126Y90725000D03*
D11*
X86372563Y89187437D03*
X88912563Y89187437D03*
D10*
X89725126Y90725000D03*
X60325126Y85225000D03*
X64525126Y85225000D03*
X68725126Y85225000D03*
X72925126Y85225000D03*
X77125126Y85225000D03*
D11*
X77912563Y86647437D03*
X80452563Y86647437D03*
D10*
X81325126Y85225000D03*
X85525126Y85225000D03*
D11*
X86372563Y86647437D03*
X88912563Y86647437D03*
D10*
X89725126Y85225000D03*
X90750126Y79200000D03*
X90750126Y75000000D03*
X90750126Y70800000D03*
X85250126Y79200000D03*
X85250126Y75000000D03*
X85250126Y70800000D03*
G36*
G01*
X83700126Y2150000D02*
X82350126Y2150000D01*
G75*
G02*
X82100126Y2400000I0J250000D01*
G01*
X82100126Y3600000D01*
G75*
G02*
X82350126Y3850000I250000J0D01*
G01*
X83700126Y3850000D01*
G75*
G02*
X83950126Y3600000I0J-250000D01*
G01*
X83950126Y2400000D01*
G75*
G02*
X83700126Y2150000I-250000J0D01*
G01*
G37*
D12*
X83025126Y5500000D03*
X83025126Y8000000D03*
X83025126Y10500000D03*
X83025126Y13000000D03*
D11*
X62525126Y2500000D03*
X62525126Y7500000D03*
X83225126Y24000000D03*
X83225126Y19300000D03*
G04 #@! TD*
D10*
G04 #@! TO.C,P41*
X27425126Y85225000D03*
G04 #@! TD*
G04 #@! TO.C,P63*
X90750126Y79200000D03*
G04 #@! TD*
D11*
G04 #@! TO.C,P72*
X62525126Y7500000D03*
G04 #@! TD*
D10*
G04 #@! TO.C,P7*
X14800126Y34200000D03*
G04 #@! TD*
G04 #@! TO.C,P34*
X40025126Y90725000D03*
G04 #@! TD*
G04 #@! TO.C,P45*
X44225126Y85225000D03*
G04 #@! TD*
D11*
G04 #@! TO.C,P69*
X83225126Y24000000D03*
G04 #@! TD*
D10*
G04 #@! TO.C,P22*
X14800126Y62000000D03*
G04 #@! TD*
G04 #@! TO.C,P28*
X14825126Y90725000D03*
G04 #@! TD*
G04 #@! TO.C,P16*
X9300126Y74600000D03*
G04 #@! TD*
G04 #@! TO.C,P1*
X9300126Y25800000D03*
G04 #@! TD*
G04 #@! TO.C,P37*
X10625126Y85225000D03*
G04 #@! TD*
G04 #@! TO.C,P46*
X48425126Y85225000D03*
G04 #@! TD*
G04 #@! TO.C,P51*
X77125126Y90725000D03*
G04 #@! TD*
G04 #@! TO.C,P40*
X23225126Y85225000D03*
G04 #@! TD*
G04 #@! TO.C,P31*
X27425126Y90725000D03*
G04 #@! TD*
G04 #@! TO.C,P38*
X14825126Y85225000D03*
G04 #@! TD*
D11*
G04 #@! TO.C,P70*
X83225126Y19300000D03*
G04 #@! TD*
D10*
G04 #@! TO.C,P21*
X14800126Y57800000D03*
G04 #@! TD*
G04 #@! TO.C,P5*
X14800126Y25800000D03*
G04 #@! TD*
G04 #@! TO.C,P68*
X85250126Y70800000D03*
G04 #@! TD*
G04 #@! TO.C,P24*
X14800126Y70400000D03*
G04 #@! TD*
G04 #@! TO.C,P10*
X9300126Y49400000D03*
G04 #@! TD*
G04 #@! TO.C,P57*
X68725126Y85225000D03*
G04 #@! TD*
G04 #@! TO.C,P18*
X14800126Y45200000D03*
G04 #@! TD*
M02*
