G04 #@! TF.GenerationSoftware,KiCad,Pcbnew,7.0.5*
G04 #@! TF.CreationDate,2024-02-01T10:21:26+03:00*
G04 #@! TF.ProjectId,hellen1-uaefi,68656c6c-656e-4312-9d75-616566692e6b,rev?*
G04 #@! TF.SameCoordinates,PX55d4a80PY8f0d180*
G04 #@! TF.FileFunction,Copper,L1,Top*
G04 #@! TF.FilePolarity,Positive*
%FSLAX46Y46*%
G04 Gerber Fmt 4.6, Leading zero omitted, Abs format (unit mm)*
G04 Created by KiCad (PCBNEW 7.0.5) date 2024-02-01 10:21:26*
%MOMM*%
%LPD*%
G01*
G04 APERTURE LIST*
G04 #@! TA.AperFunction,ComponentPad*
%ADD10C,1.850000*%
G04 #@! TD*
G04 #@! TA.AperFunction,ComponentPad*
%ADD11C,1.700000*%
G04 #@! TD*
G04 #@! TA.AperFunction,ComponentPad*
%ADD12O,1.850000X1.700000*%
G04 #@! TD*
G04 #@! TA.AperFunction,ComponentPad*
%ADD13C,1.800000*%
G04 #@! TD*
G04 #@! TA.AperFunction,Conductor*
%ADD14C,0.500000*%
G04 #@! TD*
G04 #@! TA.AperFunction,Conductor*
%ADD15C,0.200000*%
G04 #@! TD*
G04 APERTURE END LIST*
D10*
G04 #@! TO.P,P4,1*
G04 #@! TO.N,Net-(BRD1-GND-PadA4)*
X9300126Y38400000D03*
G04 #@! TD*
G04 #@! TO.P,P20,1*
G04 #@! TO.N,Net-(BRD1-OUT_IGN3)*
X14800126Y53600000D03*
G04 #@! TD*
G04 #@! TO.P,P54,1*
G04 #@! TO.N,Net-(BRD1-CAN-)*
X89725126Y90725000D03*
G04 #@! TD*
G04 #@! TO.P,P19,1*
G04 #@! TO.N,Net-(BRD1-OUT_IGN4)*
X14800126Y49400000D03*
G04 #@! TD*
G04 #@! TO.P,P29,1*
G04 #@! TO.N,Net-(BRD1-IN_AUX2)*
X19025126Y90725000D03*
G04 #@! TD*
D11*
G04 #@! TO.P,P71,1,Pin_1*
G04 #@! TO.N,Net-(BRD1-LED_YELLOW)*
X62525126Y2500000D03*
G04 #@! TD*
D10*
G04 #@! TO.P,P14,1*
G04 #@! TO.N,Net-(BRD1-OUT_INJ1)*
X9300126Y66200000D03*
G04 #@! TD*
G04 #@! TO.P,P47,1*
G04 #@! TO.N,Net-(BRD1-IN_AUX1)*
X60325126Y90725000D03*
G04 #@! TD*
G04 #@! TO.P,P62,1*
G04 #@! TO.N,Net-(BRD1-IN_CLT)*
X89725126Y85225000D03*
G04 #@! TD*
G04 #@! TO.P,P13,1*
G04 #@! TO.N,Net-(BRD1-OUT_INJ2)*
X9300126Y62000000D03*
G04 #@! TD*
G04 #@! TO.P,P12,1*
G04 #@! TO.N,Net-(BRD1-OUT_INJ3)*
X9300126Y57800000D03*
G04 #@! TD*
G04 #@! TO.P,P36,1*
G04 #@! TO.N,Net-(BRD1-EGT+)*
X48425126Y90725000D03*
G04 #@! TD*
G04 #@! TO.P,P67,1*
G04 #@! TO.N,Net-(BRD1-WBO_Ip)*
X85250126Y75000000D03*
G04 #@! TD*
G04 #@! TO.P,P52,1*
G04 #@! TO.N,Net-(BRD1-IN_PPS1)*
X81325126Y90725000D03*
G04 #@! TD*
G04 #@! TO.P,P35,1*
G04 #@! TO.N,Net-(BRD1-IN_BUTTON3)*
X44225126Y90725000D03*
G04 #@! TD*
G04 #@! TO.P,P32,1*
G04 #@! TO.N,Net-(BRD1-IN_HALL2)*
X31625126Y90725000D03*
G04 #@! TD*
G04 #@! TO.P,P17,1*
G04 #@! TO.N,Net-(BRD1-OUT_LS_WEAK1)*
X9300126Y78800000D03*
G04 #@! TD*
G04 #@! TO.P,P65,1*
G04 #@! TO.N,Net-(BRD1-WBO_Heater)*
X90750126Y70800000D03*
G04 #@! TD*
G04 #@! TO.P,P60,1*
G04 #@! TO.N,Net-(BRD1-IN_KNOCK_RAW)*
X81325126Y85225000D03*
G04 #@! TD*
G04 #@! TO.P,P30,1*
G04 #@! TO.N,Net-(BRD1-IN_PPS2)*
X23225126Y90725000D03*
G04 #@! TD*
G04 #@! TO.P,P11,1*
G04 #@! TO.N,Net-(BRD1-OUT_INJ4)*
X9300126Y53600000D03*
G04 #@! TD*
G04 #@! TO.P,P33,1*
G04 #@! TO.N,Net-(BRD1-IN_HALL3)*
X35825126Y90725000D03*
G04 #@! TD*
G04 #@! TO.P,P43,1*
G04 #@! TO.N,Net-(BRD1-VR2-)*
X35825126Y85225000D03*
G04 #@! TD*
G04 #@! TO.P,P61,1*
G04 #@! TO.N,Net-(BRD1-IN_IAT)*
X85525126Y85245000D03*
G04 #@! TD*
G04 #@! TO.P,P8,1*
G04 #@! TO.N,Net-(BRD1-IN_V_MAIN)*
X14800126Y38400000D03*
G04 #@! TD*
G04 #@! TO.P,P25,1*
G04 #@! TO.N,Net-(BRD1-OUT_LS3)*
X14800126Y74600000D03*
G04 #@! TD*
G04 #@! TO.P,P48,1*
G04 #@! TO.N,Net-(BRD1-IN_BUTTON1)*
X64525126Y90725000D03*
G04 #@! TD*
G04 #@! TO.P,P49,1*
G04 #@! TO.N,Net-(BRD1-+5VP-PadD3)*
X68725126Y90725000D03*
G04 #@! TD*
G04 #@! TO.P,J1,1,Pin_1*
G04 #@! TO.N,Net-(BRD1-VBUS)*
G04 #@! TA.AperFunction,ComponentPad*
G36*
G01*
X83700126Y2150000D02*
X82350126Y2150000D01*
G75*
G02*
X82100126Y2400000I0J250000D01*
G01*
X82100126Y3600000D01*
G75*
G02*
X82350126Y3850000I250000J0D01*
G01*
X83700126Y3850000D01*
G75*
G02*
X83950126Y3600000I0J-250000D01*
G01*
X83950126Y2400000D01*
G75*
G02*
X83700126Y2150000I-250000J0D01*
G01*
G37*
G04 #@! TD.AperFunction*
D12*
G04 #@! TO.P,J1,2,Pin_2*
G04 #@! TO.N,Net-(BRD1-USB-)*
X83025126Y5500000D03*
G04 #@! TO.P,J1,3,Pin_3*
G04 #@! TO.N,Net-(BRD1-USB+)*
X83025126Y8000000D03*
G04 #@! TO.P,J1,4,Pin_4*
G04 #@! TO.N,Net-(J1-Pin_4)*
X83025126Y10500000D03*
G04 #@! TO.P,J1,5,Pin_5*
G04 #@! TO.N,Net-(J1-Pin_5)*
X83025126Y13000000D03*
G04 #@! TD*
D10*
G04 #@! TO.P,P56,1*
G04 #@! TO.N,Net-(BRD1-IN_BUTTON2)*
X64525126Y85225000D03*
G04 #@! TD*
G04 #@! TO.P,P59,1*
G04 #@! TO.N,Net-(BRD1-IN_TPS1)*
X77125126Y85225000D03*
G04 #@! TD*
G04 #@! TO.P,P50,1*
G04 #@! TO.N,Net-(BRD1-+5VP-PadD4)*
X72925126Y90725000D03*
G04 #@! TD*
G04 #@! TO.P,P6,1*
G04 #@! TO.N,Net-(BRD1-OUT_DC2+)*
X14800126Y30000000D03*
G04 #@! TD*
G04 #@! TO.P,P44,1*
G04 #@! TO.N,Net-(BRD1-VR1+)*
X40025126Y85225000D03*
G04 #@! TD*
G04 #@! TO.P,P23,1*
G04 #@! TO.N,Net-(BRD1-OUT_IGN1)*
X14800126Y66200000D03*
G04 #@! TD*
G04 #@! TO.P,P55,1*
G04 #@! TO.N,Net-(BRD1-IN_MAP)*
X60325126Y85225000D03*
G04 #@! TD*
G04 #@! TO.P,P2,1*
G04 #@! TO.N,Net-(BRD1-OUT_DC2)*
X9300126Y30000000D03*
G04 #@! TD*
G04 #@! TO.P,P27,1*
G04 #@! TO.N,Net-(BRD1-+5VP-PadC1)*
X10625126Y90725000D03*
G04 #@! TD*
G04 #@! TO.P,P66,1*
G04 #@! TO.N,Net-(BRD1-WBO_Un)*
X85250126Y79200000D03*
G04 #@! TD*
G04 #@! TO.P,P58,1*
G04 #@! TO.N,Net-(BRD1-GNDA-PadD12)*
X72925126Y85225000D03*
G04 #@! TD*
G04 #@! TO.P,P15,1*
G04 #@! TO.N,Net-(BRD1-OUT_LS1)*
X9300126Y70400000D03*
G04 #@! TD*
G04 #@! TO.P,P39,1*
G04 #@! TO.N,Net-(BRD1-GNDA-PadC13)*
X19025126Y85225000D03*
G04 #@! TD*
G04 #@! TO.P,P42,1*
G04 #@! TO.N,Net-(BRD1-VR2+)*
X31625126Y85225000D03*
G04 #@! TD*
G04 #@! TO.P,P3,1*
G04 #@! TO.N,Net-(BRD1-GND-PadA3)*
X9300126Y34200000D03*
G04 #@! TD*
G04 #@! TO.P,P26,1*
G04 #@! TO.N,Net-(BRD1-OUT_LS2)*
X14800126Y78800000D03*
G04 #@! TD*
G04 #@! TO.P,P9,1*
G04 #@! TO.N,Net-(BRD1-OUT_INJ6)*
X9300126Y45200000D03*
G04 #@! TD*
G04 #@! TO.P,P53,1*
G04 #@! TO.N,Net-(BRD1-CAN+)*
X85525126Y90725000D03*
G04 #@! TD*
G04 #@! TO.P,P64,1*
G04 #@! TO.N,Net-(BRD1-WBO_Rtrim)*
X90750126Y75000000D03*
G04 #@! TD*
G04 #@! TO.P,BRD1,A1,OUT_DC1*
G04 #@! TO.N,Net-(BRD1-OUT_DC1)*
X9300126Y25800000D03*
G04 #@! TO.P,BRD1,A2,OUT_DC2*
G04 #@! TO.N,Net-(BRD1-OUT_DC2)*
X9300126Y30000000D03*
G04 #@! TO.P,BRD1,A3,GND*
G04 #@! TO.N,Net-(BRD1-GND-PadA3)*
X9300126Y34200000D03*
G04 #@! TO.P,BRD1,A4,GND*
G04 #@! TO.N,Net-(BRD1-GND-PadA4)*
X9300126Y38400000D03*
G04 #@! TO.P,BRD1,A5,OUT_DC1+*
G04 #@! TO.N,Net-(BRD1-OUT_DC1+)*
X14800126Y25800000D03*
G04 #@! TO.P,BRD1,A6,OUT_DC2+*
G04 #@! TO.N,Net-(BRD1-OUT_DC2+)*
X14800126Y30000000D03*
G04 #@! TO.P,BRD1,A7,IN_VIGN*
G04 #@! TO.N,Net-(BRD1-IN_VIGN)*
X14800126Y34200000D03*
G04 #@! TO.P,BRD1,A8,IN_V_MAIN*
G04 #@! TO.N,Net-(BRD1-IN_V_MAIN)*
X14800126Y38400000D03*
G04 #@! TO.P,BRD1,B1,OUT_INJ6*
G04 #@! TO.N,Net-(BRD1-OUT_INJ6)*
X9300126Y45200000D03*
G04 #@! TO.P,BRD1,B2,OUT_INJ5*
G04 #@! TO.N,Net-(BRD1-OUT_INJ5)*
X9300126Y49400000D03*
G04 #@! TO.P,BRD1,B3,OUT_INJ4*
G04 #@! TO.N,Net-(BRD1-OUT_INJ4)*
X9300126Y53600000D03*
G04 #@! TO.P,BRD1,B4,OUT_INJ3*
G04 #@! TO.N,Net-(BRD1-OUT_INJ3)*
X9300126Y57800000D03*
G04 #@! TO.P,BRD1,B5,OUT_INJ2*
G04 #@! TO.N,Net-(BRD1-OUT_INJ2)*
X9300126Y62000000D03*
G04 #@! TO.P,BRD1,B6,OUT_INJ1*
G04 #@! TO.N,Net-(BRD1-OUT_INJ1)*
X9300126Y66200000D03*
G04 #@! TO.P,BRD1,B7,OUT_LS1*
G04 #@! TO.N,Net-(BRD1-OUT_LS1)*
X9300126Y70400000D03*
G04 #@! TO.P,BRD1,B8,OUT_LS_WEAK2*
G04 #@! TO.N,Net-(BRD1-OUT_LS_WEAK2)*
X9300126Y74600000D03*
G04 #@! TO.P,BRD1,B9,OUT_LS_WEAK1*
G04 #@! TO.N,Net-(BRD1-OUT_LS_WEAK1)*
X9300126Y78800000D03*
G04 #@! TO.P,BRD1,B10,OUT_IGN6*
G04 #@! TO.N,Net-(BRD1-OUT_IGN6)*
X14800126Y45200000D03*
G04 #@! TO.P,BRD1,B11,OUT_IGN4*
G04 #@! TO.N,Net-(BRD1-OUT_IGN4)*
X14800126Y49400000D03*
G04 #@! TO.P,BRD1,B12,OUT_IGN3*
G04 #@! TO.N,Net-(BRD1-OUT_IGN3)*
X14800126Y53600000D03*
G04 #@! TO.P,BRD1,B13,OUT_IGN5*
G04 #@! TO.N,Net-(BRD1-OUT_IGN5)*
X14800126Y57800000D03*
G04 #@! TO.P,BRD1,B14,OUT_IGN2*
G04 #@! TO.N,Net-(BRD1-OUT_IGN2)*
X14800126Y62000000D03*
G04 #@! TO.P,BRD1,B15,OUT_IGN1*
G04 #@! TO.N,Net-(BRD1-OUT_IGN1)*
X14800126Y66200000D03*
G04 #@! TO.P,BRD1,B16,OUT_LS4*
G04 #@! TO.N,Net-(BRD1-OUT_LS4)*
X14800126Y70400000D03*
G04 #@! TO.P,BRD1,B17,OUT_LS3*
G04 #@! TO.N,Net-(BRD1-OUT_LS3)*
X14800126Y74600000D03*
G04 #@! TO.P,BRD1,B18,OUT_LS2*
G04 #@! TO.N,Net-(BRD1-OUT_LS2)*
X14800126Y78800000D03*
G04 #@! TO.P,BRD1,C1,+5VP*
G04 #@! TO.N,Net-(BRD1-+5VP-PadC1)*
X10625126Y90725000D03*
G04 #@! TO.P,BRD1,C2,+5VP*
G04 #@! TO.N,Net-(BRD1-+5VP-PadC2)*
X14825126Y90725000D03*
G04 #@! TO.P,BRD1,C3,IN_AUX2*
G04 #@! TO.N,Net-(BRD1-IN_AUX2)*
X19025126Y90725000D03*
G04 #@! TO.P,BRD1,C4,IN_PPS2*
G04 #@! TO.N,Net-(BRD1-IN_PPS2)*
X23225126Y90725000D03*
G04 #@! TO.P,BRD1,C5,IN_HALL1*
G04 #@! TO.N,Net-(BRD1-IN_HALL1)*
X27425126Y90725000D03*
G04 #@! TO.P,BRD1,C6,IN_HALL2*
G04 #@! TO.N,Net-(BRD1-IN_HALL2)*
X31625126Y90725000D03*
G04 #@! TO.P,BRD1,C7,IN_HALL3*
G04 #@! TO.N,Net-(BRD1-IN_HALL3)*
X35825126Y90725000D03*
G04 #@! TO.P,BRD1,C8,GND*
G04 #@! TO.N,Net-(BRD1-GND-PadC8)*
X40025126Y90725000D03*
G04 #@! TO.P,BRD1,C9,IN_BUTTON3*
G04 #@! TO.N,Net-(BRD1-IN_BUTTON3)*
X44225126Y90725000D03*
G04 #@! TO.P,BRD1,C10,EGT+*
G04 #@! TO.N,Net-(BRD1-EGT+)*
X48425126Y90725000D03*
G04 #@! TO.P,BRD1,C11,GNDA*
G04 #@! TO.N,Net-(BRD1-GNDA-PadC11)*
X10625126Y85225000D03*
G04 #@! TO.P,BRD1,C12,GNDA*
G04 #@! TO.N,Net-(BRD1-GNDA-PadC12)*
X14825126Y85225000D03*
G04 #@! TO.P,BRD1,C13,GNDA*
G04 #@! TO.N,Net-(BRD1-GNDA-PadC13)*
X19025126Y85225000D03*
G04 #@! TO.P,BRD1,C14,IN_TPS2*
G04 #@! TO.N,Net-(BRD1-IN_TPS2)*
X23225126Y85225000D03*
G04 #@! TO.P,BRD1,C15,IN_AUX3*
G04 #@! TO.N,Net-(BRD1-IN_AUX3)*
X27425126Y85225000D03*
G04 #@! TO.P,BRD1,C16,VR2+*
G04 #@! TO.N,Net-(BRD1-VR2+)*
X31625126Y85225000D03*
G04 #@! TO.P,BRD1,C17,VR2-*
G04 #@! TO.N,Net-(BRD1-VR2-)*
X35825126Y85225000D03*
D13*
G04 #@! TO.P,BRD1,C18,VR1+*
G04 #@! TO.N,Net-(BRD1-VR1+)*
X40025126Y85225000D03*
D10*
G04 #@! TO.P,BRD1,C19,VR1-*
G04 #@! TO.N,Net-(BRD1-VR1-)*
X44225126Y85225000D03*
G04 #@! TO.P,BRD1,C20,EGT-*
G04 #@! TO.N,Net-(BRD1-EGT-)*
X48425126Y85225000D03*
G04 #@! TO.P,BRD1,D1,IN_AUX1*
G04 #@! TO.N,Net-(BRD1-IN_AUX1)*
X60325126Y90725000D03*
G04 #@! TO.P,BRD1,D2,IN_BUTTON1*
G04 #@! TO.N,Net-(BRD1-IN_BUTTON1)*
X64525126Y90725000D03*
G04 #@! TO.P,BRD1,D3,+5VP*
G04 #@! TO.N,Net-(BRD1-+5VP-PadD3)*
X68725126Y90725000D03*
G04 #@! TO.P,BRD1,D4,+5VP*
G04 #@! TO.N,Net-(BRD1-+5VP-PadD4)*
X72925126Y90725000D03*
G04 #@! TO.P,BRD1,D5,IN_FLEX*
G04 #@! TO.N,Net-(BRD1-IN_FLEX)*
X77125126Y90725000D03*
D11*
X77912563Y89187437D03*
G04 #@! TO.P,BRD1,D6,IN_PPS1*
G04 #@! TO.N,Net-(BRD1-IN_PPS1)*
X80452563Y89187437D03*
D10*
X81325126Y90725000D03*
G04 #@! TO.P,BRD1,D7,CAN+*
G04 #@! TO.N,Net-(BRD1-CAN+)*
X85525126Y90725000D03*
D11*
X86372563Y89187437D03*
G04 #@! TO.P,BRD1,D8,CAN-*
G04 #@! TO.N,Net-(BRD1-CAN-)*
X88912563Y89187437D03*
D10*
X89725126Y90725000D03*
G04 #@! TO.P,BRD1,D9,IN_MAP*
G04 #@! TO.N,Net-(BRD1-IN_MAP)*
X60325126Y85225000D03*
G04 #@! TO.P,BRD1,D10,IN_BUTTON2*
G04 #@! TO.N,Net-(BRD1-IN_BUTTON2)*
X64525126Y85225000D03*
G04 #@! TO.P,BRD1,D11,GNDA*
G04 #@! TO.N,Net-(BRD1-GNDA-PadD11)*
X68725126Y85225000D03*
G04 #@! TO.P,BRD1,D12,GNDA*
G04 #@! TO.N,Net-(BRD1-GNDA-PadD12)*
X72925126Y85225000D03*
G04 #@! TO.P,BRD1,D13,IN_TPS1*
G04 #@! TO.N,Net-(BRD1-IN_TPS1)*
X77125126Y85225000D03*
D11*
X77912563Y86647437D03*
G04 #@! TO.P,BRD1,D14,IN_KNOCK_RAW*
G04 #@! TO.N,Net-(BRD1-IN_KNOCK_RAW)*
X80452563Y86647437D03*
D10*
X81325126Y85225000D03*
G04 #@! TO.P,BRD1,D15,IN_IAT*
G04 #@! TO.N,Net-(BRD1-IN_IAT)*
X85525126Y85225000D03*
D11*
X86372563Y86647437D03*
G04 #@! TO.P,BRD1,D16,IN_CLT*
G04 #@! TO.N,Net-(BRD1-IN_CLT)*
X88912563Y86647437D03*
D10*
X89725126Y85225000D03*
G04 #@! TO.P,BRD1,E1,+12V_RAW*
G04 #@! TO.N,Net-(BRD1-+12V_RAW)*
X90750126Y79200000D03*
G04 #@! TO.P,BRD1,E2,WBO_Rtrim*
G04 #@! TO.N,Net-(BRD1-WBO_Rtrim)*
X90750126Y75000000D03*
G04 #@! TO.P,BRD1,E3,WBO_Heater*
G04 #@! TO.N,Net-(BRD1-WBO_Heater)*
X90750126Y70800000D03*
G04 #@! TO.P,BRD1,E4,WBO_Un*
G04 #@! TO.N,Net-(BRD1-WBO_Un)*
X85250126Y79200000D03*
G04 #@! TO.P,BRD1,E5,WBO_Ip*
G04 #@! TO.N,Net-(BRD1-WBO_Ip)*
X85250126Y75000000D03*
G04 #@! TO.P,BRD1,E6,WBO_Vm*
G04 #@! TO.N,Net-(BRD1-WBO_Vm)*
X85250126Y70800000D03*
G04 #@! TO.P,BRD1,J1,VBUS*
G04 #@! TO.N,Net-(BRD1-VBUS)*
G04 #@! TA.AperFunction,ComponentPad*
G36*
G01*
X83700126Y2150000D02*
X82350126Y2150000D01*
G75*
G02*
X82100126Y2400000I0J250000D01*
G01*
X82100126Y3600000D01*
G75*
G02*
X82350126Y3850000I250000J0D01*
G01*
X83700126Y3850000D01*
G75*
G02*
X83950126Y3600000I0J-250000D01*
G01*
X83950126Y2400000D01*
G75*
G02*
X83700126Y2150000I-250000J0D01*
G01*
G37*
G04 #@! TD.AperFunction*
D12*
G04 #@! TO.P,BRD1,J2,USB-*
G04 #@! TO.N,Net-(BRD1-USB-)*
X83025126Y5500000D03*
G04 #@! TO.P,BRD1,J3,USB+*
G04 #@! TO.N,Net-(BRD1-USB+)*
X83025126Y8000000D03*
G04 #@! TO.P,BRD1,J4,GND*
G04 #@! TO.N,Net-(J1-Pin_4)*
X83025126Y10500000D03*
G04 #@! TO.P,BRD1,J5,GND*
G04 #@! TO.N,Net-(J1-Pin_5)*
X83025126Y13000000D03*
D11*
G04 #@! TO.P,BRD1,P3,LED_YELLOW*
G04 #@! TO.N,Net-(BRD1-LED_YELLOW)*
X62525126Y2500000D03*
G04 #@! TO.P,BRD1,P4,LED_GREEN*
G04 #@! TO.N,Net-(BRD1-LED_GREEN)*
X62525126Y7500000D03*
G04 #@! TO.P,BRD1,P7,Rx*
G04 #@! TO.N,Net-(BRD1-Rx)*
X83225126Y24000000D03*
G04 #@! TO.P,BRD1,P8,Tx*
G04 #@! TO.N,Net-(BRD1-Tx)*
X83225126Y19300000D03*
G04 #@! TD*
D10*
G04 #@! TO.P,P41,1*
G04 #@! TO.N,Net-(BRD1-IN_AUX3)*
X27425126Y85225000D03*
G04 #@! TD*
G04 #@! TO.P,P63,1*
G04 #@! TO.N,Net-(BRD1-+12V_RAW)*
X90750126Y79200000D03*
G04 #@! TD*
D11*
G04 #@! TO.P,P72,1,Pin_1*
G04 #@! TO.N,Net-(BRD1-LED_GREEN)*
X62525126Y7500000D03*
G04 #@! TD*
D10*
G04 #@! TO.P,P7,1*
G04 #@! TO.N,Net-(BRD1-IN_VIGN)*
X14800126Y34200000D03*
G04 #@! TD*
G04 #@! TO.P,P34,1*
G04 #@! TO.N,Net-(BRD1-GND-PadC8)*
X40025126Y90725000D03*
G04 #@! TD*
G04 #@! TO.P,P45,1*
G04 #@! TO.N,Net-(BRD1-VR1-)*
X44225126Y85225000D03*
G04 #@! TD*
D11*
G04 #@! TO.P,P69,1,Pin_1*
G04 #@! TO.N,Net-(BRD1-Rx)*
X83225126Y24000000D03*
G04 #@! TD*
D10*
G04 #@! TO.P,P22,1*
G04 #@! TO.N,Net-(BRD1-OUT_IGN2)*
X14800126Y62000000D03*
G04 #@! TD*
G04 #@! TO.P,P28,1*
G04 #@! TO.N,Net-(BRD1-+5VP-PadC2)*
X14825126Y90725000D03*
G04 #@! TD*
G04 #@! TO.P,P16,1*
G04 #@! TO.N,Net-(BRD1-OUT_LS_WEAK2)*
X9300126Y74600000D03*
G04 #@! TD*
G04 #@! TO.P,P1,1*
G04 #@! TO.N,Net-(BRD1-OUT_DC1)*
X9300126Y25800000D03*
G04 #@! TD*
G04 #@! TO.P,P37,1*
G04 #@! TO.N,Net-(BRD1-GNDA-PadC11)*
X10625126Y85225000D03*
G04 #@! TD*
G04 #@! TO.P,P46,1*
G04 #@! TO.N,Net-(BRD1-EGT-)*
X48425126Y85225000D03*
G04 #@! TD*
G04 #@! TO.P,P51,1*
G04 #@! TO.N,Net-(BRD1-IN_FLEX)*
X77125126Y90725000D03*
G04 #@! TD*
G04 #@! TO.P,P40,1*
G04 #@! TO.N,Net-(BRD1-IN_TPS2)*
X23225126Y85225000D03*
G04 #@! TD*
G04 #@! TO.P,P31,1*
G04 #@! TO.N,Net-(BRD1-IN_HALL1)*
X27425126Y90725000D03*
G04 #@! TD*
G04 #@! TO.P,P38,1*
G04 #@! TO.N,Net-(BRD1-GNDA-PadC12)*
X14825126Y85225000D03*
G04 #@! TD*
D11*
G04 #@! TO.P,P70,1,Pin_1*
G04 #@! TO.N,Net-(BRD1-Tx)*
X83225126Y19300000D03*
G04 #@! TD*
D10*
G04 #@! TO.P,P21,1*
G04 #@! TO.N,Net-(BRD1-OUT_IGN5)*
X14800126Y57800000D03*
G04 #@! TD*
G04 #@! TO.P,P5,1*
G04 #@! TO.N,Net-(BRD1-OUT_DC1+)*
X14800126Y25800000D03*
G04 #@! TD*
G04 #@! TO.P,P68,1*
G04 #@! TO.N,Net-(BRD1-WBO_Vm)*
X85250126Y70800000D03*
G04 #@! TD*
G04 #@! TO.P,P24,1*
G04 #@! TO.N,Net-(BRD1-OUT_LS4)*
X14800126Y70400000D03*
G04 #@! TD*
G04 #@! TO.P,P10,1*
G04 #@! TO.N,Net-(BRD1-OUT_INJ5)*
X9300126Y49400000D03*
G04 #@! TD*
G04 #@! TO.P,P57,1*
G04 #@! TO.N,Net-(BRD1-GNDA-PadD11)*
X68725126Y85225000D03*
G04 #@! TD*
G04 #@! TO.P,P18,1*
G04 #@! TO.N,Net-(BRD1-OUT_IGN6)*
X14800126Y45200000D03*
G04 #@! TD*
D14*
G04 #@! TO.N,Net-(BRD1-IN_FLEX)*
X77125126Y90725000D02*
X77125126Y90389088D01*
X77418019Y89681981D02*
X77912563Y89187437D01*
X77125110Y90389088D02*
G75*
G03*
X77418019Y89681981I999990J12D01*
G01*
G04 #@! TO.N,Net-(BRD1-IN_PPS1)*
X81032233Y89767107D02*
X80452563Y89187437D01*
X81325126Y90725000D02*
X81325126Y90474214D01*
X81032245Y89767095D02*
G75*
G03*
X81325126Y90474214I-707145J707105D01*
G01*
G04 #@! TO.N,Net-(BRD1-CAN+)*
X85818019Y89741981D02*
X86372563Y89187437D01*
X85525126Y90725000D02*
X85525126Y90449088D01*
X85525110Y90449088D02*
G75*
G03*
X85818019Y89741981I999990J12D01*
G01*
G04 #@! TO.N,Net-(BRD1-CAN-)*
X89432233Y89707107D02*
X88912563Y89187437D01*
X89725126Y90725000D02*
X89725126Y90414214D01*
X89432245Y89707095D02*
G75*
G03*
X89725126Y90414214I-707145J707105D01*
G01*
D15*
G04 #@! TO.N,Net-(BRD1-IN_TPS1)*
X77125126Y85860000D02*
X77912563Y86647437D01*
X77125126Y85225000D02*
X77125126Y85860000D01*
G04 #@! TO.N,Net-(BRD1-IN_KNOCK_RAW)*
X81325126Y85225000D02*
X81325126Y85774874D01*
X81325126Y85774874D02*
X80452563Y86647437D01*
G04 #@! TO.N,Net-(BRD1-IN_IAT)*
X85525126Y85245000D02*
X85525126Y85800000D01*
X85525126Y85800000D02*
X86372563Y86647437D01*
G04 #@! TO.N,Net-(BRD1-IN_CLT)*
X89725126Y85225000D02*
X89725126Y85834874D01*
X89725126Y85834874D02*
X88912563Y86647437D01*
G04 #@! TD*
M02*
