M48
; DRILL file {KiCad 7.0.10} date Tue Feb 27 20:16:55 2024
; FORMAT={2:4/ absolute / inch / suppress leading zeros}
; #@! TF.CreationDate,2024-02-27T20:16:55+03:00
; #@! TF.GenerationSoftware,Kicad,Pcbnew,7.0.10
; #@! TF.FileFunction,MixedPlating,1,4
FMAT,2
INCH,TZ
; #@! TA.AperFunction,Plated,PTH,ComponentDrill
T1C0.0335
; #@! TA.AperFunction,Plated,PTH,ComponentDrill
T2C0.0394
; #@! TA.AperFunction,Plated,PTH,ComponentDrill
T3C0.0472
%
G90
G05
T1
X32687Y5118
X32687Y5118
X32687Y4134
X32687Y4134
X32687Y3150
X32687Y3150
X32687Y2165
X32687Y2165
X32687Y1181
X32687Y1181
T2
X1191Y4528
X1191Y4528
X2191Y4528
X2191Y4528
X3191Y4528
X3191Y4528
X4252Y30705
X4252Y30705
X4252Y29705
X4252Y29705
X4252Y27398
X4252Y27398
X4252Y26398
X4252Y26398
X4252Y24091
X4252Y24091
X4252Y23091
X4252Y23091
X4252Y20783
X4252Y20783
X4252Y19783
X4252Y19783
X4252Y14799
X4252Y14799
X4252Y13799
X4252Y13799
X4518Y35128
X4518Y35128
X4518Y34128
X4518Y34128
X5252Y30705
X5252Y30705
X5252Y29705
X5252Y29705
X5252Y27398
X5252Y27398
X5252Y26398
X5252Y26398
X5252Y24091
X5252Y24091
X5252Y23091
X5252Y23091
X5252Y20783
X5252Y20783
X5252Y19783
X5252Y19783
X5252Y14799
X5252Y14799
X5252Y13799
X5252Y13799
X5518Y35128
X5518Y35128
X5518Y34128
X5518Y34128
X7825Y35128
X7825Y35128
X7825Y34128
X7825Y34128
X8825Y35128
X8825Y35128
X8825Y34128
X8825Y34128
X9065Y4331
X9065Y4331
X11132Y35128
X11132Y35128
X11132Y34128
X11132Y34128
X12132Y35128
X12132Y35128
X12132Y34128
X12132Y34128
X14439Y35128
X14439Y35128
X14439Y34128
X14439Y34128
X15439Y35128
X15439Y35128
X15439Y34128
X15439Y34128
X24085Y35128
X24085Y35128
X24085Y34128
X24085Y34128
X24616Y2953
X24616Y2953
X24616Y984
X24616Y984
X25085Y35128
X25085Y35128
X25085Y34128
X25085Y34128
X27392Y35128
X27392Y35128
X27392Y34128
X27392Y34128
X28392Y35128
X28392Y35128
X28392Y34128
X28392Y34128
X30699Y35128
X30699Y35128
X30699Y34128
X30699Y34128
X31699Y35128
X31699Y35128
X31699Y34128
X31699Y34128
X32766Y9449
X32766Y9449
X32766Y7598
X32766Y7598
X34006Y35128
X34006Y35128
X34006Y34128
X34006Y34128
X34154Y30862
X34154Y30862
X34154Y29862
X34154Y29862
X35006Y35128
X35006Y35128
X35006Y34128
X35006Y34128
X35154Y30862
X35154Y30862
X35154Y29862
X35154Y29862
T3
X3661Y31024
X3661Y31024
X3661Y29370
X3661Y29370
X3661Y27717
X3661Y27717
X3661Y26063
X3661Y26063
X3661Y24409
X3661Y24409
X3661Y22756
X3661Y22756
X3661Y21102
X3661Y21102
X3661Y19449
X3661Y19449
X3661Y17795
X3661Y17795
X3661Y15118
X3661Y15118
X3661Y13465
X3661Y13465
X3661Y11811
X3661Y11811
X3661Y10157
X3661Y10157
X4183Y35719
X4183Y35719
X4183Y33553
X4183Y33553
X5827Y31024
X5827Y31024
X5827Y29370
X5827Y29370
X5827Y27717
X5827Y27717
X5827Y26063
X5827Y26063
X5827Y24409
X5827Y24409
X5827Y22756
X5827Y22756
X5827Y21102
X5827Y21102
X5827Y19449
X5827Y19449
X5827Y17795
X5827Y17795
X5827Y15118
X5827Y15118
X5827Y13465
X5827Y13465
X5827Y11811
X5827Y11811
X5827Y10157
X5827Y10157
X5837Y35719
X5837Y35719
X5837Y33553
X5837Y33553
X7490Y35719
X7490Y35719
X7490Y33553
X7490Y33553
X9144Y35719
X9144Y35719
X9144Y33553
X9144Y33553
X10797Y35719
X10797Y35719
X10797Y33553
X10797Y33553
X12451Y35719
X12451Y35719
X12451Y33553
X12451Y33553
X14104Y35719
X14104Y35719
X14104Y33553
X14104Y33553
X15758Y35719
X15758Y35719
X15758Y33553
X15758Y33553
X17411Y35719
X17411Y35719
X17411Y33553
X17411Y33553
X19065Y35719
X19065Y35719
X19065Y33553
X19065Y33553
X23750Y35719
X23750Y35719
X23750Y33553
X23750Y33553
X25404Y35719
X25404Y35719
X25404Y33553
X25404Y33553
X27057Y35719
X27057Y35719
X27057Y33553
X27057Y33553
X28711Y35719
X28711Y35719
X28711Y33553
X28711Y33553
X30364Y35719
X30364Y35719
X30364Y33553
X30364Y33553
X32018Y35719
X32018Y35719
X32018Y33553
X32018Y33553
X33563Y31181
X33563Y31181
X33563Y29528
X33563Y29528
X33563Y27874
X33563Y27874
X33671Y35719
X33671Y35719
X33671Y33553
X33671Y33553
X35325Y35719
X35325Y35719
X35325Y33553
X35325Y33553
X35728Y31181
X35728Y31181
X35728Y29528
X35728Y29528
X35728Y27874
X35728Y27874
M30
