G04 #@! TF.GenerationSoftware,KiCad,Pcbnew,8.0.9*
G04 #@! TF.CreationDate,2026-03-22T21:59:09+03:00*
G04 #@! TF.ProjectId,hellen1-wbo,68656c6c-656e-4312-9d77-626f2e6b6963,0.6*
G04 #@! TF.SameCoordinates,PX4a25ef0PY5a995c0*
G04 #@! TF.FileFunction,Copper,L2,Inr*
G04 #@! TF.FilePolarity,Positive*
%FSLAX46Y46*%
G04 Gerber Fmt 4.6, Leading zero omitted, Abs format (unit mm)*
G04 Created by KiCad (PCBNEW 8.0.9) date 2026-03-22 21:59:09*
%MOMM*%
%LPD*%
G01*
G04 APERTURE LIST*
G04 #@! TA.AperFunction,ComponentPad*
%ADD10C,0.600000*%
G04 #@! TD*
G04 #@! TA.AperFunction,ComponentPad*
%ADD11C,1.400000*%
G04 #@! TD*
G04 #@! TA.AperFunction,Conductor*
%ADD12R,0.250000X1.900000*%
G04 #@! TD*
G04 #@! TA.AperFunction,Conductor*
%ADD13R,0.250000X7.900000*%
G04 #@! TD*
G04 #@! TA.AperFunction,Conductor*
%ADD14R,24.600000X0.250000*%
G04 #@! TD*
G04 #@! TA.AperFunction,Conductor*
%ADD15R,0.250000X8.050000*%
G04 #@! TD*
G04 #@! TA.AperFunction,Conductor*
%ADD16R,0.250000X0.950000*%
G04 #@! TD*
G04 #@! TA.AperFunction,ViaPad*
%ADD17C,0.600000*%
G04 #@! TD*
G04 APERTURE END LIST*
D10*
G04 #@! TO.N,/LSU_Un*
G04 #@! TO.C,M1*
X24300000Y1450000D03*
G04 #@! TO.N,/LSU_Vm*
X24300000Y3850000D03*
G04 #@! TO.N,/LSU_Ip*
X24300000Y3050000D03*
G04 #@! TO.N,/LSU_Rtrim*
X24300000Y2250000D03*
D11*
G04 #@! TO.N,/LSU_H+*
X23900000Y5050000D03*
D12*
G04 #@! TO.N,GND*
X125000Y13050000D03*
D13*
X125000Y3950000D03*
D14*
X12300000Y13875000D03*
X12300000Y125000D03*
D15*
X24475000Y9975000D03*
D16*
X24475000Y475000D03*
D10*
G04 #@! TO.N,+5V*
X300000Y10800000D03*
G04 #@! TO.N,+3V3*
X300000Y10000000D03*
G04 #@! TO.N,/CANL*
X300000Y8400000D03*
G04 #@! TO.N,/CANH*
X300000Y9200000D03*
G04 #@! TO.N,Net-(M1-VDDA)*
X300000Y11600000D03*
G04 #@! TD*
D17*
G04 #@! TO.N,/LSU_H+*
X19350000Y6650000D03*
X20250000Y5600000D03*
X20700000Y7250000D03*
X22950000Y8150000D03*
X22200000Y6600000D03*
X19000000Y5600000D03*
X23000000Y2350000D03*
X22300000Y1300000D03*
X19250000Y1550000D03*
X19250000Y2350000D03*
G04 #@! TO.N,GND*
X15850000Y574998D03*
X8475000Y13664600D03*
X4036369Y13556748D03*
X19900000Y11600000D03*
X6750000Y4550000D03*
X10750000Y8490889D03*
X650000Y650000D03*
X18900000Y11600000D03*
X350000Y6000000D03*
X18749078Y8449078D03*
X17800000Y11600000D03*
X2236712Y8748476D03*
X4214957Y4564743D03*
X23850000Y7200000D03*
X17735398Y3250000D03*
X5225000Y750000D03*
X14050000Y2500500D03*
X19900000Y10200000D03*
X23550000Y700000D03*
X6450000Y650000D03*
X19900000Y10900000D03*
X16350825Y12230825D03*
X13500000Y5800000D03*
X4514600Y7755223D03*
X9812507Y549532D03*
X5900000Y7725000D03*
X12800000Y600000D03*
X13270000Y11010400D03*
X16389844Y13480601D03*
X4216911Y12033089D03*
X22350000Y11600000D03*
X22915924Y13452250D03*
X539020Y13442817D03*
G04 #@! TO.N,/LSU_Vm*
X12745212Y9385001D03*
X14880000Y12660400D03*
G04 #@! TO.N,/LSU_Ip*
X12481838Y10994857D03*
G04 #@! TO.N,+3V3*
X5650000Y2700000D03*
X1775406Y12852310D03*
X3839600Y850000D03*
X17745398Y4500000D03*
X5925000Y10385398D03*
G04 #@! TO.N,/nRESET*
X12256797Y5700000D03*
X1384789Y5175000D03*
X3097704Y1539600D03*
G04 #@! TO.N,Net-(U600D-+)*
X17735398Y2485397D03*
G04 #@! TO.N,/LSU_Un_sense*
X17735398Y5535400D03*
X13656587Y8418413D03*
G04 #@! TO.N,/Vm*
X17735398Y1720794D03*
X19350000Y7850000D03*
X14040000Y10055200D03*
G04 #@! TO.N,/Ip_sense*
X14859354Y11896077D03*
G04 #@! TO.N,/Un_sense*
X10948628Y7624956D03*
G04 #@! TO.N,/Ip_dac*
X17558139Y6837483D03*
X11727956Y11122447D03*
G04 #@! TO.N,/Nernst_esr_drive*
X17735398Y956191D03*
X13315230Y2289005D03*
G04 #@! TO.N,/CAN_TX*
X9636668Y7285982D03*
G04 #@! TO.N,/CAN_RX*
X10226268Y7875582D03*
G04 #@! TO.N,/Boot0*
X10225400Y5860400D03*
X5076730Y6052685D03*
G04 #@! TO.N,Net-(U601--)*
X10220589Y9670589D03*
X2750377Y10570000D03*
G04 #@! TO.N,/SWDIO*
X1384289Y4385017D03*
X5981229Y5934900D03*
X2750336Y3908800D03*
G04 #@! TO.N,VDDA*
X17646337Y9004700D03*
X4558640Y10627877D03*
X14815100Y4361711D03*
G04 #@! TO.N,/CANH*
X1241770Y1134175D03*
G04 #@! TO.N,Net-(M1-VDDA)*
X16437886Y11471195D03*
G04 #@! TD*
G04 #@! TA.AperFunction,Conductor*
G04 #@! TO.N,GND*
G36*
X24559191Y13981093D02*
G01*
X24595155Y13931593D01*
X24600000Y13901000D01*
X24600000Y6049000D01*
X24581093Y5990809D01*
X24531593Y5954845D01*
X24501000Y5950000D01*
X24451423Y5950000D01*
X24393232Y5968907D01*
X24357268Y6018407D01*
X24353431Y6063090D01*
X24355000Y6074002D01*
X24355000Y6600668D01*
X24354477Y6615315D01*
X24354477Y6615326D01*
X24353215Y6632973D01*
X24335167Y6703682D01*
X24335164Y6703687D01*
X24335164Y6703690D01*
X24306148Y6767224D01*
X24306142Y6767238D01*
X24294320Y6789424D01*
X24230313Y6854749D01*
X24171534Y6892523D01*
X24171535Y6892523D01*
X24171531Y6892525D01*
X24151304Y6903838D01*
X24149597Y6904793D01*
X24060434Y6925144D01*
X23990566Y6925144D01*
X23990562Y6925144D01*
X23932673Y6916821D01*
X23932669Y6916820D01*
X23906072Y6909010D01*
X23878181Y6905000D01*
X23821819Y6905000D01*
X23793929Y6909010D01*
X23739852Y6924888D01*
X23714221Y6936594D01*
X23666801Y6967069D01*
X23645505Y6985522D01*
X23608598Y7028115D01*
X23593364Y7051820D01*
X23569951Y7103087D01*
X23562012Y7130124D01*
X23553991Y7185917D01*
X23553991Y7214086D01*
X23562013Y7269883D01*
X23569949Y7296912D01*
X23593366Y7348188D01*
X23608592Y7371881D01*
X23645515Y7414492D01*
X23666800Y7432934D01*
X23714219Y7463409D01*
X23739850Y7475113D01*
X23742170Y7475794D01*
X23754975Y7479554D01*
X23793925Y7490990D01*
X23821815Y7495000D01*
X23878185Y7495000D01*
X23906075Y7490990D01*
X23915499Y7488223D01*
X23932671Y7483181D01*
X23946879Y7479554D01*
X23964166Y7475793D01*
X24037100Y7473188D01*
X24101863Y7482500D01*
X24106224Y7483127D01*
X24106228Y7483128D01*
X24106258Y7483132D01*
X24130868Y7488223D01*
X24130869Y7488223D01*
X24130869Y7488224D01*
X24130873Y7488224D01*
X24211585Y7531234D01*
X24264389Y7576989D01*
X24282343Y7594580D01*
X24282344Y7594583D01*
X24282346Y7594584D01*
X24326988Y7674393D01*
X24326990Y7674397D01*
X24346673Y7741430D01*
X24346675Y7741436D01*
X24355000Y7799334D01*
X24355000Y11926000D01*
X24350303Y11969684D01*
X24339097Y12021195D01*
X24336610Y12031373D01*
X24293600Y12112085D01*
X24247845Y12164889D01*
X24230254Y12182843D01*
X24230253Y12182844D01*
X24230252Y12182845D01*
X24230250Y12182847D01*
X24150441Y12227489D01*
X24150437Y12227491D01*
X24083404Y12247174D01*
X24083395Y12247176D01*
X24037184Y12253820D01*
X24025500Y12255500D01*
X22887662Y12255500D01*
X22881812Y12255082D01*
X22858412Y12253408D01*
X22823479Y12248385D01*
X22741629Y12217857D01*
X22741624Y12217855D01*
X22682861Y12180091D01*
X22682853Y12180085D01*
X22662570Y12165222D01*
X22627157Y12118907D01*
X22612701Y12100000D01*
X22607021Y12092572D01*
X22607015Y12092563D01*
X22578004Y12029038D01*
X22577999Y12029025D01*
X22568969Y12005552D01*
X22561515Y11914399D01*
X22561516Y11914396D01*
X22571459Y11845243D01*
X22587926Y11789148D01*
X22587931Y11789135D01*
X22588273Y11788387D01*
X22588435Y11788033D01*
X22588448Y11788004D01*
X22630047Y11696915D01*
X22630048Y11696914D01*
X22637987Y11669876D01*
X22646008Y11614090D01*
X22646008Y11585912D01*
X22637988Y11530129D01*
X22630049Y11503091D01*
X22606633Y11451818D01*
X22591398Y11428113D01*
X22554490Y11385520D01*
X22533197Y11367069D01*
X22485780Y11336595D01*
X22460147Y11324888D01*
X22433109Y11316949D01*
X22406070Y11309010D01*
X22378180Y11305000D01*
X22321819Y11305000D01*
X22293929Y11309010D01*
X22239852Y11324888D01*
X22214221Y11336594D01*
X22166801Y11367069D01*
X22145509Y11385518D01*
X22108598Y11428115D01*
X22093368Y11451814D01*
X22084517Y11471193D01*
X22069950Y11503091D01*
X22062012Y11530126D01*
X22053991Y11585915D01*
X22053991Y11614086D01*
X22062012Y11669881D01*
X22069951Y11696915D01*
X22112061Y11789119D01*
X22122307Y11816590D01*
X22132251Y11850455D01*
X22138484Y11937600D01*
X22129203Y12002148D01*
X22128545Y12006725D01*
X22128543Y12006735D01*
X22128540Y12006758D01*
X22128536Y12006778D01*
X22123449Y12031369D01*
X22123449Y12031370D01*
X22123448Y12031372D01*
X22123448Y12031373D01*
X22080438Y12112085D01*
X22034683Y12164889D01*
X22017092Y12182843D01*
X22017091Y12182844D01*
X22017090Y12182845D01*
X22017088Y12182847D01*
X21937279Y12227489D01*
X21937275Y12227491D01*
X21870242Y12247174D01*
X21870233Y12247176D01*
X21824022Y12253820D01*
X21812338Y12255500D01*
X20437662Y12255500D01*
X20431812Y12255082D01*
X20408412Y12253408D01*
X20373479Y12248385D01*
X20291629Y12217857D01*
X20291624Y12217855D01*
X20232861Y12180091D01*
X20232853Y12180085D01*
X20212570Y12165222D01*
X20177157Y12118907D01*
X20162701Y12100000D01*
X20157021Y12092572D01*
X20157015Y12092563D01*
X20128004Y12029038D01*
X20127999Y12029025D01*
X20118969Y12005552D01*
X20111515Y11914399D01*
X20111516Y11914396D01*
X20121459Y11845243D01*
X20137926Y11789148D01*
X20137931Y11789135D01*
X20138273Y11788387D01*
X20138435Y11788033D01*
X20138448Y11788004D01*
X20180047Y11696915D01*
X20180048Y11696914D01*
X20187987Y11669876D01*
X20196008Y11614090D01*
X20196008Y11585911D01*
X20187987Y11530127D01*
X20180048Y11503091D01*
X20144968Y11426277D01*
X20138210Y11413896D01*
X20137369Y11412589D01*
X20134176Y11404024D01*
X20130199Y11394815D01*
X20127260Y11388859D01*
X20124869Y11380848D01*
X20124531Y11380949D01*
X20122557Y11372867D01*
X20106836Y11330700D01*
X20106831Y11330680D01*
X20096907Y11261544D01*
X20096904Y11261523D01*
X20094861Y11236474D01*
X20113410Y11146916D01*
X20113411Y11146913D01*
X20122247Y11127577D01*
X20122876Y11122100D01*
X20180048Y10996913D01*
X20187987Y10969876D01*
X20196008Y10914090D01*
X20196008Y10885911D01*
X20187987Y10830127D01*
X20180048Y10803091D01*
X20144968Y10726277D01*
X20138210Y10713896D01*
X20137369Y10712589D01*
X20134176Y10704024D01*
X20130199Y10694815D01*
X20127260Y10688859D01*
X20124869Y10680848D01*
X20124531Y10680949D01*
X20122557Y10672867D01*
X20106836Y10630700D01*
X20106831Y10630680D01*
X20096907Y10561544D01*
X20096904Y10561523D01*
X20094861Y10536474D01*
X20113410Y10446916D01*
X20113411Y10446913D01*
X20122247Y10427577D01*
X20122876Y10422100D01*
X20180048Y10296913D01*
X20187987Y10269876D01*
X20196008Y10214090D01*
X20196008Y10185912D01*
X20187987Y10130126D01*
X20180048Y10103088D01*
X20156635Y10051822D01*
X20141405Y10028123D01*
X20124988Y10009175D01*
X20115758Y9997720D01*
X20105165Y9983567D01*
X20105163Y9983565D01*
X20072511Y9918329D01*
X20072508Y9918321D01*
X20052826Y9851293D01*
X20052824Y9851284D01*
X20044500Y9793388D01*
X20044500Y8826130D01*
X20025593Y8767939D01*
X20015504Y8756126D01*
X19658894Y8399517D01*
X19653836Y8394274D01*
X19647828Y8387821D01*
X19647828Y8387820D01*
X19630352Y8361663D01*
X19582303Y8323782D01*
X19521165Y8321378D01*
X19520144Y8321672D01*
X19421964Y8350500D01*
X19421961Y8350500D01*
X19278039Y8350500D01*
X19278035Y8350500D01*
X19139949Y8309954D01*
X19139942Y8309951D01*
X19018872Y8232144D01*
X19018870Y8232142D01*
X18952540Y8155593D01*
X18900144Y8123997D01*
X18849829Y8125434D01*
X18780628Y8145754D01*
X18734417Y8152398D01*
X18722733Y8154078D01*
X18722732Y8154078D01*
X18720896Y8154078D01*
X18693005Y8158088D01*
X18608357Y8182942D01*
X18605713Y8184750D01*
X18595604Y8186949D01*
X18588770Y8188693D01*
X18588409Y8188799D01*
X18588401Y8188801D01*
X18583599Y8189644D01*
X18579680Y8190414D01*
X18531935Y8200801D01*
X18531928Y8200802D01*
X18531923Y8200803D01*
X18488238Y8205500D01*
X18324000Y8205500D01*
X18292797Y8202145D01*
X18280314Y8200803D01*
X18228800Y8189596D01*
X18218628Y8187111D01*
X18137914Y8144100D01*
X18085113Y8098347D01*
X18085098Y8098333D01*
X18067155Y8080753D01*
X18067153Y8080751D01*
X18022511Y8000942D01*
X18022509Y8000938D01*
X18002826Y7933905D01*
X18002824Y7933896D01*
X17994500Y7876000D01*
X17994500Y7333302D01*
X17975593Y7275111D01*
X17926093Y7239147D01*
X17864907Y7239147D01*
X17841977Y7250018D01*
X17768196Y7297434D01*
X17768193Y7297436D01*
X17768192Y7297436D01*
X17768189Y7297437D01*
X17630103Y7337983D01*
X17630100Y7337983D01*
X17486178Y7337983D01*
X17486174Y7337983D01*
X17348088Y7297437D01*
X17348081Y7297434D01*
X17227012Y7219628D01*
X17132761Y7110855D01*
X17072973Y6979940D01*
X17052492Y6837486D01*
X17052492Y6837481D01*
X17072973Y6695027D01*
X17101312Y6632975D01*
X17132762Y6564110D01*
X17227011Y6455340D01*
X17227012Y6455339D01*
X17321134Y6394851D01*
X17348086Y6377530D01*
X17454542Y6346272D01*
X17486174Y6336984D01*
X17486175Y6336984D01*
X17486178Y6336983D01*
X17486180Y6336983D01*
X17630098Y6336983D01*
X17630100Y6336983D01*
X17768192Y6377530D01*
X17841978Y6424950D01*
X17901151Y6440504D01*
X17958168Y6418305D01*
X17991247Y6366833D01*
X17994500Y6341665D01*
X17994500Y6113200D01*
X17975593Y6055009D01*
X17926093Y6019045D01*
X17867610Y6018210D01*
X17807364Y6035899D01*
X17807360Y6035900D01*
X17807359Y6035900D01*
X17663437Y6035900D01*
X17663433Y6035900D01*
X17525347Y5995354D01*
X17525340Y5995351D01*
X17404271Y5917545D01*
X17310020Y5808772D01*
X17250232Y5677857D01*
X17229751Y5535403D01*
X17229751Y5535398D01*
X17250232Y5392944D01*
X17310020Y5262029D01*
X17310021Y5262027D01*
X17404270Y5153257D01*
X17404271Y5153256D01*
X17490608Y5097771D01*
X17529339Y5050405D01*
X17532833Y4989320D01*
X17499753Y4937847D01*
X17490609Y4931203D01*
X17414270Y4882143D01*
X17320020Y4773372D01*
X17260232Y4642457D01*
X17239751Y4500003D01*
X17239751Y4499998D01*
X17260232Y4357544D01*
X17317502Y4232143D01*
X17320021Y4226627D01*
X17414270Y4117857D01*
X17414271Y4117856D01*
X17535340Y4040050D01*
X17535345Y4040047D01*
X17641801Y4008789D01*
X17673433Y3999501D01*
X17673434Y3999501D01*
X17673437Y3999500D01*
X17673439Y3999500D01*
X17817357Y3999500D01*
X17817359Y3999500D01*
X17867610Y4014255D01*
X17928768Y4012508D01*
X17977221Y3975145D01*
X17994500Y3919265D01*
X17994500Y3464460D01*
X17999196Y3420779D01*
X18010401Y3369269D01*
X18017963Y3346546D01*
X18022019Y3329376D01*
X18031406Y3264089D01*
X18031406Y3235910D01*
X18022019Y3170625D01*
X18017962Y3153455D01*
X18012386Y3136699D01*
X18010401Y3130734D01*
X17999196Y3079224D01*
X17996262Y3051929D01*
X17971242Y2996093D01*
X17918181Y2965627D01*
X17869938Y2967523D01*
X17807362Y2985897D01*
X17807359Y2985897D01*
X17663437Y2985897D01*
X17663433Y2985897D01*
X17525347Y2945351D01*
X17525340Y2945348D01*
X17404271Y2867542D01*
X17310020Y2758769D01*
X17250232Y2627854D01*
X17229751Y2485400D01*
X17229751Y2485395D01*
X17250232Y2342941D01*
X17310021Y2212024D01*
X17348231Y2167927D01*
X17372049Y2111568D01*
X17358191Y2051973D01*
X17348232Y2038265D01*
X17310020Y1994166D01*
X17250232Y1863251D01*
X17229751Y1720797D01*
X17229751Y1720792D01*
X17250232Y1578338D01*
X17310021Y1447421D01*
X17348231Y1403324D01*
X17372049Y1346965D01*
X17358191Y1287370D01*
X17348232Y1273664D01*
X17327046Y1249213D01*
X17310020Y1229563D01*
X17250232Y1098648D01*
X17229751Y956194D01*
X17229751Y956189D01*
X17250232Y813735D01*
X17310020Y682820D01*
X17310021Y682818D01*
X17402034Y576629D01*
X17404271Y574047D01*
X17525340Y496241D01*
X17525345Y496238D01*
X17631801Y464980D01*
X17663433Y455692D01*
X17663434Y455692D01*
X17663437Y455691D01*
X17663439Y455691D01*
X17807357Y455691D01*
X17807359Y455691D01*
X17945451Y496238D01*
X18066526Y574048D01*
X18160775Y682818D01*
X18168784Y700357D01*
X18210156Y745434D01*
X18270122Y757586D01*
X18286731Y754220D01*
X18291477Y752827D01*
X18291484Y752825D01*
X18349382Y744500D01*
X18349383Y744500D01*
X23047740Y744500D01*
X23047741Y744500D01*
X23076987Y746592D01*
X23111922Y751615D01*
X23193777Y782145D01*
X23252555Y819919D01*
X23296761Y858224D01*
X23345513Y914489D01*
X23366799Y932934D01*
X23414222Y963410D01*
X23439850Y975113D01*
X23493925Y990990D01*
X23521815Y995000D01*
X23580387Y995000D01*
X23601428Y992739D01*
X23625025Y987605D01*
X23625036Y987604D01*
X23625050Y987601D01*
X23639574Y985513D01*
X23659958Y982582D01*
X23747100Y988814D01*
X23747107Y988817D01*
X23750423Y989414D01*
X23752163Y989177D01*
X23752393Y989193D01*
X23752396Y989145D01*
X23811046Y981142D01*
X23838009Y961992D01*
X23850000Y950001D01*
X23850000Y950000D01*
X24217481Y950000D01*
X24224476Y949500D01*
X24228039Y949500D01*
X24375524Y949500D01*
X24382519Y950000D01*
X24501000Y950000D01*
X24559191Y931093D01*
X24595155Y881593D01*
X24600000Y851000D01*
X24600000Y99000D01*
X24581093Y40809D01*
X24531593Y4845D01*
X24501000Y0D01*
X99000Y0D01*
X40809Y18907D01*
X4845Y68407D01*
X0Y99000D01*
X0Y1134178D01*
X736123Y1134178D01*
X736123Y1134173D01*
X756604Y991719D01*
X786964Y925242D01*
X816393Y860802D01*
X908746Y754220D01*
X910643Y752031D01*
X1018338Y682820D01*
X1031717Y674222D01*
X1138173Y642964D01*
X1169805Y633676D01*
X1169806Y633676D01*
X1169809Y633675D01*
X1169811Y633675D01*
X1313729Y633675D01*
X1313731Y633675D01*
X1451823Y674222D01*
X1572898Y752032D01*
X1667147Y860802D01*
X1726935Y991718D01*
X1747417Y1134175D01*
X1741313Y1176627D01*
X1726935Y1276632D01*
X1712818Y1307543D01*
X1667147Y1407548D01*
X1572898Y1516318D01*
X1572897Y1516319D01*
X1572896Y1516320D01*
X1536667Y1539603D01*
X2592057Y1539603D01*
X2592057Y1539598D01*
X2612538Y1397144D01*
X2672326Y1266229D01*
X2672327Y1266227D01*
X2722278Y1208580D01*
X2766577Y1157456D01*
X2887646Y1079650D01*
X2887651Y1079647D01*
X2973632Y1054401D01*
X3025739Y1039101D01*
X3025740Y1039101D01*
X3025743Y1039100D01*
X3025745Y1039100D01*
X3169663Y1039100D01*
X3169665Y1039100D01*
X3221775Y1054401D01*
X3282933Y1052654D01*
X3331386Y1015292D01*
X3348625Y956585D01*
X3347657Y945323D01*
X3333953Y850005D01*
X3333953Y849998D01*
X3354434Y707544D01*
X3414222Y576629D01*
X3414223Y576627D01*
X3483880Y496238D01*
X3508473Y467856D01*
X3629542Y390050D01*
X3629547Y390047D01*
X3736003Y358789D01*
X3767635Y349501D01*
X3767636Y349501D01*
X3767639Y349500D01*
X3767641Y349500D01*
X3911559Y349500D01*
X3911561Y349500D01*
X4049653Y390047D01*
X4170728Y467857D01*
X4264977Y576627D01*
X4324765Y707543D01*
X4335491Y782145D01*
X4345247Y849998D01*
X4345247Y850003D01*
X4324765Y992457D01*
X4310780Y1023080D01*
X4264977Y1123373D01*
X4170728Y1232143D01*
X4170727Y1232144D01*
X4170726Y1232145D01*
X4049657Y1309951D01*
X4049654Y1309953D01*
X4049653Y1309953D01*
X4049650Y1309954D01*
X3911564Y1350500D01*
X3911561Y1350500D01*
X3767639Y1350500D01*
X3767637Y1350500D01*
X3767633Y1350499D01*
X3715528Y1335200D01*
X3654368Y1336948D01*
X3605916Y1374311D01*
X3588678Y1433018D01*
X3589646Y1444279D01*
X3603351Y1539598D01*
X3603351Y1539603D01*
X3582869Y1682057D01*
X3548436Y1757453D01*
X3523081Y1812973D01*
X3428832Y1921743D01*
X3428831Y1921744D01*
X3428830Y1921745D01*
X3307761Y1999551D01*
X3307758Y1999553D01*
X3307757Y1999553D01*
X3307754Y1999554D01*
X3169668Y2040100D01*
X3169665Y2040100D01*
X3025743Y2040100D01*
X3025739Y2040100D01*
X2887653Y1999554D01*
X2887646Y1999551D01*
X2766577Y1921745D01*
X2672326Y1812972D01*
X2612538Y1682057D01*
X2592057Y1539603D01*
X1536667Y1539603D01*
X1451827Y1594126D01*
X1451824Y1594128D01*
X1451823Y1594128D01*
X1451820Y1594129D01*
X1313734Y1634675D01*
X1313731Y1634675D01*
X1169809Y1634675D01*
X1169805Y1634675D01*
X1031719Y1594129D01*
X1031712Y1594126D01*
X910643Y1516320D01*
X816392Y1407547D01*
X756604Y1276632D01*
X736123Y1134178D01*
X0Y1134178D01*
X0Y2773458D01*
X264200Y2773458D01*
X264200Y2626543D01*
X283306Y2530487D01*
X292275Y2485397D01*
X292860Y2482459D01*
X292860Y2482457D01*
X349078Y2346734D01*
X349078Y2346733D01*
X387649Y2289008D01*
X430699Y2224580D01*
X534580Y2120699D01*
X656731Y2039080D01*
X656732Y2039080D01*
X656733Y2039079D01*
X661108Y2037267D01*
X792458Y1982860D01*
X936545Y1954200D01*
X936547Y1954200D01*
X1083453Y1954200D01*
X1083455Y1954200D01*
X1227542Y1982860D01*
X1363269Y2039080D01*
X1485420Y2120699D01*
X1589301Y2224580D01*
X1670920Y2346731D01*
X1727140Y2482458D01*
X1755800Y2626545D01*
X1755800Y2700003D01*
X5144353Y2700003D01*
X5144353Y2699998D01*
X5164834Y2557544D01*
X5199126Y2482457D01*
X5224623Y2426627D01*
X5295422Y2344920D01*
X5318873Y2317856D01*
X5442348Y2238504D01*
X5481079Y2191138D01*
X5484573Y2130053D01*
X5471141Y2100220D01*
X5429080Y2037271D01*
X5429078Y2037267D01*
X5372860Y1901544D01*
X5372860Y1901542D01*
X5344200Y1757458D01*
X5344200Y1610543D01*
X5372860Y1466459D01*
X5372860Y1466457D01*
X5429078Y1330734D01*
X5429078Y1330733D01*
X5458053Y1287370D01*
X5510699Y1208580D01*
X5614580Y1104699D01*
X5736731Y1023080D01*
X5872458Y966860D01*
X6016545Y938200D01*
X6016547Y938200D01*
X6163453Y938200D01*
X6163455Y938200D01*
X6307542Y966860D01*
X6443269Y1023080D01*
X6565420Y1104699D01*
X6669301Y1208580D01*
X6750920Y1330731D01*
X6807140Y1466458D01*
X6835800Y1610545D01*
X6835800Y1757455D01*
X6807140Y1901542D01*
X6768774Y1994166D01*
X6750921Y2037267D01*
X6750921Y2037268D01*
X6708857Y2100220D01*
X6669301Y2159420D01*
X6565420Y2263301D01*
X6526947Y2289008D01*
X12809583Y2289008D01*
X12809583Y2289003D01*
X12830064Y2146549D01*
X12889852Y2015634D01*
X12889853Y2015632D01*
X12918250Y1982860D01*
X12984103Y1906861D01*
X12992380Y1901542D01*
X13105177Y1829052D01*
X13211633Y1797794D01*
X13243265Y1788506D01*
X13243266Y1788506D01*
X13243269Y1788505D01*
X13243271Y1788505D01*
X13387189Y1788505D01*
X13387191Y1788505D01*
X13525283Y1829052D01*
X13646358Y1906862D01*
X13740607Y2015632D01*
X13800395Y2146548D01*
X13817181Y2263298D01*
X13820877Y2289003D01*
X13820877Y2289008D01*
X13800395Y2431462D01*
X13777106Y2482457D01*
X13740607Y2562378D01*
X13646358Y2671148D01*
X13646357Y2671149D01*
X13646356Y2671150D01*
X13525287Y2748956D01*
X13525284Y2748958D01*
X13525283Y2748958D01*
X13525280Y2748959D01*
X13387194Y2789505D01*
X13387191Y2789505D01*
X13243269Y2789505D01*
X13243265Y2789505D01*
X13105179Y2748959D01*
X13105172Y2748956D01*
X12984103Y2671150D01*
X12889852Y2562377D01*
X12830064Y2431462D01*
X12809583Y2289008D01*
X6526947Y2289008D01*
X6443269Y2344920D01*
X6443268Y2344921D01*
X6443266Y2344922D01*
X6307542Y2401140D01*
X6206757Y2421187D01*
X6153373Y2451084D01*
X6127757Y2506649D01*
X6134599Y2550331D01*
X6133171Y2550750D01*
X6135165Y2557544D01*
X6155647Y2699998D01*
X6155647Y2700003D01*
X6135165Y2842457D01*
X6133171Y2849250D01*
X6134965Y2849778D01*
X6129041Y2901366D01*
X6159122Y2954646D01*
X6206755Y2978813D01*
X6307542Y2998860D01*
X6443269Y3055080D01*
X6565420Y3136699D01*
X6669301Y3240580D01*
X6750920Y3362731D01*
X6807140Y3498458D01*
X6835800Y3642545D01*
X6835800Y3789455D01*
X6807140Y3933542D01*
X6750921Y4069267D01*
X6750921Y4069268D01*
X6718454Y4117857D01*
X6669301Y4191420D01*
X6565420Y4295301D01*
X6466026Y4361714D01*
X14309453Y4361714D01*
X14309453Y4361709D01*
X14329934Y4219255D01*
X14346870Y4182172D01*
X14389723Y4088338D01*
X14466700Y3999501D01*
X14483973Y3979567D01*
X14605042Y3901761D01*
X14605047Y3901758D01*
X14711503Y3870500D01*
X14743135Y3861212D01*
X14743136Y3861212D01*
X14743139Y3861211D01*
X14743141Y3861211D01*
X14887059Y3861211D01*
X14887061Y3861211D01*
X15025153Y3901758D01*
X15146228Y3979568D01*
X15240477Y4088338D01*
X15300265Y4219254D01*
X15310572Y4290943D01*
X15320747Y4361709D01*
X15320747Y4361714D01*
X15300265Y4504168D01*
X15240477Y4635083D01*
X15240477Y4635084D01*
X15146228Y4743854D01*
X15146227Y4743855D01*
X15146226Y4743856D01*
X15025157Y4821662D01*
X15025154Y4821664D01*
X15025153Y4821664D01*
X15025150Y4821665D01*
X14887064Y4862211D01*
X14887061Y4862211D01*
X14743139Y4862211D01*
X14743135Y4862211D01*
X14605049Y4821665D01*
X14605042Y4821662D01*
X14483973Y4743856D01*
X14389722Y4635083D01*
X14329934Y4504168D01*
X14309453Y4361714D01*
X6466026Y4361714D01*
X6443269Y4376920D01*
X6443268Y4376921D01*
X6443266Y4376922D01*
X6307542Y4433140D01*
X6163457Y4461800D01*
X6163455Y4461800D01*
X6016545Y4461800D01*
X6016542Y4461800D01*
X5872458Y4433140D01*
X5872456Y4433140D01*
X5736733Y4376922D01*
X5736732Y4376922D01*
X5614580Y4295301D01*
X5614576Y4295298D01*
X5510702Y4191424D01*
X5510699Y4191420D01*
X5429078Y4069268D01*
X5429078Y4069267D01*
X5372860Y3933544D01*
X5372860Y3933542D01*
X5344200Y3789458D01*
X5344200Y3642543D01*
X5372860Y3498459D01*
X5372860Y3498457D01*
X5429078Y3362734D01*
X5429078Y3362733D01*
X5471141Y3299783D01*
X5487750Y3240895D01*
X5466573Y3183491D01*
X5442349Y3161497D01*
X5318873Y3082145D01*
X5224622Y2973372D01*
X5164834Y2842457D01*
X5144353Y2700003D01*
X1755800Y2700003D01*
X1755800Y2773455D01*
X1727140Y2917542D01*
X1670921Y3053267D01*
X1670921Y3053268D01*
X1619159Y3130734D01*
X1589301Y3175420D01*
X1485420Y3279301D01*
X1363269Y3360920D01*
X1363268Y3360921D01*
X1363266Y3360922D01*
X1227542Y3417140D01*
X1083457Y3445800D01*
X1083455Y3445800D01*
X936545Y3445800D01*
X936542Y3445800D01*
X792458Y3417140D01*
X792456Y3417140D01*
X656733Y3360922D01*
X656732Y3360922D01*
X534580Y3279301D01*
X534576Y3279298D01*
X430702Y3175424D01*
X430699Y3175420D01*
X349078Y3053268D01*
X349078Y3053267D01*
X292860Y2917544D01*
X292860Y2917542D01*
X264200Y2773458D01*
X0Y2773458D01*
X0Y4385020D01*
X878642Y4385020D01*
X878642Y4385015D01*
X899123Y4242561D01*
X956075Y4117856D01*
X958912Y4111644D01*
X1044813Y4012508D01*
X1053162Y4002873D01*
X1161044Y3933542D01*
X1174236Y3925064D01*
X1253600Y3901761D01*
X1312324Y3884518D01*
X1312325Y3884518D01*
X1312328Y3884517D01*
X1312330Y3884517D01*
X1456248Y3884517D01*
X1456250Y3884517D01*
X1538961Y3908803D01*
X2244689Y3908803D01*
X2244689Y3908798D01*
X2265170Y3766344D01*
X2292024Y3707543D01*
X2324959Y3635427D01*
X2375909Y3576627D01*
X2419209Y3526656D01*
X2538489Y3450000D01*
X2540283Y3448847D01*
X2635875Y3420779D01*
X2678371Y3408301D01*
X2678372Y3408301D01*
X2678375Y3408300D01*
X2678377Y3408300D01*
X2822295Y3408300D01*
X2822297Y3408300D01*
X2960389Y3448847D01*
X3081464Y3526657D01*
X3175713Y3635427D01*
X3235501Y3766343D01*
X3255983Y3908800D01*
X3254478Y3919265D01*
X3235501Y4051257D01*
X3227276Y4069267D01*
X3175713Y4182173D01*
X3081464Y4290943D01*
X3081463Y4290944D01*
X3081462Y4290945D01*
X2960393Y4368751D01*
X2960390Y4368753D01*
X2960389Y4368753D01*
X2960386Y4368754D01*
X2822300Y4409300D01*
X2822297Y4409300D01*
X2678375Y4409300D01*
X2678371Y4409300D01*
X2540285Y4368754D01*
X2540278Y4368751D01*
X2419209Y4290945D01*
X2324958Y4182172D01*
X2265170Y4051257D01*
X2244689Y3908803D01*
X1538961Y3908803D01*
X1594342Y3925064D01*
X1715417Y4002874D01*
X1809666Y4111644D01*
X1869454Y4242560D01*
X1876411Y4290945D01*
X1889936Y4385015D01*
X1889936Y4385020D01*
X1869454Y4527474D01*
X1820310Y4635083D01*
X1809666Y4658390D01*
X1760709Y4714890D01*
X1736891Y4771249D01*
X1750750Y4830845D01*
X1760702Y4844543D01*
X1810166Y4901627D01*
X1869954Y5032543D01*
X1890436Y5175000D01*
X1886913Y5199500D01*
X1869954Y5317457D01*
X1816547Y5434400D01*
X1810166Y5448373D01*
X1715917Y5557143D01*
X1715916Y5557144D01*
X1715915Y5557145D01*
X1594846Y5634951D01*
X1594843Y5634953D01*
X1594842Y5634953D01*
X1594839Y5634954D01*
X1456753Y5675500D01*
X1456750Y5675500D01*
X1312828Y5675500D01*
X1312824Y5675500D01*
X1174738Y5634954D01*
X1174731Y5634951D01*
X1053662Y5557145D01*
X959411Y5448372D01*
X899623Y5317457D01*
X879142Y5175003D01*
X879142Y5174998D01*
X899623Y5032544D01*
X944236Y4934858D01*
X959412Y4901627D01*
X1008369Y4845127D01*
X1032186Y4788770D01*
X1018328Y4729175D01*
X1008369Y4715468D01*
X958912Y4658391D01*
X899123Y4527474D01*
X878642Y4385020D01*
X0Y4385020D01*
X0Y6052688D01*
X4571083Y6052688D01*
X4571083Y6052683D01*
X4591564Y5910229D01*
X4622515Y5842457D01*
X4651353Y5779312D01*
X4721025Y5698906D01*
X4745603Y5670541D01*
X4866672Y5592735D01*
X4866677Y5592732D01*
X4973133Y5561474D01*
X5004765Y5552186D01*
X5004766Y5552186D01*
X5004769Y5552185D01*
X5004771Y5552185D01*
X5148689Y5552185D01*
X5148691Y5552185D01*
X5286783Y5592732D01*
X5407858Y5670542D01*
X5413102Y5675086D01*
X5469460Y5698906D01*
X5529056Y5685051D01*
X5552756Y5665101D01*
X5555851Y5661530D01*
X5555852Y5661527D01*
X5620406Y5587027D01*
X5650102Y5552756D01*
X5766027Y5478256D01*
X5771176Y5474947D01*
X5861680Y5448373D01*
X5909264Y5434401D01*
X5909265Y5434401D01*
X5909268Y5434400D01*
X5909270Y5434400D01*
X6053188Y5434400D01*
X6053190Y5434400D01*
X6191282Y5474947D01*
X6312357Y5552757D01*
X6406606Y5661527D01*
X6466394Y5792443D01*
X6476165Y5860403D01*
X9719753Y5860403D01*
X9719753Y5860398D01*
X9740234Y5717944D01*
X9800022Y5587029D01*
X9800023Y5587027D01*
X9894272Y5478257D01*
X9894273Y5478256D01*
X9940774Y5448372D01*
X10015347Y5400447D01*
X10121803Y5369189D01*
X10153435Y5359901D01*
X10153436Y5359901D01*
X10153439Y5359900D01*
X10153441Y5359900D01*
X10297359Y5359900D01*
X10297361Y5359900D01*
X10435453Y5400447D01*
X10556528Y5478257D01*
X10650777Y5587027D01*
X10702372Y5700003D01*
X11751150Y5700003D01*
X11751150Y5699998D01*
X11771631Y5557544D01*
X11821489Y5448373D01*
X11831420Y5426627D01*
X11889238Y5359901D01*
X11925670Y5317856D01*
X11926291Y5317457D01*
X12046744Y5240047D01*
X12153200Y5208789D01*
X12184832Y5199501D01*
X12184833Y5199501D01*
X12184836Y5199500D01*
X12184838Y5199500D01*
X12328756Y5199500D01*
X12328758Y5199500D01*
X12466850Y5240047D01*
X12587925Y5317857D01*
X12682174Y5426627D01*
X12741962Y5557543D01*
X12750704Y5618348D01*
X12762444Y5699998D01*
X12762444Y5700003D01*
X12741962Y5842457D01*
X12682174Y5973373D01*
X12587925Y6082143D01*
X12587924Y6082144D01*
X12587923Y6082145D01*
X12466854Y6159951D01*
X12466851Y6159953D01*
X12466850Y6159953D01*
X12466847Y6159954D01*
X12328761Y6200500D01*
X12328758Y6200500D01*
X12184836Y6200500D01*
X12184832Y6200500D01*
X12046746Y6159954D01*
X12046739Y6159951D01*
X11925670Y6082145D01*
X11831419Y5973372D01*
X11771631Y5842457D01*
X11751150Y5700003D01*
X10702372Y5700003D01*
X10710565Y5717943D01*
X10731047Y5860400D01*
X10710565Y6002857D01*
X10650777Y6133773D01*
X10556528Y6242543D01*
X10556527Y6242544D01*
X10556526Y6242545D01*
X10435457Y6320351D01*
X10435454Y6320353D01*
X10435453Y6320353D01*
X10435450Y6320354D01*
X10297364Y6360900D01*
X10297361Y6360900D01*
X10153439Y6360900D01*
X10153435Y6360900D01*
X10015349Y6320354D01*
X10015342Y6320351D01*
X9894273Y6242545D01*
X9800022Y6133772D01*
X9740234Y6002857D01*
X9719753Y5860403D01*
X6476165Y5860403D01*
X6483329Y5910229D01*
X6486876Y5934898D01*
X6486876Y5934903D01*
X6466394Y6077357D01*
X6428673Y6159954D01*
X6406606Y6208273D01*
X6312357Y6317043D01*
X6312356Y6317044D01*
X6312355Y6317045D01*
X6191286Y6394851D01*
X6191283Y6394853D01*
X6191282Y6394853D01*
X6191279Y6394854D01*
X6053193Y6435400D01*
X6053190Y6435400D01*
X5909268Y6435400D01*
X5909264Y6435400D01*
X5771178Y6394854D01*
X5771171Y6394851D01*
X5650101Y6317044D01*
X5644853Y6312496D01*
X5588494Y6288679D01*
X5528899Y6302538D01*
X5505204Y6322485D01*
X5407859Y6434827D01*
X5407857Y6434829D01*
X5286787Y6512636D01*
X5286784Y6512638D01*
X5286783Y6512638D01*
X5286780Y6512639D01*
X5148694Y6553185D01*
X5148691Y6553185D01*
X5004769Y6553185D01*
X5004765Y6553185D01*
X4866679Y6512639D01*
X4866672Y6512636D01*
X4745603Y6434830D01*
X4651352Y6326057D01*
X4591564Y6195142D01*
X4571083Y6052688D01*
X0Y6052688D01*
X0Y7285985D01*
X9131021Y7285985D01*
X9131021Y7285980D01*
X9151502Y7143526D01*
X9211290Y7012611D01*
X9211291Y7012609D01*
X9304534Y6905000D01*
X9305541Y6903838D01*
X9408792Y6837483D01*
X9426615Y6826029D01*
X9533071Y6794771D01*
X9564703Y6785483D01*
X9564704Y6785483D01*
X9564707Y6785482D01*
X9564709Y6785482D01*
X9708627Y6785482D01*
X9708629Y6785482D01*
X9846721Y6826029D01*
X9967796Y6903839D01*
X10062045Y7012609D01*
X10121833Y7143525D01*
X10132775Y7219628D01*
X10142918Y7290171D01*
X10169914Y7345079D01*
X10224028Y7373632D01*
X10240910Y7375082D01*
X10298227Y7375082D01*
X10298229Y7375082D01*
X10404875Y7406396D01*
X10466032Y7404649D01*
X10514485Y7367286D01*
X10522817Y7352533D01*
X10523251Y7351583D01*
X10611257Y7250018D01*
X10617501Y7242812D01*
X10738570Y7165006D01*
X10738575Y7165003D01*
X10845031Y7133745D01*
X10876663Y7124457D01*
X10876664Y7124457D01*
X10876667Y7124456D01*
X10876669Y7124456D01*
X11020587Y7124456D01*
X11020589Y7124456D01*
X11158681Y7165003D01*
X11279756Y7242813D01*
X11374005Y7351583D01*
X11433793Y7482499D01*
X11447378Y7576988D01*
X11454275Y7624954D01*
X11454275Y7624959D01*
X11433793Y7767413D01*
X11419215Y7799334D01*
X11374005Y7898329D01*
X11279756Y8007099D01*
X11279755Y8007100D01*
X11279754Y8007101D01*
X11158685Y8084907D01*
X11158682Y8084909D01*
X11158681Y8084909D01*
X11158678Y8084910D01*
X11020592Y8125456D01*
X11020589Y8125456D01*
X10876667Y8125456D01*
X10876663Y8125456D01*
X10770022Y8094143D01*
X10708862Y8095891D01*
X10660409Y8133254D01*
X10652080Y8148001D01*
X10651645Y8148955D01*
X10557396Y8257725D01*
X10557395Y8257726D01*
X10557394Y8257727D01*
X10436325Y8335533D01*
X10436322Y8335535D01*
X10436321Y8335535D01*
X10436318Y8335536D01*
X10298232Y8376082D01*
X10298229Y8376082D01*
X10154307Y8376082D01*
X10154303Y8376082D01*
X10016217Y8335536D01*
X10016210Y8335533D01*
X9895141Y8257727D01*
X9800890Y8148954D01*
X9741102Y8018039D01*
X9720018Y7871393D01*
X9693022Y7816485D01*
X9638908Y7787932D01*
X9622026Y7786482D01*
X9564703Y7786482D01*
X9426617Y7745936D01*
X9426610Y7745933D01*
X9305541Y7668127D01*
X9211290Y7559354D01*
X9151502Y7428439D01*
X9131021Y7285985D01*
X0Y7285985D01*
X0Y7801000D01*
X18907Y7859191D01*
X68407Y7895155D01*
X99000Y7900000D01*
X217481Y7900000D01*
X224476Y7899500D01*
X228039Y7899500D01*
X375524Y7899500D01*
X382519Y7900000D01*
X449999Y7900000D01*
X450000Y7900000D01*
X450000Y7900001D01*
X463863Y7913864D01*
X505975Y7938850D01*
X510053Y7940047D01*
X631128Y8017857D01*
X725377Y8126627D01*
X785165Y8257543D01*
X796378Y8335533D01*
X805647Y8399998D01*
X805647Y8400003D01*
X803000Y8418416D01*
X13150940Y8418416D01*
X13150940Y8418411D01*
X13171421Y8275957D01*
X13229853Y8148011D01*
X13231210Y8145040D01*
X13308146Y8056251D01*
X13325460Y8036269D01*
X13380438Y8000937D01*
X13446534Y7958460D01*
X13552990Y7927202D01*
X13584622Y7917914D01*
X13584623Y7917914D01*
X13584626Y7917913D01*
X13584628Y7917913D01*
X13728546Y7917913D01*
X13728548Y7917913D01*
X13866640Y7958460D01*
X13987715Y8036270D01*
X14081964Y8145040D01*
X14141752Y8275956D01*
X14157835Y8387816D01*
X14162234Y8418411D01*
X14162234Y8418416D01*
X14141752Y8560870D01*
X14081964Y8691786D01*
X13987715Y8800556D01*
X13987714Y8800557D01*
X13987713Y8800558D01*
X13866644Y8878364D01*
X13866641Y8878366D01*
X13866640Y8878366D01*
X13866637Y8878367D01*
X13728551Y8918913D01*
X13728548Y8918913D01*
X13584626Y8918913D01*
X13584622Y8918913D01*
X13446536Y8878367D01*
X13446529Y8878364D01*
X13325460Y8800558D01*
X13231209Y8691785D01*
X13171421Y8560870D01*
X13150940Y8418416D01*
X803000Y8418416D01*
X785165Y8542457D01*
X776756Y8560870D01*
X725377Y8673373D01*
X671828Y8735172D01*
X648012Y8791527D01*
X661870Y8851123D01*
X671820Y8864820D01*
X725377Y8926627D01*
X785165Y9057543D01*
X792941Y9111630D01*
X805647Y9199998D01*
X805647Y9200003D01*
X785165Y9342457D01*
X725377Y9473373D01*
X671828Y9535172D01*
X648012Y9591527D01*
X661870Y9651123D01*
X671820Y9664820D01*
X676822Y9670592D01*
X9714942Y9670592D01*
X9714942Y9670587D01*
X9735423Y9528133D01*
X9764414Y9464653D01*
X9795212Y9397216D01*
X9842661Y9342457D01*
X9889462Y9288445D01*
X9960886Y9242544D01*
X10010536Y9210636D01*
X10116992Y9179378D01*
X10148624Y9170090D01*
X10148625Y9170090D01*
X10148628Y9170089D01*
X10148630Y9170089D01*
X10292548Y9170089D01*
X10292550Y9170089D01*
X10430642Y9210636D01*
X10551717Y9288446D01*
X10635384Y9385004D01*
X12239565Y9385004D01*
X12239565Y9384999D01*
X12260046Y9242545D01*
X12274619Y9210636D01*
X12319835Y9111628D01*
X12366699Y9057544D01*
X12414085Y9002857D01*
X12532699Y8926629D01*
X12535159Y8925048D01*
X12641615Y8893790D01*
X12673247Y8884502D01*
X12673248Y8884502D01*
X12673251Y8884501D01*
X12673253Y8884501D01*
X12817171Y8884501D01*
X12817173Y8884501D01*
X12955265Y8925048D01*
X13076340Y9002858D01*
X13077939Y9004703D01*
X17140690Y9004703D01*
X17140690Y9004698D01*
X17161171Y8862244D01*
X17219206Y8735168D01*
X17220960Y8731327D01*
X17271177Y8673373D01*
X17315210Y8622556D01*
X17411196Y8560870D01*
X17436284Y8544747D01*
X17542740Y8513489D01*
X17574372Y8504201D01*
X17574373Y8504201D01*
X17574376Y8504200D01*
X17574378Y8504200D01*
X17718296Y8504200D01*
X17718298Y8504200D01*
X17856390Y8544747D01*
X17977465Y8622557D01*
X18071714Y8731327D01*
X18131502Y8862243D01*
X18151984Y9004700D01*
X18144386Y9057543D01*
X18131502Y9147157D01*
X18102510Y9210639D01*
X18071714Y9278073D01*
X17977465Y9386843D01*
X17977464Y9386844D01*
X17977463Y9386845D01*
X17856394Y9464651D01*
X17856391Y9464653D01*
X17856390Y9464653D01*
X17856387Y9464654D01*
X17718301Y9505200D01*
X17718298Y9505200D01*
X17574376Y9505200D01*
X17574372Y9505200D01*
X17436286Y9464654D01*
X17436279Y9464651D01*
X17315210Y9386845D01*
X17220959Y9278072D01*
X17161171Y9147157D01*
X17140690Y9004703D01*
X13077939Y9004703D01*
X13170589Y9111628D01*
X13230377Y9242544D01*
X13250859Y9385001D01*
X13250594Y9386843D01*
X13230377Y9527458D01*
X13197248Y9600000D01*
X13170589Y9658374D01*
X13076340Y9767144D01*
X13076339Y9767145D01*
X13076338Y9767146D01*
X12955269Y9844952D01*
X12955266Y9844954D01*
X12955265Y9844954D01*
X12955262Y9844955D01*
X12817176Y9885501D01*
X12817173Y9885501D01*
X12673251Y9885501D01*
X12673247Y9885501D01*
X12535161Y9844955D01*
X12535154Y9844952D01*
X12414085Y9767146D01*
X12319834Y9658373D01*
X12260046Y9527458D01*
X12239565Y9385004D01*
X10635384Y9385004D01*
X10645966Y9397216D01*
X10705754Y9528132D01*
X10724480Y9658374D01*
X10726236Y9670587D01*
X10726236Y9670592D01*
X10705754Y9813046D01*
X10672939Y9884899D01*
X10645966Y9943962D01*
X10551717Y10052732D01*
X10551716Y10052733D01*
X10551715Y10052734D01*
X10547873Y10055203D01*
X13534353Y10055203D01*
X13534353Y10055198D01*
X13554834Y9912744D01*
X13609343Y9793388D01*
X13614623Y9781827D01*
X13627346Y9767144D01*
X13708873Y9673056D01*
X13743002Y9651123D01*
X13829947Y9595247D01*
X13936403Y9563989D01*
X13968035Y9554701D01*
X13968036Y9554701D01*
X13968039Y9554700D01*
X13968041Y9554700D01*
X14111959Y9554700D01*
X14111961Y9554700D01*
X14250053Y9595247D01*
X14371128Y9673057D01*
X14465377Y9781827D01*
X14525165Y9912743D01*
X14537711Y10000003D01*
X14545647Y10055198D01*
X14545647Y10055203D01*
X14525165Y10197657D01*
X14492183Y10269876D01*
X14465377Y10328573D01*
X14371128Y10437343D01*
X14371127Y10437344D01*
X14371126Y10437345D01*
X14250057Y10515151D01*
X14250054Y10515153D01*
X14250053Y10515153D01*
X14250050Y10515154D01*
X14111964Y10555700D01*
X14111961Y10555700D01*
X13968039Y10555700D01*
X13968035Y10555700D01*
X13829949Y10515154D01*
X13829942Y10515151D01*
X13708873Y10437345D01*
X13614622Y10328572D01*
X13554834Y10197657D01*
X13534353Y10055203D01*
X10547873Y10055203D01*
X10430646Y10130540D01*
X10430643Y10130542D01*
X10430642Y10130542D01*
X10430639Y10130543D01*
X10292553Y10171089D01*
X10292550Y10171089D01*
X10148628Y10171089D01*
X10148624Y10171089D01*
X10010538Y10130543D01*
X10010531Y10130540D01*
X9889462Y10052734D01*
X9795211Y9943961D01*
X9735423Y9813046D01*
X9714942Y9670592D01*
X676822Y9670592D01*
X725377Y9726627D01*
X785165Y9857543D01*
X793102Y9912744D01*
X805647Y9999998D01*
X805647Y10000003D01*
X785165Y10142457D01*
X772089Y10171089D01*
X725377Y10273373D01*
X671828Y10335172D01*
X648012Y10391527D01*
X661870Y10451123D01*
X671820Y10464820D01*
X725377Y10526627D01*
X745186Y10570003D01*
X2244730Y10570003D01*
X2244730Y10569998D01*
X2265211Y10427544D01*
X2310411Y10328572D01*
X2325000Y10296627D01*
X2419249Y10187857D01*
X2419250Y10187856D01*
X2508433Y10130542D01*
X2540324Y10110047D01*
X2646780Y10078789D01*
X2678412Y10069501D01*
X2678413Y10069501D01*
X2678416Y10069500D01*
X2678418Y10069500D01*
X2822336Y10069500D01*
X2822338Y10069500D01*
X2960430Y10110047D01*
X3081505Y10187857D01*
X3175754Y10296627D01*
X3235542Y10427543D01*
X3248138Y10515153D01*
X3256024Y10569998D01*
X3256024Y10570003D01*
X3247702Y10627880D01*
X4052993Y10627880D01*
X4052993Y10627875D01*
X4073474Y10485421D01*
X4133262Y10354506D01*
X4133263Y10354504D01*
X4194386Y10283964D01*
X4227513Y10245733D01*
X4317572Y10187856D01*
X4348587Y10167924D01*
X4435321Y10142457D01*
X4486675Y10127378D01*
X4486676Y10127378D01*
X4486679Y10127377D01*
X4486681Y10127377D01*
X4630599Y10127377D01*
X4630601Y10127377D01*
X4768693Y10167924D01*
X4889768Y10245734D01*
X4984017Y10354504D01*
X4998127Y10385401D01*
X5419353Y10385401D01*
X5419353Y10385396D01*
X5439834Y10242942D01*
X5472649Y10171089D01*
X5499623Y10112025D01*
X5551789Y10051822D01*
X5593873Y10003254D01*
X5624507Y9983567D01*
X5714947Y9925445D01*
X5821403Y9894187D01*
X5853035Y9884899D01*
X5853036Y9884899D01*
X5853039Y9884898D01*
X5853041Y9884898D01*
X5996959Y9884898D01*
X5996961Y9884898D01*
X6135053Y9925445D01*
X6256128Y10003255D01*
X6350377Y10112025D01*
X6410165Y10242941D01*
X6426205Y10354504D01*
X6430647Y10385396D01*
X6430647Y10385401D01*
X6410165Y10527855D01*
X6394788Y10561526D01*
X6350377Y10658771D01*
X6256128Y10767541D01*
X6256127Y10767542D01*
X6256126Y10767543D01*
X6135057Y10845349D01*
X6135054Y10845351D01*
X6135053Y10845351D01*
X6135050Y10845352D01*
X5996964Y10885898D01*
X5996961Y10885898D01*
X5853039Y10885898D01*
X5853035Y10885898D01*
X5714949Y10845352D01*
X5714942Y10845349D01*
X5593873Y10767543D01*
X5499622Y10658770D01*
X5439834Y10527855D01*
X5419353Y10385401D01*
X4998127Y10385401D01*
X5043805Y10485420D01*
X5062107Y10612714D01*
X5064287Y10627875D01*
X5064287Y10627880D01*
X5043805Y10770334D01*
X5009546Y10845349D01*
X4984017Y10901250D01*
X4889768Y11010020D01*
X4889767Y11010021D01*
X4889766Y11010022D01*
X4768697Y11087828D01*
X4768694Y11087830D01*
X4768693Y11087830D01*
X4768690Y11087831D01*
X4650789Y11122450D01*
X11222309Y11122450D01*
X11222309Y11122445D01*
X11242790Y10979991D01*
X11301060Y10852400D01*
X11302579Y10849074D01*
X11373227Y10767541D01*
X11396829Y10740303D01*
X11491489Y10679469D01*
X11517903Y10662494D01*
X11624359Y10631236D01*
X11655991Y10621948D01*
X11655992Y10621948D01*
X11655995Y10621947D01*
X11655997Y10621947D01*
X11799915Y10621947D01*
X11799917Y10621947D01*
X11938009Y10662494D01*
X11974758Y10686112D01*
X12033931Y10701667D01*
X12090948Y10679469D01*
X12103096Y10667664D01*
X12137573Y10627875D01*
X12150711Y10612713D01*
X12269342Y10536474D01*
X12271785Y10534904D01*
X12378241Y10503646D01*
X12409873Y10494358D01*
X12409874Y10494358D01*
X12409877Y10494357D01*
X12409879Y10494357D01*
X12553797Y10494357D01*
X12553799Y10494357D01*
X12691891Y10534904D01*
X12812966Y10612714D01*
X12907215Y10721484D01*
X12967003Y10852400D01*
X12981344Y10952145D01*
X12987485Y10994855D01*
X12987485Y10994860D01*
X12967003Y11137314D01*
X12942244Y11191527D01*
X12907215Y11268230D01*
X12812966Y11377000D01*
X12812965Y11377001D01*
X12812964Y11377002D01*
X12691895Y11454808D01*
X12691892Y11454810D01*
X12691891Y11454810D01*
X12691888Y11454811D01*
X12553802Y11495357D01*
X12553799Y11495357D01*
X12409877Y11495357D01*
X12409873Y11495357D01*
X12271786Y11454811D01*
X12235034Y11431192D01*
X12175858Y11415639D01*
X12118842Y11437838D01*
X12106697Y11449641D01*
X12059084Y11504590D01*
X12059083Y11504591D01*
X12059082Y11504592D01*
X11938013Y11582398D01*
X11938010Y11582400D01*
X11938009Y11582400D01*
X11938006Y11582401D01*
X11799920Y11622947D01*
X11799917Y11622947D01*
X11655995Y11622947D01*
X11655991Y11622947D01*
X11517905Y11582401D01*
X11517898Y11582398D01*
X11396829Y11504592D01*
X11302578Y11395819D01*
X11242790Y11264904D01*
X11222309Y11122450D01*
X4650789Y11122450D01*
X4630604Y11128377D01*
X4630601Y11128377D01*
X4486679Y11128377D01*
X4486675Y11128377D01*
X4348589Y11087831D01*
X4348582Y11087828D01*
X4227513Y11010022D01*
X4133262Y10901249D01*
X4073474Y10770334D01*
X4052993Y10627880D01*
X3247702Y10627880D01*
X3235542Y10712457D01*
X3231419Y10721486D01*
X3175754Y10843373D01*
X3081505Y10952143D01*
X3081504Y10952144D01*
X3081503Y10952145D01*
X2960434Y11029951D01*
X2960431Y11029953D01*
X2960430Y11029953D01*
X2960427Y11029954D01*
X2822341Y11070500D01*
X2822338Y11070500D01*
X2678416Y11070500D01*
X2678412Y11070500D01*
X2540326Y11029954D01*
X2540319Y11029951D01*
X2419250Y10952145D01*
X2324999Y10843372D01*
X2265211Y10712457D01*
X2244730Y10570003D01*
X745186Y10570003D01*
X785165Y10657543D01*
X800980Y10767541D01*
X805647Y10799998D01*
X805647Y10800003D01*
X785165Y10942457D01*
X725377Y11073373D01*
X671828Y11135172D01*
X648012Y11191527D01*
X661870Y11251123D01*
X671820Y11264820D01*
X725377Y11326627D01*
X785165Y11457543D01*
X803117Y11582401D01*
X805647Y11599998D01*
X805647Y11600003D01*
X785165Y11742457D01*
X780067Y11753620D01*
X725377Y11873373D01*
X705701Y11896080D01*
X14353707Y11896080D01*
X14353707Y11896075D01*
X14374188Y11753621D01*
X14400086Y11696914D01*
X14433977Y11622704D01*
X14514193Y11530129D01*
X14528227Y11513933D01*
X14646634Y11437838D01*
X14649301Y11436124D01*
X14755757Y11404866D01*
X14787389Y11395578D01*
X14787390Y11395578D01*
X14787393Y11395577D01*
X14787395Y11395577D01*
X14931313Y11395577D01*
X14931315Y11395577D01*
X15069407Y11436124D01*
X15123983Y11471198D01*
X15932239Y11471198D01*
X15932239Y11471193D01*
X15952720Y11328739D01*
X15980354Y11268230D01*
X16012509Y11197822D01*
X16106758Y11089052D01*
X16106759Y11089051D01*
X16198716Y11029954D01*
X16227833Y11011242D01*
X16334265Y10979991D01*
X16365921Y10970696D01*
X16365922Y10970696D01*
X16365925Y10970695D01*
X16365927Y10970695D01*
X16509845Y10970695D01*
X16509847Y10970695D01*
X16647939Y11011242D01*
X16769014Y11089052D01*
X16863263Y11197822D01*
X16923051Y11328738D01*
X16937339Y11428113D01*
X16943533Y11471193D01*
X16943533Y11471198D01*
X16923051Y11613652D01*
X16885026Y11696914D01*
X16863263Y11744568D01*
X16769014Y11853338D01*
X16769013Y11853339D01*
X16769012Y11853340D01*
X16647943Y11931146D01*
X16647940Y11931148D01*
X16647939Y11931148D01*
X16647936Y11931149D01*
X16509850Y11971695D01*
X16509847Y11971695D01*
X16365925Y11971695D01*
X16365921Y11971695D01*
X16227835Y11931149D01*
X16227828Y11931146D01*
X16106759Y11853340D01*
X16012508Y11744567D01*
X15952720Y11613652D01*
X15932239Y11471198D01*
X15123983Y11471198D01*
X15190482Y11513934D01*
X15284731Y11622704D01*
X15344519Y11753620D01*
X15358856Y11853338D01*
X15365001Y11896075D01*
X15365001Y11896080D01*
X15344519Y12038534D01*
X15322779Y12086137D01*
X15284731Y12169450D01*
X15273126Y12182843D01*
X15256964Y12201496D01*
X15233147Y12257855D01*
X15247006Y12317450D01*
X15256956Y12331147D01*
X15305377Y12387027D01*
X15365165Y12517943D01*
X15385647Y12660400D01*
X15365165Y12802857D01*
X15305377Y12933773D01*
X15211128Y13042543D01*
X15211127Y13042544D01*
X15211126Y13042545D01*
X15090057Y13120351D01*
X15090054Y13120353D01*
X15090053Y13120353D01*
X15090050Y13120354D01*
X14951964Y13160900D01*
X14951961Y13160900D01*
X14808039Y13160900D01*
X14808035Y13160900D01*
X14669949Y13120354D01*
X14669942Y13120351D01*
X14548873Y13042545D01*
X14454622Y12933772D01*
X14394834Y12802857D01*
X14374353Y12660403D01*
X14374353Y12660398D01*
X14394834Y12517944D01*
X14454623Y12387027D01*
X14482389Y12354982D01*
X14506206Y12298622D01*
X14492347Y12239027D01*
X14482389Y12225322D01*
X14433977Y12169451D01*
X14374188Y12038534D01*
X14353707Y11896080D01*
X705701Y11896080D01*
X631128Y11982143D01*
X631127Y11982144D01*
X631126Y11982145D01*
X510057Y12059951D01*
X510046Y12059956D01*
X505969Y12061153D01*
X463862Y12086137D01*
X450000Y12099999D01*
X450000Y12100000D01*
X449999Y12100000D01*
X382519Y12100000D01*
X375524Y12100500D01*
X371961Y12100500D01*
X228039Y12100500D01*
X224476Y12100500D01*
X217481Y12100000D01*
X99000Y12100000D01*
X40809Y12118907D01*
X4845Y12168407D01*
X0Y12199000D01*
X0Y12852313D01*
X1269759Y12852313D01*
X1269759Y12852308D01*
X1290240Y12709854D01*
X1350028Y12578939D01*
X1350029Y12578937D01*
X1444278Y12470167D01*
X1444279Y12470166D01*
X1565348Y12392360D01*
X1565353Y12392357D01*
X1671809Y12361099D01*
X1703441Y12351811D01*
X1703442Y12351811D01*
X1703445Y12351810D01*
X1703447Y12351810D01*
X1847365Y12351810D01*
X1847367Y12351810D01*
X1985459Y12392357D01*
X2106534Y12470167D01*
X2200783Y12578937D01*
X2260571Y12709853D01*
X2281053Y12852310D01*
X2260571Y12994767D01*
X2200783Y13125683D01*
X2106534Y13234453D01*
X2106533Y13234454D01*
X2106532Y13234455D01*
X1985463Y13312261D01*
X1985460Y13312263D01*
X1985459Y13312263D01*
X1985456Y13312264D01*
X1847370Y13352810D01*
X1847367Y13352810D01*
X1703445Y13352810D01*
X1703441Y13352810D01*
X1565355Y13312264D01*
X1565348Y13312261D01*
X1444279Y13234455D01*
X1350028Y13125682D01*
X1290240Y12994767D01*
X1269759Y12852313D01*
X0Y12852313D01*
X0Y13901000D01*
X18907Y13959191D01*
X68407Y13995155D01*
X99000Y14000000D01*
X24501000Y14000000D01*
X24559191Y13981093D01*
G37*
G04 #@! TD.AperFunction*
G04 #@! TD*
G04 #@! TA.AperFunction,Conductor*
G04 #@! TO.N,/LSU_H+*
G36*
X21879377Y12030315D02*
G01*
X21925132Y11977511D01*
X21935076Y11908353D01*
X21925132Y11874488D01*
X21864834Y11742457D01*
X21844353Y11600000D01*
X21864834Y11457544D01*
X21924621Y11326632D01*
X21924623Y11326627D01*
X22018872Y11217857D01*
X22139947Y11140047D01*
X22139950Y11140046D01*
X22139949Y11140046D01*
X22278036Y11099501D01*
X22278038Y11099500D01*
X22278039Y11099500D01*
X22421962Y11099500D01*
X22421962Y11099501D01*
X22560053Y11140047D01*
X22681128Y11217857D01*
X22775377Y11326627D01*
X22835165Y11457543D01*
X22855647Y11600000D01*
X22835165Y11742457D01*
X22775377Y11873373D01*
X22774868Y11874488D01*
X22764924Y11943647D01*
X22793949Y12007203D01*
X22852727Y12044977D01*
X22887662Y12050000D01*
X24025500Y12050000D01*
X24092539Y12030315D01*
X24138294Y11977511D01*
X24149500Y11926000D01*
X24149500Y7799334D01*
X24129815Y7732295D01*
X24077011Y7686540D01*
X24007853Y7676596D01*
X23990566Y7680357D01*
X23921964Y7700500D01*
X23921961Y7700500D01*
X23778039Y7700500D01*
X23778036Y7700500D01*
X23639949Y7659955D01*
X23518873Y7582144D01*
X23424623Y7473374D01*
X23424622Y7473372D01*
X23364834Y7342457D01*
X23344353Y7200000D01*
X23364834Y7057544D01*
X23424622Y6926629D01*
X23424623Y6926627D01*
X23518872Y6817857D01*
X23639947Y6740047D01*
X23639950Y6740046D01*
X23639949Y6740046D01*
X23778036Y6699501D01*
X23778038Y6699500D01*
X23778039Y6699500D01*
X23921961Y6699500D01*
X23990566Y6719644D01*
X24060434Y6719644D01*
X24119213Y6681870D01*
X24148238Y6618314D01*
X24149500Y6600667D01*
X24149500Y6074000D01*
X24129815Y6006961D01*
X24077011Y5961206D01*
X24025500Y5950000D01*
X23850000Y5950000D01*
X23850000Y4096432D01*
X23838795Y4044921D01*
X23814834Y3992455D01*
X23814834Y3992453D01*
X23794353Y3850000D01*
X23814834Y3707547D01*
X23814834Y3707545D01*
X23814835Y3707543D01*
X23838794Y3655080D01*
X23850000Y3603570D01*
X23850000Y3296432D01*
X23838795Y3244921D01*
X23814834Y3192455D01*
X23814834Y3192453D01*
X23794353Y3050000D01*
X23814834Y2907547D01*
X23814834Y2907545D01*
X23814835Y2907543D01*
X23838794Y2855080D01*
X23850000Y2803570D01*
X23850000Y2496432D01*
X23838795Y2444921D01*
X23814834Y2392455D01*
X23814834Y2392453D01*
X23794353Y2250000D01*
X23814834Y2107547D01*
X23814834Y2107545D01*
X23814835Y2107543D01*
X23838794Y2055080D01*
X23850000Y2003570D01*
X23850000Y1696432D01*
X23838795Y1644921D01*
X23814834Y1592455D01*
X23814834Y1592453D01*
X23794353Y1450000D01*
X23811945Y1327636D01*
X23802001Y1258478D01*
X23756246Y1205674D01*
X23689206Y1185990D01*
X23654273Y1191013D01*
X23621963Y1200500D01*
X23621961Y1200500D01*
X23478039Y1200500D01*
X23478036Y1200500D01*
X23339949Y1159955D01*
X23218873Y1082144D01*
X23141454Y992797D01*
X23082676Y955023D01*
X23047741Y950000D01*
X18349382Y950000D01*
X18282343Y969685D01*
X18236588Y1022489D01*
X18226644Y1056353D01*
X18220563Y1098648D01*
X18220561Y1098652D01*
X18211205Y1119141D01*
X18200000Y1170651D01*
X18200000Y1506337D01*
X18211205Y1557847D01*
X18220563Y1578337D01*
X18241045Y1720794D01*
X18220563Y1863251D01*
X18219109Y1866433D01*
X18211205Y1883744D01*
X18200000Y1935254D01*
X18200000Y2270940D01*
X18211205Y2322450D01*
X18220563Y2342940D01*
X18241045Y2485397D01*
X18220563Y2627854D01*
X18218604Y2632143D01*
X18211205Y2648347D01*
X18200000Y2699857D01*
X18200000Y3035543D01*
X18211205Y3087053D01*
X18220563Y3107543D01*
X18241045Y3250000D01*
X18220563Y3392457D01*
X18219109Y3395639D01*
X18211205Y3412950D01*
X18200000Y3464460D01*
X18200000Y4263646D01*
X18211206Y4315158D01*
X18230563Y4357543D01*
X18251045Y4500000D01*
X18230563Y4642457D01*
X18228457Y4647069D01*
X18211206Y4684844D01*
X18200000Y4736355D01*
X18200000Y5320943D01*
X18211205Y5372453D01*
X18220563Y5392943D01*
X18241045Y5535400D01*
X18220563Y5677857D01*
X18219109Y5681039D01*
X18211205Y5698350D01*
X18200000Y5749860D01*
X18200000Y7876000D01*
X18219685Y7943039D01*
X18272489Y7988794D01*
X18324000Y8000000D01*
X18488238Y8000000D01*
X18530288Y7990852D01*
X18530515Y7991623D01*
X18677114Y7948579D01*
X18677116Y7948578D01*
X18722733Y7948578D01*
X18789772Y7928893D01*
X18835527Y7876089D01*
X18845471Y7842225D01*
X18864834Y7707544D01*
X18912821Y7602470D01*
X18924623Y7576627D01*
X19018872Y7467857D01*
X19139947Y7390047D01*
X19139950Y7390046D01*
X19139949Y7390046D01*
X19278036Y7349501D01*
X19278038Y7349500D01*
X19278039Y7349500D01*
X19421962Y7349500D01*
X19421962Y7349501D01*
X19560053Y7390047D01*
X19681128Y7467857D01*
X19775377Y7576627D01*
X19835165Y7707543D01*
X19855647Y7850000D01*
X19835165Y7992457D01*
X19779161Y8115086D01*
X19769218Y8184242D01*
X19798243Y8247798D01*
X19804248Y8254249D01*
X20250000Y8700000D01*
X20250000Y9793388D01*
X20269685Y9860427D01*
X20280281Y9874584D01*
X20325377Y9926627D01*
X20385165Y10057543D01*
X20405647Y10200000D01*
X20385165Y10342457D01*
X20325377Y10473373D01*
X20325370Y10473381D01*
X20320582Y10480833D01*
X20323108Y10482457D01*
X20300320Y10532326D01*
X20310248Y10601487D01*
X20321310Y10618700D01*
X20320582Y10619167D01*
X20325368Y10626618D01*
X20325377Y10626627D01*
X20385165Y10757543D01*
X20405647Y10900000D01*
X20385165Y11042457D01*
X20325377Y11173373D01*
X20325370Y11173381D01*
X20320582Y11180833D01*
X20323108Y11182457D01*
X20300320Y11232326D01*
X20310248Y11301487D01*
X20321310Y11318700D01*
X20320582Y11319167D01*
X20325368Y11326618D01*
X20325377Y11326627D01*
X20385165Y11457543D01*
X20405647Y11600000D01*
X20385165Y11742457D01*
X20325377Y11873373D01*
X20324868Y11874488D01*
X20314924Y11943647D01*
X20343949Y12007203D01*
X20402727Y12044977D01*
X20437662Y12050000D01*
X21812338Y12050000D01*
X21879377Y12030315D01*
G37*
G04 #@! TD.AperFunction*
G04 #@! TD*
M02*
