G04 #@! TF.GenerationSoftware,KiCad,Pcbnew,8.0.9*
G04 #@! TF.CreationDate,2026-03-22T21:59:09+03:00*
G04 #@! TF.ProjectId,hellen1-wbo,68656c6c-656e-4312-9d77-626f2e6b6963,0.6*
G04 #@! TF.SameCoordinates,PX4a25ef0PY5a995c0*
G04 #@! TF.FileFunction,Legend,Top*
G04 #@! TF.FilePolarity,Positive*
%FSLAX46Y46*%
G04 Gerber Fmt 4.6, Leading zero omitted, Abs format (unit mm)*
G04 Created by KiCad (PCBNEW 8.0.9) date 2026-03-22 21:59:09*
%MOMM*%
%LPD*%
G01*
G04 APERTURE LIST*
%ADD10C,0.150000*%
%ADD11C,0.120000*%
%ADD12C,0.200000*%
G04 APERTURE END LIST*
D10*
X17826191Y1595181D02*
X18064286Y595181D01*
X18064286Y595181D02*
X18254762Y1309467D01*
X18254762Y1309467D02*
X18445238Y595181D01*
X18445238Y595181D02*
X18683334Y1595181D01*
X19397619Y1118991D02*
X19540476Y1071372D01*
X19540476Y1071372D02*
X19588095Y1023753D01*
X19588095Y1023753D02*
X19635714Y928515D01*
X19635714Y928515D02*
X19635714Y785658D01*
X19635714Y785658D02*
X19588095Y690420D01*
X19588095Y690420D02*
X19540476Y642800D01*
X19540476Y642800D02*
X19445238Y595181D01*
X19445238Y595181D02*
X19064286Y595181D01*
X19064286Y595181D02*
X19064286Y1595181D01*
X19064286Y1595181D02*
X19397619Y1595181D01*
X19397619Y1595181D02*
X19492857Y1547562D01*
X19492857Y1547562D02*
X19540476Y1499943D01*
X19540476Y1499943D02*
X19588095Y1404705D01*
X19588095Y1404705D02*
X19588095Y1309467D01*
X19588095Y1309467D02*
X19540476Y1214229D01*
X19540476Y1214229D02*
X19492857Y1166610D01*
X19492857Y1166610D02*
X19397619Y1118991D01*
X19397619Y1118991D02*
X19064286Y1118991D01*
X20254762Y1595181D02*
X20445238Y1595181D01*
X20445238Y1595181D02*
X20540476Y1547562D01*
X20540476Y1547562D02*
X20635714Y1452324D01*
X20635714Y1452324D02*
X20683333Y1261848D01*
X20683333Y1261848D02*
X20683333Y928515D01*
X20683333Y928515D02*
X20635714Y738039D01*
X20635714Y738039D02*
X20540476Y642800D01*
X20540476Y642800D02*
X20445238Y595181D01*
X20445238Y595181D02*
X20254762Y595181D01*
X20254762Y595181D02*
X20159524Y642800D01*
X20159524Y642800D02*
X20064286Y738039D01*
X20064286Y738039D02*
X20016667Y928515D01*
X20016667Y928515D02*
X20016667Y1261848D01*
X20016667Y1261848D02*
X20064286Y1452324D01*
X20064286Y1452324D02*
X20159524Y1547562D01*
X20159524Y1547562D02*
X20254762Y1595181D01*
X22064286Y1595181D02*
X22159524Y1595181D01*
X22159524Y1595181D02*
X22254762Y1547562D01*
X22254762Y1547562D02*
X22302381Y1499943D01*
X22302381Y1499943D02*
X22350000Y1404705D01*
X22350000Y1404705D02*
X22397619Y1214229D01*
X22397619Y1214229D02*
X22397619Y976134D01*
X22397619Y976134D02*
X22350000Y785658D01*
X22350000Y785658D02*
X22302381Y690420D01*
X22302381Y690420D02*
X22254762Y642800D01*
X22254762Y642800D02*
X22159524Y595181D01*
X22159524Y595181D02*
X22064286Y595181D01*
X22064286Y595181D02*
X21969048Y642800D01*
X21969048Y642800D02*
X21921429Y690420D01*
X21921429Y690420D02*
X21873810Y785658D01*
X21873810Y785658D02*
X21826191Y976134D01*
X21826191Y976134D02*
X21826191Y1214229D01*
X21826191Y1214229D02*
X21873810Y1404705D01*
X21873810Y1404705D02*
X21921429Y1499943D01*
X21921429Y1499943D02*
X21969048Y1547562D01*
X21969048Y1547562D02*
X22064286Y1595181D01*
X22826191Y690420D02*
X22873810Y642800D01*
X22873810Y642800D02*
X22826191Y595181D01*
X22826191Y595181D02*
X22778572Y642800D01*
X22778572Y642800D02*
X22826191Y690420D01*
X22826191Y690420D02*
X22826191Y595181D01*
X23730952Y1595181D02*
X23540476Y1595181D01*
X23540476Y1595181D02*
X23445238Y1547562D01*
X23445238Y1547562D02*
X23397619Y1499943D01*
X23397619Y1499943D02*
X23302381Y1357086D01*
X23302381Y1357086D02*
X23254762Y1166610D01*
X23254762Y1166610D02*
X23254762Y785658D01*
X23254762Y785658D02*
X23302381Y690420D01*
X23302381Y690420D02*
X23350000Y642800D01*
X23350000Y642800D02*
X23445238Y595181D01*
X23445238Y595181D02*
X23635714Y595181D01*
X23635714Y595181D02*
X23730952Y642800D01*
X23730952Y642800D02*
X23778571Y690420D01*
X23778571Y690420D02*
X23826190Y785658D01*
X23826190Y785658D02*
X23826190Y1023753D01*
X23826190Y1023753D02*
X23778571Y1118991D01*
X23778571Y1118991D02*
X23730952Y1166610D01*
X23730952Y1166610D02*
X23635714Y1214229D01*
X23635714Y1214229D02*
X23445238Y1214229D01*
X23445238Y1214229D02*
X23350000Y1166610D01*
X23350000Y1166610D02*
X23302381Y1118991D01*
X23302381Y1118991D02*
X23254762Y1023753D01*
D11*
G04 #@! TO.C,Q600*
X24533163Y8787213D02*
X24533163Y5027213D01*
X17713163Y8787213D02*
X17713163Y5027213D01*
X24533163Y5027213D02*
X23273163Y5027213D01*
X17713163Y5027213D02*
X18973163Y5027213D01*
X23413163Y11257213D02*
X23173163Y11587213D01*
X23653163Y11587213D01*
X23413163Y11257213D01*
G36*
X23413163Y11257213D02*
G01*
X23173163Y11587213D01*
X23653163Y11587213D01*
X23413163Y11257213D01*
G37*
G04 #@! TO.C,M1*
D12*
X24500000Y13900000D02*
X100000Y13900000D01*
X100000Y100000D01*
X24500000Y100000D01*
X24500000Y13900000D01*
D11*
G04 #@! TO.C,C616*
X4665000Y7900279D02*
X4665000Y7574721D01*
X5685000Y7900279D02*
X5685000Y7574721D01*
G04 #@! TO.C,U604*
X1965000Y9155000D02*
X1965000Y8225000D01*
X1965000Y9155000D02*
X3425000Y9155000D01*
X1965000Y5995000D02*
X1965000Y6925000D01*
X1965000Y5995000D02*
X4125000Y5995000D01*
G04 #@! TO.C,D601*
X11975000Y615000D02*
X14260000Y615000D01*
X14260000Y2085000D02*
X11975000Y2085000D01*
X14260000Y615000D02*
X14260000Y2085000D01*
G04 #@! TO.C,D600*
X16965000Y13435000D02*
X16965000Y11965000D01*
X16965000Y11965000D02*
X19250000Y11965000D01*
X19250000Y13435000D02*
X16965000Y13435000D01*
G04 #@! TO.C,D602*
X8315000Y2085000D02*
X8315000Y615000D01*
X8315000Y615000D02*
X10600000Y615000D01*
X10600000Y2085000D02*
X8315000Y2085000D01*
G04 #@! TO.C,U602*
X7690000Y11660000D02*
X7690000Y11360000D01*
X7690000Y4440000D02*
X7690000Y4740000D01*
X7990000Y11660000D02*
X7690000Y11660000D01*
X7990000Y4440000D02*
X7690000Y4440000D01*
X14610000Y11660000D02*
X14910000Y11660000D01*
X14610000Y4440000D02*
X14910000Y4440000D01*
X14910000Y11660000D02*
X14910000Y11360000D01*
X14910000Y4740000D02*
X16225000Y4740000D01*
X14910000Y4440000D02*
X14910000Y4740000D01*
G04 #@! TO.C,U603*
X1095000Y12810000D02*
X1095000Y10650000D01*
X1095000Y12810000D02*
X2025000Y12810000D01*
X4255000Y12810000D02*
X3325000Y12810000D01*
X4255000Y12810000D02*
X4255000Y11350000D01*
G04 #@! TO.C,D603*
X4532550Y13665000D02*
X4532550Y11380000D01*
X6002550Y13665000D02*
X4532550Y13665000D01*
X6002550Y11380000D02*
X6002550Y13665000D01*
G04 #@! TO.C,J600*
X1645000Y1430000D02*
X1645000Y2065000D01*
X2280000Y1430000D02*
X1645000Y1430000D01*
G04 #@! TD*
M02*
