G04 #@! TF.GenerationSoftware,KiCad,Pcbnew,(6.0.8)*
G04 #@! TF.CreationDate,2023-04-03T16:58:02+03:00*
G04 #@! TF.ProjectId,hellen1-wbo,68656c6c-656e-4312-9d77-626f2e6b6963,0.3*
G04 #@! TF.SameCoordinates,PX4a19ba0PY5aa5910*
G04 #@! TF.FileFunction,Legend,Top*
G04 #@! TF.FilePolarity,Positive*
%FSLAX46Y46*%
G04 Gerber Fmt 4.6, Leading zero omitted, Abs format (unit mm)*
G04 Created by KiCad (PCBNEW (6.0.8)) date 2023-04-03 16:58:02*
%MOMM*%
%LPD*%
G01*
G04 APERTURE LIST*
%ADD10C,0.120000*%
%ADD11C,0.200000*%
%ADD12C,0.300000*%
G04 APERTURE END LIST*
D10*
G04 #@! TO.C,C616*
X5735000Y7950279D02*
X5735000Y7624721D01*
X4715000Y7950279D02*
X4715000Y7624721D01*
G04 #@! TO.C,U604*
X2015000Y9205000D02*
X2015000Y8275000D01*
X2015000Y6045000D02*
X4175000Y6045000D01*
X2015000Y6045000D02*
X2015000Y6975000D01*
X2015000Y9205000D02*
X3475000Y9205000D01*
G04 #@! TO.C,Q600*
X17980000Y8420000D02*
X17980000Y9520000D01*
X24610000Y6920000D02*
X24610000Y8420000D01*
X17710000Y8420000D02*
X17980000Y8420000D01*
X17710000Y6920000D02*
X17710000Y8420000D01*
X24340000Y8420000D02*
X24340000Y10950000D01*
X24610000Y8420000D02*
X24340000Y8420000D01*
G04 #@! TO.C,D601*
X12025000Y665000D02*
X14310000Y665000D01*
X14310000Y665000D02*
X14310000Y2135000D01*
X14310000Y2135000D02*
X12025000Y2135000D01*
G04 #@! TO.C,D600*
X24865000Y3525000D02*
X24865000Y1240000D01*
X26335000Y1240000D02*
X26335000Y3525000D01*
X24865000Y1240000D02*
X26335000Y1240000D01*
G04 #@! TO.C,D602*
X8365000Y2135000D02*
X8365000Y665000D01*
X10650000Y2135000D02*
X8365000Y2135000D01*
X8365000Y665000D02*
X10650000Y665000D01*
G04 #@! TO.C,U602*
X14960000Y11710000D02*
X14960000Y11410000D01*
X7740000Y4490000D02*
X7740000Y4790000D01*
X8040000Y4490000D02*
X7740000Y4490000D01*
X14960000Y4790000D02*
X16275000Y4790000D01*
X14660000Y4490000D02*
X14960000Y4490000D01*
X14960000Y4490000D02*
X14960000Y4790000D01*
X7740000Y11710000D02*
X7740000Y11410000D01*
X14660000Y11710000D02*
X14960000Y11710000D01*
X8040000Y11710000D02*
X7740000Y11710000D01*
G04 #@! TO.C,U603*
X1145000Y12860000D02*
X1145000Y10700000D01*
X4305000Y12860000D02*
X3375000Y12860000D01*
X4305000Y12860000D02*
X4305000Y11400000D01*
X1145000Y12860000D02*
X2075000Y12860000D01*
G04 #@! TO.C,D603*
X4582550Y13715000D02*
X4582550Y11430000D01*
X6052550Y13715000D02*
X4582550Y13715000D01*
X6052550Y11430000D02*
X6052550Y13715000D01*
D11*
G04 #@! TO.C,M600*
X27600000Y14000000D02*
X100000Y14000000D01*
X100000Y14000000D02*
X100000Y100000D01*
X100000Y100000D02*
X27600000Y100000D01*
X27600000Y100000D02*
X27600000Y14000000D01*
D10*
G04 #@! TO.C,J600*
X2330000Y1480000D02*
X1695000Y1480000D01*
X1695000Y1480000D02*
X1695000Y2115000D01*
D12*
G04 #@! TO.C,Q601*
X24890000Y11425000D02*
X17590000Y11425000D01*
D10*
X24890000Y13725000D02*
X17590000Y13725000D01*
X17590000Y11425000D02*
X17590000Y13725000D01*
X24890000Y11425000D02*
X24890000Y13725000D01*
G04 #@! TD*
M02*
