G04 #@! TF.GenerationSoftware,KiCad,Pcbnew,(6.0.8)*
G04 #@! TF.CreationDate,2023-04-03T16:58:02+03:00*
G04 #@! TF.ProjectId,hellen1-wbo,68656c6c-656e-4312-9d77-626f2e6b6963,0.3*
G04 #@! TF.SameCoordinates,PX4a19ba0PY5aa5910*
G04 #@! TF.FileFunction,Copper,L4,Bot*
G04 #@! TF.FilePolarity,Positive*
%FSLAX46Y46*%
G04 Gerber Fmt 4.6, Leading zero omitted, Abs format (unit mm)*
G04 Created by KiCad (PCBNEW (6.0.8)) date 2023-04-03 16:58:02*
%MOMM*%
%LPD*%
G01*
G04 APERTURE LIST*
G04 #@! TA.AperFunction,ComponentPad*
%ADD10C,1.300000*%
G04 #@! TD*
G04 #@! TA.AperFunction,ComponentPad*
%ADD11C,0.700000*%
G04 #@! TD*
G04 #@! TA.AperFunction,SMDPad,CuDef*
%ADD12R,0.250000X6.300000*%
G04 #@! TD*
G04 #@! TA.AperFunction,SMDPad,CuDef*
%ADD13R,0.250000X0.980000*%
G04 #@! TD*
G04 #@! TA.AperFunction,SMDPad,CuDef*
%ADD14R,27.600000X0.250000*%
G04 #@! TD*
G04 #@! TA.AperFunction,SMDPad,CuDef*
%ADD15R,0.250000X1.100000*%
G04 #@! TD*
G04 #@! TA.AperFunction,SMDPad,CuDef*
%ADD16R,0.250000X8.750000*%
G04 #@! TD*
G04 #@! TA.AperFunction,SMDPad,CuDef*
%ADD17R,0.250000X0.950000*%
G04 #@! TD*
G04 #@! TA.AperFunction,ComponentPad*
%ADD18R,1.905000X2.000000*%
G04 #@! TD*
G04 #@! TA.AperFunction,ComponentPad*
%ADD19O,1.905000X2.000000*%
G04 #@! TD*
G04 #@! TA.AperFunction,SMDPad,CuDef*
%ADD20R,1.450000X0.450000*%
G04 #@! TD*
G04 #@! TA.AperFunction,SMDPad,CuDef*
%ADD21R,1.220000X0.650000*%
G04 #@! TD*
G04 #@! TA.AperFunction,ViaPad*
%ADD22C,0.600000*%
G04 #@! TD*
G04 #@! TA.AperFunction,Conductor*
%ADD23C,0.500000*%
G04 #@! TD*
G04 #@! TA.AperFunction,Conductor*
%ADD24C,0.250000*%
G04 #@! TD*
G04 #@! TA.AperFunction,Conductor*
%ADD25C,2.000000*%
G04 #@! TD*
G04 APERTURE END LIST*
D10*
G04 #@! TO.P,Q600,2,D*
G04 #@! TO.N,/LSU_H+*
X23160000Y2950000D03*
X21160000Y5950000D03*
X19160000Y2950000D03*
G04 #@! TD*
D11*
G04 #@! TO.P,M600,E1,LSU_Un*
G04 #@! TO.N,/LSU_Un*
X27150000Y1650000D03*
G04 #@! TO.P,M600,E2,LSU_Vm*
G04 #@! TO.N,/LSU_Vm*
X27150000Y4650000D03*
G04 #@! TO.P,M600,E3,LSU_Ip*
G04 #@! TO.N,/LSU_Ip*
X27150000Y3650000D03*
G04 #@! TO.P,M600,E4,LSU_Rtrim*
G04 #@! TO.N,/LSU_Rtrim*
X27150000Y2650000D03*
D12*
G04 #@! TO.P,M600,G,GND*
G04 #@! TO.N,GND*
X175000Y3200000D03*
D13*
X175000Y9160000D03*
D14*
X13850000Y13925000D03*
D15*
X175000Y13500000D03*
D16*
X27525000Y9675000D03*
D14*
X13850000Y175000D03*
D17*
X27525000Y525000D03*
D11*
G04 #@! TO.P,M600,W1,V5_IN*
G04 #@! TO.N,+5V*
X558800Y11300000D03*
G04 #@! TO.P,M600,W2,CAN_VIO*
G04 #@! TO.N,+3V3*
X558800Y10300000D03*
G04 #@! TO.P,M600,W3,CANL*
G04 #@! TO.N,/CANL*
X558800Y7004000D03*
G04 #@! TO.P,M600,W4,CANH*
G04 #@! TO.N,/CANH*
X558800Y8020000D03*
G04 #@! TO.P,M600,W9,VDDA*
G04 #@! TO.N,Net-(M600-PadW9)*
X558800Y12300000D03*
G04 #@! TD*
D18*
G04 #@! TO.P,Q601,1,G*
G04 #@! TO.N,Net-(Q600-Pad1)*
X23790000Y12625000D03*
D19*
G04 #@! TO.P,Q601,2,D*
G04 #@! TO.N,/LSU_H+*
X21250000Y12625000D03*
G04 #@! TO.P,Q601,3,S*
G04 #@! TO.N,/LSU_H-*
X18710000Y12625000D03*
G04 #@! TD*
G04 #@! TO.P,C605,1*
G04 #@! TO.N,/LSU_Un*
G04 #@! TA.AperFunction,SMDPad,CuDef*
G36*
G01*
X20245000Y1869168D02*
X20245000Y2214168D01*
G75*
G02*
X20392500Y2361668I147500J0D01*
G01*
X20687500Y2361668D01*
G75*
G02*
X20835000Y2214168I0J-147500D01*
G01*
X20835000Y1869168D01*
G75*
G02*
X20687500Y1721668I-147500J0D01*
G01*
X20392500Y1721668D01*
G75*
G02*
X20245000Y1869168I0J147500D01*
G01*
G37*
G04 #@! TD.AperFunction*
G04 #@! TO.P,C605,2*
G04 #@! TO.N,Net-(C605-Pad2)*
G04 #@! TA.AperFunction,SMDPad,CuDef*
G36*
G01*
X21215000Y1869168D02*
X21215000Y2214168D01*
G75*
G02*
X21362500Y2361668I147500J0D01*
G01*
X21657500Y2361668D01*
G75*
G02*
X21805000Y2214168I0J-147500D01*
G01*
X21805000Y1869168D01*
G75*
G02*
X21657500Y1721668I-147500J0D01*
G01*
X21362500Y1721668D01*
G75*
G02*
X21215000Y1869168I0J147500D01*
G01*
G37*
G04 #@! TD.AperFunction*
G04 #@! TD*
G04 #@! TO.P,C607,1*
G04 #@! TO.N,/LSU_Vm*
G04 #@! TA.AperFunction,SMDPad,CuDef*
G36*
G01*
X23920000Y5752500D02*
X23920000Y6097500D01*
G75*
G02*
X24067500Y6245000I147500J0D01*
G01*
X24362500Y6245000D01*
G75*
G02*
X24510000Y6097500I0J-147500D01*
G01*
X24510000Y5752500D01*
G75*
G02*
X24362500Y5605000I-147500J0D01*
G01*
X24067500Y5605000D01*
G75*
G02*
X23920000Y5752500I0J147500D01*
G01*
G37*
G04 #@! TD.AperFunction*
G04 #@! TO.P,C607,2*
G04 #@! TO.N,GND*
G04 #@! TA.AperFunction,SMDPad,CuDef*
G36*
G01*
X24890000Y5752500D02*
X24890000Y6097500D01*
G75*
G02*
X25037500Y6245000I147500J0D01*
G01*
X25332500Y6245000D01*
G75*
G02*
X25480000Y6097500I0J-147500D01*
G01*
X25480000Y5752500D01*
G75*
G02*
X25332500Y5605000I-147500J0D01*
G01*
X25037500Y5605000D01*
G75*
G02*
X24890000Y5752500I0J147500D01*
G01*
G37*
G04 #@! TD.AperFunction*
G04 #@! TD*
G04 #@! TO.P,R609,1*
G04 #@! TO.N,/LSU_Rtrim*
G04 #@! TA.AperFunction,SMDPad,CuDef*
G36*
G01*
X11250000Y12406250D02*
X11250000Y11893750D01*
G75*
G02*
X11031250Y11675000I-218750J0D01*
G01*
X10593750Y11675000D01*
G75*
G02*
X10375000Y11893750I0J218750D01*
G01*
X10375000Y12406250D01*
G75*
G02*
X10593750Y12625000I218750J0D01*
G01*
X11031250Y12625000D01*
G75*
G02*
X11250000Y12406250I0J-218750D01*
G01*
G37*
G04 #@! TD.AperFunction*
G04 #@! TO.P,R609,2*
G04 #@! TO.N,/LSU_Ip*
G04 #@! TA.AperFunction,SMDPad,CuDef*
G36*
G01*
X9675000Y12406250D02*
X9675000Y11893750D01*
G75*
G02*
X9456250Y11675000I-218750J0D01*
G01*
X9018750Y11675000D01*
G75*
G02*
X8800000Y11893750I0J218750D01*
G01*
X8800000Y12406250D01*
G75*
G02*
X9018750Y12625000I218750J0D01*
G01*
X9456250Y12625000D01*
G75*
G02*
X9675000Y12406250I0J-218750D01*
G01*
G37*
G04 #@! TD.AperFunction*
G04 #@! TD*
G04 #@! TO.P,R607,1*
G04 #@! TO.N,Net-(C605-Pad2)*
G04 #@! TA.AperFunction,SMDPad,CuDef*
G36*
G01*
X21805000Y1147500D02*
X21805000Y802500D01*
G75*
G02*
X21657500Y655000I-147500J0D01*
G01*
X21362500Y655000D01*
G75*
G02*
X21215000Y802500I0J147500D01*
G01*
X21215000Y1147500D01*
G75*
G02*
X21362500Y1295000I147500J0D01*
G01*
X21657500Y1295000D01*
G75*
G02*
X21805000Y1147500I0J-147500D01*
G01*
G37*
G04 #@! TD.AperFunction*
G04 #@! TO.P,R607,2*
G04 #@! TO.N,/Nernst_esr_drive*
G04 #@! TA.AperFunction,SMDPad,CuDef*
G36*
G01*
X20835000Y1147500D02*
X20835000Y802500D01*
G75*
G02*
X20687500Y655000I-147500J0D01*
G01*
X20392500Y655000D01*
G75*
G02*
X20245000Y802500I0J147500D01*
G01*
X20245000Y1147500D01*
G75*
G02*
X20392500Y1295000I147500J0D01*
G01*
X20687500Y1295000D01*
G75*
G02*
X20835000Y1147500I0J-147500D01*
G01*
G37*
G04 #@! TD.AperFunction*
G04 #@! TD*
G04 #@! TO.P,R614,1*
G04 #@! TO.N,Net-(R614-Pad1)*
G04 #@! TA.AperFunction,SMDPad,CuDef*
G36*
G01*
X6640709Y11052500D02*
X6640709Y11397500D01*
G75*
G02*
X6788209Y11545000I147500J0D01*
G01*
X7083209Y11545000D01*
G75*
G02*
X7230709Y11397500I0J-147500D01*
G01*
X7230709Y11052500D01*
G75*
G02*
X7083209Y10905000I-147500J0D01*
G01*
X6788209Y10905000D01*
G75*
G02*
X6640709Y11052500I0J147500D01*
G01*
G37*
G04 #@! TD.AperFunction*
G04 #@! TO.P,R614,2*
G04 #@! TO.N,/LSU_Ip*
G04 #@! TA.AperFunction,SMDPad,CuDef*
G36*
G01*
X7610709Y11052500D02*
X7610709Y11397500D01*
G75*
G02*
X7758209Y11545000I147500J0D01*
G01*
X8053209Y11545000D01*
G75*
G02*
X8200709Y11397500I0J-147500D01*
G01*
X8200709Y11052500D01*
G75*
G02*
X8053209Y10905000I-147500J0D01*
G01*
X7758209Y10905000D01*
G75*
G02*
X7610709Y11052500I0J147500D01*
G01*
G37*
G04 #@! TD.AperFunction*
G04 #@! TD*
G04 #@! TO.P,R615,1*
G04 #@! TO.N,Net-(R614-Pad1)*
G04 #@! TA.AperFunction,SMDPad,CuDef*
G36*
G01*
X8695000Y10577500D02*
X8695000Y10922500D01*
G75*
G02*
X8842500Y11070000I147500J0D01*
G01*
X9137500Y11070000D01*
G75*
G02*
X9285000Y10922500I0J-147500D01*
G01*
X9285000Y10577500D01*
G75*
G02*
X9137500Y10430000I-147500J0D01*
G01*
X8842500Y10430000D01*
G75*
G02*
X8695000Y10577500I0J147500D01*
G01*
G37*
G04 #@! TD.AperFunction*
G04 #@! TO.P,R615,2*
G04 #@! TO.N,/Vm*
G04 #@! TA.AperFunction,SMDPad,CuDef*
G36*
G01*
X9665000Y10577500D02*
X9665000Y10922500D01*
G75*
G02*
X9812500Y11070000I147500J0D01*
G01*
X10107500Y11070000D01*
G75*
G02*
X10255000Y10922500I0J-147500D01*
G01*
X10255000Y10577500D01*
G75*
G02*
X10107500Y10430000I-147500J0D01*
G01*
X9812500Y10430000D01*
G75*
G02*
X9665000Y10577500I0J147500D01*
G01*
G37*
G04 #@! TD.AperFunction*
G04 #@! TD*
G04 #@! TO.P,R621,1*
G04 #@! TO.N,Net-(R621-Pad1)*
G04 #@! TA.AperFunction,SMDPad,CuDef*
G36*
G01*
X1427500Y12440000D02*
X1772500Y12440000D01*
G75*
G02*
X1920000Y12292500I0J-147500D01*
G01*
X1920000Y11997500D01*
G75*
G02*
X1772500Y11850000I-147500J0D01*
G01*
X1427500Y11850000D01*
G75*
G02*
X1280000Y11997500I0J147500D01*
G01*
X1280000Y12292500D01*
G75*
G02*
X1427500Y12440000I147500J0D01*
G01*
G37*
G04 #@! TD.AperFunction*
G04 #@! TO.P,R621,2*
G04 #@! TO.N,Net-(R613-Pad1)*
G04 #@! TA.AperFunction,SMDPad,CuDef*
G36*
G01*
X1427500Y11470000D02*
X1772500Y11470000D01*
G75*
G02*
X1920000Y11322500I0J-147500D01*
G01*
X1920000Y11027500D01*
G75*
G02*
X1772500Y10880000I-147500J0D01*
G01*
X1427500Y10880000D01*
G75*
G02*
X1280000Y11027500I0J147500D01*
G01*
X1280000Y11322500D01*
G75*
G02*
X1427500Y11470000I147500J0D01*
G01*
G37*
G04 #@! TD.AperFunction*
G04 #@! TD*
G04 #@! TO.P,R619,1*
G04 #@! TO.N,/LSU_Un_sense*
G04 #@! TA.AperFunction,SMDPad,CuDef*
G36*
G01*
X14005000Y7972500D02*
X14005000Y7627500D01*
G75*
G02*
X13857500Y7480000I-147500J0D01*
G01*
X13562500Y7480000D01*
G75*
G02*
X13415000Y7627500I0J147500D01*
G01*
X13415000Y7972500D01*
G75*
G02*
X13562500Y8120000I147500J0D01*
G01*
X13857500Y8120000D01*
G75*
G02*
X14005000Y7972500I0J-147500D01*
G01*
G37*
G04 #@! TD.AperFunction*
G04 #@! TO.P,R619,2*
G04 #@! TO.N,Net-(R619-Pad2)*
G04 #@! TA.AperFunction,SMDPad,CuDef*
G36*
G01*
X13035000Y7972500D02*
X13035000Y7627500D01*
G75*
G02*
X12887500Y7480000I-147500J0D01*
G01*
X12592500Y7480000D01*
G75*
G02*
X12445000Y7627500I0J147500D01*
G01*
X12445000Y7972500D01*
G75*
G02*
X12592500Y8120000I147500J0D01*
G01*
X12887500Y8120000D01*
G75*
G02*
X13035000Y7972500I0J-147500D01*
G01*
G37*
G04 #@! TD.AperFunction*
G04 #@! TD*
G04 #@! TO.P,R620,1*
G04 #@! TO.N,Net-(R619-Pad2)*
G04 #@! TA.AperFunction,SMDPad,CuDef*
G36*
G01*
X12445000Y6627500D02*
X12445000Y6972500D01*
G75*
G02*
X12592500Y7120000I147500J0D01*
G01*
X12887500Y7120000D01*
G75*
G02*
X13035000Y6972500I0J-147500D01*
G01*
X13035000Y6627500D01*
G75*
G02*
X12887500Y6480000I-147500J0D01*
G01*
X12592500Y6480000D01*
G75*
G02*
X12445000Y6627500I0J147500D01*
G01*
G37*
G04 #@! TD.AperFunction*
G04 #@! TO.P,R620,2*
G04 #@! TO.N,GND*
G04 #@! TA.AperFunction,SMDPad,CuDef*
G36*
G01*
X13415000Y6627500D02*
X13415000Y6972500D01*
G75*
G02*
X13562500Y7120000I147500J0D01*
G01*
X13857500Y7120000D01*
G75*
G02*
X14005000Y6972500I0J-147500D01*
G01*
X14005000Y6627500D01*
G75*
G02*
X13857500Y6480000I-147500J0D01*
G01*
X13562500Y6480000D01*
G75*
G02*
X13415000Y6627500I0J147500D01*
G01*
G37*
G04 #@! TD.AperFunction*
G04 #@! TD*
G04 #@! TO.P,R606,1*
G04 #@! TO.N,/LSU_Vm*
G04 #@! TA.AperFunction,SMDPad,CuDef*
G36*
G01*
X24505000Y7247500D02*
X24505000Y6902500D01*
G75*
G02*
X24357500Y6755000I-147500J0D01*
G01*
X24062500Y6755000D01*
G75*
G02*
X23915000Y6902500I0J147500D01*
G01*
X23915000Y7247500D01*
G75*
G02*
X24062500Y7395000I147500J0D01*
G01*
X24357500Y7395000D01*
G75*
G02*
X24505000Y7247500I0J-147500D01*
G01*
G37*
G04 #@! TD.AperFunction*
G04 #@! TO.P,R606,2*
G04 #@! TO.N,/Vm*
G04 #@! TA.AperFunction,SMDPad,CuDef*
G36*
G01*
X23535000Y7247500D02*
X23535000Y6902500D01*
G75*
G02*
X23387500Y6755000I-147500J0D01*
G01*
X23092500Y6755000D01*
G75*
G02*
X22945000Y6902500I0J147500D01*
G01*
X22945000Y7247500D01*
G75*
G02*
X23092500Y7395000I147500J0D01*
G01*
X23387500Y7395000D01*
G75*
G02*
X23535000Y7247500I0J-147500D01*
G01*
G37*
G04 #@! TD.AperFunction*
G04 #@! TD*
D20*
G04 #@! TO.P,U600,1*
G04 #@! TO.N,Net-(C603-Pad1)*
X10700000Y1300000D03*
G04 #@! TO.P,U600,2,-*
G04 #@! TO.N,Net-(C603-Pad2)*
X10700000Y1950000D03*
G04 #@! TO.P,U600,3,+*
G04 #@! TO.N,Net-(R603-Pad1)*
X10700000Y2600000D03*
G04 #@! TO.P,U600,4,V+*
G04 #@! TO.N,+3V3*
X10700000Y3250000D03*
G04 #@! TO.P,U600,5,+*
G04 #@! TO.N,Net-(R619-Pad2)*
X10700000Y3900000D03*
G04 #@! TO.P,U600,6,-*
G04 #@! TO.N,Net-(R618-Pad2)*
X10700000Y4550000D03*
G04 #@! TO.P,U600,7*
G04 #@! TO.N,/Un_sense*
X10700000Y5200000D03*
G04 #@! TO.P,U600,8*
G04 #@! TO.N,/LSU_Un_sense*
X16600000Y5200000D03*
G04 #@! TO.P,U600,9,-*
X16600000Y4550000D03*
G04 #@! TO.P,U600,10,+*
G04 #@! TO.N,/LSU_Un*
X16600000Y3900000D03*
G04 #@! TO.P,U600,11,V-*
G04 #@! TO.N,GND*
X16600000Y3250000D03*
G04 #@! TO.P,U600,12,+*
G04 #@! TO.N,Net-(C600-Pad1)*
X16600000Y2600000D03*
G04 #@! TO.P,U600,13,-*
G04 #@! TO.N,/Vm*
X16600000Y1950000D03*
G04 #@! TO.P,U600,14*
X16600000Y1300000D03*
G04 #@! TD*
G04 #@! TO.P,C608,1*
G04 #@! TO.N,/Ip_sense*
G04 #@! TA.AperFunction,SMDPad,CuDef*
G36*
G01*
X8205000Y12347500D02*
X8205000Y12002500D01*
G75*
G02*
X8057500Y11855000I-147500J0D01*
G01*
X7762500Y11855000D01*
G75*
G02*
X7615000Y12002500I0J147500D01*
G01*
X7615000Y12347500D01*
G75*
G02*
X7762500Y12495000I147500J0D01*
G01*
X8057500Y12495000D01*
G75*
G02*
X8205000Y12347500I0J-147500D01*
G01*
G37*
G04 #@! TD.AperFunction*
G04 #@! TO.P,C608,2*
G04 #@! TO.N,GND*
G04 #@! TA.AperFunction,SMDPad,CuDef*
G36*
G01*
X7235000Y12347500D02*
X7235000Y12002500D01*
G75*
G02*
X7087500Y11855000I-147500J0D01*
G01*
X6792500Y11855000D01*
G75*
G02*
X6645000Y12002500I0J147500D01*
G01*
X6645000Y12347500D01*
G75*
G02*
X6792500Y12495000I147500J0D01*
G01*
X7087500Y12495000D01*
G75*
G02*
X7235000Y12347500I0J-147500D01*
G01*
G37*
G04 #@! TD.AperFunction*
G04 #@! TD*
G04 #@! TO.P,R624,1*
G04 #@! TO.N,Net-(R621-Pad1)*
G04 #@! TA.AperFunction,SMDPad,CuDef*
G36*
G01*
X6645000Y12952500D02*
X6645000Y13297500D01*
G75*
G02*
X6792500Y13445000I147500J0D01*
G01*
X7087500Y13445000D01*
G75*
G02*
X7235000Y13297500I0J-147500D01*
G01*
X7235000Y12952500D01*
G75*
G02*
X7087500Y12805000I-147500J0D01*
G01*
X6792500Y12805000D01*
G75*
G02*
X6645000Y12952500I0J147500D01*
G01*
G37*
G04 #@! TD.AperFunction*
G04 #@! TO.P,R624,2*
G04 #@! TO.N,/Ip_sense*
G04 #@! TA.AperFunction,SMDPad,CuDef*
G36*
G01*
X7615000Y12952500D02*
X7615000Y13297500D01*
G75*
G02*
X7762500Y13445000I147500J0D01*
G01*
X8057500Y13445000D01*
G75*
G02*
X8205000Y13297500I0J-147500D01*
G01*
X8205000Y12952500D01*
G75*
G02*
X8057500Y12805000I-147500J0D01*
G01*
X7762500Y12805000D01*
G75*
G02*
X7615000Y12952500I0J147500D01*
G01*
G37*
G04 #@! TD.AperFunction*
G04 #@! TD*
G04 #@! TO.P,R622,1*
G04 #@! TO.N,Net-(Q600-Pad1)*
G04 #@! TA.AperFunction,SMDPad,CuDef*
G36*
G01*
X21945000Y10552500D02*
X21945000Y10897500D01*
G75*
G02*
X22092500Y11045000I147500J0D01*
G01*
X22387500Y11045000D01*
G75*
G02*
X22535000Y10897500I0J-147500D01*
G01*
X22535000Y10552500D01*
G75*
G02*
X22387500Y10405000I-147500J0D01*
G01*
X22092500Y10405000D01*
G75*
G02*
X21945000Y10552500I0J147500D01*
G01*
G37*
G04 #@! TD.AperFunction*
G04 #@! TO.P,R622,2*
G04 #@! TO.N,/heater_pwm*
G04 #@! TA.AperFunction,SMDPad,CuDef*
G36*
G01*
X22915000Y10552500D02*
X22915000Y10897500D01*
G75*
G02*
X23062500Y11045000I147500J0D01*
G01*
X23357500Y11045000D01*
G75*
G02*
X23505000Y10897500I0J-147500D01*
G01*
X23505000Y10552500D01*
G75*
G02*
X23357500Y10405000I-147500J0D01*
G01*
X23062500Y10405000D01*
G75*
G02*
X22915000Y10552500I0J147500D01*
G01*
G37*
G04 #@! TD.AperFunction*
G04 #@! TD*
G04 #@! TO.P,R612,1*
G04 #@! TO.N,/LSU_Un*
G04 #@! TA.AperFunction,SMDPad,CuDef*
G36*
G01*
X20245000Y3110834D02*
X20245000Y3455834D01*
G75*
G02*
X20392500Y3603334I147500J0D01*
G01*
X20687500Y3603334D01*
G75*
G02*
X20835000Y3455834I0J-147500D01*
G01*
X20835000Y3110834D01*
G75*
G02*
X20687500Y2963334I-147500J0D01*
G01*
X20392500Y2963334D01*
G75*
G02*
X20245000Y3110834I0J147500D01*
G01*
G37*
G04 #@! TD.AperFunction*
G04 #@! TO.P,R612,2*
G04 #@! TO.N,Net-(R611-Pad1)*
G04 #@! TA.AperFunction,SMDPad,CuDef*
G36*
G01*
X21215000Y3110834D02*
X21215000Y3455834D01*
G75*
G02*
X21362500Y3603334I147500J0D01*
G01*
X21657500Y3603334D01*
G75*
G02*
X21805000Y3455834I0J-147500D01*
G01*
X21805000Y3110834D01*
G75*
G02*
X21657500Y2963334I-147500J0D01*
G01*
X21362500Y2963334D01*
G75*
G02*
X21215000Y3110834I0J147500D01*
G01*
G37*
G04 #@! TD.AperFunction*
G04 #@! TD*
G04 #@! TO.P,R618,1*
G04 #@! TO.N,/LSU_Vm*
G04 #@! TA.AperFunction,SMDPad,CuDef*
G36*
G01*
X13180000Y8972500D02*
X13180000Y8627500D01*
G75*
G02*
X13032500Y8480000I-147500J0D01*
G01*
X12737500Y8480000D01*
G75*
G02*
X12590000Y8627500I0J147500D01*
G01*
X12590000Y8972500D01*
G75*
G02*
X12737500Y9120000I147500J0D01*
G01*
X13032500Y9120000D01*
G75*
G02*
X13180000Y8972500I0J-147500D01*
G01*
G37*
G04 #@! TD.AperFunction*
G04 #@! TO.P,R618,2*
G04 #@! TO.N,Net-(R618-Pad2)*
G04 #@! TA.AperFunction,SMDPad,CuDef*
G36*
G01*
X12210000Y8972500D02*
X12210000Y8627500D01*
G75*
G02*
X12062500Y8480000I-147500J0D01*
G01*
X11767500Y8480000D01*
G75*
G02*
X11620000Y8627500I0J147500D01*
G01*
X11620000Y8972500D01*
G75*
G02*
X11767500Y9120000I147500J0D01*
G01*
X12062500Y9120000D01*
G75*
G02*
X12210000Y8972500I0J-147500D01*
G01*
G37*
G04 #@! TD.AperFunction*
G04 #@! TD*
G04 #@! TO.P,R616,1*
G04 #@! TO.N,Net-(D600-Pad2)*
G04 #@! TA.AperFunction,SMDPad,CuDef*
G36*
G01*
X25455000Y10897500D02*
X25455000Y10552500D01*
G75*
G02*
X25307500Y10405000I-147500J0D01*
G01*
X25012500Y10405000D01*
G75*
G02*
X24865000Y10552500I0J147500D01*
G01*
X24865000Y10897500D01*
G75*
G02*
X25012500Y11045000I147500J0D01*
G01*
X25307500Y11045000D01*
G75*
G02*
X25455000Y10897500I0J-147500D01*
G01*
G37*
G04 #@! TD.AperFunction*
G04 #@! TO.P,R616,2*
G04 #@! TO.N,/heater_pwm*
G04 #@! TA.AperFunction,SMDPad,CuDef*
G36*
G01*
X24485000Y10897500D02*
X24485000Y10552500D01*
G75*
G02*
X24337500Y10405000I-147500J0D01*
G01*
X24042500Y10405000D01*
G75*
G02*
X23895000Y10552500I0J147500D01*
G01*
X23895000Y10897500D01*
G75*
G02*
X24042500Y11045000I147500J0D01*
G01*
X24337500Y11045000D01*
G75*
G02*
X24485000Y10897500I0J-147500D01*
G01*
G37*
G04 #@! TD.AperFunction*
G04 #@! TD*
G04 #@! TO.P,R623,1*
G04 #@! TO.N,Net-(R618-Pad2)*
G04 #@! TA.AperFunction,SMDPad,CuDef*
G36*
G01*
X12130000Y6972500D02*
X12130000Y6627500D01*
G75*
G02*
X11982500Y6480000I-147500J0D01*
G01*
X11687500Y6480000D01*
G75*
G02*
X11540000Y6627500I0J147500D01*
G01*
X11540000Y6972500D01*
G75*
G02*
X11687500Y7120000I147500J0D01*
G01*
X11982500Y7120000D01*
G75*
G02*
X12130000Y6972500I0J-147500D01*
G01*
G37*
G04 #@! TD.AperFunction*
G04 #@! TO.P,R623,2*
G04 #@! TO.N,/Un_sense*
G04 #@! TA.AperFunction,SMDPad,CuDef*
G36*
G01*
X11160000Y6972500D02*
X11160000Y6627500D01*
G75*
G02*
X11012500Y6480000I-147500J0D01*
G01*
X10717500Y6480000D01*
G75*
G02*
X10570000Y6627500I0J147500D01*
G01*
X10570000Y6972500D01*
G75*
G02*
X10717500Y7120000I147500J0D01*
G01*
X11012500Y7120000D01*
G75*
G02*
X11160000Y6972500I0J-147500D01*
G01*
G37*
G04 #@! TD.AperFunction*
G04 #@! TD*
G04 #@! TO.P,R604,1*
G04 #@! TO.N,Net-(C603-Pad1)*
G04 #@! TA.AperFunction,SMDPad,CuDef*
G36*
G01*
X9272500Y720000D02*
X8927500Y720000D01*
G75*
G02*
X8780000Y867500I0J147500D01*
G01*
X8780000Y1162500D01*
G75*
G02*
X8927500Y1310000I147500J0D01*
G01*
X9272500Y1310000D01*
G75*
G02*
X9420000Y1162500I0J-147500D01*
G01*
X9420000Y867500D01*
G75*
G02*
X9272500Y720000I-147500J0D01*
G01*
G37*
G04 #@! TD.AperFunction*
G04 #@! TO.P,R604,2*
G04 #@! TO.N,Net-(C603-Pad2)*
G04 #@! TA.AperFunction,SMDPad,CuDef*
G36*
G01*
X9272500Y1690000D02*
X8927500Y1690000D01*
G75*
G02*
X8780000Y1837500I0J147500D01*
G01*
X8780000Y2132500D01*
G75*
G02*
X8927500Y2280000I147500J0D01*
G01*
X9272500Y2280000D01*
G75*
G02*
X9420000Y2132500I0J-147500D01*
G01*
X9420000Y1837500D01*
G75*
G02*
X9272500Y1690000I-147500J0D01*
G01*
G37*
G04 #@! TD.AperFunction*
G04 #@! TD*
G04 #@! TO.P,R605,1*
G04 #@! TO.N,/LSU_Rtrim*
G04 #@! TA.AperFunction,SMDPad,CuDef*
G36*
G01*
X15905000Y7972500D02*
X15905000Y7627500D01*
G75*
G02*
X15757500Y7480000I-147500J0D01*
G01*
X15462500Y7480000D01*
G75*
G02*
X15315000Y7627500I0J147500D01*
G01*
X15315000Y7972500D01*
G75*
G02*
X15462500Y8120000I147500J0D01*
G01*
X15757500Y8120000D01*
G75*
G02*
X15905000Y7972500I0J-147500D01*
G01*
G37*
G04 #@! TD.AperFunction*
G04 #@! TO.P,R605,2*
G04 #@! TO.N,Net-(R603-Pad1)*
G04 #@! TA.AperFunction,SMDPad,CuDef*
G36*
G01*
X14935000Y7972500D02*
X14935000Y7627500D01*
G75*
G02*
X14787500Y7480000I-147500J0D01*
G01*
X14492500Y7480000D01*
G75*
G02*
X14345000Y7627500I0J147500D01*
G01*
X14345000Y7972500D01*
G75*
G02*
X14492500Y8120000I147500J0D01*
G01*
X14787500Y8120000D01*
G75*
G02*
X14935000Y7972500I0J-147500D01*
G01*
G37*
G04 #@! TD.AperFunction*
G04 #@! TD*
G04 #@! TO.P,R608,1*
G04 #@! TO.N,/LSU_Rtrim*
G04 #@! TA.AperFunction,SMDPad,CuDef*
G36*
G01*
X16245000Y7627500D02*
X16245000Y7972500D01*
G75*
G02*
X16392500Y8120000I147500J0D01*
G01*
X16687500Y8120000D01*
G75*
G02*
X16835000Y7972500I0J-147500D01*
G01*
X16835000Y7627500D01*
G75*
G02*
X16687500Y7480000I-147500J0D01*
G01*
X16392500Y7480000D01*
G75*
G02*
X16245000Y7627500I0J147500D01*
G01*
G37*
G04 #@! TD.AperFunction*
G04 #@! TO.P,R608,2*
G04 #@! TO.N,Net-(C603-Pad1)*
G04 #@! TA.AperFunction,SMDPad,CuDef*
G36*
G01*
X17215000Y7627500D02*
X17215000Y7972500D01*
G75*
G02*
X17362500Y8120000I147500J0D01*
G01*
X17657500Y8120000D01*
G75*
G02*
X17805000Y7972500I0J-147500D01*
G01*
X17805000Y7627500D01*
G75*
G02*
X17657500Y7480000I-147500J0D01*
G01*
X17362500Y7480000D01*
G75*
G02*
X17215000Y7627500I0J147500D01*
G01*
G37*
G04 #@! TD.AperFunction*
G04 #@! TD*
G04 #@! TO.P,C603,1*
G04 #@! TO.N,Net-(C603-Pad1)*
G04 #@! TA.AperFunction,SMDPad,CuDef*
G36*
G01*
X8322500Y720000D02*
X7977500Y720000D01*
G75*
G02*
X7830000Y867500I0J147500D01*
G01*
X7830000Y1162500D01*
G75*
G02*
X7977500Y1310000I147500J0D01*
G01*
X8322500Y1310000D01*
G75*
G02*
X8470000Y1162500I0J-147500D01*
G01*
X8470000Y867500D01*
G75*
G02*
X8322500Y720000I-147500J0D01*
G01*
G37*
G04 #@! TD.AperFunction*
G04 #@! TO.P,C603,2*
G04 #@! TO.N,Net-(C603-Pad2)*
G04 #@! TA.AperFunction,SMDPad,CuDef*
G36*
G01*
X8322500Y1690000D02*
X7977500Y1690000D01*
G75*
G02*
X7830000Y1837500I0J147500D01*
G01*
X7830000Y2132500D01*
G75*
G02*
X7977500Y2280000I147500J0D01*
G01*
X8322500Y2280000D01*
G75*
G02*
X8470000Y2132500I0J-147500D01*
G01*
X8470000Y1837500D01*
G75*
G02*
X8322500Y1690000I-147500J0D01*
G01*
G37*
G04 #@! TD.AperFunction*
G04 #@! TD*
D21*
G04 #@! TO.P,U601,1*
G04 #@! TO.N,Net-(R621-Pad1)*
X5610000Y13125000D03*
G04 #@! TO.P,U601,2,V-*
G04 #@! TO.N,GND*
X5610000Y12175000D03*
G04 #@! TO.P,U601,3,+*
G04 #@! TO.N,Net-(R614-Pad1)*
X5610000Y11225000D03*
G04 #@! TO.P,U601,4,-*
G04 #@! TO.N,Net-(R613-Pad1)*
X2990000Y11225000D03*
G04 #@! TO.P,U601,5,V+*
G04 #@! TO.N,+3V3*
X2990000Y13125000D03*
G04 #@! TD*
G04 #@! TO.P,R603,1*
G04 #@! TO.N,Net-(R603-Pad1)*
G04 #@! TA.AperFunction,SMDPad,CuDef*
G36*
G01*
X14370000Y8627500D02*
X14370000Y8972500D01*
G75*
G02*
X14517500Y9120000I147500J0D01*
G01*
X14812500Y9120000D01*
G75*
G02*
X14960000Y8972500I0J-147500D01*
G01*
X14960000Y8627500D01*
G75*
G02*
X14812500Y8480000I-147500J0D01*
G01*
X14517500Y8480000D01*
G75*
G02*
X14370000Y8627500I0J147500D01*
G01*
G37*
G04 #@! TD.AperFunction*
G04 #@! TO.P,R603,2*
G04 #@! TO.N,/Vm*
G04 #@! TA.AperFunction,SMDPad,CuDef*
G36*
G01*
X15340000Y8627500D02*
X15340000Y8972500D01*
G75*
G02*
X15487500Y9120000I147500J0D01*
G01*
X15782500Y9120000D01*
G75*
G02*
X15930000Y8972500I0J-147500D01*
G01*
X15930000Y8627500D01*
G75*
G02*
X15782500Y8480000I-147500J0D01*
G01*
X15487500Y8480000D01*
G75*
G02*
X15340000Y8627500I0J147500D01*
G01*
G37*
G04 #@! TD.AperFunction*
G04 #@! TD*
G04 #@! TO.P,R613,1*
G04 #@! TO.N,Net-(R613-Pad1)*
G04 #@! TA.AperFunction,SMDPad,CuDef*
G36*
G01*
X11172500Y9670000D02*
X10827500Y9670000D01*
G75*
G02*
X10680000Y9817500I0J147500D01*
G01*
X10680000Y10112500D01*
G75*
G02*
X10827500Y10260000I147500J0D01*
G01*
X11172500Y10260000D01*
G75*
G02*
X11320000Y10112500I0J-147500D01*
G01*
X11320000Y9817500D01*
G75*
G02*
X11172500Y9670000I-147500J0D01*
G01*
G37*
G04 #@! TD.AperFunction*
G04 #@! TO.P,R613,2*
G04 #@! TO.N,/LSU_Rtrim*
G04 #@! TA.AperFunction,SMDPad,CuDef*
G36*
G01*
X11172500Y10640000D02*
X10827500Y10640000D01*
G75*
G02*
X10680000Y10787500I0J147500D01*
G01*
X10680000Y11082500D01*
G75*
G02*
X10827500Y11230000I147500J0D01*
G01*
X11172500Y11230000D01*
G75*
G02*
X11320000Y11082500I0J-147500D01*
G01*
X11320000Y10787500D01*
G75*
G02*
X11172500Y10640000I-147500J0D01*
G01*
G37*
G04 #@! TD.AperFunction*
G04 #@! TD*
G04 #@! TO.P,C601,1*
G04 #@! TO.N,+3V3*
G04 #@! TA.AperFunction,SMDPad,CuDef*
G36*
G01*
X8927500Y4480000D02*
X9272500Y4480000D01*
G75*
G02*
X9420000Y4332500I0J-147500D01*
G01*
X9420000Y4037500D01*
G75*
G02*
X9272500Y3890000I-147500J0D01*
G01*
X8927500Y3890000D01*
G75*
G02*
X8780000Y4037500I0J147500D01*
G01*
X8780000Y4332500D01*
G75*
G02*
X8927500Y4480000I147500J0D01*
G01*
G37*
G04 #@! TD.AperFunction*
G04 #@! TO.P,C601,2*
G04 #@! TO.N,GND*
G04 #@! TA.AperFunction,SMDPad,CuDef*
G36*
G01*
X8927500Y3510000D02*
X9272500Y3510000D01*
G75*
G02*
X9420000Y3362500I0J-147500D01*
G01*
X9420000Y3067500D01*
G75*
G02*
X9272500Y2920000I-147500J0D01*
G01*
X8927500Y2920000D01*
G75*
G02*
X8780000Y3067500I0J147500D01*
G01*
X8780000Y3362500D01*
G75*
G02*
X8927500Y3510000I147500J0D01*
G01*
G37*
G04 #@! TD.AperFunction*
G04 #@! TD*
G04 #@! TO.P,R610,1*
G04 #@! TO.N,Net-(R610-Pad1)*
G04 #@! TA.AperFunction,SMDPad,CuDef*
G36*
G01*
X19880000Y4722500D02*
X19880000Y4377500D01*
G75*
G02*
X19732500Y4230000I-147500J0D01*
G01*
X19437500Y4230000D01*
G75*
G02*
X19290000Y4377500I0J147500D01*
G01*
X19290000Y4722500D01*
G75*
G02*
X19437500Y4870000I147500J0D01*
G01*
X19732500Y4870000D01*
G75*
G02*
X19880000Y4722500I0J-147500D01*
G01*
G37*
G04 #@! TD.AperFunction*
G04 #@! TO.P,R610,2*
G04 #@! TO.N,+3V3*
G04 #@! TA.AperFunction,SMDPad,CuDef*
G36*
G01*
X18910000Y4722500D02*
X18910000Y4377500D01*
G75*
G02*
X18762500Y4230000I-147500J0D01*
G01*
X18467500Y4230000D01*
G75*
G02*
X18320000Y4377500I0J147500D01*
G01*
X18320000Y4722500D01*
G75*
G02*
X18467500Y4870000I147500J0D01*
G01*
X18762500Y4870000D01*
G75*
G02*
X18910000Y4722500I0J-147500D01*
G01*
G37*
G04 #@! TD.AperFunction*
G04 #@! TD*
G04 #@! TO.P,R611,1*
G04 #@! TO.N,Net-(R611-Pad1)*
G04 #@! TA.AperFunction,SMDPad,CuDef*
G36*
G01*
X21805000Y4722500D02*
X21805000Y4377500D01*
G75*
G02*
X21657500Y4230000I-147500J0D01*
G01*
X21362500Y4230000D01*
G75*
G02*
X21215000Y4377500I0J147500D01*
G01*
X21215000Y4722500D01*
G75*
G02*
X21362500Y4870000I147500J0D01*
G01*
X21657500Y4870000D01*
G75*
G02*
X21805000Y4722500I0J-147500D01*
G01*
G37*
G04 #@! TD.AperFunction*
G04 #@! TO.P,R611,2*
G04 #@! TO.N,Net-(R610-Pad1)*
G04 #@! TA.AperFunction,SMDPad,CuDef*
G36*
G01*
X20835000Y4722500D02*
X20835000Y4377500D01*
G75*
G02*
X20687500Y4230000I-147500J0D01*
G01*
X20392500Y4230000D01*
G75*
G02*
X20245000Y4377500I0J147500D01*
G01*
X20245000Y4722500D01*
G75*
G02*
X20392500Y4870000I147500J0D01*
G01*
X20687500Y4870000D01*
G75*
G02*
X20835000Y4722500I0J-147500D01*
G01*
G37*
G04 #@! TD.AperFunction*
G04 #@! TD*
G04 #@! TO.P,C602,1*
G04 #@! TO.N,+3V3*
G04 #@! TA.AperFunction,SMDPad,CuDef*
G36*
G01*
X7977500Y4480000D02*
X8322500Y4480000D01*
G75*
G02*
X8470000Y4332500I0J-147500D01*
G01*
X8470000Y4037500D01*
G75*
G02*
X8322500Y3890000I-147500J0D01*
G01*
X7977500Y3890000D01*
G75*
G02*
X7830000Y4037500I0J147500D01*
G01*
X7830000Y4332500D01*
G75*
G02*
X7977500Y4480000I147500J0D01*
G01*
G37*
G04 #@! TD.AperFunction*
G04 #@! TO.P,C602,2*
G04 #@! TO.N,GND*
G04 #@! TA.AperFunction,SMDPad,CuDef*
G36*
G01*
X7977500Y3510000D02*
X8322500Y3510000D01*
G75*
G02*
X8470000Y3362500I0J-147500D01*
G01*
X8470000Y3067500D01*
G75*
G02*
X8322500Y2920000I-147500J0D01*
G01*
X7977500Y2920000D01*
G75*
G02*
X7830000Y3067500I0J147500D01*
G01*
X7830000Y3362500D01*
G75*
G02*
X7977500Y3510000I147500J0D01*
G01*
G37*
G04 #@! TD.AperFunction*
G04 #@! TD*
G04 #@! TO.P,R602,1*
G04 #@! TO.N,/Ip_dac*
G04 #@! TA.AperFunction,SMDPad,CuDef*
G36*
G01*
X16705000Y6972500D02*
X16705000Y6627500D01*
G75*
G02*
X16557500Y6480000I-147500J0D01*
G01*
X16262500Y6480000D01*
G75*
G02*
X16115000Y6627500I0J147500D01*
G01*
X16115000Y6972500D01*
G75*
G02*
X16262500Y7120000I147500J0D01*
G01*
X16557500Y7120000D01*
G75*
G02*
X16705000Y6972500I0J-147500D01*
G01*
G37*
G04 #@! TD.AperFunction*
G04 #@! TO.P,R602,2*
G04 #@! TO.N,Net-(C603-Pad2)*
G04 #@! TA.AperFunction,SMDPad,CuDef*
G36*
G01*
X15735000Y6972500D02*
X15735000Y6627500D01*
G75*
G02*
X15587500Y6480000I-147500J0D01*
G01*
X15292500Y6480000D01*
G75*
G02*
X15145000Y6627500I0J147500D01*
G01*
X15145000Y6972500D01*
G75*
G02*
X15292500Y7120000I147500J0D01*
G01*
X15587500Y7120000D01*
G75*
G02*
X15735000Y6972500I0J-147500D01*
G01*
G37*
G04 #@! TD.AperFunction*
G04 #@! TD*
G04 #@! TO.P,C604,1*
G04 #@! TO.N,+3V3*
G04 #@! TA.AperFunction,SMDPad,CuDef*
G36*
G01*
X7027500Y4480000D02*
X7372500Y4480000D01*
G75*
G02*
X7520000Y4332500I0J-147500D01*
G01*
X7520000Y4037500D01*
G75*
G02*
X7372500Y3890000I-147500J0D01*
G01*
X7027500Y3890000D01*
G75*
G02*
X6880000Y4037500I0J147500D01*
G01*
X6880000Y4332500D01*
G75*
G02*
X7027500Y4480000I147500J0D01*
G01*
G37*
G04 #@! TD.AperFunction*
G04 #@! TO.P,C604,2*
G04 #@! TO.N,GND*
G04 #@! TA.AperFunction,SMDPad,CuDef*
G36*
G01*
X7027500Y3510000D02*
X7372500Y3510000D01*
G75*
G02*
X7520000Y3362500I0J-147500D01*
G01*
X7520000Y3067500D01*
G75*
G02*
X7372500Y2920000I-147500J0D01*
G01*
X7027500Y2920000D01*
G75*
G02*
X6880000Y3067500I0J147500D01*
G01*
X6880000Y3362500D01*
G75*
G02*
X7027500Y3510000I147500J0D01*
G01*
G37*
G04 #@! TD.AperFunction*
G04 #@! TD*
G04 #@! TO.P,C606,1*
G04 #@! TO.N,+3V3*
G04 #@! TA.AperFunction,SMDPad,CuDef*
G36*
G01*
X7027500Y2280000D02*
X7372500Y2280000D01*
G75*
G02*
X7520000Y2132500I0J-147500D01*
G01*
X7520000Y1837500D01*
G75*
G02*
X7372500Y1690000I-147500J0D01*
G01*
X7027500Y1690000D01*
G75*
G02*
X6880000Y1837500I0J147500D01*
G01*
X6880000Y2132500D01*
G75*
G02*
X7027500Y2280000I147500J0D01*
G01*
G37*
G04 #@! TD.AperFunction*
G04 #@! TO.P,C606,2*
G04 #@! TO.N,GND*
G04 #@! TA.AperFunction,SMDPad,CuDef*
G36*
G01*
X7027500Y1310000D02*
X7372500Y1310000D01*
G75*
G02*
X7520000Y1162500I0J-147500D01*
G01*
X7520000Y867500D01*
G75*
G02*
X7372500Y720000I-147500J0D01*
G01*
X7027500Y720000D01*
G75*
G02*
X6880000Y867500I0J147500D01*
G01*
X6880000Y1162500D01*
G75*
G02*
X7027500Y1310000I147500J0D01*
G01*
G37*
G04 #@! TD.AperFunction*
G04 #@! TD*
G04 #@! TO.P,C618,1*
G04 #@! TO.N,+3V3*
G04 #@! TA.AperFunction,SMDPad,CuDef*
G36*
G01*
X3264936Y3755000D02*
X3264936Y4095000D01*
G75*
G02*
X3404936Y4235000I140000J0D01*
G01*
X3684936Y4235000D01*
G75*
G02*
X3824936Y4095000I0J-140000D01*
G01*
X3824936Y3755000D01*
G75*
G02*
X3684936Y3615000I-140000J0D01*
G01*
X3404936Y3615000D01*
G75*
G02*
X3264936Y3755000I0J140000D01*
G01*
G37*
G04 #@! TD.AperFunction*
G04 #@! TO.P,C618,2*
G04 #@! TO.N,GND*
G04 #@! TA.AperFunction,SMDPad,CuDef*
G36*
G01*
X4224936Y3755000D02*
X4224936Y4095000D01*
G75*
G02*
X4364936Y4235000I140000J0D01*
G01*
X4644936Y4235000D01*
G75*
G02*
X4784936Y4095000I0J-140000D01*
G01*
X4784936Y3755000D01*
G75*
G02*
X4644936Y3615000I-140000J0D01*
G01*
X4364936Y3615000D01*
G75*
G02*
X4224936Y3755000I0J140000D01*
G01*
G37*
G04 #@! TD.AperFunction*
G04 #@! TD*
G04 #@! TO.P,R630,1*
G04 #@! TO.N,VDDA*
G04 #@! TA.AperFunction,SMDPad,CuDef*
G36*
G01*
X17220000Y10425000D02*
X17220000Y10055000D01*
G75*
G02*
X17085000Y9920000I-135000J0D01*
G01*
X16815000Y9920000D01*
G75*
G02*
X16680000Y10055000I0J135000D01*
G01*
X16680000Y10425000D01*
G75*
G02*
X16815000Y10560000I135000J0D01*
G01*
X17085000Y10560000D01*
G75*
G02*
X17220000Y10425000I0J-135000D01*
G01*
G37*
G04 #@! TD.AperFunction*
G04 #@! TO.P,R630,2*
G04 #@! TO.N,Net-(M600-PadW9)*
G04 #@! TA.AperFunction,SMDPad,CuDef*
G36*
G01*
X16200000Y10425000D02*
X16200000Y10055000D01*
G75*
G02*
X16065000Y9920000I-135000J0D01*
G01*
X15795000Y9920000D01*
G75*
G02*
X15660000Y10055000I0J135000D01*
G01*
X15660000Y10425000D01*
G75*
G02*
X15795000Y10560000I135000J0D01*
G01*
X16065000Y10560000D01*
G75*
G02*
X16200000Y10425000I0J-135000D01*
G01*
G37*
G04 #@! TD.AperFunction*
G04 #@! TD*
G04 #@! TO.P,R629,1*
G04 #@! TO.N,/CANL*
G04 #@! TA.AperFunction,SMDPad,CuDef*
G36*
G01*
X1795000Y6733652D02*
X1425000Y6733652D01*
G75*
G02*
X1290000Y6868652I0J135000D01*
G01*
X1290000Y7138652D01*
G75*
G02*
X1425000Y7273652I135000J0D01*
G01*
X1795000Y7273652D01*
G75*
G02*
X1930000Y7138652I0J-135000D01*
G01*
X1930000Y6868652D01*
G75*
G02*
X1795000Y6733652I-135000J0D01*
G01*
G37*
G04 #@! TD.AperFunction*
G04 #@! TO.P,R629,2*
G04 #@! TO.N,/CANH*
G04 #@! TA.AperFunction,SMDPad,CuDef*
G36*
G01*
X1795000Y7753652D02*
X1425000Y7753652D01*
G75*
G02*
X1290000Y7888652I0J135000D01*
G01*
X1290000Y8158652D01*
G75*
G02*
X1425000Y8293652I135000J0D01*
G01*
X1795000Y8293652D01*
G75*
G02*
X1930000Y8158652I0J-135000D01*
G01*
X1930000Y7888652D01*
G75*
G02*
X1795000Y7753652I-135000J0D01*
G01*
G37*
G04 #@! TD.AperFunction*
G04 #@! TD*
G04 #@! TO.P,D604,1,G*
G04 #@! TO.N,/CANH*
G04 #@! TA.AperFunction,SMDPad,CuDef*
G36*
G01*
X1950000Y650000D02*
X1950000Y950000D01*
G75*
G02*
X2100000Y1100000I150000J0D01*
G01*
X3275000Y1100000D01*
G75*
G02*
X3425000Y950000I0J-150000D01*
G01*
X3425000Y650000D01*
G75*
G02*
X3275000Y500000I-150000J0D01*
G01*
X2100000Y500000D01*
G75*
G02*
X1950000Y650000I0J150000D01*
G01*
G37*
G04 #@! TD.AperFunction*
G04 #@! TO.P,D604,2,D*
G04 #@! TO.N,/CANL*
G04 #@! TA.AperFunction,SMDPad,CuDef*
G36*
G01*
X1950000Y2550000D02*
X1950000Y2850000D01*
G75*
G02*
X2100000Y3000000I150000J0D01*
G01*
X3275000Y3000000D01*
G75*
G02*
X3425000Y2850000I0J-150000D01*
G01*
X3425000Y2550000D01*
G75*
G02*
X3275000Y2400000I-150000J0D01*
G01*
X2100000Y2400000D01*
G75*
G02*
X1950000Y2550000I0J150000D01*
G01*
G37*
G04 #@! TD.AperFunction*
G04 #@! TO.P,D604,3,S*
G04 #@! TO.N,GND*
G04 #@! TA.AperFunction,SMDPad,CuDef*
G36*
G01*
X3825000Y1600000D02*
X3825000Y1900000D01*
G75*
G02*
X3975000Y2050000I150000J0D01*
G01*
X5150000Y2050000D01*
G75*
G02*
X5300000Y1900000I0J-150000D01*
G01*
X5300000Y1600000D01*
G75*
G02*
X5150000Y1450000I-150000J0D01*
G01*
X3975000Y1450000D01*
G75*
G02*
X3825000Y1600000I0J150000D01*
G01*
G37*
G04 #@! TD.AperFunction*
G04 #@! TD*
G04 #@! TO.P,C617,1*
G04 #@! TO.N,+5V*
G04 #@! TA.AperFunction,SMDPad,CuDef*
G36*
G01*
X1430000Y10284628D02*
X1770000Y10284628D01*
G75*
G02*
X1910000Y10144628I0J-140000D01*
G01*
X1910000Y9864628D01*
G75*
G02*
X1770000Y9724628I-140000J0D01*
G01*
X1430000Y9724628D01*
G75*
G02*
X1290000Y9864628I0J140000D01*
G01*
X1290000Y10144628D01*
G75*
G02*
X1430000Y10284628I140000J0D01*
G01*
G37*
G04 #@! TD.AperFunction*
G04 #@! TO.P,C617,2*
G04 #@! TO.N,GND*
G04 #@! TA.AperFunction,SMDPad,CuDef*
G36*
G01*
X1430000Y9324628D02*
X1770000Y9324628D01*
G75*
G02*
X1910000Y9184628I0J-140000D01*
G01*
X1910000Y8904628D01*
G75*
G02*
X1770000Y8764628I-140000J0D01*
G01*
X1430000Y8764628D01*
G75*
G02*
X1290000Y8904628I0J140000D01*
G01*
X1290000Y9184628D01*
G75*
G02*
X1430000Y9324628I140000J0D01*
G01*
G37*
G04 #@! TD.AperFunction*
G04 #@! TD*
G04 #@! TO.P,U605,1,TXD*
G04 #@! TO.N,/CAN_TX*
G04 #@! TA.AperFunction,SMDPad,CuDef*
G36*
G01*
X9250000Y9504628D02*
X9250000Y9204628D01*
G75*
G02*
X9100000Y9054628I-150000J0D01*
G01*
X7650000Y9054628D01*
G75*
G02*
X7500000Y9204628I0J150000D01*
G01*
X7500000Y9504628D01*
G75*
G02*
X7650000Y9654628I150000J0D01*
G01*
X9100000Y9654628D01*
G75*
G02*
X9250000Y9504628I0J-150000D01*
G01*
G37*
G04 #@! TD.AperFunction*
G04 #@! TO.P,U605,2,GND*
G04 #@! TO.N,GND*
G04 #@! TA.AperFunction,SMDPad,CuDef*
G36*
G01*
X9250000Y8234628D02*
X9250000Y7934628D01*
G75*
G02*
X9100000Y7784628I-150000J0D01*
G01*
X7650000Y7784628D01*
G75*
G02*
X7500000Y7934628I0J150000D01*
G01*
X7500000Y8234628D01*
G75*
G02*
X7650000Y8384628I150000J0D01*
G01*
X9100000Y8384628D01*
G75*
G02*
X9250000Y8234628I0J-150000D01*
G01*
G37*
G04 #@! TD.AperFunction*
G04 #@! TO.P,U605,3,VCC*
G04 #@! TO.N,+5V*
G04 #@! TA.AperFunction,SMDPad,CuDef*
G36*
G01*
X9250000Y6964628D02*
X9250000Y6664628D01*
G75*
G02*
X9100000Y6514628I-150000J0D01*
G01*
X7650000Y6514628D01*
G75*
G02*
X7500000Y6664628I0J150000D01*
G01*
X7500000Y6964628D01*
G75*
G02*
X7650000Y7114628I150000J0D01*
G01*
X9100000Y7114628D01*
G75*
G02*
X9250000Y6964628I0J-150000D01*
G01*
G37*
G04 #@! TD.AperFunction*
G04 #@! TO.P,U605,4,RXD*
G04 #@! TO.N,/CAN_RX*
G04 #@! TA.AperFunction,SMDPad,CuDef*
G36*
G01*
X9250000Y5694628D02*
X9250000Y5394628D01*
G75*
G02*
X9100000Y5244628I-150000J0D01*
G01*
X7650000Y5244628D01*
G75*
G02*
X7500000Y5394628I0J150000D01*
G01*
X7500000Y5694628D01*
G75*
G02*
X7650000Y5844628I150000J0D01*
G01*
X9100000Y5844628D01*
G75*
G02*
X9250000Y5694628I0J-150000D01*
G01*
G37*
G04 #@! TD.AperFunction*
G04 #@! TO.P,U605,5,VIO*
G04 #@! TO.N,+3V3*
G04 #@! TA.AperFunction,SMDPad,CuDef*
G36*
G01*
X4100000Y5694628D02*
X4100000Y5394628D01*
G75*
G02*
X3950000Y5244628I-150000J0D01*
G01*
X2500000Y5244628D01*
G75*
G02*
X2350000Y5394628I0J150000D01*
G01*
X2350000Y5694628D01*
G75*
G02*
X2500000Y5844628I150000J0D01*
G01*
X3950000Y5844628D01*
G75*
G02*
X4100000Y5694628I0J-150000D01*
G01*
G37*
G04 #@! TD.AperFunction*
G04 #@! TO.P,U605,6,CANL*
G04 #@! TO.N,/CANL*
G04 #@! TA.AperFunction,SMDPad,CuDef*
G36*
G01*
X4100000Y6964628D02*
X4100000Y6664628D01*
G75*
G02*
X3950000Y6514628I-150000J0D01*
G01*
X2500000Y6514628D01*
G75*
G02*
X2350000Y6664628I0J150000D01*
G01*
X2350000Y6964628D01*
G75*
G02*
X2500000Y7114628I150000J0D01*
G01*
X3950000Y7114628D01*
G75*
G02*
X4100000Y6964628I0J-150000D01*
G01*
G37*
G04 #@! TD.AperFunction*
G04 #@! TO.P,U605,7,CANH*
G04 #@! TO.N,/CANH*
G04 #@! TA.AperFunction,SMDPad,CuDef*
G36*
G01*
X4100000Y8234628D02*
X4100000Y7934628D01*
G75*
G02*
X3950000Y7784628I-150000J0D01*
G01*
X2500000Y7784628D01*
G75*
G02*
X2350000Y7934628I0J150000D01*
G01*
X2350000Y8234628D01*
G75*
G02*
X2500000Y8384628I150000J0D01*
G01*
X3950000Y8384628D01*
G75*
G02*
X4100000Y8234628I0J-150000D01*
G01*
G37*
G04 #@! TD.AperFunction*
G04 #@! TO.P,U605,8,S*
G04 #@! TO.N,GND*
G04 #@! TA.AperFunction,SMDPad,CuDef*
G36*
G01*
X4100000Y9504628D02*
X4100000Y9204628D01*
G75*
G02*
X3950000Y9054628I-150000J0D01*
G01*
X2500000Y9054628D01*
G75*
G02*
X2350000Y9204628I0J150000D01*
G01*
X2350000Y9504628D01*
G75*
G02*
X2500000Y9654628I150000J0D01*
G01*
X3950000Y9654628D01*
G75*
G02*
X4100000Y9504628I0J-150000D01*
G01*
G37*
G04 #@! TD.AperFunction*
G04 #@! TD*
D22*
G04 #@! TO.N,GND*
X700000Y9250000D03*
X15875000Y500000D03*
X25222538Y4835401D03*
X8525000Y13714600D03*
X4150000Y13700000D03*
X10800000Y8540889D03*
X700000Y700000D03*
X400000Y6050000D03*
X18750000Y8450000D03*
X2406600Y8861275D03*
X4575000Y4664600D03*
X25325000Y13100000D03*
X17785398Y3300000D03*
X27325000Y13050000D03*
X5275000Y800000D03*
X26550000Y375000D03*
X14100000Y2550500D03*
X24670089Y393146D03*
X6500000Y700000D03*
X16400825Y12280825D03*
X13550000Y5850000D03*
X4564600Y7805223D03*
X8950000Y2750000D03*
X10850000Y450000D03*
X5950000Y7775000D03*
X12850000Y525000D03*
X13320000Y11060400D03*
X16464787Y13765627D03*
X4266911Y12083089D03*
X589020Y13492817D03*
G04 #@! TO.N,/LSU_Vm*
X12890000Y9399600D03*
X14930000Y12710400D03*
G04 #@! TO.N,/LSU_Ip*
X12531838Y11044857D03*
G04 #@! TO.N,+3V3*
X5800000Y2825000D03*
X1825406Y12902310D03*
X3889600Y900000D03*
X17795398Y4550000D03*
X5975000Y10435398D03*
G04 #@! TO.N,/nRESET*
X12306797Y5750000D03*
X1434789Y5225000D03*
X3147704Y1589600D03*
G04 #@! TO.N,Net-(C600-Pad1)*
X17785398Y2535397D03*
G04 #@! TO.N,/LSU_Un_sense*
X17785398Y5585400D03*
X13700000Y8390000D03*
G04 #@! TO.N,/Vm*
X17785398Y1770794D03*
X19400000Y7900000D03*
X14090000Y10105200D03*
G04 #@! TO.N,/Ip_sense*
X14909354Y11946077D03*
G04 #@! TO.N,/Un_sense*
X10998628Y7674956D03*
G04 #@! TO.N,Net-(D600-Pad2)*
X26500000Y12000000D03*
X25950000Y4600000D03*
G04 #@! TO.N,/Ip_dac*
X17608139Y6887483D03*
X11777956Y11172447D03*
G04 #@! TO.N,/Nernst_esr_drive*
X17785398Y1006191D03*
X13365230Y2339005D03*
G04 #@! TO.N,/CAN_TX*
X9686668Y7335982D03*
G04 #@! TO.N,/CAN_RX*
X10276268Y7925582D03*
G04 #@! TO.N,/heater_pwm*
X25700000Y12050000D03*
X17139647Y13209647D03*
G04 #@! TO.N,/Boot0*
X10275400Y5910400D03*
X5480374Y6097900D03*
G04 #@! TO.N,Net-(R613-Pad1)*
X10270589Y9720589D03*
X2639346Y10634600D03*
G04 #@! TO.N,/SWDIO*
X1434289Y4435017D03*
X6250000Y5970300D03*
X2800336Y3958800D03*
G04 #@! TO.N,VDDA*
X17490789Y9039600D03*
X4375000Y11125000D03*
X14865100Y4411711D03*
G04 #@! TO.N,/LSU_H-*
X26825000Y10575000D03*
X26050000Y9875000D03*
X26050000Y10575000D03*
X26050000Y9175000D03*
X26825000Y9875000D03*
G04 #@! TO.N,/CANH*
X1291770Y1184175D03*
G04 #@! TO.N,Net-(M600-PadW9)*
X16487886Y11521195D03*
G04 #@! TD*
D23*
G04 #@! TO.N,GND*
X2223247Y9044628D02*
X1600000Y9044628D01*
X2406600Y8861275D02*
X2223247Y9044628D01*
D24*
G04 #@! TO.N,/LSU_Rtrim*
X15610000Y7800000D02*
X16540000Y7800000D01*
X13845572Y10695300D02*
X14391740Y10695300D01*
X25912960Y2650000D02*
X27150000Y2650000D01*
X17800000Y8450000D02*
X19240100Y7009900D01*
X16445100Y9166940D02*
X16445100Y7894900D01*
X14391740Y10695300D02*
X15507140Y9579900D01*
X21553060Y7009900D02*
X25912960Y2650000D01*
X19240100Y7009900D02*
X21553060Y7009900D01*
X16445100Y7894900D02*
X16540000Y7800000D01*
X11060000Y11902500D02*
X11060000Y11050000D01*
X15507140Y9579900D02*
X16032140Y9579900D01*
X13575372Y10425100D02*
X13845572Y10695300D01*
X11684900Y10425100D02*
X13575372Y10425100D01*
X16450000Y8450000D02*
X17800000Y8450000D01*
X16032140Y9579900D02*
X16445100Y9166940D01*
X10812500Y12150000D02*
X11060000Y11902500D01*
X11060000Y11050000D02*
X11684900Y10425100D01*
G04 #@! TO.N,/LSU_Un*
X21940000Y2660000D02*
X22950000Y1650000D01*
X22950000Y1650000D02*
X27150000Y1650000D01*
X20540000Y2660000D02*
X21940000Y2660000D01*
X16509900Y3934900D02*
X19888434Y3934900D01*
X20540000Y2216668D02*
X20540000Y2660000D01*
X19888434Y3934900D02*
X20540000Y3283334D01*
X20540000Y3283334D02*
X20540000Y2660000D01*
G04 #@! TO.N,/LSU_Vm*
X15159600Y12940000D02*
X16575472Y12940000D01*
X24215000Y4935000D02*
X24287500Y4862500D01*
X17130000Y11170000D02*
X20450000Y7850000D01*
X16575472Y12940000D02*
X17130000Y12385472D01*
X12885000Y9394600D02*
X12885000Y8800000D01*
X24210000Y5930000D02*
X24215000Y5925000D01*
X24210000Y7075000D02*
X24210000Y5930000D01*
X25140100Y4009900D02*
X26509900Y4009900D01*
X12890000Y9399600D02*
X12885000Y9394600D01*
X26509900Y4009900D02*
X27150000Y4650000D01*
X23987500Y7850000D02*
X24210000Y7627500D01*
X24210000Y7627500D02*
X24210000Y7075000D01*
X24287500Y4862500D02*
X25140100Y4009900D01*
X20450000Y7850000D02*
X23987500Y7850000D01*
X14930000Y12710400D02*
X15159600Y12940000D01*
X17130000Y12385472D02*
X17130000Y11170000D01*
X24215000Y5925000D02*
X24215000Y4935000D01*
G04 #@! TO.N,/LSU_Ip*
X11915100Y13034900D02*
X9434900Y13034900D01*
X9434900Y13034900D02*
X9237500Y12837500D01*
X8312500Y11225000D02*
X9237500Y12150000D01*
X12531838Y11044857D02*
X12531838Y12418162D01*
X9237500Y12837500D02*
X9237500Y12150000D01*
X12531838Y12418162D02*
X11915100Y13034900D01*
X7905709Y11225000D02*
X8312500Y11225000D01*
G04 #@! TO.N,+5V*
X8375000Y6826675D02*
X5623325Y6826675D01*
X4089442Y9999628D02*
X1645000Y9999628D01*
X5290100Y7159900D02*
X5290100Y8798970D01*
X1412279Y10351760D02*
X558800Y11205239D01*
X1412279Y10192349D02*
X1412279Y10351760D01*
X1600000Y10004628D02*
X1412279Y10192349D01*
X5290100Y8798970D02*
X4089442Y9999628D01*
X5623325Y6826675D02*
X5290100Y7159900D01*
X558800Y11205239D02*
X558800Y11300000D01*
G04 #@! TO.N,+3V3*
X1843096Y12920000D02*
X2835000Y12920000D01*
X7200000Y4185000D02*
X6635000Y4750000D01*
X17795398Y4550000D02*
X18415000Y4550000D01*
X5600000Y4750000D02*
X5200000Y4350000D01*
X10575000Y3250000D02*
X9989900Y3250000D01*
X6375000Y2825000D02*
X5375000Y2825000D01*
X7200000Y2035000D02*
X7165000Y2035000D01*
X4225000Y2825000D02*
X3550000Y3500000D01*
X5375000Y2825000D02*
X4225000Y2825000D01*
X9710100Y3543760D02*
X9100000Y4153860D01*
X3550000Y3500000D02*
X3550000Y5219628D01*
X5200000Y4350000D02*
X5200000Y2850000D01*
X18415000Y4550000D02*
X18615000Y4350000D01*
X3550000Y5219628D02*
X3225000Y5544628D01*
X9989900Y3250000D02*
X9710100Y3529800D01*
X9710100Y3529800D02*
X9710100Y3543760D01*
X6635000Y4750000D02*
X5600000Y4750000D01*
X9100000Y4153860D02*
X9100000Y4185000D01*
X2835000Y12920000D02*
X2990000Y13075000D01*
X9100000Y4185000D02*
X7200000Y4185000D01*
X7165000Y2035000D02*
X6375000Y2825000D01*
X1825406Y12902310D02*
X1843096Y12920000D01*
X3544936Y5236739D02*
X3225000Y5556675D01*
G04 #@! TO.N,Net-(C600-Pad1)*
X17785398Y2535397D02*
X17770795Y2550000D01*
X17770795Y2550000D02*
X16525000Y2550000D01*
G04 #@! TO.N,/LSU_Un_sense*
X17785398Y5585400D02*
X17399998Y5200000D01*
X17399998Y5200000D02*
X16475000Y5200000D01*
X13710000Y8380000D02*
X13710000Y7800000D01*
X16475000Y5200000D02*
X16475000Y4550000D01*
X13700000Y8390000D02*
X13710000Y8380000D01*
G04 #@! TO.N,/Vm*
X21890100Y7434900D02*
X22275000Y7050000D01*
X17102130Y1839460D02*
X16991590Y1950000D01*
X23215000Y7050000D02*
X23240000Y7075000D01*
X16475000Y1825000D02*
X16475000Y1300000D01*
X9680489Y9469511D02*
X9680489Y10470489D01*
X16600000Y1950000D02*
X16475000Y1825000D01*
X16550000Y1550000D02*
X16550000Y1900000D01*
X17785398Y1770794D02*
X17716732Y1839460D01*
X14394800Y10105200D02*
X15600000Y8900000D01*
X19865100Y7434900D02*
X21890100Y7434900D01*
X17716732Y1839460D02*
X17102130Y1839460D01*
X9680489Y10470489D02*
X9960000Y10750000D01*
X14090000Y10105200D02*
X13994800Y10010000D01*
X19400000Y7900000D02*
X19865100Y7434900D01*
X15600000Y8900000D02*
X15600000Y8785000D01*
X22275000Y7050000D02*
X23215000Y7050000D01*
X11983860Y10010000D02*
X11104349Y9130489D01*
X13994800Y10010000D02*
X11983860Y10010000D01*
X14090000Y10105200D02*
X14394800Y10105200D01*
X11104349Y9130489D02*
X10019511Y9130489D01*
X10019511Y9130489D02*
X9680489Y9469511D01*
X16550000Y1900000D02*
X16600000Y1950000D01*
G04 #@! TO.N,/Ip_sense*
X14909354Y11946077D02*
X14833923Y11946077D01*
X8769928Y13125000D02*
X7910000Y13125000D01*
X9094928Y13450000D02*
X8769928Y13125000D01*
X13330000Y13450000D02*
X9094928Y13450000D01*
X7910000Y12175000D02*
X7910000Y13125000D01*
X14833923Y11946077D02*
X13330000Y13450000D01*
G04 #@! TO.N,/Un_sense*
X10998628Y7674956D02*
X10998628Y6933628D01*
X10865000Y6800000D02*
X10865000Y5200000D01*
X10865000Y5200000D02*
X10575000Y5200000D01*
G04 #@! TO.N,Net-(C603-Pad1)*
X8960000Y1015000D02*
X8115000Y1015000D01*
X12775130Y2575130D02*
X11500000Y1300000D01*
X15454700Y5604700D02*
X15454700Y4029700D01*
X18206570Y6571718D02*
X17809852Y6175000D01*
X17809852Y6175000D02*
X16025000Y6175000D01*
X14675000Y3250000D02*
X13441697Y3250000D01*
X11500000Y1300000D02*
X10700000Y1300000D01*
X17547121Y7800000D02*
X18206570Y7140551D01*
X16025000Y6175000D02*
X15454700Y5604700D01*
X12775130Y2583433D02*
X12775130Y2575130D01*
X9465000Y1015000D02*
X9750000Y1300000D01*
X13441697Y3250000D02*
X12775130Y2583433D01*
X18206570Y7140551D02*
X18206570Y6571718D01*
X17510000Y7800000D02*
X17547121Y7800000D01*
X15454700Y4029700D02*
X14675000Y3250000D01*
X9750000Y1300000D02*
X10700000Y1300000D01*
X9100000Y1015000D02*
X9465000Y1015000D01*
G04 #@! TO.N,Net-(C603-Pad2)*
X11455281Y1950000D02*
X15039600Y5534319D01*
X8150000Y1950000D02*
X11455281Y1950000D01*
X15039600Y5534319D02*
X15039600Y6478432D01*
X15039600Y6478432D02*
X15361168Y6800000D01*
G04 #@! TO.N,Net-(C605-Pad2)*
X21510000Y1150000D02*
X21510000Y2216668D01*
G04 #@! TO.N,Net-(D600-Pad2)*
X26500000Y12000000D02*
X25997028Y11497028D01*
X25997028Y11497028D02*
X25997028Y11487500D01*
X25234528Y10725000D02*
X25160000Y10725000D01*
X25997028Y11487500D02*
X25234528Y10725000D01*
G04 #@! TO.N,/Ip_dac*
X17608139Y6887483D02*
X17520656Y6800000D01*
X17520656Y6800000D02*
X16410000Y6800000D01*
G04 #@! TO.N,/Nernst_esr_drive*
X17791589Y1000000D02*
X20515000Y1000000D01*
X17785398Y1006191D02*
X17791589Y1000000D01*
G04 #@! TO.N,/CAN_TX*
X9686668Y8563332D02*
X8883325Y9366675D01*
X8883325Y9366675D02*
X8375000Y9366675D01*
X9686668Y7335982D02*
X9686668Y8563332D01*
G04 #@! TO.N,/CAN_RX*
X10276268Y7925582D02*
X10276268Y6911050D01*
X8909846Y5544628D02*
X8375000Y5544628D01*
X10276268Y6911050D02*
X8909846Y5544628D01*
G04 #@! TO.N,/heater_pwm*
X25032600Y11334900D02*
X24799900Y11334900D01*
X25700000Y12002300D02*
X25032600Y11334900D01*
X25700000Y12050000D02*
X25700000Y12002300D01*
X24190000Y10725000D02*
X23210000Y10725000D01*
X24799900Y11334900D02*
X24190000Y10725000D01*
G04 #@! TO.N,Net-(Q600-Pad1)*
X22240000Y11075000D02*
X23790000Y12625000D01*
X22240000Y10725000D02*
X22240000Y11075000D01*
G04 #@! TO.N,Net-(R603-Pad1)*
X14624500Y7784500D02*
X14624500Y5706259D01*
X14624500Y5706259D02*
X11518241Y2600000D01*
X14640000Y8800000D02*
X14640000Y7800000D01*
X11518241Y2600000D02*
X10575000Y2600000D01*
X14640000Y7800000D02*
X14624500Y7784500D01*
G04 #@! TO.N,Net-(R610-Pad1)*
X19585000Y4550000D02*
X20540000Y4550000D01*
G04 #@! TO.N,Net-(R611-Pad1)*
X21510000Y4350000D02*
X21510000Y3283334D01*
G04 #@! TO.N,Net-(R613-Pad1)*
X2865000Y11300000D02*
X1915000Y11300000D01*
X2639346Y10634600D02*
X2639346Y10874346D01*
X2940000Y11175000D02*
X2990000Y11175000D01*
X2639346Y10874346D02*
X2940000Y11175000D01*
X10755589Y9720589D02*
X11000000Y9965000D01*
X10270589Y9720589D02*
X10755589Y9720589D01*
G04 #@! TO.N,Net-(R614-Pad1)*
X6935709Y11214291D02*
X7535100Y10614900D01*
X7535100Y10614900D02*
X8815000Y10614900D01*
X5610000Y11175000D02*
X6849411Y11175000D01*
G04 #@! TO.N,Net-(R618-Pad2)*
X11835000Y6800000D02*
X11775000Y6860000D01*
X11600000Y4550000D02*
X11716697Y4666697D01*
X11716697Y4666697D02*
X11716697Y6681697D01*
X11775000Y6860000D02*
X11775000Y8726480D01*
X10575000Y4550000D02*
X11600000Y4550000D01*
X11716697Y6681697D02*
X11835000Y6800000D01*
G04 #@! TO.N,Net-(R619-Pad2)*
X10575000Y3900000D02*
X11875000Y3900000D01*
X11875000Y3900000D02*
X12896397Y4921397D01*
X12740000Y6800000D02*
X12740000Y7800000D01*
X12896397Y6643603D02*
X12740000Y6800000D01*
X12896397Y4921397D02*
X12896397Y6643603D01*
G04 #@! TO.N,Net-(R621-Pad1)*
X6890000Y13075000D02*
X6940000Y13125000D01*
X3440000Y12090000D02*
X4425000Y13075000D01*
X4425000Y13075000D02*
X6890000Y13075000D01*
X1720000Y12090000D02*
X3440000Y12090000D01*
X1600000Y12210000D02*
X1720000Y12090000D01*
G04 #@! TO.N,VDDA*
X16950000Y9580389D02*
X16950000Y10240000D01*
X17490789Y9039600D02*
X16950000Y9580389D01*
D25*
G04 #@! TO.N,/LSU_H-*
X18710000Y11690000D02*
X21200000Y9200000D01*
X21200000Y9200000D02*
X25550000Y9200000D01*
X18710000Y12625000D02*
X18710000Y11690000D01*
D24*
G04 #@! TO.N,/CANL*
X3162047Y6889628D02*
X3225000Y6826675D01*
X1619422Y7003652D02*
X642222Y7003652D01*
X1610000Y6065000D02*
X2050000Y5625000D01*
X2050000Y5625000D02*
X2050000Y2675000D01*
X1610000Y7003652D02*
X1610000Y6065000D01*
X1619422Y6953652D02*
X3181469Y6953652D01*
G04 #@! TO.N,/CANH*
X3087953Y7959628D02*
X3225000Y8096675D01*
X1619422Y8023652D02*
X3107375Y8023652D01*
X1650945Y825000D02*
X1291770Y1184175D01*
X2687500Y825000D02*
X1650945Y825000D01*
X1619422Y8023652D02*
X638222Y8023652D01*
G04 #@! TO.N,Net-(M600-PadW9)*
X15930000Y10963309D02*
X15930000Y10240000D01*
X16487886Y11521195D02*
X15930000Y10963309D01*
G04 #@! TD*
G04 #@! TA.AperFunction,Conductor*
G04 #@! TO.N,GND*
G36*
X379593Y2571106D02*
G01*
X395765Y2536026D01*
X403050Y2505682D01*
X439039Y2435955D01*
X475961Y2364420D01*
X480291Y2356030D01*
X591000Y2229122D01*
X595882Y2225691D01*
X595883Y2225690D01*
X716862Y2140665D01*
X728784Y2132286D01*
X743004Y2126742D01*
X867350Y2078261D01*
X885691Y2071110D01*
X891606Y2070331D01*
X891607Y2070331D01*
X950361Y2062596D01*
X1014135Y2054200D01*
X1102227Y2054200D01*
X1119176Y2056251D01*
X1221268Y2068605D01*
X1221271Y2068606D01*
X1227190Y2069322D01*
X1237660Y2073278D01*
X1337514Y2111010D01*
X1384729Y2128851D01*
X1389646Y2132231D01*
X1389649Y2132232D01*
X1518602Y2220860D01*
X1523520Y2224240D01*
X1635552Y2349981D01*
X1638345Y2355255D01*
X1640066Y2357732D01*
X1688802Y2394724D01*
X1749974Y2396004D01*
X1800216Y2361084D01*
X1802662Y2357118D01*
X1802698Y2357144D01*
X1807462Y2350490D01*
X1811068Y2343145D01*
X1816859Y2337364D01*
X1848184Y2306094D01*
X1893650Y2260707D01*
X1998482Y2209464D01*
X2006084Y2208355D01*
X2006087Y2208354D01*
X2063237Y2200017D01*
X2063239Y2200017D01*
X2066782Y2199500D01*
X2833886Y2199500D01*
X2892077Y2180593D01*
X2928041Y2131093D01*
X2928041Y2069907D01*
X2892077Y2020407D01*
X2886713Y2016773D01*
X2825950Y1978435D01*
X2825947Y1978432D01*
X2819984Y1974670D01*
X2815317Y1969386D01*
X2815315Y1969384D01*
X2729748Y1872497D01*
X2729746Y1872495D01*
X2725081Y1867212D01*
X2722085Y1860830D01*
X2722084Y1860829D01*
X2712215Y1839808D01*
X2664151Y1737437D01*
X2663066Y1730468D01*
X2663065Y1730465D01*
X2653828Y1671133D01*
X2642095Y1595777D01*
X2643010Y1588780D01*
X2643010Y1588779D01*
X2650558Y1531060D01*
X2660684Y1453621D01*
X2663525Y1447164D01*
X2663526Y1447161D01*
X2666953Y1439373D01*
X2673084Y1378496D01*
X2642262Y1325641D01*
X2586258Y1300998D01*
X2576338Y1300500D01*
X2066782Y1300500D01*
X2063199Y1299972D01*
X2063192Y1299972D01*
X2005501Y1291479D01*
X2005499Y1291478D01*
X1997888Y1290358D01*
X1990982Y1286967D01*
X1990981Y1286967D01*
X1918665Y1251462D01*
X1858097Y1242788D01*
X1803999Y1271372D01*
X1780013Y1312544D01*
X1778093Y1319111D01*
X1777093Y1326093D01*
X1774105Y1332666D01*
X1720675Y1450179D01*
X1720674Y1450180D01*
X1717754Y1456603D01*
X1637045Y1550270D01*
X1628775Y1559868D01*
X1628774Y1559869D01*
X1624170Y1565212D01*
X1503865Y1643190D01*
X1366509Y1684268D01*
X1283267Y1684777D01*
X1230197Y1685101D01*
X1230196Y1685101D01*
X1223146Y1685144D01*
X1216369Y1683207D01*
X1216368Y1683207D01*
X1092079Y1647685D01*
X1092077Y1647684D01*
X1085299Y1645747D01*
X964050Y1569245D01*
X959383Y1563961D01*
X959381Y1563959D01*
X873814Y1467072D01*
X873812Y1467070D01*
X869147Y1461787D01*
X866151Y1455405D01*
X866150Y1455404D01*
X855422Y1432555D01*
X808217Y1332012D01*
X807132Y1325043D01*
X807131Y1325040D01*
X795274Y1248884D01*
X786161Y1190352D01*
X787076Y1183355D01*
X787076Y1183354D01*
X801040Y1076571D01*
X804750Y1048196D01*
X807591Y1041740D01*
X807591Y1041739D01*
X856057Y931593D01*
X862490Y916972D01*
X898191Y874500D01*
X950201Y812626D01*
X950204Y812624D01*
X954740Y807227D01*
X1074083Y727785D01*
X1143456Y706112D01*
X1204195Y687136D01*
X1204196Y687136D01*
X1210927Y685033D01*
X1254039Y684243D01*
X1292878Y683530D01*
X1350713Y663559D01*
X1361067Y654551D01*
X1407687Y607931D01*
X1413510Y601576D01*
X1438490Y571806D01*
X1472164Y552364D01*
X1479420Y547741D01*
X1484567Y544137D01*
X1497481Y535095D01*
X1511261Y525446D01*
X1519623Y523205D01*
X1524905Y520742D01*
X1530399Y518743D01*
X1537900Y514412D01*
X1567729Y509152D01*
X1576173Y507663D01*
X1584601Y505794D01*
X1613772Y497978D01*
X1613775Y497978D01*
X1622138Y495737D01*
X1660841Y499123D01*
X1669470Y499500D01*
X1721717Y499500D01*
X1779908Y480593D01*
X1800786Y455775D01*
X1802698Y457144D01*
X1807462Y450490D01*
X1811068Y443145D01*
X1816859Y437364D01*
X1820143Y434086D01*
X1856062Y398230D01*
X1884777Y369565D01*
X1912603Y315073D01*
X1903084Y254632D01*
X1859857Y211330D01*
X1814835Y200500D01*
X299500Y200500D01*
X241309Y219407D01*
X205345Y268907D01*
X200500Y299500D01*
X200500Y2512915D01*
X219407Y2571106D01*
X268907Y2607070D01*
X330093Y2607070D01*
X379593Y2571106D01*
G37*
G04 #@! TD.AperFunction*
G04 #@! TA.AperFunction,Conductor*
G36*
X18446578Y3590493D02*
G01*
X18482542Y3540993D01*
X18482542Y3479807D01*
X18469456Y3454125D01*
X18468141Y3452665D01*
X18463970Y3445441D01*
X18382718Y3304707D01*
X18378750Y3297835D01*
X18377149Y3292906D01*
X18377148Y3292905D01*
X18325105Y3132735D01*
X18325104Y3132730D01*
X18323503Y3127803D01*
X18306481Y2965845D01*
X18305281Y2954431D01*
X18280394Y2898535D01*
X18227406Y2867942D01*
X18166556Y2874338D01*
X18131824Y2900156D01*
X18122403Y2911090D01*
X18122402Y2911091D01*
X18117798Y2916434D01*
X17997493Y2994412D01*
X17860137Y3035490D01*
X17776895Y3035999D01*
X17723825Y3036323D01*
X17723824Y3036323D01*
X17716774Y3036366D01*
X17709997Y3034429D01*
X17709996Y3034429D01*
X17647128Y3016461D01*
X17585982Y3018650D01*
X17575255Y3024360D01*
X17571211Y3025000D01*
X17349825Y3025000D01*
X17346420Y3025167D01*
X17344748Y3025500D01*
X15855252Y3025500D01*
X15853580Y3025167D01*
X15850175Y3025000D01*
X15636681Y3025000D01*
X15623996Y3020878D01*
X15621001Y3016757D01*
X15621001Y3004844D01*
X15621949Y2995217D01*
X15633835Y2935459D01*
X15641155Y2917786D01*
X15657816Y2892850D01*
X15674500Y2837849D01*
X15674500Y2355252D01*
X15686133Y2296769D01*
X15682836Y2296113D01*
X15686203Y2253336D01*
X15686133Y2253231D01*
X15674500Y2194748D01*
X15674500Y1705252D01*
X15678674Y1684268D01*
X15686133Y1646769D01*
X15682836Y1646113D01*
X15686203Y1603336D01*
X15686133Y1603231D01*
X15674500Y1544748D01*
X15674500Y1055252D01*
X15686133Y996769D01*
X15730448Y930448D01*
X15796769Y886133D01*
X15806332Y884231D01*
X15806334Y884230D01*
X15829005Y879721D01*
X15855252Y874500D01*
X17231892Y874500D01*
X17290083Y855593D01*
X17322508Y815372D01*
X17349854Y753225D01*
X17356118Y738988D01*
X17379071Y711682D01*
X17443829Y634642D01*
X17443832Y634640D01*
X17448368Y629243D01*
X17454239Y625335D01*
X17454240Y625334D01*
X17480384Y607931D01*
X17567711Y549801D01*
X17660725Y520742D01*
X17697823Y509152D01*
X17697824Y509152D01*
X17704555Y507049D01*
X17776226Y505735D01*
X17840843Y504550D01*
X17840845Y504550D01*
X17847897Y504421D01*
X17854700Y506276D01*
X17854702Y506276D01*
X17960407Y535095D01*
X17986215Y542131D01*
X18108389Y617146D01*
X18130828Y641937D01*
X18183897Y672390D01*
X18204226Y674500D01*
X20005954Y674500D01*
X20064145Y655593D01*
X20094821Y619132D01*
X20105628Y597120D01*
X20111419Y591339D01*
X20181830Y521050D01*
X20181833Y521048D01*
X20187621Y515270D01*
X20291706Y464392D01*
X20339560Y457411D01*
X20355969Y455017D01*
X20355971Y455017D01*
X20359514Y454500D01*
X20720486Y454500D01*
X20724069Y455028D01*
X20724076Y455028D01*
X20781271Y463448D01*
X20781273Y463449D01*
X20788884Y464569D01*
X20813996Y476898D01*
X20853904Y496492D01*
X20892880Y515628D01*
X20898661Y521419D01*
X20954899Y577755D01*
X21009391Y605580D01*
X21069831Y596061D01*
X21094905Y577877D01*
X21157621Y515270D01*
X21261706Y464392D01*
X21309560Y457411D01*
X21325969Y455017D01*
X21325971Y455017D01*
X21329514Y454500D01*
X21690486Y454500D01*
X21694069Y455028D01*
X21694076Y455028D01*
X21751271Y463448D01*
X21751273Y463449D01*
X21758884Y464569D01*
X21783996Y476898D01*
X21823904Y496492D01*
X21862880Y515628D01*
X21868661Y521419D01*
X21938950Y591830D01*
X21938952Y591833D01*
X21944730Y597621D01*
X21995608Y701706D01*
X22005500Y769514D01*
X22005500Y1180486D01*
X22003127Y1196610D01*
X21996552Y1241271D01*
X21996551Y1241273D01*
X21995431Y1248884D01*
X21944372Y1352880D01*
X21864556Y1432557D01*
X21836732Y1487048D01*
X21835500Y1502620D01*
X21835500Y1513912D01*
X21854407Y1572103D01*
X21864427Y1583846D01*
X21944730Y1664289D01*
X21995608Y1768374D01*
X22005500Y1836182D01*
X22005500Y1895166D01*
X22024407Y1953357D01*
X22073907Y1989321D01*
X22135093Y1989321D01*
X22174504Y1965170D01*
X22706731Y1432943D01*
X22712565Y1426576D01*
X22737545Y1396806D01*
X22769260Y1378496D01*
X22771205Y1377373D01*
X22778489Y1372732D01*
X22810316Y1350446D01*
X22818684Y1348204D01*
X22823971Y1345738D01*
X22829456Y1343742D01*
X22836955Y1339412D01*
X22845481Y1337909D01*
X22845483Y1337908D01*
X22875216Y1332666D01*
X22883651Y1330796D01*
X22903415Y1325500D01*
X22921193Y1320736D01*
X22959908Y1324123D01*
X22968537Y1324500D01*
X26657053Y1324500D01*
X26715244Y1305593D01*
X26735595Y1285768D01*
X26757379Y1257379D01*
X26762528Y1253428D01*
X26867229Y1173087D01*
X26867233Y1173085D01*
X26872375Y1169139D01*
X26876171Y1167567D01*
X26916441Y1122844D01*
X26925000Y1082576D01*
X26925000Y1000000D01*
X27400500Y1000000D01*
X27458691Y981093D01*
X27494655Y931593D01*
X27499500Y901000D01*
X27499500Y299500D01*
X27480593Y241309D01*
X27431093Y205345D01*
X27400500Y200500D01*
X3952316Y200500D01*
X3944525Y203031D01*
X3936484Y200500D01*
X3560279Y200500D01*
X3502088Y219407D01*
X3466124Y268907D01*
X3466124Y330093D01*
X3490214Y369442D01*
X3518952Y398230D01*
X3550253Y429586D01*
X3604745Y457411D01*
X3662938Y448999D01*
X3666040Y447520D01*
X3671913Y443610D01*
X3769699Y413060D01*
X3802025Y402961D01*
X3802026Y402961D01*
X3808757Y400858D01*
X3936053Y398524D01*
X3938299Y398483D01*
X3940351Y397775D01*
X3945044Y398359D01*
X3952099Y398230D01*
X3958902Y400085D01*
X3958904Y400085D01*
X4067107Y429585D01*
X4090417Y435940D01*
X4204185Y505794D01*
X4206578Y507263D01*
X4212591Y510955D01*
X4220326Y519500D01*
X4304068Y612018D01*
X4308800Y617246D01*
X4371310Y746267D01*
X4371852Y749489D01*
X6639701Y749489D01*
X6644428Y734941D01*
X6695095Y635501D01*
X6704137Y623056D01*
X6783056Y544137D01*
X6795501Y535095D01*
X6894941Y484428D01*
X6909579Y479672D01*
X6930514Y476356D01*
X6943687Y478442D01*
X6944463Y479219D01*
X6946000Y485619D01*
X6946000Y745320D01*
X6941878Y758005D01*
X6937757Y761000D01*
X6653543Y761000D01*
X6640858Y756878D01*
X6640213Y755991D01*
X6639701Y749489D01*
X4371852Y749489D01*
X4373096Y756878D01*
X4394462Y883876D01*
X4394462Y883880D01*
X4395096Y887646D01*
X4395247Y900000D01*
X4374923Y1041918D01*
X4317378Y1168483D01*
X4308500Y1209458D01*
X4308500Y1905000D01*
X4327407Y1963191D01*
X4376907Y1999155D01*
X4407500Y2004000D01*
X4717500Y2004000D01*
X4775691Y1985093D01*
X4811655Y1935593D01*
X4816500Y1905000D01*
X4816500Y1211681D01*
X4820622Y1198996D01*
X4824743Y1196001D01*
X5177900Y1196001D01*
X5185642Y1196610D01*
X5268705Y1209765D01*
X5283338Y1214520D01*
X5383486Y1265547D01*
X5395931Y1274589D01*
X5439265Y1317923D01*
X5493782Y1345700D01*
X5554214Y1336129D01*
X5583871Y1313000D01*
X5671000Y1213122D01*
X5675882Y1209691D01*
X5675883Y1209690D01*
X5760102Y1150500D01*
X5808784Y1116286D01*
X5823004Y1110742D01*
X5952867Y1060110D01*
X5965691Y1055110D01*
X5971606Y1054331D01*
X5971607Y1054331D01*
X6090922Y1038623D01*
X6094135Y1038200D01*
X6182227Y1038200D01*
X6185723Y1038623D01*
X6301268Y1052605D01*
X6301271Y1052606D01*
X6307190Y1053322D01*
X6317660Y1057278D01*
X6377500Y1079890D01*
X6464729Y1112851D01*
X6469646Y1116231D01*
X6469649Y1116232D01*
X6598602Y1204860D01*
X6603520Y1208240D01*
X6628127Y1235858D01*
X6680954Y1266728D01*
X6702044Y1269000D01*
X7355000Y1269000D01*
X7413191Y1250093D01*
X7449155Y1200593D01*
X7454000Y1170000D01*
X7454000Y489583D01*
X7458122Y476898D01*
X7459009Y476253D01*
X7465573Y475736D01*
X7490421Y479672D01*
X7505059Y484428D01*
X7604499Y535095D01*
X7616944Y544137D01*
X7644548Y571741D01*
X7699065Y599518D01*
X7759497Y589947D01*
X7768246Y584638D01*
X7772621Y580270D01*
X7876706Y529392D01*
X7926229Y522167D01*
X7940969Y520017D01*
X7940971Y520017D01*
X7944514Y519500D01*
X8355486Y519500D01*
X8359069Y520028D01*
X8359076Y520028D01*
X8416271Y528448D01*
X8416273Y528449D01*
X8423884Y529569D01*
X8527880Y580628D01*
X8549485Y602270D01*
X8554960Y607755D01*
X8609452Y635580D01*
X8669893Y626061D01*
X8694966Y607877D01*
X8722621Y580270D01*
X8826706Y529392D01*
X8876229Y522167D01*
X8890969Y520017D01*
X8890971Y520017D01*
X8894514Y519500D01*
X9305486Y519500D01*
X9309069Y520028D01*
X9309076Y520028D01*
X9366271Y528448D01*
X9366273Y528449D01*
X9373884Y529569D01*
X9477880Y580628D01*
X9488572Y591339D01*
X9553950Y656830D01*
X9553952Y656833D01*
X9559730Y662621D01*
X9565579Y674587D01*
X9605708Y713986D01*
X9604685Y715447D01*
X9619304Y725683D01*
X9636511Y737732D01*
X9643795Y742373D01*
X9677455Y761806D01*
X9702431Y791571D01*
X9708265Y797939D01*
X9780520Y870194D01*
X9835037Y897971D01*
X9888409Y891654D01*
X9888665Y891548D01*
X9896769Y886133D01*
X9906327Y884232D01*
X9906329Y884231D01*
X9928852Y879751D01*
X9955252Y874500D01*
X11444748Y874500D01*
X11470995Y879721D01*
X11493666Y884230D01*
X11493668Y884231D01*
X11503231Y886133D01*
X11569552Y930448D01*
X11591979Y964012D01*
X11632072Y998406D01*
X11639684Y1000446D01*
X11671511Y1022732D01*
X11678795Y1027373D01*
X11712455Y1046806D01*
X11737431Y1076571D01*
X11743265Y1082939D01*
X12771336Y2111010D01*
X12825853Y2138787D01*
X12886285Y2129216D01*
X12929000Y2084008D01*
X12929382Y2084246D01*
X12930553Y2082365D01*
X12931954Y2080882D01*
X12933107Y2078261D01*
X12933110Y2078256D01*
X12935950Y2071802D01*
X12965374Y2036798D01*
X13023661Y1967456D01*
X13023664Y1967454D01*
X13028200Y1962057D01*
X13034071Y1958149D01*
X13034072Y1958148D01*
X13046373Y1949960D01*
X13147543Y1882615D01*
X13248150Y1851184D01*
X13277655Y1841966D01*
X13277656Y1841966D01*
X13284387Y1839863D01*
X13356058Y1838549D01*
X13420675Y1837364D01*
X13420677Y1837364D01*
X13427729Y1837235D01*
X13434532Y1839090D01*
X13434534Y1839090D01*
X13518668Y1862028D01*
X13566047Y1874945D01*
X13688221Y1949960D01*
X13695633Y1958148D01*
X13779698Y2051023D01*
X13784430Y2056251D01*
X13839124Y2169139D01*
X13843864Y2178923D01*
X13846940Y2185272D01*
X13848535Y2194748D01*
X13870092Y2322881D01*
X13870092Y2322885D01*
X13870726Y2326651D01*
X13870877Y2339005D01*
X13850553Y2480923D01*
X13820174Y2547739D01*
X13794135Y2605009D01*
X13794134Y2605010D01*
X13791214Y2611433D01*
X13697630Y2720042D01*
X13663097Y2742425D01*
X13624551Y2789941D01*
X13621295Y2851039D01*
X13654574Y2902383D01*
X13716944Y2924500D01*
X14656466Y2924500D01*
X14665095Y2924123D01*
X14703807Y2920736D01*
X14719720Y2925000D01*
X14741349Y2930796D01*
X14749784Y2932666D01*
X14779517Y2937908D01*
X14779519Y2937909D01*
X14788045Y2939412D01*
X14795544Y2943742D01*
X14801029Y2945738D01*
X14806316Y2948204D01*
X14814684Y2950446D01*
X14846511Y2972732D01*
X14853795Y2977373D01*
X14887455Y2996806D01*
X14912430Y3026570D01*
X14918264Y3032938D01*
X15451996Y3566669D01*
X15506513Y3594446D01*
X15566945Y3584875D01*
X15610210Y3541610D01*
X15621000Y3496665D01*
X15621000Y3490680D01*
X15625122Y3477995D01*
X15629243Y3475000D01*
X15850175Y3475000D01*
X15853580Y3474833D01*
X15855252Y3474500D01*
X17344748Y3474500D01*
X17346420Y3474833D01*
X17349825Y3475000D01*
X17563319Y3475000D01*
X17576004Y3479122D01*
X17578999Y3483243D01*
X17578999Y3495152D01*
X17578453Y3500694D01*
X17591564Y3560458D01*
X17637300Y3601102D01*
X17676976Y3609400D01*
X18388387Y3609400D01*
X18446578Y3590493D01*
G37*
G04 #@! TD.AperFunction*
G04 #@! TA.AperFunction,Conductor*
G36*
X8683191Y2744040D02*
G01*
X8695505Y2735093D01*
X8794943Y2684427D01*
X8809578Y2679672D01*
X8862288Y2671324D01*
X8916804Y2643547D01*
X8944582Y2589030D01*
X8935011Y2528598D01*
X8891746Y2485334D01*
X8861220Y2475599D01*
X8833730Y2471552D01*
X8833729Y2471552D01*
X8826116Y2470431D01*
X8819210Y2467040D01*
X8819209Y2467040D01*
X8796900Y2456087D01*
X8722120Y2419372D01*
X8706216Y2403440D01*
X8695040Y2392245D01*
X8640548Y2364420D01*
X8580107Y2373939D01*
X8555033Y2392124D01*
X8554680Y2392477D01*
X8527379Y2419730D01*
X8423294Y2470608D01*
X8415692Y2471717D01*
X8415689Y2471718D01*
X8389055Y2475603D01*
X8334203Y2502713D01*
X8305761Y2556886D01*
X8314594Y2617430D01*
X8357327Y2661220D01*
X8387859Y2671347D01*
X8440422Y2679672D01*
X8455057Y2684427D01*
X8554495Y2735093D01*
X8566809Y2744040D01*
X8625000Y2762947D01*
X8683191Y2744040D01*
G37*
G04 #@! TD.AperFunction*
G04 #@! TA.AperFunction,Conductor*
G36*
X1158214Y6659245D02*
G01*
X1170027Y6649156D01*
X1229596Y6589587D01*
X1237442Y6585928D01*
X1242284Y6582538D01*
X1279106Y6533673D01*
X1284500Y6501442D01*
X1284500Y6083534D01*
X1284123Y6074905D01*
X1280736Y6036193D01*
X1282978Y6027826D01*
X1290796Y5998651D01*
X1292666Y5990216D01*
X1297655Y5961921D01*
X1299412Y5951955D01*
X1303742Y5944456D01*
X1305738Y5938971D01*
X1308204Y5933684D01*
X1310446Y5925316D01*
X1327488Y5900978D01*
X1332732Y5893489D01*
X1337371Y5886208D01*
X1356806Y5852546D01*
X1353781Y5850799D01*
X1370703Y5808891D01*
X1355890Y5749526D01*
X1309011Y5710206D01*
X1299155Y5706817D01*
X1261022Y5695919D01*
X1235098Y5688510D01*
X1235096Y5688509D01*
X1228318Y5686572D01*
X1107069Y5610070D01*
X1102402Y5604786D01*
X1102400Y5604784D01*
X1016833Y5507897D01*
X1016831Y5507895D01*
X1012166Y5502612D01*
X1009170Y5496230D01*
X1009169Y5496229D01*
X997398Y5471158D01*
X951236Y5372837D01*
X950151Y5365868D01*
X950150Y5365865D01*
X939254Y5295878D01*
X929180Y5231177D01*
X930095Y5224180D01*
X930095Y5224179D01*
X946207Y5100969D01*
X947769Y5089021D01*
X950610Y5082565D01*
X950610Y5082564D01*
X1000089Y4970116D01*
X1005509Y4957797D01*
X1010048Y4952398D01*
X1010048Y4952397D01*
X1059210Y4893911D01*
X1082180Y4837200D01*
X1067429Y4777820D01*
X1057631Y4764675D01*
X1016333Y4717914D01*
X1016331Y4717912D01*
X1011666Y4712629D01*
X1008670Y4706247D01*
X1008669Y4706246D01*
X996333Y4679972D01*
X950736Y4582854D01*
X949651Y4575885D01*
X949650Y4575882D01*
X942590Y4530535D01*
X928680Y4441194D01*
X929595Y4434197D01*
X929595Y4434196D01*
X941773Y4341067D01*
X947269Y4299038D01*
X950110Y4292582D01*
X950110Y4292581D01*
X997673Y4184487D01*
X1005009Y4167814D01*
X1036071Y4130861D01*
X1092720Y4063468D01*
X1092723Y4063466D01*
X1097259Y4058069D01*
X1216602Y3978627D01*
X1317209Y3947196D01*
X1346714Y3937978D01*
X1346715Y3937978D01*
X1353446Y3935875D01*
X1425117Y3934561D01*
X1489734Y3933376D01*
X1489736Y3933376D01*
X1496788Y3933247D01*
X1503591Y3935102D01*
X1503593Y3935102D01*
X1577754Y3955321D01*
X1599461Y3961239D01*
X1660574Y3958304D01*
X1708292Y3920006D01*
X1724500Y3865725D01*
X1724500Y3310857D01*
X1705593Y3252666D01*
X1656093Y3216702D01*
X1594907Y3216702D01*
X1550897Y3245777D01*
X1532923Y3266381D01*
X1529000Y3270878D01*
X1520953Y3276534D01*
X1396098Y3364283D01*
X1396097Y3364283D01*
X1391216Y3367714D01*
X1234309Y3428890D01*
X1228394Y3429669D01*
X1228393Y3429669D01*
X1109078Y3445377D01*
X1105865Y3445800D01*
X1017773Y3445800D01*
X1014807Y3445441D01*
X1014806Y3445441D01*
X898732Y3431395D01*
X898729Y3431394D01*
X892810Y3430678D01*
X887232Y3428570D01*
X887231Y3428570D01*
X862911Y3419380D01*
X735271Y3371149D01*
X730354Y3367769D01*
X730351Y3367768D01*
X663013Y3321487D01*
X596480Y3275760D01*
X484448Y3150019D01*
X405644Y3001184D01*
X404190Y2995396D01*
X404189Y2995393D01*
X395517Y2960867D01*
X363004Y2909035D01*
X306234Y2886213D01*
X246892Y2901119D01*
X207644Y2948058D01*
X200500Y2984984D01*
X200500Y6351000D01*
X219407Y6409191D01*
X268907Y6445155D01*
X299500Y6450000D01*
X542817Y6450000D01*
X548965Y6449597D01*
X552366Y6449597D01*
X558800Y6448750D01*
X565233Y6449597D01*
X568295Y6450000D01*
X617826Y6456521D01*
X696078Y6466823D01*
X696080Y6466824D01*
X702509Y6467670D01*
X836425Y6523139D01*
X951421Y6611379D01*
X955372Y6616528D01*
X955376Y6616532D01*
X972939Y6639420D01*
X1023363Y6674075D01*
X1051480Y6678152D01*
X1100023Y6678152D01*
X1158214Y6659245D01*
G37*
G04 #@! TD.AperFunction*
G04 #@! TA.AperFunction,Conductor*
G36*
X9313191Y3450093D02*
G01*
X9349155Y3400593D01*
X9354000Y3370000D01*
X9354000Y3060000D01*
X9335093Y3001809D01*
X9285593Y2965845D01*
X9255000Y2961000D01*
X7045000Y2961000D01*
X6986809Y2979907D01*
X6950845Y3029407D01*
X6946000Y3060000D01*
X6946000Y3370000D01*
X6964907Y3428191D01*
X7014407Y3464155D01*
X7045000Y3469000D01*
X9255000Y3469000D01*
X9313191Y3450093D01*
G37*
G04 #@! TD.AperFunction*
G04 #@! TA.AperFunction,Conductor*
G36*
X3438191Y9589721D02*
G01*
X3474155Y9540221D01*
X3479000Y9509628D01*
X3479000Y8816309D01*
X3483122Y8803624D01*
X3487243Y8800629D01*
X3977900Y8800629D01*
X3985642Y8801238D01*
X4068705Y8814393D01*
X4083338Y8819148D01*
X4183486Y8870175D01*
X4195931Y8879217D01*
X4275411Y8958697D01*
X4284453Y8971142D01*
X4335479Y9071287D01*
X4339993Y9085180D01*
X4375957Y9134680D01*
X4434148Y9153588D01*
X4492338Y9134681D01*
X4504152Y9124592D01*
X4935604Y8693140D01*
X4963381Y8638623D01*
X4964600Y8623136D01*
X4964600Y7178434D01*
X4964223Y7169805D01*
X4960836Y7131093D01*
X4963078Y7122726D01*
X4970896Y7093551D01*
X4972766Y7085117D01*
X4979512Y7046855D01*
X4983842Y7039356D01*
X4985838Y7033871D01*
X4988304Y7028584D01*
X4990546Y7020216D01*
X5006210Y6997846D01*
X5012832Y6988389D01*
X5017471Y6981108D01*
X5036906Y6947445D01*
X5066676Y6922465D01*
X5073044Y6916630D01*
X5282122Y6707551D01*
X5309899Y6653035D01*
X5300328Y6592603D01*
X5264946Y6553821D01*
X5181536Y6501193D01*
X5152654Y6482970D01*
X5147987Y6477686D01*
X5147985Y6477684D01*
X5062418Y6380797D01*
X5062416Y6380795D01*
X5057751Y6375512D01*
X4996821Y6245737D01*
X4995736Y6238768D01*
X4995735Y6238765D01*
X4986430Y6179000D01*
X4974765Y6104077D01*
X4993354Y5961921D01*
X4996195Y5955465D01*
X4996195Y5955464D01*
X5041983Y5851404D01*
X5051094Y5830697D01*
X5095933Y5777354D01*
X5138805Y5726351D01*
X5138808Y5726349D01*
X5143344Y5720952D01*
X5149215Y5717044D01*
X5149216Y5717043D01*
X5170167Y5703097D01*
X5262687Y5641510D01*
X5331727Y5619941D01*
X5392799Y5600861D01*
X5392800Y5600861D01*
X5399531Y5598758D01*
X5471202Y5597444D01*
X5535819Y5596259D01*
X5535821Y5596259D01*
X5542873Y5596130D01*
X5549676Y5597985D01*
X5549678Y5597985D01*
X5655222Y5626760D01*
X5681191Y5633840D01*
X5738926Y5669289D01*
X5798407Y5683625D01*
X5854955Y5660259D01*
X5866509Y5648624D01*
X5908428Y5598754D01*
X5908433Y5598750D01*
X5912970Y5593352D01*
X5918841Y5589444D01*
X5918842Y5589443D01*
X5931143Y5581255D01*
X6032313Y5513910D01*
X6109080Y5489927D01*
X6162425Y5473261D01*
X6162426Y5473261D01*
X6169157Y5471158D01*
X6240828Y5469844D01*
X6305445Y5468659D01*
X6305447Y5468659D01*
X6312499Y5468530D01*
X6319302Y5470385D01*
X6319304Y5470385D01*
X6414097Y5496229D01*
X6450817Y5506240D01*
X6572991Y5581255D01*
X6580403Y5589443D01*
X6664468Y5682318D01*
X6669200Y5687546D01*
X6731710Y5816567D01*
X6733093Y5824784D01*
X6754862Y5954176D01*
X6754862Y5954180D01*
X6755496Y5957946D01*
X6755647Y5970300D01*
X6735323Y6112218D01*
X6704959Y6179000D01*
X6678905Y6236304D01*
X6678904Y6236305D01*
X6675984Y6242728D01*
X6594278Y6337552D01*
X6570617Y6393977D01*
X6584641Y6453533D01*
X6630992Y6493473D01*
X6669277Y6501175D01*
X7280769Y6501175D01*
X7338960Y6482268D01*
X7358901Y6462187D01*
X7361068Y6457773D01*
X7366861Y6451990D01*
X7372780Y6446081D01*
X7443650Y6375335D01*
X7548482Y6324092D01*
X7556084Y6322983D01*
X7556087Y6322982D01*
X7613237Y6314645D01*
X7613239Y6314645D01*
X7616782Y6314128D01*
X8980012Y6314128D01*
X9038203Y6295221D01*
X9074167Y6245721D01*
X9074167Y6184535D01*
X9050016Y6145124D01*
X8979016Y6074124D01*
X8924499Y6046347D01*
X8909012Y6045128D01*
X7616782Y6045128D01*
X7613199Y6044600D01*
X7613192Y6044600D01*
X7555501Y6036107D01*
X7555499Y6036106D01*
X7547888Y6034986D01*
X7540982Y6031595D01*
X7540981Y6031595D01*
X7501726Y6012322D01*
X7443145Y5983560D01*
X7437364Y5977769D01*
X7408995Y5949350D01*
X7360707Y5900978D01*
X7309464Y5796146D01*
X7308355Y5788544D01*
X7308354Y5788541D01*
X7303475Y5755093D01*
X7299500Y5727846D01*
X7299500Y5361410D01*
X7300028Y5357827D01*
X7300028Y5357820D01*
X7308435Y5300715D01*
X7309642Y5292516D01*
X7361068Y5187773D01*
X7443650Y5105335D01*
X7548482Y5054092D01*
X7556084Y5052983D01*
X7556087Y5052982D01*
X7613237Y5044645D01*
X7613239Y5044645D01*
X7616782Y5044128D01*
X9133218Y5044128D01*
X9136801Y5044656D01*
X9136808Y5044656D01*
X9194499Y5053149D01*
X9194501Y5053150D01*
X9202112Y5054270D01*
X9211777Y5059015D01*
X9259740Y5082564D01*
X9306855Y5105696D01*
X9389293Y5188278D01*
X9440536Y5293110D01*
X9441645Y5300712D01*
X9441646Y5300715D01*
X9449983Y5357865D01*
X9449983Y5357867D01*
X9450500Y5361410D01*
X9450500Y5583948D01*
X9469407Y5642139D01*
X9479496Y5653952D01*
X9628474Y5802930D01*
X9682991Y5830707D01*
X9743423Y5821136D01*
X9789094Y5772798D01*
X9837561Y5662648D01*
X9843691Y5601770D01*
X9829260Y5567774D01*
X9786133Y5503231D01*
X9784231Y5493668D01*
X9784230Y5493666D01*
X9780172Y5473261D01*
X9774500Y5444748D01*
X9774500Y4955252D01*
X9783067Y4912183D01*
X9786133Y4896769D01*
X9782836Y4896113D01*
X9786203Y4853336D01*
X9786133Y4853231D01*
X9774500Y4794748D01*
X9774500Y4525986D01*
X9755593Y4467795D01*
X9706093Y4431831D01*
X9644907Y4431831D01*
X9595407Y4467795D01*
X9586633Y4482355D01*
X9583035Y4489684D01*
X9559372Y4537880D01*
X9553581Y4543661D01*
X9483170Y4613950D01*
X9483167Y4613952D01*
X9477379Y4619730D01*
X9373294Y4670608D01*
X9320416Y4678322D01*
X9309031Y4679983D01*
X9309029Y4679983D01*
X9305486Y4680500D01*
X8894514Y4680500D01*
X8890931Y4679972D01*
X8890924Y4679972D01*
X8833729Y4671552D01*
X8833727Y4671551D01*
X8826116Y4670431D01*
X8722120Y4619372D01*
X8708948Y4606177D01*
X8695040Y4592245D01*
X8640548Y4564420D01*
X8580107Y4573939D01*
X8555033Y4592124D01*
X8533169Y4613950D01*
X8527379Y4619730D01*
X8423294Y4670608D01*
X8370416Y4678322D01*
X8359031Y4679983D01*
X8359029Y4679983D01*
X8355486Y4680500D01*
X7944514Y4680500D01*
X7940931Y4679972D01*
X7940924Y4679972D01*
X7883729Y4671552D01*
X7883727Y4671551D01*
X7876116Y4670431D01*
X7772120Y4619372D01*
X7758948Y4606177D01*
X7745040Y4592245D01*
X7690548Y4564420D01*
X7630107Y4573939D01*
X7605033Y4592124D01*
X7583169Y4613950D01*
X7577379Y4619730D01*
X7473294Y4670608D01*
X7420416Y4678322D01*
X7409031Y4679983D01*
X7409029Y4679983D01*
X7405486Y4680500D01*
X7205834Y4680500D01*
X7147643Y4699407D01*
X7135830Y4709496D01*
X6878269Y4967057D01*
X6872434Y4973425D01*
X6870531Y4975693D01*
X6847455Y5003194D01*
X6813792Y5022629D01*
X6806511Y5027268D01*
X6791938Y5037472D01*
X6774684Y5049554D01*
X6766316Y5051796D01*
X6761029Y5054262D01*
X6755544Y5056258D01*
X6748045Y5060588D01*
X6739519Y5062091D01*
X6739517Y5062092D01*
X6709784Y5067334D01*
X6701349Y5069204D01*
X6672174Y5077022D01*
X6663807Y5079264D01*
X6625095Y5075877D01*
X6616466Y5075500D01*
X5618522Y5075500D01*
X5609893Y5075877D01*
X5579822Y5078508D01*
X5571193Y5079263D01*
X5533657Y5069205D01*
X5525231Y5067337D01*
X5516038Y5065716D01*
X5486955Y5060588D01*
X5479450Y5056255D01*
X5473973Y5054262D01*
X5468682Y5051795D01*
X5460316Y5049553D01*
X5428489Y5027268D01*
X5421206Y5022628D01*
X5395044Y5007524D01*
X5395042Y5007523D01*
X5387545Y5003194D01*
X5364492Y4975721D01*
X5362569Y4973429D01*
X5356735Y4967062D01*
X4982949Y4593275D01*
X4976581Y4587439D01*
X4946806Y4562455D01*
X4927373Y4528795D01*
X4922731Y4521510D01*
X4907139Y4499243D01*
X4858274Y4462421D01*
X4797098Y4461354D01*
X4781101Y4467817D01*
X4775149Y4470850D01*
X4769629Y4472643D01*
X4761249Y4471316D01*
X4760472Y4470539D01*
X4758936Y4464139D01*
X4758936Y3389825D01*
X4763058Y3377140D01*
X4763946Y3376494D01*
X4782190Y3375058D01*
X4781859Y3370855D01*
X4820437Y3364748D01*
X4863705Y3321487D01*
X4874500Y3276534D01*
X4874500Y3249500D01*
X4855593Y3191309D01*
X4806093Y3155345D01*
X4775500Y3150500D01*
X4400834Y3150500D01*
X4342643Y3169407D01*
X4330836Y3179491D01*
X4260135Y3250192D01*
X4232359Y3304707D01*
X4241930Y3365139D01*
X4247951Y3373426D01*
X4250936Y3385861D01*
X4250936Y4460175D01*
X4246814Y4472860D01*
X4245926Y4473506D01*
X4243489Y4473698D01*
X4234724Y4470850D01*
X4137401Y4421262D01*
X4124956Y4412220D01*
X4057110Y4344374D01*
X4002593Y4316597D01*
X3942161Y4326168D01*
X3917102Y4344374D01*
X3904496Y4356980D01*
X3876719Y4411497D01*
X3875500Y4426984D01*
X3875500Y4945128D01*
X3894407Y5003319D01*
X3943907Y5039283D01*
X3974500Y5044128D01*
X3983218Y5044128D01*
X3986801Y5044656D01*
X3986808Y5044656D01*
X4044499Y5053149D01*
X4044501Y5053150D01*
X4052112Y5054270D01*
X4061777Y5059015D01*
X4109740Y5082564D01*
X4156855Y5105696D01*
X4239293Y5188278D01*
X4290536Y5293110D01*
X4291645Y5300712D01*
X4291646Y5300715D01*
X4299983Y5357865D01*
X4299983Y5357867D01*
X4300500Y5361410D01*
X4300500Y5727846D01*
X4299707Y5733237D01*
X4291479Y5789127D01*
X4291478Y5789129D01*
X4290358Y5796740D01*
X4280624Y5816567D01*
X4242538Y5894138D01*
X4238932Y5901483D01*
X4213389Y5926982D01*
X4175709Y5964596D01*
X4156350Y5983921D01*
X4051518Y6035164D01*
X4043916Y6036273D01*
X4043913Y6036274D01*
X3986763Y6044611D01*
X3986761Y6044611D01*
X3983218Y6045128D01*
X2466782Y6045128D01*
X2463199Y6044600D01*
X2463192Y6044600D01*
X2405501Y6036107D01*
X2405499Y6036106D01*
X2397888Y6034986D01*
X2390982Y6031595D01*
X2390981Y6031595D01*
X2351726Y6012322D01*
X2293145Y5983560D01*
X2287364Y5977769D01*
X2280711Y5973006D01*
X2278661Y5975870D01*
X2238100Y5955121D01*
X2177653Y5964596D01*
X2152453Y5982873D01*
X1964496Y6170830D01*
X1936719Y6225347D01*
X1935500Y6240834D01*
X1935500Y6501442D01*
X1954407Y6559633D01*
X1977716Y6582538D01*
X1982558Y6585928D01*
X1990404Y6589587D01*
X1998148Y6597331D01*
X2000698Y6598630D01*
X2003624Y6600679D01*
X2003912Y6600268D01*
X2052665Y6625108D01*
X2113097Y6615537D01*
X2156362Y6572272D01*
X2159252Y6565166D01*
X2159642Y6562516D01*
X2163033Y6555609D01*
X2163034Y6555606D01*
X2189628Y6501442D01*
X2211068Y6457773D01*
X2216859Y6451992D01*
X2222780Y6446081D01*
X2293650Y6375335D01*
X2398482Y6324092D01*
X2406084Y6322983D01*
X2406087Y6322982D01*
X2463237Y6314645D01*
X2463239Y6314645D01*
X2466782Y6314128D01*
X3983218Y6314128D01*
X3986801Y6314656D01*
X3986808Y6314656D01*
X4044499Y6323149D01*
X4044501Y6323150D01*
X4052112Y6324270D01*
X4062763Y6329499D01*
X4112048Y6353697D01*
X4156855Y6375696D01*
X4239293Y6458278D01*
X4290536Y6563110D01*
X4291645Y6570712D01*
X4291646Y6570715D01*
X4299983Y6627865D01*
X4299983Y6627867D01*
X4300500Y6631410D01*
X4300500Y6997846D01*
X4299376Y7005486D01*
X4291479Y7059127D01*
X4291478Y7059129D01*
X4290358Y7066740D01*
X4286851Y7073884D01*
X4253903Y7140991D01*
X4238932Y7171483D01*
X4156350Y7253921D01*
X4051518Y7305164D01*
X4043916Y7306273D01*
X4043913Y7306274D01*
X3986763Y7314611D01*
X3986761Y7314611D01*
X3983218Y7315128D01*
X2466782Y7315128D01*
X2463199Y7314600D01*
X2463192Y7314600D01*
X2405501Y7306107D01*
X2405499Y7306106D01*
X2397888Y7304986D01*
X2365907Y7289284D01*
X2322278Y7279152D01*
X2162210Y7279152D01*
X2104019Y7298059D01*
X2081114Y7321368D01*
X2077724Y7326210D01*
X2074065Y7334056D01*
X1990404Y7417717D01*
X1977081Y7423929D01*
X1932336Y7465657D01*
X1920662Y7525719D01*
X1946521Y7581171D01*
X1977080Y7603374D01*
X1990404Y7609587D01*
X2049973Y7669156D01*
X2104490Y7696933D01*
X2119977Y7698152D01*
X2199784Y7698152D01*
X2257975Y7679245D01*
X2269726Y7669217D01*
X2274281Y7664670D01*
X2293650Y7645335D01*
X2398482Y7594092D01*
X2406084Y7592983D01*
X2406087Y7592982D01*
X2463237Y7584645D01*
X2463239Y7584645D01*
X2466782Y7584128D01*
X3983218Y7584128D01*
X3986801Y7584656D01*
X3986808Y7584656D01*
X4044499Y7593149D01*
X4044501Y7593150D01*
X4052112Y7594270D01*
X4156855Y7645696D01*
X4167447Y7656306D01*
X4233513Y7722488D01*
X4239293Y7728278D01*
X4290536Y7833110D01*
X4291645Y7840712D01*
X4291646Y7840715D01*
X4299983Y7897865D01*
X4299983Y7897867D01*
X4300500Y7901410D01*
X4300500Y8267846D01*
X4298785Y8279500D01*
X4291479Y8329127D01*
X4291478Y8329129D01*
X4290358Y8336740D01*
X4281961Y8353844D01*
X4245140Y8428838D01*
X4238932Y8441483D01*
X4212255Y8468114D01*
X4162140Y8518141D01*
X4156350Y8523921D01*
X4051518Y8575164D01*
X4043916Y8576273D01*
X4043913Y8576274D01*
X3986763Y8584611D01*
X3986761Y8584611D01*
X3983218Y8585128D01*
X2466782Y8585128D01*
X2463199Y8584600D01*
X2463192Y8584600D01*
X2405501Y8576107D01*
X2405499Y8576106D01*
X2397888Y8574986D01*
X2293145Y8523560D01*
X2287364Y8517769D01*
X2275776Y8506161D01*
X2210707Y8440978D01*
X2207116Y8433631D01*
X2207112Y8433626D01*
X2198200Y8415394D01*
X2155659Y8371418D01*
X2095394Y8360847D01*
X2039254Y8388867D01*
X1993905Y8434216D01*
X1966128Y8488733D01*
X1975699Y8549165D01*
X2005722Y8584316D01*
X2009985Y8587413D01*
X2087220Y8664648D01*
X2096262Y8677093D01*
X2145851Y8774418D01*
X2153013Y8796462D01*
X2155655Y8795604D01*
X2177609Y8838695D01*
X2232124Y8866475D01*
X2292560Y8856904D01*
X2366660Y8819148D01*
X2381296Y8814393D01*
X2464359Y8801237D01*
X2472098Y8800628D01*
X2955320Y8800628D01*
X2968005Y8804750D01*
X2971000Y8808871D01*
X2971000Y9509628D01*
X2989907Y9567819D01*
X3039407Y9603783D01*
X3070000Y9608628D01*
X3380000Y9608628D01*
X3438191Y9589721D01*
G37*
G04 #@! TD.AperFunction*
G04 #@! TA.AperFunction,Conductor*
G36*
X27435762Y8966989D02*
G01*
X27483402Y8928596D01*
X27499500Y8874482D01*
X27499500Y5399000D01*
X27480593Y5340809D01*
X27431093Y5304845D01*
X27400500Y5300000D01*
X26925000Y5300000D01*
X26925000Y5217424D01*
X26906093Y5159233D01*
X26876462Y5132554D01*
X26872375Y5130861D01*
X26867233Y5126915D01*
X26867229Y5126913D01*
X26771317Y5053316D01*
X26757379Y5042621D01*
X26669139Y4927625D01*
X26613670Y4793709D01*
X26612823Y4787277D01*
X26611143Y4781007D01*
X26608463Y4781725D01*
X26587138Y4737013D01*
X26533368Y4707815D01*
X26472706Y4715799D01*
X26428322Y4757915D01*
X26425201Y4764181D01*
X26378905Y4866004D01*
X26378904Y4866005D01*
X26375984Y4872428D01*
X26313341Y4945128D01*
X26287005Y4975693D01*
X26287004Y4975694D01*
X26282400Y4981037D01*
X26162095Y5059015D01*
X26024739Y5100093D01*
X25941497Y5100602D01*
X25888427Y5100926D01*
X25888426Y5100926D01*
X25881376Y5100969D01*
X25874599Y5099032D01*
X25874598Y5099032D01*
X25750309Y5063510D01*
X25750307Y5063509D01*
X25743529Y5061572D01*
X25622280Y4985070D01*
X25617613Y4979786D01*
X25617611Y4979784D01*
X25532044Y4882897D01*
X25532042Y4882895D01*
X25527377Y4877612D01*
X25466447Y4747837D01*
X25465362Y4740868D01*
X25465361Y4740865D01*
X25453897Y4667233D01*
X25444391Y4606177D01*
X25445306Y4599180D01*
X25445306Y4599179D01*
X25453322Y4537880D01*
X25462980Y4464021D01*
X25464808Y4459867D01*
X25462292Y4399889D01*
X25424286Y4351939D01*
X25369502Y4335400D01*
X25315935Y4335400D01*
X25257744Y4354307D01*
X25245931Y4364396D01*
X24569496Y5040830D01*
X24541719Y5095347D01*
X24540500Y5110834D01*
X24540500Y5397244D01*
X24559407Y5455435D01*
X24569436Y5467187D01*
X24570906Y5468659D01*
X24592136Y5489927D01*
X24646630Y5517752D01*
X24707070Y5508232D01*
X24732205Y5489988D01*
X24793056Y5429137D01*
X24805501Y5420095D01*
X24904941Y5369428D01*
X24916914Y5365538D01*
X24928687Y5367402D01*
X24929463Y5368179D01*
X24931000Y5374579D01*
X24931000Y5378543D01*
X25439000Y5378543D01*
X25443122Y5365858D01*
X25444009Y5365213D01*
X25450511Y5364701D01*
X25465059Y5369428D01*
X25564499Y5420095D01*
X25576944Y5429137D01*
X25655863Y5508056D01*
X25664905Y5520501D01*
X25715572Y5619941D01*
X25720328Y5634579D01*
X25723644Y5655514D01*
X25721558Y5668687D01*
X25720781Y5669463D01*
X25714381Y5671000D01*
X25454680Y5671000D01*
X25441995Y5666878D01*
X25439000Y5662757D01*
X25439000Y5378543D01*
X24931000Y5378543D01*
X24931000Y6194680D01*
X25439000Y6194680D01*
X25443122Y6181995D01*
X25447243Y6179000D01*
X25710417Y6179000D01*
X25723102Y6183122D01*
X25723747Y6184009D01*
X25724264Y6190573D01*
X25720328Y6215421D01*
X25715572Y6230059D01*
X25664905Y6329499D01*
X25655863Y6341944D01*
X25576944Y6420863D01*
X25564499Y6429905D01*
X25465059Y6480572D01*
X25453086Y6484462D01*
X25441313Y6482598D01*
X25440537Y6481821D01*
X25439000Y6475421D01*
X25439000Y6194680D01*
X24931000Y6194680D01*
X24931000Y6471457D01*
X24926878Y6484142D01*
X24925991Y6484787D01*
X24919489Y6485299D01*
X24904941Y6480572D01*
X24805501Y6429905D01*
X24793056Y6420863D01*
X24732176Y6359983D01*
X24677659Y6332206D01*
X24617227Y6341777D01*
X24592229Y6359923D01*
X24588959Y6363188D01*
X24567379Y6384730D01*
X24567378Y6384731D01*
X24569289Y6386645D01*
X24540617Y6425389D01*
X24535500Y6456807D01*
X24535500Y6547244D01*
X24554407Y6605435D01*
X24564427Y6617178D01*
X24644730Y6697621D01*
X24695608Y6801706D01*
X24705500Y6869514D01*
X24705500Y7280486D01*
X24704294Y7288683D01*
X24696552Y7341271D01*
X24696551Y7341273D01*
X24695431Y7348884D01*
X24688010Y7364000D01*
X24668982Y7402755D01*
X24644372Y7452880D01*
X24564556Y7532557D01*
X24536732Y7587048D01*
X24535500Y7602620D01*
X24535500Y7608965D01*
X24535877Y7617594D01*
X24536733Y7627379D01*
X24539264Y7656306D01*
X24529205Y7693849D01*
X24527336Y7702278D01*
X24522092Y7732015D01*
X24520588Y7740545D01*
X24516257Y7748046D01*
X24514259Y7753536D01*
X24511796Y7758817D01*
X24509554Y7767184D01*
X24487268Y7799011D01*
X24482627Y7806295D01*
X24477069Y7815922D01*
X24463194Y7839955D01*
X24462258Y7840740D01*
X24440903Y7893593D01*
X24455704Y7952961D01*
X24502574Y7992291D01*
X24539662Y7999500D01*
X25555982Y7999500D01*
X25601870Y7988223D01*
X25634770Y7971013D01*
X25702891Y7951011D01*
X25776000Y7940500D01*
X26172810Y7940500D01*
X26174111Y7940570D01*
X26174122Y7940570D01*
X26199229Y7941915D01*
X26199247Y7941916D01*
X26200545Y7941986D01*
X26201837Y7942125D01*
X26201851Y7942126D01*
X26222492Y7944345D01*
X26222494Y7944345D01*
X26227328Y7944865D01*
X26231967Y7946318D01*
X26231969Y7946318D01*
X26319327Y7973672D01*
X26323961Y7975123D01*
X26379565Y8005486D01*
X26383175Y8007457D01*
X26383178Y8007459D01*
X26386273Y8009149D01*
X26445399Y8053411D01*
X27292090Y8900102D01*
X27310648Y8920761D01*
X27311483Y8921797D01*
X27311494Y8921810D01*
X27323417Y8936604D01*
X27374653Y8970048D01*
X27435762Y8966989D01*
G37*
G04 #@! TD.AperFunction*
G04 #@! TA.AperFunction,Conductor*
G36*
X13923191Y7035093D02*
G01*
X13959155Y6985593D01*
X13964000Y6955000D01*
X13964000Y6253543D01*
X13968122Y6240858D01*
X13969009Y6240213D01*
X13975511Y6239701D01*
X13990059Y6244428D01*
X14089499Y6295095D01*
X14101944Y6304137D01*
X14129996Y6332189D01*
X14184513Y6359966D01*
X14244945Y6350395D01*
X14288210Y6307130D01*
X14299000Y6262185D01*
X14299000Y5882093D01*
X14280093Y5823902D01*
X14270004Y5812089D01*
X13390901Y4932986D01*
X13336384Y4905209D01*
X13275952Y4914780D01*
X13232687Y4958045D01*
X13221897Y5002990D01*
X13221897Y6188878D01*
X13240804Y6247069D01*
X13290304Y6283033D01*
X13351490Y6283033D01*
X13365842Y6277088D01*
X13429941Y6244428D01*
X13441914Y6240538D01*
X13453687Y6242402D01*
X13454463Y6243179D01*
X13456000Y6249579D01*
X13456000Y6955000D01*
X13474907Y7013191D01*
X13524407Y7049155D01*
X13555000Y7054000D01*
X13865000Y7054000D01*
X13923191Y7035093D01*
G37*
G04 #@! TD.AperFunction*
G04 #@! TA.AperFunction,Conductor*
G36*
X3942649Y10859363D02*
G01*
X3954137Y10847784D01*
X4033431Y10753451D01*
X4033434Y10753449D01*
X4037970Y10748052D01*
X4043841Y10744144D01*
X4043842Y10744143D01*
X4046282Y10742519D01*
X4157313Y10668610D01*
X4246403Y10640777D01*
X4287425Y10627961D01*
X4287426Y10627961D01*
X4294157Y10625858D01*
X4365828Y10624544D01*
X4430445Y10623359D01*
X4430447Y10623359D01*
X4437499Y10623230D01*
X4444302Y10625085D01*
X4444304Y10625085D01*
X4519503Y10645587D01*
X4575817Y10660940D01*
X4697991Y10735955D01*
X4713513Y10753104D01*
X4766580Y10783558D01*
X4827413Y10777004D01*
X4852680Y10759591D01*
X4855448Y10755448D01*
X4921769Y10711133D01*
X4931332Y10709231D01*
X4931334Y10709230D01*
X4952516Y10705017D01*
X4980252Y10699500D01*
X5394248Y10699500D01*
X5452439Y10680593D01*
X5488403Y10631093D01*
X5488818Y10583644D01*
X5491447Y10583235D01*
X5469391Y10441575D01*
X5470306Y10434578D01*
X5470306Y10434577D01*
X5486513Y10310638D01*
X5487980Y10299419D01*
X5490821Y10292963D01*
X5490821Y10292962D01*
X5540453Y10180166D01*
X5545720Y10168195D01*
X5569975Y10139340D01*
X5633431Y10063849D01*
X5633434Y10063847D01*
X5637970Y10058450D01*
X5643841Y10054542D01*
X5643842Y10054541D01*
X5656143Y10046353D01*
X5757313Y9979008D01*
X5818290Y9959958D01*
X5887425Y9938359D01*
X5887426Y9938359D01*
X5894157Y9936256D01*
X5965828Y9934942D01*
X6030445Y9933757D01*
X6030447Y9933757D01*
X6037499Y9933628D01*
X6044302Y9935483D01*
X6044304Y9935483D01*
X6134076Y9959958D01*
X6175817Y9971338D01*
X6297991Y10046353D01*
X6305403Y10054541D01*
X6389468Y10147416D01*
X6394200Y10152644D01*
X6456710Y10281665D01*
X6458012Y10289400D01*
X6479862Y10419274D01*
X6479862Y10419278D01*
X6480496Y10423044D01*
X6480647Y10435398D01*
X6460323Y10577316D01*
X6453658Y10591976D01*
X6426355Y10652027D01*
X6419482Y10712825D01*
X6449658Y10766051D01*
X6505356Y10791375D01*
X6565303Y10779124D01*
X6573967Y10773599D01*
X6577538Y10771052D01*
X6583330Y10765270D01*
X6687415Y10714392D01*
X6736938Y10707167D01*
X6751678Y10705017D01*
X6751680Y10705017D01*
X6755223Y10704500D01*
X6944166Y10704500D01*
X7002357Y10685593D01*
X7014170Y10675504D01*
X7291831Y10397843D01*
X7297665Y10391476D01*
X7322645Y10361706D01*
X7356305Y10342273D01*
X7363589Y10337632D01*
X7395416Y10315346D01*
X7403784Y10313104D01*
X7409071Y10310638D01*
X7414556Y10308642D01*
X7422055Y10304312D01*
X7430581Y10302809D01*
X7430583Y10302808D01*
X7460316Y10297566D01*
X7468750Y10295696D01*
X7506293Y10285636D01*
X7537848Y10288397D01*
X7545009Y10289023D01*
X7553637Y10289400D01*
X8616499Y10289400D01*
X8659975Y10279343D01*
X8670057Y10274415D01*
X8741706Y10239392D01*
X8791229Y10232167D01*
X8805969Y10230017D01*
X8805971Y10230017D01*
X8809514Y10229500D01*
X9170486Y10229500D01*
X9174069Y10230028D01*
X9174076Y10230028D01*
X9238884Y10239569D01*
X9239286Y10236835D01*
X9287780Y10236217D01*
X9336818Y10199624D01*
X9354989Y10142460D01*
X9354989Y9928733D01*
X9336082Y9870542D01*
X9286582Y9834578D01*
X9225396Y9834578D01*
X9212516Y9839789D01*
X9208426Y9841788D01*
X9208422Y9841789D01*
X9201518Y9845164D01*
X9193916Y9846273D01*
X9193913Y9846274D01*
X9136763Y9854611D01*
X9136761Y9854611D01*
X9133218Y9855128D01*
X7616782Y9855128D01*
X7613199Y9854600D01*
X7613192Y9854600D01*
X7555501Y9846107D01*
X7555499Y9846106D01*
X7547888Y9844986D01*
X7443145Y9793560D01*
X7360707Y9710978D01*
X7309464Y9606146D01*
X7308355Y9598544D01*
X7308354Y9598541D01*
X7302646Y9559412D01*
X7299500Y9537846D01*
X7299500Y9171410D01*
X7300028Y9167827D01*
X7300028Y9167820D01*
X7304907Y9134681D01*
X7309642Y9102516D01*
X7313033Y9095610D01*
X7313033Y9095609D01*
X7323989Y9073294D01*
X7361068Y8997773D01*
X7366859Y8991992D01*
X7388408Y8970481D01*
X7443650Y8915335D01*
X7548482Y8864092D01*
X7556084Y8862983D01*
X7556087Y8862982D01*
X7613237Y8854645D01*
X7613239Y8854645D01*
X7616782Y8854128D01*
X8894538Y8854128D01*
X8952729Y8835221D01*
X8964542Y8825132D01*
X8982042Y8807632D01*
X9009819Y8753115D01*
X9000248Y8692683D01*
X8956983Y8649418D01*
X8912038Y8638628D01*
X8644680Y8638628D01*
X8631995Y8634506D01*
X8629000Y8630385D01*
X8629000Y7546309D01*
X8633122Y7533624D01*
X8637243Y7530629D01*
X9094797Y7530629D01*
X9152988Y7511722D01*
X9188952Y7462222D01*
X9192618Y7416399D01*
X9190494Y7402755D01*
X9189893Y7398897D01*
X9162258Y7344308D01*
X9107815Y7316388D01*
X9092072Y7315128D01*
X7616782Y7315128D01*
X7613199Y7314600D01*
X7613192Y7314600D01*
X7555501Y7306107D01*
X7555499Y7306106D01*
X7547888Y7304986D01*
X7540982Y7301595D01*
X7540981Y7301595D01*
X7505299Y7284076D01*
X7443145Y7253560D01*
X7370942Y7181231D01*
X7316451Y7153407D01*
X7300879Y7152175D01*
X5799159Y7152175D01*
X5740968Y7171082D01*
X5729156Y7181171D01*
X5644597Y7265729D01*
X5616819Y7320245D01*
X5615600Y7335733D01*
X5615600Y7819056D01*
X7259269Y7819056D01*
X7259766Y7815922D01*
X7264520Y7801289D01*
X7315547Y7701142D01*
X7324589Y7688697D01*
X7404069Y7609217D01*
X7416514Y7600175D01*
X7516661Y7549148D01*
X7531296Y7544393D01*
X7614359Y7531237D01*
X7622098Y7530628D01*
X8105320Y7530628D01*
X8118005Y7534750D01*
X8121000Y7538871D01*
X8121000Y7814948D01*
X8116878Y7827633D01*
X8112757Y7830628D01*
X7273117Y7830628D01*
X7260432Y7826506D01*
X7259786Y7825618D01*
X7259269Y7819056D01*
X5615600Y7819056D01*
X5615600Y8353844D01*
X7259932Y8353844D01*
X7261975Y8340941D01*
X7262752Y8340165D01*
X7269152Y8338628D01*
X8105320Y8338628D01*
X8118005Y8342750D01*
X8121000Y8346871D01*
X8121000Y8622947D01*
X8116878Y8635632D01*
X8112757Y8638627D01*
X7622100Y8638627D01*
X7614358Y8638018D01*
X7531295Y8624863D01*
X7516662Y8620108D01*
X7416514Y8569081D01*
X7404069Y8560039D01*
X7324589Y8480559D01*
X7315547Y8468114D01*
X7264521Y8367969D01*
X7259932Y8353844D01*
X5615600Y8353844D01*
X5615600Y8780436D01*
X5615977Y8789065D01*
X5618609Y8819148D01*
X5619364Y8827777D01*
X5609304Y8865320D01*
X5607434Y8873754D01*
X5607303Y8874500D01*
X5604546Y8890136D01*
X5602192Y8903487D01*
X5602191Y8903489D01*
X5600688Y8912015D01*
X5596358Y8919514D01*
X5594362Y8924999D01*
X5591896Y8930286D01*
X5589654Y8938654D01*
X5567368Y8970481D01*
X5562727Y8977765D01*
X5554513Y8991992D01*
X5543294Y9011425D01*
X5513529Y9036401D01*
X5507161Y9042235D01*
X4332711Y10216685D01*
X4326876Y10223053D01*
X4321466Y10229500D01*
X4301897Y10252822D01*
X4268234Y10272257D01*
X4260953Y10276896D01*
X4248471Y10285636D01*
X4229126Y10299182D01*
X4220758Y10301424D01*
X4215471Y10303890D01*
X4209986Y10305886D01*
X4202487Y10310216D01*
X4193961Y10311719D01*
X4193959Y10311720D01*
X4164226Y10316962D01*
X4155791Y10318832D01*
X4126616Y10326650D01*
X4118249Y10328892D01*
X4109620Y10328137D01*
X4079537Y10325505D01*
X4070908Y10325128D01*
X3203574Y10325128D01*
X3145383Y10344035D01*
X3109419Y10393535D01*
X3109419Y10454721D01*
X3114480Y10467293D01*
X3117979Y10474515D01*
X3117980Y10474518D01*
X3121056Y10480867D01*
X3124321Y10500270D01*
X3143947Y10616925D01*
X3172247Y10671173D01*
X3227028Y10698425D01*
X3241575Y10699500D01*
X3619748Y10699500D01*
X3647484Y10705017D01*
X3668666Y10709230D01*
X3668668Y10709231D01*
X3678231Y10711133D01*
X3744552Y10755448D01*
X3788867Y10821769D01*
X3789519Y10825045D01*
X3826626Y10868493D01*
X3886121Y10882777D01*
X3942649Y10859363D01*
G37*
G04 #@! TD.AperFunction*
G04 #@! TA.AperFunction,Conductor*
G36*
X17589504Y10250170D02*
G01*
X19295887Y8543787D01*
X19323664Y8489270D01*
X19314093Y8428838D01*
X19270828Y8385573D01*
X19253088Y8378594D01*
X19200309Y8363510D01*
X19200307Y8363509D01*
X19193529Y8361572D01*
X19187565Y8357809D01*
X19079411Y8289569D01*
X19072280Y8285070D01*
X19067613Y8279786D01*
X19067611Y8279784D01*
X18982044Y8182897D01*
X18982042Y8182895D01*
X18977377Y8177612D01*
X18974381Y8171230D01*
X18974380Y8171229D01*
X18962754Y8146466D01*
X18916447Y8047837D01*
X18915362Y8040866D01*
X18912222Y8020701D01*
X18884587Y7966112D01*
X18830143Y7938193D01*
X18769686Y7947606D01*
X18744397Y7965929D01*
X18043269Y8667057D01*
X18037434Y8673425D01*
X18024391Y8688969D01*
X18012455Y8703194D01*
X18004952Y8707526D01*
X17991815Y8715111D01*
X17950874Y8760580D01*
X17944478Y8821430D01*
X17952221Y8844012D01*
X17969424Y8879520D01*
X17972499Y8885867D01*
X17981380Y8938654D01*
X17995651Y9023476D01*
X17995651Y9023480D01*
X17996285Y9027246D01*
X17996436Y9039600D01*
X17976112Y9181518D01*
X17916773Y9312028D01*
X17851961Y9387246D01*
X17827794Y9415293D01*
X17827793Y9415294D01*
X17823189Y9420637D01*
X17702884Y9498615D01*
X17565528Y9539693D01*
X17543055Y9539830D01*
X17490971Y9540149D01*
X17432897Y9559412D01*
X17421572Y9569143D01*
X17317596Y9673119D01*
X17289819Y9727636D01*
X17299390Y9788068D01*
X17317596Y9813127D01*
X17364065Y9859596D01*
X17369170Y9870542D01*
X17410865Y9959958D01*
X17410865Y9959959D01*
X17414068Y9966827D01*
X17420500Y10015684D01*
X17420500Y10180166D01*
X17439407Y10238357D01*
X17488907Y10274321D01*
X17550093Y10274321D01*
X17589504Y10250170D01*
G37*
G04 #@! TD.AperFunction*
G04 #@! TA.AperFunction,Conductor*
G36*
X11380078Y8842688D02*
G01*
X11415174Y8792568D01*
X11419500Y8763622D01*
X11419500Y8594514D01*
X11420028Y8590931D01*
X11420028Y8590924D01*
X11428448Y8533729D01*
X11429569Y8526116D01*
X11439368Y8506158D01*
X11449500Y8462529D01*
X11449500Y8161349D01*
X11430593Y8103158D01*
X11381093Y8067194D01*
X11319907Y8067194D01*
X11296653Y8078274D01*
X11216644Y8130133D01*
X11216645Y8130133D01*
X11210723Y8133971D01*
X11073367Y8175049D01*
X10990125Y8175558D01*
X10937055Y8175882D01*
X10937054Y8175882D01*
X10930004Y8175925D01*
X10819270Y8144277D01*
X10758126Y8146466D01*
X10708664Y8186127D01*
X10705173Y8191585D01*
X10702252Y8198010D01*
X10631791Y8279784D01*
X10613273Y8301275D01*
X10613272Y8301276D01*
X10608668Y8306619D01*
X10488363Y8384597D01*
X10351007Y8425675D01*
X10267765Y8426184D01*
X10214695Y8426508D01*
X10214694Y8426508D01*
X10207644Y8426551D01*
X10200867Y8424614D01*
X10200866Y8424614D01*
X10197504Y8423653D01*
X10138372Y8406753D01*
X10077227Y8408942D01*
X10029045Y8446653D01*
X10012168Y8501942D01*
X10012168Y8544798D01*
X10012545Y8553427D01*
X10012873Y8557177D01*
X10015932Y8592139D01*
X10005872Y8629682D01*
X10004002Y8638116D01*
X9998760Y8667848D01*
X9998760Y8667849D01*
X9997256Y8676377D01*
X9997040Y8676752D01*
X9995067Y8733279D01*
X10029282Y8784003D01*
X10090231Y8804989D01*
X11085815Y8804989D01*
X11094444Y8804612D01*
X11133156Y8801225D01*
X11161690Y8808871D01*
X11170698Y8811285D01*
X11179133Y8813155D01*
X11208866Y8818397D01*
X11208868Y8818398D01*
X11217394Y8819901D01*
X11224893Y8824231D01*
X11230378Y8826227D01*
X11235666Y8828693D01*
X11244033Y8830935D01*
X11263715Y8844717D01*
X11322226Y8862607D01*
X11380078Y8842688D01*
G37*
G04 #@! TD.AperFunction*
G04 #@! TA.AperFunction,Conductor*
G36*
X1047333Y9894750D02*
G01*
X1084580Y9846208D01*
X1089016Y9824664D01*
X1089501Y9824728D01*
X1093604Y9793560D01*
X1096028Y9775141D01*
X1107320Y9750926D01*
X1139406Y9682118D01*
X1146776Y9666312D01*
X1180626Y9632462D01*
X1208403Y9577945D01*
X1198832Y9517513D01*
X1180626Y9492454D01*
X1112780Y9424608D01*
X1103738Y9412163D01*
X1054150Y9314840D01*
X1052357Y9309321D01*
X1053684Y9300941D01*
X1054461Y9300164D01*
X1060861Y9298628D01*
X1755000Y9298628D01*
X1813191Y9279721D01*
X1849155Y9230221D01*
X1854000Y9199628D01*
X1854000Y8889628D01*
X1835093Y8831437D01*
X1785593Y8795473D01*
X1755000Y8790628D01*
X1064825Y8790628D01*
X1052140Y8786506D01*
X1051494Y8785618D01*
X1051302Y8783181D01*
X1054150Y8774416D01*
X1103738Y8677093D01*
X1112780Y8664648D01*
X1190017Y8587411D01*
X1205863Y8575899D01*
X1241829Y8526400D01*
X1241831Y8465214D01*
X1217679Y8425800D01*
X1170027Y8378148D01*
X1115510Y8350371D01*
X1100023Y8349152D01*
X1048945Y8349152D01*
X990754Y8368059D01*
X970404Y8387883D01*
X955373Y8407471D01*
X955372Y8407472D01*
X951421Y8412621D01*
X836425Y8500861D01*
X702509Y8556330D01*
X696080Y8557176D01*
X696078Y8557177D01*
X646701Y8563677D01*
X631588Y8565667D01*
X576363Y8592008D01*
X550355Y8633227D01*
X550000Y8634320D01*
X550000Y8650000D01*
X299500Y8650000D01*
X241309Y8668907D01*
X205345Y8718407D01*
X200500Y8749000D01*
X200500Y9551000D01*
X219407Y9609191D01*
X268907Y9645155D01*
X299500Y9650000D01*
X550000Y9650000D01*
X550000Y9658243D01*
X550092Y9658370D01*
X551219Y9665486D01*
X552753Y9665243D01*
X568907Y9714962D01*
X618407Y9750926D01*
X636078Y9754924D01*
X696078Y9762823D01*
X696080Y9762824D01*
X702509Y9763670D01*
X836425Y9819139D01*
X930992Y9891703D01*
X988667Y9912127D01*
X1047333Y9894750D01*
G37*
G04 #@! TD.AperFunction*
G04 #@! TA.AperFunction,Conductor*
G36*
X13212357Y13105593D02*
G01*
X13224170Y13095504D01*
X14385414Y11934259D01*
X14413574Y11877092D01*
X14422334Y11810098D01*
X14425175Y11803642D01*
X14425175Y11803641D01*
X14476291Y11687472D01*
X14480074Y11678874D01*
X14518229Y11633483D01*
X14567785Y11574528D01*
X14567788Y11574526D01*
X14572324Y11569129D01*
X14578195Y11565221D01*
X14578196Y11565220D01*
X14595217Y11553890D01*
X14691667Y11489687D01*
X14766334Y11466360D01*
X14821779Y11449038D01*
X14821780Y11449038D01*
X14828511Y11446935D01*
X14900182Y11445621D01*
X14964799Y11444436D01*
X14964801Y11444436D01*
X14971853Y11444307D01*
X14978656Y11446162D01*
X14978658Y11446162D01*
X15082599Y11474500D01*
X15110171Y11482017D01*
X15232345Y11557032D01*
X15239757Y11565220D01*
X15323822Y11658095D01*
X15328554Y11663323D01*
X15375750Y11760736D01*
X15387988Y11785995D01*
X15391064Y11792344D01*
X15395229Y11817095D01*
X15414216Y11929953D01*
X15414216Y11929957D01*
X15414850Y11933723D01*
X15415001Y11946077D01*
X15394677Y12087995D01*
X15335338Y12218505D01*
X15330736Y12223846D01*
X15330732Y12223852D01*
X15306850Y12251568D01*
X15283189Y12307993D01*
X15297213Y12367550D01*
X15308451Y12382627D01*
X15344468Y12422418D01*
X15349200Y12427646D01*
X15411710Y12556667D01*
X15414210Y12555456D01*
X15442834Y12595288D01*
X15501442Y12614500D01*
X16399638Y12614500D01*
X16457829Y12595593D01*
X16469642Y12585504D01*
X16775504Y12279642D01*
X16803281Y12225125D01*
X16804500Y12209638D01*
X16804500Y12081892D01*
X16785593Y12023701D01*
X16736093Y11987737D01*
X16677134Y11987043D01*
X16569386Y12019266D01*
X16562625Y12021288D01*
X16479383Y12021797D01*
X16426313Y12022121D01*
X16426312Y12022121D01*
X16419262Y12022164D01*
X16412485Y12020227D01*
X16412484Y12020227D01*
X16288195Y11984705D01*
X16288193Y11984704D01*
X16281415Y11982767D01*
X16160166Y11906265D01*
X16155499Y11900981D01*
X16155497Y11900979D01*
X16069930Y11804092D01*
X16069928Y11804090D01*
X16065263Y11798807D01*
X16062267Y11792425D01*
X16062266Y11792424D01*
X16062123Y11792120D01*
X16004333Y11669032D01*
X16003248Y11662063D01*
X16003247Y11662060D01*
X15986320Y11553340D01*
X15982277Y11527372D01*
X15983192Y11520373D01*
X15983146Y11516587D01*
X15963529Y11458631D01*
X15954157Y11447792D01*
X15712943Y11206578D01*
X15706576Y11200744D01*
X15676806Y11175764D01*
X15663213Y11152220D01*
X15657373Y11142104D01*
X15652732Y11134820D01*
X15630446Y11102993D01*
X15628204Y11094625D01*
X15625738Y11089338D01*
X15623742Y11083853D01*
X15619412Y11076354D01*
X15617909Y11067828D01*
X15617908Y11067826D01*
X15612666Y11038093D01*
X15610796Y11029658D01*
X15604242Y11005198D01*
X15600736Y10992116D01*
X15604052Y10954223D01*
X15604123Y10953406D01*
X15604500Y10944777D01*
X15604500Y10749977D01*
X15585593Y10691786D01*
X15575504Y10679973D01*
X15515935Y10620404D01*
X15512276Y10612557D01*
X15512274Y10612554D01*
X15475681Y10534080D01*
X15465932Y10513173D01*
X15459500Y10464316D01*
X15459500Y10326874D01*
X15440593Y10268683D01*
X15391093Y10232719D01*
X15329907Y10232719D01*
X15290496Y10256870D01*
X14635009Y10912357D01*
X14629174Y10918725D01*
X14622311Y10926904D01*
X14604195Y10948494D01*
X14570532Y10967929D01*
X14563251Y10972568D01*
X14547657Y10983487D01*
X14531424Y10994854D01*
X14523056Y10997096D01*
X14517769Y10999562D01*
X14512284Y11001558D01*
X14504785Y11005888D01*
X14496259Y11007391D01*
X14496257Y11007392D01*
X14466524Y11012634D01*
X14458089Y11014504D01*
X14428914Y11022322D01*
X14420547Y11024564D01*
X14394933Y11022323D01*
X14381835Y11021177D01*
X14373206Y11020800D01*
X13864107Y11020800D01*
X13855478Y11021177D01*
X13854118Y11021296D01*
X13816766Y11024564D01*
X13808402Y11022323D01*
X13779223Y11014505D01*
X13770794Y11012636D01*
X13770783Y11012634D01*
X13732527Y11005888D01*
X13725026Y11001557D01*
X13719536Y10999559D01*
X13714255Y10997096D01*
X13705888Y10994854D01*
X13689655Y10983487D01*
X13674061Y10972568D01*
X13666780Y10967929D01*
X13633117Y10948494D01*
X13615001Y10926904D01*
X13608141Y10918729D01*
X13602307Y10912361D01*
X13469542Y10779596D01*
X13415025Y10751819D01*
X13399538Y10750600D01*
X13103166Y10750600D01*
X13044975Y10769507D01*
X13009011Y10819007D01*
X13008852Y10879699D01*
X13010472Y10884775D01*
X13013548Y10891124D01*
X13017121Y10912357D01*
X13036700Y11028733D01*
X13036700Y11028737D01*
X13037334Y11032503D01*
X13037485Y11044857D01*
X13017161Y11186775D01*
X12990503Y11245407D01*
X12960743Y11310861D01*
X12960742Y11310862D01*
X12957822Y11317285D01*
X12881338Y11406049D01*
X12857678Y11462471D01*
X12857338Y11470670D01*
X12857338Y12399636D01*
X12857715Y12408264D01*
X12858953Y12422418D01*
X12861101Y12446969D01*
X12858860Y12455332D01*
X12858860Y12455335D01*
X12851044Y12484506D01*
X12849175Y12492934D01*
X12848269Y12498071D01*
X12842426Y12531207D01*
X12838095Y12538708D01*
X12836096Y12544202D01*
X12833633Y12549484D01*
X12831392Y12557846D01*
X12809097Y12589687D01*
X12804474Y12596943D01*
X12785032Y12630617D01*
X12755267Y12655593D01*
X12748900Y12661427D01*
X12454830Y12955497D01*
X12427052Y13010013D01*
X12436623Y13070445D01*
X12479888Y13113710D01*
X12524833Y13124500D01*
X13154166Y13124500D01*
X13212357Y13105593D01*
G37*
G04 #@! TD.AperFunction*
G04 #@! TA.AperFunction,Conductor*
G36*
X27458691Y13880593D02*
G01*
X27494655Y13831093D01*
X27499500Y13800500D01*
X27499500Y11041360D01*
X27480593Y10983169D01*
X27431093Y10947205D01*
X27369907Y10947205D01*
X27325681Y10976529D01*
X27285190Y11023259D01*
X27285183Y11023266D01*
X27283738Y11024934D01*
X27263091Y11044857D01*
X27255544Y11052140D01*
X27255542Y11052141D01*
X27250449Y11057056D01*
X27243250Y11060822D01*
X27165041Y11101732D01*
X27160730Y11103987D01*
X27092609Y11123989D01*
X27019500Y11134500D01*
X26340551Y11134500D01*
X26282360Y11153407D01*
X26246396Y11202907D01*
X26246396Y11264093D01*
X26254814Y11282999D01*
X26260600Y11293021D01*
X26263991Y11298894D01*
X26279722Y11319396D01*
X26430677Y11470351D01*
X26485194Y11498128D01*
X26502494Y11499330D01*
X26519439Y11499019D01*
X26555446Y11498359D01*
X26555448Y11498359D01*
X26562499Y11498230D01*
X26569302Y11500085D01*
X26569304Y11500085D01*
X26669390Y11527372D01*
X26700817Y11535940D01*
X26822991Y11610955D01*
X26835174Y11624414D01*
X26914468Y11712018D01*
X26919200Y11717246D01*
X26964186Y11810098D01*
X26978634Y11839918D01*
X26981710Y11846267D01*
X26983501Y11856908D01*
X27004862Y11983876D01*
X27004862Y11983880D01*
X27005496Y11987646D01*
X27005647Y12000000D01*
X26985323Y12141918D01*
X26935888Y12250646D01*
X26928905Y12266004D01*
X26928904Y12266005D01*
X26925984Y12272428D01*
X26848705Y12362114D01*
X26837005Y12375693D01*
X26837004Y12375694D01*
X26832400Y12381037D01*
X26712095Y12459015D01*
X26574739Y12500093D01*
X26491497Y12500602D01*
X26438427Y12500926D01*
X26438426Y12500926D01*
X26431376Y12500969D01*
X26424599Y12499032D01*
X26424598Y12499032D01*
X26300309Y12463510D01*
X26300307Y12463509D01*
X26293529Y12461572D01*
X26287564Y12457808D01*
X26287561Y12457807D01*
X26179466Y12389605D01*
X26120164Y12374544D01*
X26063334Y12397217D01*
X26051640Y12408709D01*
X26037007Y12425692D01*
X26037001Y12425697D01*
X26032400Y12431037D01*
X25912095Y12509015D01*
X25774739Y12550093D01*
X25691497Y12550602D01*
X25638427Y12550926D01*
X25638426Y12550926D01*
X25631376Y12550969D01*
X25624599Y12549032D01*
X25624598Y12549032D01*
X25500309Y12513510D01*
X25500307Y12513509D01*
X25493529Y12511572D01*
X25372280Y12435070D01*
X25367613Y12429786D01*
X25367611Y12429784D01*
X25282044Y12332897D01*
X25282042Y12332895D01*
X25277377Y12327612D01*
X25216447Y12197837D01*
X25215362Y12190868D01*
X25215361Y12190865D01*
X25207595Y12140984D01*
X25194391Y12056177D01*
X25198954Y12021288D01*
X25199535Y12016842D01*
X25188333Y11956691D01*
X25171375Y11934001D01*
X25112004Y11874630D01*
X25057487Y11846853D01*
X24997055Y11856424D01*
X24953790Y11899689D01*
X24943000Y11944634D01*
X24943000Y13644748D01*
X24931367Y13703231D01*
X24925948Y13711341D01*
X24903125Y13745498D01*
X24886516Y13804387D01*
X24907694Y13861790D01*
X24958567Y13895783D01*
X24985440Y13899500D01*
X27400500Y13899500D01*
X27458691Y13880593D01*
G37*
G04 #@! TD.AperFunction*
G04 #@! TA.AperFunction,Conductor*
G36*
X4735118Y12730593D02*
G01*
X4771082Y12681093D01*
X4771082Y12619907D01*
X4768391Y12612614D01*
X4758835Y12589544D01*
X4746948Y12529781D01*
X4746000Y12520159D01*
X4746000Y12444680D01*
X4750122Y12431995D01*
X4754243Y12429000D01*
X7095000Y12429000D01*
X7153191Y12410093D01*
X7189155Y12360593D01*
X7194000Y12330000D01*
X7194000Y12020000D01*
X7175093Y11961809D01*
X7125593Y11925845D01*
X7095000Y11921000D01*
X4761681Y11921000D01*
X4748996Y11916878D01*
X4746001Y11912757D01*
X4746001Y11829844D01*
X4746949Y11820217D01*
X4758835Y11760459D01*
X4766155Y11742785D01*
X4795591Y11698731D01*
X4812200Y11639842D01*
X4810374Y11624417D01*
X4808737Y11616186D01*
X4806229Y11603577D01*
X4776331Y11550193D01*
X4720766Y11524578D01*
X4660756Y11536515D01*
X4655284Y11539817D01*
X4630551Y11555848D01*
X4587095Y11584015D01*
X4449739Y11625093D01*
X4366497Y11625602D01*
X4313427Y11625926D01*
X4313426Y11625926D01*
X4306376Y11625969D01*
X4299599Y11624032D01*
X4299598Y11624032D01*
X4175309Y11588510D01*
X4175307Y11588509D01*
X4168529Y11586572D01*
X4047280Y11510070D01*
X4042613Y11504786D01*
X4042611Y11504784D01*
X4008677Y11466360D01*
X3973730Y11426789D01*
X3973704Y11426760D01*
X3921012Y11395660D01*
X3860104Y11401470D01*
X3814243Y11441973D01*
X3800500Y11492294D01*
X3800500Y11569748D01*
X3793038Y11607263D01*
X3790770Y11618666D01*
X3790769Y11618668D01*
X3788867Y11628231D01*
X3744552Y11694552D01*
X3727979Y11705626D01*
X3701180Y11723533D01*
X3663301Y11771584D01*
X3660899Y11832722D01*
X3686178Y11875852D01*
X4530831Y12720504D01*
X4585348Y12748281D01*
X4600835Y12749500D01*
X4676927Y12749500D01*
X4735118Y12730593D01*
G37*
G04 #@! TD.AperFunction*
G04 #@! TA.AperFunction,Conductor*
G36*
X8911202Y13880593D02*
G01*
X8947166Y13831093D01*
X8947166Y13769907D01*
X8911202Y13720407D01*
X8902511Y13714764D01*
X8889975Y13707526D01*
X8889972Y13707524D01*
X8882473Y13703194D01*
X8857497Y13673429D01*
X8851663Y13667062D01*
X8664099Y13479497D01*
X8609582Y13451719D01*
X8594095Y13450500D01*
X8431099Y13450500D01*
X8372908Y13469407D01*
X8350602Y13491870D01*
X8347978Y13495535D01*
X8344372Y13502880D01*
X8334716Y13512519D01*
X8268170Y13578950D01*
X8268167Y13578952D01*
X8262379Y13584730D01*
X8158294Y13635608D01*
X8108771Y13642833D01*
X8094031Y13644983D01*
X8094029Y13644983D01*
X8090486Y13645500D01*
X7729514Y13645500D01*
X7725931Y13644972D01*
X7725924Y13644972D01*
X7668729Y13636552D01*
X7668727Y13636551D01*
X7661116Y13635431D01*
X7557120Y13584372D01*
X7551339Y13578581D01*
X7495101Y13522245D01*
X7440609Y13494420D01*
X7380169Y13503939D01*
X7355094Y13522124D01*
X7348977Y13528231D01*
X7292379Y13584730D01*
X7188294Y13635608D01*
X7138771Y13642833D01*
X7124031Y13644983D01*
X7124029Y13644983D01*
X7120486Y13645500D01*
X6759514Y13645500D01*
X6755931Y13644972D01*
X6755924Y13644972D01*
X6698729Y13636552D01*
X6698727Y13636551D01*
X6691116Y13635431D01*
X6587120Y13584372D01*
X6581339Y13578581D01*
X6543170Y13540345D01*
X6488678Y13512519D01*
X6428237Y13522038D01*
X6390790Y13555285D01*
X6369971Y13586442D01*
X6364552Y13594552D01*
X6298231Y13638867D01*
X6288668Y13640769D01*
X6288666Y13640770D01*
X6264885Y13645500D01*
X6239748Y13650500D01*
X4980252Y13650500D01*
X4955115Y13645500D01*
X4931334Y13640770D01*
X4931332Y13640769D01*
X4921769Y13638867D01*
X4855448Y13594552D01*
X4811133Y13528231D01*
X4809231Y13518668D01*
X4809230Y13518666D01*
X4801576Y13480186D01*
X4771679Y13426802D01*
X4716114Y13401186D01*
X4704478Y13400500D01*
X4443523Y13400500D01*
X4434894Y13400877D01*
X4429579Y13401342D01*
X4396193Y13404263D01*
X4387830Y13402022D01*
X4387827Y13402022D01*
X4358656Y13394206D01*
X4350229Y13392337D01*
X4311955Y13385588D01*
X4304454Y13381257D01*
X4298960Y13379258D01*
X4293678Y13376795D01*
X4285316Y13374554D01*
X4278223Y13369587D01*
X4278222Y13369587D01*
X4253478Y13352261D01*
X4246219Y13347636D01*
X4212545Y13328194D01*
X4206975Y13321556D01*
X4187574Y13298435D01*
X4181740Y13292067D01*
X3969504Y13079831D01*
X3914987Y13052054D01*
X3854555Y13061625D01*
X3811290Y13104890D01*
X3800500Y13149835D01*
X3800500Y13469748D01*
X3792760Y13508661D01*
X3790770Y13518666D01*
X3790769Y13518668D01*
X3788867Y13528231D01*
X3744552Y13594552D01*
X3678231Y13638867D01*
X3668668Y13640769D01*
X3668666Y13640770D01*
X3644885Y13645500D01*
X3619748Y13650500D01*
X2360252Y13650500D01*
X2335115Y13645500D01*
X2311334Y13640770D01*
X2311332Y13640769D01*
X2301769Y13638867D01*
X2235448Y13594552D01*
X2191133Y13528231D01*
X2189231Y13518668D01*
X2189230Y13518666D01*
X2187240Y13508661D01*
X2179500Y13469748D01*
X2179500Y13449413D01*
X2160593Y13391222D01*
X2111093Y13355258D01*
X2049907Y13355258D01*
X2042203Y13358277D01*
X2037501Y13361325D01*
X1900145Y13402403D01*
X1816903Y13402912D01*
X1763833Y13403236D01*
X1763832Y13403236D01*
X1756782Y13403279D01*
X1750005Y13401342D01*
X1750004Y13401342D01*
X1625715Y13365820D01*
X1625713Y13365819D01*
X1618935Y13363882D01*
X1497686Y13287380D01*
X1493019Y13282096D01*
X1493017Y13282094D01*
X1407450Y13185207D01*
X1407448Y13185205D01*
X1402783Y13179922D01*
X1341853Y13050147D01*
X1340768Y13043178D01*
X1340767Y13043175D01*
X1332179Y12988012D01*
X1319797Y12908487D01*
X1320712Y12901490D01*
X1320712Y12901489D01*
X1326869Y12854403D01*
X1338386Y12766331D01*
X1341226Y12759877D01*
X1341227Y12759873D01*
X1347145Y12746424D01*
X1353274Y12685547D01*
X1322449Y12632693D01*
X1300159Y12617687D01*
X1293668Y12614500D01*
X1222120Y12579372D01*
X1216338Y12573580D01*
X1196493Y12553701D01*
X1142000Y12525876D01*
X1081560Y12535396D01*
X1041367Y12573506D01*
X1039661Y12577625D01*
X951421Y12692621D01*
X836425Y12780861D01*
X702509Y12836330D01*
X696080Y12837176D01*
X696078Y12837177D01*
X565233Y12854403D01*
X558800Y12855250D01*
X552367Y12854403D01*
X421522Y12837177D01*
X421520Y12837176D01*
X415091Y12836330D01*
X388814Y12825446D01*
X337385Y12804144D01*
X276388Y12799344D01*
X224219Y12831313D01*
X200805Y12887842D01*
X200500Y12895608D01*
X200500Y13800500D01*
X219407Y13858691D01*
X268907Y13894655D01*
X299500Y13899500D01*
X8853011Y13899500D01*
X8911202Y13880593D01*
G37*
G04 #@! TD.AperFunction*
G04 #@! TA.AperFunction,Conductor*
G36*
X17083447Y13880593D02*
G01*
X17119411Y13831093D01*
X17119411Y13769907D01*
X17083447Y13720407D01*
X17052461Y13705311D01*
X16939956Y13673157D01*
X16939954Y13673156D01*
X16933176Y13671219D01*
X16811927Y13594717D01*
X16807260Y13589433D01*
X16807258Y13589431D01*
X16721691Y13492544D01*
X16721689Y13492542D01*
X16717024Y13487259D01*
X16656094Y13357484D01*
X16654816Y13349276D01*
X16654348Y13348352D01*
X16652947Y13343769D01*
X16652152Y13344012D01*
X16627184Y13294688D01*
X16572742Y13266765D01*
X16565646Y13265884D01*
X16565589Y13265879D01*
X16556938Y13265500D01*
X15178122Y13265500D01*
X15169493Y13265877D01*
X15139422Y13268508D01*
X15130793Y13269263D01*
X15093257Y13259205D01*
X15084831Y13257337D01*
X15075638Y13255716D01*
X15046555Y13250588D01*
X15039050Y13246255D01*
X15033573Y13244262D01*
X15028282Y13241795D01*
X15019916Y13239553D01*
X15012820Y13234585D01*
X15012821Y13234585D01*
X15004483Y13228747D01*
X14947095Y13210845D01*
X14894288Y13211168D01*
X14868427Y13211326D01*
X14868426Y13211326D01*
X14861376Y13211369D01*
X14854599Y13209432D01*
X14854598Y13209432D01*
X14730309Y13173910D01*
X14730307Y13173909D01*
X14723529Y13171972D01*
X14602280Y13095470D01*
X14597613Y13090186D01*
X14597611Y13090184D01*
X14512044Y12993297D01*
X14512042Y12993295D01*
X14507377Y12988012D01*
X14504381Y12981631D01*
X14485806Y12942068D01*
X14443960Y12897430D01*
X14383868Y12885913D01*
X14326188Y12914139D01*
X13573269Y13667057D01*
X13567434Y13673425D01*
X13567431Y13673429D01*
X13542455Y13703194D01*
X13534952Y13707526D01*
X13522417Y13714763D01*
X13481475Y13760231D01*
X13475078Y13821081D01*
X13505670Y13874070D01*
X13561565Y13898957D01*
X13571915Y13899500D01*
X17025256Y13899500D01*
X17083447Y13880593D01*
G37*
G04 #@! TD.AperFunction*
G04 #@! TD*
G04 #@! TA.AperFunction,Conductor*
G04 #@! TO.N,/LSU_H-*
G36*
X27087621Y10854998D02*
G01*
X27134114Y10801342D01*
X27145500Y10749000D01*
X27145501Y9172691D01*
X27125499Y9104570D01*
X27108596Y9083596D01*
X26261905Y8236905D01*
X26199593Y8202879D01*
X26172810Y8200000D01*
X25776000Y8200000D01*
X25707879Y8220002D01*
X25661386Y8273658D01*
X25650000Y8326000D01*
X25650000Y10308964D01*
X25663733Y10366166D01*
X25690088Y10417890D01*
X25690089Y10417893D01*
X25694590Y10426727D01*
X25709500Y10520863D01*
X25709500Y10611088D01*
X25729502Y10679209D01*
X25746405Y10700183D01*
X25884317Y10838095D01*
X25946629Y10872121D01*
X25973412Y10875000D01*
X27019500Y10875000D01*
X27087621Y10854998D01*
G37*
G04 #@! TD.AperFunction*
G04 #@! TD*
M02*
