G04 #@! TF.GenerationSoftware,KiCad,Pcbnew,(6.0.1)*
G04 #@! TF.CreationDate,2022-05-17T23:19:47+03:00*
G04 #@! TF.ProjectId,hellen1test,68656c6c-656e-4317-9465-73742e6b6963,b*
G04 #@! TF.SameCoordinates,PX141f5e0PYa2cace0*
G04 #@! TF.FileFunction,Legend,Bot*
G04 #@! TF.FilePolarity,Positive*
%FSLAX46Y46*%
G04 Gerber Fmt 4.6, Leading zero omitted, Abs format (unit mm)*
G04 Created by KiCad (PCBNEW (6.0.1)) date 2022-05-17 23:19:47*
%MOMM*%
%LPD*%
G01*
G04 APERTURE LIST*
%ADD10C,0.150000*%
%ADD11C,0.120000*%
%ADD12C,0.200000*%
G04 APERTURE END LIST*
D10*
G04 #@! TO.C,P7*
X6938095Y3597620D02*
X6938095Y4597620D01*
X6557142Y4597620D01*
X6461904Y4550000D01*
X6414285Y4502381D01*
X6366666Y4407143D01*
X6366666Y4264286D01*
X6414285Y4169048D01*
X6461904Y4121429D01*
X6557142Y4073810D01*
X6938095Y4073810D01*
X6033333Y4597620D02*
X5366666Y4597620D01*
X5795238Y3597620D01*
G04 #@! TO.C,P2*
X2498095Y15197620D02*
X2498095Y16197620D01*
X2117142Y16197620D01*
X2021904Y16150000D01*
X1974285Y16102381D01*
X1926666Y16007143D01*
X1926666Y15864286D01*
X1974285Y15769048D01*
X2021904Y15721429D01*
X2117142Y15673810D01*
X2498095Y15673810D01*
X1545714Y16102381D02*
X1498095Y16150000D01*
X1402857Y16197620D01*
X1164761Y16197620D01*
X1069523Y16150000D01*
X1021904Y16102381D01*
X974285Y16007143D01*
X974285Y15911905D01*
X1021904Y15769048D01*
X1593333Y15197620D01*
X974285Y15197620D01*
G04 #@! TO.C,P1*
X11838095Y15197620D02*
X11838095Y16197620D01*
X11457142Y16197620D01*
X11361904Y16150000D01*
X11314285Y16102381D01*
X11266666Y16007143D01*
X11266666Y15864286D01*
X11314285Y15769048D01*
X11361904Y15721429D01*
X11457142Y15673810D01*
X11838095Y15673810D01*
X10314285Y15197620D02*
X10885714Y15197620D01*
X10600000Y15197620D02*
X10600000Y16197620D01*
X10695238Y16054762D01*
X10790476Y15959524D01*
X10885714Y15911905D01*
G04 #@! TO.C,P6*
X3488095Y3417620D02*
X3488095Y4417620D01*
X3107142Y4417620D01*
X3011904Y4370000D01*
X2964285Y4322381D01*
X2916666Y4227143D01*
X2916666Y4084286D01*
X2964285Y3989048D01*
X3011904Y3941429D01*
X3107142Y3893810D01*
X3488095Y3893810D01*
X2059523Y4417620D02*
X2250000Y4417620D01*
X2345238Y4370000D01*
X2392857Y4322381D01*
X2488095Y4179524D01*
X2535714Y3989048D01*
X2535714Y3608096D01*
X2488095Y3512858D01*
X2440476Y3465239D01*
X2345238Y3417620D01*
X2154761Y3417620D01*
X2059523Y3465239D01*
X2011904Y3512858D01*
X1964285Y3608096D01*
X1964285Y3846191D01*
X2011904Y3941429D01*
X2059523Y3989048D01*
X2154761Y4036667D01*
X2345238Y4036667D01*
X2440476Y3989048D01*
X2488095Y3941429D01*
X2535714Y3846191D01*
G04 #@! TO.C,P3*
X5638095Y15197620D02*
X5638095Y16197620D01*
X5257142Y16197620D01*
X5161904Y16150000D01*
X5114285Y16102381D01*
X5066666Y16007143D01*
X5066666Y15864286D01*
X5114285Y15769048D01*
X5161904Y15721429D01*
X5257142Y15673810D01*
X5638095Y15673810D01*
X4733333Y16197620D02*
X4114285Y16197620D01*
X4447619Y15816667D01*
X4304761Y15816667D01*
X4209523Y15769048D01*
X4161904Y15721429D01*
X4114285Y15626191D01*
X4114285Y15388096D01*
X4161904Y15292858D01*
X4209523Y15245239D01*
X4304761Y15197620D01*
X4590476Y15197620D01*
X4685714Y15245239D01*
X4733333Y15292858D01*
G04 #@! TO.C,P5*
X11308095Y3337620D02*
X11308095Y4337620D01*
X10927142Y4337620D01*
X10831904Y4290000D01*
X10784285Y4242381D01*
X10736666Y4147143D01*
X10736666Y4004286D01*
X10784285Y3909048D01*
X10831904Y3861429D01*
X10927142Y3813810D01*
X11308095Y3813810D01*
X9831904Y4337620D02*
X10308095Y4337620D01*
X10355714Y3861429D01*
X10308095Y3909048D01*
X10212857Y3956667D01*
X9974761Y3956667D01*
X9879523Y3909048D01*
X9831904Y3861429D01*
X9784285Y3766191D01*
X9784285Y3528096D01*
X9831904Y3432858D01*
X9879523Y3385239D01*
X9974761Y3337620D01*
X10212857Y3337620D01*
X10308095Y3385239D01*
X10355714Y3432858D01*
G04 #@! TO.C,P4*
X8738095Y15197620D02*
X8738095Y16197620D01*
X8357142Y16197620D01*
X8261904Y16150000D01*
X8214285Y16102381D01*
X8166666Y16007143D01*
X8166666Y15864286D01*
X8214285Y15769048D01*
X8261904Y15721429D01*
X8357142Y15673810D01*
X8738095Y15673810D01*
X7309523Y15864286D02*
X7309523Y15197620D01*
X7547619Y16245239D02*
X7785714Y15530953D01*
X7166666Y15530953D01*
D11*
G04 #@! TO.C,P7*
X5164462Y3130000D02*
X4870000Y3130000D01*
X4870000Y470000D02*
X4870000Y3130000D01*
X7235538Y470000D02*
X7530000Y470000D01*
X5175627Y470000D02*
X4870000Y470000D01*
X7530000Y3130000D02*
X7530000Y470000D01*
X7224373Y3130000D02*
X7530000Y3130000D01*
G04 #@! TO.C,P2*
X724462Y14730000D02*
X430000Y14730000D01*
X430000Y12070000D02*
X430000Y14730000D01*
X735627Y12070000D02*
X430000Y12070000D01*
X2784373Y14730000D02*
X3090000Y14730000D01*
X3090000Y14730000D02*
X3090000Y12070000D01*
X2795538Y12070000D02*
X3090000Y12070000D01*
G04 #@! TO.C,P1*
X10064462Y14730000D02*
X9770000Y14730000D01*
X9770000Y12070000D02*
X9770000Y14730000D01*
X12135538Y12070000D02*
X12430000Y12070000D01*
X10075627Y12070000D02*
X9770000Y12070000D01*
X12124373Y14730000D02*
X12430000Y14730000D01*
X12430000Y14730000D02*
X12430000Y12070000D01*
D12*
G04 #@! TO.C,M1*
X937499Y11629490D02*
X12112499Y11668337D01*
X1212503Y4831663D02*
X1212503Y5656662D01*
X937499Y5931668D02*
X1212503Y5656662D01*
X12112499Y4775460D02*
X12112499Y11668337D01*
X1268705Y4781663D02*
X12112499Y4781663D01*
X1212503Y4831663D02*
X1268705Y4781663D01*
X937499Y5931668D02*
X937499Y11629490D01*
D11*
G04 #@! TO.C,P6*
X3835538Y470000D02*
X4130000Y470000D01*
X1764462Y3130000D02*
X1470000Y3130000D01*
X1775627Y470000D02*
X1470000Y470000D01*
X3824373Y3130000D02*
X4130000Y3130000D01*
X4130000Y3130000D02*
X4130000Y470000D01*
X1470000Y470000D02*
X1470000Y3130000D01*
G04 #@! TO.C,P3*
X5935538Y12070000D02*
X6230000Y12070000D01*
X3864462Y14730000D02*
X3570000Y14730000D01*
X6230000Y14730000D02*
X6230000Y12070000D01*
X3875627Y12070000D02*
X3570000Y12070000D01*
X5924373Y14730000D02*
X6230000Y14730000D01*
X3570000Y12070000D02*
X3570000Y14730000D01*
G04 #@! TO.C,P5*
X9464462Y3130000D02*
X9170000Y3130000D01*
X9475627Y470000D02*
X9170000Y470000D01*
X11830000Y3130000D02*
X11830000Y470000D01*
X9170000Y470000D02*
X9170000Y3130000D01*
X11524373Y3130000D02*
X11830000Y3130000D01*
X11535538Y470000D02*
X11830000Y470000D01*
G04 #@! TO.C,P4*
X9035538Y12070000D02*
X9330000Y12070000D01*
X6964462Y14730000D02*
X6670000Y14730000D01*
X9330000Y14730000D02*
X9330000Y12070000D01*
X6670000Y12070000D02*
X6670000Y14730000D01*
X6975627Y12070000D02*
X6670000Y12070000D01*
X9024373Y14730000D02*
X9330000Y14730000D01*
G04 #@! TD*
M02*
