G04 #@! TF.GenerationSoftware,KiCad,Pcbnew,(6.0.1)*
G04 #@! TF.CreationDate,2022-05-17T23:19:47+03:00*
G04 #@! TF.ProjectId,hellen1test,68656c6c-656e-4317-9465-73742e6b6963,b*
G04 #@! TF.SameCoordinates,PX141f5e0PYa2cace0*
G04 #@! TF.FileFunction,Legend,Top*
G04 #@! TF.FilePolarity,Positive*
%FSLAX46Y46*%
G04 Gerber Fmt 4.6, Leading zero omitted, Abs format (unit mm)*
G04 Created by KiCad (PCBNEW (6.0.1)) date 2022-05-17 23:19:47*
%MOMM*%
%LPD*%
G01*
G04 APERTURE LIST*
%ADD10C,0.200000*%
%ADD11C,0.120000*%
G04 APERTURE END LIST*
D10*
X9738095Y4300000D02*
X9642857Y4347620D01*
X9500000Y4347620D01*
X9357142Y4300000D01*
X9261904Y4204762D01*
X9214285Y4109524D01*
X9166666Y3919048D01*
X9166666Y3776191D01*
X9214285Y3585715D01*
X9261904Y3490477D01*
X9357142Y3395239D01*
X9500000Y3347620D01*
X9595238Y3347620D01*
X9738095Y3395239D01*
X9785714Y3442858D01*
X9785714Y3776191D01*
X9595238Y3776191D01*
X10214285Y3347620D02*
X10214285Y4347620D01*
X10785714Y3347620D01*
X10785714Y4347620D01*
X11261904Y3347620D02*
X11261904Y4347620D01*
X11500000Y4347620D01*
X11642857Y4300000D01*
X11738095Y4204762D01*
X11785714Y4109524D01*
X11833333Y3919048D01*
X11833333Y3776191D01*
X11785714Y3585715D01*
X11738095Y3490477D01*
X11642857Y3395239D01*
X11500000Y3347620D01*
X11261904Y3347620D01*
X10242857Y15628572D02*
X11004761Y15628572D01*
X10623809Y15247620D02*
X10623809Y16009524D01*
X11957142Y16247620D02*
X11480952Y16247620D01*
X11433333Y15771429D01*
X11480952Y15819048D01*
X11576190Y15866667D01*
X11814285Y15866667D01*
X11909523Y15819048D01*
X11957142Y15771429D01*
X12004761Y15676191D01*
X12004761Y15438096D01*
X11957142Y15342858D01*
X11909523Y15295239D01*
X11814285Y15247620D01*
X11576190Y15247620D01*
X11480952Y15295239D01*
X11433333Y15342858D01*
X7309523Y16247620D02*
X7880952Y16247620D01*
X7595238Y15247620D02*
X7595238Y16247620D01*
X8119047Y15247620D02*
X8642857Y15914286D01*
X8119047Y15914286D02*
X8642857Y15247620D01*
X4804761Y15247620D02*
X4471428Y15723810D01*
X4233333Y15247620D02*
X4233333Y16247620D01*
X4614285Y16247620D01*
X4709523Y16200000D01*
X4757142Y16152381D01*
X4804761Y16057143D01*
X4804761Y15914286D01*
X4757142Y15819048D01*
X4709523Y15771429D01*
X4614285Y15723810D01*
X4233333Y15723810D01*
X5138095Y15247620D02*
X5661904Y15914286D01*
X5138095Y15914286D02*
X5661904Y15247620D01*
X128571Y15628572D02*
X890476Y15628572D01*
X509523Y15247620D02*
X509523Y16009524D01*
X1271428Y16247620D02*
X1890476Y16247620D01*
X1557142Y15866667D01*
X1700000Y15866667D01*
X1795238Y15819048D01*
X1842857Y15771429D01*
X1890476Y15676191D01*
X1890476Y15438096D01*
X1842857Y15342858D01*
X1795238Y15295239D01*
X1700000Y15247620D01*
X1414285Y15247620D01*
X1319047Y15295239D01*
X1271428Y15342858D01*
X2319047Y15342858D02*
X2366666Y15295239D01*
X2319047Y15247620D01*
X2271428Y15295239D01*
X2319047Y15342858D01*
X2319047Y15247620D01*
X2700000Y16247620D02*
X3319047Y16247620D01*
X2985714Y15866667D01*
X3128571Y15866667D01*
X3223809Y15819048D01*
X3271428Y15771429D01*
X3319047Y15676191D01*
X3319047Y15438096D01*
X3271428Y15342858D01*
X3223809Y15295239D01*
X3128571Y15247620D01*
X2842857Y15247620D01*
X2747619Y15295239D01*
X2700000Y15342858D01*
X2419047Y3628572D02*
X3180952Y3628572D01*
X5919047Y3728572D02*
X6680952Y3728572D01*
X6300000Y3347620D02*
X6300000Y4109524D01*
D11*
G04 #@! TO.C,P7*
X5164462Y470000D02*
X4870000Y470000D01*
X4870000Y3130000D02*
X4870000Y470000D01*
X5175627Y3130000D02*
X4870000Y3130000D01*
X7530000Y470000D02*
X7530000Y3130000D01*
X7235538Y3130000D02*
X7530000Y3130000D01*
X7224373Y470000D02*
X7530000Y470000D01*
G04 #@! TO.C,P2*
X2795538Y14730000D02*
X3090000Y14730000D01*
X735627Y14730000D02*
X430000Y14730000D01*
X724462Y12070000D02*
X430000Y12070000D01*
X2784373Y12070000D02*
X3090000Y12070000D01*
X430000Y14730000D02*
X430000Y12070000D01*
X3090000Y12070000D02*
X3090000Y14730000D01*
G04 #@! TO.C,P1*
X12124373Y12070000D02*
X12430000Y12070000D01*
X9770000Y14730000D02*
X9770000Y12070000D01*
X10064462Y12070000D02*
X9770000Y12070000D01*
X12430000Y12070000D02*
X12430000Y14730000D01*
X10075627Y14730000D02*
X9770000Y14730000D01*
X12135538Y14730000D02*
X12430000Y14730000D01*
D10*
G04 #@! TO.C,M1*
X937499Y11629142D02*
X12112499Y11667989D01*
X937499Y5931661D02*
X937499Y11629142D01*
X1212503Y4781663D02*
X1212505Y4781660D01*
X12112499Y4781660D02*
X12112499Y11667989D01*
X1212503Y4781663D02*
X1212503Y5656657D01*
X937499Y5931661D02*
X1212503Y5656657D01*
X1212505Y4781660D02*
X12112499Y4781660D01*
D11*
G04 #@! TO.C,P6*
X1764462Y470000D02*
X1470000Y470000D01*
X4130000Y470000D02*
X4130000Y3130000D01*
X3835538Y3130000D02*
X4130000Y3130000D01*
X1470000Y3130000D02*
X1470000Y470000D01*
X3824373Y470000D02*
X4130000Y470000D01*
X1775627Y3130000D02*
X1470000Y3130000D01*
G04 #@! TO.C,P3*
X5935538Y14730000D02*
X6230000Y14730000D01*
X5924373Y12070000D02*
X6230000Y12070000D01*
X3875627Y14730000D02*
X3570000Y14730000D01*
X3570000Y14730000D02*
X3570000Y12070000D01*
X3864462Y12070000D02*
X3570000Y12070000D01*
X6230000Y12070000D02*
X6230000Y14730000D01*
G04 #@! TO.C,P5*
X11830000Y470000D02*
X11830000Y3130000D01*
X11535538Y3130000D02*
X11830000Y3130000D01*
X11524373Y470000D02*
X11830000Y470000D01*
X9464462Y470000D02*
X9170000Y470000D01*
X9170000Y3130000D02*
X9170000Y470000D01*
X9475627Y3130000D02*
X9170000Y3130000D01*
G04 #@! TO.C,P4*
X6670000Y14730000D02*
X6670000Y12070000D01*
X9024373Y12070000D02*
X9330000Y12070000D01*
X6975627Y14730000D02*
X6670000Y14730000D01*
X9330000Y12070000D02*
X9330000Y14730000D01*
X9035538Y14730000D02*
X9330000Y14730000D01*
X6964462Y12070000D02*
X6670000Y12070000D01*
G04 #@! TD*
M02*
