G04*
G04 #@! TF.GenerationSoftware,Altium Limited,Altium Designer,22.1.2 (22)*
G04*
G04 Layer_Physical_Order=1*
G04 Layer_Color=255*
%FSLAX25Y25*%
%MOIN*%
G70*
G04*
G04 #@! TF.SameCoordinates,300396C6-366C-4058-890B-6905B7C57089*
G04*
G04*
G04 #@! TF.FilePolarity,Positive*
G04*
G01*
G75*
%ADD10C,0.00787*%
%ADD11C,0.00984*%
%ADD14O,0.04961X0.00984*%
G04:AMPARAMS|DCode=15|XSize=33.47mil|YSize=33.47mil|CornerRadius=3.35mil|HoleSize=0mil|Usage=FLASHONLY|Rotation=0.000|XOffset=0mil|YOffset=0mil|HoleType=Round|Shape=RoundedRectangle|*
%AMROUNDEDRECTD15*
21,1,0.03347,0.02677,0,0,0.0*
21,1,0.02677,0.03347,0,0,0.0*
1,1,0.00669,0.01339,-0.01339*
1,1,0.00669,-0.01339,-0.01339*
1,1,0.00669,-0.01339,0.01339*
1,1,0.00669,0.01339,0.01339*
%
%ADD15ROUNDEDRECTD15*%
G04:AMPARAMS|DCode=16|XSize=27.56mil|YSize=36.22mil|CornerRadius=2.76mil|HoleSize=0mil|Usage=FLASHONLY|Rotation=0.000|XOffset=0mil|YOffset=0mil|HoleType=Round|Shape=RoundedRectangle|*
%AMROUNDEDRECTD16*
21,1,0.02756,0.03071,0,0,0.0*
21,1,0.02205,0.03622,0,0,0.0*
1,1,0.00551,0.01102,-0.01535*
1,1,0.00551,-0.01102,-0.01535*
1,1,0.00551,-0.01102,0.01535*
1,1,0.00551,0.01102,0.01535*
%
%ADD16ROUNDEDRECTD16*%
G04:AMPARAMS|DCode=17|XSize=27.56mil|YSize=36.22mil|CornerRadius=2.76mil|HoleSize=0mil|Usage=FLASHONLY|Rotation=270.000|XOffset=0mil|YOffset=0mil|HoleType=Round|Shape=RoundedRectangle|*
%AMROUNDEDRECTD17*
21,1,0.02756,0.03071,0,0,270.0*
21,1,0.02205,0.03622,0,0,270.0*
1,1,0.00551,-0.01535,-0.01102*
1,1,0.00551,-0.01535,0.01102*
1,1,0.00551,0.01535,0.01102*
1,1,0.00551,0.01535,-0.01102*
%
%ADD17ROUNDEDRECTD17*%
G04:AMPARAMS|DCode=24|XSize=25.59mil|YSize=9.84mil|CornerRadius=0mil|HoleSize=0mil|Usage=FLASHONLY|Rotation=45.000|XOffset=0mil|YOffset=0mil|HoleType=Round|Shape=Round|*
%AMOVALD24*
21,1,0.01575,0.00984,0.00000,0.00000,45.0*
1,1,0.00984,-0.00557,-0.00557*
1,1,0.00984,0.00557,0.00557*
%
%ADD24OVALD24*%

%ADD25O,0.22835X0.00984*%
%ADD26O,0.00984X0.40158*%
%ADD27O,0.00787X0.01575*%
%ADD28C,0.02362*%
G36*
X18639Y52126D02*
Y49449D01*
X18726Y49011D01*
X18974Y48640D01*
X19346Y48392D01*
X19783Y48305D01*
X20635D01*
X20784Y47559D01*
X21219Y46908D01*
X21870Y46472D01*
X22638Y46320D01*
X23143Y46420D01*
X23593Y46047D01*
X23597Y46040D01*
Y44744D01*
X23696Y44245D01*
X23979Y43822D01*
X24346Y43455D01*
X24376Y43093D01*
X24325Y42839D01*
X24279Y42808D01*
X24174Y42652D01*
X23684Y42554D01*
X23465Y42701D01*
X22697Y42854D01*
X21929Y42701D01*
X21278Y42266D01*
X20843Y41614D01*
X20690Y40846D01*
X20843Y40078D01*
X21278Y39427D01*
X21297Y39415D01*
X21191Y38884D01*
X21082Y38862D01*
X20431Y38427D01*
X19996Y37776D01*
X19843Y37008D01*
X19996Y36240D01*
X20431Y35589D01*
X20912Y35267D01*
X21081Y35135D01*
X21055Y34649D01*
X20843Y34331D01*
X20690Y33563D01*
X20843Y32795D01*
X21278Y32144D01*
X21573Y31947D01*
Y31636D01*
X21138Y30985D01*
X20985Y30217D01*
X21138Y29449D01*
X21573Y28797D01*
X22089Y28452D01*
Y28439D01*
X22089Y28439D01*
X22181Y27978D01*
X22442Y27587D01*
X23879Y26151D01*
X23895Y26083D01*
X23788Y25534D01*
X23345Y25238D01*
X22909Y24587D01*
X22757Y23819D01*
X22909Y23051D01*
X23345Y22400D01*
X23996Y21965D01*
X24085Y21437D01*
X24050Y21260D01*
X24149Y20761D01*
X24366Y20436D01*
X24388Y20118D01*
X24325Y19807D01*
X24279Y19777D01*
X24053Y19440D01*
X23482Y19304D01*
X20240Y22546D01*
Y29035D01*
X20240Y29035D01*
X20148Y29496D01*
X19887Y29887D01*
X19887Y29887D01*
X18717Y31057D01*
X18717Y31057D01*
X7544Y42230D01*
X7544Y42232D01*
X7327Y42556D01*
X7305Y42875D01*
X7368Y43185D01*
X7414Y43216D01*
X7744Y43709D01*
X7761Y43791D01*
X4350D01*
Y44791D01*
X7761D01*
X7744Y44873D01*
X7414Y45367D01*
X7329Y45424D01*
Y45587D01*
X7390Y45984D01*
X7911Y46505D01*
X8194Y46928D01*
X8293Y47427D01*
Y47957D01*
X8598Y48120D01*
X8793Y48179D01*
X9252Y48088D01*
X10091D01*
Y50787D01*
X11091D01*
Y48088D01*
X11929D01*
X12450Y48192D01*
X12746Y48390D01*
X13042Y48192D01*
X13563Y48088D01*
X14401D01*
Y50787D01*
X14901D01*
Y51287D01*
X17601D01*
Y52126D01*
X17677Y52219D01*
X18563D01*
X18639Y52126D01*
D02*
G37*
%LPC*%
G36*
X17601Y50287D02*
X15402D01*
Y48088D01*
X16240D01*
X16761Y48192D01*
X17202Y48487D01*
X17497Y48928D01*
X17601Y49449D01*
Y50287D01*
D02*
G37*
%LPD*%
D10*
X25354Y26378D02*
X27343D01*
X23293Y28439D02*
X25354Y26378D01*
X23293Y28439D02*
Y29915D01*
X22992Y30217D02*
X23293Y29915D01*
X27264Y31496D02*
X27343D01*
X25354D02*
X27264D01*
X23589Y33262D02*
X25354Y31496D01*
X22998Y33262D02*
X23589D01*
X22697Y33563D02*
X22998Y33262D01*
X25408Y34055D02*
X27343D01*
X25059Y34404D02*
X25408Y34055D01*
X25059Y34404D02*
Y34541D01*
X22894Y36707D02*
X25059Y34541D01*
X22152Y36707D02*
X22894D01*
X21850Y37008D02*
X22152Y36707D01*
X23771Y38391D02*
X24315Y37847D01*
X22697Y40420D02*
Y40846D01*
Y40420D02*
X23681Y39436D01*
Y38518D02*
Y39436D01*
Y38518D02*
X23771Y38428D01*
Y38391D02*
Y38428D01*
X25408Y36614D02*
X27343D01*
X24315Y37707D02*
X25408Y36614D01*
X24315Y37707D02*
Y37847D01*
X27165Y31594D02*
X27264Y31496D01*
X8012Y18008D02*
Y22525D01*
X4724Y14701D02*
X7807Y17783D01*
Y17803D01*
X8012Y18008D01*
X6756Y23781D02*
X8012Y22525D01*
X7265Y43172D02*
X20610Y29827D01*
X7265Y43172D02*
Y43365D01*
X20610Y22839D02*
Y29827D01*
Y22839D02*
X23961Y19488D01*
X14311Y20039D02*
X18996Y15354D01*
X14311Y20039D02*
Y26437D01*
X15886Y20692D02*
Y27089D01*
X18806Y17771D02*
X18806D01*
X15886Y20692D02*
X18806Y17771D01*
X17461Y21344D02*
Y28051D01*
Y21344D02*
X22387Y16417D01*
X6339Y44291D02*
X7265Y43365D01*
X4388Y26340D02*
X6860D01*
X9587Y17355D02*
Y23614D01*
X6860Y26340D02*
X9587Y23614D01*
X4350Y26378D02*
X4388Y26340D01*
X7283Y8858D02*
X7480D01*
X4350Y23819D02*
X4388Y23781D01*
X6756D01*
X26476Y9350D02*
X27067Y8760D01*
X24383Y17028D02*
X26476Y14934D01*
Y9350D02*
Y14934D01*
X23961Y19488D02*
X23961D01*
X24748Y18701D02*
X27343D01*
X23961Y19488D02*
X24748Y18701D01*
X24055Y17028D02*
X24383D01*
X19036Y22047D02*
X24055Y17028D01*
X19036Y22047D02*
Y29035D01*
X17865Y30205D02*
X17865D01*
X19036Y29035D01*
X6339Y41732D02*
X17865Y30205D01*
X4350Y41732D02*
X6339D01*
Y39173D02*
X17461Y28051D01*
X4350Y39173D02*
X6339D01*
X4350Y36614D02*
X6361D01*
X15886Y27089D01*
X4350Y34055D02*
X4388Y34017D01*
X6731D01*
X14311Y26437D01*
X4350Y31496D02*
X4388Y31458D01*
X6792D01*
X12736Y25515D01*
X7087Y28937D02*
X11162Y24862D01*
X4350Y28937D02*
X7087D01*
X11162Y16683D02*
Y24862D01*
X22387Y14325D02*
X23130Y13583D01*
X22387Y14325D02*
Y16417D01*
X20571Y11444D02*
Y16007D01*
X18806Y17771D02*
X20571Y16007D01*
Y11444D02*
X21467Y10548D01*
X17815Y8661D02*
X18996Y9843D01*
X12106Y8858D02*
X12491Y9243D01*
Y10845D01*
X12736Y11090D02*
Y25515D01*
X12491Y10845D02*
X12736Y11090D01*
X15059Y10433D02*
X15499Y10873D01*
X15059Y1084D02*
Y10433D01*
X29232Y13583D02*
X30170Y12645D01*
X21467Y9833D02*
X22441Y8858D01*
X21467Y9833D02*
Y10548D01*
X15499Y10873D02*
Y12447D01*
X30170Y10748D02*
X30610Y10308D01*
Y1084D02*
Y10308D01*
X18996Y9843D02*
Y15354D01*
X10138Y13189D02*
Y15660D01*
X11162Y16683D01*
X9382Y17131D02*
Y17151D01*
X9587Y17355D01*
X6299Y9843D02*
Y14048D01*
X9382Y17131D01*
X3642Y9646D02*
Y13618D01*
X4724Y14701D01*
Y14701D01*
X15499Y12447D02*
X16240Y13189D01*
X6299Y9843D02*
X7283Y8858D01*
X2854D02*
X3642Y9646D01*
X30170Y10748D02*
Y12645D01*
D11*
X25354Y46850D02*
X27343D01*
X23011Y48327D02*
X23471Y47866D01*
X24902Y44744D02*
Y46850D01*
X25354Y44291D02*
X27343D01*
X24902Y44744D02*
X25354Y44291D01*
X23471Y47866D02*
X23886D01*
X25354Y46850D02*
X25354Y46850D01*
X23886Y47866D02*
X24902Y46850D01*
X25354D01*
X22638Y48327D02*
X23011D01*
X591Y21260D02*
Y44193D01*
Y21260D02*
X4350D01*
X2461Y18701D02*
X4350D01*
X2362D02*
X2461D01*
Y21161D01*
X1476Y17815D02*
X2362Y18701D01*
X1083Y17815D02*
X1476D01*
X14901Y50787D02*
Y53740D01*
X12844D02*
X14901D01*
X10591Y50787D02*
Y53740D01*
X12844D01*
X22303Y49034D02*
Y49606D01*
X21122Y50787D02*
X22303Y49606D01*
Y49034D02*
X22638Y48700D01*
Y48327D02*
Y48700D01*
X14901Y50787D02*
X22382Y43307D01*
X23716D01*
X25291Y41732D01*
X27343D01*
X6339Y44291D02*
X7480D01*
X9901Y46712D02*
Y50098D01*
X7480Y44291D02*
X9901Y46712D01*
X4350Y44291D02*
X6339D01*
X10591Y50787D02*
X14901D01*
X886Y44291D02*
X4350D01*
X9901Y50098D02*
X10591Y50787D01*
X4370D02*
X5551Y49606D01*
X6594D01*
X6988Y49213D01*
Y47427D02*
Y49213D01*
X4350Y46850D02*
X6412D01*
X6988Y47427D01*
X7265Y43365D02*
X7265D01*
D14*
X27343Y18701D02*
D03*
Y21260D02*
D03*
Y23819D02*
D03*
Y26378D02*
D03*
Y28937D02*
D03*
Y31496D02*
D03*
Y34055D02*
D03*
Y36614D02*
D03*
Y39173D02*
D03*
Y41732D02*
D03*
Y44291D02*
D03*
Y46850D02*
D03*
X4350Y18701D02*
D03*
Y21260D02*
D03*
Y23819D02*
D03*
Y26378D02*
D03*
Y28937D02*
D03*
Y31496D02*
D03*
Y34055D02*
D03*
Y36614D02*
D03*
Y39173D02*
D03*
Y41732D02*
D03*
Y44291D02*
D03*
Y46850D02*
D03*
D15*
X4370Y50787D02*
D03*
X10591D02*
D03*
X21122Y50787D02*
D03*
X14901D02*
D03*
D16*
X23130Y13583D02*
D03*
X29429D02*
D03*
X10138Y13189D02*
D03*
X16437D02*
D03*
D17*
X18213Y2559D02*
D03*
Y8858D02*
D03*
X11890Y8858D02*
D03*
Y2559D02*
D03*
X7264D02*
D03*
Y8858D02*
D03*
X27441Y8760D02*
D03*
Y2461D02*
D03*
X2638Y8858D02*
D03*
Y2559D02*
D03*
X22835Y8858D02*
D03*
Y2559D02*
D03*
D24*
X1181Y53150D02*
D03*
D25*
X12844Y53740D02*
D03*
D26*
X591Y33071D02*
D03*
D27*
X2854Y1084D02*
D03*
X7480D02*
D03*
X30610D02*
D03*
X27618D02*
D03*
X22992D02*
D03*
X12106D02*
D03*
X18366D02*
D03*
X15059D02*
D03*
D28*
X6594Y49508D02*
D03*
X22638Y48327D02*
D03*
X29921Y21260D02*
D03*
X24764Y23819D02*
D03*
X22992Y30217D02*
D03*
X29921Y28937D02*
D03*
X22697Y33563D02*
D03*
X21850Y37008D02*
D03*
X29921Y39173D02*
D03*
X22697Y40846D02*
D03*
M02*
