G04 #@! TF.GenerationSoftware,KiCad,Pcbnew,(6.0.8)*
G04 #@! TF.CreationDate,2022-12-14T13:47:10+03:00*
G04 #@! TF.ProjectId,hellen1-wbo,68656c6c-656e-4312-9d77-626f2e6b6963,0.3*
G04 #@! TF.SameCoordinates,PX4a19ba0PY5aa5910*
G04 #@! TF.FileFunction,Soldermask,Top*
G04 #@! TF.FilePolarity,Negative*
%FSLAX46Y46*%
G04 Gerber Fmt 4.6, Leading zero omitted, Abs format (unit mm)*
G04 Created by KiCad (PCBNEW (6.0.8)) date 2022-12-14 13:47:10*
%MOMM*%
%LPD*%
G01*
G04 APERTURE LIST*
%ADD10R,0.900000X0.800000*%
%ADD11R,1.200000X2.200000*%
%ADD12C,1.300000*%
%ADD13R,5.800000X6.400000*%
%ADD14R,0.800000X0.900000*%
%ADD15C,0.990600*%
%ADD16C,0.787400*%
%ADD17R,1.905000X2.000000*%
%ADD18O,1.905000X2.000000*%
G04 APERTURE END LIST*
G04 #@! TO.C,C612*
G36*
G01*
X17172500Y9070000D02*
X16827500Y9070000D01*
G75*
G02*
X16680000Y9217500I0J147500D01*
G01*
X16680000Y9512500D01*
G75*
G02*
X16827500Y9660000I147500J0D01*
G01*
X17172500Y9660000D01*
G75*
G02*
X17320000Y9512500I0J-147500D01*
G01*
X17320000Y9217500D01*
G75*
G02*
X17172500Y9070000I-147500J0D01*
G01*
G37*
G36*
G01*
X17172500Y10040000D02*
X16827500Y10040000D01*
G75*
G02*
X16680000Y10187500I0J147500D01*
G01*
X16680000Y10482500D01*
G75*
G02*
X16827500Y10630000I147500J0D01*
G01*
X17172500Y10630000D01*
G75*
G02*
X17320000Y10482500I0J-147500D01*
G01*
X17320000Y10187500D01*
G75*
G02*
X17172500Y10040000I-147500J0D01*
G01*
G37*
G04 #@! TD*
G04 #@! TO.C,C613*
G36*
G01*
X2295000Y5152500D02*
X2295000Y5497500D01*
G75*
G02*
X2442500Y5645000I147500J0D01*
G01*
X2737500Y5645000D01*
G75*
G02*
X2885000Y5497500I0J-147500D01*
G01*
X2885000Y5152500D01*
G75*
G02*
X2737500Y5005000I-147500J0D01*
G01*
X2442500Y5005000D01*
G75*
G02*
X2295000Y5152500I0J147500D01*
G01*
G37*
G36*
G01*
X3265000Y5152500D02*
X3265000Y5497500D01*
G75*
G02*
X3412500Y5645000I147500J0D01*
G01*
X3707500Y5645000D01*
G75*
G02*
X3855000Y5497500I0J-147500D01*
G01*
X3855000Y5152500D01*
G75*
G02*
X3707500Y5005000I-147500J0D01*
G01*
X3412500Y5005000D01*
G75*
G02*
X3265000Y5152500I0J147500D01*
G01*
G37*
G04 #@! TD*
G04 #@! TO.C,C616*
G36*
G01*
X4968750Y9012500D02*
X5481250Y9012500D01*
G75*
G02*
X5700000Y8793750I0J-218750D01*
G01*
X5700000Y8356250D01*
G75*
G02*
X5481250Y8137500I-218750J0D01*
G01*
X4968750Y8137500D01*
G75*
G02*
X4750000Y8356250I0J218750D01*
G01*
X4750000Y8793750D01*
G75*
G02*
X4968750Y9012500I218750J0D01*
G01*
G37*
G36*
G01*
X4968750Y7437500D02*
X5481250Y7437500D01*
G75*
G02*
X5700000Y7218750I0J-218750D01*
G01*
X5700000Y6781250D01*
G75*
G02*
X5481250Y6562500I-218750J0D01*
G01*
X4968750Y6562500D01*
G75*
G02*
X4750000Y6781250I0J218750D01*
G01*
X4750000Y7218750D01*
G75*
G02*
X4968750Y7437500I218750J0D01*
G01*
G37*
G04 #@! TD*
G04 #@! TO.C,R601*
G36*
G01*
X16777500Y2655000D02*
X17122500Y2655000D01*
G75*
G02*
X17270000Y2507500I0J-147500D01*
G01*
X17270000Y2212500D01*
G75*
G02*
X17122500Y2065000I-147500J0D01*
G01*
X16777500Y2065000D01*
G75*
G02*
X16630000Y2212500I0J147500D01*
G01*
X16630000Y2507500D01*
G75*
G02*
X16777500Y2655000I147500J0D01*
G01*
G37*
G36*
G01*
X16777500Y1685000D02*
X17122500Y1685000D01*
G75*
G02*
X17270000Y1537500I0J-147500D01*
G01*
X17270000Y1242500D01*
G75*
G02*
X17122500Y1095000I-147500J0D01*
G01*
X16777500Y1095000D01*
G75*
G02*
X16630000Y1242500I0J147500D01*
G01*
X16630000Y1537500D01*
G75*
G02*
X16777500Y1685000I147500J0D01*
G01*
G37*
G04 #@! TD*
D10*
G04 #@! TO.C,U604*
X3775000Y6675000D03*
X3775000Y8575000D03*
X1775000Y7625000D03*
G04 #@! TD*
G04 #@! TO.C,C600*
G36*
G01*
X15715000Y2655000D02*
X16060000Y2655000D01*
G75*
G02*
X16207500Y2507500I0J-147500D01*
G01*
X16207500Y2212500D01*
G75*
G02*
X16060000Y2065000I-147500J0D01*
G01*
X15715000Y2065000D01*
G75*
G02*
X15567500Y2212500I0J147500D01*
G01*
X15567500Y2507500D01*
G75*
G02*
X15715000Y2655000I147500J0D01*
G01*
G37*
G36*
G01*
X15715000Y1685000D02*
X16060000Y1685000D01*
G75*
G02*
X16207500Y1537500I0J-147500D01*
G01*
X16207500Y1242500D01*
G75*
G02*
X16060000Y1095000I-147500J0D01*
G01*
X15715000Y1095000D01*
G75*
G02*
X15567500Y1242500I0J147500D01*
G01*
X15567500Y1537500D01*
G75*
G02*
X15715000Y1685000I147500J0D01*
G01*
G37*
G04 #@! TD*
G04 #@! TO.C,C611*
G36*
G01*
X16827500Y8730000D02*
X17172500Y8730000D01*
G75*
G02*
X17320000Y8582500I0J-147500D01*
G01*
X17320000Y8287500D01*
G75*
G02*
X17172500Y8140000I-147500J0D01*
G01*
X16827500Y8140000D01*
G75*
G02*
X16680000Y8287500I0J147500D01*
G01*
X16680000Y8582500D01*
G75*
G02*
X16827500Y8730000I147500J0D01*
G01*
G37*
G36*
G01*
X16827500Y7760000D02*
X17172500Y7760000D01*
G75*
G02*
X17320000Y7612500I0J-147500D01*
G01*
X17320000Y7317500D01*
G75*
G02*
X17172500Y7170000I-147500J0D01*
G01*
X16827500Y7170000D01*
G75*
G02*
X16680000Y7317500I0J147500D01*
G01*
X16680000Y7612500D01*
G75*
G02*
X16827500Y7760000I147500J0D01*
G01*
G37*
G04 #@! TD*
G04 #@! TO.C,R617*
G36*
G01*
X15872500Y11845000D02*
X15527500Y11845000D01*
G75*
G02*
X15380000Y11992500I0J147500D01*
G01*
X15380000Y12287500D01*
G75*
G02*
X15527500Y12435000I147500J0D01*
G01*
X15872500Y12435000D01*
G75*
G02*
X16020000Y12287500I0J-147500D01*
G01*
X16020000Y11992500D01*
G75*
G02*
X15872500Y11845000I-147500J0D01*
G01*
G37*
G36*
G01*
X15872500Y12815000D02*
X15527500Y12815000D01*
G75*
G02*
X15380000Y12962500I0J147500D01*
G01*
X15380000Y13257500D01*
G75*
G02*
X15527500Y13405000I147500J0D01*
G01*
X15872500Y13405000D01*
G75*
G02*
X16020000Y13257500I0J-147500D01*
G01*
X16020000Y12962500D01*
G75*
G02*
X15872500Y12815000I-147500J0D01*
G01*
G37*
G04 #@! TD*
G04 #@! TO.C,C614*
G36*
G01*
X17172500Y5045000D02*
X16827500Y5045000D01*
G75*
G02*
X16680000Y5192500I0J147500D01*
G01*
X16680000Y5487500D01*
G75*
G02*
X16827500Y5635000I147500J0D01*
G01*
X17172500Y5635000D01*
G75*
G02*
X17320000Y5487500I0J-147500D01*
G01*
X17320000Y5192500D01*
G75*
G02*
X17172500Y5045000I-147500J0D01*
G01*
G37*
G36*
G01*
X17172500Y6015000D02*
X16827500Y6015000D01*
G75*
G02*
X16680000Y6162500I0J147500D01*
G01*
X16680000Y6457500D01*
G75*
G02*
X16827500Y6605000I147500J0D01*
G01*
X17172500Y6605000D01*
G75*
G02*
X17320000Y6457500I0J-147500D01*
G01*
X17320000Y6162500D01*
G75*
G02*
X17172500Y6015000I-147500J0D01*
G01*
G37*
G04 #@! TD*
G04 #@! TO.C,C615*
G36*
G01*
X7072500Y11845000D02*
X6727500Y11845000D01*
G75*
G02*
X6580000Y11992500I0J147500D01*
G01*
X6580000Y12287500D01*
G75*
G02*
X6727500Y12435000I147500J0D01*
G01*
X7072500Y12435000D01*
G75*
G02*
X7220000Y12287500I0J-147500D01*
G01*
X7220000Y11992500D01*
G75*
G02*
X7072500Y11845000I-147500J0D01*
G01*
G37*
G36*
G01*
X7072500Y12815000D02*
X6727500Y12815000D01*
G75*
G02*
X6580000Y12962500I0J147500D01*
G01*
X6580000Y13257500D01*
G75*
G02*
X6727500Y13405000I147500J0D01*
G01*
X7072500Y13405000D01*
G75*
G02*
X7220000Y13257500I0J-147500D01*
G01*
X7220000Y12962500D01*
G75*
G02*
X7072500Y12815000I-147500J0D01*
G01*
G37*
G04 #@! TD*
D11*
G04 #@! TO.C,Q600*
X23440000Y10150000D03*
D12*
X23160000Y2950000D03*
X21160000Y5950000D03*
X19160000Y2950000D03*
D13*
X21160000Y3850000D03*
D11*
X18880000Y10150000D03*
G04 #@! TD*
G04 #@! TO.C,R625*
G36*
G01*
X4270000Y5127500D02*
X4270000Y5472500D01*
G75*
G02*
X4417500Y5620000I147500J0D01*
G01*
X4712500Y5620000D01*
G75*
G02*
X4860000Y5472500I0J-147500D01*
G01*
X4860000Y5127500D01*
G75*
G02*
X4712500Y4980000I-147500J0D01*
G01*
X4417500Y4980000D01*
G75*
G02*
X4270000Y5127500I0J147500D01*
G01*
G37*
G36*
G01*
X5240000Y5127500D02*
X5240000Y5472500D01*
G75*
G02*
X5387500Y5620000I147500J0D01*
G01*
X5682500Y5620000D01*
G75*
G02*
X5830000Y5472500I0J-147500D01*
G01*
X5830000Y5127500D01*
G75*
G02*
X5682500Y4980000I-147500J0D01*
G01*
X5387500Y4980000D01*
G75*
G02*
X5240000Y5127500I0J147500D01*
G01*
G37*
G04 #@! TD*
G04 #@! TO.C,D601*
G36*
G01*
X14050000Y1656250D02*
X14050000Y1143750D01*
G75*
G02*
X13831250Y925000I-218750J0D01*
G01*
X13393750Y925000D01*
G75*
G02*
X13175000Y1143750I0J218750D01*
G01*
X13175000Y1656250D01*
G75*
G02*
X13393750Y1875000I218750J0D01*
G01*
X13831250Y1875000D01*
G75*
G02*
X14050000Y1656250I0J-218750D01*
G01*
G37*
G36*
G01*
X12475000Y1656250D02*
X12475000Y1143750D01*
G75*
G02*
X12256250Y925000I-218750J0D01*
G01*
X11818750Y925000D01*
G75*
G02*
X11600000Y1143750I0J218750D01*
G01*
X11600000Y1656250D01*
G75*
G02*
X11818750Y1875000I218750J0D01*
G01*
X12256250Y1875000D01*
G75*
G02*
X12475000Y1656250I0J-218750D01*
G01*
G37*
G04 #@! TD*
G04 #@! TO.C,R626*
G36*
G01*
X14652500Y2655000D02*
X14997500Y2655000D01*
G75*
G02*
X15145000Y2507500I0J-147500D01*
G01*
X15145000Y2212500D01*
G75*
G02*
X14997500Y2065000I-147500J0D01*
G01*
X14652500Y2065000D01*
G75*
G02*
X14505000Y2212500I0J147500D01*
G01*
X14505000Y2507500D01*
G75*
G02*
X14652500Y2655000I147500J0D01*
G01*
G37*
G36*
G01*
X14652500Y1685000D02*
X14997500Y1685000D01*
G75*
G02*
X15145000Y1537500I0J-147500D01*
G01*
X15145000Y1242500D01*
G75*
G02*
X14997500Y1095000I-147500J0D01*
G01*
X14652500Y1095000D01*
G75*
G02*
X14505000Y1242500I0J147500D01*
G01*
X14505000Y1537500D01*
G75*
G02*
X14652500Y1685000I147500J0D01*
G01*
G37*
G04 #@! TD*
G04 #@! TO.C,D600*
G36*
G01*
X25856250Y1500000D02*
X25343750Y1500000D01*
G75*
G02*
X25125000Y1718750I0J218750D01*
G01*
X25125000Y2156250D01*
G75*
G02*
X25343750Y2375000I218750J0D01*
G01*
X25856250Y2375000D01*
G75*
G02*
X26075000Y2156250I0J-218750D01*
G01*
X26075000Y1718750D01*
G75*
G02*
X25856250Y1500000I-218750J0D01*
G01*
G37*
G36*
G01*
X25856250Y3075000D02*
X25343750Y3075000D01*
G75*
G02*
X25125000Y3293750I0J218750D01*
G01*
X25125000Y3731250D01*
G75*
G02*
X25343750Y3950000I218750J0D01*
G01*
X25856250Y3950000D01*
G75*
G02*
X26075000Y3731250I0J-218750D01*
G01*
X26075000Y3293750D01*
G75*
G02*
X25856250Y3075000I-218750J0D01*
G01*
G37*
G04 #@! TD*
G04 #@! TO.C,D602*
G36*
G01*
X8625000Y1143750D02*
X8625000Y1656250D01*
G75*
G02*
X8843750Y1875000I218750J0D01*
G01*
X9281250Y1875000D01*
G75*
G02*
X9500000Y1656250I0J-218750D01*
G01*
X9500000Y1143750D01*
G75*
G02*
X9281250Y925000I-218750J0D01*
G01*
X8843750Y925000D01*
G75*
G02*
X8625000Y1143750I0J218750D01*
G01*
G37*
G36*
G01*
X10200000Y1143750D02*
X10200000Y1656250D01*
G75*
G02*
X10418750Y1875000I218750J0D01*
G01*
X10856250Y1875000D01*
G75*
G02*
X11075000Y1656250I0J-218750D01*
G01*
X11075000Y1143750D01*
G75*
G02*
X10856250Y925000I-218750J0D01*
G01*
X10418750Y925000D01*
G75*
G02*
X10200000Y1143750I0J218750D01*
G01*
G37*
G04 #@! TD*
G04 #@! TO.C,R627*
G36*
G01*
X7527500Y2205000D02*
X7872500Y2205000D01*
G75*
G02*
X8020000Y2057500I0J-147500D01*
G01*
X8020000Y1762500D01*
G75*
G02*
X7872500Y1615000I-147500J0D01*
G01*
X7527500Y1615000D01*
G75*
G02*
X7380000Y1762500I0J147500D01*
G01*
X7380000Y2057500D01*
G75*
G02*
X7527500Y2205000I147500J0D01*
G01*
G37*
G36*
G01*
X7527500Y1235000D02*
X7872500Y1235000D01*
G75*
G02*
X8020000Y1087500I0J-147500D01*
G01*
X8020000Y792500D01*
G75*
G02*
X7872500Y645000I-147500J0D01*
G01*
X7527500Y645000D01*
G75*
G02*
X7380000Y792500I0J147500D01*
G01*
X7380000Y1087500D01*
G75*
G02*
X7527500Y1235000I147500J0D01*
G01*
G37*
G04 #@! TD*
G04 #@! TO.C,U602*
G36*
G01*
X16275000Y5425000D02*
X16275000Y5175000D01*
G75*
G02*
X16150000Y5050000I-125000J0D01*
G01*
X14900000Y5050000D01*
G75*
G02*
X14775000Y5175000I0J125000D01*
G01*
X14775000Y5425000D01*
G75*
G02*
X14900000Y5550000I125000J0D01*
G01*
X16150000Y5550000D01*
G75*
G02*
X16275000Y5425000I0J-125000D01*
G01*
G37*
G36*
G01*
X16275000Y6225000D02*
X16275000Y5975000D01*
G75*
G02*
X16150000Y5850000I-125000J0D01*
G01*
X14900000Y5850000D01*
G75*
G02*
X14775000Y5975000I0J125000D01*
G01*
X14775000Y6225000D01*
G75*
G02*
X14900000Y6350000I125000J0D01*
G01*
X16150000Y6350000D01*
G75*
G02*
X16275000Y6225000I0J-125000D01*
G01*
G37*
G36*
G01*
X16275000Y7025000D02*
X16275000Y6775000D01*
G75*
G02*
X16150000Y6650000I-125000J0D01*
G01*
X14900000Y6650000D01*
G75*
G02*
X14775000Y6775000I0J125000D01*
G01*
X14775000Y7025000D01*
G75*
G02*
X14900000Y7150000I125000J0D01*
G01*
X16150000Y7150000D01*
G75*
G02*
X16275000Y7025000I0J-125000D01*
G01*
G37*
G36*
G01*
X16275000Y7825000D02*
X16275000Y7575000D01*
G75*
G02*
X16150000Y7450000I-125000J0D01*
G01*
X14900000Y7450000D01*
G75*
G02*
X14775000Y7575000I0J125000D01*
G01*
X14775000Y7825000D01*
G75*
G02*
X14900000Y7950000I125000J0D01*
G01*
X16150000Y7950000D01*
G75*
G02*
X16275000Y7825000I0J-125000D01*
G01*
G37*
G36*
G01*
X16275000Y8625000D02*
X16275000Y8375000D01*
G75*
G02*
X16150000Y8250000I-125000J0D01*
G01*
X14900000Y8250000D01*
G75*
G02*
X14775000Y8375000I0J125000D01*
G01*
X14775000Y8625000D01*
G75*
G02*
X14900000Y8750000I125000J0D01*
G01*
X16150000Y8750000D01*
G75*
G02*
X16275000Y8625000I0J-125000D01*
G01*
G37*
G36*
G01*
X16275000Y9425000D02*
X16275000Y9175000D01*
G75*
G02*
X16150000Y9050000I-125000J0D01*
G01*
X14900000Y9050000D01*
G75*
G02*
X14775000Y9175000I0J125000D01*
G01*
X14775000Y9425000D01*
G75*
G02*
X14900000Y9550000I125000J0D01*
G01*
X16150000Y9550000D01*
G75*
G02*
X16275000Y9425000I0J-125000D01*
G01*
G37*
G36*
G01*
X16275000Y10225000D02*
X16275000Y9975000D01*
G75*
G02*
X16150000Y9850000I-125000J0D01*
G01*
X14900000Y9850000D01*
G75*
G02*
X14775000Y9975000I0J125000D01*
G01*
X14775000Y10225000D01*
G75*
G02*
X14900000Y10350000I125000J0D01*
G01*
X16150000Y10350000D01*
G75*
G02*
X16275000Y10225000I0J-125000D01*
G01*
G37*
G36*
G01*
X16275000Y11025000D02*
X16275000Y10775000D01*
G75*
G02*
X16150000Y10650000I-125000J0D01*
G01*
X14900000Y10650000D01*
G75*
G02*
X14775000Y10775000I0J125000D01*
G01*
X14775000Y11025000D01*
G75*
G02*
X14900000Y11150000I125000J0D01*
G01*
X16150000Y11150000D01*
G75*
G02*
X16275000Y11025000I0J-125000D01*
G01*
G37*
G36*
G01*
X14400000Y12900000D02*
X14400000Y11650000D01*
G75*
G02*
X14275000Y11525000I-125000J0D01*
G01*
X14025000Y11525000D01*
G75*
G02*
X13900000Y11650000I0J125000D01*
G01*
X13900000Y12900000D01*
G75*
G02*
X14025000Y13025000I125000J0D01*
G01*
X14275000Y13025000D01*
G75*
G02*
X14400000Y12900000I0J-125000D01*
G01*
G37*
G36*
G01*
X13600000Y12900000D02*
X13600000Y11650000D01*
G75*
G02*
X13475000Y11525000I-125000J0D01*
G01*
X13225000Y11525000D01*
G75*
G02*
X13100000Y11650000I0J125000D01*
G01*
X13100000Y12900000D01*
G75*
G02*
X13225000Y13025000I125000J0D01*
G01*
X13475000Y13025000D01*
G75*
G02*
X13600000Y12900000I0J-125000D01*
G01*
G37*
G36*
G01*
X12800000Y12900000D02*
X12800000Y11650000D01*
G75*
G02*
X12675000Y11525000I-125000J0D01*
G01*
X12425000Y11525000D01*
G75*
G02*
X12300000Y11650000I0J125000D01*
G01*
X12300000Y12900000D01*
G75*
G02*
X12425000Y13025000I125000J0D01*
G01*
X12675000Y13025000D01*
G75*
G02*
X12800000Y12900000I0J-125000D01*
G01*
G37*
G36*
G01*
X12000000Y12900000D02*
X12000000Y11650000D01*
G75*
G02*
X11875000Y11525000I-125000J0D01*
G01*
X11625000Y11525000D01*
G75*
G02*
X11500000Y11650000I0J125000D01*
G01*
X11500000Y12900000D01*
G75*
G02*
X11625000Y13025000I125000J0D01*
G01*
X11875000Y13025000D01*
G75*
G02*
X12000000Y12900000I0J-125000D01*
G01*
G37*
G36*
G01*
X11200000Y12900000D02*
X11200000Y11650000D01*
G75*
G02*
X11075000Y11525000I-125000J0D01*
G01*
X10825000Y11525000D01*
G75*
G02*
X10700000Y11650000I0J125000D01*
G01*
X10700000Y12900000D01*
G75*
G02*
X10825000Y13025000I125000J0D01*
G01*
X11075000Y13025000D01*
G75*
G02*
X11200000Y12900000I0J-125000D01*
G01*
G37*
G36*
G01*
X10400000Y12900000D02*
X10400000Y11650000D01*
G75*
G02*
X10275000Y11525000I-125000J0D01*
G01*
X10025000Y11525000D01*
G75*
G02*
X9900000Y11650000I0J125000D01*
G01*
X9900000Y12900000D01*
G75*
G02*
X10025000Y13025000I125000J0D01*
G01*
X10275000Y13025000D01*
G75*
G02*
X10400000Y12900000I0J-125000D01*
G01*
G37*
G36*
G01*
X9600000Y12900000D02*
X9600000Y11650000D01*
G75*
G02*
X9475000Y11525000I-125000J0D01*
G01*
X9225000Y11525000D01*
G75*
G02*
X9100000Y11650000I0J125000D01*
G01*
X9100000Y12900000D01*
G75*
G02*
X9225000Y13025000I125000J0D01*
G01*
X9475000Y13025000D01*
G75*
G02*
X9600000Y12900000I0J-125000D01*
G01*
G37*
G36*
G01*
X8800000Y12900000D02*
X8800000Y11650000D01*
G75*
G02*
X8675000Y11525000I-125000J0D01*
G01*
X8425000Y11525000D01*
G75*
G02*
X8300000Y11650000I0J125000D01*
G01*
X8300000Y12900000D01*
G75*
G02*
X8425000Y13025000I125000J0D01*
G01*
X8675000Y13025000D01*
G75*
G02*
X8800000Y12900000I0J-125000D01*
G01*
G37*
G36*
G01*
X7925000Y11025000D02*
X7925000Y10775000D01*
G75*
G02*
X7800000Y10650000I-125000J0D01*
G01*
X6550000Y10650000D01*
G75*
G02*
X6425000Y10775000I0J125000D01*
G01*
X6425000Y11025000D01*
G75*
G02*
X6550000Y11150000I125000J0D01*
G01*
X7800000Y11150000D01*
G75*
G02*
X7925000Y11025000I0J-125000D01*
G01*
G37*
G36*
G01*
X7925000Y10225000D02*
X7925000Y9975000D01*
G75*
G02*
X7800000Y9850000I-125000J0D01*
G01*
X6550000Y9850000D01*
G75*
G02*
X6425000Y9975000I0J125000D01*
G01*
X6425000Y10225000D01*
G75*
G02*
X6550000Y10350000I125000J0D01*
G01*
X7800000Y10350000D01*
G75*
G02*
X7925000Y10225000I0J-125000D01*
G01*
G37*
G36*
G01*
X7925000Y9425000D02*
X7925000Y9175000D01*
G75*
G02*
X7800000Y9050000I-125000J0D01*
G01*
X6550000Y9050000D01*
G75*
G02*
X6425000Y9175000I0J125000D01*
G01*
X6425000Y9425000D01*
G75*
G02*
X6550000Y9550000I125000J0D01*
G01*
X7800000Y9550000D01*
G75*
G02*
X7925000Y9425000I0J-125000D01*
G01*
G37*
G36*
G01*
X7925000Y8625000D02*
X7925000Y8375000D01*
G75*
G02*
X7800000Y8250000I-125000J0D01*
G01*
X6550000Y8250000D01*
G75*
G02*
X6425000Y8375000I0J125000D01*
G01*
X6425000Y8625000D01*
G75*
G02*
X6550000Y8750000I125000J0D01*
G01*
X7800000Y8750000D01*
G75*
G02*
X7925000Y8625000I0J-125000D01*
G01*
G37*
G36*
G01*
X7925000Y7825000D02*
X7925000Y7575000D01*
G75*
G02*
X7800000Y7450000I-125000J0D01*
G01*
X6550000Y7450000D01*
G75*
G02*
X6425000Y7575000I0J125000D01*
G01*
X6425000Y7825000D01*
G75*
G02*
X6550000Y7950000I125000J0D01*
G01*
X7800000Y7950000D01*
G75*
G02*
X7925000Y7825000I0J-125000D01*
G01*
G37*
G36*
G01*
X7925000Y7025000D02*
X7925000Y6775000D01*
G75*
G02*
X7800000Y6650000I-125000J0D01*
G01*
X6550000Y6650000D01*
G75*
G02*
X6425000Y6775000I0J125000D01*
G01*
X6425000Y7025000D01*
G75*
G02*
X6550000Y7150000I125000J0D01*
G01*
X7800000Y7150000D01*
G75*
G02*
X7925000Y7025000I0J-125000D01*
G01*
G37*
G36*
G01*
X7925000Y6225000D02*
X7925000Y5975000D01*
G75*
G02*
X7800000Y5850000I-125000J0D01*
G01*
X6550000Y5850000D01*
G75*
G02*
X6425000Y5975000I0J125000D01*
G01*
X6425000Y6225000D01*
G75*
G02*
X6550000Y6350000I125000J0D01*
G01*
X7800000Y6350000D01*
G75*
G02*
X7925000Y6225000I0J-125000D01*
G01*
G37*
G36*
G01*
X7925000Y5425000D02*
X7925000Y5175000D01*
G75*
G02*
X7800000Y5050000I-125000J0D01*
G01*
X6550000Y5050000D01*
G75*
G02*
X6425000Y5175000I0J125000D01*
G01*
X6425000Y5425000D01*
G75*
G02*
X6550000Y5550000I125000J0D01*
G01*
X7800000Y5550000D01*
G75*
G02*
X7925000Y5425000I0J-125000D01*
G01*
G37*
G36*
G01*
X8800000Y4550000D02*
X8800000Y3300000D01*
G75*
G02*
X8675000Y3175000I-125000J0D01*
G01*
X8425000Y3175000D01*
G75*
G02*
X8300000Y3300000I0J125000D01*
G01*
X8300000Y4550000D01*
G75*
G02*
X8425000Y4675000I125000J0D01*
G01*
X8675000Y4675000D01*
G75*
G02*
X8800000Y4550000I0J-125000D01*
G01*
G37*
G36*
G01*
X9600000Y4550000D02*
X9600000Y3300000D01*
G75*
G02*
X9475000Y3175000I-125000J0D01*
G01*
X9225000Y3175000D01*
G75*
G02*
X9100000Y3300000I0J125000D01*
G01*
X9100000Y4550000D01*
G75*
G02*
X9225000Y4675000I125000J0D01*
G01*
X9475000Y4675000D01*
G75*
G02*
X9600000Y4550000I0J-125000D01*
G01*
G37*
G36*
G01*
X10400000Y4550000D02*
X10400000Y3300000D01*
G75*
G02*
X10275000Y3175000I-125000J0D01*
G01*
X10025000Y3175000D01*
G75*
G02*
X9900000Y3300000I0J125000D01*
G01*
X9900000Y4550000D01*
G75*
G02*
X10025000Y4675000I125000J0D01*
G01*
X10275000Y4675000D01*
G75*
G02*
X10400000Y4550000I0J-125000D01*
G01*
G37*
G36*
G01*
X11200000Y4550000D02*
X11200000Y3300000D01*
G75*
G02*
X11075000Y3175000I-125000J0D01*
G01*
X10825000Y3175000D01*
G75*
G02*
X10700000Y3300000I0J125000D01*
G01*
X10700000Y4550000D01*
G75*
G02*
X10825000Y4675000I125000J0D01*
G01*
X11075000Y4675000D01*
G75*
G02*
X11200000Y4550000I0J-125000D01*
G01*
G37*
G36*
G01*
X12000000Y4550000D02*
X12000000Y3300000D01*
G75*
G02*
X11875000Y3175000I-125000J0D01*
G01*
X11625000Y3175000D01*
G75*
G02*
X11500000Y3300000I0J125000D01*
G01*
X11500000Y4550000D01*
G75*
G02*
X11625000Y4675000I125000J0D01*
G01*
X11875000Y4675000D01*
G75*
G02*
X12000000Y4550000I0J-125000D01*
G01*
G37*
G36*
G01*
X12800000Y4550000D02*
X12800000Y3300000D01*
G75*
G02*
X12675000Y3175000I-125000J0D01*
G01*
X12425000Y3175000D01*
G75*
G02*
X12300000Y3300000I0J125000D01*
G01*
X12300000Y4550000D01*
G75*
G02*
X12425000Y4675000I125000J0D01*
G01*
X12675000Y4675000D01*
G75*
G02*
X12800000Y4550000I0J-125000D01*
G01*
G37*
G36*
G01*
X13600000Y4550000D02*
X13600000Y3300000D01*
G75*
G02*
X13475000Y3175000I-125000J0D01*
G01*
X13225000Y3175000D01*
G75*
G02*
X13100000Y3300000I0J125000D01*
G01*
X13100000Y4550000D01*
G75*
G02*
X13225000Y4675000I125000J0D01*
G01*
X13475000Y4675000D01*
G75*
G02*
X13600000Y4550000I0J-125000D01*
G01*
G37*
G36*
G01*
X14400000Y4550000D02*
X14400000Y3300000D01*
G75*
G02*
X14275000Y3175000I-125000J0D01*
G01*
X14025000Y3175000D01*
G75*
G02*
X13900000Y3300000I0J125000D01*
G01*
X13900000Y4550000D01*
G75*
G02*
X14025000Y4675000I125000J0D01*
G01*
X14275000Y4675000D01*
G75*
G02*
X14400000Y4550000I0J-125000D01*
G01*
G37*
G04 #@! TD*
G04 #@! TO.C,R628*
G36*
G01*
X5605000Y10022500D02*
X5605000Y9677500D01*
G75*
G02*
X5457500Y9530000I-147500J0D01*
G01*
X5162500Y9530000D01*
G75*
G02*
X5015000Y9677500I0J147500D01*
G01*
X5015000Y10022500D01*
G75*
G02*
X5162500Y10170000I147500J0D01*
G01*
X5457500Y10170000D01*
G75*
G02*
X5605000Y10022500I0J-147500D01*
G01*
G37*
G36*
G01*
X4635000Y10022500D02*
X4635000Y9677500D01*
G75*
G02*
X4487500Y9530000I-147500J0D01*
G01*
X4192500Y9530000D01*
G75*
G02*
X4045000Y9677500I0J147500D01*
G01*
X4045000Y10022500D01*
G75*
G02*
X4192500Y10170000I147500J0D01*
G01*
X4487500Y10170000D01*
G75*
G02*
X4635000Y10022500I0J-147500D01*
G01*
G37*
G04 #@! TD*
G04 #@! TO.C,C609*
G36*
G01*
X7402500Y4080000D02*
X7747500Y4080000D01*
G75*
G02*
X7895000Y3932500I0J-147500D01*
G01*
X7895000Y3637500D01*
G75*
G02*
X7747500Y3490000I-147500J0D01*
G01*
X7402500Y3490000D01*
G75*
G02*
X7255000Y3637500I0J147500D01*
G01*
X7255000Y3932500D01*
G75*
G02*
X7402500Y4080000I147500J0D01*
G01*
G37*
G36*
G01*
X7402500Y3110000D02*
X7747500Y3110000D01*
G75*
G02*
X7895000Y2962500I0J-147500D01*
G01*
X7895000Y2667500D01*
G75*
G02*
X7747500Y2520000I-147500J0D01*
G01*
X7402500Y2520000D01*
G75*
G02*
X7255000Y2667500I0J147500D01*
G01*
X7255000Y2962500D01*
G75*
G02*
X7402500Y3110000I147500J0D01*
G01*
G37*
G04 #@! TD*
G04 #@! TO.C,C610*
G36*
G01*
X1397000Y9677500D02*
X1397000Y10022500D01*
G75*
G02*
X1544500Y10170000I147500J0D01*
G01*
X1839500Y10170000D01*
G75*
G02*
X1987000Y10022500I0J-147500D01*
G01*
X1987000Y9677500D01*
G75*
G02*
X1839500Y9530000I-147500J0D01*
G01*
X1544500Y9530000D01*
G75*
G02*
X1397000Y9677500I0J147500D01*
G01*
G37*
G36*
G01*
X2367000Y9677500D02*
X2367000Y10022500D01*
G75*
G02*
X2514500Y10170000I147500J0D01*
G01*
X2809500Y10170000D01*
G75*
G02*
X2957000Y10022500I0J-147500D01*
G01*
X2957000Y9677500D01*
G75*
G02*
X2809500Y9530000I-147500J0D01*
G01*
X2514500Y9530000D01*
G75*
G02*
X2367000Y9677500I0J147500D01*
G01*
G37*
G04 #@! TD*
D14*
G04 #@! TO.C,U603*
X1775000Y11100000D03*
X3675000Y11100000D03*
X2725000Y13100000D03*
G04 #@! TD*
G04 #@! TO.C,R600*
G36*
G01*
X16777500Y4555000D02*
X17122500Y4555000D01*
G75*
G02*
X17270000Y4407500I0J-147500D01*
G01*
X17270000Y4112500D01*
G75*
G02*
X17122500Y3965000I-147500J0D01*
G01*
X16777500Y3965000D01*
G75*
G02*
X16630000Y4112500I0J147500D01*
G01*
X16630000Y4407500D01*
G75*
G02*
X16777500Y4555000I147500J0D01*
G01*
G37*
G36*
G01*
X16777500Y3585000D02*
X17122500Y3585000D01*
G75*
G02*
X17270000Y3437500I0J-147500D01*
G01*
X17270000Y3142500D01*
G75*
G02*
X17122500Y2995000I-147500J0D01*
G01*
X16777500Y2995000D01*
G75*
G02*
X16630000Y3142500I0J147500D01*
G01*
X16630000Y3437500D01*
G75*
G02*
X16777500Y3585000I147500J0D01*
G01*
G37*
G04 #@! TD*
G04 #@! TO.C,D603*
G36*
G01*
X5061300Y13455000D02*
X5573800Y13455000D01*
G75*
G02*
X5792550Y13236250I0J-218750D01*
G01*
X5792550Y12798750D01*
G75*
G02*
X5573800Y12580000I-218750J0D01*
G01*
X5061300Y12580000D01*
G75*
G02*
X4842550Y12798750I0J218750D01*
G01*
X4842550Y13236250D01*
G75*
G02*
X5061300Y13455000I218750J0D01*
G01*
G37*
G36*
G01*
X5061300Y11880000D02*
X5573800Y11880000D01*
G75*
G02*
X5792550Y11661250I0J-218750D01*
G01*
X5792550Y11223750D01*
G75*
G02*
X5573800Y11005000I-218750J0D01*
G01*
X5061300Y11005000D01*
G75*
G02*
X4842550Y11223750I0J218750D01*
G01*
X4842550Y11661250D01*
G75*
G02*
X5061300Y11880000I218750J0D01*
G01*
G37*
G04 #@! TD*
D15*
G04 #@! TO.C,J600*
X1060000Y2750000D03*
X6140000Y1734000D03*
X6140000Y3766000D03*
D16*
X2330000Y2115000D03*
X2330000Y3385000D03*
X3600000Y2115000D03*
X3600000Y3385000D03*
X4870000Y2115000D03*
X4870000Y3385000D03*
G04 #@! TD*
D17*
G04 #@! TO.C,Q601*
X23790000Y12625000D03*
D18*
X21250000Y12625000D03*
X18710000Y12625000D03*
G04 #@! TD*
M02*
