G04 #@! TF.GenerationSoftware,KiCad,Pcbnew,7.0.9*
G04 #@! TF.CreationDate,2024-03-10T08:17:22+03:00*
G04 #@! TF.ProjectId,hellen1-motor-driver,68656c6c-656e-4312-9d6d-6f746f722d64,rev?*
G04 #@! TF.SameCoordinates,PX507d780PY4a62f80*
G04 #@! TF.FileFunction,Copper,L4,Bot*
G04 #@! TF.FilePolarity,Positive*
%FSLAX46Y46*%
G04 Gerber Fmt 4.6, Leading zero omitted, Abs format (unit mm)*
G04 Created by KiCad (PCBNEW 7.0.9) date 2024-03-10 08:17:22*
%MOMM*%
%LPD*%
G01*
G04 APERTURE LIST*
G04 #@! TA.AperFunction,SMDPad,CuDef*
%ADD10R,0.200000X4.400000*%
G04 #@! TD*
G04 #@! TA.AperFunction,SMDPad,CuDef*
%ADD11R,1.200000X0.200000*%
G04 #@! TD*
G04 #@! TA.AperFunction,SMDPad,CuDef*
%ADD12R,6.800000X0.200000*%
G04 #@! TD*
G04 #@! TA.AperFunction,SMDPad,CuDef*
%ADD13R,4.000000X0.200000*%
G04 #@! TD*
G04 #@! TA.AperFunction,SMDPad,CuDef*
%ADD14R,1.800000X0.200000*%
G04 #@! TD*
G04 #@! TA.AperFunction,SMDPad,CuDef*
%ADD15R,0.200000X10.000000*%
G04 #@! TD*
G04 #@! TA.AperFunction,ComponentPad*
%ADD16C,0.600000*%
G04 #@! TD*
G04 #@! TA.AperFunction,ComponentPad*
%ADD17C,1.000000*%
G04 #@! TD*
G04 #@! TA.AperFunction,ViaPad*
%ADD18C,0.600000*%
G04 #@! TD*
G04 #@! TA.AperFunction,Conductor*
%ADD19C,0.800000*%
G04 #@! TD*
G04 #@! TA.AperFunction,Conductor*
%ADD20C,0.200000*%
G04 #@! TD*
G04 APERTURE END LIST*
D10*
G04 #@! TO.P,M821,G,GND*
G04 #@! TO.N,GND*
X100000Y2200000D03*
D11*
X600000Y100000D03*
D12*
X5000000Y9900000D03*
X7200000Y100000D03*
D13*
X11800000Y9900000D03*
D14*
X12900000Y100000D03*
D15*
X13700000Y5000000D03*
D16*
G04 #@! TO.P,M821,N1,MOSI*
G04 #@! TO.N,/MOSI*
X1100000Y9700000D03*
D17*
G04 #@! TO.P,M821,N2,12V_IN*
G04 #@! TO.N,+12V*
X9100000Y9500000D03*
G04 #@! TO.P,M821,S1,12V_IN*
X1900000Y500000D03*
G04 #@! TO.P,M821,S2,OUT-*
G04 #@! TO.N,/OUT-*
X3100000Y500000D03*
G04 #@! TO.P,M821,S3,OUT+*
G04 #@! TO.N,/OUT+*
X11300000Y500000D03*
D16*
G04 #@! TO.P,M821,W1,DIS*
G04 #@! TO.N,/DIS*
X300000Y9700000D03*
G04 #@! TO.P,M821,W2,PWM*
G04 #@! TO.N,/PWM*
X300000Y8900000D03*
G04 #@! TO.P,M821,W3,SCLK*
G04 #@! TO.N,/SCLK*
X300000Y8100000D03*
G04 #@! TO.P,M821,W4,DIR*
G04 #@! TO.N,/DIR*
X300000Y7300000D03*
G04 #@! TO.P,M821,W5,3V3_IN*
G04 #@! TO.N,+3V3*
X300000Y6500000D03*
G04 #@! TO.P,M821,W6,MISO*
G04 #@! TO.N,/MISO*
X300000Y5700000D03*
G04 #@! TO.P,M821,W7,~CS*
G04 #@! TO.N,/~CS*
X300000Y4900000D03*
G04 #@! TD*
G04 #@! TO.P,R822,2*
G04 #@! TO.N,+3V3*
G04 #@! TA.AperFunction,SMDPad,CuDef*
G36*
G01*
X1910000Y8050000D02*
X2690000Y8050000D01*
G75*
G02*
X2760000Y7980000I0J-70000D01*
G01*
X2760000Y7420000D01*
G75*
G02*
X2690000Y7350000I-70000J0D01*
G01*
X1910000Y7350000D01*
G75*
G02*
X1840000Y7420000I0J70000D01*
G01*
X1840000Y7980000D01*
G75*
G02*
X1910000Y8050000I70000J0D01*
G01*
G37*
G04 #@! TD.AperFunction*
G04 #@! TO.P,R822,1*
G04 #@! TO.N,/DIS*
G04 #@! TA.AperFunction,SMDPad,CuDef*
G36*
G01*
X1910000Y9650000D02*
X2690000Y9650000D01*
G75*
G02*
X2760000Y9580000I0J-70000D01*
G01*
X2760000Y9020000D01*
G75*
G02*
X2690000Y8950000I-70000J0D01*
G01*
X1910000Y8950000D01*
G75*
G02*
X1840000Y9020000I0J70000D01*
G01*
X1840000Y9580000D01*
G75*
G02*
X1910000Y9650000I70000J0D01*
G01*
G37*
G04 #@! TD.AperFunction*
G04 #@! TD*
G04 #@! TO.P,R821,2*
G04 #@! TO.N,+3V3*
G04 #@! TA.AperFunction,SMDPad,CuDef*
G36*
G01*
X2690000Y5950000D02*
X1910000Y5950000D01*
G75*
G02*
X1840000Y6020000I0J70000D01*
G01*
X1840000Y6580000D01*
G75*
G02*
X1910000Y6650000I70000J0D01*
G01*
X2690000Y6650000D01*
G75*
G02*
X2760000Y6580000I0J-70000D01*
G01*
X2760000Y6020000D01*
G75*
G02*
X2690000Y5950000I-70000J0D01*
G01*
G37*
G04 #@! TD.AperFunction*
G04 #@! TO.P,R821,1*
G04 #@! TO.N,/~CS*
G04 #@! TA.AperFunction,SMDPad,CuDef*
G36*
G01*
X2690000Y4350000D02*
X1910000Y4350000D01*
G75*
G02*
X1840000Y4420000I0J70000D01*
G01*
X1840000Y4980000D01*
G75*
G02*
X1910000Y5050000I70000J0D01*
G01*
X2690000Y5050000D01*
G75*
G02*
X2760000Y4980000I0J-70000D01*
G01*
X2760000Y4420000D01*
G75*
G02*
X2690000Y4350000I-70000J0D01*
G01*
G37*
G04 #@! TD.AperFunction*
G04 #@! TD*
G04 #@! TO.P,C833,1*
G04 #@! TO.N,GND*
G04 #@! TA.AperFunction,SMDPad,CuDef*
G36*
G01*
X11660008Y3190001D02*
X12340008Y3190001D01*
G75*
G02*
X12425008Y3105001I0J-85000D01*
G01*
X12425008Y2425001D01*
G75*
G02*
X12340008Y2340001I-85000J0D01*
G01*
X11660008Y2340001D01*
G75*
G02*
X11575008Y2425001I0J85000D01*
G01*
X11575008Y3105001D01*
G75*
G02*
X11660008Y3190001I85000J0D01*
G01*
G37*
G04 #@! TD.AperFunction*
G04 #@! TO.P,C833,2*
G04 #@! TO.N,/OUT+*
G04 #@! TA.AperFunction,SMDPad,CuDef*
G36*
G01*
X11660008Y1609999D02*
X12340008Y1609999D01*
G75*
G02*
X12425008Y1524999I0J-85000D01*
G01*
X12425008Y844999D01*
G75*
G02*
X12340008Y759999I-85000J0D01*
G01*
X11660008Y759999D01*
G75*
G02*
X11575008Y844999I0J85000D01*
G01*
X11575008Y1524999D01*
G75*
G02*
X11660008Y1609999I85000J0D01*
G01*
G37*
G04 #@! TD.AperFunction*
G04 #@! TD*
G04 #@! TO.P,C832,1*
G04 #@! TO.N,GND*
G04 #@! TA.AperFunction,SMDPad,CuDef*
G36*
G01*
X1960000Y3715001D02*
X2640000Y3715001D01*
G75*
G02*
X2725000Y3630001I0J-85000D01*
G01*
X2725000Y2950001D01*
G75*
G02*
X2640000Y2865001I-85000J0D01*
G01*
X1960000Y2865001D01*
G75*
G02*
X1875000Y2950001I0J85000D01*
G01*
X1875000Y3630001D01*
G75*
G02*
X1960000Y3715001I85000J0D01*
G01*
G37*
G04 #@! TD.AperFunction*
G04 #@! TO.P,C832,2*
G04 #@! TO.N,/OUT-*
G04 #@! TA.AperFunction,SMDPad,CuDef*
G36*
G01*
X1960000Y2134999D02*
X2640000Y2134999D01*
G75*
G02*
X2725000Y2049999I0J-85000D01*
G01*
X2725000Y1369999D01*
G75*
G02*
X2640000Y1284999I-85000J0D01*
G01*
X1960000Y1284999D01*
G75*
G02*
X1875000Y1369999I0J85000D01*
G01*
X1875000Y2049999D01*
G75*
G02*
X1960000Y2134999I85000J0D01*
G01*
G37*
G04 #@! TD.AperFunction*
G04 #@! TD*
G04 #@! TO.P,C831,1*
G04 #@! TO.N,GND*
G04 #@! TA.AperFunction,SMDPad,CuDef*
G36*
G01*
X460000Y3715001D02*
X1140000Y3715001D01*
G75*
G02*
X1225000Y3630001I0J-85000D01*
G01*
X1225000Y2950001D01*
G75*
G02*
X1140000Y2865001I-85000J0D01*
G01*
X460000Y2865001D01*
G75*
G02*
X375000Y2950001I0J85000D01*
G01*
X375000Y3630001D01*
G75*
G02*
X460000Y3715001I85000J0D01*
G01*
G37*
G04 #@! TD.AperFunction*
G04 #@! TO.P,C831,2*
G04 #@! TO.N,+12V*
G04 #@! TA.AperFunction,SMDPad,CuDef*
G36*
G01*
X460000Y2134999D02*
X1140000Y2134999D01*
G75*
G02*
X1225000Y2049999I0J-85000D01*
G01*
X1225000Y1369999D01*
G75*
G02*
X1140000Y1284999I-85000J0D01*
G01*
X460000Y1284999D01*
G75*
G02*
X375000Y1369999I0J85000D01*
G01*
X375000Y2049999D01*
G75*
G02*
X460000Y2134999I85000J0D01*
G01*
G37*
G04 #@! TD.AperFunction*
G04 #@! TD*
G04 #@! TO.P,C830,2*
G04 #@! TO.N,+12V*
G04 #@! TA.AperFunction,SMDPad,CuDef*
G36*
G01*
X9600008Y7875000D02*
X9600008Y8925000D01*
G75*
G02*
X9700008Y9025000I100000J0D01*
G01*
X10500008Y9025000D01*
G75*
G02*
X10600008Y8925000I0J-100000D01*
G01*
X10600008Y7875000D01*
G75*
G02*
X10500008Y7775000I-100000J0D01*
G01*
X9700008Y7775000D01*
G75*
G02*
X9600008Y7875000I0J100000D01*
G01*
G37*
G04 #@! TD.AperFunction*
G04 #@! TO.P,C830,1*
G04 #@! TO.N,GND*
G04 #@! TA.AperFunction,SMDPad,CuDef*
G36*
G01*
X7600008Y7875000D02*
X7600008Y8925000D01*
G75*
G02*
X7700008Y9025000I100000J0D01*
G01*
X8500008Y9025000D01*
G75*
G02*
X8600008Y8925000I0J-100000D01*
G01*
X8600008Y7875000D01*
G75*
G02*
X8500008Y7775000I-100000J0D01*
G01*
X7700008Y7775000D01*
G75*
G02*
X7600008Y7875000I0J100000D01*
G01*
G37*
G04 #@! TD.AperFunction*
G04 #@! TD*
G04 #@! TO.P,C829,2*
G04 #@! TO.N,+12V*
G04 #@! TA.AperFunction,SMDPad,CuDef*
G36*
G01*
X9600008Y6075000D02*
X9600008Y7125000D01*
G75*
G02*
X9700008Y7225000I100000J0D01*
G01*
X10500008Y7225000D01*
G75*
G02*
X10600008Y7125000I0J-100000D01*
G01*
X10600008Y6075000D01*
G75*
G02*
X10500008Y5975000I-100000J0D01*
G01*
X9700008Y5975000D01*
G75*
G02*
X9600008Y6075000I0J100000D01*
G01*
G37*
G04 #@! TD.AperFunction*
G04 #@! TO.P,C829,1*
G04 #@! TO.N,GND*
G04 #@! TA.AperFunction,SMDPad,CuDef*
G36*
G01*
X7600008Y6075000D02*
X7600008Y7125000D01*
G75*
G02*
X7700008Y7225000I100000J0D01*
G01*
X8500008Y7225000D01*
G75*
G02*
X8600008Y7125000I0J-100000D01*
G01*
X8600008Y6075000D01*
G75*
G02*
X8500008Y5975000I-100000J0D01*
G01*
X7700008Y5975000D01*
G75*
G02*
X7600008Y6075000I0J100000D01*
G01*
G37*
G04 #@! TD.AperFunction*
G04 #@! TD*
G04 #@! TO.P,C828,2*
G04 #@! TO.N,+12V*
G04 #@! TA.AperFunction,SMDPad,CuDef*
G36*
G01*
X9600008Y4275000D02*
X9600008Y5325000D01*
G75*
G02*
X9700008Y5425000I100000J0D01*
G01*
X10500008Y5425000D01*
G75*
G02*
X10600008Y5325000I0J-100000D01*
G01*
X10600008Y4275000D01*
G75*
G02*
X10500008Y4175000I-100000J0D01*
G01*
X9700008Y4175000D01*
G75*
G02*
X9600008Y4275000I0J100000D01*
G01*
G37*
G04 #@! TD.AperFunction*
G04 #@! TO.P,C828,1*
G04 #@! TO.N,GND*
G04 #@! TA.AperFunction,SMDPad,CuDef*
G36*
G01*
X7600008Y4275000D02*
X7600008Y5325000D01*
G75*
G02*
X7700008Y5425000I100000J0D01*
G01*
X8500008Y5425000D01*
G75*
G02*
X8600008Y5325000I0J-100000D01*
G01*
X8600008Y4275000D01*
G75*
G02*
X8500008Y4175000I-100000J0D01*
G01*
X7700008Y4175000D01*
G75*
G02*
X7600008Y4275000I0J100000D01*
G01*
G37*
G04 #@! TD.AperFunction*
G04 #@! TD*
G04 #@! TO.P,C827,2*
G04 #@! TO.N,+12V*
G04 #@! TA.AperFunction,SMDPad,CuDef*
G36*
G01*
X9600008Y2475000D02*
X9600008Y3525000D01*
G75*
G02*
X9700008Y3625000I100000J0D01*
G01*
X10500008Y3625000D01*
G75*
G02*
X10600008Y3525000I0J-100000D01*
G01*
X10600008Y2475000D01*
G75*
G02*
X10500008Y2375000I-100000J0D01*
G01*
X9700008Y2375000D01*
G75*
G02*
X9600008Y2475000I0J100000D01*
G01*
G37*
G04 #@! TD.AperFunction*
G04 #@! TO.P,C827,1*
G04 #@! TO.N,GND*
G04 #@! TA.AperFunction,SMDPad,CuDef*
G36*
G01*
X7600008Y2475000D02*
X7600008Y3525000D01*
G75*
G02*
X7700008Y3625000I100000J0D01*
G01*
X8500008Y3625000D01*
G75*
G02*
X8600008Y3525000I0J-100000D01*
G01*
X8600008Y2475000D01*
G75*
G02*
X8500008Y2375000I-100000J0D01*
G01*
X7700008Y2375000D01*
G75*
G02*
X7600008Y2475000I0J100000D01*
G01*
G37*
G04 #@! TD.AperFunction*
G04 #@! TD*
G04 #@! TO.P,C826,2*
G04 #@! TO.N,+12V*
G04 #@! TA.AperFunction,SMDPad,CuDef*
G36*
G01*
X9600008Y675000D02*
X9600008Y1725000D01*
G75*
G02*
X9700008Y1825000I100000J0D01*
G01*
X10500008Y1825000D01*
G75*
G02*
X10600008Y1725000I0J-100000D01*
G01*
X10600008Y675000D01*
G75*
G02*
X10500008Y575000I-100000J0D01*
G01*
X9700008Y575000D01*
G75*
G02*
X9600008Y675000I0J100000D01*
G01*
G37*
G04 #@! TD.AperFunction*
G04 #@! TO.P,C826,1*
G04 #@! TO.N,GND*
G04 #@! TA.AperFunction,SMDPad,CuDef*
G36*
G01*
X7600008Y675000D02*
X7600008Y1725000D01*
G75*
G02*
X7700008Y1825000I100000J0D01*
G01*
X8500008Y1825000D01*
G75*
G02*
X8600008Y1725000I0J-100000D01*
G01*
X8600008Y675000D01*
G75*
G02*
X8500008Y575000I-100000J0D01*
G01*
X7700008Y575000D01*
G75*
G02*
X7600008Y675000I0J100000D01*
G01*
G37*
G04 #@! TD.AperFunction*
G04 #@! TD*
G04 #@! TO.P,C825,2*
G04 #@! TO.N,+12V*
G04 #@! TA.AperFunction,SMDPad,CuDef*
G36*
G01*
X4800008Y8925000D02*
X4800008Y7875000D01*
G75*
G02*
X4700008Y7775000I-100000J0D01*
G01*
X3900008Y7775000D01*
G75*
G02*
X3800008Y7875000I0J100000D01*
G01*
X3800008Y8925000D01*
G75*
G02*
X3900008Y9025000I100000J0D01*
G01*
X4700008Y9025000D01*
G75*
G02*
X4800008Y8925000I0J-100000D01*
G01*
G37*
G04 #@! TD.AperFunction*
G04 #@! TO.P,C825,1*
G04 #@! TO.N,GND*
G04 #@! TA.AperFunction,SMDPad,CuDef*
G36*
G01*
X6800008Y8925000D02*
X6800008Y7875000D01*
G75*
G02*
X6700008Y7775000I-100000J0D01*
G01*
X5900008Y7775000D01*
G75*
G02*
X5800008Y7875000I0J100000D01*
G01*
X5800008Y8925000D01*
G75*
G02*
X5900008Y9025000I100000J0D01*
G01*
X6700008Y9025000D01*
G75*
G02*
X6800008Y8925000I0J-100000D01*
G01*
G37*
G04 #@! TD.AperFunction*
G04 #@! TD*
G04 #@! TO.P,C824,2*
G04 #@! TO.N,+12V*
G04 #@! TA.AperFunction,SMDPad,CuDef*
G36*
G01*
X4800008Y7125000D02*
X4800008Y6075000D01*
G75*
G02*
X4700008Y5975000I-100000J0D01*
G01*
X3900008Y5975000D01*
G75*
G02*
X3800008Y6075000I0J100000D01*
G01*
X3800008Y7125000D01*
G75*
G02*
X3900008Y7225000I100000J0D01*
G01*
X4700008Y7225000D01*
G75*
G02*
X4800008Y7125000I0J-100000D01*
G01*
G37*
G04 #@! TD.AperFunction*
G04 #@! TO.P,C824,1*
G04 #@! TO.N,GND*
G04 #@! TA.AperFunction,SMDPad,CuDef*
G36*
G01*
X6800008Y7125000D02*
X6800008Y6075000D01*
G75*
G02*
X6700008Y5975000I-100000J0D01*
G01*
X5900008Y5975000D01*
G75*
G02*
X5800008Y6075000I0J100000D01*
G01*
X5800008Y7125000D01*
G75*
G02*
X5900008Y7225000I100000J0D01*
G01*
X6700008Y7225000D01*
G75*
G02*
X6800008Y7125000I0J-100000D01*
G01*
G37*
G04 #@! TD.AperFunction*
G04 #@! TD*
G04 #@! TO.P,C823,2*
G04 #@! TO.N,+12V*
G04 #@! TA.AperFunction,SMDPad,CuDef*
G36*
G01*
X4800008Y5325000D02*
X4800008Y4275000D01*
G75*
G02*
X4700008Y4175000I-100000J0D01*
G01*
X3900008Y4175000D01*
G75*
G02*
X3800008Y4275000I0J100000D01*
G01*
X3800008Y5325000D01*
G75*
G02*
X3900008Y5425000I100000J0D01*
G01*
X4700008Y5425000D01*
G75*
G02*
X4800008Y5325000I0J-100000D01*
G01*
G37*
G04 #@! TD.AperFunction*
G04 #@! TO.P,C823,1*
G04 #@! TO.N,GND*
G04 #@! TA.AperFunction,SMDPad,CuDef*
G36*
G01*
X6800008Y5325000D02*
X6800008Y4275000D01*
G75*
G02*
X6700008Y4175000I-100000J0D01*
G01*
X5900008Y4175000D01*
G75*
G02*
X5800008Y4275000I0J100000D01*
G01*
X5800008Y5325000D01*
G75*
G02*
X5900008Y5425000I100000J0D01*
G01*
X6700008Y5425000D01*
G75*
G02*
X6800008Y5325000I0J-100000D01*
G01*
G37*
G04 #@! TD.AperFunction*
G04 #@! TD*
G04 #@! TO.P,C822,2*
G04 #@! TO.N,+12V*
G04 #@! TA.AperFunction,SMDPad,CuDef*
G36*
G01*
X4800008Y3525000D02*
X4800008Y2475000D01*
G75*
G02*
X4700008Y2375000I-100000J0D01*
G01*
X3900008Y2375000D01*
G75*
G02*
X3800008Y2475000I0J100000D01*
G01*
X3800008Y3525000D01*
G75*
G02*
X3900008Y3625000I100000J0D01*
G01*
X4700008Y3625000D01*
G75*
G02*
X4800008Y3525000I0J-100000D01*
G01*
G37*
G04 #@! TD.AperFunction*
G04 #@! TO.P,C822,1*
G04 #@! TO.N,GND*
G04 #@! TA.AperFunction,SMDPad,CuDef*
G36*
G01*
X6800008Y3525000D02*
X6800008Y2475000D01*
G75*
G02*
X6700008Y2375000I-100000J0D01*
G01*
X5900008Y2375000D01*
G75*
G02*
X5800008Y2475000I0J100000D01*
G01*
X5800008Y3525000D01*
G75*
G02*
X5900008Y3625000I100000J0D01*
G01*
X6700008Y3625000D01*
G75*
G02*
X6800008Y3525000I0J-100000D01*
G01*
G37*
G04 #@! TD.AperFunction*
G04 #@! TD*
G04 #@! TO.P,C821,2*
G04 #@! TO.N,+12V*
G04 #@! TA.AperFunction,SMDPad,CuDef*
G36*
G01*
X4800008Y1725000D02*
X4800008Y675000D01*
G75*
G02*
X4700008Y575000I-100000J0D01*
G01*
X3900008Y575000D01*
G75*
G02*
X3800008Y675000I0J100000D01*
G01*
X3800008Y1725000D01*
G75*
G02*
X3900008Y1825000I100000J0D01*
G01*
X4700008Y1825000D01*
G75*
G02*
X4800008Y1725000I0J-100000D01*
G01*
G37*
G04 #@! TD.AperFunction*
G04 #@! TO.P,C821,1*
G04 #@! TO.N,GND*
G04 #@! TA.AperFunction,SMDPad,CuDef*
G36*
G01*
X6800008Y1725000D02*
X6800008Y675000D01*
G75*
G02*
X6700008Y575000I-100000J0D01*
G01*
X5900008Y575000D01*
G75*
G02*
X5800008Y675000I0J100000D01*
G01*
X5800008Y1725000D01*
G75*
G02*
X5900008Y1825000I100000J0D01*
G01*
X6700008Y1825000D01*
G75*
G02*
X6800008Y1725000I0J-100000D01*
G01*
G37*
G04 #@! TD.AperFunction*
G04 #@! TD*
D18*
G04 #@! TO.N,GND*
X5300000Y9400000D03*
X5400000Y7500000D03*
X5400000Y2100000D03*
X9000000Y5700000D03*
X9100000Y500000D03*
X5300000Y500000D03*
X3300000Y9450000D03*
X12800000Y9400000D03*
X13300000Y8100000D03*
X13200000Y600000D03*
G04 #@! TO.N,+12V*
X10100000Y3900000D03*
X10100000Y2100000D03*
X4300008Y5700000D03*
G04 #@! TO.N,/MOSI*
X11200000Y9200000D03*
G04 #@! TO.N,GND*
X7200000Y9450000D03*
X7200000Y7500000D03*
X7200000Y5700000D03*
X7200000Y3900000D03*
X7200000Y2100000D03*
X600002Y600000D03*
X3343535Y1743535D03*
G04 #@! TO.N,/~CS*
X12900008Y1500000D03*
G04 #@! TO.N,/PWM*
X12000008Y8000010D03*
G04 #@! TO.N,/DIS*
X11193618Y8415799D03*
G04 #@! TO.N,/SCLK*
X13150498Y5300000D03*
G04 #@! TO.N,+12V*
X1000008Y4300000D03*
X4396524Y4013526D03*
G04 #@! TD*
D19*
G04 #@! TO.N,+12V*
X10100008Y8499992D02*
X9100000Y9500000D01*
X10100008Y8400000D02*
X10100008Y8499992D01*
G04 #@! TO.N,/OUT+*
X11984999Y1184999D02*
X11300000Y500000D01*
X12000008Y1184999D02*
X11984999Y1184999D01*
G04 #@! TO.N,+12V*
X4300008Y7500000D02*
X4300008Y5700000D01*
X4300008Y5700000D02*
X4300008Y4110042D01*
D20*
G04 #@! TO.N,/~CS*
X2100000Y4900000D02*
X2300000Y4700000D01*
X300000Y4900000D02*
X2100000Y4900000D01*
G04 #@! TO.N,+3V3*
X500000Y6300000D02*
X300000Y6500000D01*
X2300000Y6300000D02*
X500000Y6300000D01*
X2300000Y7700000D02*
X2300000Y6300000D01*
G04 #@! TO.N,/DIS*
X827818Y9150000D02*
X2150000Y9150000D01*
X2150000Y9150000D02*
X2300000Y9300000D01*
X300000Y9700000D02*
X300000Y9677818D01*
X300000Y9677818D02*
X827818Y9150000D01*
D19*
G04 #@! TO.N,+12V*
X800000Y1602084D02*
X1900000Y502084D01*
X800000Y1709999D02*
X800000Y1602084D01*
X1900000Y502084D02*
X1900000Y500000D01*
G04 #@! TO.N,/OUT-*
X3100000Y784925D02*
X3100000Y500000D01*
X2300000Y1709999D02*
X2300000Y1584925D01*
X2300000Y1584925D02*
X3100000Y784925D01*
G04 #@! TO.N,+12V*
X4396524Y1296516D02*
X4300008Y1200000D01*
X4396524Y4013526D02*
X4396524Y1296516D01*
X4300008Y8400000D02*
X4300008Y7500000D01*
X4300008Y4110042D02*
X4396524Y4013526D01*
X10100008Y1200000D02*
X10100008Y8400000D01*
G04 #@! TD*
G04 #@! TA.AperFunction,Conductor*
G04 #@! TO.N,GND*
G36*
X292889Y1198424D02*
G01*
X368111Y1148162D01*
X368113Y1148162D01*
X368114Y1148161D01*
X436800Y1134498D01*
X436803Y1134498D01*
X437699Y1134498D01*
X438152Y1134365D01*
X442863Y1133901D01*
X442775Y1133008D01*
X504738Y1114813D01*
X525380Y1098179D01*
X1163681Y459878D01*
X1197166Y398555D01*
X1200000Y372197D01*
X1200000Y224000D01*
X1180315Y156961D01*
X1127511Y111206D01*
X1076000Y100000D01*
X224000Y100000D01*
X156961Y119685D01*
X111206Y172489D01*
X100000Y224000D01*
X100000Y1095321D01*
X119685Y1162360D01*
X172489Y1208115D01*
X241647Y1218059D01*
X292889Y1198424D01*
G37*
G04 #@! TD.AperFunction*
G04 #@! TA.AperFunction,Conductor*
G36*
X8343039Y9880315D02*
G01*
X8388794Y9827511D01*
X8400000Y9776000D01*
X8400000Y9349000D01*
X8380315Y9281961D01*
X8327511Y9236206D01*
X8276000Y9225000D01*
X8225008Y9225000D01*
X8225008Y8525000D01*
X8800007Y8525000D01*
X8800007Y8676000D01*
X8819692Y8743039D01*
X8872496Y8788794D01*
X8924007Y8800000D01*
X8970113Y8800000D01*
X9037152Y8780315D01*
X9057794Y8763681D01*
X9413189Y8408286D01*
X9446674Y8346963D01*
X9449508Y8320605D01*
X9449508Y7850322D01*
X9464040Y7777265D01*
X9464041Y7777261D01*
X9464042Y7777260D01*
X9519407Y7694399D01*
X9519408Y7694399D01*
X9526193Y7684244D01*
X9523215Y7682255D01*
X9546674Y7639294D01*
X9549508Y7612936D01*
X9549508Y7387065D01*
X9529823Y7320026D01*
X9525269Y7314376D01*
X9464042Y7222740D01*
X9464040Y7222736D01*
X9449508Y7149679D01*
X9449508Y6050322D01*
X9464040Y5977265D01*
X9464041Y5977261D01*
X9464042Y5977260D01*
X9519407Y5894399D01*
X9519408Y5894399D01*
X9526193Y5884244D01*
X9523215Y5882255D01*
X9546674Y5839294D01*
X9549508Y5812936D01*
X9549508Y5587065D01*
X9529823Y5520026D01*
X9525269Y5514376D01*
X9464042Y5422740D01*
X9464040Y5422736D01*
X9449508Y5349679D01*
X9449508Y4250322D01*
X9464040Y4177265D01*
X9464041Y4177261D01*
X9470332Y4167846D01*
X9519407Y4094399D01*
X9519408Y4094399D01*
X9526193Y4084244D01*
X9523215Y4082255D01*
X9546674Y4039294D01*
X9549508Y4012936D01*
X9549508Y3787065D01*
X9529823Y3720026D01*
X9525269Y3714376D01*
X9464042Y3622740D01*
X9464040Y3622736D01*
X9449508Y3549679D01*
X9449508Y2450322D01*
X9464040Y2377265D01*
X9464041Y2377261D01*
X9464042Y2377260D01*
X9519407Y2294399D01*
X9519408Y2294399D01*
X9526193Y2284244D01*
X9523215Y2282255D01*
X9546674Y2239294D01*
X9549508Y2212936D01*
X9549508Y1987065D01*
X9529823Y1920026D01*
X9525269Y1914376D01*
X9464042Y1822740D01*
X9464040Y1822736D01*
X9449508Y1749679D01*
X9449508Y650322D01*
X9464040Y577265D01*
X9464041Y577261D01*
X9464042Y577260D01*
X9519407Y494399D01*
X9599999Y440550D01*
X9602268Y439034D01*
X9602272Y439033D01*
X9675329Y424501D01*
X9675332Y424500D01*
X10476000Y424500D01*
X10543039Y404815D01*
X10588794Y352011D01*
X10600000Y300500D01*
X10600000Y224000D01*
X10580315Y156961D01*
X10527511Y111206D01*
X10476000Y100000D01*
X3924000Y100000D01*
X3856961Y119685D01*
X3811206Y172489D01*
X3800000Y224000D01*
X3800000Y300500D01*
X3819685Y367539D01*
X3872489Y413294D01*
X3924000Y424500D01*
X4724684Y424500D01*
X4724685Y424501D01*
X4797748Y439034D01*
X4880609Y494399D01*
X4935974Y577260D01*
X4950508Y650326D01*
X4950508Y1075000D01*
X5600009Y1075000D01*
X5600009Y630215D01*
X5600010Y630192D01*
X5602916Y605131D01*
X5602917Y605127D01*
X5648219Y502526D01*
X5648222Y502521D01*
X5727528Y423215D01*
X5727533Y423212D01*
X5830131Y377911D01*
X5855214Y375001D01*
X6175007Y375001D01*
X6175008Y375002D01*
X6175008Y1075000D01*
X6425008Y1075000D01*
X6425008Y375001D01*
X6744794Y375001D01*
X6744816Y375003D01*
X6769877Y377909D01*
X6769881Y377910D01*
X6872482Y423212D01*
X6872487Y423215D01*
X6951793Y502521D01*
X6951796Y502526D01*
X6997097Y605123D01*
X6997097Y605125D01*
X7000007Y630206D01*
X7000008Y630209D01*
X7000008Y1075000D01*
X7400009Y1075000D01*
X7400009Y630215D01*
X7400010Y630192D01*
X7402916Y605131D01*
X7402917Y605127D01*
X7448219Y502526D01*
X7448222Y502521D01*
X7527528Y423215D01*
X7527533Y423212D01*
X7630131Y377911D01*
X7655214Y375001D01*
X7975007Y375001D01*
X7975008Y375002D01*
X7975008Y1075000D01*
X8225008Y1075000D01*
X8225008Y375001D01*
X8544794Y375001D01*
X8544816Y375003D01*
X8569877Y377909D01*
X8569881Y377910D01*
X8672482Y423212D01*
X8672487Y423215D01*
X8751793Y502521D01*
X8751796Y502526D01*
X8797097Y605123D01*
X8797097Y605125D01*
X8800007Y630206D01*
X8800008Y630209D01*
X8800008Y1075000D01*
X8225008Y1075000D01*
X7975008Y1075000D01*
X7400009Y1075000D01*
X7000008Y1075000D01*
X6425008Y1075000D01*
X6175008Y1075000D01*
X5600009Y1075000D01*
X4950508Y1075000D01*
X4950508Y1299000D01*
X4950833Y1305344D01*
X4951876Y1315488D01*
X4951874Y1315496D01*
X4951729Y1319749D01*
X4951280Y1325000D01*
X5600008Y1325000D01*
X7000007Y1325000D01*
X7400008Y1325000D01*
X8800007Y1325000D01*
X8800007Y1769786D01*
X8800005Y1769809D01*
X8797099Y1794870D01*
X8797098Y1794874D01*
X8751796Y1897475D01*
X8751793Y1897480D01*
X8672487Y1976786D01*
X8672482Y1976789D01*
X8650338Y1986567D01*
X8596963Y2031654D01*
X8576436Y2098440D01*
X8595275Y2165722D01*
X8647499Y2212138D01*
X8650344Y2213437D01*
X8672482Y2223212D01*
X8672487Y2223215D01*
X8751793Y2302521D01*
X8751796Y2302526D01*
X8797097Y2405123D01*
X8797097Y2405125D01*
X8800007Y2430206D01*
X8800008Y2430209D01*
X8800008Y2875000D01*
X7400009Y2875000D01*
X7400009Y2430215D01*
X7400010Y2430192D01*
X7402916Y2405131D01*
X7402917Y2405127D01*
X7448219Y2302526D01*
X7448222Y2302521D01*
X7527528Y2223215D01*
X7527535Y2223210D01*
X7549675Y2213434D01*
X7603051Y2168349D01*
X7623579Y2101562D01*
X7604741Y2034280D01*
X7552518Y1987864D01*
X7549675Y1986566D01*
X7527535Y1976791D01*
X7527528Y1976786D01*
X7448222Y1897480D01*
X7448219Y1897475D01*
X7402918Y1794878D01*
X7402918Y1794876D01*
X7400008Y1769795D01*
X7400008Y1325000D01*
X7000007Y1325000D01*
X7000007Y1769786D01*
X7000005Y1769809D01*
X6997099Y1794870D01*
X6997098Y1794874D01*
X6951796Y1897475D01*
X6951793Y1897480D01*
X6872487Y1976786D01*
X6872482Y1976789D01*
X6850338Y1986567D01*
X6796963Y2031654D01*
X6776436Y2098440D01*
X6795275Y2165722D01*
X6847499Y2212138D01*
X6850344Y2213437D01*
X6872482Y2223212D01*
X6872487Y2223215D01*
X6951793Y2302521D01*
X6951796Y2302526D01*
X6997097Y2405123D01*
X6997097Y2405125D01*
X7000007Y2430206D01*
X7000008Y2430209D01*
X7000008Y2875000D01*
X5600009Y2875000D01*
X5600009Y2430215D01*
X5600010Y2430192D01*
X5602916Y2405131D01*
X5602917Y2405127D01*
X5648219Y2302526D01*
X5648222Y2302521D01*
X5727528Y2223215D01*
X5727535Y2223210D01*
X5749675Y2213434D01*
X5803051Y2168349D01*
X5823579Y2101562D01*
X5804741Y2034280D01*
X5752518Y1987864D01*
X5749675Y1986566D01*
X5727535Y1976791D01*
X5727528Y1976786D01*
X5648222Y1897480D01*
X5648219Y1897475D01*
X5602918Y1794878D01*
X5602918Y1794876D01*
X5600008Y1769795D01*
X5600008Y1325000D01*
X4951280Y1325000D01*
X4950508Y1334033D01*
X4950508Y1749677D01*
X4949407Y1755211D01*
X4947024Y1779403D01*
X4947024Y2420598D01*
X4949408Y2444794D01*
X4950508Y2450323D01*
X4950508Y3125000D01*
X5600008Y3125000D01*
X7000007Y3125000D01*
X7400008Y3125000D01*
X8800007Y3125000D01*
X8800007Y3569786D01*
X8800005Y3569809D01*
X8797099Y3594870D01*
X8797098Y3594874D01*
X8751796Y3697475D01*
X8751793Y3697480D01*
X8672487Y3776786D01*
X8672482Y3776789D01*
X8650338Y3786567D01*
X8596963Y3831654D01*
X8576436Y3898440D01*
X8595275Y3965722D01*
X8647499Y4012138D01*
X8650344Y4013437D01*
X8672482Y4023212D01*
X8672487Y4023215D01*
X8751793Y4102521D01*
X8751796Y4102526D01*
X8797097Y4205123D01*
X8797097Y4205125D01*
X8800007Y4230206D01*
X8800008Y4230209D01*
X8800008Y4675000D01*
X7400009Y4675000D01*
X7400009Y4230215D01*
X7400010Y4230192D01*
X7402916Y4205131D01*
X7402917Y4205127D01*
X7448219Y4102526D01*
X7448222Y4102521D01*
X7527528Y4023215D01*
X7527535Y4023210D01*
X7549675Y4013434D01*
X7603051Y3968349D01*
X7623579Y3901562D01*
X7604741Y3834280D01*
X7552518Y3787864D01*
X7549675Y3786566D01*
X7527535Y3776791D01*
X7527528Y3776786D01*
X7448222Y3697480D01*
X7448219Y3697475D01*
X7402918Y3594878D01*
X7402918Y3594876D01*
X7400008Y3569795D01*
X7400008Y3125000D01*
X7000007Y3125000D01*
X7000007Y3569786D01*
X7000005Y3569809D01*
X6997099Y3594870D01*
X6997098Y3594874D01*
X6951796Y3697475D01*
X6951793Y3697480D01*
X6872487Y3776786D01*
X6872482Y3776789D01*
X6850338Y3786567D01*
X6796963Y3831654D01*
X6776436Y3898440D01*
X6795275Y3965722D01*
X6847499Y4012138D01*
X6850344Y4013437D01*
X6872482Y4023212D01*
X6872487Y4023215D01*
X6951793Y4102521D01*
X6951796Y4102526D01*
X6997097Y4205123D01*
X6997097Y4205125D01*
X7000007Y4230206D01*
X7000008Y4230209D01*
X7000008Y4675000D01*
X5600009Y4675000D01*
X5600009Y4230215D01*
X5600010Y4230192D01*
X5602916Y4205131D01*
X5602917Y4205127D01*
X5648219Y4102526D01*
X5648222Y4102521D01*
X5727528Y4023215D01*
X5727535Y4023210D01*
X5749675Y4013434D01*
X5803051Y3968349D01*
X5823579Y3901562D01*
X5804741Y3834280D01*
X5752518Y3787864D01*
X5749675Y3786566D01*
X5727535Y3776791D01*
X5727528Y3776786D01*
X5648222Y3697480D01*
X5648219Y3697475D01*
X5602918Y3594878D01*
X5602918Y3594876D01*
X5600008Y3569795D01*
X5600008Y3125000D01*
X4950508Y3125000D01*
X4950508Y3549677D01*
X4949407Y3555211D01*
X4947024Y3579403D01*
X4947024Y4004129D01*
X4947232Y4010224D01*
X4949286Y4070352D01*
X4938806Y4113352D01*
X4937621Y4119591D01*
X4937514Y4120368D01*
X4935097Y4137956D01*
X4936324Y4179024D01*
X4950508Y4250326D01*
X4950508Y4925000D01*
X5600008Y4925000D01*
X7000007Y4925000D01*
X7400008Y4925000D01*
X8800007Y4925000D01*
X8800007Y5369786D01*
X8800005Y5369809D01*
X8797099Y5394870D01*
X8797098Y5394874D01*
X8751796Y5497475D01*
X8751793Y5497480D01*
X8672487Y5576786D01*
X8672482Y5576789D01*
X8650338Y5586567D01*
X8596963Y5631654D01*
X8576436Y5698440D01*
X8595275Y5765722D01*
X8647499Y5812138D01*
X8650344Y5813437D01*
X8672482Y5823212D01*
X8672487Y5823215D01*
X8751793Y5902521D01*
X8751796Y5902526D01*
X8797097Y6005123D01*
X8797097Y6005125D01*
X8800007Y6030206D01*
X8800008Y6030209D01*
X8800008Y6475000D01*
X7400009Y6475000D01*
X7400009Y6030215D01*
X7400010Y6030192D01*
X7402916Y6005131D01*
X7402917Y6005127D01*
X7448219Y5902526D01*
X7448222Y5902521D01*
X7527528Y5823215D01*
X7527535Y5823210D01*
X7549675Y5813434D01*
X7603051Y5768349D01*
X7623579Y5701562D01*
X7604741Y5634280D01*
X7552518Y5587864D01*
X7549675Y5586566D01*
X7527535Y5576791D01*
X7527528Y5576786D01*
X7448222Y5497480D01*
X7448219Y5497475D01*
X7402918Y5394878D01*
X7402918Y5394876D01*
X7400008Y5369795D01*
X7400008Y4925000D01*
X7000007Y4925000D01*
X7000007Y5369786D01*
X7000005Y5369809D01*
X6997099Y5394870D01*
X6997098Y5394874D01*
X6951796Y5497475D01*
X6951793Y5497480D01*
X6872487Y5576786D01*
X6872482Y5576789D01*
X6850338Y5586567D01*
X6796963Y5631654D01*
X6776436Y5698440D01*
X6795275Y5765722D01*
X6847499Y5812138D01*
X6850344Y5813437D01*
X6872482Y5823212D01*
X6872487Y5823215D01*
X6951793Y5902521D01*
X6951796Y5902526D01*
X6997097Y6005123D01*
X6997097Y6005125D01*
X7000007Y6030206D01*
X7000008Y6030209D01*
X7000008Y6475000D01*
X5600009Y6475000D01*
X5600009Y6030215D01*
X5600010Y6030192D01*
X5602916Y6005131D01*
X5602917Y6005127D01*
X5648219Y5902526D01*
X5648222Y5902521D01*
X5727528Y5823215D01*
X5727535Y5823210D01*
X5749675Y5813434D01*
X5803051Y5768349D01*
X5823579Y5701562D01*
X5804741Y5634280D01*
X5752518Y5587864D01*
X5749675Y5586566D01*
X5727535Y5576791D01*
X5727528Y5576786D01*
X5648222Y5497480D01*
X5648219Y5497475D01*
X5602918Y5394878D01*
X5602918Y5394876D01*
X5600008Y5369795D01*
X5600008Y4925000D01*
X4950508Y4925000D01*
X4950508Y5349674D01*
X4950508Y5349677D01*
X4950507Y5349679D01*
X4935975Y5422736D01*
X4935974Y5422737D01*
X4935974Y5422740D01*
X4880609Y5505601D01*
X4873824Y5515756D01*
X4876801Y5517746D01*
X4853342Y5560707D01*
X4850508Y5587065D01*
X4850508Y5812936D01*
X4870193Y5879975D01*
X4874744Y5885624D01*
X4880605Y5894397D01*
X4880609Y5894399D01*
X4935974Y5977260D01*
X4950508Y6050326D01*
X4950508Y6725000D01*
X5600008Y6725000D01*
X7000007Y6725000D01*
X7400008Y6725000D01*
X8800007Y6725000D01*
X8800007Y7169786D01*
X8800005Y7169809D01*
X8797099Y7194870D01*
X8797098Y7194874D01*
X8751796Y7297475D01*
X8751793Y7297480D01*
X8672487Y7376786D01*
X8672482Y7376789D01*
X8650338Y7386567D01*
X8596963Y7431654D01*
X8576436Y7498440D01*
X8595275Y7565722D01*
X8647499Y7612138D01*
X8650344Y7613437D01*
X8672482Y7623212D01*
X8672487Y7623215D01*
X8751793Y7702521D01*
X8751796Y7702526D01*
X8797097Y7805123D01*
X8797097Y7805125D01*
X8800007Y7830206D01*
X8800008Y7830209D01*
X8800008Y8275000D01*
X7400009Y8275000D01*
X7400009Y7830215D01*
X7400010Y7830192D01*
X7402916Y7805131D01*
X7402917Y7805127D01*
X7448219Y7702526D01*
X7448222Y7702521D01*
X7527528Y7623215D01*
X7527535Y7623210D01*
X7549675Y7613434D01*
X7603051Y7568349D01*
X7623579Y7501562D01*
X7604741Y7434280D01*
X7552518Y7387864D01*
X7549675Y7386566D01*
X7527535Y7376791D01*
X7527528Y7376786D01*
X7448222Y7297480D01*
X7448219Y7297475D01*
X7402918Y7194878D01*
X7402918Y7194876D01*
X7400008Y7169795D01*
X7400008Y6725000D01*
X7000007Y6725000D01*
X7000007Y7169786D01*
X7000005Y7169809D01*
X6997099Y7194870D01*
X6997098Y7194874D01*
X6951796Y7297475D01*
X6951793Y7297480D01*
X6872487Y7376786D01*
X6872482Y7376789D01*
X6850338Y7386567D01*
X6796963Y7431654D01*
X6776436Y7498440D01*
X6795275Y7565722D01*
X6847499Y7612138D01*
X6850344Y7613437D01*
X6872482Y7623212D01*
X6872487Y7623215D01*
X6951793Y7702521D01*
X6951796Y7702526D01*
X6997097Y7805123D01*
X6997097Y7805125D01*
X7000007Y7830206D01*
X7000008Y7830209D01*
X7000008Y8275000D01*
X5600009Y8275000D01*
X5600009Y7830215D01*
X5600010Y7830192D01*
X5602916Y7805131D01*
X5602917Y7805127D01*
X5648219Y7702526D01*
X5648222Y7702521D01*
X5727528Y7623215D01*
X5727535Y7623210D01*
X5749675Y7613434D01*
X5803051Y7568349D01*
X5823579Y7501562D01*
X5804741Y7434280D01*
X5752518Y7387864D01*
X5749675Y7386566D01*
X5727535Y7376791D01*
X5727528Y7376786D01*
X5648222Y7297480D01*
X5648219Y7297475D01*
X5602918Y7194878D01*
X5602918Y7194876D01*
X5600008Y7169795D01*
X5600008Y6725000D01*
X4950508Y6725000D01*
X4950508Y7149674D01*
X4950508Y7149677D01*
X4950507Y7149679D01*
X4935975Y7222736D01*
X4935974Y7222737D01*
X4935974Y7222740D01*
X4880609Y7305601D01*
X4873824Y7315756D01*
X4876801Y7317746D01*
X4853342Y7360707D01*
X4850508Y7387065D01*
X4850508Y7612936D01*
X4870193Y7679975D01*
X4874744Y7685624D01*
X4880605Y7694397D01*
X4880609Y7694399D01*
X4935974Y7777260D01*
X4950508Y7850326D01*
X4950508Y8525000D01*
X5600008Y8525000D01*
X6175008Y8525000D01*
X6175008Y9225000D01*
X6425008Y9225000D01*
X6425008Y8525000D01*
X7000007Y8525000D01*
X7400008Y8525000D01*
X7975008Y8525000D01*
X7975008Y9225000D01*
X7655222Y9225000D01*
X7655199Y9224998D01*
X7630138Y9222092D01*
X7630134Y9222091D01*
X7527533Y9176789D01*
X7527528Y9176786D01*
X7448222Y9097480D01*
X7448219Y9097475D01*
X7402918Y8994878D01*
X7402918Y8994876D01*
X7400008Y8969795D01*
X7400008Y8525000D01*
X7000007Y8525000D01*
X7000007Y8969786D01*
X7000005Y8969809D01*
X6997099Y8994870D01*
X6997098Y8994874D01*
X6951796Y9097475D01*
X6951793Y9097480D01*
X6872487Y9176786D01*
X6872482Y9176789D01*
X6769884Y9222090D01*
X6744802Y9225000D01*
X6425008Y9225000D01*
X6175008Y9225000D01*
X5855222Y9225000D01*
X5855199Y9224998D01*
X5830138Y9222092D01*
X5830134Y9222091D01*
X5727533Y9176789D01*
X5727528Y9176786D01*
X5648222Y9097480D01*
X5648219Y9097475D01*
X5602918Y8994878D01*
X5602918Y8994876D01*
X5600008Y8969795D01*
X5600008Y8525000D01*
X4950508Y8525000D01*
X4950508Y8949674D01*
X4950508Y8949677D01*
X4950507Y8949679D01*
X4935975Y9022736D01*
X4935974Y9022740D01*
X4932308Y9028226D01*
X4880609Y9105601D01*
X4820052Y9146063D01*
X4797747Y9160967D01*
X4797743Y9160968D01*
X4724685Y9175500D01*
X4724682Y9175500D01*
X3875334Y9175500D01*
X3875331Y9175500D01*
X3802272Y9160968D01*
X3802268Y9160967D01*
X3719407Y9105601D01*
X3664041Y9022740D01*
X3664040Y9022736D01*
X3649508Y8949679D01*
X3649508Y7850322D01*
X3664040Y7777265D01*
X3664041Y7777261D01*
X3664042Y7777260D01*
X3719407Y7694399D01*
X3719408Y7694399D01*
X3726193Y7684244D01*
X3723215Y7682255D01*
X3746674Y7639294D01*
X3749508Y7612936D01*
X3749508Y7387065D01*
X3729823Y7320026D01*
X3725269Y7314376D01*
X3664042Y7222740D01*
X3664040Y7222736D01*
X3649508Y7149679D01*
X3649508Y6050322D01*
X3664040Y5977265D01*
X3664041Y5977261D01*
X3664042Y5977260D01*
X3719407Y5894399D01*
X3719408Y5894399D01*
X3726193Y5884244D01*
X3723215Y5882255D01*
X3746674Y5839294D01*
X3749508Y5812936D01*
X3749508Y5587065D01*
X3729823Y5520026D01*
X3725269Y5514376D01*
X3664042Y5422740D01*
X3664040Y5422736D01*
X3649508Y5349679D01*
X3649508Y4250322D01*
X3664040Y4177265D01*
X3664041Y4177261D01*
X3726193Y4084243D01*
X3725083Y4083502D01*
X3751172Y4037105D01*
X3757256Y4012138D01*
X3757723Y4010224D01*
X3758909Y4003982D01*
X3764937Y3960122D01*
X3772087Y3943663D01*
X3778827Y3923622D01*
X3783075Y3906190D01*
X3783075Y3906189D01*
X3791398Y3891387D01*
X3807095Y3823304D01*
X3783492Y3757542D01*
X3752202Y3727514D01*
X3719408Y3705602D01*
X3719407Y3705601D01*
X3713250Y3696386D01*
X3664041Y3622740D01*
X3664040Y3622736D01*
X3649508Y3549679D01*
X3649508Y2450322D01*
X3664040Y2377265D01*
X3664041Y2377261D01*
X3664042Y2377260D01*
X3719407Y2294399D01*
X3790915Y2246620D01*
X3835719Y2193009D01*
X3846024Y2143518D01*
X3846024Y2056483D01*
X3826339Y1989444D01*
X3790915Y1953381D01*
X3719407Y1905602D01*
X3664041Y1822740D01*
X3664040Y1822736D01*
X3649508Y1749679D01*
X3649508Y1324000D01*
X3629823Y1256961D01*
X3577019Y1211206D01*
X3525508Y1200000D01*
X3514812Y1200000D01*
X3447773Y1219685D01*
X3427131Y1236319D01*
X2911820Y1751630D01*
X2878335Y1812953D01*
X2875501Y1839311D01*
X2875501Y2073199D01*
X2861838Y2141885D01*
X2861837Y2141886D01*
X2861837Y2141888D01*
X2809787Y2219786D01*
X2731889Y2271836D01*
X2731887Y2271837D01*
X2731885Y2271838D01*
X2663199Y2285500D01*
X2663197Y2285500D01*
X1936803Y2285500D01*
X1936801Y2285500D01*
X1868114Y2271838D01*
X1868111Y2271836D01*
X1790213Y2219786D01*
X1738163Y2141888D01*
X1738161Y2141885D01*
X1724499Y2073199D01*
X1724499Y1755472D01*
X1704814Y1688433D01*
X1652010Y1642678D01*
X1582852Y1632734D01*
X1519296Y1661759D01*
X1512818Y1667791D01*
X1411820Y1768789D01*
X1378335Y1830112D01*
X1375501Y1856470D01*
X1375501Y2073199D01*
X1361838Y2141885D01*
X1361837Y2141886D01*
X1361837Y2141888D01*
X1309787Y2219786D01*
X1231889Y2271836D01*
X1231887Y2271837D01*
X1231885Y2271838D01*
X1163199Y2285500D01*
X1163197Y2285500D01*
X436803Y2285500D01*
X436801Y2285500D01*
X368114Y2271838D01*
X368112Y2271837D01*
X292890Y2221575D01*
X226213Y2200698D01*
X158833Y2219183D01*
X112143Y2271162D01*
X100000Y2324678D01*
X100000Y2609921D01*
X119685Y2676960D01*
X172489Y2722715D01*
X241647Y2732659D01*
X294084Y2712216D01*
X296149Y2710801D01*
X393616Y2667765D01*
X417439Y2665001D01*
X417445Y2665000D01*
X675000Y2665000D01*
X675000Y3165001D01*
X925000Y3165001D01*
X925000Y2665000D01*
X1182555Y2665000D01*
X1182560Y2665001D01*
X1206382Y2667765D01*
X1206384Y2667765D01*
X1303850Y2710802D01*
X1303857Y2710806D01*
X1379195Y2786144D01*
X1379199Y2786151D01*
X1422236Y2883617D01*
X1422236Y2883619D01*
X1425000Y2907441D01*
X1425001Y2907447D01*
X1425001Y3165001D01*
X1674999Y3165001D01*
X1674999Y2907441D01*
X1677763Y2883619D01*
X1677763Y2883617D01*
X1720800Y2786151D01*
X1720804Y2786144D01*
X1796142Y2710806D01*
X1796149Y2710802D01*
X1893616Y2667765D01*
X1917439Y2665001D01*
X1917445Y2665000D01*
X2175000Y2665000D01*
X2175000Y3165001D01*
X2425000Y3165001D01*
X2425000Y2665000D01*
X2682555Y2665000D01*
X2682560Y2665001D01*
X2706382Y2667765D01*
X2706384Y2667765D01*
X2803850Y2710802D01*
X2803857Y2710806D01*
X2879195Y2786144D01*
X2879199Y2786151D01*
X2922236Y2883617D01*
X2922236Y2883619D01*
X2925000Y2907441D01*
X2925001Y2907447D01*
X2925001Y3165001D01*
X2425000Y3165001D01*
X2175000Y3165001D01*
X1674999Y3165001D01*
X1425001Y3165001D01*
X925000Y3165001D01*
X675000Y3165001D01*
X675000Y3291001D01*
X694685Y3358040D01*
X747489Y3403795D01*
X799000Y3415001D01*
X1425001Y3415001D01*
X1674999Y3415001D01*
X2175000Y3415001D01*
X2175000Y3915002D01*
X2425000Y3915002D01*
X2425000Y3415001D01*
X2925001Y3415001D01*
X2925001Y3672556D01*
X2925000Y3672562D01*
X2922236Y3696384D01*
X2922236Y3696386D01*
X2879199Y3793852D01*
X2879195Y3793859D01*
X2803857Y3869197D01*
X2803850Y3869201D01*
X2706383Y3912238D01*
X2682560Y3915002D01*
X2425000Y3915002D01*
X2175000Y3915002D01*
X1917439Y3915002D01*
X1893617Y3912238D01*
X1893615Y3912238D01*
X1796149Y3869201D01*
X1796142Y3869197D01*
X1720804Y3793859D01*
X1720800Y3793852D01*
X1677763Y3696386D01*
X1677763Y3696384D01*
X1674999Y3672562D01*
X1674999Y3415001D01*
X1425001Y3415001D01*
X1425001Y3672556D01*
X1425000Y3672562D01*
X1422236Y3696384D01*
X1422236Y3696386D01*
X1379199Y3793852D01*
X1379195Y3793859D01*
X1342070Y3830984D01*
X1308585Y3892307D01*
X1313569Y3961999D01*
X1336037Y3999866D01*
X1370202Y4039294D01*
X1382887Y4053933D01*
X1382887Y4053935D01*
X1382890Y4053937D01*
X1436705Y4171774D01*
X1455141Y4300000D01*
X1451929Y4322337D01*
X1461872Y4391491D01*
X1507625Y4444296D01*
X1574665Y4463982D01*
X1641704Y4444299D01*
X1687460Y4391496D01*
X1696284Y4364173D01*
X1702292Y4333968D01*
X1702294Y4333962D01*
X1741024Y4276000D01*
X1751028Y4261028D01*
X1823965Y4212293D01*
X1823966Y4212293D01*
X1823967Y4212292D01*
X1860012Y4205123D01*
X1888281Y4199500D01*
X2711718Y4199501D01*
X2776035Y4212293D01*
X2848972Y4261028D01*
X2897707Y4333965D01*
X2910500Y4398281D01*
X2910499Y5001718D01*
X2897707Y5066035D01*
X2897705Y5066037D01*
X2897705Y5066039D01*
X2848972Y5138972D01*
X2802258Y5170185D01*
X2776035Y5187707D01*
X2776034Y5187708D01*
X2776033Y5187708D01*
X2776032Y5187709D01*
X2711721Y5200500D01*
X1888283Y5200500D01*
X1823964Y5187707D01*
X1823960Y5187706D01*
X1799558Y5171399D01*
X1732881Y5150520D01*
X1730666Y5150500D01*
X735666Y5150500D01*
X668627Y5170185D01*
X641951Y5193300D01*
X630282Y5206768D01*
X601261Y5270326D01*
X600000Y5287965D01*
X600000Y5312037D01*
X619685Y5379076D01*
X630278Y5393229D01*
X682882Y5453937D01*
X736697Y5571774D01*
X755133Y5700000D01*
X736697Y5828226D01*
X715798Y5873988D01*
X705854Y5943147D01*
X734879Y6006703D01*
X793657Y6044477D01*
X828592Y6049500D01*
X1577548Y6049500D01*
X1644587Y6029815D01*
X1690342Y5977011D01*
X1699166Y5949689D01*
X1702293Y5933965D01*
X1702294Y5933962D01*
X1742368Y5873988D01*
X1751028Y5861028D01*
X1823965Y5812293D01*
X1823966Y5812293D01*
X1823967Y5812292D01*
X1862483Y5804632D01*
X1888281Y5799500D01*
X2711718Y5799501D01*
X2776035Y5812293D01*
X2848972Y5861028D01*
X2897707Y5933965D01*
X2899534Y5943147D01*
X2910499Y5998278D01*
X2910500Y5998281D01*
X2910499Y6601718D01*
X2897707Y6666035D01*
X2897705Y6666037D01*
X2897705Y6666039D01*
X2848972Y6738972D01*
X2776036Y6787706D01*
X2776035Y6787707D01*
X2776034Y6787708D01*
X2776033Y6787708D01*
X2776032Y6787709D01*
X2711723Y6800500D01*
X2711719Y6800500D01*
X2674500Y6800500D01*
X2607461Y6820185D01*
X2561706Y6872989D01*
X2550500Y6924500D01*
X2550500Y7075501D01*
X2570185Y7142540D01*
X2622989Y7188295D01*
X2674500Y7199501D01*
X2711717Y7199501D01*
X2711718Y7199501D01*
X2776035Y7212293D01*
X2848972Y7261028D01*
X2897707Y7333965D01*
X2910500Y7398281D01*
X2910499Y8001718D01*
X2897707Y8066035D01*
X2897705Y8066037D01*
X2897705Y8066039D01*
X2848972Y8138972D01*
X2776036Y8187706D01*
X2776035Y8187707D01*
X2776034Y8187708D01*
X2776033Y8187708D01*
X2776032Y8187709D01*
X2711721Y8200500D01*
X1888283Y8200500D01*
X1823964Y8187707D01*
X1823961Y8187706D01*
X1751028Y8138973D01*
X1702292Y8066034D01*
X1702291Y8066033D01*
X1689500Y8001723D01*
X1689500Y7398284D01*
X1702293Y7333965D01*
X1702294Y7333962D01*
X1751027Y7261029D01*
X1751028Y7261028D01*
X1823965Y7212293D01*
X1823966Y7212293D01*
X1823967Y7212292D01*
X1871981Y7202743D01*
X1888281Y7199500D01*
X1925499Y7199501D01*
X1992537Y7179818D01*
X2038293Y7127015D01*
X2049500Y7075501D01*
X2049500Y6924500D01*
X2029815Y6857461D01*
X1977011Y6811706D01*
X1925503Y6800500D01*
X1888283Y6800500D01*
X1823964Y6787707D01*
X1823961Y6787706D01*
X1751028Y6738973D01*
X1702292Y6666034D01*
X1699164Y6650307D01*
X1666778Y6588397D01*
X1606062Y6553823D01*
X1577547Y6550500D01*
X851883Y6550500D01*
X784844Y6570185D01*
X739089Y6622988D01*
X719430Y6666035D01*
X682882Y6746063D01*
X682880Y6746065D01*
X682879Y6746068D01*
X630286Y6806765D01*
X601262Y6870321D01*
X600000Y6887966D01*
X600000Y6912037D01*
X619685Y6979076D01*
X630278Y6993229D01*
X682882Y7053937D01*
X736697Y7171774D01*
X755133Y7300000D01*
X736697Y7428226D01*
X682882Y7546063D01*
X682880Y7546065D01*
X682879Y7546068D01*
X630286Y7606765D01*
X601262Y7670321D01*
X600000Y7687966D01*
X600000Y7712037D01*
X619685Y7779076D01*
X630278Y7793229D01*
X682882Y7853937D01*
X736697Y7971774D01*
X755133Y8100000D01*
X736697Y8228226D01*
X682882Y8346063D01*
X682880Y8346065D01*
X682879Y8346068D01*
X630286Y8406765D01*
X601262Y8470321D01*
X600000Y8487966D01*
X600000Y8512037D01*
X619685Y8579076D01*
X630278Y8593229D01*
X682882Y8653937D01*
X736697Y8771774D01*
X739705Y8792697D01*
X768729Y8856252D01*
X827506Y8894028D01*
X838269Y8896671D01*
X840553Y8897126D01*
X864704Y8899500D01*
X1661194Y8899500D01*
X1728233Y8879815D01*
X1748879Y8863177D01*
X1751027Y8861029D01*
X1751028Y8861028D01*
X1823965Y8812293D01*
X1823967Y8812293D01*
X1823967Y8812292D01*
X1862483Y8804632D01*
X1888281Y8799500D01*
X2711718Y8799501D01*
X2776035Y8812293D01*
X2848972Y8861028D01*
X2897707Y8933965D01*
X2910500Y8998281D01*
X2910499Y9601718D01*
X2897707Y9666035D01*
X2897705Y9666037D01*
X2897705Y9666040D01*
X2870263Y9707108D01*
X2849384Y9773785D01*
X2867868Y9841166D01*
X2919846Y9887856D01*
X2973364Y9900000D01*
X8276000Y9900000D01*
X8343039Y9880315D01*
G37*
G04 #@! TD.AperFunction*
G04 #@! TA.AperFunction,Conductor*
G36*
X13643039Y9880315D02*
G01*
X13688794Y9827511D01*
X13700000Y9776000D01*
X13700000Y5686232D01*
X13680315Y5619193D01*
X13627511Y5573438D01*
X13558353Y5563494D01*
X13494797Y5592519D01*
X13482287Y5605030D01*
X13448549Y5643965D01*
X13448548Y5643966D01*
X13448547Y5643967D01*
X13339567Y5714004D01*
X13339563Y5714006D01*
X13339562Y5714006D01*
X13215272Y5750500D01*
X13215270Y5750500D01*
X13085726Y5750500D01*
X13085724Y5750500D01*
X12961433Y5714006D01*
X12961430Y5714005D01*
X12961429Y5714004D01*
X12937211Y5698440D01*
X12852448Y5643967D01*
X12767616Y5546063D01*
X12767615Y5546062D01*
X12713800Y5428226D01*
X12695365Y5300000D01*
X12713800Y5171775D01*
X12762091Y5066035D01*
X12767616Y5053937D01*
X12852449Y4956033D01*
X12961429Y4885996D01*
X13085723Y4849501D01*
X13085725Y4849500D01*
X13085726Y4849500D01*
X13215271Y4849500D01*
X13215271Y4849501D01*
X13339567Y4885996D01*
X13448547Y4956033D01*
X13482286Y4994970D01*
X13541063Y5032746D01*
X13610933Y5032747D01*
X13669712Y4994973D01*
X13698738Y4931418D01*
X13700000Y4913769D01*
X13700000Y224000D01*
X13680315Y156961D01*
X13627511Y111206D01*
X13576000Y100000D01*
X12124000Y100000D01*
X12056961Y119685D01*
X12011206Y172489D01*
X12000000Y224000D01*
X12000000Y370113D01*
X12019685Y437152D01*
X12036319Y457794D01*
X12151704Y573179D01*
X12213027Y606664D01*
X12239385Y609498D01*
X12363207Y609498D01*
X12431893Y623161D01*
X12431893Y623162D01*
X12431897Y623162D01*
X12509795Y675212D01*
X12561845Y753110D01*
X12575509Y821802D01*
X12575509Y960118D01*
X12595194Y1027157D01*
X12647998Y1072912D01*
X12717156Y1082856D01*
X12734437Y1079097D01*
X12798950Y1060155D01*
X12835235Y1049500D01*
X12835236Y1049500D01*
X12964781Y1049500D01*
X12964781Y1049501D01*
X13089077Y1085996D01*
X13198057Y1156033D01*
X13282890Y1253937D01*
X13336705Y1371774D01*
X13355141Y1500000D01*
X13336705Y1628226D01*
X13282890Y1746063D01*
X13198057Y1843967D01*
X13089077Y1914004D01*
X13089073Y1914006D01*
X13089072Y1914006D01*
X12964782Y1950500D01*
X12964780Y1950500D01*
X12835236Y1950500D01*
X12835234Y1950500D01*
X12710943Y1914006D01*
X12710940Y1914005D01*
X12710939Y1914004D01*
X12677433Y1892472D01*
X12601957Y1843967D01*
X12552371Y1786740D01*
X12493593Y1748966D01*
X12434467Y1746326D01*
X12363209Y1760500D01*
X12363205Y1760500D01*
X11636811Y1760500D01*
X11636809Y1760500D01*
X11568122Y1746838D01*
X11568119Y1746836D01*
X11490221Y1694786D01*
X11438171Y1616888D01*
X11438169Y1616885D01*
X11424507Y1548199D01*
X11424507Y1454394D01*
X11404822Y1387355D01*
X11388188Y1366713D01*
X11257794Y1236319D01*
X11196471Y1202834D01*
X11170113Y1200000D01*
X10874508Y1200000D01*
X10807469Y1219685D01*
X10761714Y1272489D01*
X10750508Y1324000D01*
X10750508Y1749677D01*
X10750507Y1749679D01*
X10735975Y1822736D01*
X10735974Y1822737D01*
X10735974Y1822740D01*
X10680609Y1905601D01*
X10680608Y1905602D01*
X10673824Y1915756D01*
X10676801Y1917746D01*
X10653342Y1960707D01*
X10650508Y1987065D01*
X10650508Y2212936D01*
X10670193Y2279975D01*
X10674744Y2285624D01*
X10680605Y2294397D01*
X10680609Y2294399D01*
X10735974Y2377260D01*
X10750508Y2450326D01*
X10750508Y2640001D01*
X11375007Y2640001D01*
X11375007Y2382441D01*
X11377771Y2358619D01*
X11377771Y2358617D01*
X11420808Y2261151D01*
X11420812Y2261144D01*
X11496150Y2185806D01*
X11496157Y2185802D01*
X11593624Y2142765D01*
X11617447Y2140001D01*
X11617453Y2140000D01*
X11875008Y2140000D01*
X11875008Y2640001D01*
X12125008Y2640001D01*
X12125008Y2140000D01*
X12382563Y2140000D01*
X12382568Y2140001D01*
X12406390Y2142765D01*
X12406392Y2142765D01*
X12503858Y2185802D01*
X12503865Y2185806D01*
X12579203Y2261144D01*
X12579207Y2261151D01*
X12622244Y2358617D01*
X12622244Y2358619D01*
X12625008Y2382441D01*
X12625009Y2382447D01*
X12625009Y2640001D01*
X12125008Y2640001D01*
X11875008Y2640001D01*
X11375007Y2640001D01*
X10750508Y2640001D01*
X10750508Y2890001D01*
X11375007Y2890001D01*
X11875008Y2890001D01*
X11875008Y3390002D01*
X12125008Y3390002D01*
X12125008Y2890001D01*
X12625009Y2890001D01*
X12625009Y3147556D01*
X12625008Y3147562D01*
X12622244Y3171384D01*
X12622244Y3171386D01*
X12579207Y3268852D01*
X12579203Y3268859D01*
X12503865Y3344197D01*
X12503858Y3344201D01*
X12406391Y3387238D01*
X12382568Y3390002D01*
X12125008Y3390002D01*
X11875008Y3390002D01*
X11617447Y3390002D01*
X11593625Y3387238D01*
X11593623Y3387238D01*
X11496157Y3344201D01*
X11496150Y3344197D01*
X11420812Y3268859D01*
X11420808Y3268852D01*
X11377771Y3171386D01*
X11377771Y3171384D01*
X11375007Y3147562D01*
X11375007Y2890001D01*
X10750508Y2890001D01*
X10750508Y3549674D01*
X10750508Y3549677D01*
X10750507Y3549679D01*
X10735975Y3622736D01*
X10735974Y3622737D01*
X10735974Y3622740D01*
X10680609Y3705601D01*
X10680608Y3705602D01*
X10673824Y3715756D01*
X10676801Y3717746D01*
X10653342Y3760707D01*
X10650508Y3787065D01*
X10650508Y4012936D01*
X10670193Y4079975D01*
X10674744Y4085624D01*
X10680605Y4094397D01*
X10680609Y4094399D01*
X10735974Y4177260D01*
X10750508Y4250326D01*
X10750508Y5349674D01*
X10750508Y5349677D01*
X10750507Y5349679D01*
X10735975Y5422736D01*
X10735974Y5422737D01*
X10735974Y5422740D01*
X10680609Y5505601D01*
X10673824Y5515756D01*
X10676801Y5517746D01*
X10653342Y5560707D01*
X10650508Y5587065D01*
X10650508Y5812936D01*
X10670193Y5879975D01*
X10674744Y5885624D01*
X10680605Y5894397D01*
X10680609Y5894399D01*
X10735974Y5977260D01*
X10750508Y6050326D01*
X10750508Y7149674D01*
X10750508Y7149677D01*
X10750507Y7149679D01*
X10735975Y7222736D01*
X10735974Y7222737D01*
X10735974Y7222740D01*
X10680609Y7305601D01*
X10673824Y7315756D01*
X10676801Y7317746D01*
X10653342Y7360707D01*
X10650508Y7387065D01*
X10650508Y7612936D01*
X10670193Y7679975D01*
X10674744Y7685624D01*
X10680605Y7694397D01*
X10680609Y7694399D01*
X10735974Y7777260D01*
X10750508Y7850326D01*
X10750508Y7937969D01*
X10770193Y8005008D01*
X10822997Y8050763D01*
X10892155Y8060707D01*
X10941544Y8042286D01*
X11004549Y8001795D01*
X11004551Y8001795D01*
X11004552Y8001794D01*
X11128843Y7965300D01*
X11128845Y7965299D01*
X11128846Y7965299D01*
X11258391Y7965299D01*
X11258391Y7965300D01*
X11382687Y8001795D01*
X11382700Y8001804D01*
X11383952Y8002374D01*
X11385342Y8002575D01*
X11391197Y8004293D01*
X11391443Y8003453D01*
X11453109Y8012325D01*
X11516668Y7983307D01*
X11554449Y7924533D01*
X11558214Y7907233D01*
X11563310Y7871785D01*
X11593754Y7805123D01*
X11617126Y7753947D01*
X11701959Y7656043D01*
X11810939Y7586006D01*
X11871075Y7568349D01*
X11935233Y7549511D01*
X11935235Y7549510D01*
X11935236Y7549510D01*
X12064781Y7549510D01*
X12064781Y7549511D01*
X12189077Y7586006D01*
X12298057Y7656043D01*
X12382890Y7753947D01*
X12436705Y7871784D01*
X12455141Y8000010D01*
X12436705Y8128236D01*
X12382890Y8246073D01*
X12298057Y8343977D01*
X12189077Y8414014D01*
X12189073Y8414016D01*
X12189072Y8414016D01*
X12064782Y8450510D01*
X12064780Y8450510D01*
X11935236Y8450510D01*
X11935234Y8450510D01*
X11810939Y8414015D01*
X11809659Y8413430D01*
X11808265Y8413230D01*
X11802429Y8411516D01*
X11802182Y8412356D01*
X11740500Y8403487D01*
X11676945Y8432513D01*
X11639171Y8491292D01*
X11635411Y8508580D01*
X11630315Y8544024D01*
X11623803Y8558285D01*
X11576500Y8661862D01*
X11576498Y8661864D01*
X11576497Y8661867D01*
X11523512Y8723015D01*
X11494487Y8786571D01*
X11504431Y8855729D01*
X11523512Y8885419D01*
X11582879Y8953933D01*
X11582879Y8953935D01*
X11582882Y8953937D01*
X11636697Y9071774D01*
X11655133Y9200000D01*
X11636697Y9328226D01*
X11582882Y9446063D01*
X11498049Y9543967D01*
X11389069Y9614004D01*
X11389065Y9614006D01*
X11389064Y9614006D01*
X11264774Y9650500D01*
X11264772Y9650500D01*
X11135228Y9650500D01*
X11135226Y9650500D01*
X11010935Y9614006D01*
X11010932Y9614005D01*
X11010931Y9614004D01*
X10959677Y9581066D01*
X10901950Y9543967D01*
X10817118Y9446063D01*
X10817117Y9446062D01*
X10763302Y9328226D01*
X10753938Y9263094D01*
X10724912Y9199539D01*
X10666134Y9161765D01*
X10607009Y9159125D01*
X10524686Y9175500D01*
X10524682Y9175500D01*
X10254387Y9175500D01*
X10187348Y9195185D01*
X10166706Y9211819D01*
X9836319Y9542206D01*
X9802834Y9603529D01*
X9800000Y9629887D01*
X9800000Y9776000D01*
X9819685Y9843039D01*
X9872489Y9888794D01*
X9924000Y9900000D01*
X13576000Y9900000D01*
X13643039Y9880315D01*
G37*
G04 #@! TD.AperFunction*
G04 #@! TA.AperFunction,Conductor*
G36*
X490089Y4380315D02*
G01*
X535844Y4327511D01*
X545788Y4293647D01*
X563310Y4171775D01*
X567114Y4163446D01*
X598647Y4094399D01*
X600422Y4090514D01*
X610366Y4021356D01*
X581341Y3957800D01*
X522564Y3920025D01*
X487628Y3915002D01*
X417439Y3915002D01*
X393617Y3912238D01*
X393615Y3912238D01*
X296145Y3869200D01*
X294078Y3867783D01*
X289726Y3866366D01*
X285634Y3864558D01*
X285451Y3864972D01*
X227646Y3846136D01*
X160057Y3863841D01*
X112769Y3915276D01*
X100000Y3970082D01*
X100000Y4276000D01*
X119685Y4343039D01*
X172489Y4388794D01*
X224000Y4400000D01*
X423050Y4400000D01*
X490089Y4380315D01*
G37*
G04 #@! TD.AperFunction*
G04 #@! TD*
M02*
