M48
; DRILL file {KiCad 7.0.9} date Wed Mar 27 02:46:36 2024
; FORMAT={2:4/ absolute / inch / suppress leading zeros}
; #@! TF.CreationDate,2024-03-27T02:46:36+03:00
; #@! TF.GenerationSoftware,Kicad,Pcbnew,7.0.9
; #@! TF.FileFunction,MixedPlating,1,4
FMAT,2
INCH,TZ
; #@! TA.AperFunction,Plated,PTH,ViaDrill
T1C0.0118
; #@! TA.AperFunction,Plated,PTH,ComponentDrill
T2C0.0118
; #@! TA.AperFunction,Plated,PTH,ComponentDrill
T3C0.0276
%
G90
G05
T1
X240Y240
X398Y1697
X1303Y3724
X1320Y690
X1697Y2248
X1735Y1584
X2091Y3705
X2091Y201
X2130Y2957
X2130Y831
X2839Y3724
X2839Y2957
X2839Y2248
X2839Y1539
X2839Y831
X3547Y2248
X3587Y201
X3980Y1539
X3980Y831
X4411Y3317
X4413Y3626
X4728Y3154
X5043Y3705
X5083Y594
X5181Y2091
X5201Y240
X5240Y3193
T2
X122Y3823
X122Y3508
X122Y3193
X122Y2878
X122Y2563
X122Y2248
X122Y1933
X437Y3823
T3
X752Y201
X1224Y201
X3587Y3744
X4453Y201
T0
M30
