G04 #@! TF.GenerationSoftware,KiCad,Pcbnew,7.0.1-115-g2ece2719d0*
G04 #@! TF.CreationDate,2023-06-29T00:23:38+03:00*
G04 #@! TF.ProjectId,hellen1-vr-max9924,68656c6c-656e-4312-9d76-722d6d617839,rev?*
G04 #@! TF.SameCoordinates,PX4a19ba0PY5aa5910*
G04 #@! TF.FileFunction,Paste,Top*
G04 #@! TF.FilePolarity,Positive*
%FSLAX46Y46*%
G04 Gerber Fmt 4.6, Leading zero omitted, Abs format (unit mm)*
G04 Created by KiCad (PCBNEW 7.0.1-115-g2ece2719d0) date 2023-06-29 00:23:38*
%MOMM*%
%LPD*%
G01*
G04 APERTURE LIST*
G04 APERTURE END LIST*
G04 #@! TO.C,R755*
G36*
G01*
X5710000Y3500000D02*
X6490000Y3500000D01*
G75*
G02*
X6560000Y3430000I0J-70000D01*
G01*
X6560000Y2870000D01*
G75*
G02*
X6490000Y2800000I-70000J0D01*
G01*
X5710000Y2800000D01*
G75*
G02*
X5640000Y2870000I0J70000D01*
G01*
X5640000Y3430000D01*
G75*
G02*
X5710000Y3500000I70000J0D01*
G01*
G37*
G36*
G01*
X5710000Y5100000D02*
X6490000Y5100000D01*
G75*
G02*
X6560000Y5030000I0J-70000D01*
G01*
X6560000Y4470000D01*
G75*
G02*
X6490000Y4400000I-70000J0D01*
G01*
X5710000Y4400000D01*
G75*
G02*
X5640000Y4470000I0J70000D01*
G01*
X5640000Y5030000D01*
G75*
G02*
X5710000Y5100000I70000J0D01*
G01*
G37*
G04 #@! TD*
G04 #@! TO.C,D751*
G36*
G01*
X6056250Y8300000D02*
X5543750Y8300000D01*
G75*
G02*
X5325000Y8518750I0J218750D01*
G01*
X5325000Y8956250D01*
G75*
G02*
X5543750Y9175000I218750J0D01*
G01*
X6056250Y9175000D01*
G75*
G02*
X6275000Y8956250I0J-218750D01*
G01*
X6275000Y8518750D01*
G75*
G02*
X6056250Y8300000I-218750J0D01*
G01*
G37*
G36*
G01*
X6056250Y6725000D02*
X5543750Y6725000D01*
G75*
G02*
X5325000Y6943750I0J218750D01*
G01*
X5325000Y7381250D01*
G75*
G02*
X5543750Y7600000I218750J0D01*
G01*
X6056250Y7600000D01*
G75*
G02*
X6275000Y7381250I0J-218750D01*
G01*
X6275000Y6943750D01*
G75*
G02*
X6056250Y6725000I-218750J0D01*
G01*
G37*
G04 #@! TD*
G04 #@! TO.C,R756*
G36*
G01*
X1450000Y6440000D02*
X1450000Y5660000D01*
G75*
G02*
X1380000Y5590000I-70000J0D01*
G01*
X820000Y5590000D01*
G75*
G02*
X750000Y5660000I0J70000D01*
G01*
X750000Y6440000D01*
G75*
G02*
X820000Y6510000I70000J0D01*
G01*
X1380000Y6510000D01*
G75*
G02*
X1450000Y6440000I0J-70000D01*
G01*
G37*
G36*
G01*
X3050000Y6440000D02*
X3050000Y5660000D01*
G75*
G02*
X2980000Y5590000I-70000J0D01*
G01*
X2420000Y5590000D01*
G75*
G02*
X2350000Y5660000I0J70000D01*
G01*
X2350000Y6440000D01*
G75*
G02*
X2420000Y6510000I70000J0D01*
G01*
X2980000Y6510000D01*
G75*
G02*
X3050000Y6440000I0J-70000D01*
G01*
G37*
G04 #@! TD*
G04 #@! TO.C,C752*
G36*
G01*
X2265001Y8510000D02*
X2265001Y9190000D01*
G75*
G02*
X2350001Y9275000I85000J0D01*
G01*
X3030001Y9275000D01*
G75*
G02*
X3115001Y9190000I0J-85000D01*
G01*
X3115001Y8510000D01*
G75*
G02*
X3030001Y8425000I-85000J0D01*
G01*
X2350001Y8425000D01*
G75*
G02*
X2265001Y8510000I0J85000D01*
G01*
G37*
G36*
G01*
X684999Y8510000D02*
X684999Y9190000D01*
G75*
G02*
X769999Y9275000I85000J0D01*
G01*
X1449999Y9275000D01*
G75*
G02*
X1534999Y9190000I0J-85000D01*
G01*
X1534999Y8510000D01*
G75*
G02*
X1449999Y8425000I-85000J0D01*
G01*
X769999Y8425000D01*
G75*
G02*
X684999Y8510000I0J85000D01*
G01*
G37*
G04 #@! TD*
G04 #@! TO.C,C754*
G36*
G01*
X2265001Y7110000D02*
X2265001Y7790000D01*
G75*
G02*
X2350001Y7875000I85000J0D01*
G01*
X3030001Y7875000D01*
G75*
G02*
X3115001Y7790000I0J-85000D01*
G01*
X3115001Y7110000D01*
G75*
G02*
X3030001Y7025000I-85000J0D01*
G01*
X2350001Y7025000D01*
G75*
G02*
X2265001Y7110000I0J85000D01*
G01*
G37*
G36*
G01*
X684999Y7110000D02*
X684999Y7790000D01*
G75*
G02*
X769999Y7875000I85000J0D01*
G01*
X1449999Y7875000D01*
G75*
G02*
X1534999Y7790000I0J-85000D01*
G01*
X1534999Y7110000D01*
G75*
G02*
X1449999Y7025000I-85000J0D01*
G01*
X769999Y7025000D01*
G75*
G02*
X684999Y7110000I0J85000D01*
G01*
G37*
G04 #@! TD*
G04 #@! TO.C,R757*
G36*
G01*
X4590000Y6900000D02*
X3810000Y6900000D01*
G75*
G02*
X3740000Y6970000I0J70000D01*
G01*
X3740000Y7530000D01*
G75*
G02*
X3810000Y7600000I70000J0D01*
G01*
X4590000Y7600000D01*
G75*
G02*
X4660000Y7530000I0J-70000D01*
G01*
X4660000Y6970000D01*
G75*
G02*
X4590000Y6900000I-70000J0D01*
G01*
G37*
G36*
G01*
X4590000Y8500000D02*
X3810000Y8500000D01*
G75*
G02*
X3740000Y8570000I0J70000D01*
G01*
X3740000Y9130000D01*
G75*
G02*
X3810000Y9200000I70000J0D01*
G01*
X4590000Y9200000D01*
G75*
G02*
X4660000Y9130000I0J-70000D01*
G01*
X4660000Y8570000D01*
G75*
G02*
X4590000Y8500000I-70000J0D01*
G01*
G37*
G04 #@! TD*
M02*
