G04*
G04 #@! TF.GenerationSoftware,Altium Limited,Altium Designer,20.0.10 (225)*
G04*
G04 Layer_Color=7674933*
%FSLAX25Y25*%
%MOIN*%
G70*
G01*
G75*
%ADD18O,0.02520X0.01535*%
G04:AMPARAMS|DCode=19|XSize=38.98mil|YSize=38.98mil|CornerRadius=6.1mil|HoleSize=0mil|Usage=FLASHONLY|Rotation=270.000|XOffset=0mil|YOffset=0mil|HoleType=Round|Shape=RoundedRectangle|*
%AMROUNDEDRECTD19*
21,1,0.03898,0.02677,0,0,270.0*
21,1,0.02677,0.03898,0,0,270.0*
1,1,0.01221,-0.01339,-0.01339*
1,1,0.01221,-0.01339,0.01339*
1,1,0.01221,0.01339,0.01339*
1,1,0.01221,0.01339,-0.01339*
%
%ADD19ROUNDEDRECTD19*%
G04:AMPARAMS|DCode=20|XSize=27.17mil|YSize=62.6mil|CornerRadius=4.92mil|HoleSize=0mil|Usage=FLASHONLY|Rotation=270.000|XOffset=0mil|YOffset=0mil|HoleType=Round|Shape=RoundedRectangle|*
%AMROUNDEDRECTD20*
21,1,0.02717,0.05276,0,0,270.0*
21,1,0.01732,0.06260,0,0,270.0*
1,1,0.00984,-0.02638,-0.00866*
1,1,0.00984,-0.02638,0.00866*
1,1,0.00984,0.02638,0.00866*
1,1,0.00984,0.02638,-0.00866*
%
%ADD20ROUNDEDRECTD20*%
G04:AMPARAMS|DCode=21|XSize=27.17mil|YSize=62.6mil|CornerRadius=4.92mil|HoleSize=0mil|Usage=FLASHONLY|Rotation=270.000|XOffset=0mil|YOffset=0mil|HoleType=Round|Shape=RoundedRectangle|*
%AMROUNDEDRECTD21*
21,1,0.02717,0.05276,0,0,270.0*
21,1,0.01732,0.06260,0,0,270.0*
1,1,0.00984,-0.02638,-0.00866*
1,1,0.00984,-0.02638,0.00866*
1,1,0.00984,0.02638,0.00866*
1,1,0.00984,0.02638,-0.00866*
%
%ADD21ROUNDEDRECTD21*%
G04:AMPARAMS|DCode=22|XSize=33.07mil|YSize=41.73mil|CornerRadius=5.51mil|HoleSize=0mil|Usage=FLASHONLY|Rotation=180.000|XOffset=0mil|YOffset=0mil|HoleType=Round|Shape=RoundedRectangle|*
%AMROUNDEDRECTD22*
21,1,0.03307,0.03071,0,0,180.0*
21,1,0.02205,0.04173,0,0,180.0*
1,1,0.01102,-0.01102,0.01535*
1,1,0.01102,0.01102,0.01535*
1,1,0.01102,0.01102,-0.01535*
1,1,0.01102,-0.01102,-0.01535*
%
%ADD22ROUNDEDRECTD22*%
G04:AMPARAMS|DCode=23|XSize=33.07mil|YSize=41.73mil|CornerRadius=5.51mil|HoleSize=0mil|Usage=FLASHONLY|Rotation=270.000|XOffset=0mil|YOffset=0mil|HoleType=Round|Shape=RoundedRectangle|*
%AMROUNDEDRECTD23*
21,1,0.03307,0.03071,0,0,270.0*
21,1,0.02205,0.04173,0,0,270.0*
1,1,0.01102,-0.01535,-0.01102*
1,1,0.01102,-0.01535,0.01102*
1,1,0.01102,0.01535,0.01102*
1,1,0.01102,0.01535,-0.01102*
%
%ADD23ROUNDEDRECTD23*%
D18*
X71457Y4626D02*
D03*
Y7382D02*
D03*
Y10827D02*
D03*
X1280Y2854D02*
D03*
Y12303D02*
D03*
D19*
X47343Y8327D02*
D03*
Y2106D02*
D03*
X52658Y3976D02*
D03*
Y10197D02*
D03*
X42815Y2106D02*
D03*
Y8327D02*
D03*
X2953Y9114D02*
D03*
Y2894D02*
D03*
X33858Y2402D02*
D03*
Y8622D02*
D03*
D20*
X66634Y10531D02*
D03*
Y3051D02*
D03*
X58169D02*
D03*
Y6791D02*
D03*
X23268Y11024D02*
D03*
Y3543D02*
D03*
X14803D02*
D03*
Y7283D02*
D03*
D21*
X58169Y10531D02*
D03*
X14803Y11024D02*
D03*
D22*
X50886Y13091D02*
D03*
X44587D02*
D03*
X40847Y13878D02*
D03*
X34547D02*
D03*
D23*
X38386Y9744D02*
D03*
Y3445D02*
D03*
X9055Y9744D02*
D03*
Y3445D02*
D03*
X28937Y9744D02*
D03*
Y3445D02*
D03*
M02*
