G04*
G04 #@! TF.GenerationSoftware,Altium Limited,Altium Designer,20.2.7 (254)*
G04*
G04 Layer_Physical_Order=1*
G04 Layer_Color=255*
%FSLAX25Y25*%
%MOIN*%
G70*
G04*
G04 #@! TF.SameCoordinates,2E7D77F1-3297-47DA-9CE9-CD2C700FB406*
G04*
G04*
G04 #@! TF.FilePolarity,Positive*
G04*
G01*
G75*
%ADD11C,0.00787*%
%ADD14C,0.01968*%
G04:AMPARAMS|DCode=15|XSize=39.37mil|YSize=57.09mil|CornerRadius=3.94mil|HoleSize=0mil|Usage=FLASHONLY|Rotation=90.000|XOffset=0mil|YOffset=0mil|HoleType=Round|Shape=RoundedRectangle|*
%AMROUNDEDRECTD15*
21,1,0.03937,0.04921,0,0,90.0*
21,1,0.03150,0.05709,0,0,90.0*
1,1,0.00787,0.02461,0.01575*
1,1,0.00787,0.02461,-0.01575*
1,1,0.00787,-0.02461,-0.01575*
1,1,0.00787,-0.02461,0.01575*
%
%ADD15ROUNDEDRECTD15*%
G04:AMPARAMS|DCode=16|XSize=106.3mil|YSize=62.99mil|CornerRadius=6.3mil|HoleSize=0mil|Usage=FLASHONLY|Rotation=0.000|XOffset=0mil|YOffset=0mil|HoleType=Round|Shape=RoundedRectangle|*
%AMROUNDEDRECTD16*
21,1,0.10630,0.05039,0,0,0.0*
21,1,0.09370,0.06299,0,0,0.0*
1,1,0.01260,0.04685,-0.02520*
1,1,0.01260,-0.04685,-0.02520*
1,1,0.01260,-0.04685,0.02520*
1,1,0.01260,0.04685,0.02520*
%
%ADD16ROUNDEDRECTD16*%
G04:AMPARAMS|DCode=17|XSize=74.8mil|YSize=98.43mil|CornerRadius=7.48mil|HoleSize=0mil|Usage=FLASHONLY|Rotation=180.000|XOffset=0mil|YOffset=0mil|HoleType=Round|Shape=RoundedRectangle|*
%AMROUNDEDRECTD17*
21,1,0.07480,0.08346,0,0,180.0*
21,1,0.05984,0.09843,0,0,180.0*
1,1,0.01496,-0.02992,0.04173*
1,1,0.01496,0.02992,0.04173*
1,1,0.01496,0.02992,-0.04173*
1,1,0.01496,-0.02992,-0.04173*
%
%ADD17ROUNDEDRECTD17*%
G04:AMPARAMS|DCode=18|XSize=27.56mil|YSize=36.22mil|CornerRadius=2.76mil|HoleSize=0mil|Usage=FLASHONLY|Rotation=180.000|XOffset=0mil|YOffset=0mil|HoleType=Round|Shape=RoundedRectangle|*
%AMROUNDEDRECTD18*
21,1,0.02756,0.03071,0,0,180.0*
21,1,0.02205,0.03622,0,0,180.0*
1,1,0.00551,-0.01102,0.01535*
1,1,0.00551,0.01102,0.01535*
1,1,0.00551,0.01102,-0.01535*
1,1,0.00551,-0.01102,-0.01535*
%
%ADD18ROUNDEDRECTD18*%
G04:AMPARAMS|DCode=19|XSize=33.47mil|YSize=33.47mil|CornerRadius=3.35mil|HoleSize=0mil|Usage=FLASHONLY|Rotation=180.000|XOffset=0mil|YOffset=0mil|HoleType=Round|Shape=RoundedRectangle|*
%AMROUNDEDRECTD19*
21,1,0.03347,0.02677,0,0,180.0*
21,1,0.02677,0.03347,0,0,180.0*
1,1,0.00669,-0.01339,0.01339*
1,1,0.00669,0.01339,0.01339*
1,1,0.00669,0.01339,-0.01339*
1,1,0.00669,-0.01339,-0.01339*
%
%ADD19ROUNDEDRECTD19*%
G04:AMPARAMS|DCode=20|XSize=33.47mil|YSize=33.47mil|CornerRadius=3.35mil|HoleSize=0mil|Usage=FLASHONLY|Rotation=270.000|XOffset=0mil|YOffset=0mil|HoleType=Round|Shape=RoundedRectangle|*
%AMROUNDEDRECTD20*
21,1,0.03347,0.02677,0,0,270.0*
21,1,0.02677,0.03347,0,0,270.0*
1,1,0.00669,-0.01339,-0.01339*
1,1,0.00669,-0.01339,0.01339*
1,1,0.00669,0.01339,0.01339*
1,1,0.00669,0.01339,-0.01339*
%
%ADD20ROUNDEDRECTD20*%
%ADD21O,0.08661X0.01968*%
G04:AMPARAMS|DCode=22|XSize=122.05mil|YSize=94.49mil|CornerRadius=9.45mil|HoleSize=0mil|Usage=FLASHONLY|Rotation=270.000|XOffset=0mil|YOffset=0mil|HoleType=Round|Shape=RoundedRectangle|*
%AMROUNDEDRECTD22*
21,1,0.12205,0.07559,0,0,270.0*
21,1,0.10315,0.09449,0,0,270.0*
1,1,0.01890,-0.03780,-0.05158*
1,1,0.01890,-0.03780,0.05158*
1,1,0.01890,0.03780,0.05158*
1,1,0.01890,0.03780,-0.05158*
%
%ADD22ROUNDEDRECTD22*%
G04:AMPARAMS|DCode=23|XSize=78.74mil|YSize=66.93mil|CornerRadius=6.69mil|HoleSize=0mil|Usage=FLASHONLY|Rotation=180.000|XOffset=0mil|YOffset=0mil|HoleType=Round|Shape=RoundedRectangle|*
%AMROUNDEDRECTD23*
21,1,0.07874,0.05354,0,0,180.0*
21,1,0.06535,0.06693,0,0,180.0*
1,1,0.01339,-0.03268,0.02677*
1,1,0.01339,0.03268,0.02677*
1,1,0.01339,0.03268,-0.02677*
1,1,0.01339,-0.03268,-0.02677*
%
%ADD23ROUNDEDRECTD23*%
G04:AMPARAMS|DCode=24|XSize=70.87mil|YSize=45.28mil|CornerRadius=4.53mil|HoleSize=0mil|Usage=FLASHONLY|Rotation=180.000|XOffset=0mil|YOffset=0mil|HoleType=Round|Shape=RoundedRectangle|*
%AMROUNDEDRECTD24*
21,1,0.07087,0.03622,0,0,180.0*
21,1,0.06181,0.04528,0,0,180.0*
1,1,0.00906,-0.03091,0.01811*
1,1,0.00906,0.03091,0.01811*
1,1,0.00906,0.03091,-0.01811*
1,1,0.00906,-0.03091,-0.01811*
%
%ADD24ROUNDEDRECTD24*%
G04:AMPARAMS|DCode=25|XSize=86.61mil|YSize=90.55mil|CornerRadius=8.66mil|HoleSize=0mil|Usage=FLASHONLY|Rotation=90.000|XOffset=0mil|YOffset=0mil|HoleType=Round|Shape=RoundedRectangle|*
%AMROUNDEDRECTD25*
21,1,0.08661,0.07323,0,0,90.0*
21,1,0.06929,0.09055,0,0,90.0*
1,1,0.01732,0.03661,0.03465*
1,1,0.01732,0.03661,-0.03465*
1,1,0.01732,-0.03661,-0.03465*
1,1,0.01732,-0.03661,0.03465*
%
%ADD25ROUNDEDRECTD25*%
G04:AMPARAMS|DCode=26|XSize=27.56mil|YSize=36.22mil|CornerRadius=2.76mil|HoleSize=0mil|Usage=FLASHONLY|Rotation=90.000|XOffset=0mil|YOffset=0mil|HoleType=Round|Shape=RoundedRectangle|*
%AMROUNDEDRECTD26*
21,1,0.02756,0.03071,0,0,90.0*
21,1,0.02205,0.03622,0,0,90.0*
1,1,0.00551,0.01535,0.01102*
1,1,0.00551,0.01535,-0.01102*
1,1,0.00551,-0.01535,-0.01102*
1,1,0.00551,-0.01535,0.01102*
%
%ADD26ROUNDEDRECTD26*%
%ADD27O,0.01968X0.03937*%
%ADD43O,0.19685X0.01575*%
%ADD44O,0.01968X0.11811*%
%ADD45O,0.01575X0.28347*%
%ADD46O,1.39370X0.01575*%
%ADD47O,0.03937X0.01968*%
%ADD48O,1.18110X0.01575*%
%ADD49O,0.00787X0.12205*%
%ADD50C,0.02362*%
%ADD51C,0.01575*%
%ADD52C,0.03150*%
%ADD53C,0.01181*%
%ADD54C,0.02362*%
G36*
X47368Y28043D02*
X47211Y27808D01*
X47103Y27264D01*
Y26189D01*
X50984D01*
Y25689D01*
X51484D01*
Y22693D01*
X53445D01*
X53989Y22801D01*
X54487Y22533D01*
Y22480D01*
X54586Y21983D01*
X54658Y21875D01*
X54530Y21789D01*
X54235Y21348D01*
X54223Y21286D01*
X54171Y21223D01*
X53646Y20948D01*
X53445Y20988D01*
X50069D01*
X49685Y21244D01*
X48917Y21397D01*
X21457D01*
X20689Y21244D01*
X20600Y21184D01*
X17126D01*
X16665Y21093D01*
X16274Y20832D01*
X16013Y20441D01*
X15922Y19980D01*
Y19871D01*
X15915Y19864D01*
X15831Y19814D01*
X15677Y19751D01*
X15451Y19692D01*
X15155Y19644D01*
X14938Y19625D01*
X14302D01*
X13980Y19561D01*
X13678Y19862D01*
X13635Y20002D01*
Y22925D01*
X8571D01*
Y18058D01*
X11196D01*
X11403Y17558D01*
X8043Y14198D01*
X7972Y14212D01*
X7204Y14059D01*
X6553Y13624D01*
X6118Y12973D01*
X5965Y12205D01*
X6056Y11747D01*
X5965Y11289D01*
Y10859D01*
X4409D01*
X3764Y10731D01*
X3217Y10365D01*
X2852Y9818D01*
X2724Y9173D01*
Y2244D01*
X2830Y1709D01*
X2725Y1181D01*
X2782Y894D01*
X2407Y394D01*
X1730D01*
X1376Y747D01*
X1379Y28543D01*
X2694D01*
X2936Y28043D01*
X2652Y27618D01*
X2507Y26890D01*
Y23925D01*
X8071D01*
X13635D01*
Y26890D01*
X13490Y27618D01*
X13206Y28043D01*
X13448Y28543D01*
X15572D01*
X15839Y28043D01*
X15813Y28005D01*
X15705Y27461D01*
Y26386D01*
X19587D01*
X23468D01*
Y27461D01*
X23360Y28005D01*
X23334Y28043D01*
X23601Y28543D01*
X47101D01*
X47368Y28043D01*
D02*
G37*
G36*
X121416Y25988D02*
X122937Y23760D01*
X123518Y23674D01*
X123482Y23174D01*
X123335D01*
Y19882D01*
Y16590D01*
X125925D01*
X126492Y16702D01*
X126853Y16944D01*
X126866Y16925D01*
X127347Y16604D01*
X127913Y16491D01*
X130504D01*
Y19783D01*
X131504D01*
Y16491D01*
X134095D01*
X134661Y16604D01*
X134966Y16807D01*
X135417Y16506D01*
X135984Y16393D01*
X138575D01*
Y19685D01*
X139575D01*
Y17465D01*
X142580Y17702D01*
X142502Y17568D01*
X142431Y17413D01*
X142369Y17239D01*
X142315Y17044D01*
X142269Y16830D01*
X142211Y16402D01*
X142287Y16417D01*
X142787Y16007D01*
Y15591D01*
X142897Y15037D01*
X143210Y14569D01*
X143679Y14255D01*
X144232Y14145D01*
X153602D01*
X154155Y14255D01*
X154624Y14569D01*
X154937Y15037D01*
X155048Y15591D01*
Y17725D01*
X155110Y17760D01*
X155610Y17466D01*
X155610Y5910D01*
X155547Y5869D01*
X155048Y6136D01*
Y9606D01*
X154937Y10159D01*
X154624Y10628D01*
X154155Y10941D01*
X153602Y11051D01*
X144232D01*
X143679Y10941D01*
X143586Y10879D01*
X143059Y10973D01*
X142884Y11090D01*
X142877Y11096D01*
X142873Y11097D01*
X142649Y11247D01*
X142165Y11343D01*
X135984D01*
X135712Y11289D01*
X135705Y11289D01*
X135691Y11285D01*
X135500Y11247D01*
X135415Y11190D01*
X135408Y11188D01*
X135249Y11095D01*
X135140Y11046D01*
X135055Y11079D01*
X134869Y11168D01*
X134678Y11282D01*
X134669Y11285D01*
X134578Y11345D01*
X134398Y11381D01*
X134383Y11387D01*
X134373Y11386D01*
X134095Y11442D01*
X127913D01*
X127641Y11388D01*
X127634Y11388D01*
X127620Y11383D01*
X127429Y11345D01*
X127345Y11288D01*
X127338Y11286D01*
X127178Y11193D01*
X127024Y11125D01*
X126886Y11177D01*
X126700Y11266D01*
X126509Y11380D01*
X126499Y11383D01*
X126409Y11444D01*
X126229Y11480D01*
X126214Y11485D01*
X126204Y11485D01*
X125925Y11540D01*
X122273D01*
X122032Y11678D01*
X121581Y11992D01*
X120621Y12805D01*
X119926Y13499D01*
X119793Y13655D01*
X119526Y14004D01*
X119284Y14358D01*
X119069Y14717D01*
X118879Y15083D01*
X118714Y15454D01*
X118575Y15831D01*
X118459Y16216D01*
X118363Y16633D01*
X118357Y16645D01*
X118346Y16702D01*
X118466Y16813D01*
X118553Y16875D01*
X118761Y16980D01*
X119177Y16702D01*
X119744Y16590D01*
X122335D01*
Y19382D01*
X119887D01*
X119307Y18802D01*
X119439Y18984D01*
X119505Y19201D01*
X119504Y19382D01*
X118263D01*
Y18071D01*
X118368Y17544D01*
X118254Y17428D01*
X117957Y17242D01*
X117649Y17448D01*
X117165Y17544D01*
X110984D01*
X110500Y17448D01*
X110090Y17174D01*
X109816Y16763D01*
X109810Y16734D01*
X109610Y16694D01*
X109467Y16598D01*
X107738D01*
X107656Y16603D01*
X107619Y16607D01*
X107577Y16671D01*
X106991Y17063D01*
X106299Y17200D01*
X99606D01*
X98915Y17063D01*
X98329Y16671D01*
X97937Y16085D01*
X97896Y15879D01*
X97396Y15928D01*
Y18051D01*
X97245Y18810D01*
X96816Y19453D01*
X96172Y19883D01*
X95413Y20034D01*
X92694D01*
X92707Y19961D01*
X92776Y19703D01*
X92864Y19486D01*
X92972Y19307D01*
X93100Y19169D01*
X93248Y19070D01*
X93415Y19010D01*
X93602Y18990D01*
X92134D01*
Y12894D01*
Y5753D01*
X95413D01*
X96172Y5904D01*
X96816Y6334D01*
X97245Y6977D01*
X97396Y7736D01*
Y9860D01*
X97896Y9909D01*
X97937Y9702D01*
X98329Y9116D01*
X98915Y8725D01*
X99606Y8587D01*
X106299D01*
X106991Y8725D01*
X107571Y9113D01*
X107855Y9169D01*
X108506Y9604D01*
X110435Y11533D01*
X110500Y11489D01*
X110984Y11393D01*
X114653D01*
X114764Y11371D01*
X114881D01*
X115062Y11268D01*
X115514Y10952D01*
X116480Y10134D01*
X116943Y9671D01*
X117095Y9490D01*
X117356Y9140D01*
X117594Y8777D01*
X117809Y8402D01*
X118000Y8014D01*
X118170Y7613D01*
X118243Y7406D01*
X117998Y6990D01*
X117878Y6912D01*
X115717D01*
X114493Y8135D01*
X114103Y8396D01*
X113642Y8488D01*
X113642Y8488D01*
X108703D01*
X108242Y8396D01*
X107851Y8135D01*
X107851Y8135D01*
X106814Y7098D01*
X106299Y7200D01*
X99606D01*
X98915Y7063D01*
X98329Y6671D01*
X97937Y6085D01*
X97800Y5394D01*
X97907Y4854D01*
X97615Y4354D01*
X86404D01*
X85532Y5226D01*
X85478Y5287D01*
X85453Y5319D01*
X85468Y5394D01*
X85330Y6085D01*
X84939Y6671D01*
X84353Y7063D01*
X83661Y7200D01*
X76358D01*
X75667Y7063D01*
X75242Y6779D01*
X75122Y6801D01*
X74796Y6987D01*
X74753Y7035D01*
Y9238D01*
X75253Y9389D01*
X75538Y8963D01*
X76194Y8525D01*
X76968Y8371D01*
X79815D01*
Y10394D01*
Y12417D01*
X76968D01*
X76194Y12263D01*
X75538Y11824D01*
X75253Y11398D01*
X74753Y11550D01*
Y12224D01*
X74624Y12876D01*
X74255Y13428D01*
X73703Y13797D01*
X73051Y13926D01*
X70284D01*
Y9547D01*
X69784D01*
Y9047D01*
X64814D01*
Y6870D01*
X64862Y6626D01*
X64545Y6239D01*
X60772D01*
X59792Y7219D01*
X59381Y7662D01*
X59080Y8037D01*
X58847Y8371D01*
X58788Y8473D01*
Y12224D01*
X58675Y12793D01*
X58353Y13275D01*
X57872Y13597D01*
X57303Y13710D01*
X50768D01*
X50199Y13597D01*
X49718Y13275D01*
X49395Y12793D01*
X49283Y12224D01*
Y11834D01*
X49282Y11833D01*
X49244Y11798D01*
X49154Y11743D01*
X48999Y11680D01*
X48776Y11620D01*
X48613Y11593D01*
X48445Y11621D01*
X48219Y11680D01*
X48065Y11743D01*
X47980Y11795D01*
X47963Y11811D01*
Y15032D01*
X48463Y15442D01*
X48524Y15430D01*
X64998D01*
X65026Y15291D01*
X65274Y14919D01*
X65645Y14671D01*
X66083Y14584D01*
X68760D01*
X69198Y14671D01*
X69569Y14919D01*
X69673Y15076D01*
X69900Y14924D01*
X70315Y14841D01*
X73386D01*
X73801Y14924D01*
X74152Y15159D01*
X74339Y15439D01*
X74869Y15563D01*
X75177Y15318D01*
X75300Y14702D01*
X75691Y14116D01*
X76277Y13725D01*
X76968Y13587D01*
X83661D01*
X84353Y13725D01*
X84939Y14116D01*
X85330Y14702D01*
X85371Y14909D01*
X85871Y14860D01*
Y13394D01*
X91134D01*
Y18990D01*
X89665D01*
X89852Y19010D01*
X90020Y19070D01*
X90167Y19169D01*
X90295Y19307D01*
X90403Y19486D01*
X90492Y19703D01*
X90561Y19961D01*
X90573Y20034D01*
X87854D01*
X87095Y19883D01*
X86452Y19453D01*
X86022Y18810D01*
X85871Y18051D01*
Y15928D01*
X85371Y15879D01*
X85330Y16085D01*
X84939Y16671D01*
X84353Y17063D01*
X83661Y17200D01*
X76968D01*
X76899Y17186D01*
X76776Y17289D01*
X76293Y17772D01*
X76306Y18319D01*
X76669Y18640D01*
X76689Y18643D01*
X76968Y18587D01*
X83661D01*
X84353Y18725D01*
X84939Y19116D01*
X85330Y19702D01*
X85468Y20394D01*
X85330Y21085D01*
X84939Y21671D01*
X84353Y22063D01*
X83661Y22200D01*
X77168D01*
X77002Y22339D01*
X75556Y23785D01*
X75166Y24046D01*
X74705Y24137D01*
X74451Y24523D01*
X74387Y24844D01*
X74152Y25196D01*
X73801Y25430D01*
X73386Y25513D01*
X70315D01*
X69900Y25430D01*
X69673Y25279D01*
X69569Y25435D01*
X69198Y25683D01*
X68760Y25770D01*
X66083D01*
X65645Y25683D01*
X65254Y26023D01*
X65058Y26318D01*
X64706Y26553D01*
X64291Y26635D01*
X62087D01*
X61672Y26553D01*
X61320Y26318D01*
X61085Y25966D01*
X61003Y25551D01*
Y22480D01*
X61085Y22066D01*
X61228Y21852D01*
X60904Y21636D01*
X60656Y21265D01*
X60569Y20827D01*
Y18150D01*
X60313Y17838D01*
X59786D01*
X59530Y18150D01*
Y18988D01*
X56831D01*
Y19988D01*
X59530D01*
Y20827D01*
X59426Y21348D01*
X59131Y21789D01*
X59085Y21820D01*
X59194Y21983D01*
X59293Y22480D01*
Y23516D01*
X56890D01*
Y24016D01*
X56390D01*
Y25963D01*
X56189Y25907D01*
X55787Y25820D01*
X55531Y24508D01*
X55540Y24620D01*
X55520Y24721D01*
X55472Y24809D01*
X55395Y24886D01*
X55290Y24951D01*
X55157Y25004D01*
X54995Y25045D01*
X54804Y25075D01*
X54691Y25084D01*
X54586Y25075D01*
X54407Y25045D01*
X54252Y25004D01*
X54120Y24951D01*
X54013Y24886D01*
X53929Y24809D01*
X53870Y24721D01*
X53834Y24620D01*
X53822Y24508D01*
Y26870D01*
X53834Y26758D01*
X53870Y26658D01*
X53929Y26569D01*
X54013Y26492D01*
X54120Y26427D01*
X54252Y26374D01*
X54407Y26333D01*
X54586Y26303D01*
X54789Y26285D01*
X55015Y26280D01*
Y26275D01*
X55064Y26275D01*
X56390Y26179D01*
Y26852D01*
X55787D01*
X55366Y26768D01*
X55130Y26873D01*
X54866Y27071D01*
Y27264D01*
X54758Y27808D01*
X54600Y28043D01*
X54868Y28543D01*
X109247Y28543D01*
X109572Y28043D01*
X109543Y27898D01*
X109272Y27442D01*
X108669D01*
Y24606D01*
X107669D01*
Y25540D01*
X107221Y25153D01*
X106244Y26073D01*
X107669Y26652D01*
Y27442D01*
X107067D01*
X106569Y27343D01*
X106147Y27061D01*
X105865Y26639D01*
X105766Y26142D01*
Y24346D01*
X105304Y24155D01*
X105143Y24316D01*
X104752Y24577D01*
X104291Y24669D01*
X104056Y25067D01*
Y26142D01*
X103974Y26557D01*
X103739Y26908D01*
X103387Y27143D01*
X102972Y27226D01*
X100768D01*
X100353Y27143D01*
X100001Y26908D01*
X99766Y26557D01*
X99684Y26142D01*
Y23071D01*
X99758Y22700D01*
X99743Y22589D01*
X99735Y22567D01*
X99486Y22176D01*
X98915Y22063D01*
X98329Y21671D01*
X97937Y21085D01*
X97800Y20394D01*
X97937Y19702D01*
X98329Y19116D01*
X98915Y18725D01*
X99606Y18587D01*
X106299D01*
X106991Y18725D01*
X107577Y19116D01*
X107968Y19702D01*
X108106Y20394D01*
X107968Y21085D01*
X107844Y21270D01*
X108112Y21770D01*
X109272D01*
X109769Y21869D01*
X110191Y22151D01*
X110473Y22573D01*
X110497Y22691D01*
X110984Y22594D01*
X113575D01*
Y25886D01*
X114075D01*
Y26386D01*
X116912D01*
X117603Y27163D01*
X117479Y26971D01*
X117420Y26748D01*
X117427Y26493D01*
X117453Y26386D01*
X118647D01*
Y27697D01*
X118578Y28043D01*
X118903Y28543D01*
X120399D01*
X121416Y25988D01*
D02*
G37*
G36*
X65766Y22766D02*
X65758Y22840D01*
X65734Y22907D01*
X65694Y22966D01*
X65638Y23018D01*
X65566Y23061D01*
X65478Y23096D01*
X65374Y23124D01*
X65254Y23144D01*
X65157Y23152D01*
X65060Y23144D01*
X64940Y23124D01*
X64836Y23096D01*
X64748Y23061D01*
X64676Y23018D01*
X64620Y22966D01*
X64580Y22907D01*
X64556Y22840D01*
X64548Y22766D01*
Y24340D01*
X64556Y24266D01*
X64580Y24199D01*
X64620Y24140D01*
X64676Y24089D01*
X64748Y24045D01*
X64836Y24010D01*
X64940Y23982D01*
X65060Y23963D01*
X65157Y23954D01*
X65254Y23963D01*
X65374Y23982D01*
X65478Y24010D01*
X65566Y24045D01*
X65638Y24089D01*
X65694Y24140D01*
X65734Y24199D01*
X65758Y24266D01*
X65766Y24340D01*
Y22766D01*
D02*
G37*
G36*
X70074Y22148D02*
X70065Y22222D01*
X70040Y22289D01*
X69999Y22348D01*
X69941Y22399D01*
X69868Y22442D01*
X69779Y22477D01*
X69673Y22504D01*
X69570Y22521D01*
X69468Y22504D01*
X69365Y22476D01*
X69277Y22441D01*
X69205Y22398D01*
X69149Y22346D01*
X69109Y22287D01*
X69085Y22220D01*
X69077Y22146D01*
Y23720D01*
X69085Y23646D01*
X69109Y23579D01*
X69149Y23520D01*
X69205Y23469D01*
X69277Y23425D01*
X69365Y23390D01*
X69468Y23362D01*
X69568Y23346D01*
X69668Y23362D01*
X69772Y23390D01*
X69860Y23425D01*
X69932Y23469D01*
X69988Y23520D01*
X70028Y23579D01*
X70051Y23646D01*
X70058Y23720D01*
X70074Y22148D01*
D02*
G37*
G36*
X143557Y25884D02*
X143601Y25750D01*
X143678Y25632D01*
X143787Y25530D01*
X143930Y25443D01*
X144105Y25372D01*
X144313Y25317D01*
X144339Y25313D01*
X144410Y25325D01*
X144586Y25370D01*
X144741Y25424D01*
X144877Y25489D01*
X144992Y25563D01*
X145088Y25647D01*
X145164Y25741D01*
X145132Y24363D01*
Y23671D01*
X145116Y23671D01*
X145098Y22884D01*
X145085Y23033D01*
X145040Y23167D01*
X144963Y23285D01*
X144852Y23388D01*
X144710Y23474D01*
X144535Y23545D01*
X144328Y23600D01*
X144211Y23620D01*
X144172Y23617D01*
X143993Y23586D01*
X143838Y23549D01*
X143707Y23504D01*
X143601Y23453D01*
X143519Y23395D01*
X143461Y23330D01*
X143511Y24927D01*
Y25246D01*
X143521Y25246D01*
X143545Y26033D01*
X143557Y25884D01*
D02*
G37*
G36*
X103234Y24177D02*
X103255Y24110D01*
X103293Y24051D01*
X103348Y24000D01*
X103419Y23957D01*
X103508Y23921D01*
X103613Y23894D01*
X103735Y23874D01*
X103873Y23862D01*
X104029Y23858D01*
Y23071D01*
X103887Y23069D01*
X103535Y23041D01*
X103443Y23023D01*
X103362Y23002D01*
X103294Y22978D01*
X103238Y22949D01*
X103194Y22917D01*
X103163Y22881D01*
X103229Y24252D01*
X103234Y24177D01*
D02*
G37*
G36*
X57453Y22236D02*
X58039Y22233D01*
X57927Y22222D01*
X57827Y22186D01*
X57739Y22126D01*
X57662Y22042D01*
X57598Y21934D01*
X57545Y21802D01*
X57515Y21687D01*
X57545Y21573D01*
X57598Y21442D01*
X57663Y21335D01*
X57740Y21251D01*
X57829Y21192D01*
X57929Y21156D01*
X58041Y21144D01*
X57454D01*
X57451Y21031D01*
X56270D01*
X56267Y21144D01*
X55679D01*
X55791Y21156D01*
X55892Y21192D01*
X55980Y21251D01*
X56057Y21335D01*
X56122Y21442D01*
X56175Y21573D01*
X56206Y21690D01*
X56176Y21807D01*
X56124Y21940D01*
X56059Y22050D01*
X55984Y22135D01*
X55896Y22196D01*
X55797Y22233D01*
X55686Y22246D01*
X56267Y22242D01*
X56270Y22337D01*
X57451D01*
X57453Y22236D01*
D02*
G37*
G36*
X73650Y23646D02*
X73673Y23579D01*
X73713Y23520D01*
X73769Y23469D01*
X73840Y23425D01*
X73928Y23390D01*
X74033Y23362D01*
X74153Y23343D01*
X74289Y23331D01*
X74442Y23327D01*
Y22539D01*
X74288Y22535D01*
X74150Y22524D01*
X74028Y22504D01*
X73922Y22477D01*
X73833Y22442D01*
X73759Y22399D01*
X73702Y22348D01*
X73661Y22289D01*
X73636Y22222D01*
X73627Y22148D01*
X73643Y23720D01*
X73650Y23646D01*
D02*
G37*
G36*
X155610Y21996D02*
X155198Y21741D01*
X154872Y22127D01*
X154942Y22480D01*
Y25551D01*
X154860Y25966D01*
X154625Y26318D01*
X154273Y26553D01*
X153858Y26635D01*
X151654D01*
X151239Y26553D01*
X150887Y26318D01*
X150652Y25966D01*
X150570Y25551D01*
Y22480D01*
X150574Y22461D01*
X150256Y22075D01*
X148956D01*
X148639Y22461D01*
X148643Y22480D01*
Y25551D01*
X148560Y25966D01*
X148325Y26318D01*
X147974Y26553D01*
X147559Y26635D01*
X145354D01*
X144940Y26553D01*
X144834Y26482D01*
X144633Y26515D01*
X144285Y26678D01*
X144037Y27049D01*
X143666Y27297D01*
X143228Y27384D01*
X140551D01*
X140113Y27297D01*
X139742Y27049D01*
X139494Y26678D01*
X139407Y26240D01*
Y23563D01*
X139075Y23168D01*
X138698Y23164D01*
X138369Y23563D01*
X138369Y23563D01*
Y24402D01*
X135669D01*
Y24902D01*
X135169D01*
Y26557D01*
X134542D01*
X134543Y26565D01*
X134544Y26589D01*
X134547Y27362D01*
X135169D01*
Y27601D01*
X134331D01*
X134095Y27554D01*
X133621Y27921D01*
X133617Y27930D01*
Y28543D01*
X155610D01*
Y21996D01*
D02*
G37*
G36*
X106202Y21837D02*
X106216Y21649D01*
X106228Y21572D01*
X106243Y21508D01*
X106261Y21454D01*
X106283Y21413D01*
X106308Y21383D01*
X106337Y21365D01*
X106369Y21359D01*
X105243Y21373D01*
X105276Y21378D01*
X105305Y21395D01*
X105330Y21424D01*
X105352Y21464D01*
X105371Y21516D01*
X105386Y21579D01*
X105398Y21654D01*
X105407Y21741D01*
X105413Y21949D01*
X106201D01*
X106202Y21837D01*
D02*
G37*
G36*
X153976Y22698D02*
X153978Y22484D01*
X153981Y22375D01*
X153981Y22370D01*
X154107Y22377D01*
X154082Y22325D01*
X154060Y22247D01*
X154040Y22142D01*
X154023Y22010D01*
X154016Y21892D01*
X154047Y21692D01*
X154102Y21478D01*
X154173Y21299D01*
X154259Y21154D01*
X154361Y21045D01*
X154479Y20971D01*
X154612Y20932D01*
X154761Y20929D01*
X154181Y20878D01*
X154184Y20871D01*
X154154Y20875D01*
X153979Y20860D01*
X153976Y20667D01*
X152402Y20637D01*
X152399Y20722D01*
X151937Y20681D01*
X152025Y20755D01*
X152104Y20853D01*
X152174Y20975D01*
X152234Y21121D01*
X152245Y21156D01*
X151614Y21248D01*
X151764Y21243D01*
X151898Y21274D01*
X152016Y21342D01*
X152118Y21446D01*
X152205Y21587D01*
X152259Y21722D01*
X152205Y21856D01*
X152119Y21998D01*
X152017Y22107D01*
X151899Y22182D01*
X151766Y22223D01*
X151617Y22231D01*
X152374Y22276D01*
X152394Y22512D01*
X152402Y22835D01*
X153976Y22698D01*
D02*
G37*
G36*
X76426Y21774D02*
X76693Y21550D01*
X76815Y21467D01*
X76928Y21403D01*
X77032Y21359D01*
X77128Y21333D01*
X77216Y21327D01*
X77295Y21340D01*
X77366Y21373D01*
X76014Y20519D01*
X76071Y20567D01*
X76105Y20626D01*
X76118Y20695D01*
X76109Y20775D01*
X76078Y20866D01*
X76026Y20968D01*
X75951Y21080D01*
X75855Y21204D01*
X75738Y21338D01*
X75598Y21483D01*
X76279Y21915D01*
X76426Y21774D01*
D02*
G37*
G36*
X64715Y20634D02*
X64739Y20567D01*
X64779Y20508D01*
X64835Y20457D01*
X64907Y20413D01*
X64995Y20378D01*
X65098Y20350D01*
X65218Y20331D01*
X65354Y20319D01*
X65506Y20315D01*
Y19527D01*
X65354Y19524D01*
X65218Y19512D01*
X65098Y19492D01*
X64995Y19465D01*
X64907Y19429D01*
X64835Y19386D01*
X64779Y19335D01*
X64739Y19276D01*
X64715Y19209D01*
X64707Y19134D01*
Y20709D01*
X64715Y20634D01*
D02*
G37*
G36*
X70058Y16240D02*
X70050Y16315D01*
X70026Y16382D01*
X69986Y16441D01*
X69930Y16492D01*
X69858Y16535D01*
X69770Y16571D01*
X69666Y16598D01*
X69568Y16615D01*
X69468Y16598D01*
X69365Y16571D01*
X69277Y16535D01*
X69205Y16492D01*
X69149Y16441D01*
X69109Y16382D01*
X69085Y16315D01*
X69077Y16240D01*
Y17815D01*
X69085Y17740D01*
X69109Y17673D01*
X69149Y17614D01*
X69205Y17563D01*
X69277Y17520D01*
X69365Y17484D01*
X69468Y17457D01*
X69568Y17440D01*
X69666Y17457D01*
X69770Y17484D01*
X69858Y17520D01*
X69930Y17563D01*
X69986Y17614D01*
X70026Y17673D01*
X70050Y17740D01*
X70058Y17815D01*
Y16240D01*
D02*
G37*
G36*
X46382Y20567D02*
X48044Y20464D01*
X48266Y20417D01*
X48409Y20361D01*
X48476Y20297D01*
X48464Y20224D01*
X48375Y20143D01*
X48146Y17028D01*
X48138Y17252D01*
X48079Y17453D01*
X47969Y17630D01*
X47808Y17784D01*
X47596Y17913D01*
X47333Y18020D01*
X47019Y18102D01*
X46655Y18161D01*
X46239Y18197D01*
X45772Y18209D01*
Y20571D01*
X46382Y20567D01*
D02*
G37*
G36*
X24799Y18209D02*
X24333Y18197D01*
X23918Y18161D01*
X23554Y18102D01*
X23240Y18020D01*
X22977Y17913D01*
X22765Y17784D01*
X22604Y17630D01*
X22493Y17453D01*
X22433Y17252D01*
X22424Y17028D01*
X22196Y20340D01*
X22160Y20384D01*
X22190Y20423D01*
X22285Y20458D01*
X22447Y20488D01*
X22674Y20513D01*
X23326Y20550D01*
X24799Y20571D01*
Y18209D01*
D02*
G37*
G36*
X32087D02*
X31638Y18185D01*
X31236Y18114D01*
X30882Y17996D01*
X30575Y17831D01*
X30315Y17618D01*
X30177Y17450D01*
X30245Y17340D01*
X30404Y17141D01*
X30585Y16964D01*
X30786Y16810D01*
X29870Y16851D01*
X29819Y16697D01*
X29748Y16295D01*
X29724Y15846D01*
X27362D01*
X27339Y16295D01*
X27268Y16697D01*
X27176Y16973D01*
X26184Y17018D01*
X26408Y17032D01*
X26608Y17096D01*
X26785Y17209D01*
X26938Y17372D01*
X26953Y17397D01*
X26772Y17618D01*
X26512Y17831D01*
X26205Y17996D01*
X25850Y18114D01*
X25449Y18185D01*
X25000Y18209D01*
X28543Y20571D01*
X32087Y18209D01*
D02*
G37*
G36*
X16977Y16471D02*
X16960Y16465D01*
X16889Y16459D01*
X16352Y16445D01*
X14375Y16437D01*
Y18799D01*
X14840Y18811D01*
X15254Y18846D01*
X15618Y18905D01*
X15931Y18988D01*
X16194Y19094D01*
X16406Y19224D01*
X16567Y19377D01*
X16678Y19554D01*
X16739Y19754D01*
X16749Y19978D01*
X16977Y16471D01*
D02*
G37*
G36*
X52183Y18193D02*
X52221Y18024D01*
X52267Y17861D01*
X52323Y17706D01*
X52387Y17557D01*
X52459Y17414D01*
X52541Y17279D01*
X52631Y17150D01*
X52730Y17028D01*
X52837Y16912D01*
X52281Y16355D01*
X52165Y16463D01*
X52043Y16562D01*
X51914Y16652D01*
X51779Y16734D01*
X51636Y16806D01*
X51487Y16870D01*
X51332Y16925D01*
X51169Y16972D01*
X51000Y17009D01*
X50824Y17039D01*
X52154Y18369D01*
X52183Y18193D01*
D02*
G37*
G36*
X53816Y17346D02*
X53829Y17279D01*
X53861Y17221D01*
X53912Y17169D01*
X53983Y17126D01*
X54072Y17090D01*
X54181Y17063D01*
X54309Y17043D01*
X54456Y17031D01*
X54621Y17028D01*
Y16240D01*
X53594Y16274D01*
X53822Y17421D01*
X53816Y17346D01*
D02*
G37*
G36*
X65766Y15846D02*
X65758Y15921D01*
X65734Y15988D01*
X65694Y16047D01*
X65638Y16098D01*
X65566Y16142D01*
X65478Y16177D01*
X65374Y16205D01*
X65254Y16224D01*
X65118Y16236D01*
X64966Y16240D01*
Y17028D01*
X65118Y17031D01*
X65254Y17043D01*
X65374Y17063D01*
X65478Y17090D01*
X65566Y17126D01*
X65638Y17169D01*
X65694Y17221D01*
X65734Y17279D01*
X65758Y17346D01*
X65766Y17421D01*
Y15846D01*
D02*
G37*
G36*
X76199Y16725D02*
X76469Y16499D01*
X76588Y16418D01*
X76698Y16357D01*
X76797Y16318D01*
X76886Y16300D01*
X76964Y16303D01*
X77033Y16328D01*
X77091Y16373D01*
X76019Y15243D01*
X76062Y15304D01*
X76083Y15375D01*
X76083Y15457D01*
X76062Y15548D01*
X76020Y15650D01*
X75956Y15762D01*
X75872Y15884D01*
X75767Y16017D01*
X75640Y16160D01*
X75493Y16313D01*
X76049Y16870D01*
X76199Y16725D01*
D02*
G37*
G36*
X106875Y16098D02*
X106909Y16033D01*
X106966Y15975D01*
X107045Y15925D01*
X107146Y15883D01*
X107271Y15849D01*
X107417Y15822D01*
X107587Y15803D01*
X107778Y15791D01*
X107993Y15787D01*
Y15000D01*
X107778Y14996D01*
X107417Y14965D01*
X107271Y14939D01*
X107146Y14904D01*
X107045Y14862D01*
X106966Y14812D01*
X106909Y14754D01*
X106875Y14689D01*
X106864Y14616D01*
Y16171D01*
X106875Y16098D01*
D02*
G37*
G36*
X110547Y14606D02*
X110539Y14681D01*
X110515Y14748D01*
X110475Y14807D01*
X110419Y14858D01*
X110347Y14902D01*
X110259Y14937D01*
X110155Y14965D01*
X110035Y14984D01*
X109899Y14996D01*
X109748Y15000D01*
Y15787D01*
X109899Y15791D01*
X110035Y15803D01*
X110155Y15823D01*
X110259Y15850D01*
X110347Y15886D01*
X110419Y15929D01*
X110475Y15980D01*
X110515Y16039D01*
X110539Y16106D01*
X110547Y16181D01*
Y14606D01*
D02*
G37*
G36*
X50109Y7185D02*
X50086Y7409D01*
X50015Y7610D01*
X49896Y7787D01*
X49730Y7941D01*
X49516Y8071D01*
X49255Y8177D01*
X48946Y8260D01*
X48656Y8308D01*
X48464Y8279D01*
X48167Y8212D01*
X47896Y8125D01*
X47651Y8019D01*
X47431Y7894D01*
X47238Y7749D01*
X47070Y7586D01*
X46928Y7402D01*
X47136Y11909D01*
X47150Y11685D01*
X47214Y11484D01*
X47327Y11307D01*
X47490Y11153D01*
X47702Y11024D01*
X47965Y10917D01*
X48277Y10835D01*
X48614Y10780D01*
X48946Y10835D01*
X49255Y10917D01*
X49516Y11024D01*
X49730Y11153D01*
X49896Y11307D01*
X50015Y11484D01*
X50086Y11685D01*
X50109Y11909D01*
Y7185D01*
D02*
G37*
G36*
X11337Y12982D02*
X10803Y12432D01*
X9932Y11428D01*
X9595Y10975D01*
X9324Y10555D01*
X9202Y10326D01*
X9217Y10032D01*
X9065D01*
X8978Y9811D01*
X8903Y9488D01*
X8895Y9198D01*
X8952Y8939D01*
X8546Y10032D01*
X6728D01*
X6740Y10045D01*
X6751Y10082D01*
X6760Y10145D01*
X6769Y10233D01*
X6789Y10836D01*
X6791Y11289D01*
X8079D01*
X7593Y12598D01*
X7614Y12616D01*
X7668Y12667D01*
X9287Y14273D01*
X11337Y12982D01*
D02*
G37*
G36*
X73703Y12173D02*
X73765Y12006D01*
X73866Y11859D01*
X74007Y11731D01*
X74187Y11623D01*
X74408Y11535D01*
X74669Y11466D01*
X74969Y11417D01*
X75310Y11388D01*
X75690Y11378D01*
Y9409D01*
X75312Y9400D01*
X74975Y9370D01*
X74677Y9321D01*
X74419Y9252D01*
X74201Y9163D01*
X74023Y9055D01*
X73885Y8927D01*
X73786Y8779D01*
X73728Y8612D01*
X73709Y8425D01*
X73682Y12360D01*
X73703Y12173D01*
D02*
G37*
G36*
X117683Y16010D02*
X117813Y15576D01*
X117970Y15151D01*
X118155Y14734D01*
X118368Y14326D01*
X118607Y13925D01*
X118875Y13533D01*
X119170Y13149D01*
X119492Y12773D01*
X119621Y12637D01*
X119937Y12332D01*
X121091Y11355D01*
X121602Y10999D01*
X122070Y10731D01*
X122493Y10551D01*
X122873Y10459D01*
X123209Y10456D01*
X123501Y10540D01*
X123749Y10713D01*
X119329Y6482D01*
X119218Y6969D01*
X119081Y7443D01*
X118919Y7903D01*
X118731Y8348D01*
X118517Y8780D01*
X118279Y9197D01*
X118014Y9600D01*
X117724Y9989D01*
X117409Y10364D01*
X117344Y10433D01*
X117165Y10606D01*
X116005Y11589D01*
X115492Y11946D01*
X115024Y12215D01*
X114601Y12394D01*
X114223Y12484D01*
X113890Y12485D01*
X113601Y12397D01*
X113357Y12220D01*
X117580Y16452D01*
X117683Y16010D01*
D02*
G37*
G36*
X126320Y10558D02*
X126570Y10439D01*
X126846Y10334D01*
X127027Y10279D01*
X127054Y10285D01*
X127316Y10376D01*
X127545Y10478D01*
X127741Y10592D01*
Y10119D01*
X127834Y10102D01*
X128626Y10018D01*
X129062Y9997D01*
X129524Y9990D01*
Y6841D01*
X129035Y6835D01*
X127763Y6744D01*
X127741Y6741D01*
Y6140D01*
X127518Y6273D01*
X127269Y6392D01*
X126993Y6497D01*
X126811Y6552D01*
X126784Y6545D01*
X126523Y6455D01*
X126294Y6353D01*
X126097Y6238D01*
Y6712D01*
X126004Y6729D01*
X125213Y6813D01*
X124777Y6833D01*
X124314Y6841D01*
Y9990D01*
X124803Y9996D01*
X126075Y10086D01*
X126097Y10090D01*
Y10691D01*
X126320Y10558D01*
D02*
G37*
G36*
X134490Y10459D02*
X134739Y10340D01*
X135015Y10235D01*
X135149Y10195D01*
X135387Y10277D01*
X135616Y10379D01*
X135812Y10494D01*
Y10038D01*
X136003Y10004D01*
X136795Y9920D01*
X137231Y9899D01*
X137694Y9892D01*
Y6742D01*
X137205Y6736D01*
X135933Y6646D01*
X135812Y6628D01*
Y6041D01*
X135589Y6175D01*
X135340Y6294D01*
X135063Y6399D01*
X134930Y6439D01*
X134692Y6357D01*
X134463Y6254D01*
X134266Y6140D01*
Y6596D01*
X134075Y6630D01*
X133283Y6714D01*
X132848Y6735D01*
X132385Y6742D01*
Y9892D01*
X132874Y9898D01*
X134146Y9988D01*
X134266Y10006D01*
Y10592D01*
X134490Y10459D01*
D02*
G37*
G36*
X81087Y6033D02*
X81195Y5981D01*
X81334Y5936D01*
X81504Y5896D01*
X81706Y5863D01*
X82204Y5815D01*
X82827Y5790D01*
X83185Y5787D01*
Y5000D01*
X82827Y4997D01*
X81706Y4924D01*
X81504Y4891D01*
X81334Y4852D01*
X81195Y4806D01*
X81087Y4755D01*
X81011Y4697D01*
Y6090D01*
X81087Y6033D01*
D02*
G37*
G36*
X142654Y10179D02*
X142859Y9984D01*
X143100Y9813D01*
X143337Y9685D01*
X143482Y9764D01*
X143657Y9900D01*
X143787Y10052D01*
X143771Y9513D01*
X144031Y9435D01*
X144412Y9355D01*
X144828Y9298D01*
X145279Y9263D01*
X145764Y9252D01*
X145578Y6102D01*
X143668Y6067D01*
X143622Y4530D01*
X143599Y4829D01*
X143510Y5096D01*
X143356Y5332D01*
X143137Y5536D01*
X142853Y5709D01*
X142503Y5851D01*
X142089Y5961D01*
X141609Y6039D01*
X141063Y6087D01*
X140453Y6102D01*
Y9252D01*
X140990Y9260D01*
X141929Y9324D01*
X142330Y9380D01*
X142450Y9404D01*
X142483Y10396D01*
X142654Y10179D01*
D02*
G37*
G36*
X57829Y9358D02*
X57763Y9142D01*
X57765Y8892D01*
X57832Y8608D01*
X57967Y8291D01*
X58169Y7940D01*
X58437Y7555D01*
X58773Y7137D01*
X59644Y6200D01*
X57973Y4530D01*
X57488Y4998D01*
X56618Y5736D01*
X56233Y6004D01*
X55882Y6206D01*
X55565Y6341D01*
X55282Y6409D01*
X55032Y6410D01*
X54815Y6344D01*
X54633Y6212D01*
X57961Y9541D01*
X57829Y9358D01*
D02*
G37*
G36*
X84568Y5483D02*
X84547Y5412D01*
X84547Y5331D01*
X84568Y5239D01*
X84610Y5137D01*
X84674Y5025D01*
X84758Y4903D01*
X84863Y4770D01*
X84990Y4628D01*
X85137Y4474D01*
X84581Y3918D01*
X84430Y4062D01*
X84161Y4289D01*
X84041Y4370D01*
X83932Y4430D01*
X83833Y4469D01*
X83744Y4487D01*
X83666Y4484D01*
X83597Y4460D01*
X83539Y4414D01*
X84611Y5544D01*
X84568Y5483D01*
D02*
G37*
%LPC*%
G36*
X23468Y25386D02*
X20087D01*
Y22890D01*
X22047D01*
X22591Y22998D01*
X23052Y23306D01*
X23360Y23767D01*
X23468Y24311D01*
Y25386D01*
D02*
G37*
G36*
X19087D02*
X15705D01*
Y24311D01*
X15813Y23767D01*
X16121Y23306D01*
X16582Y22998D01*
X17126Y22890D01*
X19087D01*
Y25386D01*
D02*
G37*
G36*
X50484Y25189D02*
X47103D01*
Y24114D01*
X47211Y23571D01*
X47519Y23110D01*
X47980Y22801D01*
X48524Y22693D01*
X50484D01*
Y25189D01*
D02*
G37*
G36*
X7571Y22925D02*
X2507D01*
Y19961D01*
X2652Y19232D01*
X3064Y18615D01*
X3681Y18203D01*
X4409Y18058D01*
X7571D01*
Y22925D01*
D02*
G37*
G36*
X57992Y26852D02*
X57390D01*
Y24516D01*
X59293D01*
Y25551D01*
X59194Y26049D01*
X58912Y26471D01*
X58490Y26753D01*
X57992Y26852D01*
D02*
G37*
G36*
X118647Y25386D02*
X117940D01*
X118099Y25157D01*
X118430Y24744D01*
X118647Y24510D01*
Y25386D01*
D02*
G37*
G36*
X116024D02*
X114575D01*
Y23754D01*
X116024Y25386D01*
D02*
G37*
G36*
X115099Y23855D02*
X114854Y23851D01*
X114645Y23779D01*
X114575Y23722D01*
Y22594D01*
X117128D01*
X116436Y23182D01*
X116048Y23453D01*
X115696Y23656D01*
X115380Y23790D01*
X115099Y23855D01*
D02*
G37*
G36*
X122335Y23174D02*
X119980D01*
X120650Y22606D01*
X121035Y22338D01*
X121386Y22136D01*
X121703Y22002D01*
X121986Y21934D01*
X122236Y21932D01*
X122335Y21962D01*
Y23174D01*
D02*
G37*
G36*
Y21830D02*
X120887Y20382D01*
X122335D01*
Y21830D01*
D02*
G37*
G36*
X118263Y21455D02*
Y20382D01*
X119111D01*
X119099Y20402D01*
X118831Y20787D01*
X118495Y21205D01*
X118263Y21455D01*
D02*
G37*
G36*
X139575Y17377D02*
Y16393D01*
X140125D01*
X140108Y16499D01*
X140039Y16761D01*
X139951Y16980D01*
X139842Y17157D01*
X139715Y17291D01*
X139575Y17377D01*
D02*
G37*
G36*
X69283Y13926D02*
X66516D01*
X65864Y13797D01*
X65312Y13428D01*
X64943Y12876D01*
X64814Y12224D01*
Y10047D01*
X69283D01*
Y13926D01*
D02*
G37*
G36*
X83661Y12417D02*
X80815D01*
Y10394D01*
Y8371D01*
X83661D01*
X84436Y8525D01*
X85092Y8963D01*
X85371Y9381D01*
X85871Y9230D01*
Y7736D01*
X86022Y6977D01*
X86452Y6334D01*
X87095Y5904D01*
X87854Y5753D01*
X91134D01*
Y12394D01*
X85871D01*
Y11558D01*
X85371Y11406D01*
X85092Y11824D01*
X84436Y12263D01*
X83661Y12417D01*
D02*
G37*
%LPD*%
G36*
X86915Y8425D02*
X86895Y8612D01*
X86836Y8779D01*
X86737Y8927D01*
X86598Y9055D01*
X86420Y9163D01*
X86202Y9252D01*
X85945Y9321D01*
X85648Y9370D01*
X85311Y9400D01*
X84935Y9409D01*
Y11378D01*
X85311Y11388D01*
X85648Y11417D01*
X85945Y11467D01*
X86202Y11535D01*
X86420Y11624D01*
X86598Y11732D01*
X86737Y11860D01*
X86836Y12008D01*
X86895Y12175D01*
X86915Y12362D01*
Y8425D01*
D02*
G37*
%LPC*%
G36*
X137008Y27601D02*
X136169D01*
Y25402D01*
X138369D01*
Y26240D01*
X138265Y26761D01*
X137970Y27202D01*
X137529Y27497D01*
X137008Y27601D01*
D02*
G37*
%LPD*%
D11*
X113642Y7283D02*
X115217Y5709D01*
X106619Y5394D02*
X107073Y5848D01*
X115217Y5709D02*
X115610D01*
X107073Y5848D02*
X107267D01*
X115610Y5709D02*
X116496Y4823D01*
X108703Y7283D02*
X113642D01*
X107267Y5848D02*
X108703Y7283D01*
X116496Y4429D02*
Y4823D01*
X102953Y5394D02*
X106619D01*
X111024Y15394D02*
X113150D01*
X102953D02*
X111024D01*
X101870Y24449D02*
Y24606D01*
Y24449D02*
X102854Y23465D01*
X104291D01*
X105807Y21949D01*
X102953Y20394D02*
X105262D01*
X105807Y20939D01*
Y21949D01*
X63051Y19488D02*
X63484Y19921D01*
X73655D01*
X75000Y18576D01*
X76968Y15394D02*
X80315D01*
X75000Y17362D02*
X76968Y15394D01*
X75000Y17362D02*
Y18576D01*
X67776Y22933D02*
X74705D01*
X67155Y23553D02*
X67421Y23287D01*
X63652Y23553D02*
X67155D01*
X63189Y24016D02*
X63652Y23553D01*
X67421Y23287D02*
X67776Y22933D01*
X77244Y20394D02*
X80315D01*
X74705Y22933D02*
X77244Y20394D01*
X67421Y17067D02*
X67461Y17028D01*
X71850D01*
X66988Y16634D02*
X67421Y17067D01*
X52559Y16634D02*
X66988D01*
X50984Y18209D02*
X52559Y16634D01*
X80315Y5394D02*
X83661D01*
X85905Y3150D01*
X113150Y15394D02*
X114075Y14469D01*
X108996Y3150D02*
X110276Y4429D01*
X85905Y3150D02*
X108996D01*
D14*
X139075Y19685D02*
X139902D01*
X141181Y18406D01*
Y14823D02*
Y18406D01*
Y14823D02*
X143504Y12500D01*
X153622D01*
X91634Y12894D02*
Y26969D01*
X80315Y10394D02*
X89134D01*
X91634Y12894D01*
X70630Y10394D02*
X80315D01*
X69784Y9547D02*
X70630Y10394D01*
X75197Y4232D02*
X76358Y5394D01*
X80315D01*
D15*
X19587Y18406D02*
D03*
Y25886D02*
D03*
X50984Y18209D02*
D03*
Y25689D02*
D03*
D16*
X148917Y18110D02*
D03*
Y7087D02*
D03*
D17*
X27264Y12106D02*
D03*
X43406D02*
D03*
D18*
X152756Y24016D02*
D03*
X146457D02*
D03*
X101870Y24606D02*
D03*
X108169D02*
D03*
X63189Y24016D02*
D03*
X56890D02*
D03*
D19*
X141890Y24902D02*
D03*
X135669D02*
D03*
X56831Y19488D02*
D03*
X63051D02*
D03*
X110669Y4429D02*
D03*
X116890D02*
D03*
D20*
X67421Y23287D02*
D03*
Y17067D02*
D03*
D21*
X80315Y20394D02*
D03*
Y15394D02*
D03*
Y10394D02*
D03*
Y5394D02*
D03*
X102953Y20394D02*
D03*
Y15394D02*
D03*
Y10394D02*
D03*
Y5394D02*
D03*
D22*
X91634Y12894D02*
D03*
D23*
X69784Y9547D02*
D03*
X54035D02*
D03*
D24*
X131004Y19783D02*
D03*
Y8366D02*
D03*
X114075Y25886D02*
D03*
Y14469D02*
D03*
X122835Y8465D02*
D03*
Y19882D02*
D03*
X139075Y8268D02*
D03*
Y19685D02*
D03*
D25*
X8071Y23425D02*
D03*
Y5709D02*
D03*
D26*
X71850Y23327D02*
D03*
Y17028D02*
D03*
D27*
X8071Y25886D02*
D03*
D43*
X143750Y28248D02*
D03*
D44*
X7972Y6761D02*
D03*
D45*
X1280Y14643D02*
D03*
D46*
X73228Y1181D02*
D03*
D47*
X153622Y19980D02*
D03*
X153622Y12500D02*
D03*
D48*
X59842Y28051D02*
D03*
D49*
X155492Y11319D02*
D03*
D50*
X135433Y19685D02*
X139075D01*
X123031D02*
X135433D01*
X28543Y19390D02*
X48917D01*
X7972Y5807D02*
Y11289D01*
X8169Y11486D02*
X14302Y17618D01*
X48917Y19390D02*
X50098Y18209D01*
X107087Y11024D02*
X110531Y14469D01*
X121555Y19882D02*
X122835D01*
X116634Y24803D02*
X121555Y19882D01*
X115157Y24803D02*
X116634D01*
X114075Y25886D02*
X115157Y24803D01*
X122835Y19882D02*
X123031Y19685D01*
X18799Y17618D02*
X19587Y18406D01*
X14302Y17618D02*
X18799D01*
X21457Y19390D02*
X28543D01*
X20472Y18406D02*
X21457Y19390D01*
X19587Y18406D02*
X20472D01*
X28543Y13780D02*
Y19390D01*
X27264Y12500D02*
X28543Y13780D01*
X45965Y9547D02*
X54626D01*
X43406Y12106D02*
X45965Y9547D01*
X43406Y12106D02*
Y12500D01*
X50098Y18209D02*
X50984D01*
X7972Y5807D02*
X8071Y5709D01*
X54626Y9547D02*
X59941Y4232D01*
X75197D01*
D51*
X135669Y19921D02*
Y24902D01*
X135433Y19685D02*
X135669Y19921D01*
X146014Y24459D02*
X146457Y24016D01*
X142333Y24459D02*
X146014D01*
X141890Y24902D02*
X142333Y24459D01*
X153371Y19980D02*
X153622D01*
X153189Y20162D02*
X153371Y19980D01*
X153189Y20162D02*
Y23583D01*
X152756Y24016D02*
X153189Y23583D01*
X135335Y25236D02*
X135669Y24902D01*
X135335Y25236D02*
Y27362D01*
D52*
X110531Y14469D02*
X114075D01*
X114764Y13780D01*
X121555Y8465D02*
X122835D01*
X116240Y13780D02*
X121555Y8465D01*
X114764Y13780D02*
X116240D01*
X130955Y8415D02*
X131004Y8366D01*
X122884Y8415D02*
X130955D01*
X122835Y8465D02*
X122884Y8415D01*
X139026Y8317D02*
X139075Y8268D01*
X131053Y8317D02*
X139026D01*
X131004Y8366D02*
X131053Y8317D01*
X148327Y7677D02*
X148917Y7087D01*
X139665Y7677D02*
X148327D01*
X139075Y8268D02*
X139665Y7677D01*
D53*
X108169Y24606D02*
Y25039D01*
X106919Y26290D02*
X108169Y25039D01*
X106919Y26290D02*
Y26939D01*
X106693Y27165D02*
X106919Y26939D01*
X56890Y24016D02*
Y24449D01*
X55650Y25689D02*
X56890Y24449D01*
X50984Y25689D02*
X55650D01*
X56831Y19488D02*
X56860Y19518D01*
Y23986D01*
X56890Y24016D01*
D54*
X106693Y27165D02*
D03*
X149606D02*
D03*
X7972Y12205D02*
D03*
X50787Y27165D02*
D03*
X2507D02*
D03*
M02*
