G04 #@! TF.GenerationSoftware,KiCad,Pcbnew,(6.0.8)*
G04 #@! TF.CreationDate,2022-11-09T14:30:19+03:00*
G04 #@! TF.ProjectId,hellen1-wbo,68656c6c-656e-4312-9d77-626f2e6b6963,0.3*
G04 #@! TF.SameCoordinates,PX4a19ba0PY5aa5910*
G04 #@! TF.FileFunction,Legend,Bot*
G04 #@! TF.FilePolarity,Positive*
%FSLAX46Y46*%
G04 Gerber Fmt 4.6, Leading zero omitted, Abs format (unit mm)*
G04 Created by KiCad (PCBNEW (6.0.8)) date 2022-11-09 14:30:19*
%MOMM*%
%LPD*%
G01*
G04 APERTURE LIST*
%ADD10C,0.150000*%
%ADD11C,0.200000*%
%ADD12C,0.120000*%
G04 APERTURE END LIST*
D10*
X25323809Y9447620D02*
X25085714Y8447620D01*
X24895238Y9161905D01*
X24704761Y8447620D01*
X24466666Y9447620D01*
X23752380Y8971429D02*
X23609523Y8923810D01*
X23561904Y8876191D01*
X23514285Y8780953D01*
X23514285Y8638096D01*
X23561904Y8542858D01*
X23609523Y8495239D01*
X23704761Y8447620D01*
X24085714Y8447620D01*
X24085714Y9447620D01*
X23752380Y9447620D01*
X23657142Y9400000D01*
X23609523Y9352381D01*
X23561904Y9257143D01*
X23561904Y9161905D01*
X23609523Y9066667D01*
X23657142Y9019048D01*
X23752380Y8971429D01*
X24085714Y8971429D01*
X22895238Y9447620D02*
X22704761Y9447620D01*
X22609523Y9400000D01*
X22514285Y9304762D01*
X22466666Y9114286D01*
X22466666Y8780953D01*
X22514285Y8590477D01*
X22609523Y8495239D01*
X22704761Y8447620D01*
X22895238Y8447620D01*
X22990476Y8495239D01*
X23085714Y8590477D01*
X23133333Y8780953D01*
X23133333Y9114286D01*
X23085714Y9304762D01*
X22990476Y9400000D01*
X22895238Y9447620D01*
X21085714Y9447620D02*
X20990476Y9447620D01*
X20895238Y9400000D01*
X20847619Y9352381D01*
X20800000Y9257143D01*
X20752380Y9066667D01*
X20752380Y8828572D01*
X20800000Y8638096D01*
X20847619Y8542858D01*
X20895238Y8495239D01*
X20990476Y8447620D01*
X21085714Y8447620D01*
X21180952Y8495239D01*
X21228571Y8542858D01*
X21276190Y8638096D01*
X21323809Y8828572D01*
X21323809Y9066667D01*
X21276190Y9257143D01*
X21228571Y9352381D01*
X21180952Y9400000D01*
X21085714Y9447620D01*
X20323809Y8542858D02*
X20276190Y8495239D01*
X20323809Y8447620D01*
X20371428Y8495239D01*
X20323809Y8542858D01*
X20323809Y8447620D01*
X19419047Y9114286D02*
X19419047Y8447620D01*
X19657142Y9495239D02*
X19895238Y8780953D01*
X19276190Y8780953D01*
D11*
G04 #@! TO.C,M600*
X27600000Y14000000D02*
X100000Y14000000D01*
X100000Y14000000D02*
X100000Y100000D01*
X100000Y100000D02*
X27600000Y100000D01*
X27600000Y100000D02*
X27600000Y14000000D01*
D12*
G04 #@! TO.C,R609*
X10187779Y11640000D02*
X9862221Y11640000D01*
X10187779Y12660000D02*
X9862221Y12660000D01*
D10*
G04 #@! TO.C,U600*
X11325000Y5875000D02*
X11325000Y5650000D01*
X11325000Y625000D02*
X15975000Y625000D01*
X15975000Y5875000D02*
X15975000Y5650000D01*
X15975000Y625000D02*
X15975000Y850000D01*
X11325000Y5875000D02*
X15975000Y5875000D01*
X11325000Y625000D02*
X11325000Y750000D01*
X11325000Y750000D02*
X9975000Y750000D01*
D12*
G04 #@! TO.C,U601*
X5180000Y10615000D02*
X3420000Y10615000D01*
X3420000Y13685000D02*
X5850000Y13685000D01*
G04 #@! TO.C,C618*
X3917100Y3565000D02*
X4132772Y3565000D01*
X3917100Y4285000D02*
X4132772Y4285000D01*
G04 #@! TO.C,R629*
X1230000Y7360011D02*
X1230000Y7667293D01*
X1990000Y7360011D02*
X1990000Y7667293D01*
G04 #@! TO.C,D604*
X3625000Y3310000D02*
X4275000Y3310000D01*
X3625000Y190000D02*
X1950000Y190000D01*
X3625000Y190000D02*
X4275000Y190000D01*
X3625000Y3310000D02*
X2975000Y3310000D01*
G04 #@! TO.C,C617*
X1240000Y9632464D02*
X1240000Y9416792D01*
X1960000Y9632464D02*
X1960000Y9416792D01*
G04 #@! TO.C,U605*
X5800000Y10009628D02*
X3850000Y10009628D01*
X5800000Y10009628D02*
X9250000Y10009628D01*
X5800000Y4889628D02*
X7750000Y4889628D01*
X5800000Y4889628D02*
X3850000Y4889628D01*
G04 #@! TD*
M02*
