G04 #@! TF.GenerationSoftware,KiCad,Pcbnew,(6.0.8)*
G04 #@! TF.CreationDate,2022-11-09T14:30:19+03:00*
G04 #@! TF.ProjectId,hellen1-wbo,68656c6c-656e-4312-9d77-626f2e6b6963,0.3*
G04 #@! TF.SameCoordinates,PX4a19ba0PY5aa5910*
G04 #@! TF.FileFunction,Copper,L2,Inr*
G04 #@! TF.FilePolarity,Positive*
%FSLAX46Y46*%
G04 Gerber Fmt 4.6, Leading zero omitted, Abs format (unit mm)*
G04 Created by KiCad (PCBNEW (6.0.8)) date 2022-11-09 14:30:19*
%MOMM*%
%LPD*%
G01*
G04 APERTURE LIST*
G04 #@! TA.AperFunction,ComponentPad*
%ADD10C,1.300000*%
G04 #@! TD*
G04 #@! TA.AperFunction,ComponentPad*
%ADD11C,0.700000*%
G04 #@! TD*
G04 #@! TA.AperFunction,Conductor*
%ADD12R,0.250000X2.100000*%
G04 #@! TD*
G04 #@! TA.AperFunction,Conductor*
%ADD13R,0.250000X6.300000*%
G04 #@! TD*
G04 #@! TA.AperFunction,Conductor*
%ADD14R,0.250000X0.980000*%
G04 #@! TD*
G04 #@! TA.AperFunction,Conductor*
%ADD15R,27.600000X0.250000*%
G04 #@! TD*
G04 #@! TA.AperFunction,Conductor*
%ADD16R,0.250000X8.750000*%
G04 #@! TD*
G04 #@! TA.AperFunction,Conductor*
%ADD17R,0.250000X0.950000*%
G04 #@! TD*
G04 #@! TA.AperFunction,ComponentPad*
%ADD18R,1.905000X2.000000*%
G04 #@! TD*
G04 #@! TA.AperFunction,ComponentPad*
%ADD19O,1.905000X2.000000*%
G04 #@! TD*
G04 #@! TA.AperFunction,ViaPad*
%ADD20C,0.600000*%
G04 #@! TD*
G04 APERTURE END LIST*
D10*
G04 #@! TO.N,/LSU_H+*
G04 #@! TO.C,Q600*
X23160000Y2950000D03*
X21160000Y5950000D03*
X19160000Y2950000D03*
G04 #@! TD*
D11*
G04 #@! TO.N,/LSU_Un*
G04 #@! TO.C,M600*
X27150000Y1650000D03*
G04 #@! TO.N,/LSU_Vm*
X27150000Y4650000D03*
G04 #@! TO.N,/LSU_Ip*
X27150000Y3650000D03*
G04 #@! TO.N,/LSU_Rtrim*
X27150000Y2650000D03*
D12*
G04 #@! TO.N,GND*
X175000Y13000000D03*
D13*
X175000Y3200000D03*
D14*
X175000Y9160000D03*
D15*
X13850000Y175000D03*
D16*
X27525000Y9675000D03*
D12*
X175000Y13000000D03*
D15*
X13850000Y13925000D03*
D17*
X27525000Y525000D03*
D11*
G04 #@! TO.N,+5V*
X558800Y11300000D03*
G04 #@! TO.N,+3V3*
X558800Y10300000D03*
G04 #@! TO.N,/CANH*
X558800Y7004000D03*
G04 #@! TO.N,/CANL*
X558800Y8020000D03*
G04 #@! TD*
D18*
G04 #@! TO.N,Net-(Q600-Pad1)*
G04 #@! TO.C,Q601*
X23790000Y12625000D03*
D19*
G04 #@! TO.N,/LSU_H+*
X21250000Y12625000D03*
G04 #@! TO.N,/LSU_H-*
X18710000Y12625000D03*
G04 #@! TD*
D20*
G04 #@! TO.N,GND*
X700000Y9250000D03*
X15875000Y500000D03*
X25222538Y4835401D03*
X8525000Y13714600D03*
X4150000Y13700000D03*
X10800000Y8540889D03*
X700000Y700000D03*
X400000Y6050000D03*
X18750000Y8450000D03*
X2406600Y8861275D03*
X4575000Y4664600D03*
X25325000Y13100000D03*
X17785398Y3300000D03*
X27325000Y13050000D03*
X5275000Y800000D03*
X26550000Y375000D03*
X14100000Y2550500D03*
X500000Y12200000D03*
X24670089Y393146D03*
X6500000Y700000D03*
X13550000Y5850000D03*
X4564600Y7805223D03*
X8950000Y2750000D03*
X10850000Y450000D03*
X16541029Y12100000D03*
X5950000Y7775000D03*
X12850000Y525000D03*
X15018622Y13740199D03*
X4266911Y12083089D03*
X650000Y13450000D03*
X27218377Y8300291D03*
G04 #@! TO.N,/LSU_Vm*
X12884898Y9485400D03*
X14937103Y12449051D03*
G04 #@! TO.N,/LSU_Ip*
X12872896Y11091246D03*
G04 #@! TO.N,+3V3*
X5800000Y2825000D03*
X1525000Y13075000D03*
X3889600Y900000D03*
X17795398Y4550000D03*
X5975000Y10435398D03*
G04 #@! TO.N,/nRESET*
X12306797Y5750000D03*
X1434789Y5225000D03*
X3147704Y1589600D03*
G04 #@! TO.N,Net-(C600-Pad1)*
X17785398Y2535397D03*
G04 #@! TO.N,/LSU_Un_sense*
X17785398Y5585400D03*
X13724647Y8475353D03*
G04 #@! TO.N,/Vm*
X17785398Y1770794D03*
X19400000Y7900000D03*
X13921675Y10471675D03*
G04 #@! TO.N,/Ip_sense*
X14901298Y11535488D03*
G04 #@! TO.N,/Un_sense*
X10998628Y7674956D03*
G04 #@! TO.N,Net-(D600-Pad2)*
X26500000Y12000000D03*
X25950000Y4600000D03*
G04 #@! TO.N,/Ip_dac*
X17608139Y6887483D03*
X11978911Y11145589D03*
G04 #@! TO.N,/Nernst_esr_drive*
X17785398Y1006191D03*
X13365230Y2339005D03*
G04 #@! TO.N,/CAN_TX*
X9686668Y7335982D03*
G04 #@! TO.N,/CAN_RX*
X10276268Y7925582D03*
G04 #@! TO.N,/heater_pwm*
X25700000Y12050000D03*
X17125000Y13100000D03*
G04 #@! TO.N,/Boot0*
X10275400Y5910400D03*
X5480374Y6097900D03*
G04 #@! TO.N,Net-(R613-Pad1)*
X10270589Y9720589D03*
X2639346Y10634600D03*
G04 #@! TO.N,/SWDIO*
X1434289Y4435017D03*
X6250000Y5970300D03*
X2800336Y3958800D03*
G04 #@! TO.N,VDDA*
X17563289Y9210400D03*
X4375000Y11125000D03*
X14865100Y4411711D03*
G04 #@! TO.N,/LSU_H-*
X26825000Y10575000D03*
X26050000Y9875000D03*
X26050000Y10575000D03*
X26050000Y9175000D03*
X26825000Y9875000D03*
G04 #@! TO.N,/CANL*
X1291770Y1184175D03*
G04 #@! TD*
G04 #@! TA.AperFunction,Conductor*
G04 #@! TO.N,GND*
G36*
X18215334Y13880593D02*
G01*
X18251298Y13831093D01*
X18251298Y13769907D01*
X18215334Y13720407D01*
X18207762Y13715420D01*
X18029380Y13609293D01*
X18025965Y13606298D01*
X18025962Y13606296D01*
X17892022Y13488833D01*
X17870060Y13469573D01*
X17740289Y13304959D01*
X17689418Y13270968D01*
X17628280Y13273370D01*
X17580230Y13311249D01*
X17572423Y13325275D01*
X17553905Y13366004D01*
X17553904Y13366005D01*
X17550984Y13372428D01*
X17480021Y13454784D01*
X17462005Y13475693D01*
X17462004Y13475694D01*
X17457400Y13481037D01*
X17337095Y13559015D01*
X17199739Y13600093D01*
X17116497Y13600602D01*
X17063427Y13600926D01*
X17063426Y13600926D01*
X17056376Y13600969D01*
X17049599Y13599032D01*
X17049598Y13599032D01*
X16925309Y13563510D01*
X16925307Y13563509D01*
X16918529Y13561572D01*
X16797280Y13485070D01*
X16792613Y13479786D01*
X16792611Y13479784D01*
X16707044Y13382897D01*
X16707042Y13382895D01*
X16702377Y13377612D01*
X16699381Y13371230D01*
X16699380Y13371229D01*
X16685189Y13341004D01*
X16641447Y13247837D01*
X16640362Y13240868D01*
X16640361Y13240865D01*
X16625680Y13146570D01*
X16619391Y13106177D01*
X16637980Y12964021D01*
X16640821Y12957565D01*
X16640821Y12957564D01*
X16676363Y12876790D01*
X16695720Y12832797D01*
X16708792Y12817246D01*
X16783431Y12728451D01*
X16783434Y12728449D01*
X16787970Y12723052D01*
X16793841Y12719144D01*
X16793842Y12719143D01*
X16806143Y12710955D01*
X16907313Y12643610D01*
X16987335Y12618610D01*
X17037425Y12602961D01*
X17037426Y12602961D01*
X17044157Y12600858D01*
X17115828Y12599544D01*
X17180445Y12598359D01*
X17180447Y12598359D01*
X17187499Y12598230D01*
X17194302Y12600085D01*
X17194304Y12600085D01*
X17276586Y12622518D01*
X17325817Y12635940D01*
X17406200Y12685295D01*
X17465681Y12699631D01*
X17522229Y12676265D01*
X17554244Y12624124D01*
X17557000Y12600929D01*
X17557000Y12523739D01*
X17571450Y12366482D01*
X17628970Y12162531D01*
X17722694Y11972478D01*
X17849483Y11802687D01*
X17852816Y11799606D01*
X17993950Y11669143D01*
X18005091Y11658844D01*
X18008924Y11656426D01*
X18008926Y11656424D01*
X18123688Y11584015D01*
X18184306Y11545768D01*
X18381127Y11467244D01*
X18588962Y11425903D01*
X18693282Y11424538D01*
X18796311Y11423189D01*
X18796316Y11423189D01*
X18800851Y11423130D01*
X18805324Y11423899D01*
X18805329Y11423899D01*
X19005219Y11458246D01*
X19005225Y11458248D01*
X19009697Y11459016D01*
X19122766Y11500729D01*
X19204243Y11530787D01*
X19204246Y11530788D01*
X19208506Y11532360D01*
X19214524Y11535940D01*
X19302885Y11588510D01*
X19390620Y11640707D01*
X19394035Y11643702D01*
X19394038Y11643704D01*
X19546526Y11777433D01*
X19549940Y11780427D01*
X19681130Y11946841D01*
X19683243Y11950857D01*
X19777687Y12130365D01*
X19777688Y12130368D01*
X19779797Y12134376D01*
X19824323Y12277774D01*
X19841289Y12332412D01*
X19841290Y12332415D01*
X19842636Y12336751D01*
X19863000Y12508805D01*
X19863000Y12726261D01*
X19848550Y12883518D01*
X19791030Y13087469D01*
X19697306Y13277522D01*
X19570517Y13447313D01*
X19474537Y13536036D01*
X19418239Y13588078D01*
X19418238Y13588079D01*
X19414909Y13591156D01*
X19403950Y13598071D01*
X19239531Y13701811D01*
X19235694Y13704232D01*
X19224874Y13708549D01*
X19177834Y13747673D01*
X19162773Y13806975D01*
X19185446Y13863805D01*
X19237192Y13896454D01*
X19261561Y13899500D01*
X20697143Y13899500D01*
X20755334Y13880593D01*
X20791298Y13831093D01*
X20791298Y13769907D01*
X20755334Y13720407D01*
X20747762Y13715420D01*
X20569380Y13609293D01*
X20565965Y13606298D01*
X20565962Y13606296D01*
X20432022Y13488833D01*
X20410060Y13469573D01*
X20278870Y13303159D01*
X20276757Y13299144D01*
X20276757Y13299143D01*
X20236611Y13222837D01*
X20180203Y13115624D01*
X20171516Y13087646D01*
X20119854Y12921267D01*
X20117364Y12913249D01*
X20116830Y12908739D01*
X20116830Y12908738D01*
X20116608Y12906860D01*
X20097000Y12741195D01*
X20097000Y12523739D01*
X20111450Y12366482D01*
X20168970Y12162531D01*
X20262694Y11972478D01*
X20389483Y11802687D01*
X20392816Y11799606D01*
X20533950Y11669143D01*
X20545091Y11658844D01*
X20548924Y11656426D01*
X20548926Y11656424D01*
X20663688Y11584015D01*
X20724306Y11545768D01*
X20921127Y11467244D01*
X21128962Y11425903D01*
X21233282Y11424538D01*
X21336311Y11423189D01*
X21336316Y11423189D01*
X21340851Y11423130D01*
X21345324Y11423899D01*
X21345329Y11423899D01*
X21545219Y11458246D01*
X21545225Y11458248D01*
X21549697Y11459016D01*
X21662766Y11500729D01*
X21744243Y11530787D01*
X21744246Y11530788D01*
X21748506Y11532360D01*
X21754524Y11535940D01*
X21842885Y11588510D01*
X21930620Y11640707D01*
X21934035Y11643702D01*
X21934038Y11643704D01*
X22086526Y11777433D01*
X22089940Y11780427D01*
X22221130Y11946841D01*
X22223243Y11950857D01*
X22317687Y12130365D01*
X22317688Y12130368D01*
X22319797Y12134376D01*
X22364323Y12277774D01*
X22381289Y12332412D01*
X22381290Y12332415D01*
X22382636Y12336751D01*
X22403000Y12508805D01*
X22403000Y12726261D01*
X22388550Y12883518D01*
X22331030Y13087469D01*
X22237306Y13277522D01*
X22110517Y13447313D01*
X22014537Y13536036D01*
X21958239Y13588078D01*
X21958238Y13588079D01*
X21954909Y13591156D01*
X21943950Y13598071D01*
X21779531Y13701811D01*
X21775694Y13704232D01*
X21764874Y13708549D01*
X21717834Y13747673D01*
X21702773Y13806975D01*
X21725446Y13863805D01*
X21777192Y13896454D01*
X21801561Y13899500D01*
X22594560Y13899500D01*
X22652751Y13880593D01*
X22688715Y13831093D01*
X22688715Y13769907D01*
X22676875Y13745498D01*
X22648633Y13703231D01*
X22637000Y13644748D01*
X22637000Y11605252D01*
X22648633Y11546769D01*
X22692948Y11480448D01*
X22759269Y11436133D01*
X22768832Y11434231D01*
X22768834Y11434230D01*
X22791505Y11429721D01*
X22817752Y11424500D01*
X24762248Y11424500D01*
X24788495Y11429721D01*
X24811166Y11434230D01*
X24811168Y11434231D01*
X24820731Y11436133D01*
X24887052Y11480448D01*
X24931367Y11546769D01*
X24943000Y11605252D01*
X24943000Y12056177D01*
X25194391Y12056177D01*
X25212980Y11914021D01*
X25215821Y11907565D01*
X25215821Y11907564D01*
X25242793Y11846267D01*
X25270720Y11782797D01*
X25275669Y11776910D01*
X25358431Y11678451D01*
X25358434Y11678449D01*
X25362970Y11673052D01*
X25482313Y11593610D01*
X25552678Y11571627D01*
X25612425Y11552961D01*
X25612426Y11552961D01*
X25619157Y11550858D01*
X25690828Y11549544D01*
X25755445Y11548359D01*
X25755447Y11548359D01*
X25762499Y11548230D01*
X25769302Y11550085D01*
X25769304Y11550085D01*
X25870318Y11577625D01*
X25900817Y11585940D01*
X25941558Y11610955D01*
X26021609Y11660106D01*
X26081092Y11674442D01*
X26137640Y11651076D01*
X26149193Y11639441D01*
X26158428Y11628454D01*
X26158433Y11628450D01*
X26162970Y11623052D01*
X26168841Y11619144D01*
X26168842Y11619143D01*
X26196449Y11600766D01*
X26282313Y11543610D01*
X26359922Y11519364D01*
X26412425Y11502961D01*
X26412426Y11502961D01*
X26419157Y11500858D01*
X26490828Y11499544D01*
X26555445Y11498359D01*
X26555447Y11498359D01*
X26562499Y11498230D01*
X26569302Y11500085D01*
X26569304Y11500085D01*
X26666654Y11526626D01*
X26700817Y11535940D01*
X26822991Y11610955D01*
X26830403Y11619143D01*
X26914468Y11712018D01*
X26919200Y11717246D01*
X26981710Y11846267D01*
X26983222Y11855250D01*
X27004862Y11983876D01*
X27004862Y11983880D01*
X27005496Y11987646D01*
X27005647Y12000000D01*
X26985323Y12141918D01*
X26925984Y12272428D01*
X26848705Y12362114D01*
X26837005Y12375693D01*
X26837004Y12375694D01*
X26832400Y12381037D01*
X26712095Y12459015D01*
X26574739Y12500093D01*
X26491497Y12500602D01*
X26438427Y12500926D01*
X26438426Y12500926D01*
X26431376Y12500969D01*
X26424599Y12499032D01*
X26424598Y12499032D01*
X26300309Y12463510D01*
X26300307Y12463509D01*
X26293529Y12461572D01*
X26287564Y12457808D01*
X26287561Y12457807D01*
X26179466Y12389605D01*
X26120164Y12374544D01*
X26063334Y12397217D01*
X26051640Y12408709D01*
X26037007Y12425692D01*
X26037001Y12425697D01*
X26032400Y12431037D01*
X25912095Y12509015D01*
X25774739Y12550093D01*
X25691497Y12550602D01*
X25638427Y12550926D01*
X25638426Y12550926D01*
X25631376Y12550969D01*
X25624599Y12549032D01*
X25624598Y12549032D01*
X25500309Y12513510D01*
X25500307Y12513509D01*
X25493529Y12511572D01*
X25372280Y12435070D01*
X25367613Y12429786D01*
X25367611Y12429784D01*
X25282044Y12332897D01*
X25282042Y12332895D01*
X25277377Y12327612D01*
X25274381Y12321230D01*
X25274380Y12321229D01*
X25270550Y12313072D01*
X25216447Y12197837D01*
X25215362Y12190868D01*
X25215361Y12190865D01*
X25207240Y12138705D01*
X25194391Y12056177D01*
X24943000Y12056177D01*
X24943000Y13644748D01*
X24931367Y13703231D01*
X24903125Y13745498D01*
X24886516Y13804387D01*
X24907694Y13861790D01*
X24958567Y13895783D01*
X24985440Y13899500D01*
X27400500Y13899500D01*
X27458691Y13880593D01*
X27494655Y13831093D01*
X27499500Y13800500D01*
X27499500Y10757706D01*
X27480593Y10699515D01*
X27431093Y10663551D01*
X27369907Y10663551D01*
X27320407Y10699515D01*
X27311581Y10717490D01*
X27310323Y10716918D01*
X27253905Y10841004D01*
X27253904Y10841005D01*
X27250984Y10847428D01*
X27180280Y10929484D01*
X27162005Y10950693D01*
X27162004Y10950694D01*
X27157400Y10956037D01*
X27037095Y11034015D01*
X26899739Y11075093D01*
X26816497Y11075602D01*
X26763427Y11075926D01*
X26763426Y11075926D01*
X26756376Y11075969D01*
X26749599Y11074032D01*
X26749598Y11074032D01*
X26625309Y11038510D01*
X26625307Y11038509D01*
X26618529Y11036572D01*
X26497280Y10960070D01*
X26496957Y10960583D01*
X26445171Y10939240D01*
X26385702Y10953630D01*
X26382410Y10956053D01*
X26382400Y10956037D01*
X26292382Y11014384D01*
X26262095Y11034015D01*
X26124739Y11075093D01*
X26041497Y11075602D01*
X25988427Y11075926D01*
X25988426Y11075926D01*
X25981376Y11075969D01*
X25974599Y11074032D01*
X25974598Y11074032D01*
X25850309Y11038510D01*
X25850307Y11038509D01*
X25843529Y11036572D01*
X25722280Y10960070D01*
X25717613Y10954786D01*
X25717611Y10954784D01*
X25632044Y10857897D01*
X25632042Y10857895D01*
X25627377Y10852612D01*
X25624381Y10846230D01*
X25624380Y10846229D01*
X25618191Y10833047D01*
X25566447Y10722837D01*
X25565362Y10715868D01*
X25565361Y10715865D01*
X25553357Y10638764D01*
X25544391Y10581177D01*
X25562980Y10439021D01*
X25565821Y10432565D01*
X25565821Y10432564D01*
X25591655Y10373853D01*
X25620720Y10307797D01*
X25632682Y10293567D01*
X25635912Y10289724D01*
X25658882Y10233014D01*
X25644132Y10173633D01*
X25634333Y10160488D01*
X25627377Y10152612D01*
X25624381Y10146230D01*
X25624380Y10146229D01*
X25618960Y10134685D01*
X25566447Y10022837D01*
X25565362Y10015868D01*
X25565361Y10015865D01*
X25552557Y9933628D01*
X25544391Y9881177D01*
X25545306Y9874180D01*
X25545306Y9874179D01*
X25559899Y9762583D01*
X25562980Y9739021D01*
X25565821Y9732565D01*
X25565821Y9732564D01*
X25615204Y9620334D01*
X25620720Y9607797D01*
X25625257Y9602399D01*
X25625258Y9602398D01*
X25635912Y9589724D01*
X25658882Y9533014D01*
X25644132Y9473633D01*
X25634333Y9460488D01*
X25627377Y9452612D01*
X25624381Y9446230D01*
X25624380Y9446229D01*
X25611413Y9418610D01*
X25566447Y9322837D01*
X25565362Y9315868D01*
X25565361Y9315865D01*
X25557317Y9264199D01*
X25544391Y9181177D01*
X25545306Y9174180D01*
X25545306Y9174179D01*
X25561503Y9050318D01*
X25562980Y9039021D01*
X25565821Y9032565D01*
X25565821Y9032564D01*
X25614287Y8922418D01*
X25620720Y8907797D01*
X25633792Y8892246D01*
X25708431Y8803451D01*
X25708434Y8803449D01*
X25712970Y8798052D01*
X25718841Y8794144D01*
X25718842Y8794143D01*
X25731143Y8785955D01*
X25832313Y8718610D01*
X25932920Y8687179D01*
X25962425Y8677961D01*
X25962426Y8677961D01*
X25969157Y8675858D01*
X26040828Y8674544D01*
X26105445Y8673359D01*
X26105447Y8673359D01*
X26112499Y8673230D01*
X26119302Y8675085D01*
X26119304Y8675085D01*
X26194503Y8695587D01*
X26250817Y8710940D01*
X26372991Y8785955D01*
X26380403Y8794143D01*
X26464468Y8887018D01*
X26469200Y8892246D01*
X26531710Y9021267D01*
X26533671Y9032918D01*
X26554862Y9158876D01*
X26554862Y9158880D01*
X26555496Y9162646D01*
X26555647Y9175000D01*
X26538949Y9291598D01*
X26549416Y9351881D01*
X26593317Y9394499D01*
X26653885Y9403173D01*
X26666471Y9400128D01*
X26737425Y9377961D01*
X26737426Y9377961D01*
X26744157Y9375858D01*
X26815828Y9374544D01*
X26880445Y9373359D01*
X26880447Y9373359D01*
X26887499Y9373230D01*
X26894302Y9375085D01*
X26894304Y9375085D01*
X26997328Y9403173D01*
X27025817Y9410940D01*
X27147991Y9485955D01*
X27244200Y9592246D01*
X27301894Y9711326D01*
X27303635Y9714920D01*
X27303635Y9714921D01*
X27306710Y9721267D01*
X27307232Y9724370D01*
X27341890Y9772602D01*
X27399981Y9791815D01*
X27458270Y9773213D01*
X27494493Y9723902D01*
X27499500Y9692816D01*
X27499500Y5249253D01*
X27480593Y5191062D01*
X27431093Y5155098D01*
X27369907Y5155098D01*
X27362615Y5157789D01*
X27324260Y5173676D01*
X27293709Y5186330D01*
X27287280Y5187176D01*
X27287278Y5187177D01*
X27156433Y5204403D01*
X27150000Y5205250D01*
X27143567Y5204403D01*
X27012722Y5187177D01*
X27012720Y5187176D01*
X27006291Y5186330D01*
X26872375Y5130861D01*
X26757379Y5042621D01*
X26669139Y4927625D01*
X26613670Y4793709D01*
X26612823Y4787277D01*
X26611143Y4781007D01*
X26608463Y4781725D01*
X26587138Y4737013D01*
X26533368Y4707815D01*
X26472706Y4715799D01*
X26428322Y4757915D01*
X26425201Y4764181D01*
X26378905Y4866004D01*
X26378904Y4866005D01*
X26375984Y4872428D01*
X26282400Y4981037D01*
X26162095Y5059015D01*
X26024739Y5100093D01*
X25941497Y5100602D01*
X25888427Y5100926D01*
X25888426Y5100926D01*
X25881376Y5100969D01*
X25874599Y5099032D01*
X25874598Y5099032D01*
X25750309Y5063510D01*
X25750307Y5063509D01*
X25743529Y5061572D01*
X25622280Y4985070D01*
X25617613Y4979786D01*
X25617611Y4979784D01*
X25532044Y4882897D01*
X25532042Y4882895D01*
X25527377Y4877612D01*
X25466447Y4747837D01*
X25465362Y4740868D01*
X25465361Y4740865D01*
X25456653Y4684934D01*
X25444391Y4606177D01*
X25445306Y4599180D01*
X25445306Y4599179D01*
X25449128Y4569951D01*
X25462980Y4464021D01*
X25465821Y4457565D01*
X25465821Y4457564D01*
X25515848Y4343870D01*
X25520720Y4332797D01*
X25558172Y4288242D01*
X25608431Y4228451D01*
X25608434Y4228449D01*
X25612970Y4223052D01*
X25618841Y4219144D01*
X25618842Y4219143D01*
X25631143Y4210955D01*
X25732313Y4143610D01*
X25795950Y4123729D01*
X25862425Y4102961D01*
X25862426Y4102961D01*
X25869157Y4100858D01*
X25940828Y4099544D01*
X26005445Y4098359D01*
X26005447Y4098359D01*
X26012499Y4098230D01*
X26019302Y4100085D01*
X26019304Y4100085D01*
X26106028Y4123729D01*
X26150817Y4135940D01*
X26272991Y4210955D01*
X26280403Y4219143D01*
X26364468Y4312018D01*
X26369200Y4317246D01*
X26431710Y4446267D01*
X26434264Y4461448D01*
X26462564Y4515695D01*
X26517345Y4542947D01*
X26577682Y4532796D01*
X26620529Y4489118D01*
X26623354Y4482911D01*
X26669139Y4372375D01*
X26673090Y4367226D01*
X26734744Y4286878D01*
X26757379Y4257379D01*
X26762528Y4253428D01*
X26762531Y4253425D01*
X26794959Y4228542D01*
X26829615Y4178117D01*
X26828013Y4116953D01*
X26794959Y4071458D01*
X26762531Y4046575D01*
X26762528Y4046572D01*
X26757379Y4042621D01*
X26669139Y3927625D01*
X26613670Y3793709D01*
X26612824Y3787280D01*
X26612823Y3787278D01*
X26601076Y3698053D01*
X26594750Y3650000D01*
X26595597Y3643567D01*
X26612548Y3514816D01*
X26613670Y3506291D01*
X26669139Y3372375D01*
X26757379Y3257379D01*
X26762528Y3253428D01*
X26762531Y3253425D01*
X26794959Y3228542D01*
X26829615Y3178117D01*
X26828013Y3116953D01*
X26794959Y3071458D01*
X26762531Y3046575D01*
X26762528Y3046572D01*
X26757379Y3042621D01*
X26669139Y2927625D01*
X26613670Y2793709D01*
X26612824Y2787280D01*
X26612823Y2787278D01*
X26603971Y2720042D01*
X26594750Y2650000D01*
X26595597Y2643567D01*
X26611465Y2523043D01*
X26613670Y2506291D01*
X26669139Y2372375D01*
X26757379Y2257379D01*
X26762528Y2253428D01*
X26762531Y2253425D01*
X26794959Y2228542D01*
X26829615Y2178117D01*
X26828013Y2116953D01*
X26794959Y2071458D01*
X26762531Y2046575D01*
X26762528Y2046572D01*
X26757379Y2042621D01*
X26669139Y1927625D01*
X26613670Y1793709D01*
X26612824Y1787280D01*
X26612823Y1787278D01*
X26604563Y1724534D01*
X26594750Y1650000D01*
X26595597Y1643567D01*
X26605408Y1569049D01*
X26613670Y1506291D01*
X26669139Y1372375D01*
X26757379Y1257379D01*
X26872375Y1169139D01*
X27006291Y1113670D01*
X27012720Y1112824D01*
X27012722Y1112823D01*
X27143567Y1095597D01*
X27150000Y1094750D01*
X27156433Y1095597D01*
X27287278Y1112823D01*
X27287280Y1112824D01*
X27293709Y1113670D01*
X27335809Y1131108D01*
X27362615Y1142211D01*
X27423612Y1147011D01*
X27475781Y1115042D01*
X27499195Y1058513D01*
X27499500Y1050747D01*
X27499500Y299500D01*
X27480593Y241309D01*
X27431093Y205345D01*
X27400500Y200500D01*
X3952316Y200500D01*
X3944525Y203031D01*
X3936484Y200500D01*
X299500Y200500D01*
X241309Y219407D01*
X205345Y268907D01*
X200500Y299500D01*
X200500Y1190352D01*
X786161Y1190352D01*
X787076Y1183355D01*
X787076Y1183354D01*
X788418Y1173090D01*
X804750Y1048196D01*
X807591Y1041740D01*
X807591Y1041739D01*
X828669Y993837D01*
X862490Y916972D01*
X887141Y887646D01*
X950201Y812626D01*
X950204Y812624D01*
X954740Y807227D01*
X960611Y803319D01*
X960612Y803318D01*
X972913Y795130D01*
X1074083Y727785D01*
X1174690Y696354D01*
X1204195Y687136D01*
X1204196Y687136D01*
X1210927Y685033D01*
X1282598Y683719D01*
X1347215Y682534D01*
X1347217Y682534D01*
X1354269Y682405D01*
X1361072Y684260D01*
X1361074Y684260D01*
X1436273Y704762D01*
X1492587Y720115D01*
X1614761Y795130D01*
X1622173Y803318D01*
X1706238Y896193D01*
X1710970Y901421D01*
X1773480Y1030442D01*
X1774786Y1038200D01*
X1796632Y1168051D01*
X1796632Y1168055D01*
X1797266Y1171821D01*
X1797417Y1184175D01*
X1777093Y1326093D01*
X1717754Y1456603D01*
X1624170Y1565212D01*
X1577014Y1595777D01*
X2642095Y1595777D01*
X2643010Y1588780D01*
X2643010Y1588779D01*
X2656866Y1482816D01*
X2660684Y1453621D01*
X2663525Y1447165D01*
X2663525Y1447164D01*
X2712294Y1336329D01*
X2718424Y1322397D01*
X2750733Y1283961D01*
X2806135Y1218051D01*
X2806138Y1218049D01*
X2810674Y1212652D01*
X2816545Y1208744D01*
X2816546Y1208743D01*
X2847759Y1187966D01*
X2930017Y1133210D01*
X3019709Y1105189D01*
X3060129Y1092561D01*
X3060130Y1092561D01*
X3066861Y1090458D01*
X3138532Y1089144D01*
X3203149Y1087959D01*
X3203151Y1087959D01*
X3210203Y1087830D01*
X3273874Y1105189D01*
X3334987Y1102254D01*
X3382705Y1063957D01*
X3398799Y1004926D01*
X3397734Y994445D01*
X3383991Y906177D01*
X3384906Y899180D01*
X3384906Y899179D01*
X3391846Y846109D01*
X3402580Y764021D01*
X3405421Y757565D01*
X3405421Y757564D01*
X3437676Y684260D01*
X3460320Y632797D01*
X3477787Y612018D01*
X3548031Y528451D01*
X3548034Y528449D01*
X3552570Y523052D01*
X3558441Y519144D01*
X3558442Y519143D01*
X3577772Y506276D01*
X3671913Y443610D01*
X3772520Y412179D01*
X3802025Y402961D01*
X3802026Y402961D01*
X3808757Y400858D01*
X3936053Y398524D01*
X3938299Y398483D01*
X3940351Y397775D01*
X3945044Y398359D01*
X3952099Y398230D01*
X3958902Y400085D01*
X3958904Y400085D01*
X4034103Y420587D01*
X4090417Y435940D01*
X4202159Y504550D01*
X4206578Y507263D01*
X4212591Y510955D01*
X4220003Y519143D01*
X4304068Y612018D01*
X4308800Y617246D01*
X4357741Y718261D01*
X4368234Y739918D01*
X4371310Y746267D01*
X4375475Y771018D01*
X4394462Y883876D01*
X4394462Y883880D01*
X4395096Y887646D01*
X4395247Y900000D01*
X4379155Y1012368D01*
X17279789Y1012368D01*
X17280704Y1005371D01*
X17280704Y1005370D01*
X17282133Y994445D01*
X17298378Y870212D01*
X17301219Y863756D01*
X17301219Y863755D01*
X17349854Y753225D01*
X17356118Y738988D01*
X17373541Y718261D01*
X17443829Y634642D01*
X17443832Y634640D01*
X17448368Y629243D01*
X17454239Y625335D01*
X17454240Y625334D01*
X17485942Y604231D01*
X17567711Y549801D01*
X17665844Y519143D01*
X17697823Y509152D01*
X17697824Y509152D01*
X17704555Y507049D01*
X17776226Y505735D01*
X17840843Y504550D01*
X17840845Y504550D01*
X17847897Y504421D01*
X17854700Y506276D01*
X17854702Y506276D01*
X17936038Y528451D01*
X17986215Y542131D01*
X18108389Y617146D01*
X18115801Y625334D01*
X18199866Y718209D01*
X18204598Y723437D01*
X18267108Y852458D01*
X18271273Y877209D01*
X18290260Y990067D01*
X18290260Y990071D01*
X18290894Y993837D01*
X18291045Y1006191D01*
X18270721Y1148109D01*
X18248941Y1196011D01*
X18214303Y1272195D01*
X18214302Y1272196D01*
X18211382Y1278619D01*
X18172700Y1323511D01*
X18149040Y1379934D01*
X18163063Y1439491D01*
X18174302Y1454569D01*
X18199866Y1482812D01*
X18204598Y1488040D01*
X18267108Y1617061D01*
X18270859Y1639352D01*
X18290260Y1754670D01*
X18290260Y1754674D01*
X18290894Y1758440D01*
X18291045Y1770794D01*
X18270721Y1912712D01*
X18211382Y2043222D01*
X18172700Y2088114D01*
X18149040Y2144537D01*
X18163063Y2204094D01*
X18174302Y2219172D01*
X18199866Y2247415D01*
X18204598Y2252643D01*
X18267108Y2381664D01*
X18275341Y2430602D01*
X18303640Y2484848D01*
X18358421Y2512101D01*
X18418758Y2501950D01*
X18458704Y2463678D01*
X18465543Y2451833D01*
X18465548Y2451826D01*
X18468141Y2447335D01*
X18587770Y2314474D01*
X18732407Y2209388D01*
X18770945Y2192230D01*
X18890995Y2138780D01*
X18890999Y2138779D01*
X18895733Y2136671D01*
X18900803Y2135593D01*
X18900804Y2135593D01*
X18916363Y2132286D01*
X19070609Y2099500D01*
X19249391Y2099500D01*
X19403637Y2132286D01*
X19419196Y2135593D01*
X19419197Y2135593D01*
X19424267Y2136671D01*
X19429001Y2138779D01*
X19429005Y2138780D01*
X19549055Y2192230D01*
X19587593Y2209388D01*
X19732230Y2314474D01*
X19851859Y2447335D01*
X19873517Y2484848D01*
X19938658Y2597675D01*
X19938659Y2597677D01*
X19941250Y2602165D01*
X19943872Y2610234D01*
X19994895Y2767265D01*
X19994896Y2767270D01*
X19996497Y2772197D01*
X20015185Y2950000D01*
X22304815Y2950000D01*
X22323503Y2772197D01*
X22325104Y2767270D01*
X22325105Y2767265D01*
X22376128Y2610234D01*
X22378750Y2602165D01*
X22381341Y2597677D01*
X22381342Y2597675D01*
X22446483Y2484848D01*
X22468141Y2447335D01*
X22587770Y2314474D01*
X22732407Y2209388D01*
X22770945Y2192230D01*
X22890995Y2138780D01*
X22890999Y2138779D01*
X22895733Y2136671D01*
X22900803Y2135593D01*
X22900804Y2135593D01*
X22916363Y2132286D01*
X23070609Y2099500D01*
X23249391Y2099500D01*
X23403637Y2132286D01*
X23419196Y2135593D01*
X23419197Y2135593D01*
X23424267Y2136671D01*
X23429001Y2138779D01*
X23429005Y2138780D01*
X23549055Y2192230D01*
X23587593Y2209388D01*
X23732230Y2314474D01*
X23851859Y2447335D01*
X23873517Y2484848D01*
X23938658Y2597675D01*
X23938659Y2597677D01*
X23941250Y2602165D01*
X23943872Y2610234D01*
X23994895Y2767265D01*
X23994896Y2767270D01*
X23996497Y2772197D01*
X24015185Y2950000D01*
X23996497Y3127803D01*
X23994896Y3132730D01*
X23994895Y3132735D01*
X23942852Y3292905D01*
X23942851Y3292906D01*
X23941250Y3297835D01*
X23902887Y3364283D01*
X23854452Y3448174D01*
X23854451Y3448175D01*
X23851859Y3452665D01*
X23732230Y3585526D01*
X23587593Y3690612D01*
X23505930Y3726971D01*
X23429005Y3761220D01*
X23429001Y3761221D01*
X23424267Y3763329D01*
X23419197Y3764407D01*
X23419196Y3764407D01*
X23385272Y3771618D01*
X23249391Y3800500D01*
X23070609Y3800500D01*
X22934728Y3771618D01*
X22900804Y3764407D01*
X22900803Y3764407D01*
X22895733Y3763329D01*
X22890999Y3761221D01*
X22890995Y3761220D01*
X22737142Y3692720D01*
X22737140Y3692719D01*
X22732408Y3690612D01*
X22587770Y3585526D01*
X22584304Y3581676D01*
X22584300Y3581673D01*
X22504356Y3492886D01*
X22468141Y3452665D01*
X22465549Y3448175D01*
X22465548Y3448174D01*
X22417114Y3364283D01*
X22378750Y3297835D01*
X22377149Y3292906D01*
X22377148Y3292905D01*
X22325105Y3132735D01*
X22325104Y3132730D01*
X22323503Y3127803D01*
X22304815Y2950000D01*
X20015185Y2950000D01*
X19996497Y3127803D01*
X19994896Y3132730D01*
X19994895Y3132735D01*
X19942852Y3292905D01*
X19942851Y3292906D01*
X19941250Y3297835D01*
X19902887Y3364283D01*
X19854452Y3448174D01*
X19854451Y3448175D01*
X19851859Y3452665D01*
X19732230Y3585526D01*
X19587593Y3690612D01*
X19505930Y3726971D01*
X19429005Y3761220D01*
X19429001Y3761221D01*
X19424267Y3763329D01*
X19419197Y3764407D01*
X19419196Y3764407D01*
X19385272Y3771618D01*
X19249391Y3800500D01*
X19070609Y3800500D01*
X18934728Y3771618D01*
X18900804Y3764407D01*
X18900803Y3764407D01*
X18895733Y3763329D01*
X18890999Y3761221D01*
X18890995Y3761220D01*
X18737142Y3692720D01*
X18737140Y3692719D01*
X18732408Y3690612D01*
X18587770Y3585526D01*
X18584304Y3581676D01*
X18584300Y3581673D01*
X18504356Y3492886D01*
X18468141Y3452665D01*
X18465549Y3448175D01*
X18465548Y3448174D01*
X18417114Y3364283D01*
X18378750Y3297835D01*
X18377149Y3292906D01*
X18377148Y3292905D01*
X18325105Y3132735D01*
X18325104Y3132730D01*
X18323503Y3127803D01*
X18306483Y2965865D01*
X18305281Y2954431D01*
X18280394Y2898535D01*
X18227406Y2867942D01*
X18166556Y2874338D01*
X18131824Y2900156D01*
X18122403Y2911090D01*
X18122402Y2911091D01*
X18117798Y2916434D01*
X17997493Y2994412D01*
X17860137Y3035490D01*
X17776895Y3035999D01*
X17723825Y3036323D01*
X17723824Y3036323D01*
X17716774Y3036366D01*
X17709997Y3034429D01*
X17709996Y3034429D01*
X17585707Y2998907D01*
X17585705Y2998906D01*
X17578927Y2996969D01*
X17457678Y2920467D01*
X17453011Y2915183D01*
X17453009Y2915181D01*
X17367442Y2818294D01*
X17367440Y2818292D01*
X17362775Y2813009D01*
X17359779Y2806627D01*
X17359778Y2806626D01*
X17350694Y2787278D01*
X17301845Y2683234D01*
X17300760Y2676265D01*
X17300759Y2676262D01*
X17289666Y2605009D01*
X17279789Y2541574D01*
X17280704Y2534577D01*
X17280704Y2534576D01*
X17292616Y2443479D01*
X17298378Y2399418D01*
X17301219Y2392962D01*
X17301219Y2392961D01*
X17334058Y2318330D01*
X17356118Y2268194D01*
X17399134Y2217020D01*
X17422103Y2160313D01*
X17407353Y2100932D01*
X17397554Y2087786D01*
X17367442Y2053691D01*
X17367440Y2053689D01*
X17362775Y2048406D01*
X17301845Y1918631D01*
X17300760Y1911662D01*
X17300759Y1911659D01*
X17286776Y1821847D01*
X17279789Y1776971D01*
X17280704Y1769974D01*
X17280704Y1769973D01*
X17282212Y1758440D01*
X17298378Y1634815D01*
X17301219Y1628359D01*
X17301219Y1628358D01*
X17331356Y1559868D01*
X17356118Y1503591D01*
X17399134Y1452417D01*
X17422103Y1395710D01*
X17407353Y1336329D01*
X17397554Y1323183D01*
X17367442Y1289088D01*
X17367440Y1289086D01*
X17362775Y1283803D01*
X17301845Y1154028D01*
X17300760Y1147059D01*
X17300759Y1147056D01*
X17286165Y1053322D01*
X17279789Y1012368D01*
X4379155Y1012368D01*
X4374923Y1041918D01*
X4333415Y1133210D01*
X4318505Y1166004D01*
X4318504Y1166005D01*
X4315584Y1172428D01*
X4242385Y1257379D01*
X4226605Y1275693D01*
X4226604Y1275694D01*
X4222000Y1281037D01*
X4101695Y1359015D01*
X3964339Y1400093D01*
X3881097Y1400602D01*
X3828027Y1400926D01*
X3828026Y1400926D01*
X3820976Y1400969D01*
X3814195Y1399031D01*
X3764434Y1384810D01*
X3703288Y1386999D01*
X3655107Y1424711D01*
X3638293Y1483541D01*
X3639602Y1496425D01*
X3640254Y1500297D01*
X3653200Y1577246D01*
X3653351Y1589600D01*
X3633027Y1731518D01*
X3584117Y1839090D01*
X3576609Y1855604D01*
X3576608Y1855605D01*
X3573688Y1862028D01*
X3480104Y1970637D01*
X3359799Y2048615D01*
X3222443Y2089693D01*
X3139201Y2090202D01*
X3086131Y2090526D01*
X3086130Y2090526D01*
X3079080Y2090569D01*
X3072303Y2088632D01*
X3072302Y2088632D01*
X2948013Y2053110D01*
X2948011Y2053109D01*
X2941233Y2051172D01*
X2819984Y1974670D01*
X2815317Y1969386D01*
X2815315Y1969384D01*
X2729748Y1872497D01*
X2729746Y1872495D01*
X2725081Y1867212D01*
X2722085Y1860830D01*
X2722084Y1860829D01*
X2712180Y1839734D01*
X2664151Y1737437D01*
X2663066Y1730468D01*
X2663065Y1730465D01*
X2655558Y1682246D01*
X2642095Y1595777D01*
X1577014Y1595777D01*
X1503865Y1643190D01*
X1366509Y1684268D01*
X1283267Y1684777D01*
X1230197Y1685101D01*
X1230196Y1685101D01*
X1223146Y1685144D01*
X1216369Y1683207D01*
X1216368Y1683207D01*
X1092079Y1647685D01*
X1092077Y1647684D01*
X1085299Y1645747D01*
X964050Y1569245D01*
X959383Y1563961D01*
X959381Y1563959D01*
X873814Y1467072D01*
X873812Y1467070D01*
X869147Y1461787D01*
X808217Y1332012D01*
X807132Y1325043D01*
X807131Y1325040D01*
X796597Y1257379D01*
X786161Y1190352D01*
X200500Y1190352D01*
X200500Y2512915D01*
X219407Y2571106D01*
X268907Y2607070D01*
X330093Y2607070D01*
X379593Y2571106D01*
X395765Y2536026D01*
X403050Y2505682D01*
X430847Y2451826D01*
X471855Y2372375D01*
X480291Y2356030D01*
X591000Y2229122D01*
X595882Y2225691D01*
X595883Y2225690D01*
X719544Y2138780D01*
X728784Y2132286D01*
X739854Y2127970D01*
X843215Y2087671D01*
X885691Y2071110D01*
X891606Y2070331D01*
X891607Y2070331D01*
X950361Y2062596D01*
X1014135Y2054200D01*
X1102227Y2054200D01*
X1119176Y2056251D01*
X1221268Y2068605D01*
X1221271Y2068606D01*
X1227190Y2069322D01*
X1237660Y2073278D01*
X1310843Y2100932D01*
X1384729Y2128851D01*
X1389646Y2132231D01*
X1389649Y2132232D01*
X1518602Y2220860D01*
X1523520Y2224240D01*
X1635552Y2349981D01*
X1714356Y2498816D01*
X1750715Y2643567D01*
X1753929Y2656363D01*
X1753929Y2656366D01*
X1755383Y2662153D01*
X1756072Y2793709D01*
X1756234Y2824595D01*
X1756234Y2824597D01*
X1756265Y2830561D01*
X1756117Y2831177D01*
X5294391Y2831177D01*
X5295306Y2824180D01*
X5295306Y2824179D01*
X5309087Y2718789D01*
X5312980Y2689021D01*
X5315821Y2682565D01*
X5315821Y2682564D01*
X5351198Y2602165D01*
X5370720Y2557797D01*
X5409131Y2512101D01*
X5458431Y2453451D01*
X5458434Y2453449D01*
X5462970Y2448052D01*
X5582313Y2368610D01*
X5589044Y2366507D01*
X5595413Y2363469D01*
X5594363Y2361268D01*
X5635254Y2332264D01*
X5654823Y2274292D01*
X5636579Y2215890D01*
X5629748Y2207310D01*
X5564448Y2134019D01*
X5485644Y1985184D01*
X5467176Y1911659D01*
X5448515Y1837364D01*
X5444617Y1821847D01*
X5443735Y1653439D01*
X5466200Y1559868D01*
X5480502Y1500297D01*
X5483050Y1489682D01*
X5510826Y1435867D01*
X5543597Y1372375D01*
X5560291Y1340030D01*
X5671000Y1213122D01*
X5675882Y1209691D01*
X5675883Y1209690D01*
X5787694Y1131108D01*
X5808784Y1116286D01*
X5881438Y1087959D01*
X5956963Y1058513D01*
X5965691Y1055110D01*
X5971606Y1054331D01*
X5971607Y1054331D01*
X6090922Y1038623D01*
X6094135Y1038200D01*
X6182227Y1038200D01*
X6185723Y1038623D01*
X6301268Y1052605D01*
X6301271Y1052606D01*
X6307190Y1053322D01*
X6317660Y1057278D01*
X6405126Y1090329D01*
X6464729Y1112851D01*
X6469646Y1116231D01*
X6469649Y1116232D01*
X6598602Y1204860D01*
X6603520Y1208240D01*
X6715552Y1333981D01*
X6794356Y1482816D01*
X6817010Y1573008D01*
X6833929Y1640363D01*
X6833929Y1640366D01*
X6835383Y1646153D01*
X6836016Y1766968D01*
X6836234Y1808595D01*
X6836234Y1808597D01*
X6836265Y1814561D01*
X6796950Y1978318D01*
X6751486Y2066403D01*
X6722448Y2122664D01*
X6722446Y2122666D01*
X6719709Y2127970D01*
X6609000Y2254878D01*
X6528545Y2311423D01*
X6480510Y2345182D01*
X12859621Y2345182D01*
X12860536Y2338185D01*
X12860536Y2338184D01*
X12874873Y2228542D01*
X12878210Y2203026D01*
X12881051Y2196570D01*
X12881051Y2196569D01*
X12928545Y2088632D01*
X12935950Y2071802D01*
X12965374Y2036798D01*
X13023661Y1967456D01*
X13023664Y1967454D01*
X13028200Y1962057D01*
X13034071Y1958149D01*
X13034072Y1958148D01*
X13046373Y1949960D01*
X13147543Y1882615D01*
X13234002Y1855604D01*
X13277655Y1841966D01*
X13277656Y1841966D01*
X13284387Y1839863D01*
X13356058Y1838549D01*
X13420675Y1837364D01*
X13420677Y1837364D01*
X13427729Y1837235D01*
X13434532Y1839090D01*
X13434534Y1839090D01*
X13518668Y1862028D01*
X13566047Y1874945D01*
X13688221Y1949960D01*
X13695633Y1958148D01*
X13779698Y2051023D01*
X13784430Y2056251D01*
X13833944Y2158449D01*
X13843864Y2178923D01*
X13846940Y2185272D01*
X13850648Y2207307D01*
X13870092Y2322881D01*
X13870092Y2322885D01*
X13870726Y2326651D01*
X13870877Y2339005D01*
X13850553Y2480923D01*
X13819806Y2548548D01*
X13794135Y2605009D01*
X13794134Y2605010D01*
X13791214Y2611433D01*
X13697630Y2720042D01*
X13577325Y2798020D01*
X13439969Y2839098D01*
X13356727Y2839607D01*
X13303657Y2839931D01*
X13303656Y2839931D01*
X13296606Y2839974D01*
X13289829Y2838037D01*
X13289828Y2838037D01*
X13165539Y2802515D01*
X13165537Y2802514D01*
X13158759Y2800577D01*
X13037510Y2724075D01*
X13032843Y2718791D01*
X13032841Y2718789D01*
X12947274Y2621902D01*
X12947272Y2621900D01*
X12942607Y2616617D01*
X12939611Y2610235D01*
X12939610Y2610234D01*
X12937157Y2605009D01*
X12881677Y2486842D01*
X12880592Y2479873D01*
X12880591Y2479870D01*
X12874517Y2440855D01*
X12859621Y2345182D01*
X6480510Y2345182D01*
X6476098Y2348283D01*
X6476097Y2348283D01*
X6471216Y2351714D01*
X6348863Y2399418D01*
X6319870Y2410722D01*
X6319869Y2410722D01*
X6314309Y2412890D01*
X6301958Y2414516D01*
X6246733Y2440855D01*
X6217536Y2494625D01*
X6225784Y2555834D01*
X6278633Y2664915D01*
X6278634Y2664918D01*
X6281710Y2671267D01*
X6283724Y2683234D01*
X6304862Y2808876D01*
X6304862Y2808880D01*
X6305496Y2812646D01*
X6305647Y2825000D01*
X6285323Y2966918D01*
X6282403Y2973341D01*
X6281112Y2977755D01*
X6282927Y3038914D01*
X6320344Y3087325D01*
X6341139Y3098150D01*
X6419613Y3127803D01*
X6464729Y3144851D01*
X6469646Y3148231D01*
X6469649Y3148232D01*
X6598602Y3236860D01*
X6603520Y3240240D01*
X6715552Y3365981D01*
X6718938Y3372375D01*
X6748691Y3428570D01*
X6794356Y3514816D01*
X6828312Y3650000D01*
X6833929Y3672363D01*
X6833929Y3672366D01*
X6835383Y3678153D01*
X6835988Y3793709D01*
X6836234Y3840595D01*
X6836234Y3840597D01*
X6836265Y3846561D01*
X6796950Y4010318D01*
X6750291Y4100718D01*
X6722448Y4154664D01*
X6722446Y4154666D01*
X6719709Y4159970D01*
X6609000Y4286878D01*
X6600886Y4292581D01*
X6476098Y4380283D01*
X6476097Y4380283D01*
X6471216Y4383714D01*
X6383565Y4417888D01*
X14359491Y4417888D01*
X14360406Y4410891D01*
X14360406Y4410890D01*
X14376622Y4286878D01*
X14378080Y4275732D01*
X14380921Y4269276D01*
X14380921Y4269275D01*
X14432408Y4152263D01*
X14435820Y4144508D01*
X14462285Y4113024D01*
X14523531Y4040162D01*
X14523534Y4040160D01*
X14528070Y4034763D01*
X14533941Y4030855D01*
X14533942Y4030854D01*
X14546243Y4022666D01*
X14647413Y3955321D01*
X14736065Y3927625D01*
X14777525Y3914672D01*
X14777526Y3914672D01*
X14784257Y3912569D01*
X14855928Y3911255D01*
X14920545Y3910070D01*
X14920547Y3910070D01*
X14927599Y3909941D01*
X14934402Y3911796D01*
X14934404Y3911796D01*
X15047669Y3942676D01*
X15065917Y3947651D01*
X15188091Y4022666D01*
X15195503Y4030854D01*
X15279568Y4123729D01*
X15284300Y4128957D01*
X15346810Y4257978D01*
X15348370Y4267246D01*
X15369962Y4395587D01*
X15369962Y4395591D01*
X15370596Y4399357D01*
X15370644Y4403225D01*
X15370700Y4407885D01*
X15370747Y4411711D01*
X15350423Y4553629D01*
X15291084Y4684139D01*
X15197500Y4792748D01*
X15077195Y4870726D01*
X14939839Y4911804D01*
X14856597Y4912313D01*
X14803527Y4912637D01*
X14803526Y4912637D01*
X14796476Y4912680D01*
X14789699Y4910743D01*
X14789698Y4910743D01*
X14665409Y4875221D01*
X14665407Y4875220D01*
X14658629Y4873283D01*
X14537380Y4796781D01*
X14532713Y4791497D01*
X14532711Y4791495D01*
X14447144Y4694608D01*
X14447142Y4694606D01*
X14442477Y4689323D01*
X14381547Y4559548D01*
X14380462Y4552579D01*
X14380461Y4552576D01*
X14374719Y4515695D01*
X14359491Y4417888D01*
X6383565Y4417888D01*
X6349445Y4431191D01*
X6319870Y4442722D01*
X6319869Y4442722D01*
X6314309Y4444890D01*
X6308394Y4445669D01*
X6308393Y4445669D01*
X6189078Y4461377D01*
X6185865Y4461800D01*
X6097773Y4461800D01*
X6094807Y4461441D01*
X6094806Y4461441D01*
X5978732Y4447395D01*
X5978729Y4447394D01*
X5972810Y4446678D01*
X5967232Y4444570D01*
X5967231Y4444570D01*
X5941950Y4435017D01*
X5815271Y4387149D01*
X5810354Y4383769D01*
X5810351Y4383768D01*
X5736189Y4332797D01*
X5676480Y4291760D01*
X5564448Y4166019D01*
X5561658Y4160749D01*
X5561657Y4160748D01*
X5552583Y4143610D01*
X5485644Y4017184D01*
X5444617Y3853847D01*
X5443735Y3685439D01*
X5483050Y3521682D01*
X5550379Y3391234D01*
X5560085Y3372429D01*
X5569973Y3312048D01*
X5542481Y3257387D01*
X5524940Y3243296D01*
X5494819Y3224291D01*
X5472280Y3210070D01*
X5467613Y3204786D01*
X5467611Y3204784D01*
X5382044Y3107897D01*
X5382042Y3107895D01*
X5377377Y3102612D01*
X5374381Y3096230D01*
X5374380Y3096229D01*
X5364746Y3075709D01*
X5316447Y2972837D01*
X5315362Y2965868D01*
X5315361Y2965865D01*
X5307665Y2916434D01*
X5294391Y2831177D01*
X1756117Y2831177D01*
X1716950Y2994318D01*
X1674461Y3076639D01*
X1642448Y3138664D01*
X1642446Y3138666D01*
X1639709Y3143970D01*
X1529000Y3270878D01*
X1517245Y3279140D01*
X1396098Y3364283D01*
X1396097Y3364283D01*
X1391216Y3367714D01*
X1234309Y3428890D01*
X1228394Y3429669D01*
X1228393Y3429669D01*
X1109078Y3445377D01*
X1105865Y3445800D01*
X1017773Y3445800D01*
X1014807Y3445441D01*
X1014806Y3445441D01*
X898732Y3431395D01*
X898729Y3431394D01*
X892810Y3430678D01*
X887232Y3428570D01*
X887231Y3428570D01*
X839211Y3410425D01*
X735271Y3371149D01*
X730354Y3367769D01*
X730351Y3367768D01*
X721272Y3361528D01*
X596480Y3275760D01*
X484448Y3150019D01*
X405644Y3001184D01*
X404190Y2995396D01*
X404189Y2995393D01*
X395517Y2960867D01*
X363004Y2909035D01*
X306234Y2886213D01*
X246892Y2901119D01*
X207644Y2948058D01*
X200500Y2984984D01*
X200500Y4441194D01*
X928680Y4441194D01*
X929595Y4434197D01*
X929595Y4434196D01*
X944058Y4323591D01*
X947269Y4299038D01*
X950110Y4292582D01*
X950110Y4292581D01*
X1000476Y4178117D01*
X1005009Y4167814D01*
X1036071Y4130861D01*
X1092720Y4063468D01*
X1092723Y4063466D01*
X1097259Y4058069D01*
X1103130Y4054161D01*
X1103131Y4054160D01*
X1109253Y4050085D01*
X1216602Y3978627D01*
X1307379Y3950267D01*
X1346714Y3937978D01*
X1346715Y3937978D01*
X1353446Y3935875D01*
X1425117Y3934561D01*
X1489734Y3933376D01*
X1489736Y3933376D01*
X1496788Y3933247D01*
X1503591Y3935102D01*
X1503593Y3935102D01*
X1604420Y3962591D01*
X1613172Y3964977D01*
X2294727Y3964977D01*
X2295642Y3957980D01*
X2295642Y3957979D01*
X2298549Y3935746D01*
X2313316Y3822821D01*
X2316157Y3816365D01*
X2316157Y3816364D01*
X2326126Y3793709D01*
X2371056Y3691597D01*
X2406022Y3650000D01*
X2458767Y3587251D01*
X2458770Y3587249D01*
X2463306Y3581852D01*
X2469177Y3577944D01*
X2469178Y3577943D01*
X2481479Y3569755D01*
X2582649Y3502410D01*
X2683256Y3470979D01*
X2712761Y3461761D01*
X2712762Y3461761D01*
X2719493Y3459658D01*
X2791164Y3458344D01*
X2855781Y3457159D01*
X2855783Y3457159D01*
X2862835Y3457030D01*
X2869638Y3458885D01*
X2869640Y3458885D01*
X2944839Y3479387D01*
X3001153Y3494740D01*
X3123327Y3569755D01*
X3130739Y3577943D01*
X3214804Y3670818D01*
X3219536Y3676046D01*
X3282046Y3805067D01*
X3286211Y3829818D01*
X3305198Y3942676D01*
X3305198Y3942680D01*
X3305832Y3946446D01*
X3305983Y3958800D01*
X3285659Y4100718D01*
X3255893Y4166186D01*
X3229241Y4224804D01*
X3229240Y4224805D01*
X3226320Y4231228D01*
X3132736Y4339837D01*
X3012431Y4417815D01*
X2875075Y4458893D01*
X2791833Y4459402D01*
X2738763Y4459726D01*
X2738762Y4459726D01*
X2731712Y4459769D01*
X2724935Y4457832D01*
X2724934Y4457832D01*
X2600645Y4422310D01*
X2600643Y4422309D01*
X2593865Y4420372D01*
X2472616Y4343870D01*
X2467949Y4338586D01*
X2467947Y4338584D01*
X2382380Y4241697D01*
X2382378Y4241695D01*
X2377713Y4236412D01*
X2316783Y4106637D01*
X2315698Y4099668D01*
X2315697Y4099665D01*
X2306816Y4042621D01*
X2294727Y3964977D01*
X1613172Y3964977D01*
X1635106Y3970957D01*
X1757280Y4045972D01*
X1764692Y4054160D01*
X1848757Y4147035D01*
X1853489Y4152263D01*
X1906912Y4262528D01*
X1912923Y4274935D01*
X1915999Y4281284D01*
X1918331Y4295140D01*
X1939151Y4418893D01*
X1939151Y4418897D01*
X1939785Y4422663D01*
X1939936Y4435017D01*
X1919612Y4576935D01*
X1868439Y4689485D01*
X1863194Y4701021D01*
X1863193Y4701022D01*
X1860273Y4707445D01*
X1810632Y4765056D01*
X1786971Y4821481D01*
X1800995Y4881037D01*
X1812231Y4896112D01*
X1853989Y4942246D01*
X1900073Y5037364D01*
X1913423Y5064918D01*
X1916499Y5071267D01*
X1920664Y5096018D01*
X1939651Y5208876D01*
X1939651Y5208880D01*
X1940285Y5212646D01*
X1940436Y5225000D01*
X1920112Y5366918D01*
X1873912Y5468530D01*
X1863694Y5491004D01*
X1863693Y5491005D01*
X1860773Y5497428D01*
X1788268Y5581574D01*
X1771794Y5600693D01*
X1771793Y5600694D01*
X1767189Y5606037D01*
X1646884Y5684015D01*
X1509528Y5725093D01*
X1426286Y5725602D01*
X1373216Y5725926D01*
X1373215Y5725926D01*
X1366165Y5725969D01*
X1359388Y5724032D01*
X1359387Y5724032D01*
X1235098Y5688510D01*
X1235096Y5688509D01*
X1228318Y5686572D01*
X1200926Y5669289D01*
X1126640Y5622418D01*
X1107069Y5610070D01*
X1102402Y5604786D01*
X1102400Y5604784D01*
X1016833Y5507897D01*
X1016831Y5507895D01*
X1012166Y5502612D01*
X1009170Y5496230D01*
X1009169Y5496229D01*
X997398Y5471158D01*
X951236Y5372837D01*
X950151Y5365868D01*
X950150Y5365865D01*
X938901Y5293610D01*
X929180Y5231177D01*
X930095Y5224180D01*
X930095Y5224179D01*
X931446Y5213851D01*
X947769Y5089021D01*
X950610Y5082565D01*
X950610Y5082564D01*
X997635Y4975693D01*
X1005509Y4957797D01*
X1010048Y4952398D01*
X1010048Y4952397D01*
X1059210Y4893911D01*
X1082180Y4837200D01*
X1067429Y4777820D01*
X1057631Y4764675D01*
X1016333Y4717914D01*
X1016331Y4717912D01*
X1011666Y4712629D01*
X950736Y4582854D01*
X949651Y4575885D01*
X949650Y4575882D01*
X938815Y4506291D01*
X928680Y4441194D01*
X200500Y4441194D01*
X200500Y6104077D01*
X4974765Y6104077D01*
X4975680Y6097080D01*
X4975680Y6097079D01*
X4984073Y6032897D01*
X4993354Y5961921D01*
X4996195Y5955465D01*
X4996195Y5955464D01*
X5041983Y5851404D01*
X5051094Y5830697D01*
X5097219Y5775824D01*
X5138805Y5726351D01*
X5138808Y5726349D01*
X5143344Y5720952D01*
X5262687Y5641510D01*
X5350676Y5614021D01*
X5392799Y5600861D01*
X5392800Y5600861D01*
X5399531Y5598758D01*
X5471202Y5597444D01*
X5535819Y5596259D01*
X5535821Y5596259D01*
X5542873Y5596130D01*
X5549676Y5597985D01*
X5549678Y5597985D01*
X5639296Y5622418D01*
X5681191Y5633840D01*
X5738926Y5669289D01*
X5798407Y5683625D01*
X5854955Y5660259D01*
X5866509Y5648624D01*
X5908428Y5598754D01*
X5908433Y5598750D01*
X5912970Y5593352D01*
X5918841Y5589444D01*
X5918842Y5589443D01*
X5931143Y5581255D01*
X6032313Y5513910D01*
X6111237Y5489253D01*
X6162425Y5473261D01*
X6162426Y5473261D01*
X6169157Y5471158D01*
X6240828Y5469844D01*
X6305445Y5468659D01*
X6305447Y5468659D01*
X6312499Y5468530D01*
X6319302Y5470385D01*
X6319304Y5470385D01*
X6418495Y5497428D01*
X6450817Y5506240D01*
X6572991Y5581255D01*
X6580403Y5589443D01*
X6664468Y5682318D01*
X6669200Y5687546D01*
X6712712Y5777355D01*
X6728634Y5810218D01*
X6731710Y5816567D01*
X6734088Y5830697D01*
X6748536Y5916577D01*
X9769791Y5916577D01*
X9770706Y5909580D01*
X9770706Y5909579D01*
X9773153Y5890865D01*
X9788380Y5774421D01*
X9791221Y5767965D01*
X9791221Y5767964D01*
X9838613Y5660259D01*
X9846120Y5643197D01*
X9879720Y5603225D01*
X9933831Y5538851D01*
X9933834Y5538849D01*
X9938370Y5533452D01*
X9944241Y5529544D01*
X9944242Y5529543D01*
X9956543Y5521355D01*
X10057713Y5454010D01*
X10149553Y5425318D01*
X10187825Y5413361D01*
X10187826Y5413361D01*
X10194557Y5411258D01*
X10266228Y5409944D01*
X10330845Y5408759D01*
X10330847Y5408759D01*
X10337899Y5408630D01*
X10344702Y5410485D01*
X10344704Y5410485D01*
X10422397Y5431667D01*
X10476217Y5446340D01*
X10598391Y5521355D01*
X10605803Y5529543D01*
X10689868Y5622418D01*
X10694600Y5627646D01*
X10737912Y5717043D01*
X10754034Y5750318D01*
X10756873Y5756177D01*
X11801188Y5756177D01*
X11802103Y5749180D01*
X11802103Y5749179D01*
X11810290Y5686572D01*
X11819777Y5614021D01*
X11822618Y5607565D01*
X11822618Y5607564D01*
X11871607Y5496229D01*
X11877517Y5482797D01*
X11907326Y5447335D01*
X11965228Y5378451D01*
X11965231Y5378449D01*
X11969767Y5373052D01*
X11975638Y5369144D01*
X11975639Y5369143D01*
X11987940Y5360955D01*
X12089110Y5293610D01*
X12189717Y5262179D01*
X12219222Y5252961D01*
X12219223Y5252961D01*
X12225954Y5250858D01*
X12297625Y5249544D01*
X12362242Y5248359D01*
X12362244Y5248359D01*
X12369296Y5248230D01*
X12376099Y5250085D01*
X12376101Y5250085D01*
X12451300Y5270587D01*
X12507614Y5285940D01*
X12629788Y5360955D01*
X12635186Y5366918D01*
X12721265Y5462018D01*
X12725997Y5467246D01*
X12786235Y5591577D01*
X17279789Y5591577D01*
X17280704Y5584580D01*
X17280704Y5584579D01*
X17291401Y5502774D01*
X17298378Y5449421D01*
X17301219Y5442965D01*
X17301219Y5442964D01*
X17338929Y5357263D01*
X17356118Y5318197D01*
X17380132Y5289629D01*
X17443829Y5213851D01*
X17443832Y5213849D01*
X17448368Y5208452D01*
X17454239Y5204544D01*
X17454240Y5204543D01*
X17541463Y5146482D01*
X17579426Y5098498D01*
X17581935Y5037364D01*
X17548031Y4986431D01*
X17539433Y4980344D01*
X17503698Y4957797D01*
X17467678Y4935070D01*
X17463011Y4929786D01*
X17463009Y4929784D01*
X17377442Y4832897D01*
X17377440Y4832895D01*
X17372775Y4827612D01*
X17311845Y4697837D01*
X17310760Y4690868D01*
X17310759Y4690865D01*
X17308712Y4677715D01*
X17289789Y4556177D01*
X17290704Y4549180D01*
X17290704Y4549179D01*
X17302396Y4459769D01*
X17308378Y4414021D01*
X17311219Y4407565D01*
X17311219Y4407564D01*
X17324064Y4378373D01*
X17366118Y4282797D01*
X17400666Y4241697D01*
X17453829Y4178451D01*
X17453832Y4178449D01*
X17458368Y4173052D01*
X17464239Y4169144D01*
X17464240Y4169143D01*
X17480067Y4158608D01*
X17577711Y4093610D01*
X17648617Y4071458D01*
X17707823Y4052961D01*
X17707824Y4052961D01*
X17714555Y4050858D01*
X17786226Y4049544D01*
X17850843Y4048359D01*
X17850845Y4048359D01*
X17857897Y4048230D01*
X17864700Y4050085D01*
X17864702Y4050085D01*
X17958688Y4075709D01*
X17996215Y4085940D01*
X18118389Y4160955D01*
X18124598Y4167814D01*
X18209866Y4262018D01*
X18214598Y4267246D01*
X18277108Y4396267D01*
X18279569Y4410890D01*
X18300260Y4533876D01*
X18300260Y4533880D01*
X18300894Y4537646D01*
X18301045Y4550000D01*
X18280721Y4691918D01*
X18240215Y4781007D01*
X18224303Y4816004D01*
X18224302Y4816005D01*
X18221382Y4822428D01*
X18143653Y4912637D01*
X18132403Y4925693D01*
X18132402Y4925694D01*
X18127798Y4931037D01*
X18039811Y4988067D01*
X18001268Y5035581D01*
X17998012Y5096679D01*
X18031291Y5148023D01*
X18041860Y5155506D01*
X18102376Y5192663D01*
X18108389Y5196355D01*
X18115801Y5204543D01*
X18199866Y5297418D01*
X18204598Y5302646D01*
X18267108Y5431667D01*
X18269096Y5443479D01*
X18290260Y5569276D01*
X18290260Y5569280D01*
X18290894Y5573046D01*
X18291045Y5585400D01*
X18270721Y5727318D01*
X18226979Y5823525D01*
X18214303Y5851404D01*
X18214302Y5851405D01*
X18211382Y5857828D01*
X18131961Y5950000D01*
X20304815Y5950000D01*
X20323503Y5772197D01*
X20325104Y5767270D01*
X20325105Y5767265D01*
X20372169Y5622418D01*
X20378750Y5602165D01*
X20381341Y5597677D01*
X20381342Y5597675D01*
X20455904Y5468530D01*
X20468141Y5447335D01*
X20587770Y5314474D01*
X20591968Y5311424D01*
X20591969Y5311423D01*
X20619380Y5291508D01*
X20732407Y5209388D01*
X20814070Y5173029D01*
X20890995Y5138780D01*
X20890999Y5138779D01*
X20895733Y5136671D01*
X20900803Y5135593D01*
X20900804Y5135593D01*
X20923067Y5130861D01*
X21070609Y5099500D01*
X21249391Y5099500D01*
X21396933Y5130861D01*
X21419196Y5135593D01*
X21419197Y5135593D01*
X21424267Y5136671D01*
X21429001Y5138779D01*
X21429005Y5138780D01*
X21505930Y5173029D01*
X21587593Y5209388D01*
X21700620Y5291508D01*
X21728031Y5311423D01*
X21728032Y5311424D01*
X21732230Y5314474D01*
X21851859Y5447335D01*
X21864096Y5468530D01*
X21938658Y5597675D01*
X21938659Y5597677D01*
X21941250Y5602165D01*
X21947831Y5622418D01*
X21994895Y5767265D01*
X21994896Y5767270D01*
X21996497Y5772197D01*
X22015185Y5950000D01*
X22013454Y5966474D01*
X22005388Y6043209D01*
X21996497Y6127803D01*
X21994896Y6132730D01*
X21994895Y6132735D01*
X21942852Y6292905D01*
X21942851Y6292906D01*
X21941250Y6297835D01*
X21908146Y6355174D01*
X21854452Y6448174D01*
X21854451Y6448175D01*
X21851859Y6452665D01*
X21732230Y6585526D01*
X21587593Y6690612D01*
X21475075Y6740708D01*
X21429005Y6761220D01*
X21429001Y6761221D01*
X21424267Y6763329D01*
X21419197Y6764407D01*
X21419196Y6764407D01*
X21385272Y6771618D01*
X21249391Y6800500D01*
X21070609Y6800500D01*
X20934728Y6771618D01*
X20900804Y6764407D01*
X20900803Y6764407D01*
X20895733Y6763329D01*
X20890999Y6761221D01*
X20890995Y6761220D01*
X20737142Y6692720D01*
X20737140Y6692719D01*
X20732408Y6690612D01*
X20587770Y6585526D01*
X20584304Y6581676D01*
X20584300Y6581673D01*
X20516728Y6506626D01*
X20468141Y6452665D01*
X20465549Y6448175D01*
X20465548Y6448174D01*
X20411855Y6355174D01*
X20378750Y6297835D01*
X20377149Y6292906D01*
X20377148Y6292905D01*
X20325105Y6132735D01*
X20325104Y6132730D01*
X20323503Y6127803D01*
X20314612Y6043209D01*
X20306547Y5966474D01*
X20304815Y5950000D01*
X18131961Y5950000D01*
X18127253Y5955464D01*
X18122403Y5961093D01*
X18122402Y5961094D01*
X18117798Y5966437D01*
X17997493Y6044415D01*
X17860137Y6085493D01*
X17776895Y6086002D01*
X17723825Y6086326D01*
X17723824Y6086326D01*
X17716774Y6086369D01*
X17709997Y6084432D01*
X17709996Y6084432D01*
X17585707Y6048910D01*
X17585705Y6048909D01*
X17578927Y6046972D01*
X17457678Y5970470D01*
X17453011Y5965186D01*
X17453009Y5965184D01*
X17367442Y5868297D01*
X17367440Y5868295D01*
X17362775Y5863012D01*
X17301845Y5733237D01*
X17300760Y5726268D01*
X17300759Y5726265D01*
X17288831Y5649653D01*
X17279789Y5591577D01*
X12786235Y5591577D01*
X12788507Y5596267D01*
X12790797Y5609874D01*
X12811659Y5733876D01*
X12811659Y5733880D01*
X12812293Y5737646D01*
X12812444Y5750000D01*
X12792120Y5891918D01*
X12758808Y5965184D01*
X12735702Y6016004D01*
X12735701Y6016005D01*
X12732781Y6022428D01*
X12662427Y6104077D01*
X12643802Y6125693D01*
X12643801Y6125694D01*
X12639197Y6131037D01*
X12518892Y6209015D01*
X12381536Y6250093D01*
X12298294Y6250602D01*
X12245224Y6250926D01*
X12245223Y6250926D01*
X12238173Y6250969D01*
X12231396Y6249032D01*
X12231395Y6249032D01*
X12107106Y6213510D01*
X12107104Y6213509D01*
X12100326Y6211572D01*
X11979077Y6135070D01*
X11974410Y6129786D01*
X11974408Y6129784D01*
X11888841Y6032897D01*
X11888839Y6032895D01*
X11884174Y6027612D01*
X11823244Y5897837D01*
X11822159Y5890868D01*
X11822158Y5890865D01*
X11809602Y5810218D01*
X11801188Y5756177D01*
X10756873Y5756177D01*
X10757110Y5756667D01*
X10761275Y5781418D01*
X10780262Y5894276D01*
X10780262Y5894280D01*
X10780896Y5898046D01*
X10781047Y5910400D01*
X10760723Y6052318D01*
X10701384Y6182828D01*
X10607800Y6291437D01*
X10487495Y6369415D01*
X10350139Y6410493D01*
X10266897Y6411002D01*
X10213827Y6411326D01*
X10213826Y6411326D01*
X10206776Y6411369D01*
X10199999Y6409432D01*
X10199998Y6409432D01*
X10075709Y6373910D01*
X10075707Y6373909D01*
X10068929Y6371972D01*
X9947680Y6295470D01*
X9943013Y6290186D01*
X9943011Y6290184D01*
X9857444Y6193297D01*
X9857442Y6193295D01*
X9852777Y6188012D01*
X9791847Y6058237D01*
X9790762Y6051268D01*
X9790761Y6051265D01*
X9786085Y6021229D01*
X9769791Y5916577D01*
X6748536Y5916577D01*
X6754862Y5954176D01*
X6754862Y5954180D01*
X6755496Y5957946D01*
X6755647Y5970300D01*
X6735323Y6112218D01*
X6691312Y6209015D01*
X6678905Y6236304D01*
X6678904Y6236305D01*
X6675984Y6242728D01*
X6582400Y6351337D01*
X6462095Y6429315D01*
X6324739Y6470393D01*
X6241497Y6470902D01*
X6188427Y6471226D01*
X6188426Y6471226D01*
X6181376Y6471269D01*
X6174599Y6469332D01*
X6174598Y6469332D01*
X6050309Y6433810D01*
X6050307Y6433809D01*
X6043529Y6431872D01*
X5992458Y6399649D01*
X5933156Y6384588D01*
X5876327Y6407260D01*
X5864632Y6418753D01*
X5857430Y6427112D01*
X5823212Y6466823D01*
X5817379Y6473593D01*
X5817378Y6473594D01*
X5812774Y6478937D01*
X5692469Y6556915D01*
X5555113Y6597993D01*
X5471871Y6598502D01*
X5418801Y6598826D01*
X5418800Y6598826D01*
X5411750Y6598869D01*
X5404973Y6596932D01*
X5404972Y6596932D01*
X5280683Y6561410D01*
X5280681Y6561409D01*
X5273903Y6559472D01*
X5152654Y6482970D01*
X5147987Y6477686D01*
X5147985Y6477684D01*
X5062418Y6380797D01*
X5062416Y6380795D01*
X5057751Y6375512D01*
X4996821Y6245737D01*
X4995736Y6238768D01*
X4995735Y6238765D01*
X4986026Y6176404D01*
X4974765Y6104077D01*
X200500Y6104077D01*
X200500Y6408392D01*
X219407Y6466583D01*
X268907Y6502547D01*
X330093Y6502547D01*
X337385Y6499856D01*
X369068Y6486733D01*
X415091Y6467670D01*
X421520Y6466824D01*
X421522Y6466823D01*
X552367Y6449597D01*
X558800Y6448750D01*
X565233Y6449597D01*
X696078Y6466823D01*
X696080Y6466824D01*
X702509Y6467670D01*
X836425Y6523139D01*
X917729Y6585526D01*
X946272Y6607428D01*
X951421Y6611379D01*
X1039661Y6726375D01*
X1095130Y6860291D01*
X1096418Y6870068D01*
X1113203Y6997567D01*
X1114050Y7004000D01*
X1095130Y7147709D01*
X1039661Y7281625D01*
X993211Y7342159D01*
X9181059Y7342159D01*
X9181974Y7335162D01*
X9181974Y7335161D01*
X9187730Y7291142D01*
X9199648Y7200003D01*
X9202489Y7193547D01*
X9202489Y7193546D01*
X9225488Y7141278D01*
X9257388Y7068779D01*
X9285513Y7035320D01*
X9345099Y6964433D01*
X9345102Y6964431D01*
X9349638Y6959034D01*
X9355509Y6955126D01*
X9355510Y6955125D01*
X9367811Y6946937D01*
X9468981Y6879592D01*
X9569588Y6848161D01*
X9599093Y6838943D01*
X9599094Y6838943D01*
X9605825Y6836840D01*
X9677496Y6835526D01*
X9742113Y6834341D01*
X9742115Y6834341D01*
X9749167Y6834212D01*
X9755970Y6836067D01*
X9755972Y6836067D01*
X9844823Y6860291D01*
X9887485Y6871922D01*
X9922889Y6893660D01*
X17102530Y6893660D01*
X17103445Y6886663D01*
X17103445Y6886662D01*
X17106893Y6860291D01*
X17121119Y6751504D01*
X17123960Y6745048D01*
X17123960Y6745047D01*
X17146985Y6692720D01*
X17178859Y6620280D01*
X17211314Y6581670D01*
X17266570Y6515934D01*
X17266573Y6515932D01*
X17271109Y6510535D01*
X17276980Y6506627D01*
X17276981Y6506626D01*
X17289282Y6498438D01*
X17390452Y6431093D01*
X17466739Y6407260D01*
X17520564Y6390444D01*
X17520565Y6390444D01*
X17527296Y6388341D01*
X17598967Y6387027D01*
X17663584Y6385842D01*
X17663586Y6385842D01*
X17670638Y6385713D01*
X17677441Y6387568D01*
X17677443Y6387568D01*
X17757638Y6409432D01*
X17808956Y6423423D01*
X17931130Y6498438D01*
X17938542Y6506626D01*
X18022607Y6599501D01*
X18027339Y6604729D01*
X18089849Y6733750D01*
X18094014Y6758501D01*
X18113001Y6871359D01*
X18113001Y6871363D01*
X18113635Y6875129D01*
X18113786Y6887483D01*
X18093462Y7029401D01*
X18034123Y7159911D01*
X17940539Y7268520D01*
X17820234Y7346498D01*
X17682878Y7387576D01*
X17599636Y7388085D01*
X17546566Y7388409D01*
X17546565Y7388409D01*
X17539515Y7388452D01*
X17532738Y7386515D01*
X17532737Y7386515D01*
X17408448Y7350993D01*
X17408446Y7350992D01*
X17401668Y7349055D01*
X17280419Y7272553D01*
X17275752Y7267269D01*
X17275750Y7267267D01*
X17190183Y7170380D01*
X17190181Y7170378D01*
X17185516Y7165095D01*
X17124586Y7035320D01*
X17123501Y7028351D01*
X17123500Y7028348D01*
X17110825Y6946937D01*
X17102530Y6893660D01*
X9922889Y6893660D01*
X10009659Y6946937D01*
X10017071Y6955125D01*
X10101136Y7048000D01*
X10105868Y7053228D01*
X10160067Y7165095D01*
X10165302Y7175900D01*
X10168378Y7182249D01*
X10172543Y7207000D01*
X10191530Y7319858D01*
X10191530Y7319862D01*
X10192164Y7323628D01*
X10192211Y7327447D01*
X10192553Y7331264D01*
X10193653Y7331165D01*
X10211827Y7384840D01*
X10261765Y7420192D01*
X10293011Y7424651D01*
X10304991Y7424431D01*
X10331714Y7423941D01*
X10331716Y7423941D01*
X10338767Y7423812D01*
X10345570Y7425667D01*
X10345572Y7425667D01*
X10457228Y7456108D01*
X10518343Y7453172D01*
X10566945Y7413214D01*
X10569348Y7407753D01*
X10573882Y7402359D01*
X10573884Y7402356D01*
X10657059Y7303407D01*
X10657062Y7303405D01*
X10661598Y7298008D01*
X10667469Y7294100D01*
X10667470Y7294099D01*
X10694185Y7276316D01*
X10780941Y7218566D01*
X10861027Y7193546D01*
X10911053Y7177917D01*
X10911054Y7177917D01*
X10917785Y7175814D01*
X10989456Y7174500D01*
X11054073Y7173315D01*
X11054075Y7173315D01*
X11061127Y7173186D01*
X11067930Y7175041D01*
X11067932Y7175041D01*
X11159490Y7200003D01*
X11199445Y7210896D01*
X11321619Y7285911D01*
X11329031Y7294099D01*
X11413096Y7386974D01*
X11417828Y7392202D01*
X11465310Y7490206D01*
X11477262Y7514874D01*
X11480338Y7521223D01*
X11483353Y7539139D01*
X11503490Y7658832D01*
X11503490Y7658836D01*
X11504124Y7662602D01*
X11504275Y7674956D01*
X11483951Y7816874D01*
X11446156Y7900000D01*
X11443348Y7906177D01*
X18894391Y7906177D01*
X18895306Y7899180D01*
X18895306Y7899179D01*
X18896814Y7887646D01*
X18912980Y7764021D01*
X18915821Y7757565D01*
X18915821Y7757564D01*
X18952170Y7674956D01*
X18970720Y7632797D01*
X18997412Y7601043D01*
X19058431Y7528451D01*
X19058434Y7528449D01*
X19062970Y7523052D01*
X19068841Y7519144D01*
X19068842Y7519143D01*
X19079573Y7512000D01*
X19182313Y7443610D01*
X19280583Y7412909D01*
X19312425Y7402961D01*
X19312426Y7402961D01*
X19319157Y7400858D01*
X19390828Y7399544D01*
X19455445Y7398359D01*
X19455447Y7398359D01*
X19462499Y7398230D01*
X19469302Y7400085D01*
X19469304Y7400085D01*
X19556805Y7423941D01*
X19600817Y7435940D01*
X19722991Y7510955D01*
X19730403Y7519143D01*
X19814468Y7612018D01*
X19819200Y7617246D01*
X19881710Y7746267D01*
X19885875Y7771018D01*
X19904862Y7883876D01*
X19904862Y7883880D01*
X19905496Y7887646D01*
X19905647Y7900000D01*
X19885323Y8041918D01*
X19842307Y8136528D01*
X19828905Y8166004D01*
X19828904Y8166005D01*
X19825984Y8172428D01*
X19732400Y8281037D01*
X19612095Y8359015D01*
X19474739Y8400093D01*
X19391497Y8400602D01*
X19338427Y8400926D01*
X19338426Y8400926D01*
X19331376Y8400969D01*
X19324599Y8399032D01*
X19324598Y8399032D01*
X19200309Y8363510D01*
X19200307Y8363509D01*
X19193529Y8361572D01*
X19169437Y8346371D01*
X19097964Y8301275D01*
X19072280Y8285070D01*
X19067613Y8279786D01*
X19067611Y8279784D01*
X18982044Y8182897D01*
X18982042Y8182895D01*
X18977377Y8177612D01*
X18916447Y8047837D01*
X18915362Y8040868D01*
X18915361Y8040865D01*
X18905622Y7978314D01*
X18894391Y7906177D01*
X11443348Y7906177D01*
X11427533Y7940960D01*
X11427532Y7940961D01*
X11424612Y7947384D01*
X11338056Y8047837D01*
X11335633Y8050649D01*
X11335632Y8050650D01*
X11331028Y8055993D01*
X11210723Y8133971D01*
X11073367Y8175049D01*
X10990125Y8175558D01*
X10937055Y8175882D01*
X10937054Y8175882D01*
X10930004Y8175925D01*
X10819270Y8144277D01*
X10758126Y8146466D01*
X10708664Y8186127D01*
X10705173Y8191585D01*
X10702252Y8198010D01*
X10627236Y8285070D01*
X10613273Y8301275D01*
X10613272Y8301276D01*
X10608668Y8306619D01*
X10488363Y8384597D01*
X10351007Y8425675D01*
X10267765Y8426184D01*
X10214695Y8426508D01*
X10214694Y8426508D01*
X10207644Y8426551D01*
X10200867Y8424614D01*
X10200866Y8424614D01*
X10076577Y8389092D01*
X10076575Y8389091D01*
X10069797Y8387154D01*
X10032323Y8363510D01*
X10005160Y8346371D01*
X9948548Y8310652D01*
X9943881Y8305368D01*
X9943879Y8305366D01*
X9858312Y8208479D01*
X9858310Y8208477D01*
X9853645Y8203194D01*
X9850649Y8196812D01*
X9850648Y8196811D01*
X9846216Y8187371D01*
X9792715Y8073419D01*
X9791630Y8066450D01*
X9791629Y8066447D01*
X9777907Y7978314D01*
X9770659Y7931759D01*
X9770697Y7931469D01*
X9752074Y7876454D01*
X9702138Y7841097D01*
X9672095Y7836621D01*
X9625095Y7836908D01*
X9625094Y7836908D01*
X9618044Y7836951D01*
X9611267Y7835014D01*
X9611266Y7835014D01*
X9486977Y7799492D01*
X9486975Y7799491D01*
X9480197Y7797554D01*
X9358948Y7721052D01*
X9354281Y7715768D01*
X9354279Y7715766D01*
X9268712Y7618879D01*
X9268710Y7618877D01*
X9264045Y7613594D01*
X9203115Y7483819D01*
X9202030Y7476850D01*
X9202029Y7476847D01*
X9188737Y7391472D01*
X9181059Y7342159D01*
X993211Y7342159D01*
X951421Y7396621D01*
X946272Y7400572D01*
X946269Y7400575D01*
X903415Y7433458D01*
X868759Y7483882D01*
X870360Y7545047D01*
X903415Y7590542D01*
X946269Y7623425D01*
X946272Y7623428D01*
X951421Y7627379D01*
X1039661Y7742375D01*
X1095130Y7876291D01*
X1098144Y7899179D01*
X1113203Y8013567D01*
X1114050Y8020000D01*
X1103017Y8103804D01*
X1095977Y8157278D01*
X1095976Y8157280D01*
X1095130Y8163709D01*
X1039661Y8297625D01*
X951421Y8412621D01*
X861618Y8481530D01*
X13219038Y8481530D01*
X13219953Y8474533D01*
X13219953Y8474532D01*
X13236712Y8346371D01*
X13237627Y8339374D01*
X13240468Y8332918D01*
X13240468Y8332917D01*
X13261608Y8284874D01*
X13295367Y8208150D01*
X13338129Y8157278D01*
X13383078Y8103804D01*
X13383081Y8103802D01*
X13387617Y8098405D01*
X13393488Y8094497D01*
X13393489Y8094496D01*
X13405790Y8086308D01*
X13506960Y8018963D01*
X13607567Y7987532D01*
X13637072Y7978314D01*
X13637073Y7978314D01*
X13643804Y7976211D01*
X13715475Y7974897D01*
X13780092Y7973712D01*
X13780094Y7973712D01*
X13787146Y7973583D01*
X13793949Y7975438D01*
X13793951Y7975438D01*
X13869150Y7995940D01*
X13925464Y8011293D01*
X14047638Y8086308D01*
X14055050Y8094496D01*
X14139115Y8187371D01*
X14143847Y8192599D01*
X14206357Y8321620D01*
X14210522Y8346371D01*
X14229509Y8459229D01*
X14229509Y8459233D01*
X14230143Y8462999D01*
X14230294Y8475353D01*
X14209970Y8617271D01*
X14168373Y8708759D01*
X14153552Y8741357D01*
X14153551Y8741358D01*
X14150631Y8747781D01*
X14057047Y8856390D01*
X13936742Y8934368D01*
X13799386Y8975446D01*
X13716144Y8975955D01*
X13663074Y8976279D01*
X13663073Y8976279D01*
X13656023Y8976322D01*
X13649246Y8974385D01*
X13649245Y8974385D01*
X13524956Y8938863D01*
X13524954Y8938862D01*
X13518176Y8936925D01*
X13396927Y8860423D01*
X13392260Y8855139D01*
X13392258Y8855137D01*
X13306691Y8758250D01*
X13306689Y8758248D01*
X13302024Y8752965D01*
X13299028Y8746583D01*
X13299027Y8746582D01*
X13298043Y8744486D01*
X13241094Y8623190D01*
X13240009Y8616221D01*
X13240008Y8616218D01*
X13229903Y8551313D01*
X13219038Y8481530D01*
X861618Y8481530D01*
X836425Y8500861D01*
X702509Y8556330D01*
X696080Y8557176D01*
X696078Y8557177D01*
X565233Y8574403D01*
X558800Y8575250D01*
X552367Y8574403D01*
X421522Y8557177D01*
X421520Y8557176D01*
X415091Y8556330D01*
X402979Y8551313D01*
X337385Y8524144D01*
X276388Y8519344D01*
X224219Y8551313D01*
X200805Y8607842D01*
X200500Y8615608D01*
X200500Y9704392D01*
X207770Y9726766D01*
X9764980Y9726766D01*
X9765895Y9719769D01*
X9765895Y9719768D01*
X9782570Y9592246D01*
X9783569Y9584610D01*
X9786410Y9578154D01*
X9786410Y9578153D01*
X9827584Y9484579D01*
X9841309Y9453386D01*
X9878547Y9409086D01*
X9929020Y9349040D01*
X9929023Y9349038D01*
X9933559Y9343641D01*
X9939430Y9339733D01*
X9939431Y9339732D01*
X9951547Y9331667D01*
X10052902Y9264199D01*
X10153509Y9232768D01*
X10183014Y9223550D01*
X10183015Y9223550D01*
X10189746Y9221447D01*
X10261417Y9220133D01*
X10326034Y9218948D01*
X10326036Y9218948D01*
X10333088Y9218819D01*
X10339891Y9220674D01*
X10339893Y9220674D01*
X10415092Y9241176D01*
X10471406Y9256529D01*
X10593580Y9331544D01*
X10599990Y9338625D01*
X10685057Y9432607D01*
X10689789Y9437835D01*
X10715827Y9491577D01*
X12379289Y9491577D01*
X12380204Y9484580D01*
X12380204Y9484579D01*
X12389351Y9414629D01*
X12397878Y9349421D01*
X12400719Y9342965D01*
X12400719Y9342964D01*
X12436302Y9262097D01*
X12455618Y9218197D01*
X12501743Y9163324D01*
X12543329Y9113851D01*
X12543332Y9113849D01*
X12547868Y9108452D01*
X12553739Y9104544D01*
X12553740Y9104543D01*
X12566041Y9096355D01*
X12667211Y9029010D01*
X12767818Y8997579D01*
X12797323Y8988361D01*
X12797324Y8988361D01*
X12804055Y8986258D01*
X12875726Y8984944D01*
X12940343Y8983759D01*
X12940345Y8983759D01*
X12947397Y8983630D01*
X12954200Y8985485D01*
X12954202Y8985485D01*
X13062159Y9014918D01*
X13085715Y9021340D01*
X13207889Y9096355D01*
X13215301Y9104543D01*
X13299366Y9197418D01*
X13304098Y9202646D01*
X13310847Y9216577D01*
X17057680Y9216577D01*
X17058595Y9209580D01*
X17058595Y9209579D01*
X17060103Y9198046D01*
X17076269Y9074421D01*
X17079110Y9067965D01*
X17079110Y9067964D01*
X17119453Y8976279D01*
X17134009Y8943197D01*
X17144657Y8930530D01*
X17221720Y8838851D01*
X17221723Y8838849D01*
X17226259Y8833452D01*
X17232130Y8829544D01*
X17232131Y8829543D01*
X17244432Y8821355D01*
X17345602Y8754010D01*
X17446209Y8722579D01*
X17475714Y8713361D01*
X17475715Y8713361D01*
X17482446Y8711258D01*
X17554117Y8709944D01*
X17618734Y8708759D01*
X17618736Y8708759D01*
X17625788Y8708630D01*
X17632591Y8710485D01*
X17632593Y8710485D01*
X17707792Y8730987D01*
X17764106Y8746340D01*
X17886280Y8821355D01*
X17893692Y8829543D01*
X17977757Y8922418D01*
X17982489Y8927646D01*
X18044999Y9056667D01*
X18049164Y9081418D01*
X18068151Y9194276D01*
X18068151Y9194280D01*
X18068785Y9198046D01*
X18068936Y9210400D01*
X18048612Y9352318D01*
X18006845Y9444180D01*
X17992194Y9476404D01*
X17992193Y9476405D01*
X17989273Y9482828D01*
X17922340Y9560507D01*
X17900294Y9586093D01*
X17900293Y9586094D01*
X17895689Y9591437D01*
X17775384Y9669415D01*
X17638028Y9710493D01*
X17554786Y9711002D01*
X17501716Y9711326D01*
X17501715Y9711326D01*
X17494665Y9711369D01*
X17487888Y9709432D01*
X17487887Y9709432D01*
X17363598Y9673910D01*
X17363596Y9673909D01*
X17356818Y9671972D01*
X17235569Y9595470D01*
X17230902Y9590186D01*
X17230900Y9590184D01*
X17145333Y9493297D01*
X17145331Y9493295D01*
X17140666Y9488012D01*
X17137670Y9481630D01*
X17137669Y9481629D01*
X17121874Y9447987D01*
X17079736Y9358237D01*
X17078651Y9351268D01*
X17078650Y9351265D01*
X17073139Y9315865D01*
X17057680Y9216577D01*
X13310847Y9216577D01*
X13366608Y9331667D01*
X13368908Y9345334D01*
X13389760Y9469276D01*
X13389760Y9469280D01*
X13390394Y9473046D01*
X13390545Y9485400D01*
X13370221Y9627318D01*
X13335145Y9704465D01*
X13313803Y9751404D01*
X13313802Y9751405D01*
X13310882Y9757828D01*
X13217298Y9866437D01*
X13096993Y9944415D01*
X12959637Y9985493D01*
X12876395Y9986002D01*
X12823325Y9986326D01*
X12823324Y9986326D01*
X12816274Y9986369D01*
X12809497Y9984432D01*
X12809496Y9984432D01*
X12685207Y9948910D01*
X12685205Y9948909D01*
X12678427Y9946972D01*
X12557178Y9870470D01*
X12552511Y9865186D01*
X12552509Y9865184D01*
X12466942Y9768297D01*
X12466940Y9768295D01*
X12462275Y9763012D01*
X12459279Y9756630D01*
X12459278Y9756629D01*
X12442357Y9720589D01*
X12401345Y9633237D01*
X12400260Y9626268D01*
X12400259Y9626265D01*
X12392093Y9573814D01*
X12379289Y9491577D01*
X10715827Y9491577D01*
X10752299Y9566856D01*
X10755536Y9586093D01*
X10775451Y9704465D01*
X10775451Y9704469D01*
X10776085Y9708235D01*
X10776236Y9720589D01*
X10755912Y9862507D01*
X10705945Y9972404D01*
X10699494Y9986593D01*
X10699493Y9986594D01*
X10696573Y9993017D01*
X10602989Y10101626D01*
X10482684Y10179604D01*
X10345328Y10220682D01*
X10262086Y10221191D01*
X10209016Y10221515D01*
X10209015Y10221515D01*
X10201965Y10221558D01*
X10195188Y10219621D01*
X10195187Y10219621D01*
X10070898Y10184099D01*
X10070896Y10184098D01*
X10064118Y10182161D01*
X9942869Y10105659D01*
X9938202Y10100375D01*
X9938200Y10100373D01*
X9852633Y10003486D01*
X9852631Y10003484D01*
X9847966Y9998201D01*
X9844970Y9991819D01*
X9844969Y9991818D01*
X9838955Y9979008D01*
X9787036Y9868426D01*
X9785951Y9861457D01*
X9785950Y9861454D01*
X9771446Y9768297D01*
X9764980Y9726766D01*
X207770Y9726766D01*
X219407Y9762583D01*
X268907Y9798547D01*
X330093Y9798547D01*
X337385Y9795856D01*
X382205Y9777291D01*
X415091Y9763670D01*
X421520Y9762824D01*
X421522Y9762823D01*
X552367Y9745597D01*
X558800Y9744750D01*
X565233Y9745597D01*
X696078Y9762823D01*
X696080Y9762824D01*
X702509Y9763670D01*
X836425Y9819139D01*
X951421Y9907379D01*
X1039661Y10022375D01*
X1095130Y10156291D01*
X1095987Y10162796D01*
X1113203Y10293567D01*
X1114050Y10300000D01*
X1104327Y10373853D01*
X1095977Y10437278D01*
X1095976Y10437280D01*
X1095130Y10443709D01*
X1039661Y10577625D01*
X991203Y10640777D01*
X2133737Y10640777D01*
X2134652Y10633780D01*
X2134652Y10633779D01*
X2136160Y10622246D01*
X2152326Y10498621D01*
X2155167Y10492165D01*
X2155167Y10492164D01*
X2187240Y10419274D01*
X2210066Y10367397D01*
X2251637Y10317942D01*
X2297777Y10263051D01*
X2297780Y10263049D01*
X2302316Y10257652D01*
X2308187Y10253744D01*
X2308188Y10253743D01*
X2320489Y10245555D01*
X2421659Y10178210D01*
X2520227Y10147416D01*
X2551771Y10137561D01*
X2551772Y10137561D01*
X2558503Y10135458D01*
X2630174Y10134144D01*
X2694791Y10132959D01*
X2694793Y10132959D01*
X2701845Y10132830D01*
X2708648Y10134685D01*
X2708650Y10134685D01*
X2783849Y10155187D01*
X2840163Y10170540D01*
X2962337Y10245555D01*
X2969749Y10253743D01*
X3053814Y10346618D01*
X3058546Y10351846D01*
X3102019Y10441575D01*
X5469391Y10441575D01*
X5470306Y10434578D01*
X5470306Y10434577D01*
X5475767Y10392816D01*
X5487980Y10299419D01*
X5490821Y10292963D01*
X5490821Y10292962D01*
X5542389Y10175766D01*
X5545720Y10168195D01*
X5591845Y10113323D01*
X5633431Y10063849D01*
X5633434Y10063847D01*
X5637970Y10058450D01*
X5643841Y10054542D01*
X5643842Y10054541D01*
X5656143Y10046353D01*
X5757313Y9979008D01*
X5853653Y9948910D01*
X5887425Y9938359D01*
X5887426Y9938359D01*
X5894157Y9936256D01*
X5965828Y9934942D01*
X6030445Y9933757D01*
X6030447Y9933757D01*
X6037499Y9933628D01*
X6044302Y9935483D01*
X6044304Y9935483D01*
X6119503Y9955985D01*
X6175817Y9971338D01*
X6297991Y10046353D01*
X6305403Y10054541D01*
X6389468Y10147416D01*
X6394200Y10152644D01*
X6456710Y10281665D01*
X6458491Y10292246D01*
X6479862Y10419274D01*
X6479862Y10419278D01*
X6480496Y10423044D01*
X6480647Y10435398D01*
X6474567Y10477852D01*
X13416066Y10477852D01*
X13416981Y10470855D01*
X13416981Y10470854D01*
X13418489Y10459321D01*
X13434655Y10335696D01*
X13437496Y10329240D01*
X13437496Y10329239D01*
X13485244Y10220725D01*
X13492395Y10204472D01*
X13529368Y10160487D01*
X13580106Y10100126D01*
X13580109Y10100124D01*
X13584645Y10094727D01*
X13590516Y10090819D01*
X13590517Y10090818D01*
X13602818Y10082630D01*
X13703988Y10015285D01*
X13795828Y9986593D01*
X13834100Y9974636D01*
X13834101Y9974636D01*
X13840832Y9972533D01*
X13912503Y9971219D01*
X13977120Y9970034D01*
X13977122Y9970034D01*
X13984174Y9969905D01*
X13990977Y9971760D01*
X13990979Y9971760D01*
X14088556Y9998363D01*
X14122492Y10007615D01*
X14244666Y10082630D01*
X14252078Y10090818D01*
X14336143Y10183693D01*
X14340875Y10188921D01*
X14403385Y10317942D01*
X14407550Y10342693D01*
X14426537Y10455551D01*
X14426537Y10455555D01*
X14427171Y10459321D01*
X14427322Y10471675D01*
X14406998Y10613593D01*
X14380207Y10672518D01*
X14350580Y10737679D01*
X14350579Y10737680D01*
X14347659Y10744103D01*
X14267598Y10837018D01*
X14258680Y10847368D01*
X14258679Y10847369D01*
X14254075Y10852712D01*
X14133770Y10930690D01*
X13996414Y10971768D01*
X13913172Y10972277D01*
X13860102Y10972601D01*
X13860101Y10972601D01*
X13853051Y10972644D01*
X13846274Y10970707D01*
X13846273Y10970707D01*
X13721984Y10935185D01*
X13721982Y10935184D01*
X13715204Y10933247D01*
X13593955Y10856745D01*
X13589288Y10851461D01*
X13589286Y10851459D01*
X13503719Y10754572D01*
X13503717Y10754570D01*
X13499052Y10749287D01*
X13496056Y10742905D01*
X13496055Y10742904D01*
X13491059Y10732263D01*
X13438122Y10619512D01*
X13437037Y10612543D01*
X13437036Y10612540D01*
X13431064Y10574179D01*
X13416066Y10477852D01*
X6474567Y10477852D01*
X6460323Y10577316D01*
X6418814Y10668610D01*
X6403905Y10701402D01*
X6403904Y10701403D01*
X6400984Y10707826D01*
X6331191Y10788824D01*
X6312005Y10811091D01*
X6312004Y10811092D01*
X6307400Y10816435D01*
X6187095Y10894413D01*
X6049739Y10935491D01*
X5966497Y10936000D01*
X5913427Y10936324D01*
X5913426Y10936324D01*
X5906376Y10936367D01*
X5899599Y10934430D01*
X5899598Y10934430D01*
X5775309Y10898908D01*
X5775307Y10898907D01*
X5768529Y10896970D01*
X5749307Y10884842D01*
X5691853Y10848591D01*
X5647280Y10820468D01*
X5642613Y10815184D01*
X5642611Y10815182D01*
X5557044Y10718295D01*
X5557042Y10718293D01*
X5552377Y10713010D01*
X5549381Y10706628D01*
X5549380Y10706627D01*
X5536726Y10679675D01*
X5491447Y10583235D01*
X5490362Y10576266D01*
X5490361Y10576263D01*
X5477213Y10491815D01*
X5469391Y10441575D01*
X3102019Y10441575D01*
X3121056Y10480867D01*
X3125221Y10505618D01*
X3144208Y10618476D01*
X3144208Y10618480D01*
X3144842Y10622246D01*
X3144903Y10627186D01*
X3144946Y10630774D01*
X3144993Y10634600D01*
X3124669Y10776518D01*
X3094784Y10842246D01*
X3068251Y10900604D01*
X3068250Y10900605D01*
X3065330Y10907028D01*
X2982503Y11003153D01*
X2976351Y11010293D01*
X2976350Y11010294D01*
X2971746Y11015637D01*
X2851441Y11093615D01*
X2725842Y11131177D01*
X3869391Y11131177D01*
X3870306Y11124180D01*
X3870306Y11124179D01*
X3881509Y11038510D01*
X3887980Y10989021D01*
X3890821Y10982565D01*
X3890821Y10982564D01*
X3936661Y10878386D01*
X3945720Y10857797D01*
X3980401Y10816539D01*
X4033431Y10753451D01*
X4033434Y10753449D01*
X4037970Y10748052D01*
X4043841Y10744144D01*
X4043842Y10744143D01*
X4053553Y10737679D01*
X4157313Y10668610D01*
X4254040Y10638391D01*
X4287425Y10627961D01*
X4287426Y10627961D01*
X4294157Y10625858D01*
X4365828Y10624544D01*
X4430445Y10623359D01*
X4430447Y10623359D01*
X4437499Y10623230D01*
X4444302Y10625085D01*
X4444304Y10625085D01*
X4522658Y10646447D01*
X4575817Y10660940D01*
X4697991Y10735955D01*
X4705403Y10744143D01*
X4789468Y10837018D01*
X4794200Y10842246D01*
X4841193Y10939240D01*
X4853634Y10964918D01*
X4856710Y10971267D01*
X4860875Y10996018D01*
X4879862Y11108876D01*
X4879862Y11108880D01*
X4880496Y11112646D01*
X4880647Y11125000D01*
X4876814Y11151766D01*
X11473302Y11151766D01*
X11474217Y11144769D01*
X11474217Y11144768D01*
X11490601Y11019474D01*
X11491891Y11009610D01*
X11494732Y11003154D01*
X11494732Y11003153D01*
X11544268Y10890575D01*
X11549631Y10878386D01*
X11587742Y10833047D01*
X11637342Y10774040D01*
X11637345Y10774038D01*
X11641881Y10768641D01*
X11647752Y10764733D01*
X11647753Y10764732D01*
X11678744Y10744103D01*
X11761224Y10689199D01*
X11851678Y10660940D01*
X11891336Y10648550D01*
X11891337Y10648550D01*
X11898068Y10646447D01*
X11969739Y10645133D01*
X12034356Y10643948D01*
X12034358Y10643948D01*
X12041410Y10643819D01*
X12048213Y10645674D01*
X12048215Y10645674D01*
X12146676Y10672518D01*
X12179728Y10681529D01*
X12301902Y10756544D01*
X12309314Y10764732D01*
X12328641Y10786085D01*
X12381709Y10816539D01*
X12442542Y10809984D01*
X12477822Y10783350D01*
X12531324Y10719700D01*
X12531329Y10719696D01*
X12535866Y10714298D01*
X12541737Y10710390D01*
X12541738Y10710389D01*
X12568431Y10692621D01*
X12655209Y10634856D01*
X12726640Y10612540D01*
X12785321Y10594207D01*
X12785322Y10594207D01*
X12792053Y10592104D01*
X12863724Y10590790D01*
X12928341Y10589605D01*
X12928343Y10589605D01*
X12935395Y10589476D01*
X12942198Y10591331D01*
X12942200Y10591331D01*
X13055593Y10622246D01*
X13073713Y10627186D01*
X13195887Y10702201D01*
X13200979Y10707826D01*
X13287364Y10803264D01*
X13292096Y10808492D01*
X13354606Y10937513D01*
X13356824Y10950693D01*
X13377758Y11075122D01*
X13377758Y11075126D01*
X13378392Y11078892D01*
X13378443Y11083006D01*
X13378496Y11087420D01*
X13378543Y11091246D01*
X13358219Y11233164D01*
X13298880Y11363674D01*
X13205296Y11472283D01*
X13098253Y11541665D01*
X14395689Y11541665D01*
X14396604Y11534668D01*
X14396604Y11534667D01*
X14405536Y11466360D01*
X14414278Y11399509D01*
X14417119Y11393053D01*
X14417119Y11393052D01*
X14467205Y11279224D01*
X14472018Y11268285D01*
X14485090Y11252734D01*
X14559729Y11163939D01*
X14559732Y11163937D01*
X14564268Y11158540D01*
X14570139Y11154632D01*
X14570140Y11154631D01*
X14576651Y11150297D01*
X14683611Y11079098D01*
X14784218Y11047667D01*
X14813723Y11038449D01*
X14813724Y11038449D01*
X14820455Y11036346D01*
X14892126Y11035032D01*
X14956743Y11033847D01*
X14956745Y11033847D01*
X14963797Y11033718D01*
X14970600Y11035573D01*
X14970602Y11035573D01*
X15045801Y11056075D01*
X15102115Y11071428D01*
X15224289Y11146443D01*
X15231701Y11154631D01*
X15315766Y11247506D01*
X15320498Y11252734D01*
X15374248Y11363674D01*
X15379932Y11375406D01*
X15383008Y11381755D01*
X15385444Y11396229D01*
X15406160Y11519364D01*
X15406160Y11519368D01*
X15406794Y11523134D01*
X15406945Y11535488D01*
X15386621Y11677406D01*
X15341142Y11777433D01*
X15330203Y11801492D01*
X15330202Y11801493D01*
X15327282Y11807916D01*
X15237797Y11911768D01*
X15214137Y11968190D01*
X15228160Y12027747D01*
X15249560Y12052560D01*
X15254084Y12056316D01*
X15260094Y12060006D01*
X15356303Y12166297D01*
X15418813Y12295318D01*
X15422978Y12320069D01*
X15441965Y12432927D01*
X15441965Y12432931D01*
X15442599Y12436697D01*
X15442750Y12449051D01*
X15422426Y12590969D01*
X15396715Y12647518D01*
X15366008Y12715055D01*
X15366007Y12715056D01*
X15363087Y12721479D01*
X15288710Y12807797D01*
X15274108Y12824744D01*
X15274107Y12824745D01*
X15269503Y12830088D01*
X15149198Y12908066D01*
X15011842Y12949144D01*
X14928600Y12949653D01*
X14875530Y12949977D01*
X14875529Y12949977D01*
X14868479Y12950020D01*
X14861702Y12948083D01*
X14861701Y12948083D01*
X14737412Y12912561D01*
X14737410Y12912560D01*
X14730632Y12910623D01*
X14609383Y12834121D01*
X14604716Y12828837D01*
X14604714Y12828835D01*
X14519147Y12731948D01*
X14519145Y12731946D01*
X14514480Y12726663D01*
X14511484Y12720281D01*
X14511483Y12720280D01*
X14493634Y12682263D01*
X14453550Y12596888D01*
X14452465Y12589919D01*
X14452464Y12589916D01*
X14440183Y12511036D01*
X14431494Y12455228D01*
X14432409Y12448231D01*
X14432409Y12448230D01*
X14433638Y12438833D01*
X14450083Y12313072D01*
X14452924Y12306616D01*
X14452924Y12306615D01*
X14500788Y12197837D01*
X14507823Y12181848D01*
X14551099Y12130365D01*
X14600073Y12072103D01*
X14597844Y12070229D01*
X14622295Y12028189D01*
X14616093Y11967318D01*
X14583936Y11930044D01*
X14584915Y11928894D01*
X14579541Y11924320D01*
X14573578Y11920558D01*
X14568911Y11915274D01*
X14568909Y11915272D01*
X14483342Y11818385D01*
X14483340Y11818383D01*
X14478675Y11813100D01*
X14475679Y11806718D01*
X14475678Y11806717D01*
X14472216Y11799344D01*
X14417745Y11683325D01*
X14416660Y11676356D01*
X14416659Y11676353D01*
X14404385Y11597518D01*
X14395689Y11541665D01*
X13098253Y11541665D01*
X13084991Y11550261D01*
X12947635Y11591339D01*
X12864393Y11591848D01*
X12811323Y11592172D01*
X12811322Y11592172D01*
X12804272Y11592215D01*
X12797495Y11590278D01*
X12797494Y11590278D01*
X12673205Y11554756D01*
X12673203Y11554755D01*
X12666425Y11552818D01*
X12655251Y11545768D01*
X12564579Y11488558D01*
X12545176Y11476316D01*
X12540509Y11471032D01*
X12540507Y11471030D01*
X12536383Y11466360D01*
X12524673Y11453100D01*
X12523868Y11452189D01*
X12471176Y11421089D01*
X12410268Y11426899D01*
X12374665Y11453100D01*
X12369568Y11459016D01*
X12334180Y11500085D01*
X12315916Y11521282D01*
X12315915Y11521283D01*
X12311311Y11526626D01*
X12191006Y11604604D01*
X12053650Y11645682D01*
X11970408Y11646191D01*
X11917338Y11646515D01*
X11917337Y11646515D01*
X11910287Y11646558D01*
X11903510Y11644621D01*
X11903509Y11644621D01*
X11779220Y11609099D01*
X11779218Y11609098D01*
X11772440Y11607161D01*
X11761864Y11600488D01*
X11679040Y11548230D01*
X11651191Y11530659D01*
X11646524Y11525375D01*
X11646522Y11525373D01*
X11560955Y11428486D01*
X11560953Y11428484D01*
X11556288Y11423201D01*
X11553292Y11416819D01*
X11553291Y11416818D01*
X11542133Y11393052D01*
X11495358Y11293426D01*
X11494273Y11286457D01*
X11494272Y11286454D01*
X11490603Y11262886D01*
X11473302Y11151766D01*
X4876814Y11151766D01*
X4860323Y11266918D01*
X4838543Y11314820D01*
X4803905Y11391004D01*
X4803904Y11391005D01*
X4800984Y11397428D01*
X4737564Y11471030D01*
X4712005Y11500693D01*
X4712004Y11500694D01*
X4707400Y11506037D01*
X4587095Y11584015D01*
X4449739Y11625093D01*
X4366497Y11625602D01*
X4313427Y11625926D01*
X4313426Y11625926D01*
X4306376Y11625969D01*
X4299599Y11624032D01*
X4299598Y11624032D01*
X4175309Y11588510D01*
X4175307Y11588509D01*
X4168529Y11586572D01*
X4047280Y11510070D01*
X4042613Y11504786D01*
X4042611Y11504784D01*
X3957044Y11407897D01*
X3957042Y11407895D01*
X3952377Y11402612D01*
X3949381Y11396230D01*
X3949380Y11396229D01*
X3939604Y11375406D01*
X3891447Y11272837D01*
X3890362Y11265868D01*
X3890361Y11265865D01*
X3875680Y11171570D01*
X3869391Y11131177D01*
X2725842Y11131177D01*
X2714085Y11134693D01*
X2630843Y11135202D01*
X2577773Y11135526D01*
X2577772Y11135526D01*
X2570722Y11135569D01*
X2563945Y11133632D01*
X2563944Y11133632D01*
X2439655Y11098110D01*
X2439653Y11098109D01*
X2432875Y11096172D01*
X2311626Y11019670D01*
X2306959Y11014386D01*
X2306957Y11014384D01*
X2221390Y10917497D01*
X2221388Y10917495D01*
X2216723Y10912212D01*
X2213727Y10905830D01*
X2213726Y10905829D01*
X2198307Y10872987D01*
X2155793Y10782437D01*
X2154708Y10775468D01*
X2154707Y10775465D01*
X2141885Y10693107D01*
X2133737Y10640777D01*
X991203Y10640777D01*
X951421Y10692621D01*
X946272Y10696572D01*
X946269Y10696575D01*
X913841Y10721458D01*
X879185Y10771883D01*
X880787Y10833047D01*
X913841Y10878542D01*
X946269Y10903425D01*
X946272Y10903428D01*
X951421Y10907379D01*
X1039661Y11022375D01*
X1095130Y11156291D01*
X1114050Y11300000D01*
X1104963Y11369020D01*
X1095977Y11437278D01*
X1095976Y11437280D01*
X1095130Y11443709D01*
X1039661Y11577625D01*
X951421Y11692621D01*
X836425Y11780861D01*
X702509Y11836330D01*
X696080Y11837176D01*
X696078Y11837177D01*
X565233Y11854403D01*
X558800Y11855250D01*
X552367Y11854403D01*
X421522Y11837177D01*
X421520Y11837176D01*
X415091Y11836330D01*
X402979Y11831313D01*
X337385Y11804144D01*
X276388Y11799344D01*
X224219Y11831313D01*
X200805Y11887842D01*
X200500Y11895608D01*
X200500Y13081177D01*
X1019391Y13081177D01*
X1020306Y13074180D01*
X1020306Y13074179D01*
X1021814Y13062646D01*
X1037980Y12939021D01*
X1040821Y12932565D01*
X1040821Y12932564D01*
X1085912Y12830088D01*
X1095720Y12807797D01*
X1108792Y12792246D01*
X1183431Y12703451D01*
X1183434Y12703449D01*
X1187970Y12698052D01*
X1193841Y12694144D01*
X1193842Y12694143D01*
X1206143Y12685955D01*
X1307313Y12618610D01*
X1376843Y12596888D01*
X1437425Y12577961D01*
X1437426Y12577961D01*
X1444157Y12575858D01*
X1515828Y12574544D01*
X1580445Y12573359D01*
X1580447Y12573359D01*
X1587499Y12573230D01*
X1594302Y12575085D01*
X1594304Y12575085D01*
X1679671Y12598359D01*
X1725817Y12610940D01*
X1847991Y12685955D01*
X1855403Y12694143D01*
X1939468Y12787018D01*
X1944200Y12792246D01*
X2006710Y12921267D01*
X2010875Y12946018D01*
X2029862Y13058876D01*
X2029862Y13058880D01*
X2030496Y13062646D01*
X2030647Y13075000D01*
X2010323Y13216918D01*
X1971112Y13303159D01*
X1953905Y13341004D01*
X1953904Y13341005D01*
X1950984Y13347428D01*
X1864917Y13447313D01*
X1862005Y13450693D01*
X1862004Y13450694D01*
X1857400Y13456037D01*
X1737095Y13534015D01*
X1599739Y13575093D01*
X1516497Y13575602D01*
X1463427Y13575926D01*
X1463426Y13575926D01*
X1456376Y13575969D01*
X1449599Y13574032D01*
X1449598Y13574032D01*
X1325309Y13538510D01*
X1325307Y13538509D01*
X1318529Y13536572D01*
X1197280Y13460070D01*
X1192613Y13454786D01*
X1192611Y13454784D01*
X1107044Y13357897D01*
X1107042Y13357895D01*
X1102377Y13352612D01*
X1041447Y13222837D01*
X1019391Y13081177D01*
X200500Y13081177D01*
X200500Y13800500D01*
X219407Y13858691D01*
X268907Y13894655D01*
X299500Y13899500D01*
X18157143Y13899500D01*
X18215334Y13880593D01*
G37*
G04 #@! TD.AperFunction*
G04 #@! TD*
M02*
