G04 #@! TF.GenerationSoftware,KiCad,Pcbnew,(6.0.8)*
G04 #@! TF.CreationDate,2022-11-09T14:30:19+03:00*
G04 #@! TF.ProjectId,hellen1-wbo,68656c6c-656e-4312-9d77-626f2e6b6963,0.3*
G04 #@! TF.SameCoordinates,PX4a19ba0PY5aa5910*
G04 #@! TF.FileFunction,Copper,L3,Inr*
G04 #@! TF.FilePolarity,Positive*
%FSLAX46Y46*%
G04 Gerber Fmt 4.6, Leading zero omitted, Abs format (unit mm)*
G04 Created by KiCad (PCBNEW (6.0.8)) date 2022-11-09 14:30:19*
%MOMM*%
%LPD*%
G01*
G04 APERTURE LIST*
G04 #@! TA.AperFunction,ComponentPad*
%ADD10C,1.300000*%
G04 #@! TD*
G04 #@! TA.AperFunction,ComponentPad*
%ADD11C,0.700000*%
G04 #@! TD*
G04 #@! TA.AperFunction,Conductor*
%ADD12R,27.600000X0.250000*%
G04 #@! TD*
G04 #@! TA.AperFunction,Conductor*
%ADD13R,0.250000X8.750000*%
G04 #@! TD*
G04 #@! TA.AperFunction,Conductor*
%ADD14R,0.250000X2.100000*%
G04 #@! TD*
G04 #@! TA.AperFunction,Conductor*
%ADD15R,0.250000X0.950000*%
G04 #@! TD*
G04 #@! TA.AperFunction,Conductor*
%ADD16R,0.250000X6.300000*%
G04 #@! TD*
G04 #@! TA.AperFunction,Conductor*
%ADD17R,0.250000X0.980000*%
G04 #@! TD*
G04 #@! TA.AperFunction,ComponentPad*
%ADD18R,1.905000X2.000000*%
G04 #@! TD*
G04 #@! TA.AperFunction,ComponentPad*
%ADD19O,1.905000X2.000000*%
G04 #@! TD*
G04 #@! TA.AperFunction,ViaPad*
%ADD20C,0.600000*%
G04 #@! TD*
G04 #@! TA.AperFunction,Conductor*
%ADD21C,0.250000*%
G04 #@! TD*
G04 #@! TA.AperFunction,Conductor*
%ADD22C,0.203200*%
G04 #@! TD*
G04 APERTURE END LIST*
D10*
G04 #@! TO.N,/LSU_H+*
G04 #@! TO.C,Q600*
X23160000Y2950000D03*
X21160000Y5950000D03*
X19160000Y2950000D03*
G04 #@! TD*
D11*
G04 #@! TO.N,/LSU_Un*
G04 #@! TO.C,M600*
X27150000Y1650000D03*
G04 #@! TO.N,/LSU_Vm*
X27150000Y4650000D03*
G04 #@! TO.N,/LSU_Ip*
X27150000Y3650000D03*
G04 #@! TO.N,/LSU_Rtrim*
X27150000Y2650000D03*
D12*
G04 #@! TO.N,GND*
X13850000Y175000D03*
D13*
X27525000Y9675000D03*
D12*
X13850000Y13925000D03*
D14*
X175000Y13000000D03*
D15*
X27525000Y525000D03*
D16*
X175000Y3200000D03*
D17*
X175000Y9160000D03*
D14*
X175000Y13000000D03*
D11*
G04 #@! TO.N,+5V*
X558800Y11300000D03*
G04 #@! TO.N,+3V3*
X558800Y10300000D03*
G04 #@! TO.N,/CANH*
X558800Y7004000D03*
G04 #@! TO.N,/CANL*
X558800Y8020000D03*
G04 #@! TD*
D18*
G04 #@! TO.N,Net-(Q600-Pad1)*
G04 #@! TO.C,Q601*
X23790000Y12625000D03*
D19*
G04 #@! TO.N,/LSU_H+*
X21250000Y12625000D03*
G04 #@! TO.N,/LSU_H-*
X18710000Y12625000D03*
G04 #@! TD*
D20*
G04 #@! TO.N,GND*
X700000Y9250000D03*
X15875000Y500000D03*
X25222538Y4835401D03*
X8525000Y13714600D03*
X4150000Y13700000D03*
X10800000Y8540889D03*
X700000Y700000D03*
X400000Y6050000D03*
X18750000Y8450000D03*
X2406600Y8861275D03*
X4575000Y4664600D03*
X25325000Y13100000D03*
X17785398Y3300000D03*
X27325000Y13050000D03*
X5275000Y800000D03*
X26550000Y375000D03*
X14100000Y2550500D03*
X500000Y12200000D03*
X24670089Y393146D03*
X6500000Y700000D03*
X13550000Y5850000D03*
X4564600Y7805223D03*
X8950000Y2750000D03*
X10850000Y450000D03*
X16541029Y12100000D03*
X5950000Y7775000D03*
X12850000Y525000D03*
X15018622Y13740199D03*
X4266911Y12083089D03*
X650000Y13450000D03*
X27218377Y8300291D03*
G04 #@! TO.N,/LSU_Vm*
X12884898Y9485400D03*
X14937103Y12449051D03*
G04 #@! TO.N,/LSU_Ip*
X12872896Y11091246D03*
G04 #@! TO.N,+3V3*
X5800000Y2825000D03*
X1525000Y13075000D03*
X3889600Y900000D03*
X17795398Y4550000D03*
X5975000Y10435398D03*
G04 #@! TO.N,/nRESET*
X12306797Y5750000D03*
X1434789Y5225000D03*
X3147704Y1589600D03*
G04 #@! TO.N,Net-(C600-Pad1)*
X17785398Y2535397D03*
G04 #@! TO.N,/LSU_Un_sense*
X17785398Y5585400D03*
X13724647Y8475353D03*
G04 #@! TO.N,/Vm*
X17785398Y1770794D03*
X19400000Y7900000D03*
X13921675Y10471675D03*
G04 #@! TO.N,/Ip_sense*
X14901298Y11535488D03*
G04 #@! TO.N,/Un_sense*
X10998628Y7674956D03*
G04 #@! TO.N,Net-(D600-Pad2)*
X26500000Y12000000D03*
X25950000Y4600000D03*
G04 #@! TO.N,/Ip_dac*
X17608139Y6887483D03*
X11978911Y11145589D03*
G04 #@! TO.N,/Nernst_esr_drive*
X17785398Y1006191D03*
X13365230Y2339005D03*
G04 #@! TO.N,/CAN_TX*
X9686668Y7335982D03*
G04 #@! TO.N,/CAN_RX*
X10276268Y7925582D03*
G04 #@! TO.N,/heater_pwm*
X25700000Y12050000D03*
X17125000Y13100000D03*
G04 #@! TO.N,/Boot0*
X10275400Y5910400D03*
X5480374Y6097900D03*
G04 #@! TO.N,Net-(R613-Pad1)*
X10270589Y9720589D03*
X2639346Y10634600D03*
G04 #@! TO.N,/SWDIO*
X1434289Y4435017D03*
X6250000Y5970300D03*
X2800336Y3958800D03*
G04 #@! TO.N,VDDA*
X17563289Y9210400D03*
X4375000Y11125000D03*
X14865100Y4411711D03*
G04 #@! TO.N,/LSU_H-*
X26825000Y10575000D03*
X26050000Y9875000D03*
X26050000Y10575000D03*
X26050000Y9175000D03*
X26825000Y9875000D03*
G04 #@! TO.N,/CANL*
X1291770Y1184175D03*
G04 #@! TD*
D21*
G04 #@! TO.N,/LSU_Vm*
X11389311Y11464311D02*
X12350000Y12425000D01*
X12884898Y9485400D02*
X12582743Y9485400D01*
X11389311Y10678832D02*
X11389311Y11464311D01*
X12582743Y9485400D02*
X11389311Y10678832D01*
X12350000Y12425000D02*
X14913052Y12425000D01*
X14913052Y12425000D02*
X14937103Y12449051D01*
G04 #@! TO.N,/LSU_Ip*
X12872896Y11091246D02*
X14511012Y11091246D01*
X18022860Y10890100D02*
X25262960Y3650000D01*
X14511012Y11091246D02*
X14712158Y10890100D01*
X14712158Y10890100D02*
X18022860Y10890100D01*
X25262960Y3650000D02*
X27150000Y3650000D01*
G04 #@! TO.N,+3V3*
X550000Y10325000D02*
X550000Y10300000D01*
X16925000Y4550000D02*
X15734900Y3359900D01*
X5975000Y10435398D02*
X5985398Y10425000D01*
X1525000Y13075000D02*
X1525000Y11300000D01*
X5960398Y10450000D02*
X4215472Y10450000D01*
X5975000Y10435398D02*
X5960398Y10450000D01*
X10400000Y10425000D02*
X12950000Y7875000D01*
X7909900Y3359900D02*
X7375000Y2825000D01*
X15734900Y3359900D02*
X7909900Y3359900D01*
X7375000Y2825000D02*
X5800000Y2825000D01*
X3340472Y11325000D02*
X1500000Y11325000D01*
X5985398Y10425000D02*
X10400000Y10425000D01*
X3889600Y900000D02*
X3889600Y939600D01*
X1525000Y11300000D02*
X550000Y10325000D01*
X17795398Y4550000D02*
X16925000Y4550000D01*
X12950000Y7875000D02*
X12950000Y3400000D01*
X4215472Y10450000D02*
X3340472Y11325000D01*
X5775000Y2825000D02*
X5800000Y2825000D01*
X3889600Y939600D02*
X5775000Y2825000D01*
G04 #@! TO.N,/nRESET*
X12306797Y5750000D02*
X11649497Y5092700D01*
X3450000Y4612960D02*
X3450000Y1891896D01*
X3184789Y6975000D02*
X1434789Y5225000D01*
X8700000Y6500000D02*
X8225000Y6975000D01*
X5064006Y5092700D02*
X4902006Y5254700D01*
X3450000Y1891896D02*
X3147704Y1589600D01*
X11556797Y6500000D02*
X8700000Y6500000D01*
X4902006Y5254700D02*
X4091740Y5254700D01*
X11649497Y5092700D02*
X5064006Y5092700D01*
X12306797Y5750000D02*
X11556797Y6500000D01*
X4091740Y5254700D02*
X3450000Y4612960D01*
X8225000Y6975000D02*
X3184789Y6975000D01*
G04 #@! TO.N,/LSU_Un_sense*
X17785398Y5585400D02*
X16935400Y5585400D01*
X14200000Y4075000D02*
X14200000Y7084528D01*
X15125000Y3775000D02*
X14500000Y3775000D01*
X14200000Y7084528D02*
X13724647Y7559881D01*
X14500000Y3775000D02*
X14200000Y4075000D01*
X13724647Y7559881D02*
X13724647Y8475353D01*
X16935400Y5585400D02*
X15125000Y3775000D01*
G04 #@! TO.N,/Vm*
X19400000Y7900000D02*
X19400000Y8925920D01*
X19325000Y7825000D02*
X19325000Y4475000D01*
X19400000Y7900000D02*
X19325000Y7825000D01*
X19520794Y1770794D02*
X17785398Y1770794D01*
X20150000Y2400000D02*
X19520794Y1770794D01*
X20150000Y3650000D02*
X20150000Y2400000D01*
X19400000Y8925920D02*
X17850920Y10475000D01*
X13925000Y10475000D02*
X13921675Y10471675D01*
X17850920Y10475000D02*
X13925000Y10475000D01*
X19325000Y4475000D02*
X20150000Y3650000D01*
G04 #@! TO.N,Net-(D600-Pad2)*
X25075000Y10590472D02*
X25075000Y8500000D01*
X26500000Y12000000D02*
X26484528Y12000000D01*
X25950000Y7625000D02*
X25950000Y4600000D01*
X26484528Y12000000D02*
X25075000Y10590472D01*
X25075000Y8500000D02*
X25950000Y7625000D01*
G04 #@! TO.N,/Ip_dac*
X12674500Y10450000D02*
X13109528Y10450000D01*
X13759528Y9800000D02*
X17850000Y9800000D01*
X13109528Y10450000D02*
X13759528Y9800000D01*
X18175000Y8825000D02*
X17608139Y8258139D01*
X11978911Y11145589D02*
X12674500Y10450000D01*
X17608139Y8258139D02*
X17608139Y6887483D01*
X18175000Y9475000D02*
X18175000Y8825000D01*
X17850000Y9800000D02*
X18175000Y9475000D01*
G04 #@! TO.N,/Nernst_esr_drive*
X14454235Y1250000D02*
X16500000Y1250000D01*
X13365230Y2339005D02*
X14454235Y1250000D01*
X16500000Y1250000D02*
X16743809Y1006191D01*
X16743809Y1006191D02*
X17785398Y1006191D01*
G04 #@! TO.N,/heater_pwm*
X24475000Y10825000D02*
X18675000Y10825000D01*
X17131129Y13093871D02*
X17125000Y13100000D01*
X17131129Y12368871D02*
X17131129Y13093871D01*
X18675000Y10825000D02*
X17131129Y12368871D01*
X25700000Y12050000D02*
X24475000Y10825000D01*
G04 #@! TO.N,/Boot0*
X8689600Y5910400D02*
X8040100Y6559900D01*
X8040100Y6559900D02*
X5942374Y6559900D01*
X10275400Y5910400D02*
X8689600Y5910400D01*
X5942374Y6559900D02*
X5480374Y6097900D01*
G04 #@! TO.N,Net-(R613-Pad1)*
X2639346Y10634600D02*
X3443832Y10634600D01*
X4499021Y9579411D02*
X10299500Y9579411D01*
X3443832Y10634600D02*
X4499021Y9579411D01*
G04 #@! TO.N,/SWDIO*
X5787500Y5507800D02*
X5235946Y5507800D01*
X3919800Y5669800D02*
X2800336Y4550336D01*
D22*
X2800336Y3958800D02*
X1816200Y3958800D01*
D21*
X2800336Y4550336D02*
X2800336Y3958800D01*
X6250000Y5970300D02*
X5787500Y5507800D01*
D22*
X1816200Y3958800D02*
X1434289Y4340711D01*
D21*
X5073946Y5669800D02*
X3919800Y5669800D01*
X5235946Y5507800D02*
X5073946Y5669800D01*
G04 #@! TO.N,VDDA*
X14550000Y9100000D02*
X13334026Y9100000D01*
X10356103Y11125000D02*
X4375000Y11125000D01*
X17563289Y9210400D02*
X17227889Y8875000D01*
X14825000Y4451811D02*
X14825000Y8825000D01*
X12585803Y8895300D02*
X10356103Y11125000D01*
X14825000Y8825000D02*
X14775000Y8875000D01*
X13334026Y9100000D02*
X13129326Y8895300D01*
X13129326Y8895300D02*
X12585803Y8895300D01*
X14865100Y4411711D02*
X14825000Y4451811D01*
X17227889Y8875000D02*
X14775000Y8875000D01*
X14775000Y8875000D02*
X14550000Y9100000D01*
G04 #@! TO.N,/CANL*
X2000000Y2300000D02*
X2000000Y3025000D01*
X1291770Y1591770D02*
X2000000Y2300000D01*
X1350000Y7228800D02*
X558800Y8020000D01*
X1291770Y1184175D02*
X1291770Y1591770D01*
X844189Y5594189D02*
X1350000Y6100000D01*
X2000000Y3025000D02*
X844189Y4180811D01*
X844189Y4180811D02*
X844189Y5594189D01*
X1350000Y6100000D02*
X1350000Y7228800D01*
G04 #@! TD*
G04 #@! TA.AperFunction,Conductor*
G04 #@! TO.N,GND*
G36*
X18669504Y9196090D02*
G01*
X19045504Y8820090D01*
X19073281Y8765573D01*
X19074500Y8750086D01*
X19074500Y8325041D01*
X19055593Y8266850D01*
X19049716Y8259521D01*
X18977377Y8177612D01*
X18916447Y8047837D01*
X18915362Y8040868D01*
X18915361Y8040865D01*
X18902166Y7956115D01*
X18894391Y7906177D01*
X18895306Y7899180D01*
X18895306Y7899179D01*
X18912065Y7771018D01*
X18912980Y7764021D01*
X18915821Y7757565D01*
X18915821Y7757564D01*
X18952170Y7674956D01*
X18970720Y7632797D01*
X18976281Y7626181D01*
X18976283Y7626179D01*
X18976778Y7624956D01*
X18978985Y7621411D01*
X18978369Y7621028D01*
X18999253Y7569469D01*
X18999500Y7562477D01*
X18999500Y4493534D01*
X18999123Y4484905D01*
X18995736Y4446193D01*
X18997978Y4437826D01*
X19005796Y4408651D01*
X19007666Y4400216D01*
X19012575Y4372375D01*
X19014412Y4361955D01*
X19018742Y4354456D01*
X19020738Y4348971D01*
X19023204Y4343684D01*
X19025446Y4335316D01*
X19041760Y4312018D01*
X19047732Y4303489D01*
X19052371Y4296208D01*
X19071806Y4262545D01*
X19082675Y4253425D01*
X19101570Y4237570D01*
X19107938Y4231735D01*
X19381066Y3958606D01*
X19408843Y3904090D01*
X19399272Y3843658D01*
X19356007Y3800393D01*
X19290478Y3791767D01*
X19254472Y3799421D01*
X19254463Y3799422D01*
X19249391Y3800500D01*
X19070609Y3800500D01*
X18934728Y3771618D01*
X18900804Y3764407D01*
X18900803Y3764407D01*
X18895733Y3763329D01*
X18890999Y3761221D01*
X18890995Y3761220D01*
X18737142Y3692720D01*
X18737140Y3692719D01*
X18732408Y3690612D01*
X18587770Y3585526D01*
X18584304Y3581676D01*
X18584300Y3581673D01*
X18502966Y3491342D01*
X18468141Y3452665D01*
X18465549Y3448175D01*
X18465548Y3448174D01*
X18398860Y3332666D01*
X18378750Y3297835D01*
X18377149Y3292906D01*
X18377148Y3292905D01*
X18325105Y3132735D01*
X18325104Y3132730D01*
X18323503Y3127803D01*
X18306483Y2965865D01*
X18305281Y2954431D01*
X18280394Y2898535D01*
X18227406Y2867942D01*
X18166556Y2874338D01*
X18131824Y2900156D01*
X18122403Y2911090D01*
X18122402Y2911091D01*
X18117798Y2916434D01*
X17997493Y2994412D01*
X17860137Y3035490D01*
X17776895Y3035999D01*
X17723825Y3036323D01*
X17723824Y3036323D01*
X17716774Y3036366D01*
X17709997Y3034429D01*
X17709996Y3034429D01*
X17585707Y2998907D01*
X17585705Y2998906D01*
X17578927Y2996969D01*
X17457678Y2920467D01*
X17453011Y2915183D01*
X17453009Y2915181D01*
X17367442Y2818294D01*
X17367440Y2818292D01*
X17362775Y2813009D01*
X17359779Y2806627D01*
X17359778Y2806626D01*
X17350694Y2787278D01*
X17301845Y2683234D01*
X17300760Y2676265D01*
X17300759Y2676262D01*
X17289666Y2605009D01*
X17279789Y2541574D01*
X17280704Y2534577D01*
X17280704Y2534576D01*
X17284482Y2505682D01*
X17298378Y2399418D01*
X17301219Y2392962D01*
X17301219Y2392961D01*
X17351002Y2279822D01*
X17356118Y2268194D01*
X17399134Y2217020D01*
X17422103Y2160313D01*
X17407353Y2100932D01*
X17397554Y2087786D01*
X17367442Y2053691D01*
X17367440Y2053689D01*
X17362775Y2048406D01*
X17301845Y1918631D01*
X17300760Y1911662D01*
X17300759Y1911659D01*
X17289616Y1840086D01*
X17279789Y1776971D01*
X17298378Y1634815D01*
X17301219Y1628359D01*
X17301219Y1628358D01*
X17352963Y1510762D01*
X17356118Y1503591D01*
X17362142Y1496425D01*
X17363849Y1494394D01*
X17386820Y1437685D01*
X17372070Y1378304D01*
X17325235Y1338933D01*
X17288067Y1331691D01*
X16919643Y1331691D01*
X16861452Y1350598D01*
X16849639Y1360687D01*
X16743269Y1467057D01*
X16737434Y1473425D01*
X16735098Y1476209D01*
X16712455Y1503194D01*
X16678792Y1522629D01*
X16671511Y1527268D01*
X16669056Y1528987D01*
X16639684Y1549554D01*
X16631316Y1551796D01*
X16626029Y1554262D01*
X16620544Y1556258D01*
X16613045Y1560588D01*
X16604519Y1562091D01*
X16604517Y1562092D01*
X16574784Y1567334D01*
X16566349Y1569204D01*
X16537174Y1577022D01*
X16528807Y1579264D01*
X16520178Y1578509D01*
X16490095Y1575877D01*
X16481466Y1575500D01*
X14630069Y1575500D01*
X14571878Y1594407D01*
X14560065Y1604496D01*
X13899829Y2264732D01*
X13872052Y2319249D01*
X13871172Y2331366D01*
X13871079Y2331360D01*
X13870830Y2335179D01*
X13870877Y2339005D01*
X13850553Y2480923D01*
X13818067Y2552373D01*
X13794135Y2605009D01*
X13794134Y2605010D01*
X13791214Y2611433D01*
X13697630Y2720042D01*
X13577325Y2798020D01*
X13439969Y2839098D01*
X13440070Y2839436D01*
X13389223Y2864788D01*
X13365286Y2910772D01*
X13365286Y2904807D01*
X13329322Y2855307D01*
X13296047Y2841930D01*
X13296606Y2839974D01*
X13165539Y2802515D01*
X13165537Y2802514D01*
X13158759Y2800577D01*
X13037510Y2724075D01*
X13032843Y2718791D01*
X13032841Y2718789D01*
X12947274Y2621902D01*
X12947272Y2621900D01*
X12942607Y2616617D01*
X12939611Y2610235D01*
X12939610Y2610234D01*
X12937157Y2605009D01*
X12881677Y2486842D01*
X12880592Y2479873D01*
X12880591Y2479870D01*
X12873754Y2435955D01*
X12859621Y2345182D01*
X12860536Y2338185D01*
X12860536Y2338184D01*
X12874750Y2229486D01*
X12878210Y2203026D01*
X12881051Y2196570D01*
X12881051Y2196569D01*
X12931471Y2081982D01*
X12935950Y2071802D01*
X12966639Y2035293D01*
X13023661Y1967456D01*
X13023664Y1967454D01*
X13028200Y1962057D01*
X13147543Y1882615D01*
X13236822Y1854723D01*
X13277655Y1841966D01*
X13277656Y1841966D01*
X13284387Y1839863D01*
X13327750Y1839068D01*
X13366339Y1838360D01*
X13424174Y1818389D01*
X13434528Y1809381D01*
X14210966Y1032943D01*
X14216800Y1026576D01*
X14241780Y996806D01*
X14275440Y977373D01*
X14282724Y972732D01*
X14314551Y950446D01*
X14322919Y948204D01*
X14328206Y945738D01*
X14333691Y943742D01*
X14341190Y939412D01*
X14349716Y937909D01*
X14349718Y937908D01*
X14379451Y932666D01*
X14387885Y930796D01*
X14425428Y920736D01*
X14464143Y924123D01*
X14472772Y924500D01*
X16324166Y924500D01*
X16382357Y905593D01*
X16394170Y895504D01*
X16500540Y789134D01*
X16506374Y782767D01*
X16531354Y752997D01*
X16565014Y733564D01*
X16572298Y728923D01*
X16604125Y706637D01*
X16612493Y704395D01*
X16617780Y701929D01*
X16623265Y699933D01*
X16630764Y695603D01*
X16639290Y694100D01*
X16639292Y694099D01*
X16669025Y688857D01*
X16677459Y686987D01*
X16715002Y676927D01*
X16723631Y677682D01*
X16753714Y680314D01*
X16762343Y680691D01*
X17359010Y680691D01*
X17417201Y661784D01*
X17434792Y645394D01*
X17448368Y629243D01*
X17454239Y625335D01*
X17454240Y625334D01*
X17485942Y604231D01*
X17567711Y549801D01*
X17665844Y519143D01*
X17697823Y509152D01*
X17697824Y509152D01*
X17704555Y507049D01*
X17776226Y505735D01*
X17840843Y504550D01*
X17840845Y504550D01*
X17847897Y504421D01*
X17854700Y506276D01*
X17854702Y506276D01*
X17936038Y528451D01*
X17986215Y542131D01*
X18108389Y617146D01*
X18115801Y625334D01*
X18199866Y718209D01*
X18204598Y723437D01*
X18267108Y852458D01*
X18274351Y895504D01*
X18290260Y990067D01*
X18290260Y990071D01*
X18290894Y993837D01*
X18291045Y1006191D01*
X18270721Y1148109D01*
X18248941Y1196011D01*
X18214303Y1272195D01*
X18214302Y1272196D01*
X18211382Y1278619D01*
X18206776Y1283965D01*
X18202978Y1289903D01*
X18204810Y1291075D01*
X18185091Y1338092D01*
X18199113Y1397649D01*
X18245463Y1437590D01*
X18283751Y1445294D01*
X19502260Y1445294D01*
X19510889Y1444917D01*
X19549601Y1441530D01*
X19587144Y1451590D01*
X19595578Y1453460D01*
X19596492Y1453621D01*
X19600083Y1454254D01*
X19625311Y1458702D01*
X19625313Y1458703D01*
X19633839Y1460206D01*
X19641338Y1464536D01*
X19646823Y1466532D01*
X19652110Y1468998D01*
X19660478Y1471240D01*
X19692305Y1493526D01*
X19699589Y1498167D01*
X19733249Y1517600D01*
X19758225Y1547365D01*
X19764059Y1553733D01*
X20367057Y2156731D01*
X20373425Y2162566D01*
X20375969Y2164701D01*
X20403194Y2187545D01*
X20422629Y2221208D01*
X20427268Y2228489D01*
X20430891Y2233663D01*
X20449554Y2260316D01*
X20451796Y2268684D01*
X20454262Y2273971D01*
X20456258Y2279456D01*
X20460588Y2286955D01*
X20462635Y2298561D01*
X20467334Y2325216D01*
X20469204Y2333651D01*
X20477022Y2362826D01*
X20479264Y2371193D01*
X20475877Y2409909D01*
X20475500Y2418537D01*
X20475500Y2950000D01*
X22304815Y2950000D01*
X22323503Y2772197D01*
X22325104Y2767270D01*
X22325105Y2767265D01*
X22376128Y2610234D01*
X22378750Y2602165D01*
X22381341Y2597677D01*
X22381342Y2597675D01*
X22446483Y2484848D01*
X22468141Y2447335D01*
X22587770Y2314474D01*
X22591968Y2311424D01*
X22591969Y2311423D01*
X22609672Y2298561D01*
X22732407Y2209388D01*
X22782793Y2186955D01*
X22890995Y2138780D01*
X22890999Y2138779D01*
X22895733Y2136671D01*
X22900803Y2135593D01*
X22900804Y2135593D01*
X22916363Y2132286D01*
X23070609Y2099500D01*
X23249391Y2099500D01*
X23403637Y2132286D01*
X23419196Y2135593D01*
X23419197Y2135593D01*
X23424267Y2136671D01*
X23429001Y2138779D01*
X23429005Y2138780D01*
X23537207Y2186955D01*
X23587593Y2209388D01*
X23710328Y2298561D01*
X23728031Y2311423D01*
X23728032Y2311424D01*
X23732230Y2314474D01*
X23851859Y2447335D01*
X23873517Y2484848D01*
X23938658Y2597675D01*
X23938659Y2597677D01*
X23941250Y2602165D01*
X23943872Y2610234D01*
X23994895Y2767265D01*
X23994896Y2767270D01*
X23996497Y2772197D01*
X24015185Y2950000D01*
X23996497Y3127803D01*
X23994896Y3132730D01*
X23994895Y3132735D01*
X23942852Y3292905D01*
X23942851Y3292906D01*
X23941250Y3297835D01*
X23921141Y3332666D01*
X23854452Y3448174D01*
X23854451Y3448175D01*
X23851859Y3452665D01*
X23732230Y3585526D01*
X23703419Y3606459D01*
X23682851Y3621402D01*
X23587593Y3690612D01*
X23505930Y3726971D01*
X23429005Y3761220D01*
X23429001Y3761221D01*
X23424267Y3763329D01*
X23419197Y3764407D01*
X23419196Y3764407D01*
X23385272Y3771618D01*
X23249391Y3800500D01*
X23070609Y3800500D01*
X22934728Y3771618D01*
X22900804Y3764407D01*
X22900803Y3764407D01*
X22895733Y3763329D01*
X22890999Y3761221D01*
X22890995Y3761220D01*
X22737142Y3692720D01*
X22737140Y3692719D01*
X22732408Y3690612D01*
X22587770Y3585526D01*
X22584304Y3581676D01*
X22584300Y3581673D01*
X22502966Y3491342D01*
X22468141Y3452665D01*
X22465549Y3448175D01*
X22465548Y3448174D01*
X22398860Y3332666D01*
X22378750Y3297835D01*
X22377149Y3292906D01*
X22377148Y3292905D01*
X22325105Y3132735D01*
X22325104Y3132730D01*
X22323503Y3127803D01*
X22304815Y2950000D01*
X20475500Y2950000D01*
X20475500Y3631474D01*
X20475877Y3640102D01*
X20478508Y3670180D01*
X20479263Y3678807D01*
X20477022Y3687170D01*
X20477022Y3687173D01*
X20469206Y3716344D01*
X20467337Y3724772D01*
X20462092Y3754515D01*
X20460588Y3763045D01*
X20456257Y3770546D01*
X20454258Y3776040D01*
X20451795Y3781322D01*
X20449554Y3789684D01*
X20427259Y3821525D01*
X20422636Y3828781D01*
X20403194Y3862455D01*
X20373435Y3887426D01*
X20367067Y3893260D01*
X20025542Y4234785D01*
X19679496Y4580830D01*
X19651719Y4635347D01*
X19650500Y4650834D01*
X19650500Y7411060D01*
X19669407Y7469251D01*
X19697697Y7495424D01*
X19722991Y7510955D01*
X19819200Y7617246D01*
X19876598Y7735715D01*
X19878634Y7739918D01*
X19881710Y7746267D01*
X19885564Y7769170D01*
X19904862Y7883876D01*
X19904862Y7883880D01*
X19905496Y7887646D01*
X19905647Y7900000D01*
X19885323Y8041918D01*
X19840503Y8140496D01*
X19828905Y8166004D01*
X19828904Y8166005D01*
X19825984Y8172428D01*
X19749500Y8261192D01*
X19725840Y8317614D01*
X19725500Y8325813D01*
X19725500Y8488126D01*
X19744407Y8546317D01*
X19793907Y8582281D01*
X19855093Y8582281D01*
X19894504Y8558130D01*
X21526127Y6926507D01*
X21553904Y6871990D01*
X21544333Y6811558D01*
X21501068Y6768293D01*
X21440636Y6758722D01*
X21427567Y6761860D01*
X21424267Y6763329D01*
X21419197Y6764407D01*
X21419196Y6764407D01*
X21358689Y6777268D01*
X21249391Y6800500D01*
X21070609Y6800500D01*
X20961311Y6777268D01*
X20900804Y6764407D01*
X20900803Y6764407D01*
X20895733Y6763329D01*
X20890999Y6761221D01*
X20890995Y6761220D01*
X20737142Y6692720D01*
X20737140Y6692719D01*
X20732408Y6690612D01*
X20587770Y6585526D01*
X20584304Y6581676D01*
X20584300Y6581673D01*
X20509355Y6498438D01*
X20468141Y6452665D01*
X20465549Y6448175D01*
X20465548Y6448174D01*
X20385988Y6310371D01*
X20378750Y6297835D01*
X20377149Y6292906D01*
X20377148Y6292905D01*
X20325105Y6132735D01*
X20325104Y6132730D01*
X20323503Y6127803D01*
X20314612Y6043209D01*
X20306547Y5966474D01*
X20304815Y5950000D01*
X20323503Y5772197D01*
X20325104Y5767270D01*
X20325105Y5767265D01*
X20372169Y5622418D01*
X20378750Y5602165D01*
X20381341Y5597677D01*
X20381342Y5597675D01*
X20434132Y5506240D01*
X20468141Y5447335D01*
X20587770Y5314474D01*
X20591968Y5311424D01*
X20591969Y5311423D01*
X20609105Y5298973D01*
X20732407Y5209388D01*
X20814070Y5173029D01*
X20890995Y5138780D01*
X20890999Y5138779D01*
X20895733Y5136671D01*
X20900803Y5135593D01*
X20900804Y5135593D01*
X20923067Y5130861D01*
X21070609Y5099500D01*
X21249391Y5099500D01*
X21396933Y5130861D01*
X21419196Y5135593D01*
X21419197Y5135593D01*
X21424267Y5136671D01*
X21429001Y5138779D01*
X21429005Y5138780D01*
X21505930Y5173029D01*
X21587593Y5209388D01*
X21710895Y5298973D01*
X21728031Y5311423D01*
X21728032Y5311424D01*
X21732230Y5314474D01*
X21851859Y5447335D01*
X21885868Y5506240D01*
X21938658Y5597675D01*
X21938659Y5597677D01*
X21941250Y5602165D01*
X21947831Y5622418D01*
X21994895Y5767265D01*
X21994896Y5767270D01*
X21996497Y5772197D01*
X22015185Y5950000D01*
X22013454Y5966474D01*
X22005388Y6043209D01*
X21996497Y6127803D01*
X21994895Y6132733D01*
X21994893Y6132743D01*
X21965897Y6221982D01*
X21965896Y6283167D01*
X22001860Y6332667D01*
X22060051Y6351575D01*
X22118241Y6332668D01*
X22130055Y6322579D01*
X25019691Y3432943D01*
X25025525Y3426576D01*
X25050505Y3396806D01*
X25084165Y3377373D01*
X25091449Y3372732D01*
X25123276Y3350446D01*
X25131644Y3348204D01*
X25136931Y3345738D01*
X25142416Y3343742D01*
X25149915Y3339412D01*
X25158441Y3337909D01*
X25158443Y3337908D01*
X25188176Y3332666D01*
X25196610Y3330796D01*
X25234153Y3320736D01*
X25272868Y3324123D01*
X25281497Y3324500D01*
X26657053Y3324500D01*
X26715244Y3305593D01*
X26735595Y3285768D01*
X26757379Y3257379D01*
X26762528Y3253428D01*
X26762531Y3253425D01*
X26794959Y3228542D01*
X26829615Y3178117D01*
X26828013Y3116953D01*
X26794959Y3071458D01*
X26762531Y3046575D01*
X26762528Y3046572D01*
X26757379Y3042621D01*
X26669139Y2927625D01*
X26613670Y2793709D01*
X26612824Y2787280D01*
X26612823Y2787278D01*
X26603971Y2720042D01*
X26594750Y2650000D01*
X26595597Y2643567D01*
X26611644Y2521682D01*
X26613670Y2506291D01*
X26669139Y2372375D01*
X26757379Y2257379D01*
X26762528Y2253428D01*
X26762531Y2253425D01*
X26794959Y2228542D01*
X26829615Y2178117D01*
X26828013Y2116953D01*
X26794959Y2071458D01*
X26762531Y2046575D01*
X26762528Y2046572D01*
X26757379Y2042621D01*
X26669139Y1927625D01*
X26613670Y1793709D01*
X26612824Y1787280D01*
X26612823Y1787278D01*
X26601967Y1704815D01*
X26594750Y1650000D01*
X26595597Y1643567D01*
X26611308Y1524235D01*
X26613670Y1506291D01*
X26669139Y1372375D01*
X26757379Y1257379D01*
X26872375Y1169139D01*
X27006291Y1113670D01*
X27012720Y1112824D01*
X27012722Y1112823D01*
X27143567Y1095597D01*
X27150000Y1094750D01*
X27156433Y1095597D01*
X27287278Y1112823D01*
X27287280Y1112824D01*
X27293709Y1113670D01*
X27335809Y1131108D01*
X27362615Y1142211D01*
X27423612Y1147011D01*
X27475781Y1115042D01*
X27499195Y1058513D01*
X27499500Y1050747D01*
X27499500Y299500D01*
X27480593Y241309D01*
X27431093Y205345D01*
X27400500Y200500D01*
X3952316Y200500D01*
X3944525Y203031D01*
X3936484Y200500D01*
X299500Y200500D01*
X241309Y219407D01*
X205345Y268907D01*
X200500Y299500D01*
X200500Y2512915D01*
X219407Y2571106D01*
X268907Y2607070D01*
X330093Y2607070D01*
X379593Y2571106D01*
X395765Y2536026D01*
X403050Y2505682D01*
X430847Y2451826D01*
X472465Y2371193D01*
X480291Y2356030D01*
X591000Y2229122D01*
X595882Y2225691D01*
X595883Y2225690D01*
X689655Y2159786D01*
X728784Y2132286D01*
X807237Y2101698D01*
X842920Y2087786D01*
X885691Y2071110D01*
X891606Y2070331D01*
X891607Y2070331D01*
X1010922Y2054623D01*
X1014135Y2054200D01*
X1054867Y2054200D01*
X1113058Y2035293D01*
X1149022Y1985793D01*
X1149022Y1924607D01*
X1124873Y1885199D01*
X1074707Y1835033D01*
X1068351Y1829209D01*
X1038576Y1804225D01*
X1028792Y1787278D01*
X1019143Y1770565D01*
X1014502Y1763281D01*
X992216Y1731454D01*
X989974Y1723086D01*
X987508Y1717799D01*
X985512Y1712314D01*
X981182Y1704815D01*
X979679Y1696289D01*
X979678Y1696287D01*
X974436Y1666554D01*
X972566Y1658120D01*
X962506Y1620577D01*
X963261Y1611948D01*
X962506Y1603319D01*
X960465Y1603498D01*
X949268Y1554988D01*
X938616Y1540447D01*
X869147Y1461787D01*
X808217Y1332012D01*
X807132Y1325043D01*
X807131Y1325040D01*
X796597Y1257379D01*
X786161Y1190352D01*
X787076Y1183355D01*
X787076Y1183354D01*
X788418Y1173090D01*
X804750Y1048196D01*
X807591Y1041740D01*
X807591Y1041739D01*
X859178Y924500D01*
X862490Y916972D01*
X887141Y887646D01*
X950201Y812626D01*
X950204Y812624D01*
X954740Y807227D01*
X960611Y803319D01*
X960612Y803318D01*
X972913Y795130D01*
X1074083Y727785D01*
X1156845Y701929D01*
X1204195Y687136D01*
X1204196Y687136D01*
X1210927Y685033D01*
X1282598Y683719D01*
X1347215Y682534D01*
X1347217Y682534D01*
X1354269Y682405D01*
X1361072Y684260D01*
X1361074Y684260D01*
X1436273Y704762D01*
X1492587Y720115D01*
X1614761Y795130D01*
X1622173Y803318D01*
X1706238Y896193D01*
X1710970Y901421D01*
X1773480Y1030442D01*
X1774786Y1038200D01*
X1796632Y1168051D01*
X1796632Y1168055D01*
X1797266Y1171821D01*
X1797417Y1184175D01*
X1777093Y1326093D01*
X1749297Y1387228D01*
X1720671Y1450188D01*
X1720670Y1450190D01*
X1720034Y1451590D01*
X1717754Y1456603D01*
X1718823Y1457089D01*
X1705165Y1509532D01*
X1727492Y1566498D01*
X1733987Y1573660D01*
X2217070Y2056742D01*
X2223424Y2062565D01*
X2253194Y2087545D01*
X2258246Y2096294D01*
X2271360Y2119009D01*
X2272629Y2121208D01*
X2277269Y2128491D01*
X2278409Y2130118D01*
X2299553Y2160316D01*
X2301795Y2168682D01*
X2304262Y2173973D01*
X2306255Y2179450D01*
X2310588Y2186955D01*
X2317337Y2225231D01*
X2319206Y2233663D01*
X2323686Y2250381D01*
X2329263Y2271193D01*
X2325877Y2309897D01*
X2325500Y2318525D01*
X2325500Y3006466D01*
X2325877Y3015095D01*
X2328215Y3041815D01*
X2329264Y3053807D01*
X2319204Y3091350D01*
X2317334Y3099784D01*
X2312092Y3129517D01*
X2312091Y3129519D01*
X2310588Y3138045D01*
X2306258Y3145544D01*
X2304262Y3151029D01*
X2301796Y3156316D01*
X2299554Y3164684D01*
X2277268Y3196511D01*
X2272627Y3203795D01*
X2260794Y3224291D01*
X2253194Y3237455D01*
X2223429Y3262431D01*
X2217061Y3268265D01*
X1997630Y3487696D01*
X1969853Y3542213D01*
X1979424Y3602645D01*
X2022689Y3645910D01*
X2067634Y3656700D01*
X2354278Y3656700D01*
X2412469Y3637793D01*
X2430061Y3621402D01*
X2458767Y3587251D01*
X2458770Y3587249D01*
X2463306Y3581852D01*
X2469177Y3577944D01*
X2469178Y3577943D01*
X2479532Y3571051D01*
X2582649Y3502410D01*
X2683256Y3470979D01*
X2712761Y3461761D01*
X2712762Y3461761D01*
X2719493Y3459658D01*
X2791164Y3458344D01*
X2855781Y3457159D01*
X2855783Y3457159D01*
X2862835Y3457030D01*
X2869638Y3458885D01*
X2869640Y3458885D01*
X2999460Y3494278D01*
X3060575Y3491342D01*
X3108292Y3453045D01*
X3124500Y3398764D01*
X3124500Y2178220D01*
X3105593Y2120029D01*
X3052705Y2083031D01*
X2948013Y2053110D01*
X2948011Y2053109D01*
X2941233Y2051172D01*
X2819984Y1974670D01*
X2815317Y1969386D01*
X2815315Y1969384D01*
X2729748Y1872497D01*
X2729746Y1872495D01*
X2725081Y1867212D01*
X2722085Y1860830D01*
X2722084Y1860829D01*
X2712180Y1839734D01*
X2664151Y1737437D01*
X2642095Y1595777D01*
X2643010Y1588780D01*
X2643010Y1588779D01*
X2656866Y1482816D01*
X2660684Y1453621D01*
X2663525Y1447165D01*
X2663525Y1447164D01*
X2714335Y1331691D01*
X2718424Y1322397D01*
X2731496Y1306846D01*
X2806135Y1218051D01*
X2806138Y1218049D01*
X2810674Y1212652D01*
X2816545Y1208744D01*
X2816546Y1208743D01*
X2847759Y1187966D01*
X2930017Y1133210D01*
X3019709Y1105189D01*
X3060129Y1092561D01*
X3060130Y1092561D01*
X3066861Y1090458D01*
X3138532Y1089144D01*
X3203149Y1087959D01*
X3203151Y1087959D01*
X3210203Y1087830D01*
X3273874Y1105189D01*
X3334987Y1102254D01*
X3382705Y1063957D01*
X3398799Y1004926D01*
X3397734Y994445D01*
X3383991Y906177D01*
X3384906Y899180D01*
X3384906Y899179D01*
X3391846Y846109D01*
X3402580Y764021D01*
X3405421Y757565D01*
X3405421Y757564D01*
X3437676Y684260D01*
X3460320Y632797D01*
X3477787Y612018D01*
X3548031Y528451D01*
X3548034Y528449D01*
X3552570Y523052D01*
X3558441Y519144D01*
X3558442Y519143D01*
X3577772Y506276D01*
X3671913Y443610D01*
X3772520Y412179D01*
X3802025Y402961D01*
X3802026Y402961D01*
X3808757Y400858D01*
X3936053Y398524D01*
X3938299Y398483D01*
X3940351Y397775D01*
X3945044Y398359D01*
X3952099Y398230D01*
X3958902Y400085D01*
X3958904Y400085D01*
X4034103Y420587D01*
X4090417Y435940D01*
X4202159Y504550D01*
X4206578Y507263D01*
X4212591Y510955D01*
X4220003Y519143D01*
X4304068Y612018D01*
X4308800Y617246D01*
X4357741Y718261D01*
X4368234Y739918D01*
X4371310Y746267D01*
X4373559Y759631D01*
X4394462Y883876D01*
X4394462Y883880D01*
X4395096Y887646D01*
X4395247Y900000D01*
X4391629Y925261D01*
X4402095Y985542D01*
X4419625Y1009299D01*
X5275472Y1865146D01*
X5329988Y1892922D01*
X5390420Y1883351D01*
X5433685Y1840086D01*
X5444474Y1794623D01*
X5443781Y1662295D01*
X5443735Y1653439D01*
X5463958Y1569204D01*
X5480502Y1500297D01*
X5483050Y1489682D01*
X5507903Y1441530D01*
X5543597Y1372375D01*
X5560291Y1340030D01*
X5671000Y1213122D01*
X5675882Y1209691D01*
X5675883Y1209690D01*
X5787694Y1131108D01*
X5808784Y1116286D01*
X5881438Y1087959D01*
X5956963Y1058513D01*
X5965691Y1055110D01*
X5971606Y1054331D01*
X5971607Y1054331D01*
X6090922Y1038623D01*
X6094135Y1038200D01*
X6182227Y1038200D01*
X6185723Y1038623D01*
X6301268Y1052605D01*
X6301271Y1052606D01*
X6307190Y1053322D01*
X6317660Y1057278D01*
X6405126Y1090329D01*
X6464729Y1112851D01*
X6469646Y1116231D01*
X6469649Y1116232D01*
X6598602Y1204860D01*
X6603520Y1208240D01*
X6715552Y1333981D01*
X6794356Y1482816D01*
X6816417Y1570646D01*
X6833929Y1640363D01*
X6833929Y1640366D01*
X6835383Y1646153D01*
X6835901Y1745118D01*
X6836234Y1808595D01*
X6836234Y1808597D01*
X6836265Y1814561D01*
X6796950Y1978318D01*
X6751486Y2066403D01*
X6722448Y2122664D01*
X6722446Y2122666D01*
X6719709Y2127970D01*
X6609000Y2254878D01*
X6517046Y2319504D01*
X6480311Y2368432D01*
X6479350Y2429610D01*
X6514531Y2479669D01*
X6573973Y2499500D01*
X7356466Y2499500D01*
X7365095Y2499123D01*
X7403807Y2495736D01*
X7441350Y2505796D01*
X7449784Y2507666D01*
X7479517Y2512908D01*
X7479519Y2512909D01*
X7488045Y2514412D01*
X7495544Y2518742D01*
X7501029Y2520738D01*
X7506316Y2523204D01*
X7514684Y2525446D01*
X7546511Y2547732D01*
X7553795Y2552373D01*
X7587455Y2571806D01*
X7612431Y2601571D01*
X7618265Y2607939D01*
X8015730Y3005404D01*
X8070247Y3033181D01*
X8085734Y3034400D01*
X13271131Y3034400D01*
X13329322Y3015493D01*
X13365286Y2965993D01*
X13365286Y2947932D01*
X13370015Y2979574D01*
X13412900Y3023214D01*
X13458613Y3034400D01*
X15716366Y3034400D01*
X15724995Y3034023D01*
X15763707Y3030636D01*
X15773205Y3033181D01*
X15801249Y3040696D01*
X15809684Y3042566D01*
X15839417Y3047808D01*
X15839419Y3047809D01*
X15847945Y3049312D01*
X15855444Y3053642D01*
X15860929Y3055638D01*
X15866216Y3058104D01*
X15874584Y3060346D01*
X15906411Y3082632D01*
X15913695Y3087273D01*
X15920755Y3091349D01*
X15947355Y3106706D01*
X15972331Y3136471D01*
X15978165Y3142839D01*
X17030830Y4195504D01*
X17085347Y4223281D01*
X17100834Y4224500D01*
X17369010Y4224500D01*
X17427201Y4205593D01*
X17444792Y4189203D01*
X17458368Y4173052D01*
X17464239Y4169144D01*
X17464240Y4169143D01*
X17479679Y4158866D01*
X17577711Y4093610D01*
X17648617Y4071458D01*
X17707823Y4052961D01*
X17707824Y4052961D01*
X17714555Y4050858D01*
X17786226Y4049544D01*
X17850843Y4048359D01*
X17850845Y4048359D01*
X17857897Y4048230D01*
X17864700Y4050085D01*
X17864702Y4050085D01*
X17960834Y4076294D01*
X17996215Y4085940D01*
X18118389Y4160955D01*
X18125801Y4169143D01*
X18209866Y4262018D01*
X18214598Y4267246D01*
X18277108Y4396267D01*
X18283628Y4435017D01*
X18300260Y4533876D01*
X18300260Y4533880D01*
X18300894Y4537646D01*
X18301045Y4550000D01*
X18280721Y4691918D01*
X18246493Y4767200D01*
X18224303Y4816004D01*
X18224302Y4816005D01*
X18221382Y4822428D01*
X18127798Y4931037D01*
X18039811Y4988067D01*
X18001268Y5035581D01*
X17998012Y5096679D01*
X18031291Y5148023D01*
X18041860Y5155506D01*
X18102376Y5192663D01*
X18108389Y5196355D01*
X18115801Y5204543D01*
X18199866Y5297418D01*
X18204598Y5302646D01*
X18267108Y5431667D01*
X18269096Y5443479D01*
X18290260Y5569276D01*
X18290260Y5569280D01*
X18290894Y5573046D01*
X18291045Y5585400D01*
X18270721Y5727318D01*
X18220127Y5838594D01*
X18214303Y5851404D01*
X18214302Y5851405D01*
X18211382Y5857828D01*
X18150980Y5927928D01*
X18122403Y5961093D01*
X18122402Y5961094D01*
X18117798Y5966437D01*
X17997493Y6044415D01*
X17860137Y6085493D01*
X17776895Y6086002D01*
X17723825Y6086326D01*
X17723824Y6086326D01*
X17716774Y6086369D01*
X17709997Y6084432D01*
X17709996Y6084432D01*
X17585707Y6048910D01*
X17585705Y6048909D01*
X17578927Y6046972D01*
X17457678Y5970470D01*
X17453011Y5965186D01*
X17453009Y5965184D01*
X17434624Y5944366D01*
X17381932Y5913266D01*
X17360420Y5910900D01*
X16953926Y5910900D01*
X16945298Y5911277D01*
X16941976Y5911568D01*
X16906593Y5914663D01*
X16898230Y5912422D01*
X16898227Y5912422D01*
X16869056Y5904606D01*
X16860629Y5902737D01*
X16822355Y5895988D01*
X16814854Y5891657D01*
X16809360Y5889658D01*
X16804078Y5887195D01*
X16795716Y5884954D01*
X16764611Y5863174D01*
X16763878Y5862661D01*
X16756619Y5858036D01*
X16722945Y5838594D01*
X16717375Y5831956D01*
X16697974Y5808835D01*
X16692140Y5802467D01*
X16036156Y5146482D01*
X15480458Y4590784D01*
X15425941Y4563007D01*
X15365509Y4572578D01*
X15320332Y4619812D01*
X15294005Y4677715D01*
X15294004Y4677716D01*
X15291084Y4684139D01*
X15222115Y4764181D01*
X15202105Y4787404D01*
X15202104Y4787405D01*
X15197500Y4792748D01*
X15191581Y4796585D01*
X15186267Y4801220D01*
X15188073Y4803290D01*
X15157109Y4841455D01*
X15150500Y4877020D01*
X15150500Y8450500D01*
X15169407Y8508691D01*
X15218907Y8544655D01*
X15249500Y8549500D01*
X17209355Y8549500D01*
X17217964Y8549125D01*
X17233569Y8547759D01*
X17289887Y8523855D01*
X17321401Y8471410D01*
X17314663Y8407296D01*
X17313556Y8404922D01*
X17308585Y8397823D01*
X17306342Y8389452D01*
X17303876Y8384164D01*
X17301881Y8378685D01*
X17297551Y8371184D01*
X17296048Y8362658D01*
X17296047Y8362656D01*
X17290805Y8332923D01*
X17288935Y8324489D01*
X17278875Y8286946D01*
X17279630Y8278317D01*
X17282262Y8248234D01*
X17282639Y8239605D01*
X17282639Y7312524D01*
X17263732Y7254333D01*
X17257855Y7247004D01*
X17185516Y7165095D01*
X17124586Y7035320D01*
X17123501Y7028351D01*
X17123500Y7028348D01*
X17110825Y6946937D01*
X17102530Y6893660D01*
X17103445Y6886663D01*
X17103445Y6886662D01*
X17117750Y6777268D01*
X17121119Y6751504D01*
X17123960Y6745048D01*
X17123960Y6745047D01*
X17146985Y6692720D01*
X17178859Y6620280D01*
X17211799Y6581093D01*
X17266570Y6515934D01*
X17266573Y6515932D01*
X17271109Y6510535D01*
X17276980Y6506627D01*
X17276981Y6506626D01*
X17287311Y6499750D01*
X17390452Y6431093D01*
X17491059Y6399662D01*
X17520564Y6390444D01*
X17520565Y6390444D01*
X17527296Y6388341D01*
X17598967Y6387027D01*
X17663584Y6385842D01*
X17663586Y6385842D01*
X17670638Y6385713D01*
X17677441Y6387568D01*
X17677443Y6387568D01*
X17753823Y6408392D01*
X17808956Y6423423D01*
X17931130Y6498438D01*
X17938542Y6506626D01*
X18022607Y6599501D01*
X18027339Y6604729D01*
X18089849Y6733750D01*
X18092005Y6746560D01*
X18113001Y6871359D01*
X18113001Y6871363D01*
X18113635Y6875129D01*
X18113786Y6887483D01*
X18093462Y7029401D01*
X18034123Y7159911D01*
X17957639Y7248675D01*
X17933979Y7305097D01*
X17933639Y7313296D01*
X17933639Y8082305D01*
X17952546Y8140496D01*
X17962635Y8152309D01*
X18392057Y8581731D01*
X18398425Y8587566D01*
X18420191Y8605830D01*
X18428194Y8612545D01*
X18447629Y8646208D01*
X18452268Y8653489D01*
X18460085Y8664653D01*
X18474554Y8685316D01*
X18476796Y8693683D01*
X18479259Y8698964D01*
X18481257Y8704454D01*
X18485588Y8711955D01*
X18491504Y8745504D01*
X18492336Y8750222D01*
X18494205Y8758651D01*
X18502023Y8787830D01*
X18504264Y8796194D01*
X18500877Y8834910D01*
X18500500Y8843538D01*
X18500500Y9126086D01*
X18519407Y9184277D01*
X18568907Y9220241D01*
X18630093Y9220241D01*
X18669504Y9196090D01*
G37*
G04 #@! TD.AperFunction*
G04 #@! TA.AperFunction,Conductor*
G36*
X12560575Y5280781D02*
G01*
X12608292Y5242484D01*
X12624500Y5188203D01*
X12624500Y3784400D01*
X12605593Y3726209D01*
X12556093Y3690245D01*
X12525500Y3685400D01*
X7928434Y3685400D01*
X7919805Y3685777D01*
X7889722Y3688409D01*
X7881093Y3689164D01*
X7872726Y3686922D01*
X7843551Y3679104D01*
X7835116Y3677234D01*
X7805383Y3671992D01*
X7805381Y3671991D01*
X7796855Y3670488D01*
X7789356Y3666158D01*
X7783871Y3664162D01*
X7778584Y3661696D01*
X7770216Y3659454D01*
X7750874Y3645910D01*
X7738389Y3637168D01*
X7731108Y3632529D01*
X7697445Y3613094D01*
X7675760Y3587251D01*
X7672469Y3583329D01*
X7666635Y3576961D01*
X7269170Y3179496D01*
X7214653Y3151719D01*
X7199166Y3150500D01*
X6744365Y3150500D01*
X6686174Y3169407D01*
X6650210Y3218907D01*
X6650210Y3280093D01*
X6670448Y3315358D01*
X6675240Y3320736D01*
X6715552Y3365981D01*
X6719127Y3372732D01*
X6733887Y3400610D01*
X6794356Y3514816D01*
X6817375Y3606459D01*
X6833929Y3672363D01*
X6833929Y3672366D01*
X6835383Y3678153D01*
X6835896Y3776040D01*
X6836234Y3840595D01*
X6836234Y3840597D01*
X6836265Y3846561D01*
X6796950Y4010318D01*
X6745353Y4110286D01*
X6722448Y4154664D01*
X6722446Y4154666D01*
X6719709Y4159970D01*
X6609000Y4286878D01*
X6597245Y4295140D01*
X6476098Y4380283D01*
X6476097Y4380283D01*
X6471216Y4383714D01*
X6332427Y4437826D01*
X6319870Y4442722D01*
X6319869Y4442722D01*
X6314309Y4444890D01*
X6308394Y4445669D01*
X6308393Y4445669D01*
X6189078Y4461377D01*
X6185865Y4461800D01*
X6097773Y4461800D01*
X6094807Y4461441D01*
X6094806Y4461441D01*
X5978732Y4447395D01*
X5978729Y4447394D01*
X5972810Y4446678D01*
X5967232Y4444570D01*
X5967231Y4444570D01*
X5949384Y4437826D01*
X5815271Y4387149D01*
X5810354Y4383769D01*
X5810351Y4383768D01*
X5752300Y4343870D01*
X5676480Y4291760D01*
X5564448Y4166019D01*
X5561658Y4160749D01*
X5561657Y4160748D01*
X5558436Y4154664D01*
X5485644Y4017184D01*
X5471981Y3962789D01*
X5446802Y3862545D01*
X5444617Y3853847D01*
X5444586Y3847880D01*
X5443814Y3700440D01*
X5443735Y3685439D01*
X5483050Y3521682D01*
X5523998Y3442347D01*
X5560085Y3372429D01*
X5569973Y3312048D01*
X5542481Y3257387D01*
X5524940Y3243296D01*
X5494819Y3224291D01*
X5472280Y3210070D01*
X5467613Y3204786D01*
X5467611Y3204784D01*
X5382044Y3107897D01*
X5382042Y3107895D01*
X5377377Y3102612D01*
X5374381Y3096230D01*
X5374380Y3096229D01*
X5372089Y3091349D01*
X5316447Y2972837D01*
X5315362Y2965868D01*
X5315361Y2965865D01*
X5306513Y2909035D01*
X5295310Y2837076D01*
X5294483Y2831767D01*
X5266666Y2776993D01*
X3919467Y1429793D01*
X3864950Y1402016D01*
X3848859Y1400799D01*
X3828028Y1400926D01*
X3828027Y1400926D01*
X3820976Y1400969D01*
X3814195Y1399031D01*
X3764434Y1384810D01*
X3703288Y1386999D01*
X3655107Y1424711D01*
X3638293Y1483541D01*
X3639602Y1496425D01*
X3639896Y1498167D01*
X3653200Y1577246D01*
X3653351Y1589600D01*
X3654570Y1589585D01*
X3668445Y1644143D01*
X3688518Y1667126D01*
X3696559Y1673874D01*
X3703194Y1679441D01*
X3722629Y1713104D01*
X3727268Y1720385D01*
X3734326Y1730465D01*
X3749554Y1752212D01*
X3751796Y1760577D01*
X3754258Y1765857D01*
X3756257Y1771348D01*
X3760588Y1778851D01*
X3767337Y1817125D01*
X3769206Y1825552D01*
X3777022Y1854723D01*
X3777022Y1854726D01*
X3779263Y1863089D01*
X3775877Y1901793D01*
X3775500Y1910421D01*
X3775500Y4437127D01*
X3794407Y4495318D01*
X3804497Y4507131D01*
X4197571Y4900204D01*
X4252087Y4927981D01*
X4267574Y4929200D01*
X4726172Y4929200D01*
X4784363Y4910293D01*
X4796176Y4900204D01*
X4820737Y4875643D01*
X4826571Y4869276D01*
X4851551Y4839506D01*
X4869605Y4829083D01*
X4885211Y4820073D01*
X4892495Y4815432D01*
X4924322Y4793146D01*
X4932690Y4790904D01*
X4937977Y4788438D01*
X4943462Y4786442D01*
X4950961Y4782112D01*
X4959487Y4780609D01*
X4959489Y4780608D01*
X4989222Y4775366D01*
X4997656Y4773496D01*
X5035199Y4763436D01*
X5073914Y4766823D01*
X5082543Y4767200D01*
X11630963Y4767200D01*
X11639592Y4766823D01*
X11678304Y4763436D01*
X11715847Y4773496D01*
X11724281Y4775366D01*
X11754014Y4780608D01*
X11754016Y4780609D01*
X11762542Y4782112D01*
X11770041Y4786442D01*
X11775526Y4788438D01*
X11780813Y4790904D01*
X11789181Y4793146D01*
X11821008Y4815432D01*
X11828292Y4820073D01*
X11843898Y4829083D01*
X11861952Y4839506D01*
X11886928Y4869271D01*
X11892762Y4875639D01*
X12237474Y5220351D01*
X12291991Y5248128D01*
X12309291Y5249330D01*
X12326236Y5249019D01*
X12362243Y5248359D01*
X12362245Y5248359D01*
X12369296Y5248230D01*
X12376099Y5250085D01*
X12376101Y5250085D01*
X12499460Y5283717D01*
X12560575Y5280781D01*
G37*
G04 #@! TD.AperFunction*
G04 #@! TA.AperFunction,Conductor*
G36*
X981573Y6548291D02*
G01*
X1018821Y6499750D01*
X1024500Y6466702D01*
X1024500Y6275834D01*
X1005593Y6217643D01*
X995504Y6205830D01*
X627132Y5837458D01*
X620765Y5831624D01*
X590995Y5806644D01*
X571562Y5772984D01*
X566921Y5765700D01*
X544635Y5733873D01*
X542393Y5725505D01*
X539927Y5720218D01*
X537931Y5714733D01*
X533601Y5707234D01*
X532098Y5698708D01*
X532097Y5698706D01*
X526855Y5668973D01*
X524985Y5660539D01*
X514925Y5622996D01*
X515680Y5614367D01*
X518312Y5584284D01*
X518689Y5575655D01*
X518689Y4199345D01*
X518312Y4190716D01*
X514925Y4152004D01*
X517167Y4143637D01*
X524985Y4114462D01*
X526855Y4106027D01*
X530724Y4084086D01*
X533601Y4067766D01*
X537931Y4060267D01*
X539927Y4054782D01*
X542393Y4049495D01*
X544635Y4041127D01*
X557708Y4022458D01*
X566921Y4009300D01*
X571560Y4002019D01*
X590995Y3968356D01*
X602615Y3958606D01*
X620760Y3943380D01*
X627128Y3937546D01*
X964113Y3600561D01*
X991890Y3546044D01*
X982319Y3485612D01*
X939054Y3442347D01*
X906001Y3432274D01*
X903937Y3432024D01*
X898732Y3431395D01*
X898729Y3431394D01*
X892810Y3430678D01*
X887232Y3428570D01*
X887231Y3428570D01*
X839211Y3410425D01*
X735271Y3371149D01*
X730354Y3367769D01*
X730351Y3367768D01*
X661920Y3320736D01*
X596480Y3275760D01*
X484448Y3150019D01*
X405644Y3001184D01*
X404190Y2995396D01*
X404189Y2995393D01*
X395517Y2960867D01*
X363004Y2909035D01*
X306234Y2886213D01*
X246892Y2901119D01*
X207644Y2948058D01*
X200500Y2984984D01*
X200500Y6408392D01*
X219407Y6466583D01*
X268907Y6502547D01*
X330093Y6502547D01*
X337385Y6499856D01*
X374896Y6484319D01*
X415091Y6467670D01*
X421520Y6466824D01*
X421522Y6466823D01*
X552367Y6449597D01*
X558800Y6448750D01*
X565233Y6449597D01*
X696078Y6466823D01*
X696080Y6466824D01*
X702509Y6467670D01*
X836425Y6523139D01*
X841572Y6527089D01*
X841578Y6527092D01*
X865232Y6545243D01*
X922907Y6565668D01*
X981573Y6548291D01*
G37*
G04 #@! TD.AperFunction*
G04 #@! TA.AperFunction,Conductor*
G36*
X13454593Y7375545D02*
G01*
X13460237Y7366853D01*
X13471453Y7347426D01*
X13490714Y7331264D01*
X13501218Y7322450D01*
X13507586Y7316616D01*
X13845504Y6978698D01*
X13873281Y6924181D01*
X13874500Y6908694D01*
X13874500Y4093534D01*
X13874123Y4084905D01*
X13870736Y4046193D01*
X13872978Y4037826D01*
X13880796Y4008651D01*
X13882666Y4000216D01*
X13887024Y3975500D01*
X13889412Y3961955D01*
X13893742Y3954456D01*
X13895738Y3948971D01*
X13898204Y3943684D01*
X13900446Y3935316D01*
X13921013Y3905944D01*
X13922732Y3903489D01*
X13927371Y3896208D01*
X13946806Y3862545D01*
X13953441Y3856978D01*
X13959008Y3850343D01*
X13956864Y3848544D01*
X13981980Y3808344D01*
X13977708Y3747308D01*
X13938375Y3700440D01*
X13885919Y3685400D01*
X13374500Y3685400D01*
X13316309Y3704307D01*
X13280345Y3753807D01*
X13275500Y3784400D01*
X13275500Y7317354D01*
X13294407Y7375545D01*
X13343907Y7411509D01*
X13405093Y7411509D01*
X13454593Y7375545D01*
G37*
G04 #@! TD.AperFunction*
G04 #@! TA.AperFunction,Conductor*
G36*
X24722902Y10502093D02*
G01*
X24748762Y10446641D01*
X24749500Y10434573D01*
X24749500Y8518534D01*
X24749123Y8509905D01*
X24745736Y8471193D01*
X24747978Y8462826D01*
X24755796Y8433651D01*
X24757666Y8425216D01*
X24762496Y8397823D01*
X24764412Y8386955D01*
X24768742Y8379456D01*
X24770738Y8373971D01*
X24773204Y8368684D01*
X24775446Y8360316D01*
X24785211Y8346371D01*
X24797732Y8328489D01*
X24802371Y8321208D01*
X24821806Y8287545D01*
X24846469Y8266850D01*
X24851571Y8262569D01*
X24857939Y8256735D01*
X25595504Y7519170D01*
X25623281Y7464653D01*
X25624500Y7449166D01*
X25624500Y5025041D01*
X25605593Y4966850D01*
X25599716Y4959521D01*
X25527377Y4877612D01*
X25466447Y4747837D01*
X25465362Y4740868D01*
X25465361Y4740865D01*
X25457445Y4690020D01*
X25444391Y4606177D01*
X25445306Y4599180D01*
X25445306Y4599179D01*
X25461886Y4472384D01*
X25462980Y4464021D01*
X25465821Y4457565D01*
X25465821Y4457564D01*
X25515848Y4343870D01*
X25520720Y4332797D01*
X25555215Y4291760D01*
X25608431Y4228451D01*
X25608434Y4228449D01*
X25612970Y4223052D01*
X25618841Y4219144D01*
X25618842Y4219143D01*
X25712331Y4156911D01*
X25750294Y4108927D01*
X25752803Y4047793D01*
X25718899Y3996860D01*
X25657473Y3975500D01*
X25438794Y3975500D01*
X25380603Y3994407D01*
X25368790Y4004496D01*
X19042790Y10330496D01*
X19015013Y10385013D01*
X19024584Y10445445D01*
X19067849Y10488710D01*
X19112794Y10499500D01*
X24456466Y10499500D01*
X24465095Y10499123D01*
X24503807Y10495736D01*
X24514574Y10498621D01*
X24541349Y10505796D01*
X24549784Y10507666D01*
X24579517Y10512908D01*
X24579519Y10512909D01*
X24588045Y10514412D01*
X24595544Y10518742D01*
X24601029Y10520738D01*
X24606316Y10523204D01*
X24611857Y10524689D01*
X24612537Y10524772D01*
X24613207Y10525050D01*
X24614665Y10525441D01*
X24614771Y10525047D01*
X24669387Y10531755D01*
X24722902Y10502093D01*
G37*
G04 #@! TD.AperFunction*
G04 #@! TA.AperFunction,Conductor*
G36*
X27458270Y9773213D02*
G01*
X27494493Y9723902D01*
X27499500Y9692816D01*
X27499500Y5249253D01*
X27480593Y5191062D01*
X27431093Y5155098D01*
X27369907Y5155098D01*
X27362615Y5157789D01*
X27324260Y5173676D01*
X27293709Y5186330D01*
X27287280Y5187176D01*
X27287278Y5187177D01*
X27156433Y5204403D01*
X27150000Y5205250D01*
X27143567Y5204403D01*
X27012722Y5187177D01*
X27012720Y5187176D01*
X27006291Y5186330D01*
X26872375Y5130861D01*
X26757379Y5042621D01*
X26669139Y4927625D01*
X26613670Y4793709D01*
X26612823Y4787277D01*
X26611143Y4781007D01*
X26608463Y4781725D01*
X26587138Y4737013D01*
X26533368Y4707815D01*
X26472706Y4715799D01*
X26428322Y4757915D01*
X26425201Y4764181D01*
X26378905Y4866004D01*
X26378904Y4866005D01*
X26375984Y4872428D01*
X26299500Y4961192D01*
X26275840Y5017614D01*
X26275500Y5025813D01*
X26275500Y7606466D01*
X26275877Y7615095D01*
X26278509Y7645178D01*
X26279264Y7653807D01*
X26269204Y7691350D01*
X26267334Y7699784D01*
X26262092Y7729517D01*
X26262091Y7729519D01*
X26260588Y7738045D01*
X26256258Y7745544D01*
X26254262Y7751029D01*
X26251796Y7756316D01*
X26249554Y7764684D01*
X26227268Y7796511D01*
X26222627Y7803795D01*
X26215076Y7816874D01*
X26203194Y7837455D01*
X26173429Y7862431D01*
X26167061Y7868265D01*
X25429496Y8605830D01*
X25401719Y8660347D01*
X25400500Y8675834D01*
X25400500Y8937478D01*
X25419407Y8995669D01*
X25468907Y9031633D01*
X25530093Y9031633D01*
X25579593Y8995669D01*
X25590116Y8977351D01*
X25620720Y8907797D01*
X25633792Y8892246D01*
X25708431Y8803451D01*
X25708434Y8803449D01*
X25712970Y8798052D01*
X25718841Y8794144D01*
X25718842Y8794143D01*
X25728326Y8787830D01*
X25832313Y8718610D01*
X25906849Y8695324D01*
X25962425Y8677961D01*
X25962426Y8677961D01*
X25969157Y8675858D01*
X26040828Y8674544D01*
X26105445Y8673359D01*
X26105447Y8673359D01*
X26112499Y8673230D01*
X26119302Y8675085D01*
X26119304Y8675085D01*
X26208353Y8699363D01*
X26250817Y8710940D01*
X26372991Y8785955D01*
X26380403Y8794143D01*
X26464468Y8887018D01*
X26469200Y8892246D01*
X26531710Y9021267D01*
X26555496Y9162646D01*
X26555647Y9175000D01*
X26538949Y9291598D01*
X26549416Y9351881D01*
X26593317Y9394499D01*
X26653885Y9403173D01*
X26666471Y9400128D01*
X26737425Y9377961D01*
X26737426Y9377961D01*
X26744157Y9375858D01*
X26815828Y9374544D01*
X26880445Y9373359D01*
X26880447Y9373359D01*
X26887499Y9373230D01*
X26894302Y9375085D01*
X26894304Y9375085D01*
X27008038Y9406093D01*
X27025817Y9410940D01*
X27147991Y9485955D01*
X27161108Y9500446D01*
X27239468Y9587018D01*
X27244200Y9592246D01*
X27306710Y9721267D01*
X27307232Y9724370D01*
X27341890Y9772602D01*
X27399981Y9791815D01*
X27458270Y9773213D01*
G37*
G04 #@! TD.AperFunction*
G04 #@! TA.AperFunction,Conductor*
G36*
X2160047Y10980593D02*
G01*
X2196011Y10931093D01*
X2196011Y10869907D01*
X2191475Y10858437D01*
X2155793Y10782437D01*
X2154708Y10775468D01*
X2154707Y10775465D01*
X2146817Y10724787D01*
X2133737Y10640777D01*
X2152326Y10498621D01*
X2155167Y10492165D01*
X2155167Y10492164D01*
X2205687Y10377350D01*
X2210066Y10367397D01*
X2254738Y10314253D01*
X2297777Y10263051D01*
X2297780Y10263049D01*
X2302316Y10257652D01*
X2421659Y10178210D01*
X2522266Y10146779D01*
X2551771Y10137561D01*
X2551772Y10137561D01*
X2558503Y10135458D01*
X2630174Y10134144D01*
X2694791Y10132959D01*
X2694793Y10132959D01*
X2701845Y10132830D01*
X2708648Y10134685D01*
X2708650Y10134685D01*
X2783849Y10155187D01*
X2840163Y10170540D01*
X2962337Y10245555D01*
X2967073Y10250787D01*
X2990381Y10276537D01*
X3043449Y10306990D01*
X3063778Y10309100D01*
X3267998Y10309100D01*
X3326189Y10290193D01*
X3338002Y10280104D01*
X4255752Y9362354D01*
X4261586Y9355987D01*
X4286566Y9326217D01*
X4320226Y9306784D01*
X4327510Y9302143D01*
X4359337Y9279857D01*
X4367705Y9277615D01*
X4372992Y9275149D01*
X4378477Y9273153D01*
X4385976Y9268823D01*
X4394502Y9267320D01*
X4394504Y9267319D01*
X4424237Y9262077D01*
X4432672Y9260207D01*
X4446398Y9256529D01*
X4470214Y9250147D01*
X4508929Y9253534D01*
X4517558Y9253911D01*
X10070728Y9253911D01*
X10100250Y9249407D01*
X10183014Y9223550D01*
X10183015Y9223550D01*
X10189746Y9221447D01*
X10261417Y9220133D01*
X10326034Y9218948D01*
X10326036Y9218948D01*
X10333088Y9218819D01*
X10339891Y9220674D01*
X10339893Y9220674D01*
X10447997Y9250147D01*
X10471406Y9256529D01*
X10593580Y9331544D01*
X10613177Y9353194D01*
X10685057Y9432607D01*
X10689789Y9437835D01*
X10696949Y9452612D01*
X10706471Y9472266D01*
X10748858Y9516391D01*
X10809086Y9527173D01*
X10865569Y9499105D01*
X12595504Y7769170D01*
X12623281Y7714653D01*
X12624500Y7699166D01*
X12624500Y6310371D01*
X12605593Y6252180D01*
X12556093Y6216216D01*
X12497134Y6215522D01*
X12434010Y6234400D01*
X12381536Y6250093D01*
X12358912Y6250231D01*
X12306979Y6250549D01*
X12248905Y6269812D01*
X12237581Y6279543D01*
X11800072Y6717051D01*
X11794236Y6723419D01*
X11776088Y6745047D01*
X11769252Y6753194D01*
X11735589Y6772629D01*
X11728308Y6777268D01*
X11725853Y6778987D01*
X11696481Y6799554D01*
X11688113Y6801796D01*
X11682826Y6804262D01*
X11677341Y6806258D01*
X11669842Y6810588D01*
X11661316Y6812091D01*
X11661314Y6812092D01*
X11631581Y6817334D01*
X11623146Y6819204D01*
X11593971Y6827022D01*
X11585604Y6829264D01*
X11576975Y6828509D01*
X11546892Y6825877D01*
X11538263Y6825500D01*
X10122883Y6825500D01*
X10064692Y6844407D01*
X10028728Y6893907D01*
X10028728Y6955093D01*
X10049485Y6990936D01*
X10101136Y7048000D01*
X10105868Y7053228D01*
X10168378Y7182249D01*
X10170543Y7195113D01*
X10191530Y7319858D01*
X10191530Y7319862D01*
X10192164Y7323628D01*
X10192211Y7327447D01*
X10192553Y7331264D01*
X10193653Y7331165D01*
X10211827Y7384840D01*
X10261765Y7420192D01*
X10293011Y7424651D01*
X10304991Y7424431D01*
X10331714Y7423941D01*
X10331716Y7423941D01*
X10338767Y7423812D01*
X10345570Y7425667D01*
X10345572Y7425667D01*
X10457228Y7456108D01*
X10518343Y7453172D01*
X10566945Y7413214D01*
X10569348Y7407753D01*
X10573882Y7402359D01*
X10573884Y7402356D01*
X10657059Y7303407D01*
X10657062Y7303405D01*
X10661598Y7298008D01*
X10667469Y7294100D01*
X10667470Y7294099D01*
X10699172Y7272996D01*
X10780941Y7218566D01*
X10874916Y7189207D01*
X10911053Y7177917D01*
X10911054Y7177917D01*
X10917785Y7175814D01*
X10989456Y7174500D01*
X11054073Y7173315D01*
X11054075Y7173315D01*
X11061127Y7173186D01*
X11067930Y7175041D01*
X11067932Y7175041D01*
X11159490Y7200003D01*
X11199445Y7210896D01*
X11321619Y7285911D01*
X11329031Y7294099D01*
X11413096Y7386974D01*
X11417828Y7392202D01*
X11465310Y7490206D01*
X11477262Y7514874D01*
X11480338Y7521223D01*
X11481996Y7531074D01*
X11503490Y7658832D01*
X11503490Y7658836D01*
X11504124Y7662602D01*
X11504275Y7674956D01*
X11483951Y7816874D01*
X11445430Y7901598D01*
X11427533Y7940960D01*
X11427532Y7940961D01*
X11424612Y7947384D01*
X11338056Y8047837D01*
X11335633Y8050649D01*
X11335632Y8050650D01*
X11331028Y8055993D01*
X11210723Y8133971D01*
X11073367Y8175049D01*
X10990125Y8175558D01*
X10937055Y8175882D01*
X10937054Y8175882D01*
X10930004Y8175925D01*
X10819270Y8144277D01*
X10758126Y8146466D01*
X10708664Y8186127D01*
X10705173Y8191585D01*
X10702252Y8198010D01*
X10626029Y8286471D01*
X10613273Y8301275D01*
X10613272Y8301276D01*
X10608668Y8306619D01*
X10488363Y8384597D01*
X10351007Y8425675D01*
X10267765Y8426184D01*
X10214695Y8426508D01*
X10214694Y8426508D01*
X10207644Y8426551D01*
X10200867Y8424614D01*
X10200866Y8424614D01*
X10076577Y8389092D01*
X10076575Y8389091D01*
X10069797Y8387154D01*
X10049524Y8374363D01*
X10005160Y8346371D01*
X9948548Y8310652D01*
X9943881Y8305368D01*
X9943879Y8305366D01*
X9858312Y8208479D01*
X9858310Y8208477D01*
X9853645Y8203194D01*
X9850649Y8196812D01*
X9850648Y8196811D01*
X9841708Y8177770D01*
X9792715Y8073419D01*
X9791630Y8066450D01*
X9791629Y8066447D01*
X9778874Y7984525D01*
X9770659Y7931759D01*
X9770697Y7931469D01*
X9752074Y7876454D01*
X9702138Y7841097D01*
X9672095Y7836621D01*
X9625095Y7836908D01*
X9625094Y7836908D01*
X9618044Y7836951D01*
X9611267Y7835014D01*
X9611266Y7835014D01*
X9486977Y7799492D01*
X9486975Y7799491D01*
X9480197Y7797554D01*
X9358948Y7721052D01*
X9354281Y7715768D01*
X9354279Y7715766D01*
X9268712Y7618879D01*
X9268710Y7618877D01*
X9264045Y7613594D01*
X9203115Y7483819D01*
X9202030Y7476850D01*
X9202029Y7476847D01*
X9188540Y7390207D01*
X9181059Y7342159D01*
X9181974Y7335162D01*
X9181974Y7335161D01*
X9195962Y7228194D01*
X9199648Y7200003D01*
X9202489Y7193547D01*
X9202489Y7193546D01*
X9220116Y7153487D01*
X9257388Y7068779D01*
X9322822Y6990936D01*
X9325120Y6988202D01*
X9348090Y6931492D01*
X9333339Y6872111D01*
X9286503Y6832741D01*
X9249337Y6825500D01*
X8875834Y6825500D01*
X8817643Y6844407D01*
X8805831Y6854496D01*
X8468275Y7192051D01*
X8462439Y7198419D01*
X8452498Y7210266D01*
X8437455Y7228194D01*
X8403792Y7247629D01*
X8396511Y7252268D01*
X8388886Y7257607D01*
X8364684Y7274554D01*
X8356316Y7276796D01*
X8351029Y7279262D01*
X8345544Y7281258D01*
X8338045Y7285588D01*
X8329519Y7287091D01*
X8329517Y7287092D01*
X8299784Y7292334D01*
X8291349Y7294204D01*
X8287823Y7295149D01*
X8277153Y7298008D01*
X8262174Y7302022D01*
X8253807Y7304264D01*
X8245178Y7303509D01*
X8215095Y7300877D01*
X8206466Y7300500D01*
X3203323Y7300500D01*
X3194694Y7300877D01*
X3164611Y7303509D01*
X3155982Y7304264D01*
X3147615Y7302022D01*
X3132636Y7298008D01*
X3121967Y7295149D01*
X3118440Y7294204D01*
X3110005Y7292334D01*
X3080272Y7287092D01*
X3080270Y7287091D01*
X3071744Y7285588D01*
X3064245Y7281258D01*
X3058760Y7279262D01*
X3053473Y7276796D01*
X3045105Y7274554D01*
X3020903Y7257607D01*
X3013278Y7252268D01*
X3005997Y7247629D01*
X2972334Y7228194D01*
X2954550Y7207000D01*
X2947358Y7198429D01*
X2941524Y7192061D01*
X1844504Y6095041D01*
X1789987Y6067264D01*
X1729555Y6076835D01*
X1686290Y6120100D01*
X1675500Y6165045D01*
X1675500Y7210266D01*
X1675877Y7218895D01*
X1678509Y7248978D01*
X1679264Y7257607D01*
X1669204Y7295150D01*
X1667334Y7303584D01*
X1662092Y7333317D01*
X1662091Y7333319D01*
X1660588Y7341845D01*
X1656258Y7349344D01*
X1654262Y7354829D01*
X1651796Y7360116D01*
X1649554Y7368484D01*
X1627268Y7400311D01*
X1622627Y7407595D01*
X1622536Y7407753D01*
X1603194Y7441255D01*
X1573429Y7466231D01*
X1567061Y7472065D01*
X1137528Y7901598D01*
X1109751Y7956115D01*
X1109379Y7984520D01*
X1114050Y8020000D01*
X1103728Y8098405D01*
X1095977Y8157278D01*
X1095976Y8157280D01*
X1095130Y8163709D01*
X1039661Y8297625D01*
X951421Y8412621D01*
X836425Y8500861D01*
X702509Y8556330D01*
X696080Y8557176D01*
X696078Y8557177D01*
X565233Y8574403D01*
X558800Y8575250D01*
X552367Y8574403D01*
X421522Y8557177D01*
X421520Y8557176D01*
X415091Y8556330D01*
X386905Y8544655D01*
X337385Y8524144D01*
X276388Y8519344D01*
X224219Y8551313D01*
X200805Y8607842D01*
X200500Y8615608D01*
X200500Y9704392D01*
X219407Y9762583D01*
X268907Y9798547D01*
X330093Y9798547D01*
X337385Y9795856D01*
X382205Y9777291D01*
X415091Y9763670D01*
X421520Y9762824D01*
X421522Y9762823D01*
X552367Y9745597D01*
X558800Y9744750D01*
X565233Y9745597D01*
X696078Y9762823D01*
X696080Y9762824D01*
X702509Y9763670D01*
X836425Y9819139D01*
X951421Y9907379D01*
X1039661Y10022375D01*
X1095130Y10156291D01*
X1098531Y10182118D01*
X1113203Y10293567D01*
X1114050Y10300000D01*
X1105447Y10365343D01*
X1116597Y10425504D01*
X1133596Y10448270D01*
X1655831Y10970504D01*
X1710348Y10998281D01*
X1725835Y10999500D01*
X2101856Y10999500D01*
X2160047Y10980593D01*
G37*
G04 #@! TD.AperFunction*
G04 #@! TA.AperFunction,Conductor*
G36*
X27458691Y13880593D02*
G01*
X27494655Y13831093D01*
X27499500Y13800500D01*
X27499500Y10757706D01*
X27480593Y10699515D01*
X27431093Y10663551D01*
X27369907Y10663551D01*
X27320407Y10699515D01*
X27311581Y10717490D01*
X27310323Y10716918D01*
X27253905Y10841004D01*
X27253904Y10841005D01*
X27250984Y10847428D01*
X27157400Y10956037D01*
X27037095Y11034015D01*
X26899739Y11075093D01*
X26816497Y11075602D01*
X26763427Y11075926D01*
X26763426Y11075926D01*
X26756376Y11075969D01*
X26749599Y11074032D01*
X26749598Y11074032D01*
X26625309Y11038510D01*
X26625307Y11038509D01*
X26618529Y11036572D01*
X26497280Y10960070D01*
X26496957Y10960583D01*
X26445171Y10939240D01*
X26385702Y10953630D01*
X26382410Y10956053D01*
X26382400Y10956037D01*
X26344515Y10980593D01*
X26262095Y11034015D01*
X26203023Y11051681D01*
X26152692Y11086467D01*
X26132419Y11144196D01*
X26149949Y11202816D01*
X26161387Y11216533D01*
X26415484Y11470630D01*
X26470001Y11498407D01*
X26487299Y11499609D01*
X26521499Y11498982D01*
X26555446Y11498359D01*
X26555448Y11498359D01*
X26562499Y11498230D01*
X26569302Y11500085D01*
X26569304Y11500085D01*
X26666654Y11526626D01*
X26700817Y11535940D01*
X26822991Y11610955D01*
X26830803Y11619585D01*
X26914468Y11712018D01*
X26919200Y11717246D01*
X26981710Y11846267D01*
X26983222Y11855250D01*
X27004862Y11983876D01*
X27004862Y11983880D01*
X27005496Y11987646D01*
X27005647Y12000000D01*
X26985323Y12141918D01*
X26939258Y12243234D01*
X26928905Y12266004D01*
X26928904Y12266005D01*
X26925984Y12272428D01*
X26848705Y12362114D01*
X26837005Y12375693D01*
X26837004Y12375694D01*
X26832400Y12381037D01*
X26712095Y12459015D01*
X26574739Y12500093D01*
X26491497Y12500602D01*
X26438427Y12500926D01*
X26438426Y12500926D01*
X26431376Y12500969D01*
X26424599Y12499032D01*
X26424598Y12499032D01*
X26300309Y12463510D01*
X26300307Y12463509D01*
X26293529Y12461572D01*
X26287564Y12457808D01*
X26287561Y12457807D01*
X26179466Y12389605D01*
X26120164Y12374544D01*
X26063334Y12397217D01*
X26051640Y12408709D01*
X26037007Y12425692D01*
X26037001Y12425697D01*
X26032400Y12431037D01*
X25912095Y12509015D01*
X25774739Y12550093D01*
X25691497Y12550602D01*
X25638427Y12550926D01*
X25638426Y12550926D01*
X25631376Y12550969D01*
X25624599Y12549032D01*
X25624598Y12549032D01*
X25500309Y12513510D01*
X25500307Y12513509D01*
X25493529Y12511572D01*
X25372280Y12435070D01*
X25367613Y12429786D01*
X25367611Y12429784D01*
X25282044Y12332897D01*
X25282042Y12332895D01*
X25277377Y12327612D01*
X25216447Y12197837D01*
X25215362Y12190868D01*
X25215361Y12190865D01*
X25205201Y12125606D01*
X25194391Y12056177D01*
X25195306Y12049178D01*
X25195260Y12045392D01*
X25175643Y11987436D01*
X25166271Y11976597D01*
X25112004Y11922330D01*
X25057487Y11894553D01*
X24997055Y11904124D01*
X24953790Y11947389D01*
X24943000Y11992334D01*
X24943000Y13644748D01*
X24931367Y13703231D01*
X24903125Y13745498D01*
X24886516Y13804387D01*
X24907694Y13861790D01*
X24958567Y13895783D01*
X24985440Y13899500D01*
X27400500Y13899500D01*
X27458691Y13880593D01*
G37*
G04 #@! TD.AperFunction*
G04 #@! TA.AperFunction,Conductor*
G36*
X18215334Y13880593D02*
G01*
X18251298Y13831093D01*
X18251298Y13769907D01*
X18215334Y13720407D01*
X18207762Y13715420D01*
X18029380Y13609293D01*
X18025965Y13606298D01*
X18025962Y13606296D01*
X17892022Y13488833D01*
X17870060Y13469573D01*
X17740289Y13304959D01*
X17689418Y13270968D01*
X17628280Y13273370D01*
X17580230Y13311249D01*
X17572423Y13325275D01*
X17553905Y13366004D01*
X17553904Y13366005D01*
X17550984Y13372428D01*
X17480021Y13454784D01*
X17462005Y13475693D01*
X17462004Y13475694D01*
X17457400Y13481037D01*
X17337095Y13559015D01*
X17199739Y13600093D01*
X17116497Y13600602D01*
X17063427Y13600926D01*
X17063426Y13600926D01*
X17056376Y13600969D01*
X17049599Y13599032D01*
X17049598Y13599032D01*
X16925309Y13563510D01*
X16925307Y13563509D01*
X16918529Y13561572D01*
X16797280Y13485070D01*
X16792613Y13479786D01*
X16792611Y13479784D01*
X16707044Y13382897D01*
X16707042Y13382895D01*
X16702377Y13377612D01*
X16699381Y13371230D01*
X16699380Y13371229D01*
X16685189Y13341004D01*
X16641447Y13247837D01*
X16640362Y13240868D01*
X16640361Y13240865D01*
X16625680Y13146570D01*
X16619391Y13106177D01*
X16637980Y12964021D01*
X16640821Y12957565D01*
X16640821Y12957564D01*
X16676363Y12876790D01*
X16695720Y12832797D01*
X16771129Y12743087D01*
X16782412Y12729664D01*
X16805382Y12672954D01*
X16805629Y12665962D01*
X16805629Y12387405D01*
X16805252Y12378776D01*
X16801865Y12340064D01*
X16804107Y12331697D01*
X16811925Y12302522D01*
X16813795Y12294088D01*
X16820541Y12255826D01*
X16824871Y12248327D01*
X16826867Y12242842D01*
X16829333Y12237555D01*
X16831575Y12229187D01*
X16849055Y12204224D01*
X16853861Y12197360D01*
X16858500Y12190079D01*
X16877935Y12156416D01*
X16887560Y12148340D01*
X16907700Y12131440D01*
X16914068Y12125606D01*
X17655069Y11384604D01*
X17682846Y11330087D01*
X17673275Y11269655D01*
X17630010Y11226390D01*
X17585065Y11215600D01*
X15460479Y11215600D01*
X15402288Y11234507D01*
X15366324Y11284007D01*
X15366324Y11345193D01*
X15371386Y11357767D01*
X15379931Y11375404D01*
X15383008Y11381755D01*
X15385444Y11396231D01*
X15406160Y11519364D01*
X15406160Y11519368D01*
X15406794Y11523134D01*
X15406945Y11535488D01*
X15386621Y11677406D01*
X15353842Y11749500D01*
X15330203Y11801492D01*
X15330202Y11801493D01*
X15327282Y11807916D01*
X15237797Y11911768D01*
X15214137Y11968190D01*
X15228160Y12027747D01*
X15249560Y12052560D01*
X15254084Y12056316D01*
X15260094Y12060006D01*
X15356303Y12166297D01*
X15418813Y12295318D01*
X15423173Y12321229D01*
X15441965Y12432927D01*
X15441965Y12432931D01*
X15442599Y12436697D01*
X15442750Y12449051D01*
X15422426Y12590969D01*
X15396298Y12648435D01*
X15366008Y12715055D01*
X15366007Y12715056D01*
X15363087Y12721479D01*
X15288710Y12807797D01*
X15274108Y12824744D01*
X15274107Y12824745D01*
X15269503Y12830088D01*
X15149198Y12908066D01*
X15011842Y12949144D01*
X14928600Y12949653D01*
X14875530Y12949977D01*
X14875529Y12949977D01*
X14868479Y12950020D01*
X14861702Y12948083D01*
X14861701Y12948083D01*
X14737412Y12912561D01*
X14737410Y12912560D01*
X14730632Y12910623D01*
X14609383Y12834121D01*
X14604716Y12828837D01*
X14604714Y12828835D01*
X14565088Y12783966D01*
X14512396Y12752866D01*
X14490884Y12750500D01*
X12368522Y12750500D01*
X12359893Y12750877D01*
X12329822Y12753508D01*
X12321193Y12754263D01*
X12283657Y12744205D01*
X12275231Y12742337D01*
X12268755Y12741195D01*
X12236955Y12735588D01*
X12229450Y12731255D01*
X12223973Y12729262D01*
X12218682Y12726795D01*
X12210316Y12724553D01*
X12178484Y12702264D01*
X12171206Y12697628D01*
X12145044Y12682524D01*
X12145042Y12682523D01*
X12137545Y12678194D01*
X12114371Y12650576D01*
X12112574Y12648435D01*
X12106740Y12642067D01*
X11172252Y11707579D01*
X11165885Y11701745D01*
X11143934Y11683325D01*
X11136117Y11676766D01*
X11120953Y11650500D01*
X11116684Y11643106D01*
X11112043Y11635822D01*
X11089757Y11603995D01*
X11087515Y11595627D01*
X11085049Y11590340D01*
X11083053Y11584855D01*
X11078723Y11577356D01*
X11077220Y11568830D01*
X11077219Y11568828D01*
X11071977Y11539095D01*
X11070107Y11530661D01*
X11060047Y11493118D01*
X11060802Y11484489D01*
X11063434Y11454406D01*
X11063811Y11445777D01*
X11063811Y11116626D01*
X11044904Y11058435D01*
X10995404Y11022471D01*
X10934218Y11022471D01*
X10894807Y11046622D01*
X10599372Y11342057D01*
X10593537Y11348425D01*
X10585698Y11357767D01*
X10568558Y11378194D01*
X10534895Y11397629D01*
X10527614Y11402268D01*
X10519575Y11407897D01*
X10495787Y11424554D01*
X10487419Y11426796D01*
X10482132Y11429262D01*
X10476647Y11431258D01*
X10469148Y11435588D01*
X10460622Y11437091D01*
X10460620Y11437092D01*
X10430887Y11442334D01*
X10422452Y11444204D01*
X10393277Y11452022D01*
X10384910Y11454264D01*
X10376281Y11453509D01*
X10346198Y11450877D01*
X10337569Y11450500D01*
X4800632Y11450500D01*
X4742441Y11469407D01*
X4725634Y11484876D01*
X4712006Y11500692D01*
X4712004Y11500694D01*
X4707400Y11506037D01*
X4587095Y11584015D01*
X4449739Y11625093D01*
X4366497Y11625602D01*
X4313427Y11625926D01*
X4313426Y11625926D01*
X4306376Y11625969D01*
X4299599Y11624032D01*
X4299598Y11624032D01*
X4175309Y11588510D01*
X4175307Y11588509D01*
X4168529Y11586572D01*
X4047280Y11510070D01*
X4042613Y11504786D01*
X4042611Y11504784D01*
X3957044Y11407897D01*
X3957042Y11407895D01*
X3952377Y11402612D01*
X3942585Y11381755D01*
X3939072Y11374273D01*
X3897226Y11329635D01*
X3837135Y11318118D01*
X3779454Y11346344D01*
X3583741Y11542057D01*
X3577906Y11548425D01*
X3552927Y11578194D01*
X3519264Y11597629D01*
X3511983Y11602268D01*
X3504849Y11607263D01*
X3480156Y11624554D01*
X3471788Y11626796D01*
X3466501Y11629262D01*
X3461016Y11631258D01*
X3453517Y11635588D01*
X3444991Y11637091D01*
X3444989Y11637092D01*
X3415256Y11642334D01*
X3406821Y11644204D01*
X3377646Y11652022D01*
X3369279Y11654264D01*
X3360650Y11653509D01*
X3330567Y11650877D01*
X3321938Y11650500D01*
X1949500Y11650500D01*
X1891309Y11669407D01*
X1855345Y11718907D01*
X1850500Y11749500D01*
X1850500Y12650576D01*
X1869407Y12708767D01*
X1876102Y12717012D01*
X1939468Y12787018D01*
X1944200Y12792246D01*
X2006710Y12921267D01*
X2010875Y12946018D01*
X2029862Y13058876D01*
X2029862Y13058880D01*
X2030496Y13062646D01*
X2030647Y13075000D01*
X2010323Y13216918D01*
X1971112Y13303159D01*
X1953905Y13341004D01*
X1953904Y13341005D01*
X1950984Y13347428D01*
X1864917Y13447313D01*
X1862005Y13450693D01*
X1862004Y13450694D01*
X1857400Y13456037D01*
X1737095Y13534015D01*
X1599739Y13575093D01*
X1516497Y13575602D01*
X1463427Y13575926D01*
X1463426Y13575926D01*
X1456376Y13575969D01*
X1449599Y13574032D01*
X1449598Y13574032D01*
X1325309Y13538510D01*
X1325307Y13538509D01*
X1318529Y13536572D01*
X1197280Y13460070D01*
X1192613Y13454786D01*
X1192611Y13454784D01*
X1107044Y13357897D01*
X1107042Y13357895D01*
X1102377Y13352612D01*
X1041447Y13222837D01*
X1019391Y13081177D01*
X1020306Y13074180D01*
X1020306Y13074179D01*
X1021814Y13062646D01*
X1037980Y12939021D01*
X1040821Y12932565D01*
X1040821Y12932564D01*
X1085912Y12830088D01*
X1095720Y12807797D01*
X1143566Y12750877D01*
X1176283Y12711955D01*
X1199253Y12655245D01*
X1199500Y12648253D01*
X1199500Y11660964D01*
X1180593Y11602773D01*
X1131093Y11566809D01*
X1069907Y11566809D01*
X1021958Y11600696D01*
X955372Y11687472D01*
X951421Y11692621D01*
X935908Y11704525D01*
X841574Y11776910D01*
X836425Y11780861D01*
X702509Y11836330D01*
X696080Y11837176D01*
X696078Y11837177D01*
X565233Y11854403D01*
X558800Y11855250D01*
X552367Y11854403D01*
X421522Y11837177D01*
X421520Y11837176D01*
X415091Y11836330D01*
X402979Y11831313D01*
X337385Y11804144D01*
X276388Y11799344D01*
X224219Y11831313D01*
X200805Y11887842D01*
X200500Y11895608D01*
X200500Y13800500D01*
X219407Y13858691D01*
X268907Y13894655D01*
X299500Y13899500D01*
X18157143Y13899500D01*
X18215334Y13880593D01*
G37*
G04 #@! TD.AperFunction*
G04 #@! TD*
M02*
