G04 #@! TF.GenerationSoftware,KiCad,Pcbnew,7.0.1-115-g2ece2719d0*
G04 #@! TF.CreationDate,2023-07-25T20:37:58+03:00*
G04 #@! TF.ProjectId,hellen1-vr-max9924,68656c6c-656e-4312-9d76-722d6d617839,rev?*
G04 #@! TF.SameCoordinates,PX4a19ba0PY5aa5910*
G04 #@! TF.FileFunction,Paste,Bot*
G04 #@! TF.FilePolarity,Positive*
%FSLAX46Y46*%
G04 Gerber Fmt 4.6, Leading zero omitted, Abs format (unit mm)*
G04 Created by KiCad (PCBNEW 7.0.1-115-g2ece2719d0) date 2023-07-25 20:37:58*
%MOMM*%
%LPD*%
G01*
G04 APERTURE LIST*
G04 APERTURE END LIST*
G04 #@! TO.C,R762*
G36*
G01*
X7040000Y350000D02*
X6260000Y350000D01*
G75*
G02*
X6190000Y420000I0J70000D01*
G01*
X6190000Y980000D01*
G75*
G02*
X6260000Y1050000I70000J0D01*
G01*
X7040000Y1050000D01*
G75*
G02*
X7110000Y980000I0J-70000D01*
G01*
X7110000Y420000D01*
G75*
G02*
X7040000Y350000I-70000J0D01*
G01*
G37*
G36*
G01*
X7040000Y1950000D02*
X6260000Y1950000D01*
G75*
G02*
X6190000Y2020000I0J70000D01*
G01*
X6190000Y2580000D01*
G75*
G02*
X6260000Y2650000I70000J0D01*
G01*
X7040000Y2650000D01*
G75*
G02*
X7110000Y2580000I0J-70000D01*
G01*
X7110000Y2020000D01*
G75*
G02*
X7040000Y1950000I-70000J0D01*
G01*
G37*
G04 #@! TD*
G04 #@! TO.C,R760*
G36*
G01*
X7250000Y9040000D02*
X7250000Y8260000D01*
G75*
G02*
X7180000Y8190000I-70000J0D01*
G01*
X6620000Y8190000D01*
G75*
G02*
X6550000Y8260000I0J70000D01*
G01*
X6550000Y9040000D01*
G75*
G02*
X6620000Y9110000I70000J0D01*
G01*
X7180000Y9110000D01*
G75*
G02*
X7250000Y9040000I0J-70000D01*
G01*
G37*
G36*
G01*
X5650000Y9040000D02*
X5650000Y8260000D01*
G75*
G02*
X5580000Y8190000I-70000J0D01*
G01*
X5020000Y8190000D01*
G75*
G02*
X4950000Y8260000I0J70000D01*
G01*
X4950000Y9040000D01*
G75*
G02*
X5020000Y9110000I70000J0D01*
G01*
X5580000Y9110000D01*
G75*
G02*
X5650000Y9040000I0J-70000D01*
G01*
G37*
G04 #@! TD*
G04 #@! TO.C,Q753*
G36*
G01*
X11650000Y4725000D02*
X11950000Y4725000D01*
G75*
G02*
X12100000Y4575000I0J-150000D01*
G01*
X12100000Y3400000D01*
G75*
G02*
X11950000Y3250000I-150000J0D01*
G01*
X11650000Y3250000D01*
G75*
G02*
X11500000Y3400000I0J150000D01*
G01*
X11500000Y4575000D01*
G75*
G02*
X11650000Y4725000I150000J0D01*
G01*
G37*
G36*
G01*
X12600000Y2850000D02*
X12900000Y2850000D01*
G75*
G02*
X13050000Y2700000I0J-150000D01*
G01*
X13050000Y1525000D01*
G75*
G02*
X12900000Y1375000I-150000J0D01*
G01*
X12600000Y1375000D01*
G75*
G02*
X12450000Y1525000I0J150000D01*
G01*
X12450000Y2700000D01*
G75*
G02*
X12600000Y2850000I150000J0D01*
G01*
G37*
G36*
G01*
X13550000Y4725000D02*
X13850000Y4725000D01*
G75*
G02*
X14000000Y4575000I0J-150000D01*
G01*
X14000000Y3400000D01*
G75*
G02*
X13850000Y3250000I-150000J0D01*
G01*
X13550000Y3250000D01*
G75*
G02*
X13400000Y3400000I0J150000D01*
G01*
X13400000Y4575000D01*
G75*
G02*
X13550000Y4725000I150000J0D01*
G01*
G37*
G04 #@! TD*
G04 #@! TO.C,Q752*
G36*
G01*
X8150000Y8675000D02*
X8450000Y8675000D01*
G75*
G02*
X8600000Y8525000I0J-150000D01*
G01*
X8600000Y7350000D01*
G75*
G02*
X8450000Y7200000I-150000J0D01*
G01*
X8150000Y7200000D01*
G75*
G02*
X8000000Y7350000I0J150000D01*
G01*
X8000000Y8525000D01*
G75*
G02*
X8150000Y8675000I150000J0D01*
G01*
G37*
G36*
G01*
X9100000Y6800000D02*
X9400000Y6800000D01*
G75*
G02*
X9550000Y6650000I0J-150000D01*
G01*
X9550000Y5475000D01*
G75*
G02*
X9400000Y5325000I-150000J0D01*
G01*
X9100000Y5325000D01*
G75*
G02*
X8950000Y5475000I0J150000D01*
G01*
X8950000Y6650000D01*
G75*
G02*
X9100000Y6800000I150000J0D01*
G01*
G37*
G36*
G01*
X10050000Y8675000D02*
X10350000Y8675000D01*
G75*
G02*
X10500000Y8525000I0J-150000D01*
G01*
X10500000Y7350000D01*
G75*
G02*
X10350000Y7200000I-150000J0D01*
G01*
X10050000Y7200000D01*
G75*
G02*
X9900000Y7350000I0J150000D01*
G01*
X9900000Y8525000D01*
G75*
G02*
X10050000Y8675000I150000J0D01*
G01*
G37*
G04 #@! TD*
G04 #@! TO.C,D753*
G36*
G01*
X10350000Y1375000D02*
X10050000Y1375000D01*
G75*
G02*
X9900000Y1525000I0J150000D01*
G01*
X9900000Y2700000D01*
G75*
G02*
X10050000Y2850000I150000J0D01*
G01*
X10350000Y2850000D01*
G75*
G02*
X10500000Y2700000I0J-150000D01*
G01*
X10500000Y1525000D01*
G75*
G02*
X10350000Y1375000I-150000J0D01*
G01*
G37*
G36*
G01*
X8450000Y1375000D02*
X8150000Y1375000D01*
G75*
G02*
X8000000Y1525000I0J150000D01*
G01*
X8000000Y2700000D01*
G75*
G02*
X8150000Y2850000I150000J0D01*
G01*
X8450000Y2850000D01*
G75*
G02*
X8600000Y2700000I0J-150000D01*
G01*
X8600000Y1525000D01*
G75*
G02*
X8450000Y1375000I-150000J0D01*
G01*
G37*
G36*
G01*
X9400000Y3250000D02*
X9100000Y3250000D01*
G75*
G02*
X8950000Y3400000I0J150000D01*
G01*
X8950000Y4575000D01*
G75*
G02*
X9100000Y4725000I150000J0D01*
G01*
X9400000Y4725000D01*
G75*
G02*
X9550000Y4575000I0J-150000D01*
G01*
X9550000Y3400000D01*
G75*
G02*
X9400000Y3250000I-150000J0D01*
G01*
G37*
G04 #@! TD*
G04 #@! TO.C,D752*
G36*
G01*
X11650000Y8675000D02*
X11950000Y8675000D01*
G75*
G02*
X12100000Y8525000I0J-150000D01*
G01*
X12100000Y7350000D01*
G75*
G02*
X11950000Y7200000I-150000J0D01*
G01*
X11650000Y7200000D01*
G75*
G02*
X11500000Y7350000I0J150000D01*
G01*
X11500000Y8525000D01*
G75*
G02*
X11650000Y8675000I150000J0D01*
G01*
G37*
G36*
G01*
X13550000Y8675000D02*
X13850000Y8675000D01*
G75*
G02*
X14000000Y8525000I0J-150000D01*
G01*
X14000000Y7350000D01*
G75*
G02*
X13850000Y7200000I-150000J0D01*
G01*
X13550000Y7200000D01*
G75*
G02*
X13400000Y7350000I0J150000D01*
G01*
X13400000Y8525000D01*
G75*
G02*
X13550000Y8675000I150000J0D01*
G01*
G37*
G36*
G01*
X12600000Y6800000D02*
X12900000Y6800000D01*
G75*
G02*
X13050000Y6650000I0J-150000D01*
G01*
X13050000Y5475000D01*
G75*
G02*
X12900000Y5325000I-150000J0D01*
G01*
X12600000Y5325000D01*
G75*
G02*
X12450000Y5475000I0J150000D01*
G01*
X12450000Y6650000D01*
G75*
G02*
X12600000Y6800000I150000J0D01*
G01*
G37*
G04 #@! TD*
M02*
