G04*
G04 #@! TF.GenerationSoftware,Altium Limited,Altium Designer,20.0.10 (225)*
G04*
G04 Layer_Physical_Order=1*
G04 Layer_Color=255*
%FSLAX25Y25*%
%MOIN*%
G70*
G01*
G75*
%ADD10C,0.00787*%
%ADD11C,0.00984*%
G04:AMPARAMS|DCode=14|XSize=70.87mil|YSize=45.28mil|CornerRadius=4.53mil|HoleSize=0mil|Usage=FLASHONLY|Rotation=180.000|XOffset=0mil|YOffset=0mil|HoleType=Round|Shape=RoundedRectangle|*
%AMROUNDEDRECTD14*
21,1,0.07087,0.03622,0,0,180.0*
21,1,0.06181,0.04528,0,0,180.0*
1,1,0.00906,-0.03091,0.01811*
1,1,0.00906,0.03091,0.01811*
1,1,0.00906,0.03091,-0.01811*
1,1,0.00906,-0.03091,-0.01811*
%
%ADD14ROUNDEDRECTD14*%
G04:AMPARAMS|DCode=15|XSize=70.87mil|YSize=45.28mil|CornerRadius=4.53mil|HoleSize=0mil|Usage=FLASHONLY|Rotation=270.000|XOffset=0mil|YOffset=0mil|HoleType=Round|Shape=RoundedRectangle|*
%AMROUNDEDRECTD15*
21,1,0.07087,0.03622,0,0,270.0*
21,1,0.06181,0.04528,0,0,270.0*
1,1,0.00906,-0.01811,-0.03091*
1,1,0.00906,-0.01811,0.03091*
1,1,0.00906,0.01811,0.03091*
1,1,0.00906,0.01811,-0.03091*
%
%ADD15ROUNDEDRECTD15*%
G04:AMPARAMS|DCode=16|XSize=35.43mil|YSize=37.4mil|CornerRadius=3.54mil|HoleSize=0mil|Usage=FLASHONLY|Rotation=90.000|XOffset=0mil|YOffset=0mil|HoleType=Round|Shape=RoundedRectangle|*
%AMROUNDEDRECTD16*
21,1,0.03543,0.03032,0,0,90.0*
21,1,0.02835,0.03740,0,0,90.0*
1,1,0.00709,0.01516,0.01417*
1,1,0.00709,0.01516,-0.01417*
1,1,0.00709,-0.01516,-0.01417*
1,1,0.00709,-0.01516,0.01417*
%
%ADD16ROUNDEDRECTD16*%
G04:AMPARAMS|DCode=17|XSize=35.43mil|YSize=37.4mil|CornerRadius=3.54mil|HoleSize=0mil|Usage=FLASHONLY|Rotation=90.000|XOffset=0mil|YOffset=0mil|HoleType=Round|Shape=RoundedRectangle|*
%AMROUNDEDRECTD17*
21,1,0.03543,0.03032,0,0,90.0*
21,1,0.02835,0.03740,0,0,90.0*
1,1,0.00709,0.01516,0.01417*
1,1,0.00709,0.01516,-0.01417*
1,1,0.00709,-0.01516,-0.01417*
1,1,0.00709,-0.01516,0.01417*
%
%ADD17ROUNDEDRECTD17*%
G04:AMPARAMS|DCode=18|XSize=27.56mil|YSize=36.22mil|CornerRadius=2.76mil|HoleSize=0mil|Usage=FLASHONLY|Rotation=90.000|XOffset=0mil|YOffset=0mil|HoleType=Round|Shape=RoundedRectangle|*
%AMROUNDEDRECTD18*
21,1,0.02756,0.03071,0,0,90.0*
21,1,0.02205,0.03622,0,0,90.0*
1,1,0.00551,0.01535,0.01102*
1,1,0.00551,0.01535,-0.01102*
1,1,0.00551,-0.01535,-0.01102*
1,1,0.00551,-0.01535,0.01102*
%
%ADD18ROUNDEDRECTD18*%
G04:AMPARAMS|DCode=19|XSize=43.31mil|YSize=84.65mil|CornerRadius=4.33mil|HoleSize=0mil|Usage=FLASHONLY|Rotation=180.000|XOffset=0mil|YOffset=0mil|HoleType=Round|Shape=RoundedRectangle|*
%AMROUNDEDRECTD19*
21,1,0.04331,0.07598,0,0,180.0*
21,1,0.03465,0.08465,0,0,180.0*
1,1,0.00866,-0.01732,0.03799*
1,1,0.00866,0.01732,0.03799*
1,1,0.00866,0.01732,-0.03799*
1,1,0.00866,-0.01732,-0.03799*
%
%ADD19ROUNDEDRECTD19*%
G04:AMPARAMS|DCode=20|XSize=43.31mil|YSize=84.65mil|CornerRadius=4.33mil|HoleSize=0mil|Usage=FLASHONLY|Rotation=180.000|XOffset=0mil|YOffset=0mil|HoleType=Round|Shape=RoundedRectangle|*
%AMROUNDEDRECTD20*
21,1,0.04331,0.07599,0,0,180.0*
21,1,0.03465,0.08465,0,0,180.0*
1,1,0.00866,-0.01732,0.03799*
1,1,0.00866,0.01732,0.03799*
1,1,0.00866,0.01732,-0.03799*
1,1,0.00866,-0.01732,-0.03799*
%
%ADD20ROUNDEDRECTD20*%
G04:AMPARAMS|DCode=21|XSize=137.8mil|YSize=84.65mil|CornerRadius=8.47mil|HoleSize=0mil|Usage=FLASHONLY|Rotation=180.000|XOffset=0mil|YOffset=0mil|HoleType=Round|Shape=RoundedRectangle|*
%AMROUNDEDRECTD21*
21,1,0.13780,0.06772,0,0,180.0*
21,1,0.12087,0.08465,0,0,180.0*
1,1,0.01693,-0.06043,0.03386*
1,1,0.01693,0.06043,0.03386*
1,1,0.01693,0.06043,-0.03386*
1,1,0.01693,-0.06043,-0.03386*
%
%ADD21ROUNDEDRECTD21*%
G04:AMPARAMS|DCode=22|XSize=35.43mil|YSize=37.4mil|CornerRadius=3.54mil|HoleSize=0mil|Usage=FLASHONLY|Rotation=180.000|XOffset=0mil|YOffset=0mil|HoleType=Round|Shape=RoundedRectangle|*
%AMROUNDEDRECTD22*
21,1,0.03543,0.03032,0,0,180.0*
21,1,0.02835,0.03740,0,0,180.0*
1,1,0.00709,-0.01417,0.01516*
1,1,0.00709,0.01417,0.01516*
1,1,0.00709,0.01417,-0.01516*
1,1,0.00709,-0.01417,-0.01516*
%
%ADD22ROUNDEDRECTD22*%
G04:AMPARAMS|DCode=23|XSize=35.43mil|YSize=37.4mil|CornerRadius=3.54mil|HoleSize=0mil|Usage=FLASHONLY|Rotation=180.000|XOffset=0mil|YOffset=0mil|HoleType=Round|Shape=RoundedRectangle|*
%AMROUNDEDRECTD23*
21,1,0.03543,0.03032,0,0,180.0*
21,1,0.02835,0.03740,0,0,180.0*
1,1,0.00709,-0.01417,0.01516*
1,1,0.00709,0.01417,0.01516*
1,1,0.00709,0.01417,-0.01516*
1,1,0.00709,-0.01417,-0.01516*
%
%ADD23ROUNDEDRECTD23*%
G04:AMPARAMS|DCode=24|XSize=25.59mil|YSize=31.5mil|CornerRadius=2.56mil|HoleSize=0mil|Usage=FLASHONLY|Rotation=90.000|XOffset=0mil|YOffset=0mil|HoleType=Round|Shape=RoundedRectangle|*
%AMROUNDEDRECTD24*
21,1,0.02559,0.02638,0,0,90.0*
21,1,0.02047,0.03150,0,0,90.0*
1,1,0.00512,0.01319,0.01024*
1,1,0.00512,0.01319,-0.01024*
1,1,0.00512,-0.01319,-0.01024*
1,1,0.00512,-0.01319,0.01024*
%
%ADD24ROUNDEDRECTD24*%
G04:AMPARAMS|DCode=25|XSize=17.72mil|YSize=31.5mil|CornerRadius=1.77mil|HoleSize=0mil|Usage=FLASHONLY|Rotation=90.000|XOffset=0mil|YOffset=0mil|HoleType=Round|Shape=RoundedRectangle|*
%AMROUNDEDRECTD25*
21,1,0.01772,0.02795,0,0,90.0*
21,1,0.01417,0.03150,0,0,90.0*
1,1,0.00354,0.01398,0.00709*
1,1,0.00354,0.01398,-0.00709*
1,1,0.00354,-0.01398,-0.00709*
1,1,0.00354,-0.01398,0.00709*
%
%ADD25ROUNDEDRECTD25*%
%ADD26O,0.02362X0.08661*%
%ADD27O,0.08661X0.02362*%
G04:AMPARAMS|DCode=28|XSize=39.37mil|YSize=57.09mil|CornerRadius=3.94mil|HoleSize=0mil|Usage=FLASHONLY|Rotation=0.000|XOffset=0mil|YOffset=0mil|HoleType=Round|Shape=RoundedRectangle|*
%AMROUNDEDRECTD28*
21,1,0.03937,0.04921,0,0,0.0*
21,1,0.03150,0.05709,0,0,0.0*
1,1,0.00787,0.01575,-0.02461*
1,1,0.00787,-0.01575,-0.02461*
1,1,0.00787,-0.01575,0.02461*
1,1,0.00787,0.01575,0.02461*
%
%ADD28ROUNDEDRECTD28*%
G04:AMPARAMS|DCode=29|XSize=33.47mil|YSize=33.47mil|CornerRadius=3.35mil|HoleSize=0mil|Usage=FLASHONLY|Rotation=180.000|XOffset=0mil|YOffset=0mil|HoleType=Round|Shape=RoundedRectangle|*
%AMROUNDEDRECTD29*
21,1,0.03347,0.02677,0,0,180.0*
21,1,0.02677,0.03347,0,0,180.0*
1,1,0.00669,-0.01339,0.01339*
1,1,0.00669,0.01339,0.01339*
1,1,0.00669,0.01339,-0.01339*
1,1,0.00669,-0.01339,-0.01339*
%
%ADD29ROUNDEDRECTD29*%
G04:AMPARAMS|DCode=30|XSize=39.37mil|YSize=57.09mil|CornerRadius=3.94mil|HoleSize=0mil|Usage=FLASHONLY|Rotation=90.000|XOffset=0mil|YOffset=0mil|HoleType=Round|Shape=RoundedRectangle|*
%AMROUNDEDRECTD30*
21,1,0.03937,0.04921,0,0,90.0*
21,1,0.03150,0.05709,0,0,90.0*
1,1,0.00787,0.02461,0.01575*
1,1,0.00787,0.02461,-0.01575*
1,1,0.00787,-0.02461,-0.01575*
1,1,0.00787,-0.02461,0.01575*
%
%ADD30ROUNDEDRECTD30*%
G04:AMPARAMS|DCode=31|XSize=35.83mil|YSize=33.47mil|CornerRadius=3.35mil|HoleSize=0mil|Usage=FLASHONLY|Rotation=90.000|XOffset=0mil|YOffset=0mil|HoleType=Round|Shape=RoundedRectangle|*
%AMROUNDEDRECTD31*
21,1,0.03583,0.02677,0,0,90.0*
21,1,0.02913,0.03347,0,0,90.0*
1,1,0.00669,0.01339,0.01457*
1,1,0.00669,0.01339,-0.01457*
1,1,0.00669,-0.01339,-0.01457*
1,1,0.00669,-0.01339,0.01457*
%
%ADD31ROUNDEDRECTD31*%
G04:AMPARAMS|DCode=32|XSize=27.56mil|YSize=36.22mil|CornerRadius=2.76mil|HoleSize=0mil|Usage=FLASHONLY|Rotation=180.000|XOffset=0mil|YOffset=0mil|HoleType=Round|Shape=RoundedRectangle|*
%AMROUNDEDRECTD32*
21,1,0.02756,0.03071,0,0,180.0*
21,1,0.02205,0.03622,0,0,180.0*
1,1,0.00551,-0.01102,0.01535*
1,1,0.00551,0.01102,0.01535*
1,1,0.00551,0.01102,-0.01535*
1,1,0.00551,-0.01102,-0.01535*
%
%ADD32ROUNDEDRECTD32*%
G04:AMPARAMS|DCode=54|XSize=7.87mil|YSize=11.81mil|CornerRadius=0mil|HoleSize=0mil|Usage=FLASHONLY|Rotation=45.000|XOffset=0mil|YOffset=0mil|HoleType=Round|Shape=Round|*
%AMOVALD54*
21,1,0.00394,0.00787,0.00000,0.00000,135.0*
1,1,0.00787,0.00139,-0.00139*
1,1,0.00787,-0.00139,0.00139*
%
%ADD54OVALD54*%

%ADD55O,0.00787X0.14173*%
%ADD56O,0.06693X0.00787*%
G04:AMPARAMS|DCode=57|XSize=95.67mil|YSize=7.87mil|CornerRadius=0mil|HoleSize=0mil|Usage=FLASHONLY|Rotation=45.000|XOffset=0mil|YOffset=0mil|HoleType=Round|Shape=Round|*
%AMOVALD57*
21,1,0.08780,0.00787,0.00000,0.00000,45.0*
1,1,0.00787,-0.03104,-0.03104*
1,1,0.00787,0.03104,0.03104*
%
%ADD57OVALD57*%

%ADD58O,1.01181X0.00787*%
%ADD59O,0.00787X0.56693*%
%ADD60O,0.00787X0.34744*%
%ADD61O,0.00787X0.16732*%
%ADD62O,0.00787X1.01772*%
%ADD63O,0.44587X0.00787*%
%ADD64O,0.03937X0.05906*%
G04:AMPARAMS|DCode=65|XSize=39.37mil|YSize=7.87mil|CornerRadius=0mil|HoleSize=0mil|Usage=FLASHONLY|Rotation=315.000|XOffset=0mil|YOffset=0mil|HoleType=Round|Shape=Round|*
%AMOVALD65*
21,1,0.03150,0.00787,0.00000,0.00000,315.0*
1,1,0.00787,-0.01114,0.01114*
1,1,0.00787,0.01114,-0.01114*
%
%ADD65OVALD65*%

%ADD66O,0.00787X0.16339*%
%ADD67O,0.03150X0.02362*%
%ADD68C,0.03150*%
%ADD69C,0.02362*%
%ADD70C,0.01575*%
%ADD71C,0.01968*%
%ADD72C,0.01181*%
%ADD73C,0.03937*%
%ADD74C,0.05118*%
%ADD75C,0.02362*%
G36*
X6479Y166942D02*
X6408Y166868D01*
X6301Y166742D01*
X6264Y166688D01*
X6239Y166641D01*
X6224Y166601D01*
X6221Y166567D01*
X6230Y166540D01*
X6250Y166519D01*
X6281Y166505D01*
X6178Y166535D01*
X6162Y166502D01*
X6099Y166335D01*
X6046Y166147D01*
X6003Y165940D01*
X5969Y165712D01*
X5930Y165195D01*
X5925Y164907D01*
X4941Y164414D01*
X4936Y164600D01*
X4921Y164755D01*
X4896Y164880D01*
X4861Y164975D01*
X4816Y165040D01*
X4761Y165075D01*
X4696Y165080D01*
X4621Y165055D01*
X4535Y165000D01*
X4440Y164915D01*
X6088Y166562D01*
X5128Y166848D01*
X5165Y166857D01*
X5210Y166878D01*
X5263Y166909D01*
X5323Y166951D01*
X5468Y167067D01*
X5643Y167225D01*
X5850Y167426D01*
X6479Y166942D01*
D02*
G37*
G36*
X14685Y166545D02*
X14739Y166456D01*
X14876Y166262D01*
X15048Y166049D01*
X15373Y165692D01*
X15500Y165563D01*
X15041Y164909D01*
X14955Y164988D01*
X14870Y165052D01*
X14784Y165103D01*
X14698Y165141D01*
X14611Y165165D01*
X14524Y165175D01*
X14437Y165172D01*
X14350Y165155D01*
X14262Y165124D01*
X14174Y165080D01*
X14640Y166630D01*
X14685Y166545D01*
D02*
G37*
G36*
X9266Y164817D02*
X9278Y164899D01*
X9266Y164972D01*
X9231Y165037D01*
X9173Y165093D01*
X9092Y165140D01*
X8987Y165179D01*
X8859Y165209D01*
X8707Y165231D01*
X8533Y165244D01*
X8335Y165248D01*
X8400Y166232D01*
X8639Y166237D01*
X9048Y166270D01*
X9219Y166300D01*
X9366Y166338D01*
X9492Y166384D01*
X9594Y166439D01*
X9674Y166502D01*
X9730Y166574D01*
X9765Y166654D01*
X9266Y164817D01*
D02*
G37*
G36*
X57126Y160528D02*
X57130Y160419D01*
X57143Y160312D01*
X57164Y160207D01*
X57193Y160105D01*
X57231Y160005D01*
X57278Y159907D01*
X57332Y159811D01*
X57396Y159717D01*
X57467Y159625D01*
X57547Y159536D01*
X55895Y159591D01*
X55979Y159674D01*
X56055Y159760D01*
X56121Y159849D01*
X56179Y159941D01*
X56228Y160036D01*
X56268Y160134D01*
X56299Y160235D01*
X56321Y160339D01*
X56334Y160446D01*
X56339Y160556D01*
X57126Y160528D01*
D02*
G37*
G36*
X62341Y160360D02*
X62344Y160256D01*
X62353Y160151D01*
X62369Y160046D01*
X62390Y159941D01*
X62417Y159835D01*
X62490Y159621D01*
X62536Y159513D01*
X62646Y159296D01*
X61059Y159763D01*
X61153Y159819D01*
X61237Y159881D01*
X61312Y159950D01*
X61376Y160025D01*
X61430Y160106D01*
X61475Y160194D01*
X61509Y160288D01*
X61534Y160389D01*
X61549Y160495D01*
X61554Y160609D01*
X62341Y160360D01*
D02*
G37*
G36*
X51489Y158512D02*
X51445Y158572D01*
X51389Y158610D01*
X51324Y158628D01*
X51248Y158623D01*
X51162Y158597D01*
X51065Y158550D01*
X50957Y158481D01*
X50839Y158390D01*
X50711Y158278D01*
X50572Y158145D01*
X50161Y158847D01*
X50299Y158991D01*
X50519Y159254D01*
X50601Y159375D01*
X50664Y159487D01*
X50709Y159592D01*
X50735Y159689D01*
X50743Y159779D01*
X50732Y159860D01*
X50703Y159934D01*
X51489Y158512D01*
D02*
G37*
G36*
X81814Y158447D02*
X81754Y158491D01*
X81686Y158516D01*
X81609Y158520D01*
X81522Y158505D01*
X81427Y158469D01*
X81322Y158414D01*
X81208Y158338D01*
X81085Y158243D01*
X80953Y158127D01*
X80812Y157992D01*
X80255Y158548D01*
X80391Y158689D01*
X80602Y158944D01*
X80678Y159058D01*
X80733Y159163D01*
X80769Y159258D01*
X80784Y159345D01*
X80780Y159422D01*
X80755Y159491D01*
X80710Y159550D01*
X81814Y158447D01*
D02*
G37*
G36*
X19843Y158388D02*
X19756Y158450D01*
X19662Y158506D01*
X19563Y158555D01*
X19457Y158597D01*
X19346Y158633D01*
X19230Y158662D01*
X19107Y158685D01*
X18979Y158701D01*
X18845Y158711D01*
X18705Y158714D01*
X18473Y159502D01*
X18650Y159506D01*
X18806Y159518D01*
X18940Y159537D01*
X19053Y159565D01*
X19143Y159600D01*
X19211Y159644D01*
X19258Y159695D01*
X19283Y159754D01*
X19285Y159821D01*
X19266Y159896D01*
X19843Y158388D01*
D02*
G37*
G36*
X61838Y158511D02*
X62349Y158552D01*
X62348Y158547D01*
X62346Y158531D01*
X62343Y158422D01*
X62341Y158031D01*
X61221D01*
X61192Y158668D01*
X61838Y158511D01*
D02*
G37*
G36*
X56786Y158521D02*
X57144Y158475D01*
X57141Y158471D01*
X57138Y158458D01*
X57135Y158436D01*
X57131Y158366D01*
X57126Y158031D01*
X56299D01*
X56281Y158600D01*
X56786Y158521D01*
D02*
G37*
G36*
X67298Y159484D02*
X67311Y159376D01*
X67334Y159273D01*
X67365Y159172D01*
X67405Y159074D01*
X67454Y158979D01*
X67512Y158888D01*
X67579Y158800D01*
X67655Y158714D01*
X67740Y158632D01*
X67454Y158620D01*
X67438Y158610D01*
X67404Y158567D01*
X67375Y158507D01*
X67350Y158431D01*
X67330Y158339D01*
X67314Y158230D01*
X67302Y158105D01*
X67293Y157804D01*
X66506D01*
X66504Y157957D01*
X66486Y158214D01*
X66470Y158318D01*
X66449Y158406D01*
X66425Y158477D01*
X66395Y158532D01*
X66361Y158571D01*
X66355Y158575D01*
X66088Y158564D01*
X66167Y158654D01*
X66238Y158746D01*
X66301Y158841D01*
X66355Y158937D01*
X66401Y159036D01*
X66439Y159136D01*
X66468Y159239D01*
X66489Y159344D01*
X66502Y159450D01*
X66506Y159559D01*
X67293Y159594D01*
X67298Y159484D01*
D02*
G37*
G36*
X72258Y159471D02*
X72271Y159364D01*
X72293Y159260D01*
X72324Y159158D01*
X72363Y159060D01*
X72411Y158963D01*
X72467Y158870D01*
X72533Y158779D01*
X72607Y158691D01*
X72690Y158606D01*
X72416Y158603D01*
X72383Y158566D01*
X72348Y158505D01*
X72320Y158426D01*
X72296Y158329D01*
X72278Y158214D01*
X72264Y158082D01*
X72254Y157765D01*
X71466D01*
X71464Y157934D01*
X71443Y158220D01*
X71425Y158336D01*
X71401Y158434D01*
X71372Y158514D01*
X71338Y158577D01*
X71323Y158595D01*
X71036Y158592D01*
X71118Y158679D01*
X71191Y158769D01*
X71256Y158861D01*
X71312Y158955D01*
X71359Y159052D01*
X71398Y159151D01*
X71428Y159253D01*
X71449Y159358D01*
X71462Y159465D01*
X71466Y159574D01*
X72254Y159581D01*
X72258Y159471D01*
D02*
G37*
G36*
X99348Y158962D02*
X99265Y158919D01*
X99193Y158849D01*
X99130Y158749D01*
X99077Y158622D01*
X99034Y158466D01*
X99000Y158282D01*
X98976Y158070D01*
X98962Y157829D01*
X98957Y157561D01*
X97972D01*
X97968Y157829D01*
X97929Y158282D01*
X97895Y158466D01*
X97852Y158622D01*
X97799Y158749D01*
X97736Y158849D01*
X97664Y158919D01*
X97581Y158962D01*
X97490Y158976D01*
X99439D01*
X99348Y158962D01*
D02*
G37*
G36*
X89411Y159048D02*
X89350Y158992D01*
X89317Y158922D01*
X89313Y158836D01*
X89338Y158735D01*
X89392Y158619D01*
X89475Y158488D01*
X89587Y158341D01*
X89728Y158180D01*
X89898Y158003D01*
X89089Y157420D01*
X87875Y158585D01*
X89502Y159088D01*
X89411Y159048D01*
D02*
G37*
G36*
X77278Y159471D02*
X77291Y159364D01*
X77313Y159260D01*
X77343Y159159D01*
X77383Y159060D01*
X77430Y158963D01*
X77487Y158870D01*
X77552Y158779D01*
X77627Y158691D01*
X77694Y158622D01*
X77768Y158559D01*
X77863Y158490D01*
X77959Y158429D01*
X78057Y158376D01*
X78156Y158331D01*
X78257Y158294D01*
X78361Y158265D01*
X78465Y158245D01*
X78572Y158232D01*
X78681Y158228D01*
X78737Y157441D01*
X78626Y157436D01*
X78519Y157423D01*
X78416Y157400D01*
X78315Y157368D01*
X78219Y157327D01*
X78125Y157278D01*
X78035Y157219D01*
X77949Y157150D01*
X77866Y157073D01*
X77787Y156987D01*
X77678Y158605D01*
X77425Y158603D01*
X77402Y158577D01*
X77368Y158514D01*
X77339Y158434D01*
X77315Y158336D01*
X77297Y158220D01*
X77284Y158086D01*
X77274Y157765D01*
X76486D01*
X76484Y157933D01*
X76463Y158214D01*
X76444Y158329D01*
X76421Y158425D01*
X76392Y158504D01*
X76358Y158566D01*
X76332Y158594D01*
X76056Y158592D01*
X76138Y158679D01*
X76211Y158768D01*
X76275Y158861D01*
X76331Y158955D01*
X76379Y159052D01*
X76417Y159151D01*
X76447Y159253D01*
X76469Y159358D01*
X76482Y159465D01*
X76486Y159574D01*
X77274Y159581D01*
X77278Y159471D01*
D02*
G37*
G36*
X10720Y154514D02*
X10646Y154434D01*
X10580Y154349D01*
X10521Y154260D01*
X10471Y154166D01*
X10428Y154069D01*
X10393Y153967D01*
X10367Y153860D01*
X10348Y153750D01*
X10337Y153635D01*
X10335Y153516D01*
X9165Y154685D01*
X9285Y154688D01*
X9399Y154699D01*
X9510Y154717D01*
X9616Y154744D01*
X9718Y154778D01*
X9816Y154821D01*
X9909Y154871D01*
X9998Y154930D01*
X10083Y154997D01*
X10164Y155071D01*
X10720Y154514D01*
D02*
G37*
G36*
X110925Y166004D02*
Y150180D01*
X110425Y149778D01*
X110394Y149785D01*
X107323D01*
X106908Y149702D01*
X106556Y149467D01*
X106322Y149116D01*
X106239Y148701D01*
Y148311D01*
X105106D01*
X105042Y148315D01*
X104950Y148328D01*
X104884Y148427D01*
X104682Y148562D01*
X104669Y148698D01*
Y150433D01*
X104669Y150433D01*
X104577Y150894D01*
X104316Y151285D01*
X104316Y151285D01*
X102154Y153447D01*
X102302Y154193D01*
X102150Y154961D01*
X101715Y155612D01*
X101063Y156047D01*
X100295Y156200D01*
X99926Y156127D01*
X99625Y156577D01*
X99670Y156643D01*
X99769Y157142D01*
Y157885D01*
X99776Y158001D01*
X99790Y158125D01*
X99884Y158187D01*
X100319Y158838D01*
X100472Y159606D01*
Y165905D01*
X100319Y166674D01*
X99884Y167325D01*
X99233Y167760D01*
X98465Y167913D01*
X97697Y167760D01*
X97045Y167325D01*
X96610Y166674D01*
X96457Y165905D01*
Y159606D01*
X96610Y158838D01*
X96904Y158398D01*
X96770Y157888D01*
X96661Y157817D01*
X95161D01*
X94971Y158317D01*
X95319Y158838D01*
X95472Y159606D01*
Y165905D01*
X95319Y166674D01*
X94884Y167325D01*
X94233Y167760D01*
X93465Y167913D01*
X92696Y167760D01*
X92045Y167325D01*
X91610Y166674D01*
X91457Y165905D01*
Y159606D01*
X91610Y158838D01*
X91958Y158317D01*
X91768Y157817D01*
X91233D01*
X90276Y158774D01*
X90319Y158838D01*
X90472Y159606D01*
Y165905D01*
X90319Y166674D01*
X89884Y167325D01*
X89233Y167760D01*
X88465Y167913D01*
X87696Y167760D01*
X87045Y167325D01*
X86610Y166674D01*
X86458Y165905D01*
Y159606D01*
X86610Y158838D01*
X87045Y158187D01*
X87325Y158000D01*
X88188Y157172D01*
X88847Y156513D01*
X88655Y156051D01*
X84841D01*
X84777Y156116D01*
X84256Y156464D01*
X83641Y156586D01*
X83641Y156586D01*
X81240D01*
X81170Y156681D01*
X81053Y157086D01*
X81546Y157579D01*
X81597Y157624D01*
X81628Y157648D01*
X81870Y157599D01*
X82638Y157752D01*
X83289Y158187D01*
X83724Y158838D01*
X83877Y159606D01*
Y165905D01*
X83724Y166674D01*
X83289Y167325D01*
X82638Y167760D01*
X81870Y167913D01*
X81102Y167760D01*
X80451Y167325D01*
X80016Y166674D01*
X79863Y165905D01*
Y159606D01*
X79887Y159486D01*
X79558Y159096D01*
X79179Y159100D01*
X78855Y159496D01*
X78877Y159606D01*
Y165905D01*
X78724Y166674D01*
X78289Y167325D01*
X77638Y167760D01*
X76870Y167913D01*
X76102Y167760D01*
X75451Y167325D01*
X75016Y166674D01*
X74863Y165905D01*
Y159606D01*
X75016Y158838D01*
X75131Y158666D01*
X75035Y158523D01*
X74883Y157755D01*
X75016Y157086D01*
X74748Y156586D01*
X74011D01*
X73744Y157086D01*
X73877Y157755D01*
X73724Y158523D01*
X73619Y158681D01*
X73724Y158838D01*
X73877Y159606D01*
Y165905D01*
X73724Y166674D01*
X73289Y167325D01*
X72638Y167760D01*
X71870Y167913D01*
X71102Y167760D01*
X70451Y167325D01*
X70016Y166674D01*
X69863Y165905D01*
Y159606D01*
X70016Y158838D01*
X70121Y158681D01*
X70016Y158523D01*
X69863Y157755D01*
X69996Y157086D01*
X69728Y156586D01*
X69090D01*
X68822Y157086D01*
X68955Y157755D01*
X68803Y158523D01*
X68658Y158739D01*
X68724Y158838D01*
X68877Y159606D01*
Y165905D01*
X68724Y166674D01*
X68289Y167325D01*
X67638Y167760D01*
X66870Y167913D01*
X66102Y167760D01*
X65451Y167325D01*
X65016Y166674D01*
X64863Y165905D01*
Y159606D01*
X65016Y158838D01*
X65160Y158622D01*
X65094Y158523D01*
X64941Y157755D01*
X64938Y157743D01*
X64516Y157333D01*
X64311Y157373D01*
X64311Y157373D01*
X63612D01*
X63376Y157814D01*
X63468Y157952D01*
X63611Y158668D01*
X63724Y158838D01*
X63877Y159606D01*
Y165905D01*
X63724Y166674D01*
X63289Y167325D01*
X62638Y167760D01*
X61870Y167913D01*
X61102Y167760D01*
X60451Y167325D01*
X60016Y166674D01*
X59863Y165905D01*
Y159643D01*
X59760Y159489D01*
X59607Y158721D01*
X59760Y157952D01*
X59852Y157814D01*
X59616Y157373D01*
X58691D01*
X58455Y157814D01*
X58547Y157952D01*
X58700Y158721D01*
X58688Y158783D01*
X58724Y158838D01*
X58877Y159606D01*
Y165905D01*
X58724Y166674D01*
X58289Y167325D01*
X57638Y167760D01*
X56870Y167913D01*
X56102Y167760D01*
X55451Y167325D01*
X55016Y166674D01*
X54863Y165905D01*
Y159606D01*
X54875Y159544D01*
X54839Y159489D01*
X54686Y158721D01*
X54839Y157952D01*
X54931Y157814D01*
X54695Y157373D01*
X52972D01*
X52820Y157873D01*
X53289Y158187D01*
X53724Y158838D01*
X53877Y159606D01*
Y165905D01*
X53724Y166674D01*
X53289Y167325D01*
X52638Y167760D01*
X51870Y167913D01*
X51102Y167760D01*
X50451Y167325D01*
X50016Y166674D01*
X49863Y165905D01*
Y159722D01*
X49733Y159566D01*
X49534Y159367D01*
X49181Y159556D01*
X49094Y159634D01*
Y162256D01*
X44646D01*
Y159606D01*
X44816Y158755D01*
X45072Y158371D01*
X45191Y158495D01*
X45527Y158897D01*
X45647Y159075D01*
X45736Y159237D01*
X45792Y159385D01*
X45818Y159517D01*
X45811Y159634D01*
X45773Y159735D01*
X45703Y159822D01*
X47175Y158467D01*
X47094Y158449D01*
X47004Y158416D01*
X46906Y158368D01*
X46799Y158304D01*
X46683Y158225D01*
X46426Y158021D01*
X46284Y157896D01*
X45974Y157600D01*
X45271Y158073D01*
X45298Y158034D01*
X46019Y157552D01*
X46847Y157387D01*
X46969Y157204D01*
X47109Y156942D01*
X45791Y155624D01*
X45453Y155850D01*
X44685Y156003D01*
X43917Y155850D01*
X43266Y155415D01*
X42831Y154764D01*
X42678Y153996D01*
X42831Y153228D01*
X43266Y152577D01*
X43900Y152153D01*
X43969Y152096D01*
X44074Y151620D01*
X42369Y149915D01*
X42020Y149394D01*
X41931Y148943D01*
X41904Y148919D01*
X41525Y148752D01*
X41398Y148743D01*
X40926Y149059D01*
X40157Y149212D01*
X39389Y149059D01*
X38738Y148624D01*
X38430Y148162D01*
X38315Y148135D01*
X37871Y148168D01*
X37517Y148698D01*
X36866Y149133D01*
X36097Y149286D01*
X35329Y149133D01*
X34678Y148698D01*
X34650Y148655D01*
X34014Y148230D01*
X33579Y147579D01*
X33426Y146811D01*
Y140512D01*
X33579Y139744D01*
X34014Y139093D01*
X34501Y138767D01*
X34306Y138296D01*
X33858Y138385D01*
X33090Y138232D01*
X32439Y137797D01*
X32004Y137146D01*
X31851Y136378D01*
X32004Y135610D01*
X32099Y135468D01*
X31863Y135027D01*
X30472D01*
X30219Y135335D01*
Y136173D01*
X29948D01*
X29813Y136161D01*
X29663Y136137D01*
X29534Y136102D01*
X29424Y136058D01*
X29335Y136004D01*
X29265Y135940D01*
X29215Y135866D01*
X29185Y135783D01*
X29175Y135689D01*
Y136173D01*
X27520D01*
Y137173D01*
X29175D01*
Y137657D01*
X29185Y137564D01*
X29215Y137480D01*
X29265Y137407D01*
X29335Y137343D01*
X29424Y137288D01*
X29534Y137244D01*
X29663Y137210D01*
X29813Y137185D01*
X29948Y137173D01*
X30219D01*
Y138012D01*
X30214Y138039D01*
X30433Y138505D01*
X30586Y138535D01*
X31201Y138657D01*
X31852Y139093D01*
X32287Y139744D01*
X32440Y140512D01*
Y146811D01*
X32349Y147271D01*
X32366Y147298D01*
X32519Y148066D01*
X32366Y148834D01*
X32081Y149261D01*
X32047Y149840D01*
X32482Y150491D01*
X32635Y151259D01*
X32482Y152027D01*
X32047Y152678D01*
X31396Y153113D01*
X30691Y153253D01*
X30584Y153360D01*
X30064Y153708D01*
X29449Y153830D01*
X29449Y153830D01*
X15846D01*
X15846Y153830D01*
X15232Y153708D01*
X14711Y153360D01*
X14711Y153360D01*
X10569Y149217D01*
X10480Y149135D01*
X10191Y148893D01*
X10086Y148816D01*
X10004Y148761D01*
X9956Y148735D01*
X9936Y148730D01*
X9898Y148712D01*
X9665Y148665D01*
X9014Y148230D01*
X8579Y147579D01*
X8426Y146811D01*
Y140512D01*
X8517Y140055D01*
X8182Y139598D01*
X7686Y139597D01*
X7349Y140055D01*
X7440Y140512D01*
Y146811D01*
X7287Y147579D01*
X6852Y148230D01*
X6201Y148665D01*
X5433Y148818D01*
X4665Y148665D01*
X4014Y148230D01*
X3579Y147579D01*
X3426Y146811D01*
Y143683D01*
X3418Y143642D01*
Y138669D01*
X3525Y138131D01*
X3829Y137675D01*
X4348Y137156D01*
X4804Y136852D01*
X5342Y136745D01*
X6430D01*
X6666Y136304D01*
X6571Y136162D01*
X6431Y135458D01*
X6235Y135362D01*
X5930Y135308D01*
X5768Y135551D01*
X5352Y135829D01*
X4862Y135926D01*
X4043D01*
Y133622D01*
X3043D01*
Y135926D01*
X2224D01*
X1734Y135829D01*
X1386Y135596D01*
X1111Y135672D01*
X886Y135803D01*
Y161865D01*
X2747Y163738D01*
X3209Y163547D01*
Y163059D01*
X7657D01*
Y163736D01*
X8123Y164032D01*
X8426Y163872D01*
Y159409D01*
X8579Y158641D01*
X9014Y157990D01*
X9665Y157555D01*
X10433Y157402D01*
X10694Y157454D01*
X10940Y156993D01*
X9528Y155582D01*
X9497Y155561D01*
X9464Y155543D01*
X9428Y155528D01*
X9389Y155515D01*
X9345Y155503D01*
X9295Y155495D01*
X9253Y155491D01*
X9154Y155511D01*
X8386Y155358D01*
X7734Y154923D01*
X7299Y154272D01*
X7147Y153504D01*
X7299Y152736D01*
X7734Y152085D01*
X8386Y151650D01*
X9154Y151497D01*
X9922Y151650D01*
X10573Y152085D01*
X11008Y152736D01*
X11161Y153504D01*
X11141Y153604D01*
X11145Y153645D01*
X11153Y153695D01*
X11164Y153740D01*
X11178Y153779D01*
X11193Y153814D01*
X11211Y153848D01*
X11231Y153879D01*
X13196Y155843D01*
X16411D01*
X16412Y155843D01*
X16872Y155935D01*
X17263Y156196D01*
X18962Y157894D01*
X18983Y157892D01*
X19058Y157878D01*
X19125Y157861D01*
X19184Y157842D01*
X19235Y157821D01*
X19280Y157799D01*
X19319Y157776D01*
X19381Y157732D01*
X19439Y157707D01*
X19665Y157555D01*
X20433Y157402D01*
X20934Y157502D01*
X21358Y157418D01*
X21358Y157418D01*
X24219D01*
X24220Y157418D01*
X24680Y157510D01*
X24730Y157542D01*
X25433Y157402D01*
X26201Y157555D01*
X26852Y157990D01*
X27287Y158641D01*
X27440Y159409D01*
Y165709D01*
X27287Y166477D01*
X26852Y167128D01*
X26201Y167563D01*
X25433Y167716D01*
X24665Y167563D01*
X24014Y167128D01*
X23579Y166477D01*
X23426Y165709D01*
Y159826D01*
X22440D01*
Y165709D01*
X22287Y166477D01*
X21852Y167128D01*
X21201Y167563D01*
X20433Y167716D01*
X19665Y167563D01*
X19014Y167128D01*
X18579Y166477D01*
X18426Y165709D01*
Y160303D01*
X18288Y160276D01*
X18245Y160272D01*
X18231Y160264D01*
X18012Y160221D01*
X17940Y160173D01*
X17680Y160253D01*
X17440Y160440D01*
Y165709D01*
X17287Y166477D01*
X16852Y167128D01*
X16201Y167563D01*
X15433Y167716D01*
X14877Y167605D01*
X14351Y167957D01*
X13583Y168110D01*
X12815Y167957D01*
X12163Y167522D01*
X12154Y167508D01*
X11470Y167384D01*
X11201Y167563D01*
X10433Y167716D01*
X10051Y167640D01*
X9430Y168055D01*
X8895Y168161D01*
X8944Y168661D01*
X108268D01*
X110925Y166004D01*
D02*
G37*
G36*
X90441Y150945D02*
X89272Y149776D01*
X89267Y149791D01*
X89252Y149815D01*
X89227Y149849D01*
X89147Y149942D01*
X88867Y150235D01*
X88772Y150331D01*
X89886Y151444D01*
X90441Y150945D01*
D02*
G37*
G36*
X26551Y148715D02*
X26534Y148727D01*
X26504Y148738D01*
X26460Y148748D01*
X26404Y148756D01*
X26252Y148769D01*
X25927Y148779D01*
X25793Y148779D01*
X25971Y150354D01*
X26689Y150363D01*
X26551Y148715D01*
D02*
G37*
G36*
X23975Y147965D02*
X25128Y147950D01*
X24266Y144449D01*
X24295Y144673D01*
X24264Y144874D01*
X24174Y145051D01*
X24026Y145205D01*
X23818Y145335D01*
X23551Y145441D01*
X23225Y145524D01*
X22933Y145568D01*
X22641Y145524D01*
X22316Y145441D01*
X22049Y145335D01*
X21841Y145205D01*
X21692Y145051D01*
X21602Y144874D01*
X21572Y144673D01*
X21600Y144449D01*
X20738Y147950D01*
X20752Y147958D01*
X20835Y147965D01*
X21207Y147977D01*
X21892Y147981D01*
Y147992D01*
X22509Y147984D01*
X23975Y147992D01*
Y147965D01*
D02*
G37*
G36*
X103862Y148702D02*
X103893Y148372D01*
X103920Y148239D01*
X103955Y148125D01*
X103997Y148033D01*
X104048Y147960D01*
X104105Y147909D01*
X104171Y147878D01*
X104245Y147868D01*
X102684D01*
X102758Y147878D01*
X102824Y147909D01*
X102882Y147960D01*
X102932Y148033D01*
X102974Y148125D01*
X103009Y148239D01*
X103036Y148372D01*
X103055Y148527D01*
X103067Y148702D01*
X103071Y148898D01*
X103858D01*
X103862Y148702D01*
D02*
G37*
G36*
X31310Y147195D02*
X31301Y147179D01*
X31292Y147150D01*
X31284Y147108D01*
X31278Y147053D01*
X31264Y146807D01*
X31260Y146443D01*
X29685Y146513D01*
X29658Y147250D01*
X31310Y147195D01*
D02*
G37*
G36*
X107134Y146326D02*
X107123Y146399D01*
X107094Y146465D01*
X107049Y146523D01*
X106987Y146573D01*
X106909Y146616D01*
X106814Y146651D01*
X106702Y146678D01*
X106574Y146697D01*
X106429Y146709D01*
X106267Y146713D01*
Y147500D01*
X106422Y147504D01*
X106560Y147516D01*
X106682Y147536D01*
X106787Y147563D01*
X106875Y147599D01*
X106946Y147642D01*
X107001Y147693D01*
X107040Y147752D01*
X107061Y147819D01*
X107066Y147894D01*
X107134Y146326D01*
D02*
G37*
G36*
X104268Y147827D02*
X104315Y147758D01*
X104379Y147698D01*
X104461Y147645D01*
X104560Y147601D01*
X104676Y147565D01*
X104810Y147536D01*
X104960Y147516D01*
X105128Y147504D01*
X105314Y147500D01*
X105431Y146713D01*
X105265Y146709D01*
X105119Y146697D01*
X104992Y146677D01*
X104885Y146650D01*
X104798Y146614D01*
X104730Y146571D01*
X104682Y146520D01*
X104654Y146461D01*
X104645Y146394D01*
X104656Y146319D01*
X104238Y147903D01*
X104268Y147827D01*
D02*
G37*
G36*
X97505Y149084D02*
X98351Y148354D01*
X98477Y148271D01*
X98589Y148209D01*
X98686Y148167D01*
X98770Y148147D01*
X97297Y145960D01*
X97366Y146101D01*
X97395Y146259D01*
X97383Y146436D01*
X97331Y146631D01*
X97240Y146844D01*
X97108Y147075D01*
X96936Y147324D01*
X96724Y147591D01*
X96472Y147876D01*
X96179Y148179D01*
X97293Y149293D01*
X97505Y149084D01*
D02*
G37*
G36*
X17718Y147983D02*
X17426Y147679D01*
X16962Y147127D01*
X16790Y146878D01*
X16658Y146647D01*
X16566Y146434D01*
X16515Y146239D01*
X16503Y146063D01*
X16532Y145904D01*
X16600Y145763D01*
X15128Y147950D01*
X15211Y147970D01*
X15309Y148012D01*
X15421Y148074D01*
X15547Y148158D01*
X15687Y148262D01*
X16012Y148533D01*
X16393Y148887D01*
X16605Y149096D01*
X17718Y147983D01*
D02*
G37*
G36*
X12718D02*
X12426Y147679D01*
X11962Y147127D01*
X11790Y146878D01*
X11658Y146647D01*
X11566Y146434D01*
X11515Y146239D01*
X11503Y146063D01*
X11532Y145904D01*
X11600Y145763D01*
X10128Y147950D01*
X10211Y147970D01*
X10309Y148012D01*
X10421Y148074D01*
X10547Y148158D01*
X10688Y148262D01*
X11011Y148533D01*
X11393Y148887D01*
X11605Y149096D01*
X12718Y147983D01*
D02*
G37*
G36*
X40977Y146347D02*
X40970Y146319D01*
X40964Y146278D01*
X40955Y146156D01*
X40945Y145750D01*
X40945Y145616D01*
X39370D01*
X39331Y146361D01*
X40984D01*
X40977Y146347D01*
D02*
G37*
G36*
X87297Y145531D02*
X87293Y145625D01*
X87267Y145709D01*
X87220Y145782D01*
X87152Y145846D01*
X87063Y145901D01*
X86953Y145945D01*
X86822Y145979D01*
X86669Y146004D01*
X86496Y146019D01*
X86301Y146024D01*
Y147008D01*
X86507Y147013D01*
X86693Y147027D01*
X86857Y147052D01*
X86999Y147086D01*
X87121Y147130D01*
X87222Y147183D01*
X87302Y147247D01*
X87360Y147320D01*
X87398Y147403D01*
X87414Y147495D01*
X87297Y145531D01*
D02*
G37*
G36*
X36307Y146116D02*
X36290Y146106D01*
X36276Y146082D01*
X36263Y146045D01*
X36252Y145993D01*
X36242Y145928D01*
X36228Y145756D01*
X36220Y145395D01*
X34646Y145593D01*
X34959Y146963D01*
X36307Y146116D01*
D02*
G37*
G36*
X88958Y145615D02*
X89039Y144412D01*
X89058Y144376D01*
X87871D01*
X87890Y144412D01*
X87907Y144473D01*
X87923Y144560D01*
X87936Y144672D01*
X87963Y145161D01*
X87972Y145879D01*
X88957D01*
X88958Y145615D01*
D02*
G37*
G36*
X106556Y145730D02*
X106908Y145495D01*
X107323Y145412D01*
X110394D01*
X110425Y145419D01*
X110925Y145017D01*
Y144106D01*
X110425Y143696D01*
X110394Y143702D01*
X109358D01*
Y141299D01*
X108858D01*
Y140799D01*
X106022D01*
Y140197D01*
X106121Y139699D01*
X106282Y139458D01*
X106050Y138958D01*
X105256D01*
X105212Y138949D01*
X105191Y138970D01*
X104964Y139410D01*
X105319Y139941D01*
X105472Y140709D01*
Y145902D01*
X106441D01*
X106556Y145730D01*
D02*
G37*
G36*
X67697Y141552D02*
X66043D01*
X66051Y141567D01*
X66057Y141594D01*
X66063Y141636D01*
X66073Y141758D01*
X66082Y142163D01*
X66083Y142298D01*
X67658D01*
X67697Y141552D01*
D02*
G37*
G36*
X81280Y139688D02*
X81200Y139738D01*
X81095Y139782D01*
X80967Y139822D01*
X80815Y139856D01*
X80639Y139885D01*
X80216Y139927D01*
X79698Y139948D01*
X79403Y139951D01*
X79370Y140132D01*
X79337Y139951D01*
X79042Y139948D01*
X78101Y139885D01*
X77925Y139856D01*
X77773Y139822D01*
X77645Y139782D01*
X77540Y139738D01*
X77460Y139688D01*
X78037Y142313D01*
X78022Y142164D01*
X78045Y142030D01*
X78107Y141912D01*
X78208Y141809D01*
X78347Y141723D01*
X78525Y141652D01*
X78742Y141597D01*
X78997Y141557D01*
X79291Y141534D01*
X79370Y141532D01*
X79449Y141534D01*
X79743Y141557D01*
X79998Y141597D01*
X80215Y141652D01*
X80393Y141723D01*
X80532Y141809D01*
X80633Y141912D01*
X80695Y142030D01*
X80718Y142164D01*
X80703Y142313D01*
X81280Y139688D01*
D02*
G37*
G36*
X5659Y139374D02*
X5613Y139394D01*
X5571Y139394D01*
X5534Y139374D01*
X5502Y139333D01*
X5475Y139273D01*
X5453Y139192D01*
X5435Y139092D01*
X5423Y138971D01*
X5413Y138669D01*
X4232D01*
X4294Y140207D01*
X5659Y139374D01*
D02*
G37*
G36*
X62985Y151483D02*
X63506Y151135D01*
X64120Y151013D01*
X64120Y151013D01*
X81998D01*
X82315Y150695D01*
X82315Y150695D01*
X82836Y150347D01*
X83450Y150225D01*
X87721D01*
X88248Y149698D01*
X88083Y149156D01*
X87613Y149063D01*
X86892Y148580D01*
X86410Y147859D01*
X86241Y147008D01*
Y144358D01*
X88465D01*
X90688D01*
Y147008D01*
X90604Y147432D01*
X90869Y147574D01*
X91285Y147230D01*
X91241Y147008D01*
Y144358D01*
X93465D01*
Y143358D01*
X91241D01*
Y140709D01*
X91410Y139858D01*
X91672Y139466D01*
X91810Y138958D01*
X91502Y138497D01*
X91488Y138428D01*
X92559Y138366D01*
X92568Y138402D01*
X92597Y138547D01*
X92642Y138905D01*
X92645Y138965D01*
X92593Y139676D01*
X92563Y139824D01*
X92528Y139947D01*
X92488Y140046D01*
X92443Y140119D01*
X94486D01*
X94441Y140046D01*
X94402Y139947D01*
X94367Y139824D01*
X94336Y139676D01*
X94310Y139503D01*
X94291Y139279D01*
X94323Y139078D01*
X94378Y138868D01*
X94449Y138692D01*
X94535Y138550D01*
X94638Y138444D01*
X94756Y138371D01*
X94890Y138333D01*
X95039Y138330D01*
X92646Y138119D01*
X92438Y136083D01*
X92436Y136232D01*
X92400Y136366D01*
X92329Y136484D01*
X92222Y136587D01*
X92081Y136673D01*
X91905Y136744D01*
X91694Y136799D01*
X91448Y136839D01*
X91394Y136843D01*
Y136206D01*
X91002Y135996D01*
X90894Y135995D01*
X90158Y136141D01*
X83858D01*
X83090Y135988D01*
X82439Y135553D01*
X82056Y134979D01*
X81776Y134793D01*
X80475Y133492D01*
X80192Y133068D01*
X80093Y132569D01*
Y126831D01*
X80192Y126331D01*
X80208Y126308D01*
X80043Y125909D01*
X79930Y125824D01*
X79366Y125447D01*
X77328Y127485D01*
X76937Y127746D01*
X76476Y127838D01*
X76476Y127838D01*
X75432D01*
X75422Y127845D01*
X74961Y127937D01*
X74961Y127937D01*
X73639D01*
X73345Y128437D01*
X73366Y128542D01*
X73257Y128540D01*
X72876Y128505D01*
X72700Y128475D01*
X72534Y128436D01*
X72378Y128389D01*
X72231Y128333D01*
X72094Y128268D01*
X71967Y128195D01*
X71850Y128113D01*
Y128634D01*
X68110D01*
Y129634D01*
X71850D01*
Y130155D01*
X71967Y130073D01*
X72094Y130000D01*
X72231Y129935D01*
X72378Y129879D01*
X72534Y129831D01*
X72700Y129793D01*
X72876Y129762D01*
X73062Y129741D01*
X73462Y129724D01*
Y129634D01*
X73464D01*
X73810Y130056D01*
X74788D01*
X74819Y129901D01*
X75254Y129250D01*
X75905Y128815D01*
X76673Y128662D01*
X77441Y128815D01*
X78092Y129250D01*
X78527Y129901D01*
X78680Y130669D01*
X78527Y131437D01*
X78092Y132088D01*
X77441Y132524D01*
X76673Y132676D01*
X76115Y132565D01*
X76080Y132562D01*
X76076Y132560D01*
X76070Y132559D01*
X76044Y132551D01*
X75905Y132524D01*
X75891Y132514D01*
X75794Y132492D01*
X75753Y132486D01*
X75474Y132464D01*
X73369D01*
X73101Y132964D01*
X73314Y133283D01*
X73484Y134134D01*
X73439Y134358D01*
X73910Y134554D01*
X73955Y134486D01*
X74606Y134051D01*
X75374Y133898D01*
X76142Y134051D01*
X76793Y134486D01*
X77228Y135137D01*
X77380Y135901D01*
X77382Y135902D01*
X78150Y135749D01*
X78918Y135902D01*
X79569Y136337D01*
X80004Y136988D01*
X80157Y137756D01*
X80004Y138524D01*
X79911Y138663D01*
X80109Y139031D01*
X80206Y139122D01*
X80534Y139089D01*
X80661Y139068D01*
X80760Y139046D01*
X80818Y139028D01*
X80828Y139024D01*
X80857Y139005D01*
X80900Y138989D01*
X81102Y138854D01*
X81870Y138702D01*
X82638Y138854D01*
X83289Y139289D01*
X83724Y139941D01*
X83877Y140709D01*
Y147008D01*
X83724Y147776D01*
X83289Y148427D01*
X82638Y148862D01*
X81870Y149015D01*
X81102Y148862D01*
X80451Y148427D01*
X80016Y147776D01*
X79863Y147008D01*
Y142391D01*
X79838Y142384D01*
X79649Y142355D01*
X79510Y142344D01*
X79230D01*
X79091Y142355D01*
X78903Y142384D01*
X78877Y142391D01*
Y147008D01*
X78724Y147776D01*
X78289Y148427D01*
X77638Y148862D01*
X76870Y149015D01*
X76102Y148862D01*
X75451Y148427D01*
X75016Y147776D01*
X74863Y147008D01*
Y142630D01*
X74527Y142563D01*
X74318Y142423D01*
X73877Y142659D01*
Y147008D01*
X73724Y147776D01*
X73289Y148427D01*
X72638Y148862D01*
X71870Y149015D01*
X71102Y148862D01*
X70451Y148427D01*
X70016Y147776D01*
X69863Y147008D01*
Y142472D01*
X69377Y142147D01*
X69222Y142180D01*
X68877Y142322D01*
Y147008D01*
X68724Y147776D01*
X68289Y148427D01*
X67638Y148862D01*
X66870Y149015D01*
X66102Y148862D01*
X65451Y148427D01*
X65016Y147776D01*
X64863Y147008D01*
Y140709D01*
X64994Y140051D01*
X64769Y139640D01*
X64263Y139613D01*
X63903Y140051D01*
X63966Y140364D01*
X63877Y140810D01*
Y147008D01*
X63724Y147776D01*
X63289Y148427D01*
X62638Y148862D01*
X61870Y149015D01*
X61102Y148862D01*
X60451Y148427D01*
X60016Y147776D01*
X59863Y147008D01*
Y140709D01*
X60016Y139941D01*
X60044Y139898D01*
X60104Y139596D01*
X60540Y138945D01*
X61117Y138559D01*
X61285Y138020D01*
X58091Y134826D01*
X56319D01*
X56002Y135213D01*
X56006Y135236D01*
Y136075D01*
X53307D01*
X50608D01*
Y135280D01*
X50252Y134888D01*
X49903D01*
X49569Y135236D01*
Y137913D01*
X49482Y138351D01*
X49234Y138722D01*
X48863Y138970D01*
X48740Y138995D01*
X48573Y139270D01*
X48482Y139532D01*
X48504Y139585D01*
X48521Y139616D01*
X48557Y139670D01*
X48579Y139724D01*
X48724Y139941D01*
X48877Y140709D01*
Y147008D01*
X48724Y147776D01*
X48479Y148143D01*
X52136Y151800D01*
X62668D01*
X62985Y151483D01*
D02*
G37*
G36*
X47830Y140028D02*
X47775Y139924D01*
X47727Y139805D01*
X47685Y139673D01*
X47649Y139527D01*
X47620Y139367D01*
X47587Y139056D01*
X47592Y138994D01*
X47622Y138815D01*
X47663Y138660D01*
X47717Y138529D01*
X47782Y138421D01*
X47858Y138338D01*
X47947Y138278D01*
X48047Y138242D01*
X48160Y138230D01*
X45797D01*
X45910Y138242D01*
X46010Y138278D01*
X46098Y138338D01*
X46175Y138421D01*
X46240Y138529D01*
X46293Y138660D01*
X46335Y138815D01*
X46353Y138924D01*
X46339Y139012D01*
X46302Y139185D01*
X46253Y139354D01*
X46194Y139517D01*
X46124Y139675D01*
X46043Y139828D01*
X45951Y139976D01*
X45849Y140119D01*
X47891D01*
X47830Y140028D01*
D02*
G37*
G36*
X101501Y139132D02*
X101516Y138959D01*
X101540Y138807D01*
X101575Y138676D01*
X101619Y138566D01*
X101673Y138477D01*
X101737Y138409D01*
X101811Y138362D01*
X101895Y138335D01*
X101988Y138330D01*
X100020Y138228D01*
X100113Y138298D01*
X100197Y138377D01*
X100271Y138465D01*
X100335Y138561D01*
X100389Y138667D01*
X100433Y138781D01*
X100468Y138904D01*
X100492Y139036D01*
X100507Y139177D01*
X100512Y139326D01*
X101496D01*
X101501Y139132D01*
D02*
G37*
G36*
X104999Y135787D02*
X104989Y135881D01*
X104959Y135965D01*
X104909Y136038D01*
X104840Y136102D01*
X104750Y136156D01*
X104640Y136201D01*
X104511Y136235D01*
X104411Y136252D01*
X104310Y136235D01*
X104181Y136201D01*
X104071Y136156D01*
X103981Y136102D01*
X103912Y136038D01*
X103862Y135965D01*
X103832Y135881D01*
X103822Y135787D01*
Y137756D01*
X103832Y137662D01*
X103862Y137579D01*
X103912Y137505D01*
X103981Y137441D01*
X104071Y137387D01*
X104181Y137343D01*
X104310Y137308D01*
X104411Y137292D01*
X104511Y137308D01*
X104640Y137343D01*
X104750Y137387D01*
X104840Y137441D01*
X104909Y137505D01*
X104959Y137579D01*
X104989Y137662D01*
X104999Y137756D01*
Y135787D01*
D02*
G37*
G36*
X18775Y138541D02*
X19659Y138486D01*
X19777Y138461D01*
X19853Y138432D01*
X19888Y138398D01*
X19882Y138359D01*
X19835Y138316D01*
X19644Y136772D01*
X19645Y136884D01*
X19619Y136984D01*
X19567Y137073D01*
X19488Y137150D01*
X19382Y137215D01*
X19249Y137268D01*
X19090Y137309D01*
X18903Y137339D01*
X18690Y137356D01*
X18451Y137362D01*
Y138543D01*
X18775Y138541D01*
D02*
G37*
G36*
X74230Y135611D02*
X74200Y135705D01*
X74161Y135788D01*
X74111Y135862D01*
X74053Y135926D01*
X73985Y135980D01*
X73907Y136024D01*
X73820Y136058D01*
X73723Y136083D01*
X73617Y136098D01*
X73501Y136102D01*
X74013Y136890D01*
X74126Y136891D01*
X74547Y136924D01*
X74645Y136940D01*
X74920Y137002D01*
X75006Y137028D01*
X74230Y135611D01*
D02*
G37*
G36*
X34716Y137197D02*
X34744Y137191D01*
X34785Y137185D01*
X34907Y137175D01*
X35313Y137166D01*
X35447Y137165D01*
Y135591D01*
X34702Y135551D01*
Y137205D01*
X34716Y137197D01*
D02*
G37*
G36*
X9355Y136138D02*
X9444Y136065D01*
X9535Y136000D01*
X9629Y135943D01*
X9726Y135896D01*
X9825Y135857D01*
X9927Y135826D01*
X10031Y135805D01*
X10138Y135792D01*
X10248Y135787D01*
Y135000D01*
X10138Y134996D01*
X10031Y134983D01*
X9927Y134961D01*
X9825Y134931D01*
X9726Y134892D01*
X9629Y134844D01*
X9535Y134788D01*
X9444Y134723D01*
X9355Y134649D01*
X9269Y134567D01*
Y136221D01*
X9355Y136138D01*
D02*
G37*
G36*
X22889Y136585D02*
X22857Y136477D01*
X22858Y136353D01*
X22893Y136211D01*
X22961Y136053D01*
X23062Y135877D01*
X23197Y135685D01*
X23365Y135475D01*
X23802Y135006D01*
X22967Y134170D01*
X22724Y134406D01*
X22288Y134775D01*
X22095Y134910D01*
X21920Y135012D01*
X21761Y135080D01*
X21620Y135114D01*
X21495Y135116D01*
X21387Y135083D01*
X21296Y135018D01*
X22955Y136676D01*
X22889Y136585D01*
D02*
G37*
G36*
X72127Y134882D02*
X72161Y134849D01*
X72216Y134819D01*
X72294Y134794D01*
X72395Y134772D01*
X72518Y134755D01*
X72830Y134731D01*
X73231Y134723D01*
Y133544D01*
X73019Y133542D01*
X72395Y133495D01*
X72294Y133474D01*
X72216Y133449D01*
X72161Y133419D01*
X72127Y133386D01*
X72116Y133349D01*
Y134919D01*
X72127Y134882D01*
D02*
G37*
G36*
X101772Y132654D02*
X102264Y132654D01*
X102170Y132644D01*
X102086Y132615D01*
X102013Y132565D01*
X101949Y132495D01*
X101894Y132405D01*
X101850Y132296D01*
X101816Y132166D01*
X101815Y132164D01*
X101816Y132162D01*
X101850Y132033D01*
X101894Y131923D01*
X101949Y131834D01*
X102013Y131764D01*
X102086Y131714D01*
X102170Y131684D01*
X102264Y131674D01*
X101772D01*
X101771Y131658D01*
X100787D01*
X100787Y131674D01*
X100295D01*
X100389Y131684D01*
X100472Y131714D01*
X100546Y131764D01*
X100610Y131834D01*
X100664Y131923D01*
X100708Y132033D01*
X100743Y132162D01*
X100743Y132165D01*
X100743Y132166D01*
X100709Y132296D01*
X100665Y132405D01*
X100611Y132495D01*
X100547Y132564D01*
X100474Y132614D01*
X100391Y132644D01*
X100297Y132654D01*
X100787Y132654D01*
X100787Y132670D01*
X101771D01*
X101772Y132654D01*
D02*
G37*
G36*
X4434Y132352D02*
X4350Y132322D01*
X4277Y132272D01*
X4213Y132202D01*
X4158Y132113D01*
X4114Y132003D01*
X4080Y131874D01*
X4055Y131724D01*
X4054Y131707D01*
X4055Y131690D01*
X4080Y131541D01*
X4114Y131411D01*
X4158Y131302D01*
X4213Y131212D01*
X4277Y131142D01*
X4350Y131093D01*
X4434Y131063D01*
X4528Y131053D01*
X2559D01*
X2653Y131063D01*
X2736Y131093D01*
X2810Y131142D01*
X2874Y131212D01*
X2928Y131302D01*
X2972Y131411D01*
X3007Y131541D01*
X3032Y131690D01*
X3033Y131707D01*
X3032Y131724D01*
X3007Y131874D01*
X2972Y132003D01*
X2928Y132113D01*
X2874Y132202D01*
X2810Y132272D01*
X2736Y132322D01*
X2653Y132352D01*
X2559Y132362D01*
X4528D01*
X4434Y132352D01*
D02*
G37*
G36*
X8272Y132183D02*
X8285Y132111D01*
X8308Y132037D01*
X8340Y131961D01*
X8381Y131882D01*
X8432Y131800D01*
X8492Y131716D01*
X8561Y131630D01*
X8727Y131450D01*
X8180Y130883D01*
X8105Y130954D01*
X8031Y131014D01*
X7958Y131065D01*
X7886Y131106D01*
X7815Y131138D01*
X7745Y131159D01*
X7676Y131171D01*
X7608Y131173D01*
X7541Y131165D01*
X7475Y131147D01*
X8268Y132252D01*
X8272Y132183D01*
D02*
G37*
G36*
X75529Y130375D02*
X75499Y130468D01*
X75460Y130552D01*
X75411Y130625D01*
X75352Y130689D01*
X75284Y130743D01*
X75206Y130788D01*
X75119Y130822D01*
X75022Y130847D01*
X74916Y130861D01*
X74800Y130866D01*
X75312Y131654D01*
X75425Y131655D01*
X75846Y131688D01*
X75944Y131703D01*
X76220Y131765D01*
X76305Y131792D01*
X75529Y130375D01*
D02*
G37*
G36*
X15415Y130349D02*
X15504Y130275D01*
X15595Y130210D01*
X15689Y130154D01*
X15786Y130106D01*
X15885Y130067D01*
X15986Y130037D01*
X16091Y130015D01*
X16198Y130002D01*
X16307Y129998D01*
Y129211D01*
X16198Y129206D01*
X16091Y129193D01*
X15986Y129172D01*
X15885Y129141D01*
X15786Y129102D01*
X15689Y129055D01*
X15595Y128998D01*
X15504Y128934D01*
X15415Y128860D01*
X15329Y128778D01*
Y130431D01*
X15415Y130349D01*
D02*
G37*
G36*
X4434Y129292D02*
X4350Y129262D01*
X4277Y129212D01*
X4213Y129142D01*
X4158Y129053D01*
X4114Y128943D01*
X4080Y128814D01*
X4055Y128664D01*
X4050Y128602D01*
X4055Y128541D01*
X4080Y128391D01*
X4114Y128262D01*
X4158Y128152D01*
X4213Y128062D01*
X4277Y127993D01*
X4350Y127943D01*
X4434Y127913D01*
X4528Y127903D01*
X2559D01*
X2653Y127913D01*
X2736Y127943D01*
X2810Y127993D01*
X2874Y128062D01*
X2928Y128152D01*
X2972Y128262D01*
X3007Y128391D01*
X3032Y128541D01*
X3037Y128602D01*
X3032Y128664D01*
X3007Y128814D01*
X2972Y128943D01*
X2928Y129053D01*
X2874Y129142D01*
X2810Y129212D01*
X2736Y129262D01*
X2653Y129292D01*
X2559Y129302D01*
X4528D01*
X4434Y129292D01*
D02*
G37*
G36*
X15230Y128675D02*
X15156Y128586D01*
X15091Y128495D01*
X15035Y128401D01*
X14987Y128304D01*
X14948Y128205D01*
X14918Y128103D01*
X14896Y127999D01*
X14883Y127892D01*
X14879Y127782D01*
X14091D01*
X14087Y127892D01*
X14074Y127999D01*
X14052Y128103D01*
X14022Y128205D01*
X13983Y128304D01*
X13936Y128401D01*
X13879Y128495D01*
X13814Y128586D01*
X13741Y128675D01*
X13658Y128761D01*
X15312D01*
X15230Y128675D01*
D02*
G37*
G36*
X8264Y129284D02*
X8343Y129060D01*
X8389Y128956D01*
X8439Y128856D01*
X8493Y128761D01*
X8552Y128671D01*
X8615Y128585D01*
X8683Y128504D01*
X8754Y128428D01*
X8355Y127713D01*
X8272Y127790D01*
X8186Y127855D01*
X8097Y127909D01*
X8005Y127952D01*
X7911Y127983D01*
X7814Y128004D01*
X7715Y128013D01*
X7700Y128013D01*
X7693Y128003D01*
X7636Y127909D01*
X7589Y127812D01*
X7550Y127713D01*
X7519Y127611D01*
X7498Y127507D01*
X7485Y127400D01*
X7480Y127290D01*
X6693D01*
X6689Y127400D01*
X6676Y127507D01*
X6654Y127611D01*
X6624Y127713D01*
X6585Y127812D01*
X6537Y127909D01*
X6481Y128003D01*
X6416Y128094D01*
X6342Y128183D01*
X6260Y128269D01*
X7571D01*
X8232Y129402D01*
X8264Y129284D01*
D02*
G37*
G36*
X107587Y129375D02*
X107609Y129121D01*
X108364D01*
X108214Y129105D01*
X108081Y129057D01*
X107963Y128978D01*
X107861Y128866D01*
X107775Y128722D01*
X107727Y128602D01*
X107775Y128482D01*
X107861Y128339D01*
X107963Y128227D01*
X108081Y128148D01*
X108214Y128100D01*
X108364Y128084D01*
X107609D01*
X107587Y127830D01*
X107579Y127527D01*
X106004D01*
X105996Y127830D01*
X105974Y128084D01*
X105219D01*
X105368Y128100D01*
X105501Y128148D01*
X105619Y128227D01*
X105721Y128339D01*
X105808Y128482D01*
X105856Y128602D01*
X105808Y128722D01*
X105721Y128866D01*
X105619Y128978D01*
X105501Y129057D01*
X105368Y129105D01*
X105219Y129121D01*
X105974D01*
X105996Y129375D01*
X106004Y129678D01*
X107579D01*
X107587Y129375D01*
D02*
G37*
G36*
X95968Y128427D02*
X95981Y128244D01*
X96331D01*
X96261Y128124D01*
X96199Y127983D01*
X96144Y127821D01*
X96096Y127639D01*
X96056Y127436D01*
X96054Y127420D01*
X96056Y127407D01*
X96144Y127021D01*
X96199Y126860D01*
X96261Y126719D01*
X96331Y126599D01*
X95977D01*
X95964Y126109D01*
X93996D01*
X93992Y126416D01*
X93980Y126599D01*
X93629D01*
X93699Y126719D01*
X93761Y126860D01*
X93816Y127021D01*
X93864Y127204D01*
X93904Y127407D01*
X93906Y127422D01*
X93904Y127436D01*
X93816Y127821D01*
X93761Y127983D01*
X93699Y128124D01*
X93629Y128244D01*
X93984D01*
X93996Y128733D01*
X95964D01*
X95968Y128427D01*
D02*
G37*
G36*
X54552Y127553D02*
X55676Y127628D01*
X55775Y127657D01*
X55842Y127689D01*
X55814Y126839D01*
X57480D01*
Y125839D01*
X55781D01*
X55755Y125046D01*
X55674Y125142D01*
X55565Y125228D01*
X55429Y125304D01*
X55265Y125369D01*
X55074Y125425D01*
X54856Y125470D01*
X54644Y125501D01*
Y125236D01*
X54743Y124739D01*
X54831Y124608D01*
X54643Y124085D01*
X54326Y123987D01*
X53834Y124293D01*
X53823Y124351D01*
X53388Y125002D01*
X52737Y125437D01*
X51968Y125590D01*
X51200Y125437D01*
X50549Y125002D01*
X50493Y124917D01*
X50461Y124891D01*
X50419Y124861D01*
X50380Y124838D01*
X50343Y124820D01*
X50307Y124805D01*
X50271Y124794D01*
X50234Y124787D01*
X27356D01*
X27356Y124787D01*
X26895Y124695D01*
X26505Y124434D01*
X24686Y122616D01*
X24154D01*
X24140Y122619D01*
X24129Y122623D01*
X24123Y122626D01*
X24118Y122629D01*
X24111Y122635D01*
X24101Y122646D01*
X24086Y122665D01*
X24048Y122725D01*
X23999Y122777D01*
X23762Y123132D01*
X23111Y123567D01*
X22343Y123720D01*
X21575Y123567D01*
X20923Y123132D01*
X20488Y122481D01*
X20335Y121713D01*
X20466Y121055D01*
X20193Y120555D01*
X18313D01*
X18313Y120555D01*
X17852Y120463D01*
X17461Y120202D01*
X16122Y118862D01*
X15453Y118995D01*
X14685Y118842D01*
X14034Y118407D01*
X13599Y117756D01*
X13446Y116988D01*
X13576Y116331D01*
X13303Y115831D01*
X13228D01*
X12752Y115736D01*
X12348Y115467D01*
X12079Y115063D01*
X11984Y114587D01*
Y112531D01*
X11974Y112521D01*
X11891Y112473D01*
X11744Y112416D01*
X11531Y112361D01*
X11255Y112317D01*
X11077Y112302D01*
X10531D01*
X9763Y112150D01*
X9599Y112040D01*
X9099Y112307D01*
Y114587D01*
X8988Y115146D01*
X8671Y115620D01*
X8197Y115937D01*
X7638Y116048D01*
X6406D01*
Y110787D01*
X5906D01*
Y110287D01*
X2712D01*
Y106988D01*
X2740Y106848D01*
X2480Y106342D01*
X2382Y106277D01*
X1829Y105907D01*
X1394Y105256D01*
X1386Y105217D01*
X886Y105266D01*
Y121402D01*
X1111Y121533D01*
X1386Y121609D01*
X1734Y121376D01*
X2224Y121279D01*
X3043D01*
Y123583D01*
X4043D01*
Y122647D01*
X5099Y123702D01*
X5044Y123627D01*
X5018Y123537D01*
X5019Y123433D01*
X5048Y123316D01*
X5105Y123183D01*
X5190Y123037D01*
X5302Y122877D01*
X5443Y122702D01*
X5807Y122310D01*
X5111Y121614D01*
X4908Y121810D01*
X4545Y122119D01*
X4384Y122232D01*
X4238Y122316D01*
X4106Y122373D01*
X4043Y122389D01*
Y121279D01*
X4862D01*
X5352Y121376D01*
X5768Y121654D01*
X5783Y121677D01*
X5867Y121718D01*
X6414Y121721D01*
X7864Y120271D01*
X7864Y120271D01*
X8255Y120010D01*
X8716Y119918D01*
X8716Y119918D01*
X12549D01*
X12549Y119918D01*
X13010Y120010D01*
X13401Y120271D01*
X19052Y125922D01*
X46875D01*
X46876Y125922D01*
X47336Y126013D01*
X47727Y126275D01*
X49146Y127693D01*
X54437D01*
X54552Y127553D01*
D02*
G37*
G36*
X4434Y126142D02*
X4350Y126112D01*
X4277Y126063D01*
X4213Y125993D01*
X4158Y125903D01*
X4114Y125794D01*
X4080Y125664D01*
X4055Y125515D01*
X4054Y125498D01*
X4055Y125481D01*
X4080Y125331D01*
X4114Y125202D01*
X4158Y125092D01*
X4213Y125002D01*
X4277Y124933D01*
X4350Y124883D01*
X4434Y124853D01*
X4528Y124843D01*
X2559D01*
X2653Y124853D01*
X2736Y124883D01*
X2810Y124933D01*
X2874Y125002D01*
X2928Y125092D01*
X2972Y125202D01*
X3007Y125331D01*
X3032Y125481D01*
X3033Y125498D01*
X3032Y125515D01*
X3007Y125664D01*
X2972Y125794D01*
X2928Y125903D01*
X2874Y125993D01*
X2810Y126063D01*
X2736Y126112D01*
X2653Y126142D01*
X2559Y126152D01*
X4528D01*
X4434Y126142D01*
D02*
G37*
G36*
X108528Y125449D02*
X108486Y125362D01*
X108448Y125268D01*
X108416Y125165D01*
X108389Y125054D01*
X108366Y124935D01*
X108337Y124672D01*
X108329Y124529D01*
X108327Y124377D01*
X107342D01*
X107337Y124574D01*
X107323Y124750D01*
X107298Y124904D01*
X107264Y125036D01*
X107219Y125146D01*
X107165Y125235D01*
X107101Y125302D01*
X107027Y125347D01*
X106944Y125371D01*
X106850Y125373D01*
X108575Y125527D01*
X108528Y125449D01*
D02*
G37*
G36*
X83131Y125800D02*
X83471Y125514D01*
X83625Y125409D01*
X83767Y125329D01*
X83897Y125273D01*
X84017Y125243D01*
X84125Y125237D01*
X84222Y125257D01*
X84307Y125301D01*
X82694Y124153D01*
X82760Y124217D01*
X82800Y124294D01*
X82811Y124385D01*
X82796Y124489D01*
X82754Y124607D01*
X82684Y124739D01*
X82587Y124884D01*
X82463Y125042D01*
X82311Y125214D01*
X82133Y125400D01*
X82944Y125980D01*
X83131Y125800D01*
D02*
G37*
G36*
X97697Y138854D02*
X98465Y138702D01*
X98821Y138772D01*
X98988Y138607D01*
X99166Y138331D01*
X99091Y137953D01*
Y133031D01*
X99183Y132571D01*
X99432Y132198D01*
X99411Y132184D01*
X99176Y131832D01*
X99093Y131417D01*
Y128347D01*
X99176Y127932D01*
X99280Y127776D01*
X99370Y127421D01*
X99280Y127066D01*
X99176Y126911D01*
X99093Y126496D01*
Y124872D01*
X98969Y124847D01*
X98546Y124564D01*
X97666Y123685D01*
X97166Y123892D01*
Y126496D01*
X97126Y126698D01*
X97127Y126705D01*
X97122Y126718D01*
X97084Y126911D01*
X97027Y126995D01*
X97025Y127002D01*
X96978Y127084D01*
X96947Y127152D01*
X96917Y127241D01*
X96874Y127432D01*
X96879Y127459D01*
X96913Y127590D01*
X96947Y127691D01*
X96978Y127759D01*
X97025Y127841D01*
X97028Y127848D01*
X97084Y127932D01*
X97122Y128124D01*
X97127Y128137D01*
X97126Y128144D01*
X97166Y128347D01*
Y131417D01*
X97084Y131832D01*
X96959Y132020D01*
X96969Y132027D01*
X97277Y132488D01*
X97385Y133031D01*
Y134992D01*
X94390D01*
Y135992D01*
X97385D01*
Y137953D01*
X97277Y138497D01*
X97233Y138563D01*
X97593Y138923D01*
X97697Y138854D01*
D02*
G37*
G36*
X71923Y125111D02*
X72021Y125071D01*
X72144Y125036D01*
X72292Y125005D01*
X72465Y124980D01*
X72886Y124942D01*
X73160Y124933D01*
X73510Y124943D01*
X73509Y124923D01*
X73704Y124921D01*
Y123346D01*
X73430Y123344D01*
X73427Y123291D01*
X73411Y123302D01*
X73382Y123311D01*
X73339Y123319D01*
X73283Y123327D01*
X73225Y123331D01*
X72292Y123262D01*
X72144Y123232D01*
X72021Y123197D01*
X71923Y123157D01*
X71850Y123113D01*
Y125155D01*
X71923Y125111D01*
D02*
G37*
G36*
X51125Y122756D02*
X51039Y122838D01*
X50950Y122912D01*
X50859Y122977D01*
X50765Y123033D01*
X50668Y123081D01*
X50569Y123120D01*
X50467Y123150D01*
X50363Y123172D01*
X50256Y123185D01*
X50146Y123189D01*
Y123976D01*
X50256Y123981D01*
X50363Y123994D01*
X50467Y124015D01*
X50569Y124046D01*
X50668Y124085D01*
X50765Y124132D01*
X50859Y124189D01*
X50950Y124253D01*
X51039Y124327D01*
X51125Y124409D01*
Y122756D01*
D02*
G37*
G36*
X91245Y124236D02*
X91215Y124150D01*
X91211Y124051D01*
X91235Y123939D01*
X91285Y123814D01*
X91361Y123676D01*
X91465Y123525D01*
X91595Y123361D01*
X91751Y123184D01*
X91935Y122993D01*
X91214Y122322D01*
X91025Y122504D01*
X90684Y122791D01*
X90532Y122894D01*
X90393Y122972D01*
X90267Y123023D01*
X90153Y123048D01*
X90051Y123047D01*
X89962Y123020D01*
X89886Y122967D01*
X91302Y124309D01*
X91245Y124236D01*
D02*
G37*
G36*
X23428Y122203D02*
X23493Y122120D01*
X23564Y122046D01*
X23641Y121982D01*
X23724Y121928D01*
X23813Y121884D01*
X23908Y121849D01*
X24009Y121825D01*
X24116Y121810D01*
X24229Y121805D01*
X24006Y121018D01*
X23901Y121014D01*
X23797Y121005D01*
X23691Y120989D01*
X23586Y120966D01*
X23480Y120938D01*
X23374Y120903D01*
X23268Y120861D01*
X23054Y120759D01*
X22947Y120698D01*
X23369Y122297D01*
X23428Y122203D01*
D02*
G37*
G36*
X97047Y120728D02*
X96928Y120727D01*
X96581Y120703D01*
X96526Y120691D01*
X96485Y120678D01*
X96457Y120662D01*
X96442Y120645D01*
X96440Y120625D01*
X96212Y121678D01*
X96211Y121685D01*
X96229Y121691D01*
X96266Y121696D01*
X96321Y121700D01*
X96730Y121711D01*
X97047Y121713D01*
Y120728D01*
D02*
G37*
G36*
X92727Y122208D02*
X93090Y121899D01*
X93251Y121787D01*
X93397Y121702D01*
X93529Y121645D01*
X93647Y121616D01*
X93751Y121615D01*
X93841Y121642D01*
X93916Y121696D01*
X92536Y120316D01*
X92591Y120392D01*
X92617Y120481D01*
X92616Y120585D01*
X92587Y120703D01*
X92530Y120835D01*
X92445Y120981D01*
X92333Y121142D01*
X92193Y121317D01*
X91828Y121708D01*
X92524Y122404D01*
X92727Y122208D01*
D02*
G37*
G36*
X59240Y121292D02*
X59285Y121256D01*
X59343Y121225D01*
X59412Y121198D01*
X59492Y121175D01*
X59585Y121156D01*
X59689Y121141D01*
X59933Y121124D01*
X60072Y121122D01*
Y120335D01*
X59917Y120331D01*
X59778Y120319D01*
X59656Y120299D01*
X59551Y120272D01*
X59463Y120236D01*
X59391Y120193D01*
X59337Y120142D01*
X59298Y120083D01*
X59277Y120016D01*
X59272Y119941D01*
X59206Y121332D01*
X59240Y121292D01*
D02*
G37*
G36*
X63897Y120331D02*
X64052Y120197D01*
X64117Y120150D01*
X64176Y120115D01*
X64227Y120093D01*
X64271Y120083D01*
X64308Y120086D01*
X64337Y120102D01*
X64358Y120130D01*
X63804Y119055D01*
X63814Y119094D01*
X63809Y119141D01*
X63790Y119198D01*
X63757Y119264D01*
X63709Y119340D01*
X63647Y119425D01*
X63478Y119623D01*
X63252Y119859D01*
X63809Y120416D01*
X63897Y120331D01*
D02*
G37*
G36*
X55704Y118861D02*
X55695Y118935D01*
X55670Y119001D01*
X55629Y119060D01*
X55571Y119111D01*
X55498Y119154D01*
X55408Y119189D01*
X55303Y119217D01*
X55181Y119236D01*
X55043Y119248D01*
X54889Y119252D01*
Y120039D01*
X55041Y120043D01*
X55178Y120055D01*
X55298Y120075D01*
X55402Y120102D01*
X55490Y120138D01*
X55562Y120181D01*
X55618Y120232D01*
X55657Y120291D01*
X55681Y120358D01*
X55688Y120433D01*
X55704Y118861D01*
D02*
G37*
G36*
X100016Y119438D02*
X100176Y119449D01*
X100363Y118268D01*
X100235Y118265D01*
X100016Y118242D01*
Y117677D01*
X100005Y117789D01*
X99969Y117890D01*
X99909Y117978D01*
X99826Y118055D01*
X99718Y118120D01*
X99716Y118121D01*
X99679Y118084D01*
X99649Y118035D01*
X99631Y117980D01*
X99502Y118196D01*
X99432Y118215D01*
X99253Y118244D01*
X99050Y118262D01*
X98823Y118268D01*
Y119326D01*
X98808Y119352D01*
X98823Y119353D01*
Y119449D01*
X99050Y119455D01*
X99253Y119473D01*
X99432Y119502D01*
X99587Y119543D01*
X99718Y119597D01*
X99826Y119661D01*
X99909Y119738D01*
X99969Y119827D01*
X100005Y119927D01*
X100016Y120039D01*
Y119438D01*
D02*
G37*
G36*
X80292Y118159D02*
Y118156D01*
X80292Y118155D01*
X80383Y117695D01*
X80645Y117304D01*
X82599Y115349D01*
X82599Y115349D01*
X82990Y115088D01*
X83451Y114997D01*
X83451Y114997D01*
X84486D01*
X84803Y114610D01*
X84799Y114587D01*
Y111287D01*
X87992D01*
X90142D01*
Y112075D01*
X90150Y112000D01*
X90174Y111933D01*
X90214Y111874D01*
X90270Y111823D01*
X90342Y111780D01*
X90430Y111744D01*
X90533Y111717D01*
X90653Y111697D01*
X90789Y111685D01*
X90941Y111681D01*
Y111287D01*
X91186D01*
Y113542D01*
X91647Y113733D01*
X92497Y112884D01*
Y105015D01*
X90379Y102897D01*
X89836Y103061D01*
X89768Y103403D01*
X89333Y104054D01*
X88682Y104489D01*
X87914Y104642D01*
X87600Y104579D01*
X87589Y104581D01*
X86425Y104534D01*
X86304D01*
X86219Y104551D01*
X86219Y104551D01*
X84613D01*
X81890Y107273D01*
X81774Y107398D01*
X81717Y107469D01*
Y114587D01*
X81622Y115063D01*
X81352Y115467D01*
X80949Y115736D01*
X80472Y115831D01*
X77008D01*
X76532Y115736D01*
X76128Y115467D01*
X75858Y115063D01*
X75763Y114587D01*
Y106988D01*
X75858Y106512D01*
X76002Y106297D01*
X76003Y106294D01*
X76008Y106288D01*
X76128Y106108D01*
X76177Y106076D01*
X76178Y106070D01*
X76186Y106033D01*
X76197Y105915D01*
Y104574D01*
X72537Y100914D01*
X61647D01*
X61379Y101414D01*
X61500Y101594D01*
X61653Y102362D01*
X62103Y102521D01*
X65748D01*
X66516Y102673D01*
X67167Y103108D01*
X67167D01*
X67602Y103760D01*
X67612Y103809D01*
X68543Y104740D01*
X68986Y105151D01*
X69360Y105452D01*
X69694Y105685D01*
X69797Y105744D01*
X71417D01*
X71894Y105839D01*
X72297Y106108D01*
X72567Y106512D01*
X72662Y106988D01*
Y114587D01*
X72567Y115063D01*
X72297Y115467D01*
X71894Y115736D01*
X71417Y115831D01*
X67953D01*
X67477Y115736D01*
X67073Y115467D01*
X66803Y115063D01*
X66708Y114587D01*
Y108832D01*
X66649Y108730D01*
X66423Y108405D01*
X65821Y107694D01*
X64661Y106535D01*
X64127D01*
X63810Y106921D01*
X63823Y106988D01*
Y110287D01*
X60630D01*
X57437D01*
Y106988D01*
X57548Y106429D01*
X57864Y105955D01*
X58119Y105785D01*
X57791Y105296D01*
X57718Y104927D01*
X57629Y104896D01*
X57198Y104874D01*
X56833Y105421D01*
X56182Y105856D01*
X55413Y106009D01*
X54645Y105856D01*
X53994Y105421D01*
X53559Y104770D01*
X53406Y104002D01*
X53559Y103234D01*
X53765Y102926D01*
X53796Y102853D01*
X53853Y102770D01*
X53892Y102706D01*
X53925Y102645D01*
X53952Y102587D01*
X53974Y102531D01*
X53991Y102477D01*
X54004Y102424D01*
X54012Y102374D01*
Y100498D01*
X54012Y100498D01*
X54104Y100037D01*
X54365Y99646D01*
X55749Y98263D01*
X55749Y98263D01*
X55765Y98251D01*
X55614Y97751D01*
X42784D01*
X37443Y103092D01*
X36792Y103527D01*
X36024Y103680D01*
X32017D01*
X31691Y103898D01*
X30923Y104051D01*
X26159D01*
X25746Y104133D01*
X25333Y104051D01*
X24092D01*
X23679Y104133D01*
X20768D01*
X20000Y103980D01*
X19349Y103545D01*
X18914Y102894D01*
X18761Y102126D01*
X18908Y101386D01*
X18910Y101298D01*
X18654Y100886D01*
X5864D01*
X5610Y101140D01*
X5579Y101183D01*
X5550Y101231D01*
X5521Y101284D01*
X5495Y101341D01*
X5474Y101394D01*
X5425Y101558D01*
X5406Y101648D01*
X5377Y101714D01*
X5315Y102025D01*
X4880Y102676D01*
X4829Y103311D01*
X5102Y103720D01*
X5192Y104170D01*
X10871D01*
X10871Y104170D01*
X17361D01*
X17362Y104170D01*
X17822Y104262D01*
X18213Y104523D01*
X20554Y106863D01*
X21097Y106699D01*
X21134Y106512D01*
X21404Y106108D01*
X21807Y105839D01*
X22284Y105744D01*
X25748D01*
X26224Y105839D01*
X26628Y106108D01*
X26898Y106512D01*
X26992Y106988D01*
Y112804D01*
X27145Y113258D01*
X27605Y113350D01*
X27996Y113611D01*
X29560Y115175D01*
X29679Y115161D01*
X30079Y114611D01*
X30074Y114587D01*
Y111287D01*
X33268D01*
Y110787D01*
X33768D01*
Y105527D01*
X35000D01*
X35559Y105638D01*
X36033Y105955D01*
X36350Y106429D01*
X36359Y106473D01*
X36931Y106785D01*
X37402Y106692D01*
X37461Y106321D01*
Y106299D01*
X37481Y106201D01*
X37461Y106102D01*
X37614Y105334D01*
X38049Y104683D01*
X38700Y104248D01*
X39469Y104095D01*
X40237Y104248D01*
X40888Y104683D01*
X41323Y105334D01*
X41404Y105744D01*
X44055D01*
X44531Y105839D01*
X44935Y106108D01*
X45205Y106512D01*
X45300Y106988D01*
Y114587D01*
X45295Y114610D01*
X45612Y114997D01*
X47103D01*
X48349Y113750D01*
X48349Y113750D01*
X48401Y113715D01*
Y106988D01*
X48496Y106512D01*
X48766Y106108D01*
X49169Y105839D01*
X49646Y105744D01*
X53110D01*
X53587Y105839D01*
X53990Y106108D01*
X54260Y106512D01*
X54355Y106988D01*
Y114587D01*
X54260Y115063D01*
X53990Y115467D01*
X53587Y115736D01*
X53386Y115776D01*
X53436Y116276D01*
X57947D01*
X58098Y115776D01*
X57864Y115620D01*
X57548Y115146D01*
X57437Y114587D01*
Y111287D01*
X60630D01*
X63823D01*
Y114587D01*
X63712Y115146D01*
X63395Y115620D01*
X62921Y115937D01*
X62362Y116048D01*
X62139Y116513D01*
X62141Y116548D01*
X62738Y116947D01*
X63096Y117482D01*
X63329Y117604D01*
X63687Y117617D01*
X64193Y117280D01*
X64961Y117127D01*
X71260D01*
X72028Y117280D01*
X72679Y117715D01*
X73114Y118366D01*
X73267Y119134D01*
X73114Y119902D01*
X73004Y120067D01*
X73239Y120508D01*
X77942D01*
X80292Y118159D01*
D02*
G37*
G36*
X20071Y117211D02*
X19996Y117130D01*
X19930Y117046D01*
X19872Y116956D01*
X19821Y116863D01*
X19778Y116765D01*
X19744Y116663D01*
X19717Y116557D01*
X19699Y116447D01*
X19688Y116332D01*
X19685Y116213D01*
X18516Y117382D01*
X18635Y117385D01*
X18750Y117395D01*
X18860Y117414D01*
X18967Y117441D01*
X19069Y117475D01*
X19166Y117518D01*
X19260Y117568D01*
X19349Y117627D01*
X19433Y117693D01*
X19514Y117768D01*
X20071Y117211D01*
D02*
G37*
G36*
X31118Y113799D02*
X31125Y113874D01*
X31113Y113941D01*
X31082Y114000D01*
X31031Y114051D01*
X30960Y114094D01*
X30871Y114130D01*
X30762Y114157D01*
X30633Y114177D01*
X30486Y114189D01*
X30319Y114193D01*
X30579Y114980D01*
X31371Y114983D01*
X31118Y113799D01*
D02*
G37*
G36*
X62558Y114968D02*
X62602Y114954D01*
X62660Y114942D01*
X62731Y114931D01*
X62913Y114915D01*
X63285Y114902D01*
X63436Y114902D01*
X63579Y114114D01*
X63413Y114110D01*
X63266Y114098D01*
X63138Y114079D01*
X63029Y114051D01*
X62940Y114016D01*
X62870Y113972D01*
X62818Y113921D01*
X62786Y113862D01*
X62773Y113795D01*
X62779Y113721D01*
X62527Y114983D01*
X62558Y114968D01*
D02*
G37*
G36*
X25956Y114959D02*
X26011Y114937D01*
X26078Y114918D01*
X26156Y114902D01*
X26245Y114888D01*
X26458Y114868D01*
X26716Y114857D01*
X26862Y114856D01*
X26965Y114069D01*
X26799Y114065D01*
X26653Y114053D01*
X26525Y114033D01*
X26417Y114006D01*
X26327Y113970D01*
X26257Y113927D01*
X26205Y113876D01*
X26173Y113817D01*
X26160Y113750D01*
X26165Y113675D01*
X25912Y114983D01*
X25956Y114959D01*
D02*
G37*
G36*
X85843Y113406D02*
X85840Y113480D01*
X85820Y113547D01*
X85783Y113606D01*
X85729Y113657D01*
X85658Y113701D01*
X85569Y113736D01*
X85464Y113764D01*
X85341Y113784D01*
X85200Y113795D01*
X85043Y113799D01*
Y114587D01*
X85180Y114590D01*
X85424Y114614D01*
X85530Y114635D01*
X85627Y114663D01*
X85713Y114696D01*
X85789Y114735D01*
X85855Y114781D01*
X85911Y114832D01*
X85956Y114890D01*
X85843Y113406D01*
D02*
G37*
G36*
X58480Y113386D02*
X58478Y113461D01*
X58458Y113528D01*
X58421Y113587D01*
X58367Y113638D01*
X58295Y113681D01*
X58207Y113716D01*
X58101Y113744D01*
X57978Y113764D01*
X57838Y113776D01*
X57681Y113779D01*
Y114567D01*
X57815Y114570D01*
X57941Y114580D01*
X58056Y114596D01*
X58162Y114619D01*
X58258Y114648D01*
X58344Y114683D01*
X58421Y114725D01*
X58488Y114774D01*
X58546Y114829D01*
X58594Y114890D01*
X58480Y113386D01*
D02*
G37*
G36*
X37799Y113551D02*
X37810Y113438D01*
X37828Y113332D01*
X37854Y113231D01*
X37887Y113136D01*
X37927Y113047D01*
X37975Y112965D01*
X38029Y112888D01*
X38091Y112818D01*
X38161Y112753D01*
X36642D01*
X36712Y112818D01*
X36774Y112888D01*
X36829Y112965D01*
X36876Y113047D01*
X36916Y113136D01*
X36949Y113231D01*
X36975Y113332D01*
X36993Y113438D01*
X37004Y113551D01*
X37008Y113671D01*
X37795D01*
X37799Y113551D01*
D02*
G37*
G36*
X12811Y108028D02*
X12788Y108234D01*
X12720Y108419D01*
X12606Y108582D01*
X12446Y108723D01*
X12241Y108843D01*
X11990Y108940D01*
X11694Y109016D01*
X11352Y109071D01*
X10965Y109103D01*
X10531Y109114D01*
Y111476D01*
X10965Y111487D01*
X11352Y111520D01*
X11694Y111574D01*
X11990Y111650D01*
X12241Y111748D01*
X12446Y111867D01*
X12606Y112009D01*
X12720Y112172D01*
X12788Y112356D01*
X12811Y112563D01*
Y108028D01*
D02*
G37*
G36*
X62787Y108488D02*
X62811Y108421D01*
X62852Y108362D01*
X62907Y108311D01*
X62979Y108268D01*
X63067Y108232D01*
X63171Y108205D01*
X63291Y108185D01*
X63427Y108173D01*
X63579Y108169D01*
Y107382D01*
X63427Y107378D01*
X63291Y107366D01*
X63171Y107347D01*
X63067Y107319D01*
X62980Y107284D01*
X62908Y107241D01*
X62852Y107190D01*
X62812Y107131D01*
X62788Y107065D01*
X62780Y106991D01*
X62779Y108563D01*
X62787Y108488D01*
D02*
G37*
G36*
X58480Y106991D02*
X58472Y107065D01*
X58448Y107131D01*
X58408Y107190D01*
X58352Y107241D01*
X58280Y107284D01*
X58192Y107319D01*
X58088Y107347D01*
X57969Y107366D01*
X57833Y107378D01*
X57681Y107382D01*
Y108169D01*
X57833Y108173D01*
X57969Y108185D01*
X58089Y108205D01*
X58192Y108232D01*
X58280Y108268D01*
X58352Y108311D01*
X58408Y108362D01*
X58448Y108421D01*
X58472Y108488D01*
X58480Y108563D01*
X58480Y106991D01*
D02*
G37*
G36*
X70864Y106571D02*
X70682Y106703D01*
X70465Y106769D01*
X70215Y106768D01*
X69932Y106700D01*
X69614Y106565D01*
X69263Y106363D01*
X68879Y106095D01*
X68461Y105760D01*
X67523Y104889D01*
X65853Y106559D01*
X66322Y107044D01*
X67059Y107914D01*
X67328Y108299D01*
X67529Y108650D01*
X67664Y108967D01*
X67732Y109251D01*
X67734Y109501D01*
X67668Y109717D01*
X67536Y109899D01*
X70864Y106571D01*
D02*
G37*
G36*
X80846Y107612D02*
X80825Y107541D01*
X80826Y107458D01*
X80850Y107364D01*
X80896Y107258D01*
X80964Y107141D01*
X81054Y107012D01*
X81167Y106873D01*
X81458Y106559D01*
X80902Y106002D01*
X80739Y106159D01*
X80448Y106407D01*
X80320Y106497D01*
X80203Y106565D01*
X80097Y106611D01*
X80003Y106634D01*
X79920Y106635D01*
X79848Y106614D01*
X79788Y106571D01*
X80890Y107673D01*
X80846Y107612D01*
D02*
G37*
G36*
X35374D02*
X35353Y107541D01*
X35354Y107458D01*
X35378Y107364D01*
X35423Y107258D01*
X35491Y107141D01*
X35582Y107012D01*
X35694Y106873D01*
X35986Y106559D01*
X35429Y106002D01*
X35267Y106159D01*
X34976Y106407D01*
X34847Y106497D01*
X34730Y106565D01*
X34625Y106611D01*
X34530Y106634D01*
X34448Y106635D01*
X34376Y106614D01*
X34316Y106571D01*
X35417Y107673D01*
X35374Y107612D01*
D02*
G37*
G36*
X105551Y106571D02*
X105476Y106568D01*
X105409Y106549D01*
X105350Y106512D01*
X105299Y106457D01*
X105256Y106386D01*
X105220Y106298D01*
X105193Y106192D01*
X105173Y106069D01*
X105161Y105929D01*
X105157Y105772D01*
X104370D01*
X104367Y105909D01*
X104343Y106152D01*
X104322Y106259D01*
X104294Y106355D01*
X104261Y106441D01*
X104221Y106517D01*
X104176Y106583D01*
X104124Y106639D01*
X104067Y106685D01*
X105551Y106571D01*
D02*
G37*
G36*
X78189D02*
X78114Y106568D01*
X78047Y106549D01*
X77988Y106512D01*
X77937Y106457D01*
X77894Y106386D01*
X77858Y106298D01*
X77831Y106192D01*
X77811Y106069D01*
X77799Y105929D01*
X77795Y105772D01*
X77008D01*
X77005Y105909D01*
X76981Y106152D01*
X76959Y106259D01*
X76932Y106355D01*
X76899Y106441D01*
X76859Y106517D01*
X76814Y106583D01*
X76762Y106639D01*
X76704Y106685D01*
X78189Y106571D01*
D02*
G37*
G36*
X98425Y106571D02*
X98201Y106562D01*
X98000Y106503D01*
X97823Y106393D01*
X97669Y106232D01*
X97539Y106020D01*
X97433Y105757D01*
X97350Y105443D01*
X97291Y105079D01*
X97256Y104663D01*
X97244Y104197D01*
X94882D01*
X94918Y106824D01*
X98425Y106571D01*
D02*
G37*
G36*
X102469Y114977D02*
X102809D01*
X103126Y114590D01*
X103126Y114587D01*
Y106988D01*
X103220Y106512D01*
X103364Y106297D01*
X103365Y106294D01*
X103370Y106288D01*
X103490Y106108D01*
X103539Y106076D01*
X103540Y106070D01*
X103548Y106033D01*
X103560Y105915D01*
Y105518D01*
X102060Y104019D01*
X98681D01*
X98681Y104019D01*
X98570Y103997D01*
X98070Y104383D01*
Y104762D01*
X98089Y104980D01*
X98137Y105276D01*
X98197Y105503D01*
X98259Y105657D01*
X98309Y105740D01*
X98313Y105744D01*
X98779D01*
X99256Y105839D01*
X99660Y106108D01*
X99929Y106512D01*
X100024Y106988D01*
Y114540D01*
X100050Y114614D01*
X100331Y114910D01*
X100456Y114977D01*
X101469D01*
Y118858D01*
X102469D01*
Y114977D01*
D02*
G37*
G36*
X86745Y102462D02*
X86728Y102552D01*
X86703Y102633D01*
X86670Y102704D01*
X86630Y102766D01*
X86583Y102818D01*
X86528Y102860D01*
X86466Y102893D01*
X86397Y102917D01*
X86320Y102931D01*
X86236Y102936D01*
X86250Y103723D01*
X87621Y103779D01*
X86745Y102462D01*
D02*
G37*
G36*
X56088Y103032D02*
X55997Y102963D01*
X55916Y102890D01*
X55844Y102811D01*
X55782Y102728D01*
X55730Y102640D01*
X55687Y102547D01*
X55653Y102450D01*
X55629Y102348D01*
X55615Y102241D01*
X55610Y102129D01*
X54823Y102270D01*
X54819Y102377D01*
X54808Y102483D01*
X54790Y102588D01*
X54764Y102693D01*
X54732Y102797D01*
X54691Y102901D01*
X54644Y103003D01*
X54589Y103105D01*
X54527Y103207D01*
X54458Y103308D01*
X56088Y103032D01*
D02*
G37*
G36*
X4647Y101358D02*
X4714Y101132D01*
X4756Y101026D01*
X4803Y100925D01*
X4854Y100829D01*
X4911Y100737D01*
X4973Y100650D01*
X5041Y100568D01*
X5113Y100491D01*
X4676Y99814D01*
X4593Y99890D01*
X4507Y99956D01*
X4418Y100011D01*
X4326Y100055D01*
X4230Y100089D01*
X4132Y100113D01*
X4030Y100126D01*
X3925Y100128D01*
X3817Y100120D01*
X3706Y100101D01*
X4621Y101478D01*
X4647Y101358D01*
D02*
G37*
G36*
X28904Y98407D02*
X27872Y97300D01*
X27869Y97378D01*
X27854Y97449D01*
X27826Y97511D01*
X27785Y97564D01*
X27731Y97610D01*
X27663Y97647D01*
X27582Y97676D01*
X27489Y97697D01*
X27382Y97709D01*
X27262Y97713D01*
X27545Y98501D01*
X28904Y98407D01*
D02*
G37*
G36*
X97474Y97369D02*
X97392Y97282D01*
X97319Y97195D01*
X97255Y97107D01*
X97199Y97018D01*
X97152Y96928D01*
X97113Y96838D01*
X97084Y96746D01*
X97063Y96654D01*
X97051Y96562D01*
X97047Y96469D01*
X95878Y97638D01*
X95971Y97641D01*
X96064Y97653D01*
X96156Y97674D01*
X96247Y97704D01*
X96337Y97742D01*
X96427Y97789D01*
X96516Y97845D01*
X96604Y97910D01*
X96692Y97983D01*
X96779Y98065D01*
X97474Y97369D01*
D02*
G37*
G36*
X4613Y95755D02*
X4540Y95677D01*
X4473Y95595D01*
X4411Y95508D01*
X4355Y95416D01*
X4305Y95319D01*
X4259Y95217D01*
X4220Y95111D01*
X4186Y95000D01*
X4157Y94885D01*
X4134Y94764D01*
X3185Y96118D01*
X3297Y96102D01*
X3407Y96096D01*
X3513Y96100D01*
X3615Y96115D01*
X3714Y96140D01*
X3810Y96175D01*
X3903Y96220D01*
X3992Y96275D01*
X4078Y96341D01*
X4160Y96416D01*
X4613Y95755D01*
D02*
G37*
G36*
X34510Y95869D02*
X34021Y95376D01*
X32830Y95298D01*
X32910Y95385D01*
X32975Y95470D01*
X33026Y95552D01*
X33062Y95634D01*
X33084Y95713D01*
X33090Y95790D01*
X33082Y95865D01*
X33059Y95939D01*
X33021Y96010D01*
X32969Y96080D01*
X34510Y95869D01*
D02*
G37*
G36*
X110925Y104298D02*
X110925Y1929D01*
X109646Y650D01*
X101827D01*
X101544Y1150D01*
X101730Y1598D01*
X101740Y1674D01*
X107284D01*
X108052Y1827D01*
X108703Y2262D01*
X109138Y2913D01*
X109291Y3681D01*
X109138Y4449D01*
X108703Y5100D01*
X108052Y5535D01*
X107284Y5688D01*
X101443D01*
X101439Y5694D01*
X101438Y5696D01*
X101419Y5773D01*
X101400Y5879D01*
X101375Y6310D01*
X101717Y6674D01*
X107284D01*
X108052Y6827D01*
X108703Y7262D01*
X109138Y7913D01*
X109291Y8681D01*
X109138Y9449D01*
X108703Y10100D01*
X108052Y10535D01*
X107284Y10688D01*
X100985D01*
X100217Y10535D01*
X100044Y10420D01*
X99705Y10487D01*
X99014Y10350D01*
X98912Y10282D01*
X98471Y10518D01*
Y11815D01*
X99692Y11863D01*
X99864Y11857D01*
X100218Y11824D01*
X100277Y11815D01*
X100388Y11793D01*
X100431Y11779D01*
X100499Y11771D01*
X100985Y11674D01*
X107284D01*
X108052Y11827D01*
X108703Y12262D01*
X109138Y12913D01*
X109291Y13681D01*
X109138Y14449D01*
X108703Y15100D01*
X108052Y15535D01*
X107284Y15688D01*
X100985D01*
X100499Y15592D01*
X100431Y15584D01*
X100388Y15569D01*
X100349Y15562D01*
X99038Y15487D01*
X98567D01*
X98471Y15488D01*
Y16875D01*
X99406D01*
X99864Y16857D01*
X100218Y16824D01*
X100277Y16815D01*
X100388Y16793D01*
X100431Y16779D01*
X100499Y16771D01*
X100985Y16674D01*
X107284D01*
X108052Y16827D01*
X108703Y17262D01*
X109138Y17913D01*
X109291Y18681D01*
X109138Y19449D01*
X108703Y20100D01*
X108052Y20535D01*
X107284Y20688D01*
X100985D01*
X100499Y20592D01*
X100431Y20583D01*
X100388Y20569D01*
X100349Y20562D01*
X99038Y20488D01*
X97101D01*
X96409Y20350D01*
X95921Y20023D01*
X95141Y19868D01*
X94360Y19346D01*
X93838Y18565D01*
X93655Y17643D01*
Y13681D01*
Y8773D01*
X92548Y7667D01*
X92026Y6886D01*
X92008Y6792D01*
X91993Y6761D01*
X91959Y6718D01*
X91830Y6473D01*
X91789Y6336D01*
X91744Y6200D01*
X91724Y6043D01*
X91731Y5944D01*
X91723Y5846D01*
X91742Y5790D01*
X91745Y5743D01*
X91693Y5676D01*
X91416Y5006D01*
X91321Y4286D01*
Y2318D01*
X91416Y1598D01*
X91602Y1150D01*
X91318Y650D01*
X68416D01*
X68367Y1150D01*
X68654Y1207D01*
X69115Y1515D01*
X69423Y1976D01*
X69531Y2520D01*
Y4235D01*
X70031Y4442D01*
X70958Y3515D01*
X71723Y2724D01*
X72037Y2361D01*
X72113Y2262D01*
X72119Y2233D01*
X72394Y1822D01*
X72804Y1548D01*
X73288Y1452D01*
X79469D01*
X79741Y1506D01*
X79749Y1506D01*
X79762Y1510D01*
X79953Y1548D01*
X80038Y1605D01*
X80045Y1608D01*
X80137Y1661D01*
X80216Y1697D01*
X80314Y1731D01*
X80649Y1809D01*
X80821Y1835D01*
X81036Y1850D01*
X81320Y1824D01*
X81379Y1815D01*
X81490Y1793D01*
X81533Y1779D01*
X81602Y1771D01*
X82087Y1674D01*
X88386D01*
X89154Y1827D01*
X89806Y2262D01*
X90241Y2913D01*
X90393Y3681D01*
X90241Y4449D01*
X89806Y5100D01*
X89154Y5535D01*
X88386Y5688D01*
X82087D01*
X81602Y5592D01*
X81533Y5584D01*
X81490Y5569D01*
X81452Y5562D01*
X81200Y5548D01*
X80748Y5898D01*
X80754Y6382D01*
X81178Y6665D01*
X81236Y6627D01*
X82087Y6457D01*
X84737D01*
Y8181D01*
X79963D01*
X79997Y8008D01*
X79702Y7629D01*
X79612Y7575D01*
X79469Y7603D01*
X73288D01*
X72804Y7507D01*
X72604Y7590D01*
X72535Y7935D01*
X72143Y8521D01*
X70111Y10554D01*
X69773Y10917D01*
X69529Y11222D01*
X69340Y11492D01*
X69314Y11536D01*
Y13150D01*
X69310Y13172D01*
X69627Y13558D01*
X72181D01*
X72394Y13240D01*
X72804Y12966D01*
X73288Y12869D01*
X79469D01*
X79953Y12966D01*
X80011Y13005D01*
X80233Y12913D01*
X80668Y12262D01*
X81319Y11827D01*
X82087Y11674D01*
X88386D01*
X89154Y11827D01*
X89806Y12262D01*
X90241Y12913D01*
X90393Y13681D01*
X90241Y14449D01*
X89806Y15100D01*
X89154Y15535D01*
X88386Y15688D01*
X83830D01*
X83744Y16122D01*
X83670Y16233D01*
X83906Y16674D01*
X88386D01*
X89154Y16827D01*
X89806Y17262D01*
X90241Y17913D01*
X90393Y18681D01*
X90241Y19449D01*
X89806Y20100D01*
X89154Y20535D01*
X88386Y20688D01*
X87852D01*
X87640Y21006D01*
X86989Y21441D01*
X86221Y21594D01*
X85452Y21441D01*
X84801Y21006D01*
X84589Y20688D01*
X82087D01*
X81319Y20535D01*
X80668Y20100D01*
X80233Y19449D01*
X80144Y19004D01*
X79953Y18924D01*
X79469Y19020D01*
X73745D01*
Y21004D01*
X73738Y21035D01*
X74056Y21422D01*
X77658D01*
X78349Y21560D01*
X78935Y21951D01*
X80435Y23451D01*
X80484Y23525D01*
X86615D01*
X87383Y23677D01*
X88034Y24112D01*
X88469Y24764D01*
X88474Y24791D01*
X89026Y25004D01*
X89166Y24911D01*
X89627Y24819D01*
X91747D01*
X91747Y24819D01*
X92208Y24911D01*
X92598Y25172D01*
X93982Y26555D01*
X93982Y26555D01*
X94243Y26946D01*
X94335Y27407D01*
X94335Y27407D01*
Y31377D01*
X94335Y31377D01*
X94243Y31838D01*
X93982Y32229D01*
X93982Y32229D01*
X92413Y33798D01*
X92023Y34059D01*
X91562Y34150D01*
X91562Y34150D01*
X88589D01*
X88354Y34591D01*
X88469Y34764D01*
X88622Y35531D01*
X88469Y36300D01*
X88451Y36326D01*
X88645Y36935D01*
X88887Y37097D01*
X90442Y38652D01*
X90817Y38402D01*
X91585Y38249D01*
X92353Y38402D01*
X93004Y38837D01*
X93439Y39488D01*
X93592Y40256D01*
X93439Y41024D01*
X93004Y41675D01*
X92353Y42110D01*
X91585Y42263D01*
X90817Y42110D01*
X90166Y41675D01*
X90150Y41653D01*
X90108Y41661D01*
X90059D01*
X89521Y41554D01*
X89066Y41249D01*
X88951Y41135D01*
X88542Y41259D01*
X88445Y41336D01*
X88034Y41951D01*
X87383Y42386D01*
X86615Y42539D01*
X84449D01*
X84350Y42558D01*
X84251Y42539D01*
X80315D01*
X79547Y42386D01*
X78896Y41951D01*
X78461Y41300D01*
X78308Y40532D01*
X78361Y40267D01*
X77900Y40021D01*
X75877Y42044D01*
X75642Y42488D01*
X75941Y42936D01*
X76046Y43465D01*
Y44067D01*
X76003Y44063D01*
X75759Y44024D01*
X75548Y43970D01*
X75369Y43899D01*
X75222Y43813D01*
X75108Y43712D01*
X75027Y43595D01*
X74978Y43462D01*
X74962Y43314D01*
Y44382D01*
X73150D01*
X71459D01*
X71500Y43142D01*
X71351Y43232D01*
X71187Y43312D01*
X71007Y43383D01*
X70812Y43444D01*
X70601Y43496D01*
X70375Y43538D01*
X70253Y43552D01*
Y43465D01*
X70317Y43145D01*
X69997Y42645D01*
X66687D01*
X66614Y42651D01*
X66557Y42661D01*
X66489Y43005D01*
X66237Y43382D01*
X65859Y43635D01*
X65413Y43723D01*
X62382D01*
X61936Y43635D01*
X61559Y43382D01*
X61306Y43005D01*
X61218Y42559D01*
Y39724D01*
X61306Y39279D01*
X61559Y38901D01*
X61936Y38649D01*
X62115Y38614D01*
X62228Y38531D01*
X62252Y38243D01*
X62224Y38164D01*
X61821Y37767D01*
X60465D01*
X60346Y37777D01*
X60174Y37806D01*
X60052Y37838D01*
X60028Y37848D01*
X59973Y38123D01*
X59843Y38317D01*
X59903Y38614D01*
X60338Y39265D01*
X60490Y40033D01*
X60338Y40801D01*
X59903Y41452D01*
X59251Y41887D01*
X58483Y42040D01*
X57715Y41887D01*
X57064Y41452D01*
X56903Y41212D01*
X53689D01*
X53689Y41212D01*
X53075Y41090D01*
X52554Y40742D01*
X52554Y40742D01*
X51237Y39425D01*
X50934Y39143D01*
X50691Y38948D01*
X50538Y38841D01*
X48583D01*
X48137Y38753D01*
X47759Y38500D01*
X47507Y38123D01*
X47418Y37677D01*
Y34646D01*
X47507Y34200D01*
X47759Y33823D01*
X48137Y33570D01*
X48313Y33026D01*
X48306Y32992D01*
Y29921D01*
X48034Y29590D01*
X46360D01*
X46105Y29902D01*
Y30858D01*
X43406D01*
X41834D01*
Y29669D01*
X41718Y29822D01*
X41584Y29958D01*
X41431Y30079D01*
X41261Y30183D01*
X41073Y30272D01*
X40867Y30344D01*
X40706Y30384D01*
Y29902D01*
X40450Y29590D01*
X38486D01*
X38231Y29902D01*
Y30374D01*
X38104Y30344D01*
X37887Y30272D01*
X37691Y30183D01*
X37514Y30079D01*
X37357Y29958D01*
X37220Y29822D01*
X37103Y29669D01*
Y30858D01*
X35531D01*
X32832D01*
Y29902D01*
X32576Y29590D01*
X30101D01*
X29845Y29902D01*
Y31484D01*
X30353Y32075D01*
X30492Y32102D01*
X31144Y32537D01*
X31579Y33189D01*
X31732Y33957D01*
X31602Y34607D01*
X31879Y35107D01*
X33767D01*
X33767Y35107D01*
X34381Y35229D01*
X34902Y35577D01*
X36572Y37247D01*
X36920Y37768D01*
X37042Y38382D01*
X37042Y38382D01*
Y41356D01*
X37053Y41480D01*
X37081Y41658D01*
X37114Y41785D01*
X37120Y41799D01*
X37308Y41837D01*
X37679Y42085D01*
X37927Y42456D01*
X38014Y42894D01*
Y45807D01*
X37927Y46245D01*
X37679Y46616D01*
X37308Y46864D01*
X36870Y46951D01*
X34193D01*
X33755Y46864D01*
X33384Y46616D01*
X33136Y46245D01*
X33049Y45807D01*
Y43157D01*
X32549Y42950D01*
X30816Y44683D01*
X30507Y45021D01*
X30144Y45472D01*
X30017Y45653D01*
X29916Y45814D01*
X29847Y45945D01*
X29809Y46038D01*
X29778Y46148D01*
X29776Y46152D01*
X29758Y46245D01*
X29642Y46419D01*
X29637Y46428D01*
X29634Y46431D01*
X29510Y46616D01*
X29139Y46864D01*
X28701Y46951D01*
X26024D01*
X25586Y46864D01*
X25215Y46616D01*
X24967Y46245D01*
X24880Y45807D01*
Y42894D01*
X24967Y42456D01*
X25215Y42085D01*
X25586Y41837D01*
X26024Y41750D01*
X28701D01*
X29069Y41823D01*
X29088Y41813D01*
X29168Y41759D01*
X29343Y41615D01*
X30207Y40750D01*
X30035Y40493D01*
X29883Y39725D01*
X30035Y38957D01*
X30168Y38759D01*
X29932Y38318D01*
X28583D01*
X28583Y38318D01*
X27968Y38196D01*
X27448Y37848D01*
X27030Y37430D01*
X24348D01*
X24348Y37430D01*
X23734Y37308D01*
X23213Y36960D01*
X23213Y36960D01*
X19999Y33746D01*
X19824D01*
X19706Y33754D01*
X19361Y33794D01*
X19242Y33816D01*
X19142Y33841D01*
X19072Y33864D01*
X19034Y33881D01*
X18978Y33913D01*
X18972Y33915D01*
X18890Y33969D01*
X18713Y34005D01*
X18705Y34024D01*
X18672Y34152D01*
X18644Y34329D01*
X18633Y34453D01*
Y37622D01*
X18687Y37705D01*
X19089Y38002D01*
X19350Y37950D01*
X22185D01*
X22630Y38039D01*
X23008Y38291D01*
X23260Y38669D01*
X23349Y39114D01*
Y42146D01*
X23304Y42372D01*
X23304Y42376D01*
X23302Y42385D01*
X23260Y42591D01*
X23227Y43033D01*
X23462Y43385D01*
X23544Y43799D01*
Y46870D01*
X23544Y46873D01*
X23861Y47259D01*
X24961D01*
X25520Y47371D01*
X25994Y47687D01*
X26311Y48161D01*
X26422Y48720D01*
Y52020D01*
X20035D01*
Y49578D01*
X19535Y49417D01*
X18978Y49790D01*
X18210Y49942D01*
X17650Y49831D01*
X17150Y50150D01*
Y53564D01*
X17352D01*
X18120Y53717D01*
X18771Y54152D01*
X19573Y54954D01*
X20035Y54762D01*
Y53020D01*
X26422D01*
Y55737D01*
X26922Y56112D01*
X27362Y56024D01*
X28130Y56177D01*
X28782Y56612D01*
X29217Y57263D01*
X29369Y58031D01*
X29321Y58275D01*
X29331Y58327D01*
Y59906D01*
X29369Y60098D01*
X29360Y60148D01*
X29369Y60197D01*
Y62461D01*
X29217Y63229D01*
X28782Y63880D01*
X28130Y64315D01*
X27362Y64468D01*
X26594Y64315D01*
X25943Y63880D01*
X25508Y63229D01*
X25355Y62461D01*
Y60728D01*
X20501D01*
X19733Y60575D01*
X19082Y60140D01*
X16520Y57578D01*
X15157D01*
X15084Y57563D01*
X12441D01*
X11965Y57469D01*
X11561Y57199D01*
X11291Y56795D01*
X11197Y56319D01*
Y48720D01*
X11291Y48244D01*
X11561Y47841D01*
X11965Y47571D01*
X12441Y47476D01*
X12528D01*
X12894Y46976D01*
X12873Y46870D01*
Y43799D01*
X12460Y43310D01*
X11870D01*
X11425Y43221D01*
X11047Y42969D01*
X10795Y42591D01*
X10706Y42146D01*
Y39114D01*
X10795Y38669D01*
X11047Y38291D01*
X11425Y38039D01*
X11870Y37950D01*
X11985D01*
Y30008D01*
X11985Y30008D01*
X12076Y29547D01*
X12337Y29157D01*
X12977Y28517D01*
X12786Y28055D01*
X12311D01*
Y25059D01*
Y22063D01*
X14272D01*
X14816Y22172D01*
X15256Y22466D01*
X15696Y22172D01*
X16240Y22063D01*
X18201D01*
Y25059D01*
X19201D01*
Y22063D01*
X21161D01*
X21705Y22172D01*
X22146Y22466D01*
X22586Y22172D01*
X23130Y22063D01*
X25091D01*
Y25059D01*
X26091D01*
Y22063D01*
X28051D01*
X28595Y22172D01*
X29035Y22466D01*
X29476Y22172D01*
X30020Y22063D01*
X31980D01*
Y25059D01*
X32980D01*
Y22063D01*
X34941D01*
X35485Y22172D01*
X35925Y22466D01*
X36366Y22172D01*
X36909Y22063D01*
X38870D01*
Y25059D01*
X39870D01*
Y22063D01*
X41831D01*
X42375Y22172D01*
X42815Y22466D01*
X43255Y22172D01*
X43799Y22063D01*
X45760D01*
Y25059D01*
X46760D01*
Y22063D01*
X48720D01*
X49264Y22172D01*
X49705Y22466D01*
X50145Y22172D01*
X50689Y22063D01*
X52650D01*
Y25059D01*
X53150D01*
Y25559D01*
X55561D01*
X54109Y27011D01*
X54172Y26981D01*
X54263Y26989D01*
X54381Y27035D01*
X54528Y27119D01*
X54703Y27240D01*
X54906Y27400D01*
X55397Y27832D01*
X55991Y28407D01*
X55965Y28494D01*
X56135Y28664D01*
X56260Y28780D01*
X56331Y28837D01*
X57894D01*
X58308Y28920D01*
X58660Y29155D01*
X58665Y29162D01*
X59326Y29307D01*
X59338Y29298D01*
X59784Y29210D01*
X62815D01*
X63261Y29298D01*
X63638Y29551D01*
X63890Y29928D01*
X63979Y30374D01*
Y33177D01*
X64356Y33506D01*
X64779Y33436D01*
X65116Y32931D01*
X65767Y32496D01*
X66535Y32343D01*
X67304Y32496D01*
X67955Y32931D01*
X68390Y33582D01*
X68542Y34350D01*
X68390Y35118D01*
X67955Y35770D01*
X67304Y36205D01*
X66599Y36345D01*
X66474Y36470D01*
X66348Y36554D01*
X66230Y37234D01*
X66421Y37519D01*
X66574Y38287D01*
X66421Y39055D01*
X66380Y39117D01*
X66489Y39279D01*
X66578Y39724D01*
Y39823D01*
X66614Y39829D01*
X66687Y39835D01*
X70338D01*
X70606Y39335D01*
X70558Y39264D01*
X70470Y38819D01*
Y35984D01*
X70558Y35539D01*
X70811Y35161D01*
X71188Y34909D01*
X71634Y34820D01*
X72221D01*
X72489Y34320D01*
X72460Y34277D01*
X72361Y33779D01*
Y33709D01*
X72527Y33720D01*
X72751Y33753D01*
X73136Y33841D01*
X73298Y33896D01*
X73439Y33958D01*
X73559Y34028D01*
Y33177D01*
X75197D01*
Y32177D01*
X73559D01*
Y31326D01*
X73439Y31396D01*
X73298Y31458D01*
X73136Y31513D01*
X72954Y31561D01*
X72751Y31601D01*
X72361Y31650D01*
Y31575D01*
X72460Y31077D01*
X72470Y31062D01*
X72169Y30612D01*
X72067Y30633D01*
X69036D01*
X68590Y30544D01*
X68322Y30365D01*
X68253Y30301D01*
X68264Y30326D01*
X68212Y30292D01*
X67960Y29914D01*
X67871Y29469D01*
Y26945D01*
X67412Y26664D01*
X67371Y26664D01*
X66634Y26810D01*
X65866Y26657D01*
X65215Y26222D01*
X65173Y26160D01*
X64623Y26081D01*
X64056Y26461D01*
X63644Y26542D01*
X63638Y26551D01*
X63261Y26804D01*
X62815Y26892D01*
X59783D01*
X59338Y26804D01*
X58960Y26551D01*
X58708Y26174D01*
X58619Y25728D01*
Y22894D01*
X58644Y22768D01*
X58477Y22461D01*
X58272Y22268D01*
X57441D01*
X56999Y22181D01*
X56882Y22289D01*
X56689Y22590D01*
X56923Y22941D01*
X57031Y23484D01*
Y24559D01*
X53650D01*
Y22063D01*
X55610D01*
X56124Y22166D01*
X56213Y22098D01*
X56468Y21780D01*
X56273Y21488D01*
X56176Y21004D01*
Y20751D01*
X55676Y20345D01*
X55610Y20358D01*
X50689D01*
X50228Y20266D01*
X50054Y20150D01*
X49705Y20045D01*
X49355Y20150D01*
X49181Y20266D01*
X48720Y20358D01*
X43799D01*
X43338Y20266D01*
X43165Y20150D01*
X42807Y20043D01*
X42511Y20122D01*
X42503Y20125D01*
X42292Y20266D01*
X41831Y20358D01*
X36909D01*
X36449Y20266D01*
X36237Y20124D01*
X36230Y20122D01*
X35933Y20043D01*
X35576Y20150D01*
X35402Y20266D01*
X34941Y20358D01*
X30020D01*
X29559Y20266D01*
X29347Y20124D01*
X29340Y20122D01*
X29043Y20043D01*
X28686Y20150D01*
X28512Y20266D01*
X28051Y20358D01*
X23130D01*
X22669Y20266D01*
X22495Y20150D01*
X22146Y20045D01*
X21796Y20150D01*
X21622Y20266D01*
X21161Y20358D01*
X16240D01*
X15779Y20266D01*
X15606Y20150D01*
X15248Y20043D01*
X14952Y20122D01*
X14944Y20125D01*
X14732Y20266D01*
X14272Y20358D01*
X9350D01*
X8890Y20266D01*
X8716Y20150D01*
X8359Y20043D01*
X8062Y20122D01*
X8055Y20125D01*
X7843Y20266D01*
X7382Y20358D01*
X2461D01*
X2000Y20266D01*
X1609Y20005D01*
X981Y19965D01*
X886Y20041D01*
Y22433D01*
X1386Y22584D01*
X1456Y22479D01*
X1917Y22172D01*
X2461Y22063D01*
X4421D01*
Y25059D01*
X5421D01*
Y22063D01*
X7382D01*
X7926Y22172D01*
X8366Y22466D01*
X8807Y22172D01*
X9350Y22063D01*
X11311D01*
Y25059D01*
Y28055D01*
X9350D01*
X8807Y27947D01*
X8366Y27652D01*
X7944Y27935D01*
X7931Y28017D01*
X7965Y28449D01*
X7977Y28451D01*
X8348Y28699D01*
X8596Y29070D01*
X8683Y29508D01*
Y32421D01*
X8596Y32859D01*
X8465Y33056D01*
X8461Y33065D01*
X8450Y33077D01*
X8348Y33230D01*
X8258Y33290D01*
X8252Y33298D01*
X8137Y33383D01*
X8068Y33447D01*
X8009Y33516D01*
X7957Y33591D01*
X7912Y33675D01*
X7872Y33773D01*
X7839Y33885D01*
X7814Y34014D01*
X7806Y34078D01*
Y37216D01*
X7807Y37216D01*
X7684Y37831D01*
X7336Y38352D01*
X7336Y38352D01*
X4813Y40875D01*
X4814Y40884D01*
X5039Y41356D01*
X7539D01*
X7977Y41443D01*
X8348Y41691D01*
X8596Y42062D01*
X8683Y42500D01*
Y44164D01*
X8685Y44167D01*
X8822Y44361D01*
X9198Y44802D01*
X9994Y45597D01*
X9994Y45597D01*
X10342Y46118D01*
X10464Y46732D01*
X10464Y46732D01*
Y57848D01*
X10464Y57848D01*
X10342Y58463D01*
X9994Y58984D01*
X9629Y59348D01*
X9531Y59840D01*
X9141Y60424D01*
X9280Y60924D01*
X14469D01*
X14484Y60846D01*
X14919Y60195D01*
X15571Y59760D01*
X16339Y59607D01*
X17107Y59760D01*
X17758Y60195D01*
X18193Y60846D01*
X18346Y61614D01*
X18193Y62382D01*
X17758Y63033D01*
X17107Y63468D01*
X16339Y63621D01*
X15951Y63544D01*
X15247Y63534D01*
X7354D01*
X6855Y63434D01*
X6431Y63151D01*
X4294Y61014D01*
X4011Y60591D01*
X3912Y60092D01*
Y59739D01*
X3813Y59244D01*
Y57563D01*
X3386D01*
X2910Y57469D01*
X2506Y57199D01*
X2236Y56795D01*
X2142Y56319D01*
Y48720D01*
X2218Y48337D01*
X1889Y48272D01*
X1386Y47935D01*
X886Y48141D01*
Y83257D01*
X1158Y83393D01*
X1386Y83450D01*
X1988Y83047D01*
X2756Y82894D01*
X3524Y83047D01*
X4175Y83482D01*
X4610Y84133D01*
X4716Y84667D01*
X6790Y86740D01*
X7252Y86549D01*
Y82992D01*
X7378Y82355D01*
X7577Y82058D01*
X7492Y81854D01*
X6952Y81493D01*
X6591Y80953D01*
X6464Y80315D01*
Y73543D01*
X6591Y72906D01*
X6952Y72365D01*
X7492Y72004D01*
X8130Y71877D01*
X20217D01*
X20854Y72004D01*
X21395Y72365D01*
X21606Y72217D01*
X21613Y72206D01*
X22264Y71771D01*
X23033Y71619D01*
X23801Y71771D01*
X24285Y72095D01*
X24311Y72109D01*
X24336Y72129D01*
X24452Y72206D01*
X24462Y72222D01*
X24491Y72240D01*
X24540Y72266D01*
X24587Y72286D01*
X24632Y72303D01*
X24676Y72315D01*
X24720Y72323D01*
X25481D01*
X25481Y72323D01*
X25942Y72415D01*
X26332Y72676D01*
X28115Y74459D01*
X28115Y74459D01*
X28115Y74459D01*
X28877Y75221D01*
X29521Y75157D01*
X29523Y75153D01*
X29869Y74923D01*
X30276Y74842D01*
X32913D01*
X33321Y74923D01*
X33666Y75153D01*
X33720Y75235D01*
X34220Y75083D01*
Y73543D01*
X34347Y72906D01*
X34708Y72365D01*
X35248Y72004D01*
X35886Y71877D01*
X47972D01*
X48610Y72004D01*
X49150Y72365D01*
X49512Y72906D01*
X49638Y73543D01*
Y80315D01*
X49512Y80953D01*
X49401Y81117D01*
X49523Y81800D01*
X49544Y81814D01*
X49905Y82355D01*
X50032Y82992D01*
Y89764D01*
X49964Y90103D01*
X50326Y90603D01*
X61682D01*
X62043Y90103D01*
X61976Y89764D01*
Y82992D01*
X62103Y82355D01*
X62464Y81814D01*
X62334Y81299D01*
X62103Y80953D01*
X61976Y80315D01*
Y73543D01*
X62103Y72906D01*
X62464Y72365D01*
X63004Y72004D01*
X63642Y71877D01*
X75728D01*
X76366Y72004D01*
X76906Y72365D01*
X77267Y72906D01*
X77394Y73543D01*
Y74601D01*
X77894Y74753D01*
X77992Y74606D01*
X78408Y74329D01*
X78898Y74231D01*
X79622D01*
X79620Y74309D01*
X79602Y74512D01*
X79573Y74691D01*
X79532Y74846D01*
X79478Y74977D01*
X79413Y75084D01*
X79337Y75168D01*
X79248Y75227D01*
X79148Y75263D01*
X79035Y75275D01*
X79716D01*
Y76535D01*
X80216D01*
Y77035D01*
X82816D01*
Y77559D01*
X82718Y78049D01*
X82466Y78427D01*
X82723Y78812D01*
X82814Y79272D01*
Y79480D01*
X80216D01*
Y80480D01*
X82814D01*
Y80689D01*
X82723Y81148D01*
X82463Y81538D01*
Y81573D01*
X82723Y81962D01*
X82814Y82421D01*
Y82630D01*
X80216D01*
Y83630D01*
X82814D01*
Y83839D01*
X82723Y84298D01*
X82466Y84683D01*
X82718Y85061D01*
X82816Y85551D01*
Y86075D01*
X80216D01*
Y86575D01*
X79716D01*
Y88879D01*
X78898D01*
X78408Y88781D01*
X77992Y88504D01*
X77894Y88357D01*
X77394Y88509D01*
Y89764D01*
X77327Y90103D01*
X77688Y90603D01*
X81655D01*
X81655Y90603D01*
X82116Y90695D01*
X82507Y90956D01*
X82881Y91330D01*
X83343Y91139D01*
Y90116D01*
X83343Y90116D01*
X83343Y90116D01*
Y84083D01*
X83343Y84083D01*
X83435Y83622D01*
X83696Y83232D01*
X84255Y82672D01*
X84255Y82672D01*
X84646Y82411D01*
X84935Y82354D01*
X84997Y82045D01*
X85210Y81726D01*
Y81673D01*
X84801Y81400D01*
X84366Y80748D01*
X84214Y79980D01*
X84366Y79212D01*
X84801Y78561D01*
X84921Y78481D01*
X85018Y77991D01*
X85001Y77966D01*
X84921Y77559D01*
Y75512D01*
X85001Y75105D01*
X85232Y74760D01*
X85577Y74529D01*
X85984Y74448D01*
X86493D01*
X86770Y74034D01*
X87421Y73598D01*
X88189Y73446D01*
X88838Y73575D01*
X89004Y73564D01*
X89389Y73286D01*
X89465Y72906D01*
X89826Y72365D01*
X90367Y72004D01*
X91004Y71877D01*
X103091D01*
X103728Y72004D01*
X104269Y72365D01*
X104630Y72906D01*
X104756Y73543D01*
Y80315D01*
X104630Y80953D01*
X104269Y81493D01*
X104398Y82008D01*
X104630Y82355D01*
X104756Y82992D01*
Y89764D01*
X104630Y90401D01*
X104269Y90942D01*
X103728Y91303D01*
X103091Y91430D01*
X91004D01*
X90366Y91303D01*
X89949Y91625D01*
X89770Y91894D01*
X90043Y92303D01*
X90196Y93071D01*
X90065Y93729D01*
X90338Y94229D01*
X91299D01*
X91299Y94229D01*
X91760Y94320D01*
X92151Y94582D01*
X93512Y95942D01*
X93990Y95797D01*
X94012Y95689D01*
X94447Y95038D01*
X95098Y94602D01*
X95866Y94450D01*
X96634Y94602D01*
X97285Y95038D01*
X97720Y95689D01*
X97873Y96457D01*
X97858Y96532D01*
X97858Y96533D01*
X97866Y96556D01*
X97878Y96584D01*
X97895Y96617D01*
X97919Y96656D01*
X97945Y96691D01*
X99812Y98558D01*
X103937D01*
X104436Y98657D01*
X104859Y98940D01*
X110425Y104505D01*
X110925Y104298D01*
D02*
G37*
G36*
X65892Y93371D02*
X65806Y93453D01*
X65717Y93527D01*
X65626Y93592D01*
X65532Y93648D01*
X65435Y93695D01*
X65336Y93735D01*
X65234Y93765D01*
X65130Y93787D01*
X65023Y93800D01*
X64913Y93804D01*
Y94591D01*
X65023Y94595D01*
X65130Y94608D01*
X65234Y94630D01*
X65336Y94661D01*
X65435Y94700D01*
X65532Y94747D01*
X65626Y94803D01*
X65717Y94868D01*
X65806Y94942D01*
X65892Y95024D01*
Y93371D01*
D02*
G37*
G36*
X4548Y92639D02*
X4474Y92559D01*
X4407Y92475D01*
X4348Y92386D01*
X4295Y92293D01*
X4250Y92195D01*
X4213Y92093D01*
X4182Y91986D01*
X4158Y91875D01*
X4142Y91760D01*
X4133Y91639D01*
X3030Y92871D01*
X3148Y92868D01*
X3261Y92873D01*
X3371Y92887D01*
X3476Y92910D01*
X3577Y92941D01*
X3675Y92981D01*
X3768Y93030D01*
X3858Y93087D01*
X3943Y93154D01*
X4024Y93228D01*
X4548Y92639D01*
D02*
G37*
G36*
X24742Y93279D02*
X24009Y92769D01*
X24013Y92782D01*
X24011Y92798D01*
X24002Y92820D01*
X23988Y92845D01*
X23968Y92875D01*
X23942Y92909D01*
X23871Y92990D01*
X23777Y93088D01*
X24333Y93645D01*
X24742Y93279D01*
D02*
G37*
G36*
X4379Y88921D02*
X4306Y88842D01*
X4239Y88759D01*
X4178Y88670D01*
X4124Y88578D01*
X4076Y88480D01*
X4034Y88378D01*
X3999Y88272D01*
X3969Y88160D01*
X3947Y88044D01*
X3930Y87924D01*
X2907Y89223D01*
X3022Y89212D01*
X3133Y89211D01*
X3241Y89220D01*
X3345Y89239D01*
X3446Y89266D01*
X3543Y89303D01*
X3636Y89350D01*
X3725Y89407D01*
X3811Y89473D01*
X3893Y89548D01*
X4379Y88921D01*
D02*
G37*
G36*
X25577Y85696D02*
X25476Y85660D01*
X25388Y85601D01*
X25311Y85517D01*
X25246Y85410D01*
X25193Y85279D01*
X25152Y85124D01*
X25140Y85054D01*
X25152Y84984D01*
X25193Y84829D01*
X25246Y84697D01*
X25311Y84590D01*
X25388Y84506D01*
X25476Y84447D01*
X25577Y84411D01*
X25689Y84399D01*
X23327D01*
X23439Y84411D01*
X23539Y84447D01*
X23628Y84506D01*
X23705Y84590D01*
X23770Y84697D01*
X23823Y84829D01*
X23864Y84984D01*
X23876Y85054D01*
X23864Y85124D01*
X23823Y85279D01*
X23770Y85410D01*
X23705Y85517D01*
X23628Y85601D01*
X23539Y85660D01*
X23439Y85696D01*
X23327Y85708D01*
X25689D01*
X25577Y85696D01*
D02*
G37*
G36*
X81285Y85303D02*
X81185Y85267D01*
X81097Y85207D01*
X81020Y85124D01*
X80955Y85016D01*
X80902Y84885D01*
X80860Y84730D01*
X80849Y84660D01*
X80860Y84590D01*
X80902Y84435D01*
X80955Y84304D01*
X81020Y84196D01*
X81097Y84113D01*
X81185Y84053D01*
X81285Y84017D01*
X81398Y84005D01*
X79035D01*
X79148Y84017D01*
X79248Y84053D01*
X79337Y84113D01*
X79413Y84196D01*
X79478Y84304D01*
X79532Y84435D01*
X79573Y84590D01*
X79584Y84660D01*
X79573Y84730D01*
X79532Y84885D01*
X79478Y85016D01*
X79413Y85124D01*
X79337Y85207D01*
X79248Y85267D01*
X79148Y85303D01*
X79035Y85315D01*
X81398D01*
X81285Y85303D01*
D02*
G37*
G36*
X85739Y82904D02*
X85734Y82947D01*
X85716Y82985D01*
X85685Y83019D01*
X85642Y83049D01*
X85585Y83073D01*
X85515Y83094D01*
X85433Y83110D01*
X85337Y83121D01*
X85229Y83128D01*
X85107Y83130D01*
Y83917D01*
X85231Y83918D01*
X85746Y83948D01*
X85769Y83956D01*
X85779Y83965D01*
X85739Y82904D01*
D02*
G37*
G36*
X25577Y82636D02*
X25476Y82600D01*
X25388Y82541D01*
X25311Y82457D01*
X25246Y82350D01*
X25193Y82219D01*
X25152Y82064D01*
X25133Y81949D01*
X25152Y81834D01*
X25193Y81679D01*
X25246Y81548D01*
X25311Y81440D01*
X25388Y81357D01*
X25476Y81297D01*
X25577Y81261D01*
X25689Y81249D01*
X23327D01*
X23439Y81261D01*
X23539Y81297D01*
X23628Y81357D01*
X23705Y81440D01*
X23770Y81548D01*
X23823Y81679D01*
X23864Y81834D01*
X23883Y81949D01*
X23864Y82064D01*
X23823Y82219D01*
X23770Y82350D01*
X23705Y82457D01*
X23628Y82541D01*
X23539Y82600D01*
X23439Y82636D01*
X23327Y82648D01*
X25689D01*
X25577Y82636D01*
D02*
G37*
G36*
X28788Y81863D02*
X28736Y81798D01*
X28691Y81725D01*
X28652Y81645D01*
X28619Y81558D01*
X28592Y81464D01*
X28571Y81362D01*
X28555Y81253D01*
X28546Y81137D01*
X28543Y81014D01*
X27756Y81004D01*
X27753Y81116D01*
X27742Y81221D01*
X27725Y81319D01*
X27701Y81410D01*
X27670Y81493D01*
X27633Y81569D01*
X27588Y81638D01*
X27537Y81700D01*
X27479Y81755D01*
X27414Y81802D01*
X28845Y81922D01*
X28788Y81863D01*
D02*
G37*
G36*
X81285Y82243D02*
X81185Y82207D01*
X81097Y82147D01*
X81020Y82064D01*
X80955Y81956D01*
X80902Y81825D01*
X80860Y81670D01*
X80841Y81555D01*
X80860Y81440D01*
X80902Y81285D01*
X80955Y81154D01*
X81020Y81047D01*
X81097Y80963D01*
X81185Y80904D01*
X81285Y80868D01*
X81398Y80856D01*
X79035D01*
X79148Y80868D01*
X79248Y80904D01*
X79337Y80963D01*
X79413Y81047D01*
X79478Y81154D01*
X79532Y81285D01*
X79573Y81440D01*
X79592Y81555D01*
X79573Y81670D01*
X79532Y81825D01*
X79478Y81956D01*
X79413Y82064D01*
X79337Y82147D01*
X79248Y82207D01*
X79148Y82243D01*
X79035Y82254D01*
X81398D01*
X81285Y82243D01*
D02*
G37*
G36*
X30062Y79591D02*
X30053Y79665D01*
X30029Y79731D01*
X29987Y79790D01*
X29929Y79840D01*
X29854Y79883D01*
X29763Y79918D01*
X29655Y79945D01*
X29530Y79965D01*
X29389Y79976D01*
X29231Y79980D01*
Y80768D01*
X29389Y80772D01*
X29530Y80783D01*
X29655Y80803D01*
X29763Y80830D01*
X29854Y80865D01*
X29929Y80908D01*
X29987Y80958D01*
X30029Y81017D01*
X30053Y81083D01*
X30062Y81157D01*
Y79591D01*
D02*
G37*
G36*
X25577Y79487D02*
X25476Y79451D01*
X25388Y79391D01*
X25311Y79308D01*
X25246Y79200D01*
X25193Y79069D01*
X25152Y78914D01*
X25140Y78844D01*
X25152Y78774D01*
X25193Y78619D01*
X25246Y78488D01*
X25311Y78380D01*
X25388Y78297D01*
X25476Y78237D01*
X25577Y78201D01*
X25689Y78189D01*
X23327D01*
X23439Y78201D01*
X23539Y78237D01*
X23628Y78297D01*
X23705Y78380D01*
X23770Y78488D01*
X23823Y78619D01*
X23864Y78774D01*
X23876Y78844D01*
X23864Y78914D01*
X23823Y79069D01*
X23770Y79200D01*
X23705Y79308D01*
X23628Y79391D01*
X23539Y79451D01*
X23439Y79487D01*
X23327Y79499D01*
X25689D01*
X25577Y79487D01*
D02*
G37*
G36*
X81285Y79093D02*
X81185Y79057D01*
X81097Y78997D01*
X81020Y78914D01*
X80955Y78807D01*
X80902Y78675D01*
X80860Y78520D01*
X80849Y78450D01*
X80860Y78380D01*
X80902Y78225D01*
X80955Y78094D01*
X81020Y77987D01*
X81097Y77903D01*
X81185Y77843D01*
X81285Y77808D01*
X81398Y77796D01*
X79035D01*
X79148Y77808D01*
X79248Y77843D01*
X79337Y77903D01*
X79413Y77987D01*
X79478Y78094D01*
X79532Y78225D01*
X79573Y78380D01*
X79584Y78450D01*
X79573Y78520D01*
X79532Y78675D01*
X79478Y78807D01*
X79413Y78914D01*
X79337Y78997D01*
X79248Y79057D01*
X79148Y79093D01*
X79035Y79105D01*
X81398D01*
X81285Y79093D01*
D02*
G37*
G36*
X30039Y76199D02*
X30031Y76273D01*
X30007Y76340D01*
X29967Y76399D01*
X29911Y76451D01*
X29839Y76494D01*
X29751Y76529D01*
X29647Y76557D01*
X29527Y76577D01*
X29391Y76588D01*
X29239Y76592D01*
Y77380D01*
X29391Y77384D01*
X29527Y77395D01*
X29647Y77415D01*
X29751Y77443D01*
X29839Y77478D01*
X29911Y77521D01*
X29967Y77573D01*
X30007Y77632D01*
X30031Y77699D01*
X30039Y77773D01*
Y76199D01*
D02*
G37*
G36*
X24020Y74292D02*
X24101Y74214D01*
X24186Y74146D01*
X24275Y74086D01*
X24368Y74036D01*
X24464Y73994D01*
X24564Y73962D01*
X24667Y73939D01*
X24774Y73926D01*
X24885Y73921D01*
X24815Y73133D01*
X24707Y73129D01*
X24600Y73117D01*
X24495Y73097D01*
X24392Y73069D01*
X24290Y73033D01*
X24190Y72989D01*
X24091Y72936D01*
X23994Y72876D01*
X23898Y72808D01*
X23804Y72731D01*
X23942Y74379D01*
X24020Y74292D01*
D02*
G37*
G36*
X15188Y61347D02*
X15165Y61421D01*
X15130Y61488D01*
X15084Y61546D01*
X15027Y61597D01*
X14960Y61639D01*
X14881Y61674D01*
X14791Y61702D01*
X14690Y61721D01*
X14578Y61733D01*
X14455Y61737D01*
X14621Y62721D01*
X15987Y62742D01*
X15188Y61347D01*
D02*
G37*
G36*
X5615Y57543D02*
X5630Y57374D01*
X5655Y57224D01*
X5689Y57095D01*
X5733Y56985D01*
X5787Y56896D01*
X5851Y56826D01*
X5925Y56776D01*
X6009Y56746D01*
X6102Y56736D01*
X4134D01*
X4227Y56746D01*
X4311Y56776D01*
X4385Y56826D01*
X4449Y56896D01*
X4503Y56985D01*
X4547Y57095D01*
X4582Y57224D01*
X4606Y57374D01*
X4621Y57543D01*
X4626Y57732D01*
X5610D01*
X5615Y57543D01*
D02*
G37*
G36*
X21079Y49362D02*
X21071Y49436D01*
X21047Y49503D01*
X21007Y49562D01*
X20951Y49613D01*
X20879Y49657D01*
X20791Y49692D01*
X20687Y49720D01*
X20567Y49739D01*
X20431Y49751D01*
X20279Y49755D01*
Y50542D01*
X20431Y50546D01*
X20567Y50558D01*
X20687Y50578D01*
X20791Y50605D01*
X20879Y50641D01*
X20951Y50684D01*
X21007Y50735D01*
X21047Y50795D01*
X21071Y50862D01*
X21079Y50936D01*
Y49362D01*
D02*
G37*
G36*
X24630Y48295D02*
X24563Y48271D01*
X24504Y48231D01*
X24453Y48175D01*
X24409Y48103D01*
X24374Y48015D01*
X24347Y47912D01*
X24327Y47792D01*
X24315Y47656D01*
X24311Y47504D01*
X23524D01*
X23520Y47656D01*
X23508Y47792D01*
X23488Y47912D01*
X23461Y48015D01*
X23425Y48103D01*
X23382Y48175D01*
X23331Y48231D01*
X23272Y48271D01*
X23205Y48295D01*
X23130Y48303D01*
X24705D01*
X24630Y48295D01*
D02*
G37*
G36*
X8982Y45742D02*
X8674Y45424D01*
X8188Y44854D01*
X8010Y44603D01*
X7876Y44375D01*
X7785Y44169D01*
X7738Y43985D01*
X7734Y43824D01*
X7773Y43686D01*
X7856Y43570D01*
X5696Y45730D01*
X5812Y45647D01*
X5950Y45608D01*
X6111Y45612D01*
X6295Y45659D01*
X6501Y45750D01*
X6729Y45884D01*
X6980Y46062D01*
X7254Y46283D01*
X7868Y46856D01*
X8982Y45742D01*
D02*
G37*
G36*
X3740Y44565D02*
X2165Y44635D01*
X2164Y44769D01*
X2130Y45246D01*
X2118Y45302D01*
X2103Y45346D01*
X2086Y45376D01*
X2068Y45394D01*
X3669Y45807D01*
X3740Y44565D01*
D02*
G37*
G36*
X15256Y43543D02*
X15181Y43538D01*
X15114Y43516D01*
X15055Y43478D01*
X15004Y43423D01*
X14961Y43352D01*
X14925Y43263D01*
X14898Y43158D01*
X14878Y43036D01*
X14873Y42974D01*
X14889Y42744D01*
X14904Y42643D01*
X14943Y42469D01*
X14968Y42397D01*
X14996Y42333D01*
X15027Y42279D01*
X13681Y42483D01*
X13756Y42480D01*
X13823Y42496D01*
X13882Y42530D01*
X13933Y42582D01*
X13976Y42653D01*
X14012Y42742D01*
X14039Y42849D01*
X14059Y42975D01*
X14061Y42999D01*
X14047Y43098D01*
X14026Y43199D01*
X13998Y43290D01*
X13964Y43372D01*
X13924Y43445D01*
X13878Y43509D01*
X13825Y43564D01*
X13767Y43609D01*
X15256Y43543D01*
D02*
G37*
G36*
X22244Y44058D02*
X22247Y43791D01*
X22260Y43609D01*
X22651D01*
X22573Y43544D01*
X22504Y43456D01*
X22443Y43346D01*
X22390Y43214D01*
X22346Y43060D01*
X22313Y42903D01*
X22339Y42753D01*
X22373Y42605D01*
X22413Y42477D01*
X22457Y42368D01*
X22508Y42279D01*
X22254Y42299D01*
X22248Y42221D01*
X22244Y41956D01*
X20669D01*
X20663Y42197D01*
X20645Y42422D01*
X20645Y42424D01*
X19882Y42483D01*
X20031Y42488D01*
X20165Y42527D01*
X20283Y42600D01*
X20386Y42707D01*
X20472Y42849D01*
X20524Y42977D01*
X20518Y42994D01*
X20452Y43151D01*
X20374Y43291D01*
X20283Y43414D01*
X20180Y43520D01*
X20066Y43609D01*
X20649D01*
X20661Y43757D01*
X20669Y44070D01*
X22244Y44058D01*
D02*
G37*
G36*
X29048Y45776D02*
X29120Y45603D01*
X29219Y45414D01*
X29347Y45209D01*
X29502Y44988D01*
X29898Y44498D01*
X30405Y43943D01*
X30700Y43642D01*
X30143Y41971D01*
X29969Y42139D01*
X29648Y42404D01*
X29502Y42502D01*
X29365Y42575D01*
X29238Y42625D01*
X29121Y42652D01*
X29013Y42655D01*
X28915Y42634D01*
X28827Y42590D01*
X29005Y45933D01*
X29048Y45776D01*
D02*
G37*
G36*
X37005Y42610D02*
X36856Y42596D01*
X36724Y42549D01*
X36606Y42470D01*
X36505Y42357D01*
X36419Y42212D01*
X36349Y42033D01*
X36294Y41822D01*
X36255Y41577D01*
X36232Y41300D01*
X36224Y40990D01*
X34649D01*
X34642Y41225D01*
X34622Y41444D01*
X34587Y41649D01*
X34539Y41838D01*
X34477Y42013D01*
X34401Y42173D01*
X34312Y42317D01*
X34208Y42447D01*
X34091Y42562D01*
X33960Y42661D01*
X37005Y42610D01*
D02*
G37*
G36*
X65762Y42309D02*
X65798Y42209D01*
X65858Y42120D01*
X65941Y42043D01*
X66049Y41978D01*
X66180Y41925D01*
X66335Y41884D01*
X66514Y41854D01*
X66717Y41837D01*
X66944Y41831D01*
Y40650D01*
X66717Y40644D01*
X66514Y40626D01*
X66335Y40596D01*
X66180Y40555D01*
X66049Y40502D01*
X65941Y40437D01*
X65858Y40360D01*
X65798Y40272D01*
X65762Y40171D01*
X65750Y40059D01*
Y42421D01*
X65762Y42309D01*
D02*
G37*
G36*
X57995Y38957D02*
X56673Y38819D01*
X56650Y40394D01*
X56784Y40395D01*
X57188Y40420D01*
X57257Y40432D01*
X57312Y40446D01*
X57354Y40461D01*
X57382Y40479D01*
X57398Y40499D01*
X57995Y38957D01*
D02*
G37*
G36*
X65497Y39395D02*
X65493Y39364D01*
X65489Y39311D01*
X65477Y38738D01*
X65476Y38363D01*
X63507D01*
X63479Y39387D01*
X65502Y39405D01*
X65497Y39395D01*
D02*
G37*
G36*
X13902Y38769D02*
X13835Y38745D01*
X13776Y38705D01*
X13724Y38649D01*
X13681Y38577D01*
X13646Y38489D01*
X13618Y38385D01*
X13598Y38266D01*
X13587Y38130D01*
X13583Y37978D01*
X12795D01*
X12791Y38130D01*
X12779Y38266D01*
X12760Y38385D01*
X12732Y38489D01*
X12697Y38577D01*
X12654Y38649D01*
X12602Y38705D01*
X12543Y38745D01*
X12476Y38769D01*
X12402Y38777D01*
X13976D01*
X13902Y38769D01*
D02*
G37*
G36*
X52880Y37684D02*
X52585Y37377D01*
X52118Y36820D01*
X51946Y36570D01*
X51815Y36338D01*
X51726Y36124D01*
X51677Y35930D01*
X51670Y35753D01*
X51704Y35596D01*
X51778Y35456D01*
X49882Y38038D01*
X49990Y37933D01*
X50123Y37875D01*
X50283Y37865D01*
X50467Y37903D01*
X50677Y37989D01*
X50912Y38123D01*
X51173Y38306D01*
X51460Y38536D01*
X52109Y39140D01*
X52880Y37684D01*
D02*
G37*
G36*
X17847Y38178D02*
X17840Y38150D01*
X17834Y38109D01*
X17825Y37986D01*
X17815Y37581D01*
X17815Y37446D01*
X16240D01*
X16201Y38192D01*
X17854D01*
X17847Y38178D01*
D02*
G37*
G36*
X75006Y37091D02*
X75026Y37024D01*
X75064Y36965D01*
X75118Y36913D01*
X75190Y36870D01*
X75278Y36835D01*
X75384Y36807D01*
X75506Y36788D01*
X75645Y36776D01*
X75802Y36772D01*
Y35984D01*
X75662Y35982D01*
X75417Y35962D01*
X75312Y35945D01*
X75217Y35923D01*
X75134Y35895D01*
X75062Y35863D01*
X75001Y35826D01*
X74951Y35784D01*
X74912Y35737D01*
X75002Y37165D01*
X75006Y37091D01*
D02*
G37*
G36*
X81571Y34679D02*
X81493Y34767D01*
X81412Y34844D01*
X81327Y34913D01*
X81238Y34973D01*
X81145Y35023D01*
X81049Y35065D01*
X80949Y35097D01*
X80846Y35120D01*
X80739Y35133D01*
X80628Y35138D01*
X80698Y35925D01*
X80806Y35929D01*
X80913Y35941D01*
X81018Y35961D01*
X81121Y35990D01*
X81223Y36026D01*
X81323Y36070D01*
X81422Y36122D01*
X81519Y36182D01*
X81615Y36251D01*
X81709Y36327D01*
X81571Y34679D01*
D02*
G37*
G36*
X59239Y37585D02*
X59287Y37451D01*
X59367Y37334D01*
X59479Y37231D01*
X59623Y37145D01*
X59798Y37075D01*
X60006Y37020D01*
X60246Y36980D01*
X60518Y36957D01*
X60821Y36949D01*
Y35374D01*
X60518Y35366D01*
X60246Y35343D01*
X60006Y35303D01*
X59798Y35249D01*
X59623Y35178D01*
X59479Y35091D01*
X59367Y34989D01*
X59287Y34872D01*
X59239Y34738D01*
X59223Y34589D01*
Y37734D01*
X59239Y37585D01*
D02*
G37*
G36*
X57779Y34437D02*
X57786Y34334D01*
X58563Y34309D01*
X58413Y34297D01*
X58280Y34253D01*
X58161Y34177D01*
X58059Y34067D01*
X57972Y33925D01*
X57902Y33750D01*
X57865Y33611D01*
X57886Y33522D01*
X57926Y33404D01*
X57973Y33308D01*
X58025Y33234D01*
X58084Y33182D01*
X57797Y33186D01*
X57784Y33028D01*
X57776Y32722D01*
X56201D01*
X56197Y32994D01*
X56179Y33208D01*
X55571Y33216D01*
X55690Y33229D01*
X55798Y33272D01*
X55892Y33345D01*
X55974Y33447D01*
X56043Y33579D01*
X56100Y33741D01*
X56114Y33802D01*
X56105Y33851D01*
X56062Y34007D01*
X56012Y34140D01*
X55955Y34249D01*
X55889Y34336D01*
X55816Y34399D01*
X56193Y34387D01*
X56195Y34404D01*
X56201Y34685D01*
X57776D01*
X57779Y34437D01*
D02*
G37*
G36*
X30143Y33026D02*
X29899Y32778D01*
X29118Y31870D01*
X29049Y31754D01*
X29010Y31660D01*
X28999Y31589D01*
X29018Y31538D01*
X27660Y33132D01*
X27705Y33108D01*
X27773Y33114D01*
X27864Y33151D01*
X27978Y33218D01*
X28115Y33316D01*
X28276Y33443D01*
X28429Y33580D01*
X28520Y33684D01*
X28542Y33723D01*
X28555Y33755D01*
X28557Y33778D01*
X28609Y33739D01*
X28666Y33790D01*
X29148Y34258D01*
X30143Y33026D01*
D02*
G37*
G36*
X51041Y34612D02*
X51063Y34401D01*
X51067Y34381D01*
X51664Y34399D01*
X51544Y34306D01*
X51437Y34197D01*
X51342Y34071D01*
X51260Y33928D01*
X51223Y33843D01*
X51304Y33688D01*
X51401Y33542D01*
X51514Y33409D01*
X51642Y33289D01*
X51784Y33182D01*
X51056Y33158D01*
X51040Y32965D01*
X51033Y32722D01*
X49459D01*
X49451Y33028D01*
X49444Y33105D01*
X49141Y33095D01*
X49202Y33198D01*
X49255Y33317D01*
X49303Y33451D01*
X49344Y33601D01*
X49356Y33659D01*
X49333Y33749D01*
X49262Y33924D01*
X49175Y34066D01*
X49073Y34176D01*
X48955Y34253D01*
X48821Y34297D01*
X48671Y34309D01*
X49444Y34332D01*
X49446Y34361D01*
X49459Y34836D01*
X51033D01*
X51041Y34612D01*
D02*
G37*
G36*
X6996Y34102D02*
X7019Y33891D01*
X7059Y33693D01*
X7114Y33507D01*
X7184Y33334D01*
X7270Y33173D01*
X7372Y33024D01*
X7490Y32888D01*
X7623Y32765D01*
X7772Y32654D01*
X4630D01*
X4778Y32765D01*
X4912Y32888D01*
X5029Y33024D01*
X5131Y33173D01*
X5218Y33334D01*
X5288Y33507D01*
X5343Y33693D01*
X5382Y33891D01*
X5406Y34102D01*
X5413Y34325D01*
X6988D01*
X6996Y34102D01*
D02*
G37*
G36*
X91926Y30879D02*
Y27906D01*
X91248Y27227D01*
X90126D01*
X88608Y28745D01*
X88512Y28809D01*
X88415Y29300D01*
X88572Y29535D01*
X87204Y29510D01*
Y30031D01*
X83465D01*
Y31032D01*
X87204D01*
Y31553D01*
X87233Y31546D01*
X87300Y31539D01*
X87732Y31525D01*
X88856Y31518D01*
X88985Y31742D01*
X91063D01*
X91926Y30879D01*
D02*
G37*
G36*
X17823Y34508D02*
X17846Y34232D01*
X17885Y33988D01*
X17940Y33776D01*
X18010Y33597D01*
X18096Y33451D01*
X18198Y33337D01*
X18315Y33255D01*
X18447Y33207D01*
X18580Y33192D01*
X18578Y33216D01*
X18674Y33162D01*
X18788Y33112D01*
X18920Y33069D01*
X19071Y33032D01*
X19240Y33000D01*
X19634Y32954D01*
X19858Y32939D01*
X20362Y32928D01*
X20369Y31353D01*
X20056Y31345D01*
X19778Y31321D01*
X19534Y31282D01*
X19324Y31227D01*
X19148Y31156D01*
X19007Y31069D01*
X18899Y30967D01*
X18826Y30849D01*
X18787Y30715D01*
X18782Y30566D01*
X18580Y33190D01*
X15459Y33190D01*
X15608Y33207D01*
X15741Y33255D01*
X15858Y33337D01*
X15959Y33451D01*
X16045Y33597D01*
X16115Y33776D01*
X16170Y33988D01*
X16209Y34232D01*
X16232Y34508D01*
X16240Y34818D01*
X17815D01*
X17823Y34508D01*
D02*
G37*
G36*
X76983Y32401D02*
X77001Y32357D01*
X77044Y32293D01*
X77112Y32206D01*
X77322Y31967D01*
X77753Y31522D01*
X79726Y31553D01*
Y30958D01*
X79805Y31015D01*
X80055Y31215D01*
X80136Y31283D01*
Y30983D01*
X80171Y30993D01*
X80271Y31031D01*
X80294Y31043D01*
Y31283D01*
X80375Y31215D01*
X80475Y31141D01*
X80557Y31197D01*
X80648Y31269D01*
X80737Y31350D01*
X80726Y30952D01*
X80757Y30929D01*
X80771Y30925D01*
X80871Y30929D01*
X80971Y30941D01*
X81071Y30961D01*
X81172Y30988D01*
X81274Y31024D01*
X81362Y31061D01*
Y31319D01*
X81467Y31244D01*
X81580Y31175D01*
X81583Y31177D01*
X81687Y31244D01*
X81792Y31319D01*
Y31061D01*
X81879Y31024D01*
X81981Y30988D01*
X82082Y30961D01*
X82183Y30941D01*
X82283Y30929D01*
X82382Y30925D01*
Y30138D01*
X82283Y30134D01*
X82183Y30122D01*
X82082Y30102D01*
X81981Y30075D01*
X81879Y30039D01*
X81792Y30002D01*
Y29744D01*
X81687Y29819D01*
X81574Y29888D01*
X81571Y29886D01*
X81467Y29819D01*
X81362Y29744D01*
Y30002D01*
X81274Y30039D01*
X81172Y30075D01*
X81071Y30102D01*
X80971Y30122D01*
X80871Y30134D01*
X80771Y30138D01*
X80757Y30134D01*
X80735Y30123D01*
X80706Y30106D01*
X80705Y30105D01*
X80695Y29696D01*
X80611Y29780D01*
X80524Y29855D01*
X80452Y29909D01*
X80375Y29848D01*
X80294Y29780D01*
Y30003D01*
X80247Y30027D01*
X80149Y30067D01*
X80136Y30071D01*
Y29780D01*
X80055Y29848D01*
X79726Y30095D01*
Y29510D01*
X79693Y29517D01*
X79615Y29524D01*
X78845Y29541D01*
X77342Y29547D01*
Y30531D01*
X76647Y29836D01*
X75019Y31318D01*
X76989Y32422D01*
X76983Y32401D01*
D02*
G37*
G36*
X56534Y29665D02*
X56473Y29708D01*
X56402Y29729D01*
X56319Y29728D01*
X56225Y29704D01*
X56119Y29659D01*
X56002Y29591D01*
X55874Y29500D01*
X55734Y29388D01*
X55420Y29096D01*
X54863Y29653D01*
X55020Y29815D01*
X55268Y30106D01*
X55358Y30235D01*
X55426Y30352D01*
X55472Y30457D01*
X55495Y30551D01*
X55497Y30634D01*
X55475Y30706D01*
X55432Y30766D01*
X56534Y29665D01*
D02*
G37*
G36*
X1469Y39850D02*
X1817Y39329D01*
X4595Y36551D01*
Y34078D01*
X4588Y34014D01*
X4562Y33885D01*
X4529Y33773D01*
X4490Y33675D01*
X4444Y33591D01*
X4393Y33516D01*
X4334Y33447D01*
X4264Y33383D01*
X4150Y33298D01*
X4143Y33290D01*
X4053Y33230D01*
X3951Y33077D01*
X3940Y33065D01*
X3937Y33056D01*
X3805Y32859D01*
X3718Y32421D01*
Y29508D01*
X3805Y29070D01*
X4053Y28699D01*
X4269Y28555D01*
X4117Y28055D01*
X2461D01*
X1917Y27947D01*
X1456Y27639D01*
X1386Y27534D01*
X886Y27686D01*
Y40220D01*
X1386Y40270D01*
X1469Y39850D01*
D02*
G37*
G36*
X72412Y28764D02*
X72436Y28697D01*
X72476Y28638D01*
X72532Y28587D01*
X72604Y28543D01*
X72692Y28508D01*
X72796Y28480D01*
X72916Y28461D01*
X73052Y28449D01*
X73203Y28445D01*
Y27890D01*
X73643Y28330D01*
X74271Y27737D01*
X73405Y27419D01*
X73406Y27424D01*
X73400Y27436D01*
X73387Y27455D01*
X73366Y27480D01*
X73259Y27596D01*
X73199Y27657D01*
X73052Y27654D01*
X72916Y27642D01*
X72796Y27622D01*
X72692Y27595D01*
X72604Y27559D01*
X72532Y27516D01*
X72476Y27465D01*
X72436Y27406D01*
X72412Y27339D01*
X72404Y27264D01*
Y28839D01*
X72412Y28764D01*
D02*
G37*
G36*
X76857Y27719D02*
X76893Y27711D01*
X76943Y27704D01*
X77087Y27692D01*
X77545Y27680D01*
X77695Y27680D01*
X77788Y26893D01*
X77628Y26888D01*
X77485Y26877D01*
X77360Y26857D01*
X77253Y26829D01*
X77164Y26794D01*
X77093Y26751D01*
X77040Y26700D01*
X77005Y26640D01*
X76988Y26574D01*
X76989Y26499D01*
X76835Y27729D01*
X76857Y27719D01*
D02*
G37*
G36*
X50414Y26095D02*
X50514Y26078D01*
X50787Y26052D01*
X51078Y26043D01*
Y24075D01*
X50787Y24066D01*
X50514Y24040D01*
X50414Y24023D01*
Y23209D01*
X50289Y23374D01*
X50145Y23521D01*
X49983Y23651D01*
X49803Y23763D01*
X49705Y23810D01*
X49606Y23763D01*
X49426Y23651D01*
X49264Y23521D01*
X49121Y23374D01*
X48996Y23209D01*
Y24023D01*
X48896Y24040D01*
X48623Y24066D01*
X48331Y24075D01*
Y26043D01*
X48623Y26052D01*
X48896Y26078D01*
X48996Y26095D01*
Y26909D01*
X49121Y26745D01*
X49264Y26597D01*
X49426Y26468D01*
X49606Y26355D01*
X49705Y26308D01*
X49803Y26355D01*
X49983Y26468D01*
X50145Y26597D01*
X50289Y26745D01*
X50414Y26909D01*
Y26095D01*
D02*
G37*
G36*
X36634D02*
X36734Y26078D01*
X37007Y26052D01*
X37299Y26043D01*
Y24075D01*
X37007Y24066D01*
X36734Y24040D01*
X36634Y24023D01*
Y23209D01*
X36509Y23374D01*
X36366Y23521D01*
X36204Y23651D01*
X36023Y23763D01*
X35925Y23810D01*
X35827Y23763D01*
X35647Y23651D01*
X35485Y23521D01*
X35341Y23374D01*
X35216Y23209D01*
Y24023D01*
X35116Y24040D01*
X34843Y24066D01*
X34552Y24075D01*
Y26043D01*
X34843Y26052D01*
X35116Y26078D01*
X35216Y26095D01*
Y26909D01*
X35341Y26745D01*
X35485Y26597D01*
X35647Y26468D01*
X35827Y26355D01*
X35925Y26308D01*
X36023Y26355D01*
X36204Y26468D01*
X36366Y26597D01*
X36509Y26745D01*
X36634Y26909D01*
Y26095D01*
D02*
G37*
G36*
X29744D02*
X29844Y26078D01*
X30117Y26052D01*
X30409Y26043D01*
Y24075D01*
X30117Y24066D01*
X29844Y24040D01*
X29744Y24023D01*
Y23209D01*
X29620Y23374D01*
X29476Y23521D01*
X29314Y23651D01*
X29134Y23763D01*
X29035Y23810D01*
X28937Y23763D01*
X28757Y23651D01*
X28595Y23521D01*
X28451Y23374D01*
X28326Y23209D01*
Y24023D01*
X28227Y24040D01*
X27954Y24066D01*
X27662Y24075D01*
Y26043D01*
X27954Y26052D01*
X28227Y26078D01*
X28326Y26095D01*
Y26909D01*
X28451Y26745D01*
X28595Y26597D01*
X28757Y26468D01*
X28937Y26355D01*
X29035Y26308D01*
X29134Y26355D01*
X29314Y26468D01*
X29476Y26597D01*
X29620Y26745D01*
X29744Y26909D01*
Y26095D01*
D02*
G37*
G36*
X15965D02*
X16065Y26078D01*
X16338Y26052D01*
X16629Y26043D01*
Y24075D01*
X16338Y24066D01*
X16065Y24040D01*
X15965Y24023D01*
Y23209D01*
X15840Y23374D01*
X15697Y23521D01*
X15535Y23651D01*
X15354Y23763D01*
X15256Y23810D01*
X15158Y23763D01*
X14977Y23651D01*
X14815Y23521D01*
X14672Y23374D01*
X14547Y23209D01*
Y24023D01*
X14447Y24040D01*
X14174Y24066D01*
X13882Y24075D01*
Y26043D01*
X14174Y26052D01*
X14447Y26078D01*
X14547Y26095D01*
Y26909D01*
X14672Y26745D01*
X14815Y26597D01*
X14977Y26468D01*
X15158Y26355D01*
X15256Y26308D01*
X15354Y26355D01*
X15535Y26468D01*
X15697Y26597D01*
X15840Y26745D01*
X15965Y26909D01*
Y26095D01*
D02*
G37*
G36*
X43524D02*
X43624Y26078D01*
X43897Y26052D01*
X44188Y26043D01*
Y24075D01*
X43897Y24066D01*
X43624Y24040D01*
X43524Y24023D01*
Y23209D01*
X43399Y23374D01*
X43256Y23521D01*
X43094Y23651D01*
X42913Y23763D01*
X42815Y23810D01*
X42717Y23763D01*
X42536Y23651D01*
X42374Y23521D01*
X42231Y23374D01*
X42106Y23209D01*
Y24023D01*
X42006Y24040D01*
X41733Y24066D01*
X41442Y24075D01*
Y26043D01*
X41733Y26052D01*
X42006Y26078D01*
X42106Y26095D01*
Y26909D01*
X42231Y26745D01*
X42374Y26597D01*
X42536Y26468D01*
X42717Y26355D01*
X42815Y26308D01*
X42913Y26355D01*
X43094Y26468D01*
X43256Y26597D01*
X43399Y26745D01*
X43524Y26909D01*
Y26095D01*
D02*
G37*
G36*
X22855D02*
X22954Y26078D01*
X23228Y26052D01*
X23519Y26043D01*
Y24075D01*
X23228Y24066D01*
X22954Y24040D01*
X22855Y24023D01*
Y23209D01*
X22730Y23374D01*
X22586Y23521D01*
X22424Y23651D01*
X22244Y23763D01*
X22146Y23810D01*
X22048Y23763D01*
X21867Y23651D01*
X21705Y23521D01*
X21562Y23374D01*
X21437Y23209D01*
Y24023D01*
X21337Y24040D01*
X21064Y24066D01*
X20772Y24075D01*
Y26043D01*
X21064Y26052D01*
X21337Y26078D01*
X21437Y26095D01*
Y26909D01*
X21562Y26745D01*
X21705Y26597D01*
X21867Y26468D01*
X22048Y26355D01*
X22146Y26308D01*
X22244Y26355D01*
X22424Y26468D01*
X22586Y26597D01*
X22730Y26745D01*
X22855Y26909D01*
Y26095D01*
D02*
G37*
G36*
X9075D02*
X9175Y26078D01*
X9448Y26052D01*
X9740Y26043D01*
Y24075D01*
X9448Y24066D01*
X9175Y24040D01*
X9075Y24023D01*
Y23209D01*
X8950Y23374D01*
X8807Y23521D01*
X8645Y23651D01*
X8464Y23763D01*
X8366Y23810D01*
X8268Y23763D01*
X8088Y23651D01*
X7925Y23521D01*
X7782Y23374D01*
X7657Y23209D01*
Y24023D01*
X7557Y24040D01*
X7284Y24066D01*
X6993Y24075D01*
Y26043D01*
X7284Y26052D01*
X7557Y26078D01*
X7657Y26095D01*
Y26909D01*
X7782Y26745D01*
X7925Y26597D01*
X8088Y26468D01*
X8268Y26355D01*
X8366Y26308D01*
X8464Y26355D01*
X8645Y26468D01*
X8807Y26597D01*
X8950Y26745D01*
X9075Y26909D01*
Y26095D01*
D02*
G37*
G36*
X2083Y25728D02*
X2168Y25715D01*
X2304Y25703D01*
X2456Y25699D01*
Y25453D01*
Y24665D01*
X2304Y24661D01*
X2168Y24650D01*
X2083Y24636D01*
Y24518D01*
Y24272D01*
X2076Y24347D01*
X2052Y24414D01*
X2011Y24473D01*
X1956Y24524D01*
X1884Y24567D01*
X1870Y24573D01*
X1857Y24567D01*
X1785Y24524D01*
X1729Y24473D01*
X1689Y24414D01*
X1665Y24347D01*
X1657Y24272D01*
Y24518D01*
Y24636D01*
X1572Y24650D01*
X1436Y24661D01*
X1284Y24665D01*
Y24911D01*
Y25453D01*
Y25699D01*
X1436Y25703D01*
X1572Y25715D01*
X1657Y25728D01*
Y25846D01*
Y26092D01*
X1665Y26018D01*
X1689Y25951D01*
X1729Y25892D01*
X1785Y25841D01*
X1857Y25797D01*
X1870Y25792D01*
X1884Y25797D01*
X1956Y25841D01*
X2011Y25892D01*
X2052Y25951D01*
X2076Y26018D01*
X2083Y26092D01*
Y25728D01*
D02*
G37*
G36*
X66849Y24440D02*
X66879Y24105D01*
X66906Y23950D01*
X66917Y23905D01*
X67320Y23842D01*
X67230Y23772D01*
X67149Y23697D01*
X67078Y23618D01*
X67028Y23550D01*
X67033Y23537D01*
X67090Y23417D01*
X67156Y23305D01*
X67229Y23202D01*
X66876D01*
X66864Y23151D01*
X66850Y23044D01*
X66845Y22932D01*
X66057Y23064D01*
X66054Y23170D01*
X66050Y23202D01*
X65674D01*
X65747Y23305D01*
X65812Y23417D01*
X65869Y23537D01*
X65919Y23666D01*
X65926Y23688D01*
X65924Y23693D01*
X65876Y23795D01*
X65820Y23897D01*
X65757Y23998D01*
X65687Y24098D01*
X66013Y24047D01*
X66023Y24105D01*
X66042Y24268D01*
X66057Y24621D01*
X66845D01*
X66849Y24440D01*
D02*
G37*
G36*
X61798Y22908D02*
X61778Y22618D01*
X62785Y22557D01*
X62598Y22548D01*
X62431Y22497D01*
X62283Y22404D01*
X62155Y22269D01*
X62047Y22092D01*
X61959Y21873D01*
X61890Y21611D01*
X61840Y21308D01*
X61811Y20963D01*
X61801Y20576D01*
X59833D01*
X59829Y20891D01*
X59798Y21346D01*
X58848Y21441D01*
X59035Y21443D01*
X59203Y21489D01*
X59350Y21578D01*
X59478Y21711D01*
X59587Y21887D01*
X59675Y22107D01*
X59689Y22160D01*
X59650Y22330D01*
X59595Y22495D01*
X59532Y22638D01*
X59461Y22760D01*
X59799Y22739D01*
X59823Y23028D01*
X59833Y23422D01*
X61801D01*
X61798Y22908D01*
D02*
G37*
G36*
X50414Y18615D02*
X50514Y18598D01*
X50787Y18572D01*
X51078Y18563D01*
Y16594D01*
X50787Y16586D01*
X50514Y16560D01*
X50414Y16543D01*
Y15729D01*
X50289Y15893D01*
X50145Y16040D01*
X49983Y16170D01*
X49803Y16283D01*
X49705Y16330D01*
X49606Y16283D01*
X49426Y16170D01*
X49264Y16040D01*
X49121Y15893D01*
X48996Y15729D01*
Y16543D01*
X48896Y16560D01*
X48623Y16586D01*
X48331Y16594D01*
Y18563D01*
X48623Y18572D01*
X48896Y18598D01*
X48996Y18615D01*
Y19429D01*
X49121Y19264D01*
X49264Y19117D01*
X49426Y18987D01*
X49606Y18875D01*
X49705Y18828D01*
X49803Y18875D01*
X49983Y18987D01*
X50145Y19117D01*
X50289Y19264D01*
X50414Y19429D01*
Y18615D01*
D02*
G37*
G36*
X36634D02*
X36734Y18598D01*
X37007Y18572D01*
X37299Y18563D01*
Y16594D01*
X37007Y16586D01*
X36734Y16560D01*
X36634Y16543D01*
Y15729D01*
X36509Y15893D01*
X36366Y16040D01*
X36204Y16170D01*
X36023Y16283D01*
X35925Y16330D01*
X35827Y16283D01*
X35647Y16170D01*
X35485Y16040D01*
X35341Y15893D01*
X35216Y15729D01*
Y16543D01*
X35116Y16560D01*
X34843Y16586D01*
X34552Y16594D01*
Y18563D01*
X34843Y18572D01*
X35116Y18598D01*
X35216Y18615D01*
Y19429D01*
X35341Y19264D01*
X35485Y19117D01*
X35647Y18987D01*
X35827Y18875D01*
X35925Y18828D01*
X36023Y18875D01*
X36204Y18987D01*
X36366Y19117D01*
X36509Y19264D01*
X36634Y19429D01*
Y18615D01*
D02*
G37*
G36*
X29744D02*
X29844Y18598D01*
X30117Y18572D01*
X30409Y18563D01*
Y16594D01*
X30117Y16586D01*
X29844Y16560D01*
X29744Y16543D01*
Y15729D01*
X29620Y15893D01*
X29476Y16040D01*
X29314Y16170D01*
X29134Y16283D01*
X29035Y16330D01*
X28937Y16283D01*
X28757Y16170D01*
X28595Y16040D01*
X28451Y15893D01*
X28326Y15729D01*
Y16543D01*
X28227Y16560D01*
X27954Y16586D01*
X27662Y16594D01*
Y18563D01*
X27954Y18572D01*
X28227Y18598D01*
X28326Y18615D01*
Y19429D01*
X28451Y19264D01*
X28595Y19117D01*
X28757Y18987D01*
X28937Y18875D01*
X29035Y18828D01*
X29134Y18875D01*
X29314Y18987D01*
X29476Y19117D01*
X29620Y19264D01*
X29744Y19429D01*
Y18615D01*
D02*
G37*
G36*
X15965D02*
X16065Y18598D01*
X16338Y18572D01*
X16629Y18563D01*
Y16594D01*
X16338Y16586D01*
X16065Y16560D01*
X15965Y16543D01*
Y15729D01*
X15840Y15893D01*
X15697Y16040D01*
X15535Y16170D01*
X15354Y16283D01*
X15256Y16330D01*
X15158Y16283D01*
X14977Y16170D01*
X14815Y16040D01*
X14672Y15893D01*
X14547Y15729D01*
Y16543D01*
X14447Y16560D01*
X14174Y16586D01*
X13882Y16594D01*
Y18563D01*
X14174Y18572D01*
X14447Y18598D01*
X14547Y18615D01*
Y19429D01*
X14672Y19264D01*
X14815Y19117D01*
X14977Y18987D01*
X15158Y18875D01*
X15256Y18828D01*
X15354Y18875D01*
X15535Y18987D01*
X15697Y19117D01*
X15840Y19264D01*
X15965Y19429D01*
Y18615D01*
D02*
G37*
G36*
X43524D02*
X43624Y18598D01*
X43897Y18572D01*
X44188Y18563D01*
Y16594D01*
X43897Y16586D01*
X43624Y16560D01*
X43524Y16543D01*
Y15729D01*
X43399Y15893D01*
X43256Y16040D01*
X43094Y16170D01*
X42913Y16283D01*
X42815Y16330D01*
X42717Y16283D01*
X42536Y16170D01*
X42374Y16040D01*
X42231Y15893D01*
X42106Y15729D01*
Y16543D01*
X42006Y16560D01*
X41733Y16586D01*
X41442Y16594D01*
Y18563D01*
X41733Y18572D01*
X42006Y18598D01*
X42106Y18615D01*
Y19429D01*
X42231Y19264D01*
X42374Y19117D01*
X42536Y18987D01*
X42717Y18875D01*
X42815Y18828D01*
X42913Y18875D01*
X43094Y18987D01*
X43256Y19117D01*
X43399Y19264D01*
X43524Y19429D01*
Y18615D01*
D02*
G37*
G36*
X22855D02*
X22954Y18598D01*
X23228Y18572D01*
X23519Y18563D01*
Y16594D01*
X23228Y16586D01*
X22954Y16560D01*
X22855Y16543D01*
Y15729D01*
X22730Y15893D01*
X22586Y16040D01*
X22424Y16170D01*
X22244Y16283D01*
X22146Y16330D01*
X22048Y16283D01*
X21867Y16170D01*
X21705Y16040D01*
X21562Y15893D01*
X21437Y15729D01*
Y16543D01*
X21337Y16560D01*
X21064Y16586D01*
X20772Y16594D01*
Y18563D01*
X21064Y18572D01*
X21337Y18598D01*
X21437Y18615D01*
Y19429D01*
X21562Y19264D01*
X21705Y19117D01*
X21867Y18987D01*
X22048Y18875D01*
X22146Y18828D01*
X22244Y18875D01*
X22424Y18987D01*
X22586Y19117D01*
X22730Y19264D01*
X22855Y19429D01*
Y18615D01*
D02*
G37*
G36*
X9075D02*
X9175Y18598D01*
X9448Y18572D01*
X9740Y18563D01*
Y16594D01*
X9448Y16586D01*
X9175Y16560D01*
X9075Y16543D01*
Y15729D01*
X8950Y15893D01*
X8807Y16040D01*
X8645Y16170D01*
X8464Y16283D01*
X8366Y16330D01*
X8268Y16283D01*
X8088Y16170D01*
X7925Y16040D01*
X7782Y15893D01*
X7657Y15729D01*
Y16543D01*
X7557Y16560D01*
X7284Y16586D01*
X6993Y16594D01*
Y18563D01*
X7284Y18572D01*
X7557Y18598D01*
X7657Y18615D01*
Y19429D01*
X7782Y19264D01*
X7925Y19117D01*
X8088Y18987D01*
X8268Y18875D01*
X8366Y18828D01*
X8464Y18875D01*
X8645Y18987D01*
X8807Y19117D01*
X8950Y19264D01*
X9075Y19429D01*
Y18615D01*
D02*
G37*
G36*
X100680Y17542D02*
X100589Y17571D01*
X100468Y17598D01*
X100315Y17621D01*
X99917Y17658D01*
X99087Y17691D01*
X98378Y17697D01*
Y19665D01*
X98748Y19667D01*
X100468Y19764D01*
X100589Y19791D01*
X100680Y19820D01*
Y17542D01*
D02*
G37*
G36*
Y12542D02*
X100589Y12572D01*
X100468Y12598D01*
X100315Y12621D01*
X99917Y12658D01*
X99692Y12667D01*
X97176Y12567D01*
Y14795D01*
X97232Y14771D01*
X97348Y14749D01*
X97524Y14729D01*
X98414Y14686D01*
X98985Y14680D01*
X100468Y14764D01*
X100589Y14791D01*
X100680Y14820D01*
Y12542D01*
D02*
G37*
G36*
X34555Y15808D02*
X34564Y15707D01*
X35216Y15729D01*
X35089Y15631D01*
X34975Y15518D01*
X34875Y15389D01*
X34788Y15244D01*
X34714Y15083D01*
X34693Y15021D01*
X34742Y14896D01*
X34828Y14750D01*
X34930Y14636D01*
X35047Y14555D01*
X35180Y14506D01*
X35328Y14490D01*
X34573D01*
X34554Y14280D01*
X34547Y14040D01*
X32972D01*
X32965Y14346D01*
X32952Y14490D01*
X32192D01*
X32340Y14506D01*
X32473Y14555D01*
X32590Y14636D01*
X32691Y14750D01*
X32777Y14896D01*
X32846Y15070D01*
X32776Y15243D01*
X32689Y15386D01*
X32587Y15495D01*
X32469Y15572D01*
X32335Y15616D01*
X32185Y15627D01*
X32952Y15653D01*
X32965Y15808D01*
X32972Y16117D01*
X34547D01*
X34555Y15808D01*
D02*
G37*
G36*
X20972D02*
X20980Y15712D01*
X21437Y15729D01*
X21347Y15655D01*
X21267Y15560D01*
X21196Y15444D01*
X21135Y15307D01*
X21083Y15149D01*
X21077Y15124D01*
X21090Y15075D01*
X21160Y14896D01*
X21246Y14750D01*
X21347Y14636D01*
X21464Y14555D01*
X21597Y14506D01*
X21745Y14490D01*
X20981D01*
X20965Y14040D01*
X19390D01*
X19382Y14346D01*
X19370Y14490D01*
X18609D01*
X18757Y14506D01*
X18890Y14555D01*
X19007Y14636D01*
X19109Y14750D01*
X19195Y14896D01*
X19263Y15071D01*
X19193Y15244D01*
X19106Y15386D01*
X19004Y15496D01*
X18886Y15572D01*
X18752Y15616D01*
X18602Y15627D01*
X19369Y15654D01*
X19382Y15808D01*
X19390Y16117D01*
X20965D01*
X20972Y15808D01*
D02*
G37*
G36*
X6996D02*
X7005Y15707D01*
X7657Y15729D01*
X7530Y15631D01*
X7416Y15518D01*
X7316Y15389D01*
X7229Y15244D01*
X7155Y15083D01*
X7134Y15021D01*
X7183Y14896D01*
X7269Y14750D01*
X7371Y14636D01*
X7488Y14555D01*
X7621Y14506D01*
X7769Y14490D01*
X7014D01*
X6995Y14280D01*
X6988Y14040D01*
X5413D01*
X5406Y14346D01*
X5393Y14490D01*
X4633D01*
X4781Y14506D01*
X4914Y14555D01*
X5031Y14636D01*
X5132Y14750D01*
X5218Y14896D01*
X5286Y15070D01*
X5217Y15243D01*
X5130Y15386D01*
X5028Y15495D01*
X4909Y15572D01*
X4776Y15616D01*
X4626Y15627D01*
X5393Y15653D01*
X5406Y15808D01*
X5413Y16117D01*
X6988D01*
X6996Y15808D01*
D02*
G37*
G36*
X67037Y15131D02*
X67067Y14794D01*
X67116Y14497D01*
X67185Y14240D01*
X67274Y14022D01*
X67382Y13844D01*
X67510Y13705D01*
X67658Y13606D01*
X67825Y13547D01*
X68012Y13527D01*
X64075D01*
X64262Y13547D01*
X64429Y13606D01*
X64577Y13705D01*
X64705Y13844D01*
X64813Y14022D01*
X64902Y14240D01*
X64970Y14497D01*
X65020Y14794D01*
X65049Y15131D01*
X65059Y15507D01*
X67028D01*
X67037Y15131D01*
D02*
G37*
G36*
X55958Y15817D02*
X55947Y15742D01*
X55937Y15629D01*
X55911Y14803D01*
X55906Y13885D01*
X56451Y13330D01*
X55984Y12239D01*
X56009Y12245D01*
X56148Y12290D01*
X56256Y12342D01*
X56332Y12399D01*
Y11006D01*
X56256Y11064D01*
X56148Y11115D01*
X56009Y11161D01*
X55839Y11200D01*
X55637Y11233D01*
X55627Y11234D01*
Y10915D01*
X55619Y10990D01*
X55595Y11057D01*
X55555Y11116D01*
X55499Y11167D01*
X55427Y11211D01*
X55339Y11246D01*
X55242Y11272D01*
X55139Y11282D01*
X54830Y11294D01*
X54823Y11293D01*
X54704Y11274D01*
X54600Y11246D01*
X54512Y11211D01*
X54440Y11167D01*
X54384Y11116D01*
X54344Y11057D01*
X54320Y10990D01*
X54312Y10915D01*
Y11308D01*
X54157Y11309D01*
Y12096D01*
X54312Y12098D01*
Y12490D01*
X54320Y12415D01*
X54344Y12348D01*
X54384Y12289D01*
X54440Y12238D01*
X54512Y12195D01*
X54600Y12160D01*
X54704Y12132D01*
X54792Y12117D01*
X54895Y12124D01*
X54225Y12788D01*
X55174Y13737D01*
X53937Y13646D01*
X53927Y14036D01*
X53898Y14383D01*
X53848Y14688D01*
X53780Y14950D01*
X53691Y15169D01*
X53583Y15346D01*
X53455Y15480D01*
X53307Y15571D01*
X53140Y15620D01*
X52953Y15627D01*
X55970Y15855D01*
X55958Y15817D01*
D02*
G37*
G36*
X43003Y13390D02*
X43027Y13323D01*
X43066Y13264D01*
X43122Y13213D01*
X43194Y13169D01*
X43282Y13134D01*
X43386Y13106D01*
X43506Y13087D01*
X43642Y13075D01*
X43794Y13071D01*
Y12284D01*
X43642Y12280D01*
X43506Y12268D01*
X43386Y12248D01*
X43282Y12220D01*
X43194Y12185D01*
X43122Y12142D01*
X43066Y12091D01*
X43027Y12032D01*
X43003Y11965D01*
X42994Y11890D01*
Y13465D01*
X43003Y13390D01*
D02*
G37*
G36*
X63032Y13395D02*
X63283Y13396D01*
Y11427D01*
X62893Y11417D01*
X62884Y11417D01*
X62812Y10443D01*
X62805Y10630D01*
X62756Y10797D01*
X62664Y10945D01*
X62530Y11073D01*
X62353Y11181D01*
X62134Y11270D01*
X62056Y11290D01*
X61978Y11270D01*
X61758Y11181D01*
X61582Y11073D01*
X61448Y10945D01*
X61357Y10797D01*
X61308Y10630D01*
X61302Y10443D01*
X61225Y11417D01*
X61221Y11417D01*
X60831Y11427D01*
X60926Y13396D01*
X63040Y13509D01*
X63032Y13395D01*
D02*
G37*
G36*
X15392Y11866D02*
X15371Y11794D01*
X15372Y11711D01*
X15396Y11617D01*
X15441Y11511D01*
X15509Y11394D01*
X15600Y11266D01*
X15712Y11126D01*
X16004Y10812D01*
X15448Y10256D01*
X15285Y10413D01*
X14994Y10660D01*
X14865Y10750D01*
X14749Y10818D01*
X14643Y10864D01*
X14548Y10888D01*
X14466Y10889D01*
X14394Y10868D01*
X14334Y10824D01*
X15436Y11926D01*
X15392Y11866D01*
D02*
G37*
G36*
X29269Y10872D02*
X29222Y10820D01*
X29181Y10757D01*
X29145Y10684D01*
X29114Y10600D01*
X29089Y10506D01*
X29087Y10493D01*
X29116Y10406D01*
X29171Y10303D01*
X29242Y10216D01*
X29329Y10146D01*
X29431Y10091D01*
X29549Y10051D01*
X29683Y10028D01*
X29833Y10020D01*
X28652Y9232D01*
X27470Y10020D01*
X27620Y10028D01*
X27754Y10051D01*
X27872Y10091D01*
X27974Y10146D01*
X28061Y10216D01*
X28132Y10303D01*
X28187Y10406D01*
X28212Y10481D01*
X28195Y10548D01*
X28159Y10637D01*
X28116Y10708D01*
X28065Y10763D01*
X28006Y10800D01*
X27939Y10821D01*
X27864Y10824D01*
X29322Y10915D01*
X29269Y10872D01*
D02*
G37*
G36*
X62425Y9090D02*
X62728Y8887D01*
X63189Y8796D01*
X66574D01*
X66618Y8770D01*
X66879Y8588D01*
X67462Y8094D01*
X67966Y7590D01*
X67758Y7090D01*
X66150D01*
Y4094D01*
X65150D01*
Y7090D01*
X63189D01*
X62645Y6982D01*
X62184Y6674D01*
X61696Y6633D01*
X61469Y6785D01*
X60925Y6893D01*
X58965D01*
Y3898D01*
X57965D01*
Y6893D01*
X56004D01*
X55757Y6844D01*
X55686Y6854D01*
X55230Y7154D01*
X55199Y7204D01*
X55158Y7407D01*
X54876Y7829D01*
X54626Y7996D01*
X54614Y8033D01*
X54621Y8540D01*
X54626Y8552D01*
X54821Y8682D01*
X55152Y8952D01*
X55543Y8691D01*
X56004Y8599D01*
X60925D01*
X61386Y8691D01*
X61777Y8952D01*
X61822Y9020D01*
X62336Y9148D01*
X62425Y9090D01*
D02*
G37*
G36*
X47317Y9184D02*
X47250Y9160D01*
X47191Y9120D01*
X47140Y9064D01*
X47096Y8992D01*
X47061Y8904D01*
X47034Y8800D01*
X47014Y8681D01*
X47002Y8545D01*
X46998Y8393D01*
X46211D01*
X46207Y8545D01*
X46195Y8681D01*
X46175Y8800D01*
X46148Y8904D01*
X46112Y8992D01*
X46069Y9064D01*
X46018Y9120D01*
X45959Y9160D01*
X45892Y9184D01*
X45817Y9192D01*
X47392D01*
X47317Y9184D01*
D02*
G37*
G36*
X68377Y12243D02*
X68323Y12063D01*
X68324Y11854D01*
X68381Y11618D01*
X68493Y11354D01*
X68662Y11061D01*
X68886Y10741D01*
X69165Y10392D01*
X69891Y9611D01*
X68499Y8219D01*
X68095Y8610D01*
X67369Y9225D01*
X67049Y9449D01*
X66756Y9617D01*
X66492Y9729D01*
X66256Y9786D01*
X66048Y9787D01*
X65868Y9733D01*
X65715Y9623D01*
X68487Y12395D01*
X68377Y12243D01*
D02*
G37*
G36*
X47002Y7814D02*
X47014Y7678D01*
X47034Y7558D01*
X47061Y7454D01*
X47096Y7366D01*
X47140Y7294D01*
X47191Y7238D01*
X47250Y7198D01*
X47317Y7174D01*
X47392Y7166D01*
X45817D01*
X45892Y7174D01*
X45959Y7198D01*
X46018Y7238D01*
X46069Y7294D01*
X46112Y7366D01*
X46148Y7454D01*
X46175Y7558D01*
X46195Y7678D01*
X46207Y7814D01*
X46211Y7966D01*
X46998D01*
X47002Y7814D01*
D02*
G37*
G36*
X62914Y5143D02*
X63283Y5128D01*
Y3159D01*
X62914Y3150D01*
Y2244D01*
X62783Y2418D01*
X62635Y2574D01*
X62470Y2711D01*
X62287Y2830D01*
X62088Y2931D01*
X61944Y2985D01*
X61766Y2914D01*
X61585Y2806D01*
X61446Y2678D01*
X61347Y2531D01*
X61290Y2364D01*
X61273Y2177D01*
X61254Y3136D01*
X61117Y3150D01*
X60831Y3159D01*
Y5128D01*
X61129Y5136D01*
X61213Y5143D01*
X61200Y5748D01*
X61296Y5630D01*
X61416Y5524D01*
X61562Y5432D01*
X61732Y5351D01*
X61928Y5283D01*
X61954Y5276D01*
X62120Y5332D01*
X62319Y5422D01*
X62497Y5528D01*
X62656Y5650D01*
X62795Y5789D01*
X62914Y5944D01*
Y5143D01*
D02*
G37*
G36*
X100516Y7551D02*
X100519Y7174D01*
X100602Y5786D01*
X100633Y5608D01*
X100668Y5463D01*
X100709Y5351D01*
X100754Y5273D01*
X97573Y5562D01*
X97758Y5572D01*
X97924Y5638D01*
X98070Y5759D01*
X98197Y5936D01*
X98304Y6168D01*
X98392Y6456D01*
X98460Y6799D01*
X98509Y7198D01*
X98538Y7653D01*
X98548Y8163D01*
X100516Y7551D01*
D02*
G37*
G36*
X35836Y3649D02*
Y1663D01*
X35767Y1752D01*
X35756Y1461D01*
X35741Y1647D01*
X35680Y1814D01*
X35588Y1942D01*
X35587Y1943D01*
X35431Y2060D01*
X35255Y2161D01*
X35058Y2246D01*
X34841Y2316D01*
X34655Y2359D01*
X34365Y2402D01*
X33987Y2431D01*
X33564Y2441D01*
X33580Y4409D01*
X34015Y4419D01*
X34390Y4448D01*
X34603Y4479D01*
X34841Y4534D01*
X35058Y4604D01*
X35255Y4690D01*
X35431Y4791D01*
X35587Y4908D01*
X35722Y5040D01*
X35836Y5188D01*
Y5126D01*
X35870Y5201D01*
X35899Y5386D01*
X35836Y3649D01*
D02*
G37*
G36*
X97176Y6662D02*
X96847Y6324D01*
X96144Y5486D01*
X96005Y5266D01*
X95913Y5075D01*
X95868Y4914D01*
X95872Y4782D01*
X95922Y4680D01*
X96020Y4607D01*
X93114Y5995D01*
X92807Y5889D01*
X92609Y5872D01*
X92520Y5941D01*
X92540Y6099D01*
X92669Y6345D01*
X92908Y6678D01*
X93255Y7099D01*
X94275Y8205D01*
X94949Y8889D01*
X97176Y6662D01*
D02*
G37*
G36*
X54221Y5909D02*
X54245Y5843D01*
X54285Y5783D01*
X54341Y5732D01*
X54413Y5689D01*
X54501Y5654D01*
X54605Y5626D01*
X54725Y5606D01*
X54861Y5595D01*
X54944Y5592D01*
X54977Y5593D01*
X55211Y5612D01*
X55320Y5629D01*
X55423Y5651D01*
X55521Y5677D01*
X55613Y5709D01*
X55699Y5745D01*
X55780Y5786D01*
X55855Y5832D01*
X55627Y4409D01*
X55630Y4484D01*
X55615Y4551D01*
X55581Y4610D01*
X55529Y4661D01*
X55458Y4705D01*
X55369Y4740D01*
X55262Y4768D01*
X55135Y4787D01*
X54991Y4799D01*
X54923Y4801D01*
X54861Y4799D01*
X54725Y4787D01*
X54605Y4768D01*
X54501Y4740D01*
X54413Y4705D01*
X54341Y4661D01*
X54285Y4610D01*
X54245Y4551D01*
X54221Y4484D01*
X54214Y4409D01*
Y5984D01*
X54221Y5909D01*
D02*
G37*
G36*
X50009Y15035D02*
X50016Y15033D01*
X50228Y14891D01*
X50689Y14800D01*
X52974D01*
X53016Y14696D01*
X53062Y14521D01*
X53100Y14285D01*
X53115Y14113D01*
Y13603D01*
X51850D01*
X51436Y13521D01*
X51084Y13286D01*
X50849Y12934D01*
X50767Y12520D01*
Y9449D01*
X50849Y9034D01*
X51084Y8682D01*
X51194Y8609D01*
X51215Y8438D01*
X51147Y8039D01*
X50832Y7829D01*
X50550Y7407D01*
X50451Y6909D01*
Y5874D01*
X52854D01*
Y5374D01*
X53354D01*
Y2538D01*
X53957D01*
X54083Y2563D01*
X54560Y2334D01*
X54608Y2197D01*
X54691Y1779D01*
X54999Y1318D01*
X55251Y1150D01*
X55099Y650D01*
X40288D01*
X40005Y1150D01*
X40191Y1598D01*
X40286Y2318D01*
Y4286D01*
X40191Y5006D01*
X39913Y5676D01*
X39472Y6252D01*
X38896Y6694D01*
X38225Y6971D01*
X37506Y7066D01*
X36787Y6971D01*
X36116Y6694D01*
X35541Y6252D01*
X35099Y5676D01*
X35020Y5486D01*
X34988Y5462D01*
X34894Y5408D01*
X34774Y5356D01*
X34628Y5309D01*
X34453Y5269D01*
X34300Y5246D01*
X34111Y5232D01*
X27248D01*
X27166Y5238D01*
X26964Y5269D01*
X26790Y5309D01*
X26643Y5356D01*
X26524Y5408D01*
X26429Y5462D01*
X26355Y5518D01*
X26297Y5574D01*
X26217Y5679D01*
X26212Y5683D01*
X26158Y5764D01*
X25989Y5877D01*
X25980Y5884D01*
X25975Y5886D01*
X25780Y6016D01*
X25335Y6105D01*
X22500D01*
X22054Y6016D01*
X21860Y5886D01*
X21854Y5884D01*
X21845Y5877D01*
X21677Y5764D01*
X21622Y5683D01*
X21618Y5679D01*
X21537Y5574D01*
X21480Y5518D01*
X21406Y5462D01*
X21311Y5408D01*
X21192Y5356D01*
X21045Y5309D01*
X20871Y5269D01*
X20668Y5238D01*
X20586Y5232D01*
X13272D01*
X13190Y5238D01*
X12988Y5269D01*
X12813Y5309D01*
X12667Y5356D01*
X12547Y5408D01*
X12452Y5462D01*
X12379Y5518D01*
X12321Y5574D01*
X12240Y5679D01*
X12236Y5683D01*
X12181Y5764D01*
X12013Y5877D01*
X12004Y5884D01*
X11998Y5886D01*
X11804Y6016D01*
X11358Y6105D01*
X8524D01*
X8078Y6016D01*
X7700Y5764D01*
X7448Y5386D01*
X7360Y4941D01*
Y1909D01*
X7448Y1464D01*
X7658Y1150D01*
X7586Y883D01*
X7454Y650D01*
X886D01*
Y14781D01*
X1272Y15098D01*
X1463Y15060D01*
X1748D01*
X2000Y14891D01*
X2461Y14800D01*
X3260D01*
X3641Y14300D01*
X3619Y14193D01*
Y11161D01*
X3708Y10716D01*
X3960Y10338D01*
X4338Y10086D01*
X4783Y9997D01*
X7618D01*
X8064Y10086D01*
X8441Y10338D01*
X8694Y10716D01*
X8782Y11161D01*
Y14193D01*
X8733Y14440D01*
X9093Y14830D01*
X9123Y14845D01*
X9350Y14800D01*
X10740D01*
X11121Y14300D01*
X11100Y14193D01*
Y11161D01*
X11188Y10716D01*
X11441Y10338D01*
X11818Y10086D01*
X12264Y9997D01*
X14534D01*
X14704Y9853D01*
X15782Y8775D01*
X15782Y8775D01*
X16173Y8513D01*
X16634Y8422D01*
X39488D01*
X39488Y8422D01*
X39949Y8513D01*
X40340Y8775D01*
X41206Y9641D01*
X41206Y9641D01*
X41444Y9997D01*
X42658D01*
X43103Y10086D01*
X43481Y10338D01*
X43733Y10716D01*
X43822Y11161D01*
Y11473D01*
X44467D01*
Y9449D01*
X44550Y9034D01*
X44785Y8682D01*
X45136Y8448D01*
X45155Y8444D01*
Y7934D01*
X45038Y7911D01*
X44686Y7676D01*
X44451Y7324D01*
X44369Y6909D01*
Y3839D01*
X44451Y3424D01*
X44686Y3072D01*
X45038Y2837D01*
X45453Y2755D01*
X47657D01*
X48072Y2837D01*
X48424Y3072D01*
X48659Y3424D01*
X48741Y3839D01*
Y6909D01*
X48659Y7324D01*
X48424Y7676D01*
X48072Y7911D01*
X48054Y7914D01*
Y8424D01*
X48171Y8448D01*
X48522Y8682D01*
X48757Y9034D01*
X48840Y9449D01*
Y12520D01*
X48757Y12934D01*
X48522Y13286D01*
X48171Y13521D01*
X47756Y13603D01*
X45700D01*
X45421Y13790D01*
X44961Y13881D01*
X44961Y13881D01*
X44000D01*
X43863Y14381D01*
X44181Y14800D01*
X48720D01*
X49181Y14891D01*
X49393Y15033D01*
X49400Y15035D01*
X49705Y15117D01*
X50009Y15035D01*
D02*
G37*
G36*
X71743Y6689D02*
X71914Y6554D01*
X72077Y6451D01*
X72231Y6381D01*
X72376Y6345D01*
X72513Y6341D01*
X72640Y6371D01*
X72759Y6433D01*
X72869Y6528D01*
X72970Y6656D01*
X72872Y2545D01*
X72841Y2617D01*
X72770Y2726D01*
X72659Y2870D01*
X72315Y3266D01*
X70750Y4885D01*
X71562Y6857D01*
X71743Y6689D01*
D02*
G37*
G36*
X79912Y5463D02*
X79960Y5295D01*
X80051Y5148D01*
X80186Y5020D01*
X80362Y4911D01*
X80582Y4823D01*
X80844Y4754D01*
X80985Y4731D01*
X81570Y4764D01*
X81692Y4791D01*
X81782Y4820D01*
Y4668D01*
X81887Y4665D01*
X81883Y2697D01*
X81782Y2696D01*
Y2542D01*
X81692Y2572D01*
X81570Y2598D01*
X81418Y2621D01*
X81044Y2656D01*
X80732Y2634D01*
X80497Y2598D01*
X80091Y2503D01*
X79920Y2444D01*
X79770Y2376D01*
X79641Y2301D01*
X79672Y2695D01*
X79481Y2697D01*
Y4665D01*
X79828Y4667D01*
X79906Y5650D01*
X79912Y5463D01*
D02*
G37*
G36*
X25696Y5040D02*
X25831Y4908D01*
X25986Y4791D01*
X26162Y4690D01*
X26359Y4604D01*
X26577Y4534D01*
X26814Y4479D01*
X27073Y4441D01*
X27352Y4417D01*
X27652Y4409D01*
Y2441D01*
X27352Y2433D01*
X27073Y2410D01*
X26814Y2371D01*
X26577Y2316D01*
X26359Y2246D01*
X26162Y2161D01*
X25986Y2060D01*
X25831Y1943D01*
X25696Y1811D01*
X25581Y1663D01*
Y5188D01*
X25696Y5040D01*
D02*
G37*
G36*
X22253Y1663D02*
X22139Y1811D01*
X22004Y1943D01*
X21848Y2060D01*
X21672Y2161D01*
X21475Y2246D01*
X21258Y2316D01*
X21020Y2371D01*
X20762Y2410D01*
X20482Y2433D01*
X20182Y2441D01*
Y4409D01*
X20482Y4417D01*
X20762Y4441D01*
X21020Y4479D01*
X21258Y4534D01*
X21475Y4604D01*
X21672Y4690D01*
X21848Y4791D01*
X22004Y4908D01*
X22139Y5040D01*
X22253Y5188D01*
Y1663D01*
D02*
G37*
G36*
X11719Y5040D02*
X11854Y4908D01*
X12010Y4791D01*
X12186Y4690D01*
X12383Y4604D01*
X12600Y4534D01*
X12838Y4479D01*
X13097Y4441D01*
X13376Y4417D01*
X13676Y4409D01*
Y2441D01*
X13376Y2433D01*
X13097Y2410D01*
X12838Y2371D01*
X12600Y2316D01*
X12383Y2246D01*
X12186Y2161D01*
X12010Y2060D01*
X11854Y1943D01*
X11719Y1811D01*
X11605Y1663D01*
Y5188D01*
X11719Y5040D01*
D02*
G37*
G36*
X66298Y3331D02*
X66245Y3220D01*
X66198Y3079D01*
X66157Y2907D01*
X66122Y2705D01*
X66072Y2210D01*
X66069Y2142D01*
X66437D01*
X66362Y2134D01*
X66295Y2110D01*
X66236Y2070D01*
X66185Y2015D01*
X66142Y1943D01*
X66106Y1855D01*
X66084Y1772D01*
X66106Y1689D01*
X66142Y1601D01*
X66185Y1529D01*
X66236Y1473D01*
X66295Y1433D01*
X66362Y1409D01*
X66437Y1401D01*
X66045D01*
X66045Y1397D01*
X66043Y1240D01*
X65256D01*
X65254Y1397D01*
X65254Y1401D01*
X64862D01*
X64937Y1409D01*
X65004Y1433D01*
X65063Y1473D01*
X65114Y1529D01*
X65158Y1601D01*
X65193Y1689D01*
X65215Y1772D01*
X65193Y1855D01*
X65158Y1943D01*
X65114Y2015D01*
X65063Y2070D01*
X65004Y2110D01*
X64937Y2134D01*
X64862Y2142D01*
X65215D01*
X65177Y2705D01*
X65143Y2907D01*
X65102Y3079D01*
X65055Y3220D01*
X65001Y3331D01*
X64941Y3411D01*
X66358D01*
X66298Y3331D01*
D02*
G37*
%LPC*%
G36*
X47464Y168011D02*
X47421Y167906D01*
X47387Y167776D01*
X47370Y167675D01*
Y167426D01*
X47386Y167241D01*
X47420Y167059D01*
X47463Y166905D01*
X47516Y166779D01*
X47579Y166682D01*
X47651Y166613D01*
X47733Y166573D01*
X47825Y166562D01*
X47370Y166550D01*
Y163256D01*
X49094D01*
Y165905D01*
X48925Y166757D01*
X48443Y167478D01*
X47721Y167960D01*
X47464Y168011D01*
D02*
G37*
G36*
X46240Y168004D02*
X46019Y167960D01*
X45298Y167478D01*
X44816Y166757D01*
X44646Y165905D01*
Y163256D01*
X46370D01*
Y166523D01*
X45876Y166510D01*
X45967Y166527D01*
X46049Y166572D01*
X46122Y166645D01*
X46185Y166746D01*
X46238Y166875D01*
X46281Y167032D01*
X46315Y167218D01*
X46339Y167431D01*
X46346Y167545D01*
X46339Y167627D01*
X46314Y167776D01*
X46279Y167906D01*
X46240Y168004D01*
D02*
G37*
G36*
X103465Y167913D02*
X102697Y167760D01*
X102045Y167325D01*
X101610Y166674D01*
X101458Y165905D01*
Y159606D01*
X101610Y158838D01*
X102045Y158187D01*
X102697Y157752D01*
X103465Y157599D01*
X104233Y157752D01*
X104884Y158187D01*
X105319Y158838D01*
X105472Y159606D01*
Y165905D01*
X105319Y166674D01*
X104884Y167325D01*
X104233Y167760D01*
X103465Y167913D01*
D02*
G37*
G36*
X7657Y162059D02*
X5933D01*
Y158779D01*
X6408D01*
X6316Y158765D01*
X6234Y158722D01*
X6162Y158652D01*
X6099Y158553D01*
X6046Y158425D01*
X6002Y158270D01*
X5969Y158086D01*
X5945Y157873D01*
X5933Y157683D01*
Y157285D01*
X6284Y157355D01*
X7006Y157837D01*
X7488Y158558D01*
X7657Y159409D01*
Y162059D01*
D02*
G37*
G36*
X4933D02*
X3209D01*
Y159409D01*
X3379Y158558D01*
X3861Y157837D01*
X4582Y157355D01*
X4933Y157285D01*
Y157668D01*
X4898Y158086D01*
X4864Y158270D01*
X4820Y158425D01*
X4767Y158553D01*
X4704Y158652D01*
X4632Y158722D01*
X4550Y158765D01*
X4458Y158779D01*
X4933D01*
Y162059D01*
D02*
G37*
G36*
X40433Y167716D02*
X39665Y167563D01*
X39014Y167128D01*
X38579Y166477D01*
X38426Y165709D01*
Y159409D01*
X38579Y158641D01*
X39014Y157990D01*
X39463Y157690D01*
X39526Y157597D01*
X40177Y157161D01*
X40945Y157009D01*
X41713Y157161D01*
X42364Y157597D01*
X42799Y158248D01*
X42952Y159016D01*
X42799Y159784D01*
X42440Y160321D01*
Y165709D01*
X42287Y166477D01*
X41852Y167128D01*
X41201Y167563D01*
X40433Y167716D01*
D02*
G37*
G36*
X35433D02*
X34665Y167563D01*
X34014Y167128D01*
X33579Y166477D01*
X33426Y165709D01*
Y159409D01*
X33579Y158641D01*
X34014Y157990D01*
X34216Y157855D01*
X34229Y157719D01*
Y156171D01*
X33729Y155964D01*
X31839Y157853D01*
X31852Y157990D01*
X32287Y158641D01*
X32440Y159409D01*
Y165709D01*
X32287Y166477D01*
X31852Y167128D01*
X31201Y167563D01*
X30433Y167716D01*
X29665Y167563D01*
X29014Y167128D01*
X28579Y166477D01*
X28426Y165709D01*
Y159409D01*
X28579Y158641D01*
X29014Y157990D01*
X29222Y157851D01*
X29229Y157764D01*
Y157556D01*
X29229Y157556D01*
X29320Y157095D01*
X29582Y156705D01*
X33471Y152815D01*
X33492Y152784D01*
X33510Y152750D01*
X33525Y152715D01*
X33538Y152676D01*
X33549Y152632D01*
X33558Y152582D01*
X33562Y152540D01*
X33542Y152440D01*
X33695Y151672D01*
X34130Y151021D01*
X34781Y150586D01*
X35549Y150433D01*
X36317Y150586D01*
X36815Y150918D01*
X37187Y150976D01*
X37496Y150911D01*
X38012Y150567D01*
X38780Y150414D01*
X39548Y150567D01*
X40199Y151002D01*
X40634Y151653D01*
X40787Y152421D01*
X40634Y153189D01*
X40199Y153840D01*
X39548Y154276D01*
X38953Y154394D01*
X38937Y154399D01*
X38920Y154400D01*
X38780Y154428D01*
X38755Y154423D01*
X38718Y154432D01*
X38666Y154448D01*
X38618Y154466D01*
X38576Y154486D01*
X38536Y154509D01*
X38500Y154533D01*
X36637Y156396D01*
Y157747D01*
X36642Y157814D01*
X36647Y157853D01*
X36852Y157990D01*
X37287Y158641D01*
X37440Y159409D01*
Y165709D01*
X37287Y166477D01*
X36852Y167128D01*
X36201Y167563D01*
X35433Y167716D01*
D02*
G37*
%LPD*%
G36*
X31048Y158454D02*
X31002Y158426D01*
X30961Y158381D01*
X30925Y158318D01*
X30895Y158236D01*
X30871Y158136D01*
X30851Y158019D01*
X30838Y157882D01*
X30827Y157556D01*
X30039D01*
X30037Y157728D01*
X30015Y158019D01*
X29996Y158136D01*
X29971Y158236D01*
X29941Y158318D01*
X29906Y158381D01*
X29865Y158426D01*
X29818Y158454D01*
X29766Y158463D01*
X31100D01*
X31048Y158454D01*
D02*
G37*
G36*
X36140Y158539D02*
X36074Y158508D01*
X36016Y158457D01*
X35966Y158385D01*
X35923Y158292D01*
X35889Y158179D01*
X35862Y158045D01*
X35842Y157890D01*
X35831Y157715D01*
X35827Y157520D01*
X35039D01*
X35036Y157715D01*
X35005Y158045D01*
X34978Y158179D01*
X34943Y158292D01*
X34900Y158385D01*
X34850Y158457D01*
X34792Y158508D01*
X34726Y158539D01*
X34653Y158550D01*
X36213D01*
X36140Y158539D01*
D02*
G37*
G36*
X37939Y153953D02*
X38023Y153886D01*
X38112Y153826D01*
X38205Y153773D01*
X38302Y153727D01*
X38405Y153688D01*
X38511Y153656D01*
X38623Y153630D01*
X38739Y153611D01*
X38859Y153600D01*
X37603Y152524D01*
X37609Y152641D01*
X37606Y152754D01*
X37594Y152863D01*
X37573Y152968D01*
X37543Y153069D01*
X37503Y153166D01*
X37455Y153260D01*
X37398Y153349D01*
X37332Y153434D01*
X37257Y153516D01*
X37860Y154027D01*
X37939Y153953D01*
D02*
G37*
G36*
X34620Y153933D02*
X34704Y153866D01*
X34793Y153808D01*
X34887Y153757D01*
X34984Y153715D01*
X35087Y153680D01*
X35193Y153653D01*
X35303Y153635D01*
X35418Y153624D01*
X35537Y153621D01*
X34368Y152452D01*
X34365Y152571D01*
X34355Y152686D01*
X34336Y152796D01*
X34309Y152903D01*
X34275Y153005D01*
X34232Y153102D01*
X34181Y153196D01*
X34123Y153285D01*
X34057Y153370D01*
X33982Y153450D01*
X34539Y154007D01*
X34620Y153933D01*
D02*
G37*
%LPC*%
G36*
X108358Y143702D02*
X107323D01*
X106825Y143603D01*
X106403Y143321D01*
X106121Y142899D01*
X106022Y142402D01*
Y141799D01*
X108358D01*
Y143702D01*
D02*
G37*
G36*
X56870Y149015D02*
X56102Y148862D01*
X55451Y148427D01*
X55016Y147776D01*
X54863Y147008D01*
Y140709D01*
X55016Y139941D01*
X55039Y139907D01*
X55036Y139902D01*
X54900Y139224D01*
X54646Y139274D01*
X53881D01*
X53613Y139774D01*
X53724Y139941D01*
X53877Y140709D01*
Y147008D01*
X53724Y147776D01*
X53289Y148427D01*
X52638Y148862D01*
X51870Y149015D01*
X51102Y148862D01*
X50451Y148427D01*
X50016Y147776D01*
X49863Y147008D01*
Y140807D01*
X49863Y140807D01*
X49863Y140807D01*
Y140709D01*
X50016Y139941D01*
X50451Y139289D01*
X50622Y139175D01*
X50748Y138489D01*
X50711Y138434D01*
X50608Y137913D01*
Y137075D01*
X53307D01*
X56347D01*
X56507Y137203D01*
X56890Y137127D01*
X57658Y137280D01*
X58309Y137715D01*
X58744Y138366D01*
X58897Y139134D01*
X58744Y139902D01*
X58721Y139936D01*
X58724Y139941D01*
X58877Y140709D01*
Y147008D01*
X58724Y147776D01*
X58289Y148427D01*
X57638Y148862D01*
X56870Y149015D01*
D02*
G37*
G36*
X87965Y143358D02*
X86241D01*
Y140709D01*
X86410Y139858D01*
X86892Y139136D01*
X87613Y138654D01*
X87669Y138643D01*
X87593Y139676D01*
X87563Y139824D01*
X87528Y139947D01*
X87488Y140046D01*
X87443Y140119D01*
X87965D01*
Y143358D01*
D02*
G37*
G36*
X90688D02*
X88965D01*
Y140119D01*
X89486D01*
X89441Y140046D01*
X89402Y139947D01*
X89367Y139824D01*
X89336Y139676D01*
X89310Y139503D01*
X89273Y139082D01*
X89272Y139050D01*
X89278Y138948D01*
X89290Y138879D01*
X89303Y138824D01*
X89319Y138782D01*
X89337Y138753D01*
X89357Y138737D01*
X89259Y138700D01*
X89257Y138643D01*
X89316Y138654D01*
X90037Y139136D01*
X90519Y139858D01*
X90688Y140709D01*
Y143358D01*
D02*
G37*
%LPD*%
G36*
X57668Y140597D02*
X57701Y139999D01*
X57709Y139984D01*
X56056Y139971D01*
X56063Y139984D01*
X56069Y140012D01*
X56075Y140053D01*
X56083Y140174D01*
X56093Y140714D01*
X57667Y140732D01*
X57668Y140597D01*
D02*
G37*
G36*
X54241Y138938D02*
X54270Y138658D01*
X54296Y138545D01*
X54329Y138449D01*
X54370Y138370D01*
X54418Y138309D01*
X54473Y138265D01*
X54536Y138239D01*
X54606Y138230D01*
X52884D01*
X52954Y138239D01*
X53017Y138265D01*
X53072Y138309D01*
X53120Y138370D01*
X53160Y138449D01*
X53194Y138545D01*
X53219Y138658D01*
X53238Y138789D01*
X53249Y138938D01*
X53253Y139103D01*
X54237D01*
X54241Y138938D01*
D02*
G37*
%LPC*%
G36*
X5406Y116048D02*
X4173D01*
X3614Y115937D01*
X3140Y115620D01*
X2823Y115146D01*
X2712Y114587D01*
Y111287D01*
X5406D01*
Y116048D01*
D02*
G37*
G36*
X91186Y110287D02*
X88492D01*
Y105527D01*
X89724D01*
X90284Y105638D01*
X90758Y105955D01*
X91074Y106429D01*
X91186Y106988D01*
Y110287D01*
D02*
G37*
G36*
X87492D02*
X84799D01*
Y106988D01*
X84910Y106429D01*
X85227Y105955D01*
X85701Y105638D01*
X86260Y105527D01*
X87492D01*
Y110287D01*
D02*
G37*
G36*
X32768D02*
X30074D01*
Y106988D01*
X30185Y106429D01*
X30502Y105955D01*
X30976Y105638D01*
X31535Y105527D01*
X32768D01*
Y110287D01*
D02*
G37*
%LPD*%
G36*
X90098Y107612D02*
X90077Y107541D01*
X90079Y107458D01*
X90102Y107364D01*
X90148Y107258D01*
X90216Y107141D01*
X90306Y107012D01*
X90419Y106873D01*
X90711Y106559D01*
X90154Y106002D01*
X89991Y106159D01*
X89700Y106407D01*
X89572Y106497D01*
X89455Y106565D01*
X89349Y106611D01*
X89255Y106634D01*
X89172Y106635D01*
X89100Y106614D01*
X89040Y106571D01*
X90142Y107673D01*
X90098Y107612D01*
D02*
G37*
G36*
X86944Y106571D02*
X86884Y106614D01*
X86812Y106635D01*
X86729Y106634D01*
X86635Y106611D01*
X86529Y106565D01*
X86413Y106497D01*
X86284Y106407D01*
X86144Y106294D01*
X85830Y106002D01*
X85274Y106559D01*
X85431Y106721D01*
X85678Y107012D01*
X85769Y107141D01*
X85836Y107258D01*
X85882Y107364D01*
X85906Y107458D01*
X85907Y107541D01*
X85886Y107612D01*
X85843Y107673D01*
X86944Y106571D01*
D02*
G37*
G36*
X32220D02*
X32160Y106614D01*
X32088Y106635D01*
X32005Y106634D01*
X31911Y106611D01*
X31805Y106565D01*
X31688Y106497D01*
X31560Y106407D01*
X31420Y106294D01*
X31106Y106002D01*
X30549Y106559D01*
X30707Y106721D01*
X30954Y107012D01*
X31044Y107141D01*
X31112Y107258D01*
X31158Y107364D01*
X31181Y107458D01*
X31183Y107541D01*
X31161Y107612D01*
X31118Y107673D01*
X32220Y106571D01*
D02*
G37*
%LPC*%
G36*
X81535Y88879D02*
X80717D01*
Y87075D01*
X82816D01*
Y87599D01*
X82718Y88089D01*
X82441Y88504D01*
X82025Y88781D01*
X81535Y88879D01*
D02*
G37*
G36*
X82816Y76035D02*
X80717D01*
Y75275D01*
X81398D01*
X81285Y75263D01*
X81185Y75227D01*
X81097Y75168D01*
X81020Y75084D01*
X80955Y74977D01*
X80902Y74846D01*
X80860Y74691D01*
X80831Y74512D01*
X80813Y74309D01*
X80811Y74231D01*
X81535D01*
X82025Y74329D01*
X82441Y74606D01*
X82718Y75022D01*
X82816Y75512D01*
Y76035D01*
D02*
G37*
G36*
X3740Y71456D02*
X2972Y71303D01*
X2321Y70868D01*
X1886Y70217D01*
X1733Y69449D01*
X1886Y68681D01*
X2321Y68030D01*
X2972Y67595D01*
X3675Y67455D01*
X3687Y67444D01*
X4255Y66877D01*
X4255Y66876D01*
X4776Y66528D01*
X5390Y66406D01*
X5390Y66406D01*
X17432D01*
X17709Y65906D01*
X17580Y65256D01*
X17732Y64488D01*
X18167Y63837D01*
X18819Y63402D01*
X19587Y63249D01*
X20355Y63402D01*
X20542Y63527D01*
X20576Y63537D01*
X20624Y63563D01*
X20652Y63575D01*
X20685Y63586D01*
X20847Y63624D01*
X20914Y63635D01*
X21201Y63656D01*
X23347D01*
X23846Y63755D01*
X24270Y64038D01*
X25561Y65329D01*
X31274D01*
Y57563D01*
X31142D01*
X30666Y57469D01*
X30262Y57199D01*
X29992Y56795D01*
X29897Y56319D01*
Y48720D01*
X29992Y48244D01*
X30262Y47841D01*
X30666Y47571D01*
X31142Y47476D01*
X34606D01*
X35083Y47571D01*
X35486Y47841D01*
X35756Y48244D01*
X35851Y48720D01*
Y56319D01*
X35756Y56795D01*
X35486Y57199D01*
X35083Y57469D01*
X34606Y57563D01*
X33883D01*
Y66115D01*
X33788Y66595D01*
X33786Y66617D01*
X34064Y67095D01*
X48504D01*
X48504Y67095D01*
X48674Y67129D01*
X49089Y66702D01*
X49047Y66521D01*
X48778Y66341D01*
X48343Y65689D01*
X48190Y64921D01*
X48190Y64921D01*
Y64719D01*
X47690Y64438D01*
X47047Y64566D01*
X46279Y64413D01*
X45628Y63978D01*
X45193Y63327D01*
X45040Y62559D01*
Y59355D01*
X43263Y57578D01*
X42913D01*
X42840Y57563D01*
X40197D01*
X39721Y57469D01*
X39317Y57199D01*
X39047Y56795D01*
X38952Y56319D01*
Y48720D01*
X39047Y48244D01*
X39317Y47841D01*
X39721Y47571D01*
X40197Y47476D01*
X43661D01*
X44138Y47571D01*
X44541Y47841D01*
X44811Y48244D01*
X44906Y48720D01*
Y53745D01*
X45514Y54152D01*
X47225Y55863D01*
X47404Y55898D01*
X47791Y55581D01*
Y53020D01*
X54178D01*
Y56319D01*
X54071Y56857D01*
X54115Y56866D01*
X54560Y57164D01*
X57439D01*
X57722Y56664D01*
X57653Y56319D01*
Y48720D01*
X57684Y48565D01*
X57313Y48065D01*
X55302D01*
X55157Y48093D01*
X54563D01*
X54152Y48593D01*
X54178Y48720D01*
Y52020D01*
X47791D01*
Y48720D01*
X47902Y48161D01*
X48219Y47687D01*
X48693Y47371D01*
X49252Y47259D01*
X50888D01*
X51159Y46929D01*
Y46058D01*
X51070Y46035D01*
X50894Y46006D01*
X50768Y45995D01*
X45851D01*
X45801Y46245D01*
X45553Y46616D01*
X45182Y46864D01*
X44744Y46951D01*
X42067D01*
X41629Y46864D01*
X41258Y46616D01*
X41010Y46245D01*
X40923Y45807D01*
Y42894D01*
X41010Y42456D01*
X41258Y42085D01*
X41629Y41837D01*
X42067Y41750D01*
X44744D01*
X45182Y41837D01*
X45553Y42085D01*
X45801Y42456D01*
X45866Y42784D01*
X52035D01*
X52065Y42783D01*
X52079Y42782D01*
X52323Y42734D01*
X55157D01*
X55603Y42822D01*
X55980Y43075D01*
X56233Y43452D01*
X56322Y43898D01*
Y44791D01*
X56410Y44814D01*
X56586Y44843D01*
X56712Y44853D01*
X64808D01*
X65180Y44605D01*
X65948Y44452D01*
X66716Y44605D01*
X67367Y45040D01*
X67802Y45691D01*
X67955Y46459D01*
X67850Y46987D01*
X67863Y47047D01*
X68165Y47441D01*
X68224Y47476D01*
X70190D01*
X70457Y46976D01*
X70358Y46828D01*
X70253Y46299D01*
Y45713D01*
X70332Y45737D01*
X70547Y45823D01*
X70747Y45929D01*
X70930Y46055D01*
X71098Y46199D01*
X71250Y46363D01*
X71387Y46546D01*
X71426Y45382D01*
X72650D01*
Y47945D01*
X72524Y48180D01*
X72567Y48244D01*
X72662Y48720D01*
Y56319D01*
X72567Y56795D01*
X72297Y57199D01*
X71894Y57469D01*
X71417Y57563D01*
X70863D01*
Y57925D01*
X70710Y58693D01*
X70275Y59345D01*
X69622Y59997D01*
X69814Y60459D01*
X79945D01*
X81556Y58848D01*
Y57920D01*
X81056Y57653D01*
X81032Y57669D01*
X80472Y57780D01*
X79240D01*
Y52520D01*
Y47259D01*
X80472D01*
X81032Y47371D01*
X81056Y47387D01*
X81159Y47381D01*
X81598Y47147D01*
X81709Y46589D01*
X82144Y45937D01*
X83182Y44900D01*
X83833Y44465D01*
X84403Y44351D01*
X84471Y44350D01*
X84469Y44338D01*
X84601Y44312D01*
X94262D01*
X94263Y44350D01*
X94600Y44312D01*
X95039D01*
X95807Y44465D01*
X96459Y44900D01*
X98199Y46640D01*
X98360Y46797D01*
X99093Y47458D01*
X99218Y47558D01*
X99230Y47566D01*
X99256Y47571D01*
X99659Y47841D01*
X99929Y48244D01*
X100024Y48720D01*
Y56319D01*
X99929Y56795D01*
X99659Y57199D01*
X99256Y57469D01*
X98779Y57563D01*
X95315D01*
X94839Y57469D01*
X94435Y57199D01*
X94165Y56795D01*
X94071Y56319D01*
Y48720D01*
X93639Y48326D01*
X91284D01*
X90967Y48713D01*
X90969Y48720D01*
Y56319D01*
X90874Y56795D01*
X90604Y57199D01*
X90201Y57469D01*
X89724Y57563D01*
X89196D01*
Y58465D01*
X89196Y58465D01*
X89105Y58925D01*
X88844Y59316D01*
X88844Y59316D01*
X87825Y60335D01*
X88075Y60708D01*
X88228Y61476D01*
X88098Y62127D01*
X88375Y62627D01*
X88878D01*
X88878Y62627D01*
X89492Y62749D01*
X90013Y63097D01*
X94018Y67101D01*
X94705Y66965D01*
X95474Y67117D01*
X96125Y67552D01*
X96560Y68204D01*
X96713Y68972D01*
X96560Y69740D01*
X96125Y70391D01*
X95474Y70826D01*
X94705Y70979D01*
X93937Y70826D01*
X93286Y70391D01*
X93260Y70351D01*
X92809Y70261D01*
X92288Y69913D01*
X88213Y65838D01*
X87431D01*
X87195Y66279D01*
X87287Y66417D01*
X87440Y67185D01*
X87287Y67953D01*
X86852Y68604D01*
X86201Y69039D01*
X85433Y69192D01*
X85232Y69152D01*
X85046Y69276D01*
X84547Y69375D01*
X65353D01*
X65326Y69381D01*
X65317Y69383D01*
X65313Y69389D01*
X65269Y69435D01*
X65022Y69805D01*
X64371Y70240D01*
X63602Y70393D01*
X62834Y70240D01*
X62183Y69805D01*
X61748Y69154D01*
X61731Y69066D01*
X61610Y68885D01*
X61510Y68386D01*
X61100Y67887D01*
X60972Y67874D01*
X58360Y70486D01*
X57839Y70834D01*
X57225Y70956D01*
X57224Y70956D01*
X49154D01*
X48539Y70834D01*
X48018Y70486D01*
X48018Y70486D01*
X47839Y70306D01*
X30260D01*
X30260Y70306D01*
X30260Y70306D01*
X24164D01*
X23550Y70184D01*
X23029Y69836D01*
X23029Y69836D01*
X22712Y69519D01*
X21223D01*
X20728Y69617D01*
X20728Y69617D01*
X6055D01*
X5629Y70044D01*
X5595Y70217D01*
X5159Y70868D01*
X4508Y71303D01*
X3740Y71456D01*
D02*
G37*
G36*
X107835Y57780D02*
X106602D01*
Y53020D01*
X109296D01*
Y56319D01*
X109185Y56878D01*
X108868Y57352D01*
X108394Y57669D01*
X107835Y57780D01*
D02*
G37*
G36*
X105602D02*
X104370D01*
X103811Y57669D01*
X103337Y57352D01*
X103020Y56878D01*
X102909Y56319D01*
Y53020D01*
X105602D01*
Y57780D01*
D02*
G37*
G36*
X78240D02*
X77008D01*
X76449Y57669D01*
X75975Y57352D01*
X75658Y56878D01*
X75547Y56319D01*
Y53020D01*
X78240D01*
Y57780D01*
D02*
G37*
G36*
X105602Y52020D02*
X102909D01*
Y48720D01*
X102966Y48435D01*
X103140Y48615D01*
X103633Y49196D01*
X103812Y49452D01*
X103947Y49686D01*
X104037Y49898D01*
X104083Y50086D01*
X104084Y50253D01*
X104041Y50397D01*
X103953Y50518D01*
X105602Y48869D01*
Y52020D01*
D02*
G37*
G36*
X103147Y47971D02*
X103337Y47687D01*
X103621Y47498D01*
X103147Y47971D01*
D02*
G37*
G36*
X109296Y52020D02*
X106602D01*
Y47259D01*
X107835D01*
X108394Y47371D01*
X108868Y47687D01*
X109185Y48161D01*
X109296Y48720D01*
Y52020D01*
D02*
G37*
G36*
X105602Y48401D02*
X105547Y48388D01*
X105336Y48297D01*
X105102Y48162D01*
X104845Y47983D01*
X104566Y47759D01*
X104089Y47315D01*
X104370Y47259D01*
X105602D01*
Y48401D01*
D02*
G37*
G36*
X78240Y52020D02*
X75547D01*
Y48720D01*
X75658Y48161D01*
X75975Y47687D01*
X76449Y47371D01*
X77008Y47259D01*
X78240D01*
Y52020D01*
D02*
G37*
G36*
X74665Y47680D02*
X73650D01*
Y45382D01*
X74962D01*
Y46450D01*
X74978Y46302D01*
X75027Y46169D01*
X75108Y46052D01*
X75222Y45950D01*
X75369Y45864D01*
X75548Y45794D01*
X75759Y45740D01*
X76003Y45701D01*
X76046Y45697D01*
Y46299D01*
X75941Y46828D01*
X75642Y47276D01*
X75194Y47575D01*
X74665Y47680D01*
D02*
G37*
G36*
X105512Y42539D02*
X99213D01*
X98445Y42386D01*
X97794Y41951D01*
X97746Y41880D01*
X97640Y41809D01*
X97249Y41223D01*
X97111Y40532D01*
X97249Y39840D01*
X97640Y39254D01*
X97746Y39183D01*
X97794Y39112D01*
X98445Y38677D01*
X99213Y38524D01*
X103106D01*
X103424Y38138D01*
X103406Y38051D01*
X103431Y37925D01*
X103114Y37539D01*
X99213D01*
X98445Y37386D01*
X97794Y36951D01*
X97359Y36300D01*
X97206Y35531D01*
X97359Y34764D01*
X97794Y34112D01*
X98445Y33677D01*
X99213Y33525D01*
X105512D01*
X106280Y33677D01*
X106931Y34112D01*
X107367Y34764D01*
X107519Y35531D01*
X107367Y36300D01*
X107278Y36431D01*
X107232Y37229D01*
X107268Y37283D01*
X107421Y38051D01*
X107268Y38819D01*
X107220Y38891D01*
Y39036D01*
X107246Y39481D01*
X107258Y39577D01*
X107264Y39611D01*
X107367Y39764D01*
X107519Y40532D01*
X107367Y41300D01*
X106931Y41951D01*
X106280Y42386D01*
X105512Y42539D01*
D02*
G37*
G36*
X36870Y34176D02*
X36031D01*
Y31858D01*
X37103D01*
Y32312D01*
X36909Y32441D01*
X37103Y32451D01*
Y33048D01*
X37196Y32932D01*
X37315Y32829D01*
X37459Y32738D01*
X37628Y32659D01*
X37821Y32593D01*
X37830Y32590D01*
X37913Y32618D01*
X38169Y32756D01*
X38231Y32806D01*
Y32815D01*
X38127Y33336D01*
X37832Y33777D01*
X37391Y34072D01*
X36870Y34176D01*
D02*
G37*
G36*
X44744D02*
X43905D01*
Y31858D01*
X46105D01*
Y32815D01*
X46001Y33336D01*
X45706Y33777D01*
X45265Y34072D01*
X44744Y34176D01*
D02*
G37*
G36*
X42906D02*
X42067D01*
X41546Y34072D01*
X41105Y33777D01*
X40968Y33573D01*
X41024Y33406D01*
X41161Y33150D01*
X41339Y32933D01*
X41537Y32771D01*
X41626Y32829D01*
X41742Y32932D01*
X41834Y33048D01*
Y32610D01*
X42106Y32520D01*
X42441Y32461D01*
X42815Y32441D01*
X41941Y31858D01*
X42906D01*
Y34176D01*
D02*
G37*
G36*
X35031D02*
X34193D01*
X33672Y34072D01*
X33231Y33777D01*
X32936Y33336D01*
X32832Y32815D01*
Y31858D01*
X35031D01*
Y34176D01*
D02*
G37*
G36*
X57028Y26648D02*
X56217Y25727D01*
X56100Y25559D01*
X57031D01*
Y26634D01*
X57028Y26648D01*
D02*
G37*
G36*
X102658Y32676D02*
X101965Y32539D01*
X99213D01*
X98445Y32386D01*
X97794Y31951D01*
X97774Y31921D01*
X97709Y31878D01*
X97317Y31292D01*
X97180Y30600D01*
X97317Y29909D01*
X97335Y29883D01*
X97359Y29763D01*
X97794Y29112D01*
X98445Y28677D01*
X99213Y28525D01*
X100293D01*
X100552Y28209D01*
X100609Y27925D01*
X100291Y27539D01*
X99213D01*
X98445Y27386D01*
X97794Y26951D01*
X97750Y26886D01*
X97650Y26819D01*
X97259Y26233D01*
X97121Y25541D01*
X97259Y24850D01*
X97650Y24264D01*
X97726Y24213D01*
X97794Y24112D01*
X98445Y23677D01*
X99213Y23525D01*
X105512D01*
X106280Y23677D01*
X106931Y24112D01*
X107367Y24764D01*
X107519Y25532D01*
X107367Y26300D01*
X106931Y26951D01*
X106280Y27386D01*
X105512Y27539D01*
X104827D01*
X104510Y27925D01*
X104566Y28209D01*
X104825Y28525D01*
X105512D01*
X106280Y28677D01*
X106931Y29112D01*
X107367Y29763D01*
X107519Y30531D01*
X107367Y31300D01*
X106931Y31951D01*
X106280Y32386D01*
X105512Y32539D01*
X103350D01*
X102658Y32676D01*
D02*
G37*
G36*
X88386Y10905D02*
X85737D01*
Y9181D01*
X90511D01*
X90441Y9532D01*
X89959Y10254D01*
X89237Y10736D01*
X88386Y10905D01*
D02*
G37*
G36*
X84737D02*
X82087D01*
X81236Y10736D01*
X80515Y10254D01*
X80032Y9532D01*
X79963Y9181D01*
X84737D01*
Y10905D01*
D02*
G37*
G36*
X90511Y8181D02*
X85737D01*
Y6457D01*
X88386D01*
X89237Y6627D01*
X89959Y7109D01*
X90441Y7830D01*
X90511Y8181D01*
D02*
G37*
%LPD*%
G36*
X5412Y69104D02*
X4494Y67794D01*
X4399Y67889D01*
X3995Y68241D01*
X3956Y68264D01*
X3925Y68277D01*
X3903Y68279D01*
X4913Y69588D01*
X5412Y69104D01*
D02*
G37*
G36*
X64684Y68883D02*
X64739Y68816D01*
X64803Y68756D01*
X64876Y68705D01*
X64956Y68662D01*
X65044Y68626D01*
X65141Y68599D01*
X65245Y68579D01*
X65358Y68567D01*
X65479Y68563D01*
X65173Y67579D01*
X65054Y67577D01*
X64830Y67559D01*
X64725Y67544D01*
X64529Y67501D01*
X64438Y67474D01*
X64353Y67441D01*
X64271Y67405D01*
X64195Y67364D01*
X64636Y68958D01*
X64684Y68883D01*
D02*
G37*
G36*
X20659Y65771D02*
X20716Y65704D01*
X20782Y65645D01*
X20855Y65594D01*
X20936Y65551D01*
X21025Y65516D01*
X21122Y65488D01*
X21226Y65469D01*
X21339Y65457D01*
X21460Y65453D01*
X21439Y64468D01*
X21270Y64466D01*
X20822Y64433D01*
X20693Y64412D01*
X20464Y64359D01*
X20365Y64325D01*
X20276Y64287D01*
X20197Y64245D01*
X20610Y65846D01*
X20659Y65771D01*
D02*
G37*
G36*
X88390Y57384D02*
X88402Y57248D01*
X88421Y57128D01*
X88449Y57024D01*
X88484Y56936D01*
X88528Y56864D01*
X88579Y56808D01*
X88638Y56768D01*
X88705Y56744D01*
X88779Y56736D01*
X87205D01*
X87279Y56744D01*
X87347Y56768D01*
X87406Y56808D01*
X87457Y56864D01*
X87500Y56936D01*
X87536Y57024D01*
X87563Y57128D01*
X87583Y57248D01*
X87594Y57384D01*
X87598Y57536D01*
X88386D01*
X88390Y57384D01*
D02*
G37*
G36*
X33076Y57543D02*
X33091Y57374D01*
X33115Y57224D01*
X33150Y57095D01*
X33194Y56985D01*
X33248Y56896D01*
X33312Y56826D01*
X33386Y56776D01*
X33470Y56746D01*
X33563Y56736D01*
X31594D01*
X31688Y56746D01*
X31772Y56776D01*
X31846Y56826D01*
X31909Y56896D01*
X31964Y56985D01*
X32008Y57095D01*
X32042Y57224D01*
X32067Y57374D01*
X32082Y57543D01*
X32087Y57732D01*
X33071D01*
X33076Y57543D01*
D02*
G37*
G36*
X62608Y56666D02*
X62697Y56622D01*
X62793Y56584D01*
X62897Y56550D01*
X63009Y56521D01*
X63128Y56498D01*
X63389Y56467D01*
X63531Y56459D01*
X63681Y56457D01*
Y55472D01*
X63499Y55468D01*
X63196Y55437D01*
X63075Y55409D01*
X62974Y55373D01*
X62894Y55329D01*
X62835Y55278D01*
X62796Y55218D01*
X62778Y55151D01*
X62779Y55075D01*
X62651Y55906D01*
X62607Y55375D01*
X62593Y55394D01*
X62569Y55410D01*
X62534Y55425D01*
X62490Y55437D01*
X62435Y55448D01*
X62370Y55457D01*
X62209Y55469D01*
X62008Y55472D01*
Y56457D01*
X62131Y56457D01*
X62562Y56488D01*
X62527Y56716D01*
X62608Y56666D01*
D02*
G37*
G36*
X53127Y49433D02*
X53139Y49366D01*
X53171Y49307D01*
X53221Y49256D01*
X53292Y49213D01*
X53381Y49177D01*
X53490Y49150D01*
X53619Y49130D01*
X53766Y49118D01*
X53933Y49114D01*
X53673Y48327D01*
X52881Y48324D01*
X53134Y49508D01*
X53127Y49433D01*
D02*
G37*
G36*
X50811Y48295D02*
X50744Y48271D01*
X50685Y48231D01*
X50634Y48175D01*
X50591Y48103D01*
X50555Y48015D01*
X50528Y47912D01*
X50508Y47792D01*
X50496Y47656D01*
X50492Y47504D01*
X49705D01*
X49701Y47656D01*
X49689Y47792D01*
X49669Y47912D01*
X49642Y48015D01*
X49606Y48103D01*
X49563Y48175D01*
X49512Y48231D01*
X49453Y48271D01*
X49386Y48295D01*
X49311Y48303D01*
X50886D01*
X50811Y48295D01*
D02*
G37*
G36*
X98944Y48324D02*
X98865Y48288D01*
X98742Y48204D01*
X98575Y48072D01*
X97810Y47383D01*
X96176Y45786D01*
X94204Y47154D01*
X94389Y47346D01*
X94684Y47696D01*
X94793Y47853D01*
X94878Y48000D01*
X94936Y48134D01*
X94970Y48257D01*
X94978Y48368D01*
X94961Y48468D01*
X94918Y48556D01*
X98944Y48324D01*
D02*
G37*
G36*
X65105Y45632D02*
X65090Y45640D01*
X65062Y45646D01*
X65021Y45652D01*
X64899Y45662D01*
X64494Y45671D01*
X64359Y45672D01*
Y47246D01*
X65105Y47286D01*
Y45632D01*
D02*
G37*
G36*
X55308Y47251D02*
X56070Y47247D01*
X56874Y47246D01*
X57081Y45672D01*
X56767Y45664D01*
X56488Y45640D01*
X56243Y45601D01*
X56033Y45546D01*
X55857Y45475D01*
X55716Y45388D01*
X55609Y45286D01*
X55536Y45168D01*
X55498Y45034D01*
X55494Y44884D01*
X55291Y47252D01*
X55308Y47251D01*
D02*
G37*
G36*
X52189Y43575D02*
X52166Y43580D01*
X52112Y43585D01*
X51765Y43596D01*
X50574Y43602D01*
X50399Y45177D01*
X50712Y45185D01*
X50992Y45209D01*
X51236Y45248D01*
X51447Y45303D01*
X51622Y45374D01*
X51764Y45461D01*
X51871Y45563D01*
X51944Y45681D01*
X51982Y45815D01*
X51986Y45965D01*
X52189Y43575D01*
D02*
G37*
G36*
X106508Y39891D02*
X106484Y39810D01*
X106464Y39698D01*
X106447Y39555D01*
X106410Y38941D01*
X106398Y38051D01*
X106399Y37716D01*
X106484Y36255D01*
X106508Y36172D01*
X106533Y36121D01*
X104073Y36699D01*
X104141Y36697D01*
X104201Y36726D01*
X104255Y36785D01*
X104301Y36875D01*
X104340Y36995D01*
X104372Y37146D01*
X104397Y37326D01*
X104415Y37538D01*
X104429Y38051D01*
X104426Y38314D01*
X104378Y38928D01*
X104350Y39074D01*
X104315Y39191D01*
X104274Y39278D01*
X104226Y39336D01*
X104173Y39365D01*
X104112Y39364D01*
X106533Y39942D01*
X106508Y39891D01*
D02*
G37*
G36*
X103549Y27922D02*
X103590Y27439D01*
X103626Y27242D01*
X103672Y27076D01*
X103728Y26940D01*
X103795Y26835D01*
X103872Y26759D01*
X103960Y26714D01*
X104057Y26699D01*
X101061D01*
X101159Y26714D01*
X101246Y26759D01*
X101323Y26835D01*
X101390Y26940D01*
X101447Y27076D01*
X101493Y27242D01*
X101529Y27439D01*
X101554Y27665D01*
X101570Y27922D01*
X101575Y28209D01*
X103543D01*
X103549Y27922D01*
D02*
G37*
%LPC*%
G36*
X52354Y4874D02*
X50451D01*
Y3839D01*
X50550Y3341D01*
X50832Y2919D01*
X51254Y2637D01*
X51752Y2538D01*
X52354D01*
Y4874D01*
D02*
G37*
%LPD*%
D10*
X87992Y52520D02*
Y58465D01*
X86316Y60141D02*
Y60274D01*
Y60141D02*
X87992Y58465D01*
X85433Y61156D02*
Y61476D01*
Y61156D02*
X86316Y60274D01*
X79560Y32946D02*
X91562D01*
X93130Y27407D02*
Y31377D01*
X91562Y32946D02*
X93130Y31377D01*
X77893Y137915D02*
X78295Y137512D01*
X74173Y36378D02*
X76194D01*
X78189Y34317D02*
Y34383D01*
Y34317D02*
X79560Y32946D01*
X76194Y36378D02*
X78189Y34383D01*
X56988Y31221D02*
Y31654D01*
X54153Y28386D02*
X56988Y31221D01*
X14469Y39843D02*
Y44744D01*
X14075Y39449D02*
X14469Y39843D01*
X89736Y111287D02*
X91186D01*
X89114Y111909D02*
X89736Y111287D01*
X85039Y158524D02*
Y168642D01*
X80771Y30531D02*
X82382D01*
X79659D02*
Y30607D01*
Y30531D02*
X80771D01*
X56004Y107776D02*
X64764D01*
X4461Y165480D02*
X6201Y167220D01*
X4461Y164850D02*
Y165480D01*
X1286Y71779D02*
X2729D01*
X1280Y25305D02*
X4183D01*
X1280D02*
X1280D01*
Y25059D02*
X3937D01*
X76024Y32244D02*
X76484Y31784D01*
X75689Y32579D02*
X76024Y32244D01*
X79659Y30607D02*
Y30954D01*
X76484Y31784D02*
X76523D01*
X19927Y28386D02*
X54153D01*
X66451Y24621D02*
X66634Y24803D01*
X66451Y22598D02*
Y24621D01*
X66043Y22190D02*
X66451Y22598D01*
X8459Y131161D02*
X12697D01*
X87756Y27894D02*
X89627Y26023D01*
X78639Y27894D02*
X87756D01*
X89627Y26023D02*
X91747D01*
X93130Y27407D01*
X75197Y26378D02*
X76105Y27286D01*
X78031D01*
X78639Y27894D01*
X70551Y28051D02*
X73364D01*
X73779Y27636D01*
Y27362D02*
Y27636D01*
Y27362D02*
X74764Y26378D01*
X75197D01*
X73150Y37402D02*
X74173Y36378D01*
X80216Y35531D02*
X82382D01*
X79538Y30833D02*
X79659Y30954D01*
X53671Y11703D02*
X57028D01*
X1280Y25305D02*
Y28878D01*
Y25059D02*
Y25305D01*
X3937Y25059D02*
X4183Y25305D01*
X84547Y90116D02*
X84547Y90116D01*
X84547Y90116D02*
Y94587D01*
X84547Y84083D02*
X85107Y83524D01*
X84547Y84083D02*
Y90116D01*
X86910Y83524D02*
X87303Y83130D01*
X85774Y94587D02*
X86620Y95433D01*
X85107Y83524D02*
X86910D01*
X84941Y100984D02*
X85514D01*
X89342Y100157D02*
X93701Y104516D01*
X85514Y100984D02*
X86340Y100157D01*
X89342D01*
X55216Y100498D02*
Y104002D01*
X88189Y91791D02*
Y93071D01*
X86620Y95433D02*
X91299D01*
X84434Y94587D02*
X85774D01*
X50984Y50489D02*
Y52520D01*
Y50489D02*
X52753Y48720D01*
X54178D01*
X50098Y51634D02*
X50984Y52520D01*
X50098Y46654D02*
Y51634D01*
X19337Y50149D02*
X21460D01*
X23228Y51917D02*
Y52520D01*
X21460Y50149D02*
X23228Y51917D01*
Y52520D02*
X23917Y51831D01*
Y46870D02*
Y51831D01*
X78740Y108721D02*
X84114Y103347D01*
X87120Y103330D02*
X87422Y103028D01*
X86219Y103347D02*
X86236Y103330D01*
X87120D01*
X84114Y103347D02*
X86219D01*
X87992Y110787D02*
X89114Y111909D01*
X87992Y108721D02*
Y110787D01*
Y108721D02*
X90758Y105955D01*
X85227D02*
X87992Y108721D01*
Y110787D02*
Y112424D01*
X86224Y114193D02*
X87992Y112424D01*
X83884Y114193D02*
X86224D01*
X83451Y114626D02*
X83884Y114193D01*
X33268Y108721D02*
Y110787D01*
X30158Y105610D02*
X33268Y108721D01*
X29331Y105610D02*
X30158D01*
X33268Y108721D02*
X36220Y105768D01*
Y104823D02*
Y105768D01*
X33268Y110787D02*
Y112818D01*
X31499Y114587D02*
X33268Y112818D01*
X30074Y114587D02*
X31499D01*
X64764Y107776D02*
X64961Y107972D01*
X60630Y112405D02*
Y112739D01*
Y110787D02*
Y112405D01*
X58861Y114173D02*
X60630Y112405D01*
X56004Y114173D02*
X58861D01*
X60630Y112739D02*
X62399Y114508D01*
X63819D01*
X65059Y115748D01*
X46639Y133622D02*
X58590D01*
X63314Y138347D01*
X53150Y117480D02*
X59619D01*
X52559Y118071D02*
X53150Y117480D01*
X60052Y117913D02*
X60116D01*
X60268Y118065D02*
X61226D01*
X60116Y117913D02*
X60268Y118065D01*
X59619Y117480D02*
X60052Y117913D01*
X52947Y121221D02*
X54463Y122736D01*
X63018D01*
X64041Y121713D01*
X59152Y99709D02*
X73036D01*
X56600Y99114D02*
X58557D01*
X59152Y99709D01*
X55216Y100498D02*
X56600Y99114D01*
X73036Y99709D02*
X77402Y104075D01*
X93701Y104516D02*
Y113383D01*
X91299Y95433D02*
X98681Y102815D01*
X102559D01*
X81496Y118155D02*
X83451Y116201D01*
X90883D01*
X93701Y113383D01*
X84434Y94587D02*
X84434D01*
X34959Y91807D02*
X81655D01*
X84434Y94587D01*
X88878Y88543D02*
Y91102D01*
X88189Y91791D02*
X88878Y91102D01*
X64041Y121713D02*
X78441D01*
X81496Y118658D01*
Y118155D02*
Y118658D01*
X37402Y111848D02*
Y113680D01*
X39922Y116201D01*
X22644Y121411D02*
X25185D01*
X27356Y123583D01*
X51968D01*
X18313Y119350D02*
X25351D01*
X28009Y122008D01*
X39277D01*
X20079Y117776D02*
X26003D01*
X28661Y120433D01*
X38625D01*
X21615Y116201D02*
X26656D01*
X29313Y118858D01*
X37972D01*
X27145Y114462D02*
X29749Y117067D01*
X25784Y114462D02*
X27145D01*
X29749Y117067D02*
X35653D01*
X29945Y99682D02*
X30409Y99217D01*
X34838D02*
X36798Y97258D01*
X30409Y99217D02*
X34838D01*
X36798Y95978D02*
Y97258D01*
Y95978D02*
X37008Y95768D01*
X5365Y99682D02*
X29945D01*
X3791Y101257D02*
X5365Y99682D01*
X25526Y94941D02*
X28341Y92126D01*
X6293Y94941D02*
X25526D01*
X28341Y92126D02*
X33050D01*
X77402Y104075D02*
Y109449D01*
X24055Y93366D02*
X25148Y92274D01*
X63580Y93382D02*
X64396Y94197D01*
X66736D01*
X26274Y89764D02*
X27061Y90551D01*
X33702D01*
X34959Y91807D01*
X28051Y82797D02*
X28150Y82698D01*
Y81004D02*
Y82698D01*
X28780Y80374D02*
X31594D01*
X28150Y81004D02*
X28780Y80374D01*
X1286Y65738D02*
Y71779D01*
X4751D02*
X4803D01*
X2762Y71811D02*
X4719D01*
X4751Y71779D01*
X2729D02*
X2762Y71811D01*
X34306Y93382D02*
X63580D01*
X33050Y92126D02*
X34306Y93382D01*
X28671Y98107D02*
X29297Y97481D01*
X28993Y93701D02*
X31789D01*
X26178Y96516D02*
X28993Y93701D01*
X4817Y96516D02*
X26178D01*
X28092Y86096D02*
X29030Y85159D01*
X29030D01*
X30413Y83661D02*
X31457D01*
X30413D02*
Y83775D01*
X29030Y85159D02*
X30413Y83775D01*
X31457Y83661D02*
X31594Y83524D01*
X31789Y93701D02*
X34255Y96166D01*
X27264Y75310D02*
X28939Y76986D01*
X27264Y75310D02*
Y75310D01*
X28939Y76986D02*
X31538D01*
X25481Y73527D02*
X27264Y75310D01*
X23033Y73527D02*
X25481D01*
X3461Y101257D02*
X3791D01*
X3067Y98107D02*
X28671D01*
X23976Y89764D02*
X26274D01*
X21949Y91791D02*
X23976Y89764D01*
X8078Y91791D02*
X21949D01*
X7425Y93366D02*
X24055D01*
X36404Y116316D02*
X36696D01*
X35653Y117067D02*
X36404Y116316D01*
X76083Y131260D02*
X76673Y130669D01*
X40064Y121221D02*
X52947D01*
X39277Y122008D02*
X40064Y121221D01*
X39412Y119646D02*
X57382D01*
X38625Y120433D02*
X39412Y119646D01*
X38760Y118071D02*
X52559D01*
X37972Y118858D02*
X38760Y118071D01*
X72730Y138347D02*
X76244D01*
X76676Y137915D01*
X77893D01*
X46876Y127126D02*
X48647Y128898D01*
X60039D01*
X62205Y126732D01*
X18553Y127126D02*
X46876D01*
X47995Y130473D02*
X60951D01*
X46223Y128701D02*
X47995Y130473D01*
X19328Y128701D02*
X46223D01*
X20017Y130276D02*
X45571D01*
X47343Y132047D02*
X59242D01*
X45571Y130276D02*
X47343Y132047D01*
X44868Y131850D02*
X46639Y133622D01*
X20669Y131850D02*
X44868D01*
X56732Y158031D02*
Y162618D01*
X56693Y158031D02*
X56732D01*
X20069Y159472D02*
X20508D01*
X72474Y131260D02*
X76083D01*
X38780Y152421D02*
Y152550D01*
Y152323D02*
Y152421D01*
X57480Y119744D02*
X58465Y120728D01*
X57382Y119646D02*
X57480Y119744D01*
X57874Y168642D02*
X85039D01*
X41929Y1024D02*
Y7343D01*
Y1024D02*
X63091D01*
X2756Y84902D02*
X3182D01*
X2756Y88051D02*
X2953D01*
X3803Y85457D02*
X6890Y88543D01*
X3248Y104488D02*
X3495D01*
X2969Y94957D02*
X3258D01*
X2953Y91693D02*
X3045D01*
X6890Y88543D02*
Y90604D01*
X3737Y85457D02*
X3803D01*
X3182Y84902D02*
X3737Y85457D01*
X5315Y91256D02*
X7425Y93366D01*
X5315Y90413D02*
Y91256D01*
X2953Y88051D02*
X5315Y90413D01*
X6890Y90604D02*
X8078Y91791D01*
X3045Y91693D02*
X6293Y94941D01*
X65650Y1240D02*
Y4094D01*
X65453Y1043D02*
X65650Y1240D01*
X4183Y25305D02*
X4675D01*
X4921Y25059D01*
X75059Y126634D02*
X76476D01*
X79423Y123687D01*
X74961Y126732D02*
X75059Y126634D01*
X62205Y126732D02*
X74961D01*
X79423Y123687D02*
X80407D01*
X58465Y120728D02*
X62798D01*
X63389Y120138D01*
X63531D02*
X64534Y119134D01*
X63389Y120138D02*
X63531D01*
X87303Y86575D02*
X87539D01*
X88425Y87461D01*
Y88090D01*
X88878Y88543D01*
X12697Y157047D02*
X16412D01*
X9154Y153504D02*
X12697Y157047D01*
X49609Y114602D02*
X51378Y112833D01*
X39922Y116201D02*
X47601D01*
X51378Y110787D02*
Y112833D01*
X47601Y116201D02*
X49200Y114602D01*
X49609D01*
X76870Y162756D02*
X76880Y162746D01*
Y157765D02*
Y162746D01*
Y157765D02*
X76890Y157755D01*
X76969Y157835D01*
X81870Y159606D02*
Y162756D01*
X80098Y157835D02*
X81870Y159606D01*
X76969Y157835D02*
X80098D01*
X66900Y157804D02*
X66948Y157755D01*
X66900Y157804D02*
Y162726D01*
X71860Y157765D02*
Y162746D01*
Y157765D02*
X71870Y157755D01*
X56693Y158031D02*
Y158721D01*
X61948Y158031D02*
Y162678D01*
X61614Y158031D02*
X61948D01*
X61614D02*
Y158721D01*
X46077Y154207D02*
X51870Y160000D01*
Y162756D01*
X44896Y154207D02*
X46077D01*
X44685Y153996D02*
X44896Y154207D01*
X103465Y146379D02*
Y150433D01*
Y143858D02*
Y146379D01*
X108366Y147106D02*
X108858Y147599D01*
X104192Y147106D02*
X108366D01*
X103465Y146379D02*
X104192Y147106D01*
X100295Y153767D02*
Y154193D01*
X100801Y153096D02*
X103465Y150433D01*
X100295Y153767D02*
X100801Y153261D01*
Y153096D02*
Y153261D01*
X14870Y28327D02*
X19868D01*
X13189Y30008D02*
Y40532D01*
Y30008D02*
X14870Y28327D01*
X13189Y40532D02*
X13287Y40630D01*
X14469Y44744D02*
X15059Y45335D01*
X19868Y28327D02*
X19927Y28386D01*
X58248Y5197D02*
X58465Y4980D01*
X53031Y5197D02*
X58248D01*
X52854Y5374D02*
X53031Y5197D01*
X52953Y10984D02*
X53671Y11703D01*
X71860Y162746D02*
X71870Y162756D01*
X66870D02*
X66900Y162726D01*
X61870Y162756D02*
X61948Y162678D01*
X56732Y162618D02*
X56870Y162756D01*
X40433Y162559D02*
Y163327D01*
X40551Y163445D01*
X35433Y155897D02*
Y162559D01*
Y155897D02*
X38780Y152550D01*
X30433Y157556D02*
Y162559D01*
Y157556D02*
X35549Y152440D01*
X20069Y159472D02*
X20433Y159836D01*
X19706Y159108D02*
X20069Y159472D01*
X20508D02*
X21358Y158622D01*
X24220D02*
X25433Y159836D01*
X21358Y158622D02*
X24220D01*
X25433Y159836D02*
Y162559D01*
X20433Y159836D02*
Y162559D01*
X18473Y159108D02*
X19706D01*
X16412Y157047D02*
X18473Y159108D01*
X15433Y162559D02*
Y165074D01*
X14706Y165801D02*
X15433Y165074D01*
X13884Y165801D02*
X14706D01*
X13583Y166102D02*
X13884Y165801D01*
X61975Y131496D02*
X72238D01*
X60951Y130473D02*
X61975Y131496D01*
X74980Y136496D02*
X75325Y136152D01*
X46654Y10984D02*
Y11417D01*
X45669Y12402D02*
X46654Y11417D01*
X45236Y12402D02*
X45669D01*
X44961Y12677D02*
X45236Y12402D01*
X41240Y12677D02*
X44961D01*
X46555Y5374D02*
X46604Y5423D01*
Y10935D01*
X46654Y10984D01*
X15059Y11201D02*
X16634Y9626D01*
X28652D01*
X15059Y11201D02*
X15059D01*
X13681Y12579D02*
X15059Y11201D01*
X28652Y9626D02*
X39488D01*
X27657Y12677D02*
X28652Y11683D01*
Y9626D02*
Y11683D01*
X40354Y11791D02*
X41240Y12677D01*
X40354Y10492D02*
Y11791D01*
X39488Y9626D02*
X40354Y10492D01*
X13681Y12579D02*
Y12677D01*
X78740Y108721D02*
Y110787D01*
X104764Y109449D02*
X106102Y110787D01*
X104764Y105020D02*
Y109449D01*
X102559Y102815D02*
X104764Y105020D01*
X72238Y131496D02*
X72474Y131260D01*
X75712Y128209D02*
X78642D01*
X74491Y129429D02*
X75613Y128307D01*
X63314Y138347D02*
X70741D01*
X70757Y138330D02*
X72714D01*
X70741Y138347D02*
X70757Y138330D01*
X72714D02*
X72730Y138347D01*
X63691Y136496D02*
X74980D01*
X59242Y132047D02*
X63691Y136496D01*
X19230Y131063D02*
X20017Y130276D01*
X19193Y131063D02*
X19230D01*
X18209Y132047D02*
X19193Y131063D01*
X17126Y135394D02*
X20669Y131850D01*
X18424Y129604D02*
X19328Y128701D01*
X22343Y121713D02*
X22644Y121411D01*
X18504Y116201D02*
X20079Y117776D01*
X20669Y115255D02*
X21615Y116201D01*
X14485Y126356D02*
Y129604D01*
X18424D01*
X13583Y132047D02*
X18209D01*
X12697Y131161D02*
X13583Y132047D01*
X20669Y108682D02*
Y115255D01*
X8425Y135394D02*
X17126D01*
X7087Y132262D02*
X7358D01*
X24016Y110787D02*
Y112694D01*
X25784Y114462D01*
X12549Y121122D02*
X18553Y127126D01*
X8716Y121122D02*
X12549D01*
X7087Y122751D02*
Y129112D01*
Y122751D02*
X8716Y121122D01*
X77402Y109449D02*
X78740Y110787D01*
X64534Y119134D02*
X68110D01*
X7513Y129112D02*
X8649Y127976D01*
X8993D01*
X9941Y127028D01*
X7358Y132262D02*
X8459Y131161D01*
X16431Y117541D02*
X16503D01*
X18313Y119350D01*
X15453Y116988D02*
X15879D01*
X16431Y117541D01*
X17362Y105374D02*
X20669Y108682D01*
X13090Y124961D02*
X14485Y126356D01*
X7087Y129112D02*
X7513D01*
X9941Y127028D02*
X10630D01*
X12303Y124961D02*
X13090D01*
X10630Y123583D02*
X10925D01*
X12303Y124961D01*
X3258Y94957D02*
X4817Y96516D01*
X10871Y105374D02*
X10871Y105374D01*
X17362D01*
X3495Y104488D02*
X4381Y105374D01*
X10871D01*
X31538Y76986D02*
X31594Y76929D01*
D11*
X85866Y66752D02*
Y66752D01*
X63130Y68071D02*
X84547D01*
X85866Y66752D01*
X109252Y151437D02*
Y167480D01*
X81807Y150551D02*
X85842Y146516D01*
X46850Y162776D02*
Y168661D01*
X33088Y147946D02*
Y150112D01*
X5433Y162559D02*
Y166082D01*
X20079Y125059D02*
X25197D01*
X79547Y38091D02*
X79567Y38071D01*
X87874D01*
X87894Y38091D01*
X5118Y52520D02*
Y59244D01*
X15646Y62229D02*
X16261Y61614D01*
X16634D01*
X7354Y62229D02*
X15646D01*
X5217Y60092D02*
X7354Y62229D01*
X5118Y59244D02*
X5217Y59342D01*
Y60092D01*
X99272Y99862D02*
X103937D01*
X95866Y96457D02*
X99272Y99862D01*
X32579Y52815D02*
Y66115D01*
X32060Y66634D02*
X32579Y66115D01*
X25020Y66634D02*
X32060D01*
X32579Y52815D02*
X32874Y52520D01*
X19587Y65945D02*
X19587D01*
X20571Y64961D02*
X23347D01*
X19587Y65945D02*
X20571Y64961D01*
X23347D02*
X25020Y66634D01*
X62008Y55965D02*
X63681D01*
X62815Y68386D02*
X63130Y68071D01*
X81398Y132569D02*
X82699Y133870D01*
X86744D02*
X87008Y134134D01*
X82699Y133870D02*
X86744D01*
X84095Y124134D02*
X90098D01*
X81398Y126831D02*
Y132569D01*
Y126831D02*
X84095Y124134D01*
X8335Y165740D02*
X9797D01*
X8071Y166004D02*
X8335Y165740D01*
X61417Y55965D02*
X62008D01*
X62303Y56260D01*
X60630Y54587D02*
X62008Y55965D01*
X31075Y154291D02*
X33088Y152278D01*
X13421Y154291D02*
X31075D01*
X10173Y151043D02*
X13421Y154291D01*
X5433Y153745D02*
X8134Y151043D01*
X10173D01*
X55315Y150551D02*
X81807D01*
X55315Y148933D02*
Y150551D01*
X54409Y148027D02*
X55315Y148933D01*
X94488Y118858D02*
Y119744D01*
X90098Y124134D02*
X94488Y119744D01*
X95964Y121221D01*
X97047D01*
X101279Y124528D02*
Y124961D01*
X100394Y123642D02*
X101279Y124528D01*
X99468Y123642D02*
X100394D01*
X97047Y121221D02*
X99468Y123642D01*
X101279Y124961D02*
X101476Y124764D01*
X102953D01*
X106358Y120433D02*
X106791D01*
X105472Y121319D02*
X106358Y120433D01*
X105472Y121319D02*
Y122244D01*
X102953Y124764D02*
X105472Y122244D01*
X101279Y129882D02*
Y135768D01*
X101437Y135925D01*
X101870Y135492D01*
X101004Y136358D02*
X101437Y135925D01*
X102284Y136772D01*
X106791D01*
X103937Y99862D02*
X109882Y105807D01*
X106791Y126732D02*
X106949D01*
X107834Y125847D01*
Y124227D02*
Y125847D01*
Y124227D02*
X109882Y122180D01*
Y105807D02*
Y122180D01*
X88465Y162756D02*
X88728Y162492D01*
Y158476D02*
Y162492D01*
Y158476D02*
X90692Y156512D01*
X97835D01*
X98465Y157142D02*
Y162756D01*
X97835Y156512D02*
X98465Y157142D01*
X97835Y151742D02*
Y156512D01*
Y151742D02*
X100925Y148652D01*
Y145709D02*
Y148652D01*
Y145709D02*
X101004Y145630D01*
Y136358D02*
Y145630D01*
X88465Y143858D02*
Y145879D01*
X87828Y146516D02*
X88465Y145879D01*
X85842Y146516D02*
X87828D01*
X54409Y139768D02*
Y148027D01*
X53745Y139103D02*
X54409Y139768D01*
X53307Y136575D02*
X53745Y137013D01*
Y139103D01*
X46850Y162776D02*
X46870Y162756D01*
X6201Y166849D02*
Y167220D01*
X33088Y150112D02*
Y152278D01*
X32972Y147830D02*
X33088Y147946D01*
X32972Y139469D02*
Y147830D01*
X30177Y136673D02*
X32972Y139469D01*
X27520Y136673D02*
X30177D01*
X5433Y153745D02*
Y162559D01*
X10433D02*
Y165104D01*
X9797Y165740D02*
X10433Y165104D01*
X14469Y119449D02*
X20079Y125059D01*
X14434Y119449D02*
X14469D01*
X13941Y118957D02*
X14434Y119449D01*
X3839Y123583D02*
X8465Y118957D01*
X13941D01*
X3543Y123583D02*
X3839D01*
X52126Y137756D02*
X53307Y136575D01*
X3543Y130177D02*
Y133622D01*
Y127028D02*
Y130177D01*
Y123583D02*
Y127028D01*
X60630Y52520D02*
Y54587D01*
D14*
X76378Y4528D02*
D03*
Y15945D02*
D03*
D15*
X70669Y17913D02*
D03*
X59252D02*
D03*
D16*
X73150Y37402D02*
D03*
X63898Y41142D02*
D03*
X70551Y28051D02*
D03*
X61299Y31791D02*
D03*
D17*
X73150Y44882D02*
D03*
X61299Y24311D02*
D03*
D18*
X75197Y26378D02*
D03*
Y32677D02*
D03*
X106791Y130473D02*
D03*
Y136772D02*
D03*
X108858Y147599D02*
D03*
Y141299D02*
D03*
X57480Y126339D02*
D03*
Y120039D02*
D03*
X106791Y126732D02*
D03*
Y120433D02*
D03*
D19*
X78740Y110787D02*
D03*
X60630D02*
D03*
X78740Y52520D02*
D03*
X60630D02*
D03*
X87992D02*
D03*
X106102D02*
D03*
X87992Y110787D02*
D03*
X106102D02*
D03*
X51378D02*
D03*
X33268D02*
D03*
X5906D02*
D03*
X24016D02*
D03*
X32874Y52520D02*
D03*
X50984D02*
D03*
X23228D02*
D03*
X5118D02*
D03*
D20*
X69685Y110787D02*
D03*
X69685Y52520D02*
D03*
X97047D02*
D03*
X97047Y110787D02*
D03*
X42323D02*
D03*
X14961D02*
D03*
X41929Y52520D02*
D03*
X14173D02*
D03*
D21*
X69685Y86378D02*
D03*
X69685Y76929D02*
D03*
X97047D02*
D03*
X97047Y86378D02*
D03*
X42323D02*
D03*
X14961D02*
D03*
X41929Y76929D02*
D03*
X14173D02*
D03*
D22*
X27657Y12677D02*
D03*
X23917Y3425D02*
D03*
X9941D02*
D03*
X13681Y12677D02*
D03*
X37500Y3425D02*
D03*
X41240Y12677D02*
D03*
X50000Y36162D02*
D03*
X53740Y45414D02*
D03*
X17028Y31378D02*
D03*
X20768Y40630D02*
D03*
D23*
X20177Y12677D02*
D03*
X6201D02*
D03*
X33760D02*
D03*
X57480Y36162D02*
D03*
X13287Y40630D02*
D03*
D24*
X31594Y76929D02*
D03*
X24508D02*
D03*
Y86969D02*
D03*
X31594D02*
D03*
X10630Y123583D02*
D03*
X3543D02*
D03*
Y133622D02*
D03*
X10630D02*
D03*
X87303Y86575D02*
D03*
X80216D02*
D03*
Y76535D02*
D03*
X87303D02*
D03*
D25*
X31594Y80374D02*
D03*
Y83524D02*
D03*
X24508D02*
D03*
Y80374D02*
D03*
X10630Y127028D02*
D03*
Y130177D02*
D03*
X3543D02*
D03*
Y127028D02*
D03*
X80216Y79980D02*
D03*
Y83130D02*
D03*
X87303D02*
D03*
Y79980D02*
D03*
D26*
X5433Y143661D02*
D03*
X10433D02*
D03*
X15433D02*
D03*
X20433D02*
D03*
X25433D02*
D03*
X30433D02*
D03*
X35433D02*
D03*
X40433D02*
D03*
X5433Y162559D02*
D03*
X10433D02*
D03*
X15433D02*
D03*
X20433D02*
D03*
X25433D02*
D03*
X30433D02*
D03*
X35433D02*
D03*
X40433D02*
D03*
X81870Y162756D02*
D03*
X76870D02*
D03*
X71870D02*
D03*
X66870D02*
D03*
X61870D02*
D03*
X56870D02*
D03*
X51870D02*
D03*
X46870D02*
D03*
X81870Y143858D02*
D03*
X76870D02*
D03*
X71870D02*
D03*
X66870D02*
D03*
X61870D02*
D03*
X56870D02*
D03*
X51870D02*
D03*
X46870D02*
D03*
X88465Y143858D02*
D03*
X93465D02*
D03*
X98465D02*
D03*
X103465D02*
D03*
X88465Y162756D02*
D03*
X93465D02*
D03*
X98465D02*
D03*
X103465D02*
D03*
D27*
X87008Y119134D02*
D03*
Y124134D02*
D03*
Y129134D02*
D03*
Y134134D02*
D03*
X68110Y119134D02*
D03*
Y124134D02*
D03*
Y129134D02*
D03*
Y134134D02*
D03*
X85237Y18681D02*
D03*
Y13681D02*
D03*
Y8681D02*
D03*
Y3681D02*
D03*
X104134Y18681D02*
D03*
Y13681D02*
D03*
Y8681D02*
D03*
Y3681D02*
D03*
X102363Y25532D02*
D03*
Y30531D02*
D03*
Y35531D02*
D03*
Y40532D02*
D03*
X83465Y25532D02*
D03*
Y30531D02*
D03*
Y35531D02*
D03*
Y40532D02*
D03*
D28*
X101969Y118858D02*
D03*
X94488D02*
D03*
X94390Y135492D02*
D03*
X101870D02*
D03*
D29*
X47087Y136575D02*
D03*
X53307D02*
D03*
X27520Y136673D02*
D03*
X21299D02*
D03*
D30*
X4921Y25059D02*
D03*
Y17579D02*
D03*
X11811D02*
D03*
Y25059D02*
D03*
X18701D02*
D03*
Y17579D02*
D03*
X25591D02*
D03*
Y25059D02*
D03*
X32480D02*
D03*
Y17579D02*
D03*
X39370D02*
D03*
Y25059D02*
D03*
X46260D02*
D03*
Y17579D02*
D03*
X53150D02*
D03*
Y25059D02*
D03*
X65650Y4094D02*
D03*
Y11575D02*
D03*
X58465Y11378D02*
D03*
Y3898D02*
D03*
D31*
X43406Y31358D02*
D03*
Y44350D02*
D03*
X6201Y43957D02*
D03*
Y30965D02*
D03*
X27362Y31358D02*
D03*
Y44350D02*
D03*
X35531D02*
D03*
Y31358D02*
D03*
D32*
X52953Y10984D02*
D03*
X46654D02*
D03*
X46555Y5374D02*
D03*
X52854D02*
D03*
X50492Y31457D02*
D03*
X56791D02*
D03*
X21358Y45335D02*
D03*
X15059D02*
D03*
X94980Y124961D02*
D03*
X101279D02*
D03*
X94980Y129882D02*
D03*
X101279D02*
D03*
D54*
X965Y1075D02*
D03*
D55*
X689Y7972D02*
D03*
D56*
X4232Y787D02*
D03*
D57*
X4467Y165475D02*
D03*
D58*
X57874Y168642D02*
D03*
D59*
X1286Y134077D02*
D03*
D60*
X1286Y65738D02*
D03*
D61*
X1280Y28878D02*
D03*
D62*
X110531Y52992D02*
D03*
D63*
X63091Y1024D02*
D03*
D64*
X37506Y3302D02*
D03*
X94101D02*
D03*
X99045D02*
D03*
D65*
X109406Y167525D02*
D03*
D66*
X110538Y158547D02*
D03*
D67*
X1856Y17067D02*
D03*
D68*
X96063Y7776D02*
Y13681D01*
X94101Y3302D02*
X94251Y3453D01*
Y5964D01*
X96063Y7776D01*
Y13681D02*
Y17643D01*
D69*
X83563Y47357D02*
Y59680D01*
X60565Y62467D02*
X80776D01*
X83563Y59680D01*
X84601Y46319D02*
X95039D01*
X83563Y47357D02*
X84601Y46319D01*
X59646Y102362D02*
X59646Y102362D01*
X59646Y102362D02*
Y104527D01*
X57579Y101476D02*
X58174Y102071D01*
X59355D01*
X59646Y102362D01*
X59646Y104527D02*
X65748D01*
X64205Y97347D02*
X85193D01*
X85642Y97795D01*
X90321D01*
X47047Y58524D02*
Y60197D01*
X44095Y55571D02*
X47047Y58524D01*
Y60197D02*
Y62559D01*
X15157Y55571D02*
X17352D01*
X14173Y52520D02*
Y54587D01*
X15157Y55571D01*
X17352D02*
X20501Y58720D01*
X27067Y58327D02*
X27165Y58425D01*
X65748Y104527D02*
X65748Y104528D01*
Y104783D01*
X69685Y108721D01*
X96063Y103537D02*
Y109803D01*
X90321Y97795D02*
X96063Y103537D01*
X62602Y95744D02*
X64205Y97347D01*
X25746Y102044D02*
X30923D01*
X96063Y109803D02*
X97047Y110787D01*
X23762Y102044D02*
X25746D01*
X23229Y102126D02*
X23679D01*
X20768D02*
X23229D01*
X23679D02*
X23762Y102044D01*
X30923D02*
X31294Y101673D01*
X53347Y58720D02*
X53365Y58739D01*
X53347Y61083D02*
Y63445D01*
Y61083D02*
X53365Y61064D01*
X50197Y60197D02*
Y62559D01*
X50197Y62559D01*
X53365Y58739D02*
X53797Y59171D01*
X41929Y54587D02*
X42913Y55571D01*
X44095D01*
X41929Y52520D02*
Y54587D01*
X50197Y64921D02*
X50197Y64921D01*
X52042Y66594D02*
X56083D01*
X50197Y62559D02*
Y64921D01*
X50480Y65032D02*
X52042Y66594D01*
X53365Y58739D02*
Y61064D01*
X68856Y53349D02*
Y57925D01*
X67611Y59171D02*
X68856Y57925D01*
Y53349D02*
X69685Y52520D01*
X53797Y59171D02*
X67611D01*
X60276Y62756D02*
X60565Y62467D01*
X56083Y66594D02*
X59921Y62756D01*
X60276D01*
X27067Y58327D02*
X27324D01*
Y60159D01*
X20501Y58720D02*
X26673D01*
X36024Y101673D02*
X41952Y95744D01*
X31294Y101673D02*
X36024D01*
X42323Y109256D02*
Y110787D01*
X41339Y108272D02*
X42323Y109256D01*
X39469Y108272D02*
X41339D01*
X39469Y108272D02*
X39469Y108272D01*
X39469Y106299D02*
Y108272D01*
X37598Y108699D02*
X39041D01*
X39469Y108272D01*
X41952Y95744D02*
X62602D01*
X69685Y108721D02*
Y110787D01*
X27362Y60197D02*
Y62461D01*
X27324Y60159D02*
X27362Y60197D01*
X10531Y110295D02*
X14961D01*
X97047Y48327D02*
Y52520D01*
X95039Y46319D02*
X97047Y48327D01*
X25433Y146811D02*
X25664D01*
X25433D02*
Y146811D01*
Y143661D02*
Y146319D01*
X20433Y146811D02*
X25433D01*
Y146319D02*
Y146811D01*
X65650Y12362D02*
Y12411D01*
X26156Y146319D02*
X27067D01*
X25664Y146811D02*
X26156Y146319D01*
X20433Y143661D02*
Y146811D01*
X10531Y107736D02*
Y110197D01*
D70*
X83209Y65512D02*
X84488Y64232D01*
X61063Y65512D02*
X83209D01*
X84488Y64232D02*
X88878D01*
X50246Y31703D02*
Y36163D01*
Y31703D02*
X50492Y31457D01*
X50246Y36163D02*
X53689Y39606D01*
X56811Y31476D02*
X56988Y31654D01*
Y34685D01*
X57480Y35177D01*
X62084Y36162D02*
X62910Y35335D01*
X66322Y34350D02*
X66535D01*
X62910Y35335D02*
X65338D01*
X66322Y34350D01*
X93701Y136673D02*
X94882Y135492D01*
Y136378D01*
X82461Y43563D02*
X99862D01*
X73150Y44882D02*
X81142D01*
X106102Y50453D02*
Y52520D01*
X101378Y45728D02*
X106102Y50453D01*
X101378Y45079D02*
Y45728D01*
X99862Y43563D02*
X101378Y45079D01*
X81142Y44882D02*
X82461Y43563D01*
X57480Y36162D02*
X62084D01*
X53740Y44390D02*
X54488Y45138D01*
X53740Y45414D02*
X54488Y46161D01*
Y45138D02*
Y46223D01*
X54724Y46459D01*
X54488Y46161D02*
Y46223D01*
X54724Y46459D02*
X66047D01*
X75295Y140709D02*
X76870D01*
Y143495D01*
X71129Y141102D02*
X71736Y140496D01*
X70768Y141102D02*
X70948D01*
X70768Y141072D02*
X70918D01*
X71870Y140630D02*
Y143858D01*
X68110Y124134D02*
X74311D01*
X6201Y44075D02*
X8858Y46732D01*
Y57848D01*
X7677Y59029D02*
Y59072D01*
Y59029D02*
X8858Y57848D01*
X30260Y68701D02*
X30260Y68701D01*
X48504D01*
X49154Y69350D01*
X24164Y68701D02*
X30260D01*
X49154Y69350D02*
X57225D01*
X61063Y65512D01*
X3953Y69449D02*
X5390Y68012D01*
X23377Y67913D02*
X24164Y68701D01*
X20728Y68012D02*
X20827Y67913D01*
X5390Y68012D02*
X20728D01*
X20827Y67913D02*
X23377D01*
X3740Y69449D02*
X3953D01*
X18268Y47835D02*
X18308Y47875D01*
Y47935D01*
X18268Y47835D02*
X19442Y46660D01*
X31890Y39725D02*
X31890Y39725D01*
X31890Y39725D02*
Y41339D01*
X33767Y36713D02*
X35437Y38382D01*
Y43445D01*
X28583Y36713D02*
X33767D01*
X20664Y32140D02*
X24348Y35824D01*
X27695D01*
X28583Y36713D01*
X29724Y33720D02*
Y33957D01*
X27362Y31358D02*
X29724Y33720D01*
X18577Y32140D02*
X20664D01*
X17815Y31378D02*
X18577Y32140D01*
X17815Y31378D02*
X17815Y31378D01*
X28829Y44400D02*
X31890Y41339D01*
X28002Y44400D02*
X28829D01*
X76870Y143858D02*
X77234Y143495D01*
Y140738D02*
X81506D01*
Y143495D02*
X81870Y143858D01*
X2461Y46204D02*
Y46417D01*
X40157Y147205D02*
Y147303D01*
Y143976D02*
Y147205D01*
X35917Y147196D02*
Y147612D01*
X2953Y40464D02*
X6201Y37216D01*
X2461Y46204D02*
X2953Y45712D01*
Y40464D02*
Y45712D01*
X76870Y143495D02*
Y143858D01*
X70948Y141102D02*
X71161Y141315D01*
X70918Y141072D02*
X70948Y141102D01*
X71129D01*
X71161Y141496D02*
X71383Y141718D01*
X71161Y141315D02*
Y141496D01*
X88878Y64232D02*
X93423Y68778D01*
X71736Y140496D02*
X71870Y140630D01*
X65099Y154980D02*
X83641D01*
X82663Y152618D02*
X83450Y151831D01*
X64120Y152618D02*
X82663D01*
X84176Y154446D02*
X91027D01*
X83641Y154980D02*
X84176Y154446D01*
X64311Y155768D02*
X65099Y154980D01*
X83450Y151831D02*
X88386D01*
X63333Y153405D02*
X64120Y152618D01*
X88386Y151831D02*
X90453Y149764D01*
X51471Y153405D02*
X63333D01*
X46870Y148805D02*
X51471Y153405D01*
X91027Y154446D02*
X98465Y147008D01*
X50492Y155768D02*
X64311D01*
X43504Y148780D02*
X50492Y155768D01*
X46870Y143858D02*
Y148805D01*
X43504Y138937D02*
Y148780D01*
X106791Y126732D02*
Y130473D01*
X53689Y39606D02*
X58483D01*
X45217Y44390D02*
X53740D01*
X17028Y31378D02*
Y39035D01*
X21457Y40728D02*
X21555Y40630D01*
X21457Y40728D02*
Y45236D01*
X21358Y45335D02*
X21457Y45236D01*
X15690Y143919D02*
Y147068D01*
X15433Y143661D02*
X15690Y143919D01*
X30415Y151259D02*
X30628D01*
X29449Y152224D02*
X30415Y151259D01*
X15846Y152224D02*
X29449D01*
X10433Y146811D02*
X15846Y152224D01*
X10433Y143661D02*
Y146811D01*
X56870Y143858D02*
X56880Y143849D01*
Y139144D02*
Y143849D01*
Y139144D02*
X56890Y139134D01*
X35433Y143661D02*
Y146713D01*
X30433Y143661D02*
X30472Y143701D01*
Y148026D01*
X30512Y148066D01*
X15690Y147068D02*
X18189Y149567D01*
X27362D01*
X27461Y149469D01*
X93701Y137559D02*
Y138015D01*
Y136673D02*
Y137559D01*
X88465Y138071D02*
Y143858D01*
Y138071D02*
X88878Y137657D01*
X93701Y137559D02*
X94882Y136378D01*
X92815Y137559D02*
X93701D01*
X92716Y137657D02*
X92815Y137559D01*
X88878Y137657D02*
X92716D01*
X93465Y138251D02*
X93701Y138015D01*
X93465Y138251D02*
Y143858D01*
X98465D02*
Y147008D01*
X21358Y45335D02*
Y45768D01*
X20768Y46358D02*
X21358Y45768D01*
X20335Y46358D02*
X20768D01*
X20033Y46660D02*
X20335Y46358D01*
X19442Y46660D02*
X20033D01*
X6201Y30965D02*
Y37216D01*
X33760Y12677D02*
Y16398D01*
X32579Y17579D02*
X33760Y16398D01*
X32480Y17579D02*
X32579D01*
X20177Y12677D02*
Y16398D01*
X18996Y17579D02*
X20177Y16398D01*
X18701Y17579D02*
X18996D01*
X6201Y12677D02*
Y16398D01*
X5020Y17579D02*
X6201Y16398D01*
X4921Y17579D02*
X5020D01*
X66870Y140709D02*
Y143858D01*
X40945Y136378D02*
X43504Y138937D01*
X33858Y136378D02*
X40945D01*
X44783Y43957D02*
X45217Y44390D01*
X27953Y44350D02*
X28002Y44400D01*
X6201Y43957D02*
Y44075D01*
D71*
X72866Y44598D02*
X73150Y44882D01*
X68721Y44598D02*
X72866D01*
X67922Y43799D02*
X68721Y44598D01*
X67815Y43799D02*
X67922D01*
X67815Y38575D02*
Y38681D01*
Y38575D02*
X69488Y36901D01*
Y35574D02*
Y36901D01*
X66043Y12067D02*
X67520Y10590D01*
X73347Y3681D02*
X85237D01*
X65650Y12411D02*
X66043D01*
X57529D02*
X65650D01*
X57028Y11378D02*
Y11703D01*
X89535Y30433D02*
X89784Y30682D01*
X58514Y4144D02*
X65600D01*
X57087Y126437D02*
X57480Y126043D01*
X39862Y31457D02*
X43898D01*
X69238Y35824D02*
Y36220D01*
Y35824D02*
X69488Y35574D01*
Y33127D02*
Y35574D01*
X69238Y32877D02*
X69488Y33127D01*
X69238Y32677D02*
Y32877D01*
Y32677D02*
X75197D01*
X94980Y124961D02*
Y129882D01*
X73051Y44882D02*
X73150D01*
X77342Y30531D02*
X79659D01*
X76024Y32244D02*
Y32283D01*
Y31850D02*
Y32244D01*
Y31850D02*
X77342Y30531D01*
X75630Y32677D02*
X76024Y32283D01*
X79659Y30607D02*
X80696D01*
X75197Y32677D02*
X75630D01*
X80696Y30607D02*
X80771Y30531D01*
X64415Y27854D02*
X69238Y32677D01*
X56831Y27854D02*
X64415D01*
X54035Y25059D02*
X56831Y27854D01*
X66451Y22598D02*
X67081Y23228D01*
X83465Y30531D02*
X89436D01*
X82382D02*
X83465D01*
X89784Y29370D02*
X90768Y28385D01*
X102166Y40532D02*
X105394D01*
X98918D02*
X102166D01*
Y35561D02*
X105384D01*
X73937Y45669D02*
X75197D01*
X77559Y48031D01*
Y51339D01*
X78740Y52520D01*
X63898Y41142D02*
X64492Y40548D01*
Y38363D02*
Y40548D01*
Y38363D02*
X64567Y38287D01*
X97101Y18681D02*
X103150D01*
X96063Y17643D02*
X97101Y18681D01*
X96063Y13681D02*
X103150D01*
X67081Y23228D02*
X77658D01*
X66043Y12411D02*
Y22190D01*
X57028Y11703D02*
Y11929D01*
X54921Y13484D02*
X56043Y12362D01*
X54921Y13484D02*
Y16594D01*
X56043Y12362D02*
X56595D01*
X57028Y11929D01*
X53150Y17579D02*
X53937D01*
X57028Y11378D02*
X58465D01*
X53937Y17579D02*
X54921Y16594D01*
X99532Y3982D02*
X99832Y3681D01*
X99532Y8508D02*
X99705Y8681D01*
X99832Y3681D02*
X101280D01*
X99532Y3982D02*
Y8508D01*
X66043Y11969D02*
Y12067D01*
X77658Y23228D02*
X79157Y24728D01*
X67520Y10590D02*
X67520D01*
X70866Y6161D02*
Y7244D01*
X67520Y10590D02*
X70866Y7244D01*
X79157Y25350D02*
X79349Y25541D01*
X82087D01*
X79157Y24728D02*
Y25350D01*
X60817Y18396D02*
Y23829D01*
X60335Y17913D02*
X60817Y18396D01*
Y23829D02*
X61299Y24311D01*
X73150Y44882D02*
X73937Y45669D01*
X61299Y24311D02*
X61398D01*
X89784Y30584D02*
Y30682D01*
Y29370D02*
Y30584D01*
X53150Y25059D02*
X54035D01*
X46260D02*
X53150D01*
X9941Y117776D02*
X10040D01*
X65650Y11575D02*
X66043Y11969D01*
X36909Y31457D02*
X39862D01*
Y45571D01*
X58465Y4193D02*
X58514Y4144D01*
X65600D02*
X65650Y4094D01*
X70866Y6161D02*
X73347Y3681D01*
X46260Y17579D02*
X53150D01*
X23917Y3425D02*
X36614D01*
X105413Y38051D02*
Y40512D01*
Y35591D02*
Y38051D01*
X105394Y40532D02*
X105413Y40512D01*
X105384Y35561D02*
X105413Y35591D01*
X102658Y28414D02*
Y30669D01*
X102549Y25541D02*
X102559Y25551D01*
X98927Y25541D02*
X102549D01*
X102559Y25551D02*
Y28209D01*
Y28315D02*
X102658Y28414D01*
X102559Y28209D02*
Y28315D01*
X98986Y30600D02*
X102589D01*
X102658Y30669D01*
X32579Y17579D02*
X39370D01*
X18996D02*
X25591D01*
X5020D02*
X11811D01*
X9941Y3425D02*
X23917D01*
X25379Y124785D02*
Y124808D01*
X50577Y126535D02*
X55789D01*
X55887Y126437D01*
X57087D01*
X39370Y25059D02*
X46260D01*
X32480D02*
X39370D01*
X25591D02*
X32480D01*
X18701D02*
X25591D01*
X11811D02*
X18701D01*
X4921D02*
X11811D01*
X39370Y17579D02*
X46260D01*
X25591D02*
X32480D01*
X11811D02*
X18701D01*
D72*
X74694Y41240D02*
X77844Y38091D01*
X63898Y41142D02*
X63996Y41240D01*
X74694D01*
X97835Y117972D02*
X98720Y118858D01*
X79232Y134311D02*
X82579Y137657D01*
X33088Y150112D02*
X34258D01*
X23622Y76240D02*
X24311Y76929D01*
X90059Y40256D02*
X90108D01*
X87894Y38091D02*
X90059Y40256D01*
X21299Y136673D02*
X24350Y133622D01*
X20216Y137756D02*
X21299Y136673D01*
X77844Y38091D02*
X79547D01*
X24213Y76929D02*
X24311D01*
X24350Y133622D02*
X43327D01*
X45197Y135492D02*
X46004D01*
X43327Y133622D02*
X45197Y135492D01*
X46004D02*
X47087Y136575D01*
X98720Y118858D02*
X101969D01*
X41339Y154269D02*
X43625Y156555D01*
X41339Y150453D02*
Y154269D01*
X44094Y156555D02*
X46870Y159331D01*
X43625Y156555D02*
X44094D01*
X41142Y150256D02*
X41339Y150453D01*
X40945Y150059D02*
X41142Y150256D01*
X46870Y159331D02*
Y162756D01*
X40945Y149862D02*
Y150059D01*
X34258Y150112D02*
X34508Y149862D01*
X40945D01*
X80216Y83130D02*
Y86575D01*
Y79980D02*
Y83130D01*
Y76535D02*
Y79980D01*
Y72008D02*
Y76535D01*
Y72008D02*
X80315Y71909D01*
X24508Y83524D02*
Y86969D01*
Y80374D02*
Y83524D01*
Y76929D02*
Y80374D01*
X24311Y76929D02*
X24508D01*
X82579Y137657D02*
X88878D01*
X79232Y132064D02*
Y134311D01*
X77950Y133346D02*
X79232Y132064D01*
X78642Y128012D02*
X79232Y128602D01*
X74019Y133346D02*
X77950D01*
X79331Y128602D02*
Y132064D01*
X73231Y134134D02*
X74019Y133346D01*
X68110Y134134D02*
X73231D01*
X68110Y129134D02*
X74590D01*
X19895Y137756D02*
X20216D01*
X19698Y137953D02*
X19895Y137756D01*
X8783Y137953D02*
X19698D01*
X8586Y138150D02*
X8783Y137953D01*
X5342Y138150D02*
X8586D01*
X4823Y138669D02*
X5342Y138150D01*
X4823Y138669D02*
Y143642D01*
X4843Y143661D01*
X46870Y143858D02*
X46978Y143750D01*
Y136683D02*
Y143750D01*
Y136683D02*
X47087Y136575D01*
D73*
X99114Y66201D02*
Y68661D01*
X98917Y63740D02*
Y66201D01*
D74*
X80315Y71909D02*
X80315Y71909D01*
X80315Y71909D02*
X80350D01*
D75*
X80097Y57780D02*
D03*
X82776Y43701D02*
D03*
X84350Y40551D02*
D03*
X91339Y8957D02*
D03*
X90847Y22343D02*
D03*
X67716Y43799D02*
D03*
X67815Y38681D02*
D03*
X81496Y21850D02*
D03*
X86221Y19587D02*
D03*
X66535Y34350D02*
D03*
X96063Y43110D02*
D03*
X101378Y45079D02*
D03*
X91585Y40256D02*
D03*
X66634Y24803D02*
D03*
X82480Y35433D02*
D03*
X81559Y30501D02*
D03*
X64567Y38287D02*
D03*
X63287Y24606D02*
D03*
X81890Y15354D02*
D03*
X77067Y9055D02*
D03*
X65948Y46459D02*
D03*
X100591Y105315D02*
D03*
X56496Y84153D02*
D03*
X47047Y65945D02*
D03*
X7677Y59072D02*
D03*
X85138Y100984D02*
D03*
X91142Y110039D02*
D03*
X91186Y112469D02*
D03*
X59646Y104527D02*
D03*
X57579Y101476D02*
D03*
X95866Y96457D02*
D03*
X6693Y102559D02*
D03*
X9055Y102657D02*
D03*
X4331Y79331D02*
D03*
Y81890D02*
D03*
X53347Y58720D02*
D03*
X47047Y60197D02*
D03*
Y57835D02*
D03*
X53347Y61083D02*
D03*
X50197Y62559D02*
D03*
X47047Y62559D02*
D03*
X23130Y76870D02*
D03*
X21654Y70768D02*
D03*
X18799Y52362D02*
D03*
X21063Y61909D02*
D03*
X19587Y65256D02*
D03*
X39469Y106102D02*
D03*
X39469Y108272D02*
D03*
X37402Y108699D02*
D03*
X55413Y104002D02*
D03*
X59646Y102362D02*
D03*
X36909Y95768D02*
D03*
X66736Y94197D02*
D03*
X63602Y68386D02*
D03*
X29051Y97235D02*
D03*
X31202Y86422D02*
D03*
X28051Y86096D02*
D03*
X23033Y73626D02*
D03*
X27362Y62461D02*
D03*
X53347Y63445D02*
D03*
X50197Y60197D02*
D03*
X28051Y82797D02*
D03*
X16339Y61614D02*
D03*
X19094Y41437D02*
D03*
X18210Y47935D02*
D03*
X31890Y39725D02*
D03*
X29724Y33957D02*
D03*
X33860Y96855D02*
D03*
X25000Y92126D02*
D03*
X25746Y102126D02*
D03*
X36696Y116316D02*
D03*
X37402Y111848D02*
D03*
X12889Y110246D02*
D03*
X82874Y71417D02*
D03*
X85039Y148878D02*
D03*
X33546Y149631D02*
D03*
X50577Y126535D02*
D03*
X98474Y118219D02*
D03*
X98130Y127421D02*
D03*
X81890Y137067D02*
D03*
X88878Y137657D02*
D03*
X85039Y158524D02*
D03*
X99213Y94842D02*
D03*
X106825Y143603D02*
D03*
X2756Y84902D02*
D03*
X108957Y156555D02*
D03*
Y151634D02*
D03*
Y154193D02*
D03*
X2756Y88051D02*
D03*
X3740Y69449D02*
D03*
X27362Y60098D02*
D03*
X2657Y46417D02*
D03*
X3248Y104488D02*
D03*
X3461Y101257D02*
D03*
X3067Y98107D02*
D03*
X2969Y94957D02*
D03*
X2953Y91693D02*
D03*
X60138Y3012D02*
D03*
X63091Y3012D02*
D03*
X80709Y123976D02*
D03*
X94705Y68972D02*
D03*
X74311Y124075D02*
D03*
X70768Y140709D02*
D03*
X85433Y67185D02*
D03*
X88189Y75453D02*
D03*
X87914Y102635D02*
D03*
X9154Y153504D02*
D03*
X76890Y157755D02*
D03*
X71870D02*
D03*
X66948D02*
D03*
X55315Y150551D02*
D03*
X56693Y158721D02*
D03*
X61614D02*
D03*
X44685Y153996D02*
D03*
X93504Y127421D02*
D03*
X86221Y61476D02*
D03*
X100295Y154193D02*
D03*
X58483Y40033D02*
D03*
X90768Y28385D02*
D03*
X90571Y30584D02*
D03*
X51181Y136083D02*
D03*
X41142Y150256D02*
D03*
X56890Y139134D02*
D03*
X90453Y149764D02*
D03*
X36097Y147279D02*
D03*
X40945Y159016D02*
D03*
X38780Y152421D02*
D03*
X35549Y152440D02*
D03*
X30628Y151259D02*
D03*
X30512Y148066D02*
D03*
X13583Y166102D02*
D03*
X27461Y149469D02*
D03*
X27067Y146319D02*
D03*
X8662Y166201D02*
D03*
X17028Y39035D02*
D03*
X105413Y35591D02*
D03*
Y38051D02*
D03*
Y40512D02*
D03*
X102559Y28209D02*
D03*
X102658Y30669D02*
D03*
X102559Y25551D02*
D03*
X88189Y93071D02*
D03*
X76673Y130669D02*
D03*
X75374Y135906D02*
D03*
X78150Y137756D02*
D03*
X75295Y140709D02*
D03*
X66870Y140709D02*
D03*
X61959Y140364D02*
D03*
X25197Y124764D02*
D03*
X22343Y121713D02*
D03*
X18504Y116201D02*
D03*
X14485Y129604D02*
D03*
X8425Y135394D02*
D03*
X7087Y132262D02*
D03*
X25098Y136772D02*
D03*
X33858Y136378D02*
D03*
X51968Y123583D02*
D03*
X61319Y118366D02*
D03*
X40157Y147205D02*
D03*
X15453Y116988D02*
D03*
X7087Y129112D02*
D03*
X10531Y110197D02*
D03*
Y107736D02*
D03*
X51870Y140807D02*
D03*
X20768Y102126D02*
D03*
X23229D02*
D03*
X86221Y79980D02*
D03*
X98622Y58819D02*
D03*
X98622Y61280D02*
D03*
X98622Y63740D02*
D03*
X98622Y66201D02*
D03*
X98622Y68661D02*
D03*
X63681Y55866D02*
D03*
X27362Y58031D02*
D03*
X50197Y64921D02*
D03*
M02*
