G04 #@! TF.GenerationSoftware,KiCad,Pcbnew,7.0.9*
G04 #@! TF.CreationDate,2024-03-27T08:03:58+03:00*
G04 #@! TF.ProjectId,hellen1-vr-discrete,68656c6c-656e-4312-9d76-722d64697363,rev?*
G04 #@! TF.SameCoordinates,PX4a19ba0PY5aa5910*
G04 #@! TF.FileFunction,Copper,L1,Top*
G04 #@! TF.FilePolarity,Positive*
%FSLAX46Y46*%
G04 Gerber Fmt 4.6, Leading zero omitted, Abs format (unit mm)*
G04 Created by KiCad (PCBNEW 7.0.9) date 2024-03-27 08:03:58*
%MOMM*%
%LPD*%
G01*
G04 APERTURE LIST*
G04 #@! TA.AperFunction,ComponentPad*
%ADD10C,0.600000*%
G04 #@! TD*
G04 #@! TA.AperFunction,SMDPad,CuDef*
%ADD11R,0.250000X6.185000*%
G04 #@! TD*
G04 #@! TA.AperFunction,SMDPad,CuDef*
%ADD12R,0.250000X1.115000*%
G04 #@! TD*
G04 #@! TA.AperFunction,SMDPad,CuDef*
%ADD13R,14.275000X0.250000*%
G04 #@! TD*
G04 #@! TA.AperFunction,SMDPad,CuDef*
%ADD14R,15.100000X0.250000*%
G04 #@! TD*
G04 #@! TA.AperFunction,SMDPad,CuDef*
%ADD15R,0.250000X5.175000*%
G04 #@! TD*
G04 #@! TA.AperFunction,SMDPad,CuDef*
%ADD16R,0.650000X0.400000*%
G04 #@! TD*
G04 #@! TA.AperFunction,SMDPad,CuDef*
%ADD17R,0.400000X0.650000*%
G04 #@! TD*
G04 #@! TA.AperFunction,ViaPad*
%ADD18C,0.600000*%
G04 #@! TD*
G04 #@! TA.AperFunction,Conductor*
%ADD19C,0.250000*%
G04 #@! TD*
G04 APERTURE END LIST*
D10*
G04 #@! TO.P,M750,E1,Thresh_IN*
G04 #@! TO.N,thresh_input*
X14800000Y6900000D03*
G04 #@! TO.P,M750,E2,OUT_A*
G04 #@! TO.N,analog_out*
X14800000Y5700000D03*
G04 #@! TO.P,M750,E3,OUT*
G04 #@! TO.N,output*
X14800000Y8100000D03*
G04 #@! TO.P,M750,E4,V5_IN*
G04 #@! TO.N,+5V*
X14800000Y9300000D03*
D11*
G04 #@! TO.P,M750,G,GND*
G04 #@! TO.N,GND*
X150000Y6632500D03*
D12*
X150000Y582500D03*
D13*
X7162500Y9600000D03*
D14*
X7575000Y150000D03*
D15*
X15000000Y2612500D03*
D10*
G04 #@! TO.P,M750,W1,VR-*
G04 #@! TO.N,VR-*
X375000Y2840000D03*
G04 #@! TO.P,M750,W2,VR+*
G04 #@! TO.N,VR+*
X375000Y1840000D03*
G04 #@! TD*
G04 #@! TO.P,R770,2*
G04 #@! TO.N,Net-(U751-IO2)*
G04 #@! TA.AperFunction,SMDPad,CuDef*
G36*
G01*
X4430000Y4475000D02*
X4430000Y4845000D01*
G75*
G02*
X4565000Y4980000I135000J0D01*
G01*
X4835000Y4980000D01*
G75*
G02*
X4970000Y4845000I0J-135000D01*
G01*
X4970000Y4475000D01*
G75*
G02*
X4835000Y4340000I-135000J0D01*
G01*
X4565000Y4340000D01*
G75*
G02*
X4430000Y4475000I0J135000D01*
G01*
G37*
G04 #@! TD.AperFunction*
G04 #@! TO.P,R770,1*
G04 #@! TO.N,Net-(U751-IO1)*
G04 #@! TA.AperFunction,SMDPad,CuDef*
G36*
G01*
X3410000Y4475000D02*
X3410000Y4845000D01*
G75*
G02*
X3545000Y4980000I135000J0D01*
G01*
X3815000Y4980000D01*
G75*
G02*
X3950000Y4845000I0J-135000D01*
G01*
X3950000Y4475000D01*
G75*
G02*
X3815000Y4340000I-135000J0D01*
G01*
X3545000Y4340000D01*
G75*
G02*
X3410000Y4475000I0J135000D01*
G01*
G37*
G04 #@! TD.AperFunction*
G04 #@! TD*
G04 #@! TO.P,R764,1*
G04 #@! TO.N,Net-(R763-Pad1)*
G04 #@! TA.AperFunction,SMDPad,CuDef*
G36*
G01*
X10335000Y490000D02*
X9965000Y490000D01*
G75*
G02*
X9830000Y625000I0J135000D01*
G01*
X9830000Y895000D01*
G75*
G02*
X9965000Y1030000I135000J0D01*
G01*
X10335000Y1030000D01*
G75*
G02*
X10470000Y895000I0J-135000D01*
G01*
X10470000Y625000D01*
G75*
G02*
X10335000Y490000I-135000J0D01*
G01*
G37*
G04 #@! TD.AperFunction*
G04 #@! TO.P,R764,2*
G04 #@! TO.N,thresh_high*
G04 #@! TA.AperFunction,SMDPad,CuDef*
G36*
G01*
X10335000Y1510000D02*
X9965000Y1510000D01*
G75*
G02*
X9830000Y1645000I0J135000D01*
G01*
X9830000Y1915000D01*
G75*
G02*
X9965000Y2050000I135000J0D01*
G01*
X10335000Y2050000D01*
G75*
G02*
X10470000Y1915000I0J-135000D01*
G01*
X10470000Y1645000D01*
G75*
G02*
X10335000Y1510000I-135000J0D01*
G01*
G37*
G04 #@! TD.AperFunction*
G04 #@! TD*
G04 #@! TO.P,U754,1*
G04 #@! TO.N,Net-(C756-Pad2)*
G04 #@! TA.AperFunction,SMDPad,CuDef*
G36*
G01*
X7548030Y8705000D02*
X7548030Y9005000D01*
G75*
G02*
X7698030Y9155000I150000J0D01*
G01*
X9348030Y9155000D01*
G75*
G02*
X9498030Y9005000I0J-150000D01*
G01*
X9498030Y8705000D01*
G75*
G02*
X9348030Y8555000I-150000J0D01*
G01*
X7698030Y8555000D01*
G75*
G02*
X7548030Y8705000I0J150000D01*
G01*
G37*
G04 #@! TD.AperFunction*
G04 #@! TO.P,U754,2,-*
G04 #@! TO.N,Net-(U754A--)*
G04 #@! TA.AperFunction,SMDPad,CuDef*
G36*
G01*
X7548030Y7435000D02*
X7548030Y7735000D01*
G75*
G02*
X7698030Y7885000I150000J0D01*
G01*
X9348030Y7885000D01*
G75*
G02*
X9498030Y7735000I0J-150000D01*
G01*
X9498030Y7435000D01*
G75*
G02*
X9348030Y7285000I-150000J0D01*
G01*
X7698030Y7285000D01*
G75*
G02*
X7548030Y7435000I0J150000D01*
G01*
G37*
G04 #@! TD.AperFunction*
G04 #@! TO.P,U754,3,+*
G04 #@! TO.N,analog_out*
G04 #@! TA.AperFunction,SMDPad,CuDef*
G36*
G01*
X7548030Y6165000D02*
X7548030Y6465000D01*
G75*
G02*
X7698030Y6615000I150000J0D01*
G01*
X9348030Y6615000D01*
G75*
G02*
X9498030Y6465000I0J-150000D01*
G01*
X9498030Y6165000D01*
G75*
G02*
X9348030Y6015000I-150000J0D01*
G01*
X7698030Y6015000D01*
G75*
G02*
X7548030Y6165000I0J150000D01*
G01*
G37*
G04 #@! TD.AperFunction*
G04 #@! TO.P,U754,4,V-*
G04 #@! TO.N,GND*
G04 #@! TA.AperFunction,SMDPad,CuDef*
G36*
G01*
X7548030Y4895000D02*
X7548030Y5195000D01*
G75*
G02*
X7698030Y5345000I150000J0D01*
G01*
X9348030Y5345000D01*
G75*
G02*
X9498030Y5195000I0J-150000D01*
G01*
X9498030Y4895000D01*
G75*
G02*
X9348030Y4745000I-150000J0D01*
G01*
X7698030Y4745000D01*
G75*
G02*
X7548030Y4895000I0J150000D01*
G01*
G37*
G04 #@! TD.AperFunction*
G04 #@! TO.P,U754,5,+*
G04 #@! TO.N,Net-(U754B-+)*
G04 #@! TA.AperFunction,SMDPad,CuDef*
G36*
G01*
X12498030Y4895000D02*
X12498030Y5195000D01*
G75*
G02*
X12648030Y5345000I150000J0D01*
G01*
X14298030Y5345000D01*
G75*
G02*
X14448030Y5195000I0J-150000D01*
G01*
X14448030Y4895000D01*
G75*
G02*
X14298030Y4745000I-150000J0D01*
G01*
X12648030Y4745000D01*
G75*
G02*
X12498030Y4895000I0J150000D01*
G01*
G37*
G04 #@! TD.AperFunction*
G04 #@! TO.P,U754,6,_*
G04 #@! TO.N,analog_out*
G04 #@! TA.AperFunction,SMDPad,CuDef*
G36*
G01*
X12498030Y6165000D02*
X12498030Y6465000D01*
G75*
G02*
X12648030Y6615000I150000J0D01*
G01*
X14298030Y6615000D01*
G75*
G02*
X14448030Y6465000I0J-150000D01*
G01*
X14448030Y6165000D01*
G75*
G02*
X14298030Y6015000I-150000J0D01*
G01*
X12648030Y6015000D01*
G75*
G02*
X12498030Y6165000I0J150000D01*
G01*
G37*
G04 #@! TD.AperFunction*
G04 #@! TO.P,U754,7*
G04 #@! TO.N,Net-(C757-Pad2)*
G04 #@! TA.AperFunction,SMDPad,CuDef*
G36*
G01*
X12498030Y7435000D02*
X12498030Y7735000D01*
G75*
G02*
X12648030Y7885000I150000J0D01*
G01*
X14298030Y7885000D01*
G75*
G02*
X14448030Y7735000I0J-150000D01*
G01*
X14448030Y7435000D01*
G75*
G02*
X14298030Y7285000I-150000J0D01*
G01*
X12648030Y7285000D01*
G75*
G02*
X12498030Y7435000I0J150000D01*
G01*
G37*
G04 #@! TD.AperFunction*
G04 #@! TO.P,U754,8,V+*
G04 #@! TO.N,+5V*
G04 #@! TA.AperFunction,SMDPad,CuDef*
G36*
G01*
X12498030Y8705000D02*
X12498030Y9005000D01*
G75*
G02*
X12648030Y9155000I150000J0D01*
G01*
X14298030Y9155000D01*
G75*
G02*
X14448030Y9005000I0J-150000D01*
G01*
X14448030Y8705000D01*
G75*
G02*
X14298030Y8555000I-150000J0D01*
G01*
X12648030Y8555000D01*
G75*
G02*
X12498030Y8705000I0J150000D01*
G01*
G37*
G04 #@! TD.AperFunction*
G04 #@! TD*
D16*
G04 #@! TO.P,U755,1*
G04 #@! TO.N,thresh_low*
X3860000Y8890000D03*
G04 #@! TO.P,U755,2,GND*
G04 #@! TO.N,GND*
X3860000Y8240000D03*
G04 #@! TO.P,U755,3*
G04 #@! TO.N,Vref*
X3860000Y7590000D03*
G04 #@! TO.P,U755,4*
G04 #@! TO.N,Net-(U754A--)*
X5760000Y7590000D03*
G04 #@! TO.P,U755,5,V+*
G04 #@! TO.N,+5V*
X5760000Y8240000D03*
G04 #@! TO.P,U755,6*
G04 #@! TO.N,Net-(C756-Pad2)*
X5760000Y8890000D03*
G04 #@! TD*
G04 #@! TO.P,R767,1*
G04 #@! TO.N,+5V*
G04 #@! TA.AperFunction,SMDPad,CuDef*
G36*
G01*
X7965000Y4041593D02*
X8335000Y4041593D01*
G75*
G02*
X8470000Y3906593I0J-135000D01*
G01*
X8470000Y3636593D01*
G75*
G02*
X8335000Y3501593I-135000J0D01*
G01*
X7965000Y3501593D01*
G75*
G02*
X7830000Y3636593I0J135000D01*
G01*
X7830000Y3906593D01*
G75*
G02*
X7965000Y4041593I135000J0D01*
G01*
G37*
G04 #@! TD.AperFunction*
G04 #@! TO.P,R767,2*
G04 #@! TO.N,Net-(U753A-+)*
G04 #@! TA.AperFunction,SMDPad,CuDef*
G36*
G01*
X7965000Y3021593D02*
X8335000Y3021593D01*
G75*
G02*
X8470000Y2886593I0J-135000D01*
G01*
X8470000Y2616593D01*
G75*
G02*
X8335000Y2481593I-135000J0D01*
G01*
X7965000Y2481593D01*
G75*
G02*
X7830000Y2616593I0J135000D01*
G01*
X7830000Y2886593D01*
G75*
G02*
X7965000Y3021593I135000J0D01*
G01*
G37*
G04 #@! TD.AperFunction*
G04 #@! TD*
G04 #@! TO.P,C759,1*
G04 #@! TO.N,Net-(U753A-+)*
G04 #@! TA.AperFunction,SMDPad,CuDef*
G36*
G01*
X9320000Y2501593D02*
X8980000Y2501593D01*
G75*
G02*
X8840000Y2641593I0J140000D01*
G01*
X8840000Y2921593D01*
G75*
G02*
X8980000Y3061593I140000J0D01*
G01*
X9320000Y3061593D01*
G75*
G02*
X9460000Y2921593I0J-140000D01*
G01*
X9460000Y2641593D01*
G75*
G02*
X9320000Y2501593I-140000J0D01*
G01*
G37*
G04 #@! TD.AperFunction*
G04 #@! TO.P,C759,2*
G04 #@! TO.N,GND*
G04 #@! TA.AperFunction,SMDPad,CuDef*
G36*
G01*
X9320000Y3461593D02*
X8980000Y3461593D01*
G75*
G02*
X8840000Y3601593I0J140000D01*
G01*
X8840000Y3881593D01*
G75*
G02*
X8980000Y4021593I140000J0D01*
G01*
X9320000Y4021593D01*
G75*
G02*
X9460000Y3881593I0J-140000D01*
G01*
X9460000Y3601593D01*
G75*
G02*
X9320000Y3461593I-140000J0D01*
G01*
G37*
G04 #@! TD.AperFunction*
G04 #@! TD*
G04 #@! TO.P,R769,1*
G04 #@! TO.N,Net-(U753A--)*
G04 #@! TA.AperFunction,SMDPad,CuDef*
G36*
G01*
X8335000Y490000D02*
X7965000Y490000D01*
G75*
G02*
X7830000Y625000I0J135000D01*
G01*
X7830000Y895000D01*
G75*
G02*
X7965000Y1030000I135000J0D01*
G01*
X8335000Y1030000D01*
G75*
G02*
X8470000Y895000I0J-135000D01*
G01*
X8470000Y625000D01*
G75*
G02*
X8335000Y490000I-135000J0D01*
G01*
G37*
G04 #@! TD.AperFunction*
G04 #@! TO.P,R769,2*
G04 #@! TO.N,Vref*
G04 #@! TA.AperFunction,SMDPad,CuDef*
G36*
G01*
X8335000Y1510000D02*
X7965000Y1510000D01*
G75*
G02*
X7830000Y1645000I0J135000D01*
G01*
X7830000Y1915000D01*
G75*
G02*
X7965000Y2050000I135000J0D01*
G01*
X8335000Y2050000D01*
G75*
G02*
X8470000Y1915000I0J-135000D01*
G01*
X8470000Y1645000D01*
G75*
G02*
X8335000Y1510000I-135000J0D01*
G01*
G37*
G04 #@! TD.AperFunction*
G04 #@! TD*
G04 #@! TO.P,C758,1*
G04 #@! TO.N,thresh_high*
G04 #@! TA.AperFunction,SMDPad,CuDef*
G36*
G01*
X11280000Y2030000D02*
X11620000Y2030000D01*
G75*
G02*
X11760000Y1890000I0J-140000D01*
G01*
X11760000Y1610000D01*
G75*
G02*
X11620000Y1470000I-140000J0D01*
G01*
X11280000Y1470000D01*
G75*
G02*
X11140000Y1610000I0J140000D01*
G01*
X11140000Y1890000D01*
G75*
G02*
X11280000Y2030000I140000J0D01*
G01*
G37*
G04 #@! TD.AperFunction*
G04 #@! TO.P,C758,2*
G04 #@! TO.N,GND*
G04 #@! TA.AperFunction,SMDPad,CuDef*
G36*
G01*
X11280000Y1070000D02*
X11620000Y1070000D01*
G75*
G02*
X11760000Y930000I0J-140000D01*
G01*
X11760000Y650000D01*
G75*
G02*
X11620000Y510000I-140000J0D01*
G01*
X11280000Y510000D01*
G75*
G02*
X11140000Y650000I0J140000D01*
G01*
X11140000Y930000D01*
G75*
G02*
X11280000Y1070000I140000J0D01*
G01*
G37*
G04 #@! TD.AperFunction*
G04 #@! TD*
G04 #@! TO.P,C751,1*
G04 #@! TO.N,Net-(U751-IO1)*
G04 #@! TA.AperFunction,SMDPad,CuDef*
G36*
G01*
X5405000Y3010000D02*
X5745000Y3010000D01*
G75*
G02*
X5885000Y2870000I0J-140000D01*
G01*
X5885000Y2590000D01*
G75*
G02*
X5745000Y2450000I-140000J0D01*
G01*
X5405000Y2450000D01*
G75*
G02*
X5265000Y2590000I0J140000D01*
G01*
X5265000Y2870000D01*
G75*
G02*
X5405000Y3010000I140000J0D01*
G01*
G37*
G04 #@! TD.AperFunction*
G04 #@! TO.P,C751,2*
G04 #@! TO.N,Net-(U751-IO2)*
G04 #@! TA.AperFunction,SMDPad,CuDef*
G36*
G01*
X5405000Y2050000D02*
X5745000Y2050000D01*
G75*
G02*
X5885000Y1910000I0J-140000D01*
G01*
X5885000Y1630000D01*
G75*
G02*
X5745000Y1490000I-140000J0D01*
G01*
X5405000Y1490000D01*
G75*
G02*
X5265000Y1630000I0J140000D01*
G01*
X5265000Y1910000D01*
G75*
G02*
X5405000Y2050000I140000J0D01*
G01*
G37*
G04 #@! TD.AperFunction*
G04 #@! TD*
G04 #@! TO.P,R755,1*
G04 #@! TO.N,Net-(U753B--)*
G04 #@! TA.AperFunction,SMDPad,CuDef*
G36*
G01*
X6870000Y3835000D02*
X6870000Y3465000D01*
G75*
G02*
X6735000Y3330000I-135000J0D01*
G01*
X6465000Y3330000D01*
G75*
G02*
X6330000Y3465000I0J135000D01*
G01*
X6330000Y3835000D01*
G75*
G02*
X6465000Y3970000I135000J0D01*
G01*
X6735000Y3970000D01*
G75*
G02*
X6870000Y3835000I0J-135000D01*
G01*
G37*
G04 #@! TD.AperFunction*
G04 #@! TO.P,R755,2*
G04 #@! TO.N,Net-(U751-IO1)*
G04 #@! TA.AperFunction,SMDPad,CuDef*
G36*
G01*
X5850000Y3835000D02*
X5850000Y3465000D01*
G75*
G02*
X5715000Y3330000I-135000J0D01*
G01*
X5445000Y3330000D01*
G75*
G02*
X5310000Y3465000I0J135000D01*
G01*
X5310000Y3835000D01*
G75*
G02*
X5445000Y3970000I135000J0D01*
G01*
X5715000Y3970000D01*
G75*
G02*
X5850000Y3835000I0J-135000D01*
G01*
G37*
G04 #@! TD.AperFunction*
G04 #@! TD*
G04 #@! TO.P,C769,1*
G04 #@! TO.N,GND*
G04 #@! TA.AperFunction,SMDPad,CuDef*
G36*
G01*
X14700000Y4020000D02*
X14700000Y3680000D01*
G75*
G02*
X14560000Y3540000I-140000J0D01*
G01*
X14280000Y3540000D01*
G75*
G02*
X14140000Y3680000I0J140000D01*
G01*
X14140000Y4020000D01*
G75*
G02*
X14280000Y4160000I140000J0D01*
G01*
X14560000Y4160000D01*
G75*
G02*
X14700000Y4020000I0J-140000D01*
G01*
G37*
G04 #@! TD.AperFunction*
G04 #@! TO.P,C769,2*
G04 #@! TO.N,Net-(U754B-+)*
G04 #@! TA.AperFunction,SMDPad,CuDef*
G36*
G01*
X13740000Y4020000D02*
X13740000Y3680000D01*
G75*
G02*
X13600000Y3540000I-140000J0D01*
G01*
X13320000Y3540000D01*
G75*
G02*
X13180000Y3680000I0J140000D01*
G01*
X13180000Y4020000D01*
G75*
G02*
X13320000Y4160000I140000J0D01*
G01*
X13600000Y4160000D01*
G75*
G02*
X13740000Y4020000I0J-140000D01*
G01*
G37*
G04 #@! TD.AperFunction*
G04 #@! TD*
G04 #@! TO.P,D751,2,A*
G04 #@! TO.N,output*
G04 #@! TA.AperFunction,SMDPad,CuDef*
G36*
G01*
X2240000Y5483750D02*
X2240000Y5996250D01*
G75*
G02*
X2458750Y6215000I218750J0D01*
G01*
X2896250Y6215000D01*
G75*
G02*
X3115000Y5996250I0J-218750D01*
G01*
X3115000Y5483750D01*
G75*
G02*
X2896250Y5265000I-218750J0D01*
G01*
X2458750Y5265000D01*
G75*
G02*
X2240000Y5483750I0J218750D01*
G01*
G37*
G04 #@! TD.AperFunction*
G04 #@! TO.P,D751,1,K*
G04 #@! TO.N,Net-(D751-K)*
G04 #@! TA.AperFunction,SMDPad,CuDef*
G36*
G01*
X665000Y5483750D02*
X665000Y5996250D01*
G75*
G02*
X883750Y6215000I218750J0D01*
G01*
X1321250Y6215000D01*
G75*
G02*
X1540000Y5996250I0J-218750D01*
G01*
X1540000Y5483750D01*
G75*
G02*
X1321250Y5265000I-218750J0D01*
G01*
X883750Y5265000D01*
G75*
G02*
X665000Y5483750I0J218750D01*
G01*
G37*
G04 #@! TD.AperFunction*
G04 #@! TD*
G04 #@! TO.P,C768,1*
G04 #@! TO.N,GND*
G04 #@! TA.AperFunction,SMDPad,CuDef*
G36*
G01*
X7010000Y6810000D02*
X6670000Y6810000D01*
G75*
G02*
X6530000Y6950000I0J140000D01*
G01*
X6530000Y7230000D01*
G75*
G02*
X6670000Y7370000I140000J0D01*
G01*
X7010000Y7370000D01*
G75*
G02*
X7150000Y7230000I0J-140000D01*
G01*
X7150000Y6950000D01*
G75*
G02*
X7010000Y6810000I-140000J0D01*
G01*
G37*
G04 #@! TD.AperFunction*
G04 #@! TO.P,C768,2*
G04 #@! TO.N,Net-(U754A--)*
G04 #@! TA.AperFunction,SMDPad,CuDef*
G36*
G01*
X7010000Y7770000D02*
X6670000Y7770000D01*
G75*
G02*
X6530000Y7910000I0J140000D01*
G01*
X6530000Y8190000D01*
G75*
G02*
X6670000Y8330000I140000J0D01*
G01*
X7010000Y8330000D01*
G75*
G02*
X7150000Y8190000I0J-140000D01*
G01*
X7150000Y7910000D01*
G75*
G02*
X7010000Y7770000I-140000J0D01*
G01*
G37*
G04 #@! TD.AperFunction*
G04 #@! TD*
G04 #@! TO.P,R751,1*
G04 #@! TO.N,GND*
G04 #@! TA.AperFunction,SMDPad,CuDef*
G36*
G01*
X2530000Y7535000D02*
X2530000Y7165000D01*
G75*
G02*
X2395000Y7030000I-135000J0D01*
G01*
X2125000Y7030000D01*
G75*
G02*
X1990000Y7165000I0J135000D01*
G01*
X1990000Y7535000D01*
G75*
G02*
X2125000Y7670000I135000J0D01*
G01*
X2395000Y7670000D01*
G75*
G02*
X2530000Y7535000I0J-135000D01*
G01*
G37*
G04 #@! TD.AperFunction*
G04 #@! TO.P,R751,2*
G04 #@! TO.N,Net-(D751-K)*
G04 #@! TA.AperFunction,SMDPad,CuDef*
G36*
G01*
X1510000Y7535000D02*
X1510000Y7165000D01*
G75*
G02*
X1375000Y7030000I-135000J0D01*
G01*
X1105000Y7030000D01*
G75*
G02*
X970000Y7165000I0J135000D01*
G01*
X970000Y7535000D01*
G75*
G02*
X1105000Y7670000I135000J0D01*
G01*
X1375000Y7670000D01*
G75*
G02*
X1510000Y7535000I0J-135000D01*
G01*
G37*
G04 #@! TD.AperFunction*
G04 #@! TD*
G04 #@! TO.P,R759,1*
G04 #@! TO.N,analog_out*
G04 #@! TA.AperFunction,SMDPad,CuDef*
G36*
G01*
X5310000Y4465000D02*
X5310000Y4835000D01*
G75*
G02*
X5445000Y4970000I135000J0D01*
G01*
X5715000Y4970000D01*
G75*
G02*
X5850000Y4835000I0J-135000D01*
G01*
X5850000Y4465000D01*
G75*
G02*
X5715000Y4330000I-135000J0D01*
G01*
X5445000Y4330000D01*
G75*
G02*
X5310000Y4465000I0J135000D01*
G01*
G37*
G04 #@! TD.AperFunction*
G04 #@! TO.P,R759,2*
G04 #@! TO.N,Net-(U753B--)*
G04 #@! TA.AperFunction,SMDPad,CuDef*
G36*
G01*
X6330000Y4465000D02*
X6330000Y4835000D01*
G75*
G02*
X6465000Y4970000I135000J0D01*
G01*
X6735000Y4970000D01*
G75*
G02*
X6870000Y4835000I0J-135000D01*
G01*
X6870000Y4465000D01*
G75*
G02*
X6735000Y4330000I-135000J0D01*
G01*
X6465000Y4330000D01*
G75*
G02*
X6330000Y4465000I0J135000D01*
G01*
G37*
G04 #@! TD.AperFunction*
G04 #@! TD*
G04 #@! TO.P,R758,1*
G04 #@! TO.N,Net-(U753B-+)*
G04 #@! TA.AperFunction,SMDPad,CuDef*
G36*
G01*
X6615000Y2994215D02*
X6985000Y2994215D01*
G75*
G02*
X7120000Y2859215I0J-135000D01*
G01*
X7120000Y2589215D01*
G75*
G02*
X6985000Y2454215I-135000J0D01*
G01*
X6615000Y2454215D01*
G75*
G02*
X6480000Y2589215I0J135000D01*
G01*
X6480000Y2859215D01*
G75*
G02*
X6615000Y2994215I135000J0D01*
G01*
G37*
G04 #@! TD.AperFunction*
G04 #@! TO.P,R758,2*
G04 #@! TO.N,Vref*
G04 #@! TA.AperFunction,SMDPad,CuDef*
G36*
G01*
X6615000Y1974215D02*
X6985000Y1974215D01*
G75*
G02*
X7120000Y1839215I0J-135000D01*
G01*
X7120000Y1569215D01*
G75*
G02*
X6985000Y1434215I-135000J0D01*
G01*
X6615000Y1434215D01*
G75*
G02*
X6480000Y1569215I0J135000D01*
G01*
X6480000Y1839215D01*
G75*
G02*
X6615000Y1974215I135000J0D01*
G01*
G37*
G04 #@! TD.AperFunction*
G04 #@! TD*
G04 #@! TO.P,C763,1*
G04 #@! TO.N,+5V*
G04 #@! TA.AperFunction,SMDPad,CuDef*
G36*
G01*
X2210000Y4670000D02*
X2210000Y4330000D01*
G75*
G02*
X2070000Y4190000I-140000J0D01*
G01*
X1790000Y4190000D01*
G75*
G02*
X1650000Y4330000I0J140000D01*
G01*
X1650000Y4670000D01*
G75*
G02*
X1790000Y4810000I140000J0D01*
G01*
X2070000Y4810000D01*
G75*
G02*
X2210000Y4670000I0J-140000D01*
G01*
G37*
G04 #@! TD.AperFunction*
G04 #@! TO.P,C763,2*
G04 #@! TO.N,GND*
G04 #@! TA.AperFunction,SMDPad,CuDef*
G36*
G01*
X1250000Y4670000D02*
X1250000Y4330000D01*
G75*
G02*
X1110000Y4190000I-140000J0D01*
G01*
X830000Y4190000D01*
G75*
G02*
X690000Y4330000I0J140000D01*
G01*
X690000Y4670000D01*
G75*
G02*
X830000Y4810000I140000J0D01*
G01*
X1110000Y4810000D01*
G75*
G02*
X1250000Y4670000I0J-140000D01*
G01*
G37*
G04 #@! TD.AperFunction*
G04 #@! TD*
G04 #@! TO.P,C767,1*
G04 #@! TO.N,Vref*
G04 #@! TA.AperFunction,SMDPad,CuDef*
G36*
G01*
X11620000Y2501593D02*
X11280000Y2501593D01*
G75*
G02*
X11140000Y2641593I0J140000D01*
G01*
X11140000Y2921593D01*
G75*
G02*
X11280000Y3061593I140000J0D01*
G01*
X11620000Y3061593D01*
G75*
G02*
X11760000Y2921593I0J-140000D01*
G01*
X11760000Y2641593D01*
G75*
G02*
X11620000Y2501593I-140000J0D01*
G01*
G37*
G04 #@! TD.AperFunction*
G04 #@! TO.P,C767,2*
G04 #@! TO.N,GND*
G04 #@! TA.AperFunction,SMDPad,CuDef*
G36*
G01*
X11620000Y3461593D02*
X11280000Y3461593D01*
G75*
G02*
X11140000Y3601593I0J140000D01*
G01*
X11140000Y3881593D01*
G75*
G02*
X11280000Y4021593I140000J0D01*
G01*
X11620000Y4021593D01*
G75*
G02*
X11760000Y3881593I0J-140000D01*
G01*
X11760000Y3601593D01*
G75*
G02*
X11620000Y3461593I-140000J0D01*
G01*
G37*
G04 #@! TD.AperFunction*
G04 #@! TD*
G04 #@! TO.P,R756,1*
G04 #@! TO.N,Net-(U751-IO2)*
G04 #@! TA.AperFunction,SMDPad,CuDef*
G36*
G01*
X5265000Y590000D02*
X5265000Y960000D01*
G75*
G02*
X5400000Y1095000I135000J0D01*
G01*
X5670000Y1095000D01*
G75*
G02*
X5805000Y960000I0J-135000D01*
G01*
X5805000Y590000D01*
G75*
G02*
X5670000Y455000I-135000J0D01*
G01*
X5400000Y455000D01*
G75*
G02*
X5265000Y590000I0J135000D01*
G01*
G37*
G04 #@! TD.AperFunction*
G04 #@! TO.P,R756,2*
G04 #@! TO.N,Net-(U753B-+)*
G04 #@! TA.AperFunction,SMDPad,CuDef*
G36*
G01*
X6285000Y590000D02*
X6285000Y960000D01*
G75*
G02*
X6420000Y1095000I135000J0D01*
G01*
X6690000Y1095000D01*
G75*
G02*
X6825000Y960000I0J-135000D01*
G01*
X6825000Y590000D01*
G75*
G02*
X6690000Y455000I-135000J0D01*
G01*
X6420000Y455000D01*
G75*
G02*
X6285000Y590000I0J135000D01*
G01*
G37*
G04 #@! TD.AperFunction*
G04 #@! TD*
D17*
G04 #@! TO.P,U756,1*
G04 #@! TO.N,thresh_high*
X12696795Y900000D03*
G04 #@! TO.P,U756,2,GND*
G04 #@! TO.N,GND*
X13346795Y900000D03*
G04 #@! TO.P,U756,3*
G04 #@! TO.N,Vref*
X13996795Y900000D03*
G04 #@! TO.P,U756,4*
G04 #@! TO.N,Net-(U754B-+)*
X13996795Y2800000D03*
G04 #@! TO.P,U756,5,V+*
G04 #@! TO.N,+5V*
X13346795Y2800000D03*
G04 #@! TO.P,U756,6*
G04 #@! TO.N,Net-(C757-Pad2)*
X12696795Y2800000D03*
G04 #@! TD*
G04 #@! TO.P,U751,1,IO1*
G04 #@! TO.N,Net-(U751-IO1)*
G04 #@! TA.AperFunction,SMDPad,CuDef*
G36*
G01*
X1025706Y3131597D02*
X1025706Y3431597D01*
G75*
G02*
X1175706Y3581597I150000J0D01*
G01*
X2200706Y3581597D01*
G75*
G02*
X2350706Y3431597I0J-150000D01*
G01*
X2350706Y3131597D01*
G75*
G02*
X2200706Y2981597I-150000J0D01*
G01*
X1175706Y2981597D01*
G75*
G02*
X1025706Y3131597I0J150000D01*
G01*
G37*
G04 #@! TD.AperFunction*
G04 #@! TO.P,U751,2,VN*
G04 #@! TO.N,GND*
G04 #@! TA.AperFunction,SMDPad,CuDef*
G36*
G01*
X1025706Y2181597D02*
X1025706Y2481597D01*
G75*
G02*
X1175706Y2631597I150000J0D01*
G01*
X2200706Y2631597D01*
G75*
G02*
X2350706Y2481597I0J-150000D01*
G01*
X2350706Y2181597D01*
G75*
G02*
X2200706Y2031597I-150000J0D01*
G01*
X1175706Y2031597D01*
G75*
G02*
X1025706Y2181597I0J150000D01*
G01*
G37*
G04 #@! TD.AperFunction*
G04 #@! TO.P,U751,3,IO2*
G04 #@! TO.N,Net-(U751-IO2)*
G04 #@! TA.AperFunction,SMDPad,CuDef*
G36*
G01*
X1025706Y1231597D02*
X1025706Y1531597D01*
G75*
G02*
X1175706Y1681597I150000J0D01*
G01*
X2200706Y1681597D01*
G75*
G02*
X2350706Y1531597I0J-150000D01*
G01*
X2350706Y1231597D01*
G75*
G02*
X2200706Y1081597I-150000J0D01*
G01*
X1175706Y1081597D01*
G75*
G02*
X1025706Y1231597I0J150000D01*
G01*
G37*
G04 #@! TD.AperFunction*
G04 #@! TO.P,U751,4,IO3*
G04 #@! TA.AperFunction,SMDPad,CuDef*
G36*
G01*
X3300706Y1231597D02*
X3300706Y1531597D01*
G75*
G02*
X3450706Y1681597I150000J0D01*
G01*
X4475706Y1681597D01*
G75*
G02*
X4625706Y1531597I0J-150000D01*
G01*
X4625706Y1231597D01*
G75*
G02*
X4475706Y1081597I-150000J0D01*
G01*
X3450706Y1081597D01*
G75*
G02*
X3300706Y1231597I0J150000D01*
G01*
G37*
G04 #@! TD.AperFunction*
G04 #@! TO.P,U751,5,VP*
G04 #@! TO.N,+5V*
G04 #@! TA.AperFunction,SMDPad,CuDef*
G36*
G01*
X3300706Y2181597D02*
X3300706Y2481597D01*
G75*
G02*
X3450706Y2631597I150000J0D01*
G01*
X4475706Y2631597D01*
G75*
G02*
X4625706Y2481597I0J-150000D01*
G01*
X4625706Y2181597D01*
G75*
G02*
X4475706Y2031597I-150000J0D01*
G01*
X3450706Y2031597D01*
G75*
G02*
X3300706Y2181597I0J150000D01*
G01*
G37*
G04 #@! TD.AperFunction*
G04 #@! TO.P,U751,6,IO4*
G04 #@! TO.N,Net-(U751-IO1)*
G04 #@! TA.AperFunction,SMDPad,CuDef*
G36*
G01*
X3300706Y3131597D02*
X3300706Y3431597D01*
G75*
G02*
X3450706Y3581597I150000J0D01*
G01*
X4475706Y3581597D01*
G75*
G02*
X4625706Y3431597I0J-150000D01*
G01*
X4625706Y3131597D01*
G75*
G02*
X4475706Y2981597I-150000J0D01*
G01*
X3450706Y2981597D01*
G75*
G02*
X3300706Y3131597I0J150000D01*
G01*
G37*
G04 #@! TD.AperFunction*
G04 #@! TD*
G04 #@! TO.P,C765,1*
G04 #@! TO.N,Vref*
G04 #@! TA.AperFunction,SMDPad,CuDef*
G36*
G01*
X3850000Y6150000D02*
X3850000Y6490000D01*
G75*
G02*
X3990000Y6630000I140000J0D01*
G01*
X4270000Y6630000D01*
G75*
G02*
X4410000Y6490000I0J-140000D01*
G01*
X4410000Y6150000D01*
G75*
G02*
X4270000Y6010000I-140000J0D01*
G01*
X3990000Y6010000D01*
G75*
G02*
X3850000Y6150000I0J140000D01*
G01*
G37*
G04 #@! TD.AperFunction*
G04 #@! TO.P,C765,2*
G04 #@! TO.N,GND*
G04 #@! TA.AperFunction,SMDPad,CuDef*
G36*
G01*
X4810000Y6150000D02*
X4810000Y6490000D01*
G75*
G02*
X4950000Y6630000I140000J0D01*
G01*
X5230000Y6630000D01*
G75*
G02*
X5370000Y6490000I0J-140000D01*
G01*
X5370000Y6150000D01*
G75*
G02*
X5230000Y6010000I-140000J0D01*
G01*
X4950000Y6010000D01*
G75*
G02*
X4810000Y6150000I0J140000D01*
G01*
G37*
G04 #@! TD.AperFunction*
G04 #@! TD*
G04 #@! TO.P,C754,1*
G04 #@! TO.N,GND*
G04 #@! TA.AperFunction,SMDPad,CuDef*
G36*
G01*
X9320000Y510000D02*
X8980000Y510000D01*
G75*
G02*
X8840000Y650000I0J140000D01*
G01*
X8840000Y930000D01*
G75*
G02*
X8980000Y1070000I140000J0D01*
G01*
X9320000Y1070000D01*
G75*
G02*
X9460000Y930000I0J-140000D01*
G01*
X9460000Y650000D01*
G75*
G02*
X9320000Y510000I-140000J0D01*
G01*
G37*
G04 #@! TD.AperFunction*
G04 #@! TO.P,C754,2*
G04 #@! TO.N,Vref*
G04 #@! TA.AperFunction,SMDPad,CuDef*
G36*
G01*
X9320000Y1470000D02*
X8980000Y1470000D01*
G75*
G02*
X8840000Y1610000I0J140000D01*
G01*
X8840000Y1890000D01*
G75*
G02*
X8980000Y2030000I140000J0D01*
G01*
X9320000Y2030000D01*
G75*
G02*
X9460000Y1890000I0J-140000D01*
G01*
X9460000Y1610000D01*
G75*
G02*
X9320000Y1470000I-140000J0D01*
G01*
G37*
G04 #@! TD.AperFunction*
G04 #@! TD*
G04 #@! TO.P,R768,1*
G04 #@! TO.N,Net-(U753A-+)*
G04 #@! TA.AperFunction,SMDPad,CuDef*
G36*
G01*
X10335000Y2481593D02*
X9965000Y2481593D01*
G75*
G02*
X9830000Y2616593I0J135000D01*
G01*
X9830000Y2886593D01*
G75*
G02*
X9965000Y3021593I135000J0D01*
G01*
X10335000Y3021593D01*
G75*
G02*
X10470000Y2886593I0J-135000D01*
G01*
X10470000Y2616593D01*
G75*
G02*
X10335000Y2481593I-135000J0D01*
G01*
G37*
G04 #@! TD.AperFunction*
G04 #@! TO.P,R768,2*
G04 #@! TO.N,GND*
G04 #@! TA.AperFunction,SMDPad,CuDef*
G36*
G01*
X10335000Y3501593D02*
X9965000Y3501593D01*
G75*
G02*
X9830000Y3636593I0J135000D01*
G01*
X9830000Y3906593D01*
G75*
G02*
X9965000Y4041593I135000J0D01*
G01*
X10335000Y4041593D01*
G75*
G02*
X10470000Y3906593I0J-135000D01*
G01*
X10470000Y3636593D01*
G75*
G02*
X10335000Y3501593I-135000J0D01*
G01*
G37*
G04 #@! TD.AperFunction*
G04 #@! TD*
D18*
G04 #@! TO.N,Net-(U751-IO2)*
X2960880Y4809882D03*
G04 #@! TO.N,GND*
X4542548Y9374500D03*
X14840000Y350000D03*
X420000Y8930000D03*
X475000Y6825000D03*
X8950000Y400000D03*
X6829764Y6567230D03*
X2332643Y2337000D03*
X5467387Y5608768D03*
X4400000Y400000D03*
X2309598Y414120D03*
X9925000Y5475000D03*
X10476117Y3469351D03*
X350000Y4750000D03*
X7300000Y5350000D03*
X14800000Y2625000D03*
X9125000Y4400000D03*
X12121049Y9321268D03*
X14775000Y1575000D03*
G04 #@! TO.N,Net-(U751-IO1)*
X3700500Y4078767D03*
G04 #@! TO.N,Net-(U751-IO2)*
X3625400Y739602D03*
G04 #@! TO.N,+5V*
X8165850Y4280400D03*
X4766217Y2280985D03*
X2397366Y4315710D03*
X2520000Y8960000D03*
X14159615Y2002851D03*
X5156253Y8176214D03*
G04 #@! TO.N,Vref*
X4736342Y5445585D03*
X7501951Y1719344D03*
X12950246Y2025341D03*
G04 #@! TO.N,thresh_low*
X11624528Y8739821D03*
X3403581Y8888885D03*
G04 #@! TO.N,Net-(C756-Pad2)*
X10875000Y8890900D03*
G04 #@! TO.N,Net-(C757-Pad2)*
X10699317Y5399689D03*
X10530400Y7186704D03*
G04 #@! TO.N,Net-(U753A-+)*
X7604434Y2609453D03*
G04 #@! TO.N,output*
X2525837Y6595074D03*
G04 #@! TO.N,analog_out*
X6214990Y5548819D03*
G04 #@! TO.N,Net-(U753B--)*
X7166110Y4522290D03*
G04 #@! TO.N,Net-(U753B-+)*
X7325000Y3525000D03*
G04 #@! TO.N,Net-(U753D--)*
X10225000Y4750000D03*
X12091307Y5514600D03*
G04 #@! TO.N,Net-(R763-Pad1)*
X10640500Y805547D03*
G04 #@! TO.N,Net-(U753A--)*
X7375000Y775000D03*
G04 #@! TD*
D19*
G04 #@! TO.N,Net-(U753B--)*
X6600000Y4650000D02*
X7038400Y4650000D01*
X6555000Y4605000D02*
X6600000Y4650000D01*
X7038400Y4650000D02*
X7166110Y4522290D01*
X6555000Y3650000D02*
X6555000Y4605000D01*
G04 #@! TO.N,analog_out*
X6214990Y5284990D02*
X6214990Y5548819D01*
X5580000Y4650000D02*
X6214990Y5284990D01*
G04 #@! TO.N,Net-(U751-IO1)*
X5575000Y3645000D02*
X5580000Y3650000D01*
X5575000Y3250000D02*
X5575000Y3645000D01*
G04 #@! TO.N,Net-(U751-IO2)*
X4080000Y5280000D02*
X4700000Y4660000D01*
X3396432Y5280000D02*
X4080000Y5280000D01*
X2960880Y4809882D02*
X2960880Y4844448D01*
X2960880Y4844448D02*
X3396432Y5280000D01*
G04 #@! TO.N,Vref*
X4130000Y7410000D02*
X3950000Y7590000D01*
X4130000Y6320000D02*
X4130000Y7410000D01*
X4130000Y6051927D02*
X4130000Y6320000D01*
X4736342Y5445585D02*
X4130000Y6051927D01*
G04 #@! TO.N,Net-(U751-IO1)*
X3700500Y4639500D02*
X3680000Y4660000D01*
X3700500Y4078767D02*
X3700500Y4639500D01*
X4012780Y3766487D02*
X4012780Y3300280D01*
X3700500Y4078767D02*
X4012780Y3766487D01*
G04 #@! TO.N,output*
X2525837Y5891663D02*
X2677500Y5740000D01*
X2525837Y6595074D02*
X2525837Y5891663D01*
G04 #@! TO.N,Net-(D751-K)*
X1240000Y5877500D02*
X1102500Y5740000D01*
X1240000Y7350000D02*
X1240000Y5877500D01*
G04 #@! TO.N,output*
X2677500Y5740000D02*
X2777500Y5740000D01*
G04 #@! TO.N,+5V*
X1930000Y4500000D02*
X2213076Y4500000D01*
X2213076Y4500000D02*
X2397366Y4315710D01*
G04 #@! TO.N,analog_out*
X6623819Y5548819D02*
X6214990Y5548819D01*
X7375000Y6300000D02*
X6623819Y5548819D01*
X8508030Y6300000D02*
X7375000Y6300000D01*
G04 #@! TO.N,Net-(U751-IO1)*
X4062500Y3250000D02*
X1687500Y3250000D01*
X5575000Y2730000D02*
X5575000Y3250000D01*
X4500000Y3250000D02*
X5575000Y3250000D01*
G04 #@! TO.N,Net-(U751-IO2)*
X3625400Y739602D02*
X3587500Y777502D01*
X5155556Y1770000D02*
X5575000Y1770000D01*
X3587500Y777502D02*
X3587500Y1350000D01*
X5575000Y1770000D02*
X5575000Y890000D01*
X4735556Y1350000D02*
X5155556Y1770000D01*
X3962500Y1350000D02*
X4735556Y1350000D01*
X3962500Y1350000D02*
X1687500Y1350000D01*
G04 #@! TO.N,+5V*
X8165850Y4280400D02*
X8165850Y3807443D01*
X5220039Y8240000D02*
X5850000Y8240000D01*
X14355000Y8855000D02*
X14800000Y9300000D01*
X4747202Y2300000D02*
X4000000Y2300000D01*
X4766217Y2280985D02*
X4747202Y2300000D01*
X8165850Y3807443D02*
X8150000Y3791593D01*
X13473030Y8855000D02*
X14355000Y8855000D01*
X14112466Y2050000D02*
X13810000Y2050000D01*
X14159615Y2002851D02*
X14112466Y2050000D01*
X13346795Y2513205D02*
X13346795Y2800000D01*
X13810000Y2050000D02*
X13346795Y2513205D01*
X5156253Y8176214D02*
X5220039Y8240000D01*
G04 #@! TO.N,Vref*
X13981100Y1178900D02*
X13981100Y1159900D01*
X7490000Y1760000D02*
X9140000Y1760000D01*
X11450000Y2775519D02*
X11450000Y2781593D01*
X13134659Y2025341D02*
X13981100Y1178900D01*
X12140139Y2085380D02*
X11450000Y2775519D01*
X6800000Y1704215D02*
X7486822Y1704215D01*
X12950246Y2025341D02*
X12890207Y2085380D01*
X12950246Y2025341D02*
X13134659Y2025341D01*
X12890207Y2085380D02*
X12140139Y2085380D01*
G04 #@! TO.N,thresh_low*
X3403581Y8888885D02*
X3404696Y8890000D01*
X3404696Y8890000D02*
X3950000Y8890000D01*
G04 #@! TO.N,Net-(C756-Pad2)*
X8052960Y8890000D02*
X8112960Y8950000D01*
X5850000Y8890000D02*
X8052960Y8890000D01*
X10865900Y8900000D02*
X8528017Y8900000D01*
X10875000Y8890900D02*
X10865900Y8900000D01*
G04 #@! TO.N,Net-(C757-Pad2)*
X10893696Y7550000D02*
X13388043Y7550000D01*
X12696795Y2800000D02*
X12696795Y3206306D01*
X12060000Y3843101D02*
X12060000Y4039006D01*
X12696795Y3206306D02*
X12060000Y3843101D01*
X10530400Y7186704D02*
X10893696Y7550000D01*
X12060000Y4039006D02*
X10699317Y5399689D01*
G04 #@! TO.N,thresh_high*
X10200000Y1750000D02*
X10150000Y1800000D01*
X12681100Y1159900D02*
X12155620Y1685380D01*
X11450000Y1750000D02*
X10200000Y1750000D01*
X12155620Y1685380D02*
X11514620Y1685380D01*
G04 #@! TO.N,Net-(U753A-+)*
X9213777Y2723777D02*
X9260000Y2770000D01*
X7604434Y2609453D02*
X7766574Y2771593D01*
X7766574Y2771593D02*
X10150000Y2771593D01*
G04 #@! TO.N,analog_out*
X14185000Y6315000D02*
X14800000Y5700000D01*
X8523030Y6364987D02*
X13473030Y6364987D01*
X13473030Y6315000D02*
X14185000Y6315000D01*
G04 #@! TO.N,Net-(U753B-+)*
X6175100Y2099315D02*
X6800000Y2724215D01*
X6555000Y775000D02*
X6175100Y1154900D01*
X6175100Y1154900D02*
X6175100Y2099315D01*
X7325000Y3249215D02*
X6800000Y2724215D01*
X7325000Y3525000D02*
X7325000Y3249215D01*
G04 #@! TO.N,Net-(U753A--)*
X7390000Y760000D02*
X8130000Y760000D01*
X7375000Y775000D02*
X7390000Y760000D01*
X8130000Y760000D02*
X8150000Y740000D01*
G04 #@! TO.N,Net-(U754A--)*
X6840000Y8050000D02*
X6804560Y8050000D01*
X7780000Y7650000D02*
X8508017Y7650000D01*
X6804560Y8050000D02*
X6344560Y7590000D01*
X6344560Y7590000D02*
X5760000Y7590000D01*
X7380000Y8050000D02*
X7780000Y7650000D01*
X6840000Y8050000D02*
X7380000Y8050000D01*
G04 #@! TO.N,Net-(U754B-+)*
X14000000Y3180000D02*
X13450000Y3730000D01*
X13450000Y3730000D02*
X13450000Y5005000D01*
X14000000Y2900000D02*
X14000000Y3180000D01*
G04 #@! TD*
G04 #@! TA.AperFunction,Conductor*
G04 #@! TO.N,GND*
G36*
X15098919Y5261878D02*
G01*
X15124352Y5206229D01*
X15125000Y5194917D01*
X15125000Y124500D01*
X15106093Y66309D01*
X15056593Y30345D01*
X15026000Y25500D01*
X124500Y25500D01*
X66309Y44407D01*
X30345Y93907D01*
X25500Y124500D01*
X25500Y1078316D01*
X44407Y1136507D01*
X93907Y1172471D01*
X148189Y1174439D01*
X289944Y1139500D01*
X289947Y1139500D01*
X460053Y1139500D01*
X460056Y1139500D01*
X625225Y1180210D01*
X734616Y1237624D01*
X794924Y1247924D01*
X849773Y1220808D01*
X878208Y1166631D01*
X878887Y1161888D01*
X878914Y1161787D01*
X924170Y1059295D01*
X924171Y1059294D01*
X924172Y1059292D01*
X1003401Y980063D01*
X1003402Y980063D01*
X1003403Y980062D01*
X1082810Y945000D01*
X1105901Y934804D01*
X1130959Y931897D01*
X2245452Y931898D01*
X2270511Y934804D01*
X2285733Y941525D01*
X2373009Y980062D01*
X2373009Y980063D01*
X2373011Y980063D01*
X2419259Y1026311D01*
X2439253Y1046304D01*
X2493770Y1074081D01*
X2509256Y1075300D01*
X3130285Y1075300D01*
X3188476Y1056393D01*
X3224440Y1006893D01*
X3224440Y945707D01*
X3220339Y935174D01*
X3189478Y867598D01*
X3189477Y867596D01*
X3171076Y739605D01*
X3171076Y739600D01*
X3189477Y611609D01*
X3189478Y611607D01*
X3189478Y611606D01*
X3189479Y611604D01*
X3243198Y493976D01*
X3327881Y396247D01*
X3436667Y326334D01*
X3560743Y289902D01*
X3560744Y289902D01*
X3690056Y289902D01*
X3690057Y289902D01*
X3814133Y326334D01*
X3922919Y396247D01*
X4007602Y493976D01*
X4061321Y611604D01*
X4061322Y611609D01*
X4079724Y739600D01*
X4079724Y739606D01*
X4068337Y818810D01*
X4078771Y879099D01*
X4122649Y921741D01*
X4166329Y931898D01*
X4520449Y931898D01*
X4520452Y931898D01*
X4545511Y934804D01*
X4560733Y941525D01*
X4648009Y980062D01*
X4648009Y980063D01*
X4648011Y980063D01*
X4717206Y1049259D01*
X4767890Y1076350D01*
X4842739Y1091238D01*
X4883322Y1118355D01*
X4933604Y1151952D01*
X4943515Y1166787D01*
X4955822Y1181784D01*
X4994773Y1220735D01*
X5049290Y1248511D01*
X5109722Y1238939D01*
X5152986Y1195674D01*
X5162557Y1135242D01*
X5155342Y1110746D01*
X5132625Y1059295D01*
X5118060Y1026309D01*
X5115300Y1002517D01*
X5115300Y547484D01*
X5118060Y523692D01*
X5118060Y523690D01*
X5118061Y523689D01*
X5161054Y426318D01*
X5236318Y351054D01*
X5333689Y308061D01*
X5357484Y305301D01*
X5357486Y305300D01*
X5357488Y305300D01*
X5712514Y305300D01*
X5712514Y305301D01*
X5736311Y308061D01*
X5833682Y351054D01*
X5908946Y426318D01*
X5951939Y523689D01*
X5951939Y523692D01*
X5954435Y529344D01*
X5995236Y574939D01*
X6055044Y587845D01*
X6111017Y563131D01*
X6135565Y529344D01*
X6138060Y523692D01*
X6138061Y523689D01*
X6181054Y426318D01*
X6256318Y351054D01*
X6353689Y308061D01*
X6377484Y305301D01*
X6377486Y305300D01*
X6377488Y305300D01*
X6732514Y305300D01*
X6732514Y305301D01*
X6756311Y308061D01*
X6853682Y351054D01*
X6928946Y426318D01*
X6928946Y426320D01*
X6935432Y432805D01*
X6938189Y430048D01*
X6972416Y456476D01*
X7033575Y458263D01*
X7070587Y434497D01*
X7072133Y436280D01*
X7077477Y431649D01*
X7077481Y431645D01*
X7186267Y361732D01*
X7310343Y325300D01*
X7310344Y325300D01*
X7439656Y325300D01*
X7439657Y325300D01*
X7563733Y361732D01*
X7656060Y421068D01*
X7715233Y436622D01*
X7772250Y414423D01*
X7779575Y407797D01*
X7801318Y386054D01*
X7898689Y343061D01*
X7922484Y340301D01*
X7922486Y340300D01*
X7922488Y340300D01*
X8377514Y340300D01*
X8377514Y340301D01*
X8401311Y343061D01*
X8498682Y386054D01*
X8560896Y448269D01*
X8615411Y476044D01*
X8675843Y466473D01*
X8700902Y448267D01*
X8781978Y367191D01*
X8890645Y316519D01*
X8890644Y316519D01*
X8895998Y315814D01*
X8896000Y315815D01*
X8896000Y945000D01*
X8914907Y1003191D01*
X8964407Y1039155D01*
X8995000Y1044000D01*
X9305000Y1044000D01*
X9363191Y1025093D01*
X9399155Y975593D01*
X9404000Y945000D01*
X9404000Y315815D01*
X9404001Y315814D01*
X9409355Y316519D01*
X9518021Y367191D01*
X9599098Y448267D01*
X9653615Y476044D01*
X9714047Y466473D01*
X9739102Y448270D01*
X9801318Y386054D01*
X9898689Y343061D01*
X9922484Y340301D01*
X9922486Y340300D01*
X9922488Y340300D01*
X10377514Y340300D01*
X10377514Y340301D01*
X10401311Y343061D01*
X10455280Y366892D01*
X10516146Y373100D01*
X10523147Y371321D01*
X10575843Y355847D01*
X10575844Y355847D01*
X10705156Y355847D01*
X10705157Y355847D01*
X10829233Y392279D01*
X10900709Y438215D01*
X10959882Y453769D01*
X11016898Y431571D01*
X11024235Y424934D01*
X11081978Y367191D01*
X11190645Y316519D01*
X11190644Y316519D01*
X11195998Y315814D01*
X11196000Y315815D01*
X11704000Y315815D01*
X11704001Y315814D01*
X11709355Y316519D01*
X11818021Y367191D01*
X11902809Y451979D01*
X11941988Y535999D01*
X11941988Y536000D01*
X11704001Y536000D01*
X11704000Y535999D01*
X11704000Y315815D01*
X11196000Y315815D01*
X11196000Y945000D01*
X11214907Y1003191D01*
X11264407Y1039155D01*
X11295000Y1044000D01*
X11941988Y1044000D01*
X11941988Y1044002D01*
X11902809Y1128022D01*
X11818020Y1212811D01*
X11810929Y1217776D01*
X11811946Y1219230D01*
X11774892Y1253787D01*
X11763221Y1313849D01*
X11789082Y1369300D01*
X11791453Y1371756D01*
X11801385Y1381687D01*
X11855903Y1409462D01*
X11871385Y1410680D01*
X12000828Y1410680D01*
X12059019Y1391773D01*
X12070832Y1381684D01*
X12318099Y1134417D01*
X12345876Y1079900D01*
X12347095Y1064413D01*
X12347095Y560250D01*
X12355779Y516591D01*
X12355779Y516590D01*
X12382872Y476044D01*
X12388867Y467072D01*
X12388870Y467070D01*
X12438384Y433985D01*
X12450149Y431645D01*
X12482049Y425300D01*
X12482051Y425300D01*
X12911539Y425300D01*
X12911541Y425300D01*
X12947847Y432522D01*
X13008606Y425331D01*
X13022162Y417739D01*
X13068758Y386604D01*
X13127094Y375001D01*
X13127098Y375000D01*
X13146794Y375000D01*
X13146795Y375001D01*
X13146795Y1001000D01*
X13165702Y1059191D01*
X13215202Y1095155D01*
X13245795Y1100000D01*
X13447795Y1100000D01*
X13505986Y1081093D01*
X13541950Y1031593D01*
X13546795Y1001000D01*
X13546795Y375001D01*
X13546796Y375000D01*
X13566492Y375000D01*
X13566495Y375001D01*
X13624831Y386604D01*
X13671427Y417739D01*
X13730315Y434348D01*
X13745734Y432524D01*
X13782049Y425300D01*
X13782051Y425300D01*
X14211539Y425300D01*
X14211541Y425300D01*
X14255205Y433985D01*
X14304723Y467072D01*
X14337810Y516590D01*
X14346495Y560254D01*
X14346495Y1239746D01*
X14337810Y1283410D01*
X14337810Y1283411D01*
X14304725Y1332925D01*
X14304723Y1332928D01*
X14304719Y1332931D01*
X14255205Y1366016D01*
X14255202Y1366017D01*
X14251927Y1366668D01*
X14247093Y1369376D01*
X14246196Y1369747D01*
X14246240Y1369854D01*
X14198544Y1396568D01*
X14172932Y1452134D01*
X14184872Y1512143D01*
X14229804Y1553674D01*
X14243346Y1558752D01*
X14348348Y1589583D01*
X14457134Y1659496D01*
X14541817Y1757225D01*
X14595536Y1874853D01*
X14596967Y1884804D01*
X14613939Y2002849D01*
X14613939Y2002854D01*
X14595537Y2130845D01*
X14595536Y2130847D01*
X14595536Y2130849D01*
X14541817Y2248477D01*
X14457134Y2346206D01*
X14456119Y2346858D01*
X14391971Y2388084D01*
X14353240Y2435451D01*
X14346495Y2471368D01*
X14346495Y3139744D01*
X14346494Y3139751D01*
X14337810Y3183410D01*
X14337810Y3183411D01*
X14304725Y3232925D01*
X14304723Y3232928D01*
X14297215Y3237945D01*
X14260755Y3282371D01*
X14258762Y3287181D01*
X14258762Y3287183D01*
X14240322Y3314780D01*
X14211436Y3358012D01*
X14674000Y3358012D01*
X14674001Y3358012D01*
X14758021Y3397191D01*
X14842809Y3481979D01*
X14893481Y3590645D01*
X14894186Y3595999D01*
X14894185Y3596000D01*
X14674001Y3596000D01*
X14674000Y3595999D01*
X14674000Y3358012D01*
X14211436Y3358012D01*
X14198048Y3378048D01*
X14198044Y3378051D01*
X14194996Y3381099D01*
X14167219Y3435616D01*
X14166000Y3451103D01*
X14166000Y4341991D01*
X14674000Y4341991D01*
X14674000Y4104001D01*
X14674001Y4104000D01*
X14894186Y4104000D01*
X14894186Y4104002D01*
X14893481Y4109356D01*
X14842809Y4218022D01*
X14758020Y4302811D01*
X14674000Y4341991D01*
X14166000Y4341991D01*
X14081979Y4302811D01*
X13997189Y4218021D01*
X13992224Y4210929D01*
X13990771Y4211947D01*
X13956208Y4174890D01*
X13896145Y4163222D01*
X13840696Y4189087D01*
X13838246Y4191452D01*
X13766556Y4263142D01*
X13766554Y4263143D01*
X13760069Y4269628D01*
X13761232Y4270792D01*
X13730428Y4310811D01*
X13724700Y4343998D01*
X13724700Y4496301D01*
X13743607Y4554492D01*
X13793107Y4590456D01*
X13823700Y4595301D01*
X14342773Y4595301D01*
X14342776Y4595301D01*
X14367835Y4598207D01*
X14385974Y4606216D01*
X14407834Y4615869D01*
X14470335Y4643466D01*
X14549564Y4722695D01*
X14594823Y4825195D01*
X14597730Y4850253D01*
X14597729Y5158460D01*
X14616636Y5216649D01*
X14666136Y5252613D01*
X14724622Y5253448D01*
X14735343Y5250300D01*
X14735344Y5250300D01*
X14864656Y5250300D01*
X14864657Y5250300D01*
X14988733Y5286732D01*
X14988734Y5286733D01*
X14995526Y5288727D01*
X14996247Y5286270D01*
X15045634Y5291950D01*
X15098919Y5261878D01*
G37*
G04 #@! TD.AperFunction*
G04 #@! TA.AperFunction,Conductor*
G36*
X3200347Y2956393D02*
G01*
X3212160Y2946304D01*
X3281863Y2876601D01*
X3309640Y2822084D01*
X3300069Y2761652D01*
X3281863Y2736594D01*
X3199170Y2653901D01*
X3153912Y2551403D01*
X3153912Y2551402D01*
X3151006Y2526351D01*
X3151006Y2136855D01*
X3151006Y2136853D01*
X3151007Y2136851D01*
X3151704Y2130845D01*
X3153913Y2111793D01*
X3153914Y2111787D01*
X3199170Y2009295D01*
X3199171Y2009294D01*
X3199172Y2009292D01*
X3278401Y1930063D01*
X3278402Y1930063D01*
X3281864Y1926601D01*
X3309641Y1872084D01*
X3300070Y1811652D01*
X3281864Y1786593D01*
X3278402Y1783132D01*
X3278401Y1783131D01*
X3212306Y1717036D01*
X3199170Y1703900D01*
X3190256Y1683711D01*
X3149455Y1638116D01*
X3099692Y1624700D01*
X2551720Y1624700D01*
X2493529Y1643607D01*
X2461156Y1683711D01*
X2452241Y1703900D01*
X2452240Y1703901D01*
X2452240Y1703902D01*
X2405114Y1751028D01*
X2377339Y1805542D01*
X2386910Y1865974D01*
X2405116Y1891033D01*
X2489492Y1975410D01*
X2539449Y2077597D01*
X1533206Y2077597D01*
X1475015Y2096504D01*
X1439051Y2146004D01*
X1434206Y2176597D01*
X1434206Y2486597D01*
X1453113Y2544788D01*
X1502613Y2580752D01*
X1533206Y2585597D01*
X2539448Y2585597D01*
X2489492Y2687785D01*
X2405116Y2772161D01*
X2377339Y2826678D01*
X2386910Y2887110D01*
X2405114Y2912167D01*
X2439253Y2946305D01*
X2493770Y2974081D01*
X2509256Y2975300D01*
X3142156Y2975300D01*
X3200347Y2956393D01*
G37*
G04 #@! TD.AperFunction*
G04 #@! TA.AperFunction,Conductor*
G36*
X10842432Y4868090D02*
G01*
X11319925Y4390597D01*
X11347702Y4336080D01*
X11338131Y4275648D01*
X11294866Y4232383D01*
X11249921Y4221593D01*
X11240161Y4221593D01*
X11190645Y4215074D01*
X11190638Y4215072D01*
X11081978Y4164403D01*
X10997190Y4079615D01*
X10958011Y3995595D01*
X10958012Y3995593D01*
X11605000Y3995593D01*
X11663191Y3976686D01*
X11699155Y3927186D01*
X11704000Y3896593D01*
X11704000Y3586593D01*
X11685093Y3528402D01*
X11635593Y3492438D01*
X11605000Y3487593D01*
X10958012Y3487593D01*
X10958011Y3487592D01*
X10997190Y3403572D01*
X11081979Y3318783D01*
X11089071Y3313817D01*
X11088052Y3312363D01*
X11125104Y3277813D01*
X11136779Y3217752D01*
X11110922Y3162299D01*
X11108521Y3159813D01*
X11036859Y3088151D01*
X10993109Y2989067D01*
X10990300Y2964852D01*
X10990300Y2598335D01*
X10993109Y2574120D01*
X10993109Y2574118D01*
X10993110Y2574117D01*
X11036858Y2475037D01*
X11113444Y2398451D01*
X11208771Y2356361D01*
X11254364Y2315561D01*
X11267270Y2255752D01*
X11242556Y2199780D01*
X11208770Y2175233D01*
X11113445Y2133143D01*
X11113444Y2133143D01*
X11113444Y2133142D01*
X11036858Y2056556D01*
X11036857Y2056555D01*
X11033999Y2053696D01*
X10979482Y2025919D01*
X10963995Y2024700D01*
X10662289Y2024700D01*
X10604098Y2043607D01*
X10580911Y2072335D01*
X10579130Y2071114D01*
X10573947Y2078680D01*
X10573946Y2078681D01*
X10573946Y2078682D01*
X10498682Y2153946D01*
X10450470Y2175234D01*
X10404877Y2216033D01*
X10391971Y2275842D01*
X10416685Y2331814D01*
X10450469Y2356360D01*
X10498682Y2377647D01*
X10573946Y2452911D01*
X10616939Y2550282D01*
X10619700Y2574081D01*
X10619700Y2929105D01*
X10616939Y2952904D01*
X10573946Y3050275D01*
X10498682Y3125539D01*
X10458369Y3143339D01*
X10412774Y3184139D01*
X10399869Y3243948D01*
X10424583Y3299920D01*
X10456519Y3323628D01*
X10530111Y3357945D01*
X10613650Y3441484D01*
X10649140Y3517592D01*
X10649140Y3517593D01*
X9700001Y3517593D01*
X9698997Y3516589D01*
X9644480Y3488812D01*
X9628993Y3487593D01*
X8995000Y3487593D01*
X8936809Y3506500D01*
X8900845Y3556000D01*
X8896000Y3586593D01*
X8896000Y4215781D01*
X8895999Y4215781D01*
X8890642Y4215075D01*
X8781978Y4164403D01*
X8774881Y4159433D01*
X8773708Y4161107D01*
X8729324Y4138498D01*
X8668893Y4148077D01*
X8625633Y4191346D01*
X8615856Y4250370D01*
X8620174Y4280400D01*
X8619636Y4284140D01*
X8601772Y4408394D01*
X8599777Y4415188D01*
X8602119Y4415876D01*
X8596403Y4465651D01*
X8626484Y4518931D01*
X8682137Y4544354D01*
X8693433Y4545001D01*
X9381243Y4545001D01*
X9381246Y4545002D01*
X9449280Y4554913D01*
X9554219Y4606215D01*
X9554219Y4606216D01*
X9621690Y4673686D01*
X9676206Y4701464D01*
X9736638Y4691893D01*
X9779903Y4648629D01*
X9786267Y4628560D01*
X9787083Y4628799D01*
X9789078Y4622005D01*
X9789078Y4622004D01*
X9789079Y4622002D01*
X9842798Y4504374D01*
X9927481Y4406645D01*
X9927483Y4406644D01*
X9932118Y4401295D01*
X9930779Y4400135D01*
X9957760Y4355386D01*
X9952521Y4294425D01*
X9912451Y4248187D01*
X9883961Y4238212D01*
X9884230Y4237290D01*
X9876959Y4235171D01*
X9769888Y4185243D01*
X9703538Y4118893D01*
X9649021Y4091116D01*
X9588589Y4100688D01*
X9563531Y4118893D01*
X9518021Y4164403D01*
X9409356Y4215075D01*
X9409357Y4215075D01*
X9404000Y4215781D01*
X9404000Y3995594D01*
X9404001Y3995593D01*
X9589999Y3995593D01*
X9591003Y3996597D01*
X9645520Y4024374D01*
X9661007Y4025593D01*
X10649140Y4025593D01*
X10649140Y4025595D01*
X10613650Y4101703D01*
X10530110Y4185243D01*
X10488842Y4204487D01*
X10444095Y4246216D01*
X10432421Y4306278D01*
X10458280Y4361730D01*
X10477151Y4377489D01*
X10522519Y4406645D01*
X10607202Y4504374D01*
X10660921Y4622002D01*
X10661864Y4628560D01*
X10679324Y4749998D01*
X10679324Y4750001D01*
X10674436Y4783996D01*
X10684869Y4844286D01*
X10728747Y4886928D01*
X10789309Y4895636D01*
X10842432Y4868090D01*
G37*
G04 #@! TD.AperFunction*
G04 #@! TA.AperFunction,Conductor*
G36*
X11876331Y6071380D02*
G01*
X11912295Y6021880D01*
X11912295Y5960694D01*
X11876331Y5911194D01*
X11871664Y5908003D01*
X11793790Y5857957D01*
X11793788Y5857956D01*
X11793788Y5857955D01*
X11767830Y5827998D01*
X11709105Y5760226D01*
X11655385Y5642596D01*
X11655384Y5642594D01*
X11636983Y5514603D01*
X11636983Y5514598D01*
X11655384Y5386607D01*
X11655385Y5386605D01*
X11655385Y5386604D01*
X11655386Y5386602D01*
X11709105Y5268974D01*
X11793788Y5171245D01*
X11902574Y5101332D01*
X12026650Y5064900D01*
X12026651Y5064900D01*
X12155963Y5064900D01*
X12155964Y5064900D01*
X12155965Y5064901D01*
X12155969Y5064901D01*
X12191558Y5075352D01*
X12221438Y5084125D01*
X12282597Y5082379D01*
X12331051Y5045017D01*
X12348330Y4989137D01*
X12348330Y4850258D01*
X12348331Y4850255D01*
X12351237Y4825196D01*
X12351238Y4825190D01*
X12396494Y4722698D01*
X12396495Y4722697D01*
X12396496Y4722695D01*
X12475725Y4643466D01*
X12578225Y4598207D01*
X12603283Y4595300D01*
X13076300Y4595301D01*
X13134491Y4576394D01*
X13170455Y4526894D01*
X13175300Y4496301D01*
X13175300Y4326005D01*
X13156393Y4267814D01*
X13146309Y4256008D01*
X13110306Y4220004D01*
X13076858Y4186556D01*
X13033109Y4087474D01*
X13030300Y4063259D01*
X13030300Y3636742D01*
X13033109Y3612527D01*
X13033109Y3612525D01*
X13033110Y3612524D01*
X13076858Y3513444D01*
X13153444Y3436858D01*
X13153445Y3436858D01*
X13154181Y3436122D01*
X13181958Y3381605D01*
X13172387Y3321173D01*
X13129122Y3277908D01*
X13103491Y3269020D01*
X13088383Y3266015D01*
X13083253Y3263890D01*
X13022256Y3259092D01*
X12970088Y3291064D01*
X12961218Y3305540D01*
X12960979Y3305379D01*
X12954694Y3314780D01*
X12928051Y3354654D01*
X12894843Y3404354D01*
X12891224Y3406772D01*
X12880012Y3414264D01*
X12865010Y3426575D01*
X12363696Y3927889D01*
X12335919Y3982406D01*
X12334700Y3997893D01*
X12334700Y4002198D01*
X12336602Y4021512D01*
X12337414Y4025595D01*
X12340082Y4039006D01*
X12318762Y4146189D01*
X12317501Y4148077D01*
X12314611Y4152404D01*
X12258050Y4237051D01*
X12258048Y4237054D01*
X12243217Y4246964D01*
X12228215Y4259275D01*
X11180405Y5307085D01*
X11152628Y5361602D01*
X11152417Y5391177D01*
X11153641Y5399689D01*
X11138766Y5503149D01*
X11135239Y5527683D01*
X11135238Y5527685D01*
X11135238Y5527687D01*
X11081519Y5645315D01*
X10996836Y5743044D01*
X10970100Y5760226D01*
X10888050Y5812957D01*
X10763975Y5849389D01*
X10763974Y5849389D01*
X10634660Y5849389D01*
X10634658Y5849389D01*
X10510584Y5812957D01*
X10510583Y5812957D01*
X10401800Y5743046D01*
X10401798Y5743045D01*
X10401798Y5743044D01*
X10356884Y5691211D01*
X10317115Y5645315D01*
X10263395Y5527685D01*
X10263394Y5527683D01*
X10244993Y5399692D01*
X10244993Y5399688D01*
X10257487Y5312789D01*
X10247054Y5252500D01*
X10203176Y5209858D01*
X10167235Y5201500D01*
X10167349Y5200707D01*
X10160341Y5199700D01*
X10036267Y5163268D01*
X10036266Y5163268D01*
X9927483Y5093357D01*
X9927481Y5093356D01*
X9927481Y5093355D01*
X9845446Y4998682D01*
X9842798Y4995626D01*
X9789078Y4877996D01*
X9789077Y4877994D01*
X9788778Y4875909D01*
X9788002Y4874332D01*
X9787083Y4871201D01*
X9786541Y4871361D01*
X9761781Y4821002D01*
X9707666Y4792450D01*
X9690786Y4791000D01*
X7573522Y4791000D01*
X7515331Y4809907D01*
X7498703Y4825168D01*
X7463629Y4865645D01*
X7354843Y4935558D01*
X7230768Y4971990D01*
X7230767Y4971990D01*
X7101453Y4971990D01*
X7101451Y4971990D01*
X7079471Y4965536D01*
X7018311Y4967285D01*
X6982849Y4994611D01*
X6980434Y4992195D01*
X6898683Y5073945D01*
X6898682Y5073946D01*
X6801311Y5116939D01*
X6801310Y5116940D01*
X6801309Y5116940D01*
X6788154Y5118466D01*
X6732531Y5143956D01*
X6702513Y5197272D01*
X6709567Y5258049D01*
X6744466Y5299000D01*
X7359287Y5299000D01*
X8269029Y5299000D01*
X8269030Y5299001D01*
X8777030Y5299001D01*
X8777031Y5299000D01*
X9686772Y5299000D01*
X9636816Y5401188D01*
X9554217Y5483787D01*
X9449278Y5535088D01*
X9381246Y5545000D01*
X8777031Y5545000D01*
X8777030Y5544999D01*
X8777030Y5299001D01*
X8269030Y5299001D01*
X8269030Y5544999D01*
X8269029Y5545000D01*
X7664816Y5545000D01*
X7664813Y5544999D01*
X7596779Y5535088D01*
X7491841Y5483786D01*
X7409243Y5401188D01*
X7359287Y5299000D01*
X6744466Y5299000D01*
X6744574Y5299127D01*
X6750661Y5303193D01*
X6821867Y5350771D01*
X6831777Y5365605D01*
X6844084Y5380602D01*
X7381335Y5917853D01*
X7435850Y5945628D01*
X7496282Y5936057D01*
X7521337Y5917854D01*
X7525725Y5913466D01*
X7525726Y5913466D01*
X7525727Y5913465D01*
X7566900Y5895285D01*
X7628225Y5868207D01*
X7653283Y5865300D01*
X9392776Y5865301D01*
X9417835Y5868207D01*
X9520335Y5913466D01*
X9599564Y5992695D01*
X9612451Y6021880D01*
X9616600Y6031276D01*
X9657401Y6076871D01*
X9707164Y6090287D01*
X11818140Y6090287D01*
X11876331Y6071380D01*
G37*
G04 #@! TD.AperFunction*
G04 #@! TA.AperFunction,Conductor*
G36*
X14414638Y9706093D02*
G01*
X14450602Y9656593D01*
X14450602Y9595407D01*
X14431267Y9561171D01*
X14417798Y9545626D01*
X14364078Y9427996D01*
X14364077Y9427993D01*
X14358559Y9389611D01*
X14331563Y9334703D01*
X14277449Y9306150D01*
X14260567Y9304700D01*
X12603287Y9304700D01*
X12603284Y9304699D01*
X12578225Y9301793D01*
X12578219Y9301792D01*
X12475727Y9256536D01*
X12396494Y9177303D01*
X12351236Y9074806D01*
X12351236Y9074805D01*
X12348330Y9049754D01*
X12348330Y8660258D01*
X12348331Y8660255D01*
X12351237Y8635196D01*
X12351238Y8635190D01*
X12396494Y8532698D01*
X12396495Y8532697D01*
X12396496Y8532695D01*
X12475725Y8453466D01*
X12475726Y8453466D01*
X12475727Y8453465D01*
X12547350Y8421840D01*
X12578225Y8408207D01*
X12603283Y8405300D01*
X14291003Y8405301D01*
X14349194Y8386394D01*
X14385158Y8336894D01*
X14385158Y8275708D01*
X14381057Y8265176D01*
X14364079Y8227999D01*
X14364077Y8227994D01*
X14348495Y8119611D01*
X14321499Y8064703D01*
X14267385Y8036150D01*
X14250503Y8034700D01*
X12603287Y8034700D01*
X12603284Y8034699D01*
X12578225Y8031793D01*
X12578219Y8031792D01*
X12475727Y7986536D01*
X12396495Y7907304D01*
X12386078Y7883711D01*
X12345277Y7838116D01*
X12295514Y7824700D01*
X10930505Y7824700D01*
X10911192Y7826602D01*
X10893696Y7830082D01*
X10866639Y7824700D01*
X10786512Y7808763D01*
X10695651Y7748051D01*
X10695645Y7748045D01*
X10685732Y7733210D01*
X10673425Y7718215D01*
X10620614Y7665402D01*
X10566098Y7637623D01*
X10550609Y7636404D01*
X10465741Y7636404D01*
X10341667Y7599972D01*
X10341666Y7599972D01*
X10232883Y7530061D01*
X10148198Y7432330D01*
X10094478Y7314700D01*
X10094477Y7314698D01*
X10076076Y7186707D01*
X10076076Y7186702D01*
X10094477Y7058711D01*
X10094478Y7058709D01*
X10094478Y7058708D01*
X10094479Y7058706D01*
X10148198Y6941078D01*
X10232881Y6843349D01*
X10244318Y6835999D01*
X10266146Y6821971D01*
X10304877Y6774605D01*
X10308369Y6713519D01*
X10275290Y6662047D01*
X10218273Y6639848D01*
X10212622Y6639687D01*
X9638190Y6639687D01*
X9579999Y6658594D01*
X9568187Y6668683D01*
X9520334Y6716535D01*
X9520333Y6716536D01*
X9417834Y6761794D01*
X9392780Y6764700D01*
X7653287Y6764700D01*
X7653284Y6764699D01*
X7628225Y6761793D01*
X7628219Y6761792D01*
X7525726Y6716536D01*
X7455341Y6646151D01*
X7400824Y6618374D01*
X7340392Y6627946D01*
X7297128Y6671211D01*
X7287557Y6731643D01*
X7295614Y6757995D01*
X7331988Y6836000D01*
X7094001Y6836000D01*
X7094000Y6835999D01*
X7094000Y6615815D01*
X7125521Y6588171D01*
X7156804Y6535587D01*
X7151205Y6474659D01*
X7130249Y6443735D01*
X6609209Y5922695D01*
X6554692Y5894918D01*
X6494260Y5904489D01*
X6485687Y5909412D01*
X6403723Y5962087D01*
X6330988Y5983444D01*
X6279648Y5998519D01*
X6279647Y5998519D01*
X6150333Y5998519D01*
X6150331Y5998519D01*
X6026257Y5962087D01*
X6026256Y5962087D01*
X5917473Y5892176D01*
X5917471Y5892175D01*
X5917471Y5892174D01*
X5871006Y5838551D01*
X5832788Y5794445D01*
X5779068Y5676815D01*
X5779067Y5676813D01*
X5760666Y5548822D01*
X5760666Y5548817D01*
X5779067Y5420826D01*
X5779068Y5420824D01*
X5779068Y5420823D01*
X5779069Y5420821D01*
X5807971Y5357535D01*
X5814945Y5296748D01*
X5787921Y5246406D01*
X5690213Y5148697D01*
X5635697Y5120919D01*
X5620209Y5119700D01*
X5402483Y5119700D01*
X5378691Y5116940D01*
X5281316Y5073945D01*
X5215003Y5007632D01*
X5160486Y4979855D01*
X5100054Y4989427D01*
X5075041Y5007588D01*
X5074261Y5008367D01*
X5046449Y5062865D01*
X5055982Y5123303D01*
X5069400Y5143245D01*
X5118544Y5199959D01*
X5172263Y5317587D01*
X5177034Y5350771D01*
X5190666Y5445583D01*
X5190666Y5445588D01*
X5172264Y5573579D01*
X5172263Y5573581D01*
X5172263Y5573583D01*
X5128287Y5669875D01*
X5121314Y5730661D01*
X5151401Y5783937D01*
X5207057Y5809355D01*
X5218342Y5810000D01*
X5269838Y5810000D01*
X5319354Y5816520D01*
X5319361Y5816522D01*
X5428021Y5867191D01*
X5512809Y5951979D01*
X5563481Y6060645D01*
X5564186Y6065999D01*
X5564185Y6066000D01*
X4935000Y6066000D01*
X4876809Y6084907D01*
X4840845Y6134407D01*
X4836000Y6165000D01*
X4836000Y6811991D01*
X5344000Y6811991D01*
X5344000Y6574001D01*
X5344001Y6574000D01*
X5564186Y6574000D01*
X5564186Y6574002D01*
X5563481Y6579356D01*
X5512809Y6688022D01*
X5428020Y6772811D01*
X5344000Y6811991D01*
X4836000Y6811991D01*
X4751979Y6772811D01*
X4667189Y6688021D01*
X4662224Y6680929D01*
X4660771Y6681947D01*
X4626208Y6644890D01*
X4566145Y6633222D01*
X4510696Y6659087D01*
X4508246Y6661452D01*
X4436556Y6733142D01*
X4436554Y6733143D01*
X4433696Y6736001D01*
X4405919Y6790518D01*
X4404700Y6806005D01*
X4404700Y6835999D01*
X6348011Y6835999D01*
X6387190Y6751979D01*
X6471978Y6667191D01*
X6580645Y6616519D01*
X6580644Y6616519D01*
X6585998Y6615814D01*
X6586000Y6615815D01*
X6586000Y6835999D01*
X6585999Y6836000D01*
X6348012Y6836000D01*
X6348011Y6835999D01*
X4404700Y6835999D01*
X4404700Y7373192D01*
X4406602Y7392506D01*
X4410082Y7410000D01*
X4388762Y7517183D01*
X4351384Y7573124D01*
X4334700Y7628125D01*
X4334700Y7804744D01*
X4334700Y7804746D01*
X4327478Y7841054D01*
X4334670Y7901813D01*
X4342261Y7915368D01*
X4373396Y7961964D01*
X4384999Y8020300D01*
X4385000Y8020303D01*
X4385000Y8039999D01*
X4384999Y8040000D01*
X3335001Y8040000D01*
X3335000Y8039999D01*
X3335000Y8020300D01*
X3346603Y7961965D01*
X3377739Y7915367D01*
X3394347Y7856479D01*
X3392521Y7841054D01*
X3385300Y7804753D01*
X3385300Y7375250D01*
X3393984Y7331591D01*
X3393984Y7331590D01*
X3427069Y7282076D01*
X3427072Y7282072D01*
X3427075Y7282070D01*
X3476589Y7248985D01*
X3519079Y7240534D01*
X3520254Y7240300D01*
X3756300Y7240300D01*
X3814491Y7221393D01*
X3850455Y7171893D01*
X3855300Y7141300D01*
X3855300Y6806005D01*
X3836393Y6747814D01*
X3826304Y6736001D01*
X3823445Y6733143D01*
X3823444Y6733142D01*
X3778324Y6688022D01*
X3746858Y6656556D01*
X3703109Y6557474D01*
X3700300Y6533259D01*
X3700300Y6106742D01*
X3703109Y6082527D01*
X3703109Y6082525D01*
X3703110Y6082524D01*
X3746858Y5983444D01*
X3823444Y5906858D01*
X3905949Y5870429D01*
X3923328Y5858524D01*
X3923845Y5859296D01*
X3946782Y5843970D01*
X3961785Y5831658D01*
X4069739Y5723704D01*
X4097516Y5669187D01*
X4087945Y5608755D01*
X4044680Y5565490D01*
X3999735Y5554700D01*
X3433241Y5554700D01*
X3413928Y5556602D01*
X3396432Y5560082D01*
X3396431Y5560082D01*
X3383012Y5557413D01*
X3322251Y5564606D01*
X3277322Y5606139D01*
X3264700Y5654511D01*
X3264700Y6031217D01*
X3264700Y6031220D01*
X3254266Y6102836D01*
X3200259Y6213308D01*
X3113308Y6300259D01*
X3113306Y6300260D01*
X3113305Y6300261D01*
X3060206Y6326219D01*
X3012990Y6349302D01*
X2969017Y6391844D01*
X2958447Y6452110D01*
X2961483Y6466139D01*
X2961759Y6467080D01*
X2980161Y6595072D01*
X2980161Y6595077D01*
X2961759Y6723068D01*
X2961758Y6723070D01*
X2961758Y6723072D01*
X2908039Y6840700D01*
X2823356Y6938429D01*
X2767369Y6974410D01*
X2728639Y7021775D01*
X2722741Y7070617D01*
X2726083Y7096000D01*
X2105000Y7096000D01*
X2046809Y7114907D01*
X2010845Y7164407D01*
X2006000Y7195000D01*
X2006000Y7849141D01*
X2514000Y7849141D01*
X2514000Y7604001D01*
X2514001Y7604000D01*
X2726083Y7604000D01*
X2723576Y7623041D01*
X2723574Y7623048D01*
X2673650Y7730110D01*
X2590109Y7813651D01*
X2514001Y7849141D01*
X2514000Y7849141D01*
X2006000Y7849141D01*
X2005998Y7849141D01*
X1929890Y7813651D01*
X1846349Y7730110D01*
X1812033Y7656519D01*
X1770304Y7611771D01*
X1710243Y7600097D01*
X1654790Y7625956D01*
X1631744Y7658372D01*
X1628640Y7665402D01*
X1613946Y7698682D01*
X1538682Y7773946D01*
X1441311Y7816939D01*
X1441310Y7816940D01*
X1441308Y7816940D01*
X1417516Y7819700D01*
X1417512Y7819700D01*
X1062488Y7819700D01*
X1062483Y7819700D01*
X1038691Y7816940D01*
X941318Y7773946D01*
X866054Y7698682D01*
X823060Y7601309D01*
X820300Y7577517D01*
X820300Y7122484D01*
X823060Y7098692D01*
X823060Y7098690D01*
X823061Y7098689D01*
X866054Y7001318D01*
X936305Y6931067D01*
X964081Y6876552D01*
X965300Y6861065D01*
X965300Y6463700D01*
X946393Y6405509D01*
X896893Y6369545D01*
X866300Y6364700D01*
X848780Y6364700D01*
X777164Y6354266D01*
X666694Y6300261D01*
X579739Y6213306D01*
X527644Y6106742D01*
X525734Y6102836D01*
X515300Y6031220D01*
X515300Y5448780D01*
X525734Y5377164D01*
X538637Y5350771D01*
X579739Y5266695D01*
X579740Y5266694D01*
X579741Y5266692D01*
X666692Y5179741D01*
X666693Y5179741D01*
X666694Y5179740D01*
X701077Y5162931D01*
X745051Y5120388D01*
X755621Y5060122D01*
X728749Y5005154D01*
X699437Y4984266D01*
X631978Y4952810D01*
X547190Y4868022D01*
X496518Y4759356D01*
X495813Y4754002D01*
X495814Y4754000D01*
X1125000Y4754000D01*
X1183191Y4735093D01*
X1219155Y4685593D01*
X1224000Y4655000D01*
X1224000Y4008012D01*
X1224001Y4008012D01*
X1308021Y4047191D01*
X1392810Y4131980D01*
X1397776Y4139071D01*
X1399230Y4138053D01*
X1433774Y4175102D01*
X1493835Y4186781D01*
X1549289Y4160927D01*
X1551752Y4158550D01*
X1623444Y4086858D01*
X1722524Y4043110D01*
X1746746Y4040300D01*
X1995761Y4040300D01*
X2053952Y4021393D01*
X2070578Y4006133D01*
X2099847Y3972355D01*
X2191301Y3913581D01*
X2230032Y3866215D01*
X2233524Y3805129D01*
X2200445Y3753657D01*
X2143429Y3731458D01*
X2137777Y3731297D01*
X1130963Y3731297D01*
X1130960Y3731296D01*
X1105901Y3728390D01*
X1105895Y3728389D01*
X1003403Y3683133D01*
X924170Y3603900D01*
X875905Y3494590D01*
X874468Y3495225D01*
X845674Y3451260D01*
X788468Y3429554D01*
X737662Y3440778D01*
X625223Y3499791D01*
X460058Y3540500D01*
X460056Y3540500D01*
X289944Y3540500D01*
X289941Y3540500D01*
X148192Y3505562D01*
X87167Y3509994D01*
X40402Y3549449D01*
X25500Y3601685D01*
X25500Y4245999D01*
X495813Y4245999D01*
X496518Y4240645D01*
X547190Y4131979D01*
X631978Y4047191D01*
X715998Y4008012D01*
X716000Y4008012D01*
X716000Y4245999D01*
X715999Y4246000D01*
X495815Y4246000D01*
X495813Y4245999D01*
X25500Y4245999D01*
X25500Y8176212D01*
X4701929Y8176212D01*
X4720330Y8048221D01*
X4720331Y8048219D01*
X4720331Y8048218D01*
X4720332Y8048216D01*
X4774051Y7930588D01*
X4858734Y7832859D01*
X4967520Y7762946D01*
X5091596Y7726514D01*
X5091597Y7726514D01*
X5186300Y7726514D01*
X5244491Y7707607D01*
X5280455Y7658107D01*
X5285300Y7627514D01*
X5285300Y7375250D01*
X5293984Y7331591D01*
X5293984Y7331590D01*
X5327069Y7282076D01*
X5327072Y7282072D01*
X5327075Y7282070D01*
X5376589Y7248985D01*
X5419079Y7240534D01*
X5420254Y7240300D01*
X5420256Y7240300D01*
X6099744Y7240300D01*
X6099746Y7240300D01*
X6143410Y7248985D01*
X6192928Y7282072D01*
X6192930Y7282076D01*
X6197164Y7286307D01*
X6251681Y7314082D01*
X6267164Y7315300D01*
X6307751Y7315300D01*
X6327064Y7313398D01*
X6330402Y7312735D01*
X6344560Y7309918D01*
X6451743Y7331238D01*
X6451745Y7331240D01*
X6460752Y7334970D01*
X6461907Y7332180D01*
X6500874Y7344000D01*
X7346088Y7344000D01*
X7404279Y7325093D01*
X7436651Y7284990D01*
X7446496Y7262695D01*
X7525725Y7183466D01*
X7525726Y7183466D01*
X7525727Y7183465D01*
X7611423Y7145626D01*
X7628225Y7138207D01*
X7653283Y7135300D01*
X9392776Y7135301D01*
X9417835Y7138207D01*
X9520335Y7183466D01*
X9599564Y7262695D01*
X9644823Y7365195D01*
X9647730Y7390253D01*
X9647729Y7779746D01*
X9644823Y7804805D01*
X9644821Y7804809D01*
X9644821Y7804811D01*
X9599565Y7907303D01*
X9599564Y7907304D01*
X9599564Y7907305D01*
X9520335Y7986534D01*
X9520333Y7986535D01*
X9520332Y7986536D01*
X9417834Y8031794D01*
X9392783Y8034700D01*
X9392777Y8034700D01*
X7824792Y8034700D01*
X7766601Y8053607D01*
X7754788Y8063696D01*
X7600268Y8218216D01*
X7587956Y8233220D01*
X7575875Y8251301D01*
X7559267Y8310189D01*
X7580445Y8367592D01*
X7631320Y8401584D01*
X7658183Y8405301D01*
X9392776Y8405301D01*
X9417835Y8408207D01*
X9520335Y8453466D01*
X9599564Y8532695D01*
X9610626Y8557747D01*
X9614398Y8566289D01*
X9655199Y8611884D01*
X9704962Y8625300D01*
X10464895Y8625300D01*
X10523086Y8606393D01*
X10539711Y8591133D01*
X10577481Y8547545D01*
X10686267Y8477632D01*
X10810343Y8441200D01*
X10810344Y8441200D01*
X10939656Y8441200D01*
X10939657Y8441200D01*
X11063733Y8477632D01*
X11115497Y8510900D01*
X11174672Y8526455D01*
X11231688Y8504257D01*
X11243838Y8492450D01*
X11327009Y8396466D01*
X11435795Y8326553D01*
X11559871Y8290121D01*
X11559872Y8290121D01*
X11689184Y8290121D01*
X11689185Y8290121D01*
X11813261Y8326553D01*
X11922047Y8396466D01*
X12006730Y8494195D01*
X12060449Y8611823D01*
X12060458Y8611884D01*
X12078852Y8739819D01*
X12078852Y8739824D01*
X12060450Y8867815D01*
X12060449Y8867817D01*
X12060449Y8867819D01*
X12006730Y8985447D01*
X11922047Y9083176D01*
X11889227Y9104268D01*
X11813261Y9153089D01*
X11689186Y9189521D01*
X11689185Y9189521D01*
X11559871Y9189521D01*
X11559869Y9189521D01*
X11435795Y9153089D01*
X11384029Y9119821D01*
X11324853Y9104268D01*
X11267837Y9126467D01*
X11255687Y9138274D01*
X11246904Y9148410D01*
X11172519Y9234255D01*
X11063733Y9304168D01*
X11056983Y9306150D01*
X10939658Y9340600D01*
X10939657Y9340600D01*
X10810343Y9340600D01*
X10810341Y9340600D01*
X10686267Y9304168D01*
X10686266Y9304168D01*
X10577483Y9234257D01*
X10577481Y9234256D01*
X10577481Y9234255D01*
X10555481Y9208867D01*
X10503088Y9177273D01*
X10480665Y9174700D01*
X9643177Y9174700D01*
X9584986Y9193607D01*
X9573174Y9203696D01*
X9520334Y9256535D01*
X9520333Y9256536D01*
X9417834Y9301794D01*
X9392780Y9304700D01*
X7653287Y9304700D01*
X7653284Y9304699D01*
X7628225Y9301793D01*
X7628219Y9301792D01*
X7525727Y9256536D01*
X7525725Y9256535D01*
X7525725Y9256534D01*
X7462885Y9193695D01*
X7408371Y9165919D01*
X7392884Y9164700D01*
X6267164Y9164700D01*
X6208973Y9183607D01*
X6197164Y9193693D01*
X6192929Y9197927D01*
X6192923Y9197931D01*
X6176555Y9208868D01*
X6143410Y9231016D01*
X6099750Y9239700D01*
X6099746Y9239700D01*
X5420254Y9239700D01*
X5420249Y9239700D01*
X5376590Y9231016D01*
X5376589Y9231016D01*
X5327075Y9197931D01*
X5327069Y9197925D01*
X5293984Y9148411D01*
X5293984Y9148410D01*
X5285300Y9104751D01*
X5285300Y8724914D01*
X5266393Y8666723D01*
X5216893Y8630759D01*
X5186300Y8625914D01*
X5091594Y8625914D01*
X4967520Y8589482D01*
X4967519Y8589482D01*
X4858736Y8519571D01*
X4858734Y8519570D01*
X4858734Y8519569D01*
X4789367Y8439516D01*
X4774051Y8421840D01*
X4720331Y8304210D01*
X4720330Y8304208D01*
X4701929Y8176217D01*
X4701929Y8176212D01*
X25500Y8176212D01*
X25500Y8959998D01*
X2065676Y8959998D01*
X2084077Y8832007D01*
X2084078Y8832005D01*
X2084078Y8832004D01*
X2084079Y8832002D01*
X2137798Y8714374D01*
X2222481Y8616645D01*
X2331267Y8546732D01*
X2455343Y8510300D01*
X2455344Y8510300D01*
X2584656Y8510300D01*
X2584657Y8510300D01*
X2708733Y8546732D01*
X2817519Y8616645D01*
X2858099Y8663478D01*
X2910495Y8695073D01*
X2971456Y8689837D01*
X3017697Y8649769D01*
X3019999Y8645406D01*
X3021376Y8643264D01*
X3021377Y8643263D01*
X3021379Y8643259D01*
X3106062Y8545530D01*
X3214848Y8475617D01*
X3310279Y8447596D01*
X3323082Y8440000D01*
X3326175Y8440000D01*
X3337577Y8439185D01*
X3338924Y8439185D01*
X3469585Y8439185D01*
X3480987Y8440000D01*
X4384999Y8440000D01*
X4385000Y8440001D01*
X4385000Y8459698D01*
X4384999Y8459701D01*
X4373396Y8518037D01*
X4342261Y8564633D01*
X4325652Y8623521D01*
X4327476Y8638939D01*
X4334700Y8675254D01*
X4334700Y9104746D01*
X4326015Y9148410D01*
X4326015Y9148411D01*
X4292930Y9197925D01*
X4292928Y9197928D01*
X4291146Y9199119D01*
X4243410Y9231016D01*
X4199750Y9239700D01*
X4199746Y9239700D01*
X3718561Y9239700D01*
X3665038Y9255416D01*
X3592314Y9302153D01*
X3583640Y9304700D01*
X3468239Y9338585D01*
X3468238Y9338585D01*
X3338924Y9338585D01*
X3338922Y9338585D01*
X3214848Y9302153D01*
X3214847Y9302153D01*
X3106063Y9232241D01*
X3106062Y9232241D01*
X3106062Y9232240D01*
X3105001Y9231015D01*
X3065480Y9185407D01*
X3013083Y9153812D01*
X2952122Y9159050D01*
X2905882Y9199119D01*
X2903582Y9203479D01*
X2902204Y9205622D01*
X2902203Y9205623D01*
X2902202Y9205626D01*
X2817519Y9303355D01*
X2816059Y9304293D01*
X2708733Y9373268D01*
X2584658Y9409700D01*
X2584657Y9409700D01*
X2455343Y9409700D01*
X2455341Y9409700D01*
X2331267Y9373268D01*
X2331266Y9373268D01*
X2222483Y9303357D01*
X2222481Y9303356D01*
X2222481Y9303355D01*
X2162607Y9234257D01*
X2137798Y9205626D01*
X2084078Y9087996D01*
X2084077Y9087994D01*
X2065676Y8960003D01*
X2065676Y8959998D01*
X25500Y8959998D01*
X25500Y9626000D01*
X44407Y9684191D01*
X93907Y9720155D01*
X124500Y9725000D01*
X14356447Y9725000D01*
X14414638Y9706093D01*
G37*
G04 #@! TD.AperFunction*
G04 #@! TD*
M02*
