G04 #@! TF.GenerationSoftware,KiCad,Pcbnew,7.0.9*
G04 #@! TF.CreationDate,2024-03-27T08:03:58+03:00*
G04 #@! TF.ProjectId,hellen1-vr-discrete,68656c6c-656e-4312-9d76-722d64697363,rev?*
G04 #@! TF.SameCoordinates,PX4a19ba0PY5aa5910*
G04 #@! TF.FileFunction,Copper,L3,Inr*
G04 #@! TF.FilePolarity,Positive*
%FSLAX46Y46*%
G04 Gerber Fmt 4.6, Leading zero omitted, Abs format (unit mm)*
G04 Created by KiCad (PCBNEW 7.0.9) date 2024-03-27 08:03:58*
%MOMM*%
%LPD*%
G01*
G04 APERTURE LIST*
G04 #@! TA.AperFunction,ComponentPad*
%ADD10C,0.600000*%
G04 #@! TD*
G04 #@! TA.AperFunction,Conductor*
%ADD11R,0.250000X6.185000*%
G04 #@! TD*
G04 #@! TA.AperFunction,Conductor*
%ADD12R,0.250000X1.115000*%
G04 #@! TD*
G04 #@! TA.AperFunction,Conductor*
%ADD13R,14.275000X0.250000*%
G04 #@! TD*
G04 #@! TA.AperFunction,Conductor*
%ADD14R,15.100000X0.250000*%
G04 #@! TD*
G04 #@! TA.AperFunction,Conductor*
%ADD15R,0.250000X5.175000*%
G04 #@! TD*
G04 #@! TA.AperFunction,ViaPad*
%ADD16C,0.600000*%
G04 #@! TD*
G04 #@! TA.AperFunction,Conductor*
%ADD17C,0.250000*%
G04 #@! TD*
G04 APERTURE END LIST*
D10*
G04 #@! TO.N,thresh_input*
G04 #@! TO.C,M750*
X14800000Y6900000D03*
G04 #@! TO.N,analog_out*
X14800000Y5700000D03*
G04 #@! TO.N,output*
X14800000Y8100000D03*
G04 #@! TO.N,+5V*
X14800000Y9300000D03*
D11*
G04 #@! TO.N,GND*
X150000Y6632500D03*
D12*
X150000Y582500D03*
D13*
X7162500Y9600000D03*
D14*
X7575000Y150000D03*
D15*
X15000000Y2612500D03*
D10*
G04 #@! TO.N,VR-*
X375000Y2840000D03*
G04 #@! TO.N,VR+*
X375000Y1840000D03*
G04 #@! TD*
D16*
G04 #@! TO.N,Net-(U751-IO2)*
X2960880Y4809882D03*
G04 #@! TO.N,GND*
X4542548Y9374500D03*
X14840000Y350000D03*
X420000Y8930000D03*
X475000Y6825000D03*
X8950000Y400000D03*
X6829764Y6567230D03*
X2332643Y2337000D03*
X5467387Y5608768D03*
X4400000Y400000D03*
X2309598Y414120D03*
X9925000Y5475000D03*
X10476117Y3469351D03*
X350000Y4750000D03*
X7300000Y5350000D03*
X14800000Y2625000D03*
X9125000Y4400000D03*
X12121049Y9321268D03*
X14775000Y1575000D03*
G04 #@! TO.N,Net-(U751-IO1)*
X3700500Y4078767D03*
G04 #@! TO.N,Net-(U751-IO2)*
X3625400Y739602D03*
G04 #@! TO.N,+5V*
X8165850Y4280400D03*
X4766217Y2280985D03*
X2397366Y4315710D03*
X2520000Y8960000D03*
X14159615Y2002851D03*
X5156253Y8176214D03*
G04 #@! TO.N,Vref*
X4736342Y5445585D03*
X7501951Y1719344D03*
X12950246Y2025341D03*
G04 #@! TO.N,thresh_low*
X11624528Y8739821D03*
X3403581Y8888885D03*
G04 #@! TO.N,Net-(C756-Pad2)*
X10875000Y8890900D03*
G04 #@! TO.N,Net-(C757-Pad2)*
X10699317Y5399689D03*
X10530400Y7186704D03*
G04 #@! TO.N,Net-(U753A-+)*
X7604434Y2609453D03*
G04 #@! TO.N,output*
X2525837Y6595074D03*
G04 #@! TO.N,analog_out*
X6214990Y5548819D03*
G04 #@! TO.N,Net-(U753B--)*
X7166110Y4522290D03*
G04 #@! TO.N,Net-(U753B-+)*
X7325000Y3525000D03*
G04 #@! TO.N,Net-(U753D--)*
X10225000Y4750000D03*
X12091307Y5514600D03*
G04 #@! TO.N,Net-(R763-Pad1)*
X10640500Y805547D03*
G04 #@! TO.N,Net-(U753A--)*
X7375000Y775000D03*
G04 #@! TD*
D17*
G04 #@! TO.N,+5V*
X3520000Y5920000D02*
X1900000Y5920000D01*
X3950000Y6350000D02*
X3520000Y5920000D01*
X1900000Y5920000D02*
X1900000Y4813076D01*
X1900000Y6800000D02*
X1900000Y5920000D01*
G04 #@! TO.N,Net-(U751-IO2)*
X3625400Y1015400D02*
X3625400Y739602D01*
X4960000Y1550000D02*
X4160000Y1550000D01*
X4160000Y1550000D02*
X3625400Y1015400D01*
X5420000Y2010000D02*
X4960000Y1550000D01*
X2960880Y4809882D02*
X3790118Y4809882D01*
X3790118Y4809882D02*
X5420000Y3180000D01*
X5420000Y3180000D02*
X5420000Y2010000D01*
G04 #@! TO.N,+5V*
X6234528Y6350000D02*
X3950000Y6350000D01*
X7543173Y5920000D02*
X7538173Y5925000D01*
X9556827Y5920000D02*
X7543173Y5920000D01*
X12610400Y6089600D02*
X9726427Y6089600D01*
X14128830Y2105220D02*
X14128830Y4571170D01*
X1900000Y4813076D02*
X2397366Y4315710D01*
X14128830Y4571170D02*
X12610400Y6089600D01*
X3300000Y8200000D02*
X1900000Y6800000D01*
X2397366Y3677634D02*
X2397366Y4315710D01*
X3794015Y2280985D02*
X2397366Y3677634D01*
X7538173Y5925000D02*
X6659528Y5925000D01*
X4766217Y2280985D02*
X3794015Y2280985D01*
X9726427Y6089600D02*
X9556827Y5920000D01*
X6659528Y5925000D02*
X6234528Y6350000D01*
G04 #@! TO.N,output*
X4011071Y7386071D02*
X6738929Y7386071D01*
X3220074Y6595074D02*
X4011071Y7386071D01*
X2525837Y6595074D02*
X3220074Y6595074D01*
G04 #@! TO.N,Vref*
X12215956Y1725000D02*
X12765956Y2275000D01*
X7675000Y1725000D02*
X12215956Y1725000D01*
X4736342Y4663658D02*
X7675000Y1725000D01*
X4736342Y5445585D02*
X4736342Y4663658D01*
G04 #@! TO.N,+5V*
X8165850Y4280400D02*
X8160000Y4286250D01*
X7050000Y8175000D02*
X7448196Y7776804D01*
X3305000Y8175000D02*
X7050000Y8175000D01*
X8160000Y4286250D02*
X8160000Y5900000D01*
X13276804Y7776804D02*
X14800000Y9300000D01*
X2520000Y8960000D02*
X3305000Y8175000D01*
X7448196Y7776804D02*
X13276804Y7776804D01*
G04 #@! TO.N,thresh_low*
X11134707Y8250000D02*
X11624528Y8739821D01*
X3403581Y8888885D02*
X3492466Y8800000D01*
X7300000Y8800000D02*
X7850000Y8250000D01*
X7850000Y8250000D02*
X11134707Y8250000D01*
X3492466Y8800000D02*
X7300000Y8800000D01*
G04 #@! TO.N,output*
X6738929Y7386071D02*
X6965475Y7386071D01*
X6738929Y7386071D02*
X6911071Y7386071D01*
X7831746Y6519800D02*
X13244800Y6519800D01*
X13244800Y6519800D02*
X14800000Y8075000D01*
X6965475Y7386071D02*
X7831746Y6519800D01*
G04 #@! TO.N,Net-(U753D--)*
X12091307Y5514600D02*
X11326707Y4750000D01*
X11326707Y4750000D02*
X10225000Y4750000D01*
G04 #@! TD*
G04 #@! TA.AperFunction,Conductor*
G04 #@! TO.N,GND*
G36*
X14414638Y9706093D02*
G01*
X14450602Y9656593D01*
X14450602Y9595407D01*
X14431267Y9561171D01*
X14417798Y9545626D01*
X14364078Y9427996D01*
X14364077Y9427994D01*
X14345676Y9300004D01*
X14345676Y9300003D01*
X14346900Y9291488D01*
X14336465Y9231199D01*
X14318911Y9207397D01*
X13192016Y8080500D01*
X13137499Y8052723D01*
X13122012Y8051504D01*
X11563702Y8051504D01*
X11505511Y8070411D01*
X11469547Y8119911D01*
X11469547Y8181097D01*
X11493696Y8220507D01*
X11534316Y8261126D01*
X11588832Y8288902D01*
X11604319Y8290121D01*
X11689184Y8290121D01*
X11689185Y8290121D01*
X11813261Y8326553D01*
X11922047Y8396466D01*
X12006730Y8494195D01*
X12060449Y8611823D01*
X12061142Y8616644D01*
X12078852Y8739819D01*
X12078852Y8739824D01*
X12060450Y8867815D01*
X12060449Y8867817D01*
X12060449Y8867819D01*
X12006730Y8985447D01*
X11922047Y9083176D01*
X11889227Y9104268D01*
X11813261Y9153089D01*
X11689186Y9189521D01*
X11689185Y9189521D01*
X11559871Y9189521D01*
X11559869Y9189521D01*
X11435795Y9153089D01*
X11384029Y9119821D01*
X11324853Y9104268D01*
X11267837Y9126467D01*
X11255687Y9138274D01*
X11172519Y9234255D01*
X11063733Y9304168D01*
X10939658Y9340600D01*
X10939657Y9340600D01*
X10810343Y9340600D01*
X10810341Y9340600D01*
X10686267Y9304168D01*
X10686266Y9304168D01*
X10577483Y9234257D01*
X10577481Y9234256D01*
X10577481Y9234255D01*
X10507150Y9153089D01*
X10492798Y9136526D01*
X10439078Y9018896D01*
X10439077Y9018894D01*
X10420676Y8890903D01*
X10420676Y8890898D01*
X10439077Y8762907D01*
X10439078Y8762905D01*
X10439078Y8762904D01*
X10439079Y8762902D01*
X10449620Y8739821D01*
X10483869Y8664826D01*
X10490843Y8604039D01*
X10460756Y8550762D01*
X10405100Y8525345D01*
X10393815Y8524700D01*
X8004792Y8524700D01*
X7946601Y8543607D01*
X7934788Y8553696D01*
X7520268Y8968216D01*
X7507956Y8983219D01*
X7498048Y8998048D01*
X7407183Y9058762D01*
X7407181Y9058763D01*
X7407180Y9058763D01*
X7378830Y9064402D01*
X7364848Y9067183D01*
X7300000Y9080082D01*
X7299999Y9080082D01*
X7282504Y9076602D01*
X7263191Y9074700D01*
X3876721Y9074700D01*
X3818530Y9093607D01*
X3789835Y9128700D01*
X3789611Y9128555D01*
X3788351Y9130516D01*
X3786667Y9132575D01*
X3785783Y9134510D01*
X3785783Y9134511D01*
X3701100Y9232240D01*
X3592314Y9302153D01*
X3585452Y9304168D01*
X3468239Y9338585D01*
X3468238Y9338585D01*
X3338924Y9338585D01*
X3338922Y9338585D01*
X3214848Y9302153D01*
X3214847Y9302153D01*
X3106063Y9232241D01*
X3065480Y9185407D01*
X3013083Y9153812D01*
X2952122Y9159050D01*
X2905882Y9199119D01*
X2903582Y9203479D01*
X2902204Y9205622D01*
X2902203Y9205623D01*
X2902202Y9205626D01*
X2817519Y9303355D01*
X2708733Y9373268D01*
X2584658Y9409700D01*
X2584657Y9409700D01*
X2455343Y9409700D01*
X2455341Y9409700D01*
X2331267Y9373268D01*
X2331266Y9373268D01*
X2222483Y9303357D01*
X2222481Y9303356D01*
X2222481Y9303355D01*
X2219574Y9300000D01*
X2137798Y9205626D01*
X2084078Y9087996D01*
X2084077Y9087994D01*
X2065676Y8960003D01*
X2065676Y8959998D01*
X2084077Y8832007D01*
X2084078Y8832005D01*
X2084078Y8832004D01*
X2084079Y8832002D01*
X2137798Y8714374D01*
X2222481Y8616645D01*
X2331267Y8546732D01*
X2455343Y8510300D01*
X2540209Y8510300D01*
X2598400Y8491393D01*
X2610213Y8481303D01*
X2831511Y8260004D01*
X2859288Y8205488D01*
X2849717Y8145056D01*
X2831511Y8119997D01*
X1731784Y7020270D01*
X1716786Y7007961D01*
X1701952Y6998049D01*
X1682919Y6969563D01*
X1663886Y6941078D01*
X1658648Y6933239D01*
X1641240Y6907187D01*
X1641238Y6907184D01*
X1619918Y6800000D01*
X1623398Y6782506D01*
X1625300Y6763192D01*
X1625300Y5956809D01*
X1623398Y5937496D01*
X1619918Y5920001D01*
X1623398Y5902506D01*
X1625300Y5883192D01*
X1625300Y4849885D01*
X1623397Y4830572D01*
X1619918Y4813076D01*
X1621930Y4802963D01*
X1625300Y4786019D01*
X1641237Y4705893D01*
X1692659Y4628936D01*
X1701952Y4615028D01*
X1716781Y4605120D01*
X1731784Y4592808D01*
X1916277Y4408315D01*
X1944054Y4353798D01*
X1944266Y4324225D01*
X1943042Y4315710D01*
X1943042Y4315707D01*
X1961443Y4187717D01*
X1961444Y4187715D01*
X1961444Y4187714D01*
X1961445Y4187712D01*
X2015164Y4070084D01*
X2098485Y3973926D01*
X2122303Y3917568D01*
X2122666Y3909096D01*
X2122666Y3714443D01*
X2120764Y3695130D01*
X2117284Y3677635D01*
X2122666Y3650577D01*
X2138603Y3570451D01*
X2179000Y3509994D01*
X2199318Y3479586D01*
X2214149Y3469676D01*
X2229150Y3457366D01*
X3573746Y2112770D01*
X3586057Y2097768D01*
X3595967Y2082937D01*
X3667173Y2035359D01*
X3686832Y2022223D01*
X3794015Y2000903D01*
X3808730Y2003831D01*
X3811511Y2004383D01*
X3830824Y2006285D01*
X4040666Y2006285D01*
X4098857Y1987378D01*
X4134821Y1937878D01*
X4134821Y1876692D01*
X4098857Y1827192D01*
X4059980Y1810187D01*
X4052816Y1808763D01*
X3961955Y1748051D01*
X3961948Y1748044D01*
X3952041Y1733218D01*
X3939733Y1718221D01*
X3457181Y1235668D01*
X3442182Y1223358D01*
X3427355Y1213451D01*
X3427349Y1213445D01*
X3399972Y1172471D01*
X3386875Y1152870D01*
X3366638Y1122583D01*
X3366637Y1122581D01*
X3361223Y1114477D01*
X3358048Y1116599D01*
X3332258Y1085770D01*
X3327878Y1082956D01*
X3243199Y985231D01*
X3189478Y867598D01*
X3189477Y867596D01*
X3171076Y739605D01*
X3171076Y739600D01*
X3189477Y611609D01*
X3189478Y611607D01*
X3189478Y611606D01*
X3189479Y611604D01*
X3243198Y493976D01*
X3327881Y396247D01*
X3436667Y326334D01*
X3560743Y289902D01*
X3560744Y289902D01*
X3690056Y289902D01*
X3690057Y289902D01*
X3814133Y326334D01*
X3922919Y396247D01*
X4007602Y493976D01*
X4061321Y611604D01*
X4061322Y611609D01*
X4079724Y739600D01*
X4079724Y739605D01*
X4061322Y867596D01*
X4061321Y867598D01*
X4061321Y867600D01*
X4028665Y939105D01*
X4021691Y999890D01*
X4048714Y1050232D01*
X4244789Y1246304D01*
X4299306Y1274081D01*
X4314792Y1275300D01*
X4923191Y1275300D01*
X4942504Y1273398D01*
X4945842Y1272735D01*
X4960000Y1269918D01*
X5067183Y1291238D01*
X5073535Y1295482D01*
X5158048Y1351952D01*
X5167958Y1366786D01*
X5180265Y1381783D01*
X5588217Y1789735D01*
X5603217Y1802043D01*
X5618048Y1811952D01*
X5678762Y1902817D01*
X5694700Y1982943D01*
X5700082Y2010000D01*
X5697650Y2022224D01*
X5696602Y2027496D01*
X5694700Y2046809D01*
X5694700Y3077808D01*
X5713607Y3135999D01*
X5763107Y3171963D01*
X5824293Y3171963D01*
X5863704Y3147812D01*
X7048194Y1963322D01*
X7075971Y1908805D01*
X7068248Y1852201D01*
X7066029Y1847343D01*
X7066029Y1847341D01*
X7047627Y1719347D01*
X7047627Y1719342D01*
X7066028Y1591351D01*
X7066029Y1591349D01*
X7066029Y1591348D01*
X7066030Y1591346D01*
X7119749Y1473718D01*
X7204432Y1375989D01*
X7216864Y1367999D01*
X7255594Y1320635D01*
X7259088Y1259549D01*
X7226009Y1208077D01*
X7191236Y1189727D01*
X7186268Y1188269D01*
X7186266Y1188268D01*
X7077483Y1118357D01*
X7077481Y1118356D01*
X7077481Y1118355D01*
X7042787Y1078316D01*
X6992798Y1020626D01*
X6939078Y902996D01*
X6939077Y902994D01*
X6920676Y775003D01*
X6920676Y774998D01*
X6939077Y647007D01*
X6939078Y647005D01*
X6939078Y647004D01*
X6939079Y647002D01*
X6992798Y529374D01*
X7077481Y431645D01*
X7186267Y361732D01*
X7310343Y325300D01*
X7310344Y325300D01*
X7439656Y325300D01*
X7439657Y325300D01*
X7563733Y361732D01*
X7672519Y431645D01*
X7757202Y529374D01*
X7810921Y647002D01*
X7815313Y677549D01*
X7829324Y774998D01*
X7829324Y775003D01*
X7824933Y805545D01*
X10186176Y805545D01*
X10204577Y677554D01*
X10204578Y677552D01*
X10204578Y677551D01*
X10204579Y677549D01*
X10258298Y559921D01*
X10342981Y462192D01*
X10451767Y392279D01*
X10575843Y355847D01*
X10575844Y355847D01*
X10705156Y355847D01*
X10705157Y355847D01*
X10829233Y392279D01*
X10938019Y462192D01*
X11022702Y559921D01*
X11076421Y677549D01*
X11076422Y677554D01*
X11094824Y805545D01*
X11094824Y805550D01*
X11076422Y933541D01*
X11076421Y933543D01*
X11076421Y933545D01*
X11022702Y1051173D01*
X10938019Y1148902D01*
X10874494Y1189727D01*
X10829233Y1218815D01*
X10701537Y1256310D01*
X10651030Y1290846D01*
X10642137Y1315769D01*
X10609762Y1271207D01*
X10579463Y1256310D01*
X10451767Y1218815D01*
X10451766Y1218815D01*
X10342983Y1148904D01*
X10342981Y1148903D01*
X10342981Y1148902D01*
X10305553Y1105708D01*
X10258298Y1051173D01*
X10204578Y933543D01*
X10204577Y933541D01*
X10186176Y805550D01*
X10186176Y805545D01*
X7824933Y805545D01*
X7810922Y902994D01*
X7810921Y902996D01*
X7810921Y902998D01*
X7757202Y1020626D01*
X7672519Y1118355D01*
X7660085Y1126346D01*
X7621355Y1173711D01*
X7617863Y1234797D01*
X7650942Y1286269D01*
X7685722Y1304620D01*
X7690684Y1306076D01*
X7799470Y1375989D01*
X7834253Y1416132D01*
X7886649Y1447727D01*
X7909072Y1450300D01*
X10551571Y1450300D01*
X10609762Y1431393D01*
X10641848Y1387230D01*
X10647707Y1407180D01*
X10696160Y1444543D01*
X10729429Y1450300D01*
X12179147Y1450300D01*
X12198460Y1448398D01*
X12201798Y1447735D01*
X12215956Y1444918D01*
X12323139Y1466238D01*
X12414004Y1526952D01*
X12423914Y1541786D01*
X12436221Y1556783D01*
X12540734Y1661296D01*
X12595249Y1689071D01*
X12655681Y1679500D01*
X12664259Y1674574D01*
X12761508Y1612076D01*
X12761513Y1612073D01*
X12885589Y1575641D01*
X12885590Y1575641D01*
X13014902Y1575641D01*
X13014903Y1575641D01*
X13138979Y1612073D01*
X13247765Y1681986D01*
X13332448Y1779715D01*
X13386167Y1897343D01*
X13388665Y1914717D01*
X13404570Y2025339D01*
X13404570Y2025344D01*
X13386168Y2153335D01*
X13386167Y2153337D01*
X13386167Y2153339D01*
X13332448Y2270967D01*
X13247765Y2368696D01*
X13242513Y2372071D01*
X13138979Y2438609D01*
X13014904Y2475041D01*
X13014903Y2475041D01*
X12991052Y2475041D01*
X12936051Y2491725D01*
X12873140Y2533761D01*
X12873139Y2533762D01*
X12873138Y2533762D01*
X12765956Y2555082D01*
X12765955Y2555082D01*
X12658772Y2533762D01*
X12658770Y2533761D01*
X12590846Y2488375D01*
X12131168Y2028696D01*
X12076651Y2000919D01*
X12061164Y1999700D01*
X7899270Y1999700D01*
X7841079Y2018607D01*
X7824451Y2033869D01*
X7821689Y2037057D01*
X7799470Y2062699D01*
X7799468Y2062700D01*
X7797740Y2064695D01*
X7773922Y2121054D01*
X7787780Y2180649D01*
X7819033Y2212809D01*
X7901953Y2266098D01*
X7986636Y2363827D01*
X8040355Y2481455D01*
X8047365Y2530211D01*
X8058758Y2609451D01*
X8058758Y2609456D01*
X8040356Y2737447D01*
X8040355Y2737449D01*
X8040355Y2737451D01*
X7986636Y2855079D01*
X7901953Y2952808D01*
X7793167Y3022721D01*
X7705648Y3048419D01*
X7695159Y3051499D01*
X7644652Y3086035D01*
X7624091Y3143663D01*
X7641330Y3202369D01*
X7648219Y3211306D01*
X7707202Y3279374D01*
X7760921Y3397002D01*
X7772795Y3479589D01*
X7779324Y3524998D01*
X7779324Y3525003D01*
X7760922Y3652994D01*
X7760921Y3652996D01*
X7760921Y3652998D01*
X7707202Y3770626D01*
X7622519Y3868355D01*
X7513733Y3938268D01*
X7513727Y3938271D01*
X7430295Y3962769D01*
X7379789Y3997305D01*
X7359228Y4054932D01*
X7376467Y4113639D01*
X7404661Y4141039D01*
X7463629Y4178935D01*
X7546798Y4274918D01*
X7599194Y4306513D01*
X7660155Y4301277D01*
X7706396Y4261209D01*
X7719609Y4224175D01*
X7729927Y4152408D01*
X7729928Y4152405D01*
X7729928Y4152404D01*
X7729929Y4152402D01*
X7783648Y4034774D01*
X7868331Y3937045D01*
X7977117Y3867132D01*
X8101193Y3830700D01*
X8101194Y3830700D01*
X8230506Y3830700D01*
X8230507Y3830700D01*
X8354583Y3867132D01*
X8463369Y3937045D01*
X8548052Y4034774D01*
X8601771Y4152402D01*
X8606848Y4187715D01*
X8620174Y4280398D01*
X8620174Y4280403D01*
X8601772Y4408394D01*
X8601771Y4408396D01*
X8601771Y4408398D01*
X8548052Y4526026D01*
X8548050Y4526028D01*
X8548050Y4526029D01*
X8458881Y4628936D01*
X8435063Y4685295D01*
X8434700Y4693767D01*
X8434700Y5546300D01*
X8453607Y5604491D01*
X8503107Y5640455D01*
X8533700Y5645300D01*
X9520018Y5645300D01*
X9539331Y5643398D01*
X9542669Y5642735D01*
X9556827Y5639918D01*
X9664010Y5661238D01*
X9679919Y5671868D01*
X9684269Y5674774D01*
X9708868Y5691211D01*
X9754875Y5721952D01*
X9764783Y5736782D01*
X9777096Y5751786D01*
X9792332Y5767021D01*
X9811216Y5785906D01*
X9865733Y5813681D01*
X9881219Y5814900D01*
X10247282Y5814900D01*
X10305473Y5795993D01*
X10341437Y5746493D01*
X10341437Y5685307D01*
X10322101Y5651070D01*
X10317487Y5645744D01*
X10317115Y5645315D01*
X10263395Y5527685D01*
X10263394Y5527683D01*
X10244993Y5399692D01*
X10244993Y5399688D01*
X10257487Y5312789D01*
X10247054Y5252500D01*
X10203176Y5209858D01*
X10167235Y5201500D01*
X10167349Y5200707D01*
X10160341Y5199700D01*
X10036267Y5163268D01*
X10036266Y5163268D01*
X9927483Y5093357D01*
X9927481Y5093356D01*
X9927481Y5093355D01*
X9902825Y5064900D01*
X9842798Y4995626D01*
X9789078Y4877996D01*
X9789077Y4877994D01*
X9770676Y4750003D01*
X9770676Y4749998D01*
X9789077Y4622007D01*
X9789078Y4622005D01*
X9789078Y4622004D01*
X9789079Y4622002D01*
X9842798Y4504374D01*
X9927481Y4406645D01*
X10036267Y4336732D01*
X10160343Y4300300D01*
X10160344Y4300300D01*
X10289656Y4300300D01*
X10289657Y4300300D01*
X10413733Y4336732D01*
X10522519Y4406645D01*
X10552401Y4441132D01*
X10604797Y4472727D01*
X10627220Y4475300D01*
X11289898Y4475300D01*
X11309211Y4473398D01*
X11312549Y4472735D01*
X11326707Y4469918D01*
X11433890Y4491238D01*
X11434287Y4491504D01*
X11435084Y4492035D01*
X11470902Y4515969D01*
X11524755Y4551952D01*
X11534666Y4566787D01*
X11546973Y4581784D01*
X12001096Y5035904D01*
X12055612Y5063681D01*
X12071099Y5064900D01*
X12155963Y5064900D01*
X12155964Y5064900D01*
X12280040Y5101332D01*
X12388826Y5171245D01*
X12473509Y5268974D01*
X12527228Y5386602D01*
X12527229Y5386607D01*
X12545631Y5514598D01*
X12545631Y5521680D01*
X12547154Y5521680D01*
X12556197Y5573946D01*
X12600073Y5616591D01*
X12660636Y5625301D01*
X12713762Y5597754D01*
X13825134Y4486382D01*
X13852911Y4431865D01*
X13854130Y4416378D01*
X13854130Y2373938D01*
X13835223Y2315747D01*
X13829949Y2309107D01*
X13777414Y2248479D01*
X13723693Y2130847D01*
X13723692Y2130845D01*
X13705291Y2002854D01*
X13705291Y2002849D01*
X13723692Y1874858D01*
X13723693Y1874856D01*
X13723693Y1874855D01*
X13723694Y1874853D01*
X13777413Y1757225D01*
X13862096Y1659496D01*
X13970882Y1589583D01*
X14094958Y1553151D01*
X14094959Y1553151D01*
X14224271Y1553151D01*
X14224272Y1553151D01*
X14348348Y1589583D01*
X14457134Y1659496D01*
X14541817Y1757225D01*
X14595536Y1874853D01*
X14595537Y1874858D01*
X14613939Y2002849D01*
X14613939Y2002854D01*
X14595537Y2130845D01*
X14595536Y2130847D01*
X14595536Y2130849D01*
X14541817Y2248477D01*
X14457134Y2346206D01*
X14457130Y2346209D01*
X14449006Y2351430D01*
X14410275Y2398797D01*
X14403530Y2434714D01*
X14403530Y4534362D01*
X14405432Y4553676D01*
X14405989Y4556475D01*
X14408912Y4571170D01*
X14387592Y4678353D01*
X14382954Y4685295D01*
X14377360Y4693667D01*
X14329128Y4765850D01*
X14326878Y4769218D01*
X14312047Y4779128D01*
X14297045Y4791439D01*
X13012388Y6076096D01*
X12984611Y6130613D01*
X12994182Y6191045D01*
X13037447Y6234310D01*
X13082392Y6245100D01*
X13207991Y6245100D01*
X13227304Y6243198D01*
X13230642Y6242535D01*
X13244800Y6239718D01*
X13351983Y6261038D01*
X13442848Y6321752D01*
X13452758Y6336586D01*
X13465065Y6351583D01*
X14191131Y7077648D01*
X14245647Y7105424D01*
X14306079Y7095853D01*
X14349344Y7052588D01*
X14359126Y6993555D01*
X14345676Y6900004D01*
X14345676Y6899998D01*
X14364077Y6772007D01*
X14364078Y6772005D01*
X14364078Y6772004D01*
X14364079Y6772002D01*
X14417798Y6654374D01*
X14475819Y6587415D01*
X14499637Y6531057D01*
X14500000Y6522584D01*
X14500000Y6077417D01*
X14481093Y6019226D01*
X14475819Y6012586D01*
X14417799Y5945628D01*
X14364078Y5827996D01*
X14364077Y5827994D01*
X14345676Y5700003D01*
X14345676Y5699998D01*
X14364077Y5572007D01*
X14364078Y5572005D01*
X14364078Y5572004D01*
X14364079Y5572002D01*
X14417798Y5454374D01*
X14502481Y5356645D01*
X14611267Y5286732D01*
X14735343Y5250300D01*
X14735344Y5250300D01*
X14864656Y5250300D01*
X14864657Y5250300D01*
X14988733Y5286732D01*
X14988734Y5286733D01*
X14995526Y5288727D01*
X14996247Y5286270D01*
X15045634Y5291950D01*
X15098919Y5261878D01*
X15124352Y5206229D01*
X15125000Y5194917D01*
X15125000Y124500D01*
X15106093Y66309D01*
X15056593Y30345D01*
X15026000Y25500D01*
X124500Y25500D01*
X66309Y44407D01*
X30345Y93907D01*
X25500Y124500D01*
X25500Y1078316D01*
X44407Y1136507D01*
X93907Y1172471D01*
X148189Y1174439D01*
X289944Y1139500D01*
X289947Y1139500D01*
X460053Y1139500D01*
X460056Y1139500D01*
X625225Y1180210D01*
X775852Y1259266D01*
X903183Y1372071D01*
X999818Y1512070D01*
X1060140Y1671128D01*
X1080645Y1840000D01*
X1080596Y1840400D01*
X1073682Y1897346D01*
X1060140Y2008872D01*
X999818Y2167930D01*
X919863Y2283764D01*
X902368Y2342391D01*
X919863Y2396237D01*
X999818Y2512070D01*
X1060140Y2671128D01*
X1080645Y2840000D01*
X1060140Y3008872D01*
X999818Y3167930D01*
X903183Y3307929D01*
X775852Y3420734D01*
X625225Y3499790D01*
X625224Y3499791D01*
X625223Y3499791D01*
X460058Y3540500D01*
X460056Y3540500D01*
X289944Y3540500D01*
X289941Y3540500D01*
X148192Y3505562D01*
X87167Y3509994D01*
X40402Y3549449D01*
X25500Y3601685D01*
X25500Y9626000D01*
X44407Y9684191D01*
X93907Y9720155D01*
X124500Y9725000D01*
X14356447Y9725000D01*
X14414638Y9706093D01*
G37*
G04 #@! TD.AperFunction*
G04 #@! TA.AperFunction,Conductor*
G36*
X5923449Y6056393D02*
G01*
X5959413Y6006893D01*
X5959413Y5945707D01*
X5923449Y5896207D01*
X5918780Y5893015D01*
X5917473Y5892176D01*
X5917471Y5892175D01*
X5917471Y5892174D01*
X5850512Y5814900D01*
X5832788Y5794445D01*
X5779068Y5676815D01*
X5779067Y5676813D01*
X5760666Y5548822D01*
X5760666Y5548817D01*
X5779067Y5420826D01*
X5779068Y5420824D01*
X5779068Y5420823D01*
X5779069Y5420821D01*
X5832788Y5303193D01*
X5917471Y5205464D01*
X6026257Y5135551D01*
X6150333Y5099119D01*
X6150334Y5099119D01*
X6279646Y5099119D01*
X6279647Y5099119D01*
X6403723Y5135551D01*
X6512509Y5205464D01*
X6597192Y5303193D01*
X6650911Y5420821D01*
X6651080Y5421997D01*
X6669314Y5548817D01*
X6669314Y5551300D01*
X6669954Y5553271D01*
X6670322Y5555828D01*
X6670764Y5555765D01*
X6688221Y5609491D01*
X6737721Y5645455D01*
X6768314Y5650300D01*
X7481227Y5650300D01*
X7500541Y5648398D01*
X7543173Y5639918D01*
X7557888Y5642846D01*
X7560669Y5643398D01*
X7579982Y5645300D01*
X7786300Y5645300D01*
X7844491Y5626393D01*
X7880455Y5576893D01*
X7885300Y5546300D01*
X7885300Y4680264D01*
X7866393Y4622073D01*
X7861119Y4615432D01*
X7785161Y4527773D01*
X7732765Y4496178D01*
X7671804Y4501414D01*
X7625563Y4541482D01*
X7612350Y4578517D01*
X7602032Y4650283D01*
X7602031Y4650286D01*
X7602031Y4650288D01*
X7548312Y4767916D01*
X7463629Y4865645D01*
X7444407Y4877998D01*
X7354843Y4935558D01*
X7230768Y4971990D01*
X7230767Y4971990D01*
X7101453Y4971990D01*
X7101451Y4971990D01*
X6977377Y4935558D01*
X6977376Y4935558D01*
X6868593Y4865647D01*
X6868591Y4865646D01*
X6868591Y4865645D01*
X6823040Y4813076D01*
X6783908Y4767916D01*
X6730188Y4650286D01*
X6730187Y4650284D01*
X6711786Y4522293D01*
X6711786Y4522288D01*
X6730187Y4394297D01*
X6730188Y4394295D01*
X6730188Y4394294D01*
X6730189Y4394292D01*
X6783908Y4276664D01*
X6868591Y4178935D01*
X6977377Y4109022D01*
X7060813Y4084523D01*
X7111320Y4049987D01*
X7131881Y3992360D01*
X7114643Y3933653D01*
X7086445Y3906249D01*
X7027483Y3868357D01*
X7027481Y3868356D01*
X7027481Y3868355D01*
X6994853Y3830700D01*
X6942798Y3770626D01*
X6889078Y3652996D01*
X6889077Y3652994D01*
X6870676Y3525003D01*
X6870676Y3524998D01*
X6889077Y3397007D01*
X6889078Y3397005D01*
X6889078Y3397004D01*
X6889079Y3397002D01*
X6942798Y3279374D01*
X7027481Y3181645D01*
X7136267Y3111732D01*
X7234273Y3082955D01*
X7284780Y3048419D01*
X7305342Y2990792D01*
X7288104Y2932085D01*
X7281202Y2923134D01*
X7222231Y2855078D01*
X7190914Y2786504D01*
X7149542Y2741427D01*
X7089575Y2729276D01*
X7033919Y2754694D01*
X7030857Y2757627D01*
X5040038Y4748446D01*
X5012261Y4802963D01*
X5011042Y4818450D01*
X5011042Y5038971D01*
X5029949Y5097162D01*
X5035211Y5103789D01*
X5118544Y5199959D01*
X5172263Y5317587D01*
X5172264Y5317592D01*
X5190666Y5445583D01*
X5190666Y5445588D01*
X5172264Y5573579D01*
X5172263Y5573581D01*
X5172263Y5573583D01*
X5118544Y5691211D01*
X5033861Y5788940D01*
X4925075Y5858853D01*
X4848592Y5881311D01*
X4798087Y5915846D01*
X4777525Y5973473D01*
X4794763Y6032180D01*
X4843216Y6069543D01*
X4876485Y6075300D01*
X5865258Y6075300D01*
X5923449Y6056393D01*
G37*
G04 #@! TD.AperFunction*
G04 #@! TA.AperFunction,Conductor*
G36*
X6868874Y7092464D02*
G01*
X6880687Y7082375D01*
X7590543Y6372519D01*
X7618320Y6318002D01*
X7608749Y6257570D01*
X7565484Y6214305D01*
X7539857Y6205418D01*
X7520682Y6201603D01*
X7501364Y6199700D01*
X6814320Y6199700D01*
X6756129Y6218607D01*
X6744317Y6228696D01*
X6454799Y6518213D01*
X6442486Y6533216D01*
X6432577Y6548046D01*
X6432576Y6548048D01*
X6432162Y6548325D01*
X6341711Y6608763D01*
X6261585Y6624700D01*
X6252023Y6626602D01*
X6234528Y6630082D01*
X6234527Y6630082D01*
X6217032Y6626602D01*
X6197719Y6624700D01*
X3986809Y6624700D01*
X3967496Y6626602D01*
X3950000Y6630082D01*
X3922942Y6624700D01*
X3887564Y6617664D01*
X3826802Y6624857D01*
X3781874Y6666391D01*
X3769939Y6726401D01*
X3795556Y6781965D01*
X3798222Y6784739D01*
X4095860Y7082375D01*
X4150376Y7110152D01*
X4165863Y7111371D01*
X6711872Y7111371D01*
X6810683Y7111371D01*
X6868874Y7092464D01*
G37*
G04 #@! TD.AperFunction*
G04 #@! TD*
M02*
