G04 #@! TF.GenerationSoftware,KiCad,Pcbnew,7.0.9*
G04 #@! TF.CreationDate,2024-03-27T08:03:58+03:00*
G04 #@! TF.ProjectId,hellen1-vr-discrete,68656c6c-656e-4312-9d76-722d64697363,rev?*
G04 #@! TF.SameCoordinates,PX4a19ba0PY5aa5910*
G04 #@! TF.FileFunction,Copper,L4,Bot*
G04 #@! TF.FilePolarity,Positive*
%FSLAX46Y46*%
G04 Gerber Fmt 4.6, Leading zero omitted, Abs format (unit mm)*
G04 Created by KiCad (PCBNEW 7.0.9) date 2024-03-27 08:03:58*
%MOMM*%
%LPD*%
G01*
G04 APERTURE LIST*
G04 #@! TA.AperFunction,ComponentPad*
%ADD10C,0.600000*%
G04 #@! TD*
G04 #@! TA.AperFunction,SMDPad,CuDef*
%ADD11R,0.250000X6.185000*%
G04 #@! TD*
G04 #@! TA.AperFunction,SMDPad,CuDef*
%ADD12R,0.250000X1.115000*%
G04 #@! TD*
G04 #@! TA.AperFunction,SMDPad,CuDef*
%ADD13R,14.275000X0.250000*%
G04 #@! TD*
G04 #@! TA.AperFunction,SMDPad,CuDef*
%ADD14R,15.100000X0.250000*%
G04 #@! TD*
G04 #@! TA.AperFunction,SMDPad,CuDef*
%ADD15R,0.250000X5.175000*%
G04 #@! TD*
G04 #@! TA.AperFunction,ViaPad*
%ADD16C,0.600000*%
G04 #@! TD*
G04 #@! TA.AperFunction,Conductor*
%ADD17C,0.250000*%
G04 #@! TD*
G04 #@! TA.AperFunction,Conductor*
%ADD18C,0.200000*%
G04 #@! TD*
G04 APERTURE END LIST*
D10*
G04 #@! TO.P,M750,E1,Thresh_IN*
G04 #@! TO.N,thresh_input*
X14800000Y6900000D03*
G04 #@! TO.P,M750,E2,OUT_A*
G04 #@! TO.N,analog_out*
X14800000Y5700000D03*
G04 #@! TO.P,M750,E3,OUT*
G04 #@! TO.N,output*
X14800000Y8100000D03*
G04 #@! TO.P,M750,E4,V5_IN*
G04 #@! TO.N,+5V*
X14800000Y9300000D03*
D11*
G04 #@! TO.P,M750,G,GND*
G04 #@! TO.N,GND*
X150000Y6632500D03*
D12*
X150000Y582500D03*
D13*
X7162500Y9600000D03*
D14*
X7575000Y150000D03*
D15*
X15000000Y2612500D03*
D10*
G04 #@! TO.P,M750,W1,VR-*
G04 #@! TO.N,VR-*
X375000Y2840000D03*
G04 #@! TO.P,M750,W2,VR+*
G04 #@! TO.N,VR+*
X375000Y1840000D03*
G04 #@! TD*
G04 #@! TO.P,U757,1*
G04 #@! TO.N,output*
G04 #@! TA.AperFunction,SMDPad,CuDef*
G36*
G01*
X4300000Y7770784D02*
X4300000Y7470784D01*
G75*
G02*
X4150000Y7320784I-150000J0D01*
G01*
X3125000Y7320784D01*
G75*
G02*
X2975000Y7470784I0J150000D01*
G01*
X2975000Y7770784D01*
G75*
G02*
X3125000Y7920784I150000J0D01*
G01*
X4150000Y7920784D01*
G75*
G02*
X4300000Y7770784I0J-150000D01*
G01*
G37*
G04 #@! TD.AperFunction*
G04 #@! TO.P,U757,2*
G04 #@! TO.N,Net-(C757-Pad1)*
G04 #@! TA.AperFunction,SMDPad,CuDef*
G36*
G01*
X4300000Y6820784D02*
X4300000Y6520784D01*
G75*
G02*
X4150000Y6370784I-150000J0D01*
G01*
X3125000Y6370784D01*
G75*
G02*
X2975000Y6520784I0J150000D01*
G01*
X2975000Y6820784D01*
G75*
G02*
X3125000Y6970784I150000J0D01*
G01*
X4150000Y6970784D01*
G75*
G02*
X4300000Y6820784I0J-150000D01*
G01*
G37*
G04 #@! TD.AperFunction*
G04 #@! TO.P,U757,3,GND*
G04 #@! TO.N,GND*
G04 #@! TA.AperFunction,SMDPad,CuDef*
G36*
G01*
X4300000Y5870784D02*
X4300000Y5570784D01*
G75*
G02*
X4150000Y5420784I-150000J0D01*
G01*
X3125000Y5420784D01*
G75*
G02*
X2975000Y5570784I0J150000D01*
G01*
X2975000Y5870784D01*
G75*
G02*
X3125000Y6020784I150000J0D01*
G01*
X4150000Y6020784D01*
G75*
G02*
X4300000Y5870784I0J-150000D01*
G01*
G37*
G04 #@! TD.AperFunction*
G04 #@! TO.P,U757,4*
G04 #@! TO.N,Net-(U752-Pad2)*
G04 #@! TA.AperFunction,SMDPad,CuDef*
G36*
G01*
X2025000Y5870784D02*
X2025000Y5570784D01*
G75*
G02*
X1875000Y5420784I-150000J0D01*
G01*
X850000Y5420784D01*
G75*
G02*
X700000Y5570784I0J150000D01*
G01*
X700000Y5870784D01*
G75*
G02*
X850000Y6020784I150000J0D01*
G01*
X1875000Y6020784D01*
G75*
G02*
X2025000Y5870784I0J-150000D01*
G01*
G37*
G04 #@! TD.AperFunction*
G04 #@! TO.P,U757,5,VCC*
G04 #@! TO.N,+5V*
G04 #@! TA.AperFunction,SMDPad,CuDef*
G36*
G01*
X2025000Y7770784D02*
X2025000Y7470784D01*
G75*
G02*
X1875000Y7320784I-150000J0D01*
G01*
X850000Y7320784D01*
G75*
G02*
X700000Y7470784I0J150000D01*
G01*
X700000Y7770784D01*
G75*
G02*
X850000Y7920784I150000J0D01*
G01*
X1875000Y7920784D01*
G75*
G02*
X2025000Y7770784I0J-150000D01*
G01*
G37*
G04 #@! TD.AperFunction*
G04 #@! TD*
G04 #@! TO.P,C760,1*
G04 #@! TO.N,+5V*
G04 #@! TA.AperFunction,SMDPad,CuDef*
G36*
G01*
X4230000Y2110000D02*
X4570000Y2110000D01*
G75*
G02*
X4710000Y1970000I0J-140000D01*
G01*
X4710000Y1690000D01*
G75*
G02*
X4570000Y1550000I-140000J0D01*
G01*
X4230000Y1550000D01*
G75*
G02*
X4090000Y1690000I0J140000D01*
G01*
X4090000Y1970000D01*
G75*
G02*
X4230000Y2110000I140000J0D01*
G01*
G37*
G04 #@! TD.AperFunction*
G04 #@! TO.P,C760,2*
G04 #@! TO.N,GND*
G04 #@! TA.AperFunction,SMDPad,CuDef*
G36*
G01*
X4230000Y1150000D02*
X4570000Y1150000D01*
G75*
G02*
X4710000Y1010000I0J-140000D01*
G01*
X4710000Y730000D01*
G75*
G02*
X4570000Y590000I-140000J0D01*
G01*
X4230000Y590000D01*
G75*
G02*
X4090000Y730000I0J140000D01*
G01*
X4090000Y1010000D01*
G75*
G02*
X4230000Y1150000I140000J0D01*
G01*
G37*
G04 #@! TD.AperFunction*
G04 #@! TD*
G04 #@! TO.P,C755,1*
G04 #@! TO.N,thresh_low*
G04 #@! TA.AperFunction,SMDPad,CuDef*
G36*
G01*
X10965000Y7880000D02*
X10965000Y8220000D01*
G75*
G02*
X11105000Y8360000I140000J0D01*
G01*
X11385000Y8360000D01*
G75*
G02*
X11525000Y8220000I0J-140000D01*
G01*
X11525000Y7880000D01*
G75*
G02*
X11385000Y7740000I-140000J0D01*
G01*
X11105000Y7740000D01*
G75*
G02*
X10965000Y7880000I0J140000D01*
G01*
G37*
G04 #@! TD.AperFunction*
G04 #@! TO.P,C755,2*
G04 #@! TO.N,GND*
G04 #@! TA.AperFunction,SMDPad,CuDef*
G36*
G01*
X11925000Y7880000D02*
X11925000Y8220000D01*
G75*
G02*
X12065000Y8360000I140000J0D01*
G01*
X12345000Y8360000D01*
G75*
G02*
X12485000Y8220000I0J-140000D01*
G01*
X12485000Y7880000D01*
G75*
G02*
X12345000Y7740000I-140000J0D01*
G01*
X12065000Y7740000D01*
G75*
G02*
X11925000Y7880000I0J140000D01*
G01*
G37*
G04 #@! TD.AperFunction*
G04 #@! TD*
G04 #@! TO.P,C766,1*
G04 #@! TO.N,+5V*
G04 #@! TA.AperFunction,SMDPad,CuDef*
G36*
G01*
X14355000Y9150000D02*
X14355000Y8810000D01*
G75*
G02*
X14215000Y8670000I-140000J0D01*
G01*
X13935000Y8670000D01*
G75*
G02*
X13795000Y8810000I0J140000D01*
G01*
X13795000Y9150000D01*
G75*
G02*
X13935000Y9290000I140000J0D01*
G01*
X14215000Y9290000D01*
G75*
G02*
X14355000Y9150000I0J-140000D01*
G01*
G37*
G04 #@! TD.AperFunction*
G04 #@! TO.P,C766,2*
G04 #@! TO.N,GND*
G04 #@! TA.AperFunction,SMDPad,CuDef*
G36*
G01*
X13395000Y9150000D02*
X13395000Y8810000D01*
G75*
G02*
X13255000Y8670000I-140000J0D01*
G01*
X12975000Y8670000D01*
G75*
G02*
X12835000Y8810000I0J140000D01*
G01*
X12835000Y9150000D01*
G75*
G02*
X12975000Y9290000I140000J0D01*
G01*
X13255000Y9290000D01*
G75*
G02*
X13395000Y9150000I0J-140000D01*
G01*
G37*
G04 #@! TD.AperFunction*
G04 #@! TD*
G04 #@! TO.P,C757,1*
G04 #@! TO.N,Net-(C757-Pad1)*
G04 #@! TA.AperFunction,SMDPad,CuDef*
G36*
G01*
X8830000Y6930000D02*
X8830000Y7270000D01*
G75*
G02*
X8970000Y7410000I140000J0D01*
G01*
X9250000Y7410000D01*
G75*
G02*
X9390000Y7270000I0J-140000D01*
G01*
X9390000Y6930000D01*
G75*
G02*
X9250000Y6790000I-140000J0D01*
G01*
X8970000Y6790000D01*
G75*
G02*
X8830000Y6930000I0J140000D01*
G01*
G37*
G04 #@! TD.AperFunction*
G04 #@! TO.P,C757,2*
G04 #@! TO.N,Net-(C757-Pad2)*
G04 #@! TA.AperFunction,SMDPad,CuDef*
G36*
G01*
X9790000Y6930000D02*
X9790000Y7270000D01*
G75*
G02*
X9930000Y7410000I140000J0D01*
G01*
X10210000Y7410000D01*
G75*
G02*
X10350000Y7270000I0J-140000D01*
G01*
X10350000Y6930000D01*
G75*
G02*
X10210000Y6790000I-140000J0D01*
G01*
X9930000Y6790000D01*
G75*
G02*
X9790000Y6930000I0J140000D01*
G01*
G37*
G04 #@! TD.AperFunction*
G04 #@! TD*
G04 #@! TO.P,C764,1*
G04 #@! TO.N,+5V*
G04 #@! TA.AperFunction,SMDPad,CuDef*
G36*
G01*
X14305000Y8220000D02*
X14305000Y7880000D01*
G75*
G02*
X14165000Y7740000I-140000J0D01*
G01*
X13885000Y7740000D01*
G75*
G02*
X13745000Y7880000I0J140000D01*
G01*
X13745000Y8220000D01*
G75*
G02*
X13885000Y8360000I140000J0D01*
G01*
X14165000Y8360000D01*
G75*
G02*
X14305000Y8220000I0J-140000D01*
G01*
G37*
G04 #@! TD.AperFunction*
G04 #@! TO.P,C764,2*
G04 #@! TO.N,GND*
G04 #@! TA.AperFunction,SMDPad,CuDef*
G36*
G01*
X13345000Y8220000D02*
X13345000Y7880000D01*
G75*
G02*
X13205000Y7740000I-140000J0D01*
G01*
X12925000Y7740000D01*
G75*
G02*
X12785000Y7880000I0J140000D01*
G01*
X12785000Y8220000D01*
G75*
G02*
X12925000Y8360000I140000J0D01*
G01*
X13205000Y8360000D01*
G75*
G02*
X13345000Y8220000I0J-140000D01*
G01*
G37*
G04 #@! TD.AperFunction*
G04 #@! TD*
G04 #@! TO.P,C753,1*
G04 #@! TO.N,Net-(U753C-+)*
G04 #@! TA.AperFunction,SMDPad,CuDef*
G36*
G01*
X12965000Y2755000D02*
X12965000Y3095000D01*
G75*
G02*
X13105000Y3235000I140000J0D01*
G01*
X13385000Y3235000D01*
G75*
G02*
X13525000Y3095000I0J-140000D01*
G01*
X13525000Y2755000D01*
G75*
G02*
X13385000Y2615000I-140000J0D01*
G01*
X13105000Y2615000D01*
G75*
G02*
X12965000Y2755000I0J140000D01*
G01*
G37*
G04 #@! TD.AperFunction*
G04 #@! TO.P,C753,2*
G04 #@! TO.N,GND*
G04 #@! TA.AperFunction,SMDPad,CuDef*
G36*
G01*
X13925000Y2755000D02*
X13925000Y3095000D01*
G75*
G02*
X14065000Y3235000I140000J0D01*
G01*
X14345000Y3235000D01*
G75*
G02*
X14485000Y3095000I0J-140000D01*
G01*
X14485000Y2755000D01*
G75*
G02*
X14345000Y2615000I-140000J0D01*
G01*
X14065000Y2615000D01*
G75*
G02*
X13925000Y2755000I0J140000D01*
G01*
G37*
G04 #@! TD.AperFunction*
G04 #@! TD*
G04 #@! TO.P,U753,1*
G04 #@! TO.N,Net-(U753A--)*
G04 #@! TA.AperFunction,SMDPad,CuDef*
G36*
G01*
X5215717Y850000D02*
X5215717Y1050000D01*
G75*
G02*
X5315717Y1150000I100000J0D01*
G01*
X6590717Y1150000D01*
G75*
G02*
X6690717Y1050000I0J-100000D01*
G01*
X6690717Y850000D01*
G75*
G02*
X6590717Y750000I-100000J0D01*
G01*
X5315717Y750000D01*
G75*
G02*
X5215717Y850000I0J100000D01*
G01*
G37*
G04 #@! TD.AperFunction*
G04 #@! TO.P,U753,2,-*
G04 #@! TA.AperFunction,SMDPad,CuDef*
G36*
G01*
X5215717Y1500000D02*
X5215717Y1700000D01*
G75*
G02*
X5315717Y1800000I100000J0D01*
G01*
X6590717Y1800000D01*
G75*
G02*
X6690717Y1700000I0J-100000D01*
G01*
X6690717Y1500000D01*
G75*
G02*
X6590717Y1400000I-100000J0D01*
G01*
X5315717Y1400000D01*
G75*
G02*
X5215717Y1500000I0J100000D01*
G01*
G37*
G04 #@! TD.AperFunction*
G04 #@! TO.P,U753,3,+*
G04 #@! TO.N,Net-(U753A-+)*
G04 #@! TA.AperFunction,SMDPad,CuDef*
G36*
G01*
X5215717Y2150000D02*
X5215717Y2350000D01*
G75*
G02*
X5315717Y2450000I100000J0D01*
G01*
X6590717Y2450000D01*
G75*
G02*
X6690717Y2350000I0J-100000D01*
G01*
X6690717Y2150000D01*
G75*
G02*
X6590717Y2050000I-100000J0D01*
G01*
X5315717Y2050000D01*
G75*
G02*
X5215717Y2150000I0J100000D01*
G01*
G37*
G04 #@! TD.AperFunction*
G04 #@! TO.P,U753,4,V+*
G04 #@! TO.N,+5V*
G04 #@! TA.AperFunction,SMDPad,CuDef*
G36*
G01*
X5215717Y2800000D02*
X5215717Y3000000D01*
G75*
G02*
X5315717Y3100000I100000J0D01*
G01*
X6590717Y3100000D01*
G75*
G02*
X6690717Y3000000I0J-100000D01*
G01*
X6690717Y2800000D01*
G75*
G02*
X6590717Y2700000I-100000J0D01*
G01*
X5315717Y2700000D01*
G75*
G02*
X5215717Y2800000I0J100000D01*
G01*
G37*
G04 #@! TD.AperFunction*
G04 #@! TO.P,U753,5,+*
G04 #@! TO.N,Net-(U753B-+)*
G04 #@! TA.AperFunction,SMDPad,CuDef*
G36*
G01*
X5215717Y3450000D02*
X5215717Y3650000D01*
G75*
G02*
X5315717Y3750000I100000J0D01*
G01*
X6590717Y3750000D01*
G75*
G02*
X6690717Y3650000I0J-100000D01*
G01*
X6690717Y3450000D01*
G75*
G02*
X6590717Y3350000I-100000J0D01*
G01*
X5315717Y3350000D01*
G75*
G02*
X5215717Y3450000I0J100000D01*
G01*
G37*
G04 #@! TD.AperFunction*
G04 #@! TO.P,U753,6,-*
G04 #@! TO.N,Net-(U753B--)*
G04 #@! TA.AperFunction,SMDPad,CuDef*
G36*
G01*
X5215717Y4100000D02*
X5215717Y4300000D01*
G75*
G02*
X5315717Y4400000I100000J0D01*
G01*
X6590717Y4400000D01*
G75*
G02*
X6690717Y4300000I0J-100000D01*
G01*
X6690717Y4100000D01*
G75*
G02*
X6590717Y4000000I-100000J0D01*
G01*
X5315717Y4000000D01*
G75*
G02*
X5215717Y4100000I0J100000D01*
G01*
G37*
G04 #@! TD.AperFunction*
G04 #@! TO.P,U753,7*
G04 #@! TO.N,analog_out*
G04 #@! TA.AperFunction,SMDPad,CuDef*
G36*
G01*
X5215717Y4750000D02*
X5215717Y4950000D01*
G75*
G02*
X5315717Y5050000I100000J0D01*
G01*
X6590717Y5050000D01*
G75*
G02*
X6690717Y4950000I0J-100000D01*
G01*
X6690717Y4750000D01*
G75*
G02*
X6590717Y4650000I-100000J0D01*
G01*
X5315717Y4650000D01*
G75*
G02*
X5215717Y4750000I0J100000D01*
G01*
G37*
G04 #@! TD.AperFunction*
G04 #@! TO.P,U753,8*
G04 #@! TO.N,Net-(U753C--)*
G04 #@! TA.AperFunction,SMDPad,CuDef*
G36*
G01*
X10940717Y4750000D02*
X10940717Y4950000D01*
G75*
G02*
X11040717Y5050000I100000J0D01*
G01*
X12315717Y5050000D01*
G75*
G02*
X12415717Y4950000I0J-100000D01*
G01*
X12415717Y4750000D01*
G75*
G02*
X12315717Y4650000I-100000J0D01*
G01*
X11040717Y4650000D01*
G75*
G02*
X10940717Y4750000I0J100000D01*
G01*
G37*
G04 #@! TD.AperFunction*
G04 #@! TO.P,U753,9,-*
G04 #@! TA.AperFunction,SMDPad,CuDef*
G36*
G01*
X10940717Y4100000D02*
X10940717Y4300000D01*
G75*
G02*
X11040717Y4400000I100000J0D01*
G01*
X12315717Y4400000D01*
G75*
G02*
X12415717Y4300000I0J-100000D01*
G01*
X12415717Y4100000D01*
G75*
G02*
X12315717Y4000000I-100000J0D01*
G01*
X11040717Y4000000D01*
G75*
G02*
X10940717Y4100000I0J100000D01*
G01*
G37*
G04 #@! TD.AperFunction*
G04 #@! TO.P,U753,10,+*
G04 #@! TO.N,Net-(U753C-+)*
G04 #@! TA.AperFunction,SMDPad,CuDef*
G36*
G01*
X10940717Y3450000D02*
X10940717Y3650000D01*
G75*
G02*
X11040717Y3750000I100000J0D01*
G01*
X12315717Y3750000D01*
G75*
G02*
X12415717Y3650000I0J-100000D01*
G01*
X12415717Y3450000D01*
G75*
G02*
X12315717Y3350000I-100000J0D01*
G01*
X11040717Y3350000D01*
G75*
G02*
X10940717Y3450000I0J100000D01*
G01*
G37*
G04 #@! TD.AperFunction*
G04 #@! TO.P,U753,11,V-*
G04 #@! TO.N,GND*
G04 #@! TA.AperFunction,SMDPad,CuDef*
G36*
G01*
X10940717Y2800000D02*
X10940717Y3000000D01*
G75*
G02*
X11040717Y3100000I100000J0D01*
G01*
X12315717Y3100000D01*
G75*
G02*
X12415717Y3000000I0J-100000D01*
G01*
X12415717Y2800000D01*
G75*
G02*
X12315717Y2700000I-100000J0D01*
G01*
X11040717Y2700000D01*
G75*
G02*
X10940717Y2800000I0J100000D01*
G01*
G37*
G04 #@! TD.AperFunction*
G04 #@! TO.P,U753,12,+*
G04 #@! TO.N,Vref*
G04 #@! TA.AperFunction,SMDPad,CuDef*
G36*
G01*
X10940717Y2150000D02*
X10940717Y2350000D01*
G75*
G02*
X11040717Y2450000I100000J0D01*
G01*
X12315717Y2450000D01*
G75*
G02*
X12415717Y2350000I0J-100000D01*
G01*
X12415717Y2150000D01*
G75*
G02*
X12315717Y2050000I-100000J0D01*
G01*
X11040717Y2050000D01*
G75*
G02*
X10940717Y2150000I0J100000D01*
G01*
G37*
G04 #@! TD.AperFunction*
G04 #@! TO.P,U753,13,-*
G04 #@! TO.N,Net-(U753D--)*
G04 #@! TA.AperFunction,SMDPad,CuDef*
G36*
G01*
X10940717Y1500000D02*
X10940717Y1700000D01*
G75*
G02*
X11040717Y1800000I100000J0D01*
G01*
X12315717Y1800000D01*
G75*
G02*
X12415717Y1700000I0J-100000D01*
G01*
X12415717Y1500000D01*
G75*
G02*
X12315717Y1400000I-100000J0D01*
G01*
X11040717Y1400000D01*
G75*
G02*
X10940717Y1500000I0J100000D01*
G01*
G37*
G04 #@! TD.AperFunction*
G04 #@! TO.P,U753,14*
G04 #@! TO.N,Net-(R763-Pad1)*
G04 #@! TA.AperFunction,SMDPad,CuDef*
G36*
G01*
X10940717Y850000D02*
X10940717Y1050000D01*
G75*
G02*
X11040717Y1150000I100000J0D01*
G01*
X12315717Y1150000D01*
G75*
G02*
X12415717Y1050000I0J-100000D01*
G01*
X12415717Y850000D01*
G75*
G02*
X12315717Y750000I-100000J0D01*
G01*
X11040717Y750000D01*
G75*
G02*
X10940717Y850000I0J100000D01*
G01*
G37*
G04 #@! TD.AperFunction*
G04 #@! TD*
G04 #@! TO.P,R752,1*
G04 #@! TO.N,VR-*
G04 #@! TA.AperFunction,SMDPad,CuDef*
G36*
G01*
X734253Y2849000D02*
X734253Y3749000D01*
G75*
G02*
X984253Y3999000I250000J0D01*
G01*
X1509253Y3999000D01*
G75*
G02*
X1759253Y3749000I0J-250000D01*
G01*
X1759253Y2849000D01*
G75*
G02*
X1509253Y2599000I-250000J0D01*
G01*
X984253Y2599000D01*
G75*
G02*
X734253Y2849000I0J250000D01*
G01*
G37*
G04 #@! TD.AperFunction*
G04 #@! TO.P,R752,2*
G04 #@! TO.N,Net-(U751-IO1)*
G04 #@! TA.AperFunction,SMDPad,CuDef*
G36*
G01*
X2559253Y2849000D02*
X2559253Y3749000D01*
G75*
G02*
X2809253Y3999000I250000J0D01*
G01*
X3334253Y3999000D01*
G75*
G02*
X3584253Y3749000I0J-250000D01*
G01*
X3584253Y2849000D01*
G75*
G02*
X3334253Y2599000I-250000J0D01*
G01*
X2809253Y2599000D01*
G75*
G02*
X2559253Y2849000I0J250000D01*
G01*
G37*
G04 #@! TD.AperFunction*
G04 #@! TD*
G04 #@! TO.P,R762,1*
G04 #@! TO.N,Net-(U753D--)*
G04 #@! TA.AperFunction,SMDPad,CuDef*
G36*
G01*
X12480000Y6335000D02*
X12480000Y5965000D01*
G75*
G02*
X12345000Y5830000I-135000J0D01*
G01*
X12075000Y5830000D01*
G75*
G02*
X11940000Y5965000I0J135000D01*
G01*
X11940000Y6335000D01*
G75*
G02*
X12075000Y6470000I135000J0D01*
G01*
X12345000Y6470000D01*
G75*
G02*
X12480000Y6335000I0J-135000D01*
G01*
G37*
G04 #@! TD.AperFunction*
G04 #@! TO.P,R762,2*
G04 #@! TO.N,Net-(U753C--)*
G04 #@! TA.AperFunction,SMDPad,CuDef*
G36*
G01*
X11460000Y6335000D02*
X11460000Y5965000D01*
G75*
G02*
X11325000Y5830000I-135000J0D01*
G01*
X11055000Y5830000D01*
G75*
G02*
X10920000Y5965000I0J135000D01*
G01*
X10920000Y6335000D01*
G75*
G02*
X11055000Y6470000I135000J0D01*
G01*
X11325000Y6470000D01*
G75*
G02*
X11460000Y6335000I0J-135000D01*
G01*
G37*
G04 #@! TD.AperFunction*
G04 #@! TD*
G04 #@! TO.P,C761,1*
G04 #@! TO.N,+5V*
G04 #@! TA.AperFunction,SMDPad,CuDef*
G36*
G01*
X2210000Y9110000D02*
X2210000Y8770000D01*
G75*
G02*
X2070000Y8630000I-140000J0D01*
G01*
X1790000Y8630000D01*
G75*
G02*
X1650000Y8770000I0J140000D01*
G01*
X1650000Y9110000D01*
G75*
G02*
X1790000Y9250000I140000J0D01*
G01*
X2070000Y9250000D01*
G75*
G02*
X2210000Y9110000I0J-140000D01*
G01*
G37*
G04 #@! TD.AperFunction*
G04 #@! TO.P,C761,2*
G04 #@! TO.N,GND*
G04 #@! TA.AperFunction,SMDPad,CuDef*
G36*
G01*
X1250000Y9110000D02*
X1250000Y8770000D01*
G75*
G02*
X1110000Y8630000I-140000J0D01*
G01*
X830000Y8630000D01*
G75*
G02*
X690000Y8770000I0J140000D01*
G01*
X690000Y9110000D01*
G75*
G02*
X830000Y9250000I140000J0D01*
G01*
X1110000Y9250000D01*
G75*
G02*
X1250000Y9110000I0J-140000D01*
G01*
G37*
G04 #@! TD.AperFunction*
G04 #@! TD*
G04 #@! TO.P,R754,1*
G04 #@! TO.N,thresh_input*
G04 #@! TA.AperFunction,SMDPad,CuDef*
G36*
G01*
X14430000Y7285000D02*
X14430000Y6915000D01*
G75*
G02*
X14295000Y6780000I-135000J0D01*
G01*
X14025000Y6780000D01*
G75*
G02*
X13890000Y6915000I0J135000D01*
G01*
X13890000Y7285000D01*
G75*
G02*
X14025000Y7420000I135000J0D01*
G01*
X14295000Y7420000D01*
G75*
G02*
X14430000Y7285000I0J-135000D01*
G01*
G37*
G04 #@! TD.AperFunction*
G04 #@! TO.P,R754,2*
G04 #@! TO.N,Net-(C752-Pad1)*
G04 #@! TA.AperFunction,SMDPad,CuDef*
G36*
G01*
X13410000Y7285000D02*
X13410000Y6915000D01*
G75*
G02*
X13275000Y6780000I-135000J0D01*
G01*
X13005000Y6780000D01*
G75*
G02*
X12870000Y6915000I0J135000D01*
G01*
X12870000Y7285000D01*
G75*
G02*
X13005000Y7420000I135000J0D01*
G01*
X13275000Y7420000D01*
G75*
G02*
X13410000Y7285000I0J-135000D01*
G01*
G37*
G04 #@! TD.AperFunction*
G04 #@! TD*
G04 #@! TO.P,R766,1*
G04 #@! TO.N,GND*
G04 #@! TA.AperFunction,SMDPad,CuDef*
G36*
G01*
X10382915Y6335073D02*
X10382915Y5965073D01*
G75*
G02*
X10247915Y5830073I-135000J0D01*
G01*
X9977915Y5830073D01*
G75*
G02*
X9842915Y5965073I0J135000D01*
G01*
X9842915Y6335073D01*
G75*
G02*
X9977915Y6470073I135000J0D01*
G01*
X10247915Y6470073D01*
G75*
G02*
X10382915Y6335073I0J-135000D01*
G01*
G37*
G04 #@! TD.AperFunction*
G04 #@! TO.P,R766,2*
G04 #@! TO.N,Net-(C757-Pad1)*
G04 #@! TA.AperFunction,SMDPad,CuDef*
G36*
G01*
X9362915Y6335073D02*
X9362915Y5965073D01*
G75*
G02*
X9227915Y5830073I-135000J0D01*
G01*
X8957915Y5830073D01*
G75*
G02*
X8822915Y5965073I0J135000D01*
G01*
X8822915Y6335073D01*
G75*
G02*
X8957915Y6470073I135000J0D01*
G01*
X9227915Y6470073D01*
G75*
G02*
X9362915Y6335073I0J-135000D01*
G01*
G37*
G04 #@! TD.AperFunction*
G04 #@! TD*
G04 #@! TO.P,R753,1*
G04 #@! TO.N,Net-(U751-IO2)*
G04 #@! TA.AperFunction,SMDPad,CuDef*
G36*
G01*
X3584253Y1825000D02*
X3584253Y925000D01*
G75*
G02*
X3334253Y675000I-250000J0D01*
G01*
X2809253Y675000D01*
G75*
G02*
X2559253Y925000I0J250000D01*
G01*
X2559253Y1825000D01*
G75*
G02*
X2809253Y2075000I250000J0D01*
G01*
X3334253Y2075000D01*
G75*
G02*
X3584253Y1825000I0J-250000D01*
G01*
G37*
G04 #@! TD.AperFunction*
G04 #@! TO.P,R753,2*
G04 #@! TO.N,VR+*
G04 #@! TA.AperFunction,SMDPad,CuDef*
G36*
G01*
X1759253Y1825000D02*
X1759253Y925000D01*
G75*
G02*
X1509253Y675000I-250000J0D01*
G01*
X984253Y675000D01*
G75*
G02*
X734253Y925000I0J250000D01*
G01*
X734253Y1825000D01*
G75*
G02*
X984253Y2075000I250000J0D01*
G01*
X1509253Y2075000D01*
G75*
G02*
X1759253Y1825000I0J-250000D01*
G01*
G37*
G04 #@! TD.AperFunction*
G04 #@! TD*
G04 #@! TO.P,R765,1*
G04 #@! TO.N,GND*
G04 #@! TA.AperFunction,SMDPad,CuDef*
G36*
G01*
X10370000Y9165000D02*
X10370000Y8795000D01*
G75*
G02*
X10235000Y8660000I-135000J0D01*
G01*
X9965000Y8660000D01*
G75*
G02*
X9830000Y8795000I0J135000D01*
G01*
X9830000Y9165000D01*
G75*
G02*
X9965000Y9300000I135000J0D01*
G01*
X10235000Y9300000D01*
G75*
G02*
X10370000Y9165000I0J-135000D01*
G01*
G37*
G04 #@! TD.AperFunction*
G04 #@! TO.P,R765,2*
G04 #@! TO.N,Net-(C756-Pad1)*
G04 #@! TA.AperFunction,SMDPad,CuDef*
G36*
G01*
X9350000Y9165000D02*
X9350000Y8795000D01*
G75*
G02*
X9215000Y8660000I-135000J0D01*
G01*
X8945000Y8660000D01*
G75*
G02*
X8810000Y8795000I0J135000D01*
G01*
X8810000Y9165000D01*
G75*
G02*
X8945000Y9300000I135000J0D01*
G01*
X9215000Y9300000D01*
G75*
G02*
X9350000Y9165000I0J-135000D01*
G01*
G37*
G04 #@! TD.AperFunction*
G04 #@! TD*
G04 #@! TO.P,R763,1*
G04 #@! TO.N,Net-(R763-Pad1)*
G04 #@! TA.AperFunction,SMDPad,CuDef*
G36*
G01*
X12830000Y655000D02*
X12830000Y1025000D01*
G75*
G02*
X12965000Y1160000I135000J0D01*
G01*
X13235000Y1160000D01*
G75*
G02*
X13370000Y1025000I0J-135000D01*
G01*
X13370000Y655000D01*
G75*
G02*
X13235000Y520000I-135000J0D01*
G01*
X12965000Y520000D01*
G75*
G02*
X12830000Y655000I0J135000D01*
G01*
G37*
G04 #@! TD.AperFunction*
G04 #@! TO.P,R763,2*
G04 #@! TO.N,Net-(U753D--)*
G04 #@! TA.AperFunction,SMDPad,CuDef*
G36*
G01*
X13850000Y655000D02*
X13850000Y1025000D01*
G75*
G02*
X13985000Y1160000I135000J0D01*
G01*
X14255000Y1160000D01*
G75*
G02*
X14390000Y1025000I0J-135000D01*
G01*
X14390000Y655000D01*
G75*
G02*
X14255000Y520000I-135000J0D01*
G01*
X13985000Y520000D01*
G75*
G02*
X13850000Y655000I0J135000D01*
G01*
G37*
G04 #@! TD.AperFunction*
G04 #@! TD*
G04 #@! TO.P,R760,1*
G04 #@! TO.N,Net-(U753C-+)*
G04 #@! TA.AperFunction,SMDPad,CuDef*
G36*
G01*
X12945000Y3690000D02*
X12945000Y4060000D01*
G75*
G02*
X13080000Y4195000I135000J0D01*
G01*
X13350000Y4195000D01*
G75*
G02*
X13485000Y4060000I0J-135000D01*
G01*
X13485000Y3690000D01*
G75*
G02*
X13350000Y3555000I-135000J0D01*
G01*
X13080000Y3555000D01*
G75*
G02*
X12945000Y3690000I0J135000D01*
G01*
G37*
G04 #@! TD.AperFunction*
G04 #@! TO.P,R760,2*
G04 #@! TO.N,GND*
G04 #@! TA.AperFunction,SMDPad,CuDef*
G36*
G01*
X13965000Y3690000D02*
X13965000Y4060000D01*
G75*
G02*
X14100000Y4195000I135000J0D01*
G01*
X14370000Y4195000D01*
G75*
G02*
X14505000Y4060000I0J-135000D01*
G01*
X14505000Y3690000D01*
G75*
G02*
X14370000Y3555000I-135000J0D01*
G01*
X14100000Y3555000D01*
G75*
G02*
X13965000Y3690000I0J135000D01*
G01*
G37*
G04 #@! TD.AperFunction*
G04 #@! TD*
G04 #@! TO.P,R761,1*
G04 #@! TO.N,Net-(U753C--)*
G04 #@! TA.AperFunction,SMDPad,CuDef*
G36*
G01*
X12555000Y7285000D02*
X12555000Y6915000D01*
G75*
G02*
X12420000Y6780000I-135000J0D01*
G01*
X12150000Y6780000D01*
G75*
G02*
X12015000Y6915000I0J135000D01*
G01*
X12015000Y7285000D01*
G75*
G02*
X12150000Y7420000I135000J0D01*
G01*
X12420000Y7420000D01*
G75*
G02*
X12555000Y7285000I0J-135000D01*
G01*
G37*
G04 #@! TD.AperFunction*
G04 #@! TO.P,R761,2*
G04 #@! TO.N,thresh_low*
G04 #@! TA.AperFunction,SMDPad,CuDef*
G36*
G01*
X11535000Y7285000D02*
X11535000Y6915000D01*
G75*
G02*
X11400000Y6780000I-135000J0D01*
G01*
X11130000Y6780000D01*
G75*
G02*
X10995000Y6915000I0J135000D01*
G01*
X10995000Y7285000D01*
G75*
G02*
X11130000Y7420000I135000J0D01*
G01*
X11400000Y7420000D01*
G75*
G02*
X11535000Y7285000I0J-135000D01*
G01*
G37*
G04 #@! TD.AperFunction*
G04 #@! TD*
G04 #@! TO.P,C752,1*
G04 #@! TO.N,Net-(C752-Pad1)*
G04 #@! TA.AperFunction,SMDPad,CuDef*
G36*
G01*
X14510000Y5020000D02*
X14510000Y4680000D01*
G75*
G02*
X14370000Y4540000I-140000J0D01*
G01*
X14090000Y4540000D01*
G75*
G02*
X13950000Y4680000I0J140000D01*
G01*
X13950000Y5020000D01*
G75*
G02*
X14090000Y5160000I140000J0D01*
G01*
X14370000Y5160000D01*
G75*
G02*
X14510000Y5020000I0J-140000D01*
G01*
G37*
G04 #@! TD.AperFunction*
G04 #@! TO.P,C752,2*
G04 #@! TO.N,GND*
G04 #@! TA.AperFunction,SMDPad,CuDef*
G36*
G01*
X13550000Y5020000D02*
X13550000Y4680000D01*
G75*
G02*
X13410000Y4540000I-140000J0D01*
G01*
X13130000Y4540000D01*
G75*
G02*
X12990000Y4680000I0J140000D01*
G01*
X12990000Y5020000D01*
G75*
G02*
X13130000Y5160000I140000J0D01*
G01*
X13410000Y5160000D01*
G75*
G02*
X13550000Y5020000I0J-140000D01*
G01*
G37*
G04 #@! TD.AperFunction*
G04 #@! TD*
G04 #@! TO.P,C762,1*
G04 #@! TO.N,+5V*
G04 #@! TA.AperFunction,SMDPad,CuDef*
G36*
G01*
X4566437Y2425389D02*
X4226437Y2425389D01*
G75*
G02*
X4086437Y2565389I0J140000D01*
G01*
X4086437Y2845389D01*
G75*
G02*
X4226437Y2985389I140000J0D01*
G01*
X4566437Y2985389D01*
G75*
G02*
X4706437Y2845389I0J-140000D01*
G01*
X4706437Y2565389D01*
G75*
G02*
X4566437Y2425389I-140000J0D01*
G01*
G37*
G04 #@! TD.AperFunction*
G04 #@! TO.P,C762,2*
G04 #@! TO.N,GND*
G04 #@! TA.AperFunction,SMDPad,CuDef*
G36*
G01*
X4566437Y3385389D02*
X4226437Y3385389D01*
G75*
G02*
X4086437Y3525389I0J140000D01*
G01*
X4086437Y3805389D01*
G75*
G02*
X4226437Y3945389I140000J0D01*
G01*
X4566437Y3945389D01*
G75*
G02*
X4706437Y3805389I0J-140000D01*
G01*
X4706437Y3525389D01*
G75*
G02*
X4566437Y3385389I-140000J0D01*
G01*
G37*
G04 #@! TD.AperFunction*
G04 #@! TD*
G04 #@! TO.P,R757,1*
G04 #@! TO.N,Net-(U753C-+)*
G04 #@! TA.AperFunction,SMDPad,CuDef*
G36*
G01*
X12820000Y5965000D02*
X12820000Y6335000D01*
G75*
G02*
X12955000Y6470000I135000J0D01*
G01*
X13225000Y6470000D01*
G75*
G02*
X13360000Y6335000I0J-135000D01*
G01*
X13360000Y5965000D01*
G75*
G02*
X13225000Y5830000I-135000J0D01*
G01*
X12955000Y5830000D01*
G75*
G02*
X12820000Y5965000I0J135000D01*
G01*
G37*
G04 #@! TD.AperFunction*
G04 #@! TO.P,R757,2*
G04 #@! TO.N,Net-(C752-Pad1)*
G04 #@! TA.AperFunction,SMDPad,CuDef*
G36*
G01*
X13840000Y5965000D02*
X13840000Y6335000D01*
G75*
G02*
X13975000Y6470000I135000J0D01*
G01*
X14245000Y6470000D01*
G75*
G02*
X14380000Y6335000I0J-135000D01*
G01*
X14380000Y5965000D01*
G75*
G02*
X14245000Y5830000I-135000J0D01*
G01*
X13975000Y5830000D01*
G75*
G02*
X13840000Y5965000I0J135000D01*
G01*
G37*
G04 #@! TD.AperFunction*
G04 #@! TD*
G04 #@! TO.P,U752,1*
G04 #@! TO.N,Net-(C756-Pad1)*
G04 #@! TA.AperFunction,SMDPad,CuDef*
G36*
G01*
X8400000Y8850000D02*
X8400000Y8550000D01*
G75*
G02*
X8250000Y8400000I-150000J0D01*
G01*
X7225000Y8400000D01*
G75*
G02*
X7075000Y8550000I0J150000D01*
G01*
X7075000Y8850000D01*
G75*
G02*
X7225000Y9000000I150000J0D01*
G01*
X8250000Y9000000D01*
G75*
G02*
X8400000Y8850000I0J-150000D01*
G01*
G37*
G04 #@! TD.AperFunction*
G04 #@! TO.P,U752,2*
G04 #@! TO.N,Net-(U752-Pad2)*
G04 #@! TA.AperFunction,SMDPad,CuDef*
G36*
G01*
X8400000Y7900000D02*
X8400000Y7600000D01*
G75*
G02*
X8250000Y7450000I-150000J0D01*
G01*
X7225000Y7450000D01*
G75*
G02*
X7075000Y7600000I0J150000D01*
G01*
X7075000Y7900000D01*
G75*
G02*
X7225000Y8050000I150000J0D01*
G01*
X8250000Y8050000D01*
G75*
G02*
X8400000Y7900000I0J-150000D01*
G01*
G37*
G04 #@! TD.AperFunction*
G04 #@! TO.P,U752,3,GND*
G04 #@! TO.N,GND*
G04 #@! TA.AperFunction,SMDPad,CuDef*
G36*
G01*
X8400000Y6950000D02*
X8400000Y6650000D01*
G75*
G02*
X8250000Y6500000I-150000J0D01*
G01*
X7225000Y6500000D01*
G75*
G02*
X7075000Y6650000I0J150000D01*
G01*
X7075000Y6950000D01*
G75*
G02*
X7225000Y7100000I150000J0D01*
G01*
X8250000Y7100000D01*
G75*
G02*
X8400000Y6950000I0J-150000D01*
G01*
G37*
G04 #@! TD.AperFunction*
G04 #@! TO.P,U752,4*
G04 #@! TO.N,output*
G04 #@! TA.AperFunction,SMDPad,CuDef*
G36*
G01*
X6125000Y6950000D02*
X6125000Y6650000D01*
G75*
G02*
X5975000Y6500000I-150000J0D01*
G01*
X4950000Y6500000D01*
G75*
G02*
X4800000Y6650000I0J150000D01*
G01*
X4800000Y6950000D01*
G75*
G02*
X4950000Y7100000I150000J0D01*
G01*
X5975000Y7100000D01*
G75*
G02*
X6125000Y6950000I0J-150000D01*
G01*
G37*
G04 #@! TD.AperFunction*
G04 #@! TO.P,U752,5,VCC*
G04 #@! TO.N,+5V*
G04 #@! TA.AperFunction,SMDPad,CuDef*
G36*
G01*
X6125000Y8850000D02*
X6125000Y8550000D01*
G75*
G02*
X5975000Y8400000I-150000J0D01*
G01*
X4950000Y8400000D01*
G75*
G02*
X4800000Y8550000I0J150000D01*
G01*
X4800000Y8850000D01*
G75*
G02*
X4950000Y9000000I150000J0D01*
G01*
X5975000Y9000000D01*
G75*
G02*
X6125000Y8850000I0J-150000D01*
G01*
G37*
G04 #@! TD.AperFunction*
G04 #@! TD*
G04 #@! TO.P,C756,1*
G04 #@! TO.N,Net-(C756-Pad1)*
G04 #@! TA.AperFunction,SMDPad,CuDef*
G36*
G01*
X8830000Y7880000D02*
X8830000Y8220000D01*
G75*
G02*
X8970000Y8360000I140000J0D01*
G01*
X9250000Y8360000D01*
G75*
G02*
X9390000Y8220000I0J-140000D01*
G01*
X9390000Y7880000D01*
G75*
G02*
X9250000Y7740000I-140000J0D01*
G01*
X8970000Y7740000D01*
G75*
G02*
X8830000Y7880000I0J140000D01*
G01*
G37*
G04 #@! TD.AperFunction*
G04 #@! TO.P,C756,2*
G04 #@! TO.N,Net-(C756-Pad2)*
G04 #@! TA.AperFunction,SMDPad,CuDef*
G36*
G01*
X9790000Y7880000D02*
X9790000Y8220000D01*
G75*
G02*
X9930000Y8360000I140000J0D01*
G01*
X10210000Y8360000D01*
G75*
G02*
X10350000Y8220000I0J-140000D01*
G01*
X10350000Y7880000D01*
G75*
G02*
X10210000Y7740000I-140000J0D01*
G01*
X9930000Y7740000D01*
G75*
G02*
X9790000Y7880000I0J140000D01*
G01*
G37*
G04 #@! TD.AperFunction*
G04 #@! TD*
D16*
G04 #@! TO.N,Net-(U751-IO2)*
X2960880Y4809882D03*
G04 #@! TO.N,GND*
X4542548Y9374500D03*
X14840000Y350000D03*
X420000Y8930000D03*
X475000Y6825000D03*
X8950000Y400000D03*
X6829764Y6567230D03*
X2332643Y2337000D03*
X5467387Y5608768D03*
X4400000Y400000D03*
X2309598Y414120D03*
X9925000Y5475000D03*
X10476117Y3469351D03*
X350000Y4750000D03*
X7300000Y5350000D03*
X14800000Y2625000D03*
X9125000Y4400000D03*
X12121049Y9321268D03*
X14775000Y1575000D03*
G04 #@! TO.N,Net-(U751-IO1)*
X3700500Y4078767D03*
G04 #@! TO.N,Net-(U751-IO2)*
X3625400Y739602D03*
G04 #@! TO.N,+5V*
X8165850Y4280400D03*
X4766217Y2280985D03*
X2397366Y4315710D03*
X2520000Y8960000D03*
X14159615Y2002851D03*
X5156253Y8176214D03*
G04 #@! TO.N,Vref*
X4736342Y5445585D03*
X7501951Y1719344D03*
X12950246Y2025341D03*
G04 #@! TO.N,thresh_low*
X11624528Y8739821D03*
X3403581Y8888885D03*
G04 #@! TO.N,Net-(C756-Pad2)*
X10875000Y8890900D03*
G04 #@! TO.N,Net-(C757-Pad2)*
X10699317Y5399689D03*
X10530400Y7186704D03*
G04 #@! TO.N,Net-(U753A-+)*
X7604434Y2609453D03*
G04 #@! TO.N,output*
X2525837Y6595074D03*
G04 #@! TO.N,analog_out*
X6214990Y5548819D03*
G04 #@! TO.N,Net-(U753B--)*
X7166110Y4522290D03*
G04 #@! TO.N,Net-(U753B-+)*
X7325000Y3525000D03*
G04 #@! TO.N,Net-(U753D--)*
X10225000Y4750000D03*
X12091307Y5514600D03*
G04 #@! TO.N,Net-(R763-Pad1)*
X10640500Y805547D03*
G04 #@! TO.N,Net-(U753A--)*
X7375000Y775000D03*
G04 #@! TD*
D17*
G04 #@! TO.N,GND*
X4396437Y3665389D02*
X3859253Y3128205D01*
G04 #@! TO.N,Net-(U751-IO1)*
X3071753Y3450020D02*
X3071753Y3300000D01*
X3700500Y4078767D02*
X3071753Y3450020D01*
G04 #@! TO.N,output*
X2525837Y6884184D02*
X3262437Y7620784D01*
X2525837Y6595074D02*
X2525837Y6884184D01*
G04 #@! TO.N,Net-(C757-Pad1)*
X9015000Y5925000D02*
X9190000Y6100000D01*
X6651982Y5925000D02*
X9015000Y5925000D01*
X6391982Y6185000D02*
X6651982Y5925000D01*
X4299999Y6670784D02*
X4785783Y6185000D01*
X3637500Y6670784D02*
X4299999Y6670784D01*
G04 #@! TO.N,analog_out*
X6214990Y5111773D02*
X6214990Y5548819D01*
G04 #@! TO.N,Net-(C757-Pad1)*
X4785783Y6185000D02*
X6391982Y6185000D01*
G04 #@! TO.N,analog_out*
X5953217Y4850000D02*
X6214990Y5111773D01*
G04 #@! TO.N,GND*
X13270000Y4840000D02*
X14235000Y3875000D01*
X4275000Y3786826D02*
X4275000Y4215472D01*
X4396437Y3665389D02*
X4275000Y3786826D01*
G04 #@! TO.N,Net-(U751-IO2)*
X3625400Y739602D02*
X3065002Y1300000D01*
G04 #@! TO.N,Net-(C752-Pad1)*
X14200000Y6015000D02*
X13115000Y7100000D01*
X14200000Y4880000D02*
X14200000Y6015000D01*
G04 #@! TO.N,Net-(U753C-+)*
X12700000Y4582598D02*
X12700000Y5250000D01*
X13215000Y3875000D02*
X13215000Y2955000D01*
X12699900Y4523201D02*
X12699900Y4582498D01*
X13215000Y3875000D02*
X13215000Y4008101D01*
D18*
X12699900Y4582498D02*
X12700000Y4582598D01*
D17*
X11678217Y3550000D02*
X13130000Y3550000D01*
X12700000Y5250000D02*
X12700000Y5292040D01*
X13115000Y5707040D02*
X13115000Y6150000D01*
X12700000Y5292040D02*
X13115000Y5707040D01*
X13215000Y4008101D02*
X12699900Y4523201D01*
G04 #@! TO.N,+5V*
X4591048Y2900000D02*
X5953217Y2900000D01*
X14075000Y8980000D02*
X14480000Y8980000D01*
X14075000Y8100000D02*
X14025000Y8050000D01*
X4396437Y2705389D02*
X4396437Y1833563D01*
X5156253Y8176214D02*
X5156253Y8393753D01*
X4396437Y1833563D02*
X4400000Y1830000D01*
X2520000Y8960000D02*
X1950000Y8960000D01*
X1915100Y8925100D02*
X1915100Y7620784D01*
X5156253Y8393753D02*
X5312500Y8550000D01*
X1950000Y8960000D02*
X1930000Y8940000D01*
X1915100Y7620784D02*
X1362500Y7620784D01*
X4396437Y2705389D02*
X4591048Y2900000D01*
X14480000Y8980000D02*
X14800000Y9300000D01*
X4396437Y2650765D02*
X4396437Y2705389D01*
X14075000Y8980000D02*
X14075000Y8100000D01*
X1930000Y8940000D02*
X1915100Y8925100D01*
X4766217Y2280985D02*
X4396437Y2650765D01*
G04 #@! TO.N,Vref*
X12709000Y2250000D02*
X11678217Y2250000D01*
G04 #@! TO.N,thresh_low*
X11624528Y8739821D02*
X11314283Y8429576D01*
X11289283Y8044283D02*
X11289283Y7124283D01*
X11314283Y8429576D02*
X11314283Y8044283D01*
G04 #@! TO.N,Net-(C756-Pad1)*
X9110000Y8970000D02*
X9100000Y8980000D01*
X7937500Y8700000D02*
X9139989Y8700000D01*
X9110000Y8050000D02*
X9110000Y8970000D01*
G04 #@! TO.N,Net-(C756-Pad2)*
X10875000Y8890900D02*
X10875000Y8784462D01*
X10875000Y8784462D02*
X10140538Y8050000D01*
X10140538Y8050000D02*
X10070000Y8050000D01*
G04 #@! TO.N,Net-(C757-Pad1)*
X9100000Y6150000D02*
X9100000Y7100000D01*
D18*
G04 #@! TO.N,Net-(C757-Pad2)*
X10620100Y5478906D02*
X10650000Y5508806D01*
D17*
X10453696Y7110000D02*
X10150000Y7110000D01*
X10620100Y7097004D02*
X10530400Y7186704D01*
X10670100Y5428906D02*
X10620100Y5478906D01*
D18*
X10650000Y7067104D02*
X10620100Y7097004D01*
X10650000Y5508806D02*
X10650000Y7067104D01*
D17*
X10530400Y7186704D02*
X10453696Y7110000D01*
G04 #@! TO.N,Net-(U753A-+)*
X7244981Y2250000D02*
X5953217Y2250000D01*
X7604434Y2609453D02*
X7244981Y2250000D01*
G04 #@! TO.N,output*
X3302605Y7620784D02*
X3637500Y7620784D01*
D18*
X3262437Y7620784D02*
X3637500Y7620784D01*
D17*
X3637500Y7620784D02*
X3951041Y7620784D01*
X4591825Y6980000D02*
X5282500Y6980000D01*
X3951041Y7620784D02*
X4591825Y6980000D01*
X5282500Y6980000D02*
X5462500Y6800000D01*
G04 #@! TO.N,thresh_input*
X14800000Y6900000D02*
X14335000Y6900000D01*
X14335000Y6900000D02*
X14135000Y7100000D01*
G04 #@! TO.N,VR-*
X375000Y2840000D02*
X1410000Y2840000D01*
G04 #@! TO.N,VR+*
X375000Y1840000D02*
X786753Y1840000D01*
X786753Y1840000D02*
X1246753Y1380000D01*
G04 #@! TO.N,Net-(U753B--)*
X7166110Y4522290D02*
X6881694Y4237874D01*
X6881694Y4237874D02*
X5991091Y4237874D01*
G04 #@! TO.N,Net-(U753B-+)*
X7300000Y3550000D02*
X5953217Y3550000D01*
X7325000Y3525000D02*
X7300000Y3550000D01*
G04 #@! TO.N,Net-(U753C--)*
X11678217Y4850000D02*
X11678217Y4200000D01*
X11501207Y5432327D02*
X11501207Y5027010D01*
X11501207Y5027010D02*
X11678217Y4850000D01*
X12186182Y7100000D02*
X11290000Y6203818D01*
X11290000Y6203818D02*
X11290000Y6150000D01*
X11265000Y6150000D02*
X11265000Y5668534D01*
X12289462Y7100000D02*
X12186182Y7100000D01*
X11265000Y5668534D02*
X11501207Y5432327D01*
G04 #@! TO.N,Net-(U753D--)*
X13525000Y1435000D02*
X12729064Y1435000D01*
X12091307Y5514600D02*
X12091307Y5956307D01*
X10225000Y4750000D02*
X9851117Y4376117D01*
X10750000Y1600000D02*
X11678217Y1600000D01*
X9851117Y4376117D02*
X9851117Y2498883D01*
X14120000Y840000D02*
X13525000Y1435000D01*
X12564064Y1600000D02*
X11678217Y1600000D01*
X12091307Y5956307D02*
X12285000Y6150000D01*
X9851117Y2498883D02*
X10750000Y1600000D01*
X12729064Y1435000D02*
X12564064Y1600000D01*
G04 #@! TO.N,Net-(R763-Pad1)*
X11678217Y950000D02*
X10784953Y950000D01*
X11678217Y950000D02*
X12965000Y950000D01*
X10784953Y950000D02*
X10640500Y805547D01*
G04 #@! TO.N,Net-(U753A--)*
X7375000Y775000D02*
X7200000Y950000D01*
X5953217Y1600000D02*
X5953217Y950000D01*
X7200000Y950000D02*
X5953217Y950000D01*
G04 #@! TO.N,Net-(U752-Pad2)*
X1750000Y6723389D02*
X1750000Y6709388D01*
X5070000Y7450000D02*
X4575000Y7945000D01*
X4575000Y7946825D02*
X4310941Y8210884D01*
D18*
X1750000Y6709388D02*
X1750000Y6700000D01*
D17*
X2760884Y8210884D02*
X2315100Y7765100D01*
X7937500Y7750000D02*
X6469298Y7750000D01*
X4310941Y8210884D02*
X2760884Y8210884D01*
X1750000Y6108284D02*
X1362500Y5720784D01*
X2315100Y7288489D02*
X1750000Y6723389D01*
X2315100Y7765100D02*
X2315100Y7288489D01*
X6169298Y7450000D02*
X5070000Y7450000D01*
X4575000Y7945000D02*
X4575000Y7946825D01*
X1750000Y6700000D02*
X1750000Y6108284D01*
X6469298Y7750000D02*
X6169298Y7450000D01*
G04 #@! TD*
G04 #@! TA.AperFunction,Conductor*
G04 #@! TO.N,GND*
G36*
X10326106Y6385166D02*
G01*
X10362070Y6335666D01*
X10366915Y6305073D01*
X10366915Y5739714D01*
X10348008Y5681523D01*
X10342736Y5674885D01*
X10317116Y5645317D01*
X10263395Y5527685D01*
X10263394Y5527683D01*
X10244993Y5399692D01*
X10244993Y5399688D01*
X10257487Y5312789D01*
X10247054Y5252500D01*
X10203176Y5209858D01*
X10167235Y5201500D01*
X10167349Y5200707D01*
X10160341Y5199700D01*
X10036267Y5163268D01*
X10036266Y5163268D01*
X9927483Y5093357D01*
X9842798Y4995626D01*
X9789078Y4877996D01*
X9789077Y4877994D01*
X9770676Y4750004D01*
X9770676Y4750003D01*
X9771900Y4741488D01*
X9761465Y4681199D01*
X9743911Y4657397D01*
X9682901Y4596387D01*
X9667903Y4584078D01*
X9653069Y4574166D01*
X9593539Y4485072D01*
X9592355Y4483302D01*
X9592355Y4483301D01*
X9574022Y4391132D01*
X9571035Y4376117D01*
X9574204Y4360183D01*
X9574515Y4358623D01*
X9576417Y4339309D01*
X9576417Y2535692D01*
X9574514Y2516379D01*
X9571035Y2498883D01*
X9576344Y2472193D01*
X9576417Y2471826D01*
X9592354Y2391700D01*
X9628904Y2337000D01*
X9653069Y2300835D01*
X9667898Y2290927D01*
X9682901Y2278615D01*
X10529733Y1431782D01*
X10542044Y1416780D01*
X10551537Y1402572D01*
X10551952Y1401952D01*
X10551955Y1401950D01*
X10552796Y1401109D01*
X10553697Y1399340D01*
X10557369Y1393845D01*
X10556718Y1393411D01*
X10580573Y1346592D01*
X10571002Y1286160D01*
X10527737Y1242895D01*
X10510685Y1236116D01*
X10451772Y1218818D01*
X10451766Y1218815D01*
X10342983Y1148904D01*
X10342981Y1148903D01*
X10342981Y1148902D01*
X10333901Y1138423D01*
X10258298Y1051173D01*
X10204578Y933543D01*
X10204577Y933541D01*
X10186176Y805550D01*
X10186176Y805545D01*
X10204577Y677554D01*
X10204578Y677552D01*
X10204578Y677551D01*
X10204579Y677549D01*
X10258298Y559921D01*
X10342981Y462192D01*
X10451767Y392279D01*
X10575843Y355847D01*
X10575844Y355847D01*
X10705156Y355847D01*
X10705157Y355847D01*
X10829233Y392279D01*
X10938019Y462192D01*
X11022702Y559921D01*
X11022702Y559923D01*
X11027339Y565273D01*
X11029698Y563229D01*
X11066817Y593565D01*
X11102711Y600301D01*
X12340307Y600301D01*
X12340309Y600301D01*
X12413145Y614788D01*
X12478739Y658617D01*
X12533740Y675300D01*
X12584834Y675300D01*
X12643025Y656393D01*
X12678989Y606893D01*
X12682554Y590551D01*
X12683060Y588692D01*
X12683060Y588690D01*
X12683061Y588689D01*
X12726054Y491318D01*
X12801318Y416054D01*
X12898689Y373061D01*
X12922484Y370301D01*
X12922486Y370300D01*
X12922488Y370300D01*
X13277514Y370300D01*
X13277514Y370301D01*
X13301311Y373061D01*
X13398682Y416054D01*
X13473946Y491318D01*
X13516939Y588689D01*
X13516939Y588692D01*
X13519435Y594344D01*
X13560236Y639939D01*
X13620044Y652845D01*
X13676017Y628131D01*
X13700565Y594344D01*
X13703060Y588692D01*
X13703061Y588689D01*
X13746054Y491318D01*
X13821318Y416054D01*
X13918689Y373061D01*
X13942484Y370301D01*
X13942486Y370300D01*
X13942488Y370300D01*
X14297514Y370300D01*
X14297514Y370301D01*
X14321311Y373061D01*
X14418682Y416054D01*
X14493946Y491318D01*
X14536939Y588689D01*
X14539700Y612488D01*
X14539700Y1067512D01*
X14536939Y1091311D01*
X14493946Y1188682D01*
X14418682Y1263946D01*
X14321311Y1306939D01*
X14321310Y1306940D01*
X14321308Y1306940D01*
X14297516Y1309700D01*
X14297512Y1309700D01*
X14079792Y1309700D01*
X14021601Y1328607D01*
X14009788Y1338696D01*
X13945056Y1403428D01*
X13917279Y1457945D01*
X13926850Y1518377D01*
X13970115Y1561642D01*
X14030547Y1571213D01*
X14042953Y1568421D01*
X14094952Y1553152D01*
X14094957Y1553152D01*
X14094958Y1553151D01*
X14094959Y1553151D01*
X14224271Y1553151D01*
X14224272Y1553151D01*
X14348348Y1589583D01*
X14457134Y1659496D01*
X14541817Y1757225D01*
X14595536Y1874853D01*
X14596087Y1878686D01*
X14613939Y2002849D01*
X14613939Y2002854D01*
X14595537Y2130845D01*
X14595536Y2130847D01*
X14595536Y2130849D01*
X14541817Y2248477D01*
X14489990Y2308289D01*
X14466173Y2364645D01*
X14480031Y2424241D01*
X14522974Y2462844D01*
X14543023Y2472193D01*
X14627809Y2556979D01*
X14678481Y2665645D01*
X14679186Y2670999D01*
X14679185Y2671000D01*
X14050000Y2671000D01*
X13991809Y2689907D01*
X13955845Y2739407D01*
X13951000Y2770000D01*
X13951000Y3179001D01*
X14459000Y3179001D01*
X14459001Y3179000D01*
X14679186Y3179000D01*
X14679186Y3179002D01*
X14678481Y3184356D01*
X14627809Y3293022D01*
X14607299Y3313532D01*
X14579522Y3368049D01*
X14589093Y3428481D01*
X14607300Y3453540D01*
X14648649Y3494889D01*
X14648650Y3494891D01*
X14698574Y3601953D01*
X14698576Y3601960D01*
X14701084Y3621000D01*
X14489001Y3621000D01*
X14489000Y3620999D01*
X14489000Y3386007D01*
X14470093Y3327816D01*
X14460004Y3316003D01*
X14459000Y3314999D01*
X14459000Y3179001D01*
X13951000Y3179001D01*
X13951000Y3403993D01*
X13969907Y3462184D01*
X13979996Y3473997D01*
X13981000Y3475001D01*
X13981000Y4030000D01*
X13999907Y4088191D01*
X14049407Y4124155D01*
X14080000Y4129000D01*
X14701083Y4129000D01*
X14698576Y4148041D01*
X14698574Y4148048D01*
X14648650Y4255110D01*
X14571732Y4332028D01*
X14543955Y4386545D01*
X14553526Y4446977D01*
X14571730Y4472033D01*
X14613142Y4513444D01*
X14656890Y4612524D01*
X14659700Y4636746D01*
X14659700Y5063254D01*
X14656890Y5087476D01*
X14654293Y5093357D01*
X14646365Y5111313D01*
X14640157Y5172183D01*
X14670914Y5225076D01*
X14726886Y5249789D01*
X14736930Y5250300D01*
X14864656Y5250300D01*
X14864657Y5250300D01*
X14988733Y5286732D01*
X14988734Y5286733D01*
X14995526Y5288727D01*
X14996247Y5286270D01*
X15045634Y5291950D01*
X15098919Y5261878D01*
X15124352Y5206229D01*
X15125000Y5194917D01*
X15125000Y124500D01*
X15106093Y66309D01*
X15056593Y30345D01*
X15026000Y25500D01*
X124500Y25500D01*
X66309Y44407D01*
X30345Y93907D01*
X25500Y124500D01*
X25500Y1078316D01*
X44407Y1136507D01*
X93907Y1172471D01*
X148189Y1174439D01*
X258445Y1147264D01*
X310420Y1114980D01*
X333493Y1058312D01*
X333753Y1051141D01*
X333753Y859310D01*
X336654Y822435D01*
X336654Y822432D01*
X336655Y822431D01*
X382509Y664602D01*
X466172Y523135D01*
X582388Y406919D01*
X723855Y323256D01*
X881684Y277402D01*
X918559Y274500D01*
X918563Y274500D01*
X1574943Y274500D01*
X1574947Y274500D01*
X1611822Y277402D01*
X1769651Y323256D01*
X1911118Y406919D01*
X2027334Y523135D01*
X2110997Y664602D01*
X2156851Y822431D01*
X2159753Y859306D01*
X2159753Y1890694D01*
X2156851Y1927569D01*
X2110997Y2085398D01*
X2027334Y2226865D01*
X1987200Y2266999D01*
X1959425Y2321513D01*
X1968996Y2381945D01*
X1987199Y2407001D01*
X2027334Y2447135D01*
X2110997Y2588602D01*
X2156851Y2746431D01*
X2159753Y2783306D01*
X2159753Y3784546D01*
X2178660Y3842737D01*
X2228160Y3878701D01*
X2286643Y3879536D01*
X2332709Y3866010D01*
X2332710Y3866010D01*
X2338445Y3864326D01*
X2388951Y3829790D01*
X2409513Y3772163D01*
X2409553Y3769336D01*
X2409553Y2817545D01*
X2424378Y2723946D01*
X2481773Y2611299D01*
X2481858Y2611134D01*
X2571387Y2521605D01*
X2684199Y2464125D01*
X2752201Y2453355D01*
X2777797Y2449300D01*
X2777799Y2449300D01*
X3365709Y2449300D01*
X3388225Y2452867D01*
X3459307Y2464125D01*
X3572119Y2521605D01*
X3661648Y2611134D01*
X3719128Y2723946D01*
X3733953Y2817546D01*
X3733953Y3330457D01*
X3752860Y3388648D01*
X3802360Y3424612D01*
X3863546Y3424612D01*
X3913046Y3388648D01*
X3922678Y3372296D01*
X3943629Y3327366D01*
X4028416Y3242579D01*
X4035508Y3237613D01*
X4034489Y3236159D01*
X4071541Y3201609D01*
X4083216Y3141548D01*
X4057359Y3086095D01*
X4054958Y3083609D01*
X3983296Y3011947D01*
X3939546Y2912863D01*
X3936737Y2888648D01*
X3936737Y2522131D01*
X3939546Y2497916D01*
X3939546Y2497914D01*
X3939547Y2497913D01*
X3983295Y2398833D01*
X4046213Y2335915D01*
X4073989Y2281400D01*
X4064418Y2220968D01*
X4046214Y2195913D01*
X4010055Y2159753D01*
X3986858Y2136556D01*
X3943109Y2037474D01*
X3940300Y2013259D01*
X3940300Y1646742D01*
X3943109Y1622527D01*
X3943109Y1622525D01*
X3943110Y1622524D01*
X3986858Y1523444D01*
X4058522Y1451780D01*
X4086298Y1397265D01*
X4076727Y1336833D01*
X4038494Y1298601D01*
X4039071Y1297776D01*
X4034397Y1294504D01*
X4033462Y1293568D01*
X4032142Y1292925D01*
X4031979Y1292811D01*
X3947190Y1208022D01*
X3944134Y1201468D01*
X3902403Y1156722D01*
X3842342Y1145049D01*
X3820983Y1151083D01*
X3820923Y1150876D01*
X3805058Y1155535D01*
X3754553Y1190073D01*
X3733993Y1247700D01*
X3733953Y1250524D01*
X3733953Y1856456D01*
X3723096Y1925000D01*
X3719128Y1950054D01*
X3661648Y2062866D01*
X3572119Y2152395D01*
X3572116Y2152397D01*
X3459307Y2209875D01*
X3365709Y2224700D01*
X3365707Y2224700D01*
X2777799Y2224700D01*
X2777797Y2224700D01*
X2684198Y2209875D01*
X2571389Y2152397D01*
X2481856Y2062864D01*
X2424378Y1950055D01*
X2409553Y1856456D01*
X2409553Y893545D01*
X2424378Y799946D01*
X2478678Y693374D01*
X2481858Y687134D01*
X2571387Y597605D01*
X2684199Y540125D01*
X2752058Y529377D01*
X2777797Y525300D01*
X2777799Y525300D01*
X3170844Y525300D01*
X3229035Y506393D01*
X3245659Y491135D01*
X3327881Y396247D01*
X3436667Y326334D01*
X3560743Y289902D01*
X3560744Y289902D01*
X3690056Y289902D01*
X3690057Y289902D01*
X3814133Y326334D01*
X3922919Y396247D01*
X3936808Y412277D01*
X3989203Y443873D01*
X4050164Y438638D01*
X4053468Y437170D01*
X4140645Y396519D01*
X4140644Y396519D01*
X4145998Y395814D01*
X4146000Y395815D01*
X4146000Y1025000D01*
X4164907Y1083191D01*
X4214407Y1119155D01*
X4245000Y1124000D01*
X4555000Y1124000D01*
X4613191Y1105093D01*
X4649155Y1055593D01*
X4654000Y1025000D01*
X4654000Y395815D01*
X4654001Y395814D01*
X4659355Y396519D01*
X4768021Y447191D01*
X4852809Y531979D01*
X4903478Y640639D01*
X4903480Y640646D01*
X4910423Y693374D01*
X4911810Y693192D01*
X4932552Y745188D01*
X4984297Y777839D01*
X5045352Y773840D01*
X5090984Y736888D01*
X5120059Y693374D01*
X5135692Y669977D01*
X5135694Y669975D01*
X5180647Y639939D01*
X5218289Y614788D01*
X5273662Y603774D01*
X5291113Y600302D01*
X5291114Y600302D01*
X5291124Y600300D01*
X6615309Y600301D01*
X6688145Y614788D01*
X6753739Y658617D01*
X6808740Y675300D01*
X6862532Y675300D01*
X6920723Y656393D01*
X6952585Y617426D01*
X6992796Y529377D01*
X6992797Y529376D01*
X6992798Y529374D01*
X7077481Y431645D01*
X7186267Y361732D01*
X7310343Y325300D01*
X7310344Y325300D01*
X7439656Y325300D01*
X7439657Y325300D01*
X7563733Y361732D01*
X7672519Y431645D01*
X7757202Y529374D01*
X7810921Y647002D01*
X7812591Y658616D01*
X7829324Y774998D01*
X7829324Y775003D01*
X7810922Y902994D01*
X7810921Y902996D01*
X7810921Y902998D01*
X7757202Y1020626D01*
X7672519Y1118355D01*
X7660085Y1126346D01*
X7621355Y1173711D01*
X7617863Y1234797D01*
X7650942Y1286269D01*
X7685722Y1304620D01*
X7690684Y1306076D01*
X7799470Y1375989D01*
X7884153Y1473718D01*
X7937872Y1591346D01*
X7947670Y1659495D01*
X7956275Y1719342D01*
X7956275Y1719347D01*
X7937873Y1847338D01*
X7937872Y1847340D01*
X7937872Y1847342D01*
X7884153Y1964970D01*
X7799470Y2062699D01*
X7799467Y2062701D01*
X7797740Y2064694D01*
X7773922Y2121053D01*
X7787780Y2180649D01*
X7819033Y2212809D01*
X7901953Y2266098D01*
X7986636Y2363827D01*
X8040355Y2481455D01*
X8040361Y2481495D01*
X8058758Y2609451D01*
X8058758Y2609456D01*
X8040356Y2737447D01*
X8040355Y2737449D01*
X8040355Y2737451D01*
X7986636Y2855079D01*
X7901953Y2952808D01*
X7793167Y3022721D01*
X7705648Y3048419D01*
X7695159Y3051499D01*
X7644652Y3086035D01*
X7624091Y3143663D01*
X7641330Y3202369D01*
X7648219Y3211306D01*
X7707202Y3279374D01*
X7760921Y3397002D01*
X7760922Y3397007D01*
X7779324Y3524998D01*
X7779324Y3525003D01*
X7760922Y3652994D01*
X7760921Y3652996D01*
X7760921Y3652998D01*
X7707202Y3770626D01*
X7622519Y3868355D01*
X7618227Y3871113D01*
X7513733Y3938268D01*
X7513727Y3938271D01*
X7430295Y3962769D01*
X7379789Y3997305D01*
X7359228Y4054932D01*
X7376467Y4113639D01*
X7404661Y4141039D01*
X7463629Y4178935D01*
X7546798Y4274918D01*
X7599194Y4306513D01*
X7660155Y4301277D01*
X7706396Y4261209D01*
X7719609Y4224175D01*
X7729927Y4152408D01*
X7729928Y4152405D01*
X7729928Y4152404D01*
X7729929Y4152402D01*
X7783648Y4034774D01*
X7868331Y3937045D01*
X7977117Y3867132D01*
X8101193Y3830700D01*
X8101194Y3830700D01*
X8230506Y3830700D01*
X8230507Y3830700D01*
X8354583Y3867132D01*
X8463369Y3937045D01*
X8548052Y4034774D01*
X8601771Y4152402D01*
X8601772Y4152408D01*
X8620174Y4280398D01*
X8620174Y4280403D01*
X8601772Y4408394D01*
X8601771Y4408396D01*
X8601771Y4408398D01*
X8548052Y4526026D01*
X8463369Y4623755D01*
X8442938Y4636885D01*
X8354583Y4693668D01*
X8230508Y4730100D01*
X8230507Y4730100D01*
X8101193Y4730100D01*
X8101191Y4730100D01*
X7977117Y4693668D01*
X7977116Y4693668D01*
X7868332Y4623756D01*
X7868329Y4623753D01*
X7785160Y4527773D01*
X7732764Y4496178D01*
X7671803Y4501414D01*
X7625563Y4541483D01*
X7612350Y4578517D01*
X7602032Y4650283D01*
X7602031Y4650286D01*
X7602031Y4650288D01*
X7548312Y4767916D01*
X7463629Y4865645D01*
X7444407Y4877998D01*
X7354843Y4935558D01*
X7230768Y4971990D01*
X7230767Y4971990D01*
X7101453Y4971990D01*
X7101451Y4971990D01*
X6977369Y4935556D01*
X6972745Y4933444D01*
X6911958Y4926475D01*
X6858684Y4956566D01*
X6834529Y5004189D01*
X6828935Y5032316D01*
X6825929Y5047428D01*
X6825928Y5047430D01*
X6770744Y5130021D01*
X6770739Y5130026D01*
X6688147Y5185211D01*
X6688143Y5185213D01*
X6678086Y5187213D01*
X6624703Y5217111D01*
X6599089Y5272676D01*
X6607349Y5325436D01*
X6650911Y5420821D01*
X6652002Y5428407D01*
X6669314Y5548817D01*
X6669314Y5551300D01*
X6669954Y5553271D01*
X6670322Y5555828D01*
X6670764Y5555765D01*
X6688221Y5609491D01*
X6737721Y5645455D01*
X6768314Y5650300D01*
X8978191Y5650300D01*
X8997504Y5648398D01*
X9000842Y5647735D01*
X9015000Y5644918D01*
X9122183Y5666238D01*
X9131191Y5669969D01*
X9132070Y5667845D01*
X9173369Y5680373D01*
X9270429Y5680373D01*
X9270429Y5680374D01*
X9294226Y5683134D01*
X9391597Y5726127D01*
X9466861Y5801391D01*
X9484660Y5841704D01*
X9525459Y5887298D01*
X9585267Y5900204D01*
X9641240Y5875491D01*
X9664948Y5843555D01*
X9699264Y5769964D01*
X9782803Y5686425D01*
X9858915Y5650934D01*
X9858915Y6305073D01*
X9877822Y6363264D01*
X9927322Y6399228D01*
X9957915Y6404073D01*
X10267915Y6404073D01*
X10326106Y6385166D01*
G37*
G04 #@! TD.AperFunction*
G04 #@! TA.AperFunction,Conductor*
G36*
X10811163Y4639030D02*
G01*
X10826538Y4621093D01*
X10851270Y4584078D01*
X10853994Y4580002D01*
X10870602Y4521114D01*
X10853994Y4470001D01*
X10805507Y4397434D01*
X10805504Y4397425D01*
X10791018Y4324603D01*
X10791017Y4324593D01*
X10791017Y4075411D01*
X10791018Y4075404D01*
X10805504Y4002574D01*
X10805504Y4002573D01*
X10805505Y4002572D01*
X10840118Y3950769D01*
X10853994Y3930002D01*
X10870602Y3871113D01*
X10853994Y3820001D01*
X10805507Y3747434D01*
X10805504Y3747425D01*
X10791018Y3674603D01*
X10791017Y3674593D01*
X10791017Y3425411D01*
X10791018Y3425404D01*
X10805504Y3352573D01*
X10805505Y3352571D01*
X10825863Y3322103D01*
X10842471Y3263215D01*
X10821293Y3205812D01*
X10813552Y3197101D01*
X10788930Y3172480D01*
X10788929Y3172478D01*
X10756927Y3100001D01*
X10756927Y3100000D01*
X12599506Y3100000D01*
X12583473Y3136311D01*
X12577264Y3197181D01*
X12608019Y3250074D01*
X12663991Y3274789D01*
X12674037Y3275300D01*
X12720050Y3275300D01*
X12778241Y3256393D01*
X12814205Y3206893D01*
X12818390Y3164891D01*
X12815300Y3138261D01*
X12815300Y2711742D01*
X12818109Y2687525D01*
X12828635Y2663687D01*
X12834843Y2602817D01*
X12804086Y2549924D01*
X12748114Y2525211D01*
X12738070Y2524700D01*
X12674037Y2524700D01*
X12615846Y2543607D01*
X12579882Y2593107D01*
X12579882Y2654293D01*
X12583473Y2663689D01*
X12599506Y2700000D01*
X10756927Y2700000D01*
X10788929Y2627524D01*
X10813551Y2602902D01*
X10841328Y2548385D01*
X10831757Y2487953D01*
X10825863Y2477898D01*
X10805507Y2447434D01*
X10805504Y2447425D01*
X10791018Y2374603D01*
X10791017Y2374593D01*
X10791017Y2186475D01*
X10772110Y2128284D01*
X10722610Y2092320D01*
X10661424Y2092320D01*
X10622013Y2116472D01*
X10154813Y2583673D01*
X10127036Y2638189D01*
X10125817Y2653676D01*
X10125817Y4201300D01*
X10144724Y4259491D01*
X10194224Y4295455D01*
X10224817Y4300300D01*
X10289656Y4300300D01*
X10289657Y4300300D01*
X10413733Y4336732D01*
X10522519Y4406645D01*
X10607202Y4504374D01*
X10654170Y4607221D01*
X10695540Y4652296D01*
X10755507Y4664447D01*
X10811163Y4639030D01*
G37*
G04 #@! TD.AperFunction*
G04 #@! TA.AperFunction,Conductor*
G36*
X14414638Y9706093D02*
G01*
X14450602Y9656593D01*
X14450602Y9595407D01*
X14431267Y9561171D01*
X14419816Y9547956D01*
X14417797Y9545625D01*
X14393595Y9492630D01*
X14352223Y9447553D01*
X14292256Y9435402D01*
X14287622Y9436293D01*
X14258258Y9439700D01*
X14258254Y9439700D01*
X13891746Y9439700D01*
X13891741Y9439700D01*
X13867526Y9436891D01*
X13867524Y9436890D01*
X13776933Y9396890D01*
X13768442Y9393141D01*
X13696780Y9321479D01*
X13642263Y9293702D01*
X13581831Y9303274D01*
X13543599Y9341506D01*
X13542776Y9340929D01*
X13539503Y9345603D01*
X13538567Y9346539D01*
X13537922Y9347861D01*
X13537810Y9348021D01*
X13453020Y9432811D01*
X13369000Y9471991D01*
X13369000Y8521007D01*
X13350093Y8462816D01*
X13340004Y8451003D01*
X13319000Y8429999D01*
X13319000Y7895000D01*
X13300093Y7836809D01*
X13250593Y7800845D01*
X13220000Y7796000D01*
X12050000Y7796000D01*
X11991809Y7814907D01*
X11955845Y7864407D01*
X11951000Y7895000D01*
X11951000Y8304001D01*
X12459000Y8304001D01*
X12459001Y8304000D01*
X12810999Y8304000D01*
X12811000Y8304001D01*
X12811000Y8508993D01*
X12829907Y8567184D01*
X12839996Y8578997D01*
X12861000Y8600001D01*
X12861000Y8725999D01*
X12860999Y8726000D01*
X12640815Y8726000D01*
X12640813Y8725999D01*
X12641518Y8720645D01*
X12683948Y8629655D01*
X12691405Y8568925D01*
X12661742Y8515411D01*
X12606289Y8489553D01*
X12551377Y8500227D01*
X12550875Y8499148D01*
X12546551Y8501165D01*
X12546228Y8501227D01*
X12545673Y8501574D01*
X12459000Y8541991D01*
X12459000Y8304001D01*
X11951000Y8304001D01*
X11951000Y8392955D01*
X11969907Y8451146D01*
X11975168Y8457771D01*
X12006730Y8494195D01*
X12060449Y8611823D01*
X12060472Y8611980D01*
X12078852Y8739819D01*
X12078852Y8739824D01*
X12060450Y8867815D01*
X12060449Y8867817D01*
X12060449Y8867819D01*
X12006730Y8985447D01*
X11922047Y9083176D01*
X11893478Y9101536D01*
X11813261Y9153089D01*
X11689186Y9189521D01*
X11689185Y9189521D01*
X11559871Y9189521D01*
X11559869Y9189521D01*
X11435795Y9153089D01*
X11384029Y9119821D01*
X11324853Y9104268D01*
X11267837Y9126467D01*
X11255687Y9138274D01*
X11248306Y9146792D01*
X11172738Y9234002D01*
X12640813Y9234002D01*
X12640814Y9234000D01*
X12860999Y9234000D01*
X12861000Y9234001D01*
X12861000Y9471991D01*
X12776979Y9432811D01*
X12692190Y9348022D01*
X12641518Y9239356D01*
X12640813Y9234002D01*
X11172738Y9234002D01*
X11172519Y9234255D01*
X11063733Y9304168D01*
X11050611Y9308021D01*
X10939658Y9340600D01*
X10939657Y9340600D01*
X10810343Y9340600D01*
X10810341Y9340600D01*
X10686267Y9304168D01*
X10686265Y9304167D01*
X10668868Y9292987D01*
X10609692Y9277435D01*
X10552676Y9299635D01*
X10525622Y9334435D01*
X10513649Y9360111D01*
X10430109Y9443651D01*
X10354001Y9479141D01*
X10354000Y9479141D01*
X10354000Y8825000D01*
X10335093Y8766809D01*
X10285593Y8730845D01*
X10255000Y8726000D01*
X9945000Y8726000D01*
X9886809Y8744907D01*
X9850845Y8794407D01*
X9846000Y8825000D01*
X9846000Y9479141D01*
X9845998Y9479141D01*
X9769890Y9443651D01*
X9686349Y9360110D01*
X9652033Y9286519D01*
X9610304Y9241771D01*
X9550243Y9230097D01*
X9494790Y9255956D01*
X9471744Y9288372D01*
X9453946Y9328682D01*
X9378682Y9403946D01*
X9281311Y9446939D01*
X9281310Y9446940D01*
X9281308Y9446940D01*
X9257516Y9449700D01*
X9257512Y9449700D01*
X8902488Y9449700D01*
X8902483Y9449700D01*
X8878691Y9446940D01*
X8781318Y9403946D01*
X8706054Y9328682D01*
X8663060Y9231309D01*
X8660300Y9207517D01*
X8660300Y9102546D01*
X8641393Y9044355D01*
X8591893Y9008391D01*
X8530707Y9008391D01*
X8491298Y9032541D01*
X8422305Y9101534D01*
X8422303Y9101535D01*
X8422302Y9101536D01*
X8319804Y9146794D01*
X8294750Y9149700D01*
X7180257Y9149700D01*
X7180254Y9149699D01*
X7155195Y9146793D01*
X7155189Y9146792D01*
X7052697Y9101536D01*
X6973464Y9022303D01*
X6928206Y8919806D01*
X6928206Y8919805D01*
X6925300Y8894754D01*
X6925300Y8505258D01*
X6925300Y8505256D01*
X6925301Y8505254D01*
X6927722Y8484382D01*
X6928207Y8480196D01*
X6928208Y8480190D01*
X6973464Y8377698D01*
X6973465Y8377697D01*
X6973466Y8377695D01*
X7052695Y8298466D01*
X7052696Y8298466D01*
X7056158Y8295004D01*
X7083935Y8240487D01*
X7074364Y8180055D01*
X7056158Y8154996D01*
X7052696Y8151535D01*
X7052695Y8151534D01*
X7012454Y8111293D01*
X6973464Y8072303D01*
X6970346Y8067750D01*
X6921861Y8030429D01*
X6888672Y8024700D01*
X6506107Y8024700D01*
X6486794Y8026602D01*
X6469298Y8030082D01*
X6401333Y8016563D01*
X6393533Y8015012D01*
X6362116Y8008763D01*
X6362111Y8008760D01*
X6271253Y7948051D01*
X6271246Y7948044D01*
X6261335Y7933212D01*
X6249027Y7918215D01*
X6084511Y7753697D01*
X6029995Y7725919D01*
X6014507Y7724700D01*
X5576831Y7724700D01*
X5518640Y7743607D01*
X5482676Y7793107D01*
X5482676Y7854293D01*
X5502009Y7888529D01*
X5538455Y7930588D01*
X5592174Y8048216D01*
X5594958Y8067576D01*
X5609021Y8165390D01*
X5636017Y8220297D01*
X5690131Y8248851D01*
X5707013Y8250301D01*
X6019743Y8250301D01*
X6019746Y8250301D01*
X6044805Y8253207D01*
X6147305Y8298466D01*
X6226534Y8377695D01*
X6271793Y8480195D01*
X6274700Y8505253D01*
X6274699Y8894746D01*
X6271793Y8919805D01*
X6271791Y8919809D01*
X6271791Y8919811D01*
X6226535Y9022303D01*
X6226534Y9022304D01*
X6226534Y9022305D01*
X6147305Y9101534D01*
X6147303Y9101535D01*
X6147302Y9101536D01*
X6044804Y9146794D01*
X6019750Y9149700D01*
X4905257Y9149700D01*
X4905254Y9149699D01*
X4880195Y9146793D01*
X4880189Y9146792D01*
X4777697Y9101536D01*
X4698464Y9022303D01*
X4653206Y8919806D01*
X4653206Y8919805D01*
X4650300Y8894754D01*
X4650300Y8894748D01*
X4650301Y8502396D01*
X4649531Y8502396D01*
X4634768Y8446132D01*
X4587419Y8407380D01*
X4526335Y8403861D01*
X4496459Y8417304D01*
X4495625Y8417861D01*
X4418124Y8469646D01*
X4418123Y8469647D01*
X4418122Y8469647D01*
X4387943Y8475650D01*
X4377976Y8477632D01*
X4310941Y8490966D01*
X4310940Y8490966D01*
X4293445Y8487486D01*
X4274132Y8485584D01*
X3865756Y8485584D01*
X3807565Y8504491D01*
X3771601Y8553991D01*
X3771601Y8615177D01*
X3782473Y8638109D01*
X3785777Y8643253D01*
X3785783Y8643259D01*
X3839502Y8760887D01*
X3839792Y8762902D01*
X3857905Y8888883D01*
X3857905Y8888888D01*
X3839503Y9016879D01*
X3839502Y9016881D01*
X3839502Y9016883D01*
X3785783Y9134511D01*
X3701100Y9232240D01*
X3698361Y9234000D01*
X3592314Y9302153D01*
X3468239Y9338585D01*
X3468238Y9338585D01*
X3338924Y9338585D01*
X3338922Y9338585D01*
X3214848Y9302153D01*
X3214847Y9302153D01*
X3106063Y9232241D01*
X3065480Y9185407D01*
X3013083Y9153812D01*
X2952122Y9159050D01*
X2905882Y9199119D01*
X2903582Y9203479D01*
X2902204Y9205622D01*
X2902203Y9205623D01*
X2902202Y9205626D01*
X2817519Y9303355D01*
X2708733Y9373268D01*
X2641052Y9393141D01*
X2584658Y9409700D01*
X2584657Y9409700D01*
X2455343Y9409700D01*
X2455341Y9409700D01*
X2331267Y9373268D01*
X2318928Y9365339D01*
X2259754Y9349786D01*
X2225421Y9358059D01*
X2137476Y9396890D01*
X2137473Y9396891D01*
X2137475Y9396891D01*
X2113258Y9399700D01*
X2113254Y9399700D01*
X1746746Y9399700D01*
X1746741Y9399700D01*
X1722526Y9396891D01*
X1623442Y9353141D01*
X1551780Y9281479D01*
X1497263Y9253702D01*
X1436831Y9263274D01*
X1398599Y9301506D01*
X1397776Y9300929D01*
X1394503Y9305603D01*
X1393567Y9306539D01*
X1392922Y9307861D01*
X1392810Y9308021D01*
X1308020Y9392811D01*
X1224000Y9431991D01*
X1224000Y8448012D01*
X1224001Y8448012D01*
X1308021Y8487191D01*
X1392810Y8571980D01*
X1397776Y8579071D01*
X1399230Y8578053D01*
X1433774Y8615102D01*
X1493835Y8626781D01*
X1549289Y8600927D01*
X1551752Y8598550D01*
X1611405Y8538897D01*
X1639181Y8484382D01*
X1640400Y8468895D01*
X1640400Y8169484D01*
X1621493Y8111293D01*
X1571993Y8075329D01*
X1541400Y8070484D01*
X805257Y8070484D01*
X805254Y8070483D01*
X780195Y8067577D01*
X780189Y8067576D01*
X677697Y8022320D01*
X598464Y7943087D01*
X553206Y7840590D01*
X553206Y7840589D01*
X550300Y7815538D01*
X550300Y7426042D01*
X550301Y7426039D01*
X553207Y7400980D01*
X553208Y7400974D01*
X598464Y7298482D01*
X598465Y7298481D01*
X598466Y7298479D01*
X677695Y7219250D01*
X677696Y7219250D01*
X677697Y7219249D01*
X717817Y7201534D01*
X780195Y7173991D01*
X805253Y7171084D01*
X1570202Y7171085D01*
X1628393Y7152178D01*
X1664357Y7102678D01*
X1664357Y7041492D01*
X1640206Y7002081D01*
X1581784Y6943659D01*
X1566786Y6931350D01*
X1551952Y6921438D01*
X1500345Y6844201D01*
X1491238Y6830573D01*
X1469918Y6723389D01*
X1473398Y6705895D01*
X1475300Y6686581D01*
X1475300Y6269484D01*
X1456393Y6211293D01*
X1406893Y6175329D01*
X1376300Y6170484D01*
X805257Y6170484D01*
X805254Y6170483D01*
X780195Y6167577D01*
X780189Y6167576D01*
X677697Y6122320D01*
X598464Y6043087D01*
X553206Y5940590D01*
X553206Y5940589D01*
X550300Y5915538D01*
X550300Y5526042D01*
X550301Y5526039D01*
X553207Y5500980D01*
X553208Y5500974D01*
X598464Y5398482D01*
X598465Y5398481D01*
X598466Y5398479D01*
X677695Y5319250D01*
X677696Y5319250D01*
X677697Y5319249D01*
X714060Y5303193D01*
X780195Y5273991D01*
X805253Y5271084D01*
X1919746Y5271085D01*
X1944805Y5273991D01*
X1956238Y5279039D01*
X1985478Y5291950D01*
X2047305Y5319250D01*
X2126534Y5398479D01*
X2171793Y5500979D01*
X2174700Y5526037D01*
X2174699Y5915530D01*
X2171793Y5940589D01*
X2171791Y5940593D01*
X2171791Y5940595D01*
X2126535Y6043087D01*
X2126534Y6043088D01*
X2126534Y6043089D01*
X2053694Y6115929D01*
X2025919Y6170443D01*
X2024700Y6185930D01*
X2024700Y6221278D01*
X2043607Y6279469D01*
X2093107Y6315433D01*
X2154293Y6315433D01*
X2198518Y6286110D01*
X2228318Y6251719D01*
X2337104Y6181806D01*
X2461180Y6145374D01*
X2461181Y6145374D01*
X2590493Y6145374D01*
X2590494Y6145374D01*
X2590495Y6145375D01*
X2590499Y6145375D01*
X2637936Y6159305D01*
X2700987Y6177818D01*
X2762147Y6176072D01*
X2810600Y6138710D01*
X2827839Y6080003D01*
X2817820Y6039349D01*
X2786257Y5974785D01*
X2786257Y5974784D01*
X3792500Y5974784D01*
X3850691Y5955877D01*
X3886655Y5906377D01*
X3891500Y5875784D01*
X3891500Y5220786D01*
X3891501Y5220785D01*
X4183213Y5220785D01*
X4183216Y5220786D01*
X4258858Y5231805D01*
X4259110Y5230069D01*
X4310832Y5229328D01*
X4353713Y5200452D01*
X4354139Y5199960D01*
X4354140Y5199959D01*
X4438823Y5102230D01*
X4547609Y5032317D01*
X4671685Y4995885D01*
X4671686Y4995885D01*
X4800998Y4995885D01*
X4800999Y4995885D01*
X4925075Y5032317D01*
X4925086Y5032325D01*
X4925882Y5032687D01*
X4926623Y5032773D01*
X4931868Y5034312D01*
X4932134Y5033405D01*
X4986668Y5039667D01*
X5039948Y5009585D01*
X5065371Y4953932D01*
X5066017Y4942637D01*
X5066017Y4725411D01*
X5066018Y4725404D01*
X5080504Y4652574D01*
X5080504Y4652573D01*
X5080505Y4652572D01*
X5128994Y4580002D01*
X5145602Y4521113D01*
X5128994Y4470001D01*
X5080507Y4397434D01*
X5080504Y4397425D01*
X5066018Y4324603D01*
X5066017Y4324593D01*
X5066017Y4075411D01*
X5066018Y4075404D01*
X5080504Y4002574D01*
X5080504Y4002573D01*
X5080505Y4002572D01*
X5115118Y3950769D01*
X5128994Y3930002D01*
X5145602Y3871113D01*
X5128995Y3820001D01*
X5087754Y3758277D01*
X5039704Y3720397D01*
X4978566Y3717993D01*
X4927692Y3751985D01*
X4906513Y3809388D01*
X4906437Y3813277D01*
X4906437Y3845228D01*
X4899917Y3894744D01*
X4899915Y3894751D01*
X4849246Y4003411D01*
X4764458Y4088199D01*
X4655793Y4138871D01*
X4655794Y4138871D01*
X4650437Y4139577D01*
X4650437Y3510389D01*
X4631530Y3452198D01*
X4582030Y3416234D01*
X4551437Y3411389D01*
X4241437Y3411389D01*
X4183246Y3430296D01*
X4147282Y3479796D01*
X4142437Y3510389D01*
X4142437Y3985534D01*
X4143445Y3999623D01*
X4154824Y4078765D01*
X4154824Y4078770D01*
X4136422Y4206761D01*
X4136421Y4206763D01*
X4136421Y4206765D01*
X4082702Y4324393D01*
X3998019Y4422122D01*
X3975089Y4436858D01*
X3889233Y4492035D01*
X3765158Y4528467D01*
X3765157Y4528467D01*
X3635843Y4528467D01*
X3635841Y4528467D01*
X3511767Y4492035D01*
X3511757Y4492031D01*
X3509955Y4490872D01*
X3508227Y4490419D01*
X3505326Y4489093D01*
X3505096Y4489596D01*
X3450779Y4475323D01*
X3393764Y4497527D01*
X3360690Y4549003D01*
X3364189Y4610088D01*
X3366379Y4615272D01*
X3396801Y4681884D01*
X3396802Y4681889D01*
X3415204Y4809880D01*
X3415204Y4809885D01*
X3396802Y4937876D01*
X3396801Y4937878D01*
X3396801Y4937880D01*
X3343082Y5055508D01*
X3341830Y5056953D01*
X3341208Y5058424D01*
X3339254Y5061465D01*
X3339780Y5061804D01*
X3318011Y5113310D01*
X3331868Y5172906D01*
X3359986Y5197273D01*
X3383500Y5220786D01*
X3383500Y5466783D01*
X3383499Y5466784D01*
X2786257Y5466784D01*
X2837107Y5362769D01*
X2845678Y5302187D01*
X2817002Y5248137D01*
X2776066Y5224302D01*
X2772155Y5223154D01*
X2772146Y5223150D01*
X2663363Y5153239D01*
X2663361Y5153238D01*
X2663361Y5153237D01*
X2611473Y5093355D01*
X2578678Y5055508D01*
X2524958Y4937878D01*
X2524957Y4937875D01*
X2512370Y4850322D01*
X2485375Y4795414D01*
X2431261Y4766860D01*
X2414378Y4765410D01*
X2332707Y4765410D01*
X2208633Y4728978D01*
X2208632Y4728978D01*
X2099849Y4659067D01*
X2099847Y4659066D01*
X2099847Y4659065D01*
X2026281Y4574166D01*
X2015164Y4561336D01*
X1961444Y4443706D01*
X1961443Y4443705D01*
X1955148Y4399920D01*
X1928151Y4345013D01*
X1874036Y4316461D01*
X1813474Y4325169D01*
X1806766Y4328794D01*
X1769651Y4350744D01*
X1611822Y4396598D01*
X1611821Y4396599D01*
X1611818Y4396599D01*
X1586551Y4398587D01*
X1574947Y4399500D01*
X918559Y4399500D01*
X907801Y4398654D01*
X881687Y4396599D01*
X881680Y4396597D01*
X723855Y4350744D01*
X582389Y4267082D01*
X466171Y4150864D01*
X382509Y4009398D01*
X336656Y3851573D01*
X336654Y3851566D01*
X333753Y3814690D01*
X333753Y3628860D01*
X314846Y3570669D01*
X265346Y3534705D01*
X258445Y3532737D01*
X148192Y3505562D01*
X87168Y3509994D01*
X40403Y3549449D01*
X25500Y3601685D01*
X25500Y8685999D01*
X495813Y8685999D01*
X496518Y8680645D01*
X547190Y8571979D01*
X631978Y8487191D01*
X715998Y8448012D01*
X716000Y8448012D01*
X716000Y8685999D01*
X715999Y8686000D01*
X495815Y8686000D01*
X495813Y8685999D01*
X25500Y8685999D01*
X25500Y9194002D01*
X495813Y9194002D01*
X495814Y9194000D01*
X715999Y9194000D01*
X716000Y9194001D01*
X716000Y9431991D01*
X631979Y9392811D01*
X547190Y9308022D01*
X496518Y9199356D01*
X495813Y9194002D01*
X25500Y9194002D01*
X25500Y9626000D01*
X44407Y9684191D01*
X93907Y9720155D01*
X124500Y9725000D01*
X14356447Y9725000D01*
X14414638Y9706093D01*
G37*
G04 #@! TD.AperFunction*
G04 #@! TA.AperFunction,Conductor*
G36*
X13849289Y4510927D02*
G01*
X13851752Y4508550D01*
X13893268Y4467034D01*
X13921044Y4412519D01*
X13911473Y4352087D01*
X13893267Y4327029D01*
X13821350Y4255112D01*
X13787033Y4181519D01*
X13745304Y4136771D01*
X13685243Y4125097D01*
X13629790Y4150956D01*
X13606744Y4183372D01*
X13604828Y4187712D01*
X13588946Y4223682D01*
X13576654Y4235974D01*
X13548879Y4290488D01*
X13558450Y4350920D01*
X13601715Y4394185D01*
X13604828Y4395703D01*
X13608024Y4397194D01*
X13692810Y4481980D01*
X13697776Y4489071D01*
X13699230Y4488053D01*
X13733774Y4525102D01*
X13793835Y4536781D01*
X13849289Y4510927D01*
G37*
G04 #@! TD.AperFunction*
G04 #@! TA.AperFunction,Conductor*
G36*
X5789841Y5891393D02*
G01*
X5825805Y5841893D01*
X5825805Y5780707D01*
X5821704Y5770174D01*
X5779068Y5676815D01*
X5779067Y5676813D01*
X5760666Y5548822D01*
X5760666Y5548817D01*
X5779067Y5420826D01*
X5779068Y5420824D01*
X5779068Y5420823D01*
X5779069Y5420821D01*
X5798211Y5378907D01*
X5816058Y5339826D01*
X5823032Y5279039D01*
X5792945Y5225762D01*
X5737289Y5200345D01*
X5726004Y5199700D01*
X5291127Y5199700D01*
X5291120Y5199699D01*
X5288494Y5199176D01*
X5287277Y5199321D01*
X5286282Y5199222D01*
X5286260Y5199441D01*
X5227734Y5206371D01*
X5182806Y5247905D01*
X5170872Y5307916D01*
X5171412Y5310556D01*
X5171256Y5310578D01*
X5190666Y5445583D01*
X5190666Y5445588D01*
X5172264Y5573579D01*
X5172263Y5573581D01*
X5172263Y5573583D01*
X5118544Y5691211D01*
X5070660Y5746472D01*
X5046844Y5802827D01*
X5060702Y5862423D01*
X5106942Y5902491D01*
X5145481Y5910300D01*
X5731650Y5910300D01*
X5789841Y5891393D01*
G37*
G04 #@! TD.AperFunction*
G04 #@! TA.AperFunction,Conductor*
G36*
X6946863Y7456393D02*
G01*
X6970346Y7432250D01*
X6973464Y7427698D01*
X6973465Y7427697D01*
X6973466Y7427695D01*
X7020591Y7380570D01*
X7048367Y7326055D01*
X7038796Y7265623D01*
X7020590Y7240564D01*
X6936213Y7156188D01*
X6886257Y7054000D01*
X7892500Y7054000D01*
X7950691Y7035093D01*
X7986655Y6985593D01*
X7991500Y6955000D01*
X7991500Y6645000D01*
X7972593Y6586809D01*
X7923093Y6550845D01*
X7892500Y6546000D01*
X6886257Y6546000D01*
X6936213Y6443813D01*
X7011322Y6368704D01*
X7039099Y6314187D01*
X7029528Y6253755D01*
X6986263Y6210490D01*
X6941318Y6199700D01*
X6806774Y6199700D01*
X6748583Y6218607D01*
X6736771Y6228696D01*
X6612253Y6353213D01*
X6599940Y6368216D01*
X6590031Y6383046D01*
X6590030Y6383048D01*
X6565815Y6399228D01*
X6499165Y6443763D01*
X6419039Y6459700D01*
X6405852Y6462323D01*
X6391982Y6465082D01*
X6391981Y6465082D01*
X6391977Y6465082D01*
X6388598Y6464410D01*
X6382921Y6465082D01*
X6382231Y6465082D01*
X6382231Y6465164D01*
X6327837Y6471603D01*
X6282909Y6513138D01*
X6270948Y6572920D01*
X6271791Y6580192D01*
X6271793Y6580195D01*
X6274700Y6605253D01*
X6274699Y6994746D01*
X6271793Y7019805D01*
X6268175Y7027998D01*
X6248008Y7073671D01*
X6241799Y7134541D01*
X6272554Y7187435D01*
X6283566Y7195973D01*
X6291890Y7201534D01*
X6367346Y7251952D01*
X6377258Y7266789D01*
X6389566Y7281786D01*
X6554086Y7446304D01*
X6608603Y7474081D01*
X6624089Y7475300D01*
X6888672Y7475300D01*
X6946863Y7456393D01*
G37*
G04 #@! TD.AperFunction*
G04 #@! TD*
M02*
