G04*
G04 #@! TF.GenerationSoftware,Altium Limited,Altium Designer,20.0.10 (225)*
G04*
G04 Layer_Color=65535*
%FSLAX25Y25*%
%MOIN*%
G70*
G01*
G75*
%ADD10C,0.00984*%
%ADD11C,0.00787*%
%ADD12C,0.00800*%
%ADD13C,0.01000*%
D10*
X14272Y16437D02*
X13533Y16863D01*
Y16011D01*
X14272Y16437D01*
X38366Y6988D02*
X37628Y7414D01*
Y6562D01*
X38366Y6988D01*
D11*
X31870Y9331D02*
X30886Y9067D01*
X30165Y8346D01*
X29902Y7362D01*
X1476Y394D02*
Y3839D01*
X44390Y394D02*
Y27505D01*
X394Y27352D02*
X44390Y27505D01*
X394Y4921D02*
Y27352D01*
Y4921D02*
X1476Y3839D01*
Y394D02*
X1476Y394D01*
X44390D01*
X1673Y3760D02*
X4331D01*
X11024D02*
X13878D01*
Y9567D01*
X1673Y3760D02*
Y9567D01*
X24882Y26969D02*
X31969D01*
X24882Y7283D02*
X31969D01*
X24882D02*
Y26969D01*
X31969Y7283D02*
Y26969D01*
X37795Y2756D02*
Y5709D01*
X23228Y2953D02*
Y5906D01*
D12*
X6890Y16437D02*
X8465Y16437D01*
X6894Y19373D02*
X8469Y19373D01*
D13*
X26556Y11157D02*
X29180D01*
X29704Y11682D01*
Y12731D01*
X29180Y13256D01*
X26556D01*
X29704Y15880D02*
X26556D01*
X28130Y14305D01*
Y16404D01*
X27081Y17454D02*
X26556Y17979D01*
Y19028D01*
X27081Y19553D01*
X27605D01*
X28130Y19028D01*
Y18504D01*
Y19028D01*
X28655Y19553D01*
X29180D01*
X29704Y19028D01*
Y17979D01*
X29180Y17454D01*
X27081Y20603D02*
X26556Y21127D01*
Y22177D01*
X27081Y22702D01*
X29180D01*
X29704Y22177D01*
Y21127D01*
X29180Y20603D01*
X27081D01*
M02*
