G04*
G04 #@! TF.GenerationSoftware,Altium Limited,Altium Designer,20.2.7 (254)*
G04*
G04 Layer_Color=57008*
%FSLAX25Y25*%
%MOIN*%
G70*
G04*
G04 #@! TF.SameCoordinates,406460B6-48FD-4742-B1C5-AEAEE7C8C6A4*
G04*
G04*
G04 #@! TF.FilePolarity,Positive*
G04*
G01*
G75*
%ADD11C,0.00787*%
%ADD13C,0.01000*%
D11*
X1476Y591D02*
X1698Y394D01*
X1476Y591D02*
Y3839D01*
X394Y4921D02*
X1476Y3839D01*
X44390Y369D02*
Y27507D01*
X394Y27354D02*
X44390Y27507D01*
X1698Y394D02*
X44390D01*
X394Y4921D02*
Y27354D01*
D13*
X33745Y22160D02*
X36107D01*
X36894Y21373D01*
Y19799D01*
X36107Y19012D01*
X33745D01*
X31384Y22160D02*
X29809D01*
X29022Y21373D01*
Y19012D01*
X31384D01*
X32171Y19799D01*
X31384Y20586D01*
X29022D01*
X27448Y19012D02*
Y22160D01*
X25087D01*
X24299Y21373D01*
Y19012D01*
X22725Y21373D02*
X19577D01*
X18002Y22948D02*
X17215Y23735D01*
X15641D01*
X14854Y22948D01*
Y19799D01*
X15641Y19012D01*
X17215D01*
X18002Y19799D01*
Y22948D01*
X13279Y19012D02*
Y19799D01*
X12492D01*
Y19012D01*
X13279D01*
X9344D02*
X7769D01*
X8556D01*
Y23735D01*
X9344Y22948D01*
M02*
