G04 #@! TF.GenerationSoftware,KiCad,Pcbnew,(6.0.8)*
G04 #@! TF.CreationDate,2022-12-15T21:22:00+03:00*
G04 #@! TF.ProjectId,hellen1-vr-discrete,68656c6c-656e-4312-9d76-722d64697363,rev?*
G04 #@! TF.SameCoordinates,PX4a19ba0PY5aa5910*
G04 #@! TF.FileFunction,Legend,Top*
G04 #@! TF.FilePolarity,Positive*
%FSLAX46Y46*%
G04 Gerber Fmt 4.6, Leading zero omitted, Abs format (unit mm)*
G04 Created by KiCad (PCBNEW (6.0.8)) date 2022-12-15 21:22:00*
%MOMM*%
%LPD*%
G01*
G04 APERTURE LIST*
%ADD10C,0.200000*%
%ADD11C,0.120000*%
G04 APERTURE END LIST*
D10*
X774999Y9396294D02*
X1274999Y7896294D01*
X1774999Y9396294D01*
X3132141Y7896294D02*
X2632141Y8610580D01*
X2274999Y7896294D02*
X2274999Y9396294D01*
X2846427Y9396294D01*
X2989284Y9324865D01*
X3060713Y9253437D01*
X3132141Y9110580D01*
X3132141Y8896294D01*
X3060713Y8753437D01*
X2989284Y8682008D01*
X2846427Y8610580D01*
X2274999Y8610580D01*
D11*
G04 #@! TO.C,R764*
X9770000Y1116359D02*
X9770000Y1423641D01*
X10530000Y1116359D02*
X10530000Y1423641D01*
G04 #@! TO.C,U754*
X10998030Y9510000D02*
X7548030Y9510000D01*
X10998030Y4390000D02*
X12948030Y4390000D01*
X10998030Y4390000D02*
X9048030Y4390000D01*
X10998030Y9510000D02*
X12948030Y9510000D01*
G04 #@! TO.C,U755*
X6350000Y9410000D02*
X4450000Y9410000D01*
X4950000Y7090000D02*
X6350000Y7090000D01*
D10*
G04 #@! TO.C,M750*
X100000Y100000D02*
X100000Y1400000D01*
X14500000Y9700000D02*
X100000Y9700000D01*
X100000Y100000D02*
X15100000Y100000D01*
X100000Y9700000D02*
X100000Y3300000D01*
X15100000Y100000D02*
X15100000Y5200000D01*
D11*
G04 #@! TO.C,R767*
X7770000Y3415234D02*
X7770000Y3107952D01*
X8530000Y3415234D02*
X8530000Y3107952D01*
G04 #@! TO.C,C759*
X9510000Y3153757D02*
X9510000Y3369429D01*
X8790000Y3153757D02*
X8790000Y3369429D01*
G04 #@! TO.C,R769*
X7770000Y1116359D02*
X7770000Y1423641D01*
X8530000Y1116359D02*
X8530000Y1423641D01*
G04 #@! TO.C,C758*
X11090000Y1377836D02*
X11090000Y1162164D01*
X11810000Y1377836D02*
X11810000Y1162164D01*
G04 #@! TO.C,C751*
X5935000Y2357836D02*
X5935000Y2142164D01*
X5215000Y2357836D02*
X5215000Y2142164D01*
G04 #@! TO.C,R755*
X6198641Y3270000D02*
X5891359Y3270000D01*
X6198641Y4030000D02*
X5891359Y4030000D01*
G04 #@! TO.C,D751*
X615000Y6785000D02*
X615000Y5315000D01*
X615000Y5315000D02*
X2900000Y5315000D01*
X2900000Y6785000D02*
X615000Y6785000D01*
G04 #@! TO.C,R751*
X1903641Y7730000D02*
X1596359Y7730000D01*
X1903641Y6970000D02*
X1596359Y6970000D01*
G04 #@! TO.C,R759*
X5891359Y5030000D02*
X6198641Y5030000D01*
X5891359Y4270000D02*
X6198641Y4270000D01*
G04 #@! TO.C,R758*
X7180000Y2367856D02*
X7180000Y2060574D01*
X6420000Y2367856D02*
X6420000Y2060574D01*
G04 #@! TO.C,C763*
X1557836Y4860000D02*
X1342164Y4860000D01*
X1557836Y4140000D02*
X1342164Y4140000D01*
G04 #@! TO.C,C767*
X11090000Y3153757D02*
X11090000Y3369429D01*
X11810000Y3153757D02*
X11810000Y3369429D01*
G04 #@! TO.C,R756*
X5891359Y395000D02*
X6198641Y395000D01*
X5891359Y1155000D02*
X6198641Y1155000D01*
G04 #@! TO.C,U756*
X14491100Y1409900D02*
X14491100Y2809900D01*
X12171100Y2809900D02*
X12171100Y909900D01*
G04 #@! TO.C,U751*
X2825706Y771597D02*
X2025706Y771597D01*
X2825706Y3891597D02*
X1025706Y3891597D01*
X2825706Y771597D02*
X3625706Y771597D01*
X2825706Y3891597D02*
X3625706Y3891597D01*
G04 #@! TO.C,C765*
X5042164Y5940000D02*
X5257836Y5940000D01*
X5042164Y6660000D02*
X5257836Y6660000D01*
G04 #@! TO.C,C754*
X9510000Y1162164D02*
X9510000Y1377836D01*
X8790000Y1162164D02*
X8790000Y1377836D01*
G04 #@! TO.C,R768*
X10530000Y3107952D02*
X10530000Y3415234D01*
X9770000Y3107952D02*
X9770000Y3415234D01*
G04 #@! TD*
M02*
